<?xml version="1.0" encoding="UTF-8"?>
<svg id="Layer_2" data-name="Layer 2" xmlns="http://www.w3.org/2000/svg" viewBox="0 0 423.37 521.45">
  <defs>
    <style>
      .cls-1 {
        fill: #0a76bd;
      }
    </style>
  </defs>
  <g id="Layer_1-2" data-name="Layer 1">
    <g>
      <path class="cls-1" d="M4.18,424.52c-1.11,0-2-.91-2-2.03s.9-2.02,2-2.02h416.79c1.1,0,1.99.91,1.99,2.02s-.9,2.03-1.99,2.03H4.18Z"/>
      <path class="cls-1" d="M210.54,281.02c-106.97.83-198.76-24.36-193.71-40.13,6.26-19.61,66.99-32.41,138.55-37.63l-7.03,26.07-86.55-.42v16.39h99.57l11.68-43.18c12.39-.67,24.91-1.11,37.48-1.36,12.91-.23,25.54-.07,37.73.38l11.85,44.16h100.03v-15.13h-87.84l-7.62-28.18c80.73,5.03,139.92,23.82,139.59,38.89-.47,20.31-87.41,39.27-193.75,40.13M210.98,62.16l33.19,123.73c-10.83-.47-22.2-.83-34.27-1.03-10.71-.18-21.5-.08-32.23.26l33.3-122.96ZM260.59,186.75L210.15,0l-50.07,185.89C76.64,190.59,1.21,210.16.01,240.49c-1.25,32.95,94,55.97,209.9,55.64,146.04-.4,209.43-27.47,209.92-55.64.4-22.37-41.89-46.65-159.25-53.74"/>
      <path class="cls-1" d="M55.56,319.84c0-1.81-1.48-3.28-3.29-3.28s-3.28,1.47-3.28,3.28v37.45s1.84,19.05-19.3,19.05c0,0-18.61,1.16-18.61-19.15l.34-8.68c0-1.8-1.45-3.26-3.27-3.26s-3.29,1.46-3.29,3.26v7.25s-1.9,26.41,24.76,26.96c0,0,27.06,2.05,26.08-28.32l-.14-34.56Z"/>
      <path class="cls-1" d="M419.83,319.63c0-1.81-1.48-3.28-3.3-3.28s-3.28,1.47-3.28,3.28v59.75c0,1.8,1.46,3.27,3.28,3.27s3.3-1.47,3.3-3.27v-59.75Z"/>
      <path class="cls-1" d="M185.72,375.97s-11.17,1.34-10.22-10.22c0,0,.11-9.92,12.53-9.69h24.91s16.1.09,16.42,19.91h-43.64ZM385.31,375.87h-44.21s-10.87.61-10.87-10.95c0,0-1.18-9.5,11.51-9.5l43.57.25c1.8,0,3.27-1.46,3.27-3.28s-1.47-3.29-3.27-3.29h-46.33s-15.07,0-15.07,16.22c0,0-.65,6,3.36,10.73h-91.69s1.25-26.75-24.97-26.75h-23.81s-12.76-.41-17.2,11.59c0,0-2.51,8.94,2.43,15.16h-76.4s-17.5-.51-15.82-23.81l.16-32.41c0-1.81-1.46-3.28-3.26-3.28s-3.3,1.47-3.3,3.28v38.17s0,24.37,23.56,24.37h288.02l.32.06c1.8,0,3.27-1.49,3.27-3.28s-1.47-3.29-3.27-3.29"/>
      <path class="cls-1" d="M370.16,457.73c0-1.8-1.46-3.27-3.28-3.27s-3.29,1.47-3.29,3.27v38.94s-.91,22.47,25.35,24.78h30.43l.54-.02c1.92,0,3.44-1.54,3.44-3.45s-1.52-3.43-3.44-3.43h-29.57s-20.64.32-20.01-21.97l-.19-34.84Z"/>
      <path class="cls-1" d="M244.24,455.12c-10.56,0-19.59,5.12-23.65,13.89-4.09-8.77-13.1-13.89-23.66-13.89-15.16,0-27.98,11.84-26.55,27.51v32.56l.1,2.84c0,1.82,1.46,3.31,3.3,3.31s3.28-1.48,3.28-3.31l-.04-11.02v-24.62c-1.07-11.84,8.62-20.78,20.05-20.78s20.49,7.87,19.63,20.45l.35,35.31c0,1.95,1.6,3.56,3.58,3.56s3.55-1.61,3.55-3.56l-.04-10.36v-24.62c-1.06-11.84,8.62-20.78,20.04-20.78s20.49,7.87,19.63,20.45l.34,35.96c0,1.82,1.47,3.31,3.31,3.31s3.28-1.48,3.28-3.31l.04-.65v-34.75c1.4-15.67-11.39-27.51-26.53-27.51"/>
      <path class="cls-1" d="M68.25,488.64l-59.88.15v-7.71s-.33-19.21,20.98-19.21h18.89s20.01.95,20.01,18.27v8.51ZM48.41,455.08h-19.06c-29.48,0-27.63,25.21-27.63,25.21v37.74c0,1.82,1.47,3.3,3.27,3.3s3.28-1.48,3.28-3.3l.09-22.31h60v22.31c0,1.82,1.47,3.3,3.28,3.3s3.29-1.48,3.29-3.3l.08-37.1c0-25.69-26.61-25.85-26.61-25.85"/>
      <path class="cls-1" d="M153.98,488.64l-59.89.15v-7.71s-.31-19.21,20.95-19.21h18.92s20.02.95,20.02,18.27v8.51ZM134.12,455.08h-19.08c-29.45,0-27.59,25.21-27.59,25.21v37.74c0,1.82,1.46,3.3,3.26,3.3s3.3-1.48,3.3-3.3l.08-22.31h60.02v22.31c0,1.82,1.46,3.3,3.27,3.3s3.29-1.48,3.29-3.3l.09-37.1c0-25.69-26.65-25.85-26.65-25.85"/>
      <path class="cls-1" d="M345.4,488.64l-59.9.15v-7.71s-.31-19.21,20.95-19.21h18.91s20.04.94,20.04,18.27v8.51ZM325.53,455.08h-19.08c-29.48,0-27.62,25.21-27.62,25.21v37.74c0,1.82,1.46,3.3,3.29,3.3s3.27-1.48,3.27-3.3l.11-22.31h59.99v22.31c0,1.82,1.46,3.3,3.3,3.3s3.29-1.48,3.29-3.3l.08-37.1c0-25.69-26.64-25.85-26.64-25.85"/>
    </g>
  </g>
</svg>