<?xml version="1.0" encoding="UTF-8"?>
<svg id="Layer_2" data-name="Layer 2" xmlns="http://www.w3.org/2000/svg" viewBox="0 0 237.27 102.39">
  <defs>
    <style>
      .cls-1 {
        fill: #707377;
      }

      .cls-2 {
        fill: #c3c6c9;
      }

      .cls-3 {
        fill: #f58429;
      }

      .cls-4 {
        fill: #f4baa5;
      }
    </style>
  </defs>
  <g id="Layer_1-2" data-name="Layer 1">
    <path class="cls-3" d="M145.15,88.52c-.84,0-1.54-.1-2.67-.35l-.08-11.57h-1.65s0-.46,0-.46l2.73-.7h.34s.08,12.06.08,12.06c.63.22.9.29,1.37.29,1.86-.01,3.17-1.5,3.15-3.6-.01-1.9-.95-3.08-2.47-3.07h-1.39s0-.57,0-.57c.97-.3,1.43-.38,1.94-.38,2.07-.01,3.55,1.6,3.56,3.88.01,2.67-1.93,4.45-4.91,4.47M198.75,81.68c-.38-.33-.65-.49-.84-.49-.34,0-.68.3-1.72,1.48l.03,4.64h1.83s0,.63,0,.63l-4.7.03v-.65s1.44-.01,1.44-.01l-.04-6.28h-1.65s0-.46,0-.46l2.73-.7h.34s.01,1.95.01,1.95c1.36-1.61,1.85-2,2.53-2.01.23,0,.42.05.53.15l.59.47-1.1,1.23ZM189.43,84.43l-3.25.72v.87c.01.73.53,1.2,1.33,1.19.61,0,1.1-.25,1.93-.94v-1.85ZM191.07,88.03c-.25.07-.51.12-.67.12-.59,0-.93-.38-.94-1.02v-.17c-.79.91-1.51,1.28-2.52,1.29-1.31,0-2.29-.82-2.29-1.99,0-.89.62-1.63,1.53-1.82l3.24-.7v-1.97c-.02-.7-.59-1.2-1.35-1.19-.38,0-.63.06-1.17.3v.83s-1.69.47-1.69.47c-.13-.21-.15-.29-.15-.49,0-1.01,1.26-1.77,2.99-1.78,1.67-.01,2.78.75,2.79,1.9l.03,5.37h1.46s0,.48,0,.48l-1.27.38ZM181.95,88.21c-1.1,0-1.77-.62-1.78-1.68l-.04-5.39h-1.65s0-.46,0-.46l1.65-.39-.02-2.41h1.37s.02,2.45.02,2.45h2.36s0,.79,0,.79h-2.36s.04,5.25.04,5.25c0,.66.25.91.88.9.4,0,.65-.07,1.29-.43l.33.47c-1,.74-1.38.9-2.09.9M175.06,84.52l-3.25.72v.87c.01.73.53,1.2,1.33,1.2.61,0,1.1-.25,1.93-.94v-1.85ZM176.7,88.13c-.25.07-.51.12-.66.13-.59,0-.93-.38-.94-1.02v-.18c-.8.91-1.51,1.28-2.52,1.29-1.31.01-2.29-.82-2.3-1.99,0-.89.62-1.62,1.53-1.82l3.25-.7v-1.97c-.02-.7-.59-1.2-1.35-1.19-.38,0-.63.06-1.18.3v.84s-1.68.47-1.68.47c-.13-.21-.15-.29-.16-.49,0-1.01,1.26-1.77,2.99-1.78,1.67-.01,2.78.75,2.79,1.9l.04,5.37h1.46s0,.48,0,.48l-1.27.38ZM162.27,77.37c-2.49.02-4.27,2.12-4.24,5.09.02,2.95,1.82,5.06,4.29,5.05,2.43-.02,4.19-2.17,4.17-5.11-.02-2.93-1.8-5.05-4.21-5.03M166.71,92.19v-.02c-1.35-.62-1.87-.89-2.6-1.43-.78-.57-1.28-1.07-2.37-2.37-1.69-.2-2.82-.73-3.87-1.81-1.05-1.07-1.71-2.62-1.72-4.07-.02-3.28,2.75-6,6.1-6.02,3.31-.02,6.1,2.68,6.12,5.92.01,2.11-1.21,4.18-3.1,5.24-.49.28-.82.41-1.63.62,1.32,1.42,2.7,2.39,3.4,2.39.29,0,.57-.15,1.25-.62l.44.49-2.02,1.69ZM138.15,84.78l-3.25.72v.88c.01.73.53,1.2,1.33,1.19.61,0,1.1-.25,1.93-.94v-1.85ZM139.79,88.38c-.25.07-.51.12-.66.12-.59,0-.93-.38-.94-1.02v-.17c-.79.91-1.51,1.28-2.52,1.29-1.31,0-2.29-.82-2.29-1.99,0-.89.62-1.63,1.53-1.82l3.25-.7v-1.97c-.02-.7-.59-1.2-1.35-1.2-.38,0-.62.06-1.18.3v.84s-1.68.47-1.68.47c-.13-.21-.15-.3-.15-.49,0-1.01,1.26-1.77,2.99-1.78,1.67,0,2.78.75,2.79,1.9l.04,5.38h1.46s0,.48,0,.48l-1.27.37ZM123.94,88.45v-.65s1.42,0,1.42,0l-.07-10.22h-1.42s0-.64,0-.64l4.52-.03v.65s-1.42,0-1.42,0l.07,10.08,4.68-.03v-1.53s.87,0,.87,0v2.32s-8.64.06-8.64.06ZM218.03,62.33c-1.27,0-2.07.9-2.06,2.32.01,1.41.81,2.31,2.09,2.3,1.26,0,2.07-.92,2.06-2.33,0-1.41-.83-2.3-2.09-2.29M220.58,70.32l-4.32.03c-.49.65-.62.98-.62,1.46,0,1.03,1.08,1.75,2.6,1.74,1.67-.01,3.08-1.08,3.07-2.32,0-.56-.29-.91-.73-.9M221,62.97c.46.49.61.9.62,1.62.01,1.85-1.37,3.03-3.61,3.04-.57,0-.78-.03-1.35-.2-.57.54-.79.88-.79,1.19,0,.3.19.45.55.45l4.75-.03c.91,0,1.45.58,1.46,1.6.01,1.97-2.14,3.59-4.82,3.61-1.64.01-2.67-.47-3.72-1.74.41-.95.56-1.19,1.47-2.24-.55-.1-.84-.26-1.43-.86.64-1.05.92-1.37,1.98-2.19-1.12-.59-1.65-1.37-1.65-2.47-.01-1.87,1.39-3.06,3.55-3.08.78,0,1.05.06,2.08.51h1.21s1.35-.31,1.35-.31v1.1s-1.65.01-1.65.01ZM208.77,69.84v-.64s1.42-.01,1.42-.01l-.04-5.11c0-.92-.52-1.5-1.36-1.49-.82,0-1.29.34-2.93,2.1l.03,4.53h1.44s0,.64,0,.64l-4.32.03v-.64s1.44,0,1.44,0l-.04-6.28h-1.65s0-.46,0-.46l2.73-.7h.34s.01,1.95.01,1.95c1.42-1.53,2.23-2,3.45-2.01,1.41-.01,2.29.82,2.3,2.16l.04,5.29h1.42s0,.64,0,.64l-4.3.03ZM199.67,59.75c-.55,0-.99-.39-.99-.92,0-.51.43-.91.98-.92.57,0,1.01.39,1.01.9,0,.52-.43.93-1,.93M197.66,69.92v-.65s1.44,0,1.44,0l-.04-6.28h-1.65s0-.46,0-.46l2.73-.7h.35s.05,7.43.05,7.43h1.44s0,.64,0,.64l-4.32.03ZM192.31,62.94c-.74,0-1.23.23-2.1,1.02l.03,4.01c0,1.08.41,1.48,1.49,1.47,1.81-.01,3.03-1.4,3.02-3.44-.01-1.9-.95-3.08-2.43-3.07M191.94,70.18c-.72,0-1.01-.08-1.69-.41l.03,3.79h1.73s0,.64,0,.64l-4.6.03v-.65s1.44-.01,1.44-.01l-.07-10.52h-1.67s0-.48,0-.48l2.73-.68h.36s0,1.2,0,1.2c.96-.91,1.68-1.23,2.77-1.24,2.01-.01,3.4,1.51,3.41,3.78.02,2.62-1.85,4.53-4.44,4.55M181.95,62.64c-1.43,0-2.52,1.52-2.51,3.45.01,1.92,1.13,3.43,2.55,3.42,1.43-.01,2.54-1.52,2.52-3.46-.01-1.93-1.14-3.43-2.57-3.42M182,70.25c-2.3.02-4.18-1.84-4.19-4.14-.02-2.3,1.84-4.18,4.14-4.2,2.3-.01,4.18,1.84,4.19,4.14.02,2.31-1.84,4.19-4.14,4.2M169.76,59.48l-2.32.02.06,9.75h2.28c2.6-.03,4.55-2.16,4.53-4.93-.02-2.69-2.05-4.85-4.56-4.84M170,70.1l-5.59.04v-.64s1.42,0,1.42,0l-.07-10.22h-1.43s0-.63,0-.63l5.61-.04c3.42-.02,6.24,2.54,6.26,5.69.02,3.23-2.7,5.8-6.2,5.82M155.66,60.05c-.55,0-.99-.39-1-.92,0-.51.43-.91.98-.91.57,0,1.01.39,1.01.9,0,.52-.43.93-1,.93M153.65,70.21v-.65s1.44,0,1.44,0l-.04-6.28h-1.65s0-.46,0-.46l2.73-.7h.34s.05,7.43.05,7.43h1.44s0,.63,0,.63l-4.32.03ZM150.93,70.39c-1.1,0-1.77-.62-1.78-1.68l-.04-5.39h-1.65s0-.46,0-.46l1.65-.4-.02-2.41h1.37s.02,2.45.02,2.45h2.35s0,.79,0,.79l-2.36.02.03,5.23c0,.66.25.91.88.9.4,0,.65-.07,1.29-.43l.32.47c-1,.74-1.38.9-2.08.9M142.66,70.29v-.64s1.42-.01,1.42-.01l-.03-5.11c0-.92-.52-1.5-1.36-1.49-.82,0-1.29.34-2.93,2.1l.03,4.54h1.45s0,.64,0,.64l-4.32.03v-.64s1.44-.01,1.44-.01l-.04-6.28h-1.66s0-.46,0-.46l2.73-.7h.34s.01,1.95.01,1.95c1.42-1.53,2.23-2,3.45-2.01,1.41-.01,2.29.82,2.3,2.17l.04,5.28h1.43s0,.64,0,.64l-4.3.03ZM129.56,60.85l-2.11,4.91,4.18-.03-2.07-4.89ZM131.79,70.36v-.65s1.52-.01,1.52-.01l-1.35-3.15-4.87.03-1.37,3.15h1.58s0,.65,0,.65l-3.63.02v-.66s.98,0,.98,0l4.87-11.25h.68s4.83,11.18,4.83,11.18h1.08s0,.66,0,.66l-4.33.03Z"/>
    <path class="cls-3" d="M151.41,13.6c.57,0,1.01-.41,1-.93,0-.51-.44-.91-1.01-.9-.55,0-.99.41-.99.91,0,.52.45.92,1,.92M151.67,22.87c-1.43.01-2.54-1.5-2.55-3.42-.01-1.94,1.08-3.44,2.51-3.45,1.43,0,2.56,1.48,2.57,3.42.01,1.94-1.1,3.44-2.52,3.45M151.61,15.26c-2.3.01-4.15,1.9-4.14,4.2,0,1.33.64,2.5,1.61,3.26h-4.95v.02c.08-.69.11-1.2.11-1.8,0-3.16-2.3-5.29-5.84-5.34h0s-.08,0-.08,0h-.06s0,0,0,0c-1.32.01-2.47.32-3.39.86l1.02.81c.68-.52,1.51-.86,2.44-.87,2.55.01,4.33,2.51,4.33,4.4,0,.47-.01,1.17-.13,1.93h-10.15c-.56-.03-.79-.36-.79-.98v-4.21h-.02v-1.45c-1.07-.33-1.75-.41-2.74-.41-.95,0-1.71.15-2.38.42-1.52.62-2.57,2.25-2.56,3.98.01,2.23,1.59,3.98,3.56,3.97.48,0,.93-.09,1.96-.38v-.59s-1.41.01-1.41.01c-1.39.01-2.46-1.4-2.47-3.26-.01-2.08,1.25-3.37,3.29-3.39.53,0,.81.03,1.35.27v4.18s.01,1.04.01,1.04c0,1.06.72,1.69,1.82,1.68h19.49c.06,0,.12,0,.17,0,2.3-.02,4.15-1.9,4.13-4.2-.01-2.3-1.89-4.16-4.19-4.14M149.34,33.52c0-.5-.44-.9-1.01-.9-.55,0-.99.41-.98.91,0,.52.44.92.99.92.57,0,1.01-.41,1-.93M151.74,33.52c0-.5-.44-.9-1.01-.9-.55,0-.99.41-.98.91,0,.52.44.92.99.92.57,0,1.01-.41,1-.93M167.91,33.52c0-.5-.44-.9-1.01-.9-.55,0-.99.41-.98.91,0,.52.44.92.99.92.57,0,1.01-.41,1-.93M170.31,33.52c0-.5-.44-.9-1.01-.9-.55,0-.99.41-.98.91,0,.52.44.92.99.92.57,0,1.01-.41,1-.93M202.65,33.54c0,.52.44.92.99.92.57,0,1-.41,1-.93,0-.5-.44-.9-1.01-.9-.55,0-.99.41-.98.91M206.05,34.45c.57,0,1.01-.41,1-.93,0-.5-.44-.9-1.01-.9-.55,0-.99.41-.98.91,0,.52.44.92.99.92M127.57,13.87c.57,0,1-.41,1-.93,0-.5-.44-.9-1.01-.9-.55,0-.99.41-.98.91,0,.52.44.92,1,.92M129.97,13.87c.57,0,1-.41,1-.93,0-.5-.45-.9-1.01-.9-.55,0-.99.41-.98.91,0,.52.44.92,1,.92M202.87,13.69c.57,0,1.01-.41,1-.93,0-.51-.44-.9-1.01-.9-.55,0-.99.41-.98.92,0,.52.44.92.99.92M211.35,13.69c.57,0,1.01-.41,1-.93,0-.51-.44-.9-1.01-.9-.55,0-.99.41-.98.92,0,.52.44.92.99.92M205.27,13.69c.57,0,1.01-.41,1-.93,0-.51-.44-.9-1.02-.9-.55,0-.98.41-.98.92,0,.52.45.92.99.92M205.85,31.58c0-.51-.44-.9-1.02-.9-.55,0-.98.41-.98.91,0,.52.44.92,1,.92.57,0,1-.41,1-.93M196.14,25.78c0,.52.44.92.99.92.57,0,1.01-.41,1-.93,0-.51-.44-.9-1.01-.9-.55,0-.99.41-.98.92M214.81,33.54c0,.52.44.92.99.92.57,0,1.01-.41,1-.93,0-.5-.44-.9-1.01-.9-.55,0-.99.41-.98.91M178.74,18.17c1.26-.01,2.08,1.07,2.09,2.79,0,1.73-.8,2.84-2.06,2.85-1.28.01-2.08-1.09-2.09-2.81,0-1.72.78-2.82,2.06-2.82M177.37,24.4c.57.21.78.25,1.35.24,2.24-.02,3.63-1.46,3.61-3.71,0-.87-.55-2.29-1.54-2.95-.47-.31-1.3-.63-2.08-.62-2.17.02-3.57,1.48-3.55,3.76,0,.61.12,1.14.35,1.61h-4.77c1.15-.78,1.81-2.03,1.8-3.59-.01-2.29-1.49-3.9-3.56-3.88-.13,0-.33,0-.55.02l5.56-6.08v-.54h-3.16v.41h1.33l-4.56,5.02c-.99,1.08-1.67,1.15-2.54,1.15l.04,1c.13,0,.24-.01.35-.02h0s2.97-.01,2.97-.01c1.52-.01,2.46,1.17,2.47,3.07.01,1.98-1.15,3.3-2.86,3.46-.1.01-5.14.01-5.24.02-.48,0-.74,0-1.37-.16l-.08-12.06h-.34s-2.73.7-2.73.7v.48s1.66-.01,1.66-.01l.08,11.92h2.66c.09,0,3.83,0,4.94,0h-.01s8.54,0,8.54,0c.19.19.41.36.67.52,0,0,.46.24.55.27M222.46,44.66c-1.28.01-2.08-1.09-2.09-2.81,0-1.72.79-2.82,2.06-2.83,1.25-.01,2.08,1.07,2.09,2.79.01,1.72-.8,2.84-2.05,2.85M194.05,43.57h-8.4c-.11-.76-.13-1.45-.13-1.93,0-1.89,1.78-4.39,4.33-4.4,2.55.01,4.33,2.51,4.33,4.4,0,.48-.01,1.17-.13,1.93M230.53,31.59h-.42s-2.73.7-2.73.7v.46h1.73v.64h0v8.61c0,1.07-.47,1.59-1.4,1.58h-2.04c.23-.51.36-1.12.35-1.79,0-.87-.55-2.29-1.54-2.95-.47-.31-1.29-.63-2.07-.62-2.17.02-3.57,1.48-3.55,3.76,0,.61.12,1.14.35,1.61h-3.42c.22-.31.35-.69.38-1.15h0v-5.9h-.42l-2.73.7v.46h1.73v4.31c-.02,1.07-.47,1.59-1.41,1.58h-3.58c.25-.36.39-.81.39-1.36v-5.77h-.4s-2.73.7-2.73.7v.46h1.69v4.39c0,1.07-.47,1.59-1.4,1.58-.54,0-.95-.17-1.49-.68.05-.21.09-.43.09-.68v-5.77h-.4s-2.73.7-2.73.7v.46h1.69v4.39c0,.13,0,.26-.02.37h-.03s.03.03.03.03c-.11.79-.56,1.18-1.37,1.18-.58,0-1-.2-1.6-.78.04-.18.07-.37.07-.58v-5.77h-.4s-2.73.7-2.73.7v.46h1.69v4.39c0,1.07-.47,1.59-1.4,1.58h-3.05c.1-.68.13-1.19.12-1.8,0-3.16-2.3-5.3-5.85-5.34h0s-.07,0-.07,0h-.07s0,0,0,0c-1.88.02-3.4.63-4.43,1.67v-6.52h-1.42v11.98h-2.64c-.93,0-1.39-.51-1.4-1.58v-10.41h-.42s-2.73.7-2.73.7v.46h1.71v9.47c0,1.39.89,2.24,2.32,2.23h4.59s9.77-.01,9.77-.01h0s4.09.01,4.09.01c.94,0,1.64-.37,2.01-1.01.82.72,1.52,1.01,2.37,1.01.9,0,1.58-.33,1.97-.94.79.66,1.46.93,2.28.94h12c.19.19.41.36.66.52,0,0,.46.24.55.27.57.21.78.25,1.35.25,1.14-.01,2.05-.38,2.67-1.04h3.15c1.42,0,2.31-.84,2.32-2.23v-10.63h-.01s0,0,0,0ZM236.85,31.59l-2.73.7v.46h1.73v11.7h1.42v-12.86h-.42ZM224.55,17.99c1.26-.01,2.08,1.07,2.09,2.79.01,1.72-.8,2.84-2.06,2.85-1.27.01-2.08-1.09-2.09-2.81,0-1.72.78-2.82,2.06-2.83M190.81,16.66l.05,8.43c0,1.47-.14,1.88-1.21,3.57l.46.33c1.19-1.25,1.54-1.69,2.21-3.21v-2.36s3.79,0,3.79,0c.22,0,.42-.02.6-.06v.06h5.6c.19,0,.36-.01.53-.04l-.08.04h5,0s8.23,0,8.23,0h0s5.97,0,5.97,0c.19.19.41.36.67.52,0,0,.46.24.55.27.57.21.78.25,1.35.25,2.24-.02,3.62-1.46,3.61-3.71,0-.87-.55-2.29-1.54-2.95-.47-.31-1.29-.63-2.07-.62-2.17.02-3.57,1.48-3.55,3.76,0,.61.12,1.14.35,1.61h-3.32c.09-.68.12-1.19.12-1.79,0-3.17-2.3-5.29-5.84-5.34h0s-.08,0-.08,0h-.06s0,0,0,0c-1.32.02-2.47.32-3.39.86l1.02.81c.68-.52,1.51-.86,2.44-.87,2.55.01,4.33,2.51,4.33,4.4,0,.47-.01,1.17-.13,1.93h-9.42s-2.5,0-2.5,0l-.42.21c.36-.38.56-.91.57-1.57v-5.77h-.4s-2.73.7-2.73.7v.46h1.69v4.39c0,1.06-.47,1.58-1.4,1.58h-3.76c.25-.36.39-.82.39-1.36v-5.77h-.4s-2.74.7-2.74.7v.46h1.69v4.39c0,1.06-.47,1.58-1.4,1.58h-3.28l-.04-7.04h-.36l-2.78.7v.47s1.7-.01,1.7-.01ZM149.32,43.73c-1.42,0-2.54-1.5-2.55-3.42-.01-1.94,1.08-3.44,2.51-3.45,1.43-.01,2.56,1.48,2.57,3.42.01,1.94-1.1,3.45-2.53,3.46M140.53,43.57h-8.4c-.11-.76-.13-1.45-.13-1.93,0-1.89,1.78-4.39,4.33-4.4,2.55.01,4.33,2.51,4.33,4.4,0,.48-.01,1.17-.13,1.93M149.26,36.12c-2.3.02-4.15,1.9-4.13,4.2,0,1.33.64,2.51,1.61,3.26h-4.62c.09-.68.13-1.19.12-1.8,0-3.16-2.3-5.3-5.85-5.34h0s-.07,0-.07,0h-.07s0,0,0,0c-1.88.02-3.4.63-4.43,1.67v-6.52h-1.42v11.98h-1.92c-.93,0-1.39-.51-1.4-1.58h0s-.03-5.6-.03-5.6h-.36s-2.78.7-2.78.7v.47s1.7-.01,1.7-.01l.05,8.43c0,1.46-.14,1.88-1.21,3.57l.46.32c1.19-1.25,1.54-1.68,2.21-3.21v-2.35c.25.08.53.13.85.12h3.87s9.29-.01,9.29-.01h0s8.1.01,8.1.01h.1s.08,0,.08,0h.08c2.23-.1,4-1.94,3.98-4.19-.02-2.3-1.89-4.16-4.19-4.14M174.22,42c0,1.07-.47,1.59-1.4,1.58h-9.43c-.93,0-1.39-.51-1.4-1.58v-5.55h-.4s-2.74.7-2.74.7v.46h1.69v4.61c0,1.39.89,2.24,2.32,2.23h10.49c1.42,0,2.31-.84,2.32-2.23v-5.77h-1.44s0,5.55,0,5.55Z"/>
    <path class="cls-3" d="M56.18,24.19c.27,1.76,0,3.48-.66,4.99,1.09-2.04,3.09-3.57,5.55-3.94,4.15-.63,8.01,2.22,8.63,6.36.13.85.1,1.69-.04,2.49,2.09-1.55,3.68-3.75,4.46-6.3.36-1.17.54-2.41.54-3.7-.04-6.13-4.54-11.18-10.4-12.1-.29-.05-.59-.08-.89-.11-.37-.03-.75-.05-1.13-.05-3.18.02-6.08,1.25-8.25,3.24-.84.77-1.57,1.65-2.17,2.63,2.27,1.34,3.94,3.66,4.37,6.47"/>
    <path class="cls-1" d="M39.51,30.43c-.66-1.04-1.12-2.22-1.32-3.52-.75-4.97,2.67-9.61,7.64-10.36,1.69-.25,3.33-.02,4.81.59-.53-7.75-7-13.85-14.87-13.79-8.17.06-14.76,6.73-14.71,14.91.02,3.65,1.37,6.98,3.57,9.54,1.29-.87,2.79-1.47,4.43-1.72,4.16-.63,8.12,1.18,10.45,4.35"/>
    <path class="cls-1" d="M32.18,47.69c-5.91.82-11.39-3.27-12.28-9.18-.6-3.94.99-7.71,3.86-10.07-1.91-.68-3.96-1.05-6.1-1.03C7.84,27.47-.07,35.47,0,45.29c.06,9.81,8.08,17.71,17.89,17.64,1.18,0,2.33-.13,3.44-.36-1.07-7.1,3.77-13.73,10.84-14.89"/>
    <path class="cls-4" d="M41.49,35.25c-.16-1.07-.48-2.08-.92-3.02-1.82,1.03-3.04,2.98-3.03,5.22.01,2.03,1.05,3.82,2.6,4.88,1.19-2.07,1.72-4.54,1.34-7.08"/>
    <path class="cls-4" d="M35.6,47.58c-.36.86-.55,1.8-.55,2.79.03,3.95,3.25,7.12,7.19,7.1,1.62-.01,3.11-.57,4.3-1.49-1.76-4.65-6.03-7.9-10.95-8.39"/>
    <path class="cls-3" d="M79.94,42.29c-.13-.35-.27-.7-.43-1.03-1.72-3.59-5.4-6.05-9.63-6.02-.13,0-.27,0-.4.01h-.11c-3.56.2-6.65,2.14-8.43,4.98-1.03,1.65-1.63,3.6-1.61,5.69.02,2.33.78,4.48,2.07,6.22-1.55-1.46-3.63-2.35-5.92-2.34-2.72.02-5.14,1.31-6.7,3.3.37-.87.57-1.82.56-2.82-.03-3.41-2.43-6.24-5.63-6.93,2.72-.09,4.97-2.01,5.58-4.56.8.72,1.86,1.16,3.02,1.15,1.74-.01,3.24-1.02,3.97-2.47-.8-1.01-1.36-2.22-1.57-3.59-.11-.74-.11-1.47-.01-2.17.09-.68.28-1.33.55-1.95-.31.59-.68,1.14-1.1,1.65-1.37,1.63-3.32,2.8-5.6,3.14-.22.03-.44.05-.65.07-2.68.21-5.2-.77-7.03-2.53l-.04.02c-.08.04-.17.08-.25.13.44.93.75,1.95.92,3.02.39,2.54-.15,5.01-1.34,7.08.58.4,1.24.69,1.95.86-1.11.01-2.15.28-3.08.75-1.07.53-1.98,1.31-2.66,2.28-.3.43-.56.88-.76,1.37,4.92.49,9.19,3.75,10.95,8.39.43-.33.82-.71,1.17-1.12-.36.81-.61,1.67-.71,2.59-.04.32-.06.65-.06.99,0,.93.16,1.81.44,2.65.14.43.32.84.53,1.24,1.44,2.76,4.33,4.64,7.66,4.62,2.3-.02,4.38-.94,5.91-2.43.47-.46.89-.97,1.25-1.54.86-1.34,1.36-2.94,1.35-4.65,0-1.35-.34-2.62-.9-3.76-.19-.39-.41-.76-.66-1.12.47.46.98.87,1.52,1.23,1.47.99,3.2,1.61,5.07,1.75.3.02.6.04.9.03.08,0,.17,0,.25,0,.64-.02,1.26-.09,1.86-.22.92-.19,1.8-.51,2.61-.92,3.47-1.76,5.84-5.38,5.81-9.54,0-1.22-.23-2.4-.61-3.49"/>
    <path class="cls-4" d="M69.7,31.61c-.63-4.14-4.49-6.99-8.63-6.36-2.46.37-4.46,1.9-5.55,3.94.67-1.52.93-3.23.67-4.99-.43-2.82-2.1-5.13-4.37-6.48-.63,1.02-1.11,2.13-1.42,3.31-.09.28-.13.53-.19.82-.15.78-.23,1.59-.22,2.41.02,2.49.78,4.81,2.06,6.74-1.74.09-3.22,1.18-3.87,2.71-1.1-1.39-2.8-2.27-4.7-2.26-.57,0-1.11.09-1.63.24-.34.1-.66.23-.97.38,1.82,1.76,4.35,2.74,7.03,2.53.22-.02.43-.03.65-.07,2.28-.35,4.22-1.51,5.6-3.14.43-.51.8-1.06,1.1-1.65-.27.62-.45,1.27-.55,1.95-.1.7-.1,1.43.01,2.17.21,1.36.77,2.58,1.57,3.59.31-.61.48-1.3.47-2.03,0-.08,0-.16-.01-.24,1.7.86,3.63,1.35,5.66,1.33,2.72-.02,5.23-.92,7.26-2.42.15-.8.17-1.64.04-2.49"/>
    <path class="cls-1" d="M103.97,48.91c-.77,3.91-2.76,7.45-5.62,10.13,1.69.56,3.45.98,5.25,1.25.36-2.53.53-5.12.52-7.76,0-1.22-.06-2.42-.15-3.62"/>
    <path class="cls-1" d="M51.94,8.41c-.42-2.88-.26-5.72.36-8.4-.47-.01-.94-.01-1.41-.01-3.15.02-6.23.32-9.22.87,2.95,3.07,6.42,5.63,10.27,7.54"/>
    <path class="cls-2" d="M51.94,8.41c3.53,1.75,7.37,2.95,11.43,3.49.3.02.59.06.89.11,1.4.15,2.83.24,4.27.23,4.67-.03,9.12-.93,13.22-2.54C73.39,3.77,63.25.23,52.3.01c-.63,2.68-.78,5.51-.36,8.4"/>
    <path class="cls-1" d="M97.66,59.66c-2.58,2.19-5.78,3.71-9.38,4.26-5.78.87-11.33-.97-15.38-4.57,2.16,2.26,3.67,5.18,4.17,8.5,1.29,8.58-4.61,16.59-13.21,17.89-2.4.36-4.75.16-6.93-.5,1.59,7.43,6.41,13.66,12.91,17.16,16.37-6.15,28.86-20.18,32.89-37.45-1.43-2-3.14-3.78-5.08-5.29"/>
    <path class="cls-1" d="M100.7,34.13c-2.07-5.44-5-10.46-8.64-14.87-2.88,3.63-6.88,6.37-11.58,7.69.71-.16,1.44-.29,2.19-.4,7.19-1.09,14.02,2.1,18.04,7.58"/>
    <path class="cls-1" d="M79.5,27.21c.33-.08.66-.16.98-.25-.33.07-.66.16-.98.25"/>
    <path class="cls-2" d="M100.7,34.13c-4.02-5.49-10.84-8.67-18.04-7.58-.74.11-1.47.24-2.18.4,4.7-1.31,8.7-4.06,11.58-7.69-2.47-2.99-5.26-5.71-8.32-8.1-3.56,4.61-5.85,10.26-6.31,16.42,0,.13-.02.26-.03.39h0c-.04.64-.06,1.5-.06,2.14.03,3.93.8,7.69,2.17,11.13.16.34.3.68.43,1.03,3.48,7.88,10.17,14.02,18.41,16.76,2.86-2.68,4.85-6.22,5.62-10.13-.38-5.17-1.51-10.13-3.27-14.78"/>
    <path class="cls-1" d="M45.92,72.48c-.35-2.34-.17-4.63.45-6.76-1.72,4.06-5.44,7.15-10.11,7.86-6.78,1.02-13.12-3.34-14.69-9.88-4.81,3.94-7.87,9.94-7.83,16.65.04,6.45,2.95,12.21,7.51,16.08,1.96,1.36,4.03,2.59,6.17,3.67,2.42.93,5.05,1.44,7.79,1.42,10.12-.07,18.54-7.18,20.65-16.66h0c-5.12-1.98-9.06-6.57-9.94-12.38"/>
    <path class="cls-2" d="M81.79,54.27c-2.45.02-4.81.38-7.05,1.04-.82.42-1.69.73-2.61.92-.51.21-1.01.44-1.51.68-.13.06-.25.13-.38.19-2.86,1.47-5.4,3.47-7.5,5.86-.36.56-.78,1.07-1.25,1.53-3.21,4.27-5.11,9.57-5.12,15.32h0c0-11.49-9.05-17.06-9.13-17.12-3.49-2.43-7.74-3.85-12.32-3.82-3.07.02-5.99.69-8.62,1.88,4.84-2.66,8.3-7.5,9.07-13.2.04-.29.07-.57.09-.86.05-.54.07-1.09.07-1.64-.04-5.78-2.83-10.89-7.11-14.1,2.21,1.29,4.79,2.02,7.54,2,1.61-.01,3.15-.28,4.6-.76.09-.03.18-.06.27-.09l.04-.02c.31-.15.63-.28.97-.38,4.11-1.81,7.23-5.43,8.37-9.85.05-.28.12-.55.19-.82.19-.96.29-1.96.28-2.98,0-.31-.02-.61-.04-.92-1.47-.6-3.12-.84-4.81-.59-4.97.75-8.39,5.39-7.64,10.36.2,1.29.66,2.48,1.32,3.52-2.33-3.17-6.29-4.98-10.45-4.35-1.64.25-3.14.85-4.43,1.72.67.78,1.41,1.48,2.22,2.1-.97-.58-2.01-1.07-3.09-1.46-2.87,2.36-4.46,6.13-3.86,10.07.9,5.91,6.37,10,12.29,9.18-7.07,1.15-11.91,7.79-10.84,14.89,1.26-.26,2.48-.65,3.63-1.16-1.21.65-2.35,1.42-3.4,2.28,1.57,6.54,7.91,10.9,14.69,9.88,4.68-.71,8.4-3.81,10.11-7.86h0c-.62,2.13-.8,4.42-.45,6.76.88,5.81,4.82,10.4,9.94,12.38h0c.33-1.49.51-3.03.52-4.62h0c.03,1.72.21,3.38.56,4.99,2.18.67,4.53.87,6.93.51,8.6-1.3,14.5-9.31,13.21-17.89-.5-3.32-2.01-6.24-4.17-8.5,4.04,3.6,9.6,5.44,15.38,4.57,3.6-.54,6.8-2.07,9.38-4.26-4.38-3.41-9.89-5.43-15.87-5.39"/>
  </g>
</svg>