<?xml version="1.0" encoding="UTF-8"?>
<svg id="Layer_2" data-name="Layer 2" xmlns="http://www.w3.org/2000/svg" xmlns:xlink="http://www.w3.org/1999/xlink" viewBox="0 0 544.94 448.19">
  <defs>
    <style>
      .cls-1 {
        fill: #fed09e;
      }

      .cls-2 {
        fill: url(#Neutral_3);
      }
    </style>
    <linearGradient id="Neutral_3" data-name="Neutral 3" x1="272.47" y1="276.15" x2="272.47" y2="454.18" gradientUnits="userSpaceOnUse">
      <stop offset="0" stop-color="#fff"/>
      <stop offset=".15" stop-color="#939393"/>
      <stop offset=".44" stop-color="#fff"/>
      <stop offset=".74" stop-color="#d6d6d6"/>
      <stop offset="1" stop-color="#fff"/>
    </linearGradient>
  </defs>
  <g id="Layer_1-2" data-name="Layer 1">
    <path class="cls-2" d="M242.32,358.47c5.17,0,6.01-3.03,6.01-7.36v-52.18s-3.87,3.01-6.44,4.32c-2.59,1.31-5.19,3.89-5.19,7.73v37.56h-24.65l-.78-28.46s-5.21,2.58-9.49,2.58-8.2.42-11.65,2.17c-3.49,1.71-5.26,7.86-4.33,12.06.85,3.89,5.16,8.24,14.26,7.78v3.87h-28.89v-37.56c0-3.84-2.59-6.43-5.18-7.73-2.6-1.31-6.48-4.32-6.48-4.32v52.18c0,4.33.87,7.36,6.05,7.36h76.78ZM195.28,333.87c0-3.01,5.17-3.45,5.17-3.45v6.46s-5.17,0-5.17-3.01ZM130.37,369.67c0,3.23,2.61,5.82,5.8,5.82s5.84-2.59,5.84-5.82-2.61-5.82-5.84-5.82-5.8,2.62-5.8,5.82ZM269.05,299.38s-1.73,1.29-4.74,2.56c-3.01,1.31-6.03,2.62-6.03,6.48v50.92h10.78v-59.95ZM25.09,322.87c3.26,0,5.83-2.61,5.83-5.84s-2.57-5.81-5.83-5.81-5.81,2.63-5.81,5.81,2.61,5.84,5.81,5.84ZM543.84,299.38s-1.73,1.29-4.77,2.56c-3.02,1.31-6.04,2.62-6.04,6.48v50.92h10.81v-59.95ZM10.67,322.87c3.22,0,5.82-2.61,5.82-5.84s-2.6-5.81-5.82-5.81-5.83,2.63-5.83,5.81,2.61,5.84,5.83,5.84ZM474.38,316.83c3.19,0,5.81-2.59,5.81-5.85s-2.62-5.81-5.81-5.81-5.85,2.64-5.85,5.81,2.62,5.85,5.85,5.85ZM329.02,358.47h188.08c5.15,0,6.01-3.03,6.01-7.36v-52.18s-3.87,3.01-6.45,4.32c-2.6,1.31-5.2,3.89-5.2,7.73v37.56h-24.65l-.78-28.46s-3.46,3-7.8,3-10.78-.42-14.22,1.31c-3.44,1.74-4.29,6.05-4.29,10.35s3.41,10.33,14.66,9.94v3.87h-29.82l-.38-18.96s-1.29,2.16-4.33,2.6c-2.99.41-6.44,2.99-6.44,6.01v10.35h-33.69v-6.91c0-5.17-5.62-11.2-11.62-11.2h-29.33l-5.44,5.09-.15-10.69s-2.62,1.71-5.19,3.03c-2.59,1.29-5.62,2.57-5.62,6.45v14.23h-12.91v-50.88s-3.93,3.43-6.06,3.88c-2.14.4-5.59,2.57-5.59,6.46v44.86c0,4.29.86,10.79-6.05,10.79s-6.04-3.88-6.04-8.2v-9.94s-11.64-.84-11.64,8.65c0,3.87.43,4.73.43,8.18s4.3,13.38,15.96,13.38,18.55-7.76,18.55-17.24ZM469.66,333.87c0-3.01,5.15-3.45,5.15-3.45v6.46s-5.15,0-5.15-3.01ZM381.63,341.22c6.48,0,7.76,1.71,7.76,5.61v1.71h-35.83l-.13-7.31h28.2ZM80.55,322.87c3.21,0,5.81-2.61,5.81-5.84s-2.61-5.81-5.81-5.81-5.83,2.63-5.83,5.81,2.63,5.84,5.83,5.84ZM437.06,368.36c0,3.23,2.63,5.84,5.84,5.84s5.78-2.61,5.78-5.84-2.58-5.79-5.78-5.79-5.84,2.59-5.84,5.79ZM422.83,368.36c0,3.23,2.61,5.84,5.81,5.84s5.81-2.61,5.81-5.84-2.58-5.79-5.81-5.79-5.81,2.59-5.81,5.79ZM27.89,328.79c-2.14.72-4.28,1.79-5.38,3.59,0,0-8.73,1-12.61,6.13-3.98,5.24-3.72,10.96-3.72,14.14s.16,5.82.16,5.82h137.31c5.2,0,6.05-3.03,6.05-7.36v-21.1s-3.88,2.99-6.48,4.29c-2.59,1.31-5.15,3.88-5.15,7.75v6.47h-33.54v-6.91c0-5.17-5.62-11.2-11.65-11.2h-29.34l-5.44,5.09-.15-10.69s-2.61,1.71-5.18,3.03c-2.61,1.29-5.6,2.57-5.6,6.45v14.23h-14.57v-22.28s-2.51,1.78-4.69,2.53ZM22.51,348.22l-5.77.33c-1.22-2.39,1.62-4.4,1.62-4.4.5-1.71,4.14-2.41,4.14-2.41v6.48ZM86.39,341.22c6.48,0,7.77,1.71,7.77,5.61v1.71h-35.85l-.11-7.31h28.19ZM192.28,316.83c3.21,0,5.82-2.59,5.82-5.85s-2.61-5.81-5.82-5.81-5.83,2.64-5.83,5.81,2.6,5.85,5.83,5.85ZM206.5,316.83c3.23,0,5.83-2.59,5.83-5.85s-2.6-5.81-5.83-5.81-5.83,2.64-5.83,5.81,2.62,5.85,5.83,5.85ZM13.79,407.32L0,446.93h8.33l2.71-7.91h14.7l2.65,7.91h8.34l-13.53-39.61h-9.41ZM13.62,432.22l4.9-15.41,5.22,15.41h-10.12ZM196.49,424.11c-6.09-1.09-9.41-1.9-9.94-2.45-.98-.38-1.65-.76-2.02-1.24-.43-.53-.56-1.42-.43-2.73.2-3.08,2.6-4.61,7.13-4.54,2.66.01,4.75.68,6.21,1.97,1.37,1.14,2.02,2.57,1.95,4.29h7.62c.11-.27.12-.6.12-.96,0-2.44-.78-4.68-2.39-6.71-2.61-3.39-7.06-5.06-13.35-5.06-4.62,0-8.22,1-10.8,3.08-2.36,1.95-3.74,4.58-4.06,7.9-.02.5-.05,1.02-.05,1.5,0,4.64,2.42,7.8,7.24,9.44.89.34,3.78.92,8.67,1.83,3.55.7,5.82,1.59,6.83,2.63.87.92,1.31,2.01,1.31,3.21,0,1.4-.47,2.57-1.44,3.47-1.2,1.14-3.32,1.76-6.31,1.83-3.35.12-5.86-.65-7.43-2.31-1.11-1.16-1.7-2.5-1.7-4.07h-7.91c.34,4.39,2.16,7.78,5.55,10.23,1.27.93,3.01,1.64,5.19,2.15,1.73.43,3.21.61,4.49.57,5.55-.1,9.67-1.02,12.43-2.72,1.52-.99,2.71-2.46,3.63-4.4.94-1.94,1.4-3.96,1.4-6.07,0-2.88-.84-5.2-2.57-7-1.73-1.76-4.84-3.06-9.34-3.85ZM455.46,446.93h8.14v-39.61h-8.14v39.61ZM435.37,407.32h-18.41v39.61h17.83c2.11,0,4.12-.62,6.19-1.94,2.04-1.25,3.76-2.93,5.11-5.02,2.44-3.76,3.64-8.64,3.64-14.57,0-3.5-.56-6.45-1.73-8.82-2.97-6.14-7.18-9.25-12.64-9.25ZM440.16,434.81c-1.68,3.55-4.51,5.33-8.53,5.33h-6.5v-26h7.29c1.6,0,2.88.24,3.89.69,1.17.54,2.24,1.51,3.26,2.92,1.29,1.89,1.95,4.79,1.95,8.66.06,3.56-.4,6.36-1.36,8.41ZM50.3,407.32h-8.15v39.61h27.1v-6.79h-18.96v-32.82ZM529.08,432.44h9.04c-.1,1.93-.87,3.76-2.23,5.47-1.16,1.36-2.57,2.37-4.37,2.99-1.6.57-3.13.79-4.64.65-3.95-.41-6.98-2.78-9.05-7.11-.87-1.76-1.31-4.05-1.31-6.94,0-5.42,1.46-9.4,4.4-11.9,2.2-1.48,4.58-2.17,6.94-2.17,5.11,0,8.35,2.15,9.67,6.48h7.42c-.32-1.87-.53-2.89-.58-3.11-.69-1.94-2-3.85-3.9-5.79-2.94-2.89-7.3-4.33-12.99-4.33-2.86,0-5.37.49-7.53,1.44-3.68,1.57-6.54,4.21-8.55,7.96-1.87,3.41-2.76,7.23-2.76,11.43,0,6.56,1.97,11.75,5.9,15.59,1.49,1.5,2.76,2.52,3.74,3.02,2.07,1.19,4.66,1.86,7.81,2.03,3.37.2,6.29-.47,8.7-1.93,1.36-.87,2.81-2.26,4.31-4.08l.97,4.92h4.88v-21.39h-15.86v6.76ZM494.85,434.52l-16.02-27.2h-8.04v39.61h8.16v-27.58l16.02,27.58h8.04v-39.61h-8.15v27.2ZM371.76,411.63c-3.17-3.32-7.58-4.95-13.17-4.95s-10.03,1.64-13.23,4.95c-1.85,1.93-3.27,4.28-4.31,7.06-1.04,2.81-1.53,5.75-1.53,8.75s.5,5.91,1.53,8.72c1.04,2.78,2.46,5.15,4.31,7.07,3.21,3.29,7.6,4.93,13.23,4.93s10-1.64,13.17-4.93c1.87-1.92,3.28-4.29,4.34-7.07,1.03-2.81,1.55-5.72,1.55-8.72s-.52-5.93-1.55-8.75c-1.05-2.78-2.47-5.13-4.34-7.06ZM365.84,438.36c-1.91,1.79-4.31,2.69-7.25,2.69s-5.37-.9-7.33-2.69c-2.61-2.41-3.92-6.06-3.92-10.93s1.31-8.59,3.92-11c1.96-1.78,4.36-2.65,7.33-2.65s5.35.87,7.25,2.65c2.66,2.4,4,6.09,4,11s-1.35,8.51-4,10.93ZM392.09,407.32h-8.15v39.61h27.08v-6.79h-18.93v-32.82ZM325.63,422.21h-15.7v-14.89h-8.13v39.61h8.13v-17.92h15.7v17.92h8.2v-39.61h-8.2v14.89ZM90.48,446.93h8.16v-17h17.33v-6.8h-17.33v-9h19.63v-6.82h-27.79v39.61ZM162.3,446.93h8.15v-39.61h-8.15v39.61ZM134.82,407.32l-13.76,39.61h8.33l2.73-7.91h14.66l2.7,7.91h8.33l-13.56-39.61h-9.43ZM134.69,432.22l4.88-15.41,5.23,15.41h-10.11ZM225.42,407.32l-13.8,39.61h8.36l2.7-7.91h14.68l2.7,7.91h8.32l-13.56-39.61h-9.4ZM225.26,432.22l4.91-15.41,5.22,15.41h-10.13ZM261.91,407.32h-8.11v39.61h27.08v-6.79h-18.98v-32.82Z"/>
    <g>
      <path class="cls-1" d="M274.09,91.57c-46.1,0-83.45,37.36-83.45,83.4s37.36,83.4,83.45,83.4,83.37-37.34,83.37-83.4-37.34-83.4-83.37-83.4ZM274.09,228.61c-29.64,0-53.66-24.02-53.66-53.64s24.02-53.63,53.66-53.63,53.62,24,53.62,53.63-24.04,53.64-53.62,53.64Z"/>
      <polygon class="cls-1" points="274.6 0 114.72 158.23 156.34 158.23 273.54 42.14 392.33 158.77 433.93 158.77 274.6 0"/>
    </g>
  </g>
</svg>