<?xml version="1.0" encoding="UTF-8"?>
<svg id="Layer_2" data-name="Layer 2" xmlns="http://www.w3.org/2000/svg" viewBox="0 0 939.84 1005.03">
  <defs>
    <style>
      .cls-1 {
        fill: #23201f;
      }
    </style>
  </defs>
  <g id="Layer_1-2" data-name="Layer 1">
    <g>
      <g>
        <path class="cls-1" d="M390.63,318.68l8.38,2.52c-1.48-2.04-3.07-4.01-4.76-5.88l18.47,5.75c-.17.77-.36,1.61-.97,2.11-.75.63-1.85.55-2.82.43l-3.19-.39,4.89,1.47c0,.54-.77.6-1.31.67-1.37.18-2.29,1.57-3.63,1.91-.65.17-1.35.06-2-.1-.55-.14-1.07-.32-1.59-.53l1.59,23.82c-.15-1.17-.3-2.35-.46-3.52-.35-2.68-.72-5.39-1.66-7.93-.42-1.14-.96-2.25-1.15-3.46-.15-.97-.07-1.97.06-2.94.28-2.06.77-4.08,1.44-6.04-4.15-1.76-7.3-5.61-11.3-7.89ZM385.75,322.7c.07.4.15.8.22,1.19.33-.59,1.04-.81,1.61-1.18,1.42-.91,1.93-2.71,2.32-4.35l1.57-6.54c.08-.35.17-.7.17-1.05,0-.37-.08-.73-.15-1.1-.5-2.53-.47-5.17.09-7.69l-5.83,20.71ZM411.68,387.08c.74-1.64,2.18-3.41,3.94-3.03.45.1.87.33,1.33.34.51,0,.99-.27,1.41-.56.7-.48,1.42-1.28,1.11-2.07-.16-.41-.55-.67-.93-.9-2.86-1.79-5.75-3.6-8.93-4.71-.33-.11-.74-.2-.97.06-.43.48.37,1.04.83,1.48.91.85.56,2.41-.21,3.39-.77.98-1.87,1.68-2.55,2.72-.53.81-.8,1.81-1.55,2.41-1.52,1.22-4.22.19-5.46,1.7-.34.42-.49.95-.7,1.45-.41.97-1.08,1.81-1.74,2.63-1.35,1.69-2.72,3.4-4.48,4.64-.31.22-.63.42-.87.71-.2.23-.33.52-.52.75-1.03,1.29-3.06.84-4.61.27l16.09,7.56c.65-.49,1.22-1.08,1.68-1.76.53-.78.9-1.66,1.39-2.47.7-1.16,1.62-2.17,2.63-3.08.92-.82,2-1.76,1.93-2.99-.03-.58-.33-1.1-.43-1.67-.09-.48-.04-.97.03-1.45.26-1.87.79-3.71,1.57-5.43ZM412.71,314.15l-2.19.03c.91.37,1.79.59,2.19-.03ZM405.82,380.87c.16-.01.27-.17.34-.31.57-1.25-.16-2.67-.41-4.03-.23-1.24-.03-2.51.06-3.77.19-2.64-.07-5.29-.35-7.92-.52-4.8-1.14-9.6-1.77-14.39l2,30.1c-.15.07-.02.32.14.31ZM410.52,314.18c-.72-.29-1.46-.67-1.98-.77-1.17-.23-2.46.18-3.45.85l5.43-.08ZM409.58,301.28c1,.54,2,.99,3.09.84.71-.1,1.35-.45,2-.75l-5.1-.09ZM415.17,301.15c-.17.06-.33.14-.49.21l3.01.05c-.62-.65-1.68-.58-2.52-.26ZM401.51,301.14l8.06.14c-.73-.39-1.45-.82-2.2-1.11-1.94-.72-4.26-.34-5.86.97ZM406.2,309.9c1.08.09,2.04.68,2.95,1.26.83.52,1.4.38,2.22.91l-5.58-3.78c-.07.45-.66.78-.52,1.21.11.34.57.38.93.41ZM411.93,309.97c-.42-2.02-.13-4.05-.55-6.07v8.16c.65-.71.75-1.15.55-2.09ZM485.58,409.18c1.02-.36,1.83-1.14,2.51-1.99l-5.94-8.3c-.2.99.24,1.6-.24,2.49-.11.21-2.46,3.98-.09,6.5.27,4.42,1.17,11.46,1.18,14.84,0,1.23,0,2.47-.33,3.65-.31,1.09-.89,2.08-1.19,3.17-.46,1.69-.17,3.56.76,5.03.46.72,1.05,1.35,1.53,2.06l-.79-27.85c.81.46,1.72.69,2.6.38ZM577.96,286.82l2.88,7.09c-.15-2.59-1.18-5.13-2.88-7.09ZM571.35,282.97c-1.11-.22-2.25-.29-3.37-.39-4.5-.4-8.95-1.4-13.46-1.4l23.44,5.64c-1.7-1.96-4.06-3.34-6.61-3.85ZM542.11,302.7l8.11-15.38c-3.21,1.84-5.57,4.83-7.85,7.75-.24.31-.48.62-.61.99-.18.5-.14,1.04-.09,1.57.15,1.69.29,3.38.44,5.07ZM576.2,314.53c.21-.34.32-.72.42-1.1,1.21-4.39,2.42-8.78,3.62-13.16.38-1.38.76-2.78.84-4.21l-5.41,19.09c.19-.19.38-.39.52-.62ZM543.03,322.38c-.05-.21-.11-.42-.16-.62l.35,5.56c.65-1.55.24-3.31-.19-4.94ZM548.67,282.41c-.93.53-1.72,1.27-2.51,1.99-.53.49-1.06.99-1.42,1.61-.4.7-.55,1.51-.7,2.3-.26,1.42-.52,2.83-.78,4.25l11.25-11.38c-2.01,0-4.1.22-5.84,1.23ZM574.9,317.93l.79-2.77c-.25.25-.51.5-.69.8-.36.58-.4,1.36-.09,1.97ZM411.88,329.08l16.43,24.62.94-7.19c.22-1.66.42-3.43-.29-4.94-1.05-2.24-3.68-3.16-5.95-4.15-4.29-1.87-8.13-4.75-11.13-8.33ZM428.23,374.32c.7,3.16,1.38,6.59.06,9.55-.33.75-.8,1.48-.78,2.3.02.76.46,1.46.56,2.22.2,1.56-1.07,2.94-1.27,4.5-.09.68.03,1.38-.07,2.07-.29,2.06-2.45,3.63-2.3,5.71.12,1.76,1.91,2.96,3.63,3.32,1.73.35,3.53.14,5.26.5,3.68.75,6.33,3.87,9.53,5.84,2.94,1.81,6.46,2.66,9.91,2.39,1.35-.1,2.76-.37,4.01.14.69.28,1.31.79,2.05.9s1.66-.49,1.45-1.2l-37.14-55.03c2.55,5.29,3.84,11.08,5.1,16.82ZM486.07,517.47l-2.2-77.21c-.25.25-.54.47-.77.75-.81,1-.59,2.46-.45,3.74.64,5.78-1.21,11.58-.82,17.38.13,2.04.54,4.05.67,6.09.17,2.59-.12,5.19-.4,7.77-.78,7.04-4.01,14.67-4.79,21.71-.41,3.74-6.11,9.11-8.76,11.79l17.52,7.97ZM806.99,418.2l-2.39-.86c.72.38,1.61.59,2.39.86ZM445.56,381.55c-.62-1.53-1.48-2.94-2.12-4.46-1.06-2.52-1.5-5.25-2.25-7.88-.97-3.4-2.45-6.63-3.94-9.84-2.21-4.78-4.42-9.57-6.62-14.35l16,43.19c.15-2.27-.23-4.57-1.08-6.67ZM540.43,312.08c.18,1.07.45,2.12.73,3.17.57,2.17,1.14,4.34,1.71,6.51l-.8-12.59,14.44-15.63c2.01.52,4.04.94,6.08,1.35,1.52.31,3.07.62,4.62.52.92-.06,1.84-.27,2.76-.26,1.11,0,2.2.33,3.31.42,1.07.09,2.16-.03,3.19-.35.84-.27,1.69-.72,2.1-1.5l-20.94-1.39,3.29-3.56c3.74,1.12,7.58,1.98,11.4,1.39.41-.06.83-.15,1.22-.3l3.34.68c-4.26-2.88-9.69-3.5-14.81-3.02l6.26,1.28-6.94-.54.68-.73c-1.07.1-2.14.25-3.18.54l-.4-.03c.08.03.17.05.25.08-.21.06-.42.12-.63.19-2.91,1.05-5.16,3.36-7.29,5.59-2.22,2.33-4.46,4.68-6.1,7.44-1.15,1.93-1.98,4.02-2.77,6.12l-.51-8.13c-1.15,2.7-1.34,5.71-1.31,8.65.02,1.38.08,2.76.3,4.11ZM414.95,295.65c-.57-.18-1.15-.43-1.75-.34-.43.06-.82.31-1.23.44-.72.24-1.51.16-2.27.07-3.3-.37-6.78-.72-9.84.58-1.92.82-3.56,2.25-5.57,2.8-1.79.5-3.7.25-5.56.26-3.24.02-6.77,1.09-8.45,3.86l37.47-7.43c-.94.1-1.9.03-2.81-.25ZM484.15,439.95c.59-.83.38-2-.12-2.89-.08-.14-.17-.27-.26-.41l.1,3.61c.1-.1.19-.2.28-.32ZM810.71,459.26c1.88,1.84,1.89,5.38,4.3,6.42,1.73.74,3.73-.33,4.97-1.74,1.24-1.41,2.06-3.18,3.42-4.48,1.03-.98,2.34-1.67,3.26-2.75l-16.6,2.04c.23.15.45.31.64.51ZM364.34,427.6l20.2-19.6c-3.55.3-6.64,2.45-9.54,4.53-2.31,1.66-4.63,3.31-6.94,4.97-.55.39-1.11.8-1.47,1.38-.63,1.02-.49,2.5-.75,3.66-.22.95-.49,1.84-.91,2.68.3-1.65.36-3.36-.15-4.95-.56-1.73-1.91-3.29-3.68-3.71l-1.15,13.29c.28-.06.56-.13.84-.19.25.12.26.5.09.71s-.46.3-.72.36c-.09.02-.19.03-.28.05l-.46,5.27c2.27-2.38,3.96-5.3,4.93-8.45ZM350.91,433.18c1.34,2.11,2.79,4.91,5.29,4.76,1.27-.08,2.34-.96,3.22-1.88l-11.23-6.11c1.04.96,1.97,2.04,2.73,3.24ZM570.84,329.1l-.06.25c0-.11,0-.22,0-.33-.39-.58-.81-1.15-1.26-1.69l3.43,5.79c-.56-1.42-1.28-2.76-2.12-4.03ZM341.89,392.34c.02-.08.03-.17.05-.25-4.95-1.8-10.83-1.09-15.07,2.09l27.21,6.55c-1.98-.92-3.59-2.4-5.21-3.9l-6.98-4.48ZM798.48,460.17l-3.71.46c1.23-.17,2.48-.25,3.71-.46ZM348.18,429.95c-2.01-1.85-4.48-3.22-7.14-3.88l7.14,3.88ZM360.46,409.92c-.51-.98-1.22-1.89-1.44-2.97-.19-.98.04-2.02-.28-2.97-.62-1.86-2.89-2.44-4.67-3.27l7.04,15.85c.65-2.19.41-4.62-.65-6.64ZM348.86,396.82l1.22.78c-.44-.51.19-1.37-.15-1.96-.11-.2-.32-.33-.5-.45-2.4-1.63-3.65-4.8-6.36-5.83-.19-.07-.43-.12-.57.02-.08.08-.1.2-.12.31-.15.8-.3,1.59-.44,2.39,1.2.44,2.35,1.02,3.41,1.75,1.26.88,2.39,1.93,3.53,2.99ZM325.82,408.32c-1.48,2.6,2.94,4.3,4.34,3.89,4.32-1.27,2.67-6.29,7.12-6.86-5.27,0-10.74,1.69-11.46,2.96ZM315.51,427.07c.5-1.43.85-2.91,1-4.42.15-1.47.12-2.98.24-4.45l-8.4,18.67c3.27-2.48,5.79-5.93,7.15-9.8ZM323.42,403.37l2.28-5.07c-.99,1.57-1.66,3.31-2.28,5.07ZM323.42,403.37l-3.48,7.74c.16-.23.33-.45.48-.69,1.39-2.16,2.15-4.63,3.01-7.06ZM355.52,397.51c.73,3.21,3.17,5.74,5.75,7.79,3.72,2.96,7.92,5.31,12.39,6.92l-17.99-26.45c.73,3.86-1.02,7.91-.15,11.74ZM316.96,409.41c.92.63,2.38.62,2.99-.32l3.72-12.99c-1.61.15-3.06-1.13-3.72-2.61-.66-1.47-.73-3.13-.96-4.73-.1-.69-.34-1.51-1.02-1.69-.54-.14-1.06.22-1.47.59-2.51,2.28-3.68,5.77-3.7,9.16-.02,3.39,1,6.71,2.31,9.84.43,1.03.94,2.1,1.86,2.74ZM317.47,414.94c-.44,1.04-.62,2.14-.72,3.26l3.19-7.09c-.88,1.25-1.88,2.43-2.47,3.83ZM387.82,283.36c-.48.23-1.04.41-1.27.89-.16.33-.11.71-.06,1.06.2,1.37.39,2.74.59,4.11.06.38.07.83-.02,1.22l9.92-11.91c-1.31.45-2.77.23-4.07.71-2.02.75-3.14,3-5.09,3.93ZM418.52,295.77l-.65,9.25c1.39-2.66,2.77-5.33,4.16-7.99.58-1.11,1.16-2.23,1.53-3.42.59-1.88.63-3.88.6-5.84-.04-2.03-.2-4.18-1.38-5.83-.78-1.09-1.94-1.85-3.11-2.5l-.58,8.28-12.43.62,9.09-2.52c-.75.14-1.53.15-2.3.17-3.07.09-6.12.57-9.07,1.43-.24.07-.48.14-.73.12-.44-.05-.78-.39-1.12-.68-.94-.82-2.11-1.36-3.33-1.55-.23-.04-.48-.06-.7.05-.24.12-.38.37-.52.59-.87,1.36-2.3,2.19-3.7,3.03l-2.8.14c.28.39.61.73.97,1.04-1.81,1.26-3.58,2.71-5.49,3.68l7.99-2.22c.74.28,1.52.48,2.3.61,2.21.36,4.47.24,6.71.41,1.53.12,3.13.36,4.57-.18.62-.24,1.19-.62,1.83-.83.8-.26,1.66-.24,2.5-.22,1.58.04,3.17.09,4.75.13.4.01.81.02,1.22,0l-.3,4.23.66-.13c-.22.07-.44.11-.66.16ZM418.52,295.74l-.76.15c.26-.03.51-.07.76-.12v-.03ZM805.05,458.17c-1.95.45-3.77,1.38-5.72,1.84-.28.07-.56.11-.85.16l11.58-1.42c-1.42-.91-3.33-.96-5.02-.58ZM399.22,277.52c-.74.42-1.44.93-2.24,1.21l22.69.71c-3.92-2.16-8.36-3.37-12.83-3.47-2.62-.06-5.33.27-7.62,1.56ZM386.95,293.8l-3.85,1.07c1.38-.04,2.65-.46,3.85-1.07ZM415.75,285.8c.3-.06.59-.13.88-.24l-.88.24ZM387.06,290.63l-.73.87c.42-.1.63-.45.73-.87ZM348.27,426.3c1.68.76,2.81,2.39,4.42,3.27.86.47,1.79.69,2.76.76-.41-.23-.79-.51-1.1-.88l-6.08-3.15ZM317.93,357.94c5.1,3.79,41.17,26.84,54.73,34.83l-.49,2.04c-.51.94-1.03,1.95-.97,3.02.05.85.47,1.63.88,2.38.37.68.75,1.36,1.12,2.04.14.25.28.51.49.69.29.25.68.35,1.05.44,2.5.61,5,1.22,7.51,1.83.36.09.73.18,1.1.13.42-.06.79-.28,1.11-.55.95-.8,1.54-2.02,1.5-3.26-.04-1.24-.74-2.45-1.83-3.04.62-1.32,1.26-2.71,1.21-4.17-.05-1.46-1.02-3-2.47-3.17-.58-.07-1.17.09-1.75.14-1.68.15-3.4-.63-4.4-1.99-.25-.34-.47-.74-.52-1.16-.12-.96.62-1.86,1.5-2.24s1.89-.37,2.85-.36c-1.75-2.08-3.25-4.36-4.48-6.79l-2.65,10.91-15.31-9.92,18.8-35.68c-.49,2.46-.52,5.01-.09,7.47.3,1.68.81,3.31.98,5.01.03.25.02.5.03.75.14-2.18.12-4.38-.08-6.56-.22-2.44-.65-4.89-.51-7.32l11.47-21.77c-1.7,2.73-5.23,3.97-8.45,4.77-2.19.54-4.39,1.03-6.61,1.45-1.18.22-2.38.43-3.49.89-3.53,1.46-5.57,5.1-8.39,7.67-.87.8-1.86,1.53-2.39,2.58-.29.58-.44,1.21-.57,1.84-1.11,5.03-2.22,10.08-2.53,15.21-.4,6.7.59,13.39.78,20.1.03.97.04,1.95.03,2.92l-35.87-23.23c-.83-.45-1.75-.9-2.69-.77-.94.13-1.8,1.14-1.41,2.01.16.36.49.61.8.84ZM355.45,430.34c1.28.7,2.93.76,4.42.45l.08-.93c-1.49.33-3.03.59-4.51.48ZM380.09,313c.06,1.09.26,2.16.47,3.24l.64-10.67c-.62,2.44-1.25,4.92-1.12,7.43ZM373.42,380.98l3.05-15.26c.23-.88.43-1.76.61-2.65-.53,1.91-1.25,3.79-1.93,5.65-1.45,3.93-2.77,8.2-1.73,12.26ZM381.02,318.83c-.11-.87-.29-1.73-.46-2.59l-.5,8.29c1.11-1.63,1.21-3.74.96-5.69ZM377.83,357.3c-.12,1.94-.37,3.87-.76,5.78.53-1.9.85-3.83.76-5.78ZM388.71,321.65c.18-.29.34-.59.48-.91l-.48.91ZM628.28,399.82c-.04-.08-7.69.48-8.5.43-1.31-.08-4.33-.72-5.07.86-.52,1.1.62,2.48,1.34,3.19,2.87,2.83,8.16,2.43,11.88,3.21.18.04.38.07.52-.04.23-.18.12-.53.02-.8-.79-2.17.74-4.71-.18-6.83ZM599.42,315.24c.75-.28,1.27-1.23.88-1.94l-3.84,1.13c.22.14.44.29.66.43.69.42,1.55.66,2.3.38ZM596.46,314.43c-.28-.17-.56-.32-.88-.37-.58-.08-1.28.39-1.13.96l2.01-.59ZM591.01,328.52c-.47.13-.96.24-1.36.52-.96.68-1.06,2.04-1.07,3.22l3.33-4.05c-.3.1-.59.22-.9.31ZM637.74,301.15c-.44-.56-.98-1.05-1.36-1.66-.91-1.42-1-3.39-2.31-4.46-1.01-.82-2.44-.83-3.74-.7-2.38.23-4.73.76-6.97,1.59-.68.25-1.36.53-2.07.68-.91.19-1.85.18-2.77.25-1.51.12-2.99.48-4.46.84l25.17,8.44c.17-1.77-.37-3.59-1.48-4.99ZM618.45,293.93c-.75-.16-1.52-.22-2.27-.08-.82.15-1.59.53-2.34.9-1.64.82-3.3,1.65-4.71,2.84l12.55-2.3c-.98-.65-2.08-1.12-3.23-1.36ZM595.76,323.53l2.66-3.23c-1.15.85-2.39,1.84-2.66,3.23ZM605.56,311.05c1.54-.71,3.08-1.44,4.48-2.38,2.86,4.01,7.15,6.99,11.92,8.21,2.22.57,4.51.77,6.8.95.91.07,1.86.13,2.69-.26.66-.31,1.18-.92,1.39-1.62l-5.11-1.76c1.14.2,2.28.32,3.42.36.76.03,1.56.02,2.23-.35.86-.48,1.3-1.47,1.57-2.42.37-1.33.52-2.73.42-4.12l-19.74-.41c1.38,1.93,3.2,3.45,5.27,4.59l-10.29-3.55c.36-.26.73-.51,1.12-.7.65-.32,1.36-.46,2.07-.63,1.4-.34,2.78-.79,4.07-1.42.97-.47,1.91-1.05,2.94-1.38,1.27-.41,2.64-.42,3.97-.32,2.89.22,5.73.97,8.34,2.21l-19.07-8.34c-2.78.68-5.56,1.36-8.34,2.05-.45.11-.92.23-1.29.51-.9.68-.92,1.97-1.16,3.07-.33,1.51-1.19,2.85-1.8,4.27-.61,1.42-.95,3.11-.23,4.49,1.49.25,2.96-.4,4.33-1.03ZM774.93,409.67c-.8.27-1.6.62-2.44.62-.84,0-2.16.34-2.37-.48-2.36-.38-4.54-1.79-5.85-3.79-2.05,1.61-2.63,4.5-2.42,7.09s1.05,5.11,1.27,7.7c.44,5.14-1.59,10.13-3.57,14.89-.23.56-.47,1.12-.7,1.69l22.94-28.19c-2.28-.43-4.67-.27-6.86.47ZM595.42,326.23c.44-.75.18-1.71.31-2.57,0-.04.02-.08.03-.13l-3.85,4.68c.81-.28,1.6-.6,2.35-1.01.45-.24.9-.53,1.15-.97ZM604.6,318.9c-.05.23-.09.46-.11.69-.03.34,0,.68.07,1.02l.38-1.7h-.34ZM593.14,344.35c-5.66-6.16-14.3-8.81-20.23-14.72l27.45,27.8c-1.5-2.24-2.23-4.91-3.38-7.35-.98-2.09-2.28-4.03-3.85-5.73ZM240.19,564.91l-9.86-35c-3.61,16.05,2.69,28.97,9.86,35ZM603.3,316.84c-.75.22-1.42.63-2.13.94-1.6.69-3.37.85-5.1.92l8.53.21c.17-.79.49-1.55.82-2.3-.71-.01-1.43.03-2.12.23ZM605.48,316.48s-.04.09-.06.13c0,0,.02,0,.03,0l.03-.13ZM632.53,319.58c-5.09-2-10.91.16-16.27-.91-1.26-.25-2.48-.68-3.72-1.02-2.19-.61-4.45-.95-6.72-1.03-.12,0-.25,0-.37,0l-.51,2.3,27.59.67ZM659.88,383.28l7.85,34.44c-.79.87-1.72,1.83-2.9,1.8-.69-.02-1.32-.39-1.86-.82-1.55-1.24-2.58-3.1-2.82-5.07-.25-2.05.33-4.18.28-6.22-.59,2.57-2.18,4.96-1.94,7.58l-2.34-22.21c.11.08.21.15.32.23h0c-.11-.08-.22-.16-.33-.23l-1.86-17.67c2.16,4.79,2.26,10.19,2.49,15.44.13-1.04.41-2.08.73-3.06.52-1.55,1.14-3.15,2.37-4.21ZM659.7,400.25c.19-.28.38-.57.48-.9.29-.94-.18-1.95-.8-2.71s-1.41-1.39-1.93-2.22c-.13-.2-.22-.41-.31-.62,0,.03.01.07.02.1.27.97.74,1.86,1.16,2.77.54,1.16.99,2.36,1.37,3.58ZM658.42,388.76c.39-.17.92-.1,1.26.19.13.11.23.24.32.38l.86-.9c-.8-.3-1.74-.15-2.43.34ZM649.21,419.18c2.29.33,4.46-1,6.39-2.28.96-.63,1.92-1.27,2.89-1.9l-17.55-2.89c2.89,2.31,4.61,6.54,8.27,7.07ZM696.94,434.5l13.97,18.39c-.3-.89-.61-1.78-.98-2.65-2.67-6.32-7.9-11.14-12.99-15.75ZM688.33,372.11c-1.76-.3-3.55-.17-5.33-.05-2.12.15-4.23.3-6.35.45-.17.01-.35.02-.51-.04-.38-.16-.47-.65-.49-1.07-.08-1.31-.17-2.63-.25-3.94-1.9.78-2.94,3.55-4.65,4.59-2.51,1.53-4.74,2.59-6.78,4.7-.44.46-.88.94-1.13,1.53-.42.99-.26,2.18-.8,3.1-.48.83-1.41,1.27-2.14,1.9l39.68-3.89c-3.23-3.19-6.76-6.53-11.23-7.29ZM633.22,388.88c-.27-.91-.87-2.06-1.51-3.25l-4.41,12.92c.76-1.19,1.3-2.53,1.58-3.92.13-.67,1.34,1.03,1.58.38.44-1.2,2.51-3.67,2.87-4.9-.08-.41-.11-.82-.11-1.23ZM684.28,421.47c.26.12.5.28.74.43,1.77,1.15,3.8,1.84,5.81,2.51.29.1.59.19.88.14.35-.06.63-.32.88-.58.52-.54.99-1.12,1.4-1.75l-9.72-.76ZM695.68,388.76c-3.59.07-7.4,2.97-7.81,3.48,0-.04,3.52-1.64,4.26-1.42.85.26,1.33,2.66,2.14,3.89.63.95,1.73,1.75,2.84,1.5.4-.09.72-.28.99-.53l-5.59,54.49c1.16-5.34,2.16-10.71,3.01-16.11.25-1.57.48-3.17.35-4.76-.04-.45-.1-.92.02-1.36.1-.35.32-.65.53-.95,1.18-1.63,2.36-3.27,3.54-4.9.25-.35.5-.7.64-1.1.16-.45.17-.95.17-1.43,0-3.66-.55-7.4.41-10.93.48-1.77,1.33-3.44,1.75-5.23.8-3.35.11-7.12,1.86-10.09,1.29-2.17,3.71-3.55,4.78-5.84.77-1.64.74-3.53.69-5.34-.06-2.2-.11-4.4-.17-6.6-.04-1.34-.07-2.71-.5-3.98-.43-1.27-1.3-2.47-2.56-2.94-2.07,3.78-4.51,7.36-7.27,10.68l-1.03,10c-1.43-.42-2.74-.55-3.07-.54ZM681.49,421.25l2.79.22c-.09-.04-.17-.09-.26-.12-.8-.27-1.69.03-2.53-.09ZM634.72,372.02c-.42,1.61-.1-.06-4.96,7.97-.61,1.01.73,3.38,1.96,5.64l7.17-21.04c-1.63,3.66-3.16,3.55-4.17,7.43ZM736.11,474.32c2.45-1.42,4.38-3.58,6.13-5.8,7.3-9.28,12.05-20.23,16.61-31.13l-30.9,37.97c2.65,1,5.7.39,8.15-1.03ZM828.27,449.72c-.31-4.22-1.8-8.79-5.48-10.89l3.88,17.88c1.6-1.86,1.78-4.54,1.6-6.99ZM803.36,416.07c-.28-.78-.02-1.65-.02-2.48,0-2.68-2.56-4.56-4.85-5.96.49.61-.22,1.56-1,1.61-.78.06-1.48-.41-2.17-.77-2.81-1.5-6.37-1.48-9.17.05-.62.34-1.21.75-1.9.89-.81.17-1.65-.06-2.47-.22l22.81,8.15c-.56-.29-1.02-.68-1.24-1.28ZM648.34,359.05c-.1-1.71-.03-3.46-.56-5.09-.56-1.72-1.74-3.17-2.92-4.54-4.19-4.86-9-9.56-15.1-11.56l24.53,37.25c-.93-2.06-2.21-3.94-3.23-5.96-1.58-3.13-2.51-6.59-2.72-10.1ZM656.07,392.73s.05.04.08.06h0s-.05-.04-.08-.06ZM633.22,388.88c.14.49.2.91.11,1.23.22,1.13.76,2.16,1.08,3.26.85,2.97-.05,6.18.52,9.21.39,2.05,1.43,3.91,2.46,5.73.45.8.91,1.6,1.56,2.25.6.59,1.33,1.03,1.99,1.55l-7.1-26.92c-.3,1.21-.61,2.45-.61,3.69ZM823.5,431.57c-1.21-2.32-3.35-3.99-5.43-5.58-2.19-1.68-4.39-3.37-6.58-5.05-1.4-1.07-2.83-2.16-4.5-2.73l15.8,20.63c1.92-1.78,1.92-4.95.71-7.27ZM556.79,305.75c-.44,0-2.37.48-2.8.55l10.27.93c-1.71-2.4-5.02-1.43-7.47-1.49ZM571.46,306.31c-.59-.01-1.18.09-1.76.21-1.03.21-2.17,1.1-3.18,1.38l8.33-.91c-.98.08-2.4-.66-3.38-.69ZM566.33,316.07c.09.07.19.13.28.19.25.15.55.25.84.2.29-.05,1.32-.5,1.31-.79l-2.43.4ZM605.72,343.74l-.63-2.21c-.08-.1-.16-.2-.24-.29.3.83.58,1.67.87,2.5ZM548.23,324.89c.47-.66.87-1.38,1.03-2.18.14-.67.11-1.35.07-2.03-.12-1.63-.36-3.26-.74-4.85-.35-1.5-.81-2.98-1-4.5-.03-.28-.05-.56-.06-.84l-3.69,17.72c1.75-.64,3.29-1.81,4.39-3.32ZM565.2,320.53c.4.1.82.16,1.21.05.3-.08.56-.27.87-.32.31-.06.63.02.95-.03.31-.06.63-.35.52-.65l-7.6.09c.73.02,1.45.12,2.16.31.64.17,1.26.4,1.9.56ZM560.29,319.68h.85c-.28-.02-.56-.02-.85,0ZM549.65,315.95c.4-.14.66-.53.83-.92.65-1.47.48-3.16.3-4.76-.07-.6-.13-1.2-.3-1.77-.28-.98-.83-1.86-1.41-2.7l-.63,9.2c-.05.61.63,1.15,1.21.95ZM570.06,342.92c.62-3.22,1.45-6.39,2.49-9.5l-8.31,2.32c2.43,1.94,4.43,4.4,5.82,7.18ZM574.18,317.96c.39-2.29.53-4.61.66-6.93l-2.35,10.62c.3-.38.62-.76.88-1.17.47-.75.66-1.64.81-2.52ZM572.49,321.65c-.12.15-.24.3-.35.46-.38.61-.59,1.31-.75,2.01-.38,1.61-.58,3.26-.6,4.91.02.02.03.05.05.07l1.65-7.46ZM578.26,296.74l-13.9,3.39c.81.57,1.65,1.08,2.6,1.33.73.19,1.49.22,2.24.2.36,0,.73-.03,1.07-.15.31-.11.58-.29.85-.47,1.6-1.07,3.26-2.04,4.93-3.01.74-.43,1.48-.86,2.21-1.29ZM547.53,310.49l.76-3.64c-.62,1.1-.81,2.38-.76,3.64ZM558.3,296.78c-.55-.15-1.13-.27-1.7-.17-.71.13-1.32.58-1.88,1.03-.83.67-1.63,1.37-2.41,2.1-1.46,1.36-2.85,2.81-4.15,4.33l16.2-3.95c-.73-.52-1.44-1.09-2.18-1.58-1.19-.79-2.51-1.39-3.88-1.77ZM565.56,315.35c-.1,0-1.51.93-2.17,1.2l2.94-.48c-.15-.1-.29-.21-.44-.3-.08-.05-.24-.41-.33-.42ZM623.16,332.5c-.88-.05-1.77.07-2.65-.07l5,1.09c-.53-.71-1.47-.97-2.35-1.02ZM621.96,340.07l-5.17.87c-.53,1.48-.31,3.12.11,4.64.42,1.51,1.05,2.97,1.35,4.51.12-2.25.96-4.48,2.47-6.15.25-.28.52-.54.71-.85.22-.36.34-.78.45-1.18.12-.43.23-.86.35-1.28.03-.13.07-.26.03-.39s-.19-.22-.31-.16ZM627.51,329.01l-2.91-1.32c.65.91,1.8,1.43,2.91,1.32ZM605.72,360.88c.86,1.68,1.76,3.34,2.86,4.88.92,1.29,1.96,2.5,2.84,3.81l-1.07,2.28c-.29-.57-.58-1.15-.85-1.73-.76-1.66-1.36-3.4-2.33-4.95-1.84-2.91-4.89-4.88-6.81-7.74l-.91,35.05c1.27,0,2.38-.98,3.66-1.03.57-.02,1.12.14,1.67.3.68.2,1.35.4,2.03.61,1.24.37,2.56.79,3.39,1.79.83,1,1,2.4.96,3.7-.03,1.28-.2,2.56.01,3.84-.21-1.2.91-3.2,1.43-4.28.69-1.43,1.59-2.78,2.8-3.82.48-.41,1.04-.81,1.25-1.41.4-1.13-.61-2.22-1.33-3.17-1.74-2.28-2.19-5.26-2.5-8.11-.19-1.78-.37-3.57-.86-5.29l1.23-2.62c.44,1.14.8,2.32,1.16,3.49,1.64,5.43,3.28,10.85,4.64,16.36.32,1.31.66,2.68,1.52,3.72s2.44,1.63,3.61.96c-.8-1.35-.74-3.02-.84-4.59-.28-4.42-1.99-8.61-3.75-12.67-1.55-3.56-3.15-7.09-4.76-10.62l42.88-91.49c-.17-1.09,1.26-1.84,1.65-2.88s.42-2.29-.25-3.18c-3.02,2.69-5.77,6.27-6.83,10.17l-39.11,83.73c-.27-.6-.55-1.2-.82-1.8-1.21-2.65-1.75-4.97-2.36-7.81-.44-2.02-1.18-3.95-1.94-5.87-.16-.52-.32-1.05-.49-1.57-.56-1.75-1.15-3.49-1.75-5.22l1.06,3.71c-.82-2.19-1.58-4.41-2.26-6.65.1.15.21.3.32.44,0-.02-.01-.03-.02-.05-.28-.78-.58-1.56-.87-2.34-.77-2.73-1.46-5.49-2.01-8.27l3.14,10.96c.68.79,1.51,1.47,2.26,2.21,1.72,1.69,3.06,3.75,3.91,6,.86-3.32,2.69-6.37,5.2-8.7-1.3-1.07-3.07-1.3-4.66-1.84-4.61-1.58-7.87-5.91-8.89-10.67.29-.59.72-1.12,1.19-1.58.74-.73,1.57-1.38,2.15-2.23.31-.46.54-1.08.25-1.55-.19-.3-.54-.45-.84-.66-.62-.43-.97-1.14-1.11-1.89l-1.7,7.66s0-.02,0-.03c-.54.83-1.55.96-2.59,1.08-.05-.12-.09-.24-.14-.36-1.99.43-3.91,1.15-5.7,2.11.05.2.11.39.16.59-2.11.63-4.28,1.07-6.47,1.29-1.71.17-3.48.24-5,1.03-.48.25-.96.58-1.5.54l14.84,3.64c2.44,7.82,5.55,15.43,9.3,22.71ZM712.3,456.83c2.26,5.56,6.36,10.14,10.48,14.5,1.51,1.6,3.11,3.24,5.17,4.01l-17.05-22.46c.45,1.32.87,2.65,1.4,3.94ZM625.85,321.04c-.65-.17-1.3-.37-1.97-.43-.81-.08-1.46-.44-2.26-.31-.66.11-2.52.87-2.89,1.43l9.53-.16c-.81-.16-1.62-.32-2.42-.52ZM609.16,329.67c1.25,2.32,2.52,4.67,4.29,6.62,1.77,1.95,4.12,3.5,6.74,3.79,1.61.17,3.26-.14,4.69-.89l-15.72-9.51ZM551.04,324.32l-.32,10.12c1.76,2.66,3.51,5.32,5.27,7.97.81-.6,1.64-1.22,2.24-2.04.33-.45.59-.96.94-1.4.63-.78,1.52-1.31,2.23-2.02.56-.56.99-1.22,1.55-1.78.55-.56,1.27-1.03,2.05-1.03-5.07-2.62-9.78-5.94-13.95-9.84ZM562.73,360.56l-.07,2.99c.21-.98.18-1.99.07-2.99ZM562.5,341.34c-.86,5.7-.88,11.54-.05,17.24.1.66.2,1.32.27,1.98l.52-22.24c-.4.96-.59,1.99-.74,3.01ZM593.11,358.71c-1.32,3.24-1.96,6.76-1.85,10.26.05,1.56.24,3.15.28,4.71l3.16-16.8c-.81.21-1.26,1.06-1.58,1.83ZM587.82,393.48l.52-2.79s-.03.03-.04.05c-.55.78-.73,1.81-.48,2.73ZM589.46,389.41c.97-1.28,1.06-3.01.94-4.6-.12-1.6-.4-3.22-.04-4.78.18-.76.51-1.48.74-2.23.41-1.33.48-2.71.45-4.11l-3.19,17.01c.33-.46.77-.83,1.11-1.29ZM631.62,321l-3.35.57c.93.18,2.51,1.46,3.35-.57ZM102.94,354.28c-4.23-2.7-9.51-3.91-12.84-7.66-1.61,2.64-3.49,5.5-6.48,6.3l26.35,7.53c-2.19-2.24-4.4-4.49-7.03-6.17ZM449.07,676.19c.06-1.93-.48-3.96-.07-5.83.55-2.5,2.02-4.71,2.5-7.25,1.1-5.75-2.06-11.34-3.1-17.11l-29.1-66.64c.41,1.26.81,2.52,1.2,3.78,3.9,12.6,7.32,25.35,10.5,38.15.72,2.9,1.43,5.81,1.84,8.77.96,6.89,1.04,14.81.17,21.71-1.28,10.09,3.14,20.01,3.65,30.17,0,.04,0,.09,0,.13l-1.22-3.33c-2.55,6.22-6.85,11.55-11.08,16.77-2.73,3.37-6.21,7.07-10.53,6.67-3.02-.28-6.24-2.54-8.77-.88-1,.66-1.56,1.78-2.09,2.86-1.92,3.95-3.83,7.89-5.75,11.84-.51,1.05-1.03,2.14-.99,3.3.03.89.38,1.73.75,2.54,1.23,2.75,2.61,5.44,4.13,8.04,3.55.56,4.55-.5,5.82-2.26.4-.55.44-1.27.73-1.89.77-1.62,2.97-1.99,4.09-3.39.66-.82.98-2,1.94-2.42.52-.22,1.13-.15,1.67-.32.64-.2,1.14-.7,1.6-1.19,4.89-5.27,8.73-11.5,14.12-16.26,2.49-2.2,5.39-4.25,6.65-7.28.34,1.51.71,3.02.98,4.54.75,4.17.77,8.43.8,12.67.04,7.56.02,15.42-3.27,22.22-.42.87-.9,1.74-.96,2.7-.05.79.18,1.57.41,2.33.46,1.51.92,3.02,1.38,4.53.16.51.33,1.05.72,1.43.43.41,1.05.54,1.63.66,4.68.92,9.48,1.85,14.19,1.06,2.87-.48,5.68-1.6,8.59-1.44,1.33.07,3.18.05,3.37-1.27.05-.37-.07-.74-.2-1.08-2.62-6.81-9.93-11.07-12.18-18-.64-1.97-.83-4.06-1.02-6.12-.77-8.53-1.54-17.06-2.3-25.59-.38-4.17-.72-8.34-.83-12.51,2.25-.64,4.5-1.44,6.19-3.04,1.42-1.35,2.31-3.16,3.07-4.96,1.7-4.03,2.92-8.25,3.63-12.56.99-6.02.97-12.16,1.95-18.18,1.86-11.47,7.22-22.04,10.45-33.2,2.14-7.38,3.35-15.05,5.18-22.5l-30.5,91.65c0-.67.01-1.34.03-2.02ZM641.5,613.85c-.25-2.01-.53-4.03-.78-6.03-1.31,5.35-2.16,10.82-2.53,16.31.02.04.03.07.05.11l3.25-10.39ZM214.63,574.92c-.71-2.41-1.7-4.74-2.84-6.98-3.03-5.94-7.16-11.32-12.09-15.8l9.62,25.93,3.77,1.83c-.82.7-1.56,1.46-2.25,2.27l8.82,23.76c-.83-7.88-2.14-15.71-3.46-23.52-.43-2.52-.85-5.05-1.58-7.5ZM236.22,727.46c.02-1.49.69-2.88.95-4.34.79-4.36-1.99-8.46-3.24-12.71-1-3.4-1.02-7-1.03-10.55-.04-10.25-.07-20.5-.11-30.75,0-.92,0-1.87.31-2.73.26-.72.72-1.34,1.14-1.98,1.81-2.71,3.11-5.76,3.8-8.94l-18.37-49.51c.34,3.28.61,6.56.75,9.85.3,7.25,0,14.55,1.04,21.73.43,2.97,1.07,6.08.05,8.9-.37,1.02-.94,1.95-1.3,2.96-.53,1.46-.62,3.03-.6,4.58.08,5.02,1.41,10.02,3.82,14.43,6.26,11.43,1.22,26.67-1.67,39.37-.45,1.95-.96,3.92-1.9,5.69-1.4,2.63-3.76,4.84-4.32,7.77-.38,1.98.12,4.01.7,5.93.58,1.93,1.15,4.25-.18,5.75-.57.64-1.38.98-2.1,1.43-1.25.78-2.35,2.12-2.14,3.57.31,2.13,2.95,2.89,5.09,3.13,6.94.78,13.93,1.04,20.91.8,1.03-.04,2.14-.11,2.92-.78,1.33-1.13,1-3.29.17-4.83-1.61-2.96-4.73-5.4-4.68-8.77ZM776.74,503.53c4.48-5.39,8.71-10.98,12.66-16.77.63-.92,1.26-1.85,1.69-2.88.45-1.06.7-2.2.97-3.33,1.55-6.48,4.06-12.68,6.57-18.85l-29.86,50.13c2.97-2.45,5.52-5.35,7.98-8.31ZM164.04,565.43c-1.45-.01-2.89.09-4.31.29l3.74-.11.56-.18ZM658.88,689.91c.67-5.61,2.21-11.11,2.62-16.74.76-10.33-2.28-20.82-.34-31,.67-3.54,1.95-7.01,1.86-10.61-.07-2.88-1-5.65-1.79-8.41-3.73-13.03-8.02-29.92-6.58-44.06.46-2.1.8-4.23,1.09-6.33l1.46-5.79s.03-.07.05-.1c.68-1.26,1.67-2.32,2.45-3.53,2.53-3.95,2.46-8.96,2.04-13.65,0,1.01-.53,2.68-1.37,4.75l1.03-4.08-1.94,6.18c-4.32,9.57-13.45,24.72-15.3,27.42-4.4,6.43-4.47,14.84-3.59,22.58.05.43.1.87.15,1.3.27-1.11.56-2.22.87-3.32.79-2.77,1.72-5.55,3.35-7.92.93-1.34,2.06-2.53,3.14-3.75l-6.58,21.02c.66,5.33,1.11,10.67.06,15.9-.11.57-.24,1.13-.38,1.69-.33-.93-.66-1.85-1.01-2.77-.59-1.5-1.24-2.98-1.92-4.44l-.08.25c0-.12.02-.24.03-.36-5.62-12.02-13.9-22.76-19.34-34.91l16.34,68.77c1.05-3.45,2.73-6.71,4.92-9.57.77-1,1.61-2,2.3-3.05,1.81,4.19,4.31,8.29,5.37,12.71,2.08,8.66-1.5,17.52-3.13,26.27-1.75,9.37-1.28,19.05-3.12,28.4-.67,3.42-1.66,6.8-1.84,10.29-.18,3.48.56,7.19,2.91,9.76,2.61,2.86,6.64,3.82,10.42,4.64,2.59.56,5.27,1.13,7.86.6.9-.18,1.81-.52,2.42-1.2,1.13-1.26.88-3.2.54-4.86-2.81-13.91-6.66-27.98-4.98-42.08ZM419.31,579.36c-1.74-5.31-3.74-10.55-6.67-15.29l6.67,15.29ZM83.81,568.03l1.21-.04c-.4-.01-.8-.01-1.21.04ZM451.22,625.9c1.41-5.49,3.53-11.23,1.92-16.67-.33-1.13-.83-2.24-.87-3.42-.04-1.11.33-2.18.71-3.22,1.5-4.1,3.26-8.12,4.23-12.38.97-4.25,1.11-8.85-.6-12.86-.27-.64-.6-1.28-1.08-1.79-1.54-1.62-4.36-1.45-6.1-.06-1.75,1.39-2.56,3.68-2.76,5.91-.2,2.22.11,4.46.19,6.69.23,6.7-1.68,13.3-1.85,19.99-.24,9.37,2.9,18.54,3.05,27.91.05,3.01-.21,6.04.19,9.03.04.32.1.64.16.96l.96,2.2c-.64-7.47-.01-15.04,1.85-22.3ZM394.25,723.73c.83,1.93,1.49,4.49-.1,5.86-7.56,2.78-16.37,1.89-23.23-2.33-1.39-.85-2.75-1.9-3.4-3.4-.85-1.96-.29-4.21.24-6.29,3.63-14.47,4.55-29.61,2.68-44.41-.49-3.87-1.17-7.75-2.58-11.38-2.74-7.05-8.03-12.75-12.15-19.09-1.37-2.11-2.66-4.4-2.84-6.92-.27-3.67,1.81-7.04,3.68-10.21,5.82-9.86,10.31-20.43,14.77-30.97,1.65-3.89,3.3-7.79,4.95-11.68.76-1.8,1.54-3.67,1.52-5.63-.03-2.78-1.66-5.25-3.02-7.67-2.88-5.09-4.84-10.7-5.77-16.47l9.92,3.5c-4.41-2.27-8.44-5.26-11.65-9.03-2.75-3.23-4.86-6.95-7.48-10.28-1.74-2.21-3.7-4.25-5.3-6.56-1.97-2.84-3.37-6.06-4.09-9.44l49.76,40.4c-.42-.52-.84-1.03-1.24-1.56-1.54-2-3.03-4.09-3.88-6.47-.91-2.56-1.03-5.31-1.23-8.02-.88-11.94-3.47-23.67-6.04-35.36l31.12,71.35c-2.63-2.58-5.26-5.17-7.84-7.81.26,2.86.35,5.64-1.29,7.88-1.31,1.79-3.44,2.73-5.27,3.98-9.81,6.7-10.22,21.06-17.18,30.69-4.93,6.81-13.3,11.47-15.44,19.6-.83,3.15-.59,6.48-.31,9.73,1.11,12.71,2.76,25.37,4.97,37.94.62,3.56,1.3,7.13,2.59,10.49,1.39,3.62,3.47,6.92,5.43,10.27,3.64,6.22,6.89,12.67,9.73,19.29ZM391.41,561.03l11.53,4.06c-.75-.88-1.5-1.76-2.23-2.66-3.12-.28-6.24-.72-9.3-1.4ZM365.4,458.11l1.47-.47c-.76.1-1.28.25-1.47.47ZM366.86,457.64l57.29-18.25c.08,2.78.08,5.78-.73,8.39,1.34-1.07,2.78-2.05,4.1-3.15,4.33-3.62,7.81-8.97,13.37-9.93,2.74-.47,5.54.25,8.18,1.11,7.03,2.28,13.72,5.57,19.82,9.74l-79.28,62.96c-.55-4,1.63-8.23,5.2-10.1-1.24-3.95.71-8.12,2.61-11.79.5-.97,1.03-1.97,1.86-2.69.94-.8,2.16-1.17,3.24-1.76,2.5-1.37,4.15-4,4.77-6.78.62-2.78.3-5.7-.45-8.45-.13-.47-.27-.96-.21-1.45.08-.62.49-1.15.88-1.64.53-.67,1.07-1.34,1.62-2.01-.23.2-.45.39-.69.57-.79.6-1.71,1.11-2.7,1.09-2.69-.03-3.91-3.56-6.37-4.66-2.88-1.3-6.22,1.14-9.31.53-1.36-.27-2.59-1.12-3.97-1.14-1.7-.03-14.72-1.22-19.24-.61ZM415.1,455.81c-.43.33-.83.69-1.22,1.06.52-.44,1.05-.87,1.62-1.27.54-.38,1.1-.73,1.63-1.11-.7.41-1.39.83-2.03,1.32ZM661.73,549.67c0-.12-.01-.21-.03-.31l2.41-7.71s-.01.02-.02.03c-.75.99-1.67,1.9-2.14,3.05-.57,1.39-.41,2.96-.27,4.45l-.29,1.16.31-.98c0,.1.02.21.03.31ZM355.82,562.2c-1.53,3.5-4.43,6.2-6.45,9.44-3.96,6.36-4.29,14.35-7.49,21.13-.96,2.03-2.17,3.95-2.79,6.1-1.53,5.31.8,10.94.63,16.47-.16,5.14-2.46,9.93-4.12,14.81-.71,2.1-1.66,4.7-1.58,6.95.07,2.01,1.34,3.85,1.78,5.88.95,4.33.46,8.88-.46,13.17-1.28,5.96-3.38,11.8-3.6,17.9-.36,9.94,4.29,19.43,4.9,29.36.38,6.19-.78,12.63,1.36,18.45,1.25,3.38,3.59,6.5,3.56,10.1,0,.49-.06,1.01-.35,1.4-.54.73-1.6.76-2.5.71-6.85-.37-13.68-1.2-20.43-2.49-1.02-4.52-1.14-9.25-.34-13.82,1.27-7.23,4.77-13.96,5.76-21.23.81-6.01-.14-12.11-1.09-18.1-1.34-8.45-2.68-16.91-4.01-25.36-.54-3.4-1.07-6.88-.35-10.24.74-3.44,2.74-6.46,4.15-9.69,2.52-5.78,3.1-12.12,3.63-18.33.23-2.69.93-5.64.81-8.28-.14-3.23-1.22-6.62-1.61-9.86-1.6-13.29-1.26-26.72-2.72-40.02-.21-1.91-.47-3.82-.76-5.73-1.6,2.28-3.08,4.64-4.14,7.2-.61,1.47-1.08,3.01-1.93,4.35-.85,1.34-2.16,2.5-3.74,2.68-1.49.17-3.05-.54-4.47-.04-1.07.38-1.87,1.4-3,1.53-.65.07-1.32-.17-1.95-.01-1.13.29-1.55,1.63-2.32,2.51-1.28,1.45-3.46,1.51-5.34,1.94-1.25.29-2.58.77-3.85.99-.01.95-.04,1.91-.1,2.86-.12,1.85-.32,3.71-.13,5.55.18,1.72.71,3.38,1.07,5.07,2.05,9.74-1.71,20.28,1.67,29.64,2.19,6.05,7.12,10.81,9.34,16.85,1.17,3.19.27,5.97-1.48,8.88-1.26,2.09-3.03,3.81-4.52,5.74-1.87,2.42-3.3,5.19-4.19,8.11-3.54,11.65-9.43,23.4-9.53,35.57-.04,4.73.59,9.56-.62,14.13-.58,2.17-1.56,4.26-1.69,6.51-.1,1.79.35,3.57.76,5.32.97,4.16,1.69,8.38,2.16,12.62.26,2.32.04,5.31-2.16,6.09-.65.23-1.36.2-2.04.15-7.81-.63-15.29-4.6-20.19-10.72-1.16-1.45-2.19-3.06-2.52-4.88-.52-2.9.86-5.86,2.81-8.08,1.94-2.22,4.42-3.89,6.65-5.82.68-.59,1.37-1.25,1.63-2.11.36-1.2-.18-2.46-.39-3.69-.46-2.78.85-5.55,2.46-7.85,1.61-2.31,3.58-4.4,4.77-6.95,1.14-2.47,1.48-5.23,2.34-7.81,1.17-3.51,3.3-6.63,4.57-10.11,1.72-4.72,1.79-9.85,1.84-14.87.16-15.47.12-31.74-7.41-45.26-4.32-7.74-6.58-16.85-7.75-25.64-.67-4.98-1.16-10.63-5.09-13.76l.82-.8-28.27,11.03,3.17,75.15c-1.72-15.84-7.56-32.24-7.44-48.17.05-6.5,5.29-12.59,4.17-19-.57-3.28-1.46-6.83.02-9.82v.26c.42-.81,1.09-1.52,1.87-2,1.31-.81,2.89-1.09,4.43-1.13,1.68-.05,3.67,0,4.63-1.37.8-1.14.44-2.69.57-4.07.33-3.37,3.75-5.71,7.1-6.2,3.35-.49,6.74.37,10.1.78,1.34.16,2.7.23,4.05.24l24.8-24.19c-4.04,1.75-8.31,3.12-12.49,4.4-1.31.4-2.63.8-4,.93-2.34.23-4.67-.35-6.94-.93-2.88-.73-5.88-1.54-8.1-3.51-2.08-1.85-3.25-4.54-3.75-7.28-.5-2.73-.39-5.54-.28-8.32l85.23-72.76c-2.47,5.21-2.03,11.37-4.06,16.76-1.15,3.03-3.04,5.71-4.7,8.5-3.61,6.06-6.18,12.67-8.73,19.24-1.2,3.11-2.42,6.25-2.88,9.55-.51,3.66-2.04,7.09-4.08,10.33l4.63,29,10.1-2.04c.55-.8,1.11-1.59,1.56-2.39,1.11-1.98,1.54-4.26,1.96-6.49.77-4.08,1.54-8.17,2.31-12.25.96-5.08,1.92-10.18,2.32-15.33.62-7.86-.05-15.89,1.82-23.55.33-1.35.74-2.72.63-4.1-.25-3-2.82-5.26-3.79-8.1-1.16-3.39.07-7.1,1.5-10.39,1.66-3.84,3.6-7.57,5.78-11.14.65-1.06,1.33-2.12,1.83-3.27.5-1.14.55-1.88,1.79-2.46,1.73-.81,3.67-1.2,5.58-1.1l56.32-38.9c1.28-.27,2.61-.02,3.89.22,1.43.27,2.86.54,4.29.82,2.88.55,5.81,1.11,8.41,2.48,2.94,1.55,5.29,4.06,7.04,6.88-3.9-1.39-7.81-2.79-11.87-3.63-3.06-.63-6.24-.93-9.29-.29-5.15,1.08-9.43,4.71-14.5,6.08-3.31.89-7.09.9-9.65,3.18-.88.79-1.55,1.79-2.3,2.7-3.37,4.05-8.65,6.29-11.59,10.66-1.18,1.76-1.92,3.78-2.87,5.67-1.5,2.97-3.54,5.64-5.01,8.63-.99,2-1.71,4.11-2.42,6.22-.65,1.9-1.08,3.84-1.57,5.79-.97,3.85-2.94,7.59-6.15,9.94-2.43,1.79-5.73,3.02-6.57,5.92-.27.94-.24,1.94-.19,2.92.21,5.06.43,10.12.64,15.18.15,3.59.3,7.19-.1,10.76-.2,1.79-.55,3.57-.91,5.34-1.62,7.95-3.58,16.03-2.65,24.09.25,2.17.7,4.31,1,6.47l7.23-1.46c-2.66,7.98,1.5,17.23-1.87,24.94ZM283.33,559.29l-4.53,1.77c1.55-.47,3.07-1.06,4.53-1.77ZM316.73,517.87c-2.82,3.88-6.23,7.48-9.29,10.88-3.75,4.17-8.52,7.08-13.68,9.35-.13,5.08-1.26,10.12-3.32,14.76-.48,1.08-1.02,2.17-1.12,3.36-.08,1,.16,1.99.37,2.96.11.5.21,1.01.3,1.52,3.13-2.61,5.58-6.17,9.18-8.13.87-.47,1.8-.85,2.57-1.48,3.04-2.47,2.28-7.57,4.87-10.5.87-.99,2.07-1.66,2.9-2.68.67-.82,1.06-1.83,1.63-2.72.77-1.19,1.85-2.16,2.58-3.37.98-1.6,1.29-3.5,1.59-5.34.46-2.87.93-5.74,1.39-8.6ZM209.32,578.07l1.52,4.11c-3.7,4.4-5.47,10.34-6.04,16.13-.68,6.87.07,13.79-.22,20.69-.48,11.69-3.92,23.28-2.78,34.92.36,3.66,1.17,7.28,1.28,10.95.1,3.31-.36,6.62-.21,9.93.22,4.92,1.79,9.67,2.97,14.45,1.78,7.25,2.67,14.72,2.64,22.18,0,1-.02,2.03.33,2.97.36.95,1.05,1.72,1.68,2.51,1.76,2.22,3.07,4.79,3.82,7.52.51,1.86.76,3.88.09,5.69-.93,2.51-3.5,4.12-6.13,4.64s-5.34.15-7.99-.23c-1.63-1.86-1.61-4.66-.98-7.04.63-2.39,1.78-4.64,2.14-7.08.66-4.42-1.31-8.75-3.03-12.87-4.31-10.31-7.35-21.15-9.04-32.19-.85-5.52-1.39-11.21-3.74-16.28-.64-1.37-1.42-2.77-1.34-4.28.09-1.64,1.17-3.02,2.01-4.43,2.73-4.58,3.15-10.13,3.38-15.45.61-13.98.4-27.98.2-41.97-.06-4.15-.13-8.37-1.26-12.37-1.55-5.5-4.96-10.17-8.74-14.53-4.18,17.78-9.75,35.23-16.68,52.12-4.08,9.94-8.71,20.65-6.03,31.06,1.31,5.08,4.3,9.65,5.17,14.82.94,5.52-.63,11.11-1.59,16.63-2.64,15.2-.7,30.78,1.25,46.08.13,1.05.29,2.15.94,2.99.54.69,1.34,1.1,2.13,1.46,3.01,1.39,6.21,2.38,9.06,4.08,2.84,1.7,10.81,6.63,5.99,7.56-9.34.88-18.78.68-28.06-.61-2.24-.31-4.54-.71-6.42-1.96-1.88-1.25-3.23-3.57-2.68-5.76.34-1.33,1.3-2.42,1.74-3.72.63-1.88.07-3.91-.28-5.86-1.4-7.87.7-15.87,1.62-23.81,1.55-13.31-.26-27-5.21-39.45-1.13-2.84-2.44-5.76-2.15-8.8.17-1.81.9-3.51,1.62-5.17,2.99-6.98,5.84-14.09,7.15-21.57,1.38-7.88,1-15.94.62-23.93-.37-7.83-.75-15.66-1.12-23.5-.04-.8-.1-1.67-.62-2.29-.52-.62-1.36-.84-2.15-1-2.21-.44-4.47-.69-6.72-.75-2.82,1.49-5.64,2.96-8.48,4.22-4.66,2.07-9.75,3.78-13.05,7.66-3.02,3.55-4.03,8.4-4.1,13.06s.72,9.28.82,13.94c.27,12.06-4.01,24.1-2.13,36.02.91,5.79,3.21,11.96.7,17.25-1.01,2.14-2.72,3.86-4.19,5.71-4.91,6.16-7.32,13.89-9.63,21.42-1.43,4.66-2.87,9.4-2.98,14.27-.08,3.91.7,7.79,1.48,11.62,1.52,7.51,1.67,13.78.78,17.71-.95,4.2-14.32,2.82-23.37,1.81-1.5-.17-3.08-.36-4.3-1.26-2.18-1.6-2.39-4.92-1.28-7.38.42-.92.97-1.76,1.6-2.54-2.44,1.22-1.67,5.59-4.04,7.07-.6.37-1.31.5-2.01.61-2.44.4-4.95.81-7.38.34-2.43-.47-4.81-2.01-5.58-4.36-.79-2.43.27-5.02,1.07-7.45,3.08-9.28,2.56-19.38.87-29.01-1.69-9.63-4.52-19.04-5.97-28.7-.62-4.14-.99-8.32-1.37-12.49-.19-2.16-.38-4.34-.06-6.48.07-.47.18-.92.29-1.38-1.36,1.95-2.73,3.88-3.61,6.08-1.48,3.72-1.38,7.85-1.66,11.84-.93,13.12-6.16,26.42-2.52,39.06.67,2.34,1.66,4.71,1.31,7.12-.23,1.59-1.02,3.04-1.35,4.6-.96,4.56,2.06,9.05,2.11,13.71,0,.88-.1,1.8-.57,2.55-.69,1.11-2.01,1.62-3.26,2-4.45,1.33-9.38,1.67-13.65-.15-4.27-1.81-7.67-6.13-7.41-10.77.37-6.61,7.45-11.29,8.08-17.88.17-1.76-.14-3.56.22-5.3.77-3.65,4.27-6.05,5.89-9.4,1.05-2.16,1.27-4.62,1.45-7.02,1.06-14.12,1.28-28.3.64-42.44-.14-3.12-.27-6.46,1.36-9.13,1.82-2.97,5.71-5,5.64-8.48-.02-1.23-.57-2.37-1.09-3.48-4.55-9.86-6.89-20.57-9.21-31.18-.67-3.06-1.34-6.15-1.34-9.29,0-2.79.52-5.55.9-8.31,1.29-9.34.98-18.82.67-28.24-.26-8.08-.53-16.15-.79-24.23l33.46,33.23c.03,9.42-1.44,18.85-4.34,27.81-.15.46-.31.92-.47,1.38l32.89-3.54c-7.08,7.11-14.51,14.87-16.24,24.75-.8,4.58-.3,9.31-.94,13.91-.71,5.09-2.83,9.91-5.68,14.19-2.7,4.06-6.2,8-6.54,12.86-.24,3.32,1.07,6.53,1.81,9.77,1.85,8.13.18,16.58-.7,24.87-1.12,10.59-.92,21.31.59,31.85.4,2.77.9,5.56,2.09,8.09,1.8,3.83,5.1,6.87,6.52,10.85,1.04-1.25,2.26-2.38,3.42-3.52,3.96-3.89,7.44-8.34,9.76-13.38,7.43-16.11,2.23-35.54,8-52.31,1.71-4.97,4.35-9.6,5.71-14.68,2.06-7.71,1.01-15.85.34-23.8-.84-9.95-1.07-19.96-.68-29.94.19-4.87.5-9.9-1.22-14.45-1.58-4.17-5.43-7.82-9.78-7.98l74.72-2.28c-6.25.89-12.2,3.68-18.1,6.75l21.84-6.87,2.67-.08c-.71-.06-1.41-.09-2.11-.1l17.23-5.42c-.29,1.33-.6,2.66-.91,3.98l28.96,14.08ZM57.17,608.32c.15-8.64-.99-17.24-2.23-25.8-1.75,4.84-3.77,9.59-5.45,14.46-2.77,8.02-4.61,16.36-5.47,24.8-.19,1.82-.32,3.71.35,5.41.9,2.32,3.13,3.9,4.19,6.15.69,1.47.82,3.07.59,4.67.56-.94,1.12-1.88,1.65-2.83,4.48-8.15,6.21-17.57,6.38-26.87ZM223.06,398.82c0,.36,0,.74-.2,1.04-.21.33-.6.48-.95.66-1.74.92-2.71,2.9-2.92,4.86-.22,1.95.2,3.92.62,5.84.05-2.19.29-4.38.74-6.52.21-.98.49-2.01,1.23-2.69.45-.41,1.02-.62,1.63-.7l2.93-21.66c-7.21,4.43-3.12,16.14-3.08,19.17ZM223.43,414.6c.17-.11.3-.29.41-.46,1.03-1.73.43-4.28,1.94-5.62,1.24-1.1,3.56-1,4.07-2.57.46-1.4-1.04-2.62-2.33-3.34-.93-.52-1.88-1.05-2.93-1.26-.45-.09-.93-.1-1.39-.04l-1.7,12.56c.48.58,1.29,1.14,1.92.74ZM195.06,326.75c-.45.1-.92.22-1.28.51-.76.61-.79,1.75-.59,2.7.37,1.71,1.29,3.25,2.38,4.62.12.15.23.31.33.47l3.04-8.86c-1.31.09-2.6.28-3.88.56ZM194.81,338.72c.44-.69.8-1.42,1.09-2.18.14-.37.25-.76.16-1.14-.03-.12-.09-.23-.16-.34l-1.46,4.24c.12-.19.25-.38.37-.57ZM194.44,339.29c-.39.62-.74,1.27-.68,1.98l.68-1.98ZM206.96,337.35l2.8-.06c-.38-.29-.78-.57-1.13-.57-.47-.01-1.48.21-1.67.64ZM152.06,431.52c-1.73,2.05-3.5,4.16-4.41,6.68s-.81,5.59.95,7.61c1.53,1.75,3.97,2.42,5.71,3.97,2.4,2.14,3.12,5.66,5.35,7.98,1.81,1.88,4.75,3.32,4.7,5.93,1.93-.47,4,.36,5.49,1.67,1.5,1.31,2.53,3.06,3.54,4.77,3.31-3.91,4.79-9.02,5.86-14.02,1.1-5.14,1.88-10.39,3.82-15.27.33-.82.69-1.73.38-2.56-.15-.39-.43-.71-.7-1.02-1.43-1.6-2.9-3.22-4.76-4.28-4-2.28-9.26-1.51-13.07,1.09-3.8,2.6-6.31,6.74-7.9,11.07l2.06-21.91c-2.34,2.77-4.68,5.54-7.02,8.31ZM82.03,357.89l.08-1.39c-.13.46-.14.92-.08,1.39ZM86.97,391.51c.47-.46,1.16-.61,1.81-.71,1.03-.17,2.11-.29,2.96-.89s1.32-1.89.68-2.71c-.3-.38-.76-.59-1.21-.77-3.77-1.51-7.83-2.31-11.89-2.33-.87,0-2,.26-2.07,1.12,2.11.38,3.94,2.02,4.55,4.07.61,2.05-.03,4.42-1.58,5.89-1.3,1.23-3.23,1.95-3.88,3.62-.41,1.07-.17,2.26.15,3.36.32,1.09.74,2.2.66,3.34-.07,1.14-.8,2.34-1.93,2.5l9.44-.77c-.37-1.63,1.45-2.98,1.61-4.65.1-.96-.37-1.87-.62-2.79-.58-2.14-.04-4.4.5-6.54.16-.63.33-1.29.8-1.73ZM80.52,383.38l.24-3.95c-.25,1.3-.35,2.63-.24,3.95ZM59.95,541.86c5.17,10.4,15.36,17.27,25.49,22.96l-28.64-30.49c1.03,2.52,1.94,5.1,3.16,7.53ZM91.54,561.64l-8.96-90.41c-3.32,9-8.67,17.26-10.86,26.6-2.19,9.35-1,19.02.82,28.32,1.41,7.2,3.93,17.09,7.82,23.44.99,1.61,2.21,3.07,3.22,4.67,1.02,1.62,1.83,3.38,3.05,4.85,1.23,1.47,3.01,2.64,4.92,2.52ZM36.62,512.85l20.18,21.48c-.31-.76-.63-1.52-.98-2.26-3.89-8.38-10.82-15.32-19.2-19.22ZM81.26,377.47c.49-1.41,1.2-2.74,1.58-4.18.42-1.6.42-3.27.42-4.92,0-2.82-.01-5.67-.74-8.4-.18-.68-.4-1.38-.49-2.08l-1.28,21.55c.13-.67.29-1.33.51-1.97ZM616.69,568.72c-.59,3.82-1.18,7.71-.67,11.55.42,3.12,1.55,6.09,2.83,8.96l-.47-28.47c-.86,2.58-1.28,5.28-1.69,7.97ZM535.64,364.11c.27-1.04.53-2.09.72-3.15.35-1.93.45-3.97.02-5.86l-.83,1.89.08,7.12ZM618.62,622.1c-.63-4.35-2.13-8.57-4.45-12.29l4.45,12.29ZM634.8,564.65c-1.11-4.93-5.54-8.36-10-10.74l3.67,50.55c-.79-8.65.38-17.47,3.38-25.62,1.7-4.6,4.02-9.41,2.95-14.19ZM535.86,383.82l-.22-19.72c-.43,1.68-.89,3.36-1.13,5.08-.7,4.88.33,9.82,1.36,14.64ZM565.4,397.94c.19-.85.65-1.69,1.34-2.18l-.8,6.16,2.12,1.14c-.07.52-.14,1.05-.21,1.57.05,0,.1.02.15.01.9-.02,1.75-.37,2.58-.72,1.01-.43,2.02-.86,3.04-1.29,1.76-.75,3.61-1.51,5.52-1.33.98.09,1.98.44,2.93.19,2.18-.57,2.62-3.67,4.57-4.81.27-.16.58-.28.9-.26.4.03.79.28,1.18.17.42-.12.62-.64.53-1.07-.09-.43-.38-.78-.66-1.12-1.03-1.22-2.05-2.43-3.08-3.65-.43-.51-.87-1.03-1.41-1.43-1.16-.85-2.67-1.06-4.1-1.23-1.1-.13-2.19-.27-3.29-.4-.05,0-.1-.01-.15-.02l.52-.11c-.08-.13-.16-.27-.24-.41l3.1.76c.38-1.36.83-2.7,1.35-4.01.21-.53.44-1.06.81-1.49.51-.58,1.24-.9,1.88-1.32.65-.41,1.27-1.01,1.35-1.77.12-1.13-.96-1.99-1.96-2.54-1.4-.78-2.89-1.41-4.42-1.9-.74-.23-1.61-.41-2.22.07.81.85,1.62,1.7,2.43,2.55.21.22.42.45.5.74.09.35-.04.71-.17,1.05-.92,2.37-2,4.69-3.22,6.93-9.34-15.65-20.97-31.88-32.8-47.33l5.05-11.54c-.59,1.36-2.1,2.03-3.48,2.58-1.7.67-3.39,1.35-5.09,2.02-.46.18-.93.37-1.39.57-5.03-6.46-10.04-12.76-14.87-18.76-2.82-3.51-5.68-7.05-9.23-9.82-.79.61-1.68,1.33-1.1,2.13,2.51,3.49,11.21,15.09,21.27,28.56-2.21,1.41-4.34,2.97-6.83,3.77-1.11.36-2.29.57-3.28,1.2-.62.4-1.14.95-1.59,1.54-2.94,3.75-3.74,8.75-3.84,13.52-.12,5.94-1,12.18-1.18,18.11-.18,5.95-.21,12.08,1.71,17.68-.86,1.02-1.39,2.33-1.87,3.6-1.47-3.07-4.46-5.36-7.81-5.99-2.84-.53-5.82.08-8.61-.67-1.25-.34-2.43-.95-3.72-1.07-2.4-.23-4.74,1.35-5.85,3.49-.56,1.08-.85,2.27-.92,3.48-.42-1.57-1.13-3.1-1.84-4.57-.58-1.2-1.24-2.49-2.43-3.09-1.19-.6-3.26,3.62-4.37,10.25l41.62,7.12c-.02-2.4,2.01-4.28,2.77-6.55.36-1.06.44-2.19.37-3.31-.14-2.47-1-4.89-2.44-6.9-.34,1.36-1.71,1.98-2.98,2.7l13.99-31.98-.05-4.25c.41.74.69,1.54.87,2.36l5-11.43c14.48,19.41,29.58,39.81,32.47,44.53l.33-.07c-.12.08-.23.17-.35.26-2.39,1.87-4.69,3.85-6.91,5.92l-.15,1.13c-5.22-.07-10.45-.48-15.55-1.43l13.91,7.47c0-.09.02-.19.03-.28.07-1.09,0-2.19.24-3.26ZM535.78,386.5c.18,1.67,1.32,3.2,2.87,3.84,4.06,1.69,8.28,2.87,12.58,3.67l-15.49-8.32c0,.27,0,.54.04.81ZM535.55,383.58c-.55-1.62-2.41-2.38-4.11-2.61-1.22-.16-2.53-.14-3.59.48l7.89,4.24c0-.72.04-1.44-.19-2.11ZM608.84,421.31c.47.07.96.13,1.44.15-.59.56-1.16,1.14-1.7,1.75-5.05,5.72-8.42,12.9-9.58,20.44l59.59,14.65-1.89,5.33c2.2.66,4.65-.49,6.09-2.28,1.45-1.79,2.09-4.09,2.52-6.35,1.75-9.03.9-18.59,4.11-27.21l-10.6,29.84c-4.79-2.91-8.13-8.1-10.83-13.16-4-7.5-7.38-15.34-11.83-22.58-.98-1.6-2.09-3.24-3.77-4.06-1.31-.64-2.82-.71-4.27-.72-2.64-.02-5.29.11-7.91.4-1.23.13-2.48.31-3.69.6,1.63-1.4,3.52-2.48,5.56-3.13.5-.16,1.07-.35,1.24-.85.07-.21.05-.45.01-.67-.55-3.05-4.25-4.23-7.32-4.65-2.91-.4-6.36-1.03-7.69-3.55l1.52-3.25-12.22-8.29c-.49,1.3-.98,2.63-1.79,3.76-.67.93-1.54,1.71-2.15,2.68-.61.97-.92,2.26-.34,3.26.57.99,2.26,1.25,2.83.25.7.58,1.75.61,2.57.22.82-.39,1.43-1.13,1.84-1.94,1.02.93,2.24,1.59,3.45,2.24.27.15.55.3.82.44.49.26.97.52,1.47.77l-8.78,2.81c-1.24-.91-2.54-1.71-3.97-2.26-.41-.16-.85-.3-1.29-.29-.34,0-.67.1-1.01.1-.61,0-1.18-.3-1.75-.55-4.08-1.76-8.77-.69-13.08.39-1.2.3-2.53.71-3.1,1.81-1.72,3.32-5.75,5.36-9.87,6.02-.06.08-.11.15-.17.23,0-.07.02-.14.03-.21-.8.12-1.61.19-2.4.21-4.22-2.59-9.11-3.97-13.98-5-3.95-.84-7.96-1.49-11.87-2.51l24.44,7.49c-.73-.05-1.44-.14-2.11-.29-.93-.2-1.91-.49-2.81-.18-.94.32-1.56,1.19-2.06,2.05-2.69,4.57-3.85,9.99-7,14.25-2.42,3.26-6.06,6.03-6.5,10.07-.25,2.35.68,4.64,1.36,6.9,1.36,4.48,1.81,9.24,1.31,13.89l62.71-40.06c1.45.45,2.91.82,4.41,1.05ZM568.72,466.54c.74-.59,1.5-1.19,2-1.99.95-1.5.87-3.4,1.09-5.16.52-4.2,5.44-6.79,7.71-10.36,3.56-5.6,4.53-12.32,8.25-17.81l-27.75,41.29c1.49-.31,2.78-1.3,3.99-2.26,1.56-1.24,3.13-2.48,4.69-3.71ZM560.04,472.51c-.2.04-.41.07-.62.09-.62.04-1.27-.04-1.85.17-.87.32-1.37,1.21-1.91,1.97-1.1,1.52-2.66,2.7-4.43,3.34-.33.12-.67.22-1,.34l2.41,5.12,7.41-11.03ZM535.09,406.15l-4.05-1.24c1.33.48,2.69.88,4.05,1.24ZM566.19,409.72c.4-.55.81-1.11,1.05-1.74.21-.55.29-1.14.37-1.72.07-.55.15-1.09.22-1.64-.85-.03-1.74-.42-2.1-1.18l.2-1.52-.8-.43c-.2,2.54-.95,5.01-1.26,7.53-.18,1.48-.37,2.96-.55,4.45.05,0,.09-.02.14-.02.91-1.24,1.81-2.47,2.72-3.71ZM564.43,382.66l2.16,11.03c.52-3.75-.87-7.38-2.16-11.03ZM564.43,382.66l-1.86-9.51c-.29,3.24.75,6.38,1.86,9.51ZM212.64,337.22l-2.88.07c.3.23.59.47.84.6.56.3,1.71-.13,2.04-.67ZM518.66,412.06c1.07-.04,2.02-4.02,3.08-5.14l-9.28-.83c5.34.43,1.95,6.13,6.2,5.97ZM503.21,427.1c.8-1.1,1.91-.87,3.13-1.47l-10.64.25c1.35,3.09,2.05,8.71,7.51,1.22ZM520.89,672.02l-.52-8.78c-.02.16-.05.31-.08.47.16,2.77.35,5.55.59,8.32ZM685.77,498.6c.96-4.09.64-8.35.59-12.55-.1-8.07.82-16.15,2.69-24l-24.93,79.6c3.24-4.3,3.43-10.11,5.25-15.19,3.67-10.21,13.92-17.3,16.4-27.86ZM510.65,443.1c-.48.62-1,1.32-.9,2.1.06.51.38.96.69,1.37.49.66.98,1.32,1.46,1.98l3.88-11.99c-1.71,2.18-3.42,4.35-5.13,6.53ZM504.17,523.04c.26-4.32,1.14-8.57,1.61-12.87.68-6.16.51-12.37,1.17-18.53.28-2.61.83-4.51,1.83-6.84,1.06-2.48.8-5.37,1.64-7.95.87-2.65,2.59-4.93,3.88-7.41.53-1.02.99-2.16.76-3.28-.4-1.94-2.71-3.11-2.92-5.08-.26-2.46,2.9-4.13,3.03-6.61.07-1.33-.76-2.51-1.54-3.58l-1.73-2.34-24.54,75.81-36.3-18.99c-2.72,8.04-.58,16.82,1.58,25.02,2.8,10.63,5.91,21.77,13.65,29.58,1.42,1.43,3.02,2.75,4.93,3.42,1.07.37,2.19.52,3.32.55l-5.99,18.5c7.21-4.61,14.22-9.52,21.01-14.72.69-.53,1.38-1.06,1.9-1.75.76-1,1.1-2.24,1.58-3.4,1.09-2.62,2.91-4.86,4.48-7.22,3.5-5.29,5.79-11.41,6.4-17.73.47-4.84-.03-9.72.25-14.56ZM494.14,424.19c-3.27-.16-4.43,1.39-4.17,1.82l5.74-.13c-.41-.94-.88-1.65-1.57-1.68ZM642.07,734.47c-3.57-1.76-7.13-3.82-9.58-6.97-1.61-2.08-2.67-4.54-3.47-7.04-3.59-11.24-2.31-23.39-.99-35.12.87-7.74,1.8-15.66,5.26-22.63l-14.69-40.61c.44,3.05.45,6.15,0,9.2-.56,3.71-1.73,7.7-.02,11.05.8,1.57,2.16,2.79,3.01,4.33,2.39,4.31.32,9.59-1.37,14.22-1.19,3.28-2.18,6.62-2.98,10.02-.76,3.23-1.34,6.5-1.92,9.77-.64,3.59-1.27,7.17-1.91,10.76-2.13,12-4.27,24.16-3.3,36.3.24,2.94.66,5.88,1.65,8.65.53,1.48,1.26,2.94,2.45,3.96,1.88,1.61,4.59,1.86,7.05,1.54,2.46-.32,4.84-1.12,7.31-1.3,4.11-.31,8.13,1.09,12.21,1.65,2.14.29,4.86,0,5.63-2.01.47-1.24-.08-2.68-1-3.64-.92-.96-2.15-1.54-3.34-2.12ZM553.52,597.2l2.22-5.58c-.59.66-1.15,1.35-1.66,2.08,0,.07-.01.14-.02.21-.12,1.11-.32,2.2-.55,3.29ZM560.81,586.27c6.72-7.76,9.89-18.46,8.49-28.63l-13.54,33.98c.27-.3.55-.6.82-.89,1.42-1.48,2.89-2.91,4.24-4.46ZM559.53,697.42c-1.69-3.35-3.42-6.88-3.27-10.63.08-2.06.73-4.05,1.39-6.01,2.12-6.37,4.29-13.47,1.52-19.58-1.2-2.65-3.24-4.83-4.55-7.42-4.05-7.97-1.55-18.63-2.7-27.25-1.11-8.3-1-16.79.67-25,.3-1.45.63-2.89.93-4.34l-1.22,3.06c-.51-2.32.4-4.55,1.78-6.56.35-3.33.08-6.71.32-10.05.31-4.36,1.49-8.63,1.69-13,.4-8.92-3.28-17.45-6.89-25.62l-23.79,28.3c.81,7.23,2.49,14.37,5,21.2,2.67,7.27,6.27,14.21,8.3,21.69,3.84,14.14,1.8,29.1,1.88,43.76.02,3.74.19,7.52,1.21,11.12,1.37,4.82,4.2,9.07,6.48,13.54,6.69,13.11,8.68,28.41,6.45,42.96-.5,3.28-1.2,6.7-.15,9.85,5.5.72,11.08.8,16.6.23,2.61-.27,5.86-1.34,6.03-3.96.07-1.04-.41-2.02-.88-2.95-5.6-11.12-11.21-22.24-16.81-33.36ZM689.05,462.05l4.08-13.02c-1.66,4.24-3.02,8.59-4.08,13.02ZM479.54,586.56l4.57-13.74c-2.03,4.41-3.42,9.03-4.57,13.74ZM520.64,653.52c-.19,2.88.18,5.77-.12,8.64-.04.36-.09.72-.15,1.08l-.45-7.7c.1,2.72.22,5.44.38,8.17-.55,3.05-1.72,5.99-2.64,8.96-1.97,6.37-2.78,13.03-3.58,19.66-.46,3.78-.92,7.62-.34,11.39,1.34,8.84,7.95,15.69,12.81,23.28,1.42-.97-5.62-12.62-3.19-13.22l-2.46-41.76c1.35,15.49,4.2,30.81,10.86,44.77,1.16,2.43,2.42,5.36,1.01,7.65-1.23,1.98-3.84,2.42-6.19,2.6.48.75.94,1.5,1.38,2.26.47.82.9,1.86.38,2.64-.48.72-1.49.79-2.35.77-5.5-.13-10.97-.94-16.27-2.4-1.92-.53-3.98-1.26-5.05-2.94-.82-1.28-.91-2.89-.95-4.41-.46-21.49,5.97-43.27,1.25-64.25-.93-4.14-2.29-8.17-3.63-12.2-1.24-3.74-2.49-7.68-1.72-11.54.68-3.43,2.87-6.34,4.58-9.39,5.64-10.04,6.33-22,7.33-33.47.2-2.23.41-4.47.95-6.65.4-1.61.98-3.17,1.47-4.76,2.83-9.29,2.29-19.22,1.72-28.91l17.92,65.58c-2.66,7.26-5.5,14.46-8.52,21.58-1.99,4.7-4.09,9.49-4.43,14.59ZM526.2,727.05c.1.01.18,0,.25-.02-.08,0-.17.01-.25.02ZM101.65,392.53c-.8.91-.56,2.3-.34,3.5.76,4.05.79,8.24.09,12.31l2.92-16.29c-.91-.35-2.03-.24-2.66.48ZM82.19,353.15c.48-.03.96-.09,1.42-.22l-1.42.22ZM86.52,334.38l5.74-.62c-.81-.04-1.53-.35-2.34-.37-1.15-.03-2.4.41-3.4.99ZM92.04,330.61l1.05-.11c-.43-.37-.75-.2-1.05.11ZM90.66,331.55c.58.19.96-.51,1.38-.94l-2.56.27s.07.02.1.04c.23.15.82.54,1.08.63ZM787.7,437.41c1.92-.76,2.74-1.87,5.03-3.16l-4.73-1.45c.25-.01.49-.03.73-.04l-3.4-.77-8.89-2.72c1.47,1.09,2.79,1.85,4.01,2.39-.49,5.34,5.19,6.57,7.25,5.75ZM93.32,333.64l-1.06.11c.33.02.68,0,1.06-.11ZM90.15,319.18c2.59.54,5.2,1.08,7.84,1.14,1.1.03,2.36-.15,3.12-.86l-5.42,20.29c5.17-7.27,9.29-16.42,6.66-24.95l-.63,2.35c-.03-.21-.07-.43-.11-.63-.25-1.2-.55-2.39-.91-3.56-.06-.2-.16-.44-.36-.49-.15-.04-.31.03-.44.11-.51.27-1.01.57-1.52.83-2.4-3.41-5.71-6.17-9.51-7.89l9.04,8.12c-.7.33-1.43.57-2.2.58-1.38.01-2.64-.74-3.84-1.42-1.57-.89-4.57-2.74-7.17-3.36l4.18-3.92c-1.72,1.19-3.47,2.45-5.16,3.75-1.9-.21-3.42.49-3.75,3.06-1.31,1.16-2.65,2.51-2.86,4.25l2.92-2.74c.86,3.65,7.17,4.73,10.13,5.35ZM86.67,320.82l-7.68,1.22c2.61.14,5.22-.34,7.68-1.22ZM87.32,343.6c-6.2-.41-12.35-1.57-18.27-3.44l14.08-.22c-1.66-2.17-3.32-4.42-4.65-6.79-1.38-2.45-3.29-4.18-4.83-6.53-1.86-2.82-2.61-6.25-2.71-9.63s.43-6.74.95-10.07c.19-.09.38-.19.57-.28l4.79,14.27-.1-3.18c.23,1.63,1.16,3.22,1.11,4.89,0,.31-.06.62-.12.92l5.5,16.38,12.07-.18c-.87,1.23-1.83,2.47-3.16,3.18-1.57.83-3.44.79-5.22.67ZM77.56,330.69l-.14-4.18c-.21,1.39-.17,2.81.14,4.18ZM792.74,434.25l5.19,1.59c-3.67-3.19-6.36-3.22-9.19-3.07l4.75,1.08c-.27.14-.51.27-.74.4ZM61.17,334.66c1.34,3,4.73,4.5,7.88,5.49l-7.85-5.58.57-1.94c-2.4,1.28-4.98,2.75-5.96,5.28-.38.97-.49,2.04-.96,2.97-.46.89-1.27,1.71-1.21,2.71.04.6.4,1.13.78,1.59.7.83,1.54,1.52,2.47,2.06.19.03.39.05.58.08l3.7-12.67ZM98.02,304.08l-3.85,1.25c1.32-.27,2.62-.69,3.85-1.25ZM89.61,319.84c-.71.08-1.38.38-2.04.65-.3.12-.6.23-.9.34l5.02-.8c-.68-.13-1.38-.27-2.07-.19ZM93.6,322.72c-2.15.38-4.37.37-6.52-.03-.76-.14-1.53-.33-2.3-.29-.77.05-2.57,2.07-2.96,2.74l13.23-1.75,2.4,2.41c.46-1.08.62-2.29.46-3.45-.02-.11-.04-.24-.12-.32-.09-.09-.23-.1-.36-.12-.28-.05-.54-.17-.76-.34-.22-.18-.39-.41-.62-.56-.27-.18-.61-.25-.93-.31-1.14-.22-2.28-.44-3.42-.67l2.6,2.61c-.23.02-.46.05-.69.09ZM87.59,331.08l1.9-.2c-.59-.33-1.39-.26-1.9.2ZM100.83,311.03l-2.81-6.95c.57,2.44,1.74,4.67,2.81,6.95ZM777.34,465.69c2.03,1.22,4.45,1.77,6.81,1.56.65-.06,1.31-.18,1.86-.53.58-.37.98-.97,1.49-1.44,1.01-.93,2.49-1.32,3.83-1.01-.26-.85.95-1.69,1.65-1.14l-28.33-15.18c5.17,5.23,6.39,13.96,12.69,17.74ZM263.37,384.63l-21.46,3.69c-.1-.45.33-.83.71-1.08,3.82-2.47,8.4-3.47,12.87-4.34,1.58-.31,3.21-.61,4.79-.34,1.4.24,2.72.94,3.71,1.96l-.53.09,25.38,3.38c-6.49-.41-13.12.67-19.66.39-.69-.03-1.4-.08-2.02-.38-1.53-.75-2.28-2.89-3.79-3.37ZM263.2,384.58c-.11-.03-.23-.04-.36-.05l.36.05ZM282.93,423.14c2.36-.99,5.04-1.33,7.1-2.85,1.97-1.45,3.37-3.95,5.78-4.31,1.41-.21,2.79.38,4.17.74,1.38.36,3.04.41,4.02-.62.45-.48.68-1.13.9-1.75.26-.76.53-1.51.79-2.27.26-.74.52-1.48.68-2.24,1.04-4.71-1.39-9.41-3.74-13.62l-26.29,30.73c2.23-1.2,4.24-2.82,6.58-3.8ZM288.84,388l5.13.68c-1.7-.37-3.41-.58-5.13-.68ZM252.9,399.93c1.58,2.44,4.73,3.76,7.57,3.17.85-.18,1.73-.55,2.2-1.28.53-.81,1.29-2.02,1.72-2.89.79-1.59,2.87-2.14,4.64-2.28-6.59-.79-14.31.03-20.03,3.15l2.97-.54c.4-.08.7.33.92.67ZM297.43,389.9c-1.07-.61-2.26-.96-3.46-1.22l8.66,7.53c-1.35-2.41-2.8-4.94-5.2-6.31ZM251.56,429.08c1.65.82,3.37,1.58,5.2,1.83,1.78.24,3.59,0,5.37-.25,4.88-.68,9.88-1.39,14.22-3.73l-37.23-6.07c3.79,3.23,7.98,6,12.44,8.22ZM215.69,329.2c-1.21.09-2.45.4-3.62.08-.42-.12-.82-.32-1.24-.45-.63-.2-1.3-.25-1.95-.31-1.77-.14-3.54-.28-5.31-.42-.43-.03-.88-.06-1.27.11-.39.17-1.08,1.73-.96,2.14h17.62c-.66-1.02-2.06-1.25-3.27-1.15ZM102.35,314.8c-.4-1.29-.95-2.54-1.52-3.77l1.52,3.77ZM69.56,303.92c-1.64,2.81-3.27,5.62-4.89,8.44-1.18,2.06-2.38,4.19-2.72,6.54-.39,2.72.42,5.57-.33,8.21-.48,1.7-1.49,3.76-.23,4.99l8.17-28.17ZM83.01,301.02c-3.52-1.63-7.99-2.79-11-.34-1.06.86-1.77,2.06-2.45,3.23l20.19-.24c-2.3-.49-4.58-1.65-6.75-2.65ZM288.77,395.4l10.42,1.26c-1.35-1.76-5.76-3.96-10.42-1.26ZM94.06,303.62l-4.3.05c1.43.31,2.87.36,4.3-.05ZM77.14,317.73l-.04-1.17c-.05.39-.02.78.04,1.17ZM607.74,697.56c-1.3,2.6-2.61,5.22-4.37,7.53-.88,1.16-1.87,2.23-2.63,3.48-.59.98-1.03,2.05-1.52,3.08-.95,1.95-2.14,3.79-2.87,5.84-.59,1.65-.87,3.39-1.14,5.12-.07.43-.13.86-.18,1.29l-1.42-8.59c.09.03.18.08.27.11l5.09-129.82c.13.23.26.46.41.69,1.72,2.72,4.1,4.95,6.22,7.39,4.9,5.64,8.36,12.37,11.77,19.02l-21.41-114.97c-2.77,7.43-4.87,15.12-6.25,22.93-1.59,8.99-2.24,18.11-2.89,27.21-.07,1.02-.14,2.05-.15,3.07l-15.09-78.54c-8.34,4.98-12.91,15.57-10.8,25.05,1.27,5.71,4.65,10.82,6.11,16.43l-14.25-30.32-7.16,10.66c-1.79-4.67-.82-10.3,2.43-14.1.42-.5.89-.97,1.46-1.29.28-.16.57-.28.87-.38l-8.5-18.09c-.46,4.31-1.72,8.58-1.34,12.9.21,2.33.89,4.6.99,6.94.11,2.54-.5,5.01-1.5,7.35-.63-10.84-1.26-21.68-1.89-32.51l-13.42-52.87c-1.91,5.49-3.83,11.03-4.45,16.81-1.28,11.95,3.09,24.1.95,35.93-1.08,5.95-3.76,12.15-1.54,17.77,1.01,2.54,2.93,4.61,4.31,6.97,4.85,8.28,2.54,18.67,2.98,28.25.18,3.98.86,7.95.57,11.92-.22,3.01-1,5.95-1.31,8.95-.3,3-.07,6.2,1.55,8.74,1.62,2.54,4.93,4.18,7.76,3.12,2.08-.78,3.61-2.83,5.8-3.2-.91-5.63-1.82-11.26-2.73-16.89-1-6.18-1.99-12.59-.27-18.61.02-.05.03-.1.05-.16,2.23,3.89,4.67,7.67,7.29,11.31.63.88,1.31,1.9,1.04,2.95-.2.78-.87,1.33-1.41,1.93-2.3,2.56-2.29,6.57-.89,9.71,1.39,3.14,3.92,5.62,6.38,8.01,2.78,2.7,5.56,5.39,8.34,8.09,3.31,3.21,6.8,6.53,11.23,7.8,5.42,1.56,12.05.03,16.19,3.87l-5.9-12.56c3.66,5.35,6.33,11.38,7.77,17.7,0-.2,0-.4,0-.6.02.09.04.19.06.28.42,2.39.33,4.86.97,7.19,1.03,3.75,3.81,6.73,5.72,10.12,1.19,2.11,2.05,4.4,3.13,6.57-3.34,3.51-4.76,8.53-6,13.28-2.01,7.72-4,15.44-5.95,23.17-1.43,5.68-2.83,11.38-3.55,17.19-.31,2.52-.49,5.06-.61,7.6l-12.17-73.6c-2.66,23.94-.76,49.34-11.75,70.77-1.14,2.22-2.44,4.53-2.29,7.01.09,1.49.71,2.9,1.38,4.24,4.43,8.79,11.71,16.13,14.65,25.52,2.13,6.79,1.8,14.11,3.23,21.08,1.81,8.86,6.48,17.46,5.25,26.42-.14,1.04-.35,2.16.16,3.08.54.96,1.69,1.37,2.75,1.64,4.1,1.05,8.43,1.21,12.6.46.27-1.08.25-2.23-.04-3.31.9,1.52,2.4,2.71,4.09,3.27,2.41.8,5.09.45,7.41-.56l5.4-43.73c-1.66,3.32-3.32,6.64-4.98,9.96ZM696.51,695.25l-2.33,6.34,1.87-3.45c.21-.95.36-1.92.46-2.89ZM54.08,347.89l4.26-.42c-.29-.05-.58-.09-.87-.13l-.06.22c-.18-.09-.35-.19-.52-.29-2.17-.29-4.35-.48-6.54-.55-4.04-.12-7.75,1.81-7.89,2.33l5.75-.57c.92-.44,1.9-.73,2.92-.8.99-.07,1.97.05,2.95.22ZM696.89,580.96c-2.44-5.89,2.24-12.93-.13-18.84-.49-1.23-1.4-2.42-2.7-2.66-.72-.13-1.48.05-2.2-.08-1.11-.21-1.93-1.12-2.8-1.85-3.7-3.12-9.25-3.31-13.71-1.46-4.47,1.85-8,5.44-10.91,9.3l44.58,32.93c-1.16-2.72-2.02-5.62-3.79-7.99-2.51-3.37-6.72-5.47-8.34-9.35ZM176.15,488.13c1.36.8,2.96,1.07,4.53,1.25,2.42.27,4.86.34,7.29.2,1.38-.08,2.79-.24,4.02-.86,1.24-.63,2.2-1.7,3.13-2.74l-23.28-3.05c.1.17.19.34.29.51,1.05,1.8,2.23,3.63,4.02,4.69ZM104.31,392.05l5.66-31.59c2.8,2.86,5.64,5.79,7.36,9.4,2.2,4.63,2.38,10.01,4.53,14.67,1.83,3.95,5.02,7.19,8.72,9.48.81.5,1.69,1.01,2.17,1.84.91,1.61-.05,3.81.87,5.42.44.77,1.17,1.2,2.01,1.52.81-1.31,1.97-2.41,3.37-3.06.32,1.28,1.24,2.4,2.44,2.95,1.2.55,2.65.53,3.83-.06,1.02.86,1.68,2.15,1.78,3.48.07.86-.08,1.71-.14,2.57-.11,1.86,1.93,2.17,2.21,4.01.01.07,4.2,2.21,10.53,5.42-.2-3.71.3-7.31,4.83-7.03,5.11.32,10.45,1.11,15.17,3.17,4.46,1.94,8.54,5.14,13.39,5.54,1.21.1,2.49.03,3.56.6,1.07.57,1.74,2.12.92,3.02-.35.38-.87.55-1.37.7-3.29.96-6.62,1.75-9.99,2.35-1.02.18-2.06.35-3.1.26-2.07-.18-3.9-1.36-5.79-2.23-2.39-1.11-4.98-1.76-7.61-1.91-.42-.02-.84-.03-1.26-.04,6.33,3.2,13.54,6.85,20.53,10.4,1.53-2.8,3.46-5.33,5.99-7.32,4.42-3.48,10.39-4.92,15.91-3.82,1.77.35,3.49.95,5.25,1.34,1.44.32,2.34,1.04,3.35,1.59-7.73-11.25-14.58-23.1-20.43-35.44-.94-1.99-1.9-4.04-3.49-5.55-.44-.42-.95-.81-1.21-1.36-.66-1.38,1.02-3.18,2.44-2.61,1.27,2.57,2.62,5.09,4.04,7.58.18-1.25.71-2.48,1.42-3.53,1.23-1.81,2.94-3.24,4.42-4.85,5.12-5.57,7.38-13.02,8.93-20.26.05-.24.11-.74.18-1.35l-27.75-3.53c1.69,6.32,2.83,12.83,5.55,18.81.4.87,2.99,6.1.84,6.75-1.51.46-2.4-6.98-2.84-8.12-1.1-2.85-2.84-5.41-4.11-8.19-1.45-3.18-2.28-6.63-3.74-9.8l-18.39-2.34c.58-.8,1.23-1.59,2.11-2.03.87-.42,1.87-.46,2.83-.48,4.41-.1,8.85-.09,13.17-.95,2.38-.47,4.73-1.24,6.88-2.35v.02s0-.01,0-.02c1.76-.91,3.38-2.05,4.75-3.49,2.69,2.28,5.43,4.59,8.65,6.03,3.22,1.44,7.04,1.91,10.25.45-.91,1.61,0,3.74,1.44,4.88.32.25.66.47,1.01.66.09-.24.19-.41.3-.47,1.21-.62,1.43.35,1.45,1.24.76.27,1.54.51,2.3.77,2.85.97,5.53,2.39,8.2,3.79l-10.6-1.35c-.19,3.45-.67,7-1.73,10.24-2.67,8.22-8.58,14.91-14.47,21.27,2.37,4.02,4.93,7.92,7.68,11.69,1.73,2.37,3.54,4.69,5.01,7.23,2,3.45,3.34,7.24,4.67,11l-1.15-3.55c2.12,3.76,3.78,7.77,4.98,11.91l7.89-16.54c-1.67,6.07-1.51,13.04-4.68,18.56-1.04,1.8-2.4,3.4-3.64,5.07-2.32,3.13-4.21,6.56-5.62,10.19-2.74,7.05-3.71,14.92-8.09,21.09-1.6,2.25-3.61,4.21-5.04,6.57-1.16,1.92-1.9,4.07-2.97,6.05-1.51,2.79-3.64,5.19-5.76,7.55l18.04-37.84-7.32-3.84-30.19,35.65c-.66-3.14,1.35-6.16,2.15-9.27.75-2.92.42-6.03,1.12-8.96.58-2.4,1.82-4.57,2.75-6.85,1.09-2.68,1.73-5.51,2.42-8.31.97-3.94,2.12-7.98,3.83-11.66l-23.65-12.41c-.99-.05-1.98-.17-2.94-.43-.44-.12-.9-.29-1.18-.66-.26-.34-.3-.79-.34-1.21,0-.02,0-.03,0-.05l-20.34-10.67c-1.14.91-2.88,1-4,1.94-2.26,1.89-5.62,1.32-8.44.5-3.41-.99-6.76-2.19-10.02-3.6-2.9-1.25-5.87-2.8-7.52-5.49-1.5-2.46-1.66-5.51-2.84-8.15-.44-.99-1.07-1.95-2.02-2.48-.1-.06-.21-.11-.33-.15ZM207.46,442.39c2.56,1.32,4.85,2.51,6.76,3.51l8.12-17.04c-.52-.73-1.05-1.46-1.57-2.2l-13.31,15.72ZM267.64,446.49c.29-1.74.47-3.52,1.15-5.14,2.62-6.21,11.43-7.8,14.25-13.91l-168.74,132.57c51.85,5.51,54.12-2.06,60.68-2.24,2.47-.07,4.97-.14,7.35-.81,2.6-.73,4.95-2.16,7.5-3.05,2.73-.96,5.63-1.3,8.43-2.01,5.33-1.34,10.24-3.99,14.94-6.83,4.5-2.72,8.91-5.68,12.59-9.43,1.71-1.74,3.25-3.65,4.53-5.72,1.22-1.99,1.76-4.36,2.98-6.3,2.19-3.47,5.65-6.36,8.01-9.83,3.03-4.45,5.55-9.23,8.06-14,2.26-4.3,4.54-8.63,5.9-13.29,1.05-3.62,1.54-7.38,2.46-11.04,2.14-8.48,6.63-16.28,8.94-24.67,3.4,7.22,6.49,14.58,9.25,22.07.9,2.44,1.87,5.04,3.99,6.54,2.7,1.91,6.6,1.36,9.3-.54s4.44-4.9,5.8-7.92c3.18-7.04,7.82-28.65,13.33-34.07l-40.96,10.91c.09-.43.18-.85.25-1.28ZM715.37,611.45c-1.62-4.6-4.43-8.68-6.35-13.16l5.5,47.9c2.05-4.1,2.32-8.83,2.55-13.41.36-7.17.7-14.56-1.7-21.33ZM211.17,342.02l-2.71-.25c.74.62,1.88.76,2.71.25ZM734.84,625.26c1.58-4.95-.06-10.09-2.42-14.88l.24,20.19c.61-1.81,1.6-3.48,2.19-5.3ZM212.14,340.79c.69.04,1.37.08,2.01.11-.67-.09-1.34-.11-2.01-.11ZM202.9,341.27l5.56.51c-.16-.14-.31-.28-.42-.46,1.34-.35,2.72-.51,4.11-.51-3.07-.18-6.51-.37-9.24.47ZM189.88,392.66l-15.18-27.48c.46,8.96.14,17.95-.95,26.86,5.36.54,10.74.75,16.13.63ZM20.51,540.98c-4.41,3.47-10.26,4.41-15.85,4.91-1.53.14-3.35.13-4.23-1.13-.91-1.3-.21-3.1.68-4.41,2.65-3.86,6.9-6.63,8.64-10.98.84-2.09,1.02-4.37,1.19-6.61.42-5.43,1.18-10.76,1.71-16.17.55-5.57.84-11.18,1.6-16.73.55-4.07,1.59-8.06,2.61-12.04,2.7-10.42,5.41-20.89,9.67-30.78,1.32-3.06,2.8-6.1,3.33-9.39.47-2.89.19-5.84.08-8.76-.17-4.5.09-9.13,1.88-13.27,1.79-4.13,5.34-7.72,9.77-8.55l-1.27,68.46c0,.19,0,.38-.01.57,1.2-4.22,1.18-8.82,1.03-13.25-.1-2.81-.23-5.68.57-8.37,1.05-3.55,3.64-6.48,6.61-8.7.95-.71,1.95-1.37,2.8-2.2,1.03-1.02,1.79-2.27,2.58-3.48,1.7-2.6,3.58-5.08,5.46-7.55,1.45-1.91,2.99-3.86,4.79-5.43-6.14-5.78-12.28-11.57-18.42-17.35.54-.78.18-1.89-.42-2.62s-1.43-1.27-1.98-2.05c-1.17-1.64-.86-3.85-.94-5.86-.09-2.57-.89-5.06-1.53-7.56-2.65-10.32-2.7-21.3-.15-31.65.69-2.81,1.6-5.62,3.28-7.97,1.09-1.52,2.55-2.82,4.23-3.61l5.87-.58c.41.07.82.15,1.22.23,6.21,1.24,12.42,2.49,18.63,3.73-1.29-.43-2.55-.93-3.83-1.39-3.81-1.37-7.76-2.37-11.76-3l31.93-3.18c-.42,1.86-1.62,3.44-2.88,4.88-.82.94-1.69,1.86-2.74,2.53-1.47.93-3.21,1.29-4.96,1.28.83.13,1.67.21,2.5.17l-25.32,3.89c-.59,2.14.79,4.3.99,6.51.36,3.92-2.98,7.35-3.04,11.28-.06,3.93,3.16,7.43,2.79,11.34-.21,2.24-1.59,4.32-1.36,6.56.23,2.2,1.94,3.91,3.6,5.36,4.23,3.69,8.85,7.03,12.41,11.35,1.3-.49,2.7-.67,4.1-.59.7.04,5.25.72,5.28,1.51.06,1.48-1.53,2.72-1.28,4.19.06.36.23.7.39,1.05-1.68-1.35-2.85-2.2-3.21-2.27-.88-.16-2.05.08-2.18.96-.04.27,1.32,1.67,3.58,3.79-.49-.01-.97-.03-1.42.13-1.53.56-2.11,2.44-3.73,3.1-1.14.47-2.8.64-3.99.21-2.14-.77-2.88-3.07-2.74-5.17.05-.79.24-1.56.52-2.29-.75,1.2-1.3,2.54-1.63,3.91-.63,2.61-.57,5.32-.32,8.01.99-.68,2.06-1.23,3.23-1.58,2.24-.65,4.8-.57,6.66-1.99.94-.72,1.58-1.75,2.39-2.61.46-.48.99-.87,1.52-1.25,11.98,11.15,46.33,40.18,45.85,40.51.19-.11,2.82-1.2,2.61-1.38-4.54-4.03-33.93-31.12-45.65-40.85,1.41-.75,2.85-1.47,4.08-2.47,2.05-1.66,3.5-4.05,5.79-5.38,4.34-2.51,9.85-.3,14.05,2.43,5.81,3.77,11.09,8.58,17.63,10.87l-6.83,4.63c2.58.63,5.17,1.31,7.51,2.56,2.66,1.42,4.9,3.53,7.54,5,1.18.66,2.42,1.19,3.6,1.83,2.98,1.62,5.51,3.93,8.02,6.22,3.98,3.64,7.98,7.3,11.36,11.49,7.15,8.87,11.2,19.17,16.84,28.9l-89.26-11.69c3.19-8.64,4.54-17.97,8.02-26.43l-50.36,34.15c-.07,3.11-.13,6.23-.2,9.34-.06,2.73-.55,6.09-3.12,7.01-.67.24-1.33.25-1.99.13-.81.17-1.38.94-1.84,1.66-2.36,3.67-4.7,7.37-6.64,11.29-.95,1.93-1.86,3.93-2.53,5.98-.67,2.07-.72,4.44-1.09,6.63-.36,2.14-.73,4.29-1.09,6.43-.28,1.67-.92,3.35-.73,5.02.24,2.09.96,4.14.77,6.27-.04.44-.12.88-.34,1.27-.23.41-.59.72-.96,1.01ZM26.57,492.13c.48.01.96.06,1.44.13-.47-.11-.95-.17-1.44-.13ZM710.08,653.07c-2.94,4.8-4.21,10.42-6.31,15.64-1.75,4.34-4.09,8.43-6.94,12.14-.62.8-1.28,1.63-1.47,2.63-.19,1.04.16,2.09.44,3.11.78,2.81,1,5.76.71,8.66l18.01-49.06c-1.22,2.44-3.02,4.55-4.44,6.88ZM157.11,400.07l8.19-49.14c-5.17,7.15-6.68,16.27-7.47,25.05-.72,8-.96,16.05-.73,24.08ZM189.66,323.04c-1.19,1.71-.3,4.06-.57,6.13-.24,1.85-1.42,3.43-2.01,5.2s1.09,5.62,1.47,5.82c1.04.55,1.76,2.51,1.82,3.99l1.66-23.44c-.65.89-1.74,1.39-2.37,2.29ZM222.13,335.31c.87-2.86,1-5.88,1.14-8.86l-6.01,16.85c1.87-2.64,4.05-5.27,4.88-7.99ZM214.26,351.69l2.99-8.39c-1.94,2.74-3.56,5.49-2.99,8.39ZM187.99,404.14c.13.04.26.08.39.12l5.14.69c-1.82-.94-3.74-1.59-5.53-.81ZM203.19,406.25l-9.66-1.3c.73.38,1.45.8,2.13,1.19,2.38,1.37,5.83,2.26,7.54.1ZM166.83,409.48c4.62.41,9.43.2,13.68,2.05,1.97.86,4.01,2.18,6.09,1.64,2.2-.57,3.33-2.93,4.18-5.03.19-.46.37-.93.35-1.43-.06-1.32-1.45-2.04-2.76-2.45l-31.28-4.2c.05,1.82.15,3.71,1.05,5.29,1.64,2.9,5.36,3.82,8.68,4.12ZM215.24,313.88l-1.9-1.91c.59.68,1.23,1.31,1.9,1.91ZM195.39,320.51c4.54,2.19,9.34,4,14.35,4.52,4.42.46,9.04-.15,12.96-2.2l.57,3.62c.06-1.33.11-2.67.09-4,.3-.17.6-.33.89-.52,1.54-1.01,3.06-2.83,2.29-4.5-.5-1.08-1.78-1.57-2.97-1.66-.49-.04-.95,0-1.38.05-.37-1-.78-2-1.05-3.03l.49,3.14c-.79.19-1.51.52-2.2.97-.57-.38-1.15-.74-1.72-1.11-.87-.57-1.69-1.21-2.46-1.9l3.49,3.51c-.28.22-.55.44-.83.69-1.8,1.61-2.92,1.61-5.48,1.52-4.72-.16-9.42-.98-13.92-2.42l14.2-7.82,8.43,3.42c-.28-1.08-.46-2.29-1.29-3.04-.59-.53-1.4-.73-2.17-.91-2.68-.62-5.37-1.25-8.05-1.87-1.62-.38-3.25-.75-4.9-.85l7.34,2.98c-4.47.04-8.84,1.34-13.1,2.86l5.76-5.85c-6.61-.4-13.2,4.14-15.17,10.45-.49,1.57-.69,3.37.14,4.79l3.15-3.19c-.1.93-.26,1.84-.8,2.57l1.94-1.07c.44.32.93.59,1.43.82ZM190.37,344.19l-.07.94s0,0,0,0c.06-.27.08-.59.07-.94ZM235.75,379.64c-.4.29-.54.83-.65,1.31-.75,3.39-1.5,6.78-2.25,10.16-.26,1.17-.52,2.35-.46,3.54.18,3.9,3.52,6.8,6.59,9.21l4.94-8.1c-1.74-1.12-2.61-3.21-3.01-5.24s-.45-4.14-1.08-6.11c-.35-1.1-.88-2.15-1.4-3.18-.25-.5-.53-1.01-.95-1.37-.82-5.62-2.82-11.02-4.82-16.35-.35-.94-.72-1.91-1.38-2.67-.71-.83-1.69-1.35-2.66-1.86l8.25,20.54c-.39-.13-.81-.12-1.13.11ZM692.3,706.73l1.89-5.14-3.68,6.79c-.45,4.36,1.62,8.71,4.69,11.85s7.06,5.2,11.11,6.9c1.15.48,2.45.94,3.6.45.77-.33,1.31-1.03,1.95-1.58,2.59-2.27,5.47-4.22,8.57-5.72,2.89-7.05-.86-9.44-2.46-15.1-1.04-3.7-2.28-7.45-2.1-11.29.13-2.89,1.06-5.67,1.98-8.41,3.53-10.52,7.05-21.05,10.58-31.57,1.31-3.92,2.64-7.88,3.05-12,.38-3.79-.01-7.71,1.2-11.32l-36.6,67.57c-.68,3.07-1.94,6.02-3.76,8.59ZM230.91,410.9l3.2-6.71c-1.58,1.99-2.53,4.28-3.2,6.71ZM717.36,536.72c4.17.72,8.45,1.41,12.64,1.13-1.51,4.09-3.55,8.07-3.25,12.36.12,1.65.58,3.26.62,4.92.03,1.12-.14,2.24-.13,3.36.03,2.63,1.05,5.13,1.68,7.68.86,3.52.98,7.17,1.08,10.79.1,3.24.19,6.53-.68,9.65-.46,1.65-1.18,3.23-1.46,4.92-.32,1.99,0,4.02.44,5.98.64,2.83.25,5.87,1.69,8.38.83,1.44,1.66,2.94,2.42,4.48l-.85-72.69c.81-.1,1.61-.24,2.41-.43,10.46-2.52,17.2-12.34,25.74-18.88,2.95-2.27,6.18-4.17,9.05-6.54l-68.11,20.04c5.12,2.78,10.97,3.85,16.71,4.84Z"/>
        <g>
          <path class="cls-1" d="M939.84,736.27c-11.45-199.23-29.41-508.51-43.38-705.36l-13.29-4.02c-17.4,12.31-28.11,28.7-29.28,30.47-2.68-6.23-8.23-23.09-21.64-38.2,0,0-9.87-.06-9.87-.06-7.28,8.26-16.9,17.22-21.96,27.05-9.5-18.88-20.37-31.43-27.04-38.05,0,0-9.94.02-9.94.02-9.05,9.54-17.95,19.74-23.74,31.42-1.35-2.25-14.64-24.42-32.4-39.53h-8.59c-14.25,11.97-24.51,27.35-29.09,35.44-5.9-12.88-14.96-24.27-24.79-34.61l-8.55.29c-13.16,14.56-23.09,28.37-28.82,39.16-6.88-13.36-15.48-25.1-26.99-35.07l-6.72.11c-12.29,11.73-22.39,32.82-25.85,41.63-6.79-12.63-18-23.01-28.85-32.14,0,0-6.15.24-6.15.24-10.91,11.6-18.42,26.53-22.24,42.13-1.5-2.05-15.39-19.34-36.25-32.98l-6.17,3.42-9.43,230.63,4.41.22,12.87-222.82c22.23,17.65,30.08,28.74,31.88,37.66,0,0,9.41-.19,9.41-.19,1.48-20.55,14.04-41.03,19.09-47.08,11.7,10.44,24.13,23.82,26.39,39.24l11.81-.24c1.1-13.62,14.34-36.44,22.66-46.3,10.55,11.01,20.8,25.54,23,40.13,0,0,14.28-.28,14.28-.29,3.08-15.23,15.24-29.48,26.13-41.88,9.74,11.58,18.64,25.79,20.64,40.25,0,0,16.03-.32,16.03-.32,2.52-14.53,14.26-28.9,25.52-39.79,4.72,4.83,27.97,31.51,28.66,44.83,0,0,17.8.62,17.79.62,2.35-12.54,10.1-25.25,18.92-35.36,10.51,12.43,20.27,27.58,22.89,41.83l18.76,1.74c1.1-12.07,9.92-22.56,17.1-31.66,6.44,8.95,16.5,25.24,15.92,38.31,0,0,19.53,2.13,19.53,2.13,3.36-10.2,10.38-22.11,19.19-30.46,13.24,222.09,35.34,466.51,53.73,687.72,0,0,4.41-.32,4.41-.32Z"/>
          <polygon class="cls-1" points="777.62 219.06 771.35 225.2 785.8 225.2 785.8 172.84 774.06 170.56 777.62 219.06"/>
          <polygon class="cls-1" points="659.92 205.84 654.99 221.08 669.44 221.08 669.44 168.72 661.47 171.23 659.92 205.84"/>
          <polygon class="cls-1" points="554.33 168.72 554.28 221.08 563.7 221.08 565.28 167.08 561.68 178.42 554.33 168.72"/>
        </g>
      </g>
      <g>
        <g>
          <path class="cls-1" d="M42.71,964.85h-23.66l-5.13,15.74,6.78,1.74v2.7H0v-2.79l6.78-2,18.01-54.02c.69-2.03,1.54-3.36,2.52-4,.99-.64,2.41-.96,4.27-.96,1.1,0,2,.09,2.69.26.7.17,1.31.5,1.83.96.52.46.98,1.11,1.39,1.96.4.84.84,1.93,1.31,3.26l18.53,52.54,6.78,2.09v2.7h-23.14v-2.7l6.96-1.74-5.22-15.74ZM20.96,958.93h19.74l-9.92-30.09-9.83,30.09Z"/>
          <path class="cls-1" d="M66.36,924.4v-2.17l13.31-2.87h1.48v60.97l6.7,2v2.7h-21.57v-2.61l6.78-2v-54.54l-6.7-1.48Z"/>
          <path class="cls-1" d="M156.39,922.32l13.66,56.45,12.7-52.02-6.61-1.65v-2.78h20.7v2.78l-6.78,2-13.22,51.32c-.35,1.45-.69,2.65-1.04,3.61-.35.96-.77,1.74-1.26,2.35-.49.61-1.13,1.04-1.91,1.3-.79.26-1.81.39-3.09.39-2.14,0-3.71-.42-4.69-1.26-.99-.84-1.74-2.42-2.26-4.74l-9.66-37.14-11.05,37.14c-.52,2.38-1.28,3.98-2.26,4.78-.99.81-2.55,1.22-4.7,1.22-1.27,0-2.31-.13-3.09-.39-.78-.26-1.42-.69-1.91-1.3-.5-.61-.92-1.39-1.26-2.35-.35-.96-.7-2.16-1.04-3.61l-13.22-51.32-6.78-2v-2.78h22.79v2.78l-6.7,1.65,11.74,52.02,14.26-48.36-2.09-8.09h8.78Z"/>
          <path class="cls-1" d="M220.5,981.81c-.47.29-1.08.69-1.83,1.22-.75.52-1.68,1.03-2.78,1.52-1.1.49-2.34.92-3.7,1.26-1.36.35-2.83.52-4.39.52-1.74,0-3.44-.23-5.09-.7-1.65-.46-3.13-1.21-4.44-2.26-1.31-1.04-2.35-2.43-3.13-4.17-.78-1.74-1.17-3.88-1.17-6.44,0-4,1.31-7.28,3.92-9.83,2.61-2.55,6.64-3.94,12.09-4.18l9.65-.35v-2.35c0-1.97-.13-3.64-.39-5-.26-1.36-.73-2.46-1.39-3.31-.67-.84-1.54-1.44-2.61-1.78-1.07-.35-2.39-.52-3.96-.52-2.21,0-4.03.28-5.48.83-1.45.56-2.41,1-2.87,1.35l-1.56,6.35h-3.39l-1.48-10.18c1.51-.81,3.61-1.62,6.3-2.44,2.7-.81,5.78-1.22,9.26-1.22s6.41.46,8.44,1.39c2.03.93,3.55,2.17,4.57,3.74,1.01,1.57,1.63,3.41,1.87,5.52.23,2.12.35,4.4.35,6.83v22.53l6.78,1.48v2.79l-11.48,1.65-2.09-4.26ZM201.97,972.41c0,1.74.26,3.13.78,4.17.52,1.05,1.16,1.87,1.92,2.48.75.61,1.56,1.02,2.43,1.22.87.21,1.62.31,2.26.31,2.03,0,3.96-.45,5.78-1.35,1.83-.9,3.32-1.9,4.48-3v-12.96l-8.61.35c-3.42.12-5.78.94-7.09,2.48-1.31,1.54-1.96,3.64-1.96,6.3Z"/>
          <path class="cls-1" d="M252.24,982.68c0,2.44-.14,4.64-.43,6.61-.29,1.97-.84,3.77-1.65,5.39-.69,1.33-1.49,2.55-2.39,3.65-.9,1.1-1.83,2.08-2.78,2.92-.96.84-1.92,1.58-2.87,2.22-.96.63-1.81,1.16-2.56,1.56l-2.26-3.04c.75-.58,1.54-1.29,2.35-2.13.81-.84,1.55-1.87,2.22-3.09.66-1.22,1.21-2.64,1.65-4.27.44-1.62.65-3.56.65-5.82v-40.01l-6.7-1.48v-2.17l12.88-2.78h1.91v42.45ZM241.63,925.88c0-2.03.52-3.56,1.56-4.57,1.04-1.02,2.41-1.52,4.09-1.52s3.04.51,4.09,1.52c1.04,1.01,1.57,2.54,1.57,4.57s-.52,3.55-1.57,4.56c-1.04,1.02-2.41,1.52-4.09,1.52s-3.05-.51-4.09-1.52c-1.04-1.01-1.56-2.54-1.56-4.56Z"/>
          <path class="cls-1" d="M274.6,944.23c1.68-1.27,3.46-2.27,5.35-3,1.88-.73,4.04-1.09,6.48-1.09,3.07,0,5.67.51,7.78,1.52,2.12,1.01,3.84,2.46,5.18,4.35,1.33,1.88,2.31,4.16,2.91,6.83.61,2.67.91,5.65.91,8.96,0,3.59-.4,6.88-1.22,9.87-.81,2.99-2.09,5.57-3.82,7.74-1.74,2.17-3.96,3.87-6.65,5.09-2.7,1.22-5.9,1.83-9.61,1.83s-6.83-.32-9.35-.96c-2.52-.64-4.54-1.33-6.04-2.09v-57.41l-6.7-1.48v-2.17l13.31-2.87h1.48v24.88ZM274.6,979.64c.52.17,1.1.35,1.74.52.58.12,1.31.23,2.17.35.87.12,1.88.17,3.04.17,8.76,0,13.14-6.03,13.14-18.09,0-5.45-.68-9.6-2.04-12.44-1.36-2.84-3.79-4.26-7.26-4.26-1.97,0-3.88.42-5.74,1.26-1.86.84-3.54,1.93-5.04,3.26v29.23Z"/>
          <path class="cls-1" d="M338.1,981.81c-.47.29-1.08.69-1.83,1.22-.75.52-1.68,1.03-2.78,1.52-1.1.49-2.34.92-3.7,1.26-1.36.35-2.83.52-4.39.52-1.74,0-3.44-.23-5.09-.7-1.65-.46-3.13-1.21-4.44-2.26-1.31-1.04-2.35-2.43-3.13-4.17-.78-1.74-1.17-3.88-1.17-6.44,0-4,1.31-7.28,3.92-9.83,2.61-2.55,6.64-3.94,12.09-4.18l9.65-.35v-2.35c0-1.97-.13-3.64-.39-5-.26-1.36-.73-2.46-1.39-3.31-.67-.84-1.54-1.44-2.61-1.78-1.07-.35-2.39-.52-3.96-.52-2.21,0-4.03.28-5.48.83-1.45.56-2.41,1-2.87,1.35l-1.56,6.35h-3.39l-1.48-10.18c1.51-.81,3.61-1.62,6.3-2.44,2.7-.81,5.78-1.22,9.26-1.22s6.41.46,8.44,1.39c2.03.93,3.55,2.17,4.57,3.74,1.01,1.57,1.63,3.41,1.87,5.52.23,2.12.35,4.4.35,6.83v22.53l6.78,1.48v2.79l-11.48,1.65-2.09-4.26ZM319.57,972.41c0,1.74.26,3.13.78,4.17.52,1.05,1.16,1.87,1.92,2.48.75.61,1.56,1.02,2.43,1.22.87.21,1.62.31,2.26.31,2.03,0,3.96-.45,5.78-1.35,1.83-.9,3.32-1.9,4.48-3v-12.96l-8.61.35c-3.42.12-5.78.94-7.09,2.48-1.31,1.54-1.96,3.64-1.96,6.3Z"/>
          <path class="cls-1" d="M423.43,977.64c-.64.64-1.54,1.45-2.7,2.43-1.16.99-2.59,1.94-4.3,2.87-1.71.93-3.68,1.73-5.92,2.39-2.23.67-4.71,1-7.44,1-8.99,0-15.66-2.79-20-8.35-4.35-5.57-6.52-13.66-6.52-24.27,0-4.99.56-9.49,1.69-13.53,1.13-4.03,2.84-7.45,5.13-10.26,2.29-2.81,5.19-4.99,8.7-6.52,3.51-1.54,7.61-2.31,12.31-2.31,3.65,0,6.84.46,9.57,1.39,2.73.93,5.22,2.2,7.48,3.82l-1.22,14.35h-4.09l-1.65-10.35c-.75-.64-2.06-1.32-3.92-2.05-1.86-.72-4.03-1.09-6.52-1.09-5.97,0-10.49,2.21-13.57,6.61-3.07,4.4-4.61,11.05-4.61,19.92s1.58,15.43,4.74,19.66c3.16,4.23,7.73,6.35,13.7,6.35,2.14,0,4.1-.31,5.87-.91,1.77-.61,3.29-1.31,4.57-2.09,1.27-.78,2.31-1.55,3.09-2.31.78-.75,1.29-1.25,1.52-1.48l4.09,4.7Z"/>
          <path class="cls-1" d="M457.09,981.81c-.47.29-1.08.69-1.83,1.22-.75.52-1.68,1.03-2.78,1.52-1.1.49-2.34.92-3.7,1.26-1.36.35-2.83.52-4.39.52-1.74,0-3.44-.23-5.09-.7-1.65-.46-3.13-1.21-4.44-2.26-1.31-1.04-2.35-2.43-3.13-4.17-.78-1.74-1.17-3.88-1.17-6.44,0-4,1.31-7.28,3.92-9.83,2.61-2.55,6.64-3.94,12.09-4.18l9.65-.35v-2.35c0-1.97-.13-3.64-.39-5-.26-1.36-.73-2.46-1.39-3.31-.67-.84-1.54-1.44-2.61-1.78-1.07-.35-2.39-.52-3.96-.52-2.21,0-4.03.28-5.48.83-1.45.56-2.41,1-2.87,1.35l-1.56,6.35h-3.39l-1.48-10.18c1.51-.81,3.61-1.62,6.3-2.44,2.7-.81,5.78-1.22,9.26-1.22s6.41.46,8.44,1.39c2.03.93,3.55,2.17,4.57,3.74,1.01,1.57,1.63,3.41,1.87,5.52.23,2.12.35,4.4.35,6.83v22.53l6.78,1.48v2.79l-11.48,1.65-2.09-4.26ZM438.56,972.41c0,1.74.26,3.13.78,4.17.52,1.05,1.16,1.87,1.92,2.48.75.61,1.56,1.02,2.43,1.22.87.21,1.62.31,2.26.31,2.03,0,3.96-.45,5.78-1.35,1.83-.9,3.32-1.9,4.48-3v-12.96l-8.61.35c-3.42.12-5.78.94-7.09,2.48-1.31,1.54-1.96,3.64-1.96,6.3Z"/>
          <path class="cls-1" d="M514.24,980.33l6.7,2v2.7h-14.79v-28.44c0-1.33-.03-2.59-.09-3.78-.06-1.19-.29-2.25-.69-3.18-.41-.92-1.04-1.65-1.92-2.17-.87-.52-2.11-.78-3.74-.78-1.16,0-2.29.19-3.39.57-1.1.38-2.15.83-3.13,1.35-.98.52-1.87,1.04-2.65,1.57-.78.52-1.41.96-1.87,1.31v28.88l6.7,2v2.7h-21.48v-2.7l6.7-2v-33.66l-6.7-1.48v-2.17l13.31-2.87.96,6.17c.69-.58,1.57-1.23,2.61-1.96,1.04-.72,2.19-1.39,3.44-2,1.25-.61,2.61-1.13,4.09-1.57,1.48-.43,3-.65,4.57-.65,2.9,0,5.13.56,6.7,1.69,1.57,1.13,2.73,2.71,3.48,4.74.52-.46,1.25-1.06,2.17-1.78.93-.73,2.04-1.44,3.35-2.13,1.31-.7,2.77-1.29,4.39-1.79,1.62-.49,3.36-.74,5.22-.74,2.67,0,4.79.45,6.35,1.35,1.56.9,2.74,2.03,3.52,3.39.78,1.36,1.27,2.88,1.48,4.57.2,1.68.31,3.31.31,4.87v26.01l6.7,2v2.7h-14.79v-28.88c0-1.22-.04-2.39-.13-3.52-.09-1.13-.33-2.15-.74-3.05-.4-.9-1.04-1.61-1.91-2.13-.87-.52-2.12-.78-3.74-.78-1.16,0-2.31.2-3.44.61-1.13.4-2.21.88-3.22,1.43-1.02.55-1.9,1.1-2.65,1.65-.75.55-1.33,1-1.74,1.35.06.69.09,1.59.09,2.69v25.92Z"/>
          <path class="cls-1" d="M551.47,963.28c0-4.06.46-7.55,1.39-10.48.93-2.93,2.23-5.32,3.92-7.18,1.68-1.86,3.68-3.23,6-4.13,2.32-.9,4.87-1.35,7.66-1.35,5.97,0,10.31,1.75,13,5.26,2.7,3.51,4.05,8.25,4.05,14.22v4.78h-27.75c.06,3.02.39,5.57,1,7.66.61,2.09,1.45,3.78,2.52,5.09,1.07,1.31,2.36,2.26,3.87,2.87,1.5.61,3.22.92,5.13.92,1.39,0,2.71-.15,3.96-.44,1.25-.29,2.39-.64,3.43-1.04,1.05-.4,1.96-.84,2.74-1.31.78-.46,1.44-.84,1.96-1.13l2.61,4.44c-.46.35-1.13.8-2,1.35-.87.55-1.93,1.09-3.17,1.61-1.25.52-2.71.97-4.4,1.35-1.68.38-3.56.57-5.65.57-3.02,0-5.77-.42-8.26-1.26-2.5-.84-4.63-2.19-6.39-4.04-1.77-1.86-3.15-4.25-4.13-7.18-.98-2.93-1.48-6.45-1.48-10.57ZM570.43,945.36c-2.09,0-3.81.44-5.18,1.31-1.36.87-2.45,1.97-3.26,3.31-.81,1.34-1.38,2.81-1.69,4.44-.32,1.63-.48,3.22-.48,4.78h19.75c0-1.68-.13-3.35-.39-5-.26-1.65-.74-3.13-1.44-4.44-.69-1.31-1.64-2.36-2.82-3.17-1.19-.81-2.68-1.22-4.48-1.22Z"/>
          <path class="cls-1" d="M593.21,924.4v-2.17l13.31-2.87h1.48v60.97l6.7,2v2.7h-21.57v-2.61l6.78-2v-54.54l-6.7-1.48Z"/>
          <path class="cls-1" d="M644.97,927.27l-7.48-2.17v-2.78h44.18v15.92h-4.26l-2.17-10.18h-21.48v22h22.53v5.92h-22.53v23.92l10.96,2.34v2.79h-27.22v-2.79l7.48-2.17v-52.8Z"/>
          <path class="cls-1" d="M684.55,963.28c0-4.06.46-7.55,1.39-10.48.93-2.93,2.23-5.32,3.92-7.18,1.68-1.86,3.68-3.23,6-4.13,2.32-.9,4.87-1.35,7.66-1.35,5.97,0,10.31,1.75,13,5.26,2.7,3.51,4.05,8.25,4.05,14.22v4.78h-27.75c.06,3.02.39,5.57,1,7.66.61,2.09,1.45,3.78,2.52,5.09,1.07,1.31,2.36,2.26,3.87,2.87,1.5.61,3.22.92,5.13.92,1.39,0,2.71-.15,3.96-.44,1.25-.29,2.39-.64,3.43-1.04,1.05-.4,1.96-.84,2.74-1.31.78-.46,1.44-.84,1.96-1.13l2.61,4.44c-.46.35-1.13.8-2,1.35s-1.93,1.09-3.17,1.61c-1.25.52-2.71.97-4.4,1.35-1.68.38-3.56.57-5.65.57-3.02,0-5.77-.42-8.26-1.26-2.5-.84-4.63-2.19-6.39-4.04-1.77-1.86-3.15-4.25-4.13-7.18-.98-2.93-1.48-6.45-1.48-10.57ZM703.51,945.36c-2.09,0-3.81.44-5.18,1.31-1.36.87-2.45,1.97-3.26,3.31-.81,1.34-1.38,2.81-1.69,4.44-.32,1.63-.48,3.22-.48,4.78h19.75c0-1.68-.13-3.35-.39-5-.26-1.65-.74-3.13-1.44-4.44-.69-1.31-1.64-2.36-2.82-3.17-1.19-.81-2.68-1.22-4.48-1.22Z"/>
          <path class="cls-1" d="M746.48,959.63c1.92.64,3.71,1.3,5.4,2,1.68.69,3.13,1.54,4.35,2.52,1.22.98,2.19,2.16,2.91,3.52.73,1.36,1.09,3.06,1.09,5.09,0,2.44-.45,4.51-1.35,6.22-.9,1.71-2.11,3.12-3.65,4.22-1.54,1.1-3.31,1.9-5.31,2.39-2,.49-4.07.74-6.22.74-2.38,0-4.5-.16-6.35-.48-1.86-.32-3.42-.71-4.7-1.17-1.51-.46-2.81-1.01-3.92-1.65l1.31-11.31h3.31l1.74,6.87c.63.46,1.39.87,2.26,1.22.75.29,1.65.55,2.69.78,1.04.23,2.29.35,3.74.35,2.44,0,4.52-.52,6.26-1.57,1.74-1.04,2.61-2.84,2.61-5.39,0-1.27-.25-2.33-.74-3.17-.5-.84-1.16-1.54-2-2.09-.84-.55-1.8-1.03-2.87-1.43-1.08-.4-2.22-.81-3.44-1.22-1.8-.58-3.54-1.17-5.22-1.79-1.68-.61-3.19-1.39-4.52-2.34-1.34-.96-2.41-2.13-3.22-3.52-.81-1.39-1.22-3.16-1.22-5.31,0-2.26.45-4.2,1.35-5.82.9-1.62,2.09-2.97,3.57-4.05,1.48-1.07,3.19-1.85,5.13-2.35,1.94-.49,3.98-.74,6.13-.74,1.74,0,3.38.16,4.92.48,1.54.32,2.88.65,4.04,1,1.33.46,2.55.96,3.65,1.48l-1.48,10.96h-3.31l-1.74-7.13c-.52-.29-1.1-.55-1.74-.78-.58-.23-1.27-.44-2.09-.61-.81-.17-1.71-.26-2.69-.26-1.04,0-2.08.13-3.09.39-1.02.26-1.91.65-2.69,1.17-.79.52-1.42,1.19-1.92,2-.49.81-.74,1.77-.74,2.87,0,1.22.27,2.25.83,3.09.55.84,1.28,1.54,2.17,2.09.9.55,1.93,1.04,3.09,1.48,1.16.43,2.38.85,3.65,1.26Z"/>
          <path class="cls-1" d="M773.62,946.76h-8.35v-4l8.96-1.48v-12.18h7.48v12.35h13.31v5.3h-13.31v26.18c0,3.02.52,5.09,1.56,6.22,1.04,1.13,2.64,1.7,4.79,1.7,1.8,0,3.26-.22,4.39-.65,1.13-.43,1.93-.77,2.39-1l1.83,4.61c-.29.17-.77.41-1.43.69-.67.29-1.47.57-2.39.83-.93.26-1.94.49-3.05.69-1.1.2-2.2.31-3.31.31-8.58,0-12.87-3.88-12.87-11.66v-27.92Z"/>
          <path class="cls-1" d="M814.5,980.33l6.7,2v2.7h-21.48v-2.7l6.7-2v-33.66l-6.7-1.48v-2.17l12.88-2.78h1.91v40.1ZM803.89,925.88c0-2.03.52-3.56,1.56-4.57,1.04-1.02,2.41-1.52,4.09-1.52s3.04.51,4.09,1.52c1.04,1.01,1.57,2.54,1.57,4.57s-.52,3.55-1.57,4.56c-1.04,1.02-2.41,1.52-4.09,1.52s-3.05-.51-4.09-1.52c-1.04-1.01-1.56-2.54-1.56-4.56Z"/>
          <path class="cls-1" d="M870.69,941.45v2.61l-6,2.09-12.79,35.57c-.52,1.45-1.16,2.52-1.91,3.22-.75.69-2.06,1.04-3.92,1.04-2.03,0-3.46-.45-4.3-1.35-.84-.9-1.64-2.36-2.39-4.39l-12.53-34.09-6.09-2.09v-2.61h20.96v2.61l-5.92,1.83,11.13,33.23,11.22-33.23-5.82-1.83v-2.61h18.35Z"/>
          <path class="cls-1" d="M901.31,981.81c-.47.29-1.08.69-1.83,1.22-.75.52-1.68,1.03-2.78,1.52-1.1.49-2.34.92-3.7,1.26-1.36.35-2.83.52-4.39.52-1.74,0-3.44-.23-5.09-.7-1.65-.46-3.13-1.21-4.44-2.26-1.31-1.04-2.35-2.43-3.13-4.17-.78-1.74-1.17-3.88-1.17-6.44,0-4,1.31-7.28,3.92-9.83,2.61-2.55,6.64-3.94,12.09-4.18l9.65-.35v-2.35c0-1.97-.13-3.64-.39-5-.26-1.36-.73-2.46-1.39-3.31s-1.54-1.44-2.61-1.78c-1.07-.35-2.39-.52-3.96-.52-2.21,0-4.03.28-5.48.83-1.45.56-2.41,1-2.87,1.35l-1.56,6.35h-3.39l-1.48-10.18c1.51-.81,3.61-1.62,6.3-2.44,2.7-.81,5.78-1.22,9.26-1.22s6.41.46,8.44,1.39c2.03.93,3.55,2.17,4.57,3.74,1.01,1.57,1.63,3.41,1.87,5.52.23,2.12.35,4.4.35,6.83v22.53l6.78,1.48v2.79l-11.48,1.65-2.09-4.26ZM882.78,972.41c0,1.74.26,3.13.78,4.17.52,1.05,1.16,1.87,1.92,2.48.75.61,1.56,1.02,2.43,1.22.87.21,1.62.31,2.26.31,2.03,0,3.96-.45,5.78-1.35,1.83-.9,3.32-1.9,4.48-3v-12.96l-8.61.35c-3.42.12-5.78.94-7.09,2.48-1.31,1.54-1.96,3.64-1.96,6.3Z"/>
          <path class="cls-1" d="M918.35,924.4v-2.17l13.31-2.87h1.48v60.97l6.7,2v2.7h-21.57v-2.61l6.78-2v-54.54l-6.7-1.48Z"/>
        </g>
        <g>
          <path class="cls-1" d="M182.16,844.07c6.36-3.35,9.55-7.57,9.55-12.68s-.93-9.17-2.79-12.89c-.79-1.58-2-2.37-3.62-2.37-1.12,0-2.13.4-3.03,1.18-.91.79-1.35,1.77-1.35,2.93,0,.65.18,1.32.56,2.02,1.25,2.51,1.88,5.55,1.88,9.13,0,2.27-2.41,4.34-7.24,6.2-4.04,1.58-7.46,2.37-10.24,2.37-.03,0-.04,0-.07.01-.03,0-.04-.01-.07-.01-3.39,0-5.29-.76-5.71-2.3-.15-.54-.35-1.01-.6-1.41-.72-8.62-2.16-23.87-4.35-45.82-.28-2.51-1.65-3.76-4.11-3.76-3.11,0-4.53,1.53-4.25,4.6,3.25,32.37,4.88,49.99,4.88,52.87,0,9.34-4.99,16.56-14.98,21.67-7.45,3.8-16.62,7.03-27.31,9.74,3.01-8.7,4.54-15.91,4.54-21.58,0-7.94-4.64-13.63-13.93-17.07-6.27-2.32-14.14-3.49-23.61-3.49-15.56,0-29.84,1.42-42.84,4.25C11.15,842.54,0,850.71,0,862.19c0,10.4,10.08,17.97,30.23,22.71,12.68,2.92,26.4,4.39,41.17,4.39,8.07,0,17.07-.95,26.95-2.79-1.64,5.08-3.56,10.59-5.77,16.58-1.21,2.97-1.81,5.18-1.81,6.62,0,.93.23,1.39.7,1.39,1.16,0,2.81-2.07,4.94-6.2,3.68-7.23,6.71-13.81,9.23-19.87.32-.07.62-.12.95-.19,13.56-3.11,24.84-6.96,33.85-11.56,11.81-6.07,18.2-14.67,19.28-25.72,1.74.5,3.72.79,6,.79.03,0,.04,0,.07-.01.03,0,.04.01.07.01,5.52,0,10.96-1.41,16.3-4.25ZM71.4,880.92c-10.77,0-22.36-1.14-34.76-3.41-18.86-3.48-28.28-8.59-28.28-15.32,0-7.57,10.08-13.19,30.23-16.86,12.82-2.37,25.38-3.55,37.69-3.55,19.46,0,29.19,4.06,29.19,12.19,0,5.49-1.49,13.36-4.37,23.48-10.94,2.28-20.88,3.48-29.69,3.48Z"/>
          <path class="cls-1" d="M165.73,874.76c-1.44,0-2.58.68-3.41,2.02l-2.37,3.83c-.47.79-.7,1.56-.7,2.3,0,1.16.44,2.14,1.32,2.96.88.81,1.9,1.22,3.06,1.22,1.44,0,2.58-.68,3.41-2.02l2.37-3.83c.47-.79.7-1.56.7-2.3,0-1.16-.44-2.15-1.32-2.96-.88-.82-1.9-1.22-3.06-1.22Z"/>
          <path class="cls-1" d="M235.47,869.45c.79-.65,1.18-1.35,1.18-2.09,0-1.44-.86-2.16-2.58-2.16-.6,0-1.18.16-1.74.49-1.67,1.02-3.2,2.41-4.6,4.18-1.62,2.04-2.44,3.88-2.44,5.5,0,2,1.69,3.41,5.08,4.25-.84,2.28-3.25,4.14-7.25,5.58-1.25.46-1.88,1.27-1.88,2.44,0,1.44.76,2.16,2.3,2.16,2.74,0,5.56-1.17,8.46-3.52,2.9-2.35,4.35-4.86,4.35-7.56,0-1.44-.56-2.46-1.67-3.06-.33-.18-1.49-.56-3.49-1.12.65-1.67,2.07-3.37,4.25-5.08Z"/>
          <path class="cls-1" d="M220.6,839.57c1.02,4.92,2.25,7.38,3.69,7.38,1.76,0,2.64-2.97,2.64-8.92,0-1.12-.05-2.3-.14-3.55-.42-5.02-1.58-10.75-3.48-17.21-.61-2.05-1.77-3.07-3.49-3.07-2.83,0-4.25,1.74-4.25,5.23,0,.79.14,1.63.42,2.51,2.23,7.71,3.76,13.58,4.6,17.62Z"/>
          <path class="cls-1" d="M285.24,796.31c-.19-1.95-1.12-2.92-2.79-2.92-1.3,0-2.53.6-3.69,1.81-1.02,1.07-1.53,2.32-1.53,3.76v.56c1.48,18.53,2.67,32.21,3.55,41.03.05.56.07,1.07.07,1.53,0,1.58-.19,2.71-.56,3.41-.51.88-1.83,1.77-3.97,2.65-3.41,1.39-6.59,2.11-9.58,2.24-2.27-.13-3.7-1.06-4.22-2.87-1.3-8.87-2.04-15.79-2.23-20.76-1.12-12.63-3.51-18.95-7.18-18.95-1.85,0-3.88,2.83-6.06,8.5-3.3,8.55-6.04,14.58-8.22,18.11-4.69,7.57-10.75,13.17-18.18,16.79-7.76,3.76-19.27,6.99-34.55,9.68-3.58.65-5.37,1.67-5.37,3.07,0,1.81,2.53,2.72,7.59,2.72,8.45,0,17.04-1.26,25.78-3.76,10.49-3.06,18.9-8.1,25.21-15.12,5.2-5.8,9.36-13.46,12.47-22.99,1.3,13.7,2.16,21.99,2.58,24.87.87,5.43,4.41,8.42,10.57,9,.29.04.53.12.85.12.2,0,.43-.04.64-.04.28,0,.53.04.83.04.51,0,.93-.1,1.35-.19,3.22-.39,7.03-1.41,11.47-3.08,6.08-2.27,9.13-6.29,9.13-12.05,0-.98-.05-2.02-.14-3.14-.6-5.76-1.88-20.43-3.83-44.03Z"/>
          <path class="cls-1" d="M364.39,811.08c5.48,0,10.17-.84,14.07-2.51,1.72-.7,2.58-1.93,2.58-3.69,0-2.93-1.35-4.39-4.04-4.39-.6,0-1.21.14-1.81.41-5.06,2.14-9.03,3.41-11.91,3.83-4.23.65-6.34,1.72-6.34,3.2,0,2.09,2.48,3.14,7.45,3.14Z"/>
          <path class="cls-1" d="M436.46,877.5c-1.44,0-2.58.68-3.41,2.02l-2.37,3.83c-.46.79-.7,1.56-.7,2.3,0,1.16.44,2.14,1.32,2.96.88.81,1.91,1.22,3.07,1.22,1.44,0,2.58-.68,3.41-2.02l2.37-3.83c.46-.79.7-1.56.7-2.3,0-1.16-.44-2.15-1.32-2.96-.88-.82-1.91-1.22-3.06-1.22Z"/>
          <path class="cls-1" d="M481.73,883.38c-.88-.81-1.91-1.22-3.06-1.22-1.44,0-2.58.67-3.41,2.02l-2.37,3.83c-.46.79-.7,1.56-.7,2.3,0,1.16.44,2.15,1.32,2.96.88.81,1.91,1.22,3.06,1.22,1.44,0,2.58-.68,3.41-2.02l2.37-3.83c.46-.79.7-1.56.7-2.3,0-1.16-.44-2.15-1.32-2.96Z"/>
          <path class="cls-1" d="M510.93,847.79c0-2.37-1-3.55-3-3.55-.28,0-.69.07-1.22.21-.54.14-.97.21-1.29.21-1.49,0-2.65-.95-3.48-2.86-1.72-3.9-2.95-6.29-3.69-7.17-1.81-2.27-4.39-3.41-7.73-3.41-7.38,0-13.05,7.92-17,23.76-4.83,1.12-8.96,1.67-12.4,1.67-.21,0-.36.06-.56.08-.2-.02-.34-.08-.56-.08-3.95,0-5.92-1.3-5.92-3.9,0-.32.09-.8.28-1.43.18-.63.28-1.15.28-1.57,0-2.65-1.23-3.97-3.69-3.97-1.35,0-2.58.62-3.69,1.88-8.56,9.36-26.22,11.46-29.64,8.43-1.39-1.16-2.18-4.9-2.37-11.22-.24-6.73-1.6-11.63-4.11-14.7-4-4.83-11.45-7.25-22.36-7.25-13.19,0-27.54,1.63-43.05,4.88-23.03,4.79-34.55,11.66-34.55,20.62s10.26,13.86,30.79,13.86c10.08,0,20.8-1.88,32.18-5.64,9.52-3.16,16.65-6.5,21.39-10.03,3.85-2.88,5.78-4.9,5.78-6.06,0-.56-.42-.84-1.25-.84-1.53,0-4,.77-7.38,2.3-17.79,7.94-34.69,11.91-50.71,11.91-3.85,0-8.08-.37-12.68-1.12-6.5-1.07-9.75-2.53-9.75-4.39,0-4.88,10.7-9.17,32.11-12.89,16.44-2.83,28.82-4.25,37.13-4.25s13.37,1.07,15.19,3.2c1.62,1.85,2.64,5.67,3.06,11.42.47,6.41,1.26,10.73,2.37,12.96,5.34,10.92,24.29,7.64,37.86-.07,2.6,4.14,6.85,6.2,12.75,6.2.21,0,.36-.06.56-.08.2.02.34.08.56.08,3.16,0,6.59-.35,10.31-1.04v.21c-.56,2.37-.84,4.39-.84,6.06,0,2.37.47,3.55,1.39,3.55,1.39,0,3.07-2.53,5.02-7.59.51-1.49.93-2.74,1.26-3.76,13.14-3.99,22.73-7.06,28.77-9.19,2.6-.74,3.9-2.55,3.9-5.43ZM481.53,852.73c3.25-8.78,6.25-13.16,8.99-13.16.84,0,1.81,1.23,2.93,3.69,1.44,3.02,2.23,4.6,2.37,4.73-6.5,2.28-11.26,3.86-14.28,4.74Z"/>
          <path class="cls-1" d="M570.21,797.62c-.19-1.95-1.12-2.92-2.79-2.92-1.3,0-2.53.6-3.69,1.81-1.02,1.07-1.53,2.32-1.53,3.76v.56c1.48,18.53,2.67,32.21,3.55,41.03.05.56.07,1.07.07,1.53,0,1.58-.19,2.71-.56,3.41-.51.88-1.83,1.77-3.97,2.65-3.76,1.53-7.27,2.3-10.52,2.3-.18,0-.31.06-.48.07h-4.12c-.24,0-.4.07-.62.09-.03-.08-.04-.15-.08-.22-2.23-4.97-5.02-7.46-8.36-7.46-2.84,0-5.25,1.12-7.25,3.35-1.95,2.23-2.93,4.62-2.93,7.17,0,3.62,3.55,5.43,10.66,5.43,1.12,0,1.67.58,1.67,1.74,0,3.72-6.71,7.99-20.13,12.82-4.23,1.53-11.72,3.32-22.5,5.36-3.11.56-4.67,1.44-4.67,2.65,0,.65.88,1.25,2.65,1.81,1.76.56,3.83.83,6.2.83,8.31,0,16.81-1.53,25.5-4.6,14.07-4.97,21.1-11.91,21.1-20.83h2.39c.32.05.59.14.96.14,3.71,0,8.47-1.09,14.28-3.27,6.08-2.27,9.13-6.29,9.13-12.05,0-.98-.05-2.02-.14-3.14-.6-5.76-1.88-20.43-3.83-44.03Z"/>
          <path class="cls-1" d="M592.35,802.64c-.19-2.09-1.07-3.13-2.64-3.13-1.3,0-2.47.7-3.49,2.09-1.07,1.44-1.6,3.2-1.6,5.29v.49c.88,9.19,1.67,16.81,2.37,22.85,1.07,9.19,1.85,15.07,2.37,17.62.97,4.79,2.2,7.17,3.69,7.17,2,0,3-3.08,3-9.26,0-.97-.05-1.97-.14-3-1.49-17.37-2.67-30.74-3.55-40.13Z"/>
          <path class="cls-1" d="M757.29,833.03c-.76-1.47-1.94-2.2-3.52-2.2-1.12,0-2.12.41-3.03,1.22-.91.81-1.36,1.77-1.36,2.89,0,.7.18,1.39.56,2.09.47.93,1.12,2.7,1.95,5.29.93,2.88,1.39,4.81,1.39,5.78,0,9.57-13.82,18.44-36.16,23.23,3.37-9.33,5.15-16.64,5.15-21.71,0-7.94-4.64-13.63-13.93-17.07-6.27-2.32-14.14-3.49-23.61-3.49-15.56,0-29.84,1.42-42.84,4.25-22.29,4.88-33.43,13.05-33.43,24.52,0,28.16,68.14,28.43,95.99,24.24.44-.07.84-.15,1.28-.22-3.04,8.59-6.92,18.61-11.66,30.1-1.2,2.97-1.81,5.18-1.81,6.62,0,.93.24,1.39.7,1.39,1.16,0,2.81-2.07,4.95-6.2,6.57-12.79,11.75-23.81,15.66-33.25,7.86-1.52,48.09-8.59,48.09-32.43,0-1.81-.58-4.57-1.74-8.29-.97-3.06-1.85-5.33-2.61-6.79ZM704.58,873.74c-34.74,5.39-87.77-.13-87.77-15.88,0-7.57,10.08-13.19,30.23-16.86,12.81-2.37,25.38-3.55,37.69-3.55,19.46,0,29.19,4.06,29.19,12.19,0,4.84-1.74,12.64-5.19,23.38-1.38.24-2.72.5-4.15.72Z"/>
          <path class="cls-1" d="M727.58,822.2c1.44,0,2.58-.68,3.41-2.02l2.37-3.83c.46-.79.7-1.56.7-2.3,0-1.16-.44-2.14-1.32-2.96-.88-.81-1.91-1.22-3.06-1.22-1.44,0-2.58.68-3.41,2.02l-2.37,3.83c-.47.79-.7,1.56-.7,2.3,0,1.16.44,2.15,1.32,2.96.88.82,1.91,1.22,3.07,1.22Z"/>
          <path class="cls-1" d="M843.11,844.89c0-2.37-.97-3.55-2.93-3.55-.32,0-.76.06-1.29.18s-.94.18-1.22.18c-1.53,0-2.72-.95-3.55-2.86-1.72-3.85-2.93-6.24-3.62-7.17-1.86-2.27-4.46-3.41-7.8-3.41-7.38,0-13.05,7.92-17,23.76-6.41,2.53-12.9,3.27-17.19,3.27-2.97,0-4.53-.67-4.67-2.02-1.81-19.04-3.23-34.11-4.25-45.21-.24-1.95-1.25-2.92-3.06-2.92-1.35,0-2.56.56-3.62,1.67-1.02,1.07-1.53,2.25-1.53,3.55,0,.23.03.49.07.77,2.09,16.67,3.49,31.14,4.18,43.4.32,6.08,4.63,9.45,12.89,9.12,5.02-.2,11.44-1.59,15.1-2.58-.47,2.18-.7,4.16-.7,5.92,0,2.6.46,3.9,1.39,3.9,1.3,0,2.95-2.56,4.94-7.66.47-1.49.86-2.74,1.19-3.76,13.14-3.99,22.73-7.06,28.77-9.19,2.6-.74,3.9-2.53,3.9-5.36ZM813.72,849.83c3.25-8.82,6.24-13.23,8.99-13.23.84,0,1.83,1.23,3,3.69,1.39,3.02,2.18,4.62,2.37,4.81-6.55,2.23-11.33,3.81-14.35,4.73Z"/>
          <path class="cls-1" d="M811.87,892.83c.46-.79.7-1.56.7-2.3,0-1.16-.44-2.14-1.32-2.96-.88-.82-1.91-1.22-3.06-1.22-1.44,0-2.58.68-3.41,2.02l-2.37,3.83c-.46.79-.7,1.56-.7,2.3,0,1.16.44,2.14,1.32,2.96.88.81,1.91,1.22,3.07,1.22,1.44,0,2.58-.68,3.41-2.02l2.37-3.83Z"/>
          <path class="cls-1" d="M939.36,836.1c-1.07-2.65-3.41-3.97-7.04-3.97h-1.12c-1.25,0-2.56.19-3.9.56-4.36,1.91-6.55,5.78-6.55,11.63-.93.28-1.49.42-1.67.42-6.23,1.76-10.99,3.65-14.28,5.64-4.18,2.18-7.78,5.46-10.8,9.82-1.53,2.74-3.69,6.99-6.48,12.75h-.07v-.14l.7-4.11c1.12-5.39,2.81-11.36,5.08-17.9,1.72-3.76,2.58-5.99,2.58-6.69v-1.26c0-1.76-1.18-2.76-3.55-3-1.21,0-2.21.4-3,1.18-5.9,8.21-14.37,4.98-26.68,9.71-7.48,2.88-12.99,7.28-17.34,17.35-.88,2.04-4.81,4.55-14.42,6.96-8.27.93-12.4,2.37-12.4,4.32,0,1.72,1.44,2.58,4.32,2.58h.91c13.93,0,22.68-2.3,26.26-6.9,0,0,4.98-8.76,7.17-11.28,5.52-6.34,15.9-6.91,26.61-9.71h.07c-3.07,10.08-4.6,17.74-4.6,22.99,0,5.76,2.06,8.64,6.2,8.64h.14c1.44,0,2.93-.82,4.46-2.44,2.09-1.86,4.64-6.02,7.66-12.47,2.69-6.64,6.13-11.05,10.31-13.24,2.14-1.3,6.55-2.95,13.24-4.94,7.38-2.23,12.63-4.35,15.74-6.34.71-.73,4.16-3.18,2.44-10.17Z"/>
        </g>
      </g>
    </g>
  </g>
</svg>