<?xml version="1.0" encoding="UTF-8"?>
<svg id="Layer_2" data-name="Layer 2" xmlns="http://www.w3.org/2000/svg" viewBox="0 0 170.08 119.29">
  <defs>
    <style>
      .cls-1 {
        fill: #010101;
      }
    </style>
  </defs>
  <g id="Layer_1-2" data-name="Layer 1">
    <path class="cls-1" d="M0,119.07l1.01-10.12c.18-1.84.59-2.75,2.46-2.75,1.22,0,2.02.72,2.25,2.31l.92,6.09h.09l.92-6.09c.24-1.59,1.03-2.31,2.25-2.31,1.87,0,2.29.9,2.47,2.75l1.01,10.12h-2.99l-.56-10.3h-.04v.29l-1.55,8.6c-.18.98-.79,1.63-1.57,1.63s-1.39-.65-1.57-1.63l-1.55-8.6h-.04l-.54,10.01H0Z"/>
    <path class="cls-1" d="M20.87,119.28c-3.58,0-6.41-3-6.41-6.54s2.83-6.54,6.41-6.54,6.41,3,6.41,6.54-2.83,6.54-6.41,6.54M20.87,109.42c-1.84,0-3.24,1.52-3.24,3.33s1.4,3.32,3.24,3.32,3.24-1.52,3.24-3.32-1.4-3.33-3.24-3.33"/>
    <polygon class="cls-1" points="35.63 106.42 35.63 109.45 33.33 109.45 33.33 119.07 30.2 119.07 30.2 109.45 27.89 109.45 27.89 106.42 35.63 106.42"/>
    <path class="cls-1" d="M42.65,119.28c-3.58,0-6.41-3-6.41-6.54s2.83-6.54,6.41-6.54,6.41,3,6.41,6.54-2.83,6.54-6.41,6.54M42.65,109.42c-1.84,0-3.24,1.52-3.24,3.33s1.4,3.32,3.24,3.32,3.24-1.52,3.24-3.32-1.4-3.33-3.24-3.33"/>
    <path class="cls-1" d="M50.78,119.07v-8.19c0-3,1.78-4.68,4.48-4.68,2.48,0,4.21,1.37,4.21,3.76,0,1.57-.72,2.46-2.14,2.6v.04c1.13.25,2.34.51,2.34,2.1v4.37h-3.17v-3.83c0-.76-.52-.99-1.89-.99v-2.86c1.12-.02,1.69-.27,1.69-1.26,0-.7-.61-.99-1.12-.99-.76,0-1.13.47-1.13,1.74v8.2h-3.27Z"/>
    <path class="cls-1" d="M68.62,109.35h-3.17c-.4,0-.72.14-.72.52,0,1.07,4.7,2.44,4.7,5.4,0,1.63-.41,3.8-4.45,3.8h-3.37v-2.93h3.26c.72,0,1.17-.22,1.17-.69,0-1.34-4.52-2.42-4.52-5.46,0-2.64,1.85-3.58,3.82-3.58h3.28v2.93Z"/>
    <path class="cls-1" d="M84.88,109.09h-3.78l3.6,4.61c.18-.98-.23-1.91-.86-2.64l2.14-2.04c1.08,1.16,1.87,2.44,1.87,4.07,0,1.18-.36,2.15-1.1,3.05l2.21,2.78h-3.89l-.5-.67c-1.12.8-2.11,1.03-3.4,1.03-3.02,0-5.15-2.46-5.15-5.1,0-1.74.92-3.24,2.16-4.01-.45-.47-.85-1.05-.85-1.74,0-1.52,1.24-2.02,2.56-2.02h4.98v2.68ZM80,112.42c-.61.42-.85,1.01-.85,1.68,0,1.3.95,2.26,2.07,2.26.58,0,1.15-.16,1.55-.45l-2.77-3.49Z"/>
    <polygon class="cls-1" points="102.13 106.42 102.13 109.45 99.83 109.45 99.83 119.07 96.7 119.07 96.7 109.45 94.39 109.45 94.39 106.42 102.13 106.42"/>
    <path class="cls-1" d="M103.24,119.07v-8.19c0-3,1.78-4.68,4.48-4.68,2.48,0,4.21,1.37,4.21,3.76,0,1.57-.72,2.46-2.14,2.6v.04c1.13.25,2.34.51,2.34,2.1v4.37h-3.17v-3.83c0-.76-.52-.99-1.89-.99v-2.86c1.12-.02,1.69-.27,1.69-1.26,0-.7-.61-.99-1.12-.99-.76,0-1.13.47-1.13,1.74v8.2h-3.27Z"/>
    <path class="cls-1" d="M114.49,119.07v-8.31c0-2.71,1.78-4.55,4.41-4.55s4.41,1.84,4.41,4.55v8.31h-3.13v-4.41h-1.96v-2.86h1.96v-1.19c0-.94-.5-1.55-1.28-1.55s-1.28.62-1.28,1.55v8.46h-3.13Z"/>
    <path class="cls-1" d="M129.6,116.03c1.76,0,3.11-1.45,3.11-3.14,0-2.42-1.76-3.43-3.87-3.43v9.62h-3.13v-12.65h3.18c4.54,0,7.02,2.89,7.02,6.43s-2.72,6.22-6.32,6.22v-3.04Z"/>
    <rect class="cls-1" x="137.79" y="106.42" width="3.13" height="12.65"/>
    <path class="cls-1" d="M143.24,119.07v-11.13c0-1.01.79-1.74,1.85-1.74s1.69.41,2.16,1.34l2.79,5.57h.04v-6.69h3.13v11.02c0,1.16-.86,1.84-1.65,1.84s-1.4-.38-2.23-1.99l-2.92-5.64h-.04v7.41h-3.13Z"/>
    <path class="cls-1" d="M164.45,110.41c-.99-.85-1.67-1.17-2.88-1.17-2.12,0-3.29,1.59-3.29,3.47,0,2.02,1.4,3.54,3.36,3.54,1.04,0,2.36-.94,2.77-2.17h-3.15v-2.86h6.57v1.34c0,3.47-2.46,6.72-6.43,6.72-3.58,0-6.41-3-6.41-6.54s2.83-6.54,6.41-6.54c2.03,0,3.85.78,5.24,2.02l-2.19,2.19Z"/>
    <path class="cls-1" d="M.65,97.25v-4.27h1.54l3.05-16.02h9.17l3.03,16.02h1.43v4.27h-6.84l-.65-4.94h-3.4l-.61,4.94H.65ZM8.39,88.6h2.64l-1.31-8.2-1.34,8.2Z"/>
    <polygon class="cls-1" points="20.33 97.25 20.33 92.98 21.96 92.98 21.96 81.2 20.33 81.2 20.33 76.96 29.27 76.96 29.27 81.2 27.6 81.2 27.6 92.98 30.32 92.98 30.32 89.33 35.55 89.33 35.55 97.25 20.33 97.25"/>
    <polygon class="cls-1" points="48.38 92.99 48.38 97.26 39.51 97.26 39.51 92.99 41.07 92.99 41.07 81.2 39.16 81.2 39.16 84.56 35.02 84.56 35.02 76.96 52.87 76.96 52.87 84.56 48.73 84.56 48.73 81.2 46.82 81.2 46.82 92.99 48.38 92.99"/>
    <path class="cls-1" d="M52.74,97.25v-4.27h1.54l3.05-16.02h9.17l3.03,16.02h1.43v4.27h-6.84l-.65-4.94h-3.4l-.61,4.94h-6.72ZM60.48,88.6h2.64l-1.31-8.2-1.34,8.2Z"/>
    <path class="cls-1" d="M72.42,97.26v-4.27h1.63v-11.78h-1.63v-4.24h12.08c1.18,0,2.13.37,2.84,1.11.7.74,1.06,1.73,1.06,2.98v12.11c0,1.25-.35,2.24-1.06,2.99-.71.74-1.65,1.11-2.84,1.11h-12.08ZM79.72,92.99h3.05v-11.78h-3.05v11.78Z"/>
    <path class="cls-1" d="M89.9,97.25v-4.27h1.54l3.05-16.02h9.17l3.03,16.02h1.43v4.27h-6.84l-.65-4.94h-3.4l-.61,4.94h-6.72ZM97.65,88.6h2.64l-1.31-8.2-1.34,8.2Z"/>
    <polygon class="cls-1" points="116.36 97.25 109.58 97.25 109.58 92.98 111.22 92.98 111.22 81.2 109.58 81.2 109.58 76.96 116.36 76.96 121.55 85.82 126.47 76.96 133.19 76.96 133.19 81.2 131.55 81.2 131.55 92.98 133.19 92.98 133.19 97.25 126.08 97.25 126.08 86.43 121.28 94.88 116.36 86.43 116.36 97.25"/>
    <path class="cls-1" d="M149.08,93.16c0,1.25-.35,2.24-1.07,2.99-.71.74-1.65,1.11-2.83,1.11h-6.49c-1.19,0-2.14-.37-2.85-1.11-.71-.74-1.06-1.73-1.06-2.99v-12.11c0-1.24.36-2.23,1.07-2.97.71-.74,1.66-1.11,2.84-1.11h6.49c1.18,0,2.13.37,2.83,1.11s1.06,1.73,1.06,2.98v12.11ZM140.53,92.99h2.83v-11.78h-2.83v11.78Z"/>
    <polygon class="cls-1" points="170.08 76.96 170.08 81.2 168.47 81.2 168.47 97.25 163.16 97.25 157.66 87.07 157.66 97.25 150.69 97.25 150.69 92.98 152.33 92.98 152.33 81.2 150.69 81.2 150.69 76.96 157.66 76.96 163.16 87.13 163.16 76.96 170.08 76.96"/>
    <rect class="cls-1" x="164.57" y="93.01" width="5.51" height="4.24"/>
    <path class="cls-1" d="M100.4,50.44h-35.24v-9.15h35.24v9.15ZM102.45,39.72h-39.35v12.29h39.35v-12.29Z"/>
    <path class="cls-1" d="M78.04,44.79h-.69c-.54,0-.83-.44-.91-.58-.21-.37-.08-.85.29-1.05.29-.17.65-.12.88.08h.42c.43,0,.77.35.77.78s-.35.77-.77.77"/>
    <path class="cls-1" d="M77.97,48.78c-.17,0-.35-.05-.49-.14-.71-.45-.71-1.72-.7-2.1v-.4c.03-.54.05-1.17.11-1.58.25-.82.9-1.37,1.02-1.48.33-.27.82-.22,1.09.11.27.33.23.82-.1,1.09-.17.14-.44.43-.5.63-.02.24-.04.8-.05,1.28v.41c-.03.4.05.76.09.85.36.23.4.65.17,1.01-.14.22-.38.32-.64.32"/>
    <path class="cls-1" d="M86.53,48.76h-9.81c-.43,0-.77-.35-.77-.77s.35-.78.77-.78h9.38c.21-.7.54-1.21.98-1.53.31-.23.52-.37.7-.46-.04-.42-.12-1.21-.19-1.74l-.26-2.07,1.54-.2.26,2.08c.06.49.22,1.91.22,2.17,0,.52-.35,1-.82,1.1-.01,0-.13.05-.53.35-.11.08-.33.32-.47.97-.13.54-.57.75-.7.81-.09.04-.19.06-.29.06M88.17,45.07s-.01,0-.02,0c0,0,.01,0,.02,0"/>
    <path class="cls-1" d="M83.53,48.76c-.3,0-.59-.18-.72-.48-.23-.56-.31-1.53-.27-2.19.03-.61.15-2.05.15-2.05l.28-2.76c.04-.42.41-.72.85-.69.42.04.73.42.69.85l-.28,2.75s-.12,1.39-.15,1.98c-.03.6.06,1.28.16,1.52.16.39-.02.85-.42,1.01-.1.04-.2.06-.3.06"/>
    <path class="cls-1" d="M71.33,45.74s-.07,0-.11,0c-.42-.05-.93.93-.88.51.03-.2-.07-2,3.69-2.17,2.79-.12,10.62-.26,10.95-.26l9.84-.14c.35.03.78.34.79.76,0,.43-.34.78-.77.79l-9.84.14c-.08,0-8.12.07-10.86.26-2.02.14-2.26.87-2.26.88-.05.39-.16-.76-.54-.76"/>
    <path class="cls-1" d="M86.52,49.26h-9.73c-.43,0-.78-.35-.78-.77s.35-.78.78-.78h9.28c.36-.6,1.52-.3,1.52.4,0,.3-.13.57-.36.69l-.03.06c-.14.25-.4.4-.68.4"/>
    <path class="cls-1" d="M86.06,49.48c-.43,0-.78-.35-.78-.77v-.21c0-.43.35-.77.78-.77s.77.35.77.77v.21c0,.43-.35.77-.77.77"/>
    <path class="cls-1" d="M78.56,49.51c-.43,0-.78-.35-.78-.77v-.24c0-.43.35-.78.78-.78s.77.35.77.78v.24c0,.43-.35.77-.77.77"/>
    <path class="cls-1" d="M94.66,46.98h-3.55c-.43,0-.77-.25-.77-.56s.35-.56.77-.56h3.55c.43,0,.77.25.77.56s-.35.56-.77.56"/>
    <path class="cls-1" d="M95.01,45.4s0-.06-.01-.14c0,.1,0,.22.01.26v-.11Z"/>
    <path class="cls-1" d="M95.01,46.29c-.42,0-.76-.33-.77-.75v-.23c-.04-.42.28-.79.71-.82.41-.04.79.28.83.7,0,0,0,.01,0,.02h0c0,.05.01.17.01.19v.11c0,.42-.34.77-.77.77h0Z"/>
    <path class="cls-1" d="M94.3,45.53c-.08,0-.11-.17-.11-.26s.16-.11.16-.11h.64s0-.08-.01-.12h-.59c-.06,0-.05-.08-.05-.15s.21-.14.21-.14h.38s.04.19.05.26c-.02-.15-.05-.31-.09-.4h-.38s-.27.03-.39.35c-.12.33-.14.37-.14.61v.74s.03.1.15.1h.89v-.89s-.71,0-.71,0ZM95,46.23h-.75c-.13,0-.15-.13-.15-.13v-.26c0-.16.19-.2.19-.2h.71v.59Z"/>
    <path class="cls-1" d="M95.49,47.2h-.89c-.34,0-.79-.32-.89-.65-.02-.07-.03-.15-.03-.23v-.74c0-.35.05-.5.17-.83.24-.62.71-.87,1.06-.9h.46c.3,0,.57.17.7.44.07.15.12.35.16.63,0,0,0,0,0,.01,0,0,0,.01,0,.02.01.1,0,.2-.02.31.03.09.05.18.05.28v.89c0,.43-.35.77-.78.77"/>
    <path class="cls-1" d="M95.06,45.88c-.43,0-.78-.35-.78-.78v-.42c0-.32.2-.6.49-.72l.19-.07c.17-.07.36-.07.54,0,.3.11.55.4.61.5.13.2.18.46.14.77-.04.32-.28.58-.59.65l-.61.07ZM94.73,44.96s0,.14.11.28l.21-.24-.32-.04ZM95.06,44.69h.02-.02Z"/>
    <path class="cls-1" d="M95.21,47.27c-.43,0-.78-.35-.78-.77v-1.39c0-.43.35-.78.78-.78s.77.35.77.78v1.39c0,.43-.35.77-.77.77"/>
    <path class="cls-1" d="M96.11,46.85h-.77c-.09,0-.17-.08-.17-.17v-4.26c0-.09.08-.17.17-.17h.77c.09,0,.17.08.17.17v4.26c0,.09-.08.17-.17.17"/>
    <path class="cls-1" d="M96.06,47.62h-.67c-.55,0-1-.39-1-.87v-3.63c0-.48.45-.87,1-.87h.67c.55,0,.99.39.99.87v3.63c0,.48-.45.87-.99.87"/>
    <path class="cls-1" d="M92.25,50.47c-.13,0-.25-.03-.35-.09-.26-.15-.48-.39-.46-.69,0,0,.07-.95-.22-1.83-.27-.81-.39-.87-.6-.97-.24-.12-.51-.15-1.1-.15-.64,0-1.08.11-1.18.17-.2.19-.28.27-.43.58-.16.34-.33,1.07-.35,1.3-.03.4-.37.71-.77.71h-9.01c0,.06,0,.1,0,.12-.02.22-.15.46-.33.59-.29.22-.63.18-.76.15-.4-.08-.67-.46-.61-.87.09-.64-.29-2.06-.61-2.55-.17-.25-.68-.26-.9-.27-.28,0-1.03-.02-1.63.3-.25.13-.55.93-.65,1.52-.06.37-.37.64-.74.65-1.12.04-1.27-.02-1.39-.07-.06-.02-.11-.05-.17-.09-.15-.03-.33-.09-.54-.19-.52-.27-.7-.73-.74-.83-.03-.09-.04-.19-.04-.28,0,0,.03-.21.11-.48.18-.61.18-.91.22-1.29.03-.33.13-.64.2-.87.22-.71.56-1.04,1.33-1.28.58-.18,2.13-.33,5.57-.68l.41-.04.28.02c.48-.38,1.71-1.36,2.05-1.59l.22-.17c.46-.36,1.22-.96,2.36-1.07,1.14-.1,6.78-.37,11.85-.09.66.08,1,.42,1.17.69.11.17.54,1.11,1.26,2.79.07.12.15.35.2.49.18.16.35.4.35.74v1.57c0,.1-.02.2-.06.29.04.1.06.21.06.32v.1c.08.14.14.31.14.51v.54c0,.1-.02.21-.06.3-.12.3-.45.64-.94.64-.17,0-2.03.06-2.03.06-.03.02-.16.09-.25.15-.01.15,0,.26,0,.26.02.27-.11.54-.33.69-.15.1-.36.17-.55.17M77.47,47.96h8.67c.09-.39.22-.82.37-1.13.26-.54.48-.76.81-1.07.52-.48,1.6-.55,2.2-.55.72,0,1.23.05,1.76.3.62.29.99.65,1.41,1.88.05.14.08.27.12.41.06-.02.12-.05.18-.07.05-.02.21-.04.27-.05.05,0,.87-.03,1.49-.05-.01-.05-.02-.1-.03-.16-.17-.15-.28-.36-.27-.6v-.37c0-.23.11-.44.27-.58v-.73c-.1-.09-.17-.21-.21-.34-.05-.17-.1-.37-.13-.44-.57-1.26-1.13-2.53-1.23-2.71-4.94-.24-10.46.02-11.58.12-.68.06-1.15.44-1.53.74-.11.09-.22.17-.31.23-.37.25-1.84,1.43-2.11,1.65h0c-.17.18-.41.26-.65.24l-.46-.05-.25.04c-2.69.27-4.82.48-5.28.62-.2.06-.25.1-.26.1-.1.34.06.3-.09.6-.08.16-.41,1.34-.41,1.51.16.01.33.07.48.16.03,0,.1,0,.19,0,.18-.66.57-1.62,1.31-2.02.96-.51,2.01-.49,2.35-.48.42,0,1.57.03,2.19.96.28.42.55,1.13.72,1.87"/>
    <path class="cls-1" d="M74.17,46.42c-1.2,0-2.17.97-2.17,2.17s.97,2.17,2.17,2.17,2.17-.97,2.17-2.17-.97-2.17-2.17-2.17M74.17,49.86c-.7,0-1.27-.57-1.27-1.26s.57-1.27,1.27-1.27,1.26.57,1.26,1.27-.57,1.26-1.26,1.26"/>
    <path class="cls-1" d="M74.17,51.54c-1.63,0-2.95-1.32-2.95-2.95s1.32-2.95,2.95-2.95,2.95,1.32,2.95,2.95-1.32,2.95-2.95,2.95M74.17,47.48c-.65,0-1.18.53-1.18,1.18,0,1.3,2.35,1.3,2.35,0,0-.65-.53-1.18-1.18-1.18"/>
    <path class="cls-1" d="M89.52,46.42c-1.2,0-2.17.97-2.17,2.17s.97,2.17,2.17,2.17,2.17-.97,2.17-2.17-.97-2.17-2.17-2.17M89.52,49.86c-.7,0-1.27-.57-1.27-1.26s.57-1.27,1.27-1.27,1.26.57,1.26,1.27-.57,1.26-1.26,1.26"/>
    <path class="cls-1" d="M89.52,51.54c-1.63,0-2.95-1.32-2.95-2.95s1.32-2.95,2.95-2.95,2.95,1.32,2.95,2.95-1.32,2.95-2.95,2.95M89.52,47.48c-.65,0-1.18.53-1.18,1.18,0,1.3,2.36,1.3,2.36,0,0-.65-.53-1.18-1.18-1.18"/>
    <path class="cls-1" d="M85.04.86C54.7.86,30.1,14.57,30.1,31.49s24.6,30.63,54.94,30.63,54.94-13.71,54.94-30.63S115.38.86,85.04.86M85.04,61.29c-28.19,0-51.05-13.34-51.05-29.8S56.85,1.68,85.04,1.68s51.04,13.34,51.04,29.8-22.85,29.8-51.04,29.8"/>
    <path class="cls-1" d="M46.9,48.61s-7.56-5.07-6.49-13.45c.52-3.22,2.46-6.14,5.59-8.08,3.12-1.93,10.31-5.03,19.01-6.96,8.7-1.93,12.02-2.22,16.24-4.38,4.22-2.16,5.83-4.22,4.57-6.77l2.64-.26s1.77,3.96-1.03,7.31c-2.8,3.35-6.6,4.48-14.56,6.09s-16.21,3.64-20.49,5.38c-4.29,1.74-8.99,4.64-9.63,7.96-.65,3.32-.22,7.91,4.16,13.15"/>
    <path class="cls-1" d="M54.59,21.55s7-9.79,21.31-13.62c8.51-2.06,15.29-1.59,20.75.47,5.46,2.06,14.91,6.44,23.63,18.56,0,0-7.22-7.35-16.88-12.63-9.67-5.28-16.41-5.63-24.74-3.91-8.33,1.72-14.73,5.41-18.21,9.36l-5.84,1.76Z"/>
    <path class="cls-1" d="M58.24,48.73s-5.48-9.48,1.32-17.48c2.32-2.58,13.37-7.68,21.97,6.95,0,0,1.03-8.32,10.43-14.85,4.31-2.96,10.39-5.03,17.05-4.9l4.85,3.57s-10.86-2.02-19.05,2.88c-8.19,4.9-10.21,10.39-12.05,14.82h-2.49s-5.57-7.54-13.47-7.31c-7.89.23-10.57,6.98-8.57,16.33"/>
    <path class="cls-1" d="M114.95,19.32s9.18,1.51,13.63,8.8c3.16,5.32,2.96,9.83,1.71,13.5-1.26,3.67-5.45,6.86-9.79,7.57-4.35.71-9.63-.6-13.31-4.33,0,0,4.9,3.26,12.24,1.88,3.77-.88,6.28-2.7,7.64-5.6s1.26-7.67-1.06-11.08c-2.32-3.41-3.64-4.25-7.06-6.35l-3.99-4.38Z"/>
    <path class="cls-1" d="M85.04,62.97c-30.77,0-55.8-14.12-55.8-31.49S54.27,0,85.04,0s55.8,14.12,55.8,31.49-25.03,31.49-55.8,31.49M85.04,1.72c-29.82,0-54.08,13.35-54.08,29.77s24.26,29.76,54.08,29.76,54.07-13.35,54.07-29.76S114.86,1.72,85.04,1.72"/>
  </g>
</svg>