<?xml version="1.0" encoding="UTF-8"?>
<svg id="Layer_2" data-name="Layer 2" xmlns="http://www.w3.org/2000/svg" viewBox="0 0 731.86 190.59">
  <defs>
    <style>
      .cls-1 {
        fill: #203f7b;
      }
    </style>
  </defs>
  <g id="Layer_1-2" data-name="Layer 1">
    <g>
      <path class="cls-1" d="M52.5,1.63h-15.9L0,70.77h16.15l7.52-14.65h41.75l7.55,14.65h16.13L52.5,1.63ZM30.91,42.62l13.73-25.79,13.55,25.79h-27.29ZM579.92,1.63h-15.91l-36.57,69.14h16.12l7.54-14.65h41.74l7.52,14.65h16.12L579.92,1.63ZM558.32,42.62l13.73-25.79,13.57,25.79h-27.3ZM195.16,48.66c0,7.59-3.4,13.53-10.1,17.68-6.44,3.99-15.67,5.95-27.47,5.95-17.05,0-30.53-3.83-40.12-11.43l-1.44-1.13,8.13-10.67,1.47.89c9.87,6.02,20.64,9.11,32.09,9.11,7.3,0,12.98-1,16.92-2.97,3.38-1.71,5.03-3.91,5.03-6.71,0-2.05-.68-4.96-6.56-6.5-2.65-.68-10.06-1.43-22.05-2.2-11.13-.75-18.78-2.24-23.38-4.53-5.73-2.86-8.6-7.71-8.6-14.44s3.18-12.24,9.48-16.14c6.03-3.73,14.53-5.58,25.35-5.58,14.39,0,26.65,3.33,36.45,9.97l1.79,1.22-9.01,9.97-1.27-.64c-9.4-4.77-19.08-7.2-28.79-7.2-6.4,0-11.31.74-14.61,2.18-4.2,1.85-4.2,4.07-4.2,4.79,0,1.3.47,3.15,4.42,4.56,2.56.89,6.85,1.53,12.77,1.88,9.2.59,15.08,1.08,18.03,1.44,8.46,1.12,14.89,3.28,19.06,6.42,4.37,3.32,6.62,8.05,6.62,14.06M306.28,7.69c-4.24-4.05-10.02-6.07-17.16-6.07h-53.73v69.14h14.6v-24.93h37.06c8.18,0,14.59-1.88,18.96-5.59,4.5-3.8,6.78-9.29,6.78-16.35s-2.19-12.16-6.5-16.21M287.23,32.32h-37.24V15.13h36.51c10.21,0,11.39,5.11,11.39,8.95s-1.23,8.24-10.67,8.24M701.28,44.66c4.26-1.13,7.74-3.12,10.4-5.92,3.5-3.69,5.3-8.64,5.3-14.67,0-6.84-2.18-12.34-6.47-16.39-4.25-4.05-10.13-6.07-17.45-6.07h-53.45v69.14h14.59v-24.93h30.31l38.93,42.91h8.42l-30.58-44.08ZM654.2,15.13h36.24c10.48,0,11.67,5.11,11.67,8.95s-1.23,8.24-10.68,8.24h-37.24V15.13ZM409.9,57.26v13.51h-72.24V1.63h69.69v13.5h-55.1v13.04h38.3v13.54h-38.3v15.55h57.64ZM519.36,15.13h-36.42v55.64h-13.51V15.13h-36.45V1.63h86.39v13.5Z"/>
      <path class="cls-1" d="M538.43,129.7h7.13v38.89H182.24v-52.55h7.13v46.92h118.57v-33.26h7.13v33.26h27.16v-33.26h7.13v33.26h29.11v-33.26h7.13v33.26h102.15v-33.26h7.13v33.26h18.12v-33.26h7.13v33.26h18.29v-33.26ZM381.98,174.16c-2.84,0-4.94,1.86-4.94,4.17s2.06,4.13,4.94,4.13,4.98-1.86,4.98-4.13-2.1-4.17-4.98-4.17M350.5,174.16c-2.28,0-4.09,1.2-4.71,2.88-.62-1.66-2.44-2.88-4.75-2.88-2.84,0-4.94,1.86-4.94,4.17s2.07,4.13,4.94,4.13c2.31,0,4.12-1.2,4.75-2.84.61,1.66,2.4,2.84,4.71,2.84,2.88,0,4.99-1.86,4.99-4.13s-2.1-4.17-4.99-4.17M307.2,123c2.3,0,4.12-1.2,4.75-2.84.61,1.66,2.4,2.84,4.72,2.84,2.88,0,4.98-1.86,4.98-4.13s-2.1-4.18-4.98-4.18c-2.29,0-4.09,1.21-4.72,2.89-.62-1.66-2.44-2.89-4.75-2.89-2.84,0-4.94,1.87-4.94,4.18s2.06,4.13,4.94,4.13M167.52,165.87c0,.67.05,2.5-.22,3.08l-14.57,21.64h3.53l15.63-17.58c1.79-1.71,2.76-3.81,2.76-6.16v-37.15h-7.13v36.17Z"/>
    </g>
  </g>
</svg>