<?xml version="1.0" encoding="UTF-8"?>
<svg id="Layer_2" data-name="Layer 2" xmlns="http://www.w3.org/2000/svg" xmlns:xlink="http://www.w3.org/1999/xlink" viewBox="0 0 445.89 348.61">
  <defs>
    <style>
      .cls-1 {
        fill: none;
      }

      .cls-2 {
        fill: #002f87;
      }

      .cls-3 {
        fill: url(#radial-gradient);
      }

      .cls-4 {
        clip-path: url(#clippath-1);
      }

      .cls-5 {
        clip-path: url(#clippath-3);
      }

      .cls-6 {
        fill: url(#radial-gradient-2);
      }

      .cls-7 {
        clip-path: url(#clippath-2);
      }

      .cls-8 {
        clip-path: url(#clippath);
      }
    </style>
    <clipPath id="clippath">
      <rect class="cls-1" width="445.89" height="348.61"/>
    </clipPath>
    <clipPath id="clippath-1">
      <path class="cls-1" d="M347.08,11.85c-3.58,8.67-1.59-.93-.66-7.18.93-6.26-3.17,12.2-6.83,19.07-3.62,6.87,4.54-21.72,4.54-21.72-.26-.16-9.33,27.13-9.33,27.13-.28-.03,2.78-25.73,2.61-25.73-.31.02-4,24.62-7.53,32-2.72,5.66,1.85-18.51,2.44-22.68.6-4.17-2.61,1.13-3.81,4.43-1.18,3.27-3.03,3.41-2.68.66.35-2.75-1.26-1.21-5.32,3.58-1.75,2.07-2.28,1.99-3.01,1.91-.96-.1-2.27-.21-7.18,4.65-8.62,8.52-3.98,6.5-12.43,14.2-8.43,7.69-3.81,1.6-11.02,8.12-7.18,6.47-9.2,13.2-15.8,14.5-6.61,1.3-6.17-.68-14.93,8.49-8.75,9.15-8.63,9.93-15.73,11.47-7.14,1.55-11.65,2.51-16.11,5.14-2.63,2.97-15.8,17.45-19.07,19.69-3.04,2.06-5.44,3.53-6.74,5.12-.11.12-.15.2-.21.23.41-.51,3.17-4.5,2.43-8.63-.92-5.1-2.42,4.51-5.4,8.6-2.78,3.81-2.96,4.06-4.86,6.5,1.03-1.67,2.46-4.64,2.46-7.93.09-6.26-.52,2.61-6.18,7.71-5.67,5.09-.52,1.05.83-4.48,1.35-5.53-2.8,5.24-8.98,9.12-6.2,3.87-5.12,4-3.73-.14,1.37-4.16-4.23,3.33-8.14,6.04-3.93,2.71-.6-1.58-2.36-5.44-1.76-3.86-4.12,6.88-5.75,8.27-1.63,1.37-1.57-6.1-3.67-9.59-2.09-3.46.11,7.47-.45,9.14-.52,1.71-.19,1.53-4.78-2.55-4.6-4.08-2.75-1.49-1.72,1.17,1.06,2.65,3.55,6.1-3.56.92-5.15-3.75-7.68-4.85-11.62-6.4-5.68-2.22,9.34,7.28,9.73,8.63.4,1.29-4.8.25-5.76,1.58,20.37,3.87,41.35,2.2,59.26-2.45,34.82-9.05,58.38-25.86,84.51-48.11,13.53-11.53,54.62-52.81,87.58-77.8,1.13-.86,1.11-2.37,2.75-6.99,1.42-3.99-1.7,3.19-8.01,8.4-7.15,5.88-2.95,2.06-.92-3.55,2.01-5.61-3.35,6.2-10.81,12.74-7.46,6.55,3.73-7.09,6.78-15.64,3.05-8.55-5.06,3.65-7.57,8.17-2.48,4.51.27-4.36,1.09-11.71.03-.24.03-.36.01-.36-.14,0-1.24,4.13-4.36,11.72"/>
    </clipPath>
    <radialGradient id="radial-gradient" cx="-124.27" cy="556.74" fx="-124.27" fy="556.74" r="1" gradientTransform="translate(45172.13 -201613.83) scale(362.09)" gradientUnits="userSpaceOnUse">
      <stop offset="0" stop-color="#647883"/>
      <stop offset=".34" stop-color="#647883"/>
      <stop offset=".46" stop-color="#bfcbd2"/>
      <stop offset=".46" stop-color="#c0ccd3"/>
      <stop offset=".61" stop-color="#647883"/>
      <stop offset="1" stop-color="#647883"/>
    </radialGradient>
    <clipPath id="clippath-2">
      <path class="cls-1" d="M284.42,92.85c-12.32,12-45.26,44.15-86.65,51.94-32.19,6.06-50.93,3.09-57.48,1.46,1.04,2.68,1.85,4.11,3.62,6.81,1.75,2.66,7.32,8.23,4.53,3.96-2.8-4.3-1.2-7.51.63-4.97,2.27,3.15,3.93,4.83,8.35,8.61,6.04,5.16,9.95,5.05,5.92,1.9-4.02-3.11-6.16-5.91-6.85-8.21-.69-2.32-.97-3.94-.97-3.94,0,0,4.71,5.55,8.01,8.01,2.8,2.09,5.8,3.39,11.66,5.58,5.88,2.14,10.17,3.04,14.91,4.6,4.73,1.6,6.03.91,10.42,1.89,2.37.52,4.96.36,7.51.19,2.2-.15,4.38-.29,6.36,0,2,.31,3.9.27,5.8.22,2.17-.05,4.35-.1,6.73.36,4.44.9,6.64,1.66,12.92,1.91,3.2.12,5.45-.18,7.59-.48,2.07-.3,4.05-.59,6.73-.5,5.11.17,12.2-1.47,10.21-1.96-1.99-.51-7.92-3.54-11.5-6.28-4.52-3.47-5.2-4.31-10.21-9.88-3.23-3.6-5.11-7.38-5.06-9.46,4.53,3.14,13.84,12.23,19.91,15.95,6,3.67,12.57,6.58,14.52,7.02,1.99.47,7.01-3.84,10.3-7.57,3.26-3.73,7-4.05,9.4-4.44,2.39-.37,6.81-5.4,9.67-5.72,2.86-.32,7.66-6.49,10.61-9.1,3-2.6,7.53-4.41,10.25-3.99,2.73.42,8.98-10.03,10.84-13.56,1.84-3.51,8.1-9.28,7.5-11.07-8.02-2.78-12.42-13.43-14.85-18.28-2.46-4.92-9.43-18.73-9.43-18.73,0,0,5.1,2.85,10.37,9.5,6.61,8.35,14.19,14.07,18.68,15,2.03-2.25,2.86-8.1,3.87-12.75,1.04-4.65,2.95-5.34,5.77-8.62,2.83-3.28,2.17-8.32,4.44-16.22.48-1.68,8.74-43.61,8.65-45.82-24.21,17.65-46.29,40.17-83.7,76.62"/>
    </clipPath>
    <radialGradient id="radial-gradient-2" gradientTransform="translate(40606.94 -180991.48) scale(325.11)" xlink:href="#radial-gradient"/>
    <clipPath id="clippath-3">
      <rect class="cls-1" width="445.89" height="348.61"/>
    </clipPath>
  </defs>
  <g id="Layer_1-2" data-name="Layer 1">
    <g class="cls-8">
      <path class="cls-2" d="M27.33,224.9L0,276.58h12.22l5.6-10.88h30.96l5.61,10.88h12.22l-27.31-51.68h-11.97ZM43.31,255.42h-19.97l10.05-18.87,9.92,18.87ZM145.52,260.01c0,5.68-2.55,10.14-7.57,13.24-4.8,2.96-11.69,4.46-20.49,4.46-12.71,0-22.76-2.88-29.92-8.53l-1.15-.92,6.15-8.09,1.14.7c7.36,4.5,15.37,6.78,23.83,6.78,5.46,0,9.68-.74,12.58-2.2,2.47-1.24,3.68-2.85,3.68-4.91,0-1.48-.5-3.61-4.81-4.73-1.93-.5-7.44-1.06-16.39-1.63-8.31-.56-14.02-1.67-17.45-3.4-4.29-2.15-6.47-5.77-6.47-10.8s2.41-9.19,7.14-12.11c4.48-2.77,10.85-4.19,18.9-4.19,10.74,0,19.89,2.51,27.19,7.46l1.43.97-6.82,7.58-1.02-.53c-6.98-3.55-14.18-5.35-21.39-5.35-4.73,0-8.36.54-10.81,1.63-3.09,1.35-3.09,2.95-3.09,3.47,0,.93.34,2.28,3.24,3.28,1.92.68,5.1,1.14,9.47,1.41,6.85.45,11.23.8,13.42,1.08,6.41.85,11.07,2.41,14.23,4.78,3.3,2.51,4.97,6.06,4.97,10.55M215.34,224.9h-40.09v51.68h11.07v-18.54h27.47c6.12,0,10.9-1.42,14.18-4.2,3.37-2.82,5.08-6.95,5.08-12.23s-1.64-9.11-4.85-12.14c-3.17-3.03-7.51-4.55-12.86-4.55M213.92,247.76h-27.61v-12.6h27.07c7.43,0,8.38,3.52,8.38,6.58,0,2.8-.89,6.02-7.84,6.02M259.5,224.9h11.06v51.68h-11.06v-51.68ZM259.5,213.71h11.06v6.56l-11.06,4.11v-10.67ZM357.81,252.71c2.64-2.79,3.99-6.49,3.99-10.98,0-5.12-1.63-9.25-4.85-12.28-3.18-3.03-7.57-4.55-13.07-4.55h-39.88v51.68h11.07v-18.54h22.4l28.97,31.93h6.51l-22.78-32.85c3.13-.85,5.69-2.32,7.64-4.4M315.07,235.16h26.86c7.6,0,8.58,3.52,8.58,6.58,0,2.8-.9,6.02-7.83,6.02h-27.61v-12.6ZM445.89,266.32v10.25h-53.95v-51.68h52.08v10.26h-41.01v9.5h28.5v10.27h-28.5v11.39h42.88Z"/>
      <path class="cls-2" d="M170.83,347.76h-32.3v-5.08l23.13-18.76h-22.8v-5.07h30.89v5.12l-23.09,18.67,24.18.05v5.08ZM217.47,333.23c0,4.74-2.02,8.59-6.06,11.56-3.45,2.54-7.76,3.81-12.93,3.81s-9.49-1.27-12.97-3.81c-4.05-2.94-6.07-6.8-6.07-11.56s2.04-8.52,6.11-11.47c3.57-2.6,7.88-3.9,12.93-3.9s9.31,1.3,12.88,3.9c4.08,2.98,6.11,6.8,6.11,11.47M211.59,333.21c0-2.98-1.22-5.44-3.67-7.37-2.45-1.93-5.61-2.9-9.47-2.9s-7.07.97-9.54,2.92c-2.47,1.94-3.69,4.4-3.69,7.35s1.2,5.56,3.62,7.47c2.42,1.9,5.62,2.85,9.61,2.85s7.13-.95,9.54-2.85c2.4-1.9,3.6-4.39,3.6-7.47M262.84,347.76h-8.42l-19.65-24.11v24.11h-5.64v-28.91h8.4l19.66,24.12v-24.12h5.64v28.91ZM307.35,347.76h-31.12v-28.91h30.04v5.07h-24.4v6.25h16.98v5.08h-16.98v7.43h25.48v5.08Z"/>
    </g>
    <g class="cls-4">
      <rect class="cls-3" x="126.84" y="-5" width="245.75" height="146.8" transform="translate(-.27 1) rotate(-.23)"/>
    </g>
    <g class="cls-7">
      <rect class="cls-6" x="139.98" y="15.77" width="228.54" height="157.98" transform="translate(-.38 1.02) rotate(-.23)"/>
    </g>
    <g class="cls-5">
      <path class="cls-2" d="M74.68,115.75c12.52,7.3,25.66,13.67,39.38,18.19,29.39,9.67,56.92,9.78,82.69,3.08,31.83-8.29,58.1-24.44,84.65-48.4,24.39-22.02,51.61-49.94,77.34-69.11,3.44-2.54,10.19-7.65,10.19-7.65-34.74,27.19-60.7,55.62-85.53,79.16-26.53,25.17-51.76,44.75-85.01,51.27-21.06,4.13-43.87,4.95-63.26.43-14.72-3.45-38.59-11.92-60.23-26.02-.07-.37-.14-.57-.22-.96"/>
    </g>
  </g>
</svg>