<?xml version="1.0" encoding="UTF-8"?>
<svg id="Layer_2" data-name="Layer 2" xmlns="http://www.w3.org/2000/svg" viewBox="0 0 373.26 70.21">
  <defs>
    <style>
      .cls-1 {
        fill: #231f20;
      }
    </style>
  </defs>
  <g id="Layer_1-2" data-name="Layer 1">
    <g>
      <polygon class="cls-1" points="357.67 1.46 355.06 1.46 355.37 0 362.49 0 362.18 1.46 359.57 1.46 358.01 8.78 356.11 8.78 357.67 1.46"/>
      <polygon class="cls-1" points="363.35 0 366.42 0 366.92 6.39 370.28 0 373.26 0 371.4 8.78 369.53 8.78 371.13 1.25 367.13 8.78 365.58 8.78 364.84 1.25 363.24 8.78 361.48 8.78 363.35 0"/>
      <path class="cls-1" d="M103.3,67.83c.29.02.74.03,1.05.03,1.15,0,2.16-.09,3.11-.87,1.29-1.06,1.76-2.94,1.89-3.55.38-1.77.12-3.41-1.47-3.88-.52-.16-1.22-.24-2.78-.17l-1.8,8.45ZM102.8,57.34l4.16.02c.7,0,2.82.02,4.09,1.13,1.34,1.17,1.47,3.15,1.09,4.94-.82,3.87-3.33,5.89-5.81,6.32-.49.09-1.02.14-2.29.14h-3.92l2.68-12.55Z"/>
      <polygon class="cls-1" points="116.45 57.36 117.83 63.09 121.69 57.36 124.46 57.36 118.52 65.32 117.54 69.9 114.88 69.9 115.86 65.29 113.3 57.36 116.45 57.36"/>
      <polygon class="cls-1" points="125.9 57.31 129.8 57.31 132.41 67.22 134.52 57.31 137.03 57.31 134.34 69.9 130.64 69.9 127.98 59.45 125.76 69.9 123.22 69.9 125.9 57.31"/>
      <path class="cls-1" d="M144.43,65.14l-.6-5.36-3,5.36h3.6ZM146.03,57.31l1.69,12.59h-2.72l-.33-2.72h-4.98l-1.52,2.72h-2.58l7.23-12.59h3.2Z"/>
      <polygon class="cls-1" points="151.81 57.31 156.21 57.31 156.93 66.47 161.75 57.31 166.04 57.31 163.35 69.9 160.67 69.9 162.97 59.1 157.24 69.9 155.01 69.9 153.95 59.1 151.65 69.9 149.13 69.9 151.81 57.31"/>
      <polygon class="cls-1" points="168.26 57.27 170.95 57.27 168.26 69.9 165.56 69.9 168.26 57.27"/>
      <path class="cls-1" d="M179.46,61.42c.04-.43.26-2.21-1.57-2.21-2,0-3.28,2.09-3.84,4.68-.16.75-.92,4.32,1.71,4.32,1.13,0,2.36-.71,2.77-2.39h2.84c-.21.75-.53,1.92-1.76,2.96-1.36,1.15-2.83,1.41-3.98,1.41-4.34,0-5.06-3.2-4.4-6.32.85-3.99,3.64-6.63,7.18-6.63,2.75,0,4.33,1.67,3.79,4.18h-2.75Z"/>
      <path class="cls-1" d="M191.08,63h1.08c.87,0,2.49,0,2.9-1.92.36-1.71-1.08-1.71-1.85-1.71h-1.36l-.77,3.62ZM189.62,57.34h3.88c1.81,0,3.3.12,4.08,1.38.49.8.41,1.71.27,2.35-.31,1.46-1.18,2.7-2.31,3.34-1.05.59-2.32.59-2.98.59h-1.83l-1.04,4.89h-2.74l2.67-12.55Z"/>
      <path class="cls-1" d="M201.52,67.22c.27.52.81,1.01,2.06,1.01,1.1,0,1.93-.38,2.6-1.17.55-.63,1.19-1.6,1.62-3.61.13-.61.27-1.48.17-2.25-.2-1.55-1.11-2.23-2.4-2.23-1.01,0-1.9.42-2.54,1.06-.9.87-1.4,2.23-1.7,3.66-.25,1.2-.35,2.54.19,3.52M205.97,57.05c1.34,0,3.12.31,4.06,1.71,1.01,1.53.86,3.5.59,4.74-.39,1.83-1.36,3.78-2.63,4.93-1.73,1.57-3.81,1.79-4.86,1.79-1.66,0-3.2-.52-4.09-1.72-1.06-1.46-.79-3.55-.55-4.7.71-3.34,2.95-6.74,7.48-6.74"/>
      <polygon class="cls-1" points="215.37 57.36 215.32 66.78 219.78 57.36 222.83 57.36 223.03 66.78 227.08 57.36 229.65 57.36 223.77 69.93 220.77 69.93 220.54 60.32 216.04 69.93 212.97 69.93 212.59 57.36 215.37 57.36"/>
      <polygon class="cls-1" points="231.04 57.31 239.47 57.31 239.03 59.36 233.3 59.36 232.66 62.36 238.03 62.36 237.59 64.41 232.22 64.41 231.5 67.81 237.42 67.81 236.98 69.9 228.36 69.9 231.04 57.31"/>
      <path class="cls-1" d="M242.93,62.81h2.18c.31,0,.94,0,1.45-.35.22-.14.82-.57,1.01-1.46.18-.85-.15-1.25-.36-1.41-.36-.3-.86-.3-1.72-.3h-1.81l-.75,3.52ZM241.43,57.31h4.82c1.4-.02,2.81-.02,3.63.85.64.68.76,1.6.58,2.42-.5,2.35-2.64,2.91-3.28,3.08,1.86.17,1.77,1.25,1.65,2.89-.12,1.48-.15,2.09-.14,2.44.02.56.09.7.19.9h-2.98c.03-.7.32-3.88.25-4.37-.09-.71-.75-.71-1.21-.71h-2.37l-1.08,5.08h-2.75l2.68-12.59Z"/>
      <polygon class="cls-1" points="133.95 43.88 138.64 33.58 118.18 33.6 128.52 .02 110.57 .02 96.79 43.88 133.95 43.88"/>
      <polygon class="cls-1" points="102.46 10.3 89.9 10.3 79.47 43.88 61.31 43.88 71.74 10.3 56.98 10.3 60.2 .01 105.69 .01 102.46 10.3"/>
      <path class="cls-1" d="M28.45,22.81l6.07-12.44h2.24l-.32,12.44h-7.99ZM51.51,0H16.77l-6.17,10.29h8.35S0,43.87,0,43.87h18.08l5.33-10.87h12.71l-.14,10.86h17.68S51.51,0,51.51,0Z"/>
      <path class="cls-1" d="M220.72,43.88c10.03,0,15.65-3.68,18.23-13.59,1.25-4.86,1.19-8.71-1.03-10.97-1.97-2.04-5.36-3.03-10.34-3.03h-9.94c-3.18,0-3.43-1.36-3.37-1.9.22-1.98.96-4.91,7.08-4.91h5.81l-.7,2.62h13.07L243.14.01h-28.61c-10.05,0-15.97,3.81-18.08,12.75-1.14,4.82-.6,9.27,1.82,11.65,2.1,2.12,5.55,3.15,10.48,3.15h9.73c2.68,0,2.77,1.43,2.55,2.31-1.02,4.05-3.86,4.47-8.2,4.47h-5.9l.8-2.59h-13.15l-3.91,12.13h30.04Z"/>
      <path class="cls-1" d="M250.63,17.08l-1.22,4.05h40.21c2.37-.67,4.68-1.95,6.31-4.05h-45.3Z"/>
      <path class="cls-1" d="M279.33,11.24c.08.62-.01,1.36-.27,2.21-.23.73-.51,1.33-.83,1.84h18.78c.52-1.08.87-2.3,1.01-3.71.01-.12.01-.22.03-.34h-18.72Z"/>
      <path class="cls-1" d="M246.71,9.45h24.03l.03-.07h6.02c.29,0,.53.03.78.07h20.56c.01-1.51-.14-2.87-.52-4.05h-49.66l-1.24,4.05Z"/>
      <path class="cls-1" d="M296.79,3.6c-1.56-2.42-4.59-3.7-9.79-3.58h-37.4l-1.09,3.58h48.29Z"/>
      <path class="cls-1" d="M247.67,26.97h17.94l.1-.38h6.04c.69,0,1.21.14,1.62.38h20.22c-.23-1.72-.97-3.1-2.12-4.05h-42.59l-1.21,4.05Z"/>
      <path class="cls-1" d="M274.3,28.76c.02.56-.07,1.18-.28,1.9-.27.88-.62,1.59-1.05,2.15h19.82c.1-.33.22-.66.32-1,.31-1.08.49-2.1.54-3.05h-19.35Z"/>
      <path class="cls-1" d="M245.39,34.6l-1.22,4.04h45.51c1-1.18,1.81-2.55,2.44-4.04h-46.72Z"/>
      <polygon class="cls-1" points="269.07 15.29 270.22 11.24 252.37 11.24 251.16 15.29 269.07 15.29"/>
      <path class="cls-1" d="M243.63,40.44l-1.03,3.44h33.21c5.48,0,9.32-1.27,12.03-3.44h-44.21Z"/>
      <polygon class="cls-1" points="247.13 28.76 245.9 32.81 263.94 32.81 265.09 28.76 247.13 28.76"/>
      <polygon class="cls-1" points="293.55 38.63 311.59 38.63 315.43 34.59 297.72 34.59 293.55 38.63"/>
      <polygon class="cls-1" points="309.78 22.91 305.6 26.96 332.96 26.96 330.42 22.91 309.78 22.91"/>
      <polygon class="cls-1" points="337.74 34.59 318.49 34.59 320.61 38.63 340.3 38.63 337.74 34.59"/>
      <polygon class="cls-1" points="333.09 17.08 308.34 17.08 310.76 21.12 329.25 21.12 333.09 17.08"/>
      <polygon class="cls-1" points="346.96 3.6 350.67 0 332.36 0 328.95 3.6 346.96 3.6"/>
      <polygon class="cls-1" points="303.75 28.76 299.57 32.8 336.61 32.8 334.06 28.76 303.75 28.76"/>
      <polygon class="cls-1" points="291.7 40.44 288.15 43.86 306.64 43.86 309.89 40.44 291.7 40.44"/>
      <polygon class="cls-1" points="321.56 40.44 323.36 43.86 343.49 43.86 341.4 40.44 321.56 40.44"/>
      <polygon class="cls-1" points="319.65 3.6 317.73 .03 298.12 .03 300.25 3.6 319.65 3.6"/>
      <polygon class="cls-1" points="304.83 11.24 307.26 15.28 334.93 15.28 339.1 11.24 304.83 11.24"/>
      <polygon class="cls-1" points="301.33 5.4 303.75 9.45 322.8 9.45 320.63 5.4 301.33 5.4"/>
      <polygon class="cls-1" points="327.25 5.4 323.42 9.45 340.95 9.45 345.12 5.4 327.25 5.4"/>
      <path class="cls-1" d="M164.5,22.81l4.71-12.44h2.23l-.32,12.44h-6.63ZM186.21,0h-34.29l-6.16,10.29h7.9s-15.33,33.57-15.33,33.57h18.09l4.18-10.87h10.23l-.17,10.86h17.7S186.21,0,186.21,0Z"/>
    </g>
  </g>
</svg>