<?xml version="1.0" encoding="UTF-8"?>
<svg id="Layer_2" data-name="Layer 2" xmlns="http://www.w3.org/2000/svg" viewBox="0 0 247.75 187.35">
  <defs>
    <style>
      .cls-1 {
        fill: #8d1737;
      }
    </style>
  </defs>
  <g id="Layer_1-2" data-name="Layer 1">
    <g>
      <path class="cls-1" d="M9.57,172.02h-.07c-.84,0-1.45-.21-1.86-.61-.32,1.39-1.78,2.32-3.47,2.32-2.06,0-3.69-1.52-3.69-3.52v-1.24h1.44v1.1c0,1.38.82,2.31,2.28,2.31,1.11,0,2.18-.7,2.18-1.66,0-.55-.46-.91-.96-.91-.08,0-.16.01-.25.03v-1.26s.21-.01.63-.01c1.04,0,1.82.48,2.31,1.42.25.47.61.63,1.23.63h.23v1.38ZM4,175.88h-1.29v-1.19h1.29v1.19ZM5.94,175.88h-1.28v-1.19h1.28v1.19Z"/>
      <path class="cls-1" d="M15.5,170.55c0,1.38-.93,2.35-2.37,2.35-.88,0-1.54-.3-1.96-.89h-1.86v-1.38h1.43c0-1.48.85-2.41,2.33-2.41s2.42.92,2.42,2.33M14.06,170.61c0-.82-.31-1.23-.92-1.23h-.1c-.53,0-.89.48-.89,1.17s.35,1.19.97,1.19c.57,0,.94-.46.94-1.13"/>
      <path class="cls-1" d="M23.56,172.02h-7.02v-1.38h1.55l-1.3-4.57h1.53l1.27,4.57h.13c.33,0,.56-.16.67-.45.04-.08.06-.26.06-.54v-4.27h1.43v4.22c0,.37-.05.72-.17,1.04h1.84v1.38Z"/>
      <path class="cls-1" d="M22.92,172.02v-1.38h1.3c.33,0,.56-.16.67-.45.04-.08.06-.26.06-.54v-2.3h1.45v2.25c0,.38-.06.73-.18,1.04h.92c.49,0,.73-.31.73-.93v-2.36h1.44v2.25c0,.38-.06.73-.18,1.04h.92c.48,0,.73-.31.73-.93v-2.36h1.45v2.24c0,.8-.25,1.43-.75,1.89-.4.36-.87.55-1.38.55h-7.2Z"/>
      <path class="cls-1" d="M38.62,170.33c0,.51-.17.91-.51,1.23-.34.31-.76.46-1.27.46h-3.42v-1.38h1.54l-1.3-4.57h1.53l1.28,4.57c.49-.01.73-.36.73-1.05v-4.21h1.42v4.95ZM35.4,174.07h-1.86v-.53h.41c-.03-.1-.05-.2-.05-.28,0-.46.33-.83.79-.83.32,0,.56.16.69.48l-.46.22c-.05-.13-.13-.21-.24-.21-.15,0-.24.1-.24.31,0,.15.04.26.13.29h.82v.54Z"/>
      <rect class="cls-1" x="39.67" y="165.36" width="1.44" height="6.65"/>
      <path class="cls-1" d="M53.12,172.02h-.07c-.84,0-1.45-.21-1.86-.61-.32,1.39-1.79,2.32-3.47,2.32-2.06,0-3.69-1.52-3.69-3.52v-1.24h1.44v1.1c0,1.38.82,2.31,2.28,2.31,1.11,0,2.18-.7,2.18-1.66,0-.55-.46-.91-.96-.91-.08,0-.17.01-.25.03v-1.26s.21-.01.63-.01c1.04,0,1.82.48,2.31,1.42.25.47.61.63,1.23.63h.23v1.38ZM47.55,175.88h-1.29v-1.19h1.29v1.19ZM49.49,175.88h-1.28v-1.19h1.28v1.19Z"/>
      <path class="cls-1" d="M59.04,169.67c0,.7-.22,1.27-.65,1.7-.42.43-1,.65-1.71.65h-3.78v-1.38h1.55c-.11-.3-.17-.62-.17-.96,0-1.43.9-2.34,2.33-2.34.72,0,1.31.21,1.75.62.44.4.67.98.67,1.71M57.6,169.71c0-.82-.31-1.22-.92-1.22h-.1c-.29,0-.52.12-.68.38-.13.22-.21.48-.21.78,0,.34.07.61.23.83.18.25.42.37.74.37.3,0,.54-.11.71-.35.16-.22.23-.47.23-.79M57.21,166.55h-1.28v-1.19h1.28v1.19Z"/>
      <path class="cls-1" d="M63.2,172.02h-1.36c-1.1,0-1.74-.64-1.74-1.7v-4.95h1.44v4.2c0,.7.18,1.07,1.24,1.07h.42v1.38Z"/>
      <path class="cls-1" d="M69.76,172.02h-.84c-1,0-1.86-.12-2.58-.38-.72.26-1.58.38-2.58.38h-.94v-1.38h.94c.45,0,.73-.03.85-.08-.44-.51-.67-1.07-.67-1.69,0-.26.04-.53.12-.78.33-1,1.2-1.63,2.28-1.63s1.96.63,2.28,1.63c.08.26.12.53.12.78,0,.62-.23,1.19-.67,1.69.12.05.4.08.85.08h.84v1.38ZM66.01,165.55h-1.28v-1.19h1.28v1.19ZM66.85,169.95c.4-.29.6-.68.6-1.19,0-.65-.41-1.19-1.1-1.19-.34,0-.61.12-.83.36-.17.23-.27.51-.27.83,0,.5.2.9.6,1.19.16.12.33.23.49.31.16-.08.33-.19.5-.31M67.96,165.55h-1.28v-1.19h1.28v1.19Z"/>
      <path class="cls-1" d="M70.51,166.56h-1.28v-1.19h1.28v1.19ZM74.1,172.02h-4.65v-1.38h.95c.48,0,.73-.33.73-.99v-2.3h1.44v2.25c0,.38-.05.72-.17,1.04h1.69v1.38ZM71.47,164.86h-1.28v-1.19h1.28v1.19ZM72.45,166.56h-1.28v-1.19h1.28v1.19Z"/>
      <path class="cls-1" d="M76.89,170.03c0,.55-.16,1-.45,1.36-.34.42-.82.63-1.42.63h-1.36v-1.38h1.06c.48,0,.73-.34.73-1.01v-4.25h1.44v4.65Z"/>
      <rect class="cls-1" x="77.94" y="165.36" width="1.44" height="6.65"/>
      <path class="cls-1" d="M87.81,172.02h-5.19v-1.38h3.75c0-1.44-.78-2.08-2.62-2.08v-1.21c.91,0,1.55.06,1.93.2,1.4.49,2.14,1.53,2.14,3.08v1.39Z"/>
      <path class="cls-1" d="M94.75,172.02h-1.36c-.17,1.13-.95,1.7-2.35,1.7h-.15v-1.15h.12c.56,0,.89-.21,1-.61-.11.04-.4.06-.89.06-1.35,0-2.34-.98-2.34-2.35s.97-2.33,2.34-2.33,2.29.99,2.29,2.36v.94h1.34v1.38ZM91.96,170.64v-1c0-.61-.36-1-.89-1s-.84.42-.84.97c0,.59.35,1.03.89,1.03h.84Z"/>
      <path class="cls-1" d="M101.51,172.02h-1.65c-.42.59-1.07.89-1.93.89s-1.53-.3-1.96-.89h-1.58v-1.38h1.16c0-1.49.85-2.41,2.34-2.41s2.41.9,2.41,2.41h1.21v1.38ZM98.86,170.61c0-.82-.31-1.23-.92-1.23h-.1c-.53,0-.88.49-.88,1.17s.35,1.19.96,1.19.94-.43.94-1.13"/>
      <path class="cls-1" d="M109.57,172.02h-8.42v-1.38h5.86c-.03-.55-.23-1.01-.59-1.4-.4-.44-.94-.67-1.59-.67s-1.32.32-1.72.74c-.14-.2-.38-.52-.72-.98.7-.73,1.55-1.1,2.55-1.1.61,0,1.15.11,1.61.33,1.1.53,1.75,1.55,1.93,3.07h1.09v1.38Z"/>
      <path class="cls-1" d="M115.42,170.55c0,1.38-.93,2.35-2.37,2.35-.88,0-1.54-.3-1.96-.89h-1.86v-1.38h1.43c0-1.48.85-2.41,2.33-2.41s2.42.92,2.42,2.33M113.99,170.61c0-.82-.31-1.23-.92-1.23h-.1c-.53,0-.89.48-.89,1.17s.35,1.19.97,1.19c.57,0,.94-.46.94-1.13"/>
      <path class="cls-1" d="M124.72,170.22c0,2.03-1.33,3.51-3.26,3.51-1.82,0-3.26-1.53-3.26-3.51v-1.02h1.43v.89c0,1.34.71,2.3,1.84,2.3s1.79-.89,1.79-2.3v-4.71h1.45v4.85Z"/>
      <path class="cls-1" d="M127.78,164.49c-.24.29-.47.43-.71.43s-.89-.37-1.13-.37c-.16,0-.31.11-.47.34l-.21-.57c.22-.29.44-.43.68-.43s.98.38,1.11.38c.16,0,.33-.11.53-.34l.2.56ZM127.21,172.02h-1.44v-6.65h1.44v6.65Z"/>
      <path class="cls-1" d="M137.12,172.02h-6.69v-1.38h3.75c0-1.44-.78-2.08-2.62-2.08v-1.21c.91,0,1.55.06,1.93.2,1.42.51,2.14,1.53,2.14,3.08h1.5v1.39Z"/>
      <path class="cls-1" d="M137.89,173.73h-1.28v-1.2h1.28v1.2ZM139.93,170.03c0,.55-.16,1-.46,1.36-.34.42-.81.63-1.41.63h-1.23v-1.38h.92c.48,0,.73-.34.73-1.01v-2.28h1.44v2.68ZM139.84,173.73h-1.29v-1.2h1.29v1.2Z"/>
      <path class="cls-1" d="M143.66,171.07c0,.95-.24,1.63-.72,2.05-.44.4-1.17.6-2.16.6v-1.17c.95,0,1.42-.45,1.42-1.36v-3.85h1.45v3.72ZM143.56,166.56h-1.28v-1.19h1.28v1.19Z"/>
      <path class="cls-1" d="M154.63,172.02h-2.11c-.57,1.07-1.61,1.71-2.82,1.71-1.82,0-3.26-1.53-3.26-3.51v-2.88h1.45v2.74c0,1.36.69,2.3,1.82,2.3s1.81-.97,1.81-2.3v-2.74h1.44v3.29h1.67v1.38ZM150.41,166.56h-1.28v-1.19h1.28v1.19Z"/>
      <path class="cls-1" d="M157.35,170.03c0,.55-.16,1-.45,1.36-.34.42-.82.63-1.41.63h-1.23v-1.38h.92c.48,0,.73-.34.73-1.01v-2.28h1.44v2.68ZM157.27,173.73h-1.28v-1.2h1.28v1.2Z"/>
      <path class="cls-1" d="M171.78,170.03c0,1.12-.68,1.98-1.78,1.98h-4.64c-.83,0-1.4-.41-1.73-1.26-.26.4-.75.62-1.47.62-1.24,0-2.03-1.07-2.03-2.5,0-1.54.77-2.53,2.14-2.53,0-.01.92-.01,2.75-.01v3.25c0,.58.22,1.05,1.28,1.05.48,0,.73-.33.73-.99v-4.27h1.45v4.22c0,.38-.06.72-.18,1.04h1.32c.46,0,.7-.34.7-1.01v-4.25h1.45v4.65ZM163.53,168.76v-1.36h-.95c-.59,0-1.02.65-1.02,1.45,0,.72.41,1.32.99,1.32.61,0,.98-.57.98-1.41M168.7,163.8v.81c0,.35-.17.5-.51.5-.22,0-.37-.14-.47-.38-.12.3-.2.35-.49.35-.34,0-.5-.16-.5-.47v-.81h.42v.71c0,.1.04.16.11.16.16,0,.24-.13.24-.3v-.57h.42v.57c0,.18.08.31.25.31.07,0,.1-.06.1-.17v-.71h.42Z"/>
      <rect class="cls-1" x="172.82" y="165.36" width="1.44" height="6.65"/>
      <path class="cls-1" d="M182.07,172.02h-6.69v-1.38h3.75c0-1.44-.78-2.08-2.62-2.08v-1.21c.91,0,1.55.06,1.93.2,1.42.51,2.14,1.53,2.14,3.08h1.5v1.39Z"/>
      <path class="cls-1" d="M186.42,172.02h-4.65v-1.38h.95c.48,0,.73-.33.73-.99v-2.3h1.45v2.25c0,.38-.06.72-.18,1.04h1.69v1.38ZM184.76,173.73h-1.28v-1.2h1.28v1.2Z"/>
      <path class="cls-1" d="M191.97,172.02h-5.81v-1.38h1.63c-.13-.36-.21-.69-.21-.99,0-.67.22-1.25.65-1.72.44-.47,1-.71,1.68-.71.88,0,1.62.5,1.98,1.31l-1.19.55c-.13-.4-.4-.61-.83-.61-.29,0-.51.11-.67.35-.14.2-.22.45-.22.76,0,.55.2.91.58,1.06h2.39v1.38Z"/>
      <path class="cls-1" d="M201.75,172.02h-.08c-1.5,0-2.54-.72-3.02-2.06h-.95c-1,0-1.5.4-1.5,1.21,0,.75.5,1.12,1.5,1.12h1.06v1.43h-.96c-2.01,0-3.04-.99-3.04-2.59,0-1.35.84-2.33,2.15-2.55.24-.04.73-.04,1.5-.05-.19-.92-.74-1.37-1.66-1.37-.23,0-.43.04-.63.11v-1.28c.24-.05.48-.08.72-.08,1.85,0,2.9,1.13,3.02,3.15.19,1.07.76,1.58,1.72,1.58h.17v1.38ZM198.39,165.37h-1.29v-1.2h1.29v1.2Z"/>
      <path class="cls-1" d="M202.62,173.73h-1.28v-1.2h1.28v1.2ZM206.23,172.02h-4.64v-1.38h.95c.48,0,.72-.33.72-.99v-2.3h1.45v2.25c0,.38-.05.72-.17,1.04h1.68v1.38ZM204.56,173.73h-1.28v-1.2h1.28v1.2Z"/>
      <path class="cls-1" d="M216.62,172.02h-10.83v-1.38h1.3c.47,0,.73-.26.73-.98v-2.31h1.45v2.25c0,.38-.06.73-.18,1.04h.92c.48,0,.73-.31.73-.93v-2.36h1.44v2.25c0,.38-.06.73-.18,1.04h.92c.48,0,.73-.31.73-.93v-2.36h1.45v2.24c0,.38-.06.73-.19,1.05h1.68v1.38ZM211.11,166.56h-1.29v-1.19h1.29v1.19ZM212.05,164.86h-1.28v-1.19h1.28v1.19ZM213.04,166.56h-1.28v-1.19h1.28v1.19Z"/>
      <path class="cls-1" d="M219.4,170.03c0,.55-.15,1-.45,1.36-.34.42-.82.63-1.42.63h-1.36v-1.38h1.06c.48,0,.73-.34.73-1.01v-4.25h1.44v4.65Z"/>
      <rect class="cls-1" x="220.45" y="165.36" width="1.44" height="6.65"/>
      <path class="cls-1" d="M229.41,172.02h-1.6c-.24,1.14-1.17,1.7-2.81,1.7v-1.17c.95,0,1.42-.45,1.42-1.36v-3.85h1.45v3.29h1.53v1.38ZM227.79,166.56h-1.28v-1.19h1.28v1.19Z"/>
      <path class="cls-1" d="M236.25,172.02h-7.51v-1.38h5.94c-.15-1.12-1-1.97-2.09-1.97h-2.6l2.06-3.29h1.71l-1.3,1.96h.79c1.97.21,2.99,1.72,2.99,4.15v.54Z"/>
      <path class="cls-1" d="M241.51,172.02h-1.6c-.24,1.13-1.17,1.7-2.81,1.7v-1.16c.95,0,1.42-.45,1.42-1.36v-3.85h1.45v3.29h1.53v1.38Z"/>
      <path class="cls-1" d="M247.27,170.55c0,1.38-.93,2.35-2.37,2.35-.88,0-1.54-.3-1.96-.89h-1.86v-1.38h1.43c0-1.48.85-2.41,2.33-2.41s2.42.92,2.42,2.33M245.84,170.61c0-.82-.31-1.23-.92-1.23h-.1c-.53,0-.89.48-.89,1.17s.35,1.19.97,1.19c.57,0,.94-.46.94-1.13"/>
      <path class="cls-1" d="M137.14,19.82l-.52-.88s.09-.1.04-.11l-.13-.02-.08-.12v-.06s0,0,0,0l.1-.06h.12s-.12,0-.12,0l-.11-.03-.05-.13.05.13v.09s0,.03,0,.03l-.19-.26-.24-.25-.55-.51c-.7-.75-.46.03.7.84.44.28.66,1.22.78,1.74-.25.76-3.35.26-3.43.27-1.16-.05-.67-3.89-3.69-6.7-.34-.99,3.17-.78,3.56-.44.45.13.54.1,1.11.45.58.53,1.12,1.09,1.77,1.6.25.32.27.77.36,1.11.11.22.39.34.51.49.18.25.3.5.29.79l-.32-.74c-.12-.18-.21.33-.2.47-.02.08.31-.02.29.06.09.1.01.27.01.43-.03.08.22-.07.21-.03.03.19-.22.5-.1.56l.24.15.09.12-.02.12-.3.1.17.1-.17-.1.3-.1-.04.86h-.02c-.04-.13-.14-.25-.37-.3.09.03.16-.01.14-.09h-.16c-.01.16-.03.31.22.32l-.05.11.21-.04.02.08c-.16,0-.42-.08-.42-.08"/>
      <path class="cls-1" d="M136.42,18.56v.07s-.16-.22-.16-.22c.15-.03.15.06.16.15"/>
      <polygon class="cls-1" points="116.65 97.21 116.95 97 116.84 97.16 116.65 97.21"/>
      <polygon class="cls-1" points="117.23 96.79 117.29 96.76 117.34 96.74 117.23 96.79"/>
      <path class="cls-1" d="M117.8,96.47l-.28.18.28-.18Z"/>
      <polygon class="cls-1" points="117.39 96.81 117.35 96.74 117.34 96.74 117.52 96.65 117.39 96.81"/>
      <path class="cls-1" d="M117.39,96.81l-.06.13.06-.13Z"/>
      <path class="cls-1" d="M117.89,97.32c.06-.02-.05-.18.08-.21l.8-.28c.13-.02.21-.3.34-.32.3-.09,1.1-.2.69,0-.61.28-1.03.42-1.58.68l-1.34.61-.33.24.4-.38c.19-.19.58-.15.94-.34"/>
      <path class="cls-1" d="M114.45,98.84c.07-.02.2-.06.2-.06.15-.28.44-.4.72-.52l-.05.16c-.15.09-.2.05-.1-.07-.22.29-.48.49-.78.67-.01-.05-.06-.1,0-.18"/>
      <polygon class="cls-1" points="114.27 99.12 114.44 99.02 114.45 99.04 114.26 99.12 114.27 99.12"/>
      <path class="cls-1" d="M119.1,96l2.17-1.13.19-.03.14-.15.3-.17.11-.04h0c.07,0,.06.03.04.07l-.08.12.08-.12.15-.12.31-.11-.31.11-.19.05h-.06s.72-.31.72-.31l.16-.04c.19-.04.37-.09.45-.22l.13-.06-.02.03.04-.04.55-.24.41-.04.09-.14h.24s-.21.27-.21.27c-.09.14-.35-.08-.43.15.08-.23.34-.01.43-.15l.21-.26c.19-.03.4-.16.55-.32-.26,0-.42.16-.55.32h-.24s-.09.13-.09.13l-.41.04,1.08-.48c2.37-1.03,4.68-1.68,7.26-2.39,1.41-.35,2.74-.82,4.08-1.14,2.66-.73,5.16-.8,7.86-1.59,1.04-.3,3.02-.33,4.04-.4,1.39.22.73,1.13.67,1.18-.78.79-1.46.44-3.12,1,1.13-.32-.9-.43-1.93.22-1.47.95-3.77.57-5.64,1.13l-1.54.29c-2.88.82-5.65,1.11-8.62,2.13-.8.23-1.55.26-2.23.44-.49.16-.96.45-1.35.59-.61.24-1.16.38-1.69.49.58-.19,1.01-.3,1.64-.51.42-.15-.38-.12-.68-.07-.13,0-.24.28-.37.29l-.83.17c-.14,0-.04.18-.11.19-.39.12-.76.04-.98.21l-.45.33-.29.16-.22.06v-.23s-.3.23-.3.23l.3-.23v.23s-1.68.51-1.68.51v-.02c.31-.14.59-.3.85-.57-.11.11-.07.15.09.08l.07-.15c-.3.09-.59.18-.78.43,0,0-.14.02-.2.03-.07.07-.04.12-.03.18l-.18.08c.08-.15.41-.47.41-.47"/>
      <path class="cls-1" d="M122.21,94.43l-.16.04.6-.27c-.07.13-.26.18-.44.22"/>
      <polygon class="cls-1" points="123.02 67.9 123.17 67.78 123.14 67.89 123.02 67.9"/>
      <polygon class="cls-1" points="123.31 67.66 123.34 67.64 123.38 67.64 123.31 67.66"/>
      <path class="cls-1" d="M123.62,67.5l-.15.1.15-.1Z"/>
      <polygon class="cls-1" points="123.43 67.7 123.38 67.64 123.38 67.64 123.48 67.6 123.43 67.7"/>
      <path class="cls-1" d="M123.43,67.7v.1s0-.1,0-.1Z"/>
      <path class="cls-1" d="M123.92,68.22s-.08-.16,0-.16l.44-.14c.08,0,.04-.24.12-.25.16-.05.63-.06.44.07l-.8.43-.77.25-.16.14.18-.24c.08-.12.37-.02.57-.1"/>
      <path class="cls-1" d="M121.92,68.83h.13c.03-.21.2-.26.36-.31v.12c-.08.04-.12,0-.08-.07-.07.2-.2.32-.36.41l-.05-.15Z"/>
      <polygon class="cls-1" points="121.87 69.03 121.97 68.98 121.98 68.99 121.87 69.03 121.87 69.03"/>
      <path class="cls-1" d="M124.31,67.23l1.04-.77h.11s.04-.12.04-.12l.14-.11.06-.02h0l.05.07v.1s0-.1,0-.1l.05-.1.16-.07-.16.07-.1.03h-.03s.35-.23.35-.23l.08-.03c.1-.02.2-.05.21-.16l.06-.04v.02s.01-.03.01-.03l.26-.17h.24s.01-.12.01-.12l.15.03-.06.22c-.01.12-.24-.1-.22.1-.02-.2.2.02.22-.1l.06-.22c.11-.02.2-.11.24-.24-.15-.01-.21.11-.24.24l-.15-.03v.12s-.25,0-.25,0l.53-.34c1.15-.72,2.24-1.38,3.51-2l1.95-1.1c1.24-.8,2.56-1.01,3.75-1.97.46-.36,1.47-.62,1.98-.79.79.07.72,1,.7,1.06-.17.84-.63.57-1.32,1.28.49-.44-.58-.29-.95.38-.51,1-1.85.82-2.7,1.41l-.75.35c-1.34.85-2.84,1.07-4.23,1.94-.38.2-.81.21-1.18.3l-.65.41c-.3.16-.6.23-.89.29l.86-.31c.21-.1-.27-.15-.44-.12-.08,0-.06.23-.14.23l-.46.08c-.08,0,.03.16-.01.16-.2.08-.46-.04-.55.09l-.18.24-.14.11-.12.03-.07-.21-.12.17.12-.17.07.21-.91.27v-.02c.15-.09.28-.2.36-.41-.04.08,0,.12.08.08v-.12c-.16.04-.32.09-.36.3h-.12s.03.16.03.16l-.1.05c0-.12.12-.36.12-.36"/>
      <path class="cls-1" d="M125.8,66.16l-.08.03.29-.19c0,.11-.11.13-.21.16"/>
      <path class="cls-1" d="M127.03,47.02c.17-.48,1.25-1,1.66-1.35l.38-.29c.08-.07-.11.06-.38.29l-.47.29c.18-.25.35-.5.47-.69l.36-.19,1.6-.81c.19-.12.63-.3.8-.45l-2.42,1.07.05-.05,1.23-.67.21-.11-.21.11-.6.19-.38.23-.25.25-.18.11h-.06s0,0,0,0c.02-.38,1.5-1.42,1.8-1.48.23-.05.52.12.77.06.08-.02.13-.11.21-.08l.1.07c.17-.04.28-.25.44-.18.1.02.15-.67.21-.56.21.4.06.11.26,0,.02-.02.16.13.21.1.14-.16.24-.03.45-.04.34.05.32-.24.66-.05.04.02.5.07.5.07.31-.13.56.02.73-.35.35.21.68-.16,1.01-.17.33,0,.42-.24.68-.47l.18-.1c.04-.07.18.08.25.04l-.03-.12.1-.06v-.09s0-.22,0-.22l.34-.21.37.15.04.15.11.07.05.33.18.96c0,.09-.19.15-.26.32-.01.05.04.16.07.27-.11.02-.1.15-.05.25l-.05.03.04.16c-.25.19-.5.53-.77.42l-.23-.13-.11.07-.11-.35c-.17.15-.54.42-.61,0-.15.04-.22-.15-.39-.14l-.77.08-.43.1-.16.04c-1.06.3-1.74.76-2.85.87-2.29.14-4.13,2.05-4.58,2.34l-.21-.08Z"/>
      <path class="cls-1" d="M101,130.13c2.05.17,8.47-1.25,11.31-1.64,1.09-.19,1.92-.32,2.55-.4.53-.06-.68.15-2.55.4-.83.15-1.8.33-2.94.55,1.47-.07,2.89-.12,3.9-.14l2.18-.45c3.23-.72,6.41-1.14,9.65-1.63,1.18-.15,3.72-.61,4.88-.69-4.72.86-9.48,1.54-14.18,2.55l.39-.04c2.47-.52,4.99-.78,7.48-1.18l1.29-.19-1.29.19c-1.1.2-2.16.46-3.36.7l-2.36.3-1.77.18-1.11.21-.34.1h.02c1.01.18,10.49-.8,12.02-1.18,1.22-.3,2.27-.94,3.64-1.24.46-.1.86-.06,1.2-.22.02-.07.19-.16.36-.24.91-.2,1.87-.13,2.54-.46.48-.17,2.04.72,2.12.5.27-.78.07-.21,1.26-.31.14,0,.56-.37.85-.37.98.04,1.23-.24,2.32-.48,1.6-.47,2.02-.05,3.41-.72.17-.08,2.4-.7,2.4-.7,1.79-.19,2.84-.71,4.29-.4,1.55-.65,3.76-.3,5.46-.56,1.71-.25,2.46.04,3.99.21.43,0,.75-.06,1.01.02.26.08.84-.27,1.27-.26l-.09.21h.58c.15.01.11.08.09.15-.06.14-.12.28.14.35l1.85.08,1.79-.52.14-.27.52-.2c.09-.21.04-.42.1-.56-.04-.56.66-1.19.44-1.69-.08-.14-1.13-.09-1.62-.31-.11-.07.12-.28.21-.49-.61.06-.66-.15-.43-.36-.15,0-.29,0-.29,0,.03-.07.12-.28.12-.28-1.57-.1-3.34-.41-4.83,0-.32.06-.85.27-1.2.4-.18.07-.58,0-.73-.01-.24.21-.18.42-.26.63-1.14-.09-3.59-.2-3.44.51-.9.06-1.04.4-1.97.53-1.23.18-2.8.36-4.33.63l-2.46.39-.88.13c-6.08,1.01-10.72.87-16.53,2.62-11.75,3.07-25.04,4.75-28.03,5.24l-.79.44Z"/>
      <path class="cls-1" d="M101.97,145.6l.73-.14-.35.18c-.15.07-.25,0-.38-.04"/>
      <polygon class="cls-1" points="103.37 145.33 103.5 145.3 103.61 145.31 103.37 145.33"/>
      <path class="cls-1" d="M104.65,145.19l-.65.1.65-.1Z"/>
      <path class="cls-1" d="M103.65,145.45c.07-.06.1-.12-.03-.13h0l.39-.02-.35.16Z"/>
      <path class="cls-1" d="M103.65,145.45l-.21.16.21-.16Z"/>
      <path class="cls-1" d="M104.17,146.55c.13.01.05-.31.31-.28.61-.01,1.15.05,1.7-.05.27.03.6-.4.87-.37.61-.01,2.21.17,1.31.3-1.36.18-2.26.25-3.48.39l-3.01.1-.81.17,1.07-.34c.5-.18,1.2.13,2.03.07"/>
      <path class="cls-1" d="M96.62,146.72c.13.02.4.04.4.04.53-.33,1.14-.34,1.75-.35l-.24.21c-.34.04-.4-.05-.11-.17-.66.32-1.31.46-1.99.54.03-.1,0-.2.18-.27"/>
      <polygon class="cls-1" points="96.04 147.04 96.44 147 96.43 147.03 96.03 147.05 96.04 147.04"/>
      <path class="cls-1" d="M107.4,145.03c1.69-.27,3.28-.57,4.83-.89.13.04.23.1.38.03l.34-.18.67-.14.24-.02h0c.13.01.11.07.04.13l-.22.16.22-.16.35-.16.65-.1-.65.1-.39.03h-.11s1.54-.34,1.54-.34l.33-.03c.38-.02.76-.05.96-.25l.27-.06-.05.04.1-.05,1.16-.26.81.04s.16-.14.23-.21l.47.08-.53.38c-.23.21-.65-.22-.9.15.25-.36.67.07.9-.15l.53-.38c.38-.01.85-.16,1.2-.39-.5-.05-.88.16-1.2.39l-.47-.08c-.08.07-.23.21-.23.21l-.81-.04,2.31-.51c5.04-1.1,9.68-2.12,14.89-3.31,2.83-.64,5.49-1.44,8.11-2.24,5.18-1.59,10.18-2.26,15.27-4.39,1.96-.78,5.61-1.69,7.32-2.49,2.6-.48,2.03,1.3,1.92,1.43-1.07,1.71-2.53,1.81-5.66,3.4,2.14-1.09-1.87-.19-3.82,1.07-2.82,2.01-7.42,2.04-11.21,3.24-.94.3-1.97.48-3.11.77-5.84,1.85-11.53,2.36-17.78,3.76-1.67.35-3.19.31-4.63.4-1.04.13-2.1.5-2.94.65-1.31.24-2.46.33-3.57.39,1.22-.16,2.12-.24,3.47-.44.9-.15-.7-.3-1.31-.29-.27-.03-.6.41-.87.38-.55.1-1.09.05-1.7.07-.27-.03-.18.3-.31.28-.82.08-1.52-.23-2.02-.04l-1.07.35-.66.14h-.46c.1-.12.12-.25.14-.38l-.71.23.71-.23c-.02.13-.04.26-.14.38-1.1,0-2.36.03-3.53.08v-.03c.69-.08,1.33-.22,1.99-.54-.29.12-.24.21.11.17l.23-.21c-.61.01-1.22.02-1.75.35,0,0-.27-.03-.4-.04-.18.08-.15.18-.18.27l-.4.04c.25-.21,1.09-.57,1.09-.57"/>
      <path class="cls-1" d="M114.27,143.79l-.32.03,1.29-.28c-.2.2-.58.23-.96.25"/>
      <path class="cls-1" d="M148.32,109.43l-.02-1.27c.03.21.07.42.14.64.04.28-.04.42-.12.63"/>
      <path class="cls-1" d="M148.28,107v-.22c0-.07.02-.13.03-.19l-.03.42Z"/>
      <path class="cls-1" d="M148.47,103.72c.02.32,0,.64-.02.94-.02-.26-.02-.57.02-.94"/>
      <path class="cls-1" d="M148.48,106.55c-.06-.13-.12-.2-.16.02h0c.02-.21.04-.43.05-.65.02.24.06.45.11.63"/>
      <path class="cls-1" d="M148.48,106.55c.06.13.11.34.14.41-.05-.12-.1-.26-.14-.41"/>
      <path class="cls-1" d="M149.01,106c.04-.22-.35-.17-.26-.61.11-1.03.29-1.91.3-2.88.09-.44-.34-1.13-.25-1.57.11-1.03.65-3.67.62-2.11-.07,2.34-.18,3.86-.26,5.96-.16,1.7-.35,3.34-.5,5.09-.02.49.01.94.03,1.41-.06-.6-.12-1.22-.17-1.9-.1-.9.4-1.98.49-3.39"/>
      <path class="cls-1" d="M148.52,110c.04-.22.13-.66.13-.66-.28-.98-.16-2.01-.05-3.05l.19.46c-.02.59-.13.66-.22.13.23,1.2.27,2.34.22,3.5-.11-.07-.23-.06-.28-.38"/>
      <path class="cls-1" d="M148.78,99.83c.02-2.44.01-4.74-.01-6.99.06-.17.14-.29.1-.53-.06-.17-.09-.35-.11-.53v-.98s.01-.35.01-.35h0c.04-.19.09-.14.13-.03.03.13.07.25.12.34-.03-.06-.07-.23-.12-.34-.04-.15-.07-.33-.09-.53.02-.3.03-.61.02-.94-.04.36-.04.67-.02.94-.01.19-.03.37-.05.55l-.03.16-.04-2.24c0-.17.02-.34.03-.47.04-.54.09-1.08-.07-1.41v-.4s.02.08.02.08c0-.06-.02-.11-.03-.15l-.04-1.69c.06-.37.14-.74.19-1.12,0,0-.11-.25-.17-.36.08-.15.11-.37.1-.62.15.27.27.55.34.81.17.38-.32.85-.02,1.3-.3-.45.19-.92.02-1.3-.07-.27-.19-.54-.34-.81-.02-.52-.33-1.18-.79-1.45.28.55.54.99.79,1.45.01.25-.02.47-.1.62.06.11.17.36.17.36-.05.38-.13.76-.19,1.12-.03-1.12.03-2.22-.5-3.1-.39-.7-1.11-1.08-1.88-1.08-.75.02-1.74.22-2.59.33-1.76.27-3.5.56-5.24.88-3.49.65-6.99,1.42-10.62,2.47-3.93,1.16-7.62,2.54-11.02,4.27-3.36,1.73-6.51,3.55-9.01,5.98-1.23,1.22-2.28,2.6-2.95,4.14-.33.77-.56,1.57-.68,2.39l-.02.15v.02s0,0,0,0h0c.07-.68.02-.18.03-.33v.04s0,.09,0,.09l.03.36.06.72c.04.48.09.97.14,1.46.29,3.01.13,4.8.1,7.7-.54,3.88-1.94,1.87-2.01,1.69-1.19-2.39-1.1-4.83-1.07-6.4.02-1.42,0-2.98-.21-4.51-.75-2.89.78-5.9,2.84-8.32,2.12-2.42,4.83-4.17,7.28-5.76,1.23-.81,2.63-1.46,4.2-2.2,8.07-3.99,16.26-5.31,25.31-6.87,1.21-.18,2.35-.27,3.46-.31.62-.02.94-.04,1.78-.03.75.04,1.56.27,2.23.72,2.13,1.33,2.22,4.02,2.18,5.03,0,1.9-.13,3.53-.27,5.09.07-1.74.15-3.02.21-4.97.02-1.3-.42.9-.51,1.76-.07.37.29.95.21,1.31,0,.8-.15,1.54-.25,2.39-.08.37.25.33.21.51-.07,1.17-.49,2.07-.41,2.82.05.57.1,1.08.14,1.58.02.32.03.63.02.96-.03.21-.06.42-.09.64-.1-.17-.22-.23-.34-.29.02.31.09.75.1,1.06-.02-.31-.09-.75-.1-1.06.12.06.24.12.34.29-.19,1.54-.37,3.32-.51,4.97l-.03-.02c.04-.97,0-1.91-.18-2.91.07.44.16.38.18-.11l-.16-.38c-.09.86-.19,1.72.04,2.54,0,0-.07.37-.11.55.04.27.15.26.23.32l-.03.57c-.16-.41-.36-1.67-.36-1.67"/>
      <path class="cls-1" d="M148.8,89.88c-.01.13-.02.29-.02.47l-.04-1.88c.16.33.11.87.07,1.41"/>
      <path class="cls-1" d="M75.76,151.7c.45-2.29.71-7.32.89-12.63.09-2.65.17-5.38.25-7.86.04-1.24.08-2.42.12-3.51.02-.54.04-1.06.07-1.54.01-.24.02-.48.03-.71v-.17s.01-.04.01-.04c0-.06-.01.11.01-.15v-.04s.04-.11.04-.11c.04-.14.09-.26.14-.37,1.27-2.67,3.09-3.79,4.32-4.66.55-.34.19-.12-.74.57-.88.73-2.48,1.82-3.58,4.1-.06.14-.1.27-.15.44-.06.44-.02.34-.04.54,0,.26-.02.52-.02.79-.02.54-.03,1.11-.05,1.7-.03,1.18-.07,2.45-.1,3.83.19-1.72.39-3.4.57-4.95.16-.77.03-1.52.42-2.21.34-.62.76-1.12,1.17-1.54,1.05-1.35,2.42-2.45,3.9-3.39,6.68-4.04,14.25-5.67,21.86-6.77,2.78-.39,8.85-1.21,11.58-1.3-5.64.61-11.3,1.35-16.83,2.47-5.5,1.18-11.03,2.74-15.81,5.6.27-.14.53-.28.8-.4,5.17-2.76,1.23-.57,0,0-.76.42-1.51.87-2.22,1.36-.19.17-.4.34-.61.52h.03c.53-.2,2.04-1.1,4.26-2.01,2.21-.92,5.12-1.85,8.15-2.56,6.05-1.46,12.51-2.09,14.35-2.46,2.91-.54,5.5-1.51,8.78-1.94,1.09-.15,2.04-.06,2.87-.3.07-.11.49-.21.91-.32,2.19-.26,4.41-.06,6.08-.46,1.18-.21,4.56,1.18,4.8.89.88-1.1.24-.31,3.03-.31.34.02,1.42-.46,2.1-.42,2.28.22,2.95-.15,5.57-.27,3.9-.3,4.73.39,8.22-.15.42-.08,5.87-.19,5.87-.18,2.11.2,3.83.25,5.43.38.8.07,1.56.16,2.33.31.37.08.79.16,1.13.27.3.1.55.27.77.46.65.12,1.28.65,1.57,1.43.15.39.23.83.22,1.27-.01.55-.03,1.12-.05,1.69-.1,2.27-.26,4.57-.2,6.62.12,4.1-.41,5.8-.86,9.39-.07,1.02-.02,1.79-.17,2.39-.14.6.26,2.05.2,3.07l-.29-.26c-.03.34-.07,1.02-.1,1.37-.03.34-.12.26-.21.17-.19-.17-.39-.34-.53.26-.16,1.43-.29,2.89-.38,4.38.15,1.48.31,2.93.49,4.37.13.08.27.18.37.38l.21,1.28c.29.25.6.17.79.34.82,0,1.61,1.79,2.35,1.36.22-.17.29-2.65.67-3.76.12-.26.38.34.67.6,0-1.45.31-1.53.57-.94l.05-.68c.1.08.38.34.38.34.36-3.67,1.06-7.77.69-11.35-.05-.77-.26-2.05-.41-2.9-.07-.43.1-1.36.12-1.71-.26-.6-.58-.51-.86-.77.28-2.65.79-8.36-.24-8.19.05-2.13-.43-2.56-.48-4.78-.02-.73-.04-1.52-.06-2.34.02-.87-.16-2.2-.74-3.23-.56-1.08-1.57-2.05-2.76-2.53-.57-.25-1.29-.38-1.76-.43l-1.39-.15c-2.02-.17-3.96-.37-5.92-.52-.73-.05-1.44-.1-2.12-.14-14.64-.78-25.6-1.25-39.78,1.03-7.12,1.25-14.42,2.36-21.38,4.21-3.47.94-6.85,2.07-9.98,3.59-3.09,1.56-6.1,3.37-8.01,6.49-.23.43-.42.76-.58,1.43,0,0-.03.42-.02.25v.05s0,.07,0,.07v.14s-.01.28-.01.28l-.02.57c-.03.75-.06,1.49-.08,2.22-.06,1.46-.12,2.86-.18,4.21-.12,2.7-.25,5.18-.36,7.38-.23,4.4-.42,7.71-.48,9.47l.36,2.07Z"/>
      <path class="cls-1" d="M75.07,149.03c.45-2.29.71-7.32.89-12.63.09-2.65.17-5.38.25-7.86.04-1.24.08-2.42.12-3.51.02-.54.04-1.06.07-1.54.01-.25.02-.48.03-.71v-.17s.01-.04.01-.04c0-.06-.01.11.01-.15v-.04s.04-.11.04-.11c.04-.14.09-.26.14-.37,1.27-2.67,1.1-2.27,0,0-.05.14-.1.27-.15.44-.06.44-.03.34-.04.54,0,.26-.02.52-.02.79-.02.54-.03,1.11-.05,1.7-.03,1.18-.07,2.45-.1,3.83.19-1.72.39-3.4.57-4.95.16-.77.03-1.51.42-2.21.34-.62.76-1.12,1.17-1.54,1.05-1.35,2.92-2.42,4.4-3.37,6.67-4.04,13.74-5.28,21.35-6.37,2.78-.39,5.03-1.27,7.76-1.36-5.64.61-7.47.99-13,2.11-5.5,1.18-11.03,2.74-15.81,5.6.27-.14.53-.28.8-.4,5.17-2.76,10.89-3.81,16.71-4.86.99-.19,2.1-.73,3.14-.86-1.01.15-2.02.31-3.03.49-2.59.5-5.05,1.17-7.77,2.02-1.69.49-3.63,1.02-5.24,1.69-1.32.53-2.57.95-3.8,1.53-.77.42-1.51.87-2.22,1.36-.19.17-.4.34-.61.52h.03c.53-.2,2.04-1.1,4.26-2.01,2.21-.92,5.12-1.85,8.15-2.56,6.05-1.46,12.52-2.09,14.35-2.46,2.91-.53,5.5-1.51,8.78-1.94,1.09-.15,2.04-.07,2.87-.3.07-.11.49-.21.91-.32,2.19-.26,4.41-.06,6.08-.46,1.18-.21,4.56,1.18,4.79.89.88-1.09.24-.31,3.03-.31.34.01,1.42-.46,2.1-.42,2.29.22,2.95-.15,5.58-.27,3.9-.3,4.73.39,8.22-.15.42-.08,5.86.28,5.87.3,2.11.2,3.83-.23,5.43-.09.8.07,1.56.16,2.33.31.37.07.79.16,1.12.27.3.09.56.26.77.46.65.12,1.28.65,1.58,1.43.15.39.23.83.22,1.27-.01.55-.03,1.12-.06,1.69-.1,2.27-.26,4.57-.2,6.62.12,4.1-.41,5.8-.86,9.39-.07,1.02-.02,1.79-.17,2.39-.14.6.26,2.05.19,3.07l-.29-.25c-.02.34-.07,1.03-.09,1.36-.03.34-.12.26-.22.17-.19-.17-.39-.34-.53.26-.16,1.43-.29,2.89-.38,4.38.15,1.48.31,2.93.49,4.37.13.08.26.18.37.38l.22,1.28c.29.26.6.17.79.34.82,0,1.61,1.79,2.35,1.36.22-.17.29-2.64.67-3.75.12-.26.38.34.67.59,0-1.45.31-1.53.57-.94.02-.34.05-.68.05-.68.1.09.38.34.38.34.36-3.67,1.06-7.77.69-11.35-.05-.77-.26-2.05-.41-2.9-.07-.43.1-1.36.12-1.71-.26-.6-.58-.51-.86-.76.29-2.65.79-8.36-.24-8.19.05-2.13-.43-2.56-.48-4.78-.02-.73-.04-1.52-.06-2.34.02-.87-.16-2.19-.74-3.23-.56-1.08-1.56-2.04-2.76-2.53-.57-.26-1.29-.38-1.76-.43l-1.39-.15c-2.03-.16-3.96-.36-5.93-.52-.73-.05-1.44-.1-2.12-.15-14.64-.78-25.6-1.24-39.78,1.03-7.12,1.25-14.42,2.36-21.38,4.22-3.47.94-6.85,2.07-9.98,3.59-3.09,1.56-6.1,3.37-8,6.49-.23.43-.42.76-.58,1.43,0,0-.03.42-.02.25v.02s0,.04,0,.04v.07s0,.14,0,.14v.28s-.03.56-.03.56c-.03.75-.06,1.49-.09,2.22-.06,1.45-.12,2.86-.18,4.21-.12,2.7-.25,5.18-.36,7.38-.23,4.4-.42,7.7-.48,9.47l.36,2.06Z"/>
      <path class="cls-1" d="M137.8,51.07c.23-.79.37-2.54.47-4.38.05-.92.09-1.86.13-2.72.02-.43.04-.84.06-1.21v-.04s0,0,0,0h0c-.03.15.04-.22.04-.18h0s0-.01,0-.01l.02-.05.05-.11.08-.21c.04-.14.08-.27.09-.39.02-.19.02-.43.04-.62v-.04s0-.01,0-.01c.03-.09-.07.2.07-.2h0s0,0,0,0h0s.03-.05.03-.05l.07-.1c.05-.07.08-.14.11-.2.13-.26.13-.51.16-.79.02-.22.02-.07,0,.31-.01.18-.06.38-.19.61-.03.05-.07.11-.11.17l-.03.04-.02.02h0s0,0,0,0c.01-.04-.12.35-.06.19h0s-.01.14-.01.14c-.02.17-.03.37-.05.53-.01.14-.05.29-.1.45-.02.08-.06.16-.09.24l-.03.06v.03s-.02,0-.02,0h0s-.07.32-.03.17h0s0,.16,0,.16c-.02.41-.03.85-.05,1.33.14-.61.11-1.14.38-1.76.27-.42.33-1.02.39-1.31.42-.52.38-1.23.4-1.81.02-.68.03-1.35.05-2.02.03-.83-.6-1.37-1.15-1.77-1.2-.79-2.58-.96-3.89-1.29-.96-.25-3.14-.42-4.09-.47,2.01-.03,4.05.29,5.97.75.99.24,2.04.61,2.82,1.46.19.21.35.46.47.75.03.11.06.08.07.32v.18s0,.37,0,.37l-.02,1.48.03-.32.05-1.56c-.02-.84-.5-1.26-.93-1.67-.91-.78-2.08-1.08-3.07-1.31-.35-.07-.7-.16-1.07-.24.36.07.72.16,1.07.24.88.19,1.91.34,2.89.99.57.42,1.27,1.1,1.22,2.1-.02.51-.11.97-.17,1.45l-.03.93c0,.09.02.19.02.29h0c.1-.2.21-.84.32-1.7.03-.22.05-.45.08-.69l.04-.37.02-.19c-.03-.38-.03-.24-.05-.36-.02-.05-.03-.11-.05-.15-.27-.76-.79-1.29-1.35-1.7-1.15-.82-2.43-1.06-3.3-1.3-.93-.23-1.71-.36-2.05-.38-1.09-.08-2.14.22-3.29.28-.4.02-.75-.05-1.05.05-.03.05-.18.1-.33.16-.79.1-1.61.03-2.17.29-.42.14-1.69-.43-1.8-.24-.23.64-.05.12-1.17.48-.14.04-.48.44-.74.58-.47.21-.74.45-.97.75-.11.16-.22.32-.33.54-.1.29-.24.33-.29,1.07.18,1.36-.18,1.66.18,2.87,0-.02.1.91.52,1.35.03.03.05.06.08.11l.02.02c.11.33-.15-.45-.12-.37h0s0,.03,0,.03v.04s.03.18.03.18c.01.11.03.22.04.31.02.21.06.37.06.36.02.22.07.42.13.61.03.09.06.18.11.28h0s0,.01,0,.01h0c-.09-.41-.02-.11-.04-.21h0s0,.02,0,.02v.03s0,.06,0,.06v.12c.02.31.03.6.04.88.02.56-.01,1.07-.21,1.65.34,1.33-.06,3.1,0,4.52.06,1.42-.21,2.01-.45,3.25-.04.36-.01.62-.09.83-.07.21.14.71.1,1.06l-.15-.09c-.01.12-.04.36-.05.47-.01.12-.06.09-.11.06-.1-.06-.2-.12-.28.09-.09.49-.15,1-.2,1.52.08.51.16,1.02.26,1.51.07.03.14.06.19.13l.11.44c.15.09.31.06.41.12.43,0,.84.62,1.23.47.11-.06.15-.92.35-1.3.06-.09.2.12.35.21,0-.5.16-.53.3-.33.01-.12.03-.24.03-.24.05.03.2.12.2.12.19-1.27.55-2.69.36-3.93-.02-.27-.14-.71-.21-1.01-.04-.15.05-.47.06-.59-.14-.21-.3-.18-.45-.27.15-.92.41-2.9-.12-2.84.02-.74-.23-.89-.25-1.65-.04-1.02-.07-2.31-.09-3.58-.02-.35-.02-.69-.03-1.03v-.71h0c-.14-.65-.04-.19-.07-.33h0s0-.02,0-.02c-.02-.05-.04-.11-.06-.17-.06-.18-.09-.36-.09-.49,0-.14,0-.31,0-.46v-.12s0-.03,0-.03h0c-.32-.95-.09-.27-.16-.48h0s0,0,0,0v-.02s-.06-.08-.08-.12c-.09-.22-.1-.22-.1-.53,0-.59.02-1.17.03-1.74l.02-.85v-.21s0-.1,0-.1c-.03.3-.02.12-.02.16.02-.04.05-.11.1-.17.19-.27.53-.53.92-.72.76-.38,1.83-.53,2.91-.76,1.07-.21,2.16-.4,3.34-.51,2.36-.27,5.02.03,7.16.78.51.23.96.55,1.23.95.06.1.12.2.15.29,0,.02.01.04.01.05-.02-.2,0,0-.01,0v.22s-.03.88-.03.88c-.02.58-.04,1.16-.06,1.72,0,.3-.04.35-.14.56l-.07.12-.04.06v.02h-.02c-.26.77-.07.22-.13.39v.02l-.02.4c-.01.29-.04.38-.11.6-.03.09-.07.19-.11.28h0s0,0,0,0c.06-.27-.08.36-.06.3h0s0,.06,0,.06v.1s-.02.19-.02.19c-.03.5-.06.99-.1,1.46-.06.94-.13,1.79-.19,2.56-.12,1.53-.22,2.67-.25,3.28l.19.72Z"/>
      <path class="cls-1" d="M112.69,81.4l-.02-.99c.02.17.05.33.1.5.03.22-.03.33-.08.49"/>
      <polygon class="cls-1" points="112.66 79.5 112.66 79.32 112.68 79.17 112.66 79.5"/>
      <path class="cls-1" d="M112.73,77.78c.02.3,0,.59-.01.87-.02-.25-.02-.54.01-.87"/>
      <path class="cls-1" d="M112.8,79.15c-.04-.11-.08-.16-.11.02h0c.01-.16.03-.33.04-.51.02.19.04.35.08.5"/>
      <path class="cls-1" d="M112.8,79.15c.04.1.08.26.1.32-.03-.09-.07-.2-.1-.32"/>
      <path class="cls-1" d="M113.51,79.18c.04-.26-.36-.2-.27-.71.11-1.21.3-2.24.3-3.37.09-.51-.36-1.33-.27-1.84.11-1.21.66-4.3.64-2.48-.06,2.74-.17,4.52-.25,6.98-.16,1.99-.36,3.91-.5,5.96-.02.57.01,1.1.04,1.64-.06-.7-.13-1.42-.19-2.22-.11-1.05.41-2.32.5-3.96"/>
      <path class="cls-1" d="M112.85,88.67c.03-.17.09-.51.09-.51-.19-.77-.12-1.57-.04-2.37l.13.36c-.02.46-.09.51-.15.1.16.94.19,1.82.16,2.73-.07-.06-.16-.05-.2-.3"/>
      <polygon class="cls-1" points="113.03 89.5 113.05 88.97 113.07 88.99 113.03 89.52 113.03 89.5"/>
      <path class="cls-1" d="M112.98,81.71c0-2.29,0-4.44-.03-6.54.05-.16.12-.27.08-.49-.05-.16-.08-.33-.1-.49v-.92s0-.32,0-.32h0c.03-.18.07-.13.11-.02.03.12.06.23.1.32-.02-.06-.06-.22-.1-.32-.03-.14-.06-.31-.08-.49.02-.28.03-.57.01-.87-.03.34-.03.63-.01.87-.01.18-.02.35-.04.52l-.02.15-.04-2.09c0-.16,0-.31.03-.45.06-.52.19-1.01.13-1.34l.08-.38v.08c.01-.06.02-.11.02-.15.12-.52.28-1.04.48-1.54.18-.31.39-.6.59-.9,0,0,.03-.25.05-.38.13-.09.27-.25.42-.45-.08.29-.13.56-.19.8-.04.36-.61.59-.53,1.08-.08-.49.49-.72.53-1.08.06-.24.11-.51.19-.8.3-.4.64-.96.88-1.45-.51.44-.74.97-.88,1.45-.15.2-.29.35-.42.45-.02.13-.06.38-.06.38-.19.3-.41.6-.58.9.38-.99.89-1.94,1.54-2.82,1.01-1.44,2.36-2.61,3.73-3.58,1.36-1,2.73-1.93,4.12-2.86,2.78-1.85,5.61-3.68,8.61-5.61,1.66-1.07,3.12-2.07,4.84-3.14.52-.29,1.31-.41,1.99-.12.67.29,1.11.83,1.37,1.38.28.5.34,1.32.33,1.69l.06,1.37c.32,7.26-.05,7.14.64,14.47.24,2.81.11,8.04.08,10.75-.45,3.63-1.61,1.75-1.68,1.58-.99-2.23-.38-10.82-1.06-13.75-1.03-4.24-.21-3.55-.47-8.77-.07-1.31-.02-2.7-.04-4.26l-.06-1.51c0-.34-.02-.31-.04-.4-.02-.08-.07-.16-.1-.22-.03-.07-.09-.06-.06-.1.14-.17.15-.28.14-.23,0,0-.01.11,0,.17,0,.18.03.14,0,.15-.06.03-.04,0-.28.16-1.68,1.04-3.35,2.06-5.05,3.08-3.37,2.05-6.81,4.1-10.28,6.49-1.86,1.28-3.59,2.1-4.83,3.28-.91.9-1.52,2.12-1.93,3.04-.65,1.49-1.03,2.7-1.07,4.09,0-1.53.32-2.5.98-4.02.48-.99-.67.54-.91,1.27-.15.3.03.85-.07,1.14-.05.34-.12.63-.15.94-.04.36-.09.74-.13,1.14-.06.35.21.31.18.48-.06,1.1-.41,1.94-.33,2.64.04.53.08,1.01.12,1.48.01.3.03.59.02.9-.02.19-.05.4-.07.6-.08-.16-.18-.22-.29-.27.02.29.08.7.09.99-.01-.29-.07-.7-.09-.99.1.05.2.11.29.27-.16,1.44-.3,3.1-.42,4.65l-.02-.02c.03-.9,0-1.79-.16-2.73.06.41.14.36.15-.11l-.14-.35c-.08.81-.15,1.61.04,2.38,0,0-.06.34-.09.52.04.26.12.24.19.3l-.02.54c-.14-.38-.31-1.57-.31-1.57"/>
      <path class="cls-1" d="M137.08,32.31v-.42c0,.07.02.14.05.21.02.09-.02.14-.05.21"/>
      <polygon class="cls-1" points="137.07 31.51 137.06 31.43 137.08 31.37 137.07 31.51"/>
      <path class="cls-1" d="M137.14,30.76c0,.13-.01.25-.03.37,0-.11,0-.23.03-.37"/>
      <path class="cls-1" d="M137.15,31.36c-.03-.05-.05-.07-.07,0h0c0-.1.02-.15.03-.23,0,.08.01.14.04.22"/>
      <path class="cls-1" d="M137.15,31.36s.04.11.06.13c-.02-.04-.04-.08-.06-.13"/>
      <path class="cls-1" d="M137.67,30.56c.05-.17-.34-.15-.23-.5.16-.81.37-1.5.41-2.26.11-.34-.29-.92-.18-1.26.16-.81.8-2.87.7-1.64-.16,1.85-.34,3.05-.51,4.71-.27,1.35-.4,2.54-.56,3.97-.02.39.01.75.04,1.11-.06-.48-.12-.96-.18-1.5-.1-.69.37-1.63.5-2.63"/>
      <path class="cls-1" d="M137.18,35.41c.02-.07.05-.22.05-.22-.12-.33-.07-.67-.03-1.01l.08.15c-.01.2-.06.22-.09.04.1.4.12.78.1,1.16-.05-.02-.1-.02-.12-.13"/>
      <polygon class="cls-1" points="137.28 35.77 137.3 35.54 137.31 35.55 137.29 35.77 137.28 35.77"/>
      <path class="cls-1" d="M137.38,29.22c.06-.97.11-1.89.14-2.78.04-.07.08-.11.06-.2-.02-.07-.04-.14-.04-.21v-.39c.02-.06.02-.06.04-.16h0c.05-.06.06-.03.06.02s.03.1.04.14c0-.03-.04-.1-.04-.14.01-.06.02-.13.05-.21.05-.1.11-.22.13-.34-.06.13-.11.24-.13.34l-.11.19c-.03.08-.02.06-.03.09.1-.34.22-.56.26-.85.01-.06.02-.11.03-.17.03-.24.12-.43.08-.58l.03-.15v.03s0-.06,0-.06c.04-.21.06-.43.04-.62.02-.12,0-.27-.04-.41,0,0-.09-.06-.14-.08,0-.07-.02-.16-.07-.24.11.06.22.13.3.21.15.11,0,.36.17.51-.17-.15-.01-.4-.17-.51-.08-.08-.19-.14-.3-.21-.1-.18-.33-.36-.54-.43.16.22.35.32.54.43.05.09.07.17.07.24.05.02.14.08.14.08.04.14.06.29.04.41-.07-.36-.35-.71-.66-.99-1.09-.87-2.49-1.18-3.85-1.37-1.4-.17-2.78-.18-4.27-.03-1.58.17-3.15.56-4.23,1.42-.52.45-.89.91-.72,1.31.03.14.06.28.12.47.03.1.06.21.08.35.02.18.02.3.03.28.01.09.06.23.12.37l.1.21v.02s.01,0,.01,0h0c.03.12-.07-.27.08.27h0v.09s.02.14.02.14c.11,1.48.24,2.96.53,4.5.05.3.1.66.13,1.05.02.51.02.85.02,1.31,0,.85-.03,1.69-.03,2.27-.27,1.55-.97.74-1.01.67-.59-.95-.26-1.7-.61-3.63.2,1.3.4-.96-.12-2.18-.36-.88-.46-1.97-.5-3.12l-.02-.87v-.11s0-.03,0-.03h0c-.02-.08.19.7.1.37h0s0-.01,0-.01v-.02s-.04-.06-.04-.06l-.1-.25c-.06-.17-.12-.34-.17-.55-.1-.68-.02-.43-.14-.83-.09-.35-.17-.65-.17-1.16.17-1.1.79-1.58,1.43-2.09,1.71-1.25,3.56-1.46,5.31-1.57,1.77-.06,3.48.01,5.43.41,1.02.24,1.87.71,2.6,1.31.54.41,1.17.9,1.41,1.64.04.13.08.35.07.5,0,.12-.01.23-.03.35-.03.23-.09.43-.15.6-.06.17-.1.28-.12.34-.01.1-.08.48-.15.6.04-.1.07-.22.09-.33.02-.13.03-.3.04-.29.01-.07.05-.17.11-.33.09-.37.25-.63.14-1.36-.12-.39-.12-.24-.09.07.02.43-.12.67-.17.89-.06.16.04.45-.03.56-.04.11-.11.64-.32.96-.09.14.06.18.01.25l-.1.17-.02.02h0s0,.01,0,.01c.12-.43.03-.12.06-.22h0s0,0,0,0v.04s-.03.08-.03.08c-.03.1-.07.2-.09.29-.06.18-.11.34-.1.49.01.23.02.43.04.63,0,.12,0,.25-.01.38l-.06.25c-.04-.07-.1-.1-.16-.12,0,.12.03.3.03.42,0-.12-.03-.3-.03-.42.06.03.12.05.16.12-.13.61-.26,1.31-.36,1.96h-.01c.04-.39.04-.77-.03-1.18.03.18.07.16.1-.04l-.07-.16c-.07.34-.13.68-.03,1.01,0,0-.05.15-.07.22.02.11.07.11.11.13l-.03.23c-.07-.17-.14-.68-.14-.68"/>
      <path class="cls-1" d="M137.7,25.27s-.06.1-.09.16c.1-.22.19-.46.23-.69.06.14-.03.34-.14.53"/>
      <path class="cls-1" d="M124.68,19.68v-.25s.01.08.03.12c.01.06-.01.08-.03.12"/>
      <polygon class="cls-1" points="124.67 19.21 124.67 19.16 124.68 19.12 124.67 19.21"/>
      <path class="cls-1" d="M124.7,18.78c0,.08,0,.15,0,.22,0-.06,0-.13,0-.22"/>
      <path class="cls-1" d="M124.72,19.12s-.03-.04-.05,0v-.13s.03.09.05.12"/>
      <path class="cls-1" d="M124.72,19.12s.03.07.04.08l-.04-.08Z"/>
      <path class="cls-1" d="M125.1,19.01s-.1-.03-.07-.12c.03-.2.08-.37.08-.56.02-.09-.1-.22-.07-.31.03-.2.18-.72.17-.41-.02.46-.05.76-.07,1.17-.04.33-.1.65-.14,1,0,.09,0,.18.01.27-.02-.12-.03-.24-.05-.37-.03-.18.11-.39.13-.66"/>
      <path class="cls-1" d="M124.74,21.51s.04-.13.04-.13c-.08-.19-.05-.39-.02-.6l.05.09c0,.11-.03.13-.06.03.06.24.08.46.06.68-.03-.01-.06-.01-.08-.07"/>
      <polygon class="cls-1" points="124.82 21.71 124.82 21.58 124.83 21.58 124.82 21.72 124.82 21.71"/>
      <path class="cls-1" d="M124.79,17.86c-.04-.58.12-1.12.31-1.61.04-.03.07-.04.08-.1,0-.05,0-.09.02-.13l.11-.21.05-.07h0s.04-.01.04.02v.09s0-.06,0-.09c0-.04.02-.08.04-.12.04-.06.09-.12.13-.18-.06.06-.1.12-.13.18l-.08.1-.03.03c.08-.16.18-.31.28-.45.03-.03.05-.06.07-.08.09-.09.18-.18.2-.27l.06-.07v.02s.01-.03.01-.03c.09-.1.18-.2.28-.29l.25-.12s.02-.07.04-.1c.05,0,.1-.02.15-.04-.04.07-.07.14-.11.19-.03.09-.23.04-.23.19,0-.15.2-.09.23-.19.04-.05.06-.13.11-.19.11-.06.24-.16.33-.27-.17.04-.26.16-.33.27-.06.03-.11.04-.15.04-.01.03-.04.1-.04.1l-.25.12c.19-.19.4-.35.63-.5,1.5-.98,3.22-1.12,5.02-1.04.99.07,1.96.25,2.85.67,1.8.84,2.79,2.8,2.82,4.75.1.7.04,2.01.03,2.69-.18.91-.64.44-.67.4-.4-.56-.18-1-.41-2.14.13.78.26-.57-.02-1.31-.27-.94-.5-2.25-1.47-2.98-.23-.17-.46-.36-.77-.52-1.61-.69-3.54-.94-5.45-.51-.5.12-.95.19-1.36.35-.29.14-.53.37-.73.53-.3.26-.56.49-.79.73.23-.29.44-.48.75-.73.22-.17-.24,0-.39.13-.08.04-.07.22-.14.26-.11.13-.24.23-.37.37-.06.05.03.11,0,.13-.15.2-.37.32-.41.48-.03.12-.06.23-.08.34-.02.07-.03.13-.06.2l-.06.13s-.06-.07-.09-.09c-.01.07-.01.17-.02.24,0-.07,0-.17.02-.24.03.02.07.05.09.09-.16.3-.2.68-.24,1.09h0c0-.23,0-.46-.07-.69.02.1.05.08.06-.02l-.04-.09c-.06.19-.07.4,0,.59,0,0-.03.09-.04.13.01.06.05.06.08.08v.13c-.07-.09-.13-.39-.13-.39"/>
      <path class="cls-1" d="M125.44,15.64s-.04.06-.06.09c.07-.13.15-.26.23-.38,0,.1-.09.19-.17.29"/>
      <path class="cls-1" d="M131.89,12.5c-.25-.07-.36-.19-.36-.38,0,0,.01-.13-.11-.29-.12-.15-.45-.46-.45-.9,0,0,0-.01,0-.02.22-.25.37-.84.37-1.53,0-.56-.1-1.05-.25-1.36.3-.17.52-.56.52-1.02s-.21-.85-.52-1.02c0-.05,0-.1-.02-.15.13-.05.21-.13.21-.22s-.08-.17-.19-.22c0-.03,0-.05,0-.08,0-.24-.15-.44-.34-.44s-.34.2-.34.44c0,.03,0,.05,0,.08-.12.05-.2.13-.2.22s.09.17.21.22c-.01.05-.02.1-.02.15-.3.17-.52.56-.52,1.02s.21.85.52,1.02c-.15.3-.25.8-.25,1.36,0,.7.16,1.3.38,1.54h0c0,.44-.34.75-.46.9-.12.16-.1.29-.1.29,0,.19-.11.32-.36.38-.31.08-.52.92-.52.92h3.34s-.21-.84-.53-.92"/>
      <path class="cls-1" d="M131.19,3.68c-1.21,0-2.19-.98-2.19-2.19,0-.58.22-1.1.58-1.49-.92.4-1.57,1.32-1.57,2.38,0,1.44,1.16,2.6,2.6,2.6s2.6-1.16,2.6-2.6c0-.02,0-.03,0-.05-.33.79-1.11,1.35-2.02,1.35"/>
      <path class="cls-1" d="M.87,187.1h-.87l3.18-7.32h.72l3.18,7.32h-.87l-.81-1.92H1.67l-.81,1.92ZM1.95,184.5h3.17l-1.58-3.85-1.59,3.85Z"/>
      <path class="cls-1" d="M7.83,179.29h.68v3.78h.02c.11-.17.24-.31.39-.42.15-.12.31-.21.47-.29.17-.08.34-.13.51-.17.18-.03.34-.05.5-.05.38,0,.73.07,1.04.19.31.13.58.31.81.53.23.23.41.5.53.81.13.31.19.65.19,1.01s-.06.7-.19,1.01c-.13.31-.3.58-.53.81-.23.23-.5.41-.81.53-.31.13-.66.19-1.04.19-.16,0-.33-.02-.5-.05-.18-.03-.35-.09-.51-.17-.16-.08-.32-.17-.47-.29-.15-.12-.28-.26-.39-.42h-.02v.81h-.68v-7.82ZM12.25,184.68c0-.27-.04-.52-.13-.75-.09-.23-.21-.44-.37-.61-.16-.17-.35-.31-.57-.41-.22-.1-.48-.15-.76-.15s-.54.05-.77.15c-.23.1-.44.24-.61.41s-.31.38-.4.61c-.1.23-.15.49-.15.75s.05.52.15.75c.1.23.23.44.4.61.17.17.38.31.61.41.23.1.49.15.77.15s.54-.05.76-.15c.22-.1.41-.24.57-.41.16-.17.28-.38.37-.61.09-.23.13-.49.13-.75"/>
      <path class="cls-1" d="M18.98,187.1h-.68v-.81h-.02c-.11.17-.24.31-.39.42-.15.12-.31.21-.47.29-.17.08-.34.13-.51.17-.18.03-.34.05-.5.05-.38,0-.73-.06-1.04-.19-.31-.13-.58-.31-.81-.53-.23-.23-.41-.5-.53-.81-.13-.31-.19-.65-.19-1.01s.06-.7.19-1.01c.13-.31.3-.58.53-.81.23-.23.5-.41.81-.53.31-.13.66-.19,1.04-.19.16,0,.33.02.5.05.18.03.35.09.51.17.16.08.32.17.47.29.15.12.28.26.39.42h.02v-3.78h.68v7.82ZM14.56,184.68c0,.27.04.52.13.75.09.23.21.44.37.61.16.17.35.31.57.41.22.1.48.15.76.15s.53-.05.77-.15c.24-.1.44-.24.62-.41.17-.17.31-.38.4-.61.1-.23.15-.49.15-.75s-.05-.52-.15-.75c-.1-.23-.23-.44-.4-.61s-.38-.31-.62-.41c-.24-.1-.49-.15-.77-.15s-.54.05-.76.15c-.22.1-.41.24-.57.41-.16.17-.28.38-.37.61-.09.23-.13.49-.13.75"/>
      <path class="cls-1" d="M23.96,187.1c-.01-.13-.02-.26-.03-.39,0-.13,0-.26,0-.39h-.02c-.08.13-.17.25-.29.36-.12.11-.25.2-.39.28-.14.08-.3.14-.46.19-.16.04-.32.07-.48.07-.62,0-1.08-.16-1.38-.49-.3-.33-.45-.79-.45-1.4v-3.07h.68v2.68c0,.27.02.51.06.71.04.21.11.38.21.52.1.14.23.25.4.32.17.07.38.11.64.11.03,0,.13-.01.29-.04.16-.03.32-.1.5-.23.18-.12.33-.31.47-.56.14-.25.21-.59.21-1.03v-2.48h.68v3.77c0,.13,0,.3.02.5,0,.2.02.39.04.57h-.7Z"/>
      <rect class="cls-1" x="26.37" y="179.29" width=".68" height="7.82"/>
      <rect class="cls-1" x="28.85" y="179.29" width=".68" height="7.82"/>
      <path class="cls-1" d="M34.28,184.14v-.12c0-.83-.41-1.25-1.24-1.25-.56,0-1.06.19-1.48.57l-.41-.49c.45-.47,1.14-.7,2.05-.7.23,0,.46.03.68.1s.4.17.56.32c.16.14.29.32.38.53.1.21.14.47.14.77v2.16c0,.19,0,.38.03.58.02.2.04.37.06.5h-.66c-.02-.12-.04-.25-.05-.38,0-.14-.01-.27-.01-.4h-.02c-.2.32-.44.56-.71.7-.27.14-.6.21-1,.21-.21,0-.42-.03-.62-.09-.2-.06-.38-.15-.53-.27-.16-.12-.28-.27-.37-.44-.09-.18-.14-.38-.14-.62,0-.39.1-.7.3-.93.2-.22.46-.39.76-.5.31-.11.63-.18.98-.21.35-.03.67-.04.96-.04h.34ZM33.93,184.7c-.17,0-.39,0-.65.03-.26.02-.51.06-.74.12-.24.07-.44.17-.61.3-.17.14-.25.33-.25.57,0,.16.03.3.1.41.07.11.15.21.26.28.11.07.23.12.37.16.13.03.27.05.41.05.25,0,.46-.04.65-.12.18-.08.34-.19.46-.34.12-.14.22-.31.27-.5.06-.19.09-.39.09-.6v-.35h-.35Z"/>
      <path class="cls-1" d="M39.66,179.79h2.18c.3,0,.6.03.88.09.28.06.53.17.76.31.22.15.4.33.53.57.13.23.2.52.2.87,0,.4-.11.74-.34,1.03-.23.29-.54.48-.96.57v.02c.52.04.92.22,1.21.54.29.32.44.75.44,1.29,0,.12-.03.29-.09.52-.06.23-.18.45-.37.68-.19.22-.46.42-.81.58-.35.17-.82.25-1.41.25h-2.23v-7.32ZM40.41,182.99h1.5c.18,0,.36-.02.53-.07.18-.04.33-.12.48-.22.14-.1.26-.24.35-.4.09-.16.13-.36.13-.59,0-.08-.02-.18-.05-.32-.03-.14-.1-.28-.21-.41-.11-.14-.26-.26-.47-.36-.21-.1-.49-.15-.84-.15h-1.43v2.52ZM40.41,186.42h1.43c.27,0,.52-.03.75-.08.23-.05.44-.14.61-.25.17-.11.31-.26.41-.43.1-.17.15-.38.15-.62,0-.48-.16-.84-.46-1.08-.31-.23-.77-.35-1.37-.35h-1.52v2.81Z"/>
      <path class="cls-1" d="M46.92,180.4c0,.15-.05.26-.16.36-.1.09-.22.14-.34.14s-.24-.05-.34-.14c-.1-.09-.16-.21-.16-.36s.05-.26.16-.36c.1-.09.22-.14.34-.14s.24.05.34.14c.1.09.16.21.16.36M46.76,187.1h-.68v-4.84h.68v4.84Z"/>
      <path class="cls-1" d="M49.06,182.27c.01.13.02.26.03.39,0,.13,0,.26,0,.39h.02c.08-.13.17-.25.29-.36.12-.11.25-.2.39-.28.14-.08.3-.14.46-.19.16-.04.32-.07.48-.07.62,0,1.08.16,1.38.49.3.33.44.79.44,1.4v3.07h-.68v-2.68c0-.54-.09-.95-.28-1.24-.19-.29-.53-.43-1.03-.43-.03,0-.13.01-.29.04-.16.03-.32.1-.5.23-.18.12-.33.31-.47.56-.14.25-.21.59-.21,1.03v2.48h-.68v-3.77c0-.13,0-.3-.02-.5,0-.2-.02-.39-.04-.57h.7Z"/>
      <polygon class="cls-1" points="61.73 180.4 57.46 186.42 61.79 186.42 61.79 187.1 56.52 187.1 56.52 186.48 60.8 180.47 56.58 180.47 56.58 179.78 61.73 179.78 61.73 180.4"/>
      <path class="cls-1" d="M65.88,184.14v-.12c0-.83-.41-1.25-1.24-1.25-.57,0-1.06.19-1.48.57l-.41-.49c.45-.47,1.14-.7,2.05-.7.23,0,.46.03.68.1s.4.17.56.32c.16.14.29.32.38.53.1.21.15.47.15.77v2.16c0,.19,0,.38.03.58.02.2.04.37.06.5h-.66c-.02-.12-.04-.25-.05-.38,0-.14-.01-.27-.01-.4h-.02c-.2.32-.44.56-.71.7-.27.14-.6.21-1,.21-.21,0-.42-.03-.62-.09-.2-.06-.38-.15-.53-.27-.16-.12-.28-.27-.37-.44-.09-.18-.14-.38-.14-.62,0-.39.1-.7.3-.93.2-.22.46-.39.76-.5.31-.11.63-.18.98-.21.35-.03.67-.04.96-.04h.34ZM65.53,184.7c-.17,0-.39,0-.65.03-.26.02-.51.06-.74.12-.24.07-.44.17-.61.3-.17.14-.25.33-.25.57,0,.16.03.3.1.41.07.11.15.21.26.28.11.07.23.12.37.16.13.03.27.05.41.05.25,0,.46-.04.65-.12.18-.08.34-.19.46-.34.12-.14.22-.31.27-.5.06-.19.09-.39.09-.6v-.35h-.35Z"/>
      <path class="cls-1" d="M69.13,180.4c0,.15-.05.26-.16.36-.1.09-.22.14-.34.14s-.24-.05-.34-.14c-.1-.09-.16-.21-.16-.36s.05-.26.16-.36c.1-.09.22-.14.34-.14s.24.05.34.14c.1.09.16.21.16.36M68.98,187.1h-.68v-4.84h.68v4.84Z"/>
      <path class="cls-1" d="M75.45,187.1h-.68v-.81h-.02c-.11.17-.24.31-.39.42-.15.12-.31.21-.47.29-.17.08-.34.13-.51.17-.18.03-.34.05-.5.05-.38,0-.73-.06-1.04-.19-.31-.13-.58-.31-.81-.53-.23-.23-.41-.5-.53-.81-.13-.31-.19-.65-.19-1.01s.06-.7.19-1.01c.13-.31.3-.58.53-.81.23-.23.5-.41.81-.53.31-.13.66-.19,1.04-.19.16,0,.33.02.5.05.18.03.35.09.51.17.17.08.32.17.47.29.15.12.28.26.39.42h.02v-3.78h.68v7.82ZM71.04,184.68c0,.27.04.52.13.75.09.23.21.44.37.61.16.17.35.31.57.41.22.1.48.15.76.15s.53-.05.77-.15c.24-.1.44-.24.62-.41.17-.17.31-.38.4-.61.1-.23.15-.49.15-.75s-.05-.52-.15-.75c-.1-.23-.23-.44-.4-.61s-.38-.31-.62-.41c-.24-.1-.49-.15-.77-.15s-.54.05-.76.15c-.22.1-.41.24-.57.41-.16.17-.28.38-.37.61-.09.23-.13.49-.13.75"/>
      <path class="cls-1" d="M79.94,187.1h-.87l3.18-7.32h.72l3.18,7.32h-.87l-.81-1.92h-3.74l-.81,1.92ZM81.02,184.5h3.17l-1.58-3.85-1.59,3.85Z"/>
      <rect class="cls-1" x="87.06" y="179.29" width=".68" height="7.82"/>
      <rect class="cls-1" x="89.03" y="184.28" width="2.66" height=".68"/>
      <polygon class="cls-1" points="96.68 185.74 99.15 179.78 100.29 179.78 100.29 187.1 99.54 187.1 99.54 180.78 99.52 180.78 96.88 187.1 96.49 187.1 93.84 180.78 93.82 180.78 93.82 187.1 93.07 187.1 93.07 179.78 94.21 179.78 96.68 185.74"/>
      <path class="cls-1" d="M105.13,184.14v-.12c0-.83-.41-1.25-1.24-1.25-.57,0-1.06.19-1.48.57l-.41-.49c.45-.47,1.14-.7,2.05-.7.24,0,.46.03.68.1s.4.17.56.32c.16.14.29.32.38.53.1.21.14.47.14.77v2.16c0,.19,0,.38.03.58.02.2.04.37.06.5h-.66c-.02-.12-.04-.25-.05-.38,0-.14-.01-.27-.01-.4h-.02c-.2.32-.44.56-.71.7-.27.14-.6.21-1,.21-.21,0-.42-.03-.62-.09-.2-.06-.38-.15-.53-.27-.15-.12-.28-.27-.37-.44-.09-.18-.14-.38-.14-.62,0-.39.1-.7.3-.93s.46-.39.76-.5c.31-.11.63-.18.98-.21.35-.03.67-.04.96-.04h.34ZM104.78,184.7c-.17,0-.39,0-.65.03-.26.02-.51.06-.74.12-.24.07-.44.17-.61.3-.17.14-.25.33-.25.57,0,.16.03.3.1.41.07.11.15.21.26.28.11.07.23.12.37.16.13.03.27.05.41.05.25,0,.46-.04.65-.12.18-.08.34-.19.46-.34.12-.14.22-.31.27-.5.06-.19.09-.39.09-.6v-.35h-.35Z"/>
      <path class="cls-1" d="M107.39,179.29h.68v3.75h.02c.08-.13.17-.25.29-.36.12-.11.25-.2.39-.28.14-.08.3-.14.46-.19.16-.04.32-.07.48-.07.62,0,1.08.16,1.38.49.3.33.44.79.44,1.4v3.07h-.68v-2.68c0-.54-.09-.95-.28-1.24-.19-.29-.53-.43-1.03-.43-.03,0-.13.01-.29.04-.16.03-.32.1-.5.23-.18.12-.33.31-.47.56-.14.25-.21.59-.21,1.03v2.48h-.68v-7.82Z"/>
      <path class="cls-1" d="M113.14,183.34c0-.18,0-.36-.02-.54-.01-.18-.02-.36-.04-.54h.73v.73h.02c.17-.28.39-.5.69-.64.29-.15.58-.22.87-.22.13,0,.27.01.42.04.15.03.29.08.43.15.14.07.27.17.39.3.12.13.22.3.31.51.14-.31.36-.55.66-.73.3-.18.61-.27.94-.27.62,0,1.08.16,1.38.49.3.33.44.79.44,1.4v3.07h-.68v-2.82c0-.49-.09-.86-.26-1.13-.17-.26-.49-.39-.96-.39-.26,0-.47.05-.64.15-.17.1-.31.23-.42.4-.11.16-.18.35-.23.56-.05.21-.07.43-.07.66v2.57h-.68v-2.82c0-.49-.09-.86-.26-1.13-.17-.26-.49-.39-.96-.39-.04,0-.14.01-.28.04-.15.03-.3.1-.46.23-.16.12-.3.31-.43.56-.13.25-.19.59-.19,1.03v2.48h-.68v-3.76Z"/>
      <path class="cls-1" d="M126.84,184.68c0,.37-.06.7-.19,1.01-.13.31-.3.58-.53.81-.23.23-.5.41-.81.53-.31.13-.66.19-1.04.19s-.72-.06-1.03-.19c-.31-.13-.58-.31-.81-.53-.23-.23-.4-.5-.53-.81-.13-.31-.19-.65-.19-1.01s.06-.7.19-1.01c.13-.31.3-.58.53-.81.23-.23.5-.41.81-.53.31-.13.66-.19,1.03-.19s.73.07,1.04.19c.31.13.58.31.81.53.23.23.4.5.53.81.13.31.19.65.19,1.01M126.09,184.68c0-.27-.04-.52-.13-.75-.09-.23-.21-.44-.37-.61-.16-.17-.35-.31-.57-.41-.22-.1-.48-.15-.76-.15s-.54.05-.76.15c-.22.1-.41.24-.57.41-.16.17-.28.38-.36.61-.09.23-.13.49-.13.75s.04.52.13.75.21.44.36.61c.16.17.34.31.57.41.22.1.48.15.76.15s.54-.05.76-.15c.22-.1.41-.24.57-.41.16-.17.28-.38.37-.61.09-.23.13-.49.13-.75"/>
      <path class="cls-1" d="M131.57,187.1c-.01-.13-.02-.26-.03-.39,0-.13,0-.26,0-.39h-.02c-.08.13-.17.25-.29.36-.12.11-.25.2-.39.28-.15.08-.3.14-.46.19-.16.04-.32.07-.48.07-.62,0-1.08-.16-1.37-.49-.3-.33-.45-.79-.45-1.4v-3.07h.68v2.68c0,.27.02.51.06.71.04.21.11.38.21.52.1.14.24.25.4.32.17.07.38.11.64.11.03,0,.13-.01.29-.04.16-.03.33-.1.5-.23.17-.12.33-.31.47-.56.14-.25.21-.59.21-1.03v-2.48h.68v3.77c0,.13,0,.3.02.5.01.2.02.39.04.57h-.7Z"/>
      <path class="cls-1" d="M138.65,187.1h-.68v-.81h-.02c-.11.17-.24.31-.39.42-.15.12-.31.21-.47.29-.17.08-.34.13-.51.17-.18.03-.34.05-.5.05-.38,0-.73-.06-1.04-.19-.31-.13-.58-.31-.81-.53-.23-.23-.4-.5-.53-.81s-.19-.65-.19-1.01.06-.7.19-1.01c.13-.31.3-.58.53-.81.23-.23.5-.41.81-.53.31-.13.66-.19,1.04-.19.16,0,.33.02.5.05.18.03.35.09.51.17.16.08.32.17.47.29.15.12.28.26.39.42h.02v-3.78h.68v7.82ZM134.24,184.68c0,.27.04.52.13.75.09.23.21.44.37.61.16.17.35.31.57.41.22.1.48.15.76.15s.53-.05.77-.15c.24-.1.44-.24.62-.41.17-.17.31-.38.4-.61.1-.23.15-.49.15-.75s-.05-.52-.15-.75c-.1-.23-.23-.44-.4-.61-.17-.17-.38-.31-.62-.41-.24-.1-.49-.15-.77-.15s-.54.05-.76.15c-.22.1-.41.24-.57.41-.16.17-.28.38-.37.61-.09.23-.13.49-.13.75"/>
      <rect class="cls-1" x="143.35" y="179.85" width=".75" height="7.32"/>
      <path class="cls-1" d="M148.4,183.48c-.1-.2-.24-.36-.41-.48-.17-.12-.38-.18-.63-.18-.12,0-.24.01-.36.04-.12.03-.23.07-.33.13-.1.06-.17.13-.23.22-.06.09-.09.2-.09.33,0,.23.08.39.24.5.16.1.4.19.71.27l.69.17c.34.08.62.23.84.46.22.23.34.52.34.86,0,.26-.05.49-.16.68-.11.19-.25.34-.42.47-.18.12-.38.21-.6.26-.23.06-.46.08-.69.08-.37,0-.72-.07-1.04-.21-.32-.14-.59-.38-.82-.73l.59-.4c.14.22.31.4.52.53.21.13.46.2.75.2.14,0,.28-.01.41-.05.14-.03.26-.08.37-.15.11-.07.19-.15.26-.25.07-.1.1-.22.1-.36,0-.24-.09-.42-.27-.52-.18-.11-.4-.19-.65-.25l-.66-.16c-.08-.02-.19-.06-.34-.1-.14-.05-.28-.12-.41-.22-.13-.1-.25-.22-.35-.38-.1-.16-.15-.35-.15-.57,0-.25.05-.47.15-.65.1-.19.24-.34.4-.45.17-.12.36-.21.57-.26.21-.06.43-.09.66-.09.34,0,.65.07.94.2.29.13.51.36.67.67l-.61.4Z"/>
      <rect class="cls-1" x="150.39" y="179.35" width=".68" height="7.82"/>
      <path class="cls-1" d="M155.82,184.2v-.12c0-.83-.41-1.25-1.24-1.25-.57,0-1.06.19-1.48.57l-.41-.49c.46-.47,1.14-.7,2.05-.7.23,0,.46.03.68.1.22.07.4.17.56.32.16.14.29.32.38.53.1.21.15.47.15.76v2.16c0,.19,0,.38.02.58.02.2.04.37.06.5h-.66c-.02-.12-.04-.25-.05-.38-.01-.14-.01-.27-.01-.4h-.02c-.2.32-.44.56-.71.7-.27.14-.6.21-1,.21-.21,0-.42-.03-.62-.09-.2-.06-.38-.15-.53-.27-.16-.12-.28-.27-.37-.44-.09-.18-.14-.38-.14-.61,0-.39.1-.7.3-.93.2-.22.46-.39.77-.5.31-.11.63-.18.98-.21.35-.03.67-.04.96-.04h.34ZM155.47,184.76c-.17,0-.39,0-.65.03-.26.02-.51.06-.75.12-.24.07-.44.17-.61.3-.17.14-.25.33-.25.57,0,.16.03.29.1.41.07.11.15.21.26.28.11.07.23.12.37.15.13.03.27.05.41.05.25,0,.46-.04.65-.12.18-.08.34-.19.46-.34.12-.14.22-.31.27-.5.06-.19.09-.39.09-.6v-.35h-.35Z"/>
      <path class="cls-1" d="M158.08,183.4c0-.18,0-.36-.02-.54-.01-.18-.02-.36-.04-.54h.73v.73h.02c.17-.28.39-.5.69-.64.29-.15.58-.22.87-.22.13,0,.27.01.42.04.15.03.29.08.43.15.14.07.27.17.39.3.12.13.22.3.31.51.14-.31.36-.55.66-.73.3-.18.61-.27.94-.27.62,0,1.08.16,1.38.49.3.33.44.79.44,1.4v3.07h-.68v-2.82c0-.49-.09-.86-.26-1.13-.17-.26-.49-.39-.96-.39-.26,0-.47.05-.64.15-.17.1-.31.23-.42.4-.11.16-.18.35-.23.56-.05.21-.07.43-.07.66v2.57h-.68v-2.82c0-.49-.09-.86-.26-1.13-.17-.26-.49-.39-.96-.39-.04,0-.14.01-.28.04s-.3.1-.46.23c-.16.12-.3.31-.43.56-.13.25-.19.59-.19,1.03v2.48h-.68v-3.76Z"/>
      <path class="cls-1" d="M167.88,180.47c0,.15-.05.26-.16.36-.1.09-.22.14-.34.14s-.24-.05-.34-.14c-.1-.09-.16-.21-.16-.36s.05-.26.16-.36c.1-.09.22-.14.34-.14s.24.05.34.14c.1.09.16.21.16.36M167.73,187.17h-.68v-4.84h.68v4.84Z"/>
      <path class="cls-1" d="M172.9,183.47c-.12-.18-.28-.33-.49-.46-.21-.12-.45-.19-.72-.19-.28,0-.54.04-.76.13-.22.1-.42.23-.57.4-.16.17-.28.38-.36.62-.08.24-.12.49-.12.77s.04.53.12.77c.08.24.2.44.36.62.16.17.35.31.57.4.22.1.48.14.76.13.27,0,.51-.06.72-.19.21-.12.37-.28.49-.46l.56.42c-.24.28-.51.49-.82.63-.3.13-.62.2-.95.21-.39,0-.75-.05-1.07-.18-.32-.13-.59-.3-.81-.53-.22-.23-.39-.5-.51-.81-.12-.31-.18-.65-.18-1.02s.06-.7.18-1.02c.12-.31.29-.58.51-.81.22-.23.49-.4.81-.53.32-.13.67-.19,1.07-.18.33,0,.65.08.95.21.3.13.58.34.82.63l-.56.42Z"/>
      <path class="cls-1" d="M183.5,186.01c-.12.19-.28.36-.46.53-.18.17-.39.31-.63.43-.23.12-.49.21-.76.28-.27.07-.56.1-.86.1-.54,0-1.05-.1-1.51-.29-.46-.19-.87-.46-1.21-.8-.34-.34-.61-.75-.8-1.21-.19-.47-.29-.98-.29-1.54s.1-1.07.29-1.54c.19-.47.46-.87.8-1.22.34-.34.74-.61,1.21-.8.47-.19.97-.29,1.51-.29.46,0,.91.09,1.36.27.45.18.84.47,1.17.89l-.65.49c-.08-.12-.18-.23-.31-.35-.13-.12-.28-.22-.45-.31-.17-.09-.35-.16-.54-.22-.19-.06-.39-.08-.58-.08-.47,0-.89.09-1.26.26-.37.17-.69.4-.95.69-.26.29-.46.63-.59,1.01-.14.38-.21.78-.21,1.2s.07.82.21,1.2c.14.38.34.72.59,1.01.26.29.57.52.95.69.37.17.79.26,1.26.26.19,0,.38-.02.57-.05.19-.03.38-.09.56-.18.18-.08.36-.2.52-.34.16-.14.31-.32.45-.53l.61.43Z"/>
      <path class="cls-1" d="M188,187.17c-.01-.13-.02-.26-.03-.39,0-.13,0-.26,0-.39h-.02c-.08.13-.17.25-.29.36-.12.11-.25.2-.39.28-.14.08-.3.14-.46.19-.16.04-.32.07-.48.07-.62,0-1.08-.16-1.38-.49-.3-.33-.45-.79-.45-1.4v-3.07h.68v2.68c0,.27.02.51.06.71.04.21.11.38.21.52.1.14.23.25.4.32.17.07.38.11.64.11.03,0,.13-.01.29-.04.16-.03.32-.1.5-.23.18-.12.33-.31.47-.56.14-.25.21-.59.21-1.03v-2.48h.68v3.77c0,.13,0,.3.02.5,0,.2.02.39.04.57h-.7Z"/>
      <rect class="cls-1" x="190.41" y="179.35" width=".68" height="7.82"/>
      <path class="cls-1" d="M195.23,182.95h-1.4v2.85c0,.18.02.33.05.44.03.11.08.2.14.26.06.06.14.1.22.13.09.02.18.04.28.04.12,0,.24-.02.36-.05.12-.03.24-.08.34-.13l.03.63c-.25.12-.56.18-.92.18-.13,0-.27-.02-.41-.05-.14-.03-.27-.1-.39-.2-.12-.1-.21-.23-.29-.39-.08-.16-.11-.38-.11-.65v-3.05h-1.02v-.62h1.02v-1.36h.68v1.36h1.4v.62Z"/>
      <path class="cls-1" d="M199.66,187.17c-.01-.13-.02-.26-.02-.39,0-.13,0-.26,0-.39h-.02c-.08.13-.17.25-.29.36-.12.11-.25.2-.39.28-.15.08-.3.14-.46.19-.16.04-.32.07-.48.07-.62,0-1.08-.16-1.38-.49-.3-.33-.45-.79-.45-1.4v-3.07h.68v2.68c0,.27.02.51.06.71.04.21.11.38.21.52.1.14.24.25.4.32.17.07.38.11.64.11.03,0,.13-.01.29-.04.16-.03.32-.1.5-.23.18-.12.33-.31.47-.56.14-.25.21-.59.21-1.03v-2.48h.68v3.77c0,.13,0,.3.02.5.01.2.02.39.04.57h-.7Z"/>
      <path class="cls-1" d="M201.98,183.84c0-.21,0-.43-.02-.65,0-.22-.02-.51-.02-.86h.67v.9h.02c.05-.13.12-.26.21-.38.09-.12.2-.23.32-.33.13-.1.28-.17.44-.23.17-.06.36-.09.57-.09.19,0,.36.02.51.06l-.13.67c-.09-.04-.22-.05-.39-.05-.26,0-.49.05-.67.15-.19.1-.34.23-.46.38-.12.16-.22.32-.27.5-.06.18-.09.35-.09.52v2.73h-.68v-3.33Z"/>
      <path class="cls-1" d="M208.45,184.2v-.12c0-.83-.41-1.25-1.24-1.25-.56,0-1.06.19-1.48.57l-.41-.49c.46-.47,1.14-.7,2.05-.7.24,0,.46.03.68.1s.4.17.56.32c.16.14.29.32.38.53.1.21.14.47.14.76v2.16c0,.19,0,.38.03.58.02.2.04.37.06.5h-.66c-.02-.12-.04-.25-.05-.38,0-.14-.01-.27-.01-.4h-.02c-.2.32-.44.56-.71.7-.27.14-.6.21-1,.21-.21,0-.42-.03-.62-.09-.2-.06-.38-.15-.53-.27-.16-.12-.28-.27-.37-.44-.09-.18-.14-.38-.14-.61,0-.39.1-.7.3-.93.2-.22.46-.39.76-.5.31-.11.63-.18.98-.21.35-.03.67-.04.96-.04h.34ZM208.09,184.76c-.17,0-.39,0-.65.03-.26.02-.51.06-.74.12-.24.07-.44.17-.61.3-.17.14-.25.33-.25.57,0,.16.03.29.1.41.07.11.15.21.26.28.11.07.23.12.37.15.13.03.27.05.41.05.25,0,.46-.04.65-.12.18-.08.34-.19.46-.34.12-.14.22-.31.27-.5.06-.19.09-.39.09-.6v-.35h-.35Z"/>
      <rect class="cls-1" x="210.86" y="179.35" width=".68" height="7.82"/>
      <path class="cls-1" d="M222.34,186.01c-.12.19-.28.36-.46.53-.18.17-.39.31-.63.43-.23.12-.49.21-.76.28-.27.07-.56.1-.86.1-.54,0-1.05-.1-1.51-.29-.46-.19-.87-.46-1.21-.8-.34-.34-.61-.75-.8-1.21s-.29-.98-.29-1.54.1-1.07.29-1.54c.19-.47.46-.87.8-1.22.34-.34.75-.61,1.21-.8.46-.19.97-.29,1.51-.29.46,0,.91.09,1.36.27.45.18.84.47,1.17.89l-.65.49c-.08-.12-.18-.23-.31-.35-.13-.12-.28-.22-.45-.31-.17-.09-.35-.16-.54-.22-.19-.06-.39-.08-.58-.08-.47,0-.89.09-1.26.26-.37.17-.69.4-.95.69-.26.29-.46.63-.59,1.01-.14.38-.21.78-.21,1.2s.07.82.21,1.2c.14.38.34.72.59,1.01.26.29.57.52.95.69.37.17.79.26,1.26.26.19,0,.38-.02.57-.05.19-.03.38-.09.56-.18.18-.08.35-.2.52-.34.16-.14.31-.32.45-.53l.61.43Z"/>
      <path class="cls-1" d="M223.82,184.93c.02.24.08.47.18.68.1.21.22.4.38.55.16.16.34.28.55.37.21.09.43.13.67.13.37,0,.68-.08.95-.25.27-.17.47-.36.6-.58l.53.44c-.29.36-.61.63-.96.78-.35.16-.72.24-1.12.24-.36,0-.69-.06-1-.19-.31-.13-.57-.3-.79-.53-.22-.23-.39-.5-.52-.81-.13-.31-.19-.65-.19-1.01s.06-.7.19-1.01c.12-.31.3-.58.52-.81.22-.23.48-.4.78-.53.3-.13.62-.19.96-.19.37,0,.69.07.98.2.29.13.53.3.73.52.2.22.35.47.45.76.1.29.16.6.16.94v.31h-4.03ZM227.1,184.37c0-.46-.14-.84-.41-1.12-.28-.29-.66-.43-1.16-.43-.22,0-.43.04-.64.13-.21.09-.39.2-.54.35-.16.15-.28.31-.37.5-.09.19-.14.38-.14.58h3.27Z"/>
      <path class="cls-1" d="M229.74,182.33c.01.13.02.26.03.39,0,.13,0,.26,0,.39h.02c.08-.13.17-.25.29-.36.12-.11.25-.2.39-.28.14-.08.3-.14.46-.19.16-.04.32-.07.48-.07.62,0,1.08.16,1.38.49s.45.79.45,1.4v3.07h-.68v-2.68c0-.54-.09-.95-.28-1.24-.19-.29-.53-.43-1.03-.43-.03,0-.13.01-.29.04-.16.03-.32.1-.5.23-.18.12-.33.31-.47.56-.14.25-.21.59-.21,1.03v2.48h-.68v-3.77c0-.13,0-.3-.02-.5,0-.2-.02-.39-.04-.57h.7Z"/>
      <path class="cls-1" d="M237.34,182.95h-1.4v2.85c0,.18.02.33.05.44.03.11.08.2.15.26.06.06.14.1.22.13.09.02.18.04.28.04.12,0,.24-.02.36-.05.12-.03.24-.08.34-.13l.03.63c-.26.12-.56.18-.92.18-.13,0-.27-.02-.41-.05-.14-.03-.27-.1-.39-.2-.12-.1-.21-.23-.29-.39-.08-.16-.11-.38-.11-.65v-3.05h-1.02v-.62h1.02v-1.36h.68v1.36h1.4v.62Z"/>
      <path class="cls-1" d="M238.74,184.93c.02.24.08.47.18.68.1.21.22.4.38.55.16.16.34.28.55.37.21.09.43.13.67.13.37,0,.68-.08.95-.25.27-.17.47-.36.6-.58l.53.44c-.29.36-.61.63-.96.78-.35.16-.72.24-1.12.24-.36,0-.69-.06-1-.19-.31-.13-.57-.3-.79-.53-.22-.23-.39-.5-.52-.81-.13-.31-.19-.65-.19-1.01s.06-.7.19-1.01c.12-.31.3-.58.52-.81.22-.23.48-.4.78-.53.3-.13.62-.19.96-.19.37,0,.69.07.98.2.29.13.53.3.73.52.2.22.35.47.45.76.1.29.16.6.16.94v.31h-4.03ZM242.03,184.37c0-.46-.14-.84-.41-1.12-.28-.29-.66-.43-1.16-.43-.22,0-.43.04-.64.13-.21.09-.39.2-.54.35-.15.15-.28.31-.37.5-.09.19-.14.38-.14.58h3.27Z"/>
      <path class="cls-1" d="M244.09,183.84c0-.21,0-.43-.02-.65,0-.22-.02-.51-.03-.86h.67v.9h.02c.05-.13.12-.26.21-.38.09-.12.2-.23.32-.33.13-.1.28-.17.44-.23s.36-.09.57-.09c.19,0,.36.02.51.06l-.13.67c-.09-.04-.22-.05-.39-.05-.26,0-.49.05-.67.15-.19.1-.34.23-.47.38-.12.16-.22.32-.27.5-.06.18-.09.35-.09.52v2.73h-.68v-3.33Z"/>
      <path class="cls-1" d="M247.75,186.67c0,.15-.05.27-.16.39-.1.11-.24.17-.4.17s-.3-.06-.4-.17c-.1-.11-.16-.24-.16-.39s.05-.27.16-.39c.1-.11.24-.17.4-.17s.3.06.4.17c.1.11.16.24.16.39"/>
    </g>
  </g>
</svg>