<?xml version="1.0" encoding="UTF-8"?>
<svg id="Layer_2" data-name="Layer 2" xmlns="http://www.w3.org/2000/svg" viewBox="0 0 206.79 168.91">
  <defs>
    <style>
      .cls-1 {
        fill: #bfb69d;
      }

      .cls-2 {
        fill: #b8a27c;
      }

      .cls-3 {
        fill: #8a8986;
      }
    </style>
  </defs>
  <g id="Layer_1-2" data-name="Layer 1">
    <path class="cls-2" d="M103.89,83.52l23.05-9.41-2.26-22.72,5.69,6.02,2.64,26.11h-29.12ZM102.97,80.98l-1.91-.72-19.69-8.2v-.02s-.21-.09-.21-.09l3.48-47.01h0l.94-10.58,2.1,5.7,1.93-5.73,1.91,5.67,1.91-5.67,1.91,5.67,1.91-5.67,1.91,5.67,1.91-5.67h0s0,0,0,0l1.91,5.66,1.91-5.66h0s0,0,0,0l1.91,5.67,1.91-5.67,1.91,5.67,1.91-5.67,1.91,5.67,1.91-5.67,1.93,5.73,2.1-5.7.94,10.58h-.01l3.48,47.01-.21.09v.02s-19.69,8.2-19.69,8.2l-1.91.72s-.04,0,0,0M72.78,83.52l2.65-26.11,5.7-6.02-2.26,22.72,23.05,9.41h-29.13ZM134.01,0h-61.22l-30.61,53.02,30.61,53.02h61.22l30.61-53.02L134.01,0Z"/>
    <path class="cls-1" d="M102.97,80.98s.04,0,0,0"/>
    <path class="cls-3" d="M8.37,164.76c-.14.22-.31.41-.53.56-.21.15-.45.25-.72.3-.27.06-.53.09-.79.09h-2.98v-3.45h2.53c.27,0,.55.02.87.06.31.04.6.12.87.24.27.12.5.3.68.52.18.23.28.51.28.85s-.07.61-.21.83M3.35,156.21h2.26c.26,0,.52.02.79.07.27.05.51.13.72.24.21.11.39.28.52.5.14.22.21.48.21.78s-.06.55-.19.76c-.13.21-.29.38-.48.51-.19.13-.42.22-.67.28-.25.06-.5.09-.75.09h-2.41v-3.22ZM10.99,161.82c-.6-.68-1.41-1.08-2.42-1.19v-.06c.79-.26,1.43-.66,1.9-1.21.47-.55.71-1.26.71-2.11s-.16-1.5-.49-2c-.33-.5-.75-.89-1.28-1.16s-1.12-.46-1.79-.55c-.67-.1-1.33-.14-1.99-.14H0v15.14h6.19c.68,0,1.36-.07,2.04-.22s1.29-.38,1.83-.71c.54-.33.99-.76,1.33-1.29.34-.54.51-1.2.51-2,0-.98-.3-1.82-.9-2.5"/>
    <path class="cls-3" d="M17.74,162.51l1.86-4.71,1.86,4.71h-3.72ZM18.32,153.39l-6.57,15.14h3.69l1.25-3.19h5.9l1.31,3.19h3.75l-6.6-15.14h-2.72Z"/>
    <path class="cls-3" d="M36.99,158.92c-.17.23-.39.4-.67.52-.28.11-.58.18-.9.2-.33.02-.65.03-.96.03h-1.97v-3.45h2.17c.31,0,.62.02.91.06.3.04.57.12.83.24.26.12.46.3.61.54.15.24.23.54.23.91,0,.41-.09.73-.26.96M39.88,160.7c.55-.75.83-1.65.83-2.71,0-.88-.15-1.62-.45-2.21-.3-.59-.71-1.06-1.23-1.42-.53-.35-1.13-.6-1.82-.75-.69-.15-1.42-.22-2.19-.22h-5.87v15.14h3.35v-6.05h1.65l3.14,6.05h4.01l-3.83-6.4c1.06-.21,1.87-.69,2.42-1.43"/>
    <polygon class="cls-3" points="53.93 156.36 53.93 153.39 42.47 153.39 42.47 156.36 49.9 156.36 42.22 165.45 42.22 168.53 54.2 168.53 54.2 165.45 46.4 165.45 53.93 156.36"/>
    <path class="cls-3" d="M61.1,162.51l1.86-4.71,1.86,4.71h-3.72ZM61.69,153.39l-6.57,15.14h3.69l1.25-3.19h5.9l1.31,3.19h3.75l-6.6-15.14h-2.72Z"/>
    <polygon class="cls-3" points="83.53 163.9 83.5 163.9 77.04 153.39 72.52 153.39 72.52 168.53 75.86 168.53 75.86 157.75 75.89 157.75 82.52 168.53 86.88 168.53 86.88 153.39 83.53 153.39 83.53 163.9"/>
    <polygon class="cls-3" points="105.44 159.02 98.97 159.02 98.97 153.39 95.62 153.39 95.62 168.53 98.97 168.53 98.97 161.99 105.44 161.99 105.44 168.53 108.79 168.53 108.79 153.39 105.44 153.39 105.44 159.02"/>
    <path class="cls-3" d="M123.34,162.92c-.22.6-.54,1.11-.94,1.54-.41.43-.9.76-1.48,1.01-.58.25-1.23.37-1.95.37s-1.36-.12-1.94-.37c-.58-.24-1.08-.58-1.48-1.01-.41-.43-.72-.94-.94-1.54s-.33-1.25-.33-1.94.11-1.37.33-1.97c.22-.59.54-1.1.94-1.54s.9-.78,1.48-1.02c.58-.25,1.23-.37,1.94-.37s1.37.12,1.95.37c.58.25,1.08.59,1.48,1.02.41.43.72.95.94,1.54.22.59.33,1.25.33,1.97s-.11,1.34-.33,1.94M124.85,155.16c-.73-.7-1.6-1.23-2.6-1.6-1.01-.37-2.1-.55-3.29-.55s-2.26.18-3.26.55c-1,.37-1.86.9-2.59,1.6-.73.7-1.3,1.54-1.7,2.51-.41.97-.61,2.08-.61,3.31s.2,2.32.61,3.29c.41.98.97,1.81,1.7,2.5.73.69,1.59,1.22,2.59,1.59,1,.37,2.09.55,3.26.55s2.28-.18,3.29-.55c1.01-.37,1.88-.9,2.6-1.59.73-.69,1.3-1.52,1.7-2.5.41-.97.61-2.07.61-3.29s-.2-2.33-.61-3.31c-.41-.98-.97-1.81-1.7-2.51"/>
    <polygon class="cls-3" points="132.66 153.39 129.35 153.39 129.35 168.53 138.86 168.53 138.86 165.45 132.66 165.45 132.66 153.39"/>
    <path class="cls-3" d="M150.8,162.99c-.27.59-.65,1.07-1.13,1.44-.48.37-1.06.63-1.73.79-.67.15-1.4.23-2.17.23h-1.7v-8.98h1.97c.7,0,1.36.09,1.99.26s1.18.44,1.65.8c.47.36.84.82,1.11,1.36.27.55.4,1.19.4,1.93,0,.85-.13,1.57-.4,2.16M152.04,155.11c-.82-.61-1.78-1.05-2.87-1.32s-2.24-.4-3.46-.4h-4.99v15.14h5.46c1.12,0,2.2-.16,3.23-.48,1.03-.32,1.93-.8,2.72-1.44.79-.64,1.41-1.43,1.87-2.36.46-.94.7-2.01.7-3.24,0-1.4-.24-2.58-.71-3.54-.47-.96-1.12-1.75-1.94-2.36"/>
    <rect class="cls-3" x="156.71" y="153.39" width="3.35" height="15.14"/>
    <polygon class="cls-3" points="174.11 163.9 174.08 163.9 167.62 153.39 163.1 153.39 163.1 168.53 166.44 168.53 166.44 157.75 166.47 157.75 173.1 168.53 177.46 168.53 177.46 153.39 174.11 153.39 174.11 163.9"/>
    <path class="cls-3" d="M188.14,162.63h2.71v2.47c-.31.16-.73.32-1.26.49-.53.17-1.16.25-1.9.25s-1.35-.12-1.94-.37c-.58-.25-1.08-.58-1.48-1.01-.41-.43-.72-.94-.94-1.54-.22-.6-.33-1.25-.33-1.94s.11-1.37.33-1.97c.22-.59.54-1.1.94-1.54.41-.44.9-.78,1.48-1.02.58-.25,1.23-.37,1.94-.37.86,0,1.58.12,2.16.35.58.24,1.09.6,1.55,1.08l2.34-2.55c-.76-.72-1.66-1.22-2.69-1.52-1.03-.29-2.15-.44-3.35-.44s-2.26.18-3.26.55c-1,.37-1.86.9-2.59,1.6-.73.7-1.3,1.54-1.7,2.51-.41.97-.61,2.08-.61,3.31s.2,2.32.61,3.29c.41.97.97,1.81,1.7,2.5.73.69,1.59,1.22,2.59,1.59,1,.37,2.08.55,3.26.55s2.22-.11,3.29-.33c1.07-.22,2.09-.59,3.08-1.1v-7.93h-5.93v3.08Z"/>
    <path class="cls-3" d="M206.27,161.83c-.35-.53-.78-.95-1.29-1.26-.51-.31-1.07-.56-1.67-.73-.6-.18-1.16-.35-1.67-.51-.52-.17-.95-.37-1.29-.61-.35-.24-.52-.59-.52-1.06,0-.29.07-.54.21-.73.14-.19.32-.35.55-.48.22-.12.47-.21.73-.28.27-.06.51-.09.74-.09.41,0,.84.08,1.31.25.47.17.84.41,1.1.74l2.3-2.5c-.64-.56-1.35-.96-2.14-1.21-.78-.25-1.61-.37-2.49-.37-.76,0-1.48.11-2.16.32-.69.21-1.3.52-1.84.93-.54.41-.97.91-1.29,1.53-.32.61-.48,1.32-.48,2.13,0,.86.17,1.54.52,2.04.35.5.79.91,1.31,1.24.52.32,1.09.57,1.71.76.62.19,1.19.37,1.72.55.53.18.96.4,1.31.67.35.26.53.63.53,1.09,0,.27-.07.51-.21.7-.14.19-.32.36-.54.49-.22.13-.47.23-.74.29-.27.06-.54.09-.81.09-.57,0-1.11-.13-1.63-.38-.52-.25-.96-.61-1.31-1.05l-2.36,2.62c.72.67,1.5,1.16,2.34,1.45.84.29,1.75.44,2.74.44.78,0,1.52-.1,2.23-.31.71-.2,1.33-.51,1.86-.91.53-.41.96-.92,1.28-1.54.32-.62.48-1.36.48-2.22s-.17-1.57-.52-2.1"/>
    <path class="cls-3" d="M35.5,127.38c.41,0,.82-.18,1.21-.54.4-.36.59-.8.59-1.33,0-.46-.17-.87-.53-1.25-.35-.37-.78-.56-1.28-.56-.59,0-1.05.19-1.38.56-.33.38-.5.79-.5,1.25,0,.52.18.96.54,1.33.36.36.8.54,1.33.54"/>
    <path class="cls-3" d="M54.03,141.23c-.5,0-.93.18-1.3.53-.36.35-.54.79-.54,1.31s.19.99.56,1.33c.37.34.8.51,1.28.51s.93-.18,1.29-.53c.36-.35.54-.79.54-1.31s-.18-.93-.54-1.29c-.36-.36-.79-.54-1.29-.54"/>
    <path class="cls-3" d="M34.62,136.72c.61-.75,1.2-1.41,1.77-1.99s1.13-1.07,1.69-1.46c.55-.39,1.13-.69,1.72-.9.59-.21,1.22-.31,1.9-.31s1.26.11,1.74.33c.48.22.88.54,1.21.95.32.42.59.91.8,1.47.21.57.38,1.2.5,1.9h-11.32ZM52.84,139.37c.62-.26,1.18-.63,1.67-1.09.49-.47.89-1.03,1.19-1.69.3-.66.46-1.39.46-2.2v-5.5h-3.04v5.5c0,.64-.22,1.17-.66,1.59-.44.42-.93.67-1.47.74h-1.93c-.19-1.12-.45-2.15-.78-3.09-.33-.94-.77-1.75-1.33-2.44-.55-.69-1.26-1.23-2.11-1.62-.85-.39-1.88-.59-3.09-.59-.69,0-1.36.07-1.99.22-.63.14-1.27.38-1.9.7-.64.33-1.29.76-1.95,1.29s-1.38,1.2-2.13,1.98l-1.02,1.02v-3.84h-3.07v6.37H12.47v-7.68h-7.13c-.79,0-1.51.14-2.17.43-.66.29-1.22.68-1.69,1.17-.47.49-.83,1.06-1.1,1.72-.26.66-.39,1.35-.39,2.09,0,.79.14,1.51.42,2.15.28.65.67,1.2,1.16,1.67.49.47,1.05.83,1.69,1.09.64.26,1.31.39,2.04.39h2.56v-3.04h-2.46c-.68,0-1.25-.2-1.69-.61-.45-.4-.67-.96-.67-1.66,0-.26.05-.52.14-.8.09-.28.23-.53.43-.76.2-.23.44-.41.74-.55.29-.14.65-.21,1.06-.21h4.03v7.63h41.56c.61,0,1.22-.13,1.85-.39"/>
    <path class="cls-3" d="M85.89,127.54c.41,0,.82-.18,1.21-.54.4-.36.59-.8.59-1.34,0-.46-.18-.87-.53-1.24-.35-.37-.78-.55-1.28-.55-.59,0-1.05.18-1.38.55-.33.37-.5.78-.5,1.24,0,.53.18.98.54,1.34.36.36.8.54,1.33.54"/>
    <path class="cls-3" d="M90.99,127.54c.42,0,.82-.18,1.21-.54.39-.36.58-.8.58-1.34,0-.46-.17-.87-.52-1.24-.35-.37-.77-.55-1.27-.55-.59,0-1.05.18-1.38.55-.33.37-.49.78-.49,1.24,0,.53.18.98.54,1.34.36.36.8.54,1.33.54"/>
    <path class="cls-3" d="M90.05,135.98c-.41.5-.96.74-1.66.74-.65,0-1.18-.22-1.6-.66-.42-.44-.62-.98-.62-1.62s.21-1.16.64-1.6c.43-.44.95-.65,1.58-.65.7,0,1.26.24,1.66.72.4.48.61.99.61,1.54s-.2,1.03-.61,1.53M111.94,139.76c.69,0,1.36-.13,2.01-.39.65-.26,1.22-.63,1.72-1.1.5-.47.9-1.03,1.2-1.69.3-.66.45-1.39.45-2.2v-13.23h-3.06v13.23c0,.64-.2,1.19-.61,1.65-.41.46-.97.69-1.71.69h-18.74c.14-.31.26-.66.35-1.04.1-.38.14-.79.14-1.23,0-.71-.12-1.4-.38-2.04-.25-.65-.61-1.21-1.08-1.69-.47-.48-1.03-.86-1.67-1.15-.65-.29-1.36-.43-2.15-.43-.71,0-1.39.13-2.02.4-.63.27-1.19.63-1.67,1.09-.48.46-.86,1.01-1.15,1.65-.28.64-.42,1.35-.42,2.14s.15,1.56.45,2.3h-18.76s-.01,0-.02,0h0c-.72,0-1.28-.21-1.67-.64s-.58-1-.58-1.73v-13.19h-3.09v13.03c0,.79.13,1.51.39,2.17.26.66.63,1.24,1.11,1.74.48.5,1.04.89,1.69,1.18.64.29,1.36.45,2.15.47h0s.01,0,.02,0h47.1Z"/>
    <rect class="cls-3" x="120.56" y="121.16" width="3.09" height="18.6"/>
    <path class="cls-3" d="M141.7,135.45c-.34.36-.5.79-.5,1.3s.17.93.5,1.29c.34.36.76.54,1.29.54s.94-.18,1.3-.54c.36-.36.54-.79.54-1.29s-.17-.95-.5-1.3c-.33-.36-.78-.54-1.33-.54-.52,0-.95.18-1.29.54"/>
    <path class="cls-3" d="M146.43,144.16c1.03-.47,1.88-1.1,2.54-1.88.67-.78,1.17-1.68,1.5-2.68.34-1,.51-2.05.51-3.15v-7.5h-3.07v7.5c0,.85-.13,1.61-.39,2.28-.26.67-.61,1.23-1.06,1.7-.45.47-.96.82-1.54,1.06-.58.24-1.19.36-1.81.36-.66,0-1.28-.1-1.86-.31-.58-.21-1.09-.51-1.54-.9-.45-.39-.8-.89-1.05-1.47s-.38-1.26-.38-2.03.12-1.4.36-2.01c.24-.6.57-1.12.99-1.54.42-.43.92-.76,1.5-1.01.58-.25,1.2-.4,1.85-.44v-3.05c-1.22.06-2.31.32-3.28.77-.97.45-1.79,1.03-2.47,1.76s-1.19,1.56-1.54,2.49c-.35.94-.53,1.93-.53,2.98,0,1.35.24,2.52.74,3.5.49.98,1.11,1.79,1.86,2.42.75.63,1.58,1.1,2.49,1.41.91.3,1.76.46,2.57.46,1.38,0,2.58-.24,3.61-.7"/>
    <rect class="cls-3" x="154.92" y="121.16" width="3.09" height="18.6"/>
    <path class="cls-3" d="M162.83,127.51c.52,0,.96-.18,1.3-.54.35-.36.52-.79.52-1.3s-.19-.96-.55-1.3c-.37-.35-.79-.52-1.27-.52s-.92.17-1.29.52c-.37.35-.55.78-.55,1.3,0,.48.17.91.5,1.28.34.37.78.56,1.34.56"/>
    <path class="cls-3" d="M166.69,138.07c.2-.75.3-1.53.3-2.34,0-1.31-.35-2.55-1.05-3.72-.7-1.17-1.68-2.17-2.95-3l-1.55,2.72c1.66,1.02,2.49,2.46,2.49,4.3,0,.48-.06.94-.18,1.39s-.35.95-.7,1.52l-3.31,5.57,2.62,1.5,3.21-5.44c.54-.92.91-1.75,1.11-2.5"/>
    <path class="cls-3" d="M171.54,138.82l-3.31,5.57,2.62,1.5,3.21-5.44c.06-.11.13-.22.19-.34.06-.12.12-.24.16-.34h2.62s0,0,.02,0h24.56c.61,0,1.22-.13,1.85-.39.62-.26,1.18-.63,1.67-1.1.49-.47.89-1.03,1.19-1.69.3-.66.46-1.39.46-2.2v-5.5h-3.04v5.5c0,.64-.22,1.17-.66,1.59-.44.42-.93.67-1.47.74h-24.56s-.01,0-.02,0h0s-1.63,0-1.63,0c.04-.18.06-.37.06-.55v-.57c0-1.31-.35-2.55-1.05-3.72-.7-1.17-1.68-2.17-2.95-3l-1.55,2.72c1.66,1.02,2.49,2.45,2.49,4.29,0,.48-.06.94-.18,1.39-.12.45-.35.96-.7,1.54"/>
    <path class="cls-3" d="M204.66,141.23c-.5,0-.93.18-1.3.53-.36.35-.54.79-.54,1.31s.19.99.56,1.33c.37.34.8.51,1.28.51s.93-.18,1.29-.53c.36-.35.54-.79.54-1.31s-.18-.93-.54-1.29c-.36-.36-.79-.54-1.29-.54"/>
    <path class="cls-3" d="M3.91,127.54c.41,0,.82-.18,1.21-.54.4-.36.59-.8.59-1.34,0-.46-.18-.87-.53-1.24-.35-.37-.78-.55-1.28-.55-.59,0-1.04.18-1.38.55-.33.37-.5.78-.5,1.24,0,.53.18.98.54,1.34.36.36.8.54,1.33.54"/>
    <path class="cls-3" d="M9.01,127.54c.42,0,.82-.18,1.21-.54.39-.36.59-.8.59-1.34,0-.46-.18-.87-.52-1.24-.35-.37-.77-.55-1.27-.55-.59,0-1.05.18-1.38.55-.33.37-.5.78-.5,1.24,0,.53.18.98.54,1.34.36.36.8.54,1.33.54"/>
  </g>
</svg>