<?xml version="1.0" encoding="UTF-8"?>
<svg id="Layer_2" data-name="Layer 2" xmlns="http://www.w3.org/2000/svg" viewBox="0 0 377.56 254.66">
  <defs>
    <style>
      .cls-1 {
        fill: #154284;
      }

      .cls-2 {
        fill: #00a1d4;
      }

      .cls-3 {
        fill: #9fa61a;
      }
    </style>
  </defs>
  <g id="Layer_1-2" data-name="Layer 1">
    <path class="cls-3" d="M21.21,244.59c7.87,0,15.85-3.51,15.85-13.8s-7.87-13.91-15.85-13.91h-12.03v27.72h12.03ZM20.55,208.16c7.55,0,14.65-2.15,14.65-11.32s-7.11-11.2-14.65-11.2h-11.37v22.52h11.37ZM0,177.5l.55-.57h19.9c12.46,0,23.95,3.74,23.95,19.35,0,7.24-3.5,13.46-10.17,15.95,7.66,2.6,12.14,9.5,12.14,18.55,0,15.72-11.59,22.51-23.95,22.51H.55l-.55-.57v-75.24Z"/>
    <path class="cls-3" d="M73.69,221.4c6.01,0,11.37-2.04,11.37-9.05,0-3.96-2.95-8.15-10.28-8.15s-11.7,4.42-11.7,13.13v2.04s4.7,2.04,10.61,2.04M54.34,216.07c0-12.67,8.42-20.02,20.77-20.02,13.99,0,19.13,8.82,19.13,16.74,0,11.2-7.65,16.63-18.04,16.63s-13.34-5.54-13.67-6.33l.55,4.19v5.88c0,8.71,4.81,13.35,12.25,13.35,6.56,0,9.84-2.26,11.92-5.99l.76-.23,6.56,2.38.33.68c-2.62,7.24-9.84,11.32-19.13,11.32-13.45,0-21.43-6.68-21.43-19.58v-19.01Z"/>
    <path class="cls-3" d="M120.38,221.4c6.01,0,11.37-2.04,11.37-9.05,0-3.96-2.95-8.15-10.28-8.15s-11.7,4.42-11.7,13.13v2.04s4.7,2.04,10.6,2.04M101.03,216.07c0-12.67,8.42-20.02,20.77-20.02,13.99,0,19.13,8.82,19.13,16.74,0,11.2-7.66,16.63-18.04,16.63s-13.34-5.54-13.67-6.33l.55,4.19v5.88c0,8.71,4.81,13.35,12.25,13.35,6.56,0,9.84-2.26,11.92-5.99l.77-.23,6.56,2.38.33.68c-2.62,7.24-9.84,11.32-19.13,11.32-13.45,0-21.43-6.68-21.43-19.58v-19.01Z"/>
    <path class="cls-3" d="M149.9,209.18l-2.73-10.64.55-.68,6.67-1.02.66.45,3.06,7.92c.44-1.47,3.61-9.17,15.31-9.17,6.23,0,11.04,2.83,13.56,8.37,1.2-2.26,5.47-8.37,15.96-8.37,9.62,0,16.73,6.68,16.73,19.57v37.11l-.55.56h-7.76l-.44-.56v-35.3c0-9.73-5.36-13.12-11.59-13.12-2.41,0-8.86,1.7-11.37,2.49.66,2.26,1.2,4.87,1.2,7.92v38.02l-.55.56h-7.66l-.54-.56v-35.3c0-9.73-4.37-13.24-10.61-13.24-2.4,0-9.07,2.04-11.15,2.6v45.94l-.55.56h-7.65l-.54-.56v-43.56Z"/>
    <path class="cls-3" d="M244.59,246.51c5.47,0,12.9-3.28,12.9-3.28v-19.12c-1.31,4.41-5.9,5.66-9.62,5.66h-2.62c-3.83,0-9.51,1.47-9.51,8.37,0,4.98,3.39,8.37,8.86,8.37M231.79,225.69c4.05-3.39,9.95-4.3,17.05-4.3h3.83c2.41,0,3.94-.57,4.81-1.13v-5.32c0-8.71-5.14-10.75-11.26-10.75-4.26,0-8.09,1.13-10.82,3.4l-.88-.11-3.72-5.66.22-.91c3.94-3.16,9.4-4.86,15.31-4.86,11.15,0,19.9,4.64,19.9,17.2v28.96l2.73,9.95-.55.68-6.67,1.02-.66-.45-3.17-8.15s-2.63,9.39-14.76,9.39c-7.76,0-16.62-4.19-16.62-16.63,0-5.66,2.18-9.73,5.25-12.33"/>
    <polygon class="cls-3" points="173.39 176.64 173.39 167.53 173.92 166.98 182.73 166.98 183.26 167.53 183.26 176.64 182.73 177.19 173.92 177.19 173.39 176.64"/>
    <polygon class="cls-3" points="189.11 176.64 189.11 167.53 189.64 166.98 198.44 166.98 198.97 167.53 198.97 176.64 198.44 177.19 189.64 177.19 189.11 176.64"/>
    <polygon class="cls-3" points="259.15 176.64 259.15 167.53 259.68 166.98 268.49 166.98 269.02 167.53 269.02 176.64 268.49 177.19 259.68 177.19 259.15 176.64"/>
    <path class="cls-3" d="M120.12,158.79c0,8.45-4.45,12.95-11.88,12.95s-11.88-4.5-11.88-12.95v-6.46c0-8.45,4.24-12.84,11.88-12.84s11.88,4.39,11.88,12.84v6.46ZM32.23,107.72v.02s-.01,26.53-.01,26.53c-2.41.33-7.9.12-10.4.12-6.74,0-12.33-3.67-12.33-13.83v-13.31c0-9.1,4.91-13.95,11.99-13.95,7.65,0,10.76,3.74,10.76,12.01v2.41ZM268.24,114.71l-7.39-1.52-.52.31v29.91c0,5.01-3.93,9.08-8.78,9.09h-55.62c1.52-2.67,2.4-5.77,2.4-9.09v-28.01l-.59-.69-7.39-1.52-.52.31v29.91c0,5.01-3.93,9.08-8.78,9.09h-52.45v-1.92c0-12.29-8.7-18.99-20.36-18.99s-20.36,6.7-20.36,18.99v1.88l-41.61.04h-.36s-.07,0-.07,0c-1.59,0-4.77-.66-4.77-4.94v-61.02l-.78-.57-7.03,1.98s-5.39-3.15-12.13-3.15c-11.76,0-20.78,7.21-20.78,20.45v16.98c0,13.71,7.54,20.68,17.58,20.68s12.95-3.17,14.29-5.45v11.37c0,11.52,8.7,12.4,11.56,12.4h.44v.03h43.67c.28,11.91,8.88,18.39,20.35,18.39s20.05-6.47,20.35-18.35h122.96c9.54,0,17.28-8.01,17.28-17.88v-28.01l-.59-.69Z"/>
    <path class="cls-3" d="M206.92,17.25c-6.28,7.35,3.94,19.28,22.81,26.66,8.88,3.46,18.08,5.3,26.01,5.52-1.07-.35-2.15-.73-3.21-1.14-12.38-4.84-19.08-12.67-14.96-17.49,4.12-4.82,17.49-4.81,29.87.03,3.45,1.35,6.46,2.93,8.92,4.61-2.55-6.27-11.29-13.23-23.89-18.15-9.45-3.69-19.28-5.54-27.53-5.54s-14.87,1.84-18,5.51"/>
    <path class="cls-2" d="M218.51,108.88c-11.96-4.67-11.93-19.83.06-33.88,8-9.38,19.32-15.88,29.51-17.78-2.74,1.83-5.31,4.07-7.51,6.64-7.86,9.21-7.88,19.16-.04,22.23,7.85,3.06,20.58-1.92,28.45-11.13.68-.8,1.3-1.59,1.86-2.39-.35,5.89-3.34,12.74-8.97,19.35-11.99,14.04-31.4,21.64-43.36,16.97"/>
    <path class="cls-3" d="M314.41,51.57c16.48,6.44,25.4,16.86,19.92,23.28-5.48,6.42-23.28,6.41-39.76-.03-4.6-1.79-8.6-3.9-11.87-6.14,3.39,8.35,15.03,17.61,31.8,24.16,25.12,9.81,52.26,9.83,60.61.04,8.35-9.79-5.24-25.67-30.37-35.48-11.81-4.61-24.07-7.06-34.61-7.34,1.43.46,2.86.96,4.28,1.52"/>
    <path class="cls-1" d="M328.55,1.13c9.78,3.82,9.76,16.23-.05,27.72-6.55,7.67-15.81,12.99-24.15,14.54,2.24-1.49,4.34-3.33,6.14-5.43,6.43-7.54,6.45-15.68.03-18.18-6.42-2.51-16.84,1.57-23.27,9.11-.55.64-1.06,1.3-1.52,1.95.28-4.82,2.73-10.43,7.34-15.83,9.81-11.49,25.69-17.7,35.47-13.88"/>
  </g>
</svg>