<?xml version="1.0" encoding="UTF-8"?>
<svg id="Layer_2" data-name="Layer 2" xmlns="http://www.w3.org/2000/svg" xmlns:xlink="http://www.w3.org/1999/xlink" viewBox="0 0 188.88 70.83">
  <defs>
    <style>
      .cls-1 {
        fill: none;
      }

      .cls-2 {
        fill: #231f20;
      }

      .cls-3 {
        fill: #821545;
      }

      .cls-4 {
        clip-path: url(#clippath);
      }
    </style>
    <clipPath id="clippath">
      <rect class="cls-1" width="188.88" height="70.83"/>
    </clipPath>
  </defs>
  <g id="Layer_1-2" data-name="Layer 1">
    <g class="cls-4">
      <path class="cls-3" d="M.04,40.03v17.29h56.67c2.54,0,4.62-2.08,4.62-4.62v-12.67H.04Z"/>
      <path class="cls-3" d="M145.1,40.03V0h-17.29v52.7c0,2.54,2.08,4.62,4.62,4.62h56.42v-17.29h-43.75Z"/>
      <path class="cls-3" d="M68.66,0c-2.54,0-4.62,2.08-4.62,4.62v12.67h61.04V0h-56.42Z"/>
      <path class="cls-3" d="M124.29,22.06c-.83-1.23-2.24-2.04-3.83-2.04h-56.42v12.67c0,2.54,2.08,4.62,4.62,4.62h39.13v2.73h-43.75v17.29h56.42c2.54,0,4.62-2.08,4.62-4.62v-28.07c0-.95-.29-1.84-.79-2.58"/>
      <path class="cls-3" d="M56.7,20.02H.04v17.29h43.99v1.36h17.29v-14.03c0-2.54-2.08-4.62-4.62-4.62"/>
      <path class="cls-3" d="M48.06,0H.04v17.29h35.35v1.37h17.29V4.62C52.67,2.08,50.6,0,48.06,0"/>
      <path class="cls-2" d="M.31,68.43c-.16,0-.31-.14-.31-.32v-5.58c0-.18.14-.32.31-.32h1.28c.96,0,1.66.61,1.66,1.63,0,.53-.28,1.1-.66,1.23.67.23.97.9.97,1.53,0,1.06-.68,1.82-1.8,1.82H.31ZM.63,64.84h1.01c.6,0,.96-.38.96-1,0-.66-.38-1.03-1.01-1.03h-.96v2.02ZM.63,67.82h1.13c.73,0,1.13-.46,1.13-1.22,0-.69-.42-1.15-1.12-1.15H.63v2.37Z"/>
      <path class="cls-2" d="M9.47,67.94c.03.07.04.14.04.18,0,.18-.15.31-.33.31-.14,0-.26-.09-.31-.22l-.69-1.9h-2.02l-.66,1.9c-.05.13-.17.22-.31.22-.2,0-.31-.13-.31-.27,0-.06,0-.11.03-.15l1.95-5.57c.05-.13.16-.22.3-.22s.26.09.31.22l2.01,5.51ZM6.37,65.71h1.59l-.81-2.24-.78,2.24Z"/>
      <path class="cls-2" d="M11.38,68.43c-.16,0-.31-.14-.31-.32v-5.58c0-.18.15-.32.31-.32h2.36c.19,0,.33.11.33.3s-.14.31-.33.31h-2.04v2.03h1.7c.19,0,.33.11.33.3s-.14.31-.33.31h-1.7v2.36h2.04c.19,0,.33.11.33.3s-.14.31-.33.31h-2.36Z"/>
      <path class="cls-2" d="M17.86,67.81s-.07-.14-.07-.24c0-.23.2-.31.31-.31.08,0,.15.05.23.1.21.18.46.53,1.15.53.6,0,1.12-.51,1.12-1.13,0-1.81-2.81-.98-2.81-3.09,0-1,.87-1.56,1.72-1.56.53,0,1.12.17,1.51.57.06.06.09.15.09.24,0,.18-.15.32-.31.32-.09,0-.18-.05-.27-.11-.21-.15-.47-.38-1.02-.38-.59,0-1.03.35-1.03.92,0,1.5,2.81.75,2.81,3.09,0,.96-.87,1.75-1.81,1.75-.62,0-1.22-.21-1.62-.71"/>
      <path class="cls-2" d="M24.48,70.51c0-.2.14-.32.33-.34.41-.05.58-.13.74-.34.27-.33.32-.85.32-1.29v-.73s-.06.07-.16.15l-.27.24c-.25.22-.54.31-.88.31-1.35,0-1.69-1.12-1.69-2.15v-1.88c0-.18.13-.33.32-.33s.31.14.31.33v1.88c0,.87.29,1.56,1.14,1.56.15,0,.33-.05.47-.18l.6-.53c.14-.12.16-.21.16-.36v-2.38c0-.18.13-.33.32-.33s.31.14.31.33v4.04c0,.81-.13,1.42-.64,1.89-.26.25-.6.41-1.02.41-.23,0-.36-.13-.36-.32"/>
      <path class="cls-2" d="M28.18,68.05c-.09-.1-.12-.18-.12-.27,0-.17.14-.31.3-.31.09,0,.16.05.24.11.15.14.34.36.81.36.39,0,.72-.26.72-.63,0-1.16-2.02-.55-2.02-2.09,0-.75.73-1.14,1.34-1.14.43,0,.83.14,1.09.35.1.08.15.18.15.3,0,.18-.15.31-.31.31-.09,0-.16-.05-.25-.1-.14-.11-.37-.29-.73-.29s-.64.24-.64.52c0,.95,2.02.47,2.02,2.06,0,.8-.65,1.29-1.43,1.29-.47,0-.91-.2-1.15-.47"/>
      <path class="cls-2" d="M32.79,67.94c-.38-.4-.52-.98-.52-1.82v-3.24c0-.18.15-.3.32-.3s.31.12.31.3v1.28h.8c.19,0,.32.11.32.3s-.13.3-.32.3h-.8v1.38c0,.53,0,.96.33,1.32.18.19.46.33.76.35.21.02.31.14.31.29,0,.2-.16.33-.42.33-.35,0-.73-.12-1.09-.49"/>
      <path class="cls-2" d="M35.18,66.31c0-1.03.54-2.22,1.9-2.22,1.01,0,1.73.93,1.73,1.86,0,.38-.11.52-.41.52h-2.54c0,.79.44,1.43,1.21,1.43.44,0,.63-.14.83-.24.09-.05.16-.08.26-.08.15,0,.26.12.26.28,0,.13-.06.22-.21.34-.25.21-.73.34-1.13.34-1.4,0-1.91-1.15-1.91-2.21M38.12,65.85c-.05-.64-.38-1.16-1.06-1.16s-1.05.52-1.17,1.16h2.23Z"/>
      <path class="cls-2" d="M40.25,68.09v-3.59c0-.23.15-.34.32-.34.15,0,.31.11.31.34v.29s.06-.07.15-.14l.3-.26c.25-.22.53-.3.87-.3.78,0,1.23.37,1.46.88l.67-.58c.25-.22.53-.3.87-.3,1.35,0,1.69,1.11,1.69,2.14v1.87c0,.23-.15.34-.31.34-.16,0-.32-.11-.32-.34v-1.87c0-.87-.28-1.56-1.13-1.56-.15,0-.33.06-.47.18l-.83.71c.04.22.06.44.06.67v1.87c0,.23-.15.34-.31.34-.16,0-.32-.11-.32-.34v-1.87c0-.87-.29-1.56-1.14-1.56-.15,0-.33.06-.47.18l-.6.53c-.14.12-.16.21-.16.35v2.37c0,.23-.15.34-.31.34-.16,0-.32-.11-.32-.34"/>
      <path class="cls-2" d="M48.52,68.05c-.09-.1-.12-.18-.12-.27,0-.17.14-.31.3-.31.09,0,.16.05.24.11.15.14.34.36.81.36.39,0,.72-.26.72-.63,0-1.16-2.02-.55-2.02-2.09,0-.75.73-1.14,1.34-1.14.43,0,.83.14,1.09.35.1.08.15.18.15.3,0,.18-.15.31-.31.31-.09,0-.16-.05-.25-.1-.14-.11-.37-.29-.73-.29s-.64.24-.64.52c0,.95,2.01.47,2.01,2.06,0,.8-.65,1.29-1.43,1.29-.47,0-.91-.2-1.15-.47"/>
      <path class="cls-2" d="M55,67.81s-.07-.14-.07-.24c0-.23.2-.31.31-.31.08,0,.15.05.23.1.21.18.46.53,1.15.53.6,0,1.12-.51,1.12-1.13,0-1.81-2.81-.98-2.81-3.09,0-1,.87-1.56,1.72-1.56.53,0,1.12.17,1.51.57.06.06.09.15.09.24,0,.18-.15.32-.31.32-.09,0-.18-.05-.27-.11-.21-.15-.47-.38-1.02-.38-.59,0-1.03.35-1.03.92,0,1.5,2.81.75,2.81,3.09,0,.96-.87,1.75-1.81,1.75-.62,0-1.22-.21-1.62-.71"/>
      <path class="cls-2" d="M60.51,67.94c-.38-.4-.52-.98-.52-1.82v-3.24c0-.18.15-.3.32-.3s.31.12.31.3v1.28h.8c.19,0,.32.11.32.3s-.13.3-.32.3h-.8v1.38c0,.53,0,.96.33,1.32.18.19.46.33.76.35.21.02.31.14.31.29,0,.2-.16.33-.42.33-.35,0-.73-.12-1.09-.49"/>
      <path class="cls-2" d="M63.25,68.12v-3.63c0-.18.13-.33.32-.33s.31.14.31.33v.3s.06-.07.14-.14l.31-.27c.21-.17.42-.29.66-.29.18,0,.33.12.33.3s-.11.32-.29.32c-.15,0-.32.07-.46.2l-.54.47c-.14.12-.16.21-.16.35v2.4c0,.18-.15.31-.33.31s-.3-.13-.3-.31"/>
      <path class="cls-2" d="M69.57,65.73v2.36c0,.23-.15.34-.31.34-.16,0-.32-.11-.32-.34v-.28s-.12.12-.16.15l-.3.25c-.21.18-.46.3-.91.3-.91,0-1.49-.51-1.49-1.32s.63-1.3,1.61-1.3h1.24v-.15c0-.65-.39-1.06-1.17-1.06-.35,0-.58.08-.91.21-.11.04-.21.08-.28.08-.16,0-.28-.12-.28-.29,0-.15.08-.23.24-.32.34-.18.84-.29,1.29-.29,1.24,0,1.73.8,1.73,1.65M68.77,67.22c.14-.13.17-.21.17-.35v-.42h-1.13c-.72,0-1.07.24-1.07.74,0,.43.25.73.83.73.33,0,.52-.08.71-.25l.49-.45Z"/>
      <path class="cls-2" d="M71.76,67.94c-.38-.4-.52-.98-.52-1.82v-3.24c0-.18.15-.3.32-.3s.31.12.31.3v1.28h.8c.19,0,.32.11.32.3s-.13.3-.32.3h-.8v1.38c0,.53,0,.96.33,1.32.18.19.46.33.76.35.21.02.31.14.31.29,0,.2-.16.33-.42.33-.35,0-.73-.12-1.09-.49"/>
      <path class="cls-2" d="M74.15,66.31c0-1.03.54-2.22,1.9-2.22,1.01,0,1.73.93,1.73,1.86,0,.38-.11.52-.41.52h-2.54c0,.79.44,1.43,1.21,1.43.44,0,.64-.14.83-.24.09-.05.16-.08.26-.08.15,0,.26.12.26.28,0,.13-.06.22-.21.34-.25.21-.73.34-1.13.34-1.4,0-1.91-1.15-1.91-2.21M77.09,65.85c-.05-.64-.38-1.16-1.06-1.16s-1.05.52-1.17,1.16h2.23Z"/>
      <path class="cls-2" d="M80.62,70.51c0-.2.14-.32.33-.34.41-.05.57-.14.74-.34.28-.33.32-.85.32-1.29v-.64c-.23.29-.69.53-1.21.53-1.34,0-1.84-1.14-1.84-2.18s.45-2.17,1.8-2.17c.35,0,.54.07.79.29l.32.27c.08.07.12.11.15.14v-.29c0-.23.15-.34.31-.34.16,0,.32.11.32.34v4.03c0,.81-.13,1.42-.64,1.89-.26.25-.6.41-1.02.41-.23,0-.36-.13-.36-.32M82.01,66.32v-.59c0-.14-.04-.24-.17-.35l-.61-.53c-.15-.13-.32-.16-.47-.16-.82,0-1.13.74-1.13,1.57s.38,1.56,1.2,1.56,1.19-.66,1.19-1.5"/>
      <path class="cls-2" d="M84.28,62.57c0-.23.16-.44.42-.44s.42.22.42.44-.16.45-.42.45-.42-.22-.42-.45M84.38,68.09v-3.59c0-.23.15-.34.31-.34.16,0,.32.11.32.34v3.59c0,.23-.15.34-.32.34s-.31-.11-.31-.34"/>
      <path class="cls-2" d="M86.5,66.31c0-1.03.52-2.22,1.86-2.22.36,0,.84.11,1.08.33.1.09.15.19.15.31,0,.18-.14.31-.3.31-.06,0-.12-.02-.17-.05-.16-.09-.33-.27-.75-.27-.82,0-1.21.76-1.21,1.61s.38,1.6,1.2,1.6c.41,0,.59-.16.74-.26.06-.04.13-.06.2-.06.16,0,.29.12.29.3,0,.07-.04.19-.1.24-.3.27-.74.4-1.12.4-1.34,0-1.87-1.18-1.87-2.21"/>
      <path class="cls-2" d="M97.57,67.94c.03.07.04.14.04.18,0,.18-.15.31-.33.31-.14,0-.26-.09-.31-.22l-.69-1.9h-2.02l-.66,1.9c-.05.13-.17.22-.31.22-.2,0-.31-.13-.31-.27,0-.06,0-.11.03-.15l1.95-5.57c.04-.13.16-.22.3-.22s.26.09.31.22l2.01,5.51ZM94.47,65.71h1.59l-.81-2.24-.78,2.24Z"/>
      <path class="cls-2" d="M98.75,66.31c0-1.03.54-2.22,1.9-2.22,1.01,0,1.73.93,1.73,1.86,0,.38-.11.52-.41.52h-2.54c0,.79.44,1.43,1.21,1.43.44,0,.64-.14.83-.24.09-.05.16-.08.26-.08.15,0,.26.12.26.28,0,.13-.06.22-.21.34-.25.21-.73.34-1.12.34-1.4,0-1.91-1.15-1.91-2.21M101.7,65.85c-.05-.64-.38-1.16-1.06-1.16s-1.05.52-1.17,1.16h2.23Z"/>
      <path class="cls-2" d="M103.82,68.12v-3.63c0-.18.13-.33.32-.33s.31.14.31.33v.3s.06-.07.14-.14l.31-.27c.21-.17.42-.29.66-.29.18,0,.34.12.34.3s-.11.32-.29.32c-.15,0-.32.07-.46.2l-.54.47c-.14.12-.16.21-.16.35v2.4c0,.18-.15.31-.33.31s-.3-.13-.3-.31"/>
      <path class="cls-2" d="M106.79,66.31c0-1.03.52-2.22,1.86-2.22s1.85,1.18,1.85,2.21-.51,2.22-1.85,2.22-1.86-1.18-1.86-2.21M109.84,66.3c0-.83-.37-1.61-1.19-1.61s-1.2.78-1.2,1.62.38,1.61,1.2,1.61,1.19-.77,1.19-1.62"/>
      <path class="cls-2" d="M111.93,68.05c-.09-.1-.12-.18-.12-.27,0-.17.14-.31.3-.31.09,0,.16.05.24.11.15.14.34.36.81.36.39,0,.72-.26.72-.63,0-1.16-2.02-.55-2.02-2.09,0-.75.73-1.14,1.34-1.14.43,0,.83.14,1.09.35.1.08.15.18.15.3,0,.18-.15.31-.31.31-.09,0-.16-.05-.25-.1-.14-.11-.37-.29-.74-.29s-.64.24-.64.52c0,.95,2.01.47,2.01,2.06,0,.8-.65,1.29-1.44,1.29-.47,0-.91-.2-1.15-.47"/>
      <path class="cls-2" d="M116.07,70.38v-5.88c0-.23.15-.34.32-.34.15,0,.31.11.31.34v.29s.06-.07.15-.14l.31-.27c.25-.22.45-.29.8-.29,1.34,0,1.79,1.18,1.79,2.21s-.51,2.22-1.85,2.22c-.5,0-.96-.22-1.19-.54v2.4c0,.23-.15.34-.31.34-.16,0-.32-.11-.32-.34M119.07,66.31c0-.83-.31-1.62-1.13-1.62-.15,0-.33.04-.47.16l-.62.54c-.14.12-.16.21-.16.35v.67c0,.83.35,1.5,1.19,1.5s1.19-.76,1.19-1.6"/>
      <path class="cls-2" d="M124.48,65.73v2.36c0,.23-.15.34-.31.34-.16,0-.32-.11-.32-.34v-.28s-.12.12-.16.15l-.3.25c-.21.18-.46.3-.91.3-.91,0-1.49-.51-1.49-1.32s.63-1.3,1.61-1.3h1.24v-.15c0-.65-.39-1.06-1.17-1.06-.35,0-.58.08-.91.21-.11.04-.21.08-.28.08-.16,0-.28-.12-.28-.29,0-.15.08-.23.24-.32.34-.18.84-.29,1.29-.29,1.23,0,1.73.8,1.73,1.65M123.68,67.22c.14-.13.17-.21.17-.35v-.42h-1.13c-.72,0-1.07.24-1.07.74,0,.43.25.73.83.73.33,0,.52-.08.71-.25l.49-.45Z"/>
      <path class="cls-2" d="M125.94,66.31c0-1.03.52-2.22,1.86-2.22.36,0,.84.11,1.08.33.1.09.15.19.15.31,0,.18-.14.31-.3.31-.06,0-.12-.02-.17-.05-.16-.09-.33-.27-.75-.27-.82,0-1.21.76-1.21,1.61s.38,1.6,1.2,1.6c.41,0,.59-.16.74-.26.06-.04.13-.06.2-.06.16,0,.29.12.29.3,0,.07-.04.19-.1.24-.3.27-.74.4-1.12.4-1.34,0-1.87-1.18-1.87-2.21"/>
      <path class="cls-2" d="M130.11,66.31c0-1.03.54-2.22,1.9-2.22,1.01,0,1.73.93,1.73,1.86,0,.38-.11.52-.41.52h-2.54c0,.79.44,1.43,1.21,1.43.45,0,.64-.14.84-.24.09-.05.16-.08.26-.08.15,0,.26.12.26.28,0,.13-.06.22-.21.34-.25.21-.73.34-1.12.34-1.4,0-1.91-1.15-1.91-2.21M133.05,65.85c-.05-.64-.38-1.16-1.06-1.16s-1.05.52-1.17,1.16h2.23Z"/>
      <path class="cls-2" d="M137.51,67.81s-.07-.14-.07-.24c0-.23.2-.31.31-.31.08,0,.15.05.23.1.21.18.46.53,1.15.53.6,0,1.12-.51,1.12-1.13,0-1.81-2.81-.98-2.81-3.09,0-1,.87-1.56,1.72-1.56.54,0,1.12.17,1.51.57.06.06.09.15.09.24,0,.18-.15.32-.31.32-.09,0-.18-.05-.27-.11-.21-.15-.47-.38-1.02-.38-.59,0-1.04.35-1.04.92,0,1.5,2.81.75,2.81,3.09,0,.96-.87,1.75-1.81,1.75-.62,0-1.22-.21-1.62-.71"/>
      <path class="cls-2" d="M142.3,66.31c0-1.03.54-2.22,1.9-2.22,1.01,0,1.73.93,1.73,1.86,0,.38-.11.52-.41.52h-2.54c0,.79.44,1.43,1.21,1.43.45,0,.64-.14.84-.24.09-.05.16-.08.26-.08.15,0,.26.12.26.28,0,.13-.06.22-.21.34-.25.21-.73.34-1.12.34-1.4,0-1.91-1.15-1.91-2.21M145.24,65.85c-.05-.64-.38-1.16-1.06-1.16s-1.05.52-1.17,1.16h2.23Z"/>
      <path class="cls-2" d="M147.36,68.12v-3.63c0-.18.13-.33.32-.33s.31.14.31.33v.3s.06-.07.15-.14l.31-.27c.21-.17.42-.29.66-.29.18,0,.34.12.34.3s-.11.32-.29.32c-.15,0-.32.07-.46.2l-.54.47c-.14.12-.16.21-.16.35v2.4c0,.18-.15.31-.33.31s-.3-.13-.3-.31"/>
      <path class="cls-2" d="M151.72,68.33l-1.46-3.62c-.05-.11-.06-.21-.06-.24,0-.18.13-.3.31-.3.14,0,.24.07.33.26l1.21,3,1.18-2.99c.07-.19.17-.28.34-.28.19,0,.29.13.29.27,0,.07-.03.15-.06.23l-1.5,3.67c-.05.13-.16.19-.28.19s-.23-.06-.28-.19"/>
      <path class="cls-2" d="M155,62.57c0-.23.16-.44.42-.44s.42.22.42.44-.16.45-.42.45-.42-.22-.42-.45M155.1,68.09v-3.59c0-.23.15-.34.31-.34.16,0,.32.11.32.34v3.59c0,.23-.15.34-.32.34-.15,0-.31-.11-.31-.34"/>
      <path class="cls-2" d="M157.23,66.31c0-1.03.52-2.22,1.86-2.22.36,0,.84.11,1.08.33.1.09.15.19.15.31,0,.18-.14.31-.3.31-.06,0-.12-.02-.17-.05-.16-.09-.33-.27-.75-.27-.82,0-1.21.76-1.21,1.61s.38,1.6,1.2,1.6c.41,0,.59-.16.75-.26.06-.04.13-.06.2-.06.16,0,.29.12.29.3,0,.07-.04.19-.1.24-.3.27-.74.4-1.12.4-1.34,0-1.87-1.18-1.87-2.21"/>
      <path class="cls-2" d="M161.39,66.31c0-1.03.54-2.22,1.9-2.22,1.01,0,1.73.93,1.73,1.86,0,.38-.11.52-.41.52h-2.54c0,.79.44,1.43,1.21,1.43.45,0,.64-.14.84-.24.09-.05.16-.08.26-.08.15,0,.26.12.26.28,0,.13-.06.22-.21.34-.25.21-.73.34-1.13.34-1.4,0-1.91-1.15-1.91-2.21M164.33,65.85c-.05-.64-.38-1.16-1.06-1.16s-1.05.52-1.17,1.16h2.23Z"/>
      <path class="cls-2" d="M166.4,68.05c-.09-.1-.12-.18-.12-.27,0-.17.14-.31.3-.31.09,0,.16.05.24.11.15.14.35.36.81.36.39,0,.72-.26.72-.63,0-1.16-2.02-.55-2.02-2.09,0-.75.73-1.14,1.34-1.14.43,0,.84.14,1.09.35.1.08.15.18.15.3,0,.18-.15.31-.31.31-.09,0-.16-.05-.25-.1-.14-.11-.37-.29-.74-.29s-.64.24-.64.52c0,.95,2.01.47,2.01,2.06,0,.8-.65,1.29-1.43,1.29-.47,0-.91-.2-1.15-.47"/>
      <path class="cls-2" d="M179.92,62.51s-.02.1-.03.14l-1.73,5.63c-.04.11-.12.24-.3.24-.17,0-.27-.13-.31-.24l-1.52-4.8-1.51,4.8c-.04.12-.15.24-.32.24-.18,0-.26-.14-.3-.24l-1.76-5.61s-.02-.1-.02-.14c0-.2.15-.31.31-.31.14,0,.27.08.32.23l1.5,4.76,1.47-4.74c.04-.11.13-.24.33-.24s.28.14.32.24l1.5,4.74,1.41-4.66c.07-.24.18-.33.35-.33.2,0,.3.12.3.3"/>
      <path class="cls-2" d="M181.95,68.43c-.16,0-.31-.14-.31-.32v-5.56c0-.23.15-.34.31-.34.16,0,.32.11.32.34v5.27h2.02c.19,0,.32.11.32.3s-.13.31-.32.31h-2.34Z"/>
      <path class="cls-2" d="M186.22,68.43c-.16,0-.31-.14-.31-.32v-5.56c0-.23.15-.34.31-.34.16,0,.32.11.32.34v5.27h2.02c.19,0,.32.11.32.3s-.13.31-.32.31h-2.34Z"/>
    </g>
  </g>
</svg>