<?xml version="1.0" encoding="UTF-8"?>
<svg id="Layer_2" data-name="Layer 2" xmlns="http://www.w3.org/2000/svg" viewBox="0 0 127.56 24.41">
  <g id="Layer_1-2" data-name="Layer 1">
    <path d="M0,.55C.18.12.51,0,.96,0c8.2.01,16.39,0,24.58.02,1.55,0,3.09.09,4.63.21,1.71.13,3.29.67,4.62,1.81,1.23,1.06,2.13,2.35,2.41,3.98.32,1.83-.03,3.54-1.17,5.04-.2.26-.4.52-.6.77-.21.27-.22.47,0,.74.49.6.99,1.21,1.29,1.93.97,2.31.77,4.51-.72,6.54-1.21,1.65-2.85,2.62-4.86,2.98-1.13.2-2.27.27-3.42.31-.79.02-1.58.03-2.37.05-.07,0-.13.02-.2.03H.64c-.31-.09-.53-.28-.64-.59v-3.35c.16-.43.48-.57.93-.57,8.95,0,17.91,0,26.86,0,.36,0,.72,0,1.08-.03.72-.06,1.42-.22,2.06-.58,1.06-.59,1.55-1.71,1.24-2.81-.2-.71-.69-1.17-1.32-1.49-.86-.44-1.79-.59-2.75-.59-9.04,0-18.09,0-27.13,0-.45,0-.78-.12-.96-.55v-3.31c.16-.43.48-.57.93-.57,8.98,0,17.96,0,26.94,0,.42,0,.83-.02,1.25-.07.81-.11,1.59-.33,2.25-.85.7-.55.98-1.27.86-2.15-.13-.96-.72-1.57-1.57-1.96-.79-.37-1.63-.47-2.5-.47-9.07,0-18.13,0-27.2,0-.45,0-.78-.12-.96-.55V.55Z"/>
    <path d="M90.69,24.41c-.42-.17-.57-.49-.56-.94.02-.9,0-1.81,0-2.71,0-.56.28-.83.83-.83,4.72,0,9.45,0,14.17,0,1.71,0,3.42,0,5.13-.07,1.66-.06,3.32-.17,4.97-.33,1.89-.18,3.57-.88,4.98-2.2,1.47-1.39,2.19-3.07,2.17-5.1-.01-1.29-.21-2.53-.92-3.62-1.12-1.73-2.68-2.92-4.69-3.43-.88-.22-1.79-.36-2.69-.42-1.83-.12-3.67-.19-5.51-.23-1.84-.04-3.68-.04-5.51-.04-4.03,0-8.06,0-12.09,0-.55,0-.83-.28-.83-.83V.84c0-.55.28-.83.84-.83,5.84,0,11.68-.02,17.53.01,2.15.01,4.29.13,6.44.26,1.37.08,2.73.24,4.04.7,1.97.69,3.74,1.73,5.25,3.18,1.2,1.16,2.01,2.57,2.58,4.13.43,1.18.72,2.39.76,3.65.05,1.56-.31,3.04-.87,4.48-.53,1.37-1.26,2.62-2.3,3.67-.99,1-2.13,1.8-3.37,2.47-1.67.9-3.45,1.36-5.34,1.52-2.01.17-4.03.27-6.05.3-.06,0-.12.02-.18.03h-18.76Z"/>
    <path d="M62.38,24.41c-.47-.2-.54-.31-.54-.83v-12.14c0-.55.21-.76.75-.76,4.37,0,8.74,0,13.11,0,.43,0,.86-.04,1.28-.13,1.12-.24,1.73-.98,1.94-2.07.06-.34.09-.69.09-1.03,0-2.24,0-4.48,0-6.72,0-.49.22-.71.71-.71,1.31,0,2.62,0,3.93,0,.45,0,.68.22.68.68,0,2.66,0,5.33,0,7.99,0,.96-.1,1.91-.3,2.86-.34,1.62-1.29,2.65-2.87,3.14-1.06.33-2.15.49-3.25.5-3.03.01-6.07,0-9.1,0-.53,0-.74.22-.74.74v7.67c0,.51-.08.64-.55.83h-5.13Z"/>
    <path d="M53.94,15.16c-1.54,0-3.08.02-4.62,0-1.04-.02-2.06-.2-3.06-.53-1.47-.49-2.37-1.47-2.72-2.97-.24-1.02-.33-2.06-.33-3.11-.01-2.61,0-5.21,0-7.82,0-.5.22-.72.73-.72h3.9c.45,0,.68.22.68.67,0,2.22,0,4.45,0,6.67,0,.44.05.89.15,1.32.26,1.11.99,1.76,2.13,1.92.37.05.74.08,1.12.08,2.19,0,4.39.01,6.58,0,.44,0,.77.22.75.76-.03,1.02,0,2.05,0,3.07,0,.42-.23.66-.65.66-1.55,0-3.1,0-4.65,0h0Z"/>
  </g>
</svg>