<?xml version="1.0" encoding="UTF-8"?>
<svg id="Layer_2" xmlns="http://www.w3.org/2000/svg" viewBox="0 0 221 243.67">
  <defs>
    <style>
      .cls-1 {
        fill: #fff;
      }
    </style>
  </defs>
  <g id="Layer_1-2" data-name="Layer_1">
    <rect class="cls-1" x="133.4" y="201.43" width="68.56" height="42.23"/>
    <path class="cls-1" d="M81.59,201.28c-19.08,0-31.25-14.03-31.25-30.92v-97.06c0-16.89,12.17-30.92,31.25-30.92h62.7c14.29,0,21.35,7.65,24.82,18.17.81,2.46,3.37,4.17,6.3,4.17h39.03c4.04,0,7.17-3.16,6.46-6.62C214.16,24.96,184.75,0,144.62,0h-63.36C36.52,0,0,31.78,0,71.01v101.93c0,38.9,36.57,70.72,81.26,70.72h37.57v-42.38h-37.24Z"/>
  </g>
</svg>