<?xml version="1.0" encoding="UTF-8"?>
<svg id="Layer_2" data-name="Layer 2" xmlns="http://www.w3.org/2000/svg" viewBox="0 0 178.36 69.43">
  <defs>
    <style>
      .cls-1 {
        stroke: #f1f1f2;
        stroke-miterlimit: 10;
        stroke-width: 0px;
      }

      .cls-1, .cls-2 {
        fill: #8b1741;
      }
    </style>
  </defs>
  <g id="Layer_1-2" data-name="Layer 1">
    <g>
      <g>
        <path class="cls-2" d="M165.03,1.54c-2.29-.98-4.81-1.53-7.45-1.53-10.46,0-18.93,8.48-18.93,18.93s8.48,18.93,18.93,18.93c2.64,0,5.16-.55,7.45-1.53-9.2-.49-16.51-8.08-16.51-17.4s7.31-16.91,16.51-17.4"/>
        <path class="cls-2" d="M135.32,17.32c-2.29-.98-4.81-1.53-7.45-1.53-10.46,0-18.93,8.47-18.93,18.93s8.48,18.93,18.93,18.93c2.65,0,5.16-.55,7.45-1.53-9.2-.49-16.51-8.08-16.51-17.4s7.31-16.91,16.51-17.4"/>
        <path class="cls-2" d="M151.97,17.32c2.29-.98,4.8-1.53,7.45-1.53,10.46,0,18.93,8.47,18.93,18.93s-8.48,18.93-18.93,18.93c-2.65,0-5.16-.55-7.45-1.53,9.2-.49,16.51-8.08,16.51-17.4s-7.31-16.91-16.51-17.4"/>
        <path class="cls-2" d="M122.26,33.1c2.29-.98,4.8-1.53,7.45-1.53,10.46,0,18.93,8.48,18.93,18.93s-8.48,18.93-18.93,18.93c-2.65,0-5.16-.55-7.45-1.53,9.2-.49,16.51-8.08,16.51-17.4s-7.31-16.91-16.51-17.4"/>
      </g>
      <rect class="cls-2" x="98.93" width=".94" height="69.42"/>
      <g>
        <polygon class="cls-2" points="89.68 15.31 91.13 15.31 91.13 24.82 89.77 25.63 89.68 25.68 89.68 15.31"/>
        <path class="cls-2" d="M63.25,24.88c-1.58,0-2.41-.84-2.41-2.42v-2.32l1.45-.96v3.33c0,.71.23.96.87.96h7.67v-8.17h1.44v8.17h3.56v-5.21h1.4v5.21h3.57v-5.21h1.42v5.21h2.63c.71,0,.94-.23.94-.96v-7.21h1.46v7.32c0,1.45-.84,2.26-2.36,2.26h-21.64Z"/>
        <path class="cls-2" d="M81.54,27.72c-.44,0-.79-.36-.79-.81s.36-.81.79-.81.79.36.79.81-.34.81-.79.81Z"/>
        <path class="cls-2" d="M76.52,16.88c-.46,0-.81-.36-.81-.84,0-.44.36-.79.81-.79.42,0,.78.36.78.79,0,.46-.36.84-.78.84Z"/>
        <path class="cls-2" d="M65.18,19.98v-.67h.56c-.07-.17-.11-.4-.11-.55,0-.6.39-1.23,1.1-1.23h.75v.68h-.53c-.39,0-.6.2-.6.55s.23.55.6.55h.98v.67h-2.75Z"/>
        <polygon class="cls-2" points="54.99 15.31 56.45 15.31 56.45 24.82 54.99 25.68 54.99 15.31"/>
        <path class="cls-2" d="M35.67,24.88c-1.2,0-2.11-.92-2.11-2.15v-7.43h1.42v7.37c0,.19.05.8.64.8h5.45v-2.9c0-.63-.26-.89-.89-.89h-2.87v-1.42h2.83c1.44,0,2.33.88,2.33,2.29v2.92h3.56v-5.21h1.4v5.21h2.6c.73,0,.96-.23.96-.96v-7.21h1.42v7.32c0,1.45-.83,2.26-2.34,2.26h-14.39Z"/>
        <path class="cls-2" d="M39.55,27.72c-.45,0-.81-.36-.81-.81s.37-.81.81-.81.81.38.81.81-.37.81-.81.81Z"/>
        <path class="cls-2" d="M21.51,29.53c-.44,0-.81-.36-.81-.79,0-.47.36-.84.81-.84.47,0,.81.35.81.84,0,.44-.36.79-.81.79Z"/>
        <path class="cls-2" d="M23.5,29.53c-.44,0-.81-.36-.81-.79,0-.47.36-.84.81-.84.47,0,.81.35.81.84,0,.44-.36.79-.81.79Z"/>
        <path class="cls-2" d="M44.71,16.9c-.46,0-.81-.36-.81-.84,0-.44.36-.79.81-.79s.79.36.79.79c0,.47-.36.84-.79.84Z"/>
        <path class="cls-2" d="M46.72,16.9c-.45,0-.79-.37-.79-.84,0-.44.35-.79.79-.79s.78.35.78.79c0,.48-.33.84-.78.84Z"/>
        <path class="cls-2" d="M22.24,27.11c-4.71,0-4.77-4.01-4.77-4.05v-1.69l1.34-.92.1-.06v2.67c0,.11.04,2.6,3.33,2.6,3.01,0,3.27-2.11,3.29-2.51h-1.23c-1.5,0-2.25-.81-2.25-2.42,0-1.19.59-2.45,2.25-2.45h2.29v1.42h-2.29c-.56,0-.84.34-.84,1.03s.25,1.01.84,1.01h2.67v1.34s0,1.02-.59,2.02c-.54.92-1.69,2.02-4.11,2.02h-.03Z"/>
        <path class="cls-1" d="M28.79,27.12l-1-1.25h.11c1.51-.17,2.12-.82,2.12-2.25v-5.34h1.43v5.75c0,1.85-1.06,3.1-2.63,3.1h-.03Z"/>
      </g>
      <path class="cls-2" d="M29.88,41.65v-4.63c0-.69.01-1.46.03-2.29-.22.54-.39.98-.57,1.38l-2.35,5.55h-.77l-2.38-5.55c-.16-.4-.34-.85-.52-1.33.03.72.04,1.46.04,2.25v4.63h-1.57v-9.61h1.96l2.27,5.41.59,1.53.59-1.53,2.27-5.41h1.96v9.61h-1.56Z"/>
      <path class="cls-2" d="M41.8,41.65v-4.63c0-.69.01-1.46.03-2.29-.22.54-.39.98-.56,1.38l-2.35,5.55h-.77l-2.38-5.55c-.16-.4-.34-.85-.52-1.33.03.72.04,1.46.04,2.25v4.63h-1.57v-9.61h1.96l2.27,5.41.59,1.53.59-1.53,2.27-5.41h1.96v9.61h-1.56Z"/>
      <polygon class="cls-2" points="91.22 53.98 86.92 49.11 90.85 44.39 88.89 44.39 85.21 48.83 85.21 44.38 83.62 44.38 83.62 53.98 85.21 53.98 85.21 49.5 89.2 53.98 91.22 53.98"/>
      <path class="cls-2" d="M80.12,53.97l-1.26-1.62c-.22-.29-2.9-3.86-3.18-4.35-.28-.36-.51-.7-.76-1.11.02.65.03,1.39.03,2.18v4.9h-1.55v-9.59h1.44l1.3,1.67,3.11,4.29c.13.18.25.34.37.51.15.2.29.39.43.59-.02-.59-.04-1.23-.04-1.97v-5.08h1.57v9.59h-1.45Z"/>
      <path class="cls-2" d="M68.56,49.76l-.21-.56-.23-.58h0c-.28-.76-.48-1.26-.76-1.99l-.95,2.57h0c-.05.14-.1.23-.14.33-.03.07-.06.14-.1.23h2.4ZM70.21,53.97l-1.1-2.77h-3.52c-.15.39-.31.79-.46,1.19-.19.5-.39,1.03-.59,1.53l-.02.05h-1.69l3.9-9.59h1.29l3.9,9.59h-1.72Z"/>
      <path class="cls-2" d="M58.18,48.34c.21,0,.39,0,.54-.03.15-.02.28-.04.39-.09.29-.1.5-.25.63-.44.13-.21.2-.46.2-.74s-.07-.52-.2-.7c-.14-.18-.36-.31-.67-.4-.15-.05-.35-.08-.56-.1-.22-.02-.48-.03-.79-.03h-1.04v2.53h1.48ZM57.83,52.54c.32,0,.6,0,.87-.04.26-.03.48-.07.65-.13.19-.06.35-.14.47-.23.13-.1.23-.2.31-.31.07-.1.12-.22.16-.34.03-.13.05-.26.05-.39,0-.15-.02-.3-.05-.43-.03-.13-.09-.23-.16-.34-.08-.1-.18-.19-.31-.26-.13-.08-.3-.14-.5-.19-.13-.03-.28-.05-.44-.06-.17-.01-.39-.02-.64-.02h-1.53v2.75h1.13ZM55.15,53.98v-9.61h2.48c.21,0,.4,0,.57.01.17,0,.33.02.48.03.15.01.29.03.41.05.13.02.25.04.36.08.3.08.58.2.83.34.25.15.47.33.65.53.17.21.32.44.42.7.1.26.15.55.15.85,0,.24-.03.48-.09.7-.06.23-.16.44-.29.64-.13.19-.3.37-.5.52-.05.04-.12.09-.18.12.08.03.16.06.24.1.25.12.47.28.64.47.18.19.32.42.42.69.1.26.15.55.15.88,0,.23-.04.48-.11.73-.07.26-.18.51-.34.74-.15.24-.36.47-.62.67-.26.2-.57.36-.95.49-.28.09-.61.16-.95.2-.34.03-.74.06-1.21.06h-2.56Z"/>
      <polygon class="cls-2" points="85.91 41.65 85.91 32.04 87.5 32.04 87.5 40.2 91.31 40.2 90.9 41.65 85.91 41.65"/>
      <rect class="cls-2" x="72.27" y="32.04" width="1.58" height="9.61"/>
      <polygon class="cls-2" points="45.82 41.65 45.82 32.04 51.38 32.04 51.38 33.51 47.39 33.51 47.39 36.02 50.98 36.02 50.98 37.5 47.39 37.5 47.39 40.2 51.62 40.2 51.62 41.65 45.82 41.65"/>
      <path class="cls-2" d="M81.09,37.44l-.02-.06c-.06-.16-.12-.33-.19-.48l-.02-.05c-.35-.9-.59-1.52-.95-2.5-.02.04-.03.07-.04.12-.3.84-.61,1.65-.92,2.43l-.22.53h2.36ZM82.75,41.66l-1.07-2.77h-3.55c-.15.38-.3.78-.46,1.17-.19.51-.39,1.05-.59,1.54l-.02.05h-1.69l3.91-9.61h1.26l3.91,9.61h-1.71Z"/>
      <path class="cls-2" d="M14.84,33.5c-1.67,0-3.35,1.09-3.35,3.54,0,2.15,1.32,3.53,3.35,3.53,1.55,0,3.36-.93,3.36-3.53,0-2.44-1.68-3.54-3.36-3.54M14.84,42.04c-2.94,0-4.92-2.01-4.92-5s2.03-4.99,4.92-4.99,4.92,2.05,4.92,4.99-2.02,5-4.92,5"/>
      <path class="cls-2" d="M56.19,36.42c.33,0,.62-.01.85-.04.23-.02.43-.06.61-.12.34-.1.61-.27.8-.5.18-.22.27-.52.27-.89,0-.34-.09-.61-.25-.82-.17-.21-.41-.36-.71-.45-.15-.05-.33-.08-.55-.1-.22-.02-.51-.03-.85-.03h-1.05v2.94h.89ZM59.12,41.65l-2.79-3.8h-1.03v3.8h-1.54v-9.6h2.58c.41,0,.76.02,1.05.05.29.03.56.08.81.15.68.18,1.21.5,1.57.96.36.45.55,1.03.55,1.7,0,.39-.06.76-.19,1.08-.13.31-.31.6-.55.83-.23.23-.51.42-.83.57-.23.11-.47.19-.74.26l2.78,4.02h-1.66Z"/>
      <path class="cls-2" d="M69.93,39.91c-.71.34-1.8.66-2.56.66-2.37,0-3.91-1.36-3.91-3.46,0-2.37,1.95-3.61,3.88-3.61.31,0,.79.08,1.29.21v1.53h1.39v-2.53l-.03-.02c-.47-.38-2.02-.64-2.68-.64-3.09,0-5.42,2.2-5.42,5.12s2.17,4.87,5.42,4.87c.72,0,2.04-.31,2.59-.68l.02-.02v-.02s0-1.4,0-1.4Z"/>
      <path class="cls-2" d="M8.08,39.89c-.7.36-1.7.68-2.61.68-2.37,0-3.9-1.36-3.9-3.46,0-2.37,1.95-3.61,3.87-3.61.31,0,.79.08,1.29.21v1.53h1.39v-2.53l-.03-.03c-.47-.37-2.02-.64-2.68-.64-3.09,0-5.41,2.2-5.41,5.12s2.17,4.87,5.41,4.87c.74,0,2.11-.31,2.65-.69h.01v-1.46Z"/>
    </g>
  </g>
</svg>