<?xml version="1.0" encoding="UTF-8"?>
<svg id="Layer_2" data-name="Layer 2" xmlns="http://www.w3.org/2000/svg" viewBox="0 0 184.95 159.75">
  <defs>
    <style>
      .cls-1 {
        fill: #070808;
      }
    </style>
  </defs>
  <g id="Dimensions">
    <g>
      <path class="cls-1" d="M78.34,122.93c-8.46-.43-13.91-2.89-16.05-7.6-2.14-4.71-2.89-9.95-2.35-14.77l-5.78,11.67s.08,4.79,0,6.31c-1.5,1.82-5.35,5.35-5.35,5.35,0,0-8.42,6.75-12.5-1.86,5.17-6.12,10.01-9.28,10.01-9.28l6.06-12.19s-4.46,4.16-10.13,8.25c-6.16,4.45-10.78,7.81-10.78,7.81,0,0-22.15-.54-24.72-20.34,4.92-3,11.02.32,23.22-1.07,9.2-1.28,11.02-4.82,12.2-7.39,1.18-2.57,4.5-11.23,4.5-11.23,0,0-4.2,9.04-22.58,7.16-10.92-1.07-13.49.96-15.2,3.64-1.71,2.68-7.39,14.56-7.39,14.56,0,0-6.29,16.83,18.19,25.04-12.95,14.02-16.7,24.1-19.69,32.76,4.25-6.77,13.57-23.16,28.71-31.96,1.01,3.39,3.71,8.97,10.56,9.05,4.76,0,8.67-4.82,10.38-7.28,1.71-2.46,5.24-3,6.31-.11,1.07,2.89,2.25,11.67,12.31,13.49,5.57.11,5.99,0,5.99,0,0,0,3.85-.32,5.99-5.24,2.14-4.92,4.28-9.42,4.28-9.42,0,0,2.25-4.92-6.21-5.35Z"/>
      <path class="cls-1" d="M133.74,137.4c1.51-1.58,3.3-3.21,4.47-5.09,3.36-5.4-5.98-7.79-6.85-12.38.08.43-1.62,1.69-1.91,1.95-.12.11-.25.22-.37.33-.63.59-1.25,1.18-1.85,1.79-.84.85-1.64,1.73-2.41,2.66-.19.23-.92.9-.95,1.25,0,.02,0,.04,0,.06.26,1.37.95,2.38,1.83,3.25.15.14.32.29.5.44.57.51,1.19,1,1.81,1.48.12.09.24.18.37.29,1.89,1.5,3.99,3.92,2.56,6.41l2.81-2.45Z"/>
      <path class="cls-1" d="M42.32,37.5c.14.13.29.27.46.41.52.47,1.09.92,1.66,1.37.11.08.22.17.34.26,1.76,1.42,3.75,3.71,2.28,6.04-.11.17-2.34,3.63-2.57,3.97-.23.35-2.98,4.81-2.92,4.83.74.26,1.45.57,2.12.95,2.25,1.25,4.09,3.12,5.2,5.49.9,1.92,1.25,4.08,1.03,6.18-.22,2.13-1.18,3.73-2.02,5.63.05,0,.1,0,.15.01.12.02.29-.12.5-.34,1.11-1.16,3.3-4.91,3.55-5.3,2.61-4.04,5.02-8.1,3.93-13.09-.92-4.2-4.11-7.47-8.11-8.86.64-.54,1.26-1.28,1.79-1.83,1.4-1.45,3.05-2.94,4.14-4.67,3.12-4.97-5.47-7.2-6.26-11.44.07.4-1.5,1.55-1.77,1.79-.11.1-.23.2-.34.31-.58.54-1.16,1.08-1.71,1.65-.78.78-1.52,1.59-2.23,2.44-.18.21-.85.83-.88,1.15,0,.02,0,.04,0,.06.23,1.26.86,2.2,1.68,3.01"/>
      <path class="cls-1" d="M163.47,159.75S231.94,46.76,124.41,0c-1.59,2.3-5.88,8.49-5.88,8.49l1.93,56.53s-58.38,13.38-63.95,14.13c-1.39,1.18-5.78,11.77-5.78,11.77,0,0,5.67-1.18,15.95,1.39,10.27,2.57,32.96,7.71,32.96,7.71l-17.87,5.89s-6.9,2.54-9.31,2.63c-2.41.1-7.58-.39-10.09-7.95,1.15,13.86,4.66,15.58,4.66,15.58,1.21.92,6.37,3.41,14.03.8,14.87-5.06,28.12-11.17,52.31-9.35,24.19,1.82,29.32,2.39,29.32,2.39l5.57-11.88-28.89-1.96s-6.96-.53-17.77-3.1c-10.81-2.57-36.71-8.88-36.71-8.88l35.82-8.19.3,4.99s.16,6.47,5.29,9.69c2.09,1.15,8.59,3.46,10.82.06,2.35-3.58,5.59-11.05,5.59-11.05,0,0,7.17-15.79.21-18.35-4.45-1.57-9.05,1.21-17.08,2.28-.11-11.13-1.41-47.77-1.41-47.77,0,0,88.58,26.55,39.06,143.91ZM135.25,73.12c3.46.15,5.78,2.04,6.14,3.97.37,1.93-1.03,4.2-2.56,4.45-4.14.66-5.52.11-5.52.11,0,0-3.82-.66-6.1-7.17,0,0,4.57-1.5,8.03-1.35Z"/>
    </g>
  </g>
</svg>