<?xml version="1.0" encoding="UTF-8"?>
<svg id="Layer_2" data-name="Layer 2" xmlns="http://www.w3.org/2000/svg" viewBox="0 0 271.57 228.28">
  <defs>
    <style>
      .cls-1 {
        fill: #231f20;
      }
    </style>
  </defs>
  <g id="Layer_1-2" data-name="Layer 1">
    <g>
      <polygon class="cls-1" points="211.71 45.01 211.71 18.49 199.44 18.49 199.44 20.36 202.87 20.36 202.87 45.01 198.45 45.01 198.45 46.77 216.13 46.77 216.13 45.01 211.71 45.01"/>
      <path class="cls-1" d="M37.14,1.37h-1.6c-.06,1.36-.78,1.95-2.14,1.95-2.73,0-6.72-3.31-11.39-3.31C8.69,0,.64,13.12.64,24.68s7.66,23.12,20.52,23.12c7.79,0,10.72-3.7,12.8-3.7,1.36,0,1.62,1.2,1.62,2.66h1.76v-15.91h-1.76l-.39,2.21c-.91,5.26-4.99,13.03-13.37,13.03-7.41,0-10.26-6.41-10.26-22.19C11.55,7.34,15.45,1.77,22.01,1.77c7.41,0,12.5,8.3,13.54,14.92h1.6V1.37Z"/>
      <path class="cls-1" d="M59.92,39.14c-.13,3.4-2.05,6.18-5.06,6.18-4.36,0-4.55-3.68-4.55-6.49,0-3.4.39-5.64,4.55-6.09l5.06-.51v6.91ZM71.61,41.26c0,1.67-1.1,3.59-1.82,3.59-1.15,0-1.42-1.22-1.42-3.2v-14.74c0-7.3-6.86-9.1-13.45-9.1s-11.09,3.14-11.09,6.73c0,2.24,1.28,4.16,4.17,4.16,2.43,0,3.91-1.6,3.91-3.84,0-3.26-3.38-3.3-3.38-3.38,0-1.45,3.77-1.92,5.95-1.92,4.8,0,5.44,1.77,5.44,5.62v5.38l-6.28.51c-5.83.45-12.17,1.99-12.17,8.65,0,5.57,5,7.82,9.93,7.82,2.5,0,6.92-.96,8.59-4.04,1.15,2.69,3.52,4.04,6.41,4.04,4.16,0,6.85-2.5,6.85-6.28h-1.63Z"/>
      <polygon class="cls-1" points="218.58 156.15 218.58 129.62 205.32 129.62 205.32 131.49 209.74 131.49 209.74 156.15 205.32 156.15 205.32 157.9 223 157.9 223 156.15 218.58 156.15"/>
      <path class="cls-1" d="M52.26,59.2l.04-1.81h-14.64l-10.62,30.37-10.33-30.41H.64v1.85h4.34v36.59c0,2.75-.68,4.89-4.34,4.89v1.77h11.08v-1.77h-.2c-3.46,0-4.8-.28-4.8-5.47v-36.33h.13l15.31,43.56h1.73l14.93-42.8h.13v41.02h-4.27v1.77h17.59v-1.77h-4.19v-41.48h4.19Z"/>
      <path class="cls-1" d="M62.5,85.2v-4.3c0-4.29,1.86-5.64,4.04-5.64,3.08,0,4.04,2.11,4.04,5.64v4.3h-8.07ZM62.5,86.94h17.68c-.06-6.92-6.47-13.58-13.2-13.45-7.56,0-14.09,6.53-14.09,15.18s6.09,14.54,14.29,14.54,11.79-4.87,13.2-11.21h-1.75c-1.41,5.96-4.53,9.34-9.53,9.34-5.96,0-6.6-4.67-6.6-9.02v-5.38Z"/>
      <path class="cls-1" d="M136.1,140.65v-4.3c0-4.29,1.86-5.64,4.04-5.64,3.08,0,4.04,2.11,4.04,5.64v4.3h-8.07ZM136.1,142.39h17.68c-.06-6.92-6.47-13.58-13.2-13.45-7.56,0-14.09,6.53-14.09,15.18s6.09,14.54,14.29,14.54,11.79-4.87,13.2-11.21h-1.75c-1.41,5.96-4.53,9.34-9.53,9.34-5.96,0-6.6-4.67-6.6-9.02v-5.38Z"/>
      <polygon class="cls-1" points="80.29 57.45 80.29 59.07 84.71 59.07 84.71 100.63 80.29 100.63 80.29 102.45 97.97 102.45 97.97 100.63 93.55 100.63 93.55 57.45 80.29 57.45"/>
      <polygon class="cls-1" points="99.21 57.45 99.21 59.07 103.63 59.07 103.63 100.63 99.21 100.63 99.21 102.45 116.89 102.45 116.89 100.63 112.47 100.63 112.47 57.45 99.21 57.45"/>
      <path class="cls-1" d="M137.22,94.69c0,4.81-1.99,6.79-5.25,6.79s-5.25-1.99-5.25-6.79v-12.61c0-4.81,1.98-6.79,5.25-6.79s5.25,1.99,5.25,6.79v12.61ZM147.21,88.35c0-8.78-6.79-14.86-15.25-14.86s-15.25,6.09-15.25,14.86,6.79,14.86,15.25,14.86,15.25-6.09,15.25-14.86"/>
      <path class="cls-1" d="M.64,114.47h4.48v28.46c0,9.93,6.85,15.95,17.3,15.95,11.79,0,16.91-6.21,16.91-15.63v-24.33c0-3.71,1.03-4.45,3.33-4.45h1.3v-1.72h-11.27v1.72h.81c3.27,0,3.72.99,3.72,4.7v24.72c0,8.71-5.41,12.69-10.89,12.69-9.35,0-11.21-6.28-11.77-14.48v-27.62h4.2v-1.72H.64v1.72Z"/>
      <path class="cls-1" d="M111.64,158.62h1.73l9.48-22.42c1.92-4.19,2.95-4.72,4.42-4.78h.58v-1.75h-9.99v1.77h1.22c1.86,0,2.71-.12,2.71,1.54,0,1.03-.33,2.04-1.09,3.89l-4.35,10.25-6.97-15.69h3.55v-1.77h-16.08v1.77h3.01l11.79,27.18Z"/>
      <path class="cls-1" d="M183.02,158.62h1.52c.32-1.03.98-1.53,2.26-1.53,1.67,0,3.65,1.53,7.24,1.53,6.09,0,10.25-5.25,10.25-10.5,0-7.82-5.38-8.39-12.24-9.36-3.59-.51-5.62-1.03-5.62-3.84,0-3.01,2.63-4.27,6.08-4.27,4.81,0,6.67,3.19,8.27,7.35h1.51v-9.1h-1.45c0,.77-.66,1.41-1.88,1.41-2.05,0-3.72-1.41-6.67-1.41-6.41,0-9.55,5.45-9.55,9.55,0,8.27,6.28,8.97,11.15,9.55,4.62.58,6.28.87,6.28,3.82,0,3.39-2.82,4.94-6.28,4.94-4.87,0-8.22-4.21-9.37-8.89h-1.52v10.76Z"/>
      <polygon class="cls-1" points="94.49 156.15 94.49 129.62 81.23 129.62 81.23 131.49 85.65 131.49 85.65 156.15 81.23 156.15 81.23 157.9 98.91 157.9 98.91 156.15 94.49 156.15"/>
      <path class="cls-1" d="M85.66,119.78c0,2.45,1.96,4.41,4.41,4.41s4.41-1.96,4.41-4.41-1.96-4.41-4.41-4.41-4.41,1.96-4.41,4.41"/>
      <path class="cls-1" d="M209.72,119.78c0,2.45,1.96,4.41,4.41,4.41s4.41-1.96,4.41-4.41-1.96-4.41-4.41-4.41-4.41,1.96-4.41,4.41"/>
      <path class="cls-1" d="M148.7,29.52v-4.3c0-4.29,1.86-5.64,4.04-5.64,3.08,0,4.04,2.11,4.04,5.64v4.3h-8.07ZM148.7,31.26h17.68c-.06-6.92-6.47-13.58-13.2-13.45-7.56,0-14.09,6.53-14.09,15.18s6.09,14.54,14.29,14.54,11.79-4.87,13.2-11.21h-1.75c-1.41,5.96-4.53,9.34-9.53,9.34-5.96,0-6.6-4.67-6.6-9.02v-5.38Z"/>
      <path class="cls-1" d="M226.05,29.52v-4.3c0-4.29,1.86-5.64,4.04-5.64,2.3,0,4.04,1.33,4.04,5.64v4.3h-8.07ZM226.05,31.26h17.68c-.06-6.92-6.47-13.58-13.2-13.45-7.56,0-14.09,6.53-14.09,15.18s6.09,14.54,14.29,14.54,11.79-4.87,13.2-11.21h-1.75c-1.41,5.96-4.53,9.34-9.53,9.34-5.96,0-6.6-4.67-6.6-9.02v-5.38Z"/>
      <path class="cls-1" d="M75.56,156.16v-17.3c0-6.92-2.95-10.15-9.03-10.15-4.3,0-8.65,2.46-10.38,6.18h0v-5.19h-13.26v1.73h4.42v24.73h-4.42v1.73h17.04v-1.73h-3.78v-16.9c.55-2.38,3.56-7.87,7.07-7.87,2.33,0,3.51.8,3.51,5.1v19.67h-3.65v1.73h16.91v-1.73h-4.42Z"/>
      <path class="cls-1" d="M179.86,100.72v-17.3c0-6.92-2.95-10.15-9.03-10.15-4.3,0-8.65,2.46-10.38,6.18h0v-5.19h-13.26v1.73h4.42v24.73h-4.42v1.73h17.04v-1.73h-3.78v-16.9c.55-2.38,3.56-7.87,7.07-7.87,2.33,0,3.51.8,3.51,5.1v19.67h-3.65v1.73h16.91v-1.73h-4.42Z"/>
      <path class="cls-1" d="M134.6,45.03v-17.3c0-6.92-2.95-10.15-9.03-10.15-4.3,0-8.65,2.46-10.38,6.18h0v-5.19h-13.26v1.73h4.42v24.73h-4.42v1.73h17.04v-1.73h-3.78v-16.9c.55-2.38,3.56-7.87,7.07-7.87,2.33,0,3.51.8,3.51,5.1v19.67h-3.65v1.73h16.91v-1.73h-4.42Z"/>
      <path class="cls-1" d="M202.9,9.73c0,2.45,1.96,4.41,4.41,4.41s4.41-1.96,4.41-4.41-1.96-4.41-4.41-4.41-4.41,1.96-4.41,4.41"/>
      <path class="cls-1" d="M261.58,129.63v1.86c2.73-.01,3.93.25,3.93,1.49,0,1.03-.33,2.04-1.09,3.89l-4.35,10.25-6.95-15.63h3.64v-1.86h-22.08v-13.74h-1.16c0,6.79-4.61,13.77-11.08,13.77v1.83h3.4v19.82c0,6.09,5.25,7.3,7.04,7.3,3.91,0,6.54-1.6,8.52-4.93l-1.37-.75c-.77,1.15-1.79,2.69-3.39,2.69-1.28,0-1.96-.91-1.96-3.02v-21.1h8.93l11.71,26.99-4.05,9.54v.02s-.01,0-.01,0h0c-.09.18-.27.31-.49.31-.23,0-.42-.15-.5-.36,0,0,0-.02,0-.03-.52-1.85-2.2-3.21-4.23-3.21-2.45,0-4.41,1.96-4.41,4.41,0,1.72.98,3.19,2.41,3.92,0,0-.01,0-.02,0,.05.02.09.04.14.06.09.04.17.08.26.12.5.2,1.03.33,1.61.34,3.72.31,5.62-2.43,6.93-5.23.3-.63.57-1.27.82-1.88.56-1.36,1.54-3.68,2.7-6.41h0s1.11-2.61,1.11-2.61h0s9.01-21.3,9.01-21.3c1.92-4.19,2.66-4.72,4.99-4.72h0v-1.84h-9.99Z"/>
      <path class="cls-1" d="M95.47,17.51c-4.1,0-7.24,2.82-8.46,6.02h-.13v-4.88h-13.13v1.79h4.42v24.65h-4.42v1.75h19.16v-1.75h-5.89v-13.8c0-4.12,1.08-8.34,3.79-10.66.16-.11.37-.15.55-.05.21.1.31.33.29.55h0c-.17.51-.31,1.11-.34,1.83-.09,2.32,1.86,4.16,4.36,4.16,3.07,0,4.87-2.24,4.87-4.68,0-3.08-2.05-4.93-5.06-4.93Z"/>
      <path class="cls-1" d="M191.9,19.6c.13-.03.29-.1.39,0s.09.22.02.35h0c-.39.66-.54,1.48-.23,2.36s1.04,1.54,1.93,1.75c1.83.42,3.43-.93,3.43-2.69,0-1.13-.7-1.99-1.51-2.5s-1.77-.74-2.82-.74c-1.71,0-3.45.91-4.7,2.01,0,0,0,0,0,0-.29-.21-.59-.41-.91-.59-1.76-1.03-4.06-1.71-7.1-1.71-5.38,0-11.15,3.52-11.15,9.35,0,3.52,1.92,6.28,5.32,7.82v.13c-2.5.32-6.41,2.05-6.41,7.37,0,3.2,1.47,5.64,4.17,6.41v.13c-2.56.71-5.51,3.27-5.51,6.34,0,4.74,5.57,8.39,12.69,8.39,8.9,0,14.73-6.02,14.73-13.84,0-6.21-3.07-9.03-9.35-8.9h-10.63c-1.6,0-2.67-.06-2.67-1.8,0-1.6,2.46-3.33,4.89-3.33.43,0,1.12.33,1.3.38.77.25,1.61.39,2.63.39,5.51,0,11.4-3.14,11.4-9.23,0-1.88-.82-4.46-2.34-6.06-.09-.1-.09-.25.02-.33.62-.49,1.33-.9,1.67-1.09.28-.15.49-.27.76-.34h.02ZM183.38,49.07c6.41,0,8.11.27,8.11,4.18,0,4.68-5.73,8.97-12.2,8.97-5.77,0-8.53-3.54-8.66-6.61,0-2.82,1.4-4.68,3.13-6.54h9.62ZM184.47,27.19c0,7.45-1.73,7.69-4.03,7.69-2.56,0-3.91-.49-3.91-7.89,0-5.19.58-7.4,3.91-7.4,3.01,0,3.97.2,4.03,7.57v.02Z"/>
      <path class="cls-1" d="M176.22,128.48c-4.1,0-7.24,2.82-8.46,6.02h-.13v-4.88h-13.13v1.79h4.42v24.65h-4.42v1.75h19.16v-1.75h-5.89v-13.8c0-4.12,1.08-8.33,3.78-10.66.16-.11.36-.14.55-.05.21.1.31.33.29.55v.02c-.16.49-.3,1.09-.33,1.8-.09,2.32,1.86,4.16,4.36,4.16,3.07,0,4.87-2.24,4.87-4.68,0-3.08-2.05-4.93-5.06-4.93Z"/>
      <g>
        <path class="cls-1" d="M26.11,220.25c0,4.28,1.77,6.39,5.17,6.39,1.36,0,4.01-.61,5.64-1.56l.48,1.16c-2.79,1.43-5.17,2.04-9.86,2.04-3.54,0-10.81-1.7-10.81-7.89v-6.53C7.01,211.08-.2,200.47,0,189.52c0-13.33,8.77-25.02,21.62-25.02s21.62,11.7,21.62,25.02c.2,11.08-7.21,21.83-17.13,24.34v6.39ZM31.83,189.52c0-21.49-4.96-23.8-10.2-23.8s-10.2,2.31-10.2,23.8c0,17.27,2.24,23.8,10.2,23.8s10.2-6.53,10.2-23.8Z"/>
        <path class="cls-1" d="M74.41,208.02c0,2.11.34,3.4,1.56,3.4,1.63,0,2.38-2.04,2.38-3.81h1.22c0,4.01-2.86,6.66-7.28,6.66-3.06,0-5.58-1.43-6.8-4.28-1.77,3.26-6.46,4.28-9.11,4.28-5.24,0-10.54-2.38-10.54-8.3,0-7.07,6.73-8.7,12.92-9.18l6.66-.54v-5.71c0-4.08-.68-6.59-5.78-6.59-2.31,0-6.26.54-6.19,2.04.07,1.16,3.47.95,3.47,4.21,0,2.38-1.56,4.08-4.15,4.08-3.06,0-4.42-2.04-4.42-4.42,0-3.81,4.96-7.14,11.76-7.14s14.28,1.9,14.28,9.65v15.64ZM65.44,197.48l-5.37.54c-4.42.48-4.83,2.86-4.83,6.46s.2,7.75,4.83,7.75c3.2,0,5.24-3.26,5.37-6.87v-7.89Z"/>
        <path class="cls-1" d="M79.74,184.76v-1.22c6.87,0,11.76-7.41,11.76-14.62h1.22v14.62h6.25v1.22h-6.25v23.12c0,2.24.88,3.54,2.65,3.54s2.79-1.63,3.6-2.86l.88.48c-2.11,3.54-4.9,5.24-9.04,5.24-1.9,0-7.48-1.29-7.48-7.75v-21.76h-3.6Z"/>
        <path class="cls-1" d="M130.85,208.02c0,2.11.34,3.4,1.56,3.4,1.63,0,2.38-2.04,2.38-3.81h1.22c0,4.01-2.86,6.66-7.28,6.66-3.06,0-5.58-1.43-6.8-4.28-1.77,3.26-6.46,4.28-9.11,4.28-5.24,0-10.54-2.38-10.54-8.3,0-7.07,6.73-8.7,12.92-9.18l6.66-.54v-5.71c0-4.08-.68-6.59-5.78-6.59-2.31,0-6.26.54-6.19,2.04.07,1.16,3.47.95,3.47,4.21,0,2.38-1.56,4.08-4.15,4.08-3.06,0-4.42-2.04-4.42-4.42,0-3.81,4.96-7.14,11.76-7.14s14.28,1.9,14.28,9.65v15.64ZM121.88,197.48l-5.37.54c-4.42.48-4.83,2.86-4.83,6.46s.2,7.75,4.83,7.75c3.2,0,5.24-3.26,5.37-6.87v-7.89Z"/>
        <path class="cls-1" d="M159.62,182.42c-4.35,0-7.69,2.99-8.98,6.4h-.14v-5.18h-13.95v1.9h4.7v26.18h-4.7v1.86h20.35v-1.86h-6.26v-14.66c0-4.37,1.14-8.85,4.02-11.32.17-.12.39-.15.58-.06.22.11.33.35.3.58v.02c-.17.52-.32,1.15-.35,1.92-.09,2.47,1.97,4.42,4.63,4.42,3.27,0,5.17-2.38,5.17-4.97,0-3.27-2.18-5.24-5.38-5.24Z"/>
      </g>
    </g>
  </g>
</svg>