<?xml version="1.0" encoding="UTF-8"?>
<svg id="Layer_2" data-name="Layer 2" xmlns="http://www.w3.org/2000/svg" viewBox="0 0 296.11 57.34">
  <defs>
    <style>
      .cls-1 {
        fill: #8e1537;
      }

      .cls-2 {
        fill: #76777a;
      }
    </style>
  </defs>
  <g id="Layer_1-2" data-name="Layer 1">
    <g>
      <rect class="cls-1" x="147.04" y=".27" width=".75" height="54.28"/>
      <g>
        <path class="cls-2" d="M136.94,54.04h1.28v-4.39c0-.54.17-1.02.52-1.44.35-.42.84-.62,1.49-.62.08,0,.15,0,.21,0,.06,0,.13.01.21.03v-1.35c-.14-.01-.23-.02-.29-.03-.06,0-.1,0-.12,0-.51,0-.96.18-1.35.55-.39.37-.63.68-.73.94v-1.32h-1.22v7.63ZM130.84,49.68c-.72.09-1.3.33-1.74.72-.44.39-.66.94-.66,1.64,0,.64.22,1.18.67,1.61.45.43,1.03.64,1.73.64.59,0,1.13-.13,1.62-.38.49-.25.86-.55,1.12-.89.04.3.12.54.22.71.2.31.52.47.96.47.18,0,.32,0,.43-.02.11-.01.26-.05.46-.11v-.95c-.08.01-.16.02-.23.03-.07,0-.13.01-.19.01-.17,0-.29-.04-.34-.12-.06-.08-.08-.19-.08-.32v-4.4c0-.72-.28-1.25-.83-1.6-.56-.34-1.29-.51-2.19-.51-.77,0-1.45.18-2.04.55-.59.37-.89,1.03-.91,1.97h1.2c.05-.4.15-.7.31-.89.28-.36.75-.55,1.42-.55.58,0,1.02.1,1.33.3.31.2.47.52.47.95,0,.21-.03.38-.09.49-.1.21-.3.33-.59.37l-2.04.26ZM129.78,52.01c0-.49.2-.84.59-1.07.23-.13.58-.23,1.05-.29l.78-.1c.24-.03.48-.08.72-.14.25-.07.45-.15.61-.25v1.03c0,.79-.36,1.35-1.07,1.7-.42.21-.86.31-1.31.31-.37,0-.69-.11-.96-.32-.27-.21-.41-.5-.41-.87M125,46.41h-1.03v1.05h1.03v5.05c0,.49.11.89.32,1.19.21.31.62.46,1.22.46.19,0,.36,0,.52-.03.16-.02.31-.05.46-.09v-1.02c-.09.01-.18.02-.25.02-.07,0-.14,0-.2,0-.23,0-.4-.03-.5-.08-.18-.09-.27-.27-.27-.54v-4.98h1.22v-1.05h-1.22v-2.13h-1.3v2.13ZM118.67,49.68c-.72.09-1.3.33-1.74.72-.44.39-.66.94-.66,1.64,0,.64.22,1.18.67,1.61.45.43,1.03.64,1.73.64.59,0,1.13-.13,1.62-.38.49-.25.86-.55,1.13-.89.04.3.12.54.22.71.2.31.52.47.96.47.18,0,.32,0,.43-.02.1-.01.26-.05.46-.11v-.95c-.08.01-.16.02-.23.03-.07,0-.14.01-.19.01-.18,0-.29-.04-.35-.12-.05-.08-.08-.19-.08-.32v-4.4c0-.72-.28-1.25-.83-1.6-.56-.34-1.29-.51-2.18-.51-.77,0-1.45.18-2.04.55-.59.37-.89,1.03-.91,1.97h1.2c.05-.4.15-.7.31-.89.28-.36.75-.55,1.42-.55.58,0,1.02.1,1.33.3.31.2.47.52.47.95,0,.21-.03.38-.09.49-.1.21-.3.33-.59.37l-2.05.26ZM117.61,52.01c0-.49.2-.84.6-1.07.23-.13.58-.23,1.05-.29l.78-.1c.24-.03.48-.08.72-.14.25-.07.45-.15.6-.25v1.03c0,.79-.36,1.35-1.07,1.7-.42.21-.86.31-1.31.31-.37,0-.69-.11-.96-.32-.27-.21-.41-.5-.41-.87M110.12,53.09c-1.23,0-2.16-.37-2.79-1.12-.63-.75-.95-1.75-.95-3.01,0-1.5.33-2.61.99-3.33.66-.72,1.56-1.08,2.69-1.08s2,.38,2.64,1.13c.64.75.97,1.74.97,2.97,0,.56-.08,1.15-.23,1.76-.16.61-.45,1.17-.88,1.66l-1.37-1.06-.71.88,1.16.89c-.19.12-.41.2-.67.24-.26.04-.53.06-.83.06M113.59,52.89c.6-.6,1.02-1.37,1.27-2.32.17-.62.25-1.27.25-1.94,0-1.44-.35-2.63-1.04-3.56-.89-1.19-2.26-1.78-4.1-1.78s-3.1.65-4,1.94c-.7,1.01-1.05,2.22-1.05,3.63,0,1.56.41,2.85,1.22,3.89.92,1.06,2.19,1.6,3.82,1.6.54,0,1.03-.06,1.49-.19.45-.13.88-.3,1.26-.51l1.62,1.23.71-.86-1.44-1.12ZM97.49,45.25v1.2h-1.06v1.01h1.06v6.58h1.27v-6.58h1.28v-1.01h-1.28c0-.83.04-1.34.11-1.54s.31-.3.71-.3c.05,0,.11,0,.17,0,.06,0,.16,0,.29.02v-1.17c-.11,0-.21-.02-.29-.02-.09,0-.17,0-.25,0-.86,0-1.43.22-1.73.66-.17.25-.26.64-.28,1.17M92.1,46.19c-1.09,0-1.96.38-2.6,1.14-.65.76-.97,1.78-.97,3.06,0,1.2.31,2.15.92,2.86.61.71,1.44,1.06,2.48,1.06,1.25,0,2.17-.4,2.77-1.2.59-.8.89-1.82.89-3.05s-.34-2.23-1.01-2.89c-.67-.66-1.5-.98-2.48-.98M92.06,53.21c-.77,0-1.33-.27-1.68-.81-.35-.54-.53-1.22-.53-2.03s.18-1.56.53-2.16c.35-.6.91-.9,1.69-.9.87,0,1.49.35,1.85,1.05.22.45.34,1.02.34,1.74,0,.79-.16,1.5-.47,2.15-.31.64-.89.96-1.73.96M77.85,49.62c.02-.66.23-1.2.63-1.62.39-.43.89-.64,1.47-.64.82,0,1.4.31,1.74.93.19.33.31.78.36,1.33h-4.2ZM80.03,46.24c-1.07,0-1.93.38-2.59,1.15-.66.76-.99,1.76-.99,2.99s.33,2.21.98,2.9c.66.69,1.46,1.04,2.4,1.04.39,0,.73-.04,1.04-.11.57-.13,1.05-.39,1.44-.77.23-.22.44-.5.63-.84.19-.34.3-.66.33-.94h-1.26c-.09.34-.25.64-.47.89-.39.44-.93.67-1.59.67-.71,0-1.24-.23-1.58-.7-.34-.47-.52-1.09-.54-1.87h5.55c0-.77-.04-1.33-.11-1.68-.09-.51-.26-.96-.51-1.35-.27-.4-.65-.73-1.16-.99-.5-.25-1.03-.38-1.56-.38M73.09,46.41h-1.03v1.05h1.03v5.05c0,.49.11.89.32,1.19.21.31.62.46,1.22.46.18,0,.36,0,.52-.03.16-.02.31-.05.46-.09v-1.02c-.1.01-.18.02-.25.02s-.14,0-.2,0c-.23,0-.4-.03-.5-.08-.18-.09-.27-.27-.27-.54v-4.98h1.22v-1.05h-1.22v-2.13h-1.3v2.13ZM66.76,49.68c-.72.09-1.3.33-1.74.72-.44.39-.66.94-.66,1.64,0,.64.22,1.18.67,1.61.45.43,1.03.64,1.73.64.59,0,1.13-.13,1.62-.38.49-.25.86-.55,1.12-.89.04.3.12.54.22.71.2.31.52.47.96.47.18,0,.32,0,.43-.02.11-.01.26-.05.46-.11v-.95c-.08.01-.16.02-.23.03-.07,0-.13.01-.19.01-.17,0-.29-.04-.34-.12s-.08-.19-.08-.32v-4.4c0-.72-.28-1.25-.83-1.6-.56-.34-1.29-.51-2.18-.51-.77,0-1.45.18-2.04.55-.59.37-.89,1.03-.91,1.97h1.2c.05-.4.15-.7.31-.89.28-.36.75-.55,1.42-.55.58,0,1.02.1,1.33.3.31.2.47.52.47.95,0,.21-.03.38-.09.49-.1.21-.3.33-.59.37l-2.05.26ZM65.7,52.01c0-.49.2-.84.59-1.07.23-.13.58-.23,1.05-.29l.78-.1c.24-.03.48-.08.72-.14.25-.07.45-.15.61-.25v1.03c0,.79-.36,1.35-1.07,1.7-.42.21-.86.31-1.31.31-.37,0-.69-.11-.96-.32-.27-.21-.41-.5-.41-.87M60.92,46.41h-1.03v1.05h1.03v5.05c0,.49.11.89.32,1.19.22.31.62.46,1.22.46.19,0,.36,0,.52-.03.16-.02.31-.05.46-.09v-1.02c-.1.01-.18.02-.25.02-.07,0-.14,0-.2,0-.23,0-.4-.03-.5-.08-.18-.09-.27-.27-.27-.54v-4.98h1.22v-1.05h-1.22v-2.13h-1.3v2.13ZM50.69,50.67c-.01,1.13.34,2.03,1.06,2.69.72.67,1.71,1,2.98,1,1.09,0,2.04-.25,2.87-.75s1.23-1.33,1.23-2.49c0-.93-.32-1.64-.97-2.13-.37-.28-.9-.5-1.59-.66l-1.42-.33c-.96-.23-1.57-.42-1.84-.57-.41-.24-.62-.61-.62-1.12,0-.47.17-.87.53-1.23.35-.35.93-.53,1.73-.53.99,0,1.7.27,2.11.82.22.3.37.73.44,1.29h1.33c0-1.16-.37-2.01-1.12-2.54-.75-.53-1.65-.79-2.72-.79-1.16,0-2.06.3-2.69.9-.63.6-.95,1.38-.95,2.32,0,.87.32,1.52.97,1.96.37.25,1.01.48,1.9.69l1.37.32c.75.18,1.29.38,1.64.62.34.24.52.65.52,1.22,0,.76-.41,1.29-1.22,1.58-.42.15-.89.23-1.4.23-1.14,0-1.94-.35-2.39-1.04-.24-.37-.37-.85-.41-1.45h-1.33Z"/>
        <path class="cls-2" d="M134.02,38.05c.22.01.38.02.49.03.11,0,.25,0,.43,0,.89,0,1.49-.18,1.78-.53.3-.35.7-1.26,1.21-2.72l2.64-7.57h-2.14l-1.59,5.68-1.68-5.68h-2.24l2.83,8.04c.01.06-.03.21-.13.47-.1.25-.21.42-.33.5-.12.09-.27.14-.45.16-.18.02-.37.03-.57.02h-.25s0,1.6,0,1.6ZM129.26,28.77v4.74c0,.48.11.84.34,1.07.35.36,1,.53,1.95.5l.95-.04v-1.5c-.07,0-.13,0-.2.01-.07,0-.13,0-.19,0-.41,0-.66-.04-.73-.12-.08-.08-.12-.28-.12-.59v-4.07h1.25v-1.44h-1.25v-2.15h-1.99v2.15h-1.07v1.44h1.07ZM125.06,34.96h2.04v-7.7h-2.04v7.7ZM127.1,24.49h-2.04v1.86h2.04v-1.86ZM123.65,27.08c-.6,0-1.09.16-1.47.47-.23.19-.5.54-.81,1.05v-1.34h-1.92v7.7h2.03v-3.68c0-.62.08-1.07.23-1.37.28-.53.82-.79,1.63-.79.06,0,.14,0,.24,0,.1,0,.21.01.34.03v-2.06c-.09,0-.15,0-.17,0-.03,0-.06,0-.1,0M118.1,31.12c0-1.11-.32-2.07-.97-2.89s-1.64-1.22-2.96-1.22-2.31.41-2.96,1.22c-.65.81-.97,1.78-.97,2.89s.33,2.1.97,2.9c.65.8,1.64,1.2,2.96,1.2s2.31-.4,2.96-1.2c.65-.8.97-1.77.97-2.9M114.16,33.54c-.59,0-1.04-.21-1.36-.63-.32-.42-.48-1.01-.48-1.78s.16-1.37.48-1.78c.32-.42.77-.62,1.36-.62s1.04.21,1.36.62c.32.42.47,1.01.47,1.78s-.16,1.37-.47,1.78c-.32.42-.77.63-1.36.63M106.18,27.06c-.42,0-.83.09-1.21.27-.38.18-.72.49-1.01.94v-3.67h-2.01v10.38h2.01v-4.17c0-.66.14-1.17.41-1.52.27-.36.67-.53,1.2-.53s.86.18,1.04.54c.14.25.21.59.21,1v4.69h2.06v-4.53c0-.69-.02-1.18-.07-1.49s-.18-.6-.39-.89c-.25-.34-.57-.59-.95-.76-.39-.17-.82-.25-1.29-.25M97.48,28.77v4.74c0,.48.11.84.34,1.07.35.36,1,.53,1.95.5l.95-.04v-1.5c-.07,0-.13,0-.2.01-.07,0-.13,0-.19,0-.41,0-.66-.04-.73-.12-.08-.08-.12-.28-.12-.59v-4.07h1.25v-1.44h-1.25v-2.15h-1.99v2.15h-1.07v1.44h1.07ZM88.37,27.26v4.64c0,.88.11,1.55.33,2,.39.82,1.16,1.23,2.3,1.23.39,0,.74-.05,1.03-.16.29-.1.6-.3.91-.58.1-.09.19-.19.27-.31.07-.12.12-.19.14-.21v1.09h1.96v-7.7h-2.04v4.19c0,.49-.06.89-.2,1.19-.25.55-.72.83-1.41.83-.53,0-.89-.2-1.08-.59-.1-.22-.15-.55-.15-.99v-4.64h-2.06ZM77.48,34.96h2.28l.71-2.14h3.84l.69,2.14h2.36l-3.68-10.41h-2.46l-3.72,10.41ZM82.4,26.93l1.32,4.1h-2.67l1.35-4.1ZM66.96,38.05c.22.01.38.02.49.03.11,0,.25,0,.43,0,.89,0,1.49-.18,1.78-.53.3-.35.7-1.26,1.21-2.72l2.64-7.57h-2.14l-1.59,5.68-1.68-5.68h-2.24l2.83,8.04c.01.06-.03.21-.13.47-.1.25-.21.42-.33.5-.12.09-.27.14-.45.16-.18.02-.37.03-.57.02h-.25s0,1.6,0,1.6ZM65.28,27.08c-.6,0-1.09.16-1.47.47-.23.19-.5.54-.81,1.05v-1.34h-1.92v7.7h2.03v-3.68c0-.62.08-1.07.23-1.37.28-.53.82-.79,1.63-.79.06,0,.14,0,.24,0,.1,0,.21.01.34.03v-2.06c-.09,0-.15,0-.17,0-.03,0-.06,0-.1,0M59.73,31.12c0-1.11-.33-2.07-.98-2.89-.65-.81-1.64-1.22-2.96-1.22s-2.31.41-2.96,1.22c-.65.81-.98,1.78-.98,2.89s.33,2.1.98,2.9c.65.8,1.64,1.2,2.96,1.2s2.31-.4,2.96-1.2c.65-.8.98-1.77.98-2.9M55.79,33.54c-.59,0-1.04-.21-1.36-.63-.32-.42-.48-1.01-.48-1.78s.16-1.37.48-1.78c.32-.42.77-.62,1.36-.62s1.04.21,1.36.62c.32.42.47,1.01.47,1.78s-.16,1.37-.47,1.78c-.32.42-.77.63-1.36.63M47.87,28.77v4.74c0,.48.11.84.34,1.07.35.36,1,.53,1.95.5l.95-.04v-1.5c-.07,0-.13,0-.2.01-.07,0-.13,0-.19,0-.41,0-.66-.04-.73-.12-.08-.08-.12-.28-.12-.59v-4.07h1.25v-1.44h-1.25v-2.15h-1.99v2.15h-1.07v1.44h1.07ZM41.98,30.36c-.78.1-1.38.26-1.78.5-.74.42-1.1,1.11-1.1,2.06,0,.73.23,1.29.69,1.69.46.4,1.04.6,1.74.6.55,0,1.04-.12,1.48-.37.36-.21.69-.47.97-.77.01.17.03.33.06.47.02.14.07.28.13.44h2.19v-.3c-.13-.06-.23-.14-.3-.23-.07-.09-.11-.27-.12-.54,0-.35-.01-.64-.01-.89v-3.53c0-.93-.33-1.56-.99-1.89-.66-.33-1.41-.5-2.26-.5-1.3,0-2.22.34-2.75,1.02-.34.43-.53.99-.57,1.66h1.94c.05-.3.14-.53.29-.71.2-.23.54-.35,1.02-.35.43,0,.76.06.98.18.22.12.33.34.33.65,0,.26-.14.45-.43.57-.16.07-.43.13-.8.18l-.69.08ZM43.9,31.97c-.01.67-.21,1.14-.58,1.39-.37.25-.78.38-1.22.38-.28,0-.51-.08-.71-.23-.19-.15-.29-.4-.29-.74,0-.39.16-.67.48-.85.19-.11.5-.2.93-.28l.46-.08c.23-.04.41-.09.54-.14.13-.05.26-.11.39-.19v.75ZM37.73,24.55h-2.01v10.41h2.01v-10.41ZM26.85,27.26v4.64c0,.88.11,1.55.33,2,.39.82,1.16,1.23,2.3,1.23.39,0,.74-.05,1.03-.16.29-.1.6-.3.91-.58.1-.09.19-.19.27-.31.07-.12.12-.19.14-.21v1.09h1.96v-7.7h-2.04v4.19c0,.49-.06.89-.2,1.19-.25.55-.72.83-1.41.83-.53,0-.89-.2-1.08-.59-.1-.22-.15-.55-.15-.99v-4.64h-2.06ZM20.94,27.08c-1.04,0-1.85.39-2.42,1.17-.57.78-.85,1.74-.85,2.89s.3,2.13.89,2.82c.59.7,1.38,1.04,2.37,1.04.64,0,1.16-.15,1.56-.46.22-.17.43-.41.62-.74v.5c0,.73-.08,1.26-.24,1.57-.24.49-.73.73-1.45.73-.51,0-.88-.09-1.1-.28-.13-.1-.22-.27-.28-.51h-2.19c.06.77.41,1.34,1.03,1.73.62.39,1.43.58,2.41.58,1.63,0,2.73-.43,3.31-1.3.33-.5.5-1.25.5-2.25v-7.3h-1.96v1.11c-.3-.54-.7-.91-1.18-1.12-.29-.12-.62-.18-1.01-.18M21.45,33.31c-.7,0-1.19-.33-1.46-.98-.15-.35-.22-.75-.22-1.19,0-.52.07-.95.21-1.31.27-.66.75-1,1.46-1,.52,0,.93.19,1.23.57.31.38.46.94.46,1.67,0,.78-.16,1.34-.49,1.7-.32.36-.72.53-1.19.53M13.37,27.06c-1.13,0-2.05.36-2.75,1.07-.71.71-1.06,1.73-1.06,3.07,0,1.42.39,2.45,1.17,3.08.78.63,1.69.95,2.71.95,1.24,0,2.21-.37,2.9-1.12.44-.47.69-.94.75-1.39h-2.06c-.12.23-.26.4-.41.53-.29.24-.66.35-1.12.35-.43,0-.8-.1-1.11-.29-.5-.31-.77-.85-.81-1.63h5.61c0-.67-.01-1.17-.07-1.53-.09-.6-.3-1.13-.61-1.59-.35-.52-.79-.9-1.33-1.14-.54-.24-1.14-.36-1.81-.36M13.37,28.72c.48,0,.87.14,1.19.42s.5.68.54,1.22h-3.47c.07-.5.25-.9.54-1.19.28-.29.69-.44,1.2-.44M4.98,24.55H0v10.41h2.13v-4.08h2.12c.61,0,1.02.11,1.24.33.22.22.33.67.34,1.33v.97c.02.31.05.61.11.9.03.14.08.33.14.56h2.4v-.26c-.21-.13-.34-.33-.4-.59-.04-.17-.06-.49-.06-.97v-.7c0-.73-.1-1.27-.3-1.63-.2-.36-.54-.63-1.02-.82.57-.2.99-.54,1.24-1.01.25-.48.37-.96.37-1.46,0-.41-.06-.77-.19-1.1-.13-.32-.3-.61-.52-.88-.27-.32-.59-.56-.97-.73s-.93-.25-1.64-.27M4.53,26.36c.45,0,.78.06,1.01.18.4.22.6.64.6,1.27,0,.58-.21.98-.62,1.17-.23.11-.58.17-1.05.17h-2.34v-2.8h2.4Z"/>
        <path class="cls-2" d="M131.22,10.33c0,1,.37,1.83,1.1,2.47.73.65,1.87.97,3.4.97s2.62-.31,3.34-.92,1.08-1.4,1.08-2.37c0-.73-.25-1.34-.75-1.83-.51-.48-1.27-.84-2.28-1.08-1.52-.33-2.41-.57-2.66-.71-.25-.13-.38-.34-.38-.64,0-.23.12-.44.35-.61.24-.17.63-.26,1.19-.26.67,0,1.15.17,1.44.52.15.19.24.45.28.78h2.55c-.11-1.19-.56-2.03-1.32-2.52-.77-.49-1.76-.73-2.98-.73-1.29,0-2.28.32-2.99.97-.71.65-1.06,1.42-1.06,2.32,0,.76.23,1.35.68,1.75.45.41,1.23.75,2.34,1.03,1.54.36,2.43.62,2.67.77.24.15.36.37.36.65s-.15.52-.44.67c-.3.15-.7.22-1.2.22-.86,0-1.44-.17-1.76-.51-.18-.19-.3-.51-.35-.97h-2.59ZM126.58,3.45c-.8,0-1.46.2-1.99.59-.29.22-.6.58-.93,1.08v-1.42h-2.47v9.73h2.55v-5.28c0-.6.08-1.1.25-1.49.32-.73.91-1.1,1.77-1.1.7,0,1.17.25,1.42.75.14.27.2.67.2,1.18v5.93h2.61v-6.57c0-1.22-.32-2.1-.96-2.63-.64-.53-1.46-.79-2.46-.79M119.91,8.58c0-1.41-.41-2.63-1.23-3.66-.82-1.03-2.07-1.55-3.75-1.55s-2.93.52-3.75,1.55c-.82,1.03-1.23,2.25-1.23,3.66s.41,2.65,1.23,3.67c.82,1.02,2.07,1.52,3.75,1.52s2.93-.51,3.75-1.52c.82-1.02,1.23-2.24,1.23-3.67M114.91,11.63c-.75,0-1.32-.27-1.72-.79-.4-.53-.61-1.28-.61-2.26s.2-1.73.61-2.26c.4-.53.98-.79,1.72-.79s1.32.26,1.72.79c.4.53.6,1.28.6,2.26s-.2,1.73-.6,2.26c-.4.53-.97.79-1.72.79M106.03,13.44h2.59V3.69h-2.59v9.75ZM108.62.17h-2.59v2.35h2.59V.17ZM100.8,5.59v6c0,.61.14,1.06.43,1.35.44.46,1.26.67,2.47.63l1.21-.04v-1.91c-.08,0-.17,0-.26.01-.09,0-.17,0-.25,0-.52,0-.83-.05-.93-.15-.1-.1-.15-.35-.15-.75v-5.16h1.58v-1.82h-1.58V1.06h-2.52v2.72h-1.36v1.82h1.36ZM93.79,7.62c-.99.13-1.74.33-2.25.63-.93.54-1.4,1.4-1.4,2.61,0,.92.29,1.64.87,2.14.58.5,1.31.76,2.2.76.7,0,1.32-.16,1.87-.47.46-.27.87-.59,1.22-.98.02.22.04.42.07.59.03.17.08.36.16.56h2.77v-.38c-.17-.08-.29-.18-.38-.3-.08-.12-.13-.34-.15-.68-.01-.44-.02-.82-.02-1.13v-4.47c0-1.17-.42-1.97-1.25-2.4-.83-.42-1.78-.63-2.86-.63-1.65,0-2.81.43-3.49,1.29-.43.55-.67,1.25-.72,2.1h2.46c.06-.38.18-.67.36-.89.25-.3.69-.45,1.3-.45.55,0,.96.08,1.24.23.28.15.42.43.42.83,0,.33-.18.57-.55.72-.2.09-.54.16-1.02.22l-.88.11ZM96.22,9.65c-.02.85-.26,1.44-.73,1.76-.47.32-.98.48-1.54.48-.35,0-.65-.1-.89-.29-.25-.19-.37-.51-.37-.95,0-.49.2-.85.6-1.08.24-.14.63-.25,1.17-.35l.58-.11c.29-.05.52-.11.68-.17.17-.06.33-.14.49-.25v.95ZM89.6,7.19c-.14-1.39-.61-2.36-1.38-2.91-.78-.55-1.78-.82-3.01-.82-1.44,0-2.57.46-3.39,1.39-.82.93-1.23,2.23-1.23,3.91,0,1.48.37,2.69,1.11,3.62s1.9,1.4,3.47,1.4,2.76-.56,3.56-1.67c.5-.69.78-1.43.84-2.2h-2.6c-.05.51-.21.93-.46,1.25-.25.32-.67.48-1.27.48-.84,0-1.42-.4-1.72-1.22-.17-.43-.25-1.01-.25-1.72,0-.75.08-1.35.25-1.8.32-.85.91-1.28,1.77-1.28.6,0,1.05.2,1.34.59.2.29.32.62.37.99h2.61ZM76.65,13.44h2.59V3.69h-2.59v9.75ZM79.24.17h-2.59v2.35h2.59V.17ZM71.37,3.45c-.8,0-1.46.2-1.99.59-.29.22-.6.58-.93,1.08v-1.42h-2.47v9.73h2.55v-5.28c0-.6.08-1.1.25-1.49.32-.73.91-1.1,1.77-1.1.7,0,1.17.25,1.42.75.14.27.2.67.2,1.18v5.93h2.61v-6.57c0-1.22-.32-2.1-.96-2.63-.64-.53-1.46-.79-2.46-.79M55.25,3.69v5.88c0,1.11.14,1.96.42,2.53.5,1.04,1.47,1.56,2.91,1.56.5,0,.94-.07,1.31-.2.37-.13.76-.38,1.16-.73.13-.11.24-.24.34-.39.1-.15.16-.24.18-.27v1.38h2.48V3.69h-2.59v5.31c0,.63-.08,1.13-.25,1.51-.32.7-.91,1.06-1.78,1.06-.68,0-1.13-.25-1.36-.74-.13-.28-.2-.7-.2-1.25V3.69h-2.61ZM50.48,3.47c-.64,0-1.23.13-1.75.4-.5.27-.91.69-1.24,1.26-.19-.48-.47-.87-.84-1.17-.46-.33-1.06-.49-1.81-.49-.79,0-1.43.19-1.92.57-.28.21-.58.58-.89,1.08v-1.42h-2.48v9.73h2.59v-5.87c0-.53.07-.93.21-1.2.25-.47.74-.71,1.47-.71.63,0,1.05.23,1.26.71.12.26.18.68.18,1.26v5.81h2.57v-5.81c0-.44.07-.81.21-1.12.27-.58.75-.88,1.46-.88.61,0,1.03.23,1.25.68.12.24.18.54.18.91v6.21h2.61l.02-6.15c0-.63-.03-1.11-.09-1.44-.1-.5-.28-.91-.56-1.25-.34-.42-.72-.71-1.14-.88-.42-.17-.84-.25-1.27-.25M34.73,3.47c-.64,0-1.23.13-1.75.4-.5.27-.91.69-1.24,1.26-.19-.48-.47-.87-.84-1.17-.46-.33-1.06-.49-1.81-.49-.79,0-1.43.19-1.92.57-.28.21-.58.58-.89,1.08v-1.42h-2.48v9.73h2.59v-5.87c0-.53.07-.93.21-1.2.25-.47.74-.71,1.47-.71.63,0,1.05.23,1.26.71.12.26.18.68.18,1.26v5.81h2.57v-5.81c0-.44.07-.81.21-1.12.27-.58.76-.88,1.46-.88.61,0,1.03.23,1.25.68.12.24.18.54.18.91v6.21h2.61l.02-6.15c0-.63-.03-1.11-.09-1.44-.1-.5-.28-.91-.56-1.25-.34-.42-.72-.71-1.14-.88-.42-.17-.84-.25-1.27-.25M22.56,8.58c0-1.41-.41-2.63-1.23-3.66-.82-1.03-2.07-1.55-3.75-1.55s-2.93.52-3.75,1.55c-.82,1.03-1.24,2.25-1.24,3.66s.41,2.65,1.24,3.67c.82,1.02,2.07,1.52,3.75,1.52s2.93-.51,3.75-1.52c.82-1.02,1.23-2.24,1.23-3.67M17.57,11.63c-.75,0-1.32-.27-1.72-.79-.4-.53-.61-1.28-.61-2.26s.2-1.73.61-2.26c.4-.53.98-.79,1.72-.79s1.32.26,1.72.79c.4.53.6,1.28.6,2.26s-.2,1.73-.6,2.26c-.4.53-.97.79-1.72.79M.14,6.95c0,2.13.54,3.81,1.61,5.03,1.07,1.22,2.55,1.83,4.43,1.83,1.52,0,2.76-.45,3.73-1.35.97-.9,1.57-2.07,1.81-3.51h-2.74c-.18.68-.41,1.19-.68,1.53-.5.63-1.22.95-2.16.95s-1.68-.37-2.28-1.11c-.6-.74-.9-1.84-.9-3.32s.28-2.62.85-3.43c.57-.81,1.34-1.21,2.32-1.21s1.69.28,2.18.86c.28.32.5.8.67,1.43h2.76c-.04-.82-.34-1.64-.9-2.46-1.01-1.45-2.62-2.18-4.82-2.18-1.64,0-2.99.54-4.05,1.63C.75,2.88.14,4.65.14,6.95"/>
        <path class="cls-1" d="M242.4,54.72h-7.09v-1.12h5.91c0-1.42-.26-2.57-.78-3.44-.64-1.04-1.63-1.58-2.96-1.66h-.43v-1.05c2.25,0,3.8.89,4.62,2.68.5,1.07.73,2.59.73,4.58M232.54,50.99c0-1.44-.8-2.57-1.98-2.57s-1.89,1.12-1.89,2.51.8,2.56,1.96,2.56,1.9-1.1,1.9-2.49M233.63,50.99v2.38c0,2.6-1.02,3.85-3.37,3.98v-1.07c1.47,0,2.22-.89,2.25-2.7-.35.61-.97.91-1.89.91-1.76,0-3.05-1.47-3.05-3.55s1.23-3.51,3.05-3.51,3,1.49,3,3.56M225.74,44.39v7.52c0,1.87-.78,2.81-2.35,2.81h-1.39v-1.1h1.02c.69,0,1.13-.22,1.36-.67.16-.29.24-.8.24-1.53v-7.03h1.12ZM222.25,54.72h-3.37v-1.12h3.37v1.12ZM219.09,54.72h-3.37v-1.12h3.37v1.12ZM215.93,54.72h-3.37v-1.12h3.37v1.12ZM209,49.61v-2.83h-2.03c-1.26,0-2.12,1.29-2.12,2.97s.85,2.99,2.09,2.99c1.34,0,2.03-1.04,2.06-3.13M212.8,54.72h-.73c-1.58,0-2.59-.78-3.05-2.33-.48.81-1.29,1.23-2.44,1.23-1.63,0-2.84-1.68-2.84-3.8,0-2.27,1.21-3.87,3.03-3.87h3.39v5.13c0,1.6.75,2.54,2.05,2.54h.61v1.1ZM207.32,44.79h-1.13v-1.36h1.13v1.36ZM209.41,44.79h-1.13v-1.36h1.13v1.36ZM196.54,50.99c0-1.6-.72-2.57-2.03-2.57-1.42,0-2.16,1.07-2.16,2.76,0,1.6.78,2.62,2.09,2.62,1.39,0,2.09-.94,2.09-2.81M197.77,51.1c0,2.08-1.29,3.63-3.32,3.63h-5.67v-1.12h3.11c-.53-.64-.8-1.47-.8-2.49,0-2.08,1.29-3.63,3.37-3.63s3.31,1.44,3.31,3.61M193.96,46.32h-1.13v-1.36h1.13v1.36ZM196.06,46.32h-1.13v-1.36h1.13v1.36ZM189.12,54.72h-3.37v-1.12h3.37v1.12ZM182.56,53.62c.03-.35.05-.69.05-1.01,0-2.48-1.02-4.14-2.78-4.14-2.03,0-4.42,2.46-5.17,5.14h7.91ZM185.91,54.72h-15.14v-1.1h2.94v-9.22h1.18l-.26,7.43c1.09-2.65,3.24-4.38,5.27-4.38,2.57,0,3.85,1.82,3.85,5.42,0,.24,0,.48-.02.73h2.17v1.12ZM171.54,54.72h-3.37v-1.12h3.37v1.12ZM168.37,54.72h-3.37v-1.12h3.37v1.12ZM165.21,54.72h-3.37v-1.12h3.37v1.12ZM162.14,54.72h-2.75c-.3,1.65-1.39,2.51-3.24,2.62v-1.07c1.49,0,2.24-.82,2.24-2.7v-6.1h1.12v6.13h2.64v1.12Z"/>
        <path class="cls-1" d="M295.22,35.55h-2.88v-13.26h2.88v13.26ZM289.27,32.18c0,1.01-.33,1.81-1.01,2.45-.68.62-1.52.93-2.53.93h-6.83v-2.76h3.06l-2.59-9.11h3.04l2.55,9.11c.97-.02,1.46-.72,1.46-2.1v-8.39h2.84v9.87ZM275.83,31.59c0,1.09-.31,2-.91,2.72-.68.84-1.62,1.25-2.82,1.25h-2.45v-2.76h1.83c.97,0,1.46-.68,1.46-2.01v-4.55h2.88v5.35ZM271.76,24.68h-2.55v-2.36h2.55v2.36ZM275.65,24.68h-2.57v-2.36h2.57v2.36ZM270.01,35.55h-4.4v-2.76h4.4v2.76ZM265.94,35.55h-4.4v-2.76h4.4v2.76ZM261.87,35.55h-4.4v-2.76h4.4v2.76ZM252.6,32.8l.02-.37c0-2.12-1.05-3.72-2.86-3.72-2.12,0-4.01,1.38-5.59,4.09h8.43ZM257.84,35.55h-21.28v-2.76h2.59c.95,0,1.46-.49,1.46-1.97v-3.6h2.88v2.65c1.81-2.3,4.2-3.68,6.5-3.68,3.37,0,5.35,2.39,5.61,6.6h2.24v2.76ZM237.36,35.55h-4.4v-2.76h4.4v2.76ZM233.29,35.55h-4.4v-2.76h4.4v2.76ZM229.22,35.55h-4.4v-2.76h4.4v2.76ZM225.14,35.55h-4.4v-2.76h4.4v2.76ZM221.07,35.55h-4.4v-2.76h4.4v2.76ZM217,35.55h-4.4v-2.76h4.4v2.76ZM212.93,35.55h-4.4v-2.76h4.4v2.76ZM208.86,35.55h-4.4v-2.76h4.4v2.76ZM204.79,35.55h-4.4v-2.76h4.4v2.76ZM200.72,35.55h-4.4v-2.76h4.4v2.76ZM196.73,35.55h-2.71c-2.2,0-3.48-1.28-3.48-3.39v-9.87h2.88v8.37c0,1.4.35,2.14,2.47,2.14h.84v2.76ZM187.46,32.18c0,1.01-.33,1.81-1.01,2.45-.68.62-1.52.93-2.53.93h-6.83v-2.76h3.06l-2.59-9.11h3.04l2.55,9.11c.97-.02,1.46-.72,1.46-2.1v-8.39h2.84v9.87ZM174.03,32.16c0,2.14-1.25,3.39-3.48,3.39h-7.44c-4.55,0-6.81-1.91-6.81-5.76v-3.58h2.84v3.58c0,1.21.39,2.06,1.15,2.49.6.35,1.54.51,2.88.51h5.31c.82,0,1.38-.06,1.69-.21.68-.29,1.03-.93,1.03-1.89v-4.46h2.84v5.92ZM164.65,26.24h-2.57v-2.39h2.57v2.39ZM168.54,26.24h-2.57v-2.39h2.57v2.39Z"/>
        <path class="cls-1" d="M290.37,10.17c0-.81-.48-1.4-1.28-1.4s-1.26.59-1.26,1.4.53,1.46,1.26,1.46,1.28-.64,1.28-1.46M295.7,13.81h-12.23v-2.2h2.45c-.21-.44-.31-.92-.31-1.43,0-1.99,1.43-3.27,3.48-3.27s3.46,1.21,3.46,3.27c0,.51-.1.98-.29,1.43h1.59l.03-.84c-.03-2.46-1.33-4.4-3.84-4.66l.2-2.22c1.76.16,3.68,1.28,4.68,2.72.81,1.13,1.2,2.51,1.2,4.14,0,.94-.13,1.95-.41,3.05M284.06,13.81h-3.51v-2.2h3.51v2.2ZM275.13,16.54h-2.04v-1.9h2.04v1.9ZM278.22,16.54h-2.04v-1.9h2.04v1.9ZM280.86,13.81h-7.39v-2.2h1.51c.77,0,1.15-.52,1.15-1.58v-3.66h2.32v3.58c0,.61-.08,1.15-.26,1.66h2.68v2.2ZM273.7,13.81h-3.51v-2.2h3.51v2.2ZM270.5,13.81h-7.4v-2.2h1.51c.77,0,1.17-.52,1.17-1.58v-2.74h2.31v2.66c0,.61-.1,1.15-.28,1.66h2.69v2.2ZM268.15,6.37h-4.25v-1.22h.94c-.08-.23-.13-.44-.13-.64,0-1.07.79-1.9,1.84-1.9.74,0,1.28.38,1.59,1.12l-1.08.51c-.1-.33-.28-.49-.52-.49-.38,0-.56.25-.56.72,0,.36.11.59.34.67h1.84v1.23ZM263.39,13.81h-3.51v-2.2h3.51v2.2ZM260.14,13.81h-3.51v-2.2h3.51v2.2ZM256.89,13.81h-3.51v-2.2h3.51v2.2ZM253.64,13.81h-3.51v-2.2h3.51v2.2ZM253.44,13.81h-3.51v-2.2h3.51v2.2ZM245.15,8.62v-2.17h-1.51c-.94,0-1.63,1.04-1.63,2.32,0,1.15.66,2.1,1.58,2.1.97,0,1.56-.9,1.56-2.25M250.37,13.81h-2.32c-1.31,0-2.23-.67-2.76-2.02-.41.64-1.2.99-2.33.99-1.97,0-3.23-1.71-3.23-3.97,0-2.44,1.23-4.02,3.4-4.02,0-.02,1.46-.02,4.38-.02v5.17c0,1.08.56,1.67,1.67,1.67h1.18v2.2ZM243.61,3.24h-2.04v-1.9h2.04v1.9ZM246.7,3.24h-2.04v-1.9h2.04v1.9ZM234.99,10.64c0,.87-.25,1.59-.72,2.17-.54.67-1.3,1-2.25,1h-1.95v-2.2h1.46c.77,0,1.17-.54,1.17-1.61v-3.63h2.3v4.27ZM231.74,5.13h-2.04v-1.89h2.04v1.89ZM234.84,5.13h-2.05v-1.89h2.05v1.89ZM230.35,13.81h-3.51v-2.2h3.51v2.2ZM227.14,13.81h-7.4v-2.2h1.51c.77,0,1.17-.52,1.17-1.58v-3.66h2.32v3.58c0,.61-.1,1.15-.28,1.66h2.69v2.2ZM224.55,5.13h-2.05v-1.89h2.05v1.89ZM220.03,13.81h-3.51v-2.2h3.51v2.2ZM210.99,5.13h-2.04v-1.89h2.04v1.89ZM212.63,11.61c.02-.11.02-.21.02-.33,0-1.71-.85-2.94-2.28-2.94-1.69,0-3.2,1.1-4.47,3.27h6.73ZM210.99,3.24h-2.04v1.89h2.04v-1.89ZM216.83,13.81h-15.58v-2.2h2.63V3.24h2.28l-.21,5.37c1.48-1.54,2.96-2.27,4.6-2.27,2.71,0,4.25,1.9,4.5,5.27h1.79v2.2ZM210.99,5.13h-2.04v-1.89h2.04v1.89ZM201.46,13.81h-3.51v-2.2h3.51v2.2ZM192.53,16.54h-2.04v-1.9h2.04v1.9ZM195.62,16.54h-2.04v-1.9h2.04v1.9ZM198.26,13.81h-7.39v-2.2h1.51c.77,0,1.15-.52,1.15-1.58v-3.66h2.31v3.58c0,.61-.08,1.15-.26,1.66h2.68v2.2ZM191.11,13.81h-3.51v-2.2h3.51v2.2ZM187.85,13.81h-3.51v-2.2h3.51v2.2ZM184.6,13.81h-3.51v-2.2h3.51v2.2ZM181.35,13.81h-3.51v-2.2h3.51v2.2ZM178.1,13.81h-3.51v-2.2h3.51v2.2ZM174.85,13.81h-3.51v-2.2h3.51v2.2ZM166.43,10.07c0-1.1-.59-1.82-1.51-1.82s-1.53.81-1.53,1.89.57,1.87,1.41,1.87h.16c.97,0,1.46-.64,1.46-1.94M171.57,13.81h-.1c-1.45,0-2.59-.38-3.53-1.26-.71.87-1.72,1.31-3.09,1.31-2.25,0-3.71-1.48-3.71-3.73,0-.56.08-1.07.26-1.53h-1.05c-1.28,0-1.92.84-1.92,2.5v5.43h-2.27v-5.79c0-2.66,1.66-4.37,4.09-4.37h4.68c1.9,0,3.27,1.07,3.64,2.72.43,1.89,1.12,2.48,2.87,2.51h.11v2.2Z"/>
      </g>
    </g>
  </g>
</svg>