<?xml version="1.0" encoding="UTF-8"?>
<svg id="Layer_2" data-name="Layer 2" xmlns="http://www.w3.org/2000/svg" viewBox="0 0 2907.16 2992.36">
  <defs>
    <style>
      .cls-1 {
        fill: #18b0cb;
      }

      .cls-2 {
        fill: #66676c;
      }
    </style>
  </defs>
  <g id="Layer_1-2" data-name="Layer 1">
    <path class="cls-1" d="M1880.57,656.43c-15.77-60.25-65.53-217.04-215.46-342.26-166.16-138.77-348.62-149.63-412.75-152.51-66.11-2.97-211.89-7.59-360.88,79.8-139.1,81.59-207.64,200.35-234.53,246.94-41.63,72.14-65.62,144.46-74.48,171.57-18.74,57.36-29.48,107.91-35.95,146.93-.24,1.43-1.47,2.48-2.93,2.48h-1c-1.59,0-2.9-1.24-2.97-2.83-1.66-36.57-1.36-85.02,6.04-141.26,3.51-26.67,16.25-113.02,61.18-219.01,27.22-64.22,70.4-166.08,163.81-258.02C962.36-.42,1216.48-.53,1256.12.06c125.58,1.87,223.4,38.53,277.97,63.84,58,26.9,169.15,88.31,258.69,208.15,151.34,202.56,134.47,429.58,128.13,489.45-1.84-51.84-17.66-366.77-250.49-547.97-116.66-90.79-260.86-127.04-295.71-135.22-89.12-20.91-166.33-23.21-221.01-21.06,80.83-3.07,218.95,3.57,366.86,74.26,53.25,25.45,151.02,73.49,236.3,178.67,73.91,91.16,101.92,180.19,117.49,231.42,35.73,117.56,35.87,220.71,30.15,288.61-21.31-35.23-264.98-425.65-626.88-409.65-50.74,2.24-115.16,12.98-187.98,45.22,10.97-27.06,25.27-46.11,38.13-59.41,93.97-97.19,265.58-47.11,277.53-43.45-30.83-12.62-85.07-29.41-151.6-21.98-34.85,3.89-102.08,11.39-146.77,64.1-11.77,13.88-19.05,27.45-23.5,37.24-1.42-14.73-1.86-33.33.89-54.53,2.1-16.25,5.61-30.41,9.31-42.12,23.38-9.8,55.38-21.38,94.43-30.15,91-20.42,164.73-13.11,191.08-9.75,142.87,18.18,240.4,91.25,285.51,125.91,41.85,32.15,73.86,65.01,106.85,98.86,47.38,48.63,83.64,92.82,109.06,125.91Z"/>
    <path class="cls-1" d="M1488.37,456.95c1.65,19.45,2.2,48.4-4.59,82.43-7,35.02-14.64,73.25-46.42,103.1-26.71,25.09-57.78,32.32-75.94,36.55-25.92,6.04-45.73,5.03-78.47,3.1-38.74-2.28-65.5-8.23-93.54-13.74-24.31-4.78-93.19-18.02-162.85-27.34-57.41-7.68-87.82-9-119.55-7.24-32.77,1.82-52.64,3.06-75.37,12.41-50.22,20.67-76.42,67.57-88.22,94.43-.91-5.62-18.8-126.76,55.42-187.09,32.89-26.73,77.87-36.66,82.02-37.54,18.71-3.96,35.77-4.75,74.48-2.36,65.26,4.02,115.21,12.31,123.69,13.74,131.03,22.13,116.17,22.91,160.49,28.37,104.07,12.83,145.32,3.53,177.78-15.07,15.62-8.95,27-18.79,34.18-25.71-3.43,15.29-11.65,41.13-33.3,63.4-35.89,36.93-85.26,39.93-113.94,41.67-30.74,1.87-54.22-2.84-80.91-8.2-54.52-10.94-90.01-27.42-88.89-26.82,38.49,20.72,72.89,31.18,97.4,36.8,19.98,4.58,45.98,10.34,80.38,8.42,14.73-.82,34.69-2.09,58.96-11.08,12.01-4.45,34.91-13.21,56.75-34.58,20.76-20.32,29.78-41.5,35.91-56.3,11.76-28.41,14.94-54.89,15.19-74.92l9.36,3.58Z"/>
    <path class="cls-1" d="M1024.65,850.22c15.77,60.25,65.53,217.04,215.46,342.26,166.16,138.77,348.62,149.63,412.75,152.51,66.11,2.97,211.89,7.59,360.88-79.8,139.1-81.59,207.64-200.35,234.53-246.94,41.63-72.14,65.62-144.46,74.48-171.57,18.74-57.36,29.48-107.91,35.95-146.93.24-1.43,1.47-2.48,2.93-2.48h1c1.59,0,2.9,1.24,2.97,2.83,1.66,36.57,1.36,85.02-6.04,141.26-3.51,26.67-16.25,113.02-61.18,219.01-27.22,64.22-70.4,166.08-163.81,258.02-191.7,188.68-445.82,188.79-485.46,188.2-125.58-1.87-223.4-38.53-277.97-63.84-58-26.9-169.15-88.31-258.69-208.15-151.34-202.56-134.47-429.58-128.13-489.45,1.84,51.84,17.66,366.77,250.49,547.97,116.66,90.79,260.86,127.04,295.71,135.22,89.12,20.91,166.33,23.21,221.01,21.06-80.83,3.07-218.95-3.57-366.86-74.26-53.25-25.45-151.02-73.49-236.3-178.67-73.91-91.16-101.92-180.19-117.49-231.42-35.73-117.56-35.87-220.71-30.15-288.61,21.31,35.23,264.98,425.65,626.88,409.65,50.74-2.24,115.16-12.98,187.98-45.22-10.97,27.06-25.27,46.11-38.13,59.41-93.97,97.19-265.58,47.11-277.53,43.45,30.83,12.62,85.07,29.41,151.6,21.98,34.85-3.89,102.08-11.39,146.77-64.1,11.77-13.88,19.05-27.45,23.5-37.24,1.42,14.73,1.86,33.33-.89,54.53-2.1,16.25-5.61,30.41-9.31,42.12-23.38,9.8-55.38,21.38-94.43,30.15-91,20.42-164.73,13.11-191.08,9.75-142.87-18.18-240.4-91.25-285.51-125.91-41.85-32.15-73.86-65.01-106.85-98.86-47.38-48.63-83.64-92.82-109.06-125.91Z"/>
    <path class="cls-1" d="M1416.85,1049.69c-1.65-19.45-2.2-48.4,4.59-82.43,7-35.02,14.64-73.25,46.42-103.1,26.71-25.09,57.78-32.32,75.94-36.55,25.92-6.04,45.73-5.03,78.47-3.1,38.74,2.28,65.5,8.23,93.54,13.74,24.31,4.78,93.19,18.02,162.85,27.34,57.41,7.68,87.82,9,119.55,7.24,32.77-1.82,52.64-3.06,75.37-12.41,50.22-20.67,76.42-67.57,88.22-94.43.91,5.62,18.8,126.76-55.42,187.09-32.89,26.73-77.87,36.66-82.02,37.54-18.71,3.96-35.77,4.75-74.48,2.36-65.26-4.02-115.21-12.31-123.69-13.74-131.03-22.13-116.17-22.91-160.49-28.37-104.07-12.83-145.32-3.53-177.78,15.07-15.62,8.95-27,18.79-34.18,25.71,3.43-15.29,11.65-41.13,33.3-63.4,35.89-36.93,85.26-39.93,113.94-41.67,30.74-1.87,54.22,2.84,80.91,8.2,54.52,10.94,90.01,27.42,88.89,26.82-38.49-20.72-72.89-31.18-97.4-36.8-19.98-4.58-45.98-10.34-80.38-8.42-14.73.82-34.69,2.09-58.96,11.08-12.01,4.45-34.91,13.21-56.75,34.58-20.76,20.32-29.78,41.5-35.91,56.3-11.76,28.41-14.94,54.89-15.19,74.92l-9.36-3.58Z"/>
    <g>
      <path class="cls-2" d="M1331.26,2681.82c-8.19-1.37-15.17-1.52-21.68,2.78-5.84,2.46-8.89,8.55-10.05,16.18-8.91,1.03-17.32,1.3-26.38-.19-1.07-15.63,8.23-29.76,18.29-38.19,14.42-10.02,29.67-10.74,46.35-6.93,29.59,6.81,48.68,35.8,49.75,67.22l47.13-.06.46-60.16,24.17-.42,3.49,13.52c18.13-18.11,43.56-25.57,66.45-15.86,25.26,10.37,37.23,35.58,28.42,61.63,13.19,2.64,25.05,1.26,37.22.09,8.26,2.89,14.76.58,20.72-7.12l-.09-97.67,28.14.19.24,102.17c-2,15.74-12.02,28.97-27.65,31.93l-472.1,1.25c-12.11-2.34-20.22-10.07-27.24-21-15.06,9-29.12,11.27-44.65,3.18-19.37-8.56-28.55-31.07-26.66-52.33,3.03-20.66,17.12-37.72,38.64-42.77l51.94.69.84,58.69c-.78,6.87,1.3,14.97,5.67,19.45,5.24,4.15,12.78,6.76,19.97,4.87l196.18-.41c-.47-18.15-9.7-36.54-27.57-40.72ZM1108.09,2669.16l-18.11.47c-11.49,1.3-16.67,12.65-16.65,22.95,4.27,9.6,12.38,18.86,23.29,15.14,15.33-5.79,17.93-24.62,11.46-38.57ZM1511.35,2722.5c10.19-2.82,18.14-7.35,19.66-16.27,1.2-9-5.47-17.66-14.45-19.85-5.56-3.29-12.29-4.98-18.18-1.57-18.11,4.94-32.3,18.36-37.58,37.89l50.55-.2Z"/>
      <path class="cls-2" d="M934.08,2618.71l-.11,99.62c-2.16,16.75-9.82,30.02-26.3,34.42l-44.99.21c-8.36.31-16.2-2.49-21.85-9.57-7.09,9.14-16.14,14.84-26.87,14.56-10.45-.27-19.2-6.58-27.08-14.96-8.76,8.58-18.92,14.98-29.99,15.28-11.43-.94-21.8-6.63-28.72-16.93-7.01,5.66-12.37,8.83-19.97,11.98l-146.19.44c-8.09-.65-13.76-5.8-21.02-10.7-6.47,4.54-11.96,9.11-19.54,10.72l-59.58.34c-.07,20.43-14.25,32.76-33.31,34.22l-31.89.39c-3.33-1.61-4.41-4.95-3.86-8.23.91-3.82,4.39-5.06,8.83-4.31,13.77,1.98,29.65-6.56,32.51-21.75-15.34.33-27.4-.63-38.05-10.17-8.94-8.48-14.42-21.83-13.41-35.35-.2-18.85,13.31-35.82,31.31-40.26l48.6.46.26,55.62,44.31.26c9.25-2.36,13.46-6.5,13.58-15.61l-.11-89.85c10.2-.63,18.28-.84,28.67.24l.67,91.56c2.38,8.18,8.93,11.31,17.47,13.38l119.35-.51c4.98,1.64,9.3.17,13.98-1.84,3.64-2.27,5.41-7.18,6.26-12.41l-.06-43.12c9.14-.8,17.59-1.11,26.62.35,0,20.95-2.2,40.02,3.14,58.82,3.38,5.99,7.77,9.81,13.83,8.53,6.27-.33,9.46-5.68,10.86-12.19l.42-55.94,28.13.03.45,52.47c1.21,7.16,6.38,13.99,13.04,16.95,9.9-1.63,14.92-10.63,13.92-20.16v-55.65s28.5-.13,28.5-.13l.64,43.86c-.99,11.69,7.52,19.55,18.95,19.78,5.9,1.76,12.34-.3,18.74,0,7.94,2.05,16.32,0,21.84-6.63l-.12-98.42c10.06-.63,18.76-.81,28.12.18ZM436.05,2722.63c-1.42-8.43-.86-15.72-.2-23.22-4.47-6.07-11.83-3.29-18.73-2.03-4.71,1.94-7.31,8.04-8.27,14.93,3.95,9.86,19.2,17.61,27.2,10.33Z"/>
      <path class="cls-2" d="M2234.6,2749.18l-324,.96c-7.41-2-12.59-6.01-19.5-10.8-12.95,11.66-30.86,17.82-47.32,10.52-15.28-4.48-25.92-20.27-28.72-37.16l-25.19,1.1c-4.69,1.99-8.29,6.18-8.94,11.39l-.14,59.49c-10.12.42-16.96.65-26.62-.48l-.25-64.56c.5-11.43,3.35-21.79,12.18-28.18,7.17-8.73,19.63-8.38,30.72-8.99,11.44,2.03,20.18-.98,24.58-11.58,12.98-20.79,38.71-26.96,60.14-14.88,16.18,10.45,24.79,29.24,23.53,48.56,1.51,5.81,2.88,11.61,6.63,14.14,6.04,2.76,10.85,3.89,17.32,2.16l215.7-.48c.28-15.51-.92-29.64,5.03-42.46,5.35-13.07,15.26-22.84,29.3-25.04,13.22-4.25,28.13-1.2,38.67,7.68,9.63,9.15,15.7,22.1,12.58,36.58-8.25,1.35-17.25,1.37-24.97.12-2.15-6.08-4.24-10.95-7.69-13.41-5.4-3.7-11.25-3.38-16.51-.23-8.36,10.28-9.66,24.21-6.9,37.37l60.29-.09c1.1,9.34,1.1,17.16.12,28.27ZM1874.85,2706.47c1.65-11.19.08-22.79-8.22-30.04h-15.58c-8.13,7.5-9.03,17.96-7.91,28.67-1.3,6.95,1.16,13.61,6.36,17.95,4.68,3.94,12.95,3.77,18.27.5,4.98-4.08,8.02-9.53,7.09-17.08Z"/>
      <path class="cls-2" d="M2400.55,2783.39c-4.83.71-7.08-2.65-7.22-6.42.07-3.72,3.39-5.36,7.69-5.83,15.67,2.07,30.9-7.65,34.78-22.93l.02-86.18,28.31-.56c2.54,12.95-.87,25.71,1.1,38.74-.29,10.75,6.43,17.15,17.37,19.37l113.78-.25c10.22-1.73,17.9-5.39,19.49-15.05,2.39-8.82-3.7-16.63-12.4-21.18l-92.72.09c-1.02-15.85,3.21-30.36,10.64-43.82,9.33-14.48,25.01-22.91,42.15-25.66h36.66s.52,29.37.52,29.37l-37.15.86c-5.1,1.66-11.79,1.04-12.32,8.62l57.18.47c19.01,4.37,35.21,19.45,35.55,39.04,5.13,26.26-9.89,51.22-36.1,56.22l-133.36.33c-3.06-2.02-6.06-2.38-9.75-1.87-.11,20.64-14.41,34.84-34.63,36.25l-29.58.41Z"/>
      <path class="cls-2" d="M2657.94,2782.73c-2.63-2.16-3.55-4.33-3.72-7.36.49-2.39,2.18-4.36,5.13-5.76,17.6,4.39,32.36-6.63,37.3-24.47l.1-84.15,27.65-.31.53,41.81c1.27,11.33,8.67,15.11,19.43,16.42l50.69-.39c5.97,2.05,11.92.25,17.02-2.61,4.07-4.18,5.28-10.91,4.94-17.14-2.22-27.16,15.75-50.13,42.63-51.23,26.11-2.37,46.94,20.1,47.18,46.55,1.02,11.27-1.07,23.48-6.88,32.74-7.89,12.18-17.23,20.23-30.57,22.15-12.91,3.42-27.51-1.53-38.22-10.68-6.59,7.09-15.27,10.06-25.16,9.47l-71.46.13-10.57-4.14c1.41,22.56-12.49,36.94-33.74,38.56l-32.27.42ZM2877.54,2707.89c.96-8.59,1.42-17.02-1.37-24.29-3.43-8.18-9.06-11.31-17.61-9.86-6.98.36-11.39,7.52-12.19,15.16-2.71,12.45-.45,26.52,10.29,33.8,5.26,3.41,9.52.12,14.42-2.07,3.5-2.81,5.45-7.27,6.47-12.74Z"/>
      <path class="cls-2" d="M416.83,2989.21l-26.3.05c-1.86-22.03-1.06-43.04-.68-64.68-.47-4.51-.5-8.69-2.56-12.03-2.25-3.87-6.08-4.44-11.24-3.63-6.78,4.33-11.23,11.36-14.66,19.22l-.62,60.91c-9.66,1.03-17.42.94-27.32.32l-.36-102.58c8.2-3.25,17.17-2.82,25.57-.55l1.05,11.53c6.51-9.76,16.42-14.59,27.73-13.96,11.83-1.37,19.24,5.46,26.82,15.81,7.85-9.45,15.16-16.36,26.12-15.64,16.41-3.29,30.28,7.58,32.26,24.1l.06,80.91-25.99.11-.29-68.39c.59-5.25-2.71-10.4-6.95-11.71-5.02-1.51-9.89.49-13.49,4.49-6.49,7.47-8.73,17.38-9.24,27.37l.08,48.35Z"/>
      <path class="cls-2" d="M608.24,2979.44c-13.23,8.88-29.67,11.83-45.69,9.79-9.68.66-19.03,2.2-29.02-1.69l-.5-137.09,31.74-1.67c13.63-2.36,29.21.27,41.7,5.09,9.92,7.96,15.26,18.39,14.38,30.16.64,12.21-5.39,22.15-16.19,30.44,7,4.19,13.6,6.41,16.25,12.86,7.45,18.98,4.22,39.39-12.67,52.11ZM589.06,2898.13c5.04-6.05,3.55-13.64.06-19.67-4.24-4.5-10.98-7.56-17.9-6.3-4.39-.94-9.22-.48-10.88,4,1.5,9.3.88,18.27.07,28.64,9.45,3.41,21.35.6,28.65-6.68ZM575.8,2963.87c11.26,2.23,20.45-8.65,19.68-19.34-.91-10.99-11.97-16.85-23.42-15.13-4.59-1.19-9.62-2.43-11.66,3.05,1.48,9.13,1.18,18.73.16,28.05,2.69,6.11,9.42,5.17,15.25,3.37Z"/>
      <path class="cls-2" d="M113.92,2950.37c-8.05,20.95-24.54,33.43-45.92,38.57-17.58,4.62-36.45,2.64-56.05,1.22l-.43-138.62,26.54-.54c8.16-2.62,16.45-2.92,24.75,0,26.77-2.3,50,17.66,54.08,44,4.76,18.29,3.9,37.47-2.98,55.37ZM89.37,2919.21c2.38-15.93-3.78-30.55-16.15-39.51-11.02-5.12-22.49-6.65-35.32-4.91l.31,89.52c13.73,2.56,28.74.77,38.66-8.21,9.36-9.24,14.98-22.5,12.51-36.89Z"/>
      <path class="cls-2" d="M1554.39,2986.1l-27.48.17-.84-58.99-50.18-.12-.26,59.46-27.6-.19-.37-138.74,27.59-.37.64,53.4,49.53.11c1.91-17.63.98-34.33.31-52.56,9.21-1.9,19.24-2.01,28.71-.02l-.05,137.86Z"/>
      <path class="cls-2" d="M1948.64,2985.23l-.36-69.8-5.34-9.09c-3.76-2.74-7.73-2.3-11.7-.61-10.22,6.86-14.76,18.42-13.75,30.81l-.88,48.58c-9.38.72-16.49.94-25.78-.3l-.71-148.51c8.12-3.08,18.81-3.52,26.51.23,1.98,18.23-.93,35.1,1.15,53.86,7.77-6.79,13.93-10.46,22.82-10.45,7.76-1.17,16.39-.43,22.86,4.62,6.25,4.21,8.76,11.53,10.97,20.14l.11,79.92c-9.47,1.14-15.93,1-25.88.61Z"/>
      <path class="cls-2" d="M800.52,2988.38l-.33-71.09-5.46-8.88c-4.24-1.54-8.82-1.35-11.65,1.12-7.18,5.59-10.33,12-12.5,20.97l-.57,57.38-25.62.58-.47-149.69c8.77-2.41,17.03-2.14,25.99.12l.47,53.94c11.43-9.47,22.78-11.94,36.64-9.47,11.93,2.56,18.92,12.56,20.21,25.18l-.02,79.7-26.7.15Z"/>
      <path class="cls-2" d="M2414.55,2954.32c13.96,6.93,28.78,3.98,43.59-1.44,4.63,8.36,4.05,18.24,2.5,27.41-15.78,5.22-32.08,7.38-47.84,3.97-19.59-4.4-33.95-16.82-40.31-35.82-7.77-25.3-5.38-52.51,5.75-76.17,9.59-13.53,21.56-24.83,37.66-27.46,15.6-2.97,30.59-3.29,45.24,2.59.38,9.02-1.01,17.44-3.51,26.15-14.2-2.51-26.33-6.83-39.52-1.4-14.34,7.9-21.49,24.94-19.68,41.31-1.05,15.53,3.52,31.07,16.13,40.86Z"/>
      <path class="cls-2" d="M1179.17,2935c1.59,21.04-8.92,39.7-25.72,49.32-18.4,8.72-41.24,7.8-56.17-6.87-17.3-23.93-16.48-58.23,2.22-81.03,17.32-18.82,47.32-19.78,66.82-4.24,10.31,12.07,14.29,26.57,12.84,42.83ZM1139.34,2962.76c13.48-9.5,16.73-26.82,10.62-41.83-1.37-6.54-7.13-11.52-11.79-13.81-7.83-1.67-13.28.87-18.92,6.28-6.42,8.96-7.18,20.77-4.66,31.97.33,6.16,2.1,12.69,7.49,14.88,4.57,4.3,10.61,4.81,17.27,2.5Z"/>
      <path class="cls-2" d="M1676.08,2982.88c-15.94-14.09-14.09-41.41,3.37-52.85,11.82-6.05,23.59-9.42,36.33-8.74,3.33-3.54,3.98-6.63,2.04-10.47-1.1-2.8-3.36-5.48-6.73-6.89-12.09-2.42-22.23.98-34.42,5.64-5.52-5.85-7.22-16.23-4.37-23,14.91-7.73,31.14-6.97,47.12-5.87,15.22,1.26,24.01,12.48,26.27,27.82l1.57,76.8-24.95.69-1.94-10.02c-11.38,12.92-29.06,16.62-44.29,6.88ZM1717.09,2950.51l2-5.19-3.45-3.98c-7.66.77-13.97,2.32-20.77,5.36-2.51,3.41-3.53,6.24-3.05,10.29,1.26,2.83,3.19,5.94,5.87,7.97,10.06.42,16.78-5.02,19.39-14.45Z"/>
      <path class="cls-2" d="M2607.4,2926.62l-.4,56.93-26.82-.41-.27-103.14c8.56-1.92,17.69-2.08,25.28.17.06,3.56.39,5.48,1.87,8.09,1.8-.35,3.87-1.73,5.58-3.94,10.82-8.06,26.7-8.66,39.09-3.2,7.74,6.07,10.96,14.56,12.63,24.2l.16,77.87-27.01.09-.42-73.22c-3.49-3.84-5.7-6.67-8.36-7.61-5.09-.05-8.45,1.27-11.3,4.69-5.67,5.18-9.1,11.24-10.04,19.48Z"/>
      <path class="cls-2" d="M135.66,2979.24c-5.55-11.04-4.92-24.64.46-35.86,11.4-12.91,28.33-18.48,45.03-18.09,3.66-3.27,5.59-5.97,3.1-9.4-1.14-3.41-2.92-6.63-6.52-7.84-12.13-2.34-22.39.63-34.54,5.54-5.36-5.53-7.82-16.54-4.39-22.97,15.26-7.82,31.87-6.86,48.17-5.77,14.75,1.98,23.19,12.92,25.01,27.89l1.72,77.01-25.07.45-1.73-11.42c-6.38,9.09-14.76,13.19-24.85,13.42-10.73,1.04-19.78-3.17-26.37-12.96ZM177.93,2963.82c4.97-4.61,9.94-10.94,5.32-16.97-4.84-2.03-10.6-.28-15.58,1.41-5.32.94-8.95,4.69-10.33,9.33.66,4.84,2.75,10.26,7.76,11.2,4.45,2.83,9.51-.45,12.83-4.97Z"/>
      <path class="cls-2" d="M847.27,2975.77c-5.55-14.05-3.61-29.42,6.49-39.4,12.22-9.79,25.92-13.26,40.96-13.06,3.74-3.28,4.28-6.59,1.63-9.91-.99-3.53-2.85-6.95-7.03-7.18-11.78-2.57-21.73.96-33.69,5.46-4.88-5.55-7.01-15.87-4.92-22.46,12.81-7.54,26.9-6.97,40.82-6.83,17.62-.7,31.09,9.84,33.25,27.81l1.41,77.65-24.12.44c.08-4.97.33-8.27-3.73-11.69-5.18,10.63-15,13.47-25.64,13.89-10.26.48-19.56-5.09-25.43-14.71ZM898.15,2948.97c-2.98-7.27-9.95-5.28-15.55-3.19-6.56.57-11.07,5.09-11.7,10.95-1.32,6.54,4.33,10.74,11.03,11.4,7.75-3.58,14.34-10.48,16.22-19.17Z"/>
      <path class="cls-2" d="M2074.88,2970.84c-8.12-18.85,1.34-41.06,21.04-45.7,8.92-4.56,18.17-5.26,28.02-4.88,3.81-4.39,1.68-7.79-.08-11.8-2.15-3.26-5.75-4.53-10.35-6.84l-18.4,1.4c-4.19,5.03-11.11,6.25-15.4,1.75-.13-6.19-.96-11.5-3.05-18.68,17.97-8.72,39.87-9.01,59.05-4.14,10.43,4.69,15.2,13.78,17.12,24.98l.2,77.58h-24.72s-1.02-6.6-1.02-6.6l-5.71,1.12c-6.95,7.68-15.77,8.88-26.5,8.01-7.69-1.4-16.12-7.02-20.2-16.2ZM2114.83,2962.06c7.02-4.4,12.4-13.01,10.29-22.1l-20.62,3.42c-4.91,5.67-8.91,10.31-4.67,15.11,2.92,5.73,9,6.83,15.01,3.56Z"/>
      <path class="cls-2" d="M234.8,2979.68c-5.83-12.43-5.64-26.56,1.34-38.01,10.83-12.38,28.01-16.99,44.19-16.54,3.68-2.68,4.38-5.77,3.17-9.93-1.16-2.54-3.43-5.3-6.43-7.45-12.23-2.31-22.98.65-35.15,5.65-6.64-5.5-6.68-16.48-3.94-23.42,15.23-7.41,31.35-6.55,47.61-5.32,16.58,2.16,26.82,16.83,24.46,33.42-.24,24.01.15,46.41,2.49,71.02-8.71.99-17.08.91-25.04.72l-3.55-8.44c-14.25,14.73-37.17,14.99-49.14-1.7ZM283.34,2946.47c-6.81-1.96-11.92-1-16.64,2.03-4.91.51-8.34,3.12-9.73,7.07-.6,4.5,1.31,8.69,3.87,12,3.93,2.02,7.7.79,12.63-.72,5.83-4.4,10.84-12.39,9.86-20.38Z"/>
      <path class="cls-2" d="M1258.95,2974.16c-1.86-10.79-3.1-22.8,1.47-33,10.47-14.43,29.23-18.98,46.17-18.93,3.76-3.21,5.17-5.74,3.08-9.21-1.54-3.08-3.59-5.73-6.71-8.2-10.8-1.05-21.11-.45-31.08,4.85l-7.09-1.02-2.11-7.53-.27-11.76,9.36-5.91c11.85-2.03,23.91-2.84,36.02-1.9,9.13.9,17.26,3.84,21.94,10.53,6.58,7,6.66,16.04,6.22,25.23.19,23.32-.76,45.2,2.51,69.1-9.01,1.04-17.41.94-25.62.51-.26-4.09-1.04-6.55-3.95-7.91-7.09,8.55-16.43,10.6-27.08,10.41-9-.41-16.92-5.91-22.87-15.24ZM1308.22,2952.27c1.82-3.01,2.06-6.28.17-8.76-2.88-.73-6.2-.64-9.06.12-6.53-.41-12.05,1.43-15.05,7.37-3.51,4.29-.69,11.08,3.95,14.71,9.62,1.62,16.86-4.57,19.99-13.43Z"/>
      <path class="cls-2" d="M1616.82,2965.83l28.24-6.49c5.37,6.25,5.65,16.11,2.98,22.08-23.18,9.27-47.79,11.1-66.94-4.06-14.57-15.73-16.35-38.22-12.62-58.93,3.34-15.94,12.98-28.96,26.52-34.74,16.54-6.09,34.21-4.38,46.75,6.69,11.39,14.53,13.92,32.6,9.62,50.41l-56.04.1c-1.99,13.71,7.79,21.79,21.5,24.94ZM1625.84,2918.89c.38-10.22-6.81-17.16-16.25-16.28-7.38.34-14.91,8.94-13.95,17.05,10.45,1.49,20.23,2.26,30.2-.77Z"/>
      <path class="cls-2" d="M2298.75,2961.18c6.43-1.35,12.77-5.94,16.67.09.03,5.88.4,11.53,1.8,18.09-15.99,6.14-34.01,9.7-50.58,5.74-11.71-3.03-20.83-9.05-25.76-19.93-6.8-14.88-8.72-32.1-4.91-48.15,2.45-16,13.7-29.52,26.51-35.78,17.1-4.73,34.86-4.05,46.81,8.1,10.91,14.14,13.89,32.14,8.92,49.62l-47.62.29c-2.7-.63-4.62-.48-6.6.28-1.09,2.78-1.52,4.76-2.06,8.35,5.88,14.05,21.89,19.62,36.83,13.29ZM2292.78,2918.96c1.68-7.1-2.23-13.66-6.89-17.62-6.31-1.07-11.85-.86-16.99,3.29-2.83,3.54-8.44,7.82-5.35,14.25l29.23.08Z"/>
      <path class="cls-2" d="M2556.15,2956.82c2.57,7.67,3.3,14.5,2.77,21.77-19.41,8.66-41.07,10.22-59.89,2.56-16.29-11.31-23.78-27.84-21.11-47.17-3.6-23.83,10.39-49.36,33.22-55.18,12.68-1.36,24.26-1.92,34.7,5.06,7.75,6.22,15.96,15.44,14.86,27.57,3,9.13,3.08,17.74-1.2,27.08h-55.56c-.65,14.46,10.65,22.19,23.82,24.97l28.39-6.67ZM2534.36,2917.71c4.07-10.78-5-18.16-14.23-17.62-8.03,1.19-16.51,8.91-14.31,17.98l28.53-.37Z"/>
      <path class="cls-2" d="M2825.82,2956.32c5.84,6.09,4.66,14.73,4.89,21.72-20.61,8.26-42.93,10.76-61.6,1.32-15.8-10.6-21.83-26.63-19.09-45.2-4.44-23.94,9.93-50.93,32.89-55.92,24.91-5.2,45.91,5.85,50.14,30.29.83,9.93,2.02,19.34-1.11,29.24l-54.86.04c-2.8,6.48,1.03,12.84,4.3,17.22,3.91,5.92,10.91,4,17.91,7.48,8.11-.07,16.78-4.22,26.52-6.18ZM2806.54,2917.34c.76-8.3-2.04-14.43-8.29-17.43-11.13-2.62-21.44,4.67-22.71,17.15l31,.28Z"/>
      <path class="cls-2" d="M681.08,2964.82c11.83,2.44,21.93-1.81,33.82-5.22,4.12,7.77,6.12,21.1-.64,24.38-23.01,6.55-43.95,8.77-63.38-4.51-17.26-19.94-19.27-48.89-8.64-73.21,5.51-12.86,16.28-21.09,28.31-23.95,14.27-3.48,29.41-.45,39.65,8.77,12.09,13.68,14.28,32.08,10.2,49.3l-55.55.44c-3.84,10.88,4.49,22.8,16.22,23.98ZM694.79,2920.91c1.12-11.11-5.58-18.15-15.44-16.92-7.81-.16-15.39,6.97-14.44,16.53l29.88.39Z"/>
      <path class="cls-2" d="M1030.41,2884.52l-32.32,103.38-31.1.28-32.98-103.71c10.9-2.19,19.46-2.1,28.63.07l20.23,66.09,19.13-65.82c8.39-2.72,17.49-2.94,28.4-.29Z"/>
      <path class="cls-2" d="M2739.04,2981.82c-13.17,5.39-27.72,5.19-40.51-.39-6.42-7.35-9.55-16.42-9.01-26.29l-.18-52.06-15.63-.47c-1.42-7.81-1.51-15.13-.26-22.81l15.62-2.21.25-29.26,26.6-7.07.95,36.71,19.32.67c5.13,6.35,3.4,16.5,1.51,23.98l-21.2.99.37,50.46c4.48,8.07,10.58,6.35,19.31,4.25,4.01,6.59,3.64,14.98,2.85,23.51Z"/>
      <path class="cls-2" d="M1872.99,2984.81c-10.77,3.14-21,3.9-31.08,2.28-10.64-2.51-16.11-9.77-18.46-20.51l-.46-60.94-15.37-1.1v-22.12c5.81-3.58,9.03,1.01,15.15-2.47l.41-28.77,25.85-7.37.89,37.94c9.18-1.09,14.92-2.21,22.71.67l-.15,22.25-22.92.63-.2,41.29c-.21,5.22,1.17,10.53,5.21,13.46,3.48,4.38,9.31.92,16.23,1.07,2.41,7.22,2.76,15.46,2.18,23.7Z"/>
      <path class="cls-2" d="M2257.14,2720.25l48.2-.29.19-35.57c-1.39-4.89-4.56-8.95-9.61-8.34-4.5-.26-7.48,3.61-8.96,9.26-7.76,2.96-18.08,2.09-26.8.91-1.75-20.5,16.4-33.09,35.19-32.96,20.28-1.5,36.68,9.75,39.2,30.27l.26,65.14-77.29.47c-1.76-9.73-1.62-18.44-.37-28.89Z"/>
      <path class="cls-2" d="M2055.65,2958.23c5.89,5.48,6.77,15.81,5.49,23.38-16.57,7.59-35.18,7.55-50.56.36-15.57-11.36-21.32-28.02-19.71-46.62-1.18-20.53,6.47-40.78,24.76-50.75,13.83-6.64,30.05-6.63,45.34-1.83.27,8.72-1.75,17.22-4.78,25.71-13.11-5.4-24.25-6.58-32.61,4.21-6.21,13.06-6.11,29.84.45,42.77,9.22,7.66,19.5,6.09,31.61,2.77Z"/>
      <path class="cls-2" d="M1797.2,2984.84c-9.71,1.73-17.19,1.58-26.62.28l-.76-148.16c8.18-3.81,17.96-3.13,26.98-1l.39,148.88Z"/>
      <path class="cls-2" d="M1388.39,2985.9c-8.7,1.87-16.81,1.31-26.18.69l-.4-149.51c8.72-2.21,17.32-2.21,26.13-.07l.44,148.89Z"/>
      <polygon class="cls-2" points="1696.88 2750.05 1668.44 2750.3 1668.19 2616.57 1696.39 2616.78 1696.88 2750.05"/>
      <path class="cls-2" d="M986.72,2751.96c-9.84,1-18,1.11-28.06-.16l-.24-133.35,27.9-.14.4,133.65Z"/>
      <path class="cls-2" d="M2878.94,2982.06c-9.28,1.46-16.63,1.01-27.23.98l-.61-103.27c8.73-2.52,18.28-3.06,25.87.16-.51,3.86-.37,7.71,1.05,9.58,7.14-9.6,16.24-16.17,27.43-10.73.61,8.46-.28,17.14-1.74,26.25-11.26-1.29-18.23,2.67-22.66,12.54-3.44,20.78-2.63,41.37-2.1,64.5Z"/>
      <path class="cls-2" d="M2202.26,2984.1l-26.87.58-.38-103.13c8-2.48,15.87-2.09,23.16-1.28,1.6,4,2.64,6.64,4.67,9.8,5.98-10.23,16.62-13.98,26.77-9.13l-1.77,25.94c-12.86-1.62-20.61,4.07-23.2,15.76-4.08,19.91-1.49,39.92-2.39,61.47Z"/>
      <path class="cls-2" d="M1220.74,2986.91c-9.2.82-16.32.96-25.83-.22l-.46-102.47c5.24-2.46,10.14-1.82,15.5-1.95l8.18.49,3.95,8.9c7.69-7.82,16.75-13.34,26.77-8.69-1.41,7.78-1.9,15.11-1.66,22.71-1.49,4.79-7.32,4.3-11.47,3.7-10.91,4.12-10.9,14.26-14.29,24.53l-.69,52.99Z"/>
      <path class="cls-2" d="M1068.9,2987.64l-25.99-.14-.31-102.87c7.98-2.97,17.27-2.53,26.12-.48l.19,103.49Z"/>
      <path class="cls-2" d="M166.46,2803.27c-8.06-4.48-10-12.47-18.29-15.75-7.1,5.11-10.97,13.19-19.86,15.25l-15.43-16.04-1.17-7.4,5.43-4.23,10.93-11.6c8.98,2.21,12.66,9.09,19.49,14.93,6.74-2.1,11.11-8.74,16.22-14.99,9.81,2.27,18.1,11.71,23.9,21.03-7.06,6.73-13.16,12.45-21.22,18.8Z"/>
      <path class="cls-2" d="M1113.95,2629.11c-6.34,3.25-10.46-.7-13.4-6.18-3.2-2.92-5.8-5.34-9.15-7.34l-9.02,7.36c-3.14,5.34-7.07,9.35-13.41,6.44-4.02-5.08-8.15-9.55-13.46-14.19-.71-2.22-.92-5.21-.83-8.37l6.65-4.94c2.96-3.76,6.55-8.01,10.2-8.1,5.7-.65,9.2,2.57,12.44,6.96l7.37,5.68c3.04-1.63,5.36-3.68,7.85-6.28,2.65-3.31,5.67-6.37,8.82-6.55,4.76-.1,7.76,1.45,10.7,4.85,3.85,5.04,10.32,8.89,9.89,16.02-5.42,4.34-10.78,9.38-14.67,14.63Z"/>
      <path class="cls-2" d="M1050.22,2837.95c9.69-2.66,19.61,2.61,21.1,11.72,1.87,9.43-.98,18.43-11.35,21.21-7.6,2.78-18.37-2.32-20.19-11.27-2.41-8.57.9-18.05,10.44-21.66Z"/>
      <path class="cls-2" d="M2465.92,2638.97l-15.75,14.31c-9.14-4.73-16.29-12.57-20.26-21.07,6.76-4.94,11.75-10.22,16.35-16.11,8.07-2.37,12.42,5.21,17.34,10.8l4.93,4.29c.31,3.4,1.36,7.4-2.61,7.78Z"/>
      <g>
        <path class="cls-2" d="M36.71,2642.34c18.04-.39,35.55-.53,54.23.04,3.73,25.51.02,49.24,1.99,73.88,5.28,9.33,16.51,11.69,26.57,9.12,11.13,1.39,24.37,1.92,31.51-7.09l2.14-50.2c9.3-.99,17.88-.9,27.84-.39l.57,43.89c3.66,9.14,8.97,12.96,18.49,14.06l113.77-.28c9.6-2.33,15.92-6.63,17.55-15.02,2.11-9.31-2.46-16.28-11.38-21.16l-92.75.07c-2.62-16.78,3.67-32.28,12.23-46.2,8.82-13.04,22.37-19.34,37.85-23.21l38.95.21c.71,10.9.74,18.54.03,29.17l-36.22.69c-5.04,1.38-11.54,1.96-12.14,8.04,20.19,2.88,39.39-.12,58.34,1.7,23.18,5.46,35.14,25.42,35.52,47.9-.67,22.45-14.48,41.29-37.5,46.81l-122.81.33c-11.32,1.25-20.22-2.81-28.39-11.01-6.86,4.76-12.23,8.93-19.11,11.13l-55.07.2c-11.71-3.34-21.91-9.97-28.15-20.91-15.68,11.56-34.57,10.24-49.62-.02-15.02-8.72-22.46-26.57-20.82-44.77-.61-22.1,14.41-40.65,36.39-46.96ZM64.29,2695.05l.21-22c-8.49-1.09-15.91-1.01-23.71-.11-6.67,4.55-12.26,10.72-12.56,17.8-.41,8.06,4,14.42,10.79,19.37,10.9,4.07,21.57-2.88,25.26-15.06Z"/>
        <path class="cls-2" d="M66.8,2632.55l-6.72-.19c-5.25-5.41-8.7-8.96-14.87-14.6l-15.67,15.45c-7.32.68-10.59-5.89-15.09-10.68-3.21-2.03-6.26-5.25-6.45-8.63-1.7-5.15,3.89-5.46,7.09-8.8,2.79-3.84,6.48-7.77,9.92-8.47,5.97-1.1,8.96,2.46,12.4,6.9,2.51,2.19,4.85,4.09,7.39,5.7,3.33-1.12,5.58-3.14,8.42-5.9,2.1-3.55,4.93-6.67,8.31-6.7,5.12-1.01,8.08,1.28,10.94,5.23,4.46,4.01,9.27,7.97,10.64,14.52-5.85,5.44-10.84,10.34-16.32,16.16Z"/>
      </g>
    </g>
    <g>
      <path class="cls-1" d="M286.55,1946.93c-60.28-55.07-134.54-54.03-151.72-53.35,0,0,117.34,49.04,123.81,164.02,0,0-17.72-146.39-178.15-161.53,0,0-81.08-2.13-80.49-2.14l1.17,437.97,167.87-.45c21.08-1.99,69.15-9.54,112.23-46.12,65.09-55.26,69.27-134.69,70.52-158.37,1.21-22.97,6.05-114.91-65.25-180.04ZM222.34,2215c-21.2,18.12-44.02,24.43-56.62,26.88l-75.79.2-.68-256.14c42.23-.33,52.76-.29,63.15-.17,8.91.87,57.21,6.44,88.84,48.23,23.52,31.07,24.21,64.17,24.3,78.15.06,9.97.42,65.56-43.2,102.85Z"/>
      <path class="cls-1" d="M439.15,1892.63l-23.55,90.09,108.69-.29s78.13-4.03,96.78,49.97c0,0,25.79,88.35-3.11,154.52s-82.37,63.67-82.37,63.67c0,0-68.41,10.46-73.83-37.11-5.41-47.57,6.87-66.99,39.18-68.55l104.57-.28-23.43-83.07-103.1,2.33s-90.16,7.58-101.7,86.05c-11.54,78.46,2.18,158.32,73.62,179.28,48.6,14.26,95.11,6.36,119.87-.14,14.64-3.85,28.28-10.82,39.84-20.59,9.35-7.9,19.64-18.81,26.09-32.35l.14,54.05,81.37-.22-.72-270.54s17.13-186.28-211.05-164.23c0,0,92.92,36.47,110.77,120.43,0,0-47.9-119.12-178.04-123.04Z"/>
      <path class="cls-1" d="M819.18,1891.61l-23.55,90.09,108.69-.29s78.13-4.03,96.78,49.97c0,0,25.79,88.35-3.11,154.52-28.9,66.17-82.37,63.67-82.37,63.67,0,0-68.41,10.46-73.83-37.11-5.41-47.57,6.87-66.99,39.18-68.55l104.57-.28-23.43-83.07-103.1,2.33s-90.16,7.58-101.7,86.05,2.18,158.32,73.62,179.28c48.6,14.26,95.11,6.36,119.87-.14,14.64-3.85,28.28-10.82,39.84-20.59,9.35-7.9,19.64-18.81,26.09-32.35l.14,54.05,81.37-.22-.72-270.54s17.13-186.28-211.05-164.23c0,0,92.92,36.47,110.77,120.43,0,0-47.9-119.12-178.04-123.04Z"/>
      <path class="cls-1" d="M1138.4,2328.88l-.88-328.26s6.42-72.55,53.5-97.21c0,0,70.47-12.39,122.71,81.32,0,0-15.83-70.96-96.75-94.18,0,0,99.94-30.75,141.13,47.57,0,0,20.64-26.49,29.87-34.23,0,0,59.3-5.23,100.07,80.37,0,0-5.73-63.58-82.76-89.52,0,0,84.79-37.09,141.96,29.44,0,0,24.16,26.15,28.21,59.85l.92,343.68-77.77.21-.81-305.35c-2.19-27.5-24.88-48.49-50.58-48.77-28.21-.31-52.84,24.38-51.85,54.78l.8,299.62-74.68.2-.81-303.14c-.71-28.83-23.77-51.2-49.27-51.64-28.32-.49-53.92,26.19-50.74,58.3l.79,296.76-83.06.22Z"/>
      <path class="cls-1" d="M1876.15,2550.45s-6.3-49.63-65.18-97.35c-58.88-47.72-77.3-125.81-77.3-125.81-6.21-23.02-12.7-54.32-14.79-91.83-1.97-35.46.77-62.2,2.65-79.76,3.45-32.23,8.01-72.11,27.22-119.04,1.37-3.33,13.83-33.57,27.18-53.17,51.86-76.15,177.07-79.98,204.89-80.3.56,27.99,4.44,69.51,20.8,116.71,8.13,23.45,20.89,59.27,50.93,97.24,14.9,18.84,51.54,63.96,116.56,87.81,45.15,16.57,84.16,15.6,106.08,14.84,18.34-.63,44.09-1.71,75.46-12.69,36.15-12.64,61.46-32.02,76.11-45.15-18.61,12.86-49.27,30.54-90.66,39.9-28.41,6.42-53.33,6.99-71.95,5.92-11.93-13.13-26.28-31.38-39.22-55.12-13-23.85-20.57-45.89-25.14-63.09-.95-16.09-1.56-38.67.12-65.8.6-9.68,1.26-19.92,3.14-32.61,2.44-16.4,7.36-39.79,18.33-67.32,4.73-11.79,15.75-33.4,38.66-44.75,15.4-7.63,30.25-7.69,46.39-7.76,20.48-.08,22.68,3.68,53.44,5.97,33.53,2.49,42.88-1.1,46.59-2.71,14.59-6.37,23.38-17.89,28.13-25.63,0,0-19.59,89.79-116.62,107.82,0,0,121.16-5.17,131.39-134.89,0,0,29.97,113.01-46.24,173.14,0,0-34.03,15.22-89.3-.35-55.27-15.57-83.5,27.39-83.5,27.39,0,0,41.42,84.34,111.55,109.93,70.13,25.59,113.96-11.54,113.96-11.54,0,0,58.56-30.72,75.66-143.79,3.64-14.36,8.79-24.12,12.37-23.66,3.46.44,5.89,10.49,6.23,23.61,0,0,11.73,266.19-190.75,344.58-202.48,78.38-306.55-63.22-341.63-112.18-35.09-48.96-51.58-176.7-51.58-176.7,0,0-2.17-14.42-12.72-4.48,0,0-99.36-.8-131.59,29.4,0,0,54.6,137.8,160.63,76.83,0,0,13.81,56.69,29.96,80.88,0,0-69.84,122.13-173.45,15.11,0,0-49.93-53.84-43.33-140,0,0,.18-16.52-6.19-7.25-6.36,9.27-53.59,61.17-48.89,90.9,4.71,29.73,19.65,97.77,59.4,133.35,39.75,35.58,73.74,60.17,88.42,112.34,14.68,52.17,11.84,144.71-2.85,172.07,0,0,20.95-157.58-99.31-228.2,0,0,100.45,77.35,89.94,187.17Z"/>
      <path class="cls-1" d="M1967.16,1814.67s-6.97,29.83-1.66,38.34c0,0,114.08-13.74,127.86,111.14l-.48,12.19s3.17,4.25,6.46-.02c0,0,10.68-69.79,52.63-91.64,41.95-21.85,72.43-46.61,82.65-70.72,10.22-24.11,27.46-58.82,24.17-79.38,0,0-23.31,71.74-67.91,90.95-44.6,19.21-74.15,61.88-85.79,105.1,0,0-15.63-134.2-137.93-115.96Z"/>
      <path class="cls-1" d="M2639.22,1857.82s-67.11,168.5,80.39,183.96c0,0,160.08-6.01,155.44,18.68-4.63,24.69-217.54,269.36-317.76,135.97,0,0-5.38,185.66,249.45,24.01,0,0-241.79,205.68-260.67-43.95,0,0-52.93,198.13,80.07,175.15,0,0,123.94-8.56,225.5-144.83,0,0,53.55-75.93,54.3-124.99l1.18-108.69s3.67-54.65-69.18-55.04l-119.55.91s-61.38,3.98-71.23-55.03c0,0-1.36-13.55-7.95-6.15Z"/>
    </g>
  </g>
</svg>