<?xml version="1.0" encoding="UTF-8"?>
<svg id="Layer_2" data-name="Layer 2" xmlns="http://www.w3.org/2000/svg" viewBox="0 0 92.03 126.82">
  <defs>
    <style>
      .cls-1 {
        fill: #9a002b;
      }
    </style>
  </defs>
  <g id="Layer_1-2" data-name="Layer 1">
    <polygon class="cls-1" points="92 50.34 88.67 48 88.67 68.33 87.07 68.33 87.07 50.32 83.86 48 83.86 68.33 82.18 68.33 72.15 53.73 61.99 53.73 60.21 57.28 70.64 57.28 77.74 68.33 60.06 68.33 58.6 71.84 92 71.84 92 50.34"/>
    <polygon class="cls-1" points="48.23 68.33 48.23 48 51.58 50.34 51.58 71.84 48.23 68.33"/>
    <polygon class="cls-1" points="18.36 58.94 15.01 61.71 15.01 68.33 3.37 68.33 3.37 61.73 .02 58.8 .02 71.84 18.36 71.84 18.36 58.94"/>
    <polygon class="cls-1" points="43.86 61.27 43.86 68.33 41.66 68.33 41.66 60.73 38.3 63.06 38.3 68.33 36.1 68.33 36.1 62.51 32.75 64.85 32.75 68.33 22.74 68.33 22.74 50.34 19.39 48 19.39 68.33 19.39 71.84 22.74 71.84 47.21 71.84 47.21 68.33 47.21 58.94 43.86 61.27"/>
    <polygon class="cls-1" points="83.86 20.97 87.07 23.36 87.07 45 58.69 45 60.15 41.49 77.83 41.49 70.73 30.43 60.12 30.43 61.83 26.81 72.16 26.81 82.27 41.49 83.86 41.49 83.86 20.97"/>
    <path class="cls-1" d="M44.65,39.27l-8.31-12.45h-16.66l-1.82,3.62,2.16,4.72,2.29-4.72h12.4l7.13,11.05h-23.56l-7.54-14.66H0v18.18h42.52l2.13-5.74ZM3.37,41.49v-11.05h5.35l5.67,11.05H3.37Z"/>
    <polygon class="cls-1" points="88.65 95.46 88.65 74.97 92 77.32 92 98.98 88.65 95.46"/>
    <polygon class="cls-1" points="88.65 41.48 88.65 21 92 23.34 92 45 88.65 41.48"/>
    <polygon class="cls-1" points="34.45 98.98 0 98.98 0 77.28 3.37 74.94 3.37 95.46 34.45 95.46 34.45 98.98"/>
    <path class="cls-1" d="M77.51,84.52l-6.51,8.62-6.51-8.62h13.02ZM83.86,74.97v20.49h-10.4l8.33-10.87-3.59-3.52h-14.63l-3.38,3.47,8.26,10.92h-10.36v-20.53l-3.52,2.34v18.18h-4.88v-9.58l-3.35,2.34v10.75h40.73v-21.71l-3.21-2.29Z"/>
    <path class="cls-1" d="M5.28,115.94c-.55.56-1.34.83-2.24.83H0v-8.79h3.04c.9,0,1.69.27,2.24.83.94.95.88,2.24.88,3.51s.06,2.68-.88,3.63M4.38,109.77c-.36-.41-.85-.59-1.47-.59h-1.59v6.4h1.59c.62,0,1.11-.18,1.47-.59.45-.51.46-1.46.46-2.67s-.01-2.04-.46-2.54"/>
    <path class="cls-1" d="M13.15,115.9c-.6.61-1.36.94-2.29.94s-1.68-.33-2.27-.94c-.85-.86-.84-1.84-.84-3.53s-.01-2.67.84-3.53c.6-.61,1.35-.94,2.27-.94s1.69.33,2.29.94c.85.86.83,1.84.83,3.53s.02,2.67-.83,3.53M12.15,109.64c-.3-.33-.78-.54-1.29-.54s-.99.21-1.29.54c-.43.47-.51.96-.51,2.73s.09,2.26.51,2.73c.3.33.78.54,1.29.54s.99-.21,1.29-.54c.43-.47.51-.96.51-2.73s-.09-2.26-.51-2.73"/>
    <polygon class="cls-1" points="20.62 116.77 20.62 112.93 17.1 112.93 17.1 116.77 15.79 116.77 15.79 107.97 17.1 107.97 17.1 111.73 20.62 111.73 20.62 107.97 21.93 107.97 21.93 116.77 20.62 116.77"/>
    <path class="cls-1" d="M29.16,116.77l-.6-1.76h-3.42l-.6,1.76h-1.4l3.17-8.79h1.06l3.17,8.79h-1.4ZM26.89,109.96l-1.35,3.9h2.66l-1.31-3.9Z"/>
    <rect class="cls-1" x="34.71" y="107.97" width="1.32" height="8.79"/>
    <polygon class="cls-1" points="43.6 116.77 39.6 110.58 39.6 116.77 38.28 116.77 38.28 107.97 39.49 107.97 43.49 114.15 43.49 107.97 44.8 107.97 44.8 116.77 43.6 116.77"/>
    <path class="cls-1" d="M49.36,116.84c-1.3,0-2.24-.31-3.07-1.16l.88-.88c.63.64,1.32.84,2.21.84,1.13,0,1.79-.49,1.79-1.35,0-.38-.11-.7-.34-.91-.22-.21-.44-.3-.95-.37l-1.02-.15c-.7-.1-1.26-.35-1.64-.7-.42-.41-.63-.96-.63-1.68,0-1.53,1.1-2.58,2.9-2.58,1.14,0,1.95.3,2.69,1l-.84.84c-.54-.52-1.15-.68-1.89-.68-1.02,0-1.58.59-1.58,1.37,0,.32.1.61.33.81.22.2.57.35.97.41l.99.15c.8.12,1.25.32,1.62.65.48.42.71,1.05.71,1.8,0,1.62-1.3,2.58-3.11,2.58"/>
    <polygon class="cls-1" points="57.17 109.17 57.17 116.77 55.85 116.77 55.85 109.17 53.47 109.17 53.47 107.97 59.55 107.97 59.55 109.17 57.17 109.17"/>
    <rect class="cls-1" x="61.04" y="107.97" width="1.32" height="8.79"/>
    <polygon class="cls-1" points="67.55 109.17 67.55 116.77 66.24 116.77 66.24 109.17 63.85 109.17 63.85 107.97 69.94 107.97 69.94 109.17 67.55 109.17"/>
    <path class="cls-1" d="M74.4,116.84c-1.76,0-3.1-1.22-3.1-3.04v-5.83h1.31v5.77c0,1.17.71,1.9,1.79,1.9s1.8-.73,1.8-1.9v-5.77h1.31v5.83c0,1.82-1.35,3.04-3.11,3.04"/>
    <polygon class="cls-1" points="82.57 109.17 82.57 116.77 81.26 116.77 81.26 109.17 78.87 109.17 78.87 107.97 84.95 107.97 84.95 109.17 82.57 109.17"/>
    <polygon class="cls-1" points="86.45 116.77 86.45 107.97 91.98 107.97 91.98 109.17 87.76 109.17 87.76 111.74 91.36 111.74 91.36 112.93 87.76 112.93 87.76 115.57 91.98 115.57 91.98 116.77 86.45 116.77"/>
    <polygon class="cls-1" points=".91 121.68 .91 123.49 3.35 123.49 3.35 124.3 .91 124.3 .91 126.82 .02 126.82 .02 120.87 3.77 120.87 3.77 121.68 .91 121.68"/>
    <path class="cls-1" d="M8.11,126.18c-.4.41-.92.63-1.55.63s-1.14-.23-1.54-.63c-.58-.59-.57-1.24-.57-2.39s0-1.8.57-2.39c.4-.41.91-.63,1.54-.63s1.14.23,1.55.63c.57.58.56,1.24.56,2.39s.02,1.8-.56,2.39M7.44,121.95c-.21-.23-.53-.37-.87-.37s-.67.14-.87.37c-.29.32-.35.65-.35,1.85s.06,1.53.35,1.85c.21.23.53.37.87.37s.67-.14.87-.37c.29-.32.35-.65.35-1.85s-.06-1.53-.35-1.85"/>
    <path class="cls-1" d="M13.22,126.82l-1.24-2.51h-1.11v2.51h-.89v-5.95h2.27c1.11,0,1.82.73,1.82,1.74,0,.85-.51,1.4-1.17,1.58l1.35,2.63h-1.04ZM12.19,121.68h-1.32v1.86h1.32c.59,0,1-.34,1-.93s-.4-.93-1-.93"/>
    <path class="cls-1" d="M20.85,126.14c-.44.48-1,.68-1.61.68s-1.14-.23-1.54-.63c-.57-.59-.57-1.24-.57-2.39s0-1.8.57-2.39c.4-.41.91-.63,1.54-.63,1.24,0,1.97.83,2.13,1.85h-.9c-.15-.65-.58-1.04-1.24-1.04-.35,0-.66.14-.86.37-.29.32-.35.65-.35,1.85s.07,1.54.35,1.85c.21.23.52.36.86.36.39,0,.72-.15.96-.42.21-.25.3-.55.3-.94v-.33h-1.25v-.77h2.14v.91c0,.77-.14,1.26-.53,1.68"/>
    <path class="cls-1" d="M25.92,126.82l-1.24-2.51h-1.11v2.51h-.89v-5.95h2.27c1.11,0,1.82.73,1.82,1.74,0,.85-.51,1.4-1.17,1.58l1.35,2.63h-1.04ZM24.89,121.68h-1.32v1.86h1.32c.59,0,1-.34,1-.93s-.4-.93-1-.93"/>
    <path class="cls-1" d="M31.44,126.82l-.4-1.19h-2.31l-.4,1.19h-.95l2.15-5.95h.72l2.15,5.95h-.95ZM29.91,122.22l-.91,2.64h1.8l-.89-2.64Z"/>
    <path class="cls-1" d="M36.79,126.26c-.37.38-.9.56-1.51.56h-2.06v-5.95h2.06c.61,0,1.14.18,1.51.56.63.64.59,1.51.59,2.37s.04,1.81-.59,2.46M36.18,122.08c-.25-.28-.58-.4-1-.4h-1.08v4.33h1.08c.42,0,.75-.13,1-.4.3-.34.31-.99.31-1.8s0-1.38-.31-1.72"/>
    <path class="cls-1" d="M40.71,126.82c-1.19,0-2.1-.83-2.1-2.05v-3.94h.89v3.9c0,.79.48,1.29,1.21,1.29s1.22-.49,1.22-1.29v-3.9h.89v3.94c0,1.23-.91,2.05-2.11,2.05"/>
    <path class="cls-1" d="M47.62,126.82l-.4-1.19h-2.31l-.4,1.19h-.95l2.15-5.95h.72l2.15,5.95h-.95ZM46.08,122.22l-.91,2.64h1.8l-.89-2.64Z"/>
    <polygon class="cls-1" points="50.89 121.68 50.89 126.82 50 126.82 50 121.68 48.38 121.68 48.38 120.87 52.5 120.87 52.5 121.68 50.89 121.68"/>
    <polygon class="cls-1" points="53.51 126.82 53.51 120.87 57.25 120.87 57.25 121.68 54.4 121.68 54.4 123.42 56.83 123.42 56.83 124.22 54.4 124.22 54.4 126.01 57.25 126.01 57.25 126.82 53.51 126.82"/>
    <path class="cls-1" d="M62.01,126.82c-.88,0-1.51-.21-2.07-.79l.59-.59c.43.43.9.57,1.5.57.76,0,1.21-.33,1.21-.91,0-.26-.07-.48-.23-.62-.15-.14-.3-.2-.64-.25l-.69-.1c-.48-.07-.86-.23-1.11-.48-.29-.28-.43-.65-.43-1.14,0-1.04.74-1.74,1.96-1.74.77,0,1.32.2,1.82.68l-.57.57c-.36-.35-.78-.46-1.28-.46-.69,0-1.07.4-1.07.93,0,.22.07.41.22.55.15.13.39.23.66.28l.67.1c.54.08.85.22,1.09.44.32.28.48.71.48,1.22,0,1.09-.88,1.75-2.11,1.75"/>
    <polygon class="cls-1" points="67.28 121.68 67.28 126.82 66.39 126.82 66.39 121.68 64.78 121.68 64.78 120.87 68.9 120.87 68.9 121.68 67.28 121.68"/>
    <path class="cls-1" d="M71.91,126.82c-1.19,0-2.1-.83-2.1-2.05v-3.94h.89v3.9c0,.79.48,1.29,1.21,1.29s1.22-.49,1.22-1.29v-3.9h.89v3.94c0,1.23-.91,2.05-2.11,2.05"/>
    <path class="cls-1" d="M79.03,126.26c-.37.38-.9.56-1.51.56h-2.06v-5.95h2.06c.61,0,1.14.18,1.51.56.63.64.59,1.51.59,2.37s.04,1.81-.59,2.46M78.42,122.08c-.25-.28-.58-.4-1-.4h-1.08v4.33h1.08c.42,0,.75-.13,1-.4.3-.34.31-.99.31-1.8s0-1.38-.31-1.72"/>
    <rect class="cls-1" x="80.94" y="120.87" width=".89" height="5.95"/>
    <polygon class="cls-1" points="83.36 126.82 83.36 120.87 87.1 120.87 87.1 121.68 84.25 121.68 84.25 123.42 86.68 123.42 86.68 124.22 84.25 124.22 84.25 126.01 87.1 126.01 87.1 126.82 83.36 126.82"/>
    <path class="cls-1" d="M89.88,126.82c-.88,0-1.51-.21-2.07-.79l.59-.59c.43.43.9.57,1.5.57.77,0,1.21-.33,1.21-.91,0-.26-.07-.48-.23-.62-.15-.14-.3-.2-.64-.25l-.69-.1c-.48-.07-.86-.23-1.11-.48-.29-.28-.43-.65-.43-1.14,0-1.04.74-1.74,1.96-1.74.77,0,1.32.2,1.82.68l-.57.57c-.36-.35-.78-.46-1.27-.46-.69,0-1.07.4-1.07.93,0,.22.07.41.22.55.15.13.39.23.66.28l.67.1c.54.08.85.22,1.09.44.32.28.48.71.48,1.22,0,1.09-.88,1.75-2.11,1.75"/>
    <path class="cls-1" d="M58.07,55.05l-3.48,2.24s0,3.16-.01,3.36c-.3,8.26-2.61,13.56-5.06,18.35-2.32,4.51-4.54,7.19-4.81,7.51,8.84-7.87,11.86-17.02,12.88-21.74.44-2.04.5-3.5.5-3.5v-6.22Z"/>
    <path class="cls-1" d="M54.57,41.54h-6.36l3.54-11.1h2.82v11.1ZM49.57,26.82l-6.33,18.18h11.33v11.15l3.5-2.18v-27.15h-8.5Z"/>
    <rect class="cls-1" x="36.12" y="95.45" width="3.52" height="3.52"/>
    <rect class="cls-1" x="41.26" y="95.45" width="3.52" height="3.52"/>
    <rect class="cls-1" y="52.92" width="3.37" height="3.37"/>
    <rect class="cls-1" y="48" width="3.37" height="3.37"/>
    <rect class="cls-1" x=".01" y="21.01" width="3.36" height="3.35"/>
    <rect class="cls-1" x="4.9" y="21.01" width="3.36" height="3.35"/>
    <polygon class="cls-1" points="31.12 13.57 37.88 4.51 44.7 13.57 31.12 13.57"/>
    <path class="cls-1" d="M56.08,3.45h13.02l-6.51,8.62-6.51-8.62ZM79.87,0l-11.01,14.6h-3.96l8.49-11.08-3.59-3.52h-14.63l-3.2,3.47,8.25,11.13h-3.93L45.25,0h-23.51l2.47,3.45h19.4l8.44,11.15h-22.7L18.26,0H5.85l-2.45,3.45h13.31l8.32,11.15H3.2l-3.2,3.42h70.29l11.15-14.56h7.21v10.15l-8.43-6.76-2.02,2.52,10.02,8.17.54.49h3.27V0h-12.16Z"/>
  </g>
</svg>