<?xml version="1.0" encoding="UTF-8"?>
<svg id="Layer_2" data-name="Layer 2" xmlns="http://www.w3.org/2000/svg" viewBox="0 0 303.23 197.36">
  <defs>
    <style>
      .cls-1 {
        fill: #00a0af;
      }

      .cls-2 {
        fill: #005984;
      }
    </style>
  </defs>
  <g id="Layer_1-2" data-name="Layer 1">
    <path class="cls-1" d="M7.44,143.01c6.3,0,8.75-1.92,8.75-6.35s-2.56-6.22-8.75-6.22h-3.74v12.57h3.74ZM0,127.28h9.1c5.99,0,10.78,2.52,10.78,9.34,0,6.45-4.38,9.56-10.61,9.56H0v-18.9Z"/>
    <path class="cls-1" d="M40.75,136.67c0-4.54-3.25-6.68-7.58-6.68s-7.57,2.14-7.57,6.68c0,5.37,4.04,6.82,7.57,6.82s7.58-1.45,7.58-6.82M33.17,126.81c8.33,0,11.27,4.9,11.27,10.06,0,3.94-2.32,9.79-11.27,9.79s-11.26-5.85-11.26-9.79c0-5.16,2.94-10.06,11.26-10.06"/>
    <polygon class="cls-1" points="47.17 127.28 50.85 127.28 50.85 142.92 64.58 142.92 64.58 146.18 47.17 146.18 47.17 127.28"/>
    <path class="cls-1" d="M78.75,135.69c2.1,0,3.96-.18,3.96-2.63s-1.86-2.61-3.96-2.61h-7.65v5.24h7.65ZM67.4,127.28h10.55c3.21,0,8.45,0,8.45,5.8s-5.24,5.77-8.45,5.77h-6.85v7.33h-3.7v-18.9Z"/>
    <polygon class="cls-1" points="89.08 127.28 92.78 127.28 92.78 134.78 105.48 134.78 105.48 127.28 109.16 127.28 109.16 146.18 105.48 146.18 105.48 138.05 92.78 138.05 92.78 146.18 89.08 146.18 89.08 127.28"/>
    <rect class="cls-1" x="113.87" y="127.28" width="3.69" height="18.9"/>
    <polygon class="cls-1" points="122.27 127.28 126.18 127.28 138.83 140.94 138.83 127.28 142.35 127.28 142.35 146.18 138.97 146.18 125.81 132.04 125.81 146.18 122.27 146.18 122.27 127.28"/>
    <polygon class="cls-1" points=".02 154.68 16.97 154.68 16.97 157.85 3.71 157.85 3.71 162.25 15.13 162.25 15.13 165.42 3.71 165.42 3.71 170.42 17.29 170.42 17.29 173.59 .02 173.59 .02 154.68"/>
    <polygon class="cls-1" points="20.26 154.68 24.15 154.68 36.8 168.33 36.8 154.68 40.33 154.68 40.33 173.59 36.94 173.59 23.79 159.45 23.79 173.59 20.26 173.59 20.26 154.68"/>
    <polygon class="cls-1" points="43.77 154.68 60.73 154.68 60.73 157.85 47.47 157.85 47.47 162.25 58.88 162.25 58.88 165.42 47.47 165.42 47.47 170.42 61.03 170.42 61.03 173.59 43.77 173.59 43.77 154.68"/>
    <path class="cls-1" d="M74.82,163.08c3.02,0,4.56-.44,4.56-2.68s-1.55-2.65-4.56-2.65h-7.12v5.33h7.12ZM64.01,154.68h11.36c4.47,0,7.7,1.02,7.7,5.64,0,3.49-2.49,5.42-5.28,5.57l5.81,7.71h-4.56l-5.48-7.44h-5.85v7.44h-3.7v-18.91Z"/>
    <path class="cls-1" d="M106.13,163.89v9.91h-2.24l-.72-1.95c-1.43.93-3.41,2.21-7.08,2.21-4.84,0-10.68-2.36-10.68-9.89,0-5.04,3.04-9.96,10.59-9.96,4.34,0,9.11,1.62,10.01,6.37h-3.77c-.44-.97-1.45-3.19-5.79-3.19-5.94,0-7.33,4.01-7.33,6.64,0,4.46,3.01,6.76,7.01,6.76,3.65,0,5.67-1.28,6.55-3.93h-6.62v-2.96h10.09Z"/>
    <polygon class="cls-1" points="115.13 166.03 105.89 154.68 110.41 154.68 116.97 162.69 123.5 154.68 128.06 154.68 118.83 166.03 118.83 173.59 115.13 173.59 115.13 166.03"/>
    <path class="cls-2" d="M210.33,165.25h-5.62c-1.9,0-3.57-.15-3.57-2.09s1.66-2.06,3.57-2.06h5.62v4.15ZM185.16,170.72h-1.59c-2.82,0-5.12-.82-5.12-4.7s2.3-4.71,5.12-4.71h1.59v9.41ZM197.81,163.18c0,4.59,4.74,4.59,7.63,4.59h4.89v2.8h-21.83v-11.99h-1.15s-4.01-.01-4.01-.01c-5.49,0-7.75,2.88-7.75,7.45s2.26,7.44,7.75,7.44l1.82.04h28.49v-14.92h-8.21c-2.89,0-7.63,0-7.63,4.59M253.22,170.57h-13.7v-9.56h9.55c5.6,0,7.9,1.27,7.9,4.94,0,2.48-1.11,3.96-3.76,4.63M281.51,154.29v12.84c.05,2.21-.73,3.45-4.64,3.42-.4,0-.77.01-1.11.02v-16.08h-3.34v16.08h-13.66c.99-1.18,1.55-2.75,1.55-4.66,0-5.41-4.31-7.42-9.73-7.42h-11.07v-4.07h-3.34v16.15h-15.23v-16.15h-3.34v19.08l58.1-.02c.51.02,1.05.04,1.57.04,5.02,0,7.54-1.45,7.58-5.86v-13.37h-3.34ZM182.24,154.42h-3.34v2.29h3.34v-2.29ZM186.35,154.42h-3.33v2.29h3.33v-2.29ZM206.35,154.42h-3.33v2.29h3.33v-2.29ZM210.48,154.42h-3.34v2.29h3.34v-2.29Z"/>
    <path class="cls-2" d="M251.78,133.91h-6.9c-1.89,0-3.57-.15-3.57-2.09s1.67-2.07,3.57-2.07h6.9v4.15ZM265.1,139.2h-9.98v-11.97h-9.51c-2.88,0-7.63,0-7.63,4.6s4.75,4.58,7.63,4.58h6.17v2.79h-20.48v-11.99h-3.33v11.99h-13.57v-11.99h-3.33v13.47c0,2.1-.89,3.96-4.87,3.96s-4.89-1.85-4.89-3.96v-13.47h-3.33v13.66c0,4.16,3.1,6.18,8.2,6.18h0s.02,0,.02,0c.02,0,.04,0,.04,0,4.51,0,7.44-1.61,8.03-4.9h54.16s0-19.1,0-19.1h-3.34v16.17ZM225.84,146.38h3.33v-2.29h-3.33v2.29ZM229.96,146.38h3.35v-2.29h-3.35v2.29ZM207.6,123.07h-3.33v2.29h3.33v-2.29ZM248.4,123.07h-3.33v2.29h3.33v-2.29ZM284.3,139.41h-5.16c-2.82,0-5.11-.84-5.11-4.73s2.29-4.74,5.11-4.74h5.16v9.47ZM287.63,127.2h-8.72c-5.5,0-7.76,2.89-7.76,7.48s2.26,7.47,7.76,7.47h5.37c-.15,1.61-1.15,2.51-4.62,2.5-1.48,0-2.64-.19-3.82-.43v2.54c.81.17,2.63.3,4.23.3,4.79,0,7.28-1.25,7.52-4.9h.05v-14.95ZM295.66,127.23c-1.61,0-3.42.14-4.23.33v2.75c1.19-.27,2.35-.48,3.82-.48,3.94-.02,4.7,1.22,4.65,3.43v5.95h-8.45v2.93l11.79-.03v-9.02c-.04-4.42-2.56-5.85-7.58-5.85"/>
    <path class="cls-2" d="M213.77,79.49l-7.76,8.28-21.46,22.84-.52.55-15.88,16.92c.9.25,1.81.45,2.69.59.66.1,1.3.18,1.95.22l12.33-14.56.62-.73,14.39-16.97,22.69-26.77-9.06,9.63Z"/>
    <path class="cls-2" d="M196.3,61.08l-11.66,12.42-18.11,19.3-1.05,1.1-10.24,10.89c.02,1.09.53,2.54,2.86,2.87l.52-.63,9.97-11.75.79-.93,6.99-8.23,33.12-39.09-13.19,14.04Z"/>
    <path class="cls-2" d="M227.34,17.83l-14.28,15.2-53.71,57.17-1.92,2.05-11.73,12.48c.13.93.32,1.89.61,2.86.1.36.23.73.36,1.1.08.22.17.45.26.68l.24-.27,14.5-16.33,1.32-1.48,37.6-42.33L244.08,0l-16.74,17.83Z"/>
    <path class="cls-2" d="M165.48,93.91l1.05-1.1c-.87-.43-1.74-.82-2.6-1.16l-1.19,1.37c.91.24,1.81.53,2.74.89"/>
    <path class="cls-2" d="M174.44,99.06c4.47,3.55,7.76,7.85,9.59,12.09l.52-.55c-2.16-4.64-5.82-9.29-10.72-13.17-1.36-1.08-2.75-2.04-4.16-2.9l-.74.93c1.86.98,3.71,2.18,5.51,3.59"/>
    <path class="cls-2" d="M185.99,114.38l-.67.84c.76,3.67.25,7.08-1.72,9.65-1.79,2.33-4.57,3.65-7.84,3.97-.44.04-.9.07-1.35.08-.54.01-1.08,0-1.62-.04-.64-.04-1.29-.12-1.95-.22-.89-.14-1.79-.34-2.69-.59-1.33-.38-2.69-.87-4.04-1.47-1.81-.82-3.63-1.84-5.41-3.07-.64-.45-1.26-.91-1.89-1.41-3.28-2.59-5.9-5.59-7.8-8.65-.3-.5-.61-1.01-.88-1.51-.45-.86-.85-1.73-1.19-2.59-.08-.23-.18-.46-.26-.68-.13-.37-.26-.74-.36-1.1-.29-.97-.48-1.93-.61-2.86-.16-1.29-.17-2.53,0-3.71.25-1.75.87-3.33,1.9-4.68,2.16-2.81,5.69-4.14,9.82-4.08l1.92-2.04c-6.93-1.59-13.2-.32-16.56,4.07-1.72,2.24-2.46,5.04-2.33,8.1.11,3.37,1.27,7.07,3.33,10.7.72,1.25,1.55,2.5,2.46,3.72,1.94,2.6,4.35,5.09,7.18,7.32,1.02.82,2.07,1.57,3.14,2.27,2.2,1.43,4.44,2.61,6.68,3.49,4.16,1.66,8.25,2.35,11.84,2.04h0l-54.27,65.45,62.53-68.88c.38-.38.74-.77,1.09-1.21,2.58-3.37,2.98-8,1.56-12.9"/>
  </g>
</svg>