<?xml version="1.0" encoding="UTF-8"?>
<svg id="Layer_2" data-name="Layer 2" xmlns="http://www.w3.org/2000/svg" viewBox="0 0 307.09 107.48">
  <defs>
    <style>
      .cls-1 {
        fill: #43b649;
      }

      .cls-2 {
        fill: #3e97c8;
      }

      .cls-3 {
        fill: #5b6066;
      }

      .cls-4 {
        fill: #203c6f;
      }
    </style>
  </defs>
  <g id="Layer_1-2" data-name="Layer 1">
    <path class="cls-3" d="M151.69,83.81c-1.37-2.03-2.9-4.03-4.56-5.95-1.56-1.8-3.26-4.05-5.05-5.82.31-.31.67-.68,1.09-1.1.56-.57,1.16-1.17,1.8-1.81.64-.64,1.3-1.28,1.97-1.94.66-.66,1.27-1.26,1.83-1.81.55-.55,1.03-1.02,1.42-1.41.41-.4.66-.65.76-.76l.22-.24-.18-.28c-.14-.21-.4-.45-.83-.78-.44-.33-1-.5-1.68-.5-.62,0-1.16.16-1.6.48-.4.28-.85.64-1.33,1.08-.36.34-.88.84-1.55,1.5-.67.66-1.38,1.37-2.13,2.13-.75.76-1.49,1.52-2.21,2.28-.45.46-.84.88-1.19,1.25h0s0-8.12,0-8.12c0,0-.84-.59-2.01-.59s-2.1.94-2.1,2.1v20.93h4.11v-9.57h0c.63.58,1.28,1.2,1.94,1.86.86.86,1.7,1.76,2.51,2.67.8.9,1.56,1.79,2.26,2.64.69.84,1.29,1.6,1.79,2.26l.11.14h5.07l-.43-.64Z"/>
    <path class="cls-3" d="M102.19,27.39c.6,0,1.12-.21,1.55-.63.43-.42.64-.93.64-1.54s-.21-1.12-.64-1.54c-.43-.42-.95-.63-1.55-.63s-1.11.21-1.52.63c-.41.42-.61.93-.61,1.54s.2,1.12.61,1.54c.41.42.91.63,1.52.63"/>
    <path class="cls-3" d="M188.53,36.93c-.57-.74-1.12-1.41-1.66-1.99-.56-.58-1.11-1.13-1.66-1.64-.55-.51-1.14-.96-1.76-1.34-.63-.39-1.3-.69-2.03-.91-.72-.22-1.52-.33-2.41-.33-1.05,0-1.89.16-2.52.49-.63.33-.94.83-.94,1.5,0,.51.11.94.33,1.28.22.34.39.57.51.68.65-.26,1.32-.38,1.99-.38.91,0,1.8.24,2.67.72.87.48,1.81,1.28,2.81,2.39.51.58,1.11,1.33,1.8,2.25.69.92,1.44,1.66,2.25,2.98h-68.81v-19.16c-.12-.05-.35-.13-.7-.24-.35-.12-.75-.17-1.19-.17-.65,0-1.16.16-1.52.47-.36.31-.54.8-.54,1.45v21.12h77.34v-3.46l-3.96-5.69Z"/>
    <path class="cls-3" d="M179.43,27.37c.6,0,1.12-.21,1.55-.65.43-.43.65-.94.65-1.52s-.22-1.05-.65-1.48c-.43-.43-.95-.65-1.55-.65s-1.13.22-1.57.65c-.44.43-.66.93-.66,1.48s.22,1.09.66,1.52c.44.43.96.65,1.57.65"/>
    <path class="cls-3" d="M214.96,41.4c0-1.77-.3-3.32-.89-4.66-.59-1.34-1.4-2.45-2.43-3.34-1.03-.88-2.23-1.55-3.62-2.01-1.38-.45-2.88-.68-4.49-.68-.58,0-1.2.03-1.87.1-.66.07-1.28.19-1.85.37-.57.18-1.04.42-1.42.73-.37.31-.56.72-.56,1.21s.12.88.35,1.24c.23.36.44.61.63.75.33-.16.87-.34,1.64-.54.77-.2,1.65-.3,2.66-.3s1.97.13,2.9.39c.93.26,1.76.67,2.48,1.26.72.58,1.3,1.35,1.73,2.31.43.95.65,2.12.65,3.49v.91h-15.02v3.46h19.11v-4.68Z"/>
    <path class="cls-3" d="M247.45,31.61h-1.92c-.42,0-.82-.1-1.21-.31-.38-.21-.58-.58-.58-1.12,0-.33.12-.59.35-.79.23-.2.54-.3.91-.3.4,0,.73.08,1.01.23.28.15.45.25.52.3.26-.23.43-.44.52-.61.09-.17.14-.34.14-.51,0-.44-.26-.76-.77-.94-.51-.19-1.05-.28-1.61-.28-.84,0-1.58.23-2.24.68-.65.45-.98,1.16-.98,2.11,0,.37.08.69.23.96.15.27.29.46.4.58h-1.68v1.96h6.88v-1.96Z"/>
    <path class="cls-3" d="M272.31,42.62c.89,0,1.59-.09,2.13-.28.54-.19.94-.47,1.22-.86.28-.39.47-.87.56-1.45.09-.58.14-1.27.14-2.06v-5.41c0-1.23.69-1.85,2.06-1.85.42,0,.81.05,1.17.16.36.1.6.18.72.23v6.88c0,.77.04,1.44.12,2.03.08.58.26,1.07.54,1.45.28.38.69.67,1.22.87.54.2,1.26.3,2.17.3h18.78v-10.04c0-1.23.69-1.85,2.06-1.85.42,0,.81.05,1.17.16.36.1.6.18.72.23v14.96h-24.4c-2.03,0-3.46-.79-4.3-2.38-.33.58-.72,1.03-1.17,1.35-.45.32-.96.55-1.52.7-.56.15-1.16.24-1.8.28-.64.04-1.3.05-1.97.05h-30.79c-2.03,0-3.48-.22-4.77-.66-1.29-.44-2.39-1.05-3.3-1.83-.91-.78-1.6-1.71-2.08-2.78-.48-1.07-.72-2.24-.72-3.49,0-1.07.16-1.96.49-2.65.33-.7.95-1.05,1.89-1.05.37,0,.72.04,1.03.12.31.08.63.19.96.33-.14.61-.24,1.16-.3,1.66-.06.5-.09.94-.09,1.31,0,1.75.62,3.12,1.85,4.1,1.23.99,3.09,1.48,5.55,1.48h11.67v-17.66c0-.65.18-1.14.54-1.45.36-.31.87-.47,1.52-.47.44,0,.84.06,1.19.17.35.12.58.2.7.24v19.16h15.04Z"/>
    <path class="cls-3" d="M278.35,27.37c.6,0,1.12-.21,1.54-.63.42-.42.63-.93.63-1.54s-.21-1.12-.63-1.54c-.42-.42-.93-.63-1.54-.63s-1.11.21-1.52.63c-.41.42-.61.93-.61,1.54s.2,1.12.61,1.54c.41.42.91.63,1.52.63"/>
    <path class="cls-3" d="M301.58,49.2c-.43.43-.65.93-.65,1.49s.22,1.09.65,1.52c.43.43.95.65,1.55.65s1.12-.22,1.55-.65c.43-.43.65-.94.65-1.52s-.22-1.05-.65-1.49-.95-.65-1.55-.65-1.12.22-1.55.65"/>
    <path class="cls-2" d="M76.77,40.41C76.77,18.09,58.45,0,35.85,0H7.14C3.2,0,0,3.16,0,7.05v26.65c0-3.89,3.2-7.05,7.14-7.05h28.71c17.87,0,33.07,11.32,38.64,27.09,1.47-4.17,2.28-8.66,2.28-13.33Z"/>
    <path class="cls-1" d="M35.85,80.83H7.14C3.2,80.83,0,77.67,0,73.78v26.65c0,3.89,3.2,7.05,7.14,7.05h28.71c22.6,0,40.92-18.09,40.92-40.41,0-4.67-.8-9.15-2.28-13.33-5.58,15.77-20.77,27.09-38.64,27.09"/>
    <path class="cls-4" d="M35.85,26.65H7.14C3.2,26.65,0,29.81,0,33.7v40.08c0,3.89,3.2,7.05,7.14,7.05h28.71c17.87,0,33.06-11.32,38.64-27.09-5.58-15.77-20.77-27.09-38.64-27.09"/>
    <path class="cls-3" d="M254.81,74.66c.96-2.57,2.02-5.37,3.04-8.09,1.02,2.72,2.08,5.53,3.04,8.09h-6.08ZM264.56,84.45h4.11s-4.36-11.63-7.86-20.93c-1.02-2.74-4.9-2.74-5.92,0h0c-3.5,9.3-7.85,20.93-7.85,20.93h4.11s.87-2.32,2.13-5.69h9.16c1.26,3.37,2.13,5.69,2.13,5.69"/>
    <path class="cls-3" d="M285.43,61.42c-1.16,0-2.1.94-2.1,2.1v13l-8.53-14.09c-.38-.62-1.03-.94-1.71-.97l-.09-.04h-.94c-1.16,0-2.1.94-2.1,2.1v20.93h4.11v-15.29l9.26,15.29h0s4.11,0,4.11,0v-22.44s-.84-.59-2-.59"/>
    <path class="cls-3" d="M129.8,61.42c-1.16,0-2.1.94-2.1,2.1v9.86c0,1.17-.09,2.2-.28,3.07-.18.84-.47,1.54-.86,2.1-.39.54-.91.96-1.55,1.24-.66.29-1.49.43-2.46.43s-1.8-.15-2.46-.43c-.64-.28-1.16-.7-1.55-1.24-.39-.55-.68-1.26-.86-2.1-.18-.87-.28-1.9-.28-3.07v-11.37s-.84-.59-2.01-.59-2.1.94-2.1,2.1v10.18c0,3.43.78,6.11,2.32,7.96,1.55,1.85,3.88,2.79,6.93,2.79s5.39-.94,6.93-2.79c1.54-1.85,2.32-4.52,2.32-7.96v-11.69s-.84-.59-2-.59"/>
    <path class="cls-3" d="M170.56,61.42c-1.16,0-2.1.94-2.1,2.1v7.23h-10.31v-8.74s-.84-.59-2.01-.59-2.1.94-2.1,2.1v20.93h4.11v-9.59h10.31v9.59h4.11v-22.44s-.84-.59-2-.59"/>
    <path class="cls-3" d="M105.05,78.31c-1.29,1.29-3.21,2.03-5.69,2.03h-3.13v-14.65c.12-.02.3-.03.54-.06.49-.05,1.69-.08,2.59-.08,1.34,0,2.51.19,3.47.57.95.37,1.75.89,2.35,1.53.6.64,1.06,1.43,1.35,2.33.3.92.45,1.74.45,2.83,0,2.37-.65,4.22-1.93,5.5M110.44,68.19c-.55-1.44-1.35-2.67-2.39-3.67-1.03-.99-2.3-1.77-3.77-2.3-1.46-.53-3.14-.8-4.97-.8-.29,0-.53,0-.8,0h.01s-2.28,0-2.28,0h-2.01c-1.16,0-2.1.94-2.1,2.1v20.93h6.68c.1,0,.18,0,.27,0,.02,0,.04,0,.06,0h.16,0c1.86-.02,3.54-.28,4.99-.79,1.51-.53,2.8-1.31,3.83-2.32,1.03-1.01,1.83-2.25,2.36-3.69.53-1.43.8-3.05.8-4.84s-.28-3.19-.83-4.62"/>
    <path class="cls-3" d="M240.07,80.34h-5.65v-5.68h5.65c1.57,0,2.84,1.27,2.84,2.84s-1.27,2.84-2.84,2.84M234.42,65.52h5.36c1.39,0,2.52,1.13,2.52,2.52s-1.13,2.52-2.52,2.52h-5.36v-5.03ZM244.18,72.44c1.55-1.1,2.57-2.9,2.57-4.95,0-3.36-2.72-6.08-6.08-6.08h-8.26c-1.16,0-2.1.94-2.1,2.1v20.93h9.48c4,0,7.24-3.24,7.24-7.24,0-2.07-1.16-3.84-2.85-4.77"/>
    <path class="cls-3" d="M306.66,83.81c-1.37-2.03-2.9-4.03-4.56-5.95-1.56-1.8-3.26-4.05-5.05-5.82.31-.31.67-.68,1.09-1.1.56-.57,1.16-1.17,1.8-1.81.64-.64,1.3-1.28,1.97-1.94.66-.66,1.27-1.26,1.83-1.81.55-.55,1.03-1.02,1.42-1.41.41-.4.66-.65.76-.76l.22-.24-.18-.28c-.14-.21-.4-.45-.83-.78-.44-.33-1-.5-1.68-.5-.62,0-1.16.16-1.6.48-.4.28-.85.64-1.33,1.08-.36.34-.88.84-1.55,1.5-.67.66-1.38,1.37-2.13,2.13-.75.76-1.49,1.52-2.21,2.28-.45.46-.84.88-1.19,1.25h0s0-8.12,0-8.12c0,0-.84-.59-2.01-.59s-2.1.94-2.1,2.1v20.93h4.11v-9.57h0c.63.58,1.28,1.2,1.94,1.86.86.86,1.7,1.76,2.51,2.67.8.9,1.56,1.79,2.26,2.64.69.84,1.29,1.6,1.79,2.26l.11.14h5.07l-.43-.64Z"/>
    <path class="cls-3" d="M182.34,74.66c.96-2.57,2.02-5.37,3.04-8.09,1.02,2.72,2.08,5.53,3.04,8.09h-6.08ZM192.08,84.45h4.11s-4.36-11.63-7.86-20.93c-1.02-2.74-4.9-2.74-5.92,0h0c-3.5,9.3-7.85,20.93-7.85,20.93h4.11s.87-2.32,2.13-5.69h9.16c1.26,3.37,2.13,5.69,2.13,5.69"/>
    <path class="cls-3" d="M212.96,61.42c-1.16,0-2.1.94-2.1,2.1v13l-8.53-14.09c-.38-.62-1.03-.94-1.71-.97l-.09-.04h-.94c-1.16,0-2.1.94-2.1,2.1v20.93h4.11v-15.29l9.26,15.29h0s4.11,0,4.11,0v-22.44s-.84-.59-2-.59"/>
    <path class="cls-3" d="M110.12,27.86c-.68,0-1.19.15-1.55.45-.36.3-.54.78-.54,1.43v5.6c0,3-1.18,4.66-1.71,5.3-.54.64-1.18,1.11-1.92,1.4-.75.29-1.55.44-2.41.44-1.96,0-3.42-.62-4.4-1.85-.98-1.23-1.47-2.92-1.47-5.07.03-1.52.52-3.22.8-4.27-.14-.09-.39-.22-.75-.38-.36-.16-.76-.24-1.21-.24-.42,0-.8.08-1.15.23-.35.15-.65.44-.89.87-.24.43-.44,1.03-.58,1.78-.14.76-.19,1.35-.21,2.15-.03,1.58.21,3.01.65,4.28.43,1.27,1.06,2.36,1.89,3.27.83.91,1.85,1.61,3.06,2.1,1.21.49,2.61.73,4.19.73s3.07-.26,4.33-.77c1.26-.51,2.28-1.27,3.16-2.18,2.03-2.1,2.6-4.68,2.6-7.01v-7.87c-.12-.05-.35-.12-.7-.23-.35-.11-.74-.16-1.19-.16"/>
  </g>
</svg>