<?xml version="1.0" encoding="UTF-8"?>
<svg id="Layer_2" xmlns="http://www.w3.org/2000/svg" viewBox="0 0 252.39 58.81">
  <defs>
    <style>
      .cls-1 {
        fill: #231f20;
      }
    </style>
  </defs>
  <g id="Layer_1-2" data-name="Layer_1">
    <path class="cls-1" d="M191.56,46.77c1.82,8.23,10.24,11.79,20.65,11.79,11.07,0,19.57-4.76,19.57-13.81,0-6.55-3.88-11.4-12.3-12.93l-9.51-1.86c-2.23-.49-2.73-1.37-2.73-2.18,0-1.21,1.07-2.42,3.89-2.42,3.55,0,5.62,2.18,5.95,4.04l13.87-2.67c-1.98-7.18-8.92-11.38-19.91-11.38s-18.66,5.25-18.66,14.21c0,6.95,4.54,10.75,12.38,12.12l8.35,1.38c2.73.4,3.8,1.05,3.8,2.42,0,1.29-1.49,2.43-4.38,2.43s-5.46-1.21-6.2-3.96l-14.78,2.83Z"/>
    <path class="cls-1" d="M168.75,27.13c3.05,0,5.7,1.7,6.77,5.18h-14.21c1.16-3.24,3.97-5.18,7.43-5.18M190.47,37.8c-.08-14.38-9.33-22.45-21.72-22.45s-22.71,8.72-22.71,21.65,10.24,21.57,22.71,21.57c9.83,0,17.67-4.2,21.14-12.92l-13.79-2.67c-1.57,2.99-4.46,3.96-7.35,3.96-3.96,0-6.61-2.43-7.6-6.31h29.32v-2.82Z"/>
    <path class="cls-1" d="M128.17,15.35c-5.05,0-9.34,1.94-12.57,5.33v-4.12h-15.44v40.79h15.44v-19.8c0-5.73,2.73-8.72,6.86-8.72,3.55,0,5.87,2.58,5.87,6.46v22.06h15.52v-25.29c0-10.33-6.28-16.71-15.69-16.71"/>
    <path class="cls-1" d="M95.84,16.56h-15.44v19.79c0,5.74-2.73,8.73-6.86,8.73-3.56,0-5.87-2.59-5.87-6.46v-22.06h-15.52v25.29c0,10.33,6.27,16.71,15.68,16.71,5.04,0,9.34-1.94,12.57-5.33v4.12h15.44V16.56Z"/>
    <path class="cls-1" d="M33.09,36.74c0,4.97-4.03,9-9,9s-8.99-4.03-8.99-9,4.02-8.99,8.99-8.99,9,4.03,9,8.99M47.82,57.35V0h-15.44v20.03c-2.98-2.99-7.02-4.68-12.23-4.68C8.67,15.35,0,24.06,0,36.99s8.67,21.57,20.15,21.57c5.21,0,9.26-1.69,12.23-4.68v3.47h15.44Z"/>
    <path class="cls-1" d="M252.39,49.82c0,4.97-4.03,9-9,9s-9-4.03-9-9,4.03-8.99,9-8.99,9,4.03,9,8.99"/>
  </g>
</svg>