<?xml version="1.0" encoding="UTF-8"?>
<svg id="Layer_2" data-name="Layer 2" xmlns="http://www.w3.org/2000/svg" viewBox="0 0 427.12 475.25">
  <g id="Layer_1-2" data-name="Layer 1">
    <g>
      <g>
        <path d="M338.86,280.43c2.27,2.72,7.63-.4,6.04,2.64-.2.38-.84.97-1.36,1.11-5.25,1.35-10.35,2.2-15.81,2.7-1.64.15-3.76-.26-5.02-1.18-2.46-1.79-2.27-5.32-.47-7.28,1.77,2.2,4.42,3.51,7.27,3.68-.47-3.3-1.19-7.36,1.44-9.81,2.13-1.99,10.83-5.62,14.06-1.46,1.08,1.38,1.47,3.12.75,4.8-.23.55-1.05,1.26-1.58,1.45s-1.46-.19-1.93-.62c.71-1.2,1.26-2.48.56-3.89-.43-.88-2.44-1.79-3.34-1-2.47,2.18-2.66,6.41-.62,8.86Z"/>
        <path d="M16.47,16.42l.06,394.16h98.43s0,16.44,0,16.44H.04S0,0,0,0l427.05.02-.04,339.21v5.7s-15.87.07-15.87.07c-.24-.16-.4-.36-.59-.78V16.49s-394.08-.07-394.08-.07Z"/>
        <g>
          <polygon points="427.02 427.02 406.47 427.03 371.69 382.98 371.54 427.04 354.77 427 354.77 361.4 375.54 361.39 410.34 405.44 410.5 361.4 427.02 361.4 427.02 427.02"/>
          <path d="M323.07,414.24l-36.73-.02-6.92,12.79-19.81.04,36.01-65.65h18.13s35.96,65.58,35.96,65.58l-19.75.06-6.88-12.79ZM313.88,397.66l-9.15-16.99-9.29,17.07,18.44-.08Z"/>
          <g>
            <polygon points="175.52 401.23 147.95 401.25 147.96 410.75 190.12 410.75 190.14 427.02 131.33 427.03 131.33 361.4 189.92 361.39 189.92 377.83 147.93 377.84 147.96 385.56 175.5 385.57 175.52 401.23"/>
            <polygon points="253.45 410.75 253.49 427.03 197.29 427.02 197.3 361.4 213.41 361.41 213.4 410.75 253.45 410.75"/>
          </g>
        </g>
        <g>
          <path d="M132.75,323.66c-4.21-13.7.9-27.27,7.46-39.35,4.41-7.86,9.46-14.91,15.14-22.31l-16.34-11.34,12.01-19.68,20.35,15.71-23.28,32.34c-8.56,13.11-15.09,27.57-8.68,43.09,2.89,6.99,8.58,11.96,15.89,13.81,3.22.81,6.38,1.02,9.75.88,6.71-.28,12.73-3.05,17.26-8.05,3.78-4.17,6.79-9.11,8.14-14.67s-3.39-13.9-5.99-18.59c-2.06-3.71-4.08-7.25-5.76-11.15-3.26-7.52-5.13-17.63.85-24.27,1.96-2.18,4.29-3.97,7.13-5.38-.28,3.88-.2,7.09.61,10.65,1.47,6.47,3.59,12.56,6.1,18.72,1.84,4.51,3.04,8.94,3.76,13.75,7.45,3.2,15.49,3.08,22.98.58.4-4.38-.45-8.29-2.46-11.98l-8.07-14.79c-2.89-5.29-5.62-10.33-7.9-15.91-4.61-11.26-4.25-25.75,7.57-32.68-.69,4.98-.11,9.38,1.39,13.93,2.03,6.13,4.51,11.85,7.02,17.83,5.54,13.22,10.45,26.77,7.21,41.62,14.73-7.34,15.39-33,15.13-46.87-3.3-10.8-4.3-21.95-3-33.12.36-3.13,2.25-10.93,6.51-10.21-1.14,11-1.52,22,.83,32.9,2.06,9.55,7.21,18.25,14.04,25.03,4.89,4.85,10.8,7.97,17.41,9.2,10.6,1.98,18.99-3.96,24.93-12.49-8.47-3.2-15.31-9.15-19.16-17.02-1.72-3.52-1.86-6.99-.55-10.61,1.98-5.43,4.42-10.52,7.21-15.59,1.91-3.48,4.46-6.24,7.82-8.35,5.74-3.61,13.17-2.51,17.52,2.71,1.48,1.78,2.16,4.12,1.78,6.35-.31,1.85-1.61,3.25-3.52,3.26-.64-3.28-2.42-6.16-5.25-7.97-5.03-3.21-10.07-.01-13.44,4.16,0,6.47,2.72,12.45,7.57,16.71,5.67,4.97,12.96,7.68,19.59,2.66,2.65-2,4.52-4.43,6.42-7.24.95.31,1.92.98,2.21,1.67.37.9.36,2.27-.12,3.19-3,5.79-6.14,11.22-9.96,16.54l-13.43,18.68c-1.82,2.53-3.87,4.68-6.13,6.78-4.03,3.75-8.96,6.01-14.44,6.66-13.54,1.62-26.49-5.09-35.26-15.03-2.08-2.35-3.18-4.9-4.74-7.86-.39,12.85-1.73,25.94-9.75,35.88-9.88,11.86-23.89,12.13-37.67,6.33-.51,10.53-3.66,20.5-9.59,28.95-7.67,10.93-19.74,14.82-32.61,12.36-10.84-2.07-19.25-9.87-22.48-20.39Z"/>
          <path d="M321.44,263.22c-.67-.28-.79-1.48-.5-2.07.25-.5,1.21-.93,1.94-.74,11.62,3.06,23.41-3.89,28.13-14.49,1.84-4.13,2.32-8.42,1.6-12.89-.88-5.43-2.17-10.58-4.13-15.76l-8.36-22.1c-1.74-4.6-3.65-8.88-4.87-13.67-1.75-6.88-1.23-14.11.78-20.85,1.82-6.09,6.49-12.26,13.18-12.69.27-.02.96.3,1.16.46.83.65-3.15,1.47-4.86,6.34-1.68,4.78-1.4,9.8.32,14.62s3.58,8.85,5.57,13.33c2.9,6.54,5.45,12.89,7.3,19.82,3.9,14.57,3.31,29.67-2.19,43.7-1.49,3.8-3.35,7.16-5.88,10.29-7.26,8.98-18.52,11.06-29.19,6.67Z"/>
        </g>
      </g>
      <path d="M12.89,474.89l-3.9.02-.12-9.61c-.02-1.35-1.71-1.77-2.7-1.6-.91.16-2.11,1.1-2.11,2.28l-.06,8.92-3.91.03-.02-14.16,3.84-.06.3,1.75c1-1.2,2.46-2,3.97-2.05,1.76-.06,3.15.64,4.18,2.29,1.85-2.19,4.88-3.07,7.38-1.54,1.35.83,2.02,2.67,2.02,4.24v9.52s-3.86-.03-3.86-.03l-.13-9.51c-.02-1.38-1.64-1.85-2.63-1.69-1.16.19-2.21,1.17-2.22,2.56l-.03,8.65Z"/>
      <path d="M381.68,465.43c-.02-1.51-1.7-1.92-2.72-1.75-.84.14-2.11,1.07-2.12,2.22l-.08,8.99-3.87-.04c-.63-3.61,1.83-12.58-3.13-11.09-.89.27-1.82,1.31-1.82,2.48l-.04,8.67-3.92-.02v-14.17s3.81,0,3.81,0l.27,1.74c1.16-1.31,2.64-2.04,4.23-2.06,1.72-.02,3.02.81,3.99,2.29,1.83-2.16,4.61-2.93,7.08-1.7,1.24.62,2.26,2.34,2.27,3.8l.06,10.1h-3.91s-.1-9.46-.1-9.46Z"/>
      <path d="M123.57,464.34c1.38,4,.44,9.93-4.53,10.8-2.22.39-4.32-.43-5.56-2.17,0,.77-.13,1.85-.48,1.97l-3.54-.05v-20.51s3.92-.04,3.92-.04l.09,8.28c1.69-1.8,3.54-2.49,5.69-2.09,1.93.37,3.68,1.71,4.41,3.82ZM119.62,470.76c.57-1.94.76-3.75.03-5.51-.57-1.36-2.03-1.95-3.33-1.79-1.2.14-2.38.99-2.75,2.33-.4,1.49-.4,3.22.24,4.66.47,1.05,1.74,1.65,2.71,1.7,1.15.06,2.14-.44,3.1-1.39Z"/>
      <path d="M49.43,473c-1.59,1.81-3.69,2.6-5.98,2.05-4.65-1.13-5.41-6.89-4.02-10.7.77-2.12,2.51-3.49,4.46-3.84,2.15-.39,4.23.17,5.66,2.12v-8.33s3.9.04,3.9.04v20.53s-3.73.05-3.73.05l-.28-1.93ZM49.02,464.91c-.51-1-1.79-1.49-2.79-1.5-.95,0-2.26.53-2.74,1.49-.9,1.79-.89,3.95-.04,5.68.68,1.38,2.23,1.76,3.61,1.45,2.91-.65,3.07-4.96,1.96-7.12Z"/>
      <path d="M171.61,470.47h3.72c-.44,3.21-3.08,4.56-5.99,4.74-2.19.14-4.34-.36-5.95-1.77s-2.27-3.53-2.24-5.83c.06-4.11,3.07-7.19,7.21-7.21,2.17,0,4.29.77,5.46,2.26,1.37,1.74,1.84,4.02,1.38,6.04l-9.95.03c-.07,1.91,1,3.21,2.32,3.51,1.64.38,3.34.23,4.05-1.78ZM171.48,466.28c-.03-2.37-1.48-3.2-3.28-3.11-1.46.07-2.83,1.22-2.87,3.12h6.15Z"/>
      <path d="M204.24,470.49c-.17,2.49-2.12,4.07-4.53,4.52-2.77.52-5.88.16-7.83-2.1-2.36-2.74-2.39-7.19-.04-10.01,2.52-3.03,7.27-3.34,10.27-.92,2.03,1.64,2.46,4.33,2.15,6.71l-10.07.04c0,1.99,1.11,3.29,2.54,3.56,1.69.32,3.29-.02,3.96-1.87l3.55.06ZM200.48,466.28c-.07-2.44-1.61-3.27-3.45-3.1-1.42.13-2.73,1.34-2.71,3.1h6.16Z"/>
      <path d="M37.68,470.51c-.29,2.53-2.12,3.99-4.47,4.47-2.74.56-5.84.23-7.83-1.98-2.48-2.76-2.51-7.35-.04-10.21,2.64-3.04,7.57-3.22,10.45-.55,1.79,1.66,2.09,4.02,1.96,6.43l-10.12.07c-.03,2.02,1.09,3.29,2.61,3.57,1.62.31,3.18-.08,3.88-1.89l3.57.08ZM33.89,466.27c-.06-2.38-1.53-3.24-3.37-3.1-1.43.1-2.79,1.33-2.79,3.1h6.16Z"/>
      <path d="M71.06,473.65c-1.9,1.82-5.09,2.21-7.38.53-1.31-.97-1.6-2.7-1.25-4.32.77-3.57,6.2-3.36,8.71-3.54.44-1.43-.36-2.94-1.67-3.03s-2.57.24-2.95,1.97h-3.63c0-1.95,1.1-3.49,2.89-4.22,1.95-.8,4.21-.84,6.25-.21,1.84.57,3.08,2.31,3.08,4.25l.04,9.79-3.56.09-.55-1.3ZM68.43,472.46c.94-.08,2.1-.59,2.42-1.17.37-.67.44-1.79.31-2.54-1.7-.05-5.42-.09-5.02,2.2.18,1.01,1,1.62,2.29,1.51Z"/>
      <path d="M210.23,466.26l-.07,8.64-3.91.02v-14.14s3.81-.07,3.81-.07l.29,1.78c1.86-2.18,4.99-2.86,7.43-1.16.99.69,1.78,2.4,1.78,3.65l.03,9.94-3.93-.02-.07-9.1c-.01-1.42-1.2-2.23-2.52-2.19-1.4.05-2.82.97-2.84,2.64Z"/>
      <path d="M133.95,473.63c-1.82,1.76-4.85,2.2-7.18.73-1.4-.88-1.79-2.55-1.55-4.22.53-3.78,6.01-3.67,8.69-3.82.55-1.09-.15-2.79-1.26-2.96-1.5-.23-2.89,0-3.24,1.89l-3.7-.05c.12-1.98,1.15-3.46,2.97-4.19s4.07-.8,6.04-.25,3.27,2.4,3.27,4.49v9.64s-3.37.03-3.37.03c-.21,0-.5-.81-.68-1.3ZM131.38,472.46c.95-.09,2.06-.65,2.38-1.22.35-.63.39-1.69.25-2.43-1.27-.04-2.41,0-3.69.24-.97.18-1.48,1.44-1.24,2.22s1.16,1.3,2.3,1.19Z"/>
      <path d="M334.55,473.27c-1.68,2.19-5.11,2.62-7.52,1-1.43-.96-1.73-2.71-1.37-4.45.74-3.51,6.18-3.35,8.68-3.51.48-1.23-.31-2.9-1.49-3.01-1.51-.14-2.73.22-3.13,1.97h-3.66c.32-4.5,4.89-5.34,8.56-4.64,2.08.4,3.7,2.16,3.71,4.32l.04,9.93-3.67.02-.16-1.64ZM331.56,472.47c.93-.05,2.1-.52,2.44-1.06.46-.72.5-1.6.47-2.64-1.37.02-2.36.05-3.74.26-.87.13-1.45,1.28-1.34,2.03.12.81.94,1.49,2.16,1.42Z"/>
      <path d="M259.85,470.49h3.63c-.57,4.34-5.33,5.18-8.7,4.52s-5.32-3.41-5.47-6.73c-.2-4.36,2.74-7.85,7.19-7.87,2.14,0,4.23.69,5.48,2.25,1.33,1.66,1.88,4.02,1.37,6.04l-9.9.02c-.2,1.71.86,3.16,2.22,3.52,1.78.47,3.39.12,4.18-1.74ZM259.63,466.24c.07-2-1.29-3.12-2.98-3.1s-3.08,1.14-3.18,3.14l6.16-.05Z"/>
      <path d="M398.01,470.49l3.57.02c-.3,2.51-2.02,3.91-4.31,4.43-2.79.63-6,.29-8.02-1.98-2.44-2.74-2.45-7.31-.02-10.14,2.62-3.05,7.54-3.24,10.44-.62,1.81,1.64,2.14,4.03,1.96,6.47l-10.02.04c-.26,1.66.85,3.16,2.18,3.51,1.81.48,3.39.09,4.22-1.74ZM397.74,466.26c.16-2.01-1.27-3.23-3.19-3.12-1.49.09-2.87,1.24-2.94,3.12h6.13Z"/>
      <path d="M300.65,470.71c.77-.44,2.54-.31,3.58-.15-.6,4.3-5.37,5.1-8.65,4.45s-5.35-3.41-5.5-6.74c-.19-4.35,2.73-7.85,7.17-7.87,2.14-.01,4.24.69,5.48,2.23,1.35,1.67,1.89,4.05,1.38,6.06l-9.89.02c-.18,1.6.76,2.99,1.95,3.43,1.77.65,3.36.25,4.48-1.43ZM300.45,466.23c-.09-2.35-1.59-3.19-3.28-3.08-1.56.1-2.8,1.23-2.94,3.13l6.22-.06Z"/>
      <path d="M416.93,474.88h-3.96s-.16-9.58-.16-9.58c-.03-1.51-1.99-1.82-3.02-1.62-1.32.25-2.26,1.38-2.26,2.9l-.02,8.31h-3.94s0-14.15,0-14.15l3.82-.02.28,1.78c1.12-1.27,2.43-1.98,4.22-2.1,2.54-.16,4.88,1.59,4.91,4.3l.12,10.18Z"/>
      <path d="M144.65,466.39l-.06,8.52h-3.9s-.01-14.1-.01-14.1l3.8-.11.28,1.81c1.72-2.01,4.69-2.86,7.21-1.35,1.19.71,2.02,2.47,2.03,3.9l.02,9.87-3.92-.03-.14-9.52c-.02-1.5-1.86-1.87-2.94-1.71-1.24.18-2.36,1.24-2.37,2.72Z"/>
      <path d="M274.87,474.93l-.08-9.06c-.01-1.39-1.07-2.25-2.39-2.26-1.55,0-2.96,1-2.97,2.65l-.07,8.63h-3.93s0-14.11,0-14.11l3.84-.1.26,1.85c1.08-1.31,2.42-2.01,4.18-2.13,2.73-.19,4.98,1.74,5,4.59l.07,9.88-3.92.05Z"/>
      <path d="M361.35,474.88l-3.94.02c-.06-3.37.02-6.44-.2-9.69-.11-1.6-2.26-1.77-3.35-1.46-1.3.38-1.93,1.65-1.93,3.15v7.98s-3.95,0-3.95,0v-14.13s3.81-.07,3.81-.07l.31,1.81c1.04-1.23,2.37-1.97,4.12-2.1,2.72-.21,5.01,1.71,5.04,4.55l.09,9.92Z"/>
      <path d="M96.28,460.71v14.18s-3.55.03-3.55.03c-.32-.36-.41-1.36-.41-2.03-.9,1.52-2.59,2.32-4.51,2.34-2.46.02-4.68-1.71-4.7-4.34l-.06-10.15h3.85s.16,9.67.16,9.67c.02,1.46,1.79,1.86,2.82,1.73s2.41-1.04,2.42-2.32l.1-9.06,3.87-.04Z"/>
      <path d="M242.97,471.49c-.62,4.01-6.2,4.29-9.08,3.2-1.82-.69-2.89-2.04-2.96-4.19h3.62c.38,1.82,1.66,2.11,3.24,1.91.62-.08,1.42-.73,1.49-1.35.38-3.05-9.09-.17-8.04-6.97.53-3.46,5.04-4.25,8.2-3.33,1.84.54,2.99,1.89,3.17,4.01l-3.54.04c-.41-1.43-1.38-1.86-2.88-1.66-.54.07-1.29.75-1.36,1.29-.24,1.9,3.51,1.2,6.52,2.75,1.64.84,1.86,2.75,1.63,4.3Z"/>
      <polygon points="186.43 460.78 190.23 460.79 185.1 474.95 180.65 474.89 175.52 460.79 179.72 460.76 183.09 470.74 186.43 460.78"/>
      <path d="M229.76,471.8l.04,3.05c-1.53.38-3.02.49-4.5.01-1.55-.5-2.45-2.09-2.46-3.68l-.05-7.5-1.77-.25.04-2.56,1.74-.44.04-2.73,3.85-.07.09,3.03,2.92.11v2.71s-2.98.13-2.98.13l.08,7.22c.01,1.14,1.43,1.44,2.96.97Z"/>
      <path d="M288.84,471.96c.13.41.17,1.95.09,2.86-1.65.53-3.45.53-4.96-.21-1.35-.67-1.92-2.23-1.93-3.69l-.06-7.33-1.42-.1c-.29-.02-.44-.83-.4-1.13l.19-1.44c.04-.29.85-.18,1.57-.22l.18-3.02h3.81s.08,2.98.08,2.98l2.83.08.1,2.73-2.96.15v6.68c-.02.38.29,1.35.63,1.5.39.18.98.17,2.27.16Z"/>
      <path d="M427.12,471.82l-.05,3.04c-1.72.45-3.37.52-4.94-.23-1.2-.57-1.92-2.06-1.94-3.39l-.08-7.66-1.39-.07c-.29-.01-.48-.86-.44-1.17l.21-1.44c.04-.29.86-.17,1.55-.2l.16-3.04,3.84.03.09,2.98,2.84.09c.06.67.06,2.09,0,2.74l-2.91.12.1,7.32c.02,1.16,1.55,1.29,2.94.88Z"/>
      <path d="M324.24,471.81l.07,2.98c-1.76.57-3.51.62-5.14-.25-1.09-.58-1.78-2.03-1.79-3.28l-.07-7.68-1.53-.12c-.26-.02-.32-.86-.29-1.12l.14-1.38c.03-.34.96-.23,1.62-.26l.18-3.03h3.77s.08,2.96.08,2.96l2.89.15.02,2.73-2.95.09.08,7.24c.01,1.14,1.37,1.47,2.92.98Z"/>
      <path d="M107.58,464.26c-2.67-.24-4.53.96-4.54,3.31l-.05,7.33-3.89.05-.02-14.19,3.84-.02.23,2.18c1.18-1.44,2.21-2.43,4.42-2.35l.02,3.7Z"/>
      <path d="M314.68,464.26c-2.39-.23-4.44.79-4.47,2.97l-.11,7.67h-3.88s-.01-14.1-.01-14.1l3.84-.1.23,2.61c.83-1.79,2.33-2.91,4.46-2.68l-.05,3.64Z"/>
      <rect x="56.36" y="460.71" width="3.92" height="14.21"/>
      <rect x="336.01" y="465.85" width="14.22" height="3.92" transform="translate(-124.77 810.83) rotate(-89.99)"/>
      <circle cx="58.31" cy="456.66" r="2.19"/>
      <circle cx="343.11" cy="456.66" r="2.19"/>
    </g>
  </g>
</svg>