<?xml version="1.0" encoding="UTF-8"?>
<svg id="Layer_2" data-name="Layer 2" xmlns="http://www.w3.org/2000/svg" viewBox="0 0 376.79 91.8">
  <defs>
    <style>
      .cls-1 {
        fill: #7c0040;
      }

      .cls-2 {
        fill: #00afef;
      }

      .cls-3 {
        fill: #939598;
      }
    </style>
  </defs>
  <g id="Layer_1-2" data-name="Layer 1">
    <rect x="210.55" y="32.06" width="4.28" height="4.63"/>
    <path d="M219.46,54.37c0,3.64-1.69,5.93-5.58,5.93h-9.46c-3.88,0-5.33-2.19-5.33-5.93v-13.24h-4.23v13.44c0,6.13,3.68,9.86,9.91,9.86h9.11c6.18-.05,9.81-3.73,9.81-9.86v-13.44h-4.23v13.24Z"/>
    <rect x="203.83" y="32.06" width="4.28" height="4.63"/>
    <path d="M262.55,54.37c0,4.88-.9,5.93-3.59,5.93h-2.27v-19.17h-4.28v19.17h-5.86v-18.92h-4.13v18.92h-3.68c-3.93,0-5.97-2.19-5.97-5.93l.05-23.72h-4.28v23.92c0,5.76,3.48,9.4,9.11,9.82l-3.39.04h21.47c8.17,0,11.11-2.74,11.11-7.97v-15.34h-4.28v13.24Z"/>
    <rect x="309.6" y="68.76" width="4.23" height="4.63"/>
    <rect x="302.82" y="68.76" width="4.28" height="4.63"/>
    <path d="M340.02,60.29h-4.63v-16.73c2.64.5,4.63,2.29,4.63,7.12v9.61ZM331.16,60.29h-4.63v-9.61c0-4.83,1.99-6.62,4.63-7.12v16.73ZM372.5,41.12v13.25c0,4.88-.9,5.93-3.59,5.93h-2.27v-19.17h-4.28v19.17h-5.86v-18.92h-4.13v18.92h-8.06v-9.61c0-6.12-2.84-10.26-8.91-11.05v-3.98h-4.23v3.98c-6.08.8-8.91,4.93-8.91,11.05v9.61h-2.74c-3.54,0-5.73-1.69-5.73-4.73v-14.44h-4.28v14.29c0,3.04-1.89,4.88-5.08,4.88h-.05c-3.24,0-5.58-1.49-5.58-4.28v-25.36h-4.33v32.68c0,3.64-1.59,5.93-5.43,5.93s-5.53-2.29-5.53-5.93v-9.41h-4.28v9.61c0,5.88,3.93,9.86,9.16,9.86.4.05.65,0,1.24,0,5.23-.1,9.16-3.93,9.16-9.81v-.65c1.34.85,2.95,1.37,4.88,1.47v.02h1.49v-.02c2.92-.15,5.2-1.23,6.67-3.17,1.52,1.89,3.89,2.97,6.92,3.16v.03h50.3c4.78,0,7.72-2.74,7.72-7.97v-15.34h-4.28Z"/>
    <path class="cls-3" d="M198.5,85.79l-.37-2.25c-.13.23-.31.48-.54.76-.16.1-.45.22-.86.36-.42.14-.72.28-.91.42.17.19.38.32.63.39.39.14.69.23.91.27.21.04.38.05.5.05h.65ZM200.66,88.12h-1.1c-.09,0-.19-.03-.3-.09-.22-.11-.38-.29-.48-.54-.04-.09-.09-.4-.15-.95-.01-.13-.05-.25-.11-.37-.14.06-.28.19-.41.41-.07.15-.15.3-.24.46-.06.09-.14.13-.24.13-.09,0-.58-.12-1.49-.37-.26-.06-.45-.11-.58-.17-.26-.09-.49-.21-.69-.37.17-1.02.58-1.81,1.21-2.35.19-.17.5-.33.95-.48.55-.17.89-.29,1.02-.37-.04-.17-.06-.42-.04-.73.06-.16.35-.53.86-1.12.13,1.15.33,2.89.61,5.21,0,.07.02.14.07.2.14.17.41.26.8.26h.32v1.25ZM198.79,79.89l-.58.93c-.19-.08-.64-.33-1.36-.75-.07.06-.23.3-.48.73-.16-.08-.41-.22-.75-.4-.34-.18-.59-.32-.75-.4l.59-1.03c.33.2.79.45,1.38.76.04-.07.2-.33.48-.76l1.47.92Z"/>
    <path class="cls-3" d="M205.31,90.26c-.23.48-.42.83-.58,1.06-.32-.19-.79-.45-1.43-.78-.09.14-.23.38-.43.69l-1.49-.82c.23-.48.44-.84.63-1.08.26.13.75.42,1.47.86.09-.16.23-.4.43-.73.11.04.58.31,1.4.8M205.57,88.12h-1.02c-.09-.16-.23-.4-.43-.73-.06.04-.24.29-.56.73h-3.26v-1.25h3.74s.02-.08.02-.15c0-.17-.04-.48-.11-.92-.07-.44-.11-.67-.11-.68,0-.11.15-.37.45-.78.29-.4.46-.61.51-.63,0,.12.02.32.07.63.04.3.07.47.07.52v1.21s0,.14.02.32c.01.19.03.35.04.47h.58v1.25Z"/>
    <path class="cls-3" d="M213.26,86.87l-.61,1.25h-7.78v-1.25h1.99c-.07,0-.17-.19-.3-.56v-.52c.26-.58.62-1.11,1.08-1.6.52-.53,1.04-.88,1.58-1.04.3-.1.56-.15.78-.15.13,0,.27.04.41.11.6.3,1.07.91,1.38,1.82l-.04.19c-.27-.19-.68-.42-1.23-.71-.24-.1-.51-.15-.78-.15-.22,0-.6.09-1.15.26-.66.22-.99.45-.99.7,0,.13.04.25.13.35.16.22.69.61,1.6,1.18.09.06.21.1.37.13h3.57Z"/>
    <path class="cls-3" d="M218.23,88.12h-2.59l-.71-8.99c0-.17,0-.27.02-.28.1-.17.4-.55.89-1.12.04.33.16,1.78.35,4.34.12,1.43.27,2.82.48,4.17.07.42.5.63,1.3.63h.28v1.25Z"/>
    <path class="cls-3" d="M223.01,80.21c-.07.15-.18.36-.33.65-.15.29-.26.5-.33.63-.51-.25-1.07-.56-1.69-.95l.65-1.21,1.71.89ZM223.48,88.12h-1.04c-.1,0-.33-.24-.69-.73-.16.23-.29.48-.39.73h-3.52v-1.25h3.35c.16-.21.27-.58.32-1.1.07-.66.11-1.02.13-1.06.03-.13.2-.35.52-.66.32-.31.59-.54.82-.7v.63l-.58,2.29c0,.36.26.56.78.6h.3v1.25Z"/>
    <path class="cls-3" d="M228.37,86.89h-.39v1.23h.17-1.92c-.07-.1-.17-.24-.3-.43-.29.29-.48.43-.58.43h-2.46v-1.23h2.7c.27,0,.42-.21.45-.63.01-.22.02-.44.02-.67.36-.39.75-.79,1.17-1.2-.03.37-.07.74-.11,1.1-.07.56-.21.97-.41,1.21.07.13.32.19.73.19h.93Z"/>
    <path class="cls-3" d="M236.68,86.55c0-.2-.25-.48-.76-.84-.4-.3-.68-.48-.82-.52-.27-.09-.56-.13-.86-.13-.63,0-1.4.23-2.29.69-.71.38-1.42.75-2.14,1.12h6.44c.06,0,.14-.04.26-.11.11-.07.17-.14.17-.22M238.61,88.12h-11.26v-1.25h.82c.68-.21,1.87-.83,3.59-1.86,1.41-.84,2.5-1.25,3.26-1.25.53,0,1.15.22,1.86.65.79.48,1.19.98,1.19,1.51,0,.04-.07.17-.22.39-.19.3-.3.49-.35.56h1.1v1.25Z"/>
    <path class="cls-3" d="M242.35,80.17c-.23.52-.48,1.01-.73,1.47l-.09-.07.39,4.17c0,.2-.02.42-.06.67-.04.29-.09.58-.13.86-.06.33-.17.61-.35.84h-3.3v-1.25c2.41-.03,3.42-.03,3.05,0,0-.03.01-.07.03-.12.02-.05.03-.17.03-.36,0-.13-.04-.54-.13-1.23-.04-.42-.09-.75-.13-.99-.09-.72-.23-1.74-.43-3.07-.07-.06-.17-.16-.28-.3-.04-.04-.07-.12-.07-.24,0-.13.02-.23.07-.3.16-.33.42-.79.8-1.38h.22c.01.06.01.15,0,.28l-.04.22c0,.12.05.2.15.26.23.13.57.31,1.02.54"/>
    <path class="cls-3" d="M245.48,85.9c0,.65-.21,1.39-.63,2.23l-.8-8.04c0-.37.32-1.07.97-2.1l.45,7.91Z"/>
    <path class="cls-3" d="M255.72,86.68c0,.56-.08,1.04-.24,1.43-.53,1.38-1.25,2.3-2.16,2.74-.26.11-.49.17-.69.17-.19,0-.44-.04-.76-.13-.66-.22-1.04-.34-1.15-.37-.52-.2-.93-.44-1.23-.71v-.2s.07-.06.13-.06c.03,0,.24.08.64.24.4.16.7.27.9.32.13.03.24.04.35.04.36,0,.83-.19,1.4-.56.36-.23.77-.59,1.22-1.08.45-.49.75-.9.88-1.22.13-.32.2-.55.2-.68,0-.1,0-.17-.02-.2-.03-.23-.24-.54-.63-.93-.04-.04-.37-.29-.99-.76.07-.36.19-.86.35-1.49.47.29.88.68,1.2,1.17.33.49.51.96.55,1.4.04.36.07.65.07.86"/>
    <path class="cls-3" d="M260.84,88.12h-2.59l-.71-8.99c0-.17,0-.27.02-.28.1-.17.4-.55.89-1.12.04.33.16,1.78.35,4.34.11,1.43.27,2.82.48,4.17.07.42.5.63,1.3.63h.28v1.25Z"/>
    <path class="cls-3" d="M266.27,86.77c-.06-.22-.12-.46-.18-.7-.07-.24-.16-.43-.29-.56-.07-.07-.18-.11-.32-.11-.13,0-.32.04-.56.11-.33.08-.57.27-.71.55.24.17.61.38,1.1.63.27.13.48.19.61.19s.25-.03.37-.1M268.08,88.12h-.99c-.04.09-.11.22-.19.41-.09.19-.15.33-.2.41l-3.2-1.69c-.11,0-.23.1-.35.3-.06.14-.12.29-.19.43-.06.09-.12.13-.17.13h-2.36v-1.25h2.31c.1,0,.2-.05.31-.16.11-.11.21-.32.3-.65.09-.32.2-.56.33-.7.46-.52,1.04-.89,1.73-1.1.39-.13.63-.19.74-.19.17,0,.27.06.3.19,0,.17.03.41.08.71.05.3.17.66.36,1.06.1.23.28.51.54.84h.65v1.25Z"/>
    <path class="cls-3" d="M272.47,84.34c-.09-.19-.24-.42-.45-.69-.27-.36-.5-.54-.69-.54-.14,0-.37.13-.67.38-.3.25-.43.47-.39.66.43.29.79.43,1.06.43.16,0,.54-.08,1.15-.24M272.02,79.93l-.6,1.05-1.39-.79c-.09.04-.17.14-.26.3-.13.26-.2.39-.22.39-.32-.14-.83-.42-1.54-.82l.62-1.1,1.51.89.43-.78,1.43.86ZM273.89,85.83c0,.23-.06.63-.17,1.21-.16.72-.32,1.08-.5,1.08h-5.86v-1.25h5.77c.01-.06.02-.15.02-.28,0-.73-.17-1.35-.5-1.84-.14.19-.37.45-.67.8-.26.25-.68.37-1.25.37-.27,0-.58-.08-.91-.24-.4-.2-.61-.45-.61-.76,0-.42.35-1.02,1.04-1.8.69-.79,1.29-1.18,1.79-1.18.3,0,.59.22.86.65.65,1.08.97,2.16.97,3.24"/>
    <path class="cls-3" d="M277.24,76.37c-.09.17-.21.35-.37.54-.56-.03-1.39.27-2.49.91v-.15c-.01-.09.31-.34.97-.76-.29-.04-.64-.16-1.06-.35-.04-.04-.07-.11-.07-.22,0-.39.19-.74.56-1.05.38-.31.75-.47,1.12-.47.2,0,.34.02.41.07.01,0,.07.04.15.13,0,.16-.07.36-.2.61.01,0-.05-.04-.2-.13-.15-.09-.29-.13-.4-.13-.17,0-.36.04-.56.11-.26.12-.39.25-.39.41,0,.03,0,.05.02.07.14.11.27.18.37.19.43.09,1.14.16,2.12.22"/>
    <path class="cls-3" d="M285.78,88.12h-2.85c-.01-.66-.04-1.33-.07-1.99-.04-.76-.14-1.35-.3-1.77-.09.1-.33.58-.73,1.43-.17.33-.43.72-.76,1.17-.63.82-1.45,1.42-2.44,1.79-.48.19-1.35.4-2.61.63l-.52-.04c0-.06.03-.11.09-.15.27-.16.94-.53,1.99-1.12.63-.36,1.23-.75,1.77-1.17.19-.14.42-.35.71-.6,0-.01.03-.04.08-.06.05-.03.08-.07.08-.11,0-.06-.07-.33-.2-.82-.3-1.15-.95-2.17-1.94-3.05-.06.09-.14.21-.26.39-.66-.2-1.26-.63-1.79-1.27-.04-.04-.06-.16-.06-.35,0,.16.15-.4.45-1.66h.17c.09-.02.37.16.84.52.91.71,1.61,1.45,2.12,2.25.16.25.32.55.48.91.42.92.6,1.74.54,2.44l.02.32c.53-.5.99-1.09,1.38-1.75.33-.56.5-.96.5-1.19l-.22-3.02c0-.07.04-.16.11-.26.19-.24.46-.61.82-1.1.04.39.09.88.14,1.48.05.6.12,1.47.21,2.62.03.23.06.57.08,1.04.09,1.24.17,2.18.26,2.81,0,.09.02.16.07.22.14.16.27.24.37.24h1.49v1.25Z"/>
    <path class="cls-3" d="M289.43,80.17c-.23.52-.48,1.01-.74,1.47l-.09-.07.39,4.17c0,.2-.02.42-.07.67-.04.29-.09.58-.13.86-.06.33-.17.61-.35.84h-3.31v-1.25c2.41-.03,3.42-.03,3.05,0,0-.03.01-.07.03-.12.02-.05.03-.17.03-.36,0-.13-.04-.54-.13-1.23-.04-.42-.09-.75-.13-.99-.09-.72-.23-1.74-.43-3.07-.07-.06-.17-.16-.28-.3-.04-.04-.07-.12-.07-.24,0-.13.02-.23.07-.3.16-.33.42-.79.8-1.38h.22c.01.06.01.15,0,.28l-.04.22c0,.12.05.2.15.26.23.13.57.31,1.02.54"/>
    <path class="cls-3" d="M297.1,85.79l-.37-2.25c-.13.23-.31.48-.54.76-.16.1-.45.22-.86.36-.42.14-.72.28-.91.42.17.19.38.32.63.39.39.14.69.23.91.27.22.04.38.05.5.05h.65ZM299.26,88.12h-1.1c-.09,0-.19-.03-.3-.09-.22-.11-.37-.29-.48-.54-.04-.09-.09-.4-.15-.95-.01-.13-.05-.25-.11-.37-.14.06-.28.19-.41.41-.07.15-.15.3-.24.46-.06.09-.14.13-.24.13-.09,0-.58-.12-1.49-.37-.26-.06-.45-.11-.58-.17-.26-.09-.49-.21-.69-.37.17-1.02.58-1.81,1.21-2.35.19-.17.5-.33.95-.48.55-.17.89-.29,1.02-.37-.04-.17-.06-.42-.04-.73.06-.16.35-.53.86-1.12.13,1.15.33,2.89.6,5.21,0,.07.02.14.07.2.14.17.41.26.8.26h.32v1.25ZM297.38,79.89l-.58.93c-.19-.08-.64-.33-1.36-.75-.07.06-.23.3-.48.73-.16-.08-.41-.22-.75-.4-.34-.18-.59-.32-.75-.4l.59-1.03c.33.2.79.45,1.38.76.04-.07.2-.33.48-.76l1.47.92Z"/>
    <path class="cls-3" d="M302.99,90.53c-.09.2-.28.53-.58.98-.18-.1-.63-.37-1.32-.8-.11.2-.28.46-.49.8l-1.47-.89.62-1.08,1.34.82c.1-.15.26-.4.47-.72l1.42.88ZM303.37,86.01c0,.07-.12.78-.35,2.12h-4.11v-1.25h3.72c-.01-.26-.11-.63-.28-1.1-.04-.13-.16-.37-.34-.71-.16-.3-.24-.47-.24-.5,0-.13.24-.55.71-1.27.22.46.48,1.09.78,1.88.07.29.11.57.11.84"/>
    <path class="cls-3" d="M311.32,88.12h-.69c-.09,0-.23-.06-.44-.19-.21-.13-.35-.24-.42-.32,0,.61-.37,1.44-1.1,2.51-.78,1.12-1.48,1.69-2.1,1.69-.3,0-.9-.19-1.79-.56-.72-.3-1.19-.52-1.4-.65v-.19s.04-.01.08-.03c.04-.02.08-.03.12-.03.02,0,.26.09.72.28.47.19.82.28,1.05.28.62,0,1.41-.49,2.38-1.47.96-.98,1.45-1.69,1.45-2.12,0-.12-.2-.44-.61-.97-.36-.46-.59-.74-.69-.82l.71-1.27c.34.5.69,1.01,1.04,1.53.46.6.91.97,1.36,1.1h.35v1.25Z"/>
    <path class="cls-3" d="M319.85,86.61c.03-.2-.14-.48-.5-.83-.32-.29-.6-.49-.84-.6-.24-.11-.48-.17-.71-.17-.19,0-.39.04-.6.11-.3.09-.76.39-1.37.91-.61.52-1.03.8-1.24.84h4.15c.13.02.37,0,.71-.04.16-.03.29-.1.41-.22M321.47,88.12h-10.85v-1.25h1.77c.22,0,.46-.05.73-.15.35-.14.52-.32.52-.52,0-.01-.03-.21-.08-.57-.05-.37-.08-.65-.1-.84-.01-.2-.04-.49-.09-.9-.04-.79-.14-1.91-.3-3.35-.1-.09-.22-.22-.34-.39-.02-.01-.02-.08-.02-.2s.04-.24.13-.39c.14-.32.43-.78.86-1.38.07.03.14.08.19.15-.09.35-.13.49-.13.43,0,.1.06.18.17.24.24.14.63.36,1.15.65l-.76,1.51s-.04,0-.08-.02c-.04-.02-.07-.02-.09-.02l.15,2.64s0,.13-.02.33c-.02.21-.02.36-.02.44,0,.35-.04.68-.11.99-.09.43-.14.7-.15.8.4-.16,1.06-.61,1.97-1.34.84-.68,1.56-1.11,2.18-1.3h.3c.45,0,.96.24,1.53.74.58.49.87.98.87,1.47,0,.09-.1.41-.3.97h.91v1.25Z"/>
    <path class="cls-3" d="M326.66,86.21c0-.26-.09-.53-.26-.8-.17-.26-.42-.4-.73-.4-.14,0-.24,0-.28.02-.17.04-.37.12-.58.24-.34.21-.52.41-.52.62,0,.12.1.29.29.51s.36.35.51.38c.33.06.51.09.54.09.17,0,.37-.05.6-.15.29-.15.43-.32.43-.51M327.22,80.86c-.13.21-.32.58-.56,1.08l-1.45-.82c-.16.23-.3.48-.43.74-.33-.19-.84-.47-1.53-.84.11-.23.32-.61.63-1.15l1.51.95.43-.82,1.41.87ZM327.96,88.12h-7v-1.25h2.38c0-.21.05-.51.15-.88.27-.49.76-1.01,1.45-1.56.75-.59,1.35-.89,1.81-.89.26,0,.48.27.67.82.13.42.19.72.19.91,0,.35-.24.88-.73,1.6h1.08v1.25Z"/>
    <path class="cls-3" d="M331.82,80.17c-.23.52-.48,1.01-.73,1.47l-.09-.07.39,4.17c0,.2-.02.42-.06.67-.04.29-.09.58-.13.86-.06.33-.17.61-.35.84h-3.3v-1.25c2.41-.03,3.42-.03,3.05,0,0-.03.01-.07.03-.12.02-.05.03-.17.03-.36,0-.13-.04-.54-.13-1.23-.04-.42-.09-.75-.13-.99-.09-.72-.23-1.74-.43-3.07-.07-.06-.17-.16-.28-.3-.04-.04-.07-.12-.07-.24,0-.13.02-.23.07-.3.16-.33.42-.79.8-1.38h.22c.01.06.01.15,0,.28l-.04.22c0,.12.05.2.15.26.23.13.57.31,1.02.54"/>
    <path class="cls-3" d="M334.96,85.9c0,.65-.21,1.39-.63,2.23l-.8-8.04c0-.37.32-1.07.97-2.1l.45,7.91Z"/>
    <path class="cls-3" d="M343.69,85.79l-.37-2.25c-.13.23-.31.48-.54.76-.16.1-.45.22-.86.36-.42.14-.72.28-.91.42.17.19.38.32.63.39.39.14.69.23.91.27.21.04.38.05.5.05h.65ZM345.85,88.12h-1.1c-.09,0-.19-.03-.3-.09-.22-.11-.37-.29-.48-.54-.04-.09-.09-.4-.15-.95-.01-.13-.05-.25-.11-.37-.14.06-.28.19-.41.41-.07.15-.15.3-.24.46-.06.09-.14.13-.24.13-.09,0-.58-.12-1.49-.37-.26-.06-.45-.11-.58-.17-.26-.09-.49-.21-.69-.37.17-1.02.58-1.81,1.21-2.35.19-.17.5-.33.95-.48.55-.17.89-.29,1.01-.37-.04-.17-.06-.42-.04-.73.06-.16.35-.53.86-1.12.13,1.15.33,2.89.61,5.21,0,.07.02.14.06.2.14.17.41.26.8.26h.32v1.25ZM343.97,79.89l-.58.93c-.19-.08-.64-.33-1.36-.75-.07.06-.23.3-.48.73-.16-.08-.41-.22-.75-.4-.34-.18-.59-.32-.75-.4l.59-1.03c.33.2.79.45,1.38.76.04-.07.2-.33.48-.76l1.47.92Z"/>
    <path class="cls-3" d="M352.03,78.87c-.09.23-.22.58-.39,1.06-1.14.42-2.72,1.07-4.75,1.95.99.78,1.68,1.33,2.05,1.66.86.75,1.47,1.4,1.82,1.95.07.12.13.22.17.32.1.2.15.4.15.58,0,.35-.08.76-.24,1.23-.03.11-.12.28-.28.5h-5.06v-1.25h4.93c-.19-.5-.59-1.03-1.21-1.58-.14-.13-.68-.54-1.62-1.23-.14.23-.25.35-.32.35-.04,0-.13-.06-.26-.17-.45-.38-.75-.71-.91-1.01-.03-.07-.04-.16-.04-.26,0-.13.02-.27.04-.41.14-.49.34-1.03.58-1.62.27-.17.64-.37,1.1-.58,2.12-.99,3.22-1.48,3.31-1.47h.93Z"/>
    <path class="cls-3" d="M359.83,88.12h-.69c-.09,0-.23-.06-.44-.19-.21-.13-.35-.24-.42-.32,0,.61-.37,1.44-1.1,2.51-.78,1.12-1.48,1.69-2.1,1.69-.3,0-.9-.19-1.79-.56-.72-.3-1.19-.52-1.4-.65v-.19s.04-.01.08-.03c.04-.02.08-.03.12-.03.02,0,.26.09.72.28.47.19.82.28,1.05.28.62,0,1.41-.49,2.38-1.47.96-.98,1.45-1.69,1.45-2.12,0-.12-.2-.44-.61-.97-.36-.46-.59-.74-.69-.82l.71-1.27c.34.5.69,1.01,1.04,1.53.46.6.91.97,1.36,1.1h.35v1.25Z"/>
    <path class="cls-3" d="M364.6,86.89h-.39v1.23h.17-1.92c-.07-.1-.17-.24-.3-.43-.29.29-.48.43-.58.43h-2.46v-1.23h2.7c.27,0,.42-.21.45-.63.01-.22.02-.44.02-.67.36-.39.75-.79,1.17-1.2-.03.37-.06.74-.11,1.1-.07.56-.21.97-.41,1.21.07.13.32.19.73.19h.93Z"/>
    <path class="cls-3" d="M366.24,79.91l-.58,1.11-1.45-.82c.06-.1.15-.27.26-.5.11-.23.2-.4.26-.5l1.51.71ZM369.83,88.12h-1.95c-.51,0-.84-.03-1.02-.09-.07-.03-.18-.09-.34-.17-.15-.09-.25-.13-.29-.13-.03,0-.1.05-.22.14-.12.09-.2.15-.24.16-.2.06-.36.09-.47.09h-1.53v-1.25h2.33c.06,0,.09-.14.09-.43-.02-.36-.02-.57,0-.63.07-.22.48-.6,1.21-1.14l-.48,1.92c-.04.17.22.27.8.28h.89c.01-.16-.02-.42-.1-.78-.08-.36-.12-.52-.12-.48,0-.04.35-.45,1.04-1.21v1.88s-.03.21-.09.58h.48v1.25ZM367.68,82.12c-.12.21-.31.56-.56,1.02-.31-.17-.77-.43-1.4-.77-.03.03-.18.26-.44.69-.17-.09-.68-.35-1.5-.8.02-.04.22-.41.61-1.1.38.19.86.47,1.45.86.09-.04.18-.15.26-.32.12-.24.19-.38.22-.41l1.37.83Z"/>
    <path class="cls-3" d="M373.66,80.17c-.23.52-.48,1.01-.74,1.47l-.09-.07.39,4.17c0,.2-.02.42-.06.67-.04.29-.09.58-.13.86-.06.33-.17.61-.35.84h-3.31v-1.25c2.41-.03,3.42-.03,3.05,0,0-.03.01-.07.03-.12.02-.05.03-.17.03-.36,0-.13-.04-.54-.13-1.23-.04-.42-.09-.75-.13-.99-.09-.72-.23-1.74-.43-3.07-.07-.06-.17-.16-.28-.3-.04-.04-.07-.12-.07-.24,0-.13.02-.23.07-.3.16-.33.42-.79.8-1.38h.22c.01.06.01.15,0,.28l-.04.22c0,.12.05.2.15.26.23.13.57.31,1.02.54"/>
    <path class="cls-3" d="M376.79,85.9c0,.65-.21,1.39-.63,2.23l-.8-8.04c0-.37.32-1.07.97-2.1l.45,7.91Z"/>
    <path class="cls-3" d="M6.36,82.55c0-.57,0-1.04-.02-1.41-.02-.37-.05-.69-.1-.94-.05-.26-.12-.47-.21-.65-.09-.17-.2-.33-.34-.48-.2-.21-.44-.38-.73-.5-.29-.13-.6-.19-.94-.19s-.65.06-.94.19c-.29.13-.53.29-.73.5-.14.15-.25.31-.34.48-.09.17-.16.39-.2.65-.05.26-.08.57-.1.94-.02.37-.02.84-.02,1.41s0,1.04.02,1.41c.02.37.05.69.1.95.05.26.12.47.2.65.09.17.2.33.34.48.2.21.44.38.73.5.29.13.6.19.94.19.43,0,.81-.12,1.15-.36l-1.18-1.18.94-.94,1.09,1.09c.15-.28.24-.64.28-1.05.04-.42.05-.99.05-1.71M7.49,88.66l-1.12-1.12c-.32.23-.69.41-1.09.53-.4.12-.82.18-1.26.18-.6,0-1.14-.1-1.63-.31-.49-.21-.93-.5-1.31-.89-.27-.27-.48-.56-.63-.86-.15-.31-.25-.64-.32-.99-.07-.36-.11-.75-.12-1.19-.01-.44-.01-.92-.01-1.46s0-1.02.01-1.46c.01-.43.05-.83.12-1.19.07-.36.18-.69.32-.99.15-.3.36-.59.63-.86.39-.39.83-.68,1.31-.89.49-.2,1.03-.31,1.63-.31s1.14.1,1.64.31c.49.2.93.5,1.32.89.27.27.48.56.63.86.15.31.25.64.32.99s.1.75.11,1.19c0,.44.01.92.01,1.46,0,.47,0,.9,0,1.3,0,.39-.03.75-.08,1.08-.05.32-.12.63-.21.9-.1.28-.24.54-.43.79l1.1,1.09-.94.94Z"/>
    <path class="cls-3" d="M14.98,84.63h-1.87c-.47,0-.83.1-1.07.3-.24.2-.36.48-.36.85s.12.65.35.84c.24.19.61.29,1.11.29.3,0,.58-.02.82-.07.24-.05.47-.18.68-.39.23-.23.35-.62.35-1.18v-.65ZM15.01,88.15v-.72c-.3.29-.6.5-.91.63-.32.12-.72.19-1.21.19s-.93-.06-1.27-.18c-.34-.12-.63-.3-.87-.54-.42-.44-.63-1.01-.63-1.71s.23-1.22.68-1.65c.46-.43,1.15-.65,2.07-.65h2.11v-.57c0-.5-.13-.88-.4-1.12-.27-.25-.72-.37-1.35-.37-.44,0-.79.06-1.04.17-.25.12-.49.31-.71.6l-1.05-.99c.38-.44.78-.74,1.22-.9.43-.16.98-.25,1.64-.25,2.19,0,3.29.91,3.29,2.74v5.33h-1.57Z"/>
    <path class="cls-3" d="M21.76,88.15c-.38,0-.7-.06-.98-.19-.27-.13-.5-.29-.68-.49-.18-.2-.31-.44-.4-.71-.09-.27-.13-.54-.13-.83v-4.39h-.91v-1.23h.91v-2.42h1.6v2.42h1.54v1.23h-1.54v4.31c0,.29.07.52.21.68.14.16.36.24.67.24h.66v1.37h-.96Z"/>
    <path class="cls-3" d="M29.28,84.63h-1.87c-.47,0-.83.1-1.07.3-.24.2-.36.48-.36.85s.12.65.35.84c.24.19.61.29,1.11.29.3,0,.58-.02.82-.07.24-.05.47-.18.68-.39.23-.23.35-.62.35-1.18v-.65ZM29.32,88.15v-.72c-.29.29-.6.5-.91.63-.32.12-.72.19-1.21.19s-.93-.06-1.27-.18c-.34-.12-.63-.3-.87-.54-.42-.44-.63-1.01-.63-1.71s.23-1.22.68-1.65c.46-.43,1.15-.65,2.07-.65h2.11v-.57c0-.5-.13-.88-.4-1.12-.27-.25-.72-.37-1.35-.37-.44,0-.79.06-1.04.17-.25.12-.49.31-.71.6l-1.05-.99c.38-.44.78-.74,1.22-.9.43-.16.98-.25,1.64-.25,2.19,0,3.29.91,3.29,2.74v5.33h-1.57Z"/>
    <path class="cls-3" d="M38.08,82.05c-.18-.18-.35-.31-.53-.4-.17-.09-.4-.14-.67-.14-.44,0-.82.16-1.13.48-.31.32-.46.76-.46,1.31v4.85h-1.61v-7.98h1.57v.87c.21-.28.5-.51.88-.69.38-.18.79-.27,1.24-.27.39,0,.74.06,1.04.17.3.12.59.31.86.58l-1.21,1.21Z"/>
    <path class="cls-3" d="M55.19,84.96c0,.51-.1.98-.3,1.39-.2.41-.48.76-.83,1.04-.36.28-.78.5-1.27.65-.49.15-1.03.22-1.62.22-.85,0-1.59-.11-2.22-.33-.63-.22-1.21-.6-1.75-1.15l1.13-1.12c.41.41.84.69,1.31.84.46.15.98.23,1.56.23.73,0,1.3-.15,1.71-.45.4-.3.61-.72.61-1.27,0-.51-.15-.9-.44-1.16-.15-.14-.3-.24-.47-.3-.17-.06-.42-.12-.76-.17l-1.32-.19c-.91-.12-1.62-.42-2.12-.9-.55-.51-.82-1.23-.82-2.14,0-.48.09-.93.26-1.33s.42-.75.74-1.05c.32-.29.71-.52,1.17-.68.46-.16.98-.24,1.57-.24.74,0,1.39.1,1.93.3.55.2,1.06.52,1.54.98l-1.08,1.07c-.35-.34-.72-.57-1.13-.69-.4-.12-.84-.18-1.31-.18-.66,0-1.17.17-1.52.49-.35.33-.53.75-.53,1.25,0,.21.03.4.1.57.07.17.18.33.32.46.29.26.71.43,1.26.52l1.27.19c.52.08.94.19,1.26.32.32.13.59.3.83.51.31.27.53.6.68.99.15.39.23.82.23,1.3"/>
    <path class="cls-3" d="M61.88,84.63h-1.87c-.47,0-.83.1-1.07.3-.24.2-.36.48-.36.85s.12.65.36.84c.24.19.61.29,1.11.29.3,0,.58-.02.82-.07.24-.05.47-.18.68-.39.23-.23.35-.62.35-1.18v-.65ZM61.91,88.15v-.72c-.29.29-.6.5-.91.63-.31.12-.72.19-1.21.19s-.93-.06-1.27-.18c-.34-.12-.63-.3-.87-.54-.42-.44-.63-1.01-.63-1.71s.23-1.22.68-1.65,1.14-.65,2.07-.65h2.11v-.57c0-.5-.13-.88-.4-1.12-.27-.25-.71-.37-1.35-.37-.44,0-.79.06-1.04.17-.25.12-.49.31-.71.6l-1.05-.99c.38-.44.78-.74,1.22-.9.43-.16.98-.25,1.64-.25,2.19,0,3.29.91,3.29,2.74v5.33h-1.57Z"/>
    <path class="cls-3" d="M68.66,88.15c-.38,0-.7-.06-.98-.19-.27-.13-.5-.29-.68-.49-.18-.2-.31-.44-.4-.71-.09-.27-.13-.54-.13-.83v-4.39h-.91v-1.23h.91v-2.42h1.61v2.42h1.54v1.23h-1.54v4.31c0,.29.07.52.21.68.14.16.36.24.67.24h.66v1.37h-.96Z"/>
    <path class="cls-3" d="M76.7,83.51c-.01-.24-.03-.44-.06-.59-.03-.15-.08-.32-.17-.5-.13-.3-.32-.55-.6-.73s-.6-.28-.98-.28-.71.09-.98.28c-.28.18-.48.43-.61.73-.08.18-.14.34-.16.5-.02.15-.04.35-.05.59h3.59ZM73.12,84.63c0,.69.17,1.24.52,1.64.35.4.85.6,1.51.6.45,0,.82-.07,1.09-.2.28-.13.56-.34.84-.62l1.02.96c-.21.21-.42.39-.62.54-.2.15-.43.28-.66.39-.24.1-.49.18-.77.24-.28.05-.59.08-.94.08-.5,0-.97-.07-1.41-.21-.43-.14-.82-.37-1.14-.69-.32-.32-.58-.74-.77-1.27-.19-.53-.29-1.17-.29-1.92,0-1.3.31-2.3.93-3.01.62-.71,1.44-1.06,2.47-1.06.54,0,1.01.1,1.43.28.42.19.77.45,1.06.79s.51.74.66,1.21c.15.47.23.99.23,1.56v.71h-5.18Z"/>
    <path class="cls-3" d="M82.87,88.15c-.38,0-.71-.06-.98-.18-.28-.12-.51-.28-.68-.48-.18-.2-.31-.43-.39-.7-.08-.27-.13-.55-.13-.84v-9h1.6v8.91c0,.3.06.54.19.69.13.16.35.23.68.23h.71v1.37h-.99Z"/>
    <path class="cls-3" d="M88.09,88.15c-.38,0-.71-.06-.98-.18-.28-.12-.51-.28-.68-.48-.18-.2-.31-.43-.39-.7-.08-.27-.13-.55-.13-.84v-9h1.61v8.91c0,.3.06.54.19.69.12.16.35.23.68.23h.71v1.37h-.99Z"/>
    <path class="cls-3" d="M91.18,80.18h1.61v7.98h-1.61v-7.98ZM91.13,76.9h1.7v1.7h-1.7v-1.7Z"/>
    <path class="cls-3" d="M98.04,88.15c-.38,0-.7-.06-.98-.19-.27-.13-.5-.29-.68-.49-.18-.2-.31-.44-.4-.71-.09-.27-.13-.54-.13-.83v-4.39h-.91v-1.23h.91v-2.42h1.61v2.42h1.54v1.23h-1.54v4.31c0,.29.07.52.21.68.14.16.36.24.67.24h.66v1.37h-.96Z"/>
    <path class="cls-3" d="M106.08,83.51c-.01-.24-.03-.44-.06-.59-.02-.15-.08-.32-.17-.5-.12-.3-.32-.55-.6-.73-.27-.18-.6-.28-.98-.28s-.7.09-.98.28c-.28.18-.48.43-.61.73-.08.18-.14.34-.16.5-.02.15-.04.35-.05.59h3.59ZM102.49,84.63c0,.69.17,1.24.52,1.64.35.4.85.6,1.51.6.45,0,.82-.07,1.09-.2.28-.13.56-.34.84-.62l1.02.96c-.21.21-.42.39-.62.54-.2.15-.42.28-.66.39-.24.1-.49.18-.77.24-.28.05-.59.08-.94.08-.5,0-.97-.07-1.41-.21-.44-.14-.82-.37-1.14-.69-.32-.32-.58-.74-.77-1.27-.19-.53-.29-1.17-.29-1.92,0-1.3.31-2.3.93-3.01.62-.71,1.44-1.06,2.47-1.06.54,0,1.01.1,1.43.28.42.19.77.45,1.06.79s.51.74.66,1.21c.15.47.23.99.23,1.56v.71h-5.18Z"/>
    <path class="cls-3" d="M123.6,84.8c-.1.56-.26,1.05-.5,1.48-.24.43-.53.79-.88,1.09-.35.29-.75.51-1.2.66-.45.15-.92.22-1.42.22-.59,0-1.13-.1-1.62-.31-.49-.2-.93-.5-1.32-.89-.27-.27-.48-.56-.63-.86-.15-.3-.26-.64-.32-.99-.07-.36-.11-.75-.12-1.19-.01-.44-.02-.92-.02-1.46s0-1.02.02-1.45c0-.44.05-.83.12-1.19.07-.36.18-.69.32-.99.15-.3.36-.59.63-.87.39-.39.83-.68,1.32-.89.49-.21,1.03-.31,1.62-.31,1.04,0,1.91.3,2.63.88.71.59,1.17,1.44,1.37,2.57h-1.73c-.14-.57-.39-1.03-.76-1.38-.37-.36-.87-.54-1.5-.54-.33,0-.65.06-.93.18-.28.12-.52.29-.73.49-.14.15-.25.31-.34.48-.09.17-.16.39-.2.64-.05.26-.08.58-.1.95-.02.38-.03.85-.03,1.42s.01,1.04.03,1.42c.02.38.05.7.1.95.05.26.12.47.2.64.09.17.2.33.34.48.2.21.44.38.73.5.28.12.59.18.93.18.63,0,1.13-.18,1.51-.53.38-.36.64-.82.77-1.39h1.72Z"/>
    <path class="cls-3" d="M130.68,84.16c0-.44-.03-.85-.09-1.24-.06-.39-.21-.7-.46-.94-.3-.3-.7-.46-1.18-.46s-.86.15-1.16.46c-.24.24-.39.56-.46.94-.06.39-.1.8-.1,1.24s.03.86.1,1.24c.06.39.21.7.46.94.31.32.7.47,1.16.47s.87-.16,1.18-.47c.24-.24.39-.56.46-.94.06-.39.09-.8.09-1.24M132.29,84.16c0,.68-.06,1.28-.19,1.79-.13.51-.38.96-.75,1.36-.26.27-.59.5-.98.68-.39.18-.86.27-1.41.27s-1.01-.09-1.4-.27c-.39-.18-.71-.4-.97-.68-.38-.4-.63-.85-.76-1.36-.13-.51-.19-1.1-.19-1.79s.06-1.26.19-1.77c.13-.51.38-.96.76-1.36.26-.27.59-.5.97-.68.39-.18.86-.27,1.4-.27s1.02.09,1.41.27c.39.18.72.4.98.68.38.4.63.85.75,1.36.13.51.19,1.1.19,1.77"/>
    <path class="cls-3" d="M144.51,88.15v-4.86c0-.62-.16-1.07-.47-1.35-.31-.28-.69-.43-1.14-.43-.22,0-.43.04-.63.1-.2.07-.37.17-.53.32-.15.14-.27.32-.36.54-.09.21-.13.46-.13.75v4.94h-1.61v-4.86c0-.62-.15-1.07-.46-1.35-.31-.28-.69-.43-1.14-.43s-.84.15-1.17.43c-.32.29-.49.74-.49,1.35v4.86h-1.6v-7.98h1.57v.8c.27-.29.6-.52.97-.67.37-.15.76-.23,1.16-.23,1.01,0,1.76.39,2.27,1.17.64-.78,1.47-1.17,2.5-1.17.41,0,.79.06,1.13.19.35.12.64.31.88.54.3.3.52.64.65,1.02.13.37.2.78.2,1.23v5.1h-1.6Z"/>
    <path class="cls-3" d="M153.84,84.16c0-.36-.02-.69-.05-1.01-.04-.32-.11-.6-.23-.84-.12-.24-.28-.43-.5-.57-.22-.14-.51-.21-.87-.21s-.66.07-.87.21c-.22.14-.38.33-.5.57-.12.24-.2.52-.24.84-.04.32-.05.66-.05,1.01s.02.7.05,1.02c.04.32.12.6.24.85.12.25.29.44.5.58.21.14.51.21.87.21s.64-.07.87-.21c.22-.14.39-.34.5-.58.11-.25.19-.53.23-.85.04-.32.05-.66.05-1.02M155.45,84.16c0,.31,0,.62-.02.93-.02.32-.05.62-.12.92-.06.3-.15.58-.27.84-.12.26-.28.49-.48.69-.22.22-.5.39-.83.52-.33.13-.7.19-1.1.19-.43,0-.81-.07-1.15-.2-.34-.13-.65-.37-.94-.72v4.04h-1.61v-11.2h1.57v.85c.3-.37.62-.62.95-.75.33-.13.72-.2,1.16-.2.4,0,.77.06,1.11.19.34.12.62.3.84.52.2.2.36.43.48.69.12.26.21.54.27.84.06.29.1.6.12.91.02.31.02.62.02.93"/>
    <path class="cls-3" d="M162.22,84.63h-1.87c-.47,0-.83.1-1.07.3-.24.2-.36.48-.36.85s.12.65.36.84c.24.19.61.29,1.11.29.3,0,.58-.02.82-.07.24-.05.47-.18.68-.39.23-.23.35-.62.35-1.18v-.65ZM162.25,88.15v-.72c-.29.29-.6.5-.91.63-.31.12-.72.19-1.21.19s-.93-.06-1.27-.18c-.34-.12-.63-.3-.87-.54-.42-.44-.63-1.01-.63-1.71s.23-1.22.68-1.65c.46-.43,1.15-.65,2.07-.65h2.11v-.57c0-.5-.13-.88-.4-1.12-.27-.25-.72-.37-1.35-.37-.44,0-.79.06-1.04.17-.25.12-.49.31-.71.6l-1.05-.99c.38-.44.78-.74,1.22-.9.44-.16.98-.25,1.64-.25,2.19,0,3.29.91,3.29,2.74v5.33h-1.57Z"/>
    <path class="cls-3" d="M171.48,88.15v-4.86c0-.62-.16-1.07-.46-1.35-.31-.28-.69-.43-1.14-.43s-.84.15-1.17.43c-.33.29-.49.74-.49,1.35v4.86h-1.61v-7.98h1.57v.8c.27-.3.6-.53.97-.68.37-.15.76-.22,1.16-.22s.78.06,1.11.19c.33.12.61.31.86.54.3.3.51.64.63,1.02.12.37.17.78.17,1.23v5.1h-1.61Z"/>
    <path class="cls-3" d="M178.39,89.74c-.15.42-.34.75-.58.99-.22.22-.47.37-.76.46-.28.08-.58.13-.88.13h-.64v-1.43h.41c.34,0,.58-.06.74-.18.16-.12.29-.35.41-.67l.44-1.24-2.79-7.61h1.7l1.9,5.62,1.86-5.62h1.71l-3.52,9.57Z"/>
    <polygon points="181.92 43.32 181.92 39.08 177.68 39.08 177.68 30.65 173.45 30.65 173.45 39.08 169.25 39.08 169.25 43.32 173.45 43.32 173.45 64.42 177.68 64.42 177.68 43.32 181.92 43.32"/>
    <path d="M161.99,58.01c-1.76,1.73-3.85,2.6-6.26,2.6s-4.49-.87-6.23-2.6c-1.75-1.75-2.62-3.83-2.62-6.26s.87-4.5,2.62-6.23c1.75-1.75,3.83-2.62,6.23-2.62s4.51.88,6.26,2.62c1.75,1.73,2.62,3.81,2.62,6.23s-.87,4.51-2.62,6.26M164.98,42.52c-2.56-2.57-5.64-3.86-9.25-3.86s-6.68,1.29-9.25,3.86c-2.56,2.56-3.84,5.63-3.84,9.23s1.23,6.59,3.69,9.18c2.47,2.57,5.47,3.86,8.98,3.86,3.71,0,6.81-1.39,9.3-4.18v3.81h4.21v-12.67c0-3.6-1.28-6.67-3.84-9.23"/>
    <path d="M136.37,47.88l-6.93-3.05c-2.51-1.19-3.76-2.86-3.76-5,0-1.4.53-2.6,1.58-3.58,1.07-1,2.32-1.5,3.74-1.5,1.32,0,2.43.42,3.34,1.26.92.86,1.47,1.91,1.63,3.17l4.16-1.04c-.43-2.18-1.49-3.96-3.19-5.37-1.7-1.42-3.68-2.13-5.94-2.13-2.62,0-4.88.9-6.76,2.68-1.88,1.77-2.82,3.94-2.82,6.5,0,3.3,1.25,5.77,3.76,7.4,1.17.52,2.33,1.03,3.49,1.55,1.15.52,2.31,1.03,3.46,1.55,2.51,1.14,3.76,2.78,3.76,4.91,0,1.42-.53,2.62-1.58,3.6-1.07,1-2.32,1.5-3.74,1.5-1.29,0-2.41-.42-3.37-1.26-.94-.86-1.51-1.9-1.71-3.14l-4.08,1.06c.44,2.19,1.52,3.97,3.22,5.34,1.72,1.39,3.7,2.08,5.94,2.08,2.62,0,4.87-.89,6.73-2.68,1.88-1.79,2.82-3.96,2.82-6.5,0-3.26-1.26-5.71-3.76-7.35"/>
    <path d="M43.5,36.98v-6.33h-4.21l1.26,6.33h2.94ZM68.84,64.42v-14.77c0-2.92-.94-5.46-2.82-7.62-1.98-2.24-4.41-3.37-7.3-3.37-3.03,0-5.58,1.17-7.62,3.51v-11.53h-4.21v33.77h4.21v-14.77c0-1.86.66-3.45,1.98-4.77,1.35-1.32,2.94-1.98,4.77-1.98s3.46.66,4.78,1.98c1.32,1.32,1.98,2.91,1.98,4.77v14.77h4.23ZM92.54,58.01c-1.76,1.73-3.85,2.6-6.26,2.6s-4.49-.87-6.23-2.6c-1.75-1.75-2.62-3.83-2.62-6.26s.87-4.5,2.62-6.24c1.75-1.75,3.83-2.62,6.23-2.62s4.51.87,6.26,2.62c1.75,1.73,2.62,3.81,2.62,6.24s-.87,4.51-2.62,6.26M99.37,64.42v-12.67c0-3.6-1.28-6.67-3.84-9.23-2.56-2.57-5.64-3.86-9.25-3.86s-6.68,1.29-9.25,3.86c-2.56,2.56-3.83,5.63-3.83,9.23s1.23,6.59,3.69,9.18c2.47,2.57,5.47,3.86,8.98,3.86,3.71,0,6.81-1.39,9.3-4.18v3.81h4.21ZM107.89,39.08h-4.21v25.34h4.21v-25.34ZM116.76,30.65h-4.21v33.77h4.21V30.65Z"/>
    <polygon points="21.11 64.42 21.11 60.19 4.21 60.19 4.21 49.23 16.88 49.23 16.88 45 4.21 45 4.21 34.85 21.11 34.85 21.11 30.65 0 30.65 0 64.42 21.11 64.42"/>
    <path d="M36.49,51.62c-.12-.08-.59-.32-1.44-.72-.84-.4-2.05-.96-3.64-1.7-1.83-.83-2.75-1.9-2.75-3.22,0-.86.31-1.6.94-2.22.66-.62,1.42-.93,2.28-.93,1.65,0,2.66.83,3.04,2.49l4.08-1.07c-.38-1.63-1.25-2.96-2.6-4-1.35-1.06-2.86-1.59-4.53-1.59-2.03,0-3.78.72-5.25,2.17-1.45,1.43-2.18,3.15-2.18,5.15,0,2.47.92,4.35,2.75,5.64.1.07.57.29,1.42.68.85.39,2.07.95,3.67,1.68,1.83.83,2.75,1.91,2.75,3.25,0,.85-.32,1.57-.96,2.17-.63.6-1.38.9-2.28.9-.38,0-.74-.07-1.09-.2-.35-.13-.66-.3-.94-.52-.28-.22-.52-.48-.72-.79-.2-.31-.33-.65-.4-1.02l-4.06,1.1c.36,1.61,1.23,2.95,2.6,4,1.35,1.04,2.89,1.56,4.6,1.56,2.01,0,3.75-.7,5.22-2.1,1.47-1.4,2.2-3.1,2.2-5.1,0-2.44-.91-4.31-2.75-5.61"/>
    <path class="cls-2" d="M64.65,28.7c-3.31,2.13-2.84,3.04.75,1.35,9.5-4.49,20.63-8.4,33.03-11.6-1.84-1.54-4.65-2.68-7.33-3.08-10.2,3.94-18.41,8.16-26.44,13.34"/>
    <path class="cls-1" d="M105.75.47h0c-.19,0-.34.15-.34.34,0,6.52-5.31,11.83-11.83,11.83-.19,0-.34.15-.34.34s.15.34.34.34c6.52,0,11.83,5.31,11.83,11.83,0,.19.15.34.34.34s.34-.15.34-.34c0-6.53,5.31-11.83,11.83-11.83.19,0,.34-.15.34-.34s-.15-.34-.34-.34c-6.52,0-11.83-5.31-11.83-11.83,0-.19-.15-.34-.34-.34"/>
    <path class="cls-2" d="M287.6,25.59C260.49,9.85,221.72,0,178.67,0c-23.1,0-44.96,2.84-64.46,7.9,3.71,2.44,9.56,4.7,18.18,4.05,14.65-1.96,29.76-2.93,46.28-2.93,42.57,0,80.96,7.18,108.03,18.68,5.6,2.38,6.15.94.9-2.11"/>
  </g>
</svg>