<?xml version="1.0" encoding="UTF-8"?>
<svg id="Layer_2" data-name="Layer 2" xmlns="http://www.w3.org/2000/svg" xmlns:xlink="http://www.w3.org/1999/xlink" viewBox="0 0 363.5 334.63">
  <defs>
    <style>
      .cls-1 {
        fill: #b0b7bc;
      }

      .cls-2 {
        fill: none;
      }

      .cls-3 {
        fill: #6f1d46;
      }

      .cls-4 {
        fill: url(#linear-gradient);
      }

      .cls-5 {
        clip-path: url(#clippath);
      }

      .cls-6 {
        fill: #002b5c;
      }
    </style>
    <clipPath id="clippath">
      <path class="cls-2" d="M156.5,194.04c1.68,1.97,9.78,12.86,22.35,25.99,8.38-5.58,7.28-20.39,3.64-24.86-3.64-4.49-23.75-25.98-23.75-25.98-8.66,10.34-3.92,22.9-2.24,24.85M186.15,99.37l13.58,13.57s6.89-3.45,6.66-13.75c-.23-10.3-6.25-13.81-6.25-13.81l-13.99,14M271.08,99.31c1.66,1.96,1.11,1.68,13.69,14.81,8.39-5.59,7.26-20.4,3.64-24.87-3.64-4.47-15.1-14.82-15.1-14.82-8.65,10.35-3.9,22.92-2.22,24.87M207.52,77.98l13.57,13.59s6.9-3.47,6.67-13.77c-.21-10.29-6.24-13.8-6.24-13.8l-13.99,13.98M187.39,57.87l13.58,13.58s6.89-3.46,6.67-13.75c-.21-10.31-6.25-13.83-6.25-13.83l-14,14M207.64,35.89l54.49,54.77c10.33-13.98-.28-28.5-4.75-32.96-4.46-4.48-36.05-35.49-36.05-35.49l-13.7,13.69M150.89,120.1l7.85-7.85,7.82,7.85-7.82,7.84-7.85-7.84M129.37,98.57l7.84-7.84,7.84,7.84-7.84,7.84-7.84-7.84M149.96,77.98l7.84-7.85,7.84,7.85-7.84,7.85-7.84-7.85M144.16,13.92c-14.5,15.35-52.77,52.76-52.77,52.76,0,0-11.39,11.68-12.57,29.41-1.04,15.66,5.92,26.61,10.95,31.92l32.66,32.67s13.45,13.17,27.34,2.52l7.98-7.99,29.26,28.68s13.01,13.61,28.38-1.48l46.42-46.7s15.08-10.95,5.03-26.9l-24.25-23.65s-9.44,15.97-2.06,25.12l9.76,9.47-7.1,8.58-20.98-21.59s-11.23,15.37-3.85,23.36l10.05,10.63-6.2,7.39-20.7-20.7s-10.34,17.73-2.95,25.12l7.97,9.48-6.49,7.98-28.09-29.57,10.35-10.64s7.4-7.08,1.49-16.55c-5.63-6.5-12.43-13.31-12.43-13.31l9.16-9.43s5.63-4.45,4.73-12.13c-.89-7.68-3.25-8.87-3.25-8.87l-14.19-15.37s-9.17-9.17-23.35,2.95l-28.68,28.98s-6.56,6.21-6.21,15.37c.3,7.68,6.81,11.52,6.81,11.52l28.96,28.4-8.28,6.49s-22.17-20.4-29.27-28.08c-7.09-7.71-11.23-26.02-2.66-37.84,8.58-11.84,49.66-50.26,55.86-56.75,6.2-6.51,22.18-11.24,28.99-5.34,5.56,4.86,10.03,9.17,10.03,9.17v-.89l15.08-12.11s-11.82-12.43-23.36-14.79c-3.36-.68-7.58-1.2-12.22-1.2-11.29,0-25.11,3.02-35.36,13.92"/>
    </clipPath>
    <linearGradient id="linear-gradient" x1="-110.91" y1="-252.62" x2="-107.59" y2="-252.62" gradientTransform="translate(-14266.72 6350.72) rotate(90) scale(57.21)" gradientUnits="userSpaceOnUse">
      <stop offset="0" stop-color="#e31936"/>
      <stop offset=".1" stop-color="#c01b3b"/>
      <stop offset=".28" stop-color="#862045"/>
      <stop offset=".45" stop-color="#56244d"/>
      <stop offset=".61" stop-color="#302753"/>
      <stop offset=".76" stop-color="#162958"/>
      <stop offset=".9" stop-color="#052a5b"/>
      <stop offset="1" stop-color="#002b5c"/>
    </linearGradient>
  </defs>
  <g id="Layer_1-2" data-name="Layer 1">
    <g>
      <rect class="cls-3" x="177.11" y="233.78" width="2.14" height="100.84"/>
      <rect class="cls-1" x="177.11" y="233.78" width="2.14" height="100.84"/>
      <rect class="cls-6" x="356.42" y="237.28" width="6.29" height="31.07"/>
      <path class="cls-6" d="M210.27,266.44v-20.66h-7.37v20.66c0,2.98,0,3.1-3.25,3.1h-3.39v7.36h3.39c7.24,0,10.62-3.32,10.62-10.46"/>
      <path class="cls-6" d="M224.95,268.98h115.65c6.88,0,9.96-4.52,9.96-9v-12.91h-7.35v12.91c0,.57,0,1.64-2.61,1.64h-3.4v-14.56h-6.46v14.56h-7.1v-14.56h-6.44v14.56h-30.01c-.55-20.04-12.6-22.27-17.85-22.27v7.36c6.66,0,10.17,5.02,10.5,14.91h-3.71c.28-.93.43-1.91.43-2.93,0-5.86-4.76-10.62-10.61-10.62s-10.61,4.76-10.61,10.62c0,1.01.15,2,.43,2.93h-30.81c-3.25,0-3.25-.11-3.25-3.09v-20.65h-7.36v20.65c0,7.13,3.37,10.45,10.61,10.45M265.94,255.43c1.79,0,3.26,1.46,3.26,3.26,0,1.29-.76,2.4-1.86,2.93h-2.78c-1.11-.53-1.86-1.64-1.86-2.93,0-1.8,1.46-3.26,3.25-3.26"/>
      <rect class="cls-6" x="331.06" y="229.16" width="5.97" height="5.97"/>
      <rect class="cls-6" x="326.47" y="237.48" width="5.97" height="5.97"/>
      <rect class="cls-6" x="336" y="237.47" width="5.97" height="5.97"/>
      <path class="cls-6" d="M362.3,270.61c-.9,0-1.87,0-2.52,0-.86.01-1.56.29-2.07.81-.9.93-.87,2.31-.85,3.76v.1h-2.6v2.95h8.75v-2.95h-3.21v-.16c0-.52-.02-1.22.04-1.57.64,0,1.58,0,2.46,0h1.21v-2.94h-1.2Z"/>
      <rect class="cls-6" x="204.27" y="287.58" width="2.29" height="2.36"/>
      <rect class="cls-6" x="200.62" y="287.58" width="2.29" height="2.36"/>
      <path class="cls-6" d="M361.02,292.55c0,1.22-.63,1.87-1.79,1.87h-21.35c-1.34,0-2.11-.86-2.11-2.36v-9.32h-2.12v9.81c0,1.22-.62,1.87-1.79,1.87h-21.02v-.59c0-3.45-1.57-7.13-5.97-7.13-2.11,0-4.43.99-4.66,3.79l-.04.56h2.03l.07-.46c.16-1.19,1.08-1.85,2.6-1.85,1.01,0,1.84.33,2.49.99.89.9,1.39,2.39,1.36,4.07v.6h-28.5v-4.29c0-2.22-1.3-3.44-3.66-3.44-2.15,0-3.53,1.07-3.82,2.94l-.09.61h2.1l.08-.47c.06-.45.3-1.06,1.73-1.06,1.05,0,1.42.34,1.5,1.36v4.33h-5.57v2.05h59.65c1.29,0,2.28-.47,2.9-1.38.61.72,1.67,1.38,3.03,1.38h21.43c2.27,0,3.63-1.53,3.63-4.07v-9.66h-2.11v9.81Z"/>
      <path class="cls-6" d="M216.97,296.47h41.74c1.49,0,2.35-.64,2.85-1.28.81.95,1.98,1.46,3.32,1.46,3.04,0,4.63-2.61,4.63-5.19s-1.59-5.19-4.63-5.19-4.63,2.61-4.63,5.19v1.06c0,1.22-.64,1.9-1.81,1.9h-41.22c-1.16,0-1.77-.65-1.77-1.87v-9.81h-2.12v9.65c0,2.55,1.36,4.08,3.64,4.08M264.88,288.28c1.92,0,2.43,2.08,2.43,3.18,0,1.46-.63,3.17-2.43,3.17s-2.48-1.89-2.48-3.17.66-3.18,2.48-3.18"/>
      <rect class="cls-6" x="303.69" y="282.74" width="2.28" height="2.37"/>
      <path class="cls-6" d="M200.93,296.47h7c2.29,0,3.65-1.53,3.65-4.08v-5.68h-2.12v5.84c0,1.24-.6,1.87-1.79,1.87h-6.89c-1.21,0-2.15-.69-2.43-1.75-.15-.57,0-1.36.32-1.8l.3-.41-.42-.33-.33-.29-.78-.64-.33.42c-.84,1.02-.96,2.44-.8,3.33.35,2.11,2.2,3.52,4.62,3.52"/>
      <rect class="cls-6" x="196.5" y="309.58" width="2.3" height="2.39"/>
      <rect class="cls-6" x="200.16" y="309.58" width="2.29" height="2.39"/>
      <rect class="cls-6" x="284.77" y="310.54" width="2.3" height="2.39"/>
      <rect class="cls-6" x="360.92" y="309.93" width="2.12" height="13.79"/>
      <path class="cls-6" d="M354.76,319.78c0,.6-.15,1.06-.44,1.37,0,0-.28.5-2.02.5h-2.27l-2.82-11.41h-2.15l2.81,11.41h-8.02l-1.09,2.06h14.46c2.29,0,3.67-1.53,3.67-4.1v-9.68h-2.13v9.85Z"/>
      <rect class="cls-6" x="239.4" y="325.7" width="2.3" height="2.4"/>
      <path class="cls-6" d="M331.92,313.46c-3.05,0-4.65,2.63-4.65,5.22v1.07c0,1.24-.65,1.9-1.8,1.9h-36.32c-1.81,0-2.12-1.5-2.15-2.38v-4.74h-2.11v5.24c0,1.22-.63,1.87-1.8,1.87h-34.52c-1.8,0-2.12-1.5-2.13-2.38v-4.74h-2.12v5.24c0,1.22-.63,1.87-1.81,1.87h-36.41c-1.15,0-1.77-.6-1.8-1.82l-.02-6.77-2.12.67v.67h-.34c-3.48,0-5.43,1.55-5.49,4.37-.02,1.1.38,2.12,1.12,2.86.65.68,1.55,1.07,2.44,1.07,1.26,0,2.12-.51,2.67-1.03.55,1.32,1.7,2.03,3.28,2.03h36.96c1.3,0,2.3-.48,2.93-1.39.61.72,1.67,1.39,3.03,1.39h34.62c1.29,0,2.29-.48,2.91-1.39.62.72,1.68,1.39,3.05,1.39h36.39c1.5,0,2.37-.64,2.86-1.28.83.94,2,1.46,3.35,1.46,3.05,0,4.64-2.62,4.64-5.22s-1.59-5.22-4.64-5.22M201.42,320.23c-.31.33-.77.49-1.38.49-.43,0-.76-.15-1.02-.42-.46-.47-.57-1.21-.55-1.48.12-2.05,1.64-2.33,3.27-2.33h.41c.04,1.38.02,2.98-.73,3.75M331.92,321.88c-1.84,0-2.49-1.91-2.49-3.2s.65-3.2,2.49-3.2,2.44,2.1,2.44,3.2c0,1.47-.63,3.2-2.44,3.2"/>
      <rect class="cls-6" x="235.75" y="325.7" width="2.29" height="2.4"/>
      <path class="cls-6" d="M347.28,306.17c.1,0,.25,0,.27.34l.02.26h1.22l-.03-.29c-.04-.73-.6-1.48-1.46-1.48-.93,0-1.54.71-1.54,1.81v.39h-.41l-.44,1.18h2.75c.36,0,.81-.06,1.17-.55l.14-.19-.89-.82-.18.31-.19.07h-.78v-.39c0-.3.06-.64.33-.64"/>
      <path class="cls-6" d="M55.24,263.32c-.07-3.58-2.72-7.67-9.96-8.46-4.32-.47-6.19-1.81-6.18-2.93.01-1.85,1.79-3.04,3.71-3.14,4.73-.25,7.97,2.41,8,2.44l4.04-4.71c-.21-.18-5.09-4.32-12.38-3.93-5.06.28-9.46,4.48-9.58,9.17-.06,1.87.64,8.08,11.72,9.28,2.63.29,4.39,1.24,4.43,2.4.01,1.08-1.25,2.42-3.33,2.73-6.47.93-9.66-2.23-9.77-2.32l-4.55,4.21c.2.21,4.26,4.49,11.99,4.49,1.01,0,2.08-.07,3.21-.23,5.01-.73,8.73-4.59,8.65-8.98"/>
      <path class="cls-6" d="M27.04,266.25l-4-3.79c-2.13,2.64-4,3.22-6.96,3.22-1.68,0-3.19-.55-4.53-1.65-1.34-1.09-2.17-2.5-2.51-4.23h17.47v-2.01c0-3.57-.61-6.49-1.81-8.75-1.22-2.25-2.76-3.88-4.64-4.88-1.87-.99-3.82-1.49-5.84-1.49-3.05,0-5.65.63-7.8,1.88-2.14,1.26-3.75,2.98-4.82,5.19C.54,251.95,0,254.44,0,257.23s.54,5.35,1.61,7.59c1.06,2.23,2.67,4,4.82,5.3,2.15,1.3,4.75,1.95,7.8,1.95,2.83,0,5.16-.31,6.99-.93,1.82-.63,5.18-3.51,5.83-4.89M10.13,250.49c.9-1.1,2.1-1.66,3.55-1.66s2.61.55,3.4,1.64c.78,1.08,1.18,2.54,1.18,4.36h-9.48c0-1.78.45-3.23,1.35-4.34"/>
      <path class="cls-6" d="M69.11,255.26c.62-1.25,1.3-2.27,2.01-3.08s1.53-1.21,2.44-1.21c1.18,0,1.99.54,2.41,1.64.42,1.09.63,2.28.63,3.59,0,.32,0,.53-.02.63l-.02.31v14.17h7.34v-16.77c0-7.35-2.49-11.04-7.45-11.04-1.32,0-2.59.32-3.77.93-1.17.61-2.38,1.77-3.57,3.48v-13.82h-7.34v37.22h7.34v-16.05Z"/>
      <path class="cls-6" d="M97.01,251.35c1.32-1.49,4.78-4.94,8.54-4.94s5.9,2.08,5.9,5.72v19.27h3.09v-19.27c0-5.36-3.52-8.83-8.99-8.83-3.4,0-6.43,1.91-8.54,3.71v-14.03h-3.1v38.66h3.1v-20.29Z"/>
      <path class="cls-6" d="M145.63,269.85c-.47,0-2.75-.07-2.75-1.75,0-.94.04-3.19.08-5.74.04-3.34.09-7.2.09-9.32,0-.43-.06-.82-.09-1.24l.07-.44-.13-.02c-.64-4.91-4.2-7.7-9.99-7.7-7.53,0-10.93,4.79-10.93,8.19h3.1c0-1.6,1.97-5.09,7.83-5.09,4.07,0,6.33,1.54,6.89,4.65-.91,1.43-5.75,2.8-8.73,3.65-1.93.56-3.74,1.07-5.2,1.66-4.45,1.79-5.95,6.95-4.82,10.9.8,2.84,3.32,5.84,7.86,5.84.64,0,1.31-.06,2.01-.18,4.15-.72,6.97-2.79,8.86-5.17,0,2.86,2.4,4.87,5.84,4.87v-3.11ZM139.87,260.36h-.03c0,.09-.92,8.37-9.45,9.85-4.63.81-5.99-2.15-6.36-3.47-.73-2.57.2-6.04,3.01-7.16,1.29-.53,3.04-1.03,4.87-1.54,2.92-.83,5.89-1.68,8.02-2.88,0,1.53-.04,3.37-.06,5.19"/>
      <path class="cls-6" d="M154.78,250.15v-5.83h-3.1v15.34l-.06.62h.06v11.83h3.1v-12.29c.96-12.39,10.63-12.56,11.05-12.56v-3.1c-3.03,0-7.87,1.45-11.05,6"/>
      <path class="cls-6" d="M16.81,291.23c-1.24-.58-2.83-.87-4.75-.87h-5.19c-2.27,0-3.42-.5-3.42-1.48v-.48c0-.99,1.14-1.47,3.42-1.47h11.58v-2.01H6.86c-1.92,0-3.51.29-4.76.86-1.4.64-2.1,1.51-2.1,2.62v.48c0,1.1.7,1.98,2.1,2.61,1.25.58,2.83.87,4.76.87h5.19c2.28,0,3.42.49,3.42,1.48v.47c0,.99-1.14,1.48-3.42,1.48H.5v2h11.56c1.92,0,3.51-.29,4.75-.87,1.39-.63,2.08-1.51,2.08-2.61v-.47c0-1.12-.69-1.99-2.08-2.62"/>
      <path class="cls-6" d="M27.75,295.13c-.67-.39-1-.86-1-1.43v-1.58h13.53v-2.03h-13.56v-1.17c0-.56.34-1.04,1.02-1.41.67-.39,1.49-.58,2.43-.58h11.25v-2.01h-11.25c-1.95,0-3.59.38-4.91,1.14-1.32.75-1.98,1.71-1.98,2.86v4.78c0,1.16.65,2.12,1.98,2.88,1.32.75,2.96,1.13,4.91,1.13h11.25l.07-1.97-11.31-.03c-.95,0-1.75-.19-2.42-.58"/>
      <path class="cls-6" d="M50.34,295.13c-.67-.39-1.02-.86-1.02-1.43l-.02-4.78c0-.56.33-1.04,1.01-1.41.68-.39,1.48-.58,2.44-.58h11.24v-2.01h-11.24c-1.95,0-3.59.38-4.91,1.14-1.32.75-1.99,1.71-1.99,2.86v4.78c0,1.16.67,2.12,1.99,2.88,1.32.75,2.96,1.13,4.91,1.13h11.24l.06-1.97-11.3-.03c-.96,0-1.76-.19-2.42-.58"/>
      <path class="cls-6" d="M83.89,295.71h-8.55c-.95,0-1.77-.19-2.43-.58-.68-.39-1.01-.86-1.01-1.43v-8.78h-3.45v8.78c0,1.16.66,2.12,1.98,2.88,1.33.75,2.96,1.13,4.92,1.13h11.96v-12.79h-3.41v10.79Z"/>
      <path class="cls-6" d="M104.89,287.52c.68.39,1.02.86,1.02,1.41v1.67h3.42v-1.67c0-1.11-.67-2.08-2-2.84-1.34-.78-2.95-1.17-4.86-1.17h-10.22v12.79h3.45v-10.77h6.78c.93,0,1.73.19,2.42.58"/>
      <rect class="cls-6" x="114.74" y="284.87" width="3.45" height="12.87"/>
      <rect class="cls-6" x="114.74" y="280.12" width="3.45" height="2.32"/>
      <path class="cls-6" d="M125.81,280.18v4.58h-2.13v2.06h2.13v6.88c0,1.16.67,2.12,2,2.88,1.32.75,2.96,1.13,4.91,1.13h5.41v-2h-5.41c-.95,0-1.74-.19-2.42-.58-.67-.39-1-.86-1-1.43v-6.88h7.2v-2.06h-7.2v-4.58h-3.48Z"/>
      <path class="cls-6" d="M158.3,299.87c-.66.39-1.47.6-2.4.6h-11.69v2h11.69c1.89,0,3.5-.39,4.84-1.16,1.34-.78,1.99-1.73,1.99-2.85v-13.53h-3.44v10.79h-8.55c-.95,0-1.76-.2-2.44-.58-.67-.39-1.01-.86-1.01-1.43v-8.78h-3.44v8.78c0,1.16.66,2.12,1.98,2.87,1.33.75,2.96,1.13,4.92,1.13h8.58v.74c0,.54-.34,1.01-1.02,1.41"/>
      <path class="cls-6" d="M16.81,317.16c-1.24-.58-2.83-.87-4.75-.87h-5.19c-2.27,0-3.42-.5-3.42-1.48v-.48c0-.98,1.14-1.47,3.42-1.47h11.58v-2H6.86c-1.92,0-3.51.29-4.76.86-1.4.64-2.1,1.51-2.1,2.61v.48c0,1.11.7,1.98,2.1,2.61,1.25.58,2.83.87,4.76.87h5.19c2.28,0,3.42.5,3.42,1.48v.48c0,.98-1.14,1.48-3.42,1.48H.5v2h11.56c1.92,0,3.51-.29,4.75-.87,1.39-.64,2.08-1.51,2.08-2.61v-.48c0-1.11-.69-1.98-2.08-2.61"/>
      <path class="cls-6" d="M27.75,321.06c-.67-.39-1-.86-1-1.43v-1.58h13.53v-2.03h-13.56v-1.16c0-.57.34-1.04,1.02-1.43.67-.39,1.49-.58,2.43-.58h11.25v-2h-11.25c-1.95,0-3.59.38-4.91,1.14-1.32.75-1.98,1.71-1.98,2.87v4.77c0,1.16.65,2.12,1.98,2.87,1.32.75,2.96,1.13,4.91,1.13h11.25l.07-1.97-11.31-.04c-.95,0-1.75-.19-2.42-.58"/>
      <path class="cls-6" d="M60.94,312.01c-1.32-.77-2.96-1.16-4.86-1.16h-10.22v12.79h3.44v-10.79h6.78c.92,0,1.73.2,2.42.6.69.39,1.02.86,1.02,1.41v1.66h3.43v-1.66c0-1.13-.67-2.08-2.01-2.85"/>
      <polygon class="cls-6" points="76.91 320.8 70.36 310.85 66.69 310.85 75.03 323.64 78.81 323.64 87.1 310.85 83.47 310.85 76.91 320.8"/>
      <rect class="cls-6" x="91.5" y="306.05" width="3.45" height="2.33"/>
      <rect class="cls-6" x="91.5" y="310.8" width="3.45" height="12.87"/>
      <path class="cls-6" d="M103.81,321.06c-.67-.39-1-.86-1-1.43l-.03-4.77c0-.57.34-1.04,1.01-1.43.68-.39,1.49-.58,2.44-.58h11.24v-2h-11.24c-1.95,0-3.59.38-4.91,1.14-1.32.75-1.98,1.71-1.98,2.87v4.77c0,1.16.66,2.12,1.98,2.87,1.33.75,2.96,1.13,4.91,1.13h11.24l.06-1.97-11.3-.04c-.95,0-1.76-.19-2.41-.58"/>
      <path class="cls-6" d="M126.38,321.06c-.66-.39-1-.86-1-1.43v-1.58h13.53v-2.03h-13.57v-1.16c0-.57.35-1.04,1.02-1.43.68-.39,1.5-.58,2.44-.58h11.25v-2h-11.25c-1.94,0-3.58.38-4.9,1.14-1.33.75-1.99,1.71-1.99,2.87v4.77c0,1.16.67,2.12,1.99,2.87,1.32.75,2.96,1.13,4.9,1.13h11.25l.05-1.97-11.3-.04c-.94,0-1.75-.19-2.42-.58"/>
      <path class="cls-6" d="M161.3,317.16c-1.23-.58-2.82-.87-4.76-.87h-5.17c-2.28,0-3.43-.5-3.43-1.48v-.48c0-.98,1.15-1.47,3.43-1.47h11.58v-2h-11.58c-1.94,0-3.53.29-4.76.86-1.41.64-2.11,1.51-2.11,2.61v.48c0,1.11.7,1.98,2.11,2.61,1.23.58,2.82.87,4.76.87h5.17c2.3,0,3.44.5,3.44,1.48v.48c0,.98-1.14,1.48-3.44,1.48h-11.54v2h11.54c1.94,0,3.53-.29,4.76-.87,1.39-.64,2.09-1.51,2.09-2.61v-.48c0-1.11-.7-1.98-2.09-2.61"/>
      <g class="cls-5">
        <rect class="cls-4" x="77.78" y="0" width="215.37" height="220.02"/>
      </g>
    </g>
  </g>
</svg>