<?xml version="1.0" encoding="UTF-8"?>
<svg id="Layer_2" data-name="Layer 2" xmlns="http://www.w3.org/2000/svg" viewBox="0 0 199.35 142.67">
  <defs>
    <style>
      .cls-1 {
        fill: #530e22;
      }

      .cls-2 {
        fill: #d1a446;
      }
    </style>
  </defs>
  <g id="Layer_1-2" data-name="Layer 1">
    <g>
      <path class="cls-1" d="M144.95,39.8c-1.56-1.06-1.99-3.07-2.06-4.84-.08-1.99.05-4.4.89-6.21.81-1.74,1.88-3.44,3.38-4.66.91-.74,1.99-1.28,3.15-1.5s2.7-.2,3.74.23c1.55.63,2.67,2.12,2.54,3.84-.05.67-.02,1.34-.01,2.01.02,1.48-.36,2.91-.74,4.31-.18.66-.29,1.36-.81,2,.37-.08.59-.17.82-.17,1.63,0,3.14-.8,4.61-1.41s2.67-1.68,3.43-3.03c.93-1.64,1.15-3.67.61-5.47-.3-.99-.81-1.89-1.35-2.77-.27-.44-.57-.91-.56-1.43,0-.35.15-.68.3-1,.6-1.33,1.21-2.65,1.82-3.98.18-.4.46-.86.9-.85.65.01,1.01.99,1.27,1.46.42.75.79,1.53,1.11,2.32.77,1.92,1.43,4.14,1.26,6.23-.15,1.76-.56,3.49-1.06,5.18-.45,1.54-.76,3.09-1.53,4.52-.76,1.41-1.89,2.35-3,3.47-.9.91-2,1.58-3.08,2.26-.8.5-1.76.86-2.72,1.14-.99.29-1.96.5-3,.47-1.26-.04-2.52,0-3.85,0-.76.74-1.39,1.64-2.07,2.51-2.39,3.07-6.12,5.37-10.02,5.77-1.46.15-2.82-.35-4.2-.72-.2-.05-.32-.35-.52-.44-1.49-.67-2.42-1.93-3.16-3.28-3.35-6.11-3.39-13.35-5.87-19.78-.08-.21-.17-.43-.25-.64-.31-.77-.64-1.53-.99-2.28-.3-.64-.86-1.39-.94-2.1-.05-.46.07-.98.24-1.42.34-.89.76-1.74,1-2.66.1-.38.4-.69.43-1.13.01-.23.24-.45.4-.65.42-.51,1.53-.39,1.65.24.14.79.58,1.43.86,2.14.5,1.29.97,2.6,1.43,3.9.34.96.61,1.96.83,2.97.53,2.42,1.15,4.81,1.66,7.23.06.28.12.56.15.85.02.18.03.36.09.52.22.61.33,1.24.46,1.89.24,1.2.3,2.48.75,3.59.65,1.57,1.39,3.18,3.02,4.05.38.2.83.3,1.26.38.3.06.63-.01.94.01,1.9.16,3.51-.57,5-1.63.56-.4,1.08-.85,1.79-1.42ZM153.25,29.95q-1.3-1.3-3.08-1.3c-.24,0-.47,0-.71,0-.15,0-.31.02-.44.08-1.08.53-2.11,1.08-2.74,2.22-.53.97-.53,1.88.31,2.51,1.09.82,2.34,1.24,3.76,1.36.78-.89,1.56-1.8,2.37-2.69.38-.42.57-.88.53-1.44-.02-.24,0-.47,0-.75Z"/>
      <path class="cls-1" d="M140.75,99.52c1.23,1.83,2.64,3.56,4.04,5.29-.42.71-1.05,1.02-1.69,1.35-.6.3-1.28.38-1.84.69-.69.38-1.49-.2-2.13.41-1.45-1.85-2.36-3.98-3.31-6.18-.54,0-1.17-.01-1.79,0-1.26.03-2.48-.22-3.72-.43-.94-.16-1.76-.52-2.62-.84-.89-.34-1.62-.87-2.39-1.41-.75-.52-1.44-1.11-1.94-1.81-.77-1.1-1.48-2.28-1.83-3.61-.21-.79-.35-1.6-.52-2.4-.35-1.56-.27-3.12-.15-4.64.21-2.56.92-4.98,2.59-7.09,1.02-1.29,2.34-2.11,3.61-3.03.4-.29,1.03-.26,1.41-.56.43-.34,1.02,0,1.36-.45,1.66-.27,3.32-.66,5.01-.45,1.1.14,2.21.3,3.3.56.88.21,1.6.75,2.48.91.37.07.69.42,1.03.64,1.73,1.11,3.02,2.6,3.87,4.47.23.5.41,1.02.63,1.51.21.47.12,1.04.46,1.47.02.03,0,.07.01.11.17,1.07.46,4.71.19,5.57-.21.68-.06,1.36-.29,2.01-.22.62-.41,1.25-.61,1.88-.19.58-1.31,2.74-1.75,3.05-.62.45-.77,1.28-1.55,1.63-.67.3-1.21.88-1.86,1.37ZM134.02,95.64c.87.09,1.94-.04,3-.46,1.3-.51,2.42-1.22,3.2-2.38.37-.54.67-1.14.91-1.75.34-.87.14-1.86.5-2.75.1-.24.04-.55,0-.82-.05-.33-.18-.64-.22-.97-.04-.35,0-.71,0-1.06,0-.04,0-.08-.01-.11-.23-.57-.53-1.13-.68-1.73-.19-.73-.93-1.04-1.16-1.65-.15-.4-.47-.3-.67-.52-.91-1.02-2.19-1.51-3.45-1.6-1.54-.1-3.1-.19-4.67.37-1.89.67-3.16,1.9-3.98,3.56-.49,1-.64,2.2-.75,3.35-.05.59-.2,1.28.04,1.75.28.54-.06,1.18.42,1.61.03,1.02.57,1.89,1.15,2.59,1.37,1.67,3.2,2.57,5.42,2.58.24,0,.47,0,.95,0Z"/>
      <path class="cls-1" d="M118.95,26.14c-.18,1.38.26,2.61.53,3.86.36,1.65.92,3.26,1.4,4.87.15.51.31,1.03.37,1.56.19,1.57.45,3.08.51,4.69.09,2.62-.14,5.25-.65,7.82-.5,2.53-1.22,5.12-2.28,7.51-3.07,6.91-10.88,13.1-18.77,10.17-.61-.23-1.19-.51-1.75-.84-.85-.51-1.66-1.13-2.25-2.05-.48-.75-1.14-1.42-1.44-2.25-3.15-8.67-.17-17.63,5.5-24.49.25-.3.48-.61.79-.86.55-.44,1.47-.58,1.9-.02.47.61.03,1.48-.4,2.11-1.36,2.01-2.66,4.08-3.62,6.31s-1.56,4.64-1.5,7.07c.04,1.34.29,2.7.88,3.9s1.52,1.98,2.43,2.98c.31.33,1.79.9,2.22.92,7.17.23,13.46-5.45,14.9-12.29.48-2.27.29-2.56-.28-4.66-.37-1.34-.82-2.66-1.14-4.02-.4-1.7-1.3-3.35-1.38-5.12-.08-1.77.47-3.52,1.2-5.11.29-.61.67-1.76,1.21-2.2.23-.18,1.66-.28,1.6.12Z"/>
      <path class="cls-1" d="M175.31,74.59h4.36c.66.64,1.25,1.43,1.79,2.25.36.54.8,1.02,1.25,1.49,1.21,1.28,2.27,2.67,3.35,4.05.5.63,1.09,1.19,1.58,1.84.91,1.22,2.02,2.27,2.86,3.54.32.47.74.88,1.11,1.32.66.77,1.32,1.54,2.09,2.44v-16.91c1.75-.09,3.46-.01,5.21-.05v26.26c-.42,0-.87.02-1.33.03-.47,0-.95,0-1.42,0s-.95.05-1.42-.02c-.23-.03-.49-.25-.63-.45-.66-.94-1.45-1.77-2.16-2.66-.92-1.16-1.96-2.21-2.8-3.44-.43-.63-.97-1.19-1.5-1.74-.66-.69-1.26-1.41-1.77-2.23-.34-.55-.81-1.01-1.24-1.5-1.15-1.33-2.28-2.66-3.35-4.05-.2-.26-.47-.48-.79-.79v16.88c-1.75.01-3.46,0-5.21,0v-26.26Z"/>
      <path class="cls-1" d="M79.18,74.59h17.44v5.16h-12.24v5.71h9.53c.24,0,.47-.01.71,0,.41.03.61.22.62.65.01,1.41,0,2.83,0,4.28h-10.89c0,1.6-.02,3.16.02,4.73,0,.18.3.42.5.5.25.09.55.02.82.02h11.39v5.09c-.95.18-14.09.24-17.91.08v-26.21Z"/>
      <path class="cls-1" d="M156.93,74.57h6.17c.42.9.99,1.79,1.25,2.76.26.97.98,1.75.99,2.79,1.1,1.95,1.52,4.18,2.59,6.15.16,1.14.72,2.15,1.09,3.22.45,1.27.89,2.55,1.43,3.79.65,1.51.85,3.19,1.74,4.6.01,1.06.74,1.89.87,2.93h-5.76c-.5-1.09-.74-2.32-1.22-3.47-.47-1.11-.7-2.32-1.07-3.6h-.82c-2.76,0-5.52,0-8.28,0-.73,0-.7.02-.98.76-.71,1.88-1.36,3.78-1.9,5.72-.06.2-.22.38-.35.59h-5.73c.38-1.03.75-2.04,1.11-3.05.25-.69.41-1.42.73-2.06.4-.8.51-1.68.85-2.49.32-.77.45-1.64.81-2.38.52-1.06.9-2.16,1.29-3.25.76-2.09,1.61-4.15,2.39-6.23.67-1.77,1.46-3.5,2.06-5.3.16-.48.46-.91.76-1.47ZM163.2,88.75c-1.07-2.89-2.1-5.69-3.2-8.66-1.11,3.01-2.14,5.82-3.18,8.66h6.38Z"/>
      <path class="cls-1" d="M106.17,79.78h-8.05v-5.1c1.01-.18,16.96-.24,21.46-.08v5.09s0,.02-.04.04c-.03.02-.07.04-.1.04-2.6,0-5.19,0-7.83,0v20.89c-.06.07-.09.11-.12.13-.03.02-.07.04-.1.04-1.73,0-3.46,0-5.23,0v-21.06Z"/>
      <path class="cls-1" d="M177.6,16.81c.13,0,.66,1.82.74,2.05.29.79.58,1.57.87,2.36.57,1.57,1.14,3.15,1.68,4.73,1.05,3.13,1.81,6.27,2.49,9.49.55,2.63.41,5.75-.29,8.35-.12.46-.54.81-.5,1.33-.64.86-.98,1.91-1.64,2.75-.53.67-1.18,1.25-1.81,1.83-1.23,1.15-2.86,1.64-4.38,2.28-.23.1-.52.08-.79.09-.37.01-.56-.22-.58-.56-.03-.39,0-.79,0-1.23.96-.7,1.96-1.4,2.8-2.3,1.16-1.24,2.08-2.64,2.74-4.19.21-.5.29-1.07.37-1.62.19-1.28-.03-2.58-.29-3.79-.31-1.47-.63-2.94-1.06-4.39-.31-1.05-.66-2.09-.99-3.14-.33-1.05-.68-2.08-1.2-3.06-.08-.14-.01-.36-.11-.55-.16.59-.12,1.2-.13,1.8,0,.55,0,1.1,0,1.66-.01.64-.15.76-.84.79-.16,0-.31,0-.46,0-.68-.56-.91-1.35-1.18-2.12-.43-1.23-.39-3.03-.16-4.38.41-2.37,1.6-4.39,2.65-6.48.21-.43.45-.85.71-1.24.31-.45.8-.48,1.37-.45Z"/>
      <path class="cls-1" d="M145.08,12.08h.82c1.16.91,2.27,1.77,3.35,2.61.58-.29.46-.86.67-1.27.52-1.05.9-2.2,2.18-2.82.36.28.78.59,1.18.92.56.46,1.04,1.1,1.68,1.38.71.31,1.32.8,2.04,1.08.17.06.32.18.5.29-.36,1.48-.88,2.86-1.64,4.16-.53.9-.99,1.02-2.01.8-1.12-.25-1.88-1.02-2.76-1.62-.21-.14-.33-.41-.52-.64-.55,1.43-1.04,2.72-2.18,3.63-.65.09-1.21-.07-1.81-.42-1.05-.61-2.05-1.24-2.91-2.12-.74-.75-1.01-1.47-.63-2.53.46-1.28,1-2.48,2.04-3.43Z"/>
      <path class="cls-1" d="M164.25,7.06c.6-1.34,1.02-2.69,2.08-3.7.33-.31.61-.45.99-.08.18.18.48.24.64.43,1.13,1.33,2.65,2.06,4.16,2.73.38.95-.28,1.68-.48,2.5-.3,1.17-.95,2.13-2,2.9-1.63-.04-2.73-1.23-4.11-2.16-.11.13-.3.3-.43.5-.25.41-.54.81-.66,1.26-.18.68-.66,1.09-1.11,1.57-1.19.08-2.13-.47-3.07-1.13-.94-.66-1.65-1.52-2.48-2.26-.25-1.67.65-2.95,1.38-4.28.25-.46.58-1.05,1.07-1.02.5.03,1.01.38,1.41.83.73.83,1.65,1.41,2.62,1.91Z"/>
      <path class="cls-1" d="M181.9,55.51c.73-.36,1.33-.62,1.89-.96.41-.24.63-.06.9.2.27.27.43.5.16.9-.51.77-.96,1.57-1.43,2.36-1.26.82-2.34,2.04-4.01,1.89-.22.43-.55.79-.89,1.13-.17.16-.34.32-.51.49-.13.13-.31.42-.48.49-.08.03-.16.03-.25.03-.39,0-.95.03-1.24-.29-.26-.3-.17-.76-.07-1.11.11-.39.26-.77.4-1.15.02-.04.03-.09.02-.14,0-.04-.04-.07-.07-.1-.12-.12-.24-.25-.35-.38-1.02-1.2-1.25-2.82-.9-4.32.32-1.37,1.69-2.49,3.08-2.68.82-.11,1.68-.09,2.5.2.89.32,1.37,1.01,1.29,1.95-.04.49-.16.99-.06,1.47.02-.06-.08-.11-.13-.07-.06.05-.04.12,0,.16.04-.02.08-.06.12-.08ZM177.84,55.73c.33.16.64.31.96.46.49.24.49.24.97-.33-.08-.58-.64-.43-.97-.6-.46-.24-.49-.19-.96.46Z"/>
      <path class="cls-1" d="M105.5,25.5c-.35-1.51.34-2.63.9-3.76.34-.67.7-1.45,1.77-1.59.23.17.64.39.94.71.72.75,1.57,1.33,2.41,1.9.45.3.99.45,1.49.68.13.06.25.15.42.26-.23.76-.38,1.54-.69,2.26-.35.84-.8,1.65-1.28,2.42-.3.49-.93.6-1.52.42-.75-.23-1.37-.69-2.03-1.09-.97-.59-1.76-1.37-2.42-2.2Z"/>
    </g>
    <g>
      <path class="cls-2" d="M155.11,137.75c-.23-1.06.37-1.85.68-2.7.05-.15.27-.26.43-.35.44-.26.92-.47,1.34-.75.16-.11.24-.36.34-.56.2-.43.37-.87.6-1.29.08-.14.29-.2.46-.31.29,1.69.58,3.31.88,5.03,1.1,0,2.23,0,3.36,0,.41,0,.6-.22.62-.64.02-.35,0-.71,0-1,.39-.39.75-.74,1.13-1.13.12.78,0,1.62.07,2.44.49.39,1.06.35,1.64.34.39,0,.79-.02,1.18,0,.42.03.64-.16.71-.56.02-.11,0-.26.07-.32.93-.98,2.01-1.64,3.38-1.76.45.92.32,2.07,1.6,2.62h3.9c.16-.5-.14-.85-.37-1.22-.16-.25-.37-.48-.49-.75-.07-.15-.06-.4.02-.54.25-.44.56-.84.89-1.33,1.9,1.67,1.63,3.63.85,5.71h-5.78c-.21.25-.43.51-.66.78-1.25-.61-2.46-1.2-3.79-1.85-.05.32-.05.49-.1.65-.11.32-.33.47-.7.46-.91-.02-1.81,0-2.71,0-.28-.26-.56-.52-.85-.78q-.52.78-1.39.78c-.99,0-1.97,0-2.93,0-.74-.32-.69-.97-.64-1.76-.24.15-.41.2-.48.31-.11.18-.13.42-.25.6-.21.3-.46.48-.88.32-.66-.24-1.35-.41-2.14-.45ZM158.29,134.26c-.2.94-.97,1.17-1.47,1.8h1.85c-.11-.54-.22-1.07-.37-1.8ZM171.2,136.96q-.16-1.12-1.22-.97c0,.78.81.44,1.22.97Z"/>
      <path class="cls-2" d="M131.82,130.67c.51-.51.94-.94,1.37-1.37.22.93.4,1.9.33,2.9-.04.57.34,1.07.25,1.68-.07.52-.05,1.04.19,1.57.14.29.02.69.02,1.03.86.6,1.81.25,2.75.37.13-1.24,1.09-1.89,1.91-2.6.7-.61,1.44-.73,2.38-.67.45.42.56.96.54,1.55-.03.69,0,.69-.54,1.69,1.45.03,2.85,0,4.26.02-.21-.66-.35-1.26-.84-1.78-.28-.3.02-.8.2-1.16.16-.32.44-.57.66-.86.62.18.6.81.87,1.22.25.37.39.79.36,1.27-.06.84.03,1.68-.23,2.51-.18.57-.21.69-.83.69-2.09,0-4.18,0-6.26,0-1.93,0-3.86,0-5.79,0-.78,0-.85-.09-.87-.88-.03-1.23-.39-2.44-.24-3.68-.34-.77-.19-1.58-.25-2.38-.03-.4-.19-.79-.27-1.11ZM137.88,136.02c.49.67.99.81,1.59.81.33,0,.59-.16.64-.38.07-.3.16-.71-.22-.94-.2-.12-.42-.22-.61-.31-.46.27-.9.52-1.4.82Z"/>
      <path class="cls-2" d="M83.26,131.54c.11.58.25,1.08.28,1.59.02.53.37.99.27,1.56-.05.26.17.56.21.85.04.27-.03.56.02.82.06.27.23.47.57.46,1.13,0,2.27,0,3.49,0-.33-1.32.34-2.13,1.27-2.99.15.62.16,1.08,0,1.56-.29.91.06,1.42.97,1.43.75.01,1.5.02,2.25,0,.53-.01.64-.21.5-.76-.05-.18-.08-.38-.06-.56.06-.7-.23-1.32-.36-1.98-.03-.14-.13-.29-.11-.42.07-.48-.1-.82-.47-1.11-.32-.25-.35-.54-.08-.89.22-.29.35-.64.55-.95.12-.18.29-.32.56-.6.3,1.34,1.65,1.35,2.26,2.21-.46.56-.92,1.12-1.37,1.67.14.87.41,1.75.4,2.63,0,.88-.29,1.75-.46,2.65h-4.86c-.2-.2-.46-.46-.8-.8-.23.27-.41.48-.67.79h-3.7c-.69-.31-.57-1.09-.96-1.63-.32.42-.63.82-.89,1.16-.98-.18-1.85-.34-2.73-.5.38-1.93.64-3.03,2.2-3.52.47-.15.98-.43.86-1.16-.04-.23.24-.51.39-.77.13-.22.28-.43.47-.72ZM82.79,134.72c-.12-.01-.25-.05-.27-.02-.29.53-.61,1.01-1.3,1.03-.01,0-.02.2-.03.34h1.6v-1.36Z"/>
      <path class="cls-2" d="M191.54,132.65c.32.34.47.5.62.66.31.3.57.73.94.87.42.17.39.59.71.8.35.23.6.62.94.9.4.33.4.7.26,1.14-.17.52-.31,1.06-.48,1.65h-7.42c-.11-.6-.25-1.19-.3-1.78-.05-.59.11-1.22-.04-1.76-.22-.8-.13-1.6-.23-2.39-.06-.52-.22-1.02-.23-1.56,0-.97.54-1.51,1.27-1.97.08.08.13.1.13.13.09,1.3.14,2.61.29,3.9.1.87.23,1.74.25,2.62,0,.33.32.65.47.93h4.57c-.82-.77-1.42-1.62-2.46-1.66-.42-.46-.8-.88-1.24-1.36.19-.73.4-1.52.63-2.35.41-.16.88-.44,1.37-.5,1.34-.15,2.47-1.06,3.94-.97-.04.11-.06.18-.1.26-.19.44.02,1.07-.43,1.34-.55.34-1.19.56-1.81.76-.45.15-.94.2-1.64.34Z"/>
      <path class="cls-2" d="M112.81,129.32c.18.87.61,1.28,1.25,1.61,1.41.72,1.18.91.35,1.71-.36.35-.87.79-.36,1.46.13.18,0,.54.05.8.07.44-.22.95.22,1.33-.31.72-.17,1.55-.56,2.24-.16.29-.44.26-.72.26-1.42,0-2.84,0-4.27,0-.16-.32-.32-.64-.51-1.01-.4.23-.48.63-.63,1.01-1.26,0-2.52,0-3.78,0-.48,0-.76-.28-.63-.73.26-.93.1-2,.93-2.86,0,.38,0,.68,0,.99.02.51.19.71.67.72,1.02.01,2.04,0,3.18,0-.1-.69-.07-1.37-.32-1.92-.36-.77-.2-1.36.25-1.98.13-.17.19-.39.37-.76.24.73.45,1.29.59,1.87.19.75.32,1.52.48,2.28.07.36.3.5.66.5.94,0,1.88,0,2.92,0-.04-.57.06-1.17-.16-1.61-.25-.52.16-1.1-.29-1.54-.08-.08-.08-.3-.05-.44.09-.46-.13-.87-.4-1.13-.45-.43-.34-.77-.09-1.2.27-.47.52-.96.85-1.58Z"/>
      <path class="cls-2" d="M185.82,117.89c.72,1.56,1.79,2.9,2.42,4.61.7-1.31,1.37-2.46,1.95-3.65.37-.76.87-1.12,1.76-.91v7.03h-1.13v-4.43s-.1-.02-.15-.03c-.2.44-.38.89-.61,1.31-.22.42-.5.81-.74,1.23-.25.44-.24,1.06-.87,1.23-.6-.19-.95-.61-1.21-1.18-.37-.81-.83-1.59-1.36-2.58v4.4h-1.46c0-2.13,0-4.29,0-6.44,0-.38.23-.55.56-.59.26-.03.54,0,.84,0Z"/>
      <path class="cls-2" d="M96.81,126.39h-1.21c-.48-.48-.95-.95-1.4-1.4-.54,0-1.02-.04-1.48,0-.92.09-1.82-.5-2.38-1.19-.27-.34-.49-.73-.59-1.16-.1-.43-.05-.89-.06-1.33s-.03-.91.12-1.34c.07-.19.16-.38.27-.54.29-.42.69-.74,1.13-1,.17-.1.34-.19.52-.27.87-.41,1.89-.44,2.87-.05.84.33,1.45,1.06,1.79,1.88.17.42.27.86.31,1.31.02.22.02.44,0,.66-.02.26-.12.43-.22.67-.03.07-.05.14-.07.21,0,.02-.01.04-.02.06-.14.64-.58,1.04-1,1.46.47.52.95,1.02,1.4,1.55.06.07,0,.23,0,.45ZM95.15,121.63c0-.25.06-.51-.01-.72-.17-.47-.29-1.08-.65-1.34-1.34-.95-2.72-.53-3.26.96-.15.42-.1.92-.1,1.38-.01,1.73,1.74,2.23,2.91,1.72.93-.41,1.16-1.11,1.11-2Z"/>
      <path class="cls-2" d="M133.08,117.89c.85,0,1.67-.04,2.49.02.51.04,1.01.19,1.5.35.69.23,1.08.68.95,1.47-.04.27,0,.55,0,.92-.23.16-.52.37-.83.58.42.41.73.7,1.02.98.09.61.02,1.14-.17,1.7-.11.33-.22.5-.53.64-.58.26-1.16.48-1.81.47-.86-.02-1.72,0-2.61,0v-7.1ZM136.54,123.8c.03-.16.04-.27.08-.37.37-.89.07-1.44-.87-1.51-.42-.03-.84,0-1.23,0v1.89h2.02ZM134.5,119.07v1.89c.39,0,.74,0,1.09,0,.54-.02.97-.41,1-.89.03-.56-.39-.98-1-1-.35-.01-.7,0-1.09,0Z"/>
      <path class="cls-2" d="M104.19,117.94c.82-.28,1.24.29,1.57.77.49.73,1.01,1.42,1.61,2.06.41.44.75.94,1.28,1.63,0-1.38,0-2.51,0-3.64,0-.7.13-.83.77-.86.19,0,.38,0,.61,0v7.01c-.84.41-1.43-.09-1.82-.72-.81-1.31-1.95-2.36-2.87-3.94v4.73h-1.16v-7.03Z"/>
      <path class="cls-2" d="M128.44,124.99c-.37-.05-.86.16-1.24-.23-1.39-.1-1.68-1.28-2.2-2.24.07-.97-.18-1.94.43-2.89.7-1.09,1.62-1.63,2.84-1.73,1.19-.09,2.3.22,3.02,1.23.87,1.22,1.07,2.56.43,4-.63,1.43-1.74,1.93-3.29,1.86ZM129.44,123.8c.33-.41.75-.78.98-1.25.48-.96.31-1.87-.45-2.67-.31-.33-.91-.79-1.3-.82-.5-.04-.97.16-1.35.42-.82.54-.98,1.38-.92,2.32.04.59.28,1.15.64,1.48.33.3.79.75,1.42.53.25-.08.55-.01.98-.01Z"/>
      <path class="cls-2" d="M171.91,117.89c.86,0,1.69-.04,2.51.01.81.05,1.6.32,2.3.72.79.46,1.17,1.32,1.28,2.17.17,1.29-.13,2.48-1.18,3.41-.56.5-1.23.71-1.93.77-.97.08-1.96.02-2.98.02v-7.1ZM173.32,123.8h1.99c.8-.8,1.26-1.39,1.3-1.71.09-.66.05-1.38-.27-1.89-.68-1.07-1.79-1.28-3.02-1.09v4.69Z"/>
      <path class="cls-2" d="M101.1,137.83c-.62.67-1.53,1.04-2.13.79-.84-.34-1.25-1.37-.87-2.25.26-.6.5-1.22.86-1.77.39-.6.98-.95,1.74-.86,1.01.8,1.29,1.87,1.34,3.11.06,1.57-.49,2.92-1.21,4.24-.5.92-1.4,1.21-2.32,1.37-.28.05-.6-.23-.96-.23-.32,0-.65-.12-.97-.22-.52-.16-1-.47-1.57-.5-.05,0-.08-.19-.16-.37.53-.09,1.01-.17,1.48.05.49.22.92.12,1.4-.11,1.29-.64,2.41-1.45,3.17-2.57.13-.19.14-.46.2-.69ZM100.62,136.49c-.66-.64-.67-.62-1.08-.62-.39,0-.52.25-.61.55q.96.5,1.69.06Z"/>
      <path class="cls-2" d="M124.57,134.88c-.25.68-.45,1.18-.63,1.7-.28.79.21,1.91.98,2.14.91.26,1.83.46,2.75.01.2-.1.4-.18.61-.23.76-.18.76-.17,1.15-.55.23-.91-.18-1.62-.59-2.35-.32-.57-.57-1.15.12-1.71.22-.18.27-.57.44-.97.55.58.78,1.23,1.01,1.85.46,1.21.35,2.45-.05,3.67-.29.89-.7,1.31-1.48,1.72-.96.5-2,.75-3.04.91-.58.09-1.24-.17-1.84-.36-.81-.26-1.1-.89-1.17-1.73-.09-1.02.21-1.95.51-2.87.16-.5.41-1.04,1.22-1.21Z"/>
      <path class="cls-2" d="M117.21,122.62v-1.14h2.31v2.89c-1.07.76-2.29.75-3.43.57-1.49-.23-2.72-1.35-2.72-3.04,0-1.02.16-1.92.71-2.79.18-.28.36-.4.62-.56.94-.6,1.97-.8,3.03-.65.71.1,1.33.47,1.8,1.03-.18.29-.35.57-.54.87-.55-.07-.9-.62-1.47-.51-.58-.64-1.19-.07-1.67.1-.48.17-.97.7-1.02,1.3-.07.74-.12,1.5.34,2.22.26.4.62.63.96.85.26.17.71.09,1.07.25.17.08.48-.12.72-.21.26-.1.46-.25.45-.59-.01-.38-.23-.54-.56-.59-.19-.03-.38,0-.6,0Z"/>
      <path class="cls-2" d="M145.06,124.96h-1.29c-.21-.54-.42-1.08-.63-1.62h-2.68c-.2.51-.41,1.05-.63,1.62h-1.37c.06-.26.1-.5.19-.72.49-1.26,1.01-2.5,1.49-3.76.27-.72.46-1.47.73-2.18.07-.17.31-.34.5-.39.26-.07.55-.02.82-.02.32,0,.47.2.56.48.57,1.77,1.23,3.51,1.99,5.21.18.4.53.83.32,1.38ZM141.91,119.98c-.09,0-.18,0-.27.01-.27.77-.54,1.54-.81,2.33h2.01c-.41-.8-.5-1.64-.93-2.35Z"/>
      <path class="cls-2" d="M158.4,124.99h-1.31c-.22-.54-.44-1.07-.66-1.63h-2.71c-.21.55-.42,1.09-.61,1.6h-1.42c.25-.86.59-1.62.92-2.38.33-.77.5-1.61.81-2.39.31-.78.71-1.52,1.09-2.29.04,0,.12,0,.2,0,1.18,0,1.24-.02,1.52,1.06.27,1.04.78,1.97,1.12,2.97.27.83.66,1.62.98,2.43.07.17.05.37.09.64ZM156.07,122.34c-.41-.8-.44-1.68-1.1-2.52-.34.93-.61,1.69-.91,2.52h2.01Z"/>
      <path class="cls-2" d="M168.45,117.89c.93,2.36,1.83,4.66,2.76,7.04h-1.42c-.2-.47-.4-.97-.66-1.59-.69,0-1.51,0-2.32,0-.38,0-.51.23-.62.54-.13.38-.31.74-.45,1.1h-1.14c-.27-.84.36-1.44.58-2.13.47-1.53,1.25-2.94,1.74-4.47.09-.28.24-.48.56-.48.31,0,.63,0,1,0ZM166.8,122.33c.66.08,1.21.08,1.76,0-.03-.77-.47-2.08-.87-2.6-.29.86-.58,1.68-.89,2.59Z"/>
      <path class="cls-2" d="M103.53,124.98h-1.42c-.19-.51-.4-1.04-.62-1.61h-2.68c-.25.51-.51,1.03-.78,1.58h-1.15c-.12-.41,0-.73.17-1.09.66-1.38,1.13-2.84,1.67-4.27.16-.44.55-.8.51-1.34,0-.1.34-.3.54-.33.3-.06.63-.01,1.01-.01.9,2.31,1.81,4.64,2.76,7.09ZM101.1,122.34c-.35-.9-.67-1.74-1.08-2.78-.31,1.07-.76,1.85-.86,2.78h1.94Z"/>
      <path class="cls-2" d="M180.44,120.97h2.29v1.15h-2.3v1.67h3.03v1.15h-4.44c-.01-.26-.03-.56-.03-.86,0-1.77,0-3.55,0-5.32,0-.79.09-.87.86-.88,1.18,0,2.36,0,3.59,0v1.18h-2.99v1.91Z"/>
      <path class="cls-2" d="M80.5,122.19v1.58h2.99v1.19h-4.38v-7.07c1.24,0,2.5,0,3.75,0h.69s0,1.17,0,1.17h-3.04v1.9h2.29v1.22h-2.31Z"/>
      <path class="cls-2" d="M164.52,123.91c-.99,1.38-2.4,1.06-3.72,1.06-.23,0-.52-.13-.69-.29-.73-.67-1.49-1.31-1.5-2.44,0-.32-.29-.7-.2-.95.24-.61.28-1.26.63-1.87.55-.96,1.42-1.23,2.32-1.53.11-.03.24,0,.35,0,.7-.06,1.36,0,1.93.47.17.14.38.21.59.31.02.88-.32,1.12-1.15.71-.64-.32-1.21-.3-1.91-.12-.72.18-.74.81-1.1,1.19-.21.22.07.79-.23,1.15.38.24.11.65.24.96.43,1.07,1.71,1.58,2.83,1.1.1-.04.24-.03.31-.09.41-.42.74-.27,1.06.11.09.11.2.21.23.24Z"/>
      <path class="cls-2" d="M196.5,124.97h-1.42c0-.8-.03-1.57,0-2.35.02-.49-.16-.88-.43-1.24-.78-1.03-1.28-2.22-2.05-3.36.51-.23.98-.09,1.48-.15.57,1.02,1.15,2.04,1.79,3.17.22-.33.41-.58.56-.85.27-.51.5-1.05.78-1.56.49-.91.96-1.01,1.86-.43-.39.57-.84,1.1-1.14,1.72-.29.6-.6,1.17-.96,1.73-.34.53-.57,1.12-.5,1.8.05.47,0,.94,0,1.51Z"/>
      <path class="cls-2" d="M180.4,136.81h3.33c-.15-.91-.78-1.4-1.38-1.88-.52-.41-.56-.38-.34-1.02.13-.38-.17-.91.47-1.1,1.46.61,2.41,2,2.42,3.62,0,.64.1,1.3-.24,1.9-.07.13-.21.23-.33.36h-4.08c-.35-.64.2-1.17.14-1.89Z"/>
      <path class="cls-2" d="M88.78,117.89c-1.46-.01-2.92,0-4.38,0h-.61v1.19c.55,0,1.05-.01,1.56,0h.58s0,1.28,0,1.28v4.61h1.46v-5.9h2.09v-1.18h-.69Z"/>
      <path class="cls-2" d="M147.25,117.93v5.88c.61,0,1.19,0,1.77,0q1.06,0,1.02,1.15h-4.15v-7.03h1.36Z"/>
      <path class="cls-2" d="M120.77,117.94c.1-.02.17-.05.24-.05,1.13,0,1.13,0,1.14,1.07,0,1.57,0,3.14,0,4.81.41.01.83.03,1.24.03.43,0,.85,0,1.32,0v1.12h-3.95v-6.99Z"/>
      <path class="cls-2" d="M149.45,138.64c-.11-1.32-.2-2.42-.31-3.52-.04-.44-.3-.84-.25-1.32.05-.41-.02-.8-.19-1.21-.16-.39-.1-.91.2-1.3.34-.45.69-.9,1.07-1.4.25,1.19.38,2.31.36,3.46-.01.79.15,1.58.22,2.38.07.84-.41,1.58-.49,2.4-.01.15-.32.28-.62.52Z"/>
      <path class="cls-2" d="M117.92,138.53c-.02-.23-.02-.41-.04-.6-.08-.99,0-2.03-.28-2.95-.27-.85.02-1.73-.4-2.54-.17-.32-.02-.74.21-1.07.34-.48.68-.96,1.07-1.51.21,1.33.41,2.53.37,3.77-.02.67.21,1.35.2,2.02,0,.97-.37,1.87-.75,2.75-.03.07-.2.07-.38.13Z"/>
      <path class="cls-2" d="M198.78,129.86c.21,1.52.41,2.89.33,4.28-.01.18.06.36.1.54.35,1.39-.02,2.63-.76,3.79-.02.02-.14-.02-.2-.03-.04-.03-.09-.06-.09-.09-.08-1.11-.06-2.23-.28-3.31-.14-.68-.03-1.4-.23-2.02-.43-1.34.35-2.16,1.13-3.16Z"/>
      <path class="cls-2" d="M172.27,141.05c.44-.42.8-.78,1.21-1.17.4.25.83.52,1.26.79.5-.33.76-1.05,1.54-.7.31.26.68.56.99.83-.38.36-.77.73-1.25,1.19-.32-.16-.84-.41-1.39-.69-.27.27-.53.53-.79.79-.53-.36-1.19-.4-1.57-1.03Z"/>
      <path class="cls-2" d="M142.02,131.39c.35-.28.51-.4.65-.53.57-.54.58-.56,1.22-.1.26.19.54.26.72.04.49-.6,1.01-.35,1.53-.12.23.1.43.25.7.41-.28.51-.75.81-1.09,1.22-.46-.23-.91-.46-1.33-.68-.24.27-.48.53-.7.77-.58-.34-1.04-.61-1.7-.99Z"/>
      <path class="cls-2" d="M89.7,140.74c.08.71-.51.92-.88,1.28-.08.07-.38.05-.43-.02-.61-.88-1.17-.19-1.82.06-.36-.25-.76-.52-1.18-.81.41-.39.77-.74,1.19-1.14.14.11.33.23.49.37.24.21.54.26.71.02.41-.59.85-.31,1.29-.12.2.09.38.22.63.36Z"/>
      <path class="cls-2" d="M161.11,141.22c.43-.44.72-.73,1.07-1.08.3.2.66.44,1.06.71.22-.25.44-.51.68-.78.48.24.9.45,1.32.66.17.71-.57.85-.79,1.37-.31-.14-.59-.23-.83-.38-.29-.18-.52-.2-.81.02-.6.45-.62.43-1.13-.05-.17-.16-.36-.29-.57-.46Z"/>
      <path class="cls-2" d="M138.77,131.42c.74-.84,1.18-.61,2.08.07,0,.07.03.17,0,.22q-.58,1.02-1.7.45c-.16-.08-.33-.14-.59-.25,0,0-.08.06-.15.11-.24.18-.49.5-.72.49-.33-.02-.68-.25-.97-.45-.11-.08-.17-.37-.12-.52.23-.61.77-.8,1.41-.53.23.1.45.23.76.39Z"/>
      <path class="cls-2" d="M78.75,130.87c.14-.14.26-.27.39-.41q.7-.7,1.51-.01c.41-.02.55-.65,1.08-.51.45.12.85.25,1.12.65-.62,1.3-.69,1.32-1.99.57q-.8.66-2.11-.3Z"/>
      <path class="cls-2" d="M158.62,130.72l-.87.87c-.51.15-.89-.08-1.22-.55-.22.19-.37.36-.55.47-.38.24-1.29-.14-1.39-.57-.1-.42.23-.63.47-.86.23-.21.51-.23.71.01.39.46.75.47,1.15.02.22-.25.47-.22.72-.06.34.22.67.46.98.67Z"/>
      <path class="cls-2" d="M198.41,126.65c-.03.27,0,.49-.08.63-.08.13-.19.43-.51.14-.15-.13-.51-.04-.77,0-.04,0-.07.19-.13.39h2.11c.16.48-.11.6-.4.74-.61.3-1.36.31-1.92.87.05-.27.1-.54.15-.78-.19-.14-.42-.31-.72-.53.41-.54.77-1.02,1.1-1.46h1.17Z"/>
      <path class="cls-2" d="M151.46,141.32c-.24.33-.32.57-.46.6-.7.19-1.38.43-2.12.74.06-.15.15-.29.18-.45.03-.13.02-.37-.02-.39-.62-.17-.46-.47-.18-.83.21-.26.36-.58.59-.81.44-.45.76-.41,1.4.15-.13.17-.27.34-.41.52-.37-.01-.66-.49-1.08-.15.03.51.5.5.8.58.32.09.69.02,1.3.02Z"/>
      <path class="cls-2" d="M126.17,132.84c-.32-.24-.59-.43-.95-.7,0-.15-.06-.45.05-.67.36-.7,1.02-.76,1.62-.21.17.16.37.29.54.41q-.46.69-1.26,1.16Z"/>
    </g>
    <g>
      <path class="cls-1" d="M49,58.98v2.52h-28.61v-2.52h28.61Z"/>
      <path class="cls-2" d="M7.17,11.87c.92-.16,1.58.16,2.27.66,1.14.82,2.35,1.53,3.56,2.22.56.32.78.73.74,1.34,0,.12,0,.24,0,.37-.28.27-.56.54-.8.78-.77.27-1.43-.11-1.92-.49-1.15-.89-2.47-1.49-3.66-2.31-.09-.06-.2-.1-.28-.17-.82-.7-.87-1.27-.17-2.11.1-.12.21-.23.27-.29Z"/>
      <path class="cls-2" d="M62.91,54.93c-.63-.07-1.26.13-1.83-.25-.71-.47-1.43-.91-2.16-1.35-.38-.23-.78-.42-1.14-.68-.58-.43-1.14-.91-1.67-1.34.04-.41,0-.71.22-1.06.5-.78,1.15-1.05,1.94-.55,1.43.91,2.84,1.84,4.35,2.61.44.22.7.7.82,1.18.13.52-.19.93-.54,1.42Z"/>
      <path class="cls-2" d="M60.04,11.84c.08.08.17.16.25.25.93,1.04.63,1.62-.3,2.32-.79.59-1.71,1.02-2.52,1.61-.61.45-1.33.76-2.02,1.09-.82.39-1.86-.16-1.92-1.04-.04-.57.34-1,.76-1.33.47-.37.94-.79,1.48-.98.96-.34,1.6-1.2,2.58-1.46.43-.64,1.08-.47,1.69-.47Z"/>
      <path class="cls-2" d="M5.04,54.86c-.14-.14-.33-.33-.53-.53,0-.07,0-.15,0-.23.02-.42-.06-.91.11-1.25.14-.27.64-.32.93-.54,1.08-.85,2.35-1.43,3.43-2.27.35-.28.75-.36,1.1-.51.51-.22,1,.21,1.36.62.31.36.23.79.08,1.19-.18.49-.45.7-1.36,1.22-.89.52-1.79,1.04-2.64,1.62-.74.5-1.48.93-2.47.69Z"/>
      <path class="cls-2" d="M.6,32.67h6.64c.25.27.52.55.82.87v.91c-.27.26-.55.54-.85.82H.83c-.27-.28-.54-.56-.82-.84-.05-.61,0-1.21.59-1.76Z"/>
      <path class="cls-2" d="M68.08,32.67c1.08.92,1.09,1.68,0,2.6-2.13,0-4.26,0-6.36,0-.3-.29-.58-.56-.85-.82,0-.25-.02-.49,0-.72.1-.77.42-1.05,1.18-1.05,2.01,0,4.02,0,6.03,0Z"/>
      <path class="cls-2" d="M35.17,0c.36.36.63.62.61,1.14-.05,1.84-.05,3.69,0,5.54.01.52-.26.78-.58,1.11h-1.48c-.44-.4-.58-.91-.57-1.52.03-1.53,0-3.06.01-4.6,0-1.35.3-1.66,1.63-1.67.12,0,.24,0,.38,0Z"/>
      <path class="cls-2" d="M17.58,28.49c-.1-.33-.21-.65-.28-.97-.06-.29-.02-.56-.18-.88-.2-.38-.01-.85.15-1.3.31-.86.61-1.68,1.47-2.15.1-.05.19-.21.2-.33.08-.74.44-1.31.91-1.88,1.11-1.34,2.59-1.74,4.23-1.81.23,0,.47,0,.76,0,.28-1.34.94-2.48,2.04-3.28.73-.53,1.66-.65,2.53-.72,2.27-.18,4.06.64,5.04,2.86.3-1.01,1.06-1.65,1.79-2.25.43-.35,1.06-.57,1.62-.61,1.9-.13,3.71.11,5.12,1.61.4.42.56.96.82,1.44.15.28.2.62.31.96,1.11-.11,2.14.08,3.14.46.53.2,1.02.49,1.39.93.33.4.88.61.9,1.3,0,.34.44.66.45,1.11,0,.12.14.3.25.36,1.14.56,1.31,1.71,1.6,2.75.09.31-.13.72-.21,1.08-.04.18-.07.36-.13.54-.09.28-.19.55-.3.88,1.3.27,1.71,1.43,2.25,2.48.07.13.06.29.07.44.03.37-.1.77.23,1.09.06.06.04.24,0,.34-.31.98-.2,2.08-.79,2.98-.16.24-.08.35-.02.59.13.48.16,1.01.08,1.5-.12.72-.2,1.46-.49,2.16-.5,1.22-1.44,1.96-2.62,2.44-.07.03-.12.08-.18.12.35.7.38,2.43-.05,3.1-.54.84-1.02,1.7-1.96,2.28-1.04.64-2.1.26-3.21.48.02.39-.02.79-.24,1.16-.42.7-.63,1.48-1.26,2.09-1.56,1.54-3.34,1.8-5.32,1.12-1.17-.4-2.13-1.1-2.73-2.23-.14-.26-.35-.48-.54-.73-.8,1.56-2.04,2.61-3.8,3.11-.75.22-1.46.15-2.18.12-.68-.02-1.31-.39-1.93-.74-.72-.41-.98-1.09-1.41-1.67-.47-.64-.75-1.37-.72-2.29-.58,0-1.16-.03-1.73,0-.81.04-1.47-.31-2.02-.83-.5-.47-.9-1.04-1.35-1.56-.34-.4-.26-.92-.43-1.36-.18-.45-.17-.83.02-1.29.27-.64.16-.73-.52-1.12-1.5-.88-1.81-1.38-2.27-3.16-.14-.53-.24-1.04-.2-1.56.03-.49-.16-1,.14-1.48.05-.09-.09-.3-.15-.45-.15-.33-.39-.64-.46-.99-.18-.9-.46-1.84-.23-2.73.36-1.41.92-2.76,2.39-3.5ZM27.52,43.51c.07.04.13.09.2.13-.08.27-.23.53-.23.8-.03.97-.43,1.8-.99,2.55-.25.34-.21.64-.17.97.02.17.18.33.19.51.09.89.64,1.55,1.25,2.07.59.5,1.38.77,2.22.57.26-.06,1.43-.7,1.63-.92.6-.69,1.09-1.43,1.07-2.39,0-.51,0-1.02,0-1.48-.55-.76-1.34-.86-2.23-.9.45-.91,1.27-.96,2-1.25-.02-.59.04-1.2-.04-1.83-2.04.8-4.04-.06-4.83-2.32.04,0,.09-.02.11,0,.37.24.72.53,1.12.73.39.2.81.33,1.23.44.23.06.44-.16.62-.19.79-.11,1.25-.66,1.77-1.08v-4.76c-.23-.23-.45-.46-.68-.67-.67-.64-1.76-1.17-2.64-1.34-.31-.06-.61-.2-.91-.31.76-.15,1.43-.43,2.17-.42.72,0,1.32.43,2.06.5,0-.74-.04-1.41,0-2.07.07-1.02-.45-1.8-.99-2.55-.41-.57-.92-1.13-1.51-1.48-.47-.28-1.14-.36-1.64-.6-.46-.21-.93.04-1.28-.24v-.59c1.89-.18,3.69-.03,5.41.89,0-2.29,0-4.5,0-6.71,0-.63-.24-1.22-.69-1.54-1.02-.72-1.47-.98-2.9-.49-1.05.36-1.74,1.06-1.87,2.2.26.18.5.35.73.53.91.73,1.45,1.75,2.11,2.68.03.05-.07.19-.12.33-1.25-.61-2.48-1.14-3.79-1.52-1.68-.48-1.84-.6-3.14-.17-.48.16-1.07.38-1.25.98.45.66,1.38.59,1.72,1.43.28.68.95,1.2.86,2.14-.41-.32-.74-.56-1.06-.83-.57-.49-1.33-.63-1.97-.61-.82.03-1.51.6-1.84,1.44-.04.09-.05.23,0,.32.34.77.53,1.6,1.08,2.28.37.46.71.95,1.17,1.57-.81.04-1.47.01-2.12.02-.79.01-1.69.56-1.78,1.29-.08.66-.63,1.36-.05,2.04.33,1.6,1.22,2.34,2.82,2.35.67,0,1.34-.03,2.01.02.23.01.44.2.7.33-.14.25-.23.41-.32.57-.44.78-1.05,1.22-2.01,1.24-.92.01-1.77-.26-2.74-.53.03.28.03.5.09.7.11.35.27.68.39,1.02.24.72.66,1.11,1.34,1.15.61.04,1.18-.02,1.75-.34.56-.32,1.22-.49,1.85-.73.11-1.13.25-2.27,1.24-3.12.75-.65,1.48-1.05,2.54-1.05,1.26,0,2.72,1.03,3.07,2.33-.07.03-.14.09-.2.07-.87-.19-1.73-.39-2.6-.59-.13-.03-.29-.1-.4-.06-.63.24-1.09.71-1.24,1.35-.1.43-.13.88-.24,1.32-.26,1.13-.86,1.79-1.97,2.01-.58.12-1.16.27-1.58.78-.3.36-.68.65-.91.88-.31,1.55.53,2.36,1.54,3.06,1.25.15,2.21-.4,3.06-1.21.48-.47.95-.95,1.43-1.42.1-.1.24-.16.36-.25ZM42.07,19.49c-.19-.23-.3-.33-.38-.45-.09-.15-.16-.33-.24-.49-.02-.03-1.09-1.03-1.11-1.03-.51.11-.96-.18-1.44-.22-.31-.02-.65.12-.96.22-.99.31-1.45.95-1.45,2.01,0,.63.09,1.28-.02,1.89-.26,1.45-.29,1.55,0,3.12.07.38.13.87-.05,1.15-.28.41.07.41.2.56,1.62-1.11,3.45-.95,5.28-.9v.69c-.21,0-.4,0-.58,0-.38.02-2.26.65-2.49.85-.29.26-.53.62-.86.79-.41.2-.48.62-.78.89-.47.43-.63,1.09-.69,1.71-.08.85-.02,1.72-.02,2.6,1.68-.67,2.47-.56,4.55-.03-1.79.35-3.47.77-4.43,2.22-.3.65.13,1.27-.34,1.79-.07.08-.05.37.03.44.34.29.17.66.19.99.03.55,0,1.09,0,1.6.18.18.32.33.46.46.9.84,2.05.97,3.12.36.16-.09.28-.26.45-.35.27-.15.57-.26,1.02-.45-.71,1.26-1.51,2.14-2.68,2.56-.75.27-1.54.25-2.31-.04-.43.59.13,1.18-.08,1.73.76.29,1.59.33,2.01,1.28-.31,0-.5-.02-.68,0-1.32.2-2,.99-1.77,2.26.21,1.16.72,2.3,1.77,2.9.8.46,1.77.85,2.76.28.83-.48,1.5-1.23,1.75-2.18.19-.72.4-1.38-.24-2.13-.75-.88-.85-2.09-.83-3.43.34.37.61.56.74.83.44.85,1.21,1.28,1.98,1.75,1.57.96,2.31.93,3.42-.43.68-.83.68-1.44,0-2.33-.57-.76-1.37-1.14-2.29-1.32-.85-.17-1.41-.71-1.69-1.5-.16-.45-.19-.95-.28-1.42-.04-.22-.05-.45-.15-.65-.46-.89-.6-1.08-1.76-.92-.64.08-1.28.12-1.91.25-.3.06-.55.44-.85.14.24-.36.47-.71.71-1.04.71-.97,2.51-1.66,3.61-1.21.93.38,1.79.96,2.27,1.95.1.21.25.37.22.62-.02.24-.07.5,0,.7.17.45.22,1.06.82,1.17.67.12,1.25.44,1.86.64.56.18,1.26.32,1.84-.27.44-.45.85-.96.91-1.5.04-.31.09-.62.15-1-.94.32-1.87.57-2.86.51-.48-.03-.9-.16-1.21-.51-.37-.41-.7-.86-1.09-1.36.25-.11.45-.26.66-.27.75-.03,1.5.01,2.25-.02,1.5-.05,3.04-1.14,2.82-2.82-.04-.27,0-.55,0-.83,0-1.07-1.11-2.06-2.05-2.03-.58.02-1.16,0-1.81,0,.26-.38.47-.64.63-.93.4-.7.82-1.39,1.17-2.12.46-.97.02-2.04-.95-2.39-.71-.26-1.74-.14-2.4.31-.39.27-.77.56-1.15.85-.03-.09-.09-.17-.08-.23.36-1.11.75-2.19,1.91-2.74.29-.14.72-.15.69-.64-.89-.77-2.02-1.22-2.95-1.09-.65.09-1.32.24-1.93.48-1.02.39-2.13.59-3,1.33-.13.11-.41.04-.69.06.95-1.39,1.82-2.71,3.28-3.69Z"/>
      <path class="cls-2" d="M26.21,27.78c.05.71.42,1.16.33,1.72-.02.14.12.41.26.46.54.22,1,.64,1.65.59.61-.05,1.23-.01,1.92-.01-.17.64-.57.93-.99,1.18-.77.46-1.63.55-2.51.47-.45-.48-.6-.09-.82.25-.71,1.08-1.63,1.81-3.02,1.66-.08,0-.16,0-.24,0-1.14.03-2.28.03-3.35-.46-.19-.09-.45-.01-.73-.17.2-.1.4-.26.61-.3,1.59-.32,3.11-.82,4.57-1.51.87-.41,1.41-1.1,1.68-2,.12-.39.15-.8.25-1.2.05-.17.18-.32.39-.66Z"/>
      <path class="cls-2" d="M42.78,27.63c.09.8.47,1.43.59,2.17.13.76.73,1.3,1.41,1.69,1.22.69,2.54,1.13,3.91,1.43.43.09.85.23,1.35.37-.1.13-.2.33-.26.32-.41-.08-.74.13-1.08.26-.51.2-1.03.2-1.56.24-.72.05-1.98-.03-2.67-.25-.65-.22-1.23-.54-1.61-1.15-.16-.26-.35-.49-.53-.74-.92.61-1.79-.06-2.55-.03-.48-.48-.91-.91-1.4-1.4.55,0,1.09,0,1.64,0,.42,0,.82,0,1.21-.23.28-.16.72-.16.89-.38.2-.27.26-.7.25-1.06,0-.44.16-.8.4-1.24Z"/>
      <path class="cls-1" d="M20.49,95.92s1.18,1.43,3.79,2.15l5.12,9.47h10.51l4.88-8.48s1.62.27,4.11-2.79l-14.2,25.27-14.2-25.62Z"/>
      <path class="cls-2" d="M20.14,63.41v33.11c.55.47,1.93,1.53,3.99,1.8,2.72.36,4.74-.87,5.28-1.22.11.18,1.95,2.99,5.28,2.96,2.66-.02,4.31-1.83,4.57-2.13.37.3,2.25,1.76,4.9,1.48,3.28-.34,4.92-3.06,5.09-3.35v-32.66h-29.12ZM28.45,94.58c-.13.17-1.36,1.68-3.35,1.61-1.34-.05-2.24-.79-2.51-1.03v-29.18h5.86v28.6ZM37.92,95.87c-.18.2-1.34,1.49-3.22,1.48-2.37-.01-3.62-2.09-3.67-2.19v-29.18h6.89v29.89ZM46.68,95.1c-.63,1.19-1.85,1.95-3.19,2-1.98.06-3.11-1.49-3.19-1.61v-29.5h6.38v29.12Z"/>
      <path class="cls-2" d="M58.53,30.39c-.29-2.08-1.13-7.66-5.6-12.75-.74-.84-4.05-4.48-9.79-6.57-3.42-1.24-6.45-1.48-8.44-1.48-1.98,0-5.01.24-8.44,1.48-5.75,2.09-9.05,5.73-9.79,6.57-4.48,5.1-5.32,10.68-5.6,12.75-.28,2.03-.85,6.6,1.1,11.47,1.28,3.21,3.56,6.29,3.67,6.44,1.08,1.45,1.76,2.09,2.9,3.74,1.4,2.04,2.29,3.88,2.83,5.15h26.67c.54-1.27,1.43-3.12,2.83-5.15,1.13-1.65,1.82-2.28,2.9-3.74.12-.16,2.39-3.24,3.67-6.44,1.95-4.87,1.37-9.44,1.1-11.47ZM56.79,36.57c-.21,1.72-1.02,5.79-4.16,9.94-.74.97-1.56,2.02-2.8,3.71-1.31,1.78-2.18,3.4-2.71,4.51h-12.05s-12.05,0-12.05,0c-.53-1.11-1.39-2.73-2.71-4.51-1.24-1.69-2.04-2.36-2.83-3.29-3.3-3.82-3.91-8.65-4.12-10.37-.44-3.56.07-6.53.58-8.44.42-1.57,1.42-5.17,4.51-8.63,2.84-3.19,5.96-4.57,7.6-5.28,3.52-1.52,7.06-1.87,9.02-1.93,1.96.07,5.5.41,9.02,1.93,1.65.71,4.76,2.1,7.6,5.28,3.09,3.46,4.09,7.06,4.51,8.63.51,1.91,1.02,4.88.58,8.44Z"/>
    </g>
  </g>
</svg>