<?xml version="1.0" encoding="UTF-8"?>
<svg id="Layer_2" data-name="Layer 2" xmlns="http://www.w3.org/2000/svg" viewBox="0 0 233.87 63.21">
  <defs>
    <style>
      .cls-1 {
        fill: #0479ba;
      }

      .cls-2 {
        fill: none;
        stroke: #8f1d3b;
        stroke-miterlimit: 10;
        stroke-width: .56px;
      }

      .cls-3 {
        fill: #8f1d3b;
      }

      .cls-4 {
        fill: #213a80;
      }
    </style>
  </defs>
  <g id="Layer_1-2" data-name="Layer 1">
    <path class="cls-1" d="M219.42,14.57c4.02,0,7.28-3.27,7.28-7.28s-3.27-7.29-7.28-7.29-7.28,3.27-7.28,7.29,3.27,7.28,7.28,7.28"/>
    <path class="cls-4" d="M218.31,48.9c-2.38-.13-4.64-1.13-6.34-2.82-1.7-1.7-2.69-3.96-2.82-6.34,2.38.13,4.64,1.13,6.34,2.82,1.69,1.7,2.69,3.96,2.82,6.34M211.97,31.88c-1.7-1.7-2.69-3.96-2.82-6.34,2.38.13,4.64,1.13,6.34,2.82,1.69,1.7,2.69,3.96,2.82,6.34-2.37-.13-4.64-1.13-6.34-2.82M223.35,21.54c1.7-1.7,3.96-2.7,6.34-2.82-.13,2.38-1.13,4.64-2.82,6.34-1.69,1.7-3.96,2.7-6.34,2.82.13-2.38,1.13-4.64,2.82-6.34M223.35,35.85c1.7-1.7,3.96-2.7,6.34-2.82-.13,2.38-1.13,4.64-2.82,6.34-1.69,1.7-3.96,2.7-6.34,2.82.13-2.38,1.13-4.64,2.82-6.34M208,37.56l-.98.05-.05.98c-.18,3.36,1.08,6.65,3.46,9.03,2.11,2.11,4.94,3.34,7.9,3.46v3.74c-.03.25-.03.5,0,.74v.04c0,.17.04.34.12.48.09.3.23.58.42.84.58.79,1.48,1.22,2.4,1.22.54,0,1.08-.15,1.57-.45l2.46-1.55c.51-.32.67-1,.34-1.51-.32-.51-.99-.67-1.51-.34l-2.46,1.55c-.34.21-.8.13-1.04-.2-.06-.08-.1-.17-.12-.26v-.38c.05-.19.16-.35.32-.46l4.24-2.76h7.7c.6,0,1.09-.49,1.09-1.09s-.49-1.09-1.09-1.09h-8.35l-3.91,2.55v-7.77c2.96-.13,5.79-1.35,7.9-3.46,2.38-2.38,3.64-5.67,3.46-9.03l-.05-.98-.98-.05c-3.37-.18-6.65,1.08-9.03,3.46-.48.48-.91.99-1.29,1.54v-5.78c2.96-.13,5.79-1.35,7.9-3.46,2.38-2.38,3.64-5.67,3.46-9.03l-.05-.98-.98-.05c-3.37-.18-6.65,1.08-9.03,3.46-.48.48-.91.99-1.29,1.54v-3.97c0-.6-.49-1.09-1.09-1.09s-1.09.49-1.09,1.09v10.8c-.39-.54-.81-1.06-1.29-1.54h0c-2.38-2.38-5.67-3.64-9.03-3.46l-.98.05-.05.98c-.18,3.36,1.08,6.65,3.46,9.03,2.11,2.11,4.94,3.34,7.9,3.46v5.66c-.39-.54-.81-1.06-1.29-1.54-2.38-2.38-5.67-3.64-9.03-3.46"/>
    <path class="cls-4" d="M232.78,57.36h-6.09l-6.28,3.32-13.19-8.36c-.51-.32-1.19-.17-1.51.34-.32.51-.17,1.18.34,1.51l14.26,9.04,6.92-3.66h5.54c.6,0,1.09-.49,1.09-1.09s-.49-1.09-1.09-1.09"/>
    <path class="cls-4" d="M3.8,10.55c0-.11.04-.2.11-.26.07-.07.17-.1.27-.1h1.26c.1,0,.18.04.25.1.07.07.1.16.1.26v1.25c0,.1-.03.18-.1.25-.07.07-.16.1-.26.1h-1.25c-.12,0-.21-.04-.28-.1-.07-.07-.1-.15-.1-.25v-1.25ZM2.28,15.21c.2,0,.29.1.27.3-.02.24-.04.49-.05.75-.01.27-.02.48-.02.62,0,.6.04,1.13.12,1.61.08.48.24.89.48,1.22.24.33.58.59,1.02.77.44.18,1.02.27,1.73.27.2,0,.39,0,.57-.02.18-.01.39-.03.63-.06.01-.52.01-.98.01-1.37v-5.91c0-.08.03-.16.1-.22.06-.06.14-.09.22-.09h1.39c.09,0,.17.03.22.09.05.06.08.13.08.22v4.52h1.42v2.04h-1.42v1.13c0,.4,0,.75-.03,1.05,0,.18-.11.3-.34.35-.46.12-.93.2-1.41.24-.49.04-.98.06-1.48.06-1.8,0-3.13-.4-3.99-1.2-.86-.8-1.29-2.07-1.29-3.8,0-.11,0-.26.02-.45.01-.19.02-.4.04-.62.02-.22.04-.43.06-.65.03-.21.06-.4.09-.56.02-.12.05-.2.1-.25.04-.05.12-.07.24-.07h1.2Z"/>
    <path class="cls-4" d="M13.51,21.73c0-.11.04-.2.12-.26.08-.07.17-.1.28-.1h1.04c.1,0,.18.03.26.1.07.07.11.16.11.26v1.28c0,.08-.04.16-.11.23-.08.07-.16.1-.26.1h-1.04c-.11,0-.2-.03-.28-.1-.08-.07-.12-.15-.12-.23v-1.28ZM10.63,21.73c0-.11.03-.2.1-.26s.16-.1.26-.1h1.04c.11,0,.2.03.28.1.08.07.12.16.12.26v1.28c0,.08-.04.16-.13.23-.09.07-.17.1-.27.1h-1.04c-.11,0-.19-.03-.26-.1s-.1-.15-.1-.23v-1.28ZM10.38,19.97c-.12,0-.24-.01-.35-.05-.12-.03-.17-.08-.17-.14v-1.66c0-.05.06-.1.17-.14.12-.04.24-.06.35-.06h1.98c.25,0,.43-.02.51-.07.09-.05.13-.2.13-.45v-1.9c0-.66-.01-1.37-.03-2.14,0-.09.03-.16.09-.21.06-.06.14-.09.23-.09h1.34c.12,0,.2.03.26.09.05.06.08.13.1.21,0,.34.02.64.02.9,0,.26,0,.51,0,.74v1.49c0,.68,0,1.25,0,1.72,0,.46-.02.84-.06,1.12-.02.11-.06.2-.1.27-.05.07-.13.14-.26.19-.12.03-.28.06-.47.08-.2.02-.42.04-.66.06-.24.02-.49.03-.74.03-.26,0-.49,0-.7,0h-1.63Z"/>
    <path class="cls-4" d="M16.43,22.25c0-.17.1-.26.3-.26h.16c.2,0,.38-.01.54-.03.16-.02.3-.07.41-.14.11-.07.2-.19.26-.34.06-.15.09-.36.09-.63v-7.44c0-.09.03-.16.09-.22.06-.06.14-.09.23-.09h1.39c.08,0,.16.03.22.09.06.06.09.13.09.22v4.52h1.42v2.05h-1.47v.88c0,.37-.02.7-.06.99-.04.29-.12.54-.24.77-.24.47-.56.78-.97.93-.41.15-.91.23-1.5.23-.07,0-.18,0-.31,0-.13,0-.26-.02-.38-.04-.18-.03-.27-.13-.27-.3v-1.17Z"/>
    <path class="cls-4" d="M25.12,17.94c.25.01.53.02.85.02.32,0,.69,0,1.1,0h3.75c.14,0,.23-.07.26-.2.04-.13.06-.42.06-.86v-.24c0-.48-.06-.88-.18-1.21-.12-.33-.31-.6-.55-.8-.25-.2-.56-.35-.94-.43-.38-.08-.84-.13-1.36-.13-.17,0-.38,0-.64.03-.26.02-.52.06-.81.12-.28.06-.56.14-.83.24-.27.1-.51.23-.71.38v3.07ZM20.98,18.12c0-.05.06-.1.17-.14.12-.04.24-.06.35-.06h1.6v-5.41c0-.09.03-.16.1-.22s.14-.1.22-.1h1.38c.08,0,.16.03.22.1.06.06.1.14.1.22v.59c.28-.2.58-.36.91-.49.33-.12.66-.22.98-.29.32-.07.63-.11.92-.14.29-.02.52-.03.7-.03.68,0,1.3.08,1.86.22.56.15,1.04.39,1.43.73.39.34.7.78.91,1.33s.32,1.22.32,2v.66c0,.35-.02.75-.05,1.19-.03.44-.09.82-.16,1.14-.03.11-.08.2-.15.3-.07.09-.19.15-.36.17-.15.02-.39.03-.74.04-.34,0-.71.01-1.1.02-.39.01-.78.02-1.15.02h-7.94c-.12,0-.23-.02-.35-.05-.12-.03-.17-.08-.17-.14v-1.66Z"/>
    <path class="cls-4" d="M35.3,8.13c0-.08.03-.16.09-.22.06-.06.14-.09.24-.09h1.42c.11,0,.19.03.24.09.05.07.08.14.08.22v8.98c0,.36.07.59.22.68.15.09.37.14.67.14h.53v2.05h-1.12c-.36,0-.69-.03-.98-.09-.29-.06-.54-.17-.75-.33-.21-.16-.37-.39-.48-.69-.11-.29-.17-.67-.17-1.14v-9.58Z"/>
    <path class="cls-4" d="M44.02,8.95c0-.11.04-.19.12-.26.08-.07.17-.1.26-.1h1.12c.11,0,.19.04.26.1.07.07.1.16.1.26v1.25c0,.1-.03.18-.1.25s-.16.1-.26.1h-1.12c-.1,0-.18-.04-.26-.1s-.12-.15-.12-.25v-1.25ZM44.77,17.99v-4.03c-.32-.03-.67-.05-1.04-.05-1.27,0-1.9.62-1.9,1.85v.29c0,.63.14,1.11.41,1.44.27.33.71.5,1.32.5h1.21ZM41.06,8.95c0-.11.04-.19.11-.26.07-.07.17-.1.27-.1h1.1c.1,0,.2.04.28.1.08.07.12.16.12.26v1.25c0,.1-.04.18-.13.25s-.18.1-.27.1h-1.1c-.11,0-.2-.04-.27-.1-.07-.07-.11-.15-.11-.25v-1.25ZM38.16,18.12c0-.05.06-.1.17-.14.12-.04.24-.06.35-.06h1.77c-.2-.19-.36-.45-.47-.77-.11-.32-.17-.72-.17-1.17v-.3c0-.59.1-1.1.3-1.55.2-.45.48-.82.84-1.12.36-.3.8-.52,1.3-.68.5-.15,1.07-.23,1.68-.23.22,0,.46,0,.7.02.25.01.48.03.71.05.23.03.45.06.65.09.2.03.37.07.51.1.12.03.19.07.22.12.03.05.05.12.05.2v5.26h1.39v2.05h-9.49c-.12,0-.23-.02-.35-.05-.12-.03-.17-.08-.17-.14v-1.66Z"/>
    <path class="cls-4" d="M47.53,18.12c0-.05.06-.1.17-.14.12-.04.24-.06.35-.06h1.09c.25,0,.42-.02.5-.07s.12-.2.12-.46v-9.25c0-.1.03-.17.1-.24.06-.06.14-.1.22-.1h1.45c.08,0,.16.03.22.1.06.07.09.14.09.24v9.28c0,.29,0,.61-.02.95-.01.35-.03.66-.06.95-.02.11-.06.2-.1.27-.05.08-.14.14-.26.19-.12.03-.28.06-.49.08-.21.02-.43.04-.68.06-.25.02-.5.03-.76.03-.26,0-.5,0-.71,0h-.7c-.12,0-.23-.02-.35-.05-.12-.03-.17-.08-.17-.14v-1.66Z"/>
    <path class="cls-4" d="M54.3,8.13c0-.08.03-.16.09-.22.06-.06.14-.09.23-.09h1.44c.1,0,.17.03.23.09.06.07.09.14.09.22v11.5c0,.09-.03.16-.09.23-.06.07-.14.1-.23.1h-1.44c-.1,0-.17-.03-.23-.1-.06-.07-.09-.15-.09-.23v-11.5Z"/>
    <path class="cls-4" d="M65.66,10.55c0-.11.04-.2.11-.26.07-.07.17-.1.27-.1h1.26c.1,0,.18.04.25.1.07.07.1.16.1.26v1.25c0,.1-.03.18-.1.25-.07.07-.16.1-.26.1h-1.25c-.12,0-.21-.04-.28-.1-.07-.07-.1-.15-.1-.25v-1.25ZM64.14,15.21c.2,0,.29.1.27.3-.02.24-.04.49-.05.75-.01.27-.02.48-.02.62,0,.6.04,1.13.12,1.61.08.48.24.89.48,1.22.24.33.58.59,1.02.77.44.18,1.02.27,1.73.27.2,0,.39,0,.57-.02.18-.01.39-.03.63-.06.01-.52.01-.98.01-1.37v-5.92c0-.08.03-.16.1-.22.06-.06.14-.09.22-.09h1.39c.08,0,.16.03.22.09.06.06.09.13.09.22v6.18c0,.38,0,.81,0,1.29,0,.47-.02.9-.04,1.27,0,.19-.12.31-.35.35-.46.12-.92.2-1.4.24-.47.04-.96.06-1.46.06-1.8,0-3.13-.4-3.99-1.2-.86-.8-1.29-2.07-1.29-3.8,0-.11,0-.26.02-.45.01-.19.02-.4.04-.62.02-.22.04-.43.06-.65.03-.21.06-.4.09-.56.02-.12.05-.2.1-.25.04-.05.12-.07.24-.07h1.2Z"/>
    <path class="cls-4" d="M77.88,14.09c-.31-.03-.63-.05-.97-.05-.62,0-1.09.17-1.42.51-.33.34-.5.82-.5,1.44v.21c0,.61.13,1.06.4,1.35.27.29.7.44,1.29.44.34,0,.62-.02.85-.07.23-.04.34-.16.34-.37v-3.47ZM73.57,22.22c0-.18.1-.27.29-.27h1.45c.42,0,.78-.02,1.1-.07.31-.04.57-.12.78-.23.21-.11.36-.27.47-.46.11-.19.17-.44.18-.75v-.74c-.06.05-.15.1-.27.13-.12.03-.24.06-.37.08-.13.02-.25.04-.38.04-.12,0-.23,0-.33,0-1.09,0-1.94-.29-2.57-.89-.63-.59-.94-1.47-.94-2.63v-.32c0-1.26.37-2.23,1.11-2.91.74-.69,1.8-1.03,3.17-1.03.2,0,.42,0,.65.02.23.02.45.04.66.06.21.02.41.05.6.08.19.03.34.07.46.11.12.04.19.08.22.12.03.04.05.1.05.18v7.28c0,.78-.11,1.41-.33,1.89-.22.48-.53.86-.91,1.13-.38.27-.83.46-1.32.55-.5.1-1.03.14-1.58.14h-.42c-.19,0-.38,0-.58-.02-.2-.01-.39-.02-.56-.02-.17,0-.29-.02-.35-.04-.11-.02-.18-.06-.21-.1-.03-.05-.05-.12-.05-.2v-1.17Z"/>
    <path class="cls-4" d="M84.22,10.66c-.17,0-.26-.07-.26-.19v-.46c0-.11.08-.16.26-.16h.3c-.08-.13-.15-.27-.19-.43-.04-.16-.06-.32-.06-.48,0-.9.53-1.34,1.6-1.34.08,0,.2,0,.34.01.14.01.28.04.41.08.12.02.18.07.18.16v.43c0,.11-.07.16-.21.16h-.56c-.28,0-.48.05-.61.14-.13.1-.19.26-.19.49,0,.18.03.34.1.47.06.13.14.23.24.28h1.12c.17,0,.26.05.26.16v.48c0,.13-.08.19-.26.19h-2.46ZM83.95,16.2c0,.61.13,1.06.4,1.35.27.29.7.44,1.29.44h1.2v-3.9c-.31-.03-.63-.05-.97-.05-.61,0-1.08.17-1.41.51-.33.34-.5.82-.5,1.44v.21ZM82.53,22.22c0-.18.1-.27.29-.27h1.45c.42,0,.78-.02,1.1-.07.31-.04.58-.12.8-.23.22-.11.38-.27.49-.46.11-.19.16-.44.16-.75v-.48h-1.17c-1.16,0-2.07-.29-2.72-.89-.65-.59-.98-1.47-.98-2.63v-.32c0-1.26.37-2.23,1.11-2.91.74-.69,1.8-1.03,3.17-1.03.2,0,.42,0,.65.02.23.02.45.04.66.06.21.02.41.05.59.08.18.03.33.07.45.11.1.04.18.08.22.12.04.04.06.1.06.18v5.16h1.4v2.04h-1.44v.54c-.05.66-.19,1.2-.42,1.62-.23.42-.53.75-.89.99-.36.24-.78.41-1.26.5-.48.1-.99.14-1.53.14h-.42c-.19,0-.38,0-.58-.02-.2-.01-.39-.02-.56-.02-.17,0-.29-.02-.35-.04-.11-.02-.18-.06-.21-.1-.03-.05-.05-.12-.05-.2v-1.17Z"/>
    <path class="cls-4" d="M96.98,9.99c0-.11.04-.19.12-.26.08-.06.17-.1.26-.1h1.12c.11,0,.19.03.26.1.07.06.1.15.1.26v1.17c0,.09-.04.16-.1.23-.07.07-.16.1-.26.1h-1.12c-.1,0-.18-.03-.26-.1-.08-.07-.12-.15-.12-.23v-1.17ZM95.58,7.72c0-.1.04-.18.12-.25s.16-.1.25-.1h1.05c.11,0,.2.04.27.1.07.07.11.15.11.25v.97c0,.1-.04.18-.12.24-.08.07-.17.1-.28.1h-1.05c-.09,0-.16-.03-.24-.1-.08-.06-.11-.14-.11-.24v-.97ZM94.03,9.99c0-.11.04-.19.11-.26.07-.06.17-.1.27-.1h1.1c.11,0,.2.03.28.1.08.06.12.15.12.26v1.17c0,.09-.04.16-.13.23-.08.07-.18.1-.27.1h-1.1c-.11,0-.2-.03-.27-.1-.07-.07-.11-.15-.11-.23v-1.17ZM89.61,18.12c0-.05.06-.1.17-.14.12-.04.24-.06.35-.06h.51c.2,0,.4-.03.6-.09.2-.06.3-.21.3-.45v-3.24c0-.1.03-.18.1-.24.06-.07.14-.1.22-.1h1.36c.09,0,.16.03.22.1.06.06.09.14.09.24v3.56c.03.06.09.11.18.15.09.04.18.07.27.09.1.02.19.04.3.04.1,0,.19,0,.26,0h.22c.1,0,.2,0,.3-.02.1-.01.19-.03.28-.07.09-.04.16-.09.22-.16.06-.07.09-.16.09-.28v-3.9c0-.08.03-.16.1-.21.06-.06.14-.09.22-.09h1.34c.09,0,.16.03.22.09.06.06.1.13.1.21v4.14c.06.13.19.21.39.24.2.03.4.05.61.05h.16c.1,0,.2,0,.3-.02.11-.01.2-.03.29-.06.09-.03.17-.08.23-.15.06-.07.1-.17.1-.3v-4.47c0-.1.03-.17.1-.24.06-.06.14-.1.22-.1h1.39c.08,0,.16.03.21.1.06.06.09.14.09.24v4.66c.03.05.09.1.18.14.09.04.19.07.3.09.11.02.22.04.34.04.11,0,.2,0,.28,0h.38v2.05h-.21c-.32,0-.69-.04-1.1-.11-.42-.07-.78-.22-1.1-.43-.28.23-.59.38-.94.45-.35.06-.7.1-1.05.1h-.18c-.37,0-.71-.04-1.02-.11-.31-.07-.62-.22-.94-.43-.26.2-.54.34-.86.42-.31.08-.67.12-1.08.12h-.21c-.32,0-.64-.03-.96-.1-.32-.07-.63-.22-.93-.44-.15.12-.31.21-.49.28-.18.07-.36.13-.54.17-.19.04-.37.07-.55.08-.18.01-.35.02-.5.02h-.41c-.12,0-.23-.02-.35-.05-.12-.03-.17-.08-.17-.14v-1.66Z"/>
    <path class="cls-4" d="M102.56,18.12c0-.05.06-.1.18-.14.12-.04.23-.06.35-.06h1.09c.25,0,.42-.02.5-.07.08-.05.12-.2.12-.46v-9.25c0-.1.03-.17.1-.24.06-.06.14-.1.22-.1h1.45c.09,0,.16.03.22.1.06.07.09.14.09.24v9.28c0,.29,0,.61-.02.95-.01.35-.03.66-.06.95-.02.11-.06.2-.1.27-.05.08-.14.14-.26.19-.12.03-.28.06-.49.08-.21.02-.44.04-.68.06-.25.02-.5.03-.76.03-.26,0-.5,0-.71,0h-.7c-.12,0-.23-.02-.35-.05-.12-.03-.18-.08-.18-.14v-1.66Z"/>
    <path class="cls-4" d="M117.06,9.03c0-.11.04-.19.12-.26.08-.07.17-.1.26-.1h1.12c.11,0,.19.03.26.1s.1.16.1.26v1.25c0,.1-.03.18-.1.25s-.16.1-.26.1h-1.12c-.1,0-.18-.04-.26-.1-.08-.07-.12-.15-.12-.25v-1.25ZM114.94,16.07c0,.61.12,1.04.35,1.29.24.26.6.38,1.09.38h.24c.36,0,.65-.06.85-.17.2-.12.3-.3.3-.54v-2.99c-.06-.01-.18-.02-.36-.02-.18,0-.31,0-.41,0-.65,0-1.15.15-1.52.46-.36.3-.54.76-.54,1.38v.22ZM114.11,9.03c0-.11.04-.19.11-.26.07-.07.17-.1.27-.1h1.1c.11,0,.2.03.28.1.08.07.12.16.12.26v1.25c0,.1-.04.18-.13.25-.09.07-.18.1-.27.1h-1.1c-.11,0-.2-.04-.27-.1-.07-.07-.11-.15-.11-.25v-1.25ZM112.93,16.14c0-1.26.36-2.23,1.09-2.93.73-.7,1.8-1.05,3.2-1.05.41,0,.84.02,1.27.06.43.04.77.1,1.01.18.12.03.19.07.23.11.03.04.05.11.05.19v4.38c0,.35.08.58.24.69.16.11.42.16.77.16h.43v2.05h-.73c-.55,0-1.01-.07-1.36-.21-.35-.14-.62-.37-.8-.69-.21.21-.5.38-.85.49-.36.11-.72.17-1.09.17h-.21c-.45,0-.87-.06-1.26-.18-.39-.12-.74-.32-1.03-.58-.29-.27-.52-.61-.69-1.02-.17-.42-.26-.91-.26-1.49v-.32Z"/>
    <path class="cls-4" d="M124.56,16.57c0,.24.01.48.05.7.08.39.26.66.51.8.26.14.59.21.99.21.54,0,.93-.13,1.17-.4.23-.26.35-.73.35-1.4v-.59c0-.64-.12-1.1-.35-1.39-.24-.29-.62-.44-1.17-.44s-.94.15-1.18.45c-.24.3-.37.76-.37,1.38v.67ZM120.58,18.12c0-.05.06-.1.18-.14.12-.04.23-.06.35-.06h.48c.07,0,.16,0,.26-.01.1-.01.19-.03.28-.06.09-.03.17-.08.24-.14.07-.06.11-.14.14-.23.03-.11.05-.23.05-.37v-1.34c0-1.16.32-2.04.97-2.64.65-.6,1.52-.9,2.62-.9s1.94.29,2.56.88c.62.58.93,1.46.93,2.64v.94c0,1.19-.31,2.08-.92,2.65-.61.58-1.48.86-2.61.86-.54,0-1.07-.07-1.57-.2-.51-.13-.89-.36-1.14-.66-.21.25-.49.41-.84.5-.35.09-.74.14-1.19.14h-.26c-.12,0-.23-.02-.35-.05-.12-.03-.18-.08-.18-.14v-1.66Z"/>
    <path class="cls-4" d="M131.7,8.13c0-.08.03-.16.1-.22.06-.06.14-.09.24-.09h1.42c.11,0,.19.03.24.09.05.07.08.14.08.22v8.98c0,.36.07.59.22.68.15.09.37.14.67.14h.53v2.05h-1.12c-.36,0-.69-.03-.98-.09-.29-.06-.54-.17-.75-.33-.21-.16-.37-.39-.48-.69-.11-.29-.17-.67-.17-1.14v-9.58Z"/>
    <path class="cls-4" d="M140.27,17.97c.25-.04.46-.13.64-.27.18-.14.33-.31.46-.5.12-.2.21-.42.27-.67.06-.25.09-.51.09-.77v-.14c0-.59-.16-1.01-.48-1.29-.32-.27-.77-.41-1.36-.41-.24,0-.54.03-.87.08-.34.05-.66.18-.97.38l1.42,3.6h.8ZM134.56,18.12c0-.05.06-.1.18-.14.12-.04.23-.06.35-.06h2.22l-1.2-3.07c-.03-.05-.05-.13-.06-.22-.01-.09-.01-.16,0-.22l.03-.82c.01-.08.04-.16.1-.22.05-.06.13-.14.22-.22.19-.15.43-.29.7-.42.28-.13.57-.24.88-.34.31-.1.63-.17.96-.22.33-.05.65-.08.96-.08.54,0,1.05.06,1.52.17.47.11.88.29,1.22.54.35.25.62.58.81.99.2.41.3.91.3,1.5v.35c0,.21-.02.43-.06.66-.04.23-.09.44-.16.65-.07.21-.15.4-.26.57-.1.17-.22.3-.34.4h1.98v2.05h-9.82c-.12,0-.23-.02-.35-.05-.12-.03-.18-.08-.18-.14v-1.66Z"/>
    <path class="cls-4" d="M144.27,18.12c0-.05.06-.1.17-.14.12-.04.24-.06.35-.06h1.09c.25,0,.42-.02.5-.07.08-.05.12-.2.12-.46v-9.25c0-.1.03-.17.1-.24.06-.06.14-.1.22-.1h1.45c.09,0,.16.03.22.1.06.07.09.14.09.24v9.28c0,.29,0,.61-.01.95-.01.35-.03.66-.06.95-.02.11-.06.2-.1.27-.05.08-.14.14-.26.19-.12.03-.28.06-.49.08-.21.02-.44.04-.68.06-.25.02-.5.03-.76.03-.26,0-.5,0-.71,0h-.7c-.12,0-.23-.02-.35-.05-.12-.03-.17-.08-.17-.14v-1.66Z"/>
    <path class="cls-4" d="M151.04,8.13c0-.08.03-.16.09-.22.06-.06.13-.09.23-.09h1.44c.1,0,.17.03.23.09.06.07.09.14.09.22v11.5c0,.09-.03.16-.09.23-.06.07-.13.1-.23.1h-1.44c-.1,0-.17-.03-.23-.1-.06-.07-.09-.15-.09-.23v-11.5Z"/>
    <path class="cls-4" d="M163.4,9.03c0-.11.04-.19.12-.26.08-.07.17-.1.26-.1h1.12c.11,0,.19.03.26.1s.1.16.1.26v1.25c0,.1-.03.18-.1.25s-.16.1-.26.1h-1.12c-.1,0-.18-.04-.26-.1-.08-.07-.12-.15-.12-.25v-1.25ZM161.28,16.07c0,.61.12,1.04.35,1.29.24.26.6.38,1.09.38h.24c.36,0,.64-.06.85-.17.2-.12.3-.3.3-.54v-2.99c-.06-.01-.18-.02-.36-.02-.18,0-.31,0-.41,0-.65,0-1.15.15-1.52.46-.36.3-.54.76-.54,1.38v.22ZM160.45,9.03c0-.11.04-.19.11-.26.07-.07.17-.1.27-.1h1.1c.11,0,.2.03.28.1.08.07.12.16.12.26v1.25c0,.1-.04.18-.13.25-.09.07-.18.1-.27.1h-1.1c-.11,0-.2-.04-.27-.1-.07-.07-.11-.15-.11-.25v-1.25ZM159.27,16.14c0-1.26.36-2.23,1.09-2.93.73-.7,1.8-1.05,3.2-1.05.41,0,.84.02,1.27.06.43.04.77.1,1.01.18.12.03.19.07.22.11.03.04.05.11.05.19v4.38c0,.35.08.58.24.69.16.11.42.16.77.16h.43v2.05h-.73c-.55,0-1.01-.07-1.36-.21-.35-.14-.62-.37-.8-.69-.21.21-.5.38-.85.49-.36.11-.72.17-1.1.17h-.21c-.45,0-.87-.06-1.26-.18-.39-.12-.74-.32-1.03-.58-.29-.27-.52-.61-.69-1.02-.17-.42-.26-.91-.26-1.49v-.32Z"/>
    <path class="cls-4" d="M168.75,11.36c-.17,0-.26-.06-.26-.19v-.46c0-.11.08-.16.26-.16h.3c-.09-.13-.15-.27-.19-.43-.04-.16-.06-.32-.06-.48,0-.89.53-1.34,1.6-1.34.09,0,.2,0,.34.02.14.01.28.04.41.08.12.02.18.07.18.16v.43c0,.11-.07.16-.21.16h-.56c-.28,0-.48.05-.61.14-.13.1-.19.26-.19.49,0,.18.03.34.1.47.06.13.14.23.24.28h1.12c.17,0,.26.05.26.16v.48c0,.13-.09.19-.26.19h-2.46ZM166.92,18.12c0-.05.06-.1.17-.14.12-.04.24-.06.35-.06h.74c.1,0,.2,0,.3-.01.11-.01.21-.03.3-.07.09-.04.17-.09.23-.16.06-.07.1-.17.1-.3v-3.98c0-.08.03-.16.09-.22.06-.06.14-.09.23-.09h1.39c.08,0,.16.03.21.09.06.06.09.13.09.22v4.25c.03.05.09.1.18.14.09.04.18.07.29.09.11.02.21.04.31.04.1,0,.19,0,.26,0h.38v2.05h-.19c-.41,0-.81-.03-1.23-.1-.41-.07-.76-.22-1.04-.44-.15.11-.31.2-.49.26-.18.07-.37.12-.57.17-.2.04-.4.07-.59.09-.2.02-.38.02-.55.02h-.43c-.12,0-.23-.02-.35-.05-.12-.03-.17-.08-.17-.14v-1.66Z"/>
    <path class="cls-4" d="M175.42,21.73c0-.11.04-.19.12-.26.08-.07.17-.1.26-.1h1.12c.11,0,.19.04.26.1.07.07.1.16.1.26v1.28c0,.09-.04.16-.1.23-.07.07-.16.1-.26.1h-1.12c-.1,0-.18-.04-.26-.1s-.12-.15-.12-.23v-1.28ZM172.46,21.73c0-.11.04-.19.11-.26.07-.07.16-.1.27-.1h1.1c.11,0,.2.04.28.1.08.07.12.16.12.26v1.28c0,.09-.04.16-.13.23-.09.07-.18.1-.27.1h-1.1c-.11,0-.2-.04-.27-.1-.07-.07-.11-.15-.11-.23v-1.28ZM171.9,18.12c0-.05.06-.1.17-.14.12-.04.24-.06.35-.06h.74c.1,0,.2,0,.3-.01.11-.01.21-.03.3-.07.09-.04.17-.09.23-.16.06-.07.1-.17.1-.3v-3.98c0-.08.03-.16.09-.22.06-.06.14-.09.23-.09h1.39c.08,0,.16.03.21.09.06.06.09.13.09.22v4.25c.03.05.09.1.18.14.09.04.18.07.29.09.11.02.21.04.31.04.1,0,.19,0,.26,0h.38v2.05h-.19c-.41,0-.81-.03-1.23-.1-.41-.07-.76-.22-1.04-.44-.15.11-.31.2-.49.26-.18.07-.37.12-.57.17-.2.04-.4.07-.59.09-.2.02-.38.02-.55.02h-.43c-.12,0-.23-.02-.35-.05-.12-.03-.17-.08-.17-.14v-1.66Z"/>
    <path class="cls-4" d="M181.93,17.94c.77,0,1.29-.18,1.58-.55.29-.37.43-.87.43-1.49v-.22c0-.65-.18-1.09-.53-1.33-.35-.24-.83-.36-1.44-.36-.2,0-.37,0-.51.02-.14.01-.28.03-.43.05v3.9h.89ZM183,19.79c-.25.05-.54.09-.9.12-.36.03-.72.05-1.08.05v.3c0,.67.11,1.15.33,1.47.22.31.61.47,1.19.47s.93-.15,1.12-.45c.19-.3.3-.76.32-1.38.01-.13.02-.28.02-.45,0-.17.02-.34.06-.48-.29.15-.64.27-1.05.35M177.41,19.97c-.12,0-.24-.01-.35-.05-.12-.03-.18-.07-.18-.13v-1.69c0-.05.06-.1.18-.13.12-.03.24-.05.35-.05h1.61v-4.9c0-.16.05-.28.14-.36.1-.08.22-.15.38-.2.35-.12.74-.19,1.17-.22.43-.03.84-.05,1.25-.05.61,0,1.16.06,1.65.19.49.13.91.33,1.26.6.35.27.62.62.81,1.05.19.43.28.95.28,1.54v.44c0,.16-.01.31-.03.44-.03.29-.08.56-.16.81-.07.26-.18.51-.32.75.17-.04.35-.07.53-.08.18-.01.37-.02.56-.02h.65v2.04h-.87c-.21,0-.34.01-.41.03v.48c-.04,2.36-1.16,3.55-3.35,3.55-.66,0-1.21-.08-1.66-.24-.45-.16-.81-.39-1.09-.7-.28-.31-.48-.69-.6-1.13-.12-.45-.18-.96-.18-1.55v-.43h-1.61Z"/>
    <path class="cls-4" d="M186.55,18.12c0-.05.06-.1.18-.14.12-.04.23-.06.35-.06h1.09c.25,0,.42-.02.5-.07.08-.05.12-.2.12-.46v-9.25c0-.1.03-.17.1-.24.06-.06.14-.1.22-.1h1.45c.09,0,.16.03.22.1.06.07.09.14.09.24v9.28c0,.29,0,.61-.01.95-.01.35-.03.66-.06.95-.02.11-.06.2-.1.27-.05.08-.14.14-.26.19-.12.03-.28.06-.49.08-.21.02-.44.04-.68.06-.25.02-.5.03-.76.03-.26,0-.5,0-.71,0h-.7c-.12,0-.23-.02-.35-.05-.12-.03-.18-.08-.18-.14v-1.66Z"/>
    <path class="cls-4" d="M193.32,8.13c0-.08.03-.16.09-.22.06-.06.13-.09.23-.09h1.44c.1,0,.17.03.23.09.06.07.09.14.09.22v11.5c0,.09-.03.16-.09.23-.06.07-.13.1-.23.1h-1.44c-.1,0-.17-.03-.23-.1-.06-.07-.09-.15-.09-.23v-11.5Z"/>
    <path class="cls-3" d="M2.77,52.06c-1.15,0-2.02-.24-2.77-1l.96-.96c.48.48,1.13.64,1.83.64.87,0,1.34-.33,1.34-.94,0-.27-.07-.49-.23-.64-.15-.14-.32-.21-.67-.27l-.91-.13c-.65-.1-1.13-.3-1.47-.63-.36-.36-.54-.85-.54-1.49,0-1.35,1-2.3,2.64-2.3,1.04,0,1.8.26,2.45.88l-.93.92c-.48-.46-1.05-.52-1.55-.52-.79,0-1.17.44-1.17.96,0,.19.06.39.22.54.15.14.39.26.7.3l.89.13c.69.1,1.13.29,1.45.59.4.38.58.93.58,1.6,0,1.47-1.22,2.3-2.81,2.3"/>
    <polygon class="cls-3" points="11.14 45.74 11.14 52 9.66 52 9.66 45.74 7.68 45.74 7.68 44.43 13.12 44.43 13.12 45.74 11.14 45.74"/>
    <path class="cls-3" d="M17.5,46.66l-.96,2.76h1.88l-.93-2.76ZM19.26,52l-.45-1.34h-2.69l-.46,1.34h-1.54l2.75-7.57h1.16l2.76,7.57h-1.54Z"/>
    <polygon class="cls-3" points="25.27 45.74 25.27 52 23.79 52 23.79 45.74 21.82 45.74 21.82 44.43 27.25 44.43 27.25 45.74 25.27 45.74"/>
    <polygon class="cls-3" points="29.73 52 29.73 44.42 34.72 44.42 34.72 45.74 31.21 45.74 31.21 47.52 34.2 47.52 34.2 48.84 31.21 48.84 31.21 50.68 34.72 50.68 34.72 52 29.73 52"/>
    <path class="cls-3" d="M44.67,46.08c-.21-.25-.54-.4-.95-.4s-.74.16-.96.4c-.29.32-.36.67-.36,2.13s.07,1.81.36,2.13c.21.24.55.4.96.4s.73-.16.95-.4c.29-.32.37-.67.37-2.13s-.08-1.81-.37-2.13M45.77,51.23c-.53.53-1.18.83-2.04.83s-1.52-.3-2.05-.83c-.77-.77-.75-1.71-.75-3.02s-.02-2.25.75-3.02c.53-.53,1.19-.83,2.05-.83s1.51.3,2.04.83c.76.77.75,1.71.75,3.02s.01,2.26-.75,3.02"/>
    <polygon class="cls-3" points="50.79 45.74 50.79 47.6 53.78 47.6 53.78 48.92 50.79 48.92 50.79 52 49.31 52 49.31 44.43 54.3 44.43 54.3 45.74 50.79 45.74"/>
    <path class="cls-3" d="M64.1,46.08c-.21-.25-.54-.4-.95-.4s-.74.16-.96.4c-.29.32-.36.67-.36,2.13s.07,1.81.36,2.13c.21.25.55.4.96.4.18,0,.35-.04.49-.14l-.66-.65.79-.77.56.56c.12-.33.14-.77.14-1.53,0-1.46-.08-1.81-.37-2.13M65.35,52.32l-.67-.67c-.43.28-.94.41-1.53.41-.86,0-1.52-.3-2.05-.83-.76-.77-.74-1.71-.74-3.02s-.02-2.25.74-3.02c.53-.53,1.19-.83,2.05-.83s1.51.3,2.04.83c.76.77.75,1.71.75,3.02,0,1.14.01,1.98-.47,2.68l.65.65-.78.78Z"/>
    <path class="cls-3" d="M71.27,46.66l-.96,2.76h1.88l-.93-2.76ZM73.04,52l-.45-1.34h-2.69l-.46,1.34h-1.54l2.75-7.57h1.16l2.77,7.57h-1.54Z"/>
    <polygon class="cls-3" points="79.04 45.74 79.04 52 77.57 52 77.57 45.74 75.59 45.74 75.59 44.43 81.02 44.43 81.02 45.74 79.04 45.74"/>
    <path class="cls-3" d="M85.41,46.66l-.96,2.76h1.88l-.93-2.76ZM87.17,52l-.45-1.34h-2.69l-.46,1.34h-1.54l2.75-7.57h1.16l2.77,7.57h-1.54Z"/>
    <path class="cls-3" d="M93.8,45.74h-1.39v2h1.39c.65,0,1.07-.41,1.07-1s-.43-1-1.07-1M94.95,52l-1.48-3.02h-1.06v3.02h-1.48v-7.57h2.97c1.54,0,2.46,1.05,2.46,2.32,0,1.06-.65,1.72-1.38,1.99l1.69,3.26h-1.71Z"/>
    <path class="cls-3" d="M117.76,53.22c0-.13.07-.2.22-.2h.28c.25,0,.45-.01.62-.03.17-.02.31-.07.41-.15s.18-.2.23-.35c.05-.15.07-.37.07-.64v-5.91c0-.07.02-.13.07-.18.05-.05.11-.07.19-.07h1.15c.07,0,.13.02.18.07.05.05.07.11.07.18v3.72h1.17v1.68h-1.21v.62c0,.3-.02.57-.06.83-.04.26-.11.47-.2.66-.2.38-.48.64-.83.8-.35.15-.8.23-1.36.23-.07,0-.2,0-.38,0-.18,0-.33-.01-.45-.03-.12-.03-.18-.11-.18-.25v-.97Z"/>
    <path class="cls-3" d="M122.34,51.35c-.1,0-.19-.01-.29-.04-.1-.03-.14-.07-.14-.12v-1.37s.05-.08.14-.11c.1-.03.19-.05.29-.05h2.92v1.68h-2.92Z"/>
    <path class="cls-3" d="M125.16,51.35c-.1,0-.19-.01-.29-.04-.1-.03-.14-.07-.14-.12v-1.37s.05-.08.14-.11c.1-.03.19-.05.29-.05h2.92v1.68h-2.92Z"/>
    <path class="cls-3" d="M127.99,51.35c-.1,0-.19-.01-.29-.04-.1-.03-.14-.07-.14-.12v-1.37s.05-.08.14-.11c.1-.03.19-.05.29-.05h2.92v1.68h-2.92Z"/>
    <path class="cls-3" d="M138.64,49.71c.11,0,.19-.06.24-.17.05-.11.07-.35.07-.7v-.2c0-.4-.05-.74-.15-1-.1-.27-.24-.49-.45-.65-.2-.17-.46-.29-.77-.36-.31-.07-.68-.1-1.11-.1-.15,0-.33,0-.54.02-.21.01-.43.04-.66.08-.23.04-.46.1-.68.17-.22.08-.41.17-.58.3v2.59c.2.01.42.02.65.02.23,0,.52,0,.86,0h3.11ZM130.39,49.83s.05-.08.14-.11c.1-.03.19-.05.29-.05h1.49v-8.05c0-.08.03-.14.08-.2.05-.05.11-.08.18-.08h1.18c.07,0,.13.03.18.08.05.05.08.12.08.2v4.01c.23-.16.48-.29.75-.38.27-.1.54-.17.81-.22s.52-.08.76-.09c.24-.01.43-.02.58-.02.56,0,1.07.06,1.53.18.46.12.85.32,1.17.6.32.28.57.64.74,1.09.17.45.26,1,.26,1.65v.29c0,.06,0,.14,0,.22,0,.09,0,.18-.01.27,0,.09-.01.18-.03.26s-.03.14-.05.18h1.07v1.68h-10.76c-.1,0-.19-.01-.29-.04-.1-.03-.14-.07-.14-.12v-1.37Z"/>
    <path class="cls-3" d="M141.49,51.35c-.1,0-.19-.01-.29-.04-.1-.03-.14-.07-.14-.12v-1.37s.05-.08.14-.11c.1-.03.19-.05.29-.05h2.92v1.68h-2.92Z"/>
    <path class="cls-3" d="M144.32,51.35c-.1,0-.19-.01-.29-.04-.1-.03-.14-.07-.14-.12v-1.37s.05-.08.14-.11c.1-.03.19-.05.29-.05h2.92v1.68h-2.92Z"/>
    <path class="cls-3" d="M147.15,51.35c-.1,0-.19-.01-.29-.04-.1-.03-.14-.07-.14-.12v-1.37s.05-.08.14-.11c.1-.03.19-.05.29-.05h2.92v1.68h-2.92Z"/>
    <path class="cls-3" d="M154.37,42.27c0-.09.03-.16.1-.22.07-.06.14-.09.22-.09h.92c.09,0,.16.03.22.09.06.06.09.13.09.22v1.02c0,.08-.03.15-.09.2-.06.06-.13.08-.22.08h-.92c-.08,0-.15-.03-.22-.08-.07-.06-.1-.13-.1-.2v-1.02ZM152.57,48.13c0,.52.11.91.34,1.18.23.27.58.41,1.07.41.14,0,.31,0,.52,0,.21,0,.37-.01.49-.03v-3.28c-.26-.03-.55-.04-.87-.04-1.04,0-1.55.51-1.55,1.51v.25ZM151.94,42.27c0-.09.03-.16.09-.22.06-.06.14-.09.22-.09h.91c.09,0,.16.03.23.09.07.06.1.13.1.22v1.02c0,.08-.04.15-.11.2-.07.06-.14.08-.22.08h-.91c-.09,0-.16-.03-.22-.08-.06-.06-.09-.13-.09-.2v-1.02ZM149.54,49.83s.05-.08.14-.11c.1-.03.19-.05.29-.05h1.46c-.35-.32-.53-.85-.53-1.59v-.25c0-.48.08-.91.24-1.28.16-.37.39-.68.68-.93.29-.25.65-.43,1.07-.56.42-.13.88-.19,1.39-.19.18,0,.38,0,.58.01.2,0,.4.02.59.05.19.02.37.05.54.07.17.03.3.05.41.08.1.03.16.06.19.1.03.04.05.09.05.16v3.5c0,.32,0,.68-.01,1.09,0,.41-.03.79-.05,1.12,0,.09-.04.15-.1.18-.06.04-.13.06-.22.07-.37.02-.73.03-1.07.04-.35,0-.69.01-1.05.01h-4.17c-.1,0-.19-.01-.29-.04-.1-.03-.14-.07-.14-.12v-1.37Z"/>
    <path class="cls-3" d="M168.46,42.34c0-.09.03-.16.1-.22.07-.06.14-.09.22-.09h.92c.09,0,.16.03.22.09.06.06.08.13.08.22v1.03c0,.08-.03.15-.08.2-.06.06-.13.08-.22.08h-.92c-.08,0-.15-.03-.22-.08-.07-.06-.1-.13-.1-.2v-1.03ZM166.71,48.14c0,.5.1.85.29,1.07.19.21.49.32.9.32h.2c.3,0,.53-.05.7-.14.17-.1.25-.25.25-.45v-2.46c-.05,0-.15-.01-.3-.02-.14,0-.26,0-.34,0-.54,0-.95.12-1.25.38s-.45.63-.45,1.14v.18ZM166.03,42.34c0-.09.03-.16.09-.22.06-.06.14-.09.22-.09h.91c.09,0,.17.03.23.09.07.06.1.13.1.22v1.03c0,.08-.04.15-.1.2-.07.06-.15.08-.22.08h-.91c-.09,0-.16-.03-.22-.08-.06-.06-.09-.13-.09-.2v-1.03ZM165.06,48.19c0-1.03.3-1.84.9-2.41.6-.57,1.48-.86,2.64-.86.34,0,.69.02,1.05.05.35.04.63.08.84.15.1.03.16.06.18.09.03.04.04.09.04.16v3.6c0,.29.07.48.2.57.13.09.34.13.63.13h.35v1.68h-.6c-.46,0-.83-.06-1.12-.17-.29-.12-.51-.3-.66-.57-.18.17-.41.31-.7.4-.29.09-.6.14-.9.14h-.17c-.37,0-.72-.05-1.04-.15-.32-.1-.61-.26-.85-.48-.24-.22-.43-.5-.57-.84-.14-.34-.21-.75-.21-1.22v-.26Z"/>
    <path class="cls-3" d="M171.79,51.35c-.1,0-.19-.01-.29-.04-.1-.03-.14-.07-.14-.12v-1.37s.05-.08.14-.11c.1-.03.19-.05.29-.05h2.92v1.68h-2.92Z"/>
    <path class="cls-3" d="M174.62,51.35c-.1,0-.19-.01-.29-.04-.1-.03-.14-.07-.14-.12v-1.37s.05-.08.14-.11c.1-.03.19-.05.29-.05h2.92v1.68h-2.92Z"/>
    <path class="cls-3" d="M177.02,49.83s.05-.08.14-.11c.1-.03.19-.05.29-.05h.9c.21,0,.35-.02.41-.06.07-.04.1-.17.1-.38v-7.62c0-.08.03-.14.08-.2.05-.05.11-.08.18-.08h1.2c.07,0,.13.03.18.08.05.05.07.12.07.2v7.64c0,.24,0,.5-.01.78,0,.29-.03.55-.05.78-.02.09-.05.16-.09.22-.04.06-.11.11-.22.16-.1.03-.23.05-.4.07-.17.02-.36.03-.56.04-.2.01-.41.02-.62.03-.22,0-.41,0-.59,0h-.58c-.1,0-.19-.01-.29-.04-.1-.03-.14-.07-.14-.12v-1.37Z"/>
    <path class="cls-3" d="M186.56,46.51c-.25-.03-.52-.04-.8-.04-.51,0-.9.14-1.17.42-.27.28-.41.68-.41,1.18v.17c0,.5.11.87.33,1.11.22.24.57.36,1.07.36.28,0,.51-.02.7-.05.19-.03.28-.14.28-.3v-2.86ZM183,53.21c0-.15.08-.22.24-.22h1.2c.34,0,.64-.02.9-.05.26-.04.47-.1.64-.19.17-.09.3-.22.39-.38.09-.16.14-.36.14-.62v-.6s-.13.08-.22.11c-.1.03-.2.05-.3.07-.1.02-.21.03-.31.03-.1,0-.19,0-.27,0-.9,0-1.6-.24-2.12-.73-.52-.49-.78-1.21-.78-2.17v-.26c0-1.04.31-1.84.91-2.4.61-.57,1.48-.85,2.61-.85.17,0,.35,0,.53.02.19.01.37.03.55.05.18.02.34.04.49.07.15.03.28.06.38.09.1.03.16.07.18.1.03.03.04.08.04.15v6c0,.64-.09,1.16-.28,1.56-.18.4-.43.71-.75.93-.32.22-.68.37-1.09.45-.41.08-.85.12-1.3.12h-.35c-.15,0-.31,0-.48-.01-.17,0-.32-.01-.46-.02-.14,0-.24-.01-.29-.03-.09-.02-.14-.05-.17-.09-.03-.04-.04-.09-.04-.16v-.96Z"/>
    <path class="cls-3" d="M190.07,49.91c0-.07.03-.13.08-.17.05-.04.11-.07.18-.07h3.43l-.03-1.2c-.02-.32-.07-.61-.15-.86-.08-.25-.21-.46-.39-.64-.18-.18-.41-.31-.7-.4-.28-.09-.63-.14-1.05-.14h-.38c-.08,0-.16,0-.24,0-.08,0-.14.01-.2.02-.17,0-.25-.06-.25-.19v-.97c0-.07.02-.13.06-.18.04-.05.11-.08.2-.1.25-.04.49-.07.74-.08.25,0,.43-.01.55-.01.65,0,1.19.1,1.62.29.43.19.78.45,1.04.78.26.32.45.7.57,1.12.12.42.19.87.2,1.33,0,.07,0,.17,0,.3,0,.13,0,.28.01.43,0,.16,0,.31,0,.47v.37c0,.12,0,.29,0,.51,0,.22-.02.41-.03.56,0,.07-.02.13-.07.18-.05.05-.12.07-.22.07h-4.74c-.07,0-.13-.02-.18-.07-.05-.04-.08-.1-.08-.17v-1.21Z"/>
    <line class="cls-2" x1="107.74" y1="40.76" x2="107.74" y2="55.84"/>
    <path class="cls-4" d="M4.83,35.74c-.56.58-1.22.79-1.96.79s-1.38-.27-1.87-.76c-.7-.7-.68-1.57-.68-2.77s-.02-2.07.68-2.77c.49-.49,1.09-.76,1.87-.76,1.61,0,2.42,1.05,2.61,2.22h-1.36c-.15-.65-.56-1.01-1.25-1.01-.37,0-.67.15-.87.37-.26.29-.33.61-.33,1.95s.07,1.67.33,1.96c.19.22.5.36.87.36.41,0,.74-.15.96-.39.22-.25.31-.57.31-.92v-.26h-1.28v-1.13h2.62v1.01c0,1-.18,1.61-.66,2.11"/>
    <polygon class="cls-4" points="6.86 36.47 6.86 29.53 11.43 29.53 11.43 30.74 8.22 30.74 8.22 32.37 10.95 32.37 10.95 33.58 8.22 33.58 8.22 35.26 11.43 35.26 11.43 36.47 6.86 36.47"/>
    <polygon class="cls-4" points="16.85 36.47 14.11 32.21 14.11 36.47 12.75 36.47 12.75 29.53 13.96 29.53 16.71 33.78 16.71 29.53 18.06 29.53 18.06 36.47 16.85 36.47"/>
    <polygon class="cls-4" points="19.68 36.47 19.68 29.53 24.24 29.53 24.24 30.74 21.03 30.74 21.03 32.37 23.77 32.37 23.77 33.58 21.03 33.58 21.03 35.26 24.24 35.26 24.24 36.47 19.68 36.47"/>
    <path class="cls-4" d="M28.19,30.74h-1.28v1.83h1.28c.59,0,.98-.38.98-.92s-.39-.92-.98-.92M29.25,36.47l-1.35-2.76h-.97v2.76h-1.35v-6.93h2.72c1.41,0,2.25.96,2.25,2.12,0,.97-.59,1.58-1.27,1.82l1.55,2.99h-1.57Z"/>
    <path class="cls-4" d="M34.26,31.58l-.88,2.52h1.72l-.85-2.52ZM35.88,36.47l-.41-1.23h-2.46l-.42,1.23h-1.41l2.52-6.93h1.06l2.53,6.93h-1.41Z"/>
    <polygon class="cls-4" points="38.14 36.47 38.14 29.53 39.5 29.53 39.5 35.26 42.64 35.26 42.64 36.47 38.14 36.47"/>
    <path class="cls-4" d="M48.33,31.58l-.88,2.52h1.72l-.85-2.52ZM49.94,36.47l-.41-1.23h-2.46l-.42,1.23h-1.41l2.52-6.93h1.06l2.53,6.93h-1.41Z"/>
    <path class="cls-4" d="M54.65,36.53c-1.42,0-2.55-.96-2.55-2.43v-4.56h1.35v4.51c0,.8.47,1.27,1.2,1.27s1.21-.48,1.21-1.27v-4.51h1.34v4.56c0,1.47-1.13,2.43-2.55,2.43"/>
    <polygon class="cls-4" points="61.36 30.74 61.36 36.47 60.01 36.47 60.01 30.74 58.19 30.74 58.19 29.53 63.17 29.53 63.17 30.74 61.36 30.74"/>
    <polygon class="cls-4" points="67.97 36.47 67.97 33.57 65.62 33.57 65.62 36.47 64.27 36.47 64.27 29.53 65.62 29.53 65.62 32.37 67.97 32.37 67.97 29.53 69.32 29.53 69.32 36.47 67.97 36.47"/>
    <path class="cls-4" d="M74.13,31.05c-.19-.22-.5-.37-.87-.37s-.68.15-.88.37c-.26.29-.33.61-.33,1.95s.07,1.65.33,1.95c.19.22.51.37.88.37s.67-.15.87-.37c.26-.29.34-.61.34-1.95s-.08-1.66-.34-1.95M75.14,35.77c-.49.49-1.08.76-1.87.76s-1.39-.27-1.88-.76c-.7-.7-.68-1.57-.68-2.77s-.02-2.07.68-2.77c.49-.49,1.09-.76,1.88-.76s1.38.27,1.87.76c.7.7.69,1.57.69,2.77s.01,2.06-.69,2.77"/>
    <path class="cls-4" d="M79.84,30.74h-1.28v1.83h1.28c.59,0,.98-.38.98-.92s-.39-.92-.98-.92M80.89,36.47l-1.35-2.76h-.97v2.76h-1.35v-6.93h2.72c1.41,0,2.25.96,2.25,2.12,0,.97-.59,1.58-1.27,1.82l1.55,2.99h-1.57Z"/>
    <rect class="cls-4" x="83.57" y="29.53" width="1.35" height="6.93"/>
    <polygon class="cls-4" points="89.19 30.74 89.19 36.47 87.84 36.47 87.84 30.74 86.03 30.74 86.03 29.53 91 29.53 91 30.74 89.19 30.74"/>
    <polygon class="cls-4" points="94.75 33.62 94.75 36.47 93.41 36.47 93.41 33.62 91.32 29.53 92.79 29.53 94.09 32.33 95.37 29.53 96.84 29.53 94.75 33.62"/>
    <polygon class="cls-4" points="124.25 36.47 124.25 32.43 122.92 35.06 122.01 35.06 120.67 32.43 120.67 36.47 119.32 36.47 119.32 29.53 120.65 29.53 122.46 33.28 124.27 29.53 125.6 29.53 125.6 36.47 124.25 36.47"/>
    <rect class="cls-4" x="127.21" y="29.53" width="1.35" height="6.93"/>
    <polygon class="cls-4" points="134.28 36.47 131.54 32.21 131.54 36.47 130.18 36.47 130.18 29.53 131.39 29.53 134.14 33.78 134.14 29.53 135.49 29.53 135.49 36.47 134.28 36.47"/>
    <path class="cls-4" d="M140.3,31.05c-.2-.22-.5-.37-.87-.37s-.68.15-.88.37c-.26.29-.33.61-.33,1.95s.07,1.65.33,1.95c.19.22.51.37.88.37s.67-.15.87-.37c.26-.29.34-.61.34-1.95s-.08-1.66-.34-1.95M141.3,35.77c-.49.49-1.08.76-1.87.76s-1.39-.27-1.88-.76c-.7-.7-.68-1.57-.68-2.77s-.02-2.07.68-2.77c.49-.49,1.09-.76,1.88-.76s1.38.27,1.87.76c.7.7.69,1.57.69,2.77s0,2.06-.69,2.77"/>
    <path class="cls-4" d="M146,30.74h-1.28v1.83h1.28c.59,0,.98-.38.98-.92s-.39-.92-.98-.92M147.05,36.47l-1.35-2.76h-.97v2.76h-1.35v-6.93h2.72c1.41,0,2.25.96,2.25,2.12,0,.97-.59,1.58-1.27,1.82l1.55,2.99h-1.57Z"/>
    <path class="cls-4" d="M160.64,31.58l-.88,2.52h1.72l-.85-2.52ZM162.26,36.47l-.41-1.23h-2.46l-.42,1.23h-1.41l2.52-6.93h1.06l2.53,6.93h-1.41Z"/>
    <polygon class="cls-4" points="165.88 30.74 165.88 32.44 168.62 32.44 168.62 33.65 165.88 33.65 165.88 36.47 164.53 36.47 164.53 29.53 169.09 29.53 169.09 30.74 165.88 30.74"/>
    <polygon class="cls-4" points="171.62 30.74 171.62 32.44 174.36 32.44 174.36 33.65 171.62 33.65 171.62 36.47 170.27 36.47 170.27 29.53 174.84 29.53 174.84 30.74 171.62 30.74"/>
    <path class="cls-4" d="M177.76,31.58l-.88,2.52h1.72l-.85-2.52ZM179.37,36.47l-.41-1.23h-2.46l-.42,1.23h-1.41l2.52-6.93h1.06l2.53,6.93h-1.41Z"/>
    <rect class="cls-4" x="181.64" y="29.53" width="1.35" height="6.93"/>
    <path class="cls-4" d="M187.24,30.74h-1.28v1.83h1.28c.59,0,.98-.38.98-.92s-.39-.92-.98-.92M188.29,36.47l-1.35-2.76h-.97v2.76h-1.35v-6.93h2.72c1.41,0,2.25.96,2.25,2.12,0,.97-.59,1.58-1.27,1.82l1.55,2.99h-1.57Z"/>
    <path class="cls-4" d="M108.43,31.05c-.2-.22-.5-.37-.87-.37s-.68.15-.88.37c-.26.29-.33.61-.33,1.95s.07,1.65.33,1.95c.19.22.51.37.88.37s.67-.15.87-.37c.26-.29.34-.61.34-1.95s-.08-1.66-.34-1.95M109.43,35.77c-.49.49-1.08.76-1.87.76s-1.39-.27-1.88-.76c-.7-.7-.68-1.57-.68-2.77s-.02-2.07.68-2.77c.49-.49,1.09-.76,1.88-.76s1.38.27,1.87.76c.7.7.69,1.57.69,2.77s0,2.06-.69,2.77"/>
    <polygon class="cls-4" points="101.05 30.74 101.05 32.44 103.79 32.44 103.79 33.65 101.05 33.65 101.05 36.47 99.7 36.47 99.7 29.53 104.26 29.53 104.26 30.74 101.05 30.74"/>
    <path class="cls-4" d="M113.62,30.74h-1.28v1.83h1.28c.59,0,.98-.38.98-.92s-.39-.92-.98-.92M114.67,36.47l-1.35-2.76h-.97v2.76h-1.35v-6.93h2.72c1.41,0,2.25.96,2.25,2.12,0,.97-.59,1.58-1.27,1.82l1.55,2.99h-1.57Z"/>
    <path class="cls-4" d="M192.88,36.53c-1.05,0-1.85-.22-2.53-.92l.88-.88c.44.44,1.03.58,1.68.58.8,0,1.23-.3,1.23-.86,0-.24-.07-.45-.21-.58-.14-.13-.29-.2-.61-.24l-.84-.12c-.59-.09-1.03-.27-1.34-.57-.33-.33-.5-.78-.5-1.36,0-1.24.92-2.1,2.41-2.1.95,0,1.65.23,2.24.81l-.86.85c-.44-.42-.96-.48-1.42-.48-.72,0-1.07.4-1.07.88,0,.18.06.36.21.5.14.13.36.23.64.27l.82.12c.63.09,1.03.26,1.32.54.37.35.54.86.54,1.47,0,1.34-1.12,2.1-2.57,2.1"/>
    <path class="cls-4" d="M151.96,36.53c-1.05,0-1.85-.22-2.53-.92l.88-.88c.44.44,1.03.58,1.68.58.8,0,1.23-.3,1.23-.86,0-.24-.07-.45-.21-.58-.14-.13-.29-.2-.61-.24l-.84-.12c-.59-.09-1.03-.27-1.34-.57-.33-.33-.5-.78-.5-1.36,0-1.24.92-2.1,2.41-2.1.95,0,1.65.23,2.24.81l-.86.85c-.44-.42-.96-.48-1.42-.48-.72,0-1.07.4-1.07.88,0,.18.06.36.21.5.14.13.36.23.64.27l.82.12c.63.09,1.03.26,1.32.54.37.35.54.86.54,1.47,0,1.34-1.12,2.1-2.57,2.1"/>
  </g>
</svg>