<?xml version="1.0" encoding="UTF-8"?>
<svg id="Layer_2" data-name="Layer 2" xmlns="http://www.w3.org/2000/svg" viewBox="0 0 1075.91 274.08">
  <defs>
    <style>
      .cls-1 {
        fill: #6dbd4f;
      }
    </style>
  </defs>
  <g id="Layer_1-2" data-name="Layer 1">
    <g>
      <polygon class="cls-1" points="1025.92 236.64 1075.87 236.64 1075.87 215.58 1052.08 215.58 1052.08 56.71 1075.91 56.71 1075.88 35.65 1025.92 35.63 1025.92 236.64"/>
      <rect class="cls-1" x="733.43" y="246.45" width="108.91" height="20.88"/>
      <polygon class="cls-1" points="904.5 203.27 1018.5 25.85 1075.88 25.85 1075.87 4.93 1002.5 4.93 904.5 157.47 806.49 4.93 733.44 4.93 733.42 25.85 790.49 25.85 904.5 203.27"/>
      <rect class="cls-1" x="966.68" y="246.45" width="109.19" height="20.88"/>
      <polygon class="cls-1" points="783.07 35.65 733.42 35.65 733.41 56.7 757.19 56.7 757.19 215.57 733.44 215.57 733.44 236.65 783.07 236.65 783.07 35.65"/>
      <polygon class="cls-1" points="1016.48 46.69 904.49 220.96 792.53 46.69 792.53 236.64 842.34 236.64 842.34 215.59 819.85 215.59 819.85 135.13 904.49 267.18 989.15 135.13 989.15 215.59 966.68 215.59 966.68 236.64 1016.48 236.64 1016.48 46.69"/>
      <polygon class="cls-1" points="448.42 35.65 394.38 35.65 394.38 56.7 415.67 56.7 415.67 215.57 394.38 215.57 394.38 236.65 448.42 236.65 448.42 35.65"/>
      <path class="cls-1" d="M670.86,185.5c0-8.94-3.95-53.57-82.23-53.57h-4.76s-1.89,0-1.89,0h-124.13s0,104.71,0,104.71h133.63c58.53,0,79.38-26.49,79.38-51.14M490.72,215.58v-62.68s94.05,0,94.05,0c32.98,0,53.66,10.52,53.66,31.4,0,26.07-31.03,31.28-47.9,31.28h-99.82Z"/>
      <path class="cls-1" d="M673.93,125.86c11.55-12.47,20.42-26.18,20.42-48.34,0-35.4-26.45-72.59-114.88-72.59h-185.1s0,20.91,0,20.91h186.78c75.47,0,81.32,40.1,81.32,52.37,0,18.66-10.72,38.15-38.17,47.7,52.68,12.15,55.98,50.71,55.98,59.58,0,29.38-23.32,60.96-88.8,60.96h-197.11s0,20.85,0,20.85h198.09c97.24,0,120.28-44.9,120.28-80.64,0-45.78-38.82-60.8-38.82-60.8"/>
      <path class="cls-1" d="M583.87,122.12c42.68,0,69.19-16.82,69.19-43.9,0-26.67-26.9-42.58-71.93-42.58h-123.28s0,86.48,0,86.48h124.13s1.89,0,1.89,0ZM490.72,56.7h92.11c24.35,0,36.61,9.89,36.61,22.17,0,18.53-19.26,22.26-31.15,22.26h-97.57s0-44.42,0-44.42Z"/>
      <rect class="cls-1" x="307.01" y="4.92" width="31.06" height="92.48"/>
      <path class="cls-1" d="M186.95,31.44c-115.21,0-145.94,66.29-145.94,105.46,0,76.75,75.41,105.08,146.01,105.97,53.16.79,97.66-15.42,122.91-43.87v-46.07s-123.4,0-123.4,0v21.01s92.25,0,92.25,0v18.39c-17.89,18.57-47.97,29.22-84.94,29.22-52.57,0-121.14-21.63-121.14-84.4,0-48.16,43.56-83.98,114.68-83.98,25.86,0,62.56,8.22,79.02,28.29v15.94s31.16,0,31.16,0v-32.64c-25.93-21.78-64.11-33.32-110.61-33.32"/>
      <path class="cls-1" d="M190.09,252.71c-1.05,0-2.1-.01-3.19-.03-94.37-1.15-155.34-46.65-155.34-115.77,0-42.82,32.72-115.26,155.38-115.26,45.33,0,83.28,10.73,110.6,30.91V4.92s-31.13,0-31.13,0v7.29C238.48,4.76,207.14,0,186.43,0,35.91,0,0,88.23,0,136.65c0,86.85,73.18,137.43,186.96,137.43,31.03,0,67.79-5.03,91.82-15.48v8.77s31.15,0,31.15,0v-54.84c-27.24,25.65-69.98,40.17-119.84,40.17"/>
      <polygon class="cls-1" points="350.56 122.31 186.53 122.31 186.53 143.13 319.38 143.13 319.38 267.37 350.56 267.37 350.56 122.31"/>
    </g>
  </g>
</svg>