<?xml version="1.0" encoding="UTF-8"?>
<svg id="Layer_2" data-name="Layer 2" xmlns="http://www.w3.org/2000/svg" xmlns:xlink="http://www.w3.org/1999/xlink" viewBox="0 0 382.01 193.94">
  <defs>
    <style>
      .cls-1 {
        fill: none;
      }

      .cls-2 {
        fill: url(#radial-gradient);
      }

      .cls-3 {
        clip-path: url(#clippath-1);
      }

      .cls-4 {
        fill: #3e4a75;
      }

      .cls-5 {
        fill: url(#radial-gradient-2);
      }

      .cls-6 {
        fill: #638d3d;
      }

      .cls-7 {
        clip-path: url(#clippath);
      }
    </style>
    <clipPath id="clippath">
      <path class="cls-1" d="M99.09,168.06l.93,20.5s6.41-.68,13.07-2.24l-1-21.09s-5.74,2.07-13,2.83M84.62,177.75s-.6.47.04,1.6c.58,1.02,8.58,12.63,9.93,14.6.07,0,.15,0,.22,0l.34-5.02,2.79-.07-.64-20.58-3.15.04.08-5.21-9.62,14.67ZM114.25,164.63l.44,21.21c9.49-2.35,13.03-3.99,13.03-3.99l-.59-23.12c-5.34,3.14-12.88,5.9-12.88,5.9M141.57,148.32c-.36.34-5.75,5.48-12.73,9.41l1,23.21s7.1-2.83,13-6.7l-1.27-25.92s.03-.04.03-.04l-.04-.08v.12ZM158.64,147.13l.59,14.04c6.23-5.86,11.61-15.23,11.61-15.23l-12.2,1.19ZM143.72,146.33l.76,26.91c7.22-4.62,12.64-10,12.64-10l-.4-16.22-4.95-9.93c-3.23,4.47-8.06,9.25-8.06,9.25M10.75,138.71l5.03-11.18-12.48-6.46c1.99,8.31,7.45,17.64,7.45,17.64M23.24,112.18h.09s-.1-.05-.1-.05c0,.03.01.05.01.05M2.56,118.21l14.28,7.72,11.08.65c-2.27-5.02-4.03-11.59-4.03-11.59L.16,102.27c.42,8.56,2.4,15.94,2.4,15.94M.1,100.35l23.13,11.78c-.15-.61-1.9-7.8-1.84-15.72L.75,85.74s-1.07,7.57-.65,14.61M1.01,83.45l20.37,10.98c-.08-6.2,1.28-14.11,1.28-14.11l-18.62-10.17c-2.68,9.41-3.03,13.3-3.03,13.3M4.41,68.53l18.8,9.62s1.06-6.01,4.01-12.69l-18.24-9.39s-2.6,5.91-4.56,12.46M7.3,48.67c-.07.12-.14.23-.21.35l3.98,2.65-1.31,2.46,18.17,9.68,1.53-2.76,4.49,2.66-7.95-15.63s-.12-.76-1.41-.76c-1.13,0-14.21,1.08-17.29,1.34M152.65,57.18l1.6,2.71-4.57,2.53,17.51,1.04s.71.28,1.37-.83c.61-1.05,7.16-14.69,7.82-16.07-.01-.02-.03-.05-.04-.07l-4.68,2.27-1.46-2.38-17.54,10.78ZM142.66,45.84s4.65,3.96,8.92,9.88l17.34-10.98s-3.78-5.23-8.44-10.24l-17.82,11.35ZM113.24,28.73l.1-.07s-.04,0-.04,0l-.06.07ZM129.56,36.02c5.39,3.07,11.52,8.25,11.52,8.25l18.2-10.93c-6.76-7.06-9.94-9.33-9.94-9.33l-19.77,12.01ZM113.34,28.66c.6.18,7.69,2.31,14.5,6.36l19.64-12.4s-5.98-4.75-12.27-7.95l-21.87,13.98ZM104.68,16.18l-6.16,9.22c5.48.59,12.03,2.4,12.03,2.4l22.98-14.03c-7.6-3.97-14.96-6-14.96-6l-13.89,8.42ZM103.84,14.45l11.88-7.49c-8.18-2.49-18.98-2.5-18.98-2.5l7.11,9.99Z"/>
    </clipPath>
    <radialGradient id="radial-gradient" cx="-86.57" cy="416.35" fx="-86.57" fy="416.35" r="1" gradientTransform="translate(8541.9 40733.57) scale(97.6 -97.6)" gradientUnits="userSpaceOnUse">
      <stop offset="0" stop-color="#3e4a75"/>
      <stop offset=".39" stop-color="#3c4873"/>
      <stop offset=".54" stop-color="#35436f"/>
      <stop offset=".64" stop-color="#293a67"/>
      <stop offset=".72" stop-color="#182d5c"/>
      <stop offset=".79" stop-color="#031d4f"/>
      <stop offset=".8" stop-color="#001b4d"/>
      <stop offset=".84" stop-color="#908faa"/>
      <stop offset=".85" stop-color="#6f7799"/>
      <stop offset=".86" stop-color="#5a688f"/>
      <stop offset=".87" stop-color="#53638c"/>
      <stop offset=".99" stop-color="#001b4d"/>
      <stop offset="1" stop-color="#001b4d"/>
    </radialGradient>
    <clipPath id="clippath-1">
      <path class="cls-1" d="M69.27,186.4c8.11,2.68,18.92,2.96,18.92,2.96l-6.86-10.16-12.06,7.21ZM51.61,179.18c7.51,4.15,14.82,6.35,14.82,6.35l14.09-8.08,6.37-9.08c-5.47-.72-11.97-2.68-11.97-2.68l-23.31,13.48ZM72.15,164.76s.05.01.05.01l.05-.07-.1.06ZM37.88,169.97s5.87,4.9,12.08,8.25l22.19-13.46c-.59-.19-7.63-2.48-14.34-6.71l-19.93,11.92ZM26.35,158.99c6.59,7.23,9.72,9.56,9.72,9.56l20.05-11.53c-5.32-3.19-11.33-8.51-11.33-8.51l-18.44,10.48ZM16.97,147.38s3.65,5.32,8.19,10.43l18.08-10.92s-4.56-4.06-8.68-10.08l-17.59,10.56ZM17.77,129.5c-.68,1.09-8.26,15.98-8.26,15.98l4.84-2.2,1.4,2.42,17.79-10.36-1.54-2.75,3.2-1.67c-.19-.3-.37-.61-.56-.91l-15.49-1.3s-.09-.04-.23-.04c-.26,0-.71.12-1.15.83M13.37,44.54l12.24-.7-.02-14.05c-6.46,5.6-12.22,14.75-12.22,14.75M27.79,27.8l-.27,16.24,4.54,10.12c3.41-4.33,8.43-8.91,8.43-8.91l.36-26.93c-7.41,4.33-13.05,9.49-13.05,9.49M42.51,17.4l.2,25.96s-.03.03-.03.03l.04.08v-.11c.47-.41,6.04-5.28,13.1-8.89l-.04-23.23s-7.21,2.53-13.27,6.16M57.92,10.41l-.35,23.14c5.46-2.93,13.11-5.38,13.11-5.38l.44-21.21c-9.59,1.96-13.2,3.45-13.2,3.45M72.73,6.55l.12,21.12s5.82-1.84,13.11-2.29l-.07-20.52s-6.45.41-13.16,1.69M91.28,0l-.51,4.7-2.8-.03-.21,20.58,3.15.09-.29,5.22,10.21-14.27s.62-.46.03-1.59c-.52-1.01-7.46-12.02-9.15-14.7-.15,0-.29,0-.43,0"/>
    </clipPath>
    <radialGradient id="radial-gradient-2" cx="-86.57" cy="416.35" fx="-86.57" fy="416.35" r="1" gradientTransform="translate(8541.96 40733.3) scale(97.6 -97.6)" gradientUnits="userSpaceOnUse">
      <stop offset="0" stop-color="#61a744"/>
      <stop offset=".3" stop-color="#5fa542"/>
      <stop offset=".4" stop-color="#5a9e3e"/>
      <stop offset=".48" stop-color="#529237"/>
      <stop offset=".54" stop-color="#45812d"/>
      <stop offset=".6" stop-color="#366b20"/>
      <stop offset=".64" stop-color="#255412"/>
      <stop offset=".84" stop-color="#a1c488"/>
      <stop offset=".84" stop-color="#91b679"/>
      <stop offset=".85" stop-color="#638c4d"/>
      <stop offset=".86" stop-color="#416d2c"/>
      <stop offset=".87" stop-color="#2c5a19"/>
      <stop offset=".87" stop-color="#255412"/>
      <stop offset=".99" stop-color="#255412"/>
      <stop offset="1" stop-color="#255412"/>
    </radialGradient>
  </defs>
  <g id="Layer_1-2" data-name="Layer 1">
    <polygon class="cls-4" points="118.55 84.35 112.04 84.37 112.05 85.95 118.56 85.93 118.55 84.35"/>
    <path class="cls-4" d="M220.03,79.49l25.35-.07c-.32-.63-.75-1.16-1.32-1.57l-24.03.07v1.58Z"/>
    <polygon class="cls-4" points="194.18 84.13 187.67 84.14 187.67 85.73 194.19 85.71 194.18 84.13"/>
    <polygon class="cls-4" points="257.32 83.94 250.81 83.96 250.81 85.54 257.32 85.52 257.32 83.94"/>
    <polygon class="cls-4" points="226.56 84.03 220.04 84.05 220.05 85.64 226.56 85.61 226.56 84.03"/>
    <path class="cls-4" d="M239.68,85.58l6.33-.02c.04-.36.05-.76.05-1.18v-.4s-6.34.01-6.34.01c0,.09,0,.17,0,.26v.7c0,.22-.01.43-.04.62"/>
    <rect class="cls-4" x="122.93" y="80.23" width="6.51" height="1.59" transform="translate(-.22 .35) rotate(-.16)"/>
    <polygon class="cls-4" points="268.57 83.91 262.07 83.93 262.08 85.51 268.57 85.49 268.57 83.91"/>
    <polygon class="cls-4" points="112.03 81.86 118.54 81.84 118.54 80.25 112.02 80.27 112.03 81.86"/>
    <polygon class="cls-4" points="146.84 81.76 169.02 81.69 169.01 80.1 146.83 80.16 146.84 81.76"/>
    <polygon class="cls-4" points="98.31 83.94 98.3 82.37 91.8 82.38 91.8 83.97 98.31 83.94"/>
    <polygon class="cls-4" points="91.8 81.92 98.3 81.9 98.3 80.3 91.79 80.32 91.8 81.92"/>
    <rect class="cls-4" x="91.81" y="84.42" width="6.51" height="1.58" transform="translate(-.32 .36) rotate(-.22)"/>
    <polygon class="cls-4" points="343.85 77.55 343.85 79.12 350.36 79.11 350.35 77.53 343.85 77.55"/>
    <polygon class="cls-4" points="292.48 83.84 285.96 83.86 285.97 85.44 292.49 85.42 292.48 83.84"/>
    <polygon class="cls-4" points="285.96 79.29 292.47 79.28 292.46 77.7 285.95 77.71 285.96 79.29"/>
    <path class="cls-4" d="M187.66,81.64l28.19-.08c-.14-.59-.34-1.12-.59-1.59l-27.6.08v1.59Z"/>
    <polygon class="cls-4" points="321.48 79.19 333.69 79.15 332.43 77.58 321.47 77.61 321.48 79.19"/>
    <rect class="cls-4" x="262.06" y="77.77" width="6.5" height="1.58" transform="translate(-.25 .86) rotate(-.19)"/>
    <rect class="cls-4" x="250.79" y="77.81" width="6.51" height="1.58" transform="translate(-.28 .9) rotate(-.2)"/>
    <polygon class="cls-4" points="310.21 79.22 316.72 79.21 316.72 77.63 310.2 77.64 310.21 79.22"/>
    <polygon class="cls-4" points="327.99 83.74 321.49 83.76 321.49 85.33 328 85.32 327.99 83.74"/>
    <polygon class="cls-4" points="316.73 83.77 310.22 83.79 310.23 85.37 316.74 85.35 316.73 83.77"/>
    <polygon class="cls-4" points="337.32 83.71 329.2 83.73 330.45 85.31 338.58 85.29 337.32 83.71"/>
    <polygon class="cls-4" points="343.85 79.58 343.86 81.18 350.37 81.16 350.36 79.57 343.85 79.58"/>
    <rect class="cls-4" x="343.86" y="83.68" width="6.51" height="1.59" transform="translate(-.27 1.12) rotate(-.19)"/>
    <rect class="cls-4" x="122.94" y="84.32" width="6.52" height="1.58" transform="translate(-.23 .35) rotate(-.16)"/>
    <path class="cls-4" d="M87.75,83.76c0-.48-.02-.93-.06-1.37l-7.32.02c.54.27.88.75.96,1.58h6.42v-.23Z"/>
    <polygon class="cls-4" points="146.84 84.26 146.85 85.84 153.36 85.83 153.36 84.24 146.84 84.26"/>
    <polygon class="cls-4" points="343.86 83.23 350.37 83.21 350.36 81.62 343.86 81.65 343.86 83.23"/>
    <path class="cls-4" d="M216.11,84.2v-.14l-6.71.02c.12.43.18.96.2,1.58l6.51-.02v-1.44Z"/>
    <path class="cls-4" d="M246.06,83.03c0-.38-.02-.75-.05-1.1l-25.97.08v1.59s6.52-.02,6.52-.02l-.02-1.51,10.18-.04c1.76,0,2.7.26,2.94,1.51l6.39-.02v-.48Z"/>
    <path class="cls-4" d="M220.04,81.54l25.92-.08c-.07-.57-.19-1.11-.38-1.59l-25.55.08v1.59Z"/>
    <path class="cls-4" d="M354.48,81.62c-.08.49-.13,1.01-.15,1.58l6.92-.02c.23-.81.66-1.3,1.35-1.59l-8.12.03Z"/>
    <path class="cls-4" d="M355.42,79.09l25.76-.08c-.31-.62-.76-1.14-1.39-1.57l-22.76.06c-.64.41-1.18.93-1.61,1.59"/>
    <path class="cls-4" d="M375.45,83.14l6.41-.02v-.22c0-.48-.02-.93-.05-1.37l-7.32.02c.54.27.88.74.97,1.58"/>
    <path class="cls-4" d="M215.93,82.02l-28.27.08v1.58l6.52-.02v-1.5s11.55-.04,11.55-.04c1.88,0,2.98.36,3.5,1.5l6.87-.02c-.02-.57-.08-1.1-.16-1.59"/>
    <path class="cls-4" d="M378.97,76.98c-1.25-.56-3.03-.87-5.55-.86l-9.8.03c-2.3,0-4.22.24-5.73.9l21.07-.07Z"/>
    <path class="cls-4" d="M87.07,79.88c-.31-.61-.75-1.14-1.39-1.57l-22.75.06c-.65.41-1.18.93-1.61,1.59l25.75-.08Z"/>
    <path class="cls-4" d="M66.9,86.08c.01-.61.05-1.14.13-1.58l-6.83.02c0,.07,0,.13,0,.2v1.38l6.7-.02Z"/>
    <polygon class="cls-4" points="335.69 81.67 321.48 81.71 321.49 83.3 327.99 83.27 327.98 82.29 328.05 82.29 328.83 83.27 336.96 83.24 335.69 81.67"/>
    <rect class="cls-4" x="310.21" y="79.68" width="6.51" height="1.59" transform="translate(-.22 .87) rotate(-.16)"/>
    <rect class="cls-4" x="285.96" y="79.75" width="6.51" height="1.59" transform="translate(-.26 .93) rotate(-.18)"/>
    <polygon class="cls-4" points="321.48 79.66 321.48 81.25 335.33 81.21 334.06 79.61 321.48 79.66"/>
    <rect class="cls-4" x="250.8" y="79.85" width="6.51" height="1.59" transform="translate(-.3 .94) rotate(-.21)"/>
    <rect class="cls-4" x="310.22" y="81.73" width="6.51" height="1.59" transform="translate(-.23 .87) rotate(-.16)"/>
    <polygon class="cls-4" points="262.06 81.42 268.57 81.4 268.56 79.81 262.06 79.83 262.06 81.42"/>
    <rect class="cls-4" x="122.94" y="82.28" width="6.52" height="1.59" transform="translate(-.19 .29) rotate(-.13)"/>
    <rect class="cls-4" x="112.03" y="82.31" width="6.51" height="1.58" transform="translate(-.27 .37) rotate(-.18)"/>
    <polygon class="cls-4" points="153.34 82.2 146.84 82.22 146.84 83.8 153.36 83.78 153.34 82.2"/>
    <rect class="cls-4" x="262.07" y="81.87" width="6.5" height="1.58" transform="translate(-.23 .74) rotate(-.16)"/>
    <polygon class="cls-4" points="292.48 81.79 285.96 81.81 285.96 83.4 292.48 83.37 292.48 81.79"/>
    <polygon class="cls-4" points="257.32 81.9 250.81 81.92 250.81 83.5 257.32 83.48 257.32 81.9"/>
    <polygon class="cls-4" points="98.32 86.45 91.81 86.47 91.81 88.05 98.32 88.04 98.32 86.45"/>
    <polygon class="cls-4" points="129.44 77.71 129.44 77.07 122.92 77.09 122.92 77.73 129.44 77.71"/>
    <polygon class="cls-4" points="350.35 77.07 350.35 76.42 343.85 76.44 343.85 77.09 350.35 77.07"/>
    <polygon class="cls-4" points="118.53 77.74 118.52 77.1 112.01 77.12 112.01 77.76 118.53 77.74"/>
    <polygon class="cls-4" points="169 77.6 169 76.95 146.83 77.02 146.83 77.66 169 77.6"/>
    <polygon class="cls-4" points="98.29 77.81 98.29 77.16 91.78 77.17 91.78 77.82 98.29 77.81"/>
    <path class="cls-4" d="M84.86,77.84c-1.26-.57-3.03-.87-5.54-.86l-9.8.03c-2.3,0-4.22.24-5.71.9l21.06-.06Z"/>
    <polygon class="cls-4" points="292.46 77.23 292.46 76.59 285.94 76.61 285.95 77.25 292.46 77.23"/>
    <path class="cls-4" d="M73.28,88.57v2.09s8.1-.03,8.1-.03v.62c0,2.06-1.68,2.32-3.39,2.32l-6.95.02c-3.29,0-4.13-.78-4.14-4.41v-.6l-6.7.02v2.44c.02,6.21,3.52,7.67,9.38,7.66l7.82-.02c7.34-.02,10.5-.32,10.49-6.43v-3.73s-14.62.05-14.62.05Z"/>
    <polygon class="cls-4" points="316.72 77.16 316.72 76.52 310.2 76.54 310.2 77.19 316.72 77.16"/>
    <polygon class="cls-4" points="332.07 77.12 331.55 76.47 321.46 76.5 321.47 77.15 332.07 77.12"/>
    <path class="cls-4" d="M243.27,77.38c-.91-.42-2.08-.65-3.58-.64l-19.66.06v.64l23.24-.06Z"/>
    <polygon class="cls-4" points="257.3 77.34 257.3 76.69 250.79 76.71 250.79 77.36 257.3 77.34"/>
    <polygon class="cls-4" points="268.55 77.31 268.55 76.65 262.05 76.68 262.05 77.32 268.55 77.31"/>
    <path class="cls-4" d="M212.18,77.47c-1.26-.43-2.87-.64-4.88-.64l-19.66.07v.64l24.54-.07Z"/>
    <rect class="cls-4" x="321.51" y="87.84" width="6.51" height="9.89" transform="translate(-.34 1.18) rotate(-.21)"/>
    <rect class="cls-4" x="310.25" y="87.87" width="6.51" height="9.89" transform="translate(-.27 .92) rotate(-.17)"/>
    <polygon class="cls-4" points="292.49 87.93 285.98 87.95 286.01 97.83 307.15 97.77 307.14 92.33 292.5 92.37 292.49 87.93"/>
    <polygon class="cls-4" points="268.58 88 262.08 88.02 262.11 97.91 283.25 97.85 283.24 92.4 268.6 92.45 268.58 88"/>
    <polygon class="cls-4" points="343.88 87.78 343.89 91.87 343.82 91.87 340.58 87.79 332.46 87.82 340.32 97.68 350.41 97.65 350.38 87.76 343.88 87.78"/>
    <path class="cls-4" d="M367.38,87.71v2.09s8.11-.03,8.11-.03v.62c0,2.05-1.7,2.32-3.4,2.32l-6.95.02c-3.29,0-4.14-.78-4.14-4.41v-.6l-6.69.02v2.44c.03,6.22,3.52,7.67,9.38,7.66l7.85-.03c7.33-.02,10.5-.32,10.48-6.43v-3.73s-14.63.05-14.63.05Z"/>
    <polygon class="cls-4" points="146.86 88.36 146.89 98.25 153.4 98.22 153.37 90.99 168.3 90.94 168.29 88.29 146.86 88.36"/>
    <polygon class="cls-4" points="129.47 88.41 122.96 88.43 122.99 98.31 144.13 98.25 144.11 92.81 129.48 92.85 129.47 88.41"/>
    <rect class="cls-4" x="250.83" y="88.04" width="6.51" height="9.89" transform="translate(-.27 .75) rotate(-.17)"/>
    <path class="cls-4" d="M112.05,88.46v.91c.01,2.7-.96,3.75-3.63,3.77h-6.46c-2.66.02-3.63-1.03-3.64-3.74v-.91l-6.51.02v2.32c.02,5.28,2.76,7.79,8.73,7.77l9.32-.03c5.99-.01,8.72-2.55,8.7-7.82v-2.32s-6.52.02-6.52.02Z"/>
    <path class="cls-4" d="M209.62,88.18v.62c.01,3.02-1.07,3.82-3.86,3.83l-11.55.03v-4.44s-6.52.02-6.52.02l.03,9.89,19.65-.07c6.51-.02,8.79-2.17,8.77-7.41v-2.5s-6.51.02-6.51.02Z"/>
    <path class="cls-4" d="M242.44,89.67v-.06c1.33-.32,2.19-.83,2.74-1.54l-25.12.08.03,9.89,6.51-.02-.02-5.52,10.24-.03c2.02,0,2.67.72,2.68,2.96v2.55l6.51-.02v-3.61c-.02-3.49-1.64-4.33-3.57-4.68"/>
    <polygon class="cls-4" points="350.37 85.71 343.87 85.74 343.88 87.32 350.38 87.3 350.37 85.71"/>
    <rect class="cls-4" x="73.28" y="86.5" width="14.6" height="1.59" transform="translate(-.23 .21) rotate(-.15)"/>
    <rect class="cls-4" x="112.05" y="86.4" width="6.51" height="1.58" transform="translate(-.24 .32) rotate(-.16)"/>
    <polygon class="cls-4" points="66.9 88.13 66.89 86.54 60.19 86.56 60.2 88.15 66.9 88.13"/>
    <rect class="cls-4" x="122.95" y="86.37" width="6.52" height="1.59" transform="translate(-.24 .35) rotate(-.16)"/>
    <rect class="cls-4" x="187.67" y="86.18" width="6.51" height="1.59" transform="translate(-.28 .62) rotate(-.18)"/>
    <path class="cls-4" d="M67.14,84.03c.24-.81.66-1.3,1.35-1.59l-8.12.03c-.09.49-.14,1.01-.17,1.58l6.93-.02Z"/>
    <polygon class="cls-4" points="168.29 86.24 146.85 86.31 146.86 87.9 168.29 87.83 168.29 86.24"/>
    <path class="cls-4" d="M87.65,81.93c-.07-.57-.19-1.1-.38-1.59l-26.22.08c-.25.46-.44.99-.58,1.59l27.18-.08Z"/>
    <rect class="cls-4" x="146.83" y="78.09" width="22.18" height="1.58" transform="translate(-.23 .46) rotate(-.17)"/>
    <polygon class="cls-4" points="122.93 79.77 129.45 79.75 129.44 78.18 122.92 78.19 122.93 79.77"/>
    <rect class="cls-4" x="112.02" y="78.21" width="6.51" height="1.58" transform="translate(-.25 .37) rotate(-.18)"/>
    <polygon class="cls-4" points="91.79 79.86 98.3 79.84 98.3 78.26 91.78 78.28 91.79 79.86"/>
    <rect class="cls-4" x="209.61" y="86.11" width="6.51" height="1.59" transform="translate(-.28 .69) rotate(-.19)"/>
    <path class="cls-4" d="M187.65,79.58l27.34-.08c-.44-.65-1.03-1.17-1.77-1.57l-25.57.07v1.58Z"/>
    <polygon class="cls-4" points="338.95 85.75 330.83 85.77 332.09 87.35 340.21 87.33 338.95 85.75"/>
    <rect class="cls-4" x="354.31" y="85.69" width="6.68" height="1.58" transform="translate(-.27 1.13) rotate(-.18)"/>
    <path class="cls-4" d="M354.31,83.66c0,.07,0,.13,0,.2v1.38l6.69-.02c0-.62.06-1.14.13-1.58l-6.82.02Z"/>
    <rect class="cls-4" x="321.49" y="85.79" width="6.51" height="1.59" transform="translate(-.28 1.05) rotate(-.19)"/>
    <rect class="cls-4" x="367.38" y="85.64" width="14.61" height="1.59" transform="translate(-.28 1.21) rotate(-.18)"/>
    <path class="cls-4" d="M355.16,79.56c-.25.47-.43,1-.58,1.59l27.18-.08c-.07-.58-.19-1.1-.38-1.59l-26.22.08Z"/>
    <rect class="cls-4" x="310.23" y="85.82" width="6.51" height="1.59" transform="translate(-.16 .58) rotate(-.11)"/>
    <polygon class="cls-4" points="257.32 85.99 250.81 86 250.82 87.59 257.33 87.57 257.32 85.99"/>
    <path class="cls-4" d="M245.96,86.02h-6.4c-.28.79-.97,1.17-2.24,1.17l-10.77.03v-1.15h-6.51v1.6l25.43-.07c.24-.46.4-.99.49-1.59"/>
    <rect class="cls-4" x="285.97" y="85.89" width="6.52" height="1.59" transform="translate(-.32 1.07) rotate(-.21)"/>
    <rect class="cls-4" x="262.08" y="85.96" width="6.5" height="1.59" transform="translate(-.28 .86) rotate(-.19)"/>
    <rect class="cls-6" x="60.83" y="108.36" width="2.68" height="16.02"/>
    <path class="cls-6" d="M91.14,108.36v13.18c-.92-.88-13.73-13.18-13.73-13.18h-3.53v16.02h2.68v-13.17c.91.89,13.72,13.17,13.72,13.17h3.53v-16.02h-2.67Z"/>
    <polygon class="cls-6" points="102.44 108.36 102.44 110.64 110.24 110.64 110.24 124.37 112.93 124.37 112.93 110.64 120.73 110.64 120.73 108.36 102.44 108.36"/>
    <polygon class="cls-6" points="129.49 108.36 129.49 124.37 145.33 124.37 145.33 122.1 132.17 122.1 132.17 117.28 144.73 117.28 144.73 114.99 132.17 114.99 132.17 110.64 145.23 110.64 145.23 108.36 129.49 108.36"/>
    <path class="cls-6" d="M172.81,114.28v-1.26c0-3.1-.84-4.67-5.44-4.67h-12.65v16.02h2.68v-6.09h9.91c1.96,0,2.78.33,2.78,2.42v3.67h2.54v-4.23c0-1.46-.59-2.35-1.8-2.86,1.04-.31,1.99-1.07,1.99-3M170.14,114.05c0,1.2-.51,1.95-3.01,1.95h-9.74v-5.35h9.22c3.19,0,3.53.61,3.53,1.99v1.41Z"/>
    <path class="cls-6" d="M199.96,108.36v13.18c-.91-.88-13.73-13.18-13.73-13.18h-3.52v16.02h2.67v-13.17c.92.88,13.73,13.17,13.73,13.17h3.52v-16.02h-2.67Z"/>
    <path class="cls-6" d="M223.46,108.35h-2.93l-9.52,16.02h3.05s1.76-2.98,1.91-3.24h12.04c.16.26,1.92,3.24,1.92,3.24h3.05l-9.52-16.02ZM217.31,118.83c.45-.75,4.24-7.17,4.67-7.9.43.73,4.23,7.15,4.68,7.9h-9.35Z"/>
    <polygon class="cls-6" points="238.2 108.36 238.2 110.64 246.01 110.64 246.01 124.37 248.68 124.37 248.68 110.64 256.49 110.64 256.49 108.36 238.2 108.36"/>
    <rect class="cls-6" x="265.32" y="108.36" width="2.67" height="16.02"/>
    <path class="cls-6" d="M292.78,108.18h-8.9c-4.12,0-5.79,1.76-5.79,6.08v4.22c0,4.31,1.68,6.08,5.79,6.08h8.9c4.12,0,5.79-1.76,5.79-6.08v-4.22c0-4.31-1.67-6.08-5.79-6.08M295.89,119.27c0,2.12-.96,2.99-3.33,2.99h-8.47c-2.37,0-3.33-.87-3.33-2.99v-5.8c0-2.1.99-3.01,3.33-3.01h8.47c2.33,0,3.33.91,3.33,3.01v5.8Z"/>
    <path class="cls-6" d="M325.74,108.36v13.18c-.92-.88-13.74-13.18-13.74-13.18h-3.53v16.02h2.68v-13.17c.91.88,13.73,13.17,13.73,13.17h3.52v-16.02h-2.67Z"/>
    <path class="cls-6" d="M349.22,108.35h-2.93l-9.52,16.02h3.04s1.78-2.98,1.93-3.24h12.04c.16.26,1.92,3.24,1.92,3.24h3.05l-9.53-16.02ZM343.09,118.83c.45-.75,4.24-7.17,4.68-7.9.43.73,4.23,7.15,4.67,7.9h-9.35Z"/>
    <polygon class="cls-6" points="367.24 108.36 367.24 124.37 381.9 124.37 381.9 122.1 369.93 122.1 369.93 108.36 367.24 108.36"/>
    <path class="cls-6" d="M308.05,38.42v19.08h-3.21l-5.3-.02c-.61.01-1.64-.57-2.52-1.43-.75-.74-1.22-1.52-1.22-2.04s.16-.91.48-1.22c1.03-.97,3.47-.82,5.08-.71l1.55.07-.24-.44-.13-.27c-.41-.88-.63-1.18-1.87-1.18h-1.62c-1.79,0-5.52,0-5.52,3.93,0,1.41.85,2.4,1.77,3.32h-2.76s-3.6-.02-4.12-.02v-13.61c0-.85-1.27-1.95-1.97-2.07l-.34-.06v18.11h24.24v-23.45l-.38.12c-.56.17-1.95,1.06-1.95,1.92"/>
    <path class="cls-4" d="M201.42,45.35c.91,0,1.62-.74,1.62-1.69s-.72-1.69-1.67-1.69-1.68.74-1.68,1.65c0,.96.76,1.73,1.73,1.73"/>
    <path class="cls-6" d="M283.71,36.56c-.79.25-1.95,1.12-1.95,2.2v18.73h-2.97c-.03-.06-.05-.12-.05-.12-.89-3.1-3.05-4.77-6.25-4.77s-5.16,1.59-6.13,4.88c0-.01,0,0,0,.01h-3.43s-1.71-.01-2.15-.02v-9.5l-.26-.03c-.38-.05-.83.25-1.13.52-.44.37-.95.99-.95,1.47v7.56h-5.04s-1.68-.01-2.13-.02v-9.58h-1.73c-5.17,0-8.26,4.54-8.26,8.92v3.01h25.01c.49,3.14,3.14,5.41,6.44,5.41s5.95-2.42,6.11-5.41h5.26v-23.39l-.37.12ZM248.99,57.47h-5.39v-1.05c0-2.59,2.5-6.05,5.05-6.05h.34v7.11ZM272.82,62.98c-2.34,0-4.17-1.82-4.17-4.14s1.68-3.94,4.01-3.94,4.07,1.72,4.07,4.07-1.65,4.01-3.91,4.01"/>
    <path class="cls-4" d="M232.85,36.21c-.6.18-2.17,1.12-2.17,2.2v18.79c-.47,0-4.35-.02-4.81-.02v-21.14l-.71.16c-.88.21-2.21,1.29-2.21,2.45v18.55c-.47,0-5.25-.03-5.25-.03-.65.03-1.29-1.71-1.85-3.23-1.06-2.87-2.36-6.43-5.64-6.43h-1.73v3.31l.62-.03c2.5-.13,3.08,1.57,3.81,3.71,0,0,.69,1.85.69,1.85,0,0,.01-.03.01-.04.02.09.04.17.08.28,0,0,.13.32.23.59h-8.46v-9.57h-5.12c-2.54,0-4.78,2.32-4.78,4.95,0,1.32.38,2.35,1.13,3.1,1.44,1.43,3.93,1.45,5.96,1.45v.07h-10.08v-7.38l-.62.03c-.95.05-2.21,1.38-2.21,2.33,0,0-.06,10.16-.07,11.96h-.22c-1.1-.05-1.82-.08-3.02,1.25-.21.21-.32.46-.32.76v.92h6.61v-6.91h40.91v-24.13l-.76.22ZM202.62,54.08h-2.55c-.68,0-1.5-1-1.5-1.63,0-.75,1.03-1.83,1.76-1.83h2.28v3.46Z"/>
    <path class="cls-6" d="M254.97,60.86c-.79,0-1.34.53-1.34,1.3,0,.85.6,1.46,1.41,1.46.72,0,1.36-.64,1.36-1.36,0-.8-.62-1.4-1.43-1.4"/>
    <path class="cls-6" d="M259.23,60.86c-.79,0-1.4.57-1.4,1.3,0,.78.67,1.46,1.44,1.46s1.33-.57,1.33-1.36c0-.85-.54-1.4-1.37-1.4"/>
    <path class="cls-6" d="M244.83,45.4c.73,0,1.41-.68,1.41-1.4,0-.8-.62-1.4-1.44-1.4s-1.33.53-1.33,1.37.58,1.44,1.37,1.44"/>
    <path class="cls-4" d="M363.03,46.19c.72,0,1.36-.67,1.36-1.44s-.58-1.36-1.39-1.36c-.77,0-1.41.62-1.41,1.36,0,.79.64,1.44,1.44,1.44"/>
    <path class="cls-4" d="M374.02,37.91l-.3.49v.08s0,19.01,0,19.01h-4.44c-.4,0-1-1.58-1.47-2.85-1.04-2.8-2.46-6.65-5.38-6.65h-1.57v2.69l.31-.02c.59-.04,1.14,0,1.62.12.95.23,3.31,5.02,3.56,6.71h-6.94s-1.7-.01-2.15-.02v-21.06l-.36.08c-.89.2-1.98,1.24-1.98,2.16v18.84h-3.22s-1.72-.01-2.17-.02v-9.5l-.25-.03c-.38-.05-.81.25-1.12.51-.35.3-.94.97-.94,1.49v7.56h-4.95l-2.38-.02c-.87,0-1.45-1.67-2.07-3.42-.99-2.82-2.23-6.33-5.48-6.33h-1.3v2.68h.55c.58-.01,1.25-.02,1.69.31,1.19.9,2.04,3.3,2.72,5.24,0,0,.39,1.06.52,1.41-.36,0-1.41-.03-1.41-.03-2.93-.1-6.94-.23-8.99,1.74-.89.87-1.35,2.06-1.35,3.56,0,3.34,2.38,5.76,5.67,5.76h3.02c.63,0,2.54,0,2.54-1.54v-.76l-1.65.05c-2.1.09-4.96.23-6.36-1.1-.57-.55-.85-1.29-.85-2.28,0-1.19.99-2.96,2.36-2.96l11.72.03h34.8s0-23.38,0-23.38l-.39.12c-.97.31-1.22.73-1.57,1.35"/>
    <path class="cls-4" d="M331.65,63.03c0,.77.7,1.44,1.49,1.44s1.36-.77,1.36-1.47c0-.82-.59-1.4-1.43-1.4-.74,0-1.43.7-1.43,1.43"/>
    <path class="cls-4" d="M347.99,60.86c-.77,0-1.39.58-1.39,1.3,0,.76.68,1.46,1.43,1.46s1.33-.57,1.33-1.36c0-.85-.54-1.4-1.37-1.4"/>
    <rect class="cls-4" x="378.89" y="41.72" width="2.39" height="18.11"/>
    <path class="cls-4" d="M343.73,60.86c-.79,0-1.34.52-1.34,1.3,0,.85.6,1.46,1.41,1.46.73,0,1.37-.64,1.37-1.36,0-.8-.61-1.4-1.43-1.4"/>
    <path class="cls-6" d="M249.13,45.4c.7,0,1.29-.65,1.29-1.4,0-.82-.59-1.4-1.41-1.4-.75,0-1.36.58-1.36,1.29,0,.78.7,1.51,1.47,1.51"/>
    <rect class="cls-6" x="313.69" y="41.72" width="2.4" height="18.11"/>
    <g class="cls-7">
      <rect class="cls-2" x="-.32" y="4.46" width="176.69" height="189.48"/>
    </g>
    <g class="cls-3">
      <rect class="cls-5" x="9.51" y="0" width="91.94" height="189.35"/>
    </g>
  </g>
</svg>