<?xml version="1.0" encoding="UTF-8"?>
<svg id="Layer_2" data-name="Layer 2" xmlns="http://www.w3.org/2000/svg" xmlns:xlink="http://www.w3.org/1999/xlink" viewBox="0 0 320.55 359.13">
  <defs>
    <style>
      .cls-1 {
        fill: #848587;
      }

      .cls-2 {
        fill: none;
      }

      .cls-3 {
        clip-path: url(#clippath-1);
      }

      .cls-4 {
        fill: url(#linear-gradient);
      }

      .cls-5 {
        clip-path: url(#clippath);
      }
    </style>
    <clipPath id="clippath">
      <path class="cls-2" d="M51.36,108.09c0,54.27,40,99.19,92.12,106.91-6.96-1.94-13.64-6.39-19.04-12.79-7.34-8.71-12.27-20.91-12.26-34.75,0-8.4,1.8-17.39,5.99-26.61,17.31-38.13,25.76-52.21,41.26-95.51,15.5,43.3,23.95,57.38,41.26,95.51,4.18,9.22,5.99,18.22,5.99,26.61,0,13.84-4.92,26.04-12.27,34.75-5.4,6.41-12.09,10.87-19.05,12.8,52.14-7.7,92.16-52.63,92.16-106.91C267.53,48.39,219.14,0,159.45,0S51.36,48.39,51.36,108.09"/>
    </clipPath>
    <linearGradient id="linear-gradient" x1="-360.24" y1="496.06" x2="-359.24" y2="496.06" gradientTransform="translate(85259.61 -61604.62) rotate(-90) scale(171.55 -171.55)" gradientUnits="userSpaceOnUse">
      <stop offset="0" stop-color="#67bee7"/>
      <stop offset=".22" stop-color="#54abda"/>
      <stop offset=".67" stop-color="#267cba"/>
      <stop offset="1" stop-color="#0055a0"/>
    </linearGradient>
    <clipPath id="clippath-1">
      <rect class="cls-2" y="0" width="320.55" height="359.13"/>
    </clipPath>
  </defs>
  <g id="Layer_1-2" data-name="Layer 1">
    <g class="cls-5">
      <rect class="cls-4" x="51.36" y="0" width="216.18" height="215"/>
    </g>
    <g class="cls-3">
      <path class="cls-1" d="M72.87,275.42c1.58,1.83,2.94,3.71,4.07,5.63,1.12,1.91,1.7,3.75,1.7,5.49,0,.97-.22,1.75-.66,2.36-.44.6-.97,1.11-1.57,1.49-.61.4-1.27.67-1.97.79-.7.13-1.36.18-1.95.18-1.14,0-2.04-.27-2.68-.83-.67-.57-1.42-1.57-2.31-2.95-2.77-4.7-6.09-8.13-9.93-10.27-3.84-2.14-8.42-3.2-13.74-3.2-4.72,0-8.99.79-12.83,2.35-3.84,1.58-7.12,3.96-9.88,7.14-2.75,3.18-4.88,7.16-6.41,11.91-1.53,4.74-2.29,10.31-2.29,16.65,0,11.88,2.45,20.93,7.38,27.17,4.94,6.24,12.29,9.36,22.04,9.36,2.64,0,5.59-.35,8.92-1.07,3.31-.68,6.47-2.08,9.48-4.16,3.02-2.1,5.54-5.1,7.6-9.03,2.04-3.93,3.07-9.11,3.07-15.57h-22.64c-1.73,0-3-.45-3.73-1.32-.74-.86-1.1-2.13-1.1-3.81s.36-2.89,1.1-3.73c.73-.82,2-1.24,3.73-1.24h26.7c1.83,0,3.3.45,4.37,1.32,1.09.89,1.63,2.3,1.63,4.33v38.73c0,1.74-.42,2.95-1.3,3.59-.88.66-2.09.99-3.66.99-1.66,0-2.9-.33-3.73-.99-.84-.64-1.23-1.85-1.23-3.59v-9.03c-1.15,1.48-2.51,3.09-4.13,4.85-1.62,1.73-3.64,3.35-6.09,4.83-2.44,1.48-5.34,2.72-8.7,3.72-3.37,1.02-7.39,1.49-12.1,1.49-6.36,0-12.04-1.08-17.01-3.26-4.98-2.18-9.16-5.29-12.57-9.35-3.4-4.05-6.01-8.96-7.78-14.71C.89,325.91,0,319.43,0,312.17c0-6.18.81-12.18,2.42-18.03,1.61-5.85,4.19-11.02,7.72-15.51,3.53-4.49,8.07-8.09,13.61-10.79,5.54-2.72,12.24-4.07,20.08-4.07,5.84,0,11.32.98,16.42,2.95,5.1,1.96,9.31,4.87,12.62,8.7"/>
      <path class="cls-1" d="M108.63,315.94v31.28h46.32c1.74,0,2.99.42,3.72,1.25.75.83,1.11,2.07,1.11,3.73s-.36,2.9-1.11,3.77c-.73.89-1.98,1.33-3.72,1.33h-51.82c-1.83,0-3.28-.44-4.38-1.33-1.09-.86-1.64-2.3-1.64-4.31v-79.55c0-2.01.55-3.45,1.64-4.33,1.1-.86,2.55-1.31,4.38-1.31h51.82c1.74,0,2.99.42,3.72,1.25.75.83,1.11,2.07,1.11,3.71s-.36,2.93-1.11,3.81c-.73.88-1.98,1.32-3.72,1.32h-46.32v29.31h43.84c1.73,0,2.99.41,3.74,1.24.74.82,1.11,2.07,1.11,3.73s-.37,2.93-1.11,3.8c-.75.87-2,1.3-3.74,1.3h-43.84Z"/>
      <path class="cls-1" d="M236.66,332.96c.8-1.39,1.55-2.41,2.29-3.07.75-.67,1.69-.99,2.82-.99,1.22,0,2.53.35,3.93,1.04,1.4.69,2.1,2,2.1,3.93,0,1.75-.68,3.81-2.04,6.21-1.35,2.4-2.81,4.52-4.38,6.35-.62.7-1.68,1.75-3.21,3.21-1.53,1.42-3.54,2.84-6.03,4.26-2.48,1.38-5.42,2.6-8.82,3.65-3.4,1.05-7.33,1.57-11.77,1.57-6.46,0-12.33-1.15-17.6-3.39-5.28-2.26-9.81-5.47-13.55-9.56-3.74-4.09-6.65-9.06-8.7-14.91-2.04-5.84-3.08-12.39-3.08-19.63s1.04-13.81,3.08-19.69c2.05-5.89,4.95-10.9,8.7-15.06,3.74-4.14,8.27-7.35,13.55-9.61,5.28-2.27,11.14-3.42,17.6-3.42,4.26,0,8.05.49,11.37,1.45,3.32.96,6.15,2.08,8.51,3.32,2.37,1.27,4.27,2.6,5.75,3.94,1.5,1.36,2.57,2.43,3.28,3.21,1.57,1.84,3.08,3.96,4.52,6.36,1.44,2.4,2.15,4.46,2.15,6.21,0,1.92-.71,3.23-2.15,3.94-1.44.68-2.76,1.03-3.99,1.03-1.14,0-2.07-.33-2.81-.98-.75-.66-1.42-1.54-2.04-2.68-.96-1.75-2.13-3.51-3.52-5.3-1.42-1.79-3.05-3.43-4.97-4.9-1.93-1.48-4.19-2.71-6.82-3.67-2.61-.96-5.67-1.42-9.16-1.42-4.96,0-9.35.9-13.14,2.75-3.81,1.82-6.99,4.39-9.61,7.65-2.62,3.27-4.59,7.2-5.9,11.77-1.31,4.59-1.96,9.63-1.96,15.12s.65,10.4,1.96,14.98c1.31,4.59,3.28,8.5,5.9,11.77,2.62,3.26,5.81,5.83,9.61,7.65,3.79,1.85,8.18,2.74,13.14,2.74,3.95,0,7.28-.54,10.09-1.61,2.79-1.1,5.16-2.44,7.06-4.06,1.94-1.61,3.49-3.34,4.71-5.18,1.23-1.83,2.27-3.5,3.15-4.98"/>
      <path class="cls-1" d="M260.48,272.16c0-2.01.55-3.46,1.64-4.33,1.09-.87,2.55-1.31,4.38-1.31h49.2c1.75,0,2.99.42,3.73,1.25.74.83,1.12,2.07,1.12,3.72s-.38,2.93-1.12,3.8c-.75.86-1.98,1.31-3.73,1.31h-43.7v29.45h39.91c1.75,0,2.99.4,3.72,1.23.73.83,1.11,2.07,1.11,3.73s-.37,2.93-1.11,3.79c-.73.86-1.98,1.31-3.72,1.31h-39.91v36.77c0,2.02-.51,3.4-1.5,4.17-1,.79-2.42,1.19-4.24,1.19s-3.27-.4-4.26-1.19c-1.01-.77-1.51-2.16-1.51-4.17v-80.74Z"/>
    </g>
  </g>
</svg>