<?xml version="1.0" encoding="UTF-8"?>
<svg id="Layer_2" data-name="Layer 2" xmlns="http://www.w3.org/2000/svg" viewBox="0 0 501.06 140.18">
  <defs>
    <style>
      .cls-1 {
        fill: #2b3085;
      }

      .cls-2 {
        fill: #2a307d;
      }

      .cls-3 {
        fill: #8a1739;
      }

      .cls-4 {
        fill: #454546;
      }
    </style>
  </defs>
  <g id="Layer_1-2" data-name="Layer 1">
    <g>
      <g>
        <path class="cls-1" d="M198.71,4.7c5.79,0,10.09,2.56,12.65,7.13l-7.27,5.65c-1.61-2.42-3.36-3.5-5.92-3.5-7,0-12.65,7.4-12.65,16.82,0,6.32,2.42,10.09,8.61,10.09,1.28,0,2.76-.4,3.77-1.08l1.61-7.27h-6.46l1.61-8.75h15.88l-4.17,21.66c-3.36,2.56-8.48,4.57-14.13,4.57-10.9,0-17.76-6.73-17.76-18.57,0-15.61,10.63-26.78,24.22-26.78Z"/>
        <path class="cls-1" d="M222.93,5.51h10.76l-7,34.71h15.88l-1.75,9.01h-26.64l8.75-43.73Z"/>
        <path class="cls-1" d="M246.08,31.48c0-16.28,11.03-26.78,22.61-26.78,10.09,0,16.95,6.73,16.95,18.57,0,16.28-11.03,26.78-22.6,26.78-10.09,0-16.95-6.73-16.95-18.57ZM257.11,30.81c0,6.32,2.42,9.96,6.46,9.96,4.98,0,11.03-6.73,11.03-16.82,0-6.32-2.42-9.96-6.46-9.96-4.98,0-11.03,6.73-11.03,16.82Z"/>
        <path class="cls-1" d="M297.88,5.51h13.99c8.88,0,15.2,2.96,15.2,10.09,0,4.71-3.36,9.01-9.42,10.9l-.13.27c4.98,1.21,7.4,3.9,7.4,7.94,0,10.49-9.01,14.53-19.24,14.53h-16.55l8.75-43.73ZM306.49,41.03c5.38,0,8.07-2.29,8.07-5.92,0-3.23-1.88-4.84-5.92-4.84h-4.98l-2.15,10.76h4.98ZM308.78,23c5.25,0,7.27-2.15,7.27-5.52,0-2.42-1.88-3.77-5.92-3.77h-3.1l-1.88,9.28h3.63Z"/>
        <path class="cls-1" d="M339.06,5.51h26.64l-1.75,9.01h-16.01l-1.48,7.67h13.59l-1.75,9.01h-13.59l-1.88,9.01h16.55l-1.75,9.01h-27.31l8.75-43.73Z"/>
        <path class="cls-1" d="M375.12,5.51h10.76l-7,34.71h15.88l-1.75,9.01h-26.64l8.75-43.73Z"/>
        <path class="cls-1" d="M409.7,5.51h10.76l-8.75,43.73h-10.76l8.75-43.73Z"/>
        <path class="cls-1" d="M430.56,5.51h10.36l6.05,20.72,2.15,9.82h.27c.4-4.71.67-11.3,1.75-16.55l2.83-13.99h10.23l-8.75,43.73h-10.36l-6.06-20.72-2.02-9.82h-.27c-.4,4.98-.81,11.17-1.88,16.42l-2.83,14.13h-10.23l8.75-43.73Z"/>
        <path class="cls-1" d="M474.42,5.51h26.64l-1.75,9.01h-16.01l-1.48,7.67h13.59l-1.75,9.01h-13.59l-1.88,9.01h16.55l-1.75,9.01h-27.31l8.75-43.73Z"/>
      </g>
      <g>
        <path class="cls-2" d="M116.92,88.11c-7.4,18.46-25.45,31.5-46.56,31.5-27.69,0-50.14-22.45-50.14-50.14s22.45-50.14,50.14-50.14c7.17,0,13.99,1.51,20.15,4.22,5.47-4.3,10.47-8.68,16.22-13.23C96.07,3.78,83.52,0,70.09,0,31.38,0,0,31.38,0,70.09s31.38,70.09,70.09,70.09c32.48,0,59.79-22.09,67.75-52.07h-20.92Z"/>
        <path class="cls-3" d="M97.53,52.17c-1.22-1.72-3.43-2.24-5.6-2.22-5.47.04-10.64-1.12-15.89-2.55-3.22-.87-6.87-.16-9.81-.16,2.77-3.32,9.17-5.67,14.51-5.3,3.57.25,7.18.11,10.76-.14,3.22-.22,5.99-1.72,8.06-4.2.92-1.1,1.44-2.53,1.92-4.06-6.86,1.18-13.32,1.19-19.78-2.07,4.85-.93,9.46-1.38,13.78-2.74,4.38-1.38,8.48-3.65,12.7-5.52-3.29-1.31-6.52,1.4-10.25.79,4.31-2.62,8.53-4.83,13.44-4.41,9.09.8,17.9-.03,26.64-2.78,4.53-1.43,9.2-.88,13.53,1.46.54.29,1.37.18,2.04.08,3.18-.48,6.34-1.29,9.66-.48-1.57,1.86-3.07,3.45-4.31,5.22-.36.51-.19,1.62.1,2.31,1.33,3.21,3.21,5.95,6.36,7.75.85.49,1.22,1.81,2.16,3.28-1.86-.6-3.09-.99-4.34-1.39,1.08,5.91,2.16,11.54,3.11,17.18.59,3.51.19,7.21,2.25,10.43.27.42.15,1.42-.19,1.84-1.51,1.89-2.91,3.99-4.81,5.39-2.52,1.86-4.27,1.27-6.39-1.12-1.47-1.66-2.65-3.1-2.34-5.75.4-3.32-4.81-8.73-8.14-9.25-6.76-1.06-9.77-5.51-8.3-12.29.15-.71.33-1.41.5-2.18q-2.44,1.63-4.46,13.2c-.92-2.6-1.84-5.21-2.66-7.54-.23,5.05,1.28,9.96,4.66,14.09,2.42,2.95,5.24,5.61,8.07,8.19,8.16,7.42,14.59,15.87,16.89,26.96.89,4.29.82,9.94-.41,12.86-.73-2.49-1.23-5-2.17-7.32-3.53-8.66-10.27-13.97-18.72-17.33-12.37-4.92-24.84-3.87-37.29-.37-6.76,1.9-13.37,4.43-20.23,5.81-11.92,2.4-22.5-1.67-32.4-7.85l-1.04-.9,1.22.29c1.13.37,2.13.84,3.18,1.29,14.35,6.09,28.41,5.34,42.45-1.31,7.75-3.67,15.75-7.01,24.43-7.71,5.26-.42,10.58-.08,15.98-.44-2.83-.56-5.63-1.35-8.48-1.62-3.16-.3-6.37-.25-9.55-.12-8.55.35-12.68-4.59-11.03-13.05,2.38-12.25,8.42-21.85,19.54-27.94.1-.06.13-.25.31-.6-12.94,4.01-20.99,12.48-24.43,25.29-.93,3.45-1.26,7.06-1.92,10.59-.86,4.64-3.65,7.79-7.82,9.73-6.87,3.19-20.08,3.65-27.4.9,10.05.01,20.18.31,27.89-7.9-5.75,1.29-10.6-1.12-15.68-2.98-3.46-1.27-7.26-1.64-10.92-2.35-.74-.14-1.53-.02-2.32-.26,4.04-2.46,8.4-3.37,13.04-3.16,2.69.12,5.43.49,8.07.18,2.01-.24,3.99-1.25,5.85-2.17,1.98-.99,3.82-2.28,5.99-3.61ZM159.18,42.87c2.11-2.26,1.1-4.71-2.5-7.32-.61,3.67.28,6.28,2.5,7.32Z"/>
        <path class="cls-3" d="M59.08,69.21c8.68-3.09,17.36-2.56,26.32-.15-1.71,2.07-3.89,2.16-6.02,2.13-1.45-.02-2.94-.29-4.34-.68-5.24-1.47-10.54-1.97-15.96-1.3Z"/>
        <path class="cls-3" d="M72.44,54.07c4.84-3.33,10.21-3.55,15.8-1.68.52.17,1.19,1.11,1.1,1.56-.11.53-.93,1.24-1.49,1.3-1.27.13-2.58-.07-3.87-.18-3.85-.32-7.69-.66-11.53-1Z"/>
        <path class="cls-3" d="M79.11,37.78c3.04-2.47,6.77-3.22,10.99-2,1.84.53,3.75.82,5.55,1.2-1.07,1.87-3.52,2.76-6.16,2.31-3.48-.6-6.99-1.02-10.37-1.5Z"/>
        <path class="cls-3" d="M161.77,28.34c-.54-.87-1.09-1.85-1.71-2.78-1.2-1.79-.66-3.53,1.46-3.62,2.51-.11,5.05.36,7.58.58,0,.29-4.83,4.13-7.32,5.82Z"/>
        <path class="cls-3" d="M149,93.84s-13.92-18.01-52.89-3.62c-19.61,7.24-33.24-.48-33.24-.48,0,0,8.02,8.94,33.4,6.22,22.92-2.46,29.96-12.12,52.72-2.13Z"/>
      </g>
      <g>
        <path class="cls-4" d="M193.67,120.61v4.18h-4.44l-.55,2.07-.6,1.8c-2.48,1.62-4.8,2.43-6.94,2.43-1.53,0-2.79-.51-3.79-1.52-1-1.02-1.49-2.25-1.49-3.69,0-1.89.73-4.34,2.19-7.36-.29,1.65-.44,3.04-.44,4.16,0,1.29.33,2.32.99,3.07.71.81,1.75,1.21,3.1,1.21,1.83,0,3.66-.76,5.46-2.29-.13-.9-.42-1.88-.89-2.94-.47-1.06-.99-1.91-1.57-2.56l2.56-2.87c.87,1.21,1.51,2.65,1.92,4.31,0-.05,1.49-.05,4.49,0ZM184.07,115.14l-2.11,1.86-2.9-2.38,2.14-1.88,2.87,2.39Z"/>
        <path class="cls-4" d="M199.56,114.68c1.13,1.26,1.69,2.7,1.69,4.31,0,.88-.28,2.05-.84,3.52-.31.82-.64,1.59-.99,2.29h-7.02v-4.18h6.1c-.35-1.15-.84-2.03-1.49-2.63l2.54-3.3ZM193.03,129.21l2.24-1.85,1.59,1.26,1.47-1.26,2.79,2.42-2.1,1.86-1.59-1.3-1.51,1.3-2.9-2.43Z"/>
        <path class="cls-4" d="M218.75,110.66l-2.11,2.66-.49-.39c-.7,1.12-1.76,2.36-3.16,3.72l1.8,2.32.39.59c.23.36.35.64.35.83,0,.41-.15.99-.45,1.73l-.23.52-.84,2.17h-9.54l.68-4.44.55-.47,1.75-1.42c.17-.15.43-.38.8-.69.12-.13.39-.4.79-.81l.24-.23-.4-.37-1.12-1.03-1.59-1.28-.19.18c-.28.26-.5.39-.67.39-.19,0-.5-.26-.92-.77-.86-1.04-1.3-1.79-1.3-2.26,0-.94.47-2,1.4-3.19.18-.23.37-.34.57-.34.4,0,1.27.7,2.6,2.09.7.76,1.23,1.36,1.58,1.8l1.92,2.46c.38-.43.82-1.07,1.31-1.91.18-.29.41-.82.71-1.57-.44-.36-.65-.68-.65-.96s.22-.61.65-1.02l.6-.58,1.62-1.44-.11.59c0,.46.33.92.99,1.39l2.48,1.74ZM212.9,120.61l-1.89-2.14-.19.19-1.04.87c-.42.36-.91.72-1.49,1.09h4.62Z"/>
        <path class="cls-4" d="M243.98,124.8h-13.97c-1.31,0-2.28-.46-2.92-1.37-.47-.65-.71-1.41-.71-2.29s.23-1.94.69-3.11,1-2.11,1.61-2.83c-.21.67-.32,1.44-.32,2.29,0,1.67.68,2.66,2.04,2.97.4.1.97.15,1.69.15h10.96c-.37-1.17-.86-2.05-1.47-2.63l2.53-3.3c1.13,1.29,1.69,2.73,1.69,4.31,0,.88-.28,2.05-.84,3.52-.27.72-.6,1.49-.99,2.29ZM234.17,129.11l2.07-1.85,2.94,2.37-2.14,1.88-2.87-2.39Z"/>
        <path class="cls-4" d="M261.3,120.61v4.18h-4.62l-.03.08c-.45,1.98-1.46,3.75-3.03,5.29-.77.74-1.49,1.11-2.19,1.11-.54,0-1.19-.32-1.93-.96-.7-.58-1.47-1.48-2.33-2.71l-.23-.3.33.08c.8.18,1.47.28,2.01.28,1.11,0,2.12-.29,3.02-.87.77-.5,1.37-1.17,1.83-1.99h-1.72c-1.5,0-2.56-.16-3.18-.47-.44-.2-.79-.53-1.07-1-.28-.47-.42-.94-.42-1.42,0-1.56.66-3.29,1.99-5.22.24-.33.5-.65.78-.98.68-.79,1.36-1.18,2.04-1.18,1.08,0,2.05.79,2.92,2.37.68,1.26,1.1,2.5,1.26,3.72,0-.05,1.52-.05,4.57,0ZM253.89,120.61c-.29-1.68-.86-2.52-1.72-2.52-.42,0-.77.16-1.06.49s-.43.68-.43,1.08c0,.64.41.96,1.23.96h1.99Z"/>
        <path class="cls-4" d="M272.64,120.61v4.18h-5.98c-.7,0-1.16-.03-1.4-.1-.47-.14-.75-.45-.84-.93l-.72,1.03h-3.66v-4.18h4.38v-9.75l3.55-3.64.03,12.67c0,.31.06.51.19.59.13.08.36.13.7.13h3.75Z"/>
        <path class="cls-4" d="M293.14,118.99l-2.63,3.89c-1.27-.29-2.46-.43-3.55-.43-1.4,0-2.67.46-3.82,1.39l-.78.62c-.27.23-.79.34-1.56.34h-9.43v-4.18h12.08c-.84-.24-1.83-.68-2.98-1.34-1.46-.81-2.57-1.22-3.34-1.22-.26,0-.63.06-1.12.19.49-.6.95-1.12,1.4-1.55l1.17-1.13c.53-.52,1.07-.78,1.63-.78.52,0,1.22.23,2.11.68l2.08,1.03c1.78.88,3.32,1.5,4.62,1.88,1.37.41,2.74.62,4.1.62ZM286.66,129.05l-2.08,1.85-2.92-2.34,2.14-1.91,2.87,2.41Z"/>
        <path class="cls-4" d="M319.22,124.8h-13.97c-1.31,0-2.28-.46-2.92-1.37-.47-.65-.71-1.41-.71-2.29s.23-1.94.69-3.11,1-2.11,1.61-2.83c-.21.67-.32,1.44-.32,2.29,0,1.67.68,2.66,2.04,2.97.4.1.97.15,1.69.15h10.96c-.37-1.17-.86-2.05-1.47-2.63l2.53-3.3c1.13,1.29,1.69,2.73,1.69,4.31,0,.88-.28,2.05-.84,3.52-.27.72-.6,1.49-.99,2.29ZM315.42,113.52l-2.24,1.85-1.57-1.24-1.46,1.24-2.79-2.42,2.08-1.83,1.59,1.29,1.52-1.29,2.87,2.39Z"/>
        <path class="cls-4" d="M332.01,120.61v4.18h-6.43c-1.22,0-1.83-.46-1.83-1.37v-.79l-.03-.54v-11.3l3.55-3.54v11.79c0,.93.16,1.44.49,1.52.13.03.41.05.85.05h3.39Z"/>
        <path class="cls-4" d="M349.71,107.09l-1.91,3.72-7.77,1.91,6.71,7.02c.27.33.41.58.41.77l-.03.26-.26.43-.37.71-1.56,2.88h-14.24v-4.18h11.82l-4.17-4.39-.49.54-1.69-1.52c-.27-.22-.4-.47-.4-.77l.08-.32.26-.62,1.75-3.64,11.87-2.81Z"/>
        <path class="cls-4" d="M357.45,120.61h3.83v4.18h-3.91l-.03.08c-.7,1.96-1.45,3.44-2.27,4.44-1.08,1.31-2.08,1.96-3.02,1.96-1.2,0-2.7-1.37-4.51-4.11.97.29,1.75.44,2.36.44,1.07,0,2.16-.38,3.27-1.13.8-.56,1.54-1.47,2.22-2.74l.13-.25c-.3-.67-.69-1.37-1.18-2.11-.49-.73-.9-1.26-1.25-1.59l2.43-2.71.23.33c.47.74.79,1.24.96,1.5.26.5.5,1.04.71,1.63l.03.08Z"/>
        <path class="cls-4" d="M370.75,124.8l-.68-1.45-1.2,1.45h-9.11v-4.18h9l-1.51-3.15,2.24-2.63,2.87,5.79h.39v4.18h-2ZM371.27,120.61h5.27l-1.47-3.15,2.22-2.63,2.9,5.79h3.16c-.35-1.15-.84-2.03-1.47-2.63l2.53-3.3c1.13,1.29,1.7,2.74,1.7,4.33,0,.64-.08,1.23-.24,1.79-.03.13-.24.7-.62,1.7-.12.33-.3.81-.55,1.44-.02.04-.16.33-.41.86h-5.74l-.65-1.45-1.23,1.45h-5.28l-.11-4.18ZM380.56,110.78l-2.24,1.85-1.58-1.23-1.46,1.23-2.79-2.42,2.08-1.84,1.59,1.3,1.52-1.3,2.87,2.41ZM378.24,106.13l-2.07,1.89-2.92-2.38,2.12-1.88,2.87,2.37Z"/>
        <path class="cls-4" d="M411.68,120.61v4.18h-7.09l-.55-2.51-1.28,1.99-7.33-1.01,1.48-4.26c.21-.61.6-1.06,1.17-1.34l4.41-2.22-.17-.7,3.1-2.55,1.85,8.41h4.41ZM403.54,120.15l-.55-2.52-3.73,1.93,4.27.59ZM407.64,107.66l-2.24,1.86-1.59-1.27-1.46,1.27-2.78-2.43,2.07-1.85,1.59,1.29,1.54-1.29,2.87,2.42Z"/>
        <path class="cls-4" d="M427.61,120.61l-1.67,4.18h-15.55v-4.18h4.83c-.22-.53-.32-1.01-.32-1.44,0-.91.42-1.95,1.28-3.1,1.42-1.91,2.95-2.87,4.59-2.87,1.11,0,2.11.47,2.98,1.42.68.72,1.19,1.72,1.53,3-1.29-.83-2.56-1.25-3.83-1.25-1.01,0-1.95.29-2.82.86-.3.21-.71.55-1.2,1.03.68.87,1.6,1.65,2.76,2.34h7.41Z"/>
        <path class="cls-4" d="M442.96,120.61v4.18h-4.62l-.03.08c-.45,1.98-1.46,3.75-3.03,5.29-.77.74-1.49,1.11-2.19,1.11-.54,0-1.19-.32-1.93-.96-.7-.58-1.47-1.48-2.33-2.71l-.23-.3.33.08c.8.18,1.47.28,2.01.28,1.11,0,2.12-.29,3.02-.87.77-.5,1.37-1.17,1.83-1.99h-1.72c-1.5,0-2.56-.16-3.18-.47-.44-.2-.79-.53-1.07-1-.28-.47-.42-.94-.42-1.42,0-1.56.66-3.29,1.99-5.22.24-.33.5-.65.78-.98.68-.79,1.36-1.18,2.04-1.18,1.08,0,2.05.79,2.92,2.37.68,1.26,1.1,2.5,1.26,3.72,0-.05,1.52-.05,4.57,0ZM435.56,120.61c-.29-1.68-.86-2.52-1.72-2.52-.42,0-.77.16-1.06.49s-.43.68-.43,1.08c0,.64.41.96,1.23.96h1.99Z"/>
        <path class="cls-4" d="M460.98,120.61v4.18h-5.5l-1.31,2.71-7.66-4.13-1,1.42h-3.8v-4.18h5.09c.35-1.18,1-2.3,1.96-3.35,1.37-1.48,3.17-2.22,5.39-2.22,1.22,0,1.95.29,2.19.87.03.14.06.43.08.86l.03.75v3.1h4.54ZM453.92,122.6v-2.97c0-.71-.48-1.06-1.44-1.06-.71,0-1.28.11-1.71.34-.43.23-.9.61-1.42,1.16l4.57,2.53Z"/>
        <path class="cls-4" d="M480.04,124.8c-.71,0-1.22-.03-1.51-.1-.51-.1-.93-.33-1.28-.69-.5-.5-.75-1.02-.75-1.55l-.16-.03h-.71c-.66,0-1.21.04-1.64.13-.82.15-1.66.58-2.51,1.28l-.78.62c-.27.23-.78.34-1.52.34h-9.46v-4.18h11.92l-.6-.23c-.45-.18-1.21-.55-2.27-1.13l-1.18-.65c-.66-.36-1.38-.54-2.16-.54-.2,0-.56.06-1.07.19.49-.6.95-1.12,1.4-1.55l1.17-1.13c.53-.52,1.07-.78,1.63-.78.52,0,1.22.23,2.11.68l2.08,1.03c1.81.89,3.3,1.51,4.49,1.85,1.13.33,2.39.53,3.79.62l.44.02-1.07,1.63h3.39l.25-.35,1.44-1.82c.55-.69,1.21-1.49,1.98-2.42,1.2-1.36,2.2-2.04,2.98-2.04,1.06,0,2.03.71,2.92,2.14.37.6.71,1.33,1.04,2.19.38.98.57,1.75.57,2.29,0,.62-.56,1.91-1.69,3.87-.2.36-.55.93-1.04,1.71l-7.62-3.13-1.15,1.73h-3.44ZM474.92,128.98l-2.08,1.85-2.92-2.37,2.14-1.89,2.87,2.41ZM492.06,121.54c0-.82-.17-1.64-.52-2.46-.43-1.02-1.03-1.54-1.78-1.54-.13,0-.23.02-.29.05-.06.03-.1.05-.12.05-.14.07-.35.21-.62.43-.27.22-.52.47-.75.75l-.69.77,4.76,1.94Z"/>
      </g>
      <g>
        <path class="cls-3" d="M190.44,70.32c2.84,0,4.96,1.41,6.21,3.94l-3.57,3.12c-.79-1.34-1.65-1.93-2.91-1.93-3.44,0-6.21,4.09-6.21,9.29,0,3.49,1.19,5.58,4.23,5.58.63,0,1.36-.22,1.85-.6l.79-4.01h-3.17l.8-4.83h7.79l-2.05,11.96c-1.65,1.41-4.16,2.53-6.94,2.53-5.35,0-8.72-3.72-8.72-10.26,0-8.62,5.22-14.79,11.89-14.79Z"/>
        <path class="cls-3" d="M209.38,70.77c4.29,0,7.6,1.71,7.6,6.39s-2.18,7.21-5.19,8.51l3.21,9.25h-5.55l-2.47-8.32h-2.21l-1.46,8.32h-5.28l4.3-24.15h7.07ZM205.61,81.91h1.91c2.84,0,4.23-1.56,4.23-3.86,0-1.78-1.12-2.6-3.1-2.6h-1.92l-1.12,6.47Z"/>
        <path class="cls-3" d="M219.21,85.11c0-8.99,5.41-14.79,11.1-14.79,4.96,0,8.33,3.71,8.33,10.26,0,8.99-5.42,14.79-11.1,14.79-4.96,0-8.33-3.72-8.33-10.26ZM224.62,84.74c0,3.49,1.19,5.5,3.17,5.5,2.45,0,5.42-3.71,5.42-9.29,0-3.49-1.19-5.5-3.17-5.5-2.44,0-5.42,3.72-5.42,9.29Z"/>
        <path class="cls-3" d="M244.49,70.77h5.28l-2.31,13.01c-.13.97-.26,1.86-.26,2.75,0,2.45.66,3.71,2.84,3.71,1.91,0,2.97-1.64,3.7-5.8l2.44-13.68h5.15l-2.45,13.53c-1.32,7.58-4.09,11.07-8.98,11.07-5.35,0-7.99-2.75-7.99-8.7,0-1.11.26-2.82.46-4.09l2.11-11.82Z"/>
        <path class="cls-3" d="M266.21,70.77h7.07c4.26,0,7.6,1.78,7.6,6.61,0,7.06-4.72,9.66-10.11,9.66h-2.18l-1.39,7.88h-5.28l4.3-24.15ZM271.39,82.36c2.71,0,4.26-1.41,4.26-4.09,0-1.93-1.16-2.82-3.1-2.82h-1.92l-1.19,6.91h1.95Z"/>
        <path class="cls-3" d="M289.17,85.11c0-8.99,5.42-14.79,11.1-14.79,4.96,0,8.32,3.71,8.32,10.26,0,8.99-5.41,14.79-11.1,14.79-4.95,0-8.32-3.72-8.32-10.26ZM294.59,84.74c0,3.49,1.19,5.5,3.17,5.5,2.44,0,5.41-3.71,5.41-9.29,0-3.49-1.19-5.5-3.17-5.5-2.44,0-5.41,3.72-5.41,9.29Z"/>
        <path class="cls-3" d="M314.59,70.77h13.08l-.86,4.98h-7.86l-.86,4.98h6.67l-.86,4.98h-6.67l-1.65,9.22h-5.28l4.3-24.15Z"/>
        <path class="cls-3" d="M346.47,70.32c2.51,0,4.62,1.41,5.88,3.94l-3.57,3.12c-.79-1.34-1.59-1.93-2.57-1.93-3.11,0-5.88,4.09-5.88,9.29,0,3.49,1.19,5.5,4.1,5.5,1.12,0,2.31-.74,3.3-1.71l2.18,3.79c-1.19,1.26-3.57,3.05-6.61,3.05-5.02,0-8.39-3.72-8.39-10.26,0-8.62,5.22-14.79,11.56-14.79Z"/>
        <path class="cls-3" d="M350.55,85.11c0-8.99,5.42-14.79,11.1-14.79,4.96,0,8.32,3.71,8.32,10.26,0,8.99-5.41,14.79-11.1,14.79-4.95,0-8.32-3.72-8.32-10.26ZM355.97,84.74c0,3.49,1.19,5.5,3.17,5.5,2.44,0,5.41-3.71,5.41-9.29,0-3.49-1.19-5.5-3.17-5.5-2.44,0-5.41,3.72-5.41,9.29Z"/>
        <path class="cls-3" d="M375.97,70.77h5.48l1.39,10.4.5,4.09h.13l1.88-4.09,5.02-10.4h5.48l-4.29,24.15h-4.96l1.52-8.03c.46-2.53,1.39-6.02,2.11-8.47h-.1l-2.68,5.65-4.56,8.77h-1.98l-1.39-8.77-.66-5.65h-.1c-.17,2.45-.4,6.02-.83,8.47l-1.46,8.03h-4.82l4.29-24.15Z"/>
        <path class="cls-3" d="M400.85,70.77h7.07c4.26,0,7.6,1.78,7.6,6.61,0,7.06-4.72,9.66-10.11,9.66h-2.18l-1.39,7.88h-5.28l4.29-24.15ZM406.04,82.36c2.71,0,4.26-1.41,4.26-4.09,0-1.93-1.16-2.82-3.11-2.82h-1.91l-1.19,6.91h1.95Z"/>
        <path class="cls-3" d="M423.82,89.42h-5.91l-2.21,5.5h-5.81l11.23-24.15h6.34l2.05,24.15h-5.55l-.13-5.5ZM423.69,84.96l-.06-2.82c-.06-2.3-.13-4.46-.13-6.91h-.13c-.86,2.38-1.59,4.61-2.51,6.91l-1.12,2.82h3.96Z"/>
        <path class="cls-3" d="M435.76,70.77h5.09l2.97,11.45,1.06,5.42h.13c.19-2.6.33-6.24.86-9.14l1.39-7.73h5.02l-4.29,24.15h-5.09l-2.98-11.44-.99-5.43h-.13c-.2,2.75-.4,6.17-.93,9.07l-1.39,7.8h-5.02l4.29-24.15Z"/>
        <path class="cls-3" d="M457.28,70.77h5.28l-4.29,24.15h-5.28l4.29-24.15Z"/>
        <path class="cls-3" d="M467.51,70.77h13.08l-.86,4.98h-7.86l-.73,4.24h6.67l-.86,4.98h-6.67l-.93,4.98h8.13l-.86,4.98h-13.41l4.3-24.15Z"/>
        <path class="cls-3" d="M483.88,87.38c1.13,1.75,2.84,2.94,4.5,2.94,1.52,0,2.51-.78,2.51-2.12,0-1.08-.96-1.56-2.44-2.6l-1.85-1.3c-1.98-1.41-3.17-3.16-3.17-6.17,0-4.35,3.53-7.8,7.89-7.8,2.51,0,4.92,1.41,6.67,3.75l-3.3,3.49c-1.09-1.23-2.18-2.12-3.57-2.12-1.52,0-2.28.93-2.28,2.08,0,1,.93,1.45,2.64,2.67l1.98,1.38c2.08,1.41,2.91,2.93,2.91,5.76,0,4.42-3.24,8.03-8.39,8.03-2.74,0-5.61-1.26-7.86-4.65l3.76-3.34Z"/>
      </g>
    </g>
  </g>
</svg>