<?xml version="1.0" encoding="UTF-8"?>
<svg id="Layer_2" data-name="Layer 2" xmlns="http://www.w3.org/2000/svg" viewBox="0 0 255.12 103.16">
  <defs>
    <style>
      .cls-1 {
        fill: #309c79;
      }

      .cls-2 {
        fill: #a9aa95;
      }
    </style>
  </defs>
  <g id="Dimensions">
    <g>
      <path class="cls-1" d="M243.51,103.16c-1.74-.61-3.5-1.16-5.2-1.85-.8-.33-1.5-.92-2.22-1.41-.37-.25-.43-.54-.1-.92.87-1.01,1.73-2.03,2.57-3.07.38-.47.72-.51,1.22-.14,1.83,1.36,3.91,2.08,6.18,2.2.63.04,1.32-.07,1.9-.31.38-.16.8-.66.84-1.04.04-.38-.29-.96-.64-1.17-.65-.38-1.41-.58-2.14-.8-1.58-.47-3.21-.8-4.75-1.38-3.3-1.24-4.55-3.08-4.5-6.33.04-2.73,1.86-5.15,4.75-6.13,3.53-1.2,7.01-.89,10.38.66.82.38,1.58.9,2.36,1.36.37.22.38.48.12.84-.78,1.05-1.53,2.12-2.27,3.2-.37.54-.71.66-1.33.25-1.67-1.11-3.55-1.65-5.56-1.68-.31,0-.69-.03-.91.13-.43.31-.96.69-1.1,1.14-.19.64.35,1.13.94,1.33,1.07.37,2.2.59,3.27.96,1.71.59,3.44,1.15,5.08,1.91,1.47.68,2.23,2.05,2.73,3.55v2.9c-.77,2.95-2.71,4.7-5.6,5.46-.41.11-.82.23-1.23.34h-4.78Z"/>
      <path class="cls-1" d="M96.97,66.35c-.53.06-.8.12-1.07.12-1.96,0-3.93-.01-5.89.01-.64,0-1.05-.22-1.37-.79-2.54-4.61-4.18-9.53-4.91-14.72-.82-5.82-.58-11.63.88-17.34,1.73-6.75,4.86-12.77,9.43-18.05,5.45-6.3,12.09-10.87,20.04-13.36,12-3.75,23.65-2.73,34.81,3.11,3.54,1.85,6.72,4.23,9.63,6.99,6.79,6.45,11.14,14.26,12.96,23.41.58,2.94.89,5.97.91,8.96.03,6.12-1.21,12.03-3.72,17.63-.52,1.17-1.08,2.32-1.71,3.43-.19.33-.68.68-1.05.69-2.16.06-4.32.03-6.49.02-.16,0-.32-.08-.6-.16,7.86-12.19,9.14-24.93,3.06-38.12-3.24-7.03-8.4-12.45-15.12-16.33-14.05-8.1-30.89-6.22-42.58,3.22-7.73,6.23-12.37,14.32-13.78,24.14-1.41,9.79.87,18.78,6.57,27.13Z"/>
      <path class="cls-2" d="M127.78,36.97c-1.13,1.35-2.17,2.58-3.21,3.81-3.35,4.01-6.7,8.02-10.05,12.04-3.28,3.93-6.55,7.85-9.83,11.78-.16.2-.33.39-.5.58-.33.39-.66.39-.99,0-1.79-2.19-3.35-4.52-4.49-7.12-.12-.28,0-.81.2-1.05,5.15-6.21,10.33-12.4,15.5-18.59,2.79-3.34,5.59-6.66,8.34-10.02,2.06-2.51,4.64-3.09,7.31-2.15,1.4.49,2.29,1.64,3.2,2.74,4.91,5.9,9.8,11.8,14.71,17.7,2.89,3.47,5.8,6.92,8.67,10.41.22.26.35.82.22,1.11-1.21,2.68-2.82,5.13-4.76,7.34-.05.06-.15.08-.35.18-7.95-9.52-15.92-19.06-23.99-28.74Z"/>
      <path class="cls-1" d="M227.27,92.05c0-.56,0-.85,0-1.15,0-3.13.02-6.25-.01-9.38,0-.83.29-1.1,1.09-1.08,1.39.04,2.79.03,4.18,0,.63,0,.94.19.93.88-.01,6.88-.01,13.75,0,20.63,0,.62-.24.87-.86.86-1.31-.02-2.62.07-3.92-.05-.48-.04-1.05-.42-1.36-.82-2.76-3.47-5.47-6.98-8.2-10.47-.1-.13-.21-.26-.47-.56-.03.48-.06.76-.06,1.05,0,3.24,0,6.48,0,9.72,0,1.07-.06,1.12-1.1,1.13-1.42,0-2.84-.02-4.27,0-.7.01-.97-.28-.97-.96,0-6.82,0-13.64,0-20.46,0-.7.29-.96.98-.95,1.42.02,2.85-.03,4.27.03.39.02.88.28,1.12.58,2.65,3.34,5.26,6.71,7.88,10.07.19.24.38.46.76.91Z"/>
      <path class="cls-1" d="M40.11,91.12c.77.45,1.49.75,2.08,1.22,3.23,2.63,2.58,7.79-1.26,9.44-1.38.59-2.95.95-4.44,1-3.75.14-7.51.05-11.26.05-1.01,0-1.12-.11-1.12-1.13,0-6.71,0-13.41,0-20.12,0-1.01.11-1.11,1.14-1.11,3.75,0,7.51-.07,11.26.02,2.35.06,4.52.81,5.9,2.88,1.67,2.49.82,5.89-1.75,7.43-.14.09-.29.17-.54.32ZM33.43,97.7s0,0,0,0c.74,0,1.48,0,2.21,0,.08,0,.17,0,.25-.01,1.1-.12,1.94-.85,1.99-1.76.06-1-.54-1.81-1.75-1.93-1.72-.16-3.45-.15-5.17-.14-.19,0-.51.43-.53.67-.07.82,0,1.64-.05,2.46-.04.58.2.75.74.73.77-.03,1.53,0,2.3,0ZM32.97,89.4c.82-.08,1.76-.1,2.67-.29.95-.2,1.34-.88,1.25-1.85-.09-.98-.81-1.56-2.16-1.64-.99-.06-1.99-.02-2.99-.03-1.33,0-1.34,0-1.33,1.32,0,.76-.24,1.84.16,2.2.46.42,1.49.21,2.4.29Z"/>
      <path class="cls-1" d="M180.04,95.13c1.7,2.49,3.38,4.94,5.16,7.55-.46.07-.72.14-.98.14-1.79,0-3.58-.01-5.38.02-.61,0-1-.21-1.33-.72-1.13-1.74-2.29-3.46-3.45-5.18-.46-.68-2.13-1.12-2.8-.67-.2.13-.29.53-.3.8-.03,1.59-.04,3.18,0,4.77.02.74-.25,1.02-.99,1-1.48-.04-2.96-.03-4.44,0-.65.01-.92-.22-.92-.89.01-6.88.01-13.75,0-20.63,0-.62.26-.86.87-.86,3.7.01,7.4-.12,11.09.05,2.75.13,5.24,1.15,6.85,3.57,2.4,3.61,1.04,8.71-2.81,10.71-.17.09-.33.2-.57.34ZM170.96,88.53c0,.65-.06,1.31.03,1.95.04.26.4.67.61.68,1.44.01,2.89.01,4.33-.14,1.5-.16,2.18-1.02,2.18-2.44,0-1.43-.67-2.28-2.18-2.44-1.43-.15-2.88-.15-4.33-.14-.22,0-.57.41-.61.67-.09.61-.03,1.24-.03,1.87Z"/>
      <path class="cls-1" d="M94.26,95.13c1.74,2.56,3.4,5.01,5.16,7.6-.44.05-.68.1-.92.1-1.82,0-3.64-.01-5.46.01-.62,0-.99-.25-1.32-.75-1.13-1.74-2.29-3.46-3.45-5.18-.44-.66-2.11-1.08-2.74-.64-.2.14-.29.53-.3.81-.03,1.56-.05,3.13,0,4.69.02.82-.29,1.1-1.1,1.07-1.45-.05-2.9-.03-4.35,0-.66.01-.91-.24-.91-.9.01-6.85.01-13.7,0-20.55,0-.72.3-.93.97-.93,3.61.02,7.23-.05,10.84.03,2.16.05,4.08.86,5.78,2.23,3.18,2.59,3.37,9.29-1.35,11.91-.24.14-.48.28-.85.5ZM85.23,88.55c0,.63.01,1.25,0,1.88-.01.54.23.79.77.77,1.36-.05,2.73-.05,4.08-.17,1.35-.11,2.24-1.08,2.3-2.31.06-1.38-.64-2.36-2.1-2.55-1.46-.19-2.94-.18-4.42-.17-.21,0-.56.42-.6.69-.09.61-.03,1.25-.03,1.87Z"/>
      <path class="cls-1" d="M20.36,91.64c0,3.35,0,6.71,0,10.06,0,1.07-.06,1.12-1.1,1.13-1.39,0-2.79-.04-4.18.02-.84.03-1.09-.3-1.07-1.1.04-2.07-.02-4.15.03-6.23.02-.82-.28-1.1-1.09-1.08-1.85.04-3.7.05-5.55,0-.84-.02-1.08.31-1.06,1.1.04,2.07-.02,4.15.03,6.23.02.83-.29,1.1-1.1,1.07-1.45-.05-2.9-.03-4.35,0-.66.01-.91-.25-.91-.91.01-6.85.01-13.7,0-20.55,0-.65.23-.93.9-.92,1.51.02,3.02.03,4.52,0,.72-.01.94.3.93.97-.02,2.1.02,4.21-.02,6.31-.02.81.25,1.11,1.07,1.09,1.91-.05,3.81-.03,5.72,0,.66,0,.91-.25.9-.91-.02-2.1-.01-4.21,0-6.31,0-1.03.1-1.13,1.12-1.14,1.39,0,2.79.03,4.18-.01.77-.02,1.05.25,1.04,1.04-.03,3.38-.01,6.77-.01,10.15Z"/>
      <path class="cls-1" d="M101.62,91.64c0-3.3,0-6.59,0-9.89,0-1.22.06-1.28,1.32-1.29,5.18,0,10.35,0,15.53,0,1.24,0,1.26.02,1.26,1.22,0,.99,0,1.99,0,2.98,0,1.23-.02,1.26-1.23,1.26-3.13,0-6.26,0-9.39,0-1.13,0-1.18.04-1.17,1.13.02,2.39-.29,2.06,2.09,2.07,2.5.02,5.01,0,7.51,0,1.06,0,1.13.06,1.14,1.09,0,.97-.02,1.93,0,2.9.02.74-.3,1-1.02,1-2.87-.02-5.75-.01-8.62,0-1.07,0-1.12.04-1.1,1.11.03,2.65-.35,2.25,2.24,2.27,2.87.02,5.75.03,8.62,0,.8,0,1.14.23,1.1,1.07-.05,1.13-.03,2.27,0,3.41.01.61-.23.87-.85.87-5.49-.01-10.98-.01-16.47,0-.78,0-.97-.37-.96-1.06.01-3.38,0-6.76,0-10.15Z"/>
      <path class="cls-1" d="M143.44,91.66c0-3.35,0-6.71,0-10.06,0-1.07.06-1.14,1.08-1.14,5.29,0,10.58,0,15.87,0,1.04,0,1.14.11,1.15,1.11,0,1.11-.03,2.22.01,3.32.03.78-.31,1.05-1.07,1.04-3.19-.02-6.37-.01-9.56,0-1.12,0-1.17.05-1.16,1.14.01,2.36-.26,2.05,2.02,2.06,2.5.01,5.01.03,7.51-.01.82-.01,1.12.28,1.08,1.09-.05.94,0,1.87-.01,2.81,0,1.04-.06,1.09-1.13,1.09-2.79,0-5.57,0-8.36,0-1.06,0-1.11.05-1.1,1.12.02,2.64-.34,2.24,2.25,2.26,2.87.02,5.74.03,8.62,0,.81-.01,1.13.26,1.09,1.08-.05,1.13-.03,2.27,0,3.41.01.62-.25.86-.87.86-5.52-.01-11.03-.01-16.55,0-.78,0-.87-.41-.87-1.03.01-3.38,0-6.76,0-10.14Z"/>
      <path class="cls-1" d="M53.39,89.15c1.45-1.7,2.89-3.41,4.34-5.11.85-.99,1.67-2.01,2.56-2.96.27-.29.7-.56,1.07-.57,2.05-.06,4.09-.03,6.14-.02.16,0,.31.07.61.15-.58.68-1.07,1.28-1.58,1.86-1.96,2.21-3.93,4.41-5.9,6.61-.91,1.02-.89,1-.12,2.13,2.49,3.6,4.96,7.21,7.44,10.82.12.17.18.38.3.64-.28.06-.46.13-.65.13-2.02,0-4.04.04-6.06-.03-.39-.01-.87-.38-1.12-.72-1.47-2.09-2.88-4.23-4.33-6.34-.74-1.07-.77-.98-1.72-.06-1.08,1.05-1.41,2.23-1.27,3.67.09.87,0,1.76.02,2.64.02.63-.26.86-.87.85-1.54-.02-3.07-.02-4.61,0-.62,0-.88-.29-.87-.88,0-.2,0-.4,0-.6,0-6.48,0-12.96,0-19.44,0-1.45,0-1.45,1.49-1.45,1.28,0,2.56.03,3.84-.01.79-.03,1.04.29,1.03,1.06-.04,2.22-.01,4.43-.01,6.65,0,.3,0,.61,0,.91.08.03.16.05.24.08Z"/>
      <path class="cls-1" d="M210.29,102.83c-.87,0-1.6,0-2.32,0-1.17,0-2.33-.03-3.5,0-.64.02-1.01-.23-1.23-.81-.29-.77-.64-1.52-.91-2.3-.21-.59-.55-.85-1.2-.84-2.25.03-4.5.03-6.74,0-.64,0-.99.24-1.21.83-.3.83-.62,1.65-1,2.45-.13.26-.45.61-.69.62-1.98.05-3.97.03-6.1.03.11-.38.16-.65.26-.89,2.93-6.91,5.87-13.81,8.78-20.73.27-.65.62-.94,1.33-.92,1.42.04,2.85.03,4.27,0,.59,0,.92.23,1.16.78,2.91,6.92,5.84,13.82,8.77,20.73.12.28.19.57.35,1.03ZM197.9,88.29c-.1,0-.19.01-.29.02-.71,1.82-1.42,3.64-2.17,5.56h4.63c-.76-1.94-1.47-3.75-2.18-5.57Z"/>
      <path class="cls-1" d="M122.93,91.61c0-3.35.02-6.71-.01-10.06,0-.8.25-1.1,1.07-1.1,5.26.03,10.52.02,15.79,0,.79,0,1.15.25,1.12,1.08-.04,1.16-.04,2.33,0,3.5.03.83-.32,1.09-1.12,1.08-3.1-.03-6.2-.01-9.3,0-1.17,0-1.21.03-1.2,1.19.03,2.76-.37,2.34,2.32,2.37,2.36.02,4.72.03,7.08,0,.78-.01,1.07.27,1.04,1.04-.05,1.08-.05,2.16,0,3.24.03.78-.26,1.05-1.04,1.05-2.76-.03-5.52-.01-8.28-.01-1.07,0-1.12.06-1.13,1.1,0,1.9-.02,3.81,0,5.71.01.75-.21,1.09-1.02,1.06-1.45-.05-2.9-.04-4.35,0-.74.02-1-.26-.99-1,.03-3.41.01-6.82.01-10.23Z"/>
      <path class="cls-1" d="M113.66,66.37c.68-.84,1.21-1.52,1.78-2.17,3.65-4.24,7.3-8.47,10.96-12.7,1.41-1.62,1.44-1.62,2.84,0,4.03,4.65,8.06,9.32,12.08,13.98.19.23.34.5.61.9h-28.27Z"/>
    </g>
  </g>
</svg>