<?xml version="1.0" encoding="UTF-8"?>
<svg id="Layer_2" data-name="Layer 2" xmlns="http://www.w3.org/2000/svg" viewBox="0 0 226.77 116.93">
  <defs>
    <style>
      .cls-1 {
        fill: #243746;
      }
    </style>
  </defs>
  <g id="Layer_1-2" data-name="Layer 1">
    <g>
      <g>
        <g>
          <g>
            <path class="cls-1" d="M71.5,90.65c.34,0,.62-.28.62-.62s-.28-.62-.62-.62-.62.27-.62.6c0,.38.28.64.62.64Z"/>
            <path class="cls-1" d="M72.61,92.66c-1.61,0-2.81,1.06-2.81,2.48,0,.76.26,1.4.7,1.83h-6.66c.31-.57.23-1.33.23-1.69,0-1.46-1.41-2.84-3.44-2.45-2.34.44-3.36,2.31-3.83,3.48l.18-5.42c0-.73.18-.94.16-1.09l-1.35.67c.18.18.19.28.19.91v5.59h-5.55c-.47,0-1.12-.39-1.2-1.09v-1.69c0-.46.15-1.28.2-1.36h-1.38c.05.08.19.91.19,1.36v4.48c-.02.33-.1.62-.23.88-.24.44-.68.86-1.64.86-.37,0-.81-.08-1.2-.32l.02.41c.72.44,1.07.53,1.71.53,1.32,0,2.34-.98,2.34-2.21v-1.9c.31.37.68.52,1.01.6.2.05.39.07.57.07h22.2c1.25,0,1.77-1.04,1.77-1.64v-1.75c0-.96-.44-1.54-2.16-1.54ZM62.41,96.98h-5.62c.47-1.02,1.71-3.1,3.69-3.44,2.03-.34,2.6.96,2.6,1.93,0,.47.11,1.46-.67,1.51ZM73.78,95.48c0,1.11-.36,1.49-1.14,1.49-.91,0-1.79-.86-1.79-2.08,0-1.09.84-1.9,1.75-1.9,1.23,0,1.17,1.01,1.17,2.48Z"/>
            <path class="cls-1" d="M73.44,90.65c.34,0,.62-.28.62-.62s-.28-.62-.62-.62-.62.27-.62.6c0,.38.28.64.62.64Z"/>
            <path class="cls-1" d="M82.21,90.65c.34,0,.62-.28.62-.62s-.28-.62-.62-.62-.62.27-.62.6c0,.38.28.64.62.64Z"/>
            <path class="cls-1" d="M80.28,90.65c.34,0,.62-.28.62-.62s-.28-.62-.62-.62-.62.27-.62.6c0,.38.28.64.62.64Z"/>
            <path class="cls-1" d="M107.63,93.55c.2.14.18.05.18.65v1.38c0,.86.02,1.61-.77,1.61-.27,0-.97-.46-1.23-.97v-2.11c0-.59.1-.84.16-.99v-.1l-1.35.67.02.05c.2.15.18.05.18.65v1.2c0,.86.02,1.61-.76,1.61-.28,0-.97-.46-1.24-.97,0-.13.02-.1.02-1.9,0-.59.1-.85.16-.99v-.1l-1.35.66.02.05c.2.15.18.05.18.65v.67c0,.94,0,1.72-.91,1.72h-3.24c-.47,0-1.12-.39-1.2-1.09v-1.97c0-.59.1-.85.16-.99v-.1l-1.35.67.02.05c.2.14.18.05.18.65v1.38c0,.86.02,1.61-.76,1.61-.28,0-.98-.46-1.24-.97v-2.11c0-.59.1-.84.16-.99v-.1l-1.35.67.02.05c.19.15.18.05.18.65v1.2c0,.86.02,1.61-.77,1.61-.27,0-.97-.46-1.23-.97,0-.13.01-.1.01-1.9,0-.59.1-.85.16-.99v-.1l-1.35.66.02.05c.19.15.18.05.18.65v.67c0,.94-.08,1.72-.91,1.72h-4.64c-.78,0-.93-.49-.93-1.27v-2.87c-.08-.02-.16-.02-.27,0-.18.02-.41.03-.67.08-2.21.44-3.3,1.4-3.3,2.32,0,.58.28,1.3,1.4,1.38.57.05,1.33-.11,1.85-.59,0,.57.18,1.56,1.61,1.56h5.4c.83,0,1.19-.44,1.33-.89.81.94,1.36,1.02,1.67,1.02.73,0,1.22-.32,1.36-.97.78.88,1.32.97,1.62.97.73,0,1.17-.29,1.33-.88.31.39.72.59,1.06.67.2.05.39.07.6.08h3.33c.83,0,1.19-.44,1.33-.89.81.94,1.36,1.02,1.67,1.02.73,0,1.22-.32,1.36-.97.78.88,1.32.97,1.62.97.91,0,1.41-.47,1.41-1.43v-2.37c0-.59.1-.85.16-.99v-.1l-1.35.67v.05ZM82.08,95.57c-.31.44-.83.58-1.2.58-.79,0-.99-.68-.94-1.07.18-.99,1.15-1.66,2.15-1.74v2.23Z"/>
            <path class="cls-1" d="M113.84,91.33l-.02-.36c-.37.18-.47.21-.75.21-.6,0-.78-.52-.73-1.02.05-.37.29-.6.57-.55.21,0,.36.11.45.36l.52-.13c-.15-.26-.5-.45-.88-.5-.7-.11-1.33.31-1.38,1.01-.05.34.13.7.33.84-.33,0-.55,0-.62-.13l-.05-.02-.32.55h2.08c.38,0,.62-.13.79-.26Z"/>
            <path class="cls-1" d="M123.27,93.07c-1.49,0-2.66,1.06-2.66,2.42v.11c-.02.78-.2,1.38-.91,1.38h-4.96v-2.57c0-1.23-1.38-1.67-2.16-1.67-1.61,0-2.79,1.06-2.79,2.44s.96,2.42,2.19,2.42h1.77v1.09c-.02.33-.1.62-.23.88-.24.44-.68.86-1.64.86-.37,0-.81-.08-1.2-.32l.02.41c.72.44,1.07.53,1.71.53,1.31,0,2.34-.98,2.34-2.21v-1.23h5.44c.5,0,.83-.15,1.04-.39.44.44,1.04.71,1.8.71s1.46-.26,2-.71c.49-.42.73-.99.73-1.72,0-1.45-.97-2.42-2.47-2.42ZM113.74,96.98h-1.12c-1.11,0-1.66-.86-1.66-2.05,0-1.04.7-1.88,1.61-1.88,1.2,0,1.17.99,1.17,2.47v1.46ZM123.25,97.6c-.9,0-1.54-.99-1.54-2.35,0-1.19.52-1.88,1.41-1.88s1.51.89,1.51,2.26c0,1.25-.52,1.98-1.38,1.98Z"/>
            <path class="cls-1" d="M132.62,102.81c-.32,0-.58.29-.58.62s.26.63.58.63.62-.29.62-.63-.29-.62-.62-.62Z"/>
            <path class="cls-1" d="M134.56,102.81c-.33,0-.62.29-.62.62s.25.63.62.63c.32,0,.58-.29.58-.63s-.26-.62-.58-.62Z"/>
            <path class="cls-1" d="M145.32,92.66c-1.61,0-2.81,1.06-2.81,2.48,0,.76.26,1.4.7,1.83h-5.5c-.28-.71-1.14-1.27-2.13-1.77v.62c1.47.78,1.92,2.21.63,3.54-.67.7-1.28.81-1.88.81-2.26,0-3.96-2.32-3.7-3.12.11-.27.26-.45.73-.71l-.11-.21c-.76.34-1.31.79-1.43,1.3-.2.97,1.88,3.6,4.51,3.6.76,0,1.72-.8,2.34-1.41.6-.63,1.14-1.4,1.16-2.03h7.89c1.25,0,1.77-1.04,1.77-1.64v-1.75c0-.96-.44-1.54-2.16-1.54ZM146.49,95.48c0,1.11-.36,1.49-1.14,1.49-.91,0-1.79-.86-1.79-2.08,0-1.09.85-1.9,1.75-1.9,1.23,0,1.17,1.01,1.17,2.48Z"/>
            <path class="cls-1" d="M145.14,90.65c.34,0,.62-.28.62-.62s-.28-.62-.62-.62c-.32,0-.62.27-.62.6,0,.38.28.64.62.64Z"/>
            <path class="cls-1" d="M167.13,90.65c.34,0,.62-.28.62-.62s-.27-.62-.62-.62c-.32,0-.62.27-.62.6,0,.38.28.64.62.64Z"/>
            <path class="cls-1" d="M178.93,96.95c-1.36-.18-1.77-1.2-1.64-2.41.11-.97.79-1.46,1.62-1.33.44.07.8.27,1.01.73l.81-.26c-.24-.39-.86-.72-1.62-.83-1.48-.21-2.89.75-2.97,2.11-.07.86.34,1.64.91,2.01h-6.59c.31-.57.23-1.33.23-1.69,0-1.46-1.41-2.84-3.44-2.45-2.34.44-3.36,2.31-3.83,3.48.08-2.21.24-2.11.29-2.28v-.1l-1.35.66.02.05c.18.13.22.26.22.85v1.48h-6.1v-2.57c0-1.23-1.38-1.67-2.16-1.67-1.61,0-2.79,1.06-2.79,2.44s.96,2.42,2.19,2.42h1.77v1.09c-.01.33-.1.62-.23.88-.24.44-.68.86-1.64.86-.37,0-.81-.08-1.2-.32v.41c.73.44,1.09.53,1.72.53,1.32,0,2.34-.98,2.34-2.21v-1.23h22.42c.5.02.96-.05,1.53-.29l-.03-.53c-.63.21-1.04.24-1.48.18ZM155.51,96.98h-1.12c-1.1,0-1.66-.86-1.66-2.05,0-1.04.7-1.88,1.61-1.88,1.2,0,1.17.99,1.17,2.47v1.46ZM168.96,96.98h-5.55c.47-1.02,1.7-3.1,3.69-3.44,2.03-.34,2.6.96,2.6,1.93,0,.47.11,1.51-.73,1.51Z"/>
          </g>
          <g>
            <path class="cls-1" d="M45.17,107.91v-.34c.37.01.73.02,1.07.02s.67,0,.99-.02c.31.71.6,1.33.85,1.86l2.01,4.14,1.81-3.8c.5-1.03.83-1.76,1-2.2.37.01.69.02.95.02.24,0,.62,0,1.15-.02v.34c-.42,0-.68.03-.77.05-.09.03-.15.07-.19.13-.05.07-.07.24-.08.51,0,.07-.01.57-.03,1.51v2.45c0,.48,0,.95.03,1.4,0,.33.03.54.08.6.04.06.11.11.19.14.09.03.35.05.76.06v.34c-.72-.03-1.22-.05-1.51-.05-.24,0-.76.02-1.57.05v-.34c.42,0,.68-.03.77-.06.09-.03.15-.07.18-.12.05-.07.07-.24.08-.52,0-.08.01-.58.03-1.51v-3.89l-1.83,3.83c-.29.6-.51,1.08-.67,1.44-.12.26-.3.68-.53,1.26h-.21c-.05-.13-.09-.24-.13-.32l-.36-.77-2.54-5.26v3.71c0,.48,0,.95.02,1.4,0,.33.04.54.08.6.04.06.11.11.2.14.09.03.35.05.77.06v.34l-1.28-.03-1.32.03v-.34c.41,0,.67-.03.76-.06.09-.03.15-.07.19-.12.04-.07.07-.24.08-.52,0-.08.01-.58.03-1.51v-2.45c0-.48,0-.95-.02-1.41,0-.33-.04-.53-.08-.6-.04-.06-.11-.11-.2-.14-.09-.03-.34-.05-.77-.05Z"/>
            <path class="cls-1" d="M59.71,114.28l-.17.38c-.24.15-.42.25-.54.3-.17.08-.36.14-.57.19-.22.05-.44.08-.68.08-.47,0-.89-.1-1.27-.29-.38-.19-.67-.48-.88-.87-.21-.39-.32-.84-.32-1.36,0-.41.06-.77.17-1.1.11-.33.24-.57.38-.72.1-.12.26-.24.48-.39.22-.15.43-.26.64-.35.28-.12.58-.18.91-.18.4,0,.75.09,1.07.27.32.18.56.43.7.74.15.31.23.66.23,1.06,0,.1,0,.22-.03.36-.25.05-.48.08-.68.1-.38.03-.76.04-1.15.04h-1.7c0,.51.09.92.26,1.23.17.32.4.55.69.7.3.15.6.22.92.22.22,0,.43-.03.64-.1.22-.07.48-.2.79-.38l.08.09ZM56.31,112.11c.1.01.29.02.56.03.52.02.89.03,1.09.03.47,0,.78,0,.93-.03,0-.08,0-.15,0-.2,0-.56-.11-.97-.34-1.23-.22-.26-.53-.39-.91-.39-.4,0-.72.14-.97.43-.24.28-.37.74-.37,1.36Z"/>
            <path class="cls-1" d="M60.23,115.1v-.3h.51c.08,0,.13-.02.18-.04.04-.02.07-.05.09-.09.04-.07.06-.2.07-.38,0-.04,0-.55.03-1.52v-.63c0-.28,0-.58-.02-.91,0-.21-.03-.33-.05-.37-.02-.04-.06-.06-.12-.09-.06-.02-.29-.02-.69-.02v-.3c.72-.1,1.24-.23,1.57-.39.07-.03.12-.05.14-.05s.04,0,.06.03c.01.02.02.04.02.08,0,.02,0,.05,0,.08-.01.17-.02.42-.03.76l.69-.63c.09-.08.14-.12.16-.13.08-.05.2-.09.35-.13.15-.04.31-.06.47-.06.34,0,.64.08.9.25.27.17.47.41.61.74l.59-.54c.13-.12.22-.2.27-.22.09-.05.23-.1.39-.15.17-.05.34-.07.5-.07.4,0,.74.11,1.02.32.27.22.45.46.52.73.05.18.07.57.07,1.16v1.29c.02.43.03.68.03.75,0,.18.03.31.06.39.01.03.04.06.07.08.03.02.07.04.13.05.02,0,.22,0,.59.02v.3c-.44-.02-.75-.03-.91-.03s-.47.01-.93.03l.04-1.46v-.57s.01-.46.01-.46c0-.6-.03-1-.09-1.22-.06-.22-.19-.39-.38-.53-.19-.13-.42-.2-.67-.2-.29,0-.56.08-.8.25-.17.13-.29.28-.34.46-.06.18-.08.52-.08,1.03v1.09c.02.43.02.68.02.75,0,.18.03.31.06.39.02.03.04.06.06.08.03.02.07.04.13.05.02,0,.22,0,.59.02v.3c-.52-.02-.94-.03-1.25-.03-.25,0-.72.01-1.39.03v-.3h.51c.08,0,.14-.02.18-.04.04-.02.07-.05.09-.09.04-.07.06-.2.07-.38,0-.04.01-.55.03-1.52v-.42c0-.45-.04-.79-.11-1-.07-.21-.19-.38-.37-.5-.18-.13-.39-.19-.63-.19-.21,0-.41.05-.6.13-.19.09-.33.2-.44.34-.1.14-.17.28-.19.43-.03.24-.05.54-.05.88v.32c.02.92.03,1.42.03,1.49,0,.18.03.31.06.39.01.03.03.06.06.08.03.02.07.04.13.05.02,0,.22,0,.59.02v.3c-.49-.02-.9-.03-1.24-.03-.3,0-.76.01-1.38.03Z"/>
            <path class="cls-1" d="M70.07,115.13c.04-.45.07-.73.07-.84.02-.77.03-1.22.03-1.35v-2.36c0-.59,0-1.2-.03-1.83-.01-.42-.03-.66-.06-.71-.02-.04-.05-.06-.09-.08-.05-.02-.3-.03-.74-.03v-.31c.8-.1,1.35-.22,1.66-.37.05-.02.08-.03.11-.03.02,0,.04,0,.06.02.01.02.02.04.02.07,0,.02,0,.06,0,.11v.17c-.02.63-.03,1.17-.04,1.61v.83s0,1.05,0,1.05l.73-.72c.1-.08.25-.16.47-.24.22-.08.45-.12.7-.12.39,0,.73.09,1.03.27.3.18.53.44.69.77.16.33.24.7.24,1.1,0,.31-.04.6-.14.88-.09.28-.21.53-.36.75-.11.17-.2.28-.27.34l-.77.56c-.32.23-.56.38-.74.45-.18.06-.4.1-.68.1-.24,0-.46-.03-.66-.1-.2-.06-.41-.17-.64-.33l-.43.4-.18-.07ZM71.06,111.7v1.99c0,.17,0,.29.03.34.02.05.08.11.18.2.15.12.32.22.52.3.2.07.4.11.62.11.51,0,.91-.2,1.18-.59.28-.4.42-.88.42-1.47,0-.42-.07-.76-.2-1.04-.13-.28-.31-.49-.54-.63-.23-.14-.49-.21-.77-.21-.33,0-.64.1-.9.29-.26.19-.44.43-.53.72Z"/>
            <path class="cls-1" d="M79.86,114.28l-.17.38c-.24.15-.42.25-.54.3-.17.08-.35.14-.57.19-.21.05-.44.08-.67.08-.47,0-.89-.1-1.27-.29-.38-.19-.67-.48-.88-.87-.21-.39-.32-.84-.32-1.36,0-.41.06-.77.17-1.1.11-.33.24-.57.38-.72.1-.12.26-.24.48-.39.22-.15.43-.26.64-.35.28-.12.58-.18.91-.18.4,0,.75.09,1.07.27.32.18.56.43.7.74.15.31.22.66.22,1.06,0,.1,0,.22-.03.36-.26.05-.48.08-.68.1-.38.03-.76.04-1.14.04h-1.7c0,.51.09.92.26,1.23.17.32.4.55.69.7.3.15.6.22.92.22.22,0,.43-.03.64-.1.22-.07.48-.2.79-.38l.08.09ZM76.46,112.11c.1.01.28.02.56.03.53.02.89.03,1.09.03.47,0,.78,0,.92-.03,0-.08,0-.15,0-.2,0-.56-.11-.97-.34-1.23-.23-.26-.53-.39-.91-.39-.4,0-.72.14-.97.43-.24.28-.37.74-.37,1.36Z"/>
            <path class="cls-1" d="M80.4,115.1v-.3c.4,0,.62-.01.65-.02.06-.01.11-.03.14-.05.03-.02.06-.06.07-.1.04-.08.06-.21.06-.38.02-.94.03-1.44.03-1.48v-.63c0-.28,0-.58-.02-.91,0-.21-.02-.33-.04-.37-.02-.04-.07-.06-.12-.09-.06-.02-.29-.02-.69-.02v-.3c.71-.1,1.24-.23,1.56-.39.07-.03.12-.05.14-.05s.04,0,.06.03c.01.02.02.04.02.08,0,.02,0,.05,0,.08-.02.22-.03.55-.03,1,.16-.18.31-.36.44-.55.13-.18.23-.3.29-.35.11-.09.23-.17.37-.22.14-.05.28-.08.43-.08s.29.03.44.09l.03.08c-.05.47-.08.88-.09,1.24h-.24c-.08-.17-.17-.3-.28-.37-.11-.08-.24-.12-.41-.12-.27,0-.5.11-.69.34-.19.23-.29.56-.29,1.01v.55c0,.23,0,.66.03,1.28,0,.22.01.36.02.42.02.06.03.1.06.13.02.03.06.05.11.06.11.03.39.07.86.1v.3c-.62-.02-1.15-.03-1.59-.03s-.89.01-1.32.03Z"/>
            <path class="cls-1" d="M87.09,112.66c0-.79.25-1.44.76-1.94.5-.5,1.15-.75,1.94-.75.74,0,1.35.23,1.81.7.47.47.7,1.07.7,1.81,0,.52-.12.99-.36,1.42-.24.43-.58.76-1.02,1.01-.44.24-.92.36-1.45.36-.41,0-.76-.07-1.04-.21-.29-.14-.52-.31-.69-.52-.18-.21-.31-.42-.4-.64-.16-.39-.24-.8-.24-1.24ZM88.09,112.27c0,.43.07.88.22,1.33.15.45.36.78.63.98.27.21.57.31.89.31.41,0,.75-.16,1.03-.49.28-.33.42-.83.42-1.5,0-.56-.08-1.05-.25-1.46-.16-.41-.37-.7-.63-.87-.26-.17-.54-.25-.85-.25-.43,0-.79.16-1.06.47-.27.32-.41.81-.41,1.47Z"/>
            <path class="cls-1" d="M92.84,110.96v-.21c.28-.12.52-.24.73-.37v-.32c0-.46.03-.78.09-.97.06-.19.14-.36.25-.51.16-.22.41-.5.75-.84.23-.22.4-.36.51-.42.15-.07.31-.11.51-.11.14,0,.28.02.42.07l.02.88-.12.05c-.11-.09-.22-.16-.33-.2-.11-.05-.23-.06-.38-.06-.19,0-.35.04-.47.12-.12.08-.21.19-.26.33-.06.15-.08.44-.08.89v1.1h.56c.28,0,.56-.01.83-.04l.05.03-.11.55c-.31-.01-.53-.02-.68-.02s-.37,0-.66.02v1.9c0,.23,0,.66.03,1.28,0,.22.01.36.03.42.02.06.03.1.06.13.02.03.06.05.11.06.11.03.39.07.86.1v.3c-.83-.02-1.33-.03-1.51-.03-.16,0-.62.01-1.36.03v-.3h.51c.08,0,.13-.02.17-.04.04-.02.07-.05.09-.09.04-.07.06-.2.08-.38,0-.05,0-.55.03-1.52v-1.85l-.73.04Z"/>
            <path class="cls-1" d="M101.21,116.44v-.34c.58-.44,1.04-.72,1.37-.84-.89,0-1.61-.15-2.17-.44-.55-.29-.99-.75-1.32-1.38-.33-.63-.5-1.33-.5-2.11,0-1.14.38-2.07,1.13-2.81.75-.73,1.74-1.1,2.97-1.1.61,0,1.16.09,1.64.26.48.17.89.41,1.21.71.32.3.57.64.74,1,.23.49.34,1.06.34,1.69,0,.76-.16,1.44-.48,2.05-.31.61-.78,1.1-1.39,1.48-.61.37-1.29.59-2.06.65.19.03.36.06.52.1.15.03.37.11.66.23.64.26,1.11.43,1.41.5.29.08.55.11.76.11.14,0,.33-.04.56-.11v.27c-.07.05-.15.11-.25.16-.19.11-.32.18-.39.24-.07.05-.14.11-.22.18-.05,0-.17-.01-.35-.04-.18-.03-.36-.06-.55-.12-.19-.05-.52-.16-1-.33-.9-.31-1.45-.46-1.66-.46-.07,0-.14.01-.22.04-.08.02-.16.06-.26.12l-.49.29ZM99.7,111.06c0,.35.05.72.14,1.12.09.4.22.76.38,1.06.16.3.36.57.6.8.24.23.51.41.82.54.31.13.68.2,1.09.2.57,0,1.07-.13,1.49-.39.42-.26.74-.65.96-1.17.22-.52.32-1.11.32-1.76,0-.55-.07-1.05-.22-1.51-.15-.46-.35-.84-.6-1.14-.25-.3-.57-.52-.95-.69-.38-.16-.8-.25-1.27-.25-.85,0-1.52.27-2.02.8-.5.53-.74,1.33-.74,2.39Z"/>
            <path class="cls-1" d="M107.81,111.47l-.28-.07c0-.08,0-.19,0-.33s0-.27,0-.35c.45-.3.82-.49,1.1-.59.22-.08.46-.11.74-.11.4,0,.74.08,1.02.23.28.15.48.37.62.65.09.2.14.47.14.81l-.02.97v1.58c0,.17.01.29.04.37.02.05.05.09.1.12.04.02.11.03.22.04l.35.03v.3c-.29-.02-.55-.03-.77-.03s-.49.01-.85.03l.03-.93c-.72.55-1.15.85-1.28.92-.14.07-.31.1-.51.1-.43,0-.76-.11-1-.34-.24-.23-.36-.53-.36-.91,0-.25.04-.47.12-.67.08-.2.18-.36.3-.48.12-.12.24-.21.36-.26.2-.1.54-.2,1-.31.46-.11.92-.19,1.37-.25,0-.33-.04-.6-.12-.78-.08-.19-.23-.34-.43-.46-.2-.12-.45-.18-.74-.18-.21,0-.39.03-.55.08-.16.06-.25.1-.29.14l-.1.19c-.1.21-.17.38-.21.5ZM110.24,112.3c-.46.08-.85.16-1.18.26-.32.1-.56.19-.69.3-.08.06-.15.15-.21.27-.09.18-.14.37-.14.59,0,.26.07.47.22.61.14.15.35.22.61.22.24,0,.47-.07.7-.2.23-.14.46-.34.69-.61v-1.43Z"/>
            <path class="cls-1" d="M112.11,110.95v-.22c.34-.13.61-.25.81-.36v-1.61c.37-.13.67-.26.9-.41l.13.11c-.04.29-.08.94-.13,1.94.28,0,.45,0,.51,0,.03,0,.22,0,.55,0,.18,0,.32-.01.41-.02l.04.04-.11.49c-.22,0-.43,0-.61,0s-.45,0-.78,0l-.03,2.16c-.01.53,0,.84.01.94.02.1.05.19.1.27.05.08.11.14.2.18.08.05.21.08.4.1.14,0,.26,0,.35-.02.09-.01.2-.04.34-.09l.06.21c-.17.13-.33.27-.48.41-.13.05-.26.08-.38.1-.12.02-.25.02-.4.02-.19,0-.34-.02-.45-.07-.11-.04-.21-.1-.3-.18-.09-.07-.17-.17-.23-.29-.06-.12-.1-.3-.12-.55,0-.24,0-.51.02-.79,0-.06,0-.12,0-.19v-2.2h-.22c-.18,0-.37,0-.59.03Z"/>
            <path class="cls-1" d="M116.34,111.47l-.28-.07c0-.08,0-.19,0-.33s0-.27,0-.35c.45-.3.82-.49,1.1-.59.22-.08.46-.11.74-.11.4,0,.74.08,1.02.23.28.15.48.37.61.65.09.2.14.47.14.81l-.02.97v1.58c0,.17.02.29.04.37.02.05.06.09.1.12.03.02.11.03.22.04l.35.03v.3c-.29-.02-.55-.03-.76-.03s-.49.01-.85.03l.03-.93c-.72.55-1.15.85-1.28.92-.14.07-.3.1-.51.1-.43,0-.76-.11-1-.34-.24-.23-.36-.53-.36-.91,0-.25.04-.47.12-.67.08-.2.18-.36.3-.48.12-.12.23-.21.36-.26.2-.1.54-.2,1-.31.46-.11.92-.19,1.37-.25,0-.33-.04-.6-.12-.78-.08-.19-.23-.34-.43-.46-.2-.12-.45-.18-.74-.18-.21,0-.39.03-.55.08-.16.06-.25.1-.29.14l-.09.19c-.1.21-.17.38-.22.5ZM118.78,112.3c-.46.08-.85.16-1.18.26-.33.1-.55.19-.69.3-.08.06-.15.15-.22.27-.09.18-.14.37-.14.59,0,.26.07.47.22.61.15.15.35.22.61.22.24,0,.47-.07.7-.2.23-.14.46-.34.69-.61v-1.43Z"/>
            <path class="cls-1" d="M120.66,115.1v-.3c.4,0,.62-.01.65-.02.06-.01.1-.03.13-.05.03-.02.05-.06.07-.1.04-.08.06-.21.06-.38.02-.94.02-1.44.02-1.48v-.63c0-.28,0-.58-.01-.91,0-.21-.02-.33-.04-.37-.02-.04-.07-.06-.12-.09-.06-.02-.29-.02-.69-.02v-.3c.72-.1,1.24-.23,1.57-.39.07-.03.12-.05.14-.05s.05,0,.06.03c.02.02.02.04.02.08,0,.02,0,.05,0,.08-.02.22-.03.55-.03,1,.16-.18.31-.36.44-.55.13-.18.23-.3.29-.35.1-.09.23-.17.37-.22.14-.05.28-.08.43-.08s.29.03.44.09l.03.08c-.05.47-.08.88-.09,1.24h-.24c-.08-.17-.18-.3-.28-.37-.11-.08-.24-.12-.41-.12-.28,0-.51.11-.7.34-.19.23-.29.56-.29,1.01v.55c0,.23,0,.66.03,1.28,0,.22.01.36.03.42.01.06.03.1.06.13.02.03.06.05.11.06.11.03.39.07.86.1v.3c-.62-.02-1.15-.03-1.59-.03s-.89.01-1.31.03Z"/>
            <path class="cls-1" d="M127.21,107.91v-.34c.54.03.99.04,1.37.04.27,0,.74,0,1.43-.02.69-.02,1.15-.03,1.39-.03.26,0,.49,0,.71.01.22,0,.41.02.58.03-.09.3-.14.84-.17,1.61h-.34c-.03-.43-.08-.76-.13-.98-.18-.06-.41-.11-.68-.14-.27-.03-.59-.05-.94-.05s-.73.02-1.11.07c-.02.19-.03.37-.04.53,0,.1-.01.5-.02,1.21v1.18c.39,0,.74.02,1.05.02.45,0,.81-.02,1.07-.07.1-.02.17-.05.2-.09.03-.04.06-.19.09-.45l.04-.33h.33l-.04,1.21.04,1.3h-.33l-.04-.34c-.04-.38-.07-.59-.08-.62-.03-.05-.1-.09-.2-.11-.2-.05-.66-.07-1.37-.07-.25,0-.51,0-.77.02v1.07c0,.48,0,.95.02,1.4,0,.33.03.53.07.6.04.06.11.11.2.14.09.03.35.05.76.06v.34c-.45-.02-.9-.03-1.34-.03-.4,0-.98.01-1.75.03v-.34c.41,0,.67-.03.76-.06.09-.03.15-.07.19-.12.04-.07.07-.24.08-.52,0-.08.01-.58.03-1.51v-2.45c0-.48,0-.95-.02-1.41-.01-.33-.03-.53-.08-.6-.04-.06-.11-.11-.2-.14-.09-.03-.35-.05-.77-.05Z"/>
            <path class="cls-1" d="M133.16,112.66c0-.79.25-1.44.76-1.94.5-.5,1.15-.75,1.94-.75.74,0,1.35.23,1.81.7.47.47.7,1.07.7,1.81,0,.52-.12.99-.36,1.42-.24.43-.58.76-1.02,1.01-.44.24-.92.36-1.45.36-.41,0-.76-.07-1.04-.21-.28-.14-.51-.31-.69-.52-.18-.21-.31-.42-.4-.64-.16-.39-.24-.8-.24-1.24ZM134.16,112.27c0,.43.07.88.22,1.33.15.45.35.78.63.98.27.21.57.31.89.31.41,0,.75-.16,1.03-.49.28-.33.41-.83.41-1.5,0-.56-.08-1.05-.25-1.46-.16-.41-.37-.7-.63-.87-.26-.17-.54-.25-.84-.25-.44,0-.79.16-1.06.47-.27.32-.41.81-.41,1.47Z"/>
            <path class="cls-1" d="M144.79,114.8v.3c-.46-.02-.81-.03-1.05-.03-.26,0-.52.01-.79.03.02-.29.04-.61.05-.97-.21.17-.46.4-.76.7-.07.07-.13.12-.2.15-.15.09-.3.15-.45.18-.15.04-.33.05-.55.05-.28,0-.52-.04-.71-.12-.19-.08-.36-.2-.5-.35-.1-.12-.18-.27-.24-.45-.05-.18-.08-.41-.08-.67,0-.13,0-.24.02-.35.01-.11.01-.22.01-.32v-.91c0-.09,0-.32-.02-.7,0-.23-.02-.38-.05-.46-.02-.03-.04-.06-.07-.08-.05-.03-.15-.05-.28-.05-.2,0-.35,0-.46,0v-.3c.76-.08,1.31-.22,1.66-.41.05-.03.1-.05.13-.05.02,0,.04,0,.06.03.02.02.02.05.02.08,0,.03,0,.06,0,.11-.01.11-.03.33-.04.65-.02.59-.03.99-.03,1.19v1.03c0,.43.03.74.08.91.06.17.17.31.34.42.17.1.37.15.62.15.17,0,.34-.03.5-.09.17-.06.32-.14.45-.25.1-.08.2-.19.31-.33.08-.1.13-.18.15-.24.02-.05.04-.13.05-.24.02-.31.02-.62.02-.93v-.44c0-.09,0-.32-.02-.7,0-.23-.02-.38-.05-.46-.01-.03-.04-.06-.07-.08-.06-.03-.15-.05-.28-.05-.19,0-.35,0-.46,0v-.3c.76-.08,1.31-.22,1.65-.41.06-.03.1-.05.13-.05.02,0,.04,0,.06.03.02.02.02.05.02.08,0,.03,0,.06,0,.11-.01.11-.02.34-.03.67-.02.58-.03.97-.03,1.17v1.46c.02.43.03.68.04.75,0,.18.02.31.06.39.02.03.04.06.07.08.03.02.07.04.12.05.02,0,.22,0,.58.02Z"/>
            <path class="cls-1" d="M144.99,115.1v-.3h.5c.08,0,.14-.02.17-.04.04-.02.07-.05.09-.09.04-.07.06-.2.07-.38,0-.04.01-.55.03-1.52v-.63c0-.28,0-.58-.01-.91-.01-.21-.03-.33-.05-.37-.02-.04-.06-.06-.12-.09-.05-.02-.29-.02-.69-.02v-.3c.72-.1,1.23-.23,1.56-.39.07-.03.12-.05.14-.05.03,0,.05,0,.06.03.01.02.02.04.02.08,0,.02,0,.05,0,.08-.01.13-.02.4-.03.81l.99-.84c.29-.11.56-.16.82-.16.29,0,.56.06.81.18.25.11.45.26.58.44.13.18.21.4.26.67.02.16.04.6.04,1.33v.94c0,.46.01.77.03.94.02.11.05.18.08.22.03.04.09.07.17.08l.57.02v.3c-.35-.02-.64-.03-.86-.03-.2,0-.53.01-.99.03.05-.87.07-1.42.07-1.65v-.89c0-.55-.02-.92-.06-1.09-.06-.23-.2-.43-.41-.57-.21-.15-.47-.22-.77-.22-.27,0-.51.06-.73.19-.22.12-.37.27-.47.43-.09.17-.14.44-.14.83v.64c.02.92.03,1.42.03,1.49,0,.18.03.31.06.39.02.03.04.06.07.08.03.02.07.04.13.05.02,0,.22,0,.59.02v.3c-.43-.02-.82-.03-1.17-.03-.3,0-.78.01-1.45.03Z"/>
            <path class="cls-1" d="M154.55,107.9v-.3c.39-.04.72-.09,1-.15.27-.06.53-.13.79-.21l.07.05c-.01.3-.03.88-.05,1.74l-.02.85v3.32c0,.36,0,.67.02.93.01.26.04.42.07.47.03.05.09.09.16.13.07.03.29.06.66.09v.29c-.43-.02-.74-.03-.91-.03-.15,0-.46.01-.93.03.01-.24.02-.57.03-.98-.14.1-.33.25-.57.46-.24.2-.43.37-.56.5-.28.07-.53.11-.75.11-.4,0-.77-.1-1.1-.3-.33-.2-.6-.49-.78-.86-.18-.38-.27-.8-.27-1.27,0-.35.06-.69.17-1.01.11-.32.25-.56.42-.73.1-.1.31-.25.65-.45.34-.2.61-.35.82-.44.21-.09.44-.13.69-.13.22,0,.44.03.66.08.21.06.42.14.62.25v-1.4c0-.49-.02-.79-.06-.89-.01-.04-.04-.07-.08-.08-.07-.03-.31-.05-.73-.05ZM155.42,111.24c-.24-.26-.49-.46-.76-.58-.26-.12-.52-.18-.77-.18-.29,0-.56.07-.8.22-.24.15-.43.37-.56.67-.13.3-.19.66-.19,1.08,0,.65.16,1.15.48,1.51.32.37.71.55,1.16.55.24,0,.45-.05.64-.15.19-.1.35-.24.49-.43.14-.19.23-.4.27-.63.03-.16.04-.54.04-1.15v-.91Z"/>
            <path class="cls-1" d="M158.52,111.47l-.28-.07c0-.08,0-.19,0-.33s0-.27,0-.35c.45-.3.82-.49,1.1-.59.22-.08.46-.11.74-.11.4,0,.74.08,1.02.23.28.15.48.37.62.65.09.2.14.47.14.81l-.03.97v1.58c0,.17.02.29.04.37.02.05.06.09.1.12.03.02.11.03.22.04l.34.03v.3c-.29-.02-.55-.03-.76-.03s-.5.01-.85.03l.02-.93c-.72.55-1.15.85-1.28.92-.13.07-.3.1-.51.1-.43,0-.76-.11-1-.34-.24-.23-.36-.53-.36-.91,0-.25.04-.47.12-.67.08-.2.18-.36.3-.48.12-.12.23-.21.36-.26.21-.1.54-.2,1-.31.46-.11.92-.19,1.37-.25,0-.33-.04-.6-.12-.78-.08-.19-.23-.34-.43-.46-.2-.12-.45-.18-.74-.18-.21,0-.39.03-.55.08-.16.06-.25.1-.29.14l-.1.19c-.1.21-.17.38-.21.5ZM160.95,112.3c-.46.08-.85.16-1.18.26-.32.1-.55.19-.69.3-.08.06-.15.15-.21.27-.09.18-.14.37-.14.59,0,.26.07.47.22.61.15.15.35.22.6.22.24,0,.47-.07.71-.2.23-.14.46-.34.69-.61v-1.43Z"/>
            <path class="cls-1" d="M162.82,110.95v-.22c.34-.13.61-.25.81-.36v-1.61c.37-.13.67-.26.9-.41l.13.11c-.04.29-.08.94-.13,1.94.28,0,.45,0,.51,0,.03,0,.22,0,.55,0,.18,0,.32-.01.41-.02l.04.04-.11.49c-.22,0-.43,0-.62,0s-.45,0-.78,0l-.03,2.16c0,.53,0,.84,0,.94.02.1.05.19.1.27.05.08.11.14.19.18.08.05.21.08.4.1.15,0,.26,0,.35-.02.09-.01.2-.04.34-.09l.06.21c-.17.13-.33.27-.48.41-.14.05-.26.08-.38.1-.12.02-.25.02-.4.02-.19,0-.34-.02-.45-.07-.11-.04-.21-.1-.31-.18-.09-.07-.17-.17-.23-.29-.06-.12-.1-.3-.12-.55,0-.24.01-.51.02-.79,0-.06,0-.12,0-.19v-2.2h-.22c-.18,0-.37,0-.59.03Z"/>
            <path class="cls-1" d="M166.14,110.74v-.3c.68-.08,1.26-.23,1.73-.45l.12.08c-.03.75-.04,1.33-.04,1.73v.97c.02.92.03,1.42.03,1.49,0,.18.02.31.06.39.02.03.04.06.07.08.03.02.07.04.13.05.02,0,.22,0,.59.02v.3c-.54-.02-.97-.03-1.29-.03-.28,0-.75.01-1.39.03v-.3h.51c.08,0,.13-.02.17-.04.04-.02.07-.05.09-.09.04-.07.06-.2.07-.38,0-.04,0-.55.02-1.52v-.93c0-.53-.02-.84-.05-.94-.02-.05-.06-.09-.12-.12-.05-.03-.29-.04-.71-.04ZM167.43,107.64c.17,0,.31.06.42.18.12.12.17.26.17.42s-.06.3-.17.42c-.12.12-.26.18-.42.18s-.31-.06-.42-.18c-.12-.11-.18-.26-.18-.42s.06-.31.18-.42c.11-.12.26-.18.42-.18Z"/>
            <path class="cls-1" d="M169.21,112.66c0-.79.25-1.44.76-1.94.5-.5,1.15-.75,1.94-.75.74,0,1.34.23,1.81.7.47.47.7,1.07.7,1.81,0,.52-.12.99-.36,1.42-.24.43-.58.76-1.02,1.01-.44.24-.92.36-1.45.36-.41,0-.76-.07-1.04-.21-.28-.14-.52-.31-.69-.52-.18-.21-.31-.42-.4-.64-.17-.39-.25-.8-.25-1.24ZM170.21,112.27c0,.43.07.88.22,1.33.15.45.36.78.63.98.28.21.57.31.89.31.41,0,.75-.16,1.03-.49.28-.33.41-.83.41-1.5,0-.56-.08-1.05-.25-1.46-.16-.41-.37-.7-.63-.87-.26-.17-.53-.25-.84-.25-.43,0-.79.16-1.06.47-.27.32-.41.81-.41,1.47Z"/>
            <path class="cls-1" d="M174.71,115.1v-.3h.51c.08,0,.13-.02.17-.04.04-.02.07-.05.09-.09.04-.07.06-.2.08-.38,0-.04,0-.55.03-1.52v-.63c0-.28,0-.58-.02-.91-.01-.21-.03-.33-.05-.37-.02-.04-.06-.06-.12-.09-.06-.02-.29-.02-.69-.02v-.3c.71-.1,1.23-.23,1.57-.39.07-.03.12-.05.14-.05.03,0,.04,0,.06.03.01.02.02.04.02.08,0,.02,0,.05,0,.08-.01.13-.02.4-.03.81l.99-.84c.29-.11.56-.16.82-.16.29,0,.56.06.82.18.26.11.45.26.58.44.13.18.22.4.26.67.03.16.04.6.04,1.33v.94c0,.46.01.77.04.94.02.11.04.18.08.22.04.04.09.07.17.08l.56.02v.3c-.35-.02-.64-.03-.86-.03-.2,0-.53.01-.98.03.05-.87.07-1.42.07-1.65v-.89c0-.55-.02-.92-.06-1.09-.06-.23-.2-.43-.41-.57-.21-.15-.47-.22-.77-.22-.27,0-.51.06-.73.19-.22.12-.38.27-.47.43-.09.17-.14.44-.14.83v.64c.02.92.03,1.42.03,1.49,0,.18.03.31.06.39.02.03.04.06.06.08.03.02.07.04.13.05.02,0,.22,0,.59.02v.3c-.43-.02-.82-.03-1.17-.03-.3,0-.78.01-1.45.03Z"/>
          </g>
        </g>
        <path class="cls-1" d="M5.57,58.38v-4.37h-3.53v4.37H0v-10.44h2.04v4.27h3.53v-4.27h2.04v10.44h-2.04ZM15.98,58.38l-.62-1.85h-3.71l-.63,1.85h-2.13l3.8-10.44h1.6l3.81,10.44h-2.13ZM13.55,51.02l-1.32,3.8h2.6l-1.28-3.8ZM26.82,58.38v-6.09l-1.99,3.96h-1.38l-2.01-3.96v6.09h-2.04v-10.44h2.01l2.73,5.65,2.71-5.65h2.01v10.44h-2.04ZM37.23,58.38l-.62-1.85h-3.71l-.63,1.85h-2.13l3.8-10.44h1.6l3.81,10.44h-2.13ZM34.8,51.02l-1.32,3.8h2.6l-1.28-3.8ZM47.18,57.39c-.69.69-1.67,1-2.76,1h-3.77v-10.44h3.77c1.09,0,2.07.31,2.76,1,1.17,1.17,1.06,2.61,1.06,4.18s.12,3.09-1.06,4.27ZM45.75,50.41c-.35-.43-.82-.65-1.53-.65h-1.54v6.81h1.54c.7,0,1.17-.22,1.53-.65.38-.47.44-1.22.44-2.8s-.06-2.24-.44-2.71ZM58.44,58.38h-4.37v-10.44h4.19c2.04,0,3.23,1.14,3.23,2.93,0,1.16-.76,1.91-1.29,2.16.63.29,1.44.95,1.44,2.35,0,1.95-1.33,3.01-3.2,3.01ZM58.1,49.76h-1.99v2.41h1.99c.87,0,1.35-.48,1.35-1.2s-.48-1.2-1.35-1.2ZM58.23,54h-2.13v2.57h2.13c.92,0,1.36-.59,1.36-1.29s-.44-1.28-1.36-1.28ZM63.72,58.38v-10.44h2.04v10.44h-2.04ZM74.37,58.38l-4.14-6.41v6.41h-2.04v-10.44h1.82l4.14,6.39v-6.39h2.04v10.44h-1.82ZM88.09,58.38l-2.68-4.75-1.35,1.61v3.14h-2.04v-10.44h2.04v4.55l3.68-4.55h2.48l-3.46,4.15,3.71,6.29h-2.38ZM97.34,58.38v-4.37h-3.53v4.37h-2.04v-10.44h2.04v4.27h3.53v-4.27h2.04v10.44h-2.04ZM107.76,58.38l-.62-1.85h-3.71l-.63,1.85h-2.13l3.8-10.44h1.6l3.81,10.44h-2.13ZM105.32,51.02l-1.32,3.8h2.6l-1.28-3.8ZM111.17,58.38v-10.44h2.04v8.62h4.74v1.82h-6.78ZM119.6,58.38v-10.44h2.04v10.44h-2.04ZM126.11,49.76v2.57h4.12v1.82h-4.12v4.24h-2.04v-10.44h6.88v1.82h-4.84ZM138.67,58.38l-.62-1.85h-3.71l-.63,1.85h-2.13l3.8-10.44h1.6l3.81,10.44h-2.13ZM136.23,51.02l-1.32,3.8h2.6l-1.28-3.8ZM64.16,76.38c-2.14,0-3.84-1.45-3.84-3.67v-6.86h2.04v6.79c0,1.2.7,1.92,1.8,1.92s1.82-.72,1.82-1.92v-6.79h2.02v6.86c0,2.21-1.7,3.67-3.84,3.67ZM76.45,76.29l-4.14-6.41v6.41h-2.04v-10.44h1.82l4.14,6.39v-6.39h2.04v10.44h-1.82ZM80.7,76.29v-10.44h2.04v10.44h-2.04ZM88.97,76.29h-1.53l-3.45-10.44h2.11l2.1,6.81,2.1-6.81h2.13l-3.46,10.44ZM93.69,76.29v-10.44h6.88v1.82h-4.84v2.45h4.12v1.82h-4.12v2.54h4.84v1.82h-6.88ZM108.11,76.29l-2.04-4.17h-1.47v4.17h-2.04v-10.44h4.09c2.13,0,3.39,1.45,3.39,3.2,0,1.47-.89,2.38-1.91,2.74l2.33,4.5h-2.36ZM106.52,67.67h-1.92v2.76h1.92c.89,0,1.48-.57,1.48-1.38s-.59-1.38-1.48-1.38ZM115.03,76.38c-1.58,0-2.79-.34-3.81-1.38l1.32-1.32c.66.66,1.55.88,2.52.88,1.2,0,1.85-.45,1.85-1.29,0-.37-.1-.67-.32-.88-.21-.19-.44-.29-.92-.37l-1.26-.18c-.89-.13-1.55-.41-2.02-.87-.5-.5-.75-1.17-.75-2.05,0-1.86,1.38-3.17,3.64-3.17,1.44,0,2.48.35,3.37,1.22l-1.29,1.28c-.66-.63-1.45-.72-2.14-.72-1.09,0-1.61.6-1.61,1.32,0,.26.09.54.31.75.21.19.54.35.97.41l1.23.18c.95.13,1.55.4,1.99.81.56.53.81,1.29.81,2.21,0,2.02-1.69,3.17-3.87,3.17ZM120.82,76.29v-10.44h2.04v10.44h-2.04ZM129.28,67.67v8.62h-2.04v-8.62h-2.73v-1.82h7.49v1.82h-2.73ZM137.65,72.01v4.28h-2.02v-4.28l-3.14-6.16h2.21l1.95,4.21,1.92-4.21h2.21l-3.14,6.16ZM54.63,27.55l-1.73,1.73,5.75,5.77h-12.46v-13.79l-2.47,2.41v11.38h-7.85v-7.5l-2.47,2.41v5.1h-9.29c.95-1.04,1.66-2.56,1.43-4.09-.27-1.98-1.79-3.71-4.5-3.71s-4.23,1.73-4.54,3.71c-.21,1.53.48,3.05,1.45,4.09h-9.37v-7.48h-4.33c-2.69,0-4.25,1.64-4.25,5.03,0,3.62,2.42,4.9,4.25,4.9h60.31l-9.92-9.95ZM5.95,35.05h-1.56c-1.09,0-1.77-1.24-1.77-2.45,0-1.07.32-2.69,1.77-2.69h1.56v5.14ZM21.04,34.47c-1.24-.72-2.08-2.13-1.87-3.41.13-.92.88-1.6,1.87-1.6s1.7.7,1.85,1.6c.23,1.3-.61,2.69-1.85,3.41ZM56.6,24.29l-1.7-1.7-1.73,1.73,1.7,1.7,1.73-1.73ZM38.23,40.62l-1.7-1.7-1.73,1.73,1.7,1.7,1.73-1.73ZM34.8,40.62l-1.7-1.7-1.73,1.73,1.7,1.7,1.73-1.73ZM22.76,24.29l-1.7-1.7-1.73,1.73,1.7,1.7,1.73-1.73ZM8.56,24.29l-1.7-1.7-1.73,1.73,1.7,1.7,1.73-1.73ZM5.13,24.29l-1.7-1.7-1.73,1.73,1.7,1.7,1.73-1.73ZM108.22,16.89c1.35-.1,2.45-.55,2.99-1.58.67,1.13,1.83,1.58,3.13,1.58,2.88,0,4.48-2.09,4.48-5.31s-1.62-5.33-4.48-5.33c-2.63,0-4.33,1.85-4.48,4.67-.06,1.41,0,3.52-2.23,3.52h-8.16l2.67-2.34c0-3.05-2.17-5.46-5.78-5.46s-5.78,2.41-5.78,5.46l2.65,2.34h-9.99v-7.48h-4.33c-2.69,0-4.25,1.64-4.25,5.03,0,3.62,2.42,4.9,4.25,4.9h29.31ZM114.33,8.52c1.07,0,1.79.77,1.79,3.13,0,2.2-.72,2.98-1.79,2.98s-1.77-.77-1.77-3,.71-3.11,1.77-3.11ZM80.61,14.44h-1.56c-1.09,0-1.77-1.24-1.77-2.45,0-1.07.32-2.69,1.77-2.69h1.56v5.14ZM93.37,11.41c.08-1.3,1.28-2.49,3.01-2.43,1.74.02,2.86,1.17,2.94,2.43l-2.96,2.64c-.67-.55-2.23-1.94-2.99-2.64ZM140.69,16.89l-9.88-9.85-1.73,1.73,5.7,5.67h-10.59V.65l-2.47,2.41v13.83h18.97ZM134.24,20.01l-1.7-1.7-1.73,1.73,1.7,1.7,1.73-1.73ZM130.83,27.54l-1.73,1.73,5.78,5.78h-10.89c-1.3,0-1.93-.43-1.93-1.32,0-2.79-1.56-5.07-4.48-5.07s-4.39,1.98-4.56,5.07c-.1,1.28-1.35,1.26-2.38,1.32h-6.79v-7.5l-2.47,2.41v5.1h-4.45v2.45h14.46c.86,0,1.66-.15,2.31-.47.71,1.43,2.08,2.26,3.87,2.28,1.85,0,3.17-.87,3.89-2.39.8.42,1.74.53,2.65.56h0s16.67.01,16.67.01l-9.96-9.96ZM117.59,36.86c-1.07,0-1.79-.75-1.79-2.94s.71-3,1.79-3,1.79.75,1.79,3.07c0,2.11-.71,2.88-1.79,2.88ZM91.1,37.5v-9.92l-2.47,2.41v5.1h-6.82c-1.39,0-2.38-.66-2.38-1.83v-5.67h-2.65v9.31c0,1.28-.53,1.96-1.85,1.96s-1.91-.68-1.91-1.96v-9.31h-2.63v9.38c0,2.58,1.79,4.35,4.23,4.39.19.02.32,0,.57,0,2.46-.04,4.25-1.79,4.25-4.37v-.09c.57.36,1.28.56,2.06.6h9.6ZM76.58,24.29l-1.7-1.7-1.73,1.73,1.7,1.7,1.73-1.73ZM91.58,40.62l-1.7-1.7-1.73,1.73,1.7,1.7,1.73-1.73ZM83.7,3.58l-1.7-1.7-1.73,1.73,1.7,1.7,1.73-1.73ZM80.27,3.58l-1.7-1.7-1.73,1.73,1.7,1.7,1.73-1.73Z"/>
      </g>
      <g>
        <polygon class="cls-1" points="225.37 0 192.16 0 208.71 16.66 225.37 0"/>
        <polygon class="cls-1" points="190.47 1.44 190.47 34.96 207.18 18.26 190.47 1.44"/>
        <polygon class="cls-1" points="224.41 35.55 208.65 19.79 205.91 22.53 215.79 32.42 196.02 32.42 192.14 36.3 225.15 36.3 224.41 35.55"/>
        <polygon class="cls-1" points="186.89 34.93 186.89 1.58 170.27 18.2 186.89 34.93"/>
        <polygon class="cls-1" points="150.59 1.46 150.59 34.81 167.21 18.2 150.59 1.46"/>
        <polygon class="cls-1" points="175.78 32.42 156.06 32.42 152.18 36.3 185.15 36.3 168.66 19.81 165.92 22.55 175.78 32.42"/>
        <rect class="cls-1" x="178.87" y="56.27" width="3.88" height="3.88" transform="translate(11.8 144.91) rotate(-45)"/>
        <polygon class="cls-1" points="185.36 40.06 152.25 40.06 168.75 56.68 185.36 40.06"/>
        <polygon class="cls-1" points="150.59 41.47 150.59 74.83 167.21 58.21 150.59 41.47"/>
        <polygon class="cls-1" points="177.58 68.65 168.71 59.78 165.97 62.52 175.93 72.48 156.01 72.48 152.13 76.36 185.24 76.36 177.58 68.65"/>
        <rect class="cls-1" x="206.68" y="79.21" width="3.88" height="3.88" transform="translate(3.72 171.29) rotate(-45)"/>
        <rect class="cls-1" x="206.68" y="40.89" width="3.88" height="3.88" transform="translate(30.82 160.07) rotate(-45)"/>
        <polygon class="cls-1" points="190.47 40.06 190.47 74.87 207.81 57.52 190.47 40.06"/>
        <polygon class="cls-1" points="221.26 72.48 195.89 72.48 192.01 76.36 225.12 76.36 221.26 72.48"/>
        <polygon class="cls-1" points="226.77 40.06 226.77 74.87 209.43 57.52 226.77 40.06"/>
      </g>
    </g>
  </g>
</svg>