<?xml version="1.0" encoding="UTF-8"?>
<svg id="Layer_2" data-name="Layer 2" xmlns="http://www.w3.org/2000/svg" xmlns:xlink="http://www.w3.org/1999/xlink" viewBox="0 0 156.56 90.23">
  <defs>
    <style>
      .cls-1 {
        fill: #1f3a6e;
      }

      .cls-2, .cls-3 {
        fill: none;
      }

      .cls-3 {
        stroke: #003976;
        stroke-miterlimit: 10;
      }

      .cls-4 {
        fill: #003976;
      }

      .cls-5 {
        clip-path: url(#clippath);
      }
    </style>
    <clipPath id="clippath">
      <polygon class="cls-2" points="16.44 0 0 0 0 90.23 16.44 90.23 156.56 90.23 156.56 0 16.44 0"/>
    </clipPath>
  </defs>
  <g id="Layer_1-2" data-name="Layer 1">
    <g class="cls-5">
      <g>
        <path class="cls-4" d="M68.45.66c.89.66,1.37,1.63,1.37,2.81v39.73c0,1.47-.66,2.29-1.45,2.82h26.12c.04-.27.87-4.4,1.17-5.91-2.35,3.33-5.06,3.36-11.46,3.42h-.45c-3.37,0-6.72-.3-7.84-.39l-.18-.03v-21.13h11.18c.79,0,1.63.66,2.13,1.34v-5.03c-.5.69-1.34,1.35-2.13,1.35h-11.18V2.99h.21c.11,0,10.31.14,11.57.14,2.79,0,4.22.77,5.44,2.02-.02-.85-.1-4.17-.12-4.5h-24.39Z"/>
        <path class="cls-4" d="M105.87,7.5c-4.1,4.25-6.43,10.06-6.43,15.97,0,6.56,2.65,12.53,7.45,16.8,4.6,4.1,10.78,6.35,17.38,6.35,3.45,0,10.22-.58,16.76-4.5.21-2.75.49-6.57.58-8.26-5.29,10.2-13.41,10.22-16.13,10.22-13.53,0-19.59-10.8-19.59-21.48,0-5.61,1.76-10.65,4.95-14.2,3.51-3.9,8.59-5.94,14.7-5.94,3.31,0,11.31,1.04,15.74,10.25-.09-1.81-.37-5.91-.58-8.88C134.7,1.22,129.85.05,125.01.05c-7.83,0-14.46,2.57-19.14,7.45"/>
        <path class="cls-4" d="M46.02,3.47v13.7c2.1.23,4.11.51,6.04.84V3.47c0-1.27.41-2.19,1.23-2.81h-8.52c.82.64,1.25,1.59,1.25,2.81M61.53,26.9l.05-4.96c-6.93-2.3-16.21-3.69-26.46-3.71-4.54,0-8.9.27-12.95.78V3.47c0-1.19.44-2.16,1.28-2.81h-8.58c.82.64,1.25,1.59,1.25,2.81v16.51C9.19,21.34,3.54,23.43,0,25.96l.56.82c3.61-2.11,9.03-3.7,15.58-4.59v21.01c0,1.18-.44,2.13-1.29,2.82h8.65c-.86-.71-1.31-1.66-1.31-2.82v-21.61c4.11-.26,8.51-.26,13.1.01,3.74.23,7.34.65,10.75,1.2v20.4c0,1.18-.43,2.13-1.29,2.82h8.61c-.83-.67-1.27-1.58-1.27-2.82v-19.18c3.5.82,6.69,1.78,9.47,2.89"/>
        <path class="cls-4" d="M56.99,59.86h-1.82v3.56h-1.85v-9.46h3.67c1.95,0,3.12,1.34,3.12,2.95s-1.17,2.95-3.12,2.95M56.9,55.61h-1.72v2.59h1.72c.84,0,1.37-.51,1.37-1.29s-.53-1.3-1.37-1.3"/>
        <path class="cls-4" d="M70.37,63.42l-.56-1.67h-3.36l-.57,1.67h-1.93l3.45-9.46h1.45l3.46,9.46h-1.93ZM68.17,56.75l-1.2,3.44h2.35l-1.15-3.44Z"/>
        <path class="cls-4" d="M82.48,63.42l-1.84-3.77h-1.33v3.77h-1.85v-9.46h3.71c1.93,0,3.07,1.32,3.07,2.89,0,1.33-.81,2.16-1.73,2.48l2.12,4.09h-2.15ZM81.04,55.61h-1.74v2.5h1.74c.81,0,1.34-.52,1.34-1.25s-.53-1.25-1.34-1.25"/>
        <rect class="cls-4" x="90.13" y="53.96" width="1.84" height="9.46"/>
        <path class="cls-4" d="M100.78,63.5c-1.44,0-2.52-.31-3.46-1.24l1.2-1.2c.6.59,1.41.8,2.28.8,1.1,0,1.68-.41,1.68-1.17,0-.33-.09-.61-.29-.8-.18-.17-.4-.26-.84-.32l-1.14-.17c-.82-.12-1.41-.37-1.84-.79-.45-.45-.68-1.06-.68-1.86,0-1.69,1.24-2.87,3.3-2.87,1.3,0,2.25.32,3.05,1.1l-1.16,1.15c-.59-.56-1.32-.64-1.94-.64-.98,0-1.47.54-1.47,1.19,0,.24.09.49.29.68.19.17.49.32.88.37l1.11.16c.87.12,1.41.35,1.81.74.5.47.73,1.16.73,2,0,1.84-1.53,2.88-3.51,2.88"/>
        <path class="cls-4" d="M56.99,59.86h-1.82v3.56h-1.85v-9.46h3.67c1.95,0,3.12,1.34,3.12,2.95s-1.17,2.95-3.12,2.95M56.9,55.61h-1.72v2.59h1.72c.84,0,1.37-.51,1.37-1.29s-.53-1.3-1.37-1.3"/>
        <path class="cls-4" d="M70.37,63.42l-.56-1.67h-3.36l-.57,1.67h-1.93l3.45-9.46h1.45l3.46,9.46h-1.93ZM68.17,56.75l-1.2,3.44h2.35l-1.15-3.44Z"/>
        <path class="cls-4" d="M82.48,63.42l-1.84-3.77h-1.33v3.77h-1.85v-9.46h3.71c1.93,0,3.07,1.32,3.07,2.89,0,1.33-.81,2.16-1.73,2.48l2.12,4.09h-2.15ZM81.04,55.61h-1.74v2.5h1.74c.81,0,1.34-.52,1.34-1.25s-.53-1.25-1.34-1.25"/>
        <rect class="cls-4" x="90.13" y="53.96" width="1.84" height="9.46"/>
        <path class="cls-4" d="M100.78,63.5c-1.44,0-2.52-.31-3.46-1.24l1.2-1.2c.6.59,1.41.8,2.28.8,1.1,0,1.68-.41,1.68-1.17,0-.33-.09-.61-.29-.8-.18-.17-.4-.26-.84-.32l-1.14-.17c-.82-.12-1.41-.37-1.84-.79-.45-.45-.68-1.06-.68-1.86,0-1.69,1.24-2.87,3.3-2.87,1.3,0,2.25.32,3.05,1.1l-1.16,1.15c-.59-.56-1.32-.64-1.94-.64-.98,0-1.47.54-1.47,1.19,0,.24.09.49.29.68.19.17.49.32.88.37l1.11.16c.87.12,1.41.35,1.81.74.5.47.73,1.16.73,2,0,1.84-1.53,2.88-3.51,2.88"/>
        <line class="cls-3" x1="40.19" y1="73.22" x2="116.43" y2="73.22"/>
        <g>
          <g>
            <path class="cls-4" d="M50.31,87.56c-.42.42-1.03.64-1.75.64h-2.37v-6.91h2.37c.72,0,1.33.22,1.75.64.72.72.68,1.78.68,2.74s.04,2.17-.68,2.89ZM49.8,82.46c-.36-.37-.83-.5-1.36-.5h-1.5v5.59h1.5c.53,0,1-.14,1.36-.5.48-.5.46-1.52.46-2.37s.02-1.72-.46-2.21Z"/>
            <path class="cls-4" d="M57.38,87.54c-.47.47-1.08.72-1.77.72s-1.3-.25-1.77-.72c-.65-.65-.65-1.33-.65-2.79s0-2.14.65-2.79c.47-.47,1.08-.72,1.77-.72s1.3.25,1.77.72c.65.65.65,1.33.65,2.79s0,2.14-.65,2.79ZM56.8,82.39c-.3-.31-.74-.49-1.19-.49s-.89.18-1.19.49c-.44.45-.49.91-.49,2.36s.05,1.91.49,2.36c.3.31.74.5,1.19.5s.89-.18,1.19-.5c.44-.45.49-.91.49-2.36s-.05-1.91-.49-2.36Z"/>
            <path class="cls-4" d="M64.25,88.2v-3.15h-3.28v3.15h-.74v-6.91h.74v3.1h3.28v-3.1h.74v6.91h-.74Z"/>
            <path class="cls-4" d="M72.1,88.2l-.55-1.56h-3.02l-.55,1.56h-.79l2.54-6.91h.62l2.53,6.91h-.79ZM70.05,82.35l-1.3,3.65h2.58l-1.28-3.65Z"/>
          </g>
          <g>
            <path class="cls-4" d="M89.35,87.67v.34c0,.06-.02.1-.08.13l-.15.08h-.36c-.65,0-1.09-.42-1.34-.85-.31.48-.84.85-1.59.85-1.38,0-2.12-1.03-2.12-2.36,0-1.68.89-2.59,2.12-2.59h2.13v3.19c0,.71.31,1,.9,1h.26l.15.08c.06.03.08.08.08.13ZM87.16,85.88v-1.85h-1.32c-.97,0-1.31.83-1.31,1.83,0,1.29.64,1.63,1.31,1.63.84,0,1.32-.77,1.32-1.61ZM85.87,82.21h-.97v-.97h.97v.97ZM87.37,82.21h-.97v-.97h.97v.97Z"/>
            <path class="cls-4" d="M88.97,88.14s-.07-.08-.07-.13v-.34c0-.06.02-.1.07-.13l.12-.08h1.76l.12.08s.06.08.06.13v.34c0,.06-.02.1-.06.13l-.12.08h-1.76l-.12-.08Z"/>
            <path class="cls-4" d="M94.4,85.43v2.79h-5.01l-.15-.08c-.06-.03-.08-.08-.08-.13v-.34c0-.06.02-.1.08-.13l.15-.08h4.16v-1.95c0-.81-.43-1.54-1.44-1.54-.71,0-1.24.18-1.7.52l-.38-.62c.67-.45,1.19-.6,2.09-.6,1.48,0,2.28.97,2.28,2.17Z"/>
            <path class="cls-4" d="M100.01,85.76v2.1c0,.7-.21,1.26-.62,1.71s-.97.66-1.68.66c-.54,0-.93-.1-1.29-.3l.38-.62c.28.17.53.21.89.21.52,0,.9-.16,1.15-.47s.37-.72.37-1.31v-.11c-.31.44-.86.63-1.31.63-1.25,0-2.13-.81-2.13-2.49,0-1.45.75-2.48,2.13-2.48,1,0,2.12.49,2.12,2.48ZM99.2,85.76c0-1.42-.62-1.74-1.31-1.74s-1.33.33-1.33,1.74c0,1.01.36,1.76,1.33,1.76,1.17,0,1.31-1.11,1.31-1.76Z"/>
            <path class="cls-4" d="M105.74,85.48v2.74h-4.49v-.76h3.64v-1.98c0-.89-.55-1.47-1.45-1.52-.76-.03-1.17.12-1.49.27l-.27-.65c.43-.18.93-.34,1.81-.31,1.29,0,2.26.74,2.26,2.21Z"/>
          </g>
          <circle class="cls-4" cx="78.29" cy="85.18" r=".49"/>
          <g>
            <path class="cls-1" d="M108.34,81.08v5.07c0,.71-.19,1.25-.57,1.61-.32.31-.76.46-1.33.46h-1.36v-.65h1.36c.38,0,.67-.14.87-.41.17-.23.25-.55.25-.94v-5.14h.78Z"/>
            <rect class="cls-1" x="109.62" y="81.08" width=".78" height="7.14"/>
          </g>
        </g>
      </g>
    </g>
  </g>
</svg>