<?xml version="1.0" encoding="UTF-8"?>
<svg id="Layer_2" data-name="Layer 2" xmlns="http://www.w3.org/2000/svg" viewBox="0 0 7438.47 1429.57">
  <defs>
    <style>
      .cls-1, .cls-2 {
        fill: #6d6e71;
      }

      .cls-1, .cls-3 {
        fill-rule: evenodd;
      }

      .cls-4 {
        fill: #6d6f71;
      }

      .cls-3 {
        fill: #d71920;
      }
    </style>
  </defs>
  <g id="Layer_1-2" data-name="Layer 1">
    <g>
      <g>
        <path class="cls-1" d="M4137.18,437.3c-127.92-166.24-24.43-425.82,209.18-428.59h475.23l-42.87,115.99h-384.17c-63.84.9-99.53,79.2-63.84,126.92,59.33,91.27,159.95,155.1,223.33,248.71,137.48,184.72-1.18,425.36-205.97,425.96h-522.52l42.94-116.12h412.47c63.31-.67,98.71-78.74,65.63-125.46-52.21-86.51-144.73-168.41-209.39-247.41h0ZM3654.77,926.28h-259.62L3733.33,8.84h259.67l-338.23,917.44h0ZM4932.22,926.28h-259.78L5010.69,8.84h259.55l-338.02,917.44h0ZM5324.51,286.83C5414.88,95.84,5605.42-5.54,5781.7.23h161.01c135.74,6.37,218,118.49,225.23,211.23,1.48,22.01,1.1,43.52-1.65,60.16-2.2,10.44-4.52,20.78-7.17,31.35-28.41,117.79-71.18,237.91-127.36,345.59-90.41,191.05-280.91,292.6-457.3,286.63h-161.01c-135.69-6.17-218.08-118.39-225.1-211.16-1.62-21.91-1.37-43.35,1.6-60.19,2.12-10.27,4.57-20.81,7.09-31.22,28.4-117.82,71.25-237.91,127.47-345.79h0ZM5815.76,95.34h0c-95.63,2.77-176.04,57.43-210.71,147.33l-171.46,467.08c-4.53,11.07-6.79,23.24-6.24,35.52v.13c0,49.89,38.75,91.21,87.69,94.91h25.31c95.68-2.7,176.13-57.73,210.85-147.43l171.41-467.17c4.5-11.04,6.75-23.11,6.32-35.35v-.33c0-49.96-38.93-91.07-87.89-94.88l-25.28.2h0ZM3053.41,639.49L3475.57,8.84h152.48l-589.46,878.69h0c-15.19,22.84-40.99,37.85-69.71,38.75h-5.48c-1.02-.17-2.13-.17-3.09-.17.3,0,.54,0,.79.17h-144.54L2744.44,8.84h259.5l49.46,630.65h0ZM6441.51,305.34l-1.03-11.34-234.17,632.28h-133.76L6412.26,8.84h169.29l244.39,619.91L7055.58,8.84h133.88l-339.79,917.44h-122.34c-33.88-1.84-62.86-23.28-75.58-53.26l-210.24-567.69h0Z"/>
        <path class="cls-3" d="M1333.25,926.28h-276.24L1395.84,8.7h276.16l-338.76,917.58h0ZM483.6,362.1h328.25L942.14,8.84h275.65l-317.64,861.59v-.23c-.08.33-.25.6-.43.97-12.76,31.98-43.97,54.83-80.34,55.13h-215.43l161.72-438.83h-328.24l-161.77,438.83H0L338.27,8.84h275.53l-130.2,353.26h0ZM2004.57,353.86L2453.83,8.84h205.87l-459.26,352.66,291.14,564.49h-233.9c.82-.3,1.41-.3,2.07-.43-36.39,2.43-69.18-18.07-84.17-49.02-.13-.23-.34-.57-.59-.87l-.09.47-182.81-354.59-68.81,52.86-129.66,351.89h-275.65L1856.13,8.84h275.7l-127.26,345.02h0Z"/>
      </g>
      <path class="cls-2" d="M7291.71,161V44.25h51.76c10.4,0,18.31,1.07,23.73,3.13,5.42,2.1,9.75,5.84,12.99,11.14,3.23,5.3,4.85,11.17,4.85,17.57,0,8.3-2.68,15.27-8.04,20.94-5.37,5.7-13.66,9.3-24.84,10.84,4.08,1.97,7.18,3.9,9.3,5.8,4.52,4.17,8.79,9.34,12.82,15.54l20.31,31.78h-19.43l-15.46-24.28c-4.5-7.04-8.22-12.37-11.14-16.11-2.92-3.7-5.54-6.3-7.85-7.8-2.3-1.47-4.65-2.5-7.04-3.1-1.75-.37-4.62-.57-8.6-.57h-17.92v51.86h-15.44ZM7307.15,95.78h33.21c7.05,0,12.57-.73,16.56-2.2,3.98-1.43,7-3.77,9.09-7,2.07-3.2,3.1-6.7,3.1-10.47,0-5.5-2-10.04-6.02-13.61-4-3.57-10.34-5.34-18.99-5.34h-36.95v38.62Z"/>
      <path class="cls-2" d="M7339.84,5.4c-54.49,0-98.68,44.15-98.68,98.64s44.18,98.65,98.68,98.65,98.63-44.19,98.63-98.65-44.15-98.64-98.63-98.64ZM7339.84,191.45c-48.29,0-87.44-39.15-87.44-87.41s39.15-87.41,87.44-87.41,87.41,39.12,87.41,87.41-39.13,87.41-87.41,87.41Z"/>
    </g>
    <g>
      <path class="cls-4" d="M2366.02,1394.95c-45.42,0-74.96-30.26-74.96-68.1h27.77c0,25.6,19.79,41.11,46.82,41.11,30.64,0,50.09-18.05,50.09-42.94,0-19.09-10.79-31.34-25.2-39.97-19.1-11.17-38.94-20.17-60.54-32.09-19.83-10.77-34.61-31.34-34.61-56.21,0-37.87,29.56-65.23,71-65.23s73.16,28.82,73.16,68.12h-27.76c0-26.33-19.45-41.09-45.4-41.09-24.15,0-43.24,14.06-43.24,38.93,0,14.41,7.91,25.58,22.71,33.17,23.42,11.54,39.28,19.44,57.67,29.53,25.57,14.06,39.98,37.14,39.98,65.57,0,39.67-34.24,69.2-77.47,69.2Z"/>
      <path class="cls-4" d="M2624.81,1305.21h-114.6v21.29c0,18.72,8.99,42.19,43.95,42.19,24.51,0,40.73-14.82,43.25-39.3h27.03c-3.26,39.99-30.64,65.57-70.28,65.57-42.87,0-70.99-26.27-70.99-68.46v-59.45c0-41.46,28.83-68.12,70.99-68.12s70.64,25.93,70.64,68.12v38.16ZM2597.76,1267.05c0-19.11-8.99-41.84-43.6-41.84-27.02,0-43.95,15.51-43.95,41.84v11.87h87.55v-11.87Z"/>
      <path class="cls-4" d="M2813.35,1305.21h-114.61v21.29c0,18.72,9.01,42.19,43.97,42.19,24.51,0,40.72-14.82,43.23-39.3h27.05c-3.24,39.99-30.64,65.57-70.28,65.57-42.88,0-71.03-26.27-71.03-68.46v-59.45c0-41.46,28.84-68.12,71.03-68.12s70.64,25.93,70.64,68.12v38.16ZM2786.32,1267.05c0-19.11-9.02-41.84-43.61-41.84-27.05,0-43.97,15.51-43.97,41.84v11.87h87.58v-11.87Z"/>
      <path class="cls-4" d="M2981.72,1161.81v80.39h102.7v27.37h-102.7v121.81h-27.77v-256.96h138.75v27.39h-110.98Z"/>
      <path class="cls-4" d="M3263.94,1391.38h-27.04v-18.03c-8.27,12.25-28.83,21.27-50.1,21.27-30.98,0-63.07-18.4-63.07-61.65,0-35.31,26.33-53.71,60.93-53.71h52.24v-17.99c0-27.76-16.6-36.06-38.91-36.06-20.54,0-38.95,9.38-40,35.33h-27.05c1.46-45.02,38.22-61.61,66.69-61.61,32.45,0,66.31,15.85,66.31,61.26v131.19ZM3236.9,1304.89h-51.53c-20.56,0-34.61,7.92-34.61,28.07,0,28.15,20.54,35.33,40.36,35.33,22.71,0,45.77-15.51,45.77-41.44v-21.96Z"/>
      <path class="cls-4" d="M3377.49,1227.37c-14.4,0-33.52,12.64-33.52,43.61v120.4h-27.02v-189.92h27.02v17.99c9.01-11.15,23.06-17.99,33.88-17.99h15.14v25.91h-15.51Z"/>
      <path class="cls-4" d="M3396.62,1429.57l30.64-76.4h34.96l-36.41,76.4h-29.19Z"/>
      <path class="cls-4" d="M3679.21,1394.62c-56.57,0-72.07-46.5-72.07-69.2v-125.43c0-21.96,14.78-68.1,72.8-68.1s72.44,43.98,72.44,68.48h-27.75c0-35.33-30.28-41.46-44.69-41.46s-45.04,6.13-45.04,41.84v124.68c0,36.39,30.27,42.17,45.04,42.17s44.69-5.78,44.69-42.17v-48.27h-52.98v-27.39h80.73v75.99c0,22.71-15.86,68.87-73.16,68.87Z"/>
      <path class="cls-4" d="M3870.24,1394.95c-42.86,0-70.99-26.27-70.99-68.46v-59.45c0-41.46,28.84-68.12,70.99-68.12s70.65,25.93,70.65,68.12v59.45c0,41.46-28.83,68.46-70.65,68.46ZM3913.85,1267.05c0-19.11-8.99-41.84-43.61-41.84-27.01,0-43.97,15.51-43.97,41.84v59.45c0,18.72,9.03,42.19,43.97,42.19,26.7,0,43.61-16.24,43.61-42.19v-59.45Z"/>
      <path class="cls-4" d="M4109.26,1161.81v80.39h102.71v27.37h-102.71v121.81h-27.75v-256.96h138.76v27.39h-111.01Z"/>
      <path class="cls-4" d="M4371.68,1391.38v-15.16c-8.66,11.19-27.04,18.4-43.25,18.4-42.89,0-69.94-26.32-69.94-68.12v-125.04h27.05v125.04c0,18.72,7.91,41.8,42.89,41.8,25.22,0,43.25-15.85,43.25-39.99v-126.85h27v189.92h-27Z"/>
      <path class="cls-4" d="M4513.35,1227.37c-14.41,0-33.51,12.64-33.51,43.61v120.4h-27.03v-189.92h27.03v17.99c8.98-11.15,23.06-17.99,33.87-17.99h15.13v25.91h-15.49Z"/>
      <path class="cls-4" d="M4544.01,1201.46h36.02v-67.04h27.03v67.04h41.44v26.31h-41.44v116.05c0,15.83,9.38,21.23,19.82,21.23h22.35v26.32h-23.79c-25.21,0-45.41-14.06-45.41-48.99v-114.62h-36.02v-26.31Z"/>
      <path class="cls-4" d="M4803.14,1391.38v-124.33c0-18.74-3.93-41.84-38.92-41.84-25.21,0-46.13,16.99-46.13,41.09v125.08h-27.02v-256.96h27.02v85.4c9.37-13.35,29.92-20.9,46.13-20.9,43.25,0,65.95,25.6,65.95,68.12v124.33h-27.03Z"/>
      <path class="cls-4" d="M5020.89,1305.21h-114.61v21.29c0,18.72,9,42.19,43.95,42.19,24.53,0,40.75-14.82,43.26-39.3h27.02c-3.23,39.99-30.63,65.57-70.28,65.57-42.87,0-70.98-26.27-70.98-68.46v-59.45c0-41.46,28.84-68.12,70.98-68.12s70.66,25.93,70.66,68.12v38.16ZM4993.85,1267.05c0-19.11-9-41.84-43.62-41.84-27.02,0-43.95,15.51-43.95,41.84v11.87h87.57v-11.87Z"/>
      <path class="cls-4" d="M5131.93,1227.37c-14.41,0-33.51,12.64-33.51,43.61v120.4h-27.03v-189.92h27.03v17.99c9-11.15,23.04-17.99,33.87-17.99h15.13v25.91h-15.49Z"/>
    </g>
  </g>
</svg>