<?xml version="1.0" encoding="UTF-8"?>
<svg id="Layer_2" data-name="Layer 2" xmlns="http://www.w3.org/2000/svg" xmlns:xlink="http://www.w3.org/1999/xlink" viewBox="0 0 156.29 36.58">
  <defs>
    <style>
      .cls-1 {
        fill: url(#linear-gradient-2);
      }

      .cls-2 {
        fill: #fff;
      }

      .cls-3 {
        fill: #0079c1;
      }

      .cls-4 {
        fill: none;
      }

      .cls-5 {
        fill: url(#linear-gradient-3);
      }

      .cls-6 {
        clip-path: url(#clippath-1);
      }

      .cls-7 {
        fill: #54bceb;
      }

      .cls-8 {
        clip-path: url(#clippath-2);
      }

      .cls-9 {
        fill: url(#linear-gradient);
      }

      .cls-10 {
        clip-path: url(#clippath);
      }
    </style>
    <clipPath id="clippath">
      <path class="cls-4" d="M3.07,13.38s0,.02,0,0M3.07,13.38s0,0,0,0c0,0,0,0,0,0M11.93,3.17c-.44.02-.87.07-1.29.15-2.29.48-4.36,1.75-5.78,3.63-1.14,1.54-1.81,3.43-1.83,5.46.92-.34,1.79-2.34,3-3.67,2.02-2.22,3.59-2.67,3.59-2.67,0,0-1.17.56-2.82,2.23-1.41,1.41-2.72,4.6-3.73,5.08,2.12.63,4.63-.77,5.85-1.66,2.99-2.19,3.72-5.8,5.32-8.37-.6-.12-1.22-.18-1.85-.18-.15,0-.31,0-.46.01"/>
    </clipPath>
    <linearGradient id="linear-gradient" x1="-2016.34" y1="1035.68" x2="-2015.34" y2="1035.68" gradientTransform="translate(23475.36 12064.64) scale(11.64 -11.64)" gradientUnits="userSpaceOnUse">
      <stop offset="0" stop-color="#d7e9bf"/>
      <stop offset=".6" stop-color="#a0cf67"/>
      <stop offset="1" stop-color="#a0cf67"/>
    </linearGradient>
    <clipPath id="clippath-1">
      <path class="cls-4" d="M16.19,3.87h0c-1.59,1.53-1.63,4.4-1.46,5.9.41,3.69,3.19,6.11,4.63,8.78.5-.57.94-1.21,1.3-1.92.2-.39.37-.79.51-1.19.72-2.22.64-4.65-.28-6.82-.77-1.75-2.07-3.27-3.83-4.3-.16.97,1.14,2.71,1.69,4.43.93,2.86.54,4.44.54,4.44,0,0,.09-1.3-.53-3.55-.53-1.93-2.64-4.64-2.56-5.76,0,0,.01,0,0,0,0,0,0,0,0,0,0,0,0,0,0,0"/>
    </clipPath>
    <linearGradient id="linear-gradient-2" x1="-2183.49" y1="1100.73" x2="-2182.49" y2="1100.73" gradientTransform="translate(-25396.61 -12803.22) rotate(180) scale(11.64 -11.64)" xlink:href="#linear-gradient"/>
    <clipPath id="clippath-2">
      <path class="cls-4" d="M17.69,20.03s0,0,0,0c0,0,0,0,0,0,0,0,0,0,0,0M6.5,15.15c-1.06.1-2.09.19-3.07.15.24.72.57,1.42,1,2.09.23.37.5.72.77,1.04,1.55,1.75,3.68,2.91,6.02,3.22,1.9.23,3.88-.12,5.65-1.12-.75-.63-2.92-.4-4.67-.78-2.93-.65-4.1-1.79-4.1-1.79,0,0,1.07.74,3.33,1.35,1.93.52,5.34.08,6.26.72-.5-2.15-2.96-3.63-4.34-4.25-1.36-.61-2.74-.78-4.1-.78-.93,0-1.84.08-2.74.16"/>
    </clipPath>
    <linearGradient id="linear-gradient-3" x1="-2155.74" y1="922.96" x2="-2154.74" y2="922.96" gradientTransform="translate(10756.16 -25074.62) rotate(-90) scale(11.64 -11.64)" xlink:href="#linear-gradient"/>
  </defs>
  <g id="Layer_1-2" data-name="Layer 1">
    <rect class="cls-3" y=".04" width="24.49" height="36.54"/>
    <g class="cls-10">
      <rect class="cls-9" x="2.77" y="2.9" width="11.72" height="11.38" transform="translate(-.4 .43) rotate(-2.76)"/>
    </g>
    <g class="cls-6">
      <rect class="cls-1" x="10.02" y="4.61" width="16.41" height="13.19" transform="translate(-.04 22.35) rotate(-62.98)"/>
    </g>
    <g class="cls-8">
      <rect class="cls-5" x="2.7" y="11.7" width="15.74" height="13.48" transform="translate(-8.25 8.56) rotate(-32.49)"/>
    </g>
    <path class="cls-2" d="M13.31,28.99c-.68,0-1.24-.32-1.55-.89-.16.06-.34.09-.52.09-.29,0-2.62,0-4.49,0-1.39,0-2.58,0-2.69,0h-.04v-.77h.92c.63,0,1.52,0,2.5,0,.02-.14.04-.26.04-.39,0-.53-.14-.98-.41-1.3-.27-.32-.66-.5-1.12-.52h-.04v-.83h.04c.7,0,1.33.24,1.77.68.47.46.72,1.12.72,1.89,0,.15,0,.3-.03.46,1.03,0,1.81,0,2.25,0,.24,0,.39,0,.43,0,.33,0,.4-.16.44-.32,0,0,0-.01,0-.02v-.03c0-.57.18-1.06.51-1.41.34-.36.8-.54,1.34-.54s.97.18,1.29.53c.33.35.5.83.5,1.4,0,.09,0,.25-.04.38h4.44c.03-.13.04-.29.04-.38,0-.54-.15-1-.44-1.33-.29-.32-.7-.49-1.18-.49-.42,0-.83.12-1.23.37-.01,0-.02.01-.03.01l-.03.02-.02-.03-.37-.59-.02-.02.02-.02c.12-.12.77-.56,1.76-.56.7,0,1.33.24,1.77.68.47.46.72,1.12.72,1.89,0,.42-.07.89-.19,1.19v.02h-5.5c-.33.53-.88.81-1.55.81M13.33,25.85c-.56,0-.91.47-.91,1.18s.39,1.21.94,1.21.91-.44.91-1.18-.39-1.21-.94-1.21"/>
    <polygon class="cls-2" points="6.18 33.81 6.18 32.2 4.82 32.2 4.82 33.81 4.03 33.81 4.03 30.1 4.82 30.1 4.82 31.56 6.18 31.56 6.18 30.1 6.97 30.1 6.97 33.81 6.18 33.81"/>
    <path class="cls-2" d="M9.24,33.81v-.19s-.34.25-.77.25c-.54,0-.88-.36-.88-.88,0-.98,1.19-.99,1.52-.99h.08c0-.17,0-.25-.08-.32-.06-.06-.19-.11-.39-.11-.36,0-.69.17-.73.2l-.25-.48s.41-.3,1.04-.3c.23,0,.63.04.9.31.23.23.22.51.22.87v1.64h-.65ZM9.18,32.51h-.12c-.48,0-.83.08-.83.43,0,.28.24.36.42.36.31,0,.49-.15.52-.17v-.62Z"/>
    <path class="cls-2" d="M13.74,33.81v-1.5c0-.33,0-.68-.39-.68-.23,0-.45.16-.5.19.03.11.03.14.03.6v1.37h-.75v-1.5c0-.33.01-.68-.38-.68-.22,0-.43.13-.47.15v2.02h-.75v-2.74h.64v.21s.35-.28.77-.28.62.24.67.3c.05-.04.39-.3.87-.3.23,0,.51.07.7.25.33.33.31.78.31,1.41v1.15h-.75Z"/>
    <path class="cls-2" d="M16.66,33.81v-.19c-.05.03-.34.25-.77.25-.54,0-.88-.36-.88-.88,0-.98,1.19-.99,1.52-.99h.08c0-.17,0-.25-.08-.32-.06-.06-.18-.11-.39-.11-.36,0-.69.17-.73.2l-.25-.48s.41-.3,1.04-.3c.23,0,.63.04.89.31.23.23.22.51.22.87v1.64h-.65ZM16.61,32.51h-.12c-.48,0-.83.08-.83.43,0,.28.24.36.42.36.31,0,.49-.15.52-.17v-.62Z"/>
    <path class="cls-2" d="M19.8,33.81v-.17s-.28.24-.73.24c-.75,0-1.23-.58-1.23-1.4,0-.89.62-1.48,1.32-1.48.3,0,.52.1.55.11v-1.32h.75v4.02h-.66ZM19.7,31.73s-.2-.11-.42-.11c-.4,0-.7.28-.7.84s.3.81.65.81c.24,0,.44-.13.46-.14v-1.4Z"/>
    <rect class="cls-3" x="25.64" y="28.74" width="130.64" height="7.84"/>
    <rect class="cls-7" x="25.64" width="130.64" height="28.74"/>
    <path class="cls-2" d="M34.62,19.6h-2.74v-2.7h-1.16v6.65h1.16v-2.99h2.74v2.99h1.16v-6.65h-1.16v2.7ZM38.99,18.53c-1.08,0-1.71.46-1.79.53l.38.71c.07-.04.66-.38,1.31-.38.45,0,.65.08.79.22.13.13.16.3.16.61v.19h-.18c-.68,0-2.74.04-2.74,1.71,0,.91.61,1.53,1.57,1.53.8,0,1.37-.41,1.43-.46v.36h.96v-2.99c0-.65,0-1.12-.38-1.5-.35-.35-.79-.52-1.51-.52M39.85,22.47c-.08.04-.51.33-1.08.33-.47,0-.86-.24-.86-.74,0-.21.06-.36.19-.5.28-.28.83-.38,1.52-.38h.23v1.29ZM47.28,18.54c-.79,0-1.38.39-1.62.54-.16-.2-.51-.54-1.2-.54-.76,0-1.34.44-1.42.49v-.36h-.96v4.87h1.1v-3.73c.07-.05.55-.34,1.05-.34.26,0,.44.08.55.2.23.24.23.65.23,1.18v2.68h1.08v-2.58c0-.61,0-.91-.07-1.11.1-.06.58-.38,1.09-.38.27,0,.47.08.6.24.21.25.2.75.2,1.07v2.75h1.1v-2.43c0-.96,0-1.61-.52-2.13-.24-.24-.66-.44-1.2-.44M52.03,18.53c-1.08,0-1.71.46-1.79.53l.38.71c.07-.04.66-.38,1.32-.38.45,0,.65.08.79.22.13.13.16.3.16.61v.19h-.18c-.68,0-2.74.04-2.74,1.71,0,.91.61,1.53,1.56,1.53.8,0,1.37-.41,1.43-.46v.36h.96v-2.99c0-.65,0-1.12-.38-1.5-.35-.35-.79-.52-1.51-.52M52.89,22.47c-.08.04-.51.33-1.08.33-.47,0-.86-.24-.86-.74,0-.21.06-.36.19-.5.28-.28.83-.38,1.52-.38h.23v1.29ZM58.28,18.79s-.39-.24-1.02-.24c-1.31,0-2.36,1.08-2.36,2.63,0,1.46.87,2.49,2.17,2.49.79,0,1.28-.42,1.35-.47v.35h.96v-7.21h-1.1v2.45ZM58.28,22.42c-.09.06-.45.34-.98.34-.72,0-1.3-.61-1.3-1.61,0-1.09.6-1.69,1.42-1.69.47,0,.77.2.86.26v2.7ZM68.47,16.9l-1.75,5.12-1.81-5.12h-1.26l-.65,6.65h1.02l.41-5.02,1.75,5.02h.95l1.7-5.02.46,5.02h1.11l-.69-6.65h-1.25ZM73.75,18.54c-1.38,0-2.3,1.08-2.3,2.6,0,1.43.85,2.52,2.37,2.52,1.06,0,1.75-.5,1.8-.53l-.38-.72c-.14.07-.66.37-1.34.37-1.02,0-1.38-.76-1.38-1.34h3.3c0-.08.02-.23.02-.39,0-1.55-.77-2.51-2.09-2.51M72.53,20.63c.09-.74.57-1.25,1.25-1.25.87,0,1.04.83,1.04,1.25h-2.28ZM80.04,18.79c-.05-.03-.39-.24-1.02-.24-1.31,0-2.36,1.08-2.36,2.63,0,1.46.87,2.49,2.18,2.49.79,0,1.27-.42,1.34-.47v.35h.96v-7.21h-1.09v2.45ZM80.04,22.42c-.09.06-.45.34-.98.34-.72,0-1.29-.61-1.29-1.61,0-1.09.6-1.69,1.41-1.69.47,0,.77.2.86.26v2.7ZM82.96,16.58c-.36,0-.65.29-.65.65s.29.64.65.64.64-.28.64-.64-.28-.65-.64-.65M82.41,23.54h1.1v-4.86h-1.1v4.86ZM87.09,22.75c-.92,0-1.44-.69-1.44-1.65,0-.84.55-1.65,1.49-1.65.61,0,1.02.29,1.1.34l.45-.69c-.06-.08-.65-.55-1.62-.55-1.45,0-2.53,1.09-2.53,2.63s.97,2.49,2.43,2.49c1.07,0,1.75-.54,1.78-.57l-.43-.72s-.56.37-1.24.37M91.4,18.53c-1.07,0-1.7.46-1.78.53l.38.71c.07-.04.66-.38,1.32-.38.45,0,.65.08.79.22.13.13.16.3.16.61v.19h-.18c-.68,0-2.74.04-2.74,1.71,0,.91.61,1.53,1.56,1.53.8,0,1.37-.41,1.44-.46v.36h.96v-2.99c0-.65,0-1.12-.38-1.5-.35-.35-.79-.52-1.52-.52M92.25,22.47c-.08.04-.51.33-1.08.33-.47,0-.86-.24-.86-.74,0-.21.06-.36.19-.5.28-.28.83-.38,1.52-.38h.23v1.29ZM94.5,23.54h1.1v-7.21h-1.1v7.21ZM102.5,22.68c-1.36,0-2.22-.99-2.22-2.49s1.02-2.45,2.29-2.45c.91,0,1.51.44,1.59.5l.51-.77c-.07-.08-.81-.71-2.15-.71-1.91,0-3.42,1.32-3.42,3.53s1.44,3.41,3.29,3.41c1.41,0,2.24-.66,2.32-.74l-.49-.79c-.09.05-.79.52-1.72.52M107.72,18.54c-1.45,0-2.44,1.05-2.44,2.58s.96,2.54,2.35,2.54,2.44-1.04,2.44-2.58-.96-2.54-2.35-2.54M107.7,22.76c-.76,0-1.32-.67-1.32-1.68s.5-1.64,1.28-1.64,1.31.67,1.31,1.67-.47,1.64-1.26,1.64M112.07,19.3v-.62h-.96v4.87h1.1v-3.33c.11-.16.52-.75,1.4-.75.11,0,.28.02.33.03l.25-.85s-.19-.11-.54-.11c-.97,0-1.54.69-1.58.76M117.24,18.54c-.82,0-1.28.42-1.34.47v-.33h-.97v7.01h1.1v-2.26c.05.03.43.24,1.02.24,1.3,0,2.36-1.06,2.36-2.63,0-1.46-.87-2.49-2.17-2.49M116.88,22.76c-.48,0-.8-.22-.86-.26v-2.7s.43-.34.98-.34c.72,0,1.29.6,1.29,1.59,0,1.08-.6,1.7-1.41,1.7M122.67,18.54c-1.46,0-2.44,1.05-2.44,2.58s.96,2.54,2.35,2.54,2.44-1.04,2.44-2.58-.96-2.54-2.35-2.54M122.66,22.76c-.76,0-1.31-.67-1.31-1.68s.5-1.64,1.27-1.64,1.31.67,1.31,1.67-.47,1.64-1.27,1.64M127.03,19.3v-.62h-.96v4.87h1.1v-3.33c.11-.16.52-.75,1.4-.75.11,0,.28.02.33.03l.25-.85s-.19-.11-.54-.11c-.98,0-1.54.69-1.59.76M131.54,18.53c-1.08,0-1.7.46-1.78.53l.38.71c.07-.04.66-.38,1.32-.38.45,0,.65.08.79.22.13.13.16.3.16.61v.19h-.18c-.68,0-2.74.04-2.74,1.71,0,.91.61,1.53,1.56,1.53.8,0,1.37-.41,1.43-.46v.36h.96v-2.99c0-.65,0-1.12-.38-1.5-.35-.35-.79-.52-1.51-.52M132.4,22.47c-.08.04-.51.33-1.07.33-.47,0-.86-.24-.86-.74,0-.21.06-.36.19-.5.28-.28.83-.38,1.51-.38h.23v1.29ZM136.81,22.75c-.64,0-.66-.44-.66-.88v-2.29h1.43v-.9h-1.43v-1.36h-1.1v1.36h-.85v.9h.85v2.19c0,.63-.02,1.11.37,1.5.29.29.74.41,1.18.41.67,0,1.09-.26,1.14-.29l-.28-.77c-.06.02-.3.13-.65.13M138.78,23.54h1.09v-4.86h-1.09v4.86ZM139.32,16.58c-.36,0-.65.29-.65.65s.29.64.65.64.64-.28.64-.64-.28-.65-.64-.65M143.35,18.54c-1.46,0-2.44,1.05-2.44,2.58s.96,2.54,2.35,2.54,2.44-1.04,2.44-2.58-.96-2.54-2.35-2.54M143.33,22.76c-.76,0-1.32-.67-1.32-1.68s.5-1.64,1.28-1.64,1.3.67,1.3,1.67-.47,1.64-1.26,1.64M150.36,18.99c-.23-.23-.62-.45-1.22-.45-.76,0-1.37.44-1.45.49v-.36h-.96v4.87h1.1v-3.71c.07-.05.54-.36,1.09-.36.31,0,.52.12.61.21.22.22.23.57.23,1.2v2.66h1.1v-2.72c0-.71.01-1.32-.5-1.83"/>
    <path class="cls-2" d="M105.83,6.52c.36,0,.64-.28.64-.64s-.28-.65-.64-.65-.65.29-.65.65.29.64.65.64M34.66,6.52c.36,0,.64-.28.64-.64s-.28-.65-.64-.65-.65.29-.65.65.29.64.65.64M32.92,6.52c.36,0,.64-.28.64-.64s-.28-.65-.64-.65-.65.29-.65.65.29.64.65.64M107.57,6.52c.36,0,.64-.28.64-.64s-.28-.65-.64-.65-.65.29-.65.65.29.64.65.64M139.46,5.91h-1.43c-.09-.13-.13-.29-.13-.48,0-.49.17-.72.53-.72.28,0,.45.15.52.46l.52-.05c-.12-.57-.46-.85-1.04-.85-.66,0-1.08.43-1.08,1.17,0,.17.03.33.08.48h-.53v.53h2.55v-.53ZM41.19,13.3c-.36,0-.65.29-.65.65s.29.64.65.64.64-.28.64-.64-.28-.65-.64-.65M42.93,13.3c-.36,0-.65.29-.65.65s.29.64.65.64.64-.28.64-.64-.28-.65-.64-.65M66.31,5.29h-1.1v5.41c0,.44-.02.88-.66.88-.15,0-2.01,0-4.07,0,.03-.21.05-.43.05-.66,0-2.14-1.43-3.4-3.29-3.4-.03,0-.07,0-.11,0-.04,0-.07,0-.11,0-.85,0-1.61.27-2.19.77v-2.98h-1.1v6.29h-4.94c-.55,0-.64-.32-.65-.69,0-.09,0-3.23,0-3.23h-1.1s0,3.14,0,3.23c-.02.37-.11.69-.66.69h-2.17c-.55,0-.64-.32-.65-.69v-3.23h-1.1v3.23c-.01.37-.1.7-.65.7h-5.98c-.52,0-.63-.29-.65-.64v-3.1s-.83-.33-2.06-.33c-1.3,0-2.41,1.03-2.41,2.49,0,1.54,1.05,2.63,2.36,2.63.63,0,.97-.22,1.02-.25.09-.06.22-.16.37-.27.29.28.73.4,1.17.4h6.39c.35,0,.71-.08.99-.26.28.19.64.26.99.26h2.59c.35,0,.71-.08.99-.26.28.19.64.26,1,.26h16.17c.44,0,.89-.12,1.17-.41.39-.39.37-.87.37-1.49v-5.31ZM34.09,11.45c-.09.06-.39.26-.86.26-.82,0-1.42-.61-1.42-1.69,0-1,.7-1.6,1.53-1.6.42,0,.74.13.74.13v2.91ZM59.29,11.57c-1.89,0-3.71,0-4.37,0v-.56c0-1.5.85-2.49,2.21-2.49,1.36,0,2.21.99,2.21,2.49,0,.2-.02.39-.06.57M95.89,7.51c-1.4,0-2.24.65-2.32.74l.49.78c.09-.05.79-.52,1.71-.52,1.36,0,2.22.98,2.22,2.49,0,.13-.03.38-.08.59h-7.45c.05-.11.08-.46.08-.59,0-1.51-.96-2.54-2.35-2.54s-2.44,1.06-2.44,2.58c0,.02,0,.04,0,.07-.05.26-.2.47-.63.47-.15,0-3.28,0-5.45,0,.03-.21.05-.43.05-.66,0-2.14-1.43-3.4-3.29-3.4h0v1.01c1.29.06,2.1,1.02,2.1,2.49,0,.2-.02.39-.05.57-2.38,0-4.67,0-4.81,0v.93c.35,0,10.99,0,11.66,0,.25,0,.5-.04.72-.12.39.75,1.12,1.21,2.04,1.21s1.64-.41,2.05-1.09h8.77c.16-.42.25-1.05.25-1.58,0-2.14-1.44-3.4-3.29-3.4M88.18,12.68c-.76,0-1.31-.67-1.31-1.67s.5-1.63,1.27-1.63,1.31.67,1.31,1.68-.47,1.63-1.27,1.63M148.71,8.46c-1.45,0-2.44,1.06-2.44,2.58,0,.05,0,.09,0,.14-.06.23-.22.4-.62.4-.26,0-3.55,0-5.22-.01v-1.9c0-1.48-.8-2.16-2.05-2.16-1.46,0-2.44,1.06-2.44,2.58s.96,2.41,2.35,2.41h1.06c0,.48-.03.86-.33,1.11-.19.16-.47.28-.92.28v.92c.87,0,1.5-.27,1.84-.61.46-.47.5-.98.5-1.7,1.66,0,4.92,0,5.43,0,.24,0,.49-.04.71-.12.39.75,1.12,1.2,2.04,1.2,1.45,0,2.44-1.05,2.44-2.58s-.96-2.54-2.35-2.54M139.32,11.57c-.31,0-.43.02-.97.02-.72,0-1.3-.47-1.3-1.47,0-1.09.51-1.7,1.32-1.7.66,0,.95.6.95,1.2v1.95ZM148.69,12.68c-.76,0-1.31-.67-1.31-1.67s.5-1.63,1.28-1.63,1.3.67,1.3,1.68-.47,1.63-1.26,1.63M68.02,12.49h1.09v-7.2h-1.09v7.2ZM133.4,7.69v2.75c0,.33,0,.83-.2,1.08-.13.16-.32.24-.6.24-.51,0-1.22-.32-1.32-.38.07-.2.07-.5.07-1.1v-2.58h-1.09v2.68c0,.53,0,.95-.23,1.18-.11.12-.29.2-.55.2-.5,0-1.21-.29-1.28-.34v-3.72h-1.09v3.29c-.03.33-.15.59-.65.59-.28,0-2.47,0-3.97-.01.12-.39.12-.87.12-1.44v-2.43h-1.09v2.75c0,.33,0,.83-.2,1.08-.13.16-.32.24-.6.24-.51,0-1.22-.32-1.32-.38.07-.2.07-.5.07-1.1v-2.58h-1.09v2.68c0,.53,0,.95-.23,1.18-.11.12-.29.2-.55.2-.5,0-1.21-.29-1.28-.34v-3.72h-1.1v3.29c-.03.33-.15.59-.65.59h-5.82c-.52,0-.63-.29-.65-.64v-3.1s-.83-.33-2.06-.33c-1.3,0-2.41,1.03-2.41,2.49,0,1.54,1.05,2.63,2.36,2.63.63,0,.96-.22,1.02-.25.09-.06.22-.16.37-.27.29.28.73.4,1.17.4h6.24c.44,0,.89-.12,1.17-.41.02-.01.02-.03.04-.04l.19.14c.08.06.9.5,1.66.5.69,0,1.04-.35,1.2-.55.24.16,1.06.55,1.85.55.35,0,.64-.08.87-.2,1.34,0,4.33,0,4.91,0,.44,0,.88-.12,1.18-.41.01-.01.02-.03.03-.04l.18.14c.08.06.9.5,1.66.5.69,0,1.04-.35,1.2-.55.24.16,1.06.55,1.85.55.55,0,.97-.2,1.21-.44.52-.52.52-1.18.52-2.13v-2.43h-1.09ZM107,9.37h0v1.23c0,.17,0,.33,0,.49v.36c-.09.06-.39.26-.86.26-.82,0-1.41-.61-1.41-1.69,0-1,.7-1.6,1.53-1.6.42,0,.74.13.74.13v.83ZM47.51,13.3c-.36,0-.65.29-.65.65s.29.64.65.64.64-.28.64-.64-.28-.65-.64-.65"/>
    <polygon class="cls-2" points="31.94 34.16 31.94 33.02 31.04 33.02 31.04 34.16 30.38 34.16 30.38 31.45 31.04 31.45 31.04 32.48 31.94 32.48 31.94 31.45 32.61 31.45 32.61 34.16 31.94 34.16"/>
    <polygon class="cls-2" points="93.89 34.16 93.89 33.02 92.99 33.02 92.99 34.16 92.32 34.16 92.32 31.45 92.99 31.45 92.99 32.48 93.89 32.48 93.89 31.45 94.55 31.45 94.55 34.16 93.89 34.16"/>
    <polygon class="cls-2" points="33.14 34.16 33.14 31.45 34.86 31.45 34.86 31.98 33.81 31.98 33.81 32.52 34.79 32.52 34.79 33.04 33.81 33.04 33.81 33.62 34.89 33.62 34.89 34.16 33.14 34.16"/>
    <path class="cls-2" d="M37.14,34.16l-.15-.5h-.95l-.16.5h-.68l.98-2.71h.67l.99,2.71h-.69ZM36.5,32.14l-.31,1.01h.63l-.32-1.01Z"/>
    <polygon class="cls-2" points="38.17 34.16 38.17 31.45 38.85 31.45 38.85 33.62 39.87 33.62 39.87 34.16 38.17 34.16"/>
    <polygon class="cls-2" points="41.15 31.98 41.15 34.16 40.47 34.16 40.47 31.98 39.75 31.98 39.75 31.45 41.87 31.45 41.87 31.98 41.15 31.98"/>
    <polygon class="cls-2" points="43.8 34.16 43.8 33.02 42.9 33.02 42.9 34.16 42.24 34.16 42.24 31.45 42.9 31.45 42.9 32.48 43.8 32.48 43.8 31.45 44.47 31.45 44.47 34.16 43.8 34.16"/>
    <polygon class="cls-2" points="48.86 34.16 48.86 31.45 50.58 31.45 50.58 31.98 49.53 31.98 49.53 32.52 50.51 32.52 50.51 33.04 49.53 33.04 49.53 33.62 50.61 33.62 50.61 34.16 48.86 34.16"/>
    <path class="cls-2" d="M53.15,33.73c-.42.42-.98.43-1.51.43h-.58v-2.71h.75c.59,0,.98.02,1.34.37.23.23.36.59.36.96,0,.35-.12.71-.36.95M52.63,32.17c-.2-.19-.39-.2-.73-.2h-.18v1.67h.28c.55,0,.84-.31.84-.87,0-.27-.07-.46-.21-.6"/>
    <path class="cls-2" d="M55.89,33.91c-.1.09-.32.31-.85.31-.3,0-.6-.08-.84-.31-.24-.24-.26-.54-.26-.93v-1.53h.67v1.67c0,.14.01.3.12.41.07.07.19.11.33.11.17,0,.27-.06.34-.13.1-.11.11-.24.11-.56v-1.51h.65v1.61c0,.47-.07.67-.27.86"/>
    <path class="cls-2" d="M57.95,34.22c-.81,0-1.38-.56-1.38-1.39,0-.9.62-1.46,1.46-1.46.58,0,.87.25.93.31l-.28.43s-.27-.18-.59-.18c-.5,0-.84.36-.84.86,0,.47.29.85.78.85.35,0,.62-.18.69-.23l.27.44s-.35.35-1.04.35"/>
    <path class="cls-2" d="M61.2,34.16l-.15-.5h-.95l-.16.5h-.68l.98-2.71h.67l.99,2.71h-.69ZM60.56,32.14l-.31,1.01h.63l-.32-1.01Z"/>
    <polygon class="cls-2" points="63.21 31.98 63.21 34.16 62.54 34.16 62.54 31.98 61.82 31.98 61.82 31.45 63.93 31.45 63.93 31.98 63.21 31.98"/>
    <rect class="cls-2" x="64.3" y="31.45" width=".67" height="2.71"/>
    <path class="cls-2" d="M66.78,34.22c-.83,0-1.37-.6-1.37-1.46,0-.82.54-1.39,1.35-1.39s1.37.6,1.37,1.4c0,.88-.57,1.45-1.35,1.45M66.75,31.92c-.4,0-.66.37-.66.91s.3.85.7.85c.57,0,.67-.55.67-.9,0-.49-.28-.85-.71-.85"/>
    <polygon class="cls-2" points="70.26 34.16 69.17 32.5 69.18 34.16 68.58 34.16 68.58 31.45 69.16 31.45 70.21 33.08 70.2 31.45 70.8 31.45 70.8 34.16 70.26 34.16"/>
    <path class="cls-2" d="M76.62,34.16l-.27-.6c-.03-.07-.11-.26-.2-.35-.07-.07-.16-.07-.26-.07h-.04v1.02h-.66v-2.71h.74c.35,0,.7-.02.97.25.12.12.22.29.22.53,0,.37-.23.65-.71.7.16,0,.27.07.36.15.12.12.19.3.28.48l.27.59h-.71ZM76.41,32.05c-.09-.08-.21-.09-.4-.09h-.16v.68h.19c.16,0,.44,0,.44-.35,0-.08-.02-.17-.08-.23"/>
    <polygon class="cls-2" points="77.69 34.16 77.69 31.45 79.4 31.45 79.4 31.98 78.35 31.98 78.35 32.52 79.34 32.52 79.34 33.04 78.35 33.04 78.35 33.62 79.43 33.62 79.43 34.16 77.69 34.16"/>
    <path class="cls-2" d="M80.68,34.22c-.56,0-.88-.23-.95-.31l.28-.44c.06.03.29.2.63.2.22,0,.4-.08.4-.29,0-.07-.02-.12-.07-.18-.13-.13-.68-.26-.95-.53-.11-.1-.2-.24-.2-.48,0-.49.43-.82.99-.82.51,0,.83.24.88.29l-.29.42c-.05-.03-.28-.18-.57-.18-.22,0-.35.08-.35.24,0,.09.04.13.08.16.13.13.65.24.95.54.13.12.2.3.2.5,0,.53-.42.88-1.02.88"/>
    <polygon class="cls-2" points="82.17 34.16 82.17 31.45 83.88 31.45 83.88 31.98 82.83 31.98 82.83 32.52 83.81 32.52 83.81 33.04 82.83 33.04 82.83 33.62 83.91 33.62 83.91 34.16 82.17 34.16"/>
    <path class="cls-2" d="M86.16,34.16l-.15-.5h-.95l-.16.5h-.68l.98-2.71h.67l.99,2.71h-.69ZM85.52,32.14l-.31,1.01h.63l-.32-1.01Z"/>
    <path class="cls-2" d="M88.61,34.16l-.27-.6c-.03-.07-.11-.26-.2-.35-.07-.07-.16-.07-.25-.07h-.04v1.02h-.66v-2.71h.74c.35,0,.69-.02.97.25.12.12.22.29.22.53,0,.37-.23.65-.71.7.16,0,.27.07.36.15.12.12.19.3.28.48l.27.59h-.71ZM88.4,32.05c-.08-.08-.21-.09-.4-.09h-.16v.68h.19c.16,0,.44,0,.44-.35,0-.08-.02-.17-.08-.23"/>
    <path class="cls-2" d="M90.94,34.22c-.81,0-1.38-.56-1.38-1.39,0-.9.62-1.46,1.46-1.46.58,0,.86.25.93.31l-.28.43s-.27-.18-.59-.18c-.49,0-.84.36-.84.86,0,.47.29.85.78.85.35,0,.62-.18.69-.23l.28.44s-.35.35-1.05.35"/>
    <path class="cls-2" d="M73,33.27c-.29,0-.52-.23-.52-.52s.23-.51.52-.51.51.23.51.51-.23.52-.51.52"/>
    <path class="cls-2" d="M46.8,33.27c-.29,0-.52-.23-.52-.52s.23-.51.52-.51.51.23.51.51-.23.52-.51.52"/>
    <path class="cls-2" d="M119.25,33.27c-.29,0-.52-.23-.52-.52s.23-.51.52-.51.51.23.51.51-.22.52-.51.52"/>
    <path class="cls-2" d="M137.74,33.27c-.28,0-.52-.23-.52-.52s.23-.51.52-.51.51.23.51.51-.23.52-.51.52"/>
    <path class="cls-2" d="M108.57,33.26c0,.51-.3.8-.82.8h-1.76c-1.08,0-1.61-.45-1.61-1.36v-.85h.67v.85c0,.28.09.48.27.59.14.08.37.12.68.12h1.25c.19,0,.32-.02.4-.05.16-.07.24-.22.24-.45v-1.05h.67v1.4ZM106.37,31.85h-.61v-.56h.61v.56ZM106.82,31.08h-.6v-.56h.6v.56ZM107.29,31.85h-.61v-.56h.61v.56Z"/>
    <path class="cls-2" d="M116.36,34.86h.6v-.56h-.6v.56ZM116.32,31.85v1.07c0,.32-.12.48-.34.48h-.84c-.08-.72-.39-1.2-.91-1.45-.22-.1-.47-.15-.76-.15-.47,0-.87.17-1.2.52.16.22.27.37.34.46.19-.2.52-.35.81-.35.31,0,.56.11.75.31.17.18.26.4.28.66h-3.24v-.44c0-.65-.46-1.12-1.08-1.12s-1.1.44-1.1,1.1.47,1.11,1.1,1.11c.23,0,.36,0,.42-.03-.05.19-.21.28-.47.28h-.06v.54h.07c.66,0,1.03-.26,1.11-.8h4.92c.28,0,.5-.1.66-.29.14-.17.21-.39.21-.64v-1.26h-.68ZM110.53,33.41h-.39c-.25,0-.42-.21-.42-.48s.14-.46.39-.46.42.18.42.47v.47Z"/>
    <path class="cls-2" d="M125.68,34.86h.6v-.56h-.6v.56ZM126.6,34.86h.6v-.56h-.6v.56ZM134.42,30.93h-.6v.56h.6v-.56ZM135.33,30.93h-.61v.56h.61v-.56ZM134.7,31.85v1.07c0,.32-.12.48-.35.48h-1.38c-.16,0-.28-.04-.37-.12.18-.11.36-.27.56-.5.18-.21.3-.38.36-.52-.46-.35-.96-.53-1.5-.53-.45,0-.9.13-1.35.4v.56c.19.03.39.12.59.24.17.11.3.21.37.31-.18.11-.39.17-.63.17h-1.72c.05-.15.08-.31.08-.49v-1.99h-.68v2.01c0,.31-.12.47-.35.47h-1.14c.05-.15.08-.31.08-.49v-1.06h-.68v1.08c0,.31-.11.47-.34.47h-.42c-.52-.01-.72-.19-.85-.75-.11-.49-.51-.81-1.08-.81h-1.38c-.72,0-1.21.51-1.21,1.29v1.72h.67v-1.61c0-.49.19-.74.57-.74h.31c-.05.14-.08.29-.08.45,0,.66.43,1.1,1.1,1.1.4,0,.7-.13.91-.39.27.26.6.37,1.02.37h0s5.21,0,5.21,0c.2,0,.4-.04.6-.1.19-.06.34-.14.46-.24.22.23.47.34.75.34h1.68c.28,0,.51-.1.67-.29.14-.17.21-.39.21-.64v-1.27h-.68ZM123.9,33.52h-.05c-.25,0-.42-.23-.42-.55s.17-.56.45-.56.45.21.45.54c0,.38-.15.57-.43.57M132.45,32.69c-.11.1-.22.18-.32.22-.11-.13-.21-.23-.3-.29-.09-.06-.2-.13-.35-.19.19-.09.38-.14.58-.14s.4.06.61.16c-.04.07-.12.15-.22.24"/>
    <path class="cls-2" d="M140.82,30.36h-.6v.56h.6v-.56ZM141.73,30.36h-.6v.56h.6v-.56ZM149.6,31.85c-.54,0-1.11.33-1.54.89v-.65h-.68v.85c0,.35-.12.47-.34.47h-.91c-.08-.72-.39-1.2-.91-1.45-.22-.1-.47-.15-.76-.15-.47,0-.87.17-1.2.52.16.22.27.37.34.46.19-.2.52-.35.81-.35s.56.11.75.31c.17.18.26.4.28.66h-2.95c-.33,0-.5-.18-.5-.5v-1.53c-.86,0-1.3,0-1.3,0-.64,0-1.01.46-1.01,1.19,0,.67.37,1.17.96,1.17.34,0,.57-.1.69-.29.16.4.42.6.81.6h8.78c.01-.15.02-.3.02-.45,0-1.1-.47-1.76-1.34-1.76M141.28,32.52c0,.4-.17.67-.46.67-.27,0-.47-.28-.47-.62,0-.38.21-.68.48-.68h.45v.64ZM150.22,33.41h-1.99c.38-.64.82-.97,1.32-.97.43,0,.67.38.67.88v.09Z"/>
  </g>
</svg>