<?xml version="1.0" encoding="UTF-8"?>
<svg id="Layer_2" data-name="Layer 2" xmlns="http://www.w3.org/2000/svg" viewBox="0 0 138.99 66.31">
  <defs>
    <style>
      .cls-1 {
        fill: #781e39;
      }

      .cls-2 {
        fill: #3e4e60;
      }
    </style>
  </defs>
  <g id="Layer_1-2" data-name="Layer 1">
    <g id="Layer_1-2" data-name="Layer 1-2">
      <g>
        <path class="cls-2" d="M57.58,58.79c.42.21.78.39,1.13.58,1.36.7,2.23,1.65,2.27,3.34.05,2.11.66,2.6,2.73,2.66.57.01,1.13.03,1.7.04.03.12.06.25.09.37-.24.17-.48.47-.73.48-1.43.05-2.88.09-4.31,0-2.31-.13-3.4-1.36-3.51-3.69-.04-.86-.22-1.71-.35-2.65-1.23.7-2.24,1.34-3.3,1.86-4.03,1.98-11.15,1.81-15.19-2.37-2.24-2.31-3.47-5.16-4.05-8.26-.68-3.59-.31-7.12,1.02-10.57,2.04-5.27,6.59-8.33,11.97-8.39,4.19-.05,7.78,1.19,10.51,4.43,1.88,2.24,2.87,4.95,3.37,7.81.87,4.95-.2,9.49-2.96,13.66-.13.19-.22.4-.39.7h0ZM39.05,47.1c-.08,3.34.2,6.48,1.16,9.54,1.09,3.48,3.68,5.4,7.35,5.36,3.59-.03,6.28-1.95,7.2-5.34,1.6-5.94,1.67-11.93.08-17.88-.93-3.47-3.69-5.49-7.26-5.51-3.74-.02-6.4,1.96-7.46,5.49-.83,2.77-1.15,5.61-1.06,8.33h0Z"/>
        <path class="cls-2" d="M21.01,27.13c.95.07,1.9.14,2.86.21-.57.87-1.3.66-1.95.66-2.9-.04-5.8-.12-8.71-.2v-.49c1.08-.05,2.18-.11,3.24-.16.35-1.35.44-16.21.1-18.46-1.1-.08-2.23-.16-3.73-.27,1.33-.71,4.69-.84,7.8-.46.06,1.06.13,2.16.22,3.64.41-.53.63-.76.79-1.02.86-1.46,2.12-2.42,3.75-2.87,1.95-.53,3.89-.55,5.83.05,1.52.47,2.39,1.55,2.73,3.04.2.86.3,1.77.31,2.66.03,3.89.01,7.79.01,11.68v1.95c1.11.09,2.14.17,3.16.25-1.02,1.02-2.21.58-3.31.65-1.25.08-2.51.06-3.77,0-1.15-.05-2.34.26-3.68-.34,1.11-.8,2.26-.17,3.34-.64.05-.38.16-.83.16-1.28.01-4.13.03-8.27,0-12.4,0-.83-.1-1.68-.33-2.48-.52-1.8-1.65-2.48-3.51-2.32-2.9.24-4.52,2.42-5.27,5.14-.14.52-.25,1.06-.25,1.6-.03,3.77-.03,7.54-.03,11.31,0,.16.13.32.23.54h0Z"/>
        <path class="cls-2" d="M76.63,60.26c-2.07,1.48-4.06,2.44-6.45,2.46-3.06.03-5.24-1.78-5.93-4.03-.81-2.61.33-5.44,2.75-6.98,1.33-.84,2.77-1.38,4.36-1.5,1.61-.12,3.22-.24,5.06-.38.04-1.8.24-3.62-.37-5.41-.27-.79-.8-1.28-1.6-1.56-2.6-.92-4.67.37-4.92,3.12-.15,1.65-.43,2.01-1.62,2.12-1.92.17-2.67-.8-2.02-2.63.59-1.65,1.77-2.68,3.43-3.12,2.47-.66,4.95-.61,7.45-.08,2.09.45,3.16,1.82,3.57,3.78.19.93.27,1.9.28,2.85.03,3.23,0,6.46.02,9.7.02,2.63.19,2.8,2.75,3.2.15.03.3.14.46.22-.67.66-1.94.81-3.96.62-1.51-.15-2.55-.92-3.25-2.37h0ZM76.44,50.94c-1.63,0-3.01-.12-4.36.03-1.66.19-2.91,1.12-3.46,2.75-.57,1.67-.7,3.38-.17,5.11.61,1.99,1.93,3.06,3.74,2.94,1.88-.12,4.15-2.08,4.22-3.82.09-2.26.02-4.53.02-7.01h0Z"/>
        <path class="cls-2" d="M119.68,61.98c-2.72,1.4-5.37.72-7.14-1.39-1.7.69-3.3,1.56-5,1.96-2.39.57-4.67.05-6.36-1.93-2.36-2.76-1.5-6.92,1.78-8.98,2.06-1.29,4.37-1.53,6.71-1.65.82-.04,1.65,0,2.53,0,.32-1.99.28-3.78-.27-5.49-.18-.56-.71-1.15-1.23-1.44-2.28-1.27-4.98.12-5.36,2.68-.04.24-.03.48-.06.72-.2,1.51-1.99,2.3-3.19,1.36-.27-.21-.43-.71-.46-1.08-.14-1.85.9-3.05,2.38-3.9.66-.38,1.45-.7,2.19-.73,1.96-.08,3.94-.12,5.89.07,2.89.28,4.2,2.42,4.24,5.12.05,3.53.01,7.07.03,10.61,0,.59.02,1.2.12,1.79.26,1.46.64,1.79,2.08,2.04.38.06.75.16,1.12.24h0ZM112.36,50.93c-1.65,0-3.02-.09-4.37.03-1.29.12-2.45.75-3.07,1.92-1.24,2.36-1.26,4.79-.07,7.2.15.31.42.58.68.81,1.08.96,2.33,1.19,3.65.6,1.59-.71,2.98-1.76,3.13-3.59.18-2.24.04-4.5.04-6.96h0Z"/>
        <path class="cls-1" d="M130.36,19.46c-2.93-2.96-5.57-5.62-8.51-8.59h8.05c.06-.13.12-.25.18-.38-2.7-2.71-5.4-5.41-8.39-8.42v8.1c-1.25-.56-7.12-6.31-8.25-8h16.77v25.41c-2.5-2.62-5.07-5.31-7.57-7.93,2.15-.26,4.73.1,7.72-.21h0Z"/>
        <path class="cls-2" d="M76.92,22.45c-.71,2.62-2.21,4.6-4.92,5.48-1.72.56-3.5.7-5.31.51-3.05-.32-5.22-1.87-6.67-4.53-1.65-3.01-2.03-9.37,1.03-13.28,3.55-4.55,11.86-4.41,14.7.54.84,1.46,1.39,3.35,1.19,5.27h-13.67c-.25,3.15-.02,6.03,1.43,8.66,1.04,1.89,3.73,2.79,6.18,2.27,2.26-.48,3.84-1.84,4.9-3.86.23-.44.46-.89.69-1.33.15.09.31.18.46.27h0ZM63.22,15.31h9.04c.38-1.67-.03-3.15-.52-4.61-.56-1.69-1.87-2.42-3.53-2.56-1.62-.14-2.94.53-3.73,1.97-.83,1.53-1.35,3.17-1.27,5.2h0Z"/>
        <path class="cls-2" d="M93.9,14.09c-.41-.42-.68-.58-.77-.81-.21-.49-.32-1.03-.51-1.53-1.05-2.77-3.08-3.88-5.97-3.25-1.21.27-2.06.99-2.32,2.23-.28,1.32.25,2.4,1.33,3.11.79.51,1.73.81,2.6,1.18,1.48.63,3.03,1.13,4.46,1.88,3.84,2,4.12,7.54.58,10.03-1.21.85-2.54,1.29-3.99,1.47-2.86.35-5.57-.18-8.45-1.12v-6.37c1.06-.44,1.2.14,1.24.8.08,1.41.49,2.68,1.35,3.83,1.84,2.49,5.58,2.95,7.98.97,1.55-1.28,1.72-3.49.28-4.9-.54-.53-1.24-.94-1.93-1.26-1.68-.78-3.43-1.41-5.09-2.22-2.58-1.26-3.49-3.17-3.1-5.84.45-3.08,2.75-4.54,5.03-4.85,2.54-.35,4.96.27,7.28,1.11v5.54h0Z"/>
        <path class="cls-2" d="M100.19,8.71c-1.07-.11-1.96-.21-2.85-.3.78-.95,1.83-.32,2.83-.89V2.24h4.14v5.55h4.95c-.85,1.08-1.67.69-2.36.75-.76.06-1.53.01-2.42.01-.05.7-.13,1.22-.13,1.74-.01,4.25,0,8.5,0,12.75,0,.3,0,.6.02.9.06,1.19.58,2.12,1.74,2.45,1.16.33,2.27.16,3.06-.9.17-.23.34-.47.66-.92.12.49.34.85.24,1.06-1.08,2.26-3.39,3.19-6.06,2.75-2.27-.37-3.79-2.28-3.81-4.74-.04-4.31-.01-8.62-.01-12.93v-2h0Z"/>
        <path class="cls-2" d="M91.34,42.25c1.7.08,3.07.15,4.44.21,0,.13,0,.27,0,.4-1.3.6-2.77-.04-4.18.43-.05.18-.17.39-.17.61-.01,4.85,0,9.7-.01,14.56,0,1.15.49,2,1.53,2.41,1.06.43,2.12.32,3-.52.3-.28.55-.62.98-1.12.11.43.32.77.23.97-.99,2.08-3.62,3.24-6.09,2.74-2.35-.48-3.7-2.13-3.74-4.78-.05-4.25-.01-8.51-.01-12.76v-2.11c-.99-.13-1.9-.24-3.03-.38.9-.99,2.01-.24,2.99-.93v-5.07h4.09v5.33h0Z"/>
        <path class="cls-2" d="M129.27,61.67c1.15.07,2.15.13,3.35.2-.24.35-.38.73-.52.73-3.42.03-6.83.02-10.24,0-.12,0-.24-.23-.45-.45,1.12-.74,2.37-.08,3.44-.5.45-1.22.61-15.61.19-18.26-1.04-.68-2.43.17-3.62-.64.24-.18.37-.35.49-.35,2.33-.02,4.66-.01,7.21-.01v4.29c.09.01.19.03.28.04.59-.93,1.16-1.89,1.79-2.8,1-1.44,2.41-2.07,4.17-2.02,2.72.08,4.45,2.97,3.24,5.42-.44.89-1.3,1.28-2.24,1.04-.94-.25-1.57-1.11-1.52-2.17.03-.59.2-1.19.18-1.78-.04-1.04-.74-1.54-1.7-1.13-.58.25-1.13.68-1.52,1.17-1.42,1.77-2.37,3.84-2.48,6.06-.19,3.64-.05,7.3-.05,11.16h0Z"/>
        <path class="cls-2" d="M36.21,8.43c1.42-.79,10.1-.77,11.49-.22-1.18.76-2.54-.04-3.76.69,1.66,4.54,3.31,9.03,4.97,13.53.13,0,.27.01.4.02,1.74-4.51,3.48-9.01,5.33-13.8-1.5-.06-2.76-.11-4.26-.17,1.03-.78,5.94-.95,8.36-.46-.2.78-.86.56-1.29.51-1.24-.14-1.78.42-2.21,1.53-2.14,5.51-4.36,10.99-6.59,16.46-.23.57-.64,1.4-1.07,1.47-.93.15-.95-.93-1.19-1.52-2.2-5.42-4.35-10.86-6.5-16.3-.61-1.56-.59-1.56-2.3-1.62-.46-.02-.91-.08-1.37-.13h0Z"/>
        <path class="cls-2" d="M0,27.21h3.41c.4-1.41.49-16.3.12-18.52-1.07-.09-2.19-.17-3.31-.26v-.49c1.17-.32,2.4-.1,3.59-.14,1.19-.04,2.39,0,3.84,0,.1,2.18.03,4.31.04,6.43.01,2.09,0,4.19,0,6.28v6.59c1.29.08,2.42.16,3.55.23v.48c-3.61.07-7.23.13-10.85.16-.08,0-.15-.27-.4-.75h0Z"/>
        <path class="cls-1" d="M130.84,10.85h7.72c.06-.12.12-.24.17-.36-2.65-2.68-5.3-5.36-8.16-8.24h8.25v16.66c-2.58-2.59-5.17-5.2-7.99-8.05h0Z"/>
        <path class="cls-1" d="M121.54,18.71c-2.62-2.55-5.25-5.12-7.94-7.74h7.94v7.74Z"/>
        <path class="cls-1" d="M138.84,27.54c-2.56-2.6-5.17-5.25-7.74-7.87h7.74v7.87Z"/>
        <path class="cls-1" d="M7.66,0v7.23C5.26,4.74,2.95,2.36.67,0h6.99,0Z"/>
      </g>
    </g>
  </g>
</svg>