<?xml version="1.0" encoding="UTF-8"?>
<svg id="Layer_2" data-name="Layer 2" xmlns="http://www.w3.org/2000/svg" xmlns:xlink="http://www.w3.org/1999/xlink" viewBox="0 0 237.45 58.16">
  <defs>
    <style>
      .cls-1 {
        fill: #3a577c;
      }

      .cls-2 {
        fill: #325881;
      }

      .cls-3 {
        fill: #33587e;
      }

      .cls-4 {
        fill: #3a5a7c;
      }

      .cls-5 {
        fill: #00578e;
      }

      .cls-6 {
        fill: #105789;
      }

      .cls-7 {
        clip-path: url(#clippath-4);
      }

      .cls-8 {
        fill: #2f5f92;
      }

      .cls-9 {
        fill: url(#linear-gradient-2);
      }

      .cls-10 {
        fill: #225786;
      }

      .cls-11 {
        fill: #475675;
      }

      .cls-12 {
        fill: #4b5d7a;
      }

      .cls-13 {
        fill: #33577f;
      }

      .cls-14 {
        fill: #32577f;
      }

      .cls-15 {
        fill: #435d7c;
      }

      .cls-16 {
        fill: #fff;
      }

      .cls-17 {
        fill: #305b81;
      }

      .cls-18 {
        fill: #005694;
      }

      .cls-19 {
        fill: #005790;
      }

      .cls-20 {
        fill: #2c5882;
      }

      .cls-21 {
        fill: #33577d;
      }

      .cls-22 {
        fill: #31577c;
      }

      .cls-23 {
        fill: #00578f;
      }

      .cls-24 {
        fill: #295883;
      }

      .cls-25 {
        fill: none;
      }

      .cls-26 {
        fill: url(#linear-gradient-4);
      }

      .cls-27 {
        fill: #005695;
      }

      .cls-28 {
        fill: #205787;
      }

      .cls-29 {
        fill: #195786;
      }

      .cls-30 {
        fill: #f7fbff;
      }

      .cls-31 {
        fill: #36577d;
      }

      .cls-32 {
        fill: #1c5886;
      }

      .cls-33 {
        fill: #36587f;
      }

      .cls-34 {
        fill: #005595;
      }

      .cls-35 {
        fill: #e0ecf8;
      }

      .cls-36 {
        fill: #395b7c;
      }

      .cls-37 {
        fill: url(#linear-gradient-3);
      }

      .cls-38 {
        clip-path: url(#clippath-1);
      }

      .cls-39 {
        fill: #ebf1f0;
      }

      .cls-40 {
        fill: #43567a;
      }

      .cls-41 {
        fill: url(#linear-gradient-5);
      }

      .cls-42 {
        fill: #35567b;
      }

      .cls-43 {
        fill: #cedfee;
      }

      .cls-44 {
        fill: #39577c;
      }

      .cls-45 {
        fill: #435776;
      }

      .cls-46 {
        fill: #40597d;
      }

      .cls-47 {
        fill: #2b5a7f;
      }

      .cls-48 {
        fill: #275882;
      }

      .cls-49 {
        fill: #005594;
      }

      .cls-50 {
        fill: #445774;
      }

      .cls-51 {
        fill: #32567f;
      }

      .cls-52 {
        clip-path: url(#clippath-3);
      }

      .cls-53 {
        fill: #35577b;
      }

      .cls-54 {
        fill: #475978;
      }

      .cls-55 {
        fill: #425679;
      }

      .cls-56 {
        fill: #37577e;
      }

      .cls-57 {
        fill: #295781;
      }

      .cls-58 {
        fill: #345871;
      }

      .cls-59 {
        fill: #4f6079;
      }

      .cls-60 {
        fill: #005690;
      }

      .cls-61 {
        fill: #3c5979;
      }

      .cls-62 {
        fill: #165787;
      }

      .cls-63 {
        fill: #265884;
      }

      .cls-64 {
        fill: #1e5787;
      }

      .cls-65 {
        fill: #33577e;
      }

      .cls-66 {
        fill: #255781;
      }

      .cls-67 {
        fill: #e1ebf2;
      }

      .cls-68 {
        fill: #3e567b;
      }

      .cls-69 {
        fill: #074e89;
      }

      .cls-70 {
        fill: #305a80;
      }

      .cls-71 {
        fill: #e5eff8;
      }

      .cls-72 {
        fill: #36547a;
      }

      .cls-73 {
        clip-path: url(#clippath-2);
      }

      .cls-74 {
        fill: #32577e;
      }

      .cls-75 {
        fill: #35597c;
      }

      .cls-76 {
        fill: #315681;
      }

      .cls-77 {
        fill: url(#linear-gradient);
      }

      .cls-78 {
        clip-path: url(#clippath);
      }

      .cls-79 {
        fill: #2e5780;
      }

      .cls-80 {
        fill: #34577c;
      }

      .cls-81 {
        fill: #00568f;
      }

      .cls-82 {
        fill: #3e567c;
      }

      .cls-83 {
        fill: #425a7b;
      }

      .cls-84 {
        fill: #3a587b;
      }
    </style>
    <clipPath id="clippath">
      <path class="cls-25" d="M190.75,8.77v18.98s2.46-1.64,4.04-2.39c8.93-4.27,14.88-.02,14.88-.02,2.65-.6,5.84-.87,9.84-.59-1.17-.87-2.58-1.78-4.2-2.56-6.19-2.98-12.27-2.64-18.06,1.01l-2.45,1.55V4.75l-4.04,4.02Z"/>
    </clipPath>
    <linearGradient id="linear-gradient" x1="-69.09" y1="212.62" x2="-68.09" y2="212.62" gradientTransform="translate(2177.13 6129.44) scale(28.75 -28.75)" gradientUnits="userSpaceOnUse">
      <stop offset="0" stop-color="#119bd7"/>
      <stop offset="1" stop-color="#0d4d8b"/>
    </linearGradient>
    <clipPath id="clippath-1">
      <path class="cls-25" d="M168.24,35.71v19.23c16.01,8.14,27.5-2.33,27.5-2.33-.71.41-1.51.78-2.39,1.15-8.77,3.45-19.91-2.18-20.38-2.42l-.87-.45v-19.17l-3.85,3.99Z"/>
    </clipPath>
    <linearGradient id="linear-gradient-2" x1="-69.09" y1="212.52" x2="-68.09" y2="212.52" gradientTransform="translate(1895.51 5368.8) scale(25.04 -25.04)" xlink:href="#linear-gradient"/>
    <clipPath id="clippath-2">
      <path class="cls-25" d="M218.95,29.44c-7.16.45-11.12,3.85-13.27,6.9,0,0,5.07-4.47,12.59-3.8,7.52.67,9.11,5.76,14.19,7.27l4.7-3.77h-.04c-1.49-.33-2.85-1.25-4.42-2.32-2.84-1.94-6.32-4.32-12.25-4.32-.48,0-.98.01-1.5.05"/>
    </clipPath>
    <linearGradient id="linear-gradient-3" x1="-69.09" y1="212.62" x2="-68.09" y2="212.62" gradientTransform="translate(2381.04 6729.4) scale(31.49 -31.49)" xlink:href="#linear-gradient"/>
    <clipPath id="clippath-3">
      <path class="cls-25" d="M196.38,3.4v18.44c15.25-9.58,27.97,5.09,27.97,5.09-22.3-3.62-22.68,7.82-32.27,8.99-9.58,1.18-18.39-4.2-18.39-4.2v18.19s10.86,5.56,19.07,2.34c6.79-2.67,7.8-7.43,9.22-12.02,1.41-4.59,6.01-11.68,16.86-12.39,10.87-.7,14.88,5.84,18.6,6.63v-4.89s-9.68-1.27-15.55-8.9c-5.1-6.63-6.06-13.01-11.24-17.21-2.58-2.1-4.8-3.12-7.03-3.12s-4.54,1.04-7.25,3.06"/>
    </clipPath>
    <linearGradient id="linear-gradient-4" x1="-69.09" y1="212.6" x2="-68.09" y2="212.6" gradientTransform="translate(3673.67 10783.88) scale(50.59 -50.59)" xlink:href="#linear-gradient"/>
    <clipPath id="clippath-4">
      <path class="cls-25" d="M209.35,42.81c0,4.52,3.66,8.18,8.19,8.18s8.19-3.66,8.19-8.18-3.67-8.19-8.19-8.19-8.19,3.67-8.19,8.19"/>
    </clipPath>
    <linearGradient id="linear-gradient-5" x1="-69.09" y1="212.62" x2="-68.09" y2="212.62" gradientTransform="translate(1340.7 3524.58) scale(16.38 -16.38)" xlink:href="#linear-gradient"/>
  </defs>
  <g id="Layer_1-2" data-name="Layer 1">
    <path class="cls-19" d="M148.23,9.69c0-.87-.22-1.68-.75-2.4-1.08-1.49-3.44-1.9-5.16-1.55-.11.11-.27,0-.39.08-.25-.01-.47.1-.68.18-1.26.51-2.13,1.35-2.36,2.74-.02.21-.02.41-.03.62,0-.07-.01-.13-.05-.19-.1.2-.06.42-.06.62,0,2.81,0,5.62,0,8.43,0,.3-.06.4-.38.4-1.33-.02-2.66-.02-3.99,0-.32,0-.39-.1-.39-.4,0-2.7,0-5.4,0-8.11,0-.35-.02-.69-.05-1.04-.15-1.6-1.45-2.97-2.95-3.1-.21-.05-.41-.05-.62-.05.02-.01.05-.02.07-.04-.17-.09-.36-.06-.55-.06-1.44,0-2.88,0-4.32,0-.34,0-.79-.15-1,.07-.21.22-.03.66-.07,1-.04.32.09.37.38.37,1.65-.01,3.3-.01,4.95,0,.71,0,1.37.14,1.93.62.53.46.7,1.08.8,1.73.1.07.05.17.05.26,0,2.78,0,5.57,0,8.35,0,.1.03.21-.04.31-.12.16-.3.09-.45.09-3.94,0-7.88,0-11.82,0-.34,0-.47-.05-.46-.44.02-2.74,0-5.49,0-8.23,0-.24.02-.48-.06-.71-.03.05-.04.11-.05.16v-.29c0-.12.02-.24-.03-.35-.2-1.25-.93-2.12-2.05-2.61-1.83-.8-3.67-.73-5.47.15-.16.11-.32.21-.48.32h0c-.08.14-.2.22-.33.31-.79.89-1.03,1.95-1.03,3.1,0,2.72,0,5.43.01,8.15,0,.38-.12.45-.47.45-1.28-.02-2.56-.02-3.83,0-.37,0-.45-.1-.45-.46.01-3.98,0-7.96.01-11.94,0-.3-.05-.41-.39-.41-1.68.02-3.35,0-5.03.01-.17,0-.35-.02-.51.07,1.81,0,3.62,0,5.44,0,.29,0,.42.05.42.39-.01,3.89,0,7.78,0,11.67,0,.05,0,.1-.01.21-.04-.07-.06-.13-.06-.2,0,0,0,.01-.01.02,0,0,0-.02.01-.03,0-.08,0-.16,0-.23,0-3.54,0-7.09,0-10.63,0-.28-.19-.54-.03-.86.13-.25-.16-.26-.35-.26-1.35,0-2.69,0-4.04,0-.64,0-1.28,0-1.92,0-1.62.15-2.91,1.58-2.94,3.39-.04,2.4-.04,4.79,0,7.19.03,1.59.96,2.76,2.47,3.26.57.19,1.17.24,1.77.24,1.13,0,2.26,0,3.39,0,.25,0,.35.05.34.33-.02.59,0,1.17,0,1.76-.1.2.04.43-.08.63-.03.09-.06.17-.08.26-.28,1.1-.85,1.98-1.91,2.48-.44.12-.84.36-1.29.46-.98.29-1.99.2-3.06.16.25.36.48.66.67.99.18.32.43.43.78.42,1.05-.02,2.1-.11,3.09-.51,1.86-.74,2.91-2.1,3.17-4.08.07-.23.01-.47.04-.7,0-.02.03,0,.01.03,0,0,.02.02.03.03.13-.63.05-1.27.06-1.91,0-.27.07-.36.35-.35,1.37.02,2.74.02,4.11,0,.28,0,.34.09.39.34.31,1.6,1.61,2.63,3.22,2.87.15.09.33-.04.47.08,1.04.18,2.06.09,3.05-.28.97-.36,1.78-.94,2.2-1.94.06-.26.08-.54.28-.75.01-.27.15-.33.42-.33,2.49.01,4.98,0,7.47,0,3.62,0,7.25,0,10.87,0,.24,0,.36.03.41.32.24,1.25.98,2.09,2.14,2.58,1.22.52,2.48.61,3.76.35,2.21-.45,3.46-1.89,3.47-3.99.02-3.21,0-6.42,0-9.63M125.13,5.97s-.04.01-.03.03c.03.05-.04-.03,0-.04.07,0,.14,0,.21,0-.06,0-.13,0-.19.01M129.55,5.96c-.17,0-.34,0-.51-.01.24,0,.48,0,.72,0,.05,0,.1,0,.15.01-.12,0-.24,0-.36,0M103.83,18.63c-1.27-.01-2.53,0-3.8,0-1.39,0-2.39-.96-2.4-2.35-.02-2.24-.02-4.48,0-6.71.01-1.42.76-2.21,2.19-2.27,1.37-.06,2.74-.01,4.12-.03.28,0,.24.16.24.34v5.36c0,1.77,0,3.54,0,5.32,0,.28-.07.36-.35.36M118.35,19.56c-.12.38-.17.77-.37,1.12-.32.57-.8.96-1.43,1.12-1.05.28-2.1.28-3.13-.09-.44-.16-.83-.41-1.07-.84-.06-.19-.11-.39-.29-.51-.19-.45-.26-.92-.26-1.4,0-3.01,0-6.02,0-9.03,0-1.71.96-2.73,2.68-2.85.53-.04,1.07-.05,1.59.04,1.26.22,2.04.95,2.29,2.22.07.11.04.23.04.35,0,3.17,0,6.34,0,9.5,0,.12.03.24-.04.35M119.74,18.15c.02-.08,0-.17,0-.25,0-2.78,0-5.56,0-8.34,0,.04,0,.08,0,.12,0,2.71,0,5.43,0,8.14,0,.11.03.23,0,.33M138.86,17.61s0,.07,0,.11c0-2.66,0-5.38,0-8.11,0-.05,0-.1,0-.15,0,.05,0,.11,0,.16,0,2.66,0,5.33,0,7.99M146.63,19.56c-.12.38-.17.77-.37,1.12-.32.57-.8.96-1.43,1.12-1.05.28-2.1.28-3.13-.09-.44-.16-.83-.41-1.07-.84-.06-.19-.11-.39-.29-.51-.19-.45-.26-.92-.26-1.4,0-3.01,0-6.02,0-9.03,0-1.71.97-2.73,2.68-2.85.53-.04,1.07-.05,1.59.04,1.26.22,2.04.95,2.29,2.22.07.11.04.23.04.35,0,3.17,0,6.34,0,9.5,0,.12.03.24-.04.35"/>
    <path class="cls-27" d="M42.56,5.98c1.49.11,2.85,1.51,2.94,3.02.06.14.03.29.03.43,0,2.92,0,5.83,0,8.75,0,.14-.06.29.06.42.94,0,1.89.04,2.83,0,1.11-.05,1.75-.68,1.89-1.78.01-.08.04-.15.06-.23.11-.1.04-.22.04-.33,0-5.24,0-10.48,0-15.72,0-.16-.04-.32.04-.47.33,0,.67,0,1-.02.21-.01.3.04.3.28-.01,5.47,0,10.94-.03,16.41,0,1.66-1,2.87-2.48,3.19-.12.02-.26-.06-.37.05-.2.1-.42.06-.63.06-11.5,0-23,0-34.5,0-.08,0-.16,0-.24-.01-.13-.47-.13-.94,0-1.41,2.68,0,5.36-.02,8.03,0,.39,0,.48-.1.47-.48-.02-2.25.02-4.51-.04-6.76-.05-1.69-.7-3.08-2.38-3.76-.67-.27-1.39-.36-2.11-.37-.49,0-.99,0-1.48,0-.21,0-.27-.05-.28-.26-.04-1.17-.04-1.16,1.13-1.17,1.08-.01,2.16.03,3.19.42,2.06.77,3.12,2.33,3.37,4.45.21,1.74.05,3.49.08,5.23.01.8,0,1.6,0,2.4,0,.18,0,.3.25.3,2.01,0,4.03,0,6.04,0,.17,0,.25-.05.23-.23,0-.09,0-.19,0-.28,0-3.86,0-7.73,0-11.59,0-.21-.06-.42.05-.62.08.12.04.26.04.39,0,3.94,0,7.88,0,11.83,0,.12.04.24-.04.35.09-.01.04-.08.04-.12,0-4.06,0-8.12,0-12.19,0-.11-.02-.21.03-.31.31,0,.61,0,.92-.02.33-.04.39.1.39.4-.01,2.76,0,5.51,0,8.27,0,1.26,0,2.53,0,3.79,0,.25.06.34.33.34,4.13-.01,8.25-.01,12.38-.01.07-.11.04-.23.04-.35,0-2.9,0-5.81,0-8.71,0-.11.05-.24-.06-.34-.45-1.39-1.22-1.94-2.72-1.94-1.73,0-3.45,0-5.18-.01-.12-.44.02-.9-.08-1.34.04-.1.13-.07.2-.07,1.78,0,3.56,0,5.33,0,.13,0,.27-.01.39.06-.14.08-.29.04-.43.04-1.53,0-3.06,0-4.59,0-.13,0-.25,0-.38.02-.05.02.02.1,0,.05,0-.02,0-.02.01-.03.05-.07.12-.03.18-.03,1.83,0,3.67,0,5.5,0,.07,0,.13,0,.19.03"/>
    <path class="cls-27" d="M89.57,32.85c.77.08,1.5.31,2.23.56.17.06.22.15.18.33-.07.28-.13.57-.16.86-.03.28-.13.28-.37.19-1.34-.48-2.73-.78-4.15-.88-3.27-.24-5.98,1.47-7.17,4.6-.91,2.4-1.08,4.89-.46,7.37.74,2.98,2.74,4.76,5.7,5.43,1.82.41,3.62.1,5.39-.41.08-.02.16-.09.23-.14.07-.1.04-.21.04-.31,0-2.24,0-4.48,0-6.72,0-.1.03-.21-.05-.3-.16-.01-.32-.04-.47-.04-1.55,0-3.11,0-4.66,0-.13,0-.27.04-.39-.04.13-.09.29-.04.43-.04,1.5,0,3.01,0,4.51,0,.12,0,.25,0,.37-.02.05-.03-.02-.1,0-.05.01.02,0,.03-.01.04-.1.07-.2.03-.3.03-1.54,0-3.08,0-4.63,0-.12,0-.34.14-.37-.14,0-.35.1-.68.18-1.01.08-.06.18-.04.27-.04,2.07,0,4.14,0,6.21,0,.08,0,.16,0,.23.03.1.14.07.31.07.47,0,2.94,0,5.89,0,8.83,0,.17.03.35-.07.51-.93.4-1.93.58-2.93.72-1.53.2-3.07.32-4.61,0-3.76-.79-6.29-3.5-6.87-7.31-.42-2.73-.21-5.39.99-7.91,1.18-2.47,3.07-4.11,5.8-4.67,1.42-.29,2.85-.22,4.28.01.16.13.37-.01.54.09"/>
    <path class="cls-27" d="M69.96,51.49c.12-.03.28-.24.34.07.05.1.02.2.03.3,0,.05.03.08.02.03,0,0,.02-.01.03-.02.19.55.19.54-.36.69-.26.07-.51.13-.78.14-1.11.02-1.58-.4-1.65-1.52-.01-.19-.01-.37-.01-.56,0-2.6,0-5.19,0-7.79,0-.41-.04-.82-.1-1.23-.21-1.24-.88-1.81-2.15-1.86-1.41-.05-2.65.48-3.84,1.16-.45.26-.9.53-1.27.91-.39.38-.45.85-.45,1.38.02,2.87,0,5.73.01,8.6,0,.09,0,.19-.01.28-.05.48-.12.55-.59.55-.25,0-.51,0-.76,0-.25,0-.37-.12-.39-.35-.01-.13-.01-.27-.01-.4,0-6.08,0-12.16,0-18.23,0-.15-.01-.29.02-.44.02-.11.02-.25.2-.25.06.13.03.26.03.4,0,6.12,0,12.24,0,18.35,0,.13,0,.26,0,.34.03-.08,0-.22,0-.35,0-6.08,0-12.16,0-18.23,0-.52.01-.54.53-.54.24,0,.48-.02.72.02.3.13.25.41.26.65.01,1.17,0,2.34,0,3.51,0,.98.01,1.97,0,2.95,0,.1-.05.24.06.29.11.05.19-.07.27-.13.17-.13.35-.24.56-.29.99-.58,1.99-1.13,3.12-1.39.14-.03.29-.04.43-.06.76-.11,1.52-.09,2.28,0,1.23.1,2.12,1.01,2.37,2.41.14.79.17,1.58.17,2.38,0,2.47,0,4.95,0,7.42,0,.35.06.66.41.83.18.07.35.07.53,0"/>
    <path class="cls-27" d="M36.41,38.45c.79.07,1.57.13,2.31.46.25.11.39.02.39-.32-.01-1.86,0-3.72,0-5.58.06,0,.1.02.12.07.07.15.06.31.06.47v4.87c0,.2.02.4-.08.58-.12.15-.35.14-.47.28.02.06-.18-.03-.07.09.1.11.08.22-.04.24-.26.04-.5.26-.79.14-.07-.06-.11-.15-.22-.16.06.07.18.09.22.17-.04.32-.32.19-.49.25-.18-.01-.36,0-.5-.14-.23-.13-.48,0-.71-.03-.95.04-1.92-.09-2.86.12-.33.05-.65.16-.95.31-1.24.63-1.74,1.75-2,3.03-.07.34-.04.69-.19,1.01-.11.55-.02,1.11-.05,1.66-.02.25.04.5-.06.74-.01.03.05.04.09.03.14.12.1.29.12.45.11.89.28,1.76.77,2.54.54.86,1.33,1.35,2.32,1.45,1.06.11,2.12.06,3.14-.38,1.19-.52,2.01-1.36,2.4-2.61.06-.18.11-.36.26-.49.19-.14.16-.35.16-.55,0-1.98,0-3.96,0-5.95,0-.17-.01-.35.02-.52-.02-.06.1-.09.03-.16-.27-.23-.22-.68-.59-.84.08-.15-.04-.31.03-.46.11-.09.27-.09.38-.19.22-.15.14-.39.14-.58,0-1.49,0-2.97,0-4.46,0-.17-.02-.35.05-.51.11-.26.33-.34.59-.3.15.02.39.03.26.31-.18.14-.18.35-.18.54,0,1.39,0,2.77.03,4.16.05-.13.05-.28.05-.42,0-1.24,0-2.48,0-3.71,0-.21-.03-.43.14-.6.19-.03.22.12.24.25.03.17.01.35.01.52,0,5.15,0,10.31,0,15.46,0,.21-.03.43.05.63.14.24.06.51.12.76.1.1.14.24.27.31.2.13.41.09.61.03.24-.08.33,0,.37.24.17.85.38.67-.57.94-.36.1-.74.09-1.11.06-.56-.04-.89-.4-.99-1.01-.07-.25-.02-.5-.03-.73-.03.07.03.17-.05.25-.03-.2-.06-.41-.09-.66-.22.25-.43.47-.63.7-.19.19-.35.43-.64.49h0c-.06.13-.21.1-.3.17-1.32.67-2.72.94-4.2.82-2.12-.18-3.62-1.35-4.27-3.37-.16-.49-.32-.98-.34-1.51-.07-.2-.02-.41-.03-.61,0-.05.01.02,0-.03,0-.03-.05-.01-.06.02-.15-1.36-.14-2.71.14-4.05.23-1.1.63-2.11,1.37-2.97.85-.99,1.92-1.58,3.22-1.74,1.03-.14,2.05-.06,3.08,0"/>
    <path class="cls-27" d="M125.92,51.33c1.66-.3,3.1-1.07,4.43-2.08.34-.26.5-.54.5-.99-.03-3.08-.01-6.16,0-9.23,0-.13-.08-.29.07-.41.37-.08.74-.02,1.11-.04.16,0,.21.07.21.22,0,.07,0,.13,0,.2,0,3.66,0,7.32,0,10.98,0,.1.06.23-.06.32.12-.06.06-.16.06-.23,0-3.67,0-7.35,0-11.02,0-.14-.04-.29.04-.43.14.11.07.27.07.41,0,3.87,0,7.74,0,11.61,0,.36.04.69.42.86.18.06.35.07.53,0,.21-.15.31-.09.37.16.23.96.3.71-.56.97-.11.03-.23.06-.35.07-1.27.14-1.86-.38-1.91-1.68,0-.17,0-.34,0-.58-.31.23-.58.44-.86.62-1.49.98-3.06,1.71-4.89,1.69-.57,0-1.14-.06-1.68-.28-1.12-.46-1.6-1.36-1.78-2.49-.07-.16-.01-.33-.03-.5,0-.05-.02-.08-.02-.02,0,0-.02,0-.04,0-.11-.32-.08-.66-.08-.99,0-3.16,0-6.31-.01-9.47,0-.36.1-.44.44-.44,1.01.01,1.01,0,1.01,1.03,0,3.17,0,6.34.01,9.51.09.17-.04.38.08.54.22.99.85,1.54,1.84,1.69.36.08.72.07,1.08,0"/>
    <path class="cls-27" d="M1.18,33.71c.05-.26.11-.52.25-.75,1.37.04,2.74,0,4.11.02.48,0,.48,0,.48.46,0,5.04,0,10.07,0,15.11,0,.13.03.27-.03.39.01.87-.11,1.71-.48,2.51-.37.82-1.02,1.21-1.91,1.25-.68.05-1.35.05-2.03,0-.12,0-.24,0-.36-.01C.25,52.62.02,52.36,0,51.38c0-.2.11-.14.21-.12.28.07.56.15.84.22.17.12.38,0,.56.08.53,0,1.07.06,1.59-.01.72-.1,1.03-.6,1.18-1.24.11-.48.17-.97.17-1.46,0-4.78,0-9.56,0-14.33,0-.09-.01-.19-.02-.28-.11-.11-.25-.06-.38-.06-.86,0-1.72,0-2.58,0q-.45,0-.4-.47"/>
    <path class="cls-27" d="M97.96,38.62c.15.38.03.78.06,1.17.01.17,0,.34,0,.6.44-.53.84-.98,1.33-1.33,1.44-1.03,3.06-.88,4.48-.12.11.06.19.12.15.28-.1.37-.18.75-.27,1.15-.52-.26-1.01-.46-1.55-.56-.85-.16-1.6.01-2.32.47-.66.42-1.17,1-1.67,1.59-.15.17-.15.41-.15.64,0,3.2,0,6.39.01,9.59,0,.36-.09.5-.46.45-.33-.04-.76.1-.96-.07-.22-.18-.07-.62-.07-.95,0-4.15,0-8.31,0-12.46,0-.14-.06-.29.05-.42.07.14.04.29.04.43,0,4.32.02,8.65,0,12.98,0,0,.03,0,.04,0-.05-.12-.03-.24-.03-.35,0-4.22,0-8.44,0-12.66,0-.45,0-.46.45-.45.29,0,.58-.05.87.04"/>
    <path class="cls-49" d="M55.74,20.88v-1.3c0-6.35,0-12.71,0-19.06,0-.35.06-.51.44-.46.31.04.73-.09.92.07.21.17.07.6.07.91,0,6.19,0,12.39.01,18.58,0,.35-.1.53-.4.68-.33.16-.64.36-1.04.58"/>
    <path class="cls-27" d="M24.79,50.91c.08.23.16.47.41.57.18.07.35.07.53,0,.25-.16.36-.08.42.21.17.76.18.75-.58.92-.24.05-.47.08-.71.08-.97,0-1.36-.37-1.45-1.35-.03-.1-.02-.21-.02-.32,0-4.01,0-8.03,0-12.05,0-.25,0-.46.35-.4.33.03.75-.14.96.08.19.2.05.61.06.93,0,3.66,0,7.32,0,10.99,0,.11-.06.24.04.34"/>
    <path class="cls-27" d="M23.05,34.1c0-.6.48-1.09,1.05-1.07.58.01,1.08.51,1.08,1.07,0,.58-.52,1.08-1.11,1.07-.57-.01-1.02-.49-1.02-1.07"/>
    <path class="cls-18" d="M29.06,25.19c-.53,0-.93-.41-.93-.94,0-.55.45-1.01.98-.99.53.01.98.49.97,1.02-.01.52-.45.92-1.01.91"/>
    <path class="cls-27" d="M69.69,1.91c-.55,0-1-.4-1-.91,0-.53.44-.99.98-1,.54,0,.98.45.97,1,0,.52-.42.91-.95.92"/>
    <path class="cls-27" d="M32.34,25.19c-.55-.01-.94-.43-.92-.99.02-.53.47-.96.98-.94.51.02.94.49.93,1.01-.01.53-.44.94-.99.92"/>
    <path class="cls-49" d="M41.74,25.19c-.54,0-.92-.4-.92-.94,0-.58.43-1.01.97-.99.53.01.92.45.92,1,0,.56-.4.93-.97.93"/>
    <path class="cls-18" d="M129.29,23.96c.18-.52.55-.77,1.05-.69.43.07.79.51.8.97.01.44-.34.88-.76.95-.54.09-.9-.12-1.08-.62-.05-.2-.03-.4,0-.6"/>
    <path class="cls-27" d="M72.06,1.41c-.17-.74.07-1.22.69-1.37.51-.13.94.12,1.1.65.15.5-.06.95-.54,1.15-.22.06-.44.05-.66,0-.06,0-.12-.01-.18-.02-.2-.08-.33-.22-.41-.41"/>
    <path class="cls-30" d="M40.93,51.42c-.18,0-.21-.18-.32-.26-.04-.46-.12-.91-.12-1.38,0-5.29,0-10.57,0-15.86,0-.13,0-.27,0-.4,0-.39-.08-.46-.47-.47-.32-.01-.64.07-.94-.11.14-.15.33-.06.49-.08.29-.04.58.05.88-.12.22-.13.27.1.26.29.16.04.31-.29.42-.06.07.13.17.42-.13.53,0-.14,0-.3-.18-.3-.21,0-.13.2-.13.31,0,5.58,0,11.17,0,16.75,0,.38.24.75.23,1.15"/>
    <path class="cls-3" d="M5.99,48.94c0-5.14,0-10.28,0-15.42,0-.41-.1-.52-.51-.51-1.23.03-2.45.01-3.68,0-.13,0-.27.04-.38-.06.1-.01.21-.04.31-.04,1.32,0,2.64,0,3.95,0,.26,0,.37.04.37.34,0,4.98,0,9.96-.01,14.94,0,.25.02.5-.07.75"/>
    <path class="cls-3" d="M39.1,32.94c.41,0,.82,0,1.24-.02.19,0,.27.07.25.26,0,.12,0,.24,0,.36,0,5.58,0,11.16,0,16.74,0,.29.02.59.03.88-.19-.21-.02-.48-.1-.71-.11-.19-.06-.39-.07-.59,0-5.27,0-10.54,0-15.82,0-.12,0-.24,0-.36-.02-.45-.1-.53-.55-.55-.25,0-.51.06-.73-.12-.02,0-.04,0-.06,0-.02-.02-.02-.05-.02-.07"/>
    <path class="cls-62" d="M92.36,51.93c0-3.26,0-6.52,0-9.79.01-.04.04-.06.08-.06.1.1.05.23.05.34,0,3.04,0,6.09,0,9.14,0,.13.08.3-.12.37"/>
    <path class="cls-31" d="M50.45.08v16.71c-.11-.06-.07-.14-.09-.19,0-.81-.01-1.62-.01-2.44,0-4.55,0-9.11,0-13.66,0-.14-.1-.32.09-.42"/>
    <path class="cls-32" d="M97.96,38.62c-.25,0-.51,0-.76,0q-.53,0-.53.51v13s-.05,0-.08,0v-13.49c.45-.12.91-.09,1.37-.01"/>
    <path class="cls-65" d="M24.79,50.91s0,.03,0,.04c-.01.02-.03.04-.04.05-.07-.12-.03-.25-.03-.37,0-3.81,0-7.61,0-11.42,0-.67.08-.58-.6-.59-.12,0-.24,0-.36-.01h0q1.06-.14,1.06.88c0,3.65,0,7.3,0,10.95,0,.16,0,.32-.01.48"/>
    <path class="cls-81" d="M132.27,38.62v11.74s-.05,0-.08,0v-.4c0-3.62,0-7.24,0-10.87,0-.38-.1-.53-.49-.48-.26.03-.53,0-.8,0,.45-.08.91-.08,1.36,0"/>
    <path class="cls-50" d="M23.74,38.6h0c-.36-.03-.32.22-.32.45,0,3.81,0,7.61,0,11.42,0,.29-.01.58-.02.88-.1-.23-.06-.47-.06-.71,0-3.9,0-7.8,0-11.7,0-.33.09-.45.41-.34"/>
    <path class="cls-65" d="M75.98,18.6c-.12-.04-.1-.15-.1-.23,0-4.17,0-8.34,0-12.51.17.18.08.4.08.6,0,4.05,0,8.1,0,12.15"/>
    <path class="cls-32" d="M30.13,5.85v12.69h-.08V5.9c0-.06.03-.06.08-.05"/>
    <path class="cls-23" d="M138.89,8.75c.17.31,0,.62,0,.93,0,2.7,0,5.4,0,8.11v.43h-.08v-9.04c0-.15-.02-.3.08-.43"/>
    <path class="cls-13" d="M45.59,18.61c-.14-.05-.1-.17-.1-.27,0-3.11,0-6.22,0-9.33.13.3.09.63.09.94,0,2.89,0,5.77,0,8.66"/>
    <path class="cls-19" d="M119.8,9.25v8.97h-.08v-9.45c.1.15.08.32.08.48"/>
    <path class="cls-46" d="M44.12,9.21c.15.07.09.21.09.31,0,2.92,0,5.84,0,8.76,0,.11.05.24-.08.33,0-3.14-.01-6.27-.02-9.41"/>
    <path class="cls-14" d="M132.57,9.62c.16-.06.09.08.09.12,0,2.85,0,5.7,0,8.55,0,.09.01.19-.08.25,0-1.68-.01-3.37-.01-5.05,0-1.29,0-2.57,0-3.86"/>
    <path class="cls-74" d="M90.99,43.43c.14.08.09.21.09.32,0,2.23,0,4.46,0,6.68,0,.11.04.24-.08.33,0-2.45,0-4.89,0-7.34"/>
    <path class="cls-45" d="M92.44,42.08s-.06.04-.08.06c-2.23,0-4.47,0-6.7,0,.04-.13.15-.08.23-.08,2.13,0,4.27,0,6.4,0,.05,0,.1.02.15.03"/>
    <path class="cls-23" d="M131,5.98c-.66.14-1.33,0-1.99,0-.68,0-1.36,0-2.03,0h-2.06s0-.06,0-.09h5.53c.19,0,.38-.02.55.09"/>
    <path class="cls-23" d="M90.12,7.25c-.03-.4.18-.93-.09-1.19-.25-.24-.76-.07-1.16-.07-1.21,0-2.41,0-3.62-.09h4.91c.02.45.1.9-.04,1.34"/>
    <path class="cls-5" d="M42.56,5.98h-5.94v-.08h5.44c.17,0,.34-.02.49.08"/>
    <path class="cls-29" d="M85.47,43.15c.11.17.29.1.44.1,1.51,0,3.03,0,4.54,0,.13,0,.26-.04.47.08h-5.46c-.1-.07-.05-.13,0-.19"/>
    <path class="cls-48" d="M36.41,38.45c-1.03,0-2.05,0-3.08,0,.66-.19,1.34-.14,2.01-.11.35.02.72-.02,1.07.11"/>
    <path class="cls-20" d="M16.08,38.45c-1.03,0-2.06,0-3.09,0,1.03-.18,2.06-.18,3.09,0"/>
    <path class="cls-79" d="M1.18,33.71c-.04.35.11.45.45.43.83-.03,1.67-.01,2.51,0,.13,0,.3-.08.39.1H1.51q-.56,0-.33-.53"/>
    <path class="cls-24" d="M112.85,38.45h-2.67c.89-.19,1.78-.18,2.67,0"/>
    <path class="cls-2" d="M66.48,38.45c-.76,0-1.52,0-2.28,0,.76-.19,1.52-.18,2.28,0"/>
    <path class="cls-3" d="M105.31,44.12c0,.99,0,1.98,0,2.98-.15-.99-.14-1.99,0-2.98"/>
    <path class="cls-10" d="M13.51,18.64c0,.47,0,.94,0,1.41-.08,0-.13-.02-.13-.1,0-.4,0-.81,0-1.21,0-.08.05-.11.13-.1"/>
    <path class="cls-71" d="M102.12,25.52c-.39.27-.83.4-1.29.46.2-.27.59-.16.82-.41.11-.12.3-.12.46-.06"/>
    <path class="cls-54" d="M1.58,52.7c.67,0,1.35,0,2.02,0-.67.12-1.35.11-2.02,0"/>
    <path class="cls-67" d="M37.8,51.72c.21-.16.43-.32.64-.49-.12.28-.25.56-.64.49"/>
    <path class="cls-8" d="M119.4,21.13c-.01-.29-.09-.6.28-.75-.04.27-.12.52-.28.75"/>
    <path class="cls-80" d="M36.15,5.91c.16.44.03.9.08,1.34-.22-.17-.07-.4-.09-.6-.03-.24,0-.49.02-.74"/>
    <path class="cls-1" d="M125.92,51.33s.1.07.09.07c-.39-.03-.79.12-1.17-.07.36,0,.72,0,1.08,0"/>
    <path class="cls-57" d="M105.48,22.96v-.91c.11.08.05.18.08.26,0,.22.02.44-.08.65"/>
    <path class="cls-43" d="M72.06,1.41c.14.14.27.27.41.41-.28,0-.42-.13-.41-.41"/>
    <path class="cls-66" d="M28.61,47.21l.03-.18s.04,0,.06,0v.8c-.11-.2-.08-.41-.09-.62"/>
    <path class="cls-63" d="M39.17,51.19c0-.11.02-.23.03-.34.02,0,.03,0,.05,0v.82c-.11-.15-.09-.32-.08-.48"/>
    <path class="cls-59" d="M72.65,1.84c.22,0,.44,0,.66,0-.22.12-.44.12-.66,0"/>
    <path class="cls-47" d="M140.18,52.54c.18,0,.36,0,.54,0,0,0,0,.03,0,.03-.03.02-.06.03-.09.05-.16,0-.32.03-.46-.08"/>
    <path class="cls-55" d="M133.28,51.48c-.16.17-.35.07-.53.07,0,0-.01-.02-.01-.03,0-.01.01-.02.02-.03.18,0,.35,0,.53,0"/>
    <path class="cls-40" d="M25.72,51.49c-.18.15-.35.12-.53,0,.18,0,.35,0,.53,0"/>
    <path class="cls-82" d="M20.52,51.48c-.2.15-.39.15-.59,0,.2,0,.39,0,.59,0"/>
    <path class="cls-72" d="M104.19,22.14c-.03.21.09.44-.08.63,0-.21,0-.43.08-.63"/>
    <path class="cls-1" d="M69.96,51.49c-.17.16-.36.07-.55.06,0,0-.01-.02,0-.03,0-.01.02-.02.03-.03.18,0,.35,0,.53,0"/>
    <path class="cls-61" d="M121.54,49.46c.2.14.04.35.08.51-.1-.16-.08-.34-.08-.51"/>
    <path class="cls-12" d="M129.29,23.96c0,.2,0,.4,0,.6-.11-.2-.11-.4,0-.6"/>
    <path class="cls-83" d="M89.57,32.85c-.18-.03-.39.1-.54-.09.18,0,.37-.02.54.09"/>
    <path class="cls-36" d="M1.61,51.56c-.19-.02-.4.1-.56-.08.19,0,.38-.01.56.08"/>
    <path class="cls-11" d="M82.21,16.85c-.17-.16-.05-.36-.08-.54.08.17.07.36.08.54"/>
    <path class="cls-33" d="M113.69,23.27c.17,0,.33-.04.49.02,0,0,0,.02,0,.03,0,.01-.02.02-.03.03-.16,0-.32.02-.47-.08"/>
    <path class="cls-84" d="M123,49.64c-.18-.16-.05-.36-.08-.54.09.17.08.36.08.54"/>
    <path class="cls-15" d="M43.8,49.36c.18.13.07.31.09.46-.11-.14-.08-.3-.09-.46"/>
    <path class="cls-70" d="M70.38,51.86s0,.05-.02.07c-.02.02-.06.07-.06,0,0-.12,0-.25,0-.38.09.09.08.2.08.31"/>
    <path class="cls-67" d="M37.5,51.89c.09-.08.18-.16.3-.18,0,.24-.18.16-.3.18"/>
    <path class="cls-75" d="M142.32,5.74c-.1.18-.26.04-.39.08.11-.09.25-.08.39-.08"/>
    <path class="cls-42" d="M48.87,20c.1-.16.24-.09.37-.05-.12.06-.24.06-.37.05"/>
    <path class="cls-4" d="M45,39.14c0,.12.04.24-.02.35,0,0-.02,0-.03,0-.01,0-.02-.01-.03-.02,0-.12-.02-.24.07-.34"/>
    <path class="cls-17" d="M10.38,39.01c.03.14-.04.17-.16.14-.01-.12.06-.15.16-.14"/>
    <path class="cls-44" d="M118.35,19.56c0-3.4,0-6.8,0-10.2,0-.01,0-.03,0-.04.01-.02.03-.03.04-.05.07.08.03.17.03.26,0,3.27,0,6.55,0,9.82,0,.09,0,.19,0,.28,0,0-.02.01-.03.02-.02-.03-.03-.06-.05-.09"/>
    <path class="cls-62" d="M140.09,9.85v9.14h-.04v-9.16s.03.01.04.02"/>
    <path class="cls-19" d="M146.55,20.29c.07-.37.13-.74.2-1.11h.07c0,.05,0,.13.02.15.22.15.31.27-.01.41-.12.05-.09.18-.09.28,0,.13,0,.27-.19.27"/>
    <path class="cls-35" d="M112.05,20.38c.29.06.33.26.29.51-.16-.13-.24-.31-.29-.51"/>
    <path class="cls-28" d="M22.13,11.84v6.69h-.04v-6.68s.03,0,.04,0"/>
    <path class="cls-34" d="M92.2,18.98c.03-.31-.09-.37-.38-.37-2.35.01-4.69.01-7.03,0-1.29,0-2.16-.37-2.58-1.77-.12-.17,0-.37-.07-.54,0-2.16,0-4.31,0-6.47,0-1.32.61-2.17,1.72-2.46.33-.09.68-.11,1.03-.11,1.74,0,3.49-.01,5.23-.02.08-.29.03-.58.04-.87,0-.43,0-.43-.43-.43h-4.18s.05,0,.08,0c1.41,0,2.82,0,4.23,0,.1,0,.21.03.31-.04-.03-.08-.1-.07-.17-.07-1.82,0-3.65-.03-5.47.01-.94.02-1.84.29-2.58.92-.97.83-1.24,1.95-1.25,3.15-.01,1.84,0,3.67,0,5.51,0,1.11,0,2.21.77,3.16h-5.48c-.12-.13-.06-.28-.06-.42,0-3.96,0-7.93,0-11.89,0-.14.02-.29-.03-.43-1.86,0-3.71,0-5.57,0-.08,0-.15.04-.23.05.03,0,.06,0,.07.02.03.03.04.06-.02.06-.18,0-.36,0-.54,0-1.21.17-2.1.77-2.65,1.87-.4.8-.41,1.67-.4,2.54.03,2.12-.08,4.24.05,6.35.1,1.65,1.15,2.82,2.76,3.19,1.04.24,2.1.08,3.14.15.67.05,1.26-.06,1.72-.59.07-.07.14-.16.28-.16,0,.07.01.13.02.19q.01.55.58.55c5.34,0,10.68,0,16.03,0,.34,0,.8.16.99-.07.17-.21.04-.66.07-1M74.53,16.11c0,.72-.01,1.44,0,2.15,0,.27-.05.37-.35.36-1.38-.02-2.77-.01-4.15-.01-.12-.08-.27.02-.39-.07-.15-.11-.36-.09-.49-.23-.07-.07-.13-.15-.24-.14-.02-.01-.05-.03-.07-.04.02-.24-.18-.24-.33-.3-.39-.44-.45-1-.55-1.55,0,.06-.02.12-.03.18-.02,0-.04,0-.06,0v-.45c0-2.08,0-4.17,0-6.25,0,0-.09-.3.09-.05.08-.4.11-.81.29-1.19.4-.88,1.17-1.19,2.04-1.22,1.33-.05,2.66-.01,3.99-.03.33,0,.23.23.23.39,0,2.82,0,5.64,0,8.46M74.82,5.98h-3.63v-.04h3.64s-.01.03-.02.04"/>
    <path class="cls-39" d="M68.52,17.82c.14-.03.28-.07.39.04.12.12-.11.15-.07.26-.15-.06-.24-.18-.32-.3"/>
    <path class="cls-39" d="M68.92,18.17c.16-.08.23-.02.24.14-.11,0-.18-.06-.24-.14"/>
    <path class="cls-58" d="M69.65,18.54c.13,0,.27,0,.39.07-.13-.02-.28.07-.39-.07"/>
    <path class="cls-76" d="M146.68,46.53c0-.81-.02-1.63-.03-2.44.06-.18.09-.16.09.02,0,.81,0,1.62,0,2.43-.02.04-.04.03-.06,0"/>
    <path class="cls-27" d="M147.6,41.51c-.54-1.59-1.68-2.64-3.34-3.02-1.35-.31-2.7-.2-4.01.25-1.04.35-1.91.95-2.63,1.88,0-.42,0-.75,0-1.08,0-.96,0-.95-.97-.97-.38,0-.49.08-.49.48.01,6.01,0,12.02.01,18.03,0,.33-.11.77.05.97.19.24.65.04.99.09.33.04.43-.06.42-.4-.02-1.91,0-3.81,0-5.72v-.48c.83.52,1.64.9,2.56,1.01.14.1.32-.04.46.08.72.14,1.45.15,2.18.08,2.26-.19,3.9-1.29,4.73-3.42.99-2.57.94-5.19.06-7.77M146.7,46.48c-.02.17.04.34-.05.5-.13.65-.21,1.3-.46,1.92-.56,1.38-1.59,2.14-3.04,2.36-.06.01-.12.04-.19.06.04.04.03.08-.01.08-.71,0-1.43,0-2.14,0-.01,0-.04,0-.04,0-.03-.08.04-.06.08-.08-.95-.2-1.87-.48-2.71-.98-.36-.22-.54-.45-.53-.91.03-1.78.07-3.57,0-5.35-.08-2.07,1.37-3.68,3.19-4.19.35-.1.72-.16,1.08-.24.44-.07.88-.07,1.32,0,.34.09.7.15,1.03.28,1.31.51,1.88,1.59,2.18,2.87.1.42.16.86.23,1.28.11.47.03.94.05,1.41.01.33,0,.66,0,.99"/>
    <path class="cls-53" d="M143.21,39.66c-.44,0-.88,0-1.32,0,.09-.17.25-.09.37-.08.32.02.65-.11.95.08"/>
    <path class="cls-21" d="M146.68,46.53s.04,0,.06,0c0,.16-.02.32-.03.48,0,0-.02,0-.03,0-.01,0-.02-.02-.03-.03,0-.15.02-.3.02-.45"/>
    <path class="cls-32" d="M58.21,32.97c.46-.05.92-.14,1.38.05-.33,0-.67.01-1,0-.23,0-.32.08-.3.3,0,.08,0,.16,0,.24v18.57s-.06,0-.08,0v-19.16Z"/>
    <path class="cls-27" d="M13.52,45.5s-.06.02-.09.03c.03,0,.06-.01.09-.03"/>
    <path class="cls-27" d="M20.89,51.65c-.06-.26-.15-.32-.37-.17-.2.09-.39.09-.59,0-.28-.17-.36-.42-.36-.74,0-2.29,0-4.58,0-6.88,0-.73-.04-1.46-.15-2.19-.28-1.9-1.57-3.15-3.34-3.22-1.03-.11-2.06-.08-3.09,0-.9.05-1.77.25-2.61.57-.04.06-.07.13-.16.13-.12.41-.23.83-.26,1.28.2-.05.37-.09.53-.15,1.59-.56,3.22-.74,4.91-.56,1.34.15,2.21.78,2.55,1.94.05.16.08.33.12.5.15.09.09.24.08.36-.03.62.09,1.24-.07,1.85-.09.12-.21.05-.32.05-.4-.02-.81-.04-1.21-.06-.95-.01-1.91.07-2.86-.04-.2.02-.4.02-.6.05-2.21.3-3.86,1.26-4.11,3.78-.17,1.72.5,3.24,1.89,4.01.66.37,1.39.53,2.14.56,1.5.07,2.91-.2,4.14-1.14.36-.28.6-.66.93-.96.17.28.03.58.07.86.08.78.52,1.19,1.3,1.21.29,0,.58,0,.87-.08.9-.24.79-.07.58-.96M18.14,46.11c0,.56,0,1.11,0,1.67,0,0-.01.03-.02.02-.02,0-.04-.02-.06-.03-.18.98-.52,1.88-1.32,2.52-1.36,1.1-2.91,1.29-4.55.87-.75-.19-1.24-.73-1.49-1.48-.26-.81-.29-1.63-.05-2.43.29-.96,1.05-1.39,1.97-1.6.09-.02.18-.05.26-.07.19-.19.42-.05.63-.08.93,0,1.85,0,2.78,0,.06.02.12.03.18.03-.06,0-.12-.02-.18-.03.42,0,.84,0,1.26,0,0,0,.02.03.01.03-.03.02-.06.03-.09.05.18.09.39.04.57.09.16.12.08.29.08.44"/>
    <path class="cls-18" d="M39.18,33.02c.31,0,.61.02.92,0,.35-.03.45.08.45.44-.02,2.11,0,4.23,0,6.34,0,3.38,0,6.76,0,10.14,0,.17,0,.35-.01.52-.25-.08-.14-.29-.14-.44,0-5.35,0-10.7-.01-16.04,0-.16.12-.39-.15-.47-.12-.27-.33-.23-.56-.17-.25.06-.24.24-.24.43.03,1.62-.05,3.25.04,4.87.01.22.03.51-.36.47.03-.1.11-.16.11-.29-.02-1.93-.02-3.86-.03-5.79"/>
    <path class="cls-18" d="M38.84,40.3c-.5-.12-.99-.24-1.49-.36.13-.13.41.09.46-.21.3.01.53-.24.89-.18-.17-.23-.41-.05-.55-.25.21-.1.42-.04.62-.05-.01.19.21.12.27.22,0,.15-.21.04-.22.21.51.05.29.62.59.84,0,2.25,0,4.5,0,6.75,0,.23.06.51-.31.53,0-.03,0-.05,0-.08.08-.18.02-.37.02-.55,0-2.16,0-4.33,0-6.49,0-.22,0-.4-.3-.39"/>
    <path class="cls-18" d="M39.9,44.29c0-.97,0-1.94,0-2.92,0-.11-.04-.29.11-.3.14-.01.16.16.19.27.03.1.01.21.01.32,0,1.77,0,3.54,0,5.31,0,.08,0,.16,0,.24,0,.15-.06.3-.2.3-.21,0-.11-.2-.11-.31,0-.97,0-1.94,0-2.92"/>
    <path class="cls-18" d="M40.22,35.97c0,.7,0,1.41,0,2.11,0,.1,0,.21-.02.31-.02.09-.05.2-.17.2-.16,0-.13-.14-.13-.24,0-1.53,0-3.05,0-4.58,0-.17.04-.3.24-.27.2.03.07.19.07.28.01.73,0,1.46,0,2.19"/>
    <path class="cls-18" d="M39.94,40.58s-.05-.02-.06-.04c-.16-.3-.25-.62-.28-.95-.01-.14.15-.16.27-.17.19,0,.29.12.27.27-.04.27-.11.53-.1.81,0,.06-.04.1-.11.08"/>
    <path class="cls-56" d="M30.07,44.23c0,.61-.02,1.22-.03,1.82-.02.04-.04.04-.07,0,0-.49,0-.98,0-1.47,0-.12-.06-.27.09-.36"/>
    <path class="cls-6" d="M34.07,39.6h1.41s0,.02,0,.03h-1.41v-.03Z"/>
    <path class="cls-18" d="M37.35,39.7c.12-.18.2-.33.4-.25.1.04.1.21.07.24-.12.1-.27.05-.46,0"/>
    <path class="cls-22" d="M29.98,46.05s.04,0,.07,0c0,.23.01.46.02.7-.03.02-.05.17-.07.04-.05-.24-.01-.49-.01-.74"/>
    <path class="cls-51" d="M36.82,39.83c-.2,0-.41.01-.6-.09.22,0,.46-.03.67.01.1.02-.04.04-.06.07"/>
    <path class="cls-18" d="M39.1,39.1c-.03.21-.19.15-.32.16.04-.2.15-.23.32-.16Z"/>
    <path class="cls-18" d="M39.5,40.33s.05.04.06.07c.01.05-.01.1-.07.12-.02,0-.08.07-.07-.02,0-.06,0-.13.08-.17"/>
    <path class="cls-27" d="M117.3,42c-.69-1.95-2.29-3.32-4.45-3.55-.89-.1-1.78-.1-2.67,0-.16.02-.32.02-.47.06-2.74.59-4.2,2.81-4.4,5.62-.05.99-.06,1.98,0,2.98.08,1.26.45,2.43,1.18,3.46,1.4,1.99,4.06,2.43,6.37,2.06.1-.16.24-.1.37-.05,2.01-.37,3.38-1.51,4.09-3.44.31-.84.45-1.72.51-2.61.1-1.54,0-3.06-.52-4.53M116,48.22c-.49,1.95-1.84,3-3.84,3.12-.77.05-1.54.04-2.3-.16-1.25-.32-2.15-1.09-2.57-2.29-.81-2.26-.81-4.54.06-6.78.56-1.44,1.7-2.19,3.22-2.39.06,0,.12-.04.19-.06.49-.08.99-.07,1.48,0,.39.09.78.15,1.15.28,1.27.43,2.06,1.33,2.47,2.58.61,1.88.62,3.8.14,5.7"/>
    <path class="cls-68" d="M112.25,39.66c-.49,0-.99,0-1.48,0,.49-.19,1-.06,1.5-.06,0,0,.01.02,0,.03,0,.01-.01.02-.02.03"/>
    <path class="cls-64" d="M8,15.96V7.36h.04v8.61s-.03,0-.04-.01"/>
    <path class="cls-27" d="M9.02,5.83c-1.58.01-3.17.01-4.75,0-.49,0-.98.05-1.46.16C1.33,6.33.2,7.51.07,8.86c0,2.73,0,5.46,0,8.19.18,1.19.88,2,1.94,2.49,1.37.62,2.8.68,4.26.36,1.99-.44,3.12-1.79,3.13-3.77.02-3.3,0-6.6.01-9.91,0-.3-.08-.38-.38-.38M7.93,7.61c0,1.42,0,2.85,0,4.27v3.88c0,1.6-.73,2.48-2.3,2.74-.83.14-1.67.13-2.49-.12-1.03-.31-1.62-1.04-1.71-2.12-.09-1.06-.03-2.13-.03-3.19,0-1.18-.03-2.37.03-3.55.06-1.38.92-2.2,2.31-2.23,1.3-.03,2.61,0,3.92-.02.29,0,.28.15.28.35M8.28,5.98h-3.63v-.04h3.64s-.01.03-.02.04"/>
    <path class="cls-16" d="M60.08,42.23c.09-.14.2-.08.29-.1,0,.02,0,.05-.02.07-.07.12-.16.1-.27.02"/>
    <path class="cls-60" d="M55.88.34v19.46h-.04V.32s.03.01.04.02"/>
    <path class="cls-27" d="M38.84,40.3c.31-.12.33.08.33.31,0,1.02-.01,2.04,0,3.07.02,1.31-.07,2.63.05,3.94,0,.09-.05.11-.12.12,0-2.33,0-4.66,0-6.99,0-.21,0-.39-.26-.44"/>
    <path class="cls-27" d="M55.74,51.89c-.12-.19,0-.69-.5-.4-.15.07-.31.06-.46,0-.45-.16-.43-.55-.43-.91,0-2.36,0-4.71,0-7.07,0-1.22-.12-2.41-.7-3.52-.08-.36-.34-.56-.64-.73-.05-.04-.11-.09-.16-.14-.21-.38-.61-.4-.97-.5-.03,0-.05,0-.08,0-2.21-.57-4.38-.29-6.53.33-.1.03-.25.02-.26.19-.06.1.03.24-.07.34-.06.23-.1.46-.17.68-.09.26.03.28.22.21.93-.33,1.9-.54,2.87-.71.64-.08,1.29-.08,1.94,0,.14.02.29.05.43.07,1.37.14,2.24.83,2.52,2.01.2.84.1,1.69.12,2.54,0,.23-.17.16-.28.15-.41-.05-.82-.06-1.23-.06-1.04-.05-2.07-.05-3.11,0-.43-.01-.84.08-1.25.18-2.42.57-3.49,2.34-3.17,4.82.13.13,0,.32.09.46.02.1.03.21.06.31.47,1.44,1.53,2.19,2.96,2.48,1.51.3,2.96.1,4.35-.56.1-.07.24-.05.32-.16.07-.06.14-.12.22-.17.43-.14.62-.56.97-.83,0,.25,0,.47.05.69.14.56.35,1.04,1.02,1.1.59.05,1.16-.03,1.73-.16.4-.1.41-.16.18-.63M52.85,45.9c0,.62,0,1.25,0,1.87-.07.13.02.3-.08.43-.33,1.18-.96,2.12-2.09,2.66-1.13.54-2.33.64-3.54.38-.98-.21-1.67-1.05-1.8-2.1-.02-.13,0-.27-.07-.39-.21-.3-.03-.62-.03-.93,0,.06.02.12.03.18.04-.18.07-.36.11-.54.31-1.28,1.28-1.72,2.44-1.87,1.62-.22,3.23-.08,4.85.05.2.02.19.12.19.26"/>
    <g class="cls-78">
      <rect class="cls-77" x="190.75" y="4.75" width="28.75" height="23.01"/>
    </g>
    <g class="cls-38">
      <rect class="cls-9" x="168.24" y="31.72" width="27.5" height="31.35"/>
    </g>
    <g class="cls-73">
      <rect class="cls-37" x="205.68" y="29.39" width="31.49" height="10.42"/>
    </g>
    <path class="cls-69" d="M210.48,49.87c-2.44-2.43-3.35-5.84-2.73-8.99-2.43,3.28-2.16,7.94.82,10.91,2.97,2.99,7.63,3.25,10.9.82-3.15.62-6.55-.3-8.99-2.74"/>
    <g class="cls-52">
      <rect class="cls-26" x="173.7" y=".34" width="63.75" height="55.13"/>
    </g>
    <g class="cls-7">
      <rect class="cls-41" x="209.35" y="34.62" width="16.37" height="16.38"/>
    </g>
  </g>
</svg>