<?xml version="1.0" encoding="UTF-8"?>
<svg id="Layer_2" data-name="Layer 2" xmlns="http://www.w3.org/2000/svg" viewBox="0 0 828.63 159.08">
  <g id="Layer_1-2" data-name="Layer 1">
    <g>
      <path d="M126.82,113.91c2.18,0,4.19.41,6.02,1.22,1.83.81,3.44,1.9,4.8,3.27,1.37,1.37,2.46,2.98,3.27,4.84.81,1.86,1.28,3.81,1.41,5.86.04.9.07,2,.1,3.3.02,1.3.03,2.64.03,4s-.01,2.69-.03,3.97c-.02,1.28-.05,2.37-.1,3.27-.13,2.05-.6,3.99-1.41,5.83-.81,1.84-1.9,3.44-3.27,4.8-1.37,1.37-2.97,2.46-4.8,3.27-1.84.81-3.84,1.22-6.02,1.22h-28.01c-.34,0-.51-.19-.51-.58v-43.69c0-.38.17-.58.51-.58h28.01ZM125.93,151.07c1.02,0,1.92-.24,2.69-.71.77-.47,1.43-1.08,1.99-1.83.55-.75.98-1.58,1.28-2.5.3-.92.49-1.83.58-2.72.04-.85.07-1.89.1-3.1.02-1.22.03-2.49.03-3.81s-.01-2.6-.03-3.84c-.02-1.24-.05-2.31-.1-3.2-.04-.9-.21-1.81-.51-2.75-.3-.94-.73-1.77-1.28-2.5-.55-.73-1.23-1.32-2.02-1.79-.79-.47-1.7-.7-2.72-.7h-17.76v29.47h17.76Z"/>
      <path d="M175.62,126.73c.39,0,.58.19.58.58v5.83c0,.38-.19.58-.58.58h-12.81c-1.28,0-2.32.11-3.11.32-.79.21-1.4.51-1.83.9-.43.38-.71.86-.86,1.41-.15.56-.22,1.18-.22,1.86v19.99c0,.39-.19.58-.58.58h-7.62c-.38,0-.58-.19-.58-.58v-20.88c0-3.5,1.14-6.14,3.43-7.91,2.28-1.77,5.86-2.66,10.73-2.66h13.45Z"/>
      <path d="M189.95,113.91c.38,0,.58.17.58.51v7.3c0,.38-.19.58-.58.58h-7.62c-.38,0-.58-.19-.58-.58v-7.3c0-.34.19-.51.58-.51h7.62ZM189.95,126.73c.38,0,.58.17.58.51v30.94c0,.39-.19.58-.58.58h-7.62c-.38,0-.58-.19-.58-.58v-30.94c0-.34.19-.51.58-.51h7.62Z"/>
      <path d="M234.97,126.53c.64,0,.81.28.51.83-2.01,4.57-3.82,8.69-5.44,12.36-.68,1.58-1.37,3.14-2.05,4.68-.68,1.54-1.3,2.92-1.86,4.16-.56,1.24-1.02,2.28-1.38,3.14-.36.85-.59,1.37-.67,1.54-.6,1.32-1.24,2.39-1.92,3.2-.68.81-1.52,1.39-2.5,1.73-.47.21-1.06.37-1.76.45-.71.09-1.42.13-2.15.13s-1.41-.04-2.05-.13c-.64-.08-1.2-.24-1.67-.45-.98-.38-1.82-.97-2.53-1.76-.71-.79-1.36-1.85-1.96-3.17-.09-.17-.32-.68-.7-1.54-.39-.85-.85-1.9-1.38-3.14-.54-1.24-1.14-2.63-1.83-4.16-.68-1.54-1.37-3.1-2.05-4.68-1.62-3.67-3.44-7.79-5.44-12.36-.17-.55.02-.83.58-.83h7.11c.85,0,1.43.38,1.73,1.15l9.61,21.71c.04.17.15.3.32.39.09.04.19.06.32.06.17,0,.28-.02.32-.06.17-.04.3-.17.38-.39l9.54-21.71c.34-.77.94-1.15,1.79-1.15h7.11Z"/>
      <path d="M267.32,126.73c1.58,0,3.05.3,4.42.9,1.37.6,2.54,1.41,3.52,2.43.98,1.03,1.76,2.21,2.34,3.56.58,1.34.86,2.74.86,4.19v5.45c0,.73-.33,1.45-.99,2.18-.66.73-1.48,1.09-2.47,1.09h-24.92v1.22c0,.98.32,1.9.96,2.76.64.85,1.51,1.28,2.63,1.28h22.49c.38,0,.58.17.58.51v5.89c0,.38-.19.58-.58.58h-23.64c-1.62,0-3.11-.34-4.45-1.02-1.35-.68-2.5-1.58-3.46-2.69-.96-1.11-1.73-2.36-2.31-3.75-.58-1.39-.91-2.81-.99-4.26-.04-.6-.07-1.27-.1-2.02-.02-.75-.03-1.5-.03-2.27s.01-1.51.03-2.24c.02-.73.05-1.41.1-2.05.04-1.45.35-2.88.93-4.29.58-1.41,1.36-2.67,2.34-3.78.98-1.11,2.15-1.99,3.49-2.66,1.35-.66,2.83-.99,4.45-.99h14.8ZM268.66,139.54c.26,0,.49-.11.71-.32.21-.21.32-.47.32-.77v-1.09c0-1.37-.3-2.32-.9-2.85-.6-.53-1.45-.8-2.56-.8h-12.56c-1.11,0-1.98.35-2.63,1.06-.64.7-.96,1.57-.96,2.59v2.18h18.58Z"/>
      <path d="M360,113.91c.26,0,.43.11.51.32.09.21.04.41-.13.58l-24.21,26.58v16.78c0,.38-.19.58-.58.58h-8.71c-.38,0-.58-.19-.58-.58v-16.98l-24.15-26.39c-.17-.17-.2-.36-.1-.58.11-.21.27-.32.48-.32h9.74c.89,0,1.6.3,2.11.9l15.5,16.85c.39.38.85.58,1.41.58s1.02-.19,1.41-.58l15.44-16.85c.51-.6,1.22-.9,2.11-.9h9.74Z"/>
      <path d="M380.69,126.41c2.18,0,4.3.04,6.37.13,2.07.09,3.92.41,5.54.96,1.62.56,2.94,1.32,3.94,2.3,1,.98,1.78,2.18,2.34,3.59h-.06c.6,1.37.99,2.84,1.18,4.42.19,1.58.29,3.25.29,5s-.1,3.29-.29,4.87c-.19,1.58-.59,3.05-1.18,4.42h.06c-.55,1.45-1.33,2.66-2.34,3.62s-2.32,1.74-3.94,2.34c-1.49.47-3.29.76-5.38.87-2.09.11-4.27.16-6.53.16s-4.38-.05-6.47-.16c-2.09-.11-3.88-.4-5.38-.87-1.62-.55-2.95-1.33-3.97-2.34-1.03-1-1.82-2.21-2.37-3.62-.55-1.32-.94-2.78-1.15-4.36-.21-1.58-.32-3.22-.32-4.93,0-1.79.11-3.48.32-5.06.21-1.58.6-3.03,1.15-4.36.55-1.37,1.35-2.56,2.37-3.59,1.02-1.02,2.35-1.79,3.97-2.3,1.58-.47,3.43-.77,5.54-.9,2.11-.13,4.22-.19,6.31-.19M380.69,152.09c1.49,0,2.92-.02,4.29-.06,1.37-.04,2.48-.21,3.33-.51.81-.3,1.41-.7,1.79-1.22.38-.51.68-1.13.9-1.86.21-.77.35-1.62.42-2.56.06-.94.1-1.96.1-3.07s-.03-2.21-.1-3.17c-.06-.96-.2-1.82-.42-2.59-.21-.73-.51-1.37-.9-1.92-.38-.55-.98-.94-1.79-1.15-.94-.26-2.08-.42-3.43-.48-1.35-.07-2.75-.1-4.2-.1s-2.9.02-4.23.06c-1.32.04-2.45.21-3.39.51-.77.21-1.36.6-1.76,1.15-.41.56-.72,1.2-.93,1.92-.21.85-.36,1.75-.45,2.69-.09.94-.13,1.97-.13,3.08,0,1.02.04,2.01.13,2.95.08.94.23,1.84.45,2.69.21.73.53,1.35.96,1.86.43.51,1,.92,1.73,1.22.85.3,1.96.47,3.33.51,1.37.04,2.8.06,4.29.06"/>
      <path d="M440.89,126.73c.39,0,.58.19.58.58v15.12c0,1.79-.1,3.52-.29,5.16-.19,1.64-.54,3.13-1.06,4.45-.55,1.41-1.33,2.62-2.34,3.62-1,1-2.34,1.76-4,2.27-1.49.47-2.99.78-4.48.93-1.5.15-3.35.22-5.57.22s-4.09-.07-5.61-.22c-1.51-.15-3-.46-4.45-.93-1.62-.51-2.95-1.28-3.97-2.31-1.02-1.02-1.82-2.22-2.37-3.59-.56-1.37-.94-2.87-1.15-4.52-.21-1.64-.32-3.34-.32-5.09v-15.12c0-.39.19-.58.58-.58h7.62c.38,0,.58.19.58.57v15.08c0,1.06.04,2.1.13,3.1.09,1,.23,1.93.45,2.78.21.72.53,1.34.96,1.85.43.51,1,.91,1.73,1.21.9.34,1.73.55,2.5.64.77.08,1.88.13,3.33.13s2.56-.04,3.33-.13c.77-.09,1.6-.3,2.5-.64.77-.3,1.35-.7,1.73-1.21.39-.51.68-1.13.9-1.85.21-.77.35-1.66.42-2.68.06-1.02.1-2.09.1-3.19v-15.08c0-.38.19-.57.58-.57h7.62Z"/>
      <path d="M474.63,126.73c.39,0,.58.19.58.58v5.83c0,.38-.19.58-.58.58h-12.81c-1.28,0-2.32.11-3.11.32-.79.21-1.4.51-1.83.9-.43.38-.71.86-.86,1.41-.15.56-.22,1.18-.22,1.86v19.99c0,.39-.19.58-.58.58h-7.62c-.38,0-.58-.19-.58-.58v-20.88c0-3.5,1.14-6.14,3.43-7.91,2.28-1.77,5.86-2.66,10.73-2.66h13.45Z"/>
      <path d="M576.16,126.73c.38,0,.58.19.58.58v15.12c0,1.79-.1,3.52-.29,5.16-.19,1.64-.55,3.13-1.06,4.45-.55,1.41-1.33,2.62-2.34,3.62-1,1-2.34,1.76-4,2.27-1.5.47-2.99.78-4.48.93-1.5.15-3.35.22-5.57.22s-4.09-.07-5.6-.22c-1.52-.15-3-.46-4.45-.93-1.62-.51-2.95-1.28-3.97-2.31-1.03-1.02-1.82-2.22-2.37-3.59-.55-1.37-.94-2.87-1.15-4.52-.22-1.64-.32-3.34-.32-5.09v-15.12c0-.39.19-.58.58-.58h7.62c.38,0,.58.19.58.57v15.08c0,1.06.04,2.1.13,3.1.09,1,.23,1.93.45,2.78.21.72.53,1.34.96,1.85.43.51,1,.91,1.73,1.21.9.34,1.73.55,2.5.64.77.08,1.88.13,3.33.13s2.56-.04,3.33-.13c.77-.09,1.6-.3,2.5-.64.77-.3,1.34-.7,1.73-1.21.39-.51.68-1.13.9-1.85.21-.77.35-1.66.42-2.68.06-1.02.1-2.09.1-3.19v-15.08c0-.38.19-.57.58-.57h7.62Z"/>
      <path d="M596.65,118.27c.39,0,.58.19.58.58v7.88h14.35c.38,0,.58.19.58.58v5.83c0,.38-.19.58-.58.58h-14.35v13.84c0,.98.31,1.93.93,2.85.62.92,1.48,1.38,2.59,1.38h9.99c.38,0,.58.19.58.58v5.83c0,.38-.19.58-.58.58h-11.08c-1.62,0-3.12-.31-4.48-.93-1.37-.62-2.55-1.44-3.56-2.47-1-1.02-1.78-2.21-2.34-3.55-.55-1.35-.83-2.77-.83-4.26v-13.84h-5.57c-.38,0-.58-.19-.58-.58v-5.83c0-.39.19-.58.58-.58h5.57v-7.88c0-.39.19-.58.58-.58h7.62Z"/>
      <path d="M652.75,126.73c.38,0,.58.19.58.58v15.12c0,1.79-.1,3.52-.29,5.16-.19,1.64-.55,3.13-1.06,4.45-.56,1.41-1.34,2.62-2.34,3.62-1,1-2.34,1.76-4,2.27-1.5.47-2.99.78-4.48.93-1.5.15-3.35.22-5.57.22s-4.09-.07-5.6-.22c-1.52-.15-3-.46-4.45-.93-1.62-.51-2.95-1.28-3.97-2.31-1.03-1.02-1.82-2.22-2.37-3.59-.56-1.37-.94-2.87-1.15-4.52-.22-1.64-.32-3.34-.32-5.09v-15.12c0-.39.19-.58.58-.58h7.62c.38,0,.58.19.58.57v15.08c0,1.06.04,2.1.13,3.1.09,1,.23,1.93.45,2.78.21.72.53,1.34.96,1.85.43.51,1,.91,1.73,1.21.9.34,1.73.55,2.5.64.77.08,1.88.13,3.33.13s2.56-.04,3.33-.13c.77-.09,1.6-.3,2.5-.64.77-.3,1.34-.7,1.73-1.21.39-.51.68-1.13.9-1.85.21-.77.35-1.66.42-2.68.06-1.02.1-2.09.1-3.19v-15.08c0-.38.19-.57.58-.57h7.62Z"/>
      <path d="M686.49,126.73c.39,0,.58.19.58.58v5.83c0,.38-.19.58-.58.58h-12.81c-1.28,0-2.32.11-3.11.32-.79.21-1.4.51-1.83.9-.43.38-.71.86-.86,1.41-.15.56-.22,1.18-.22,1.86v19.99c0,.39-.19.58-.58.58h-7.62c-.38,0-.58-.19-.58-.58v-20.88c0-3.5,1.14-6.14,3.43-7.91,2.28-1.77,5.86-2.66,10.73-2.66h13.45Z"/>
      <path d="M718.76,126.73c1.58,0,3.05.3,4.42.9,1.37.6,2.54,1.41,3.52,2.43.98,1.03,1.76,2.21,2.34,3.56.58,1.34.87,2.74.87,4.19v5.45c0,.73-.33,1.45-.99,2.18-.66.73-1.49,1.09-2.47,1.09h-24.92v1.22c0,.98.32,1.9.96,2.76.64.85,1.51,1.28,2.63,1.28h22.48c.39,0,.58.17.58.51v5.89c0,.38-.19.58-.58.58h-23.64c-1.62,0-3.11-.34-4.45-1.02-1.35-.68-2.5-1.58-3.46-2.69-.96-1.11-1.73-2.36-2.31-3.75-.58-1.39-.91-2.81-.99-4.26-.04-.6-.07-1.27-.1-2.02-.02-.75-.03-1.5-.03-2.27s.01-1.51.03-2.24c.02-.73.05-1.41.1-2.05.04-1.45.35-2.88.93-4.29.58-1.41,1.35-2.67,2.34-3.78.98-1.11,2.15-1.99,3.49-2.66,1.34-.66,2.83-.99,4.45-.99h14.8ZM720.11,139.54c.26,0,.49-.11.71-.32.21-.21.32-.47.32-.77v-1.09c0-1.37-.3-2.32-.9-2.85-.6-.53-1.45-.8-2.56-.8h-12.56c-1.11,0-1.98.35-2.63,1.06-.64.7-.96,1.57-.96,2.59v2.18h18.58Z"/>
      <rect y="139.81" width="77.3" height="2.73"/>
      <path d="M534.99,113.91l-34.55-.07-.03,44.2c0,.47.17.71.51.71h8.78c.39,0,.58-.24.58-.71v-17.87h23.49c.55,0,.83-.19.83-.58v-6.6c0-.34-.28-.51-.83-.51l-23.6.07v-11l24.82.04c.39,0,.58-.19.58-.58v-6.54c0-.38-.19-.58-.58-.58"/>
      <rect x="750.91" y="139.81" width="77.3" height="2.73"/>
      <path d="M537.16,0h-105.73c-4.82,0-8.72,3.9-8.72,8.72v61.07c0,4.82,3.9,8.72,8.72,8.72h105.73c4.82,0,8.72-3.9,8.72-8.72V8.72c0-4.81-3.9-8.72-8.72-8.72M522.46,61.99c0,.22-.17.4-.39.4h-75.53c-.22,0-.4-.18-.4-.4V16.52c0-.22.18-.39.4-.39h75.53c.22,0,.39.17.39.39v45.48Z"/>
      <path d="M401.04,0h-120.08c-.44,0-.79.36-.79.79v14.54c0,.43.35.79.79.79h47.92c.23,0,.4.17.4.39v61.21c0,.43.36.79.8.79h21.83c.44,0,.8-.36.8-.79V16.52c0-.22.18-.39.4-.39h47.92c.44,0,.79-.36.79-.79V.79c0-.43-.35-.79-.79-.79"/>
      <path d="M684.95,0h-21.84c-.44,0-.79.36-.79.79v61.2c0,.22-.17.4-.4.4h-71.34c-.22,0-.39-.17-.39-.4V.79c0-.43-.36-.79-.8-.79h-21.83c-.44,0-.79.36-.79.79v69c0,4.82,3.91,8.72,8.72,8.72h101.54c4.82,0,8.71-3.9,8.71-8.72V.79c0-.43-.35-.79-.79-.79"/>
      <path d="M783.69,46.5h34.72c4.82,0,8.73-3.9,8.73-8.73V8.73C827.14,3.9,823.23,0,818.41,0h-111.01c-.44,0-.79.36-.79.79v76.93c0,.43.35.79.79.79h21.84c.43,0,.79-.36.79-.79v-44.46l65.53,44.9c.33.22.72.34,1.12.34h31.14c.78,0,1.09-1,.45-1.44l-44.59-30.56ZM730.03,29.99v-13.47c0-.22.18-.4.4-.4h72.88c.22,0,.4.18.4.4v13.47c0,.22-.19.4-.4.4h-72.88c-.22,0-.4-.18-.4-.4"/>
      <path d="M258.51,0h-109.35c-4.81,0-8.72,3.9-8.72,8.73v61.07c0,4.82,3.91,8.72,8.72,8.72h109.35c.44,0,.79-.36.79-.79v-14.55c0-.43-.35-.79-.79-.79h-94.25c-.22,0-.4-.17-.4-.39v-14.28c0-.22.18-.4.4-.4h88.21c.44,0,.8-.36.8-.8v-14.53c0-.44-.36-.79-.8-.79h-88.21c-.22,0-.4-.19-.4-.4v-14.29c0-.22.18-.4.4-.4h94.25c.44,0,.79-.36.79-.79V.79c0-.43-.35-.79-.79-.79"/>
      <path d="M.79,62.39C.35,62.39,0,62.75,0,63.18v14.54c0,.43.35.79.79.79h110.05c4.82,0,8.72-3.9,8.72-8.72V.79c0-.43-.35-.79-.8-.79h-21.83c-.44,0-.8.36-.8.79v61.2c0,.22-.18.4-.39.4-31.65,0-63.3,0-94.95,0"/>
    </g>
  </g>
</svg>