<?xml version="1.0" encoding="UTF-8"?>
<svg id="Layer_2" data-name="Layer 2" xmlns="http://www.w3.org/2000/svg" viewBox="0 0 696.67 352.53">
  <defs>
    <style>
      .cls-1 {
        fill: #0075bf;
      }

      .cls-2 {
        fill: #fff;
      }
    </style>
  </defs>
  <g id="Layer_1-2" data-name="Layer 1">
    <g>
      <rect class="cls-1" width="162.06" height="352.53"/>
      <polygon class="cls-2" points="148.77 242.93 96.54 173.31 145.4 111.42 103.31 111.42 59.08 168.78 59.08 111.42 23.32 111.42 23.32 242.93 59.08 242.93 59.08 180.6 105.01 242.93 148.77 242.93"/>
      <rect class="cls-1" x="356.39" width="162.04" height="352.53"/>
      <polygon class="cls-2" points="463.85 111.42 463.85 175.65 398.27 111.42 377.82 111.42 377.82 242.93 410.89 242.93 410.89 176.21 478.96 242.93 497.05 242.93 497.05 111.42 463.85 111.42"/>
      <rect class="cls-1" x="178.24" width="162.04" height="352.53"/>
      <path class="cls-2" d="M259.26,107.61c-38.53,0-69.5,27.91-69.5,68.63s30.97,68.67,69.5,68.67,69.52-27.94,69.52-68.67-31-68.63-69.52-68.63M293.02,176.24c0,22.35-14.77,37.63-33.76,37.63s-33.77-15.28-33.77-37.63,14.7-37.65,33.77-37.65,33.76,15.37,33.76,37.65"/>
      <rect class="cls-1" x="534.61" width="162.06" height="352.53"/>
      <polygon class="cls-2" points="600.66 213.09 600.66 190.78 658.71 190.78 658.72 162.62 600.66 162.62 600.66 140.39 666.75 140.39 666.75 111.42 565.32 111.42 565.32 242.93 666.75 242.93 666.75 213.09 600.66 213.09"/>
    </g>
  </g>
</svg>