<?xml version="1.0" encoding="UTF-8"?>
<svg id="Layer_2" data-name="Layer 2" xmlns="http://www.w3.org/2000/svg" viewBox="0 0 227.12 118.37">
  <g id="Layer_1-2" data-name="Layer 1">
    <g>
      <path d="M132.83,88.69c1.08-.71,2.16-1.44,3.26-2.12.56-.35.79-.84.91-1.46.48-2.33,1.23-4.57,2.49-6.61,1.13-1.83,2.62-3.34,4.41-4.49.7-.46,1.6-.68,2.44-.84.86-.17,1.65.16,2.12.94.44.72.26,1.48-.18,2.12-.61.87-1.28,1.72-2.01,2.5-2.12,2.27-4.28,4.52-6.45,6.75-.43.44-.7.92-.69,1.51.02,1.29,0,2.59.16,3.87.2,1.72,1.02,2.07,2.3.95.89-.77,1.67-1.71,2.36-2.67,2.26-3.15,3.87-6.67,5.49-10.17,1.03-2.24,2.12-4.45,3.08-6.72.47-1.09.72-2.28,1.07-3.42.15-.47-.05-.63-.51-.63-1.71,0-3.43.02-5.14-.04-.91-.03-1.83-.09-2.65-.63-.57-.38-1.24-.62-1.88-.91-1.07-.48-1.43-1.35-.97-2.41.2-.47.6-.32.97-.28,1.13.13,2.28.4,3.4.34,1.91-.1,3.81-.4,5.71-.62.59-.07,1.18-.18,1.78-.23.5-.03.78-.25.87-.74.77-4.06,1.59-8.11,2.3-12.18.43-2.47.73-4.97.61-7.5-.02-.47.14-.83.6-1.02.09-.04.19-.08.26-.15.24-.24.25-.72.77-.69.98.06,2-.17,2.91.43,1.1.71,1.89,1.7,2.12,2.96.41,2.25.8,4.51.94,6.79.14,2.29-.51,4.54-.98,6.78-.23,1.07-.47,2.14-.73,3.21-.11.46-.03.65.5.53,3.31-.7,6.63-1.38,9.95-2.05.48-.1.72-.39.83-.84.65-2.48,1.29-4.96,1.96-7.44.42-1.56.8-3.14,1.35-4.66.57-1.57.7-3.2.89-4.83.12-.99.94-1.57,1.91-1.51.62.04,1.26.07,1.86-.06,1.05-.23,2.08-.14,3.11-.02.78.09,1.29.88,1.1,1.72-.15.65-.39,1.29-.6,1.92-.95,2.83-1.91,5.66-2.84,8.5-.5,1.54-.95,3.1-1.42,4.64-.23.76-.24.76.54.6,6.07-1.29,12.13-2.59,18.2-3.87,5.9-1.25,11.79-2.51,17.7-3.7,2.29-.46,4.59-.94,6.95-.89.36,0,.73.1,1.09.17.04,0,.09.21.06.24-.31.24-.6.54-.96.69-4.69,1.89-9.46,3.56-14.33,4.96-4.91,1.41-9.79,2.92-14.71,4.27-5.12,1.4-10.27,2.67-15.42,3.95-.77.19-1.17.49-1.37,1.3-1.02,4.26-2.06,8.52-3.18,12.76-1.31,4.96-2.77,9.88-4.07,14.84-.6,2.28-1,4.62-1.45,6.94-.05.28.11.77.32.89.2.12.67-.04.91-.22.59-.45,1.14-.96,1.67-1.49,3.55-3.53,7.09-7.07,10.62-10.62,1.37-1.38,2.72-2.77,4.03-4.21.27-.29.43-.79.44-1.19.03-2.16-.02-4.33.39-6.47.58-3.03,1.78-5.79,3.46-8.37.22-.33.41-.69.57-1.05.74-1.68,1.95-2.99,3.35-4.14.32-.27.65-.56.88-.91.48-.72,1.12-.94,1.97-.96,1.85-.05,3.65.28,5.47.56,1.55.23,3.1.46,4.65.67,1.21.17,1.95.6,1.9,2-.02.59.21,1.18.22,1.77,0,.42-.05.91-.27,1.25-1.98,3.07-4.25,5.91-6.99,8.32-2.35,2.07-4.79,4.04-7.17,6.08-1.23,1.05-2.41,2.16-3.62,3.23-.34.3-.45.63-.31,1.06.44,1.32.77,2.68,1.33,3.95,1.07,2.45,2.4,4.75,4.08,6.85,1.63,2.05,3.57,3.76,5.87,5.01,2.27,1.23,4.75,1.44,7.26,1.18,2.5-.26,4.99-.62,7.48-.93.15-.02.31-.03.44.02.15.06.31.17.37.3.03.07-.1.28-.21.34-.58.34-1.14.73-1.77.96-3.36,1.21-6.84,1.79-10.42,1.63-2.97-.13-5.61-1.25-8.12-2.77-4.89-2.97-8.05-7.25-9.66-12.71-.27-.91-.29-.94-.98-.35-.94.81-1.82,1.7-2.76,2.51-3.73,3.22-7.33,6.6-11.49,9.28-.91.58-1.94,1.02-2.97,1.34-1.03.32-1.61-.07-1.92-1.12-.44-1.47-.53-2.99-.44-4.51.06-1.02.24-2.03.25-3.04.07-4.32.72-8.57,1.55-12.8.03-.18,0-.36.01-.55-.14.14-.31.25-.41.41-.67,1.05-1.37,2.08-1.97,3.17-2.1,3.76-4.17,7.53-6.24,11.31-.8,1.46-1.56,2.95-2.32,4.44-.55,1.07-1.35,1.9-2.57,1.87-.86-.02-1.8-.27-2.56-.68-3.53-1.91-5.32-4.94-5.34-8.94,0-1.91.26-3.82.38-5.72.03-.51-.03-1.02-.05-1.54-.3.37-.62.73-.9,1.13-1.52,2.19-2.99,4.41-4.56,6.56-.61.83-1.37,1.58-2.18,2.23-2.11,1.71-4.37,1.08-5.95-.87-.99-1.22-1.23-2.69-1.02-4.23.03-.21-.03-.43-.05-.65-.21.09-.46.14-.63.28-1.01.85-1.99,1.73-3.01,2.57-.54.44-.75,1-.88,1.66-.52,2.66-.97,5.35-1.65,7.97-1.05,4.07-2.6,7.96-4.98,11.46-.65.95-1.46,1.83-2.3,2.62-2.46,2.3-5.36,1.19-6.71-1.69-.85-1.8-.75-3.67-.29-5.55.7-2.86,2.21-5.32,3.96-7.64,1.82-2.42,3.98-4.51,6.31-6.43.65-.54,1.34-1.04,1.94-1.63.26-.25.44-.67.48-1.03.25-2.62.46-5.25.68-7.87,0-.02,0-.05,0-.07-.01-.96-.28-1.14-1.11-.6-1,.65-1.96,1.37-2.91,2.09-1.09.83-2.28,1.38-3.66,1.24-2.16-.23-3.25-1.38-3.52-3.59-.01-.1,0-.2-.02-.3-.02-.11-.07-.22-.11-.33-.09.07-.2.13-.27.22-.61.82-1.23,1.63-1.8,2.48-1.73,2.62-3.45,5.25-5.16,7.88-.64.98-1.25,1.98-1.86,2.97-.36.59-.58.67-1.23.37-.69-.31-1.31-.83-2.17-.52-.17.06-.49-.11-.67-.26-.59-.49-1.2-.98-1.72-1.55-.24-.27-.41-.72-.4-1.07.09-2.13.25-4.26.37-6.39.01-.24-.03-.48-.04-.73-.24.08-.51.12-.73.24-.53.28-1.07.55-1.54.92-1.02.82-2.76-.44-2.75-1.62.02-1.16.15-2.28.56-3.37.86-2.31,2.08-4.38,4.24-5.7.75-.46,1.63-.73,2.49-.96.58-.16.98-.4,1.22-.96.22-.5.41-1.15.81-1.38.38-.22,1.03.02,1.56.07.99.1,1.98.21,2.97.32.75.09.97.32.76,1.02-.34,1.14-.64,2.32-1.18,3.37-1.13,2.24-2.12,4.51-2.52,7-.21,1.28-.35,2.56-.5,3.85-.02.14.08.3.13.45.13-.1.29-.18.39-.3.94-1.16,1.83-2.36,2.82-3.48,1.79-2.04,3.63-4.02,5.44-6.04.46-.52.9-1.06,1.29-1.63.35-.51.77-.83,1.41-.81.67.02.79.3.53.92-.34.79-.63,1.61-.86,2.43-.31,1.1-.08,2.17.29,3.22.41,1.15,1.31,1.53,2.44,1.03,1.23-.54,2.05-1.54,2.88-2.54,1.25-1.52,2.53-3.01,3.8-4.51.28-.33.59-.62,1.08-.51.05,0,.11,0,.15-.01.99-.62,1.67.06,2.51.46,1.92.93,1.98,2.58,1.73,4.25-.35,2.28-.92,4.53-1.4,6.8-.06.29-.11.58-.16.88h.01ZM105.16,76.56c-.27.12-.56.22-.81.37-2.69,1.64-3.93,4.2-4.52,7.16-.03.17.03.44.15.52.1.07.39-.01.52-.12.91-.76,1.82-1.54,2.7-2.34.23-.21.45-.5.54-.79.5-1.59.96-3.19,1.43-4.78h-.01ZM172.45,65.96c-.32.05-.64.08-.96.14-2.85.61-5.69,1.22-8.53,1.86-.29.07-.68.33-.76.58-.7,2.26-1.41,4.52-1.99,6.81-.75,2.92-1.22,5.92-2.14,8.77-.87,2.71-.86,5.43-.86,8.19,0,.16.07.32.11.48.15-.11.33-.2.44-.34.62-.81,1.25-1.62,1.84-2.45,4.7-6.64,8.46-13.79,11.72-21.21.41-.93.76-1.89,1.14-2.83h0ZM119.22,108.17c0,.15,0,.3,0,.45.02.96.2,1.91,1.15,2.34.99.44,1.77-.16,2.44-.85,1.8-1.87,2.88-4.15,3.82-6.53.98-2.49,1.17-5.13,1.42-7.75.02-.19,0-.38,0-.57-.2.08-.42.13-.59.25-2.71,1.94-4.96,4.3-6.58,7.22-.94,1.69-1.65,3.46-1.66,5.44ZM193.99,78.11c.03.09.06.21.09.33.13-.06.26-.1.37-.18.1-.07.18-.17.27-.26,1.91-2.09,3.88-4.13,5.41-6.53.88-1.38,1.75-2.77,2.59-4.17.13-.21.15-.73.04-.79-.67-.4-1.37-.82-2.12-.99-.28-.07-.78.45-1.06.8-1.63,2.08-3.07,4.28-4.17,6.69-.74,1.62-1.15,3.33-1.42,5.11ZM145.59,74.97c-.54.34-1.18.58-1.59,1.03-.8.87-1.58,1.8-2.17,2.82-.74,1.29-1.28,2.68-1.89,4.04-.09.2-.07.46-.1.69.17-.13.35-.26.52-.39.04-.03.07-.07.11-.11,1.27-1.43,2.58-2.83,3.79-4.31.7-.86,1.29-1.82,1.86-2.78.31-.53.09-.86-.52-1Z"/>
      <path d="M38.02,45.44c0-1.12,0-2.24,0-3.36,0-.16-.09-.31-.15-.47-.15.07-.34.11-.43.23-1.13,1.46-2.67,2.43-4.11,3.53-.59.45-1.06,1.32-1.96.81-1.02-.58-1.82-1.39-1.87-2.69-.08-1.8.37-3.51.85-5.21,1.02-3.61,3.06-6.64,5.63-9.3,1.2-1.23,2.59-2.34,4.32-2.84.25-.07.48-.34.64-.57.21-.3.36-.66.51-1,.2-.43.49-.48.92-.34.9.29,1.82.48,2.71.81.69.25,1.38.59,1.99,1,.18.12.2.64.13.94-.24.94-.54,1.87-.86,2.78-1.1,3.17-1.82,6.42-2.14,9.75-.14,1.43-.13,2.88-.17,4.32,0,.18.09.37.14.56.17-.08.33-.16.5-.24,1.45-.63,2.04-1.92,2.63-3.26.4-.9,1.02-1.71,1.49-2.59,3.11-5.85,5.23-12.04,6.44-18.56.89-4.83,2.1-9.58,3.66-14.24.27-.8.32-1.69.4-2.55.06-.57.64-1.39,1.23-1.58.13-.04.27-.12.36-.22.21-.24.33-.6.58-.74.73-.42,1.54-.52,2.36-.26.87.28,1.68.73,2.67.54.26-.05.63.32.9.56.28.25.66.54.72.86.05.31-.28.67-.42,1.01-.46,1.13-.8,2.28-.81,3.54,0,1.06-.15,2.13-.38,3.17-1.35,6.08-2.78,12.14-4.11,18.22-.79,3.63-1.18,7.3-1.35,11.02-.13,2.63-.03,5.22.36,7.8.5,3.29,3.09,4.86,5.93,5.15.59.06,1.29-.21,1.81-.53,1.03-.65,1.99-1.42,2.92-2.2.22-.18.35-.61.33-.91-.28-4.03.46-7.89,2.09-11.56.74-1.67,1.75-3.23,2.68-4.82.26-.45.51-.82.21-1.37-.08-.15.04-.56.2-.67.65-.48,1.34-.91,2.04-1.34.59-.36,1.18-.53,1.94-.53,1.47,0,2.67.56,3.84,1.28,1.58.97,1.97,1.93,1.66,3.78-.25,1.5-.97,2.77-1.85,3.96-1.33,1.8-2.73,3.55-4.44,5.03-.46.4-.74,1-1.13,1.48-1,1.21-2.04,2.38-3,3.62-.27.34-.45.86-.42,1.29.05.91.19,1.83.43,2.71.28,1.01,1.01,1.3,1.98.88,1.08-.47,1.98-1.19,2.63-2.15,2.09-3.1,4.13-6.22,6.18-9.35.79-1.21,1.52-2.45,2.3-3.67.24-.38.34-.74.17-1.19-.54-1.41-.16-2.74.47-4.02.08-.15.3-.33.46-.33.65,0,1.44-.13,1.91.18.51.34.04,1.05-.15,1.58-.1.28-.2.56-.27.85-.21.84.04,1.52.76,2.01,1,.7,2.04,1.34,3.01,2.07,1.2.89,1.8,2.09,1.95,3.62.16,1.54-.18,3.02-.22,4.53-.04,1.74.02,3.47.04,5.21,0,.08.07.17.11.25.09-.08.2-.14.27-.23,1.12-1.65,2.29-3.26,3.33-4.96,1.64-2.71,3.04-5.55,4.14-8.52.61-1.64,1.11-3.29.84-5.1-.09-.59.06-1.23.19-1.82.24-1.07,1.1-1.24,2.02-1.2.62.03,1.24.12,1.85.23,1.57.29,2.7,1.91,2.25,3.45-1.17,4.07-2.39,8.12-3.66,12.16-.35,1.1-1.09,2.09-1.41,3.2-.48,1.69-.82,3.43-1.09,5.17-.15.96.21,1.12,1.07.64,2.36-1.31,4.26-3.18,6.06-5.16.38-.42.89-.76,1.13-1.24.27-.55.38-1.22.43-1.85.26-3.11,1.36-5.96,2.65-8.75.44-.95.94-1.86,1.46-2.77.39-.68,1.03-1,1.82-.97.69.03,1.39.08,2.08.13,1.6.11,2.13,1.35,1.92,2.71-.31,2.05-1.31,3.8-2.5,5.45-.39.55-.79,1.09-1.27,1.56-.25.25-.69.29-.99.5-.23.16-.5.44-.53.69-.11,1.23-.32,2.46-.01,3.71.2.84.17,1.73.26,2.59.12,1.09.53,1.28,1.38.6,1.12-.91,2.25-1.82,3.28-2.82,3.09-3,5.97-6.2,8.7-9.53.35-.42.34-.75.12-1.2-.79-1.67-1.23-3.4-.93-5.28.13-.8.33-1.49,1.12-1.9.35-.18.69-.43.94-.73.51-.63,1.12-.63,1.81-.47.7.16,1.43.24,2.12.42,1.4.36,1.93,1.31,1.27,2.59-.63,1.23-1.48,2.35-2.32,3.45-.6.79-.7.83-.22,1.71,1.16,2.15,2.72,3.96,4.62,5.51,2.22,1.81,4.18,3.9,5.32,6.55.56,1.3.74,2.77,1.04,4.17.07.3.1.73-.46.76-.1,0-.19.31-.25.48-.08.26-.1.54-.17.8-.02.08-.11.15-.17.22-.03-.1-.09-.21-.09-.3.02-.21.14-.2-.21-.19-.93,0-1.59.65-2.47.74-2.08.21-3.88-.48-5.6-1.48-2.53-1.48-3.97-3.7-4.43-6.58-.02-.1-.03-.2-.04-.3-.09-.99.02-1.1,1-.9.15.03.33.17.42.12,1-.57,1.56.41,2.33.64.37.11.75.18,1.12.27.33.08.67.15.99.25.19.06.34.23.52.28.2.06.41.03.62.04-.02-.21,0-.44-.08-.62-.66-1.27-1.51-2.41-2.61-3.33-1.43-1.19-2.68-2.52-3.66-4.1-.42-.67-.58-.66-1.09-.07-1.49,1.73-2.98,3.47-4.21,5.41-.51.81-1.26,1.47-1.92,2.18-1.38,1.48-2.61,3.07-3.65,4.8-.47.78-1.09,1.47-1.68,2.18-.79.94-1.83,1.04-2.94.78-1.82-.43-2.86-1.72-3.52-3.36-.2-.48-.29-1-.45-1.5-.06-.19-.18-.37-.27-.56-.15.12-.32.23-.44.37-1.5,1.63-2.96,3.3-4.51,4.87-1.03,1.04-2.27,1.8-3.77,1.99-1.09.14-2.02-.18-2.66-1.13-.76-1.13-1.05-2.41-1.23-3.73-.09-.69-.11-1.39-.17-2.08,0-.11-.07-.21-.1-.31-.05.08-.11.16-.15.25-.56,1-1.11,2-1.69,2.99-.15.26-.36.48-.55.7-1.57,1.83-3.56,1.37-5.03-.21-1.54-1.66-1.94-3.74-2.21-5.9-.29-2.3.15-4.5.51-6.74.11-.67-.02-1.38-.08-2.07-.02-.2-.16-.44-.31-.57-.59-.5-1.2-.97-1.82-1.43-.08-.06-.38.02-.42.11-.57,1.3-1.12,2.6-1.66,3.91-.34.82-.65,1.66-1.02,2.47-.54,1.17-1.19,2.3-1.66,3.49-.79,1.98-2.11,3.6-3.43,5.22-.46.56-.98,1.06-1.45,1.61-1.48,1.73-3.55,1.63-5.27.95-1.68-.67-2.62-1.98-3.27-3.59-.37-.92-.43-.94-1.22-.32-.37.29-.69.64-1.03.96-.11.1-.19.24-.32.31-1.13.56-2.26,1.14-3.4,1.67-2.65,1.22-5.12.93-7.41-.91-1.64-1.32-3.29-2.67-4.16-4.62-.77-1.74-1.39-3.58-1.84-5.43-.65-2.69-.95-5.44-.95-8.21,0-.16-.05-.32-.08-.48-.08.12-.17.23-.22.36-2.17,5.16-5.02,9.95-7.91,14.73-.22.36-.49.69-.77,1.01-.31.35-.69.52-1.2.44-.32-.05-.69.02-1.01.13-.66.25-1.23.15-1.71-.36-.55-.58-1.11-1.15-1.59-1.78-.21-.27-.29-.69-.3-1.04-.04-1.07-.01-2.14-.01-3.21h0ZM31.45,40.42c.05.01.1.03.15.04,0,.1,0,.2,0,.3.03.93.46,1.19,1.24.71.48-.3.95-.66,1.32-1.08,2.6-2.97,4.75-6.2,5.47-10.18.08-.44.11-.89.16-1.34-.44.21-.96.34-1.31.65-.95.83-1.87,1.71-2.72,2.64-1.34,1.48-2.59,3.04-3.3,4.93-.4,1.09-.68,2.22-1.01,3.34ZM76,43.65s.1.04.15.06c.03.12.06.23.09.35.13-.06.28-.08.37-.17.78-.76,1.62-1.48,2.31-2.32,1.78-2.16,3.12-4.61,4.43-7.07.06-.12.05-.28.07-.42-.16,0-.33-.01-.49.02-.67.15-1.35.29-2.01.5-.26.08-.53.28-.68.51-.98,1.53-2.04,3.02-2.86,4.63-.62,1.22-.94,2.6-1.39,3.91ZM137.75,33.82c0-1.08-.57-1.76-1.21-1.75-.55.01-1.23.66-1.11,1.19.18.79.49,1.56.78,2.32.03.08.4.15.45.09.49-.65,1.07-1.26,1.09-1.86ZM122.5,38.05c0-.07,0-.15,0-.22-.03-.34,0-.8-.47-.78-.21.01-.49.38-.57.64-.18.54-.25,1.12-.37,1.68-.15.68-.32,1.36-.46,2.04-.02.08.03.18.05.27.06-.03.15-.04.18-.09.81-1.05,1.51-2.16,1.65-3.53Z"/>
      <path d="M96.79,82.56c.39.32-.03.43-.18.5-1.06.55-2.11,1.12-3.2,1.57-.53.22-.77.42-.84,1.03-.18,1.68-.2,3.38-.78,5-.08.23-.13.53-.05.73.19.48.37.88-.23,1.24-.13.08-.26.56.26.56.07,0,.19.15.19.22-.03.86-.07,1.73-.14,2.59,0,.12-.15.23-.23.34-.13-.1-.34-.18-.37-.3-.1-.45-.13-.92-.2-1.38-.02-.15-.08-.29-.12-.44-.08.11-.19.22-.22.34-.13.5-.27,1.01-.33,1.52-.03.24.06.55.2.74.29.39.26.69-.05,1.06-.81.95-.82,2.63-.09,3.64.13.18.2.45.2.68,0,.96-.06,1.93-.07,2.89,0,.1.19.21.3.29.27.17.59.3.83.51.11.1.08.36.11.54-.16.02-.32.03-.48.05-.15.02-.37.01-.44.11-.36.46-.02,1.82.47,2.15.2.13.34.37.45.6.05.1-.03.27-.05.41-.1-.08-.21-.15-.31-.23-.39-.28-.51.02-.57.3-.07.34-.03.7-.11,1.04-.03.16-.22.28-.33.42-.07-.15-.2-.3-.19-.44.04-.64.12-1.29.16-1.93.01-.2-.04-.4-.07-.61-.08.2-.23.41-.24.61-.07,1.89-.07,3.78-.18,5.67-.06,1.01-.27,2.02-.44,3.02-.07.42-.24.6-.77.46-.65-.17-1.41-.53-1.99.25-.04.05-.2.07-.28.04-.99-.38-2.02-.69-2.94-1.2-.83-.46-1.19-1.36-1.19-2.29,0-2.26.08-4.53.14-6.79,0-.09.14-.27.18-.26.4.1.4.11.41-.25.05-1.32.15-2.63.13-3.95-.01-.98-.29-1.97-.26-2.95.07-2.18.25-4.36.4-6.55.09-1.39.2-2.78.3-4.16,0-.09-.03-.18-.05-.27-.07.06-.16.11-.2.19-.51.91-1.05,1.81-1.51,2.75-1.35,2.78-2.63,5.58-3.99,8.35-.38.77-.9,1.49-1.43,2.17-.53.69-1.31.83-2.16.73-1.23-.14-2.39-.45-3.48-1.06-1.12-.62-1.92-1.44-2.05-2.82-.23-2.57-.57-5.14-.79-7.71-.16-1.83-.22-3.67-.3-5.51-.02-.5-.19-.58-.57-.27-1.4,1.15-2.8,2.31-4.21,3.46-.56.46-1.1.94-1.7,1.33-.58.38-1.25.59-1.91.2-.66-.39-.8-1.04-.74-1.75.02-.22.04-.45.1-.66,1.47-4.59,3.43-8.94,6.68-12.56,1.14-1.27,2.56-2.27,3.87-3.39.16-.14.4-.25.6-.26.81-.04,1.62-.04,2.43-.06.27,0,.54-.06.81-.09.91-.11,1.81-.26,2.72-.3.3-.01.72.17.9.4.82,1.09,1.54,2.23.98,3.7-.22.58-.42,1.17-.57,1.78-.21.89-.41,1.79-.53,2.7-.12.93-.15,1.88-.19,2.83-.1,2.48-.18,4.97-.26,7.45,0,.12.08.25.13.38.1-.1.22-.19.29-.31.94-1.62,1.86-3.23,2.8-4.85.11-.19.2-.4.34-.58.26-.35.23-.64-.16-.86-.54-.31-.64-.79-.51-1.35.13-.56.45-1,1.04-1.03,1.35-.08,1.85-.96,2.43-2.05,2.31-4.37,4.31-8.86,6.15-13.44.2-.48.38-.98.52-1.48.09-.32.5-.76-.21-.93-.03,0-.04-.32.02-.47.5-1.24,1-2.49,1.56-3.71.1-.21.45-.4.71-.44,2.06-.32,4.13-.64,6.21-.89,1.45-.18,2.76.25,3.93,1.12.43.32.58.77.61,1.3.11,1.84-.57,3.48-1.26,5.1-1.5,3.52-3.75,6.55-6.31,9.36-.62.68-1.22,1.38-1.78,2.11-.16.21-.16.57-.18.86-.03.34.03.68,0,1.02-.06.64.06.79.68.69.76-.12,1.52-.26,2.28-.4.07-.01.15-.04.22-.04.77-.01,1.63,1.46,1.25,2.15-.03.02-.06.04-.08.06.03-.01.06-.03.1-.04ZM92.75,75.39c1.11-1.24,2.28-2.44,3.31-3.73,1.9-2.38,3.31-5.03,4.05-8,.13-.5.22-1.03.22-1.54,0-.54-.32-.69-.72-.34-.54.47-1.05.99-1.5,1.55-1.9,2.4-3.06,5.18-4.08,8.02-.48,1.33-.87,2.7-1.3,4.05h.01ZM69.27,76.27c-.29.23-.6.44-.88.68-2.43,2.16-4.33,4.73-5.84,7.59-.8,1.52-1.53,3.07-2.26,4.62-.1.22-.06.51-.09.76.21-.11.46-.18.62-.34,2.24-2.23,4.47-4.47,6.67-6.73.24-.25.4-.64.48-.99.46-1.86.88-3.73,1.31-5.59h-.01ZM90.49,91.27s.02,0,.02,0c-.02.12-.07.25-.05.37.03.17.1.34.16.51.15-.1.38-.18.44-.32.08-.17.03-.4,0-.61-.03-.3-.15-.59-.13-.88.09-1.3.21-2.59.32-3.89,0-.09-.03-.19-.05-.28-.03.08-.07.16-.08.25-.21,1.62-.42,3.24-.63,4.86ZM90.07,105.98c-.08-.16-.16-.33-.24-.49-.03.1-.09.21-.07.3.03.19.1.37.16.56.04-.11.09-.22.15-.37Z"/>
      <path d="M.03,44.89c-.09-4.7,1.09-8.78,2.52-12.81.61-1.71,1.05-3.49,1.77-5.15,1.6-3.66,3.56-7.13,6.24-10.13.62-.7,1.32-1.34,2.04-1.95,1.09-.92,2.47-.97,3.8-1.18,3.39-.54,6.47.41,9.34,2.12,1.84,1.1,2.32,3.18,1.31,5.01-.51.92-1.22,1.31-2.23,1.06-.69-.17-1.36-.48-2-.8-.58-.29-1.02-.2-1.49.23-4.15,3.75-7.77,7.93-10.53,12.81-2.14,3.78-3.7,7.79-4.02,12.17-.1,1.31-.04,2.63,0,3.94.02.78.24.89.91.53,1.29-.69,2.42-1.61,3.31-2.75,2.16-2.74,4.28-5.5,6.36-8.29.59-.79,1.06-1.69,1.47-2.59.21-.47.28-1.07.21-1.58-.24-1.88.66-3.12,2.55-3.17,2.66-.07,5.32-.02,7.98-.03.49,0,.71.15.48.68-.17.39-.3.79-.4,1.2-.44,1.85-1.27,3.5-2.46,4.98-.7.87-1.12,1.85-1.34,2.96-.38,1.96-.8,3.9-1.27,5.84-.23.94-.62,1.83-.93,2.75-.49,1.46-1.02,2.91-1.43,4.4-.38,1.38-.71,2.79-.92,4.21-.1.68.15,1.41.2,2.12.05.61.07,1.23.05,1.84-.05,1.33-.33,2.61-.88,3.83-.35.79-.59,1.64-.97,2.43-.28.57-.64,1.13-1.07,1.6-.58.64-1.08.52-1.26-.32-.31-1.46-.56-2.93-.77-4.41-.47-3.33.19-6.59.66-9.86.32-2.19.64-4.38.94-6.57.02-.18-.05-.37-.08-.55-.14.13-.29.25-.41.39-1.38,1.75-2.87,3.37-4.69,4.68-1.78,1.28-3.86,1.86-5.95,2.3-1.8.38-3.05-.65-4.01-2.04C1,51.69-.21,48.32.03,44.89Z"/>
      <path d="M39.35,93.91c.14-3.46.64-6.6,1.36-9.71,1.24-5.32,2.97-10.49,4.87-15.61.92-2.47,1.81-4.96,2.69-7.45.19-.55.56-.87,1.01-1.22.76-.61,1.54-.65,2.42-.55,1.61.19,3.23.29,4.53,1.46.73.66,1.16,1.41,1.27,2.43.25,2.37-.34,4.49-1.42,6.59-2.81,5.46-4.61,11.29-5.91,17.27-.7,3.21-1.19,6.46-1.74,9.7-.09.53-.07,1.09-.07,1.64.02,1.17.55,1.54,1.65,1.09,1.15-.47,2.28-1.01,3.41-1.52,3.39-1.52,6.77-3.04,10.16-4.55.14-.06.28-.12.42-.16.09-.03.19-.02.28-.03-.04.1-.05.23-.12.3-.85.81-1.7,1.61-2.56,2.4-1.1,1.01-2.2,2.02-3.3,3.02-2.03,1.84-4.08,3.65-6.49,5.01-2.64,1.49-5.16,1.21-7.61-.41-2.87-1.9-4.38-4.61-4.68-8.02-.06-.64-.12-1.29-.16-1.67Z"/>
      <path d="M111.78,26.93c-.7.02-2.16-.9-2.34-1.4-.13-.35-.05-.72.33-.78,1.59-.24,2.6-1.39,3.72-2.35,1.57-1.34,3.06-2.76,4.59-4.14.11-.1.23-.22.36-.26.3-.08.62-.11.93-.16-.12.23-.25.46-.37.68-.48.84-1.04,1.64-1.44,2.52-.84,1.87-2.11,3.35-3.76,4.53-.46.33-.87.74-1.34,1.06-.24.16-.54.23-.68.29Z"/>
      <path d="M90.92,113.65c-.14.44-.27.88-.42,1.31-.04.1-.14.18-.22.27-.06-.1-.18-.2-.17-.3.03-.61.08-1.21.16-1.82.02-.12.23-.21.35-.32.08.12.19.24.23.38.03.14-.01.29-.03.44.03.01.07.02.1.03Z"/>
      <path d="M91.77,102.59c-.18.22-.33.39-.47.56-.06-.25-.17-.5-.17-.75,0-.13.19-.26.3-.4.1.18.21.36.34.59Z"/>
      <path d="M82.77,106.2c-.04.3-.06.47-.1.64-.02.09-.09.16-.14.24-.03-.08-.08-.16-.1-.24-.03-.17-.08-.35-.06-.51.02-.22.1-.43.15-.64.1.2.2.4.26.52Z"/>
      <path d="M91.45,99.08c-.18.24-.32.44-.46.63-.05-.17-.17-.36-.13-.51.04-.19.22-.35.33-.52.08.12.16.24.27.4Z"/>
      <path d="M91.57,111.71c.03.22.08.32.05.37-.05.09-.16.14-.24.21-.02-.06-.07-.14-.06-.19.04-.1.11-.19.25-.39Z"/>
      <path d="M91.61,96.97c.05.13.11.21.11.29,0,.04-.09.09-.14.13-.05-.07-.11-.14-.13-.22,0-.04.07-.1.16-.2Z"/>
    </g>
  </g>
</svg>