<?xml version="1.0" encoding="UTF-8"?>
<svg id="Layer_2" data-name="Layer 2" xmlns="http://www.w3.org/2000/svg" viewBox="0 0 90.61 96.05">
  <defs>
    <style>
      .cls-1 {
        fill: #ed212f;
      }
    </style>
  </defs>
  <g id="Layer_1-2" data-name="Layer 1">
    <g>
      <path class="cls-1" d="M52.6,13.13c-.64.76-1.27,1.43-2.3,2.28-1,.83-2.77,2.1-4.19,2.8-.31.16-.61.28-.88.37,0,0-.01,0-.02,0-.88.29-1.86.67-1.86.67-.11.09-.15.18-.11.29.04.11.16.21.27.36.11.15.13.27.06.36-.07.09-.16.19-.39.1-.29-.12-.26-.22-.36-.49-.1-.26-.08-.51-.08-.51,0,0-.18-.04-.3.01-.15.07-.37.06-.61.1-.25.04-.42-.09-.49.01-.06.1-.13.24-.29.27-.21.04-.39.01-.49-.13-.11-.16-.13-.4.04-.6.12-.15.38-.2.82-.27.43-.07.71-.04.82-.11.11-.07.19-.12.17-.22-.01-.1.03-.19-.07-.34-.1-.15-.13-.2-.23-.3-.1-.1-.05-.27.06-.35.11-.07.42-.07.53.12.11.2.15.26.16.52.01.26,0,.24.03.34.05.2.21.17.57.06.3-.09.58-.18.84-.28.31-.11.61-.23.9-.36.55-.24,1.08-.53,1.73-.9,1.9-1.1,3.9-2.53,5.39-4.14.65-.71,1.53-1.89,1.53-1.89,0,0-.46,1.26-1.26,2.21M49.86,19.63c-.1.14-.28.17-.49.13-.16-.03-.23-.17-.29-.27-.06-.1-.24.02-.49-.01-.25-.04-.47-.03-.62-.1-.12-.06-.3-.01-.3-.01,0,0,.02.25-.08.51-.1.26-.07.37-.36.49-.22.09-.32-.01-.38-.1-.07-.09-.05-.21.06-.36.11-.15.24-.25.28-.36.04-.11,0-.2-.11-.29,0,0-.8-.31-1.6-.58.22-.08.46-.18.71-.31l.15-.08c.2.07.4.13.61.2.36.11.52.14.57-.06.02-.09.01-.07.02-.34.01-.26.05-.32.16-.52.11-.2.42-.2.53-.12.11.07.16.25.06.35-.1.1-.12.15-.22.3-.1.15-.06.24-.08.34-.01.1.06.15.18.22.11.07.38.04.82.11.44.07.7.12.82.27.16.2.15.43.04.6M37.82,13.13c-.8-.95-1.25-2.21-1.25-2.21,0,0,.87,1.19,1.53,1.89,1.48,1.6,3.49,3.03,5.39,4.14.56.33,1.04.58,1.51.8-.23.1-.47.2-.74.29l-.16.05c-1.38-.72-3.02-1.9-3.98-2.69-1.03-.85-1.66-1.52-2.3-2.28M49.61,14.26c-.17,0-.34.06-.54.14-.22.08-.47.17-.76.19-.21.01-.43-.05-.66-.11-.22-.06-.44-.12-.66-.12-.04,0-.07,0-.11,0-.09,0-.25.06-.42.12-.24.08-.52.17-.69.17-.16,0-.46-.12-.75-.23-.24-.09-.46-.18-.55-.18-.21,0-.39.09-.57.19-.17.09-.35.18-.57.21-.03,0-.06,0-.08,0-.2,0-.42-.07-.64-.13-.23-.07-.47-.14-.68-.13-.21,0-.36.12-.47.2-.06.05-.12.09-.17.1-.1.03-.21.04-.32.04-.32,0-.61-.11-.62-.11h0s-.27-.25-.27-.25l.02-.04s.51.18.87.18c.07,0,.13,0,.18-.02.07-.02.14-.06.22-.1.15-.09.34-.19.62-.19.21,0,.35.05.51.11.16.06.34.12.62.14.04,0,.07,0,.11,0,.32,0,.49-.11.61-.18.06-.04.11-.07.16-.08.02,0,.04-.01.07-.02.09-.03.21-.07.36-.07.14,0,.28.03.45.08.13.04.24.09.34.13.19.08.34.14.51.14.24,0,.67-.14.88-.21l.06-.02c.18-.05.44-.05.7,0,.07.01.13.03.2.05.17.05.36.1.59.11.28.01.69-.1,1.02-.19.21-.06.38-.1.46-.1.26,0,.68.16.7.17h.03s-.14.16-.14.16h-.01s-.31-.17-.57-.17M49.16,14.84c-.27.07-.57.14-.85.16-.21.01-.43-.05-.66-.11-.22-.06-.44-.12-.66-.12-.04,0-.07,0-.11,0-.09,0-.25.06-.42.12-.24.08-.52.17-.69.17-.16,0-.46-.12-.75-.23-.24-.09-.46-.18-.55-.18-.21,0-.39.09-.57.19-.17.09-.35.18-.57.21-.03,0-.05,0-.08,0-.2,0-.42-.07-.64-.13-.23-.07-.47-.14-.68-.13-.25,0-.54.19-.71.3-.05.03-.09.06-.12.07h-.01s-.15-.16-.15-.16h.03c.07-.03.16-.08.26-.13.21-.12.47-.26.75-.26.21,0,.35.05.51.11.16.06.34.12.62.14.39.03.58-.09.72-.18.06-.04.11-.07.16-.08.02,0,.05-.01.07-.02.09-.03.2-.07.36-.07.14,0,.28.03.45.08.13.04.24.09.34.13.19.08.34.14.51.14.23,0,.64-.13.86-.2.03,0,.06-.02.08-.02.18-.06.43-.05.7,0,.06.01.13.03.19.05.17.04.37.09.6.12.04,0,.08,0,.12,0,.26,0,.52-.08.77-.16.22-.07.43-.14.63-.14.09,0,.16.01.23.04.06.02.07.06.06.09,0,.04-.05.08-.12.08-.17,0-.41.06-.66.12M48.24,15.45s-.07,0-.1,0c-.21,0-.4-.06-.58-.12-.18-.06-.38-.12-.58-.12-.03,0-.07,0-.1,0-.09,0-.25.06-.42.12-.24.08-.52.17-.69.17-.16,0-.46-.12-.75-.23-.24-.09-.46-.18-.55-.18-.21,0-.39.09-.57.19-.17.09-.35.18-.57.21-.02,0-.05,0-.07,0-.18,0-.38-.07-.59-.13-.21-.07-.42-.14-.62-.14-.04,0-.09,0-.12.01-.15.03-.23.08-.3.12-.05.03-.09.06-.15.07h-.01s-.13-.15-.13-.15h.03c.08-.03.12-.06.17-.09.09-.06.17-.11.44-.13.05,0,.09,0,.13,0,.23,0,.36.06.49.12.13.06.26.12.51.14.39.03.58-.09.72-.18.06-.04.11-.07.16-.08.02,0,.05-.01.07-.02.09-.03.2-.07.36-.07.14,0,.28.03.45.08.13.04.24.09.34.13.19.08.34.14.51.14.23,0,.64-.13.86-.2.03-.01.06-.02.08-.03.18-.06.44-.05.7,0,.07.01.14.03.21.05.17.05.36.1.58.11.28.01.66-.1.96-.2.2-.06.35-.11.44-.11h.06s-.23.21-.23.21h0c-.17,0-.31.06-.47.12-.17.07-.36.15-.64.17M47.7,15.76c-.23-.06-.46-.12-.7-.12-.04,0-.09,0-.13,0-.09,0-.25.06-.42.12-.24.08-.52.17-.69.17-.16,0-.46-.12-.75-.23-.24-.09-.46-.18-.55-.18-.22,0-.39.09-.58.19-.17.09-.34.18-.56.2-.05,0-.11.01-.16.01-.23,0-.42-.06-.6-.13-.15-.05-.3-.1-.45-.1-.07,0-.14.01-.21.04h-.01s-.24-.19-.24-.19h.04c.11-.04.22-.06.32-.06.2,0,.36.06.53.11.16.06.33.11.54.13.04,0,.07,0,.11,0,.32,0,.49-.11.61-.18.06-.04.11-.07.16-.08.02,0,.05-.01.07-.02.09-.03.2-.07.36-.07.14,0,.28.03.45.08.13.04.24.09.34.13.19.08.34.14.51.14.22,0,.63-.13.85-.2.03-.01.06-.02.09-.03.18-.06.44-.05.7,0,.04,0,.09.02.14.03.25.06.68.16.94.17h.05s-.16.16-.16.16h0c-.2,0-.4-.06-.6-.11M47.44,16.11c-.11-.03-.22-.07-.4-.07-.05,0-.1,0-.16,0-.09,0-.25.06-.42.12-.24.08-.52.17-.69.17-.16,0-.46-.12-.75-.23-.24-.09-.46-.18-.55-.18-.21,0-.39.09-.57.19-.17.09-.35.18-.57.21-.04,0-.08,0-.12,0-.17,0-.27-.05-.36-.09-.07-.03-.13-.06-.22-.06h0l-.3-.19h.07c.2,0,.25.03.3.06.05.03.11.07.39.09.39.03.59-.1.73-.18.06-.04.11-.07.16-.08.02,0,.05-.02.07-.02.09-.03.2-.07.36-.07.14,0,.28.03.45.08.13.04.24.09.34.13.19.08.34.14.5.14.23,0,.64-.13.86-.2.03,0,.06-.02.08-.02.08-.03.19-.04.3-.04.12,0,.26.02.4.05.07.02.13.03.17.04.09.02.16.04.38.08.03,0,.05.02.05.04,0,.04-.06.08-.11.1h-.01c-.16,0-.27-.03-.38-.07M46.24,16.65c-.2.06-.37.12-.48.12-.16,0-.45-.12-.74-.23-.24-.09-.46-.18-.56-.18-.24,0-.35.08-.46.15-.12.08-.25.16-.51.18h0s-.24-.11-.24-.11v-.04c.41,0,.54-.09.65-.17.04-.02.07-.05.11-.07h.02c.09-.05.2-.1.38-.1.13,0,.28.03.45.09.13.04.24.09.34.13.19.08.34.14.5.14.23,0,.64-.13.86-.2.03-.01.06-.02.09-.03.08-.02.19-.04.32-.04.15,0,.33.02.47.05h.04s-.19.16-.19.16h-.01c-.06-.02-.13-.03-.21-.03-.25,0-.55.09-.82.18M45.7,17.39l-.21.12h0c-.14,0-.34-.08-.55-.16-.21-.08-.43-.17-.57-.16h0l-.21-.12h.05s.03-.02.04-.03c.02-.01.05-.02.1-.02.08,0,.22.03.43.1.13.04.24.09.34.13.19.08.34.14.51.14h.08ZM44.96,16.97c-.24-.09-.46-.18-.56-.16-.26.05-.3.08-.35.11-.02.02-.05.04-.11.06h0s-.27-.1-.27-.1h.07c.17-.05.25-.1.32-.15.05-.03.1-.06.17-.09h.02c.11-.04.16-.05.61.1.12.04.24.09.34.13.18.08.34.14.51.14.11,0,.28-.06.44-.12.16-.06.32-.12.43-.12.03,0,.06,0,.08.02,0,0,.02.01.02.02,0,.01,0,.04-.14.13h0s0,0,0,0c-.14.01-.25.06-.37.11-.13.06-.27.12-.46.12s-.47-.11-.74-.22M39.5,13.94s.35-.13.63-.13c.1,0,.19.02.24.05.04.03.08.06.12.08.12.09.21.16.41.14.15,0,.28-.06.43-.12.17-.07.36-.14.59-.16.2-.02.45.01.74.09.03,0,.05.01.08.02.13.03.25.07.39.07s.3-.03.48-.11c.03-.01.06-.02.08-.03.19-.08.38-.16.65-.16.09,0,.19,0,.3.03.23.04.42.1.58.16.19.06.35.11.5.11.11,0,.27-.02.45-.05.06,0,.12-.02.18-.02.02-.11.08-.29.23-.35.21-.09.19-.17.66-.17s.68-.04.78-.06c.14-.03.43-.02.37-.42-.06-.44-.39-1.98-.41-2.39-.02-.27-.14-1.87-.16-2.11,0,0-.01-.28-.01-.28l-.15.5s-.05-.07-.13-.37c-.07-.3-.01-1.18.05-1.28.06-.1-.14-.17-.18-.05-.06.22-.21.58-.24.97-.01.21-.11.97-.11.97,0,0-.12-.1-.22-.44-.1-.34-.12-.68-.12-.68,0,0-.12-.01-.16.12-.04.14-.08.25-.04.57l.04.3s-.12,0-.34-.21c-.21-.21-.25-.27-.29-.5-.04-.22.05-.62.05-.62,0,0-.22-.1-.27-.4-.01-.08-.01-.11-.09-.16-.07-.05-.22-.24-.21-.37.01-.14-.11-.55.17-.96.15-.22.24-.36.32-.42.15-.1.24-.17.35-.24.28-.16.56-.17.56-.17,0,0,.06-.05.02-.1-.03-.05-.03-.09-.14-.1-.1-.01-.24,0-.38.14-.15.14-.49.32-.49.32,0,0-.14-.04-.12-.22.02-.25.27-.37.49-.57.25-.22.45-.3.61-.32.16-.02.1-.01.13-.11.04-.12.2-.28.5-.31.05,0,.12-.03.11.14-.01.16-.05.15-.04.36.01.21,0,.29.06.36.06.07.09.09.1.04.01-.05.05-.22.05-.37s-.1-.34,0-.47c.06-.08.34-.17.48-.08.15.1.19.3.19.3,0,0,.04.07.11-.03.07-.1.15-.32.41-.24.26.09.46.29.55.41.09.12.11.25.11.25,0,0-.39-.2-.5-.12-.11.07-.14.04-.2.26-.06.22-.02.21-.17.44-.15.22-.31.34-.34.4-.02.06-.04.15-.04.15,0,0,.28-.16.5-.39.21-.22.44-.48.62-.56.19-.07.42-.06.65.05.22.11.51.43.51.43,0,0-.2-.05-.36-.09-.16-.04-.36.03-.55.06-.21.03-.12.29-.12.29,0,0,.16-.1.49-.12.32-.02.45.06.63.26.18.2.27.53.27.53,0,0-.15-.05-.3-.09-.15-.04-.2-.1-.44-.07-.24.03-.46.21-.46.21,0,0,.26.04.43.24.17.2.25.31.3.54.05.22-.01.86-.05.93-.04.07-.14,0-.15.05-.01.09-.01.3-.07.48-.06.19-.26.34-.26.34,0,0-.04-.5-.11-.7-.08-.2-.41-.41-.47-.42-.06-.01-.18.21-.04.26.24.09.37.22-.04.25,0,0,.32.38.51.99.14.46.34,1.12.31,1.95-.02.66-.07,2.23-.07,2.23,0,0,.11.15.36.17.25.02.91-.01,1.37.06l-1,.86h0s0,0,0,0l-.16.12h0s-.1-.02-.26-.07c-.03,0-.05-.02-.08-.03-.1-.04-.23-.08-.41-.08-.08,0-.16,0-.25.02-.12.02-.27.06-.42.1-.33.08-.67.16-.9.16-.55,0-1.08-.11-1.23-.15-.05-.01-.11-.02-.18-.02-.19,0-.46.04-.68.07-.21.03-.4.06-.52.06-.18,0-.36-.07-.56-.13-.26-.09-.56-.19-.9-.17-.15,0-.3.07-.45.14-.16.07-.32.14-.51.16-.08,0-.16.01-.22.01-.2,0-.3-.03-.41-.07-.07-.02-.14-.04-.24-.06-.04,0-.08-.01-.11-.02-.12-.02-.23-.04-.34-.04-.13,0-.26.03-.41.09-.31.13-.54.2-.7.2-.14,0-.29-.05-.44-.15-.11-.08-.26-.08-.36-.09-.03,0-.06,0-.08,0,0,0,0,0,0,0-.06,0-.21.07-.26.1h-.01s-.22-.16-.22-.16h.04ZM40.29,12.91s0,0,0,0c.17.13.26.16.43.18.04,0,.08.01.13.02h.08c.23.05.43,0,.59-.07.13-.05.22-.12.29-.18.27-.23.44-.37.88-.64l.23-.14c.43-.26.88-.55,1.12-.59,0,0-.09.51-.09.72,0,.28-.08.97-.11,1.14-.02.09-.06.2-.11.28-.05.02-.02,0-.07.03-.12.05-.24.1-.32.12-.25.05-.38,0-.55-.06-.08-.03-.17-.06-.27-.09-.37-.09-.74-.06-1.05.08-.34.15-.54.19-.72.14-.2-.06-.34-.32-.35-.4v-.03c-.02-.17-.05-.37-.13-.48-.04-.06-.08-.09-.11-.11h0s0-.02-.01-.04c.04.02.09.05.15.1M40.23,12.52s.22-.18.32-.27l.12-.09c.09-.07.17-.13.22-.17.21.49.44.82.55.84-.13.06-.28.1-.47.07h-.08c-.27-.05-.3-.06-.46-.18-.09-.07-.17-.11-.22-.14.01-.04.02-.07.03-.07M42.27,12.32l-.29.2-.18-.71.27-.3.2.81ZM42.91,11.9l-.3.17-.21-.82.31-.14.2.79ZM43.6,11.5l-.32.18-.05-.73.33-.04.04.59ZM41.11,2.89c.3.44.94,1.39,1.79,2.72.1.15.26.39.45.66.5.72,1.35,1.93,1.4,2.27.01.1.07,1.58.1,2.55v.05c-.28-.22-.86-.52-1.75-.33-.77.17-1.55.72-1.73,1.58,0,.02-.01.03-.01.05-.09-.15-.2-.37-.32-.65-.15-.37-.3-.84-.37-1.38-.07-.51-.11-2.54-.11-3.01-.01-.83.47-3.53.61-4.09.03-.12-.02-.27-.07-.42M44.96,11.55s.09-.04.14-.06c.26-.1.55-.21.78-.27h.06s.05.17.05.17h-.06c-.24.07-.56.19-.82.3,0,0-.02,0-.03.01-.14.05-.26.11-.34.14-.05.02-.09.04-.11.05-.02,0-.03.01-.03.01l-.07.04c.07.12.14.25.21.39,0,.09-.02.37-.06.55-.06.28-.13.48-.17.59-.07-.01-.16-.02-.28,0-.12.02-.21.05-.33.1.04-.08.07-.17.09-.26.04-.18.11-.87.11-1.15,0-.21.05-.55.07-.69.08.03.15.15.26.31l.09-.05s0,0,0,0c0,0,.01,0,.02-.01.02,0,.04-.02.06-.03,0,0,.01,0,.02,0,0,0,.01,0,.02,0,0,0,0,0,0,0,0-.1-.01-.3-.01-.42,0,0,0,0,0,0,.16.11.24.21.25.22l.06.08ZM29.85,68.77c.3.22.78.37.78.37.66.13.92-.33.92-.33.41-.35-.12-.31-.12-.31-.25.13-.98.07-.98.07-.98-.06.06-.32.06-.32.88.04,1.29-.23,1.29-.23.42-.17.54.2.54.2.06.36.55-.18.55-.18.31-.19.23.06.23.06-.1.2.04.31.04.31.6.24-.27.22-.27.22-.68.19,0,.32,0,.32.57.18-.1.43-.1.43-.6-.05.06.36.06.36.43-.02.01.41.01.41-.66.39-1.18.32-1.18.32-1.33,0-1.64-.25-1.64-.25-.44-.37.15-.18.15-.18.16-.04.18-.36.18-.36.35-.28-.02-.48-.02-.48-.27-.02-.56-.29-.56-.29-.86-.44.05-.13.05-.13M33.65,67.46c.41-.42.97-.52.97-.52.31.17.52-.08.52-.08.51.14.26-.15.26-.15-.37-.16,0-.3,0-.3.29-.28.84-.62.84-.62.44-.16.1.13.1.13l-.52.3c-.66.78.61.03.61.03l2.24-1.28c.17-.04.48-.16.48-.16.41.19-.16.35-.16.35l-.85.4c-.65.28-1.99,1.07-1.99,1.07-.48.26-1.36.8-1.36.8-.36.38-1.18.51-1.18.51-.8.21.04-.47.04-.47M39.52,63.33s.75-.53,1.41-.28c0,0,.66.2-.02.36,0,0-.44.2-.73-.05,0,0-.32-.08-.54.11,0,0-.24.15-.32.43,0,0-.1-.26.2-.57M40.98,62.12c.23-.04.57-.51.57-.51.3-.37,1.91-.58,1.91-.58,1.1-.13,1.29-.46,1.29-.46.2-.15.52-.26.52-.26.12-.08.52-.16.52-.16.39-.25,1.08-.29,1.08-.29.54.06.21-.25.21-.25-.13-.13-.11-.34-.11-.34-.02-.19-.03-.52-.03-.52-.08-.63.2-1.11.2-1.11.22-.47.64-.76.64-.76.34-.22.19-.9.19-.9.07-.32.01-.99.01-.99-.12-.55-.31.08-.31.08.16.34-.12.47-.12.47-.03.3-.29.73-.29.73-.24.35-.85.88-.85.88-.34.33.1,1.27.1,1.27.21.68-.51-.09-.51-.09-.39-.28-.47-.84-.47-.84.08-.24-.12-.81-.12-.81-.21-.21-.03-.55-.03-.55.06-.23-.3-.79-.3-.79-.06-.28-.35-.5-.38-.53-.21-.11-.36-.5-.36-.5-.25-.22-.22.28-.22.28-.02.2.13.39.13.39.16.14.16.33.16.33.15.37-.14.14-.14.14.03-.09-.15-.33-.15-.33-.1-.18-.14-.3-.14-.3-.24.17-.35-.15-.35-.15-.15-.01-.25-.21-.25-.21-.06-.13-.34.04-.34.04-.15.07-.26-.29-.26-.29l.12-.26c0-.17-.3,0-.3,0-.13.11-.24-.07-.24-.07.12-.29-.23-.3-.23-.3-.25.06-.08-.08-.08-.08.3-.07.75-.21.75-.21.35-.05.41-.33.41-.33.09-.17-.31-.32-.31-.32.13-.08,0-.39,0-.39-.06-.16-.38.23-.38.23-.17.23-.25-.21-.25-.21.17-.23-.08-.15-.08-.15-.19.08-.07-.21-.07-.21.05-.17-.21-.32-.21-.32-.18-.11-.09.2-.09.2.14.11-.06.27-.06.27-.1.28-.23-.02-.23-.02-.1-.16.02-.28.02-.28l-.03-.16-.14-.03-.14.1-.25.04-.18-.08-.04-.13h.15s.2.1.2.1l.1-.03.03-.13s-.12-.06-.22-.13c-.09-.06-.18-.09-.18-.09l-.13-.05s-.06.03-.22.08c-.16.05-.09-.1-.09-.1,0,0,.08-.03.24-.15.17-.12-.17-.11-.17-.11h-.17s-.06.02-.15,0c-.09,0-.11.16-.11.16,0,0-.06.01-.14.03-.07.01-.07-.05-.19-.19-.13-.13-.26-.09-.31-.19-.04-.1-.43-.4-.43-.4-.02-.23-.25-.45-.25-.45-.24-.29-.51-1.01-.51-1.01-.22-.57-.39-1.9-.39-1.9-.03-.52-.34-1.34-.34-1.34-.06-.5-.19-.65-.19-.65-.06-.55-.62-1.55-.62-1.55-.18-.78-.82-1.45-.82-1.45-.11-.2-.47-.67-.47-.67-.1-.24-.24-.52-.33-.6-.07-.12-.32-.43-.32-.43-.44-.4.03-.36.03-.36l.81.13c.47.07,2.03.51,2.03.51.64.15.6.55.6.55l.1.22c.12.14.25.57.25.57.17.26.18.42.18.42.09.25.42.68.42.68.29.21.44.62.44.62.17.25.48,1.13.48,1.13.14.32.37,1.03.37,1.03.14.16.14.5.14.5.05.36.29.82.29.82.15.25.35.48.35.48.07.23.64.71.64.71.35.34.69.29.69.29.19.02.65.2.65.2.32.14.76.29.76.29.47.22,1,.26,1,.26.33.1.68-.12.68-.12.22.2.34-.25.34-.25.09-.18.42-.48.42-.48.23-.21.82-.48.82-.48.18-.16.55-.35.55-.35.21-.16.66-.44.66-.44.34-.24.77-.3.77-.3.14-.1.49-.2.49-.2.24.02.44-.26.44-.26.17-.18.38-.25.38-.25.05-.15.23-.27.23-.27.13-.18.54-.31.54-.31.21-.14.49-.2.49-.2.09.25.44.02.44.02-.03.34.17.21.17.21.03-.15.17.01.17.01-.01.17.16.16.16.16.17.19.23.19.23.19.21-.19.09.27.09.27.08.49.3.06.3.06.05-.17.2.03.2.11.01.08.19.07.19.07.21.19.32.01.32.01.02-.22.14-.04.14-.04.23.38.3,0,.3,0,.03-.36.21.04.21.04.17.16.18-.14.18-.14,0-.11.13-.59.13-.59.02-.37.23-.65.23-.65.02-.21.46-.76.46-.76.28-.43,1.32-.22,1.32-.22.2.04.05.35.05.35-.08.29-.1.88-.1.88-.04.3-.2,1.07-.2,1.07-.07.34-.24.38-.24.38-.2.13-.24.83-.24.83-.11.33-.17.6-.17.6.14.14-.05.47-.05.47-.18.32-.25,1.32-.25,1.32-.06.28-.42,1.22-.42,1.22-.1.39-.28.91-.28.91-.23.35-.23.99-.23.99-.18.17-.27.39-.27.39-.07.17-.13.47-.13.47-.05.31-.12.42-.12.42-.39.14.02.34.02.34.22.31.03.4-.09.19-.11-.22-.25-.12-.25-.12-.07.24-.18.27-.18.27-.37.36.14.33.14.33.23-.05.33-.1.33-.1.45.02-.07.45-.07.45-.12.25-.3.62-.3.62-.15.18-.35.21-.35.21.12-.08.35-.54.35-.54-.14-.03-.09-.25-.09-.25-.07-.27-.28,0-.28,0-.06.26-.38.03-.38.03-.13-.12-.33.12-.33.12-.48.2.12-.27.12-.27.13-.11-.1-.18-.1-.18-.15.16-.32-.06-.32-.06-.18-.08-.51.03-.51.03-.27-.12-.38-.2-.38-.2-.23.09-.22-.06-.22-.06.09-.08.02-.23.02-.23-.28-.1.14-.5.14-.5.3-.34.1-.3.1-.3-.21-.03-.49.3-.49.3-.37.33-.6,1.24-.6,1.24-.18.43-.24,1.67-.24,1.67-.09.5.14.83.14.83.31.4.14.82.14.82-.16.2-.15.39-.15.39.16.13-.03.65-.03.65-.17.32-.25.66-.25.66-.27-.02-.29.26-.29.26.11.31-.67.21-.67.21-.44,0-1.5,0-1.5,0-.53-.02-1.6.24-1.6.24-.35.08-1.31.16-1.31.16-.7.02-.02-.19-.02-.19.16-.04,1.33-.21,1.33-.21.82-.12,1.38-.17,1.38-.17.59-.12,1.34-.11,1.34-.11,1.03.2.94-.38.94-.38-.04-.19.09-.63.09-.63.18-.31.04-.64.04-.64.04-.34-.55.14-.55.14-.25.28-.62.29-.7.28-.3.11-.46-.46-.46-.46-.41-.34-1.01-.41-1.01-.41-.5.1.16.51.16.51.39.25.06.5.06.5-.25.51.35.35.35.35.37-.06.72-.22.72-.22.35-.03.91.03.91.03.45.15,0,.55,0,.55-.19.04-.88.02-.88.02-.59-.05-1.05.08-1.05.08-.33.13-1.34.21-1.34.21-.44.07-1.6.18-1.6.18-.4-.01-.99.43-.99.43-.39.29-.84.4-.84.4-.57.46.27.72.27.72.32-.04.72.55.72.55.63.72,1.67,1.43,1.67,1.43.87.53.49.52.49.52-.38-.41-.7-.31-.7-.31-.39.15.9.86.9.86.65.52,1.51.74,1.51.74.68.17.78.39.78.39.44.18.38-.2.38-.2-.05-.27.04-.23.04-.23.45-.12.32.44.32.44-.05.55.4.22.4.22.2-.04.24.55.24.55-.1.47.12.3.12.3.18-.05.32.1.32.1.27.04.33.39.33.39.17.29-.22.85-.22.85-.14.4-.38.48-.38.48-.62.77-1.24.55-1.24.55-.51.18-.36-.28-.36-.28.24-.38.24-.63.24-.63.1-.29.23-.3.23-.3.28-.36-.12-.43-.12-.43-.28-.27-.47.17-.47.17-.21.23-.61.46-.61.46-.58.44.21.49.21.49-.35.28-.58-.14-.58-.14.05-.15.53-.7.53-.7.19-.32.51-.68.51-.68.16-.33.45-.34.45-.34.2-.32-.15-.26-.15-.26-.59.12-.23-.14-.23-.14.2-.08.04-.44.04-.44-.13-.14-.83-.26-.83-.26-.33-.12-.78-.4-.78-.4-.55-.3-1.89-1.5-1.89-1.5-.41-.34-1.64-1.11-1.64-1.11-.31-.1-1.14-.42-1.14-.42-.38-.19-.78-.62-.78-.62-.15-.13-.5-.29-.5-.29-.4-.43.15-.46.15-.46M43.7,60.32l.14-.14s.46-.47.74-.58c0,0,.61-.29.89-.23,0,0,.76-.16.34.18,0,0-.32.28-.74.41,0,0-.33.15-.61.29,0,0-.53.28-.69.29,0,0-.69.04-.07-.21M33.87,38.44s-.23.04-.45.02c0,0-.09,0-.28-.1-.08,0-.33-.1-.56-.12,0,0-.3-.09-1.06-.65,0,0-.7-.73-.88-.89,0,0-.22-.17-.25-.26,0,0-.22-.55.07-.21,0,0,.81,1.2,2.07,1.73,0,0,1.35.7,2.17.11,0,0,.37-.07.18-.33l-.13-.23s-.06-.25-.43-.05c0,0-.49.53-1.76-.07,0,0-1.04-.34-1.68-1.26,0,0-.8-.46-.22-.6,0,0,.42-.23.11-.47,0,0-.35-.33.2-.28,0,0,.56-.05.24-.44l-.47-.04s-.25,0,.08-.25c0,0,.23-.25.33-.57,0,0,.42-.57.74-.37,0,0,.4.15.49.44,0,0,.27.52.42.67l.37.31s.36.22.01.28c0,0-.6.05-.32.37,0,0,.29.2.25.45,0,0,.09.23.34.15,0,0,.25-.03.5,0,0,0,.21.12.23-.11,0,0,0-.11.15-.22,0,0,.17-.23-.19-.46,0,0-.17-.24-.43-.28,0,0-.54-.23.09-.24,0,0,.4-.21,1.11.36,0,0,.37.54.49.25,0,0,.05-.31-.18-.38,0,0,.16-.21.28.15,0,0,.02.14.17.25,0,0-.04.1.16.18,0,0,.15.24-.04.13,0,0-.4-.22-.36.18,0,0,.14.23.17.47,0,0,.04.36-.02.53,0,0-.23.57.23.42,0,0,.27-.09.47-.47,0,0,.31-.2.12-.49,0,0-.09-.27.16-.11,0,0,.44.04.55.1,0,0,.57.28.55.52,0,0,.04.42-.65.44,0,0-.35-.05.12-.22,0,0,.74.02.26-.38,0,0-.31-.43-.56-.32,0,0-.27,0-.24.44,0,0-.02.29-.29.28,0,0-.36.25-.11.27,0,0,.27.1.14.41,0,0,.03.27.14.3,0,0-.1.1-.31,0,0,0-.36.19-.51.31,0,0-.07.28-.41.03,0,0-.09-.14-.47.11,0,0-.32.22-.87.17M39.27,40.99l15.68,2.89c.43.04-.09.32-.09.32-.14.16-.43.17-.43.17-.25.04-.88.12-.88.12-.42.02-.97.18-.97.18-.21.04-.58.18-.58.18-.25,0-.97.43-.97.43-.47.21-.79.72-.79.72-.23.53-1.08.63-1.08.63-.29.07-1.93.98-1.93.98-.5.2-1.32.76-1.32.76-.31.15-.58.58-.58.58-.33.2-1.49-.15-1.49-.15-.6-.09-1.54-.66-1.54-.66-.28-.27-.76-.69-.76-.69-.37-.66-.69-2.23-.69-2.23-.07-.4-.58-1.23-.58-1.23-.1-.31-.65-1.1-.65-1.1-.22-.15-.29-.41-.29-.41-.11-.16-.14-.54-.14-.54.38-.22-.2-.4-.2-.4-.45-.12-.44-.38-.44-.38-.07-.27.72-.17.72-.17M57.25,45.24s.05-.42.24-.59c0,0,.21-.48.54-.36,0,0,.34.17.5.08,0,0,.06.22.21.21,0,0,.15.08-.11.1,0,0-.19.27-.44.25,0,0-.45.12-.38.45,0,0,.03.3-.24.51,0,0-.21.4-.32.45,0,0-.08.26-.22.34,0,0-.34.27-.03-.25,0,0,.19-.35.17-.65,0,0-.01-.29.08-.54M58.86,44.92s.12-.14.28-.23c0,0,.29-.08.81.22.09.05.67.25.97.51,0,0,.41.3.5.57,0,0,.14.18.15.37,0,0,.33.53.32-.18,0,0-.06-.23-.09-.52l.02-.28s.22.14.49.23c0,0,.17.18.37.15,0,0-.03.11-.18.16,0,0-.17.16-.03.3,0,0,.03.27-.17.39,0,0,.09.24-.01.43,0,0-.24.36-.04.48,0,0,.2.05.13.31,0,0-.03.36-.21,0,0,0-.22-.55-.59-.85,0,0-.97-.84-1.56-1.08,0,0-.23-.13-.95-.31,0,0-.26-.1-.62-.13,0,0-.63-.17.02-.27,0,0,.38-.1.39-.27M60.61,43.32s0-.33.15-.41c0,0,.12-.07.29-.25,0,0,.62-.63.59-.18,0,0,.09.29-.1.43,0,0-.11.58.24.29,0,0,.03-.07.2-.15,0,0,.18.02.17-.23,0,0,.31-.32.75-.11,0,0,1.29,0,.51.39,0,0-.11.14-.56.1,0,0-.32-.08-.79.3,0,0-.4.18-.61.42,0,0-.05.34-.29.24,0,0-.18.31-.34-.01,0,0-.04-.06-.24-.29,0,0-.16-.16.03-.54M61.05,38.37s-.28-.8-.75-1.55c0,0-.35-.27-.87-.87,0,0-.28-.68-.28-1.12,0,0-.08-.71-.35-.37,0,0-.25.47-.34.62l-.36-.21s.56-1.03.69-1.48c0,0,.21-.48.2-.84,0,0,.47.31.66.49,0,0,.37.09.35.29,0,0,.07.67.34.57,0,0,.38-.22.53-.46,0,0,.29.18.5.24,0,0,.36.41.58.54,0,0,.33.08.62.03,0,0,.37-.02.2.3,0,0-.27,1.25-.31,1.75,0,0-.07.41-.03.59,0,.09-.09.56-.01.76,0,0,.59,1.17.74,1.45,0,0,.38.51.02.65,0,0-1.11.83-1.52,1.01,0,0-.28.24-.19-.34,0,0,.11-.32-.01-.74,0,0-.11-.69-.4-1.33M58.77,37.48s-.05.42-.27.72c0,0-.16.56-.59.05,0,0-1.05-.94-1.42-1.32,0,0-.55-.77-.9-.47,0,0-.41.38-.28-.48,0,0,.2-.72-.01-.66,0,0-.41.08.06-.34,0,0,.44-.66,0-.85,0,0-.14-.39,0-.86l.05-.43s.18-.56.62-.16c0,0,.52.42.87.72,0,0,.38.26.54.37,0,0,.22.55-.01.78,0,0-.33.52.16.52,0,0,.92.42,1.1.74,0,0,.4.23.2.46,0,0,.05.32-.13,1.22M53.84,39.37c-.38-.03-.34-.21-.34-.21.03-.34.27-.06.27-.06.28.05.16-.37.16-.37-.16-.05-.09-.21-.09-.21-.11-.06-.02-.19-.02-.19.18-.07.07-.24.07-.24-.18-.11.02-.19.02-.19.17-.08.27-.26.27-.26.13-.24-.04-.43-.04-.43-.18-.05.15-.37.15-.37.12-.06.12-.31.12-.31-.04-.12.07-.34.07-.34.18-.02.19-.38.19-.38.06-.21.16-.14.16-.14.27-.28.22.19.22.19v.34c-.03.17.07.94.07.94,0,.44.05.86.05.86.07.38.1.92.1.92,0,.5,0,.55,0,.55l-1.42-.11ZM54.32,31.94s.34-.19-.02-.31c0,0-.43-.21-.02-.28,0,0,.14.08.39.14,0,0,.29.11.09.28,0,0-.26.17-.39.29,0,0-.39.08-.05-.11M53.9,30.67s.3-.35.63-.11c0,0,.44.27.47.42,0,0,.14.26-.07.26,0,0-.16.08-.3-.07,0,0-.37-.13-.41-.05,0,0-.61-.3-.33-.45M54.57,29.87s.3.31.62.34c0,0,.45.13.54.14,0,0,.34-.01.38.22,0,0-.14.52.55.85,0,0,.55.35,1.04.41,0,0,.74.21.79.6,0,0,.23.07.06.34,0,0,.09.49-.23.25,0,0-.62-.13-.92-.35,0,0-.54-.39-.75-.57,0,0-.53-.5-.61-.17,0,0-.14.31-.34.1,0,0-.47-.27-.31-.81,0,0,.3-.15,0-.34,0,0,.07-.3-.31-.4,0,0-.61-.17-.76-.47,0,0-.15-.49.24-.15M56.59,21.08s.25-.27.1.71c0,0-.15.43.05.63,0,0,.32.54.43.78,0,0,.29.46.32.7,0,0,.11.06.07.47,0,0,.18.57.18,1.1,0,0,.32.6.31,1.16,0,0,.16.49.24.76,0,0,.17.35.29.83,0,0,.23.61.33,1,0,0,.38,1.36.5,1.73,0,0,.14.64.19.92,0,0,.16.2-.05.42,0,0,.06.33-.21.06,0,0-.28-.46-.89-.56,0,0-.52-.31-.97-.31,0,0-.33.04-.7-.3,0,0-.43-.39-.41-.69,0,0-.14-.36-.27-.36-.13,0-.28.04-.35-.12l.84-8.93ZM62.99,36.5c.11.68.87.65.87.65.98-.05,1.38-.99,1.38-.99.18-.27.29-1,.29-1,.13-.2.03-.49.03-.49.07-.24.27-1,.27-1,.23-.95-.26-1.4-.26-1.4.4,0,.91.65.91.65.22.48-.1,1.53-.1,1.53-.26.5-.38,1.25-.38,1.25-.16.81-.97,1.31-.97,1.31-.63.44-1.46.24-1.46.24-1,.11.41.51.41.51.69.19,1.93.15,1.93.15.7.06,1.26-.25,1.26-.25.41-.44-.5-.71-.5-.71-.35-.24-.47-.59-.47-.59.09-.75.49-.4.49-.4.22.17.33.63.33.63.4.48.35.66.35.66.21.21.1.61.1.61-.07.21-.6.26-.6.26-.31.15-.61.24-.61.24-.52-.11-.76,0-.76,0-.77.14-1.36-.07-1.36-.07-.41-.06-.84-.35-.84-.35-.51-.04-.63-.38-.63-.38-.06-.2.12-.52.12-.52-.04-.22-.06-.59-.06-.59.12-.5.28.06.28.06M63.49,34.83s.09-.41.11-.63c0,0,.19-.69.72-.63,0,0,.16.41.05.66,0,0,0,.39-.23.47,0,0-.41.27-.22.44,0,0,.27.33-.22.16,0,0-.31.05-.21-.46M64.41,32.7s.56.17.94.43c0,0,.32.27.14.39,0,0-.11-.06-.51-.21,0,0-.51-.15-.66-.24,0,0-.64-.42.1-.36M67.62,39.65s-.18.14-.38.08c0,0-.63.22.04.46,0,0,.77.08.86.24,0,0,.46.22.03.97,0,0-.26.55-.73.71,0,0-.15.27-.52.36,0,0-.24-.07-.28.17,0,0-.48.28-.77.39,0,0-.5-.03-.52.19,0,0-.16.14-.35.12,0,0-.16,0-.22.13,0,0-.04.07-.21-.17,0,0-.44-.39-.14-.59,0,0,.66-.64.84-.65,0,0,.59-.05.87.14,0,0,.37.25.5.09,0,0,.19-.31-.11-.45,0,0-.39-.43.06-.34,0,0,.76.29.38-.27,0,0-.35-.38-.7-.52,0,0-.54-.31-.48-.78,0,0,.04-.52-.39-.28,0,0-.14.07-.06.29,0,0,.02.47-.15.5,0,0-.54.09-.2.35,0,0,.43.19.2.55,0,0-.08.45-.29-.14,0,0-.25-.58-.41-.8,0,0-.24-.27-.24-.34,0,0-.34-.34.08-.47,0,0,.49-.4.77-.58l.31-.26s.34.12.43-.12c0,0,.16-.14.2.06,0,0,.43.16.56-.07,0,0,.37-.23.53.05,0,0,.26.32.54.48,0,0,.41.36-.04.49M54.82,56.31s.37-.31.4-.46c0,0,.19-.4.36-.14,0,0,.49.23.69.23,0,0,.46-.17.65.04,0,0,.3.03.3.25,0,0,.02.16.37.13.11.05.36.2.52.12,0,0,.28-.13.29-.03,0,0,.75-.09.37.24,0,0-.17.31-.38.3,0,0-.34.14-.43.37,0,0-.67.28-.24.36,0,0,.2.02.25.14,0,0,.09.23-.08.12,0,0-.02-.25-.32-.07,0,0-.38.26-.15-.09,0,0,.14-.33-.25-.21,0,0-.07.07-.18-.1,0,0-.47-.11-.15-.22,0,0,.3-.16.32-.39,0,0-.07-.29-.32-.03,0,0,.09.28-.33.12,0,0-.25-.05-.42.03,0,0-.27.05-.44-.17,0,0-.2-.13-.32.12,0,0-.04.15-.01.3,0,0-.21.07-.11-.16,0,0,.19-.39-.19-.23,0,0-.34.13-.36-.16,0,0-.13-.16.16-.42M55.83,54.02s.35-.01.47.24c0,0,.21.25.73.18,0,0,.66-.22,1.12.16,0,0,.21.41.68.09,0,0,.62-.33.82.06,0,0,.06.38.68.26,0,0,.3-.28.61.13,0,0,.24.16,0,.64l-.21.59s-.06.55-.6.28c0,0-.09-.2-.74-.39,0,0-.44-.28-.91-.31,0,0-.67.35-1.11-.09,0,0-.28-.65-.95-.5,0,0-.44.23-.94-.1,0,0-.31-.16-.69-.22,0,0-.17-.22.03-.71,0,0,.11-.77,1.01-.31M56.91,51.12s.4.09.43.41c0,0,.35.32.56.13,0,0,.19-.08.37-.17,0,0,.46-.07.26.3,0,0-.05.31-.38.42,0,0-.24.22-.53.39,0,0-.13.12-.36.41,0,0-.11.18-.17.4,0,0,.05.35-.29.13,0,0-.46-.29-.83-.38,0,0-.22-.09-.47-.04,0,0-.36.23-.19-.33,0,0,.21-.63.2-.78,0,0,.27-1.31,1.39-.89M56.65,48.72s.84-.1.96.36c0,0,.38.6.53.83,0,0,.23.25.22.51,0,0,.07.29.15.38,0,0-.19-.06-.41,0,0,0-.1.17-.45-.23,0,0-.36-.28-.75-.22,0,0-.12-.03-.42.03,0,0-.52.26-.38-.22,0,0,.05-.76.15-1.11,0,0,.06-.66.39-.33M58.47,53.67l.31-.15s.59-.16.94-.05c0,0,.91.31,1.19-.15,0,0,.14-.5.74-.56h.38s.31-.1.15.18c0,0-.02.6-.21.76,0,0-.35.05-.38.2,0,0-.12.54-.44.53,0,0-.15.12-.57,0,0,0-.32.12-.63-.16,0,0-.14-.4-.91-.28,0,0-1.32-.07-.56-.31M58.84,51.15s-.13-.69-.24-.99c0,0-.17-.47-.45-.78,0,0-.93-1,.13-.68,0,0,.88.15.94.61,0,0,.23.61.31.99,0,0,.3.53.11,1.2,0,0-.18.57-.04.72,0,0,.23.3.07.5,0,0-.17.5-.38.48,0,0-.46.05-.89.23,0,0-.28.15-.66.33,0,0-.6.4-.38-.23,0,0,.31-.72.95-1.08,0,0,.84-.5.54-1.31M66.02,44.88c.26.21.17.53.17.53.11.48-.12.82-.12.82-.13.35-.24.62-.24.62-.13.41-.42.44-.42.44-.33.28-.46-.32-.46-.32-.22-.19.02-.38.02-.38.12.05.24-.23.24-.23.07-.18.26-.44.26-.44.2-.41-.16-.44-.16-.44-.29-.06-.36-.18-.36-.18-.36-.22-.51.12-.51.12-.22.54-.33-.16-.33-.16-.02-.16.1-.52.1-.52.18-.49.42.02.42.02-.02.21.27.18.27.18.31.08.36-.11.36-.11.11-.16.3-.26.3-.26.07-.19.3-.13.3-.13.16-.1.35-.46.35-.46.31-.2.15.1.15.1-.19.09-.21.26-.21.26-.42.23-.15.54-.15.54M62.98,52.19s.32-.31.56-.48c0,0,.7-.65.68-1.16,0,0-.16-.6.16-.75,0,0,.28-.13.35-.28l-.06.7s0,.84-.21,1.46c0,0-.26.87-.31,1.24,0,0-.03.79-.32.86,0,0-.36.09-.47.4,0,0-.04.23-.26.27,0,0-.11.25-.3.24,0,0,0,.23-.31.17,0,0-.08.26-.41.33,0,0-.45.15-.14-.36,0,0,.4-1.14.51-1.55,0,0,.37-.95.53-1.08M62.81,48.84s.17.26.41.13c0,0,.23.03.33.22,0,0,.25.08.17.43,0,0,.01.32.06.44,0,0,.08.41-.08.43,0,0,.02.21-.03.39,0,0,.02.48-.25,0,0,0-.25-.15-.27-.38,0,0,.06.04-.09-.27,0,0-.15-.45-.34-.73,0,0-.19-.43-.18-.52,0,0,.13-.49.27-.13M62.63,44.38s-.24-.11-.34-.25c0,0-.1-.06-.29.03,0,0-.74.09-.18-.13,0,0,.26-.15.37-.26,0,0,.36-.29.7-.26,0,0,.4,0,.55-.05,0,0,.38-.25.26.06,0,0,.03.42-.17.61,0,0-.16.46-.37.59,0,0-.18.33-.41.17,0,0-.15-.04-.28-.05,0,0-.25,0,.14-.2,0,0,.35-.13.01-.26M62.29,50.54s0,.43.07.7c0,0-.01.62-.27.75,0,0-.09.19-.25.24,0,0-.06.25-.17.25,0,0-.28.08-.11-.32,0,0,.06-.22-.21-.46,0,0-.18-.51-.16-.85,0,0,.07-.95-.18-1.67,0,0-.12-.85-.74-1.34,0,0-.37-.59-.78-.88,0,0-.27-.36-.8-.48,0,0-.34-.13-.57-.17,0,0-.76-.25-.1-.42,0,0,.35-.32.9.16,0,0,.54.56.89.48,0,0,.72.03.77.14,0,0,.71.25,1.02.9,0,0,.36.7.4,1.14,0,0,.19.47.19.83,0,0,.1.16.06.41,0,0,.15.25.03.58M56.89,47.13s.25-.05.35-.24c0,0,.32-.65.95-.24,0,0,.7.08.91.4,0,0,.49.31.56.58,0,0,.06.39.26.54,0,0,.6.52.62.96,0,0,.14.79.15,1.2,0,0-.07.89-.13,1.07,0,0-.21.67.03.96,0,0,.35.39.09.77,0,0-.58.51-.49-.1,0,0,.12-.96.04-1.55,0,0-.21-1.1-.37-1.59,0,0-.34-1.19-1.25-1.72,0,0-.66-.4-1.11-.39,0,0-.46-.06-.58-.01,0,0-.41.34-.24-.17,0,0-.05-.35.21-.44M50.82,60.57s.1-.49.4-.58c0,0,.33-.52.23-1.03l.07-.37.43.05s4.42.94,7.44-.75c0,0,2.9-1.89,3.61-2.58,0,0,.62-.67.43-.14,0,0-.12,1.44-4.16,6.53,0,0-2.68,3.82-7.41,6.18l-.65.4s-.56.11-.16-.3c0,0,.17-.25-.37-.64,0,0-.22-.13-.7-.55,0,0-.42-.42-.65-.66,0,0-.22-.29-.56-.19,0,0-.64.19-1.7-.39,0,0-.91-.57-2.03-1.45,0,0-.9-.69-1.21-1.09,0,0-.42-.22.02-.52,0,0,.63-.52,1.25-.46,0,0,1.32-.21,1.58-.24,0,0,.84-.26,1.7-.24,0,0,1.25,0,1.62.1,0,0,.64.28.79-.26,0,0,.23-.45,0-.83M68.17,51.98s-.32,3.71-2.94,7.44c0,0-2.13,3.56-5.04,5.86,0,0-2.28,2.26-6.17,4.31,0,0-3.81,2.04-8.15,2.65,0,0-6.48,1.11-11.84-.74,0,0,8,1.46,12.89-.12,0,0,7.81-2.14,12.18-6.72,0,0,4.27-4.43,6.06-7.82,0,0,2.19-4.85,2.07-8.36,0,0,.07-3.57-.27-4.78,0,0-.18-.34,0-.4.18-.06.17-.24.36-.3,0,0,.27.06.29.27,0,0,.76,1.85.79,4.4,0,0,.1,2.46-.22,4.29M40.55,65.15s.33.15.61-.25c0,0,.91-1.26,1.32-.96,0,0,.78.16,1.37.61,0,0,1.55,1.24,2.26,1.85,0,0,.9.74,1.16.94,0,0,.49.27.34.7,0,0-.09.4.12.46,0,0,.21-.03-.05.26,0,0-.33.56-.66.71,0,0-.31.14-.23.36,0,0-.65.54-1.99.65,0,0-2.58.48-4.24.47,0,0-3.39.03-5.37-.42,0,0-1.09-.19-1.65-.29,0,0-.61.02-.14-.36,0,0,.46-.3.45-.65,0,0,0-.38.23-.48,0,0,.02-.2.14-.3,0,0,2.19-2,4.81-2.86,0,0,1.06-.43,1.52-.45M40.31,64.11c-.39-.4-.51.37-.51.37-.4.71-.32.05-.32.05.12-.16.19-.46.19-.46.3-.64.68-.22.68-.22.21.03.35.26.35.26.18.19.16.47.16.47-.33.52-.35-.09-.35-.09.08-.31-.19-.37-.19-.37M82.6,65.78c3.65-1.31,6.31-5.21,6.98-7.88-2.24.81-4.71,2.41-6.36,4.21.33-.85.63-1.71.91-2.59l1.21-.79c3.46-2.26,5.25-6.96,5.28-9.9-1.95,1.28-3.93,3.3-5.23,5.39.11-.67.2-1.35.28-2.03l.91-.87c2.82-2.68,3.7-7.34,3.23-10.07-1.57,1.49-3.04,3.65-3.9,5.77,0-.64-.03-1.27-.06-1.89l.69-.93c2.24-3.01,2.3-7.57,1.41-10.08-1.2,1.62-2.21,3.81-2.7,5.9-.11-.61-.24-1.2-.38-1.79l.42-.81c1.54-3.03.9-7.12-.28-9.23-.82,1.61-1.39,3.69-1.51,5.61-.22-.56-.45-1.11-.69-1.65l.12-.37c.96-3.01-.25-6.67-1.65-8.42-.46,1.45-.67,3.23-.58,4.88-.21-.33-.42-.66-.64-.98l.07-.41c.52-2.86-1.01-6.05-2.5-7.49-.27,1.49-.23,3.31.13,4.89-.3-.35-.61-.7-.92-1.03l.03-.74c.12-2.71-1.69-5.48-3.25-6.62-.07,1.63.29,3.6.98,5.13-.49-.45-.99-.89-1.5-1.31l-.05-.68c-.2-2.6-2.25-5.03-3.87-5.94.12,1.55.69,3.37,1.51,4.75-.43-.31-.86-.62-1.3-.92l-.13-.66c-.47-2.41-2.65-4.45-4.26-5.12.27,1.39.96,2.96,1.84,4.14-.4-.24-.81-.48-1.22-.72l-.24-.77c-.67-2.18-2.89-3.85-4.45-4.31.4,1.28,1.21,2.7,2.17,3.71-.23-.12-.46-.24-.7-.36l-.53-.55c-1.36-1.41-3.5-2.04-5.19-2.09-.28-2.18-1.16-4.18-2.48-5.82-2.14-2.65-5.4-4.35-9.06-4.35s-6.86,1.66-9,4.27c-1.36,1.65-2.27,3.68-2.55,5.91-1.64.11-3.61.74-4.89,2.07l-.53.55c-.17.09-.35.18-.52.27.93-1.01,1.72-2.39,2.11-3.65-1.55.46-3.77,2.13-4.45,4.31l-.22.72c-.45.26-.9.52-1.35.79.88-1.19,1.57-2.76,1.84-4.14-1.61.67-3.79,2.72-4.26,5.12l-.13.66c-.44.3-.87.61-1.3.92.83-1.38,1.39-3.2,1.51-4.75-1.62.91-3.67,3.34-3.87,5.94l-.05.68c-.51.43-1.01.86-1.5,1.31.69-1.54,1.05-3.5.98-5.13-1.55,1.14-3.37,3.91-3.25,6.62l.03.74c-.31.34-.62.68-.92,1.03.35-1.59.4-3.4.13-4.89-1.49,1.44-3.01,4.63-2.5,7.49l.07.41c-.22.32-.43.65-.64.98.09-1.65-.12-3.43-.58-4.88-1.4,1.76-2.6,5.41-1.65,8.42l.12.37c-.24.54-.47,1.09-.69,1.65-.13-1.92-.69-4.01-1.51-5.61-1.18,2.11-1.82,6.2-.28,9.23l.41.81c-.14.58-.26,1.18-.38,1.79-.49-2.09-1.5-4.28-2.7-5.9-.89,2.51-.83,7.07,1.41,10.08l.69.93c-.03.62-.05,1.25-.06,1.89-.85-2.12-2.33-4.28-3.89-5.77-.47,2.73.41,7.39,3.23,10.07l.91.87c.08.68.17,1.36.28,2.03-1.3-2.09-3.27-4.11-5.23-5.39.03,2.94,1.83,7.63,5.28,9.9l1.21.79c.28.88.58,1.75.91,2.61-1.66-1.81-4.13-3.42-6.38-4.23.67,2.68,3.33,6.57,6.98,7.88l1.27.46c.57,1.09,1.19,2.15,1.85,3.18-2.3-1.68-5.7-2.88-8.55-3.14,1.45,2.67,5.38,6.09,9.64,6.48l1.4.13c.75.94,1.53,1.86,2.36,2.74-2.29.27-6.76.16-10.33-2.44,1.15,1.13,7.14,7.14,8.45,8.16,1.14.89,4.74,3.93,5.99,4.71.64-1.86,2.44-6.55,3.08-8.41.09-.28.19-.55.28-.83.27.17.54.35.81.52,1.15.72,2.36,1.37,3.6,1.97.12-.44.23-.88.35-1.32-.67-.32-4.14-1.78-9.87-8.04.17,2.03-.31,3.08-1.15,5.33-.33-.34-.65-.68-.97-1.04l.48-1.22c1.66-4.19.31-9.51-1.51-12.14-1.36,3.42-1.78,8.26-.66,11.34-1.17-1.49-2.22-3.08-3.17-4.74l.59-.82c2.3-3.22,2.26-8.04,1.27-10.67-1.85,2.59-3.21,6.54-2.96,9.39-.75-1.53-1.41-3.12-1.97-4.76l.63-.59c2.89-2.7,3.82-7.43,3.37-10.2-2.25,2.11-4.33,5.55-4.74,8.35-.43-1.58-.76-3.2-.99-4.85l.58-.35c3.04-1.87,4.71-5.87,4.81-8.41-2.34,1.43-4.75,4.05-5.65,6.42-.1-1.15-.15-2.3-.15-3.47,0-.37,0-.73.02-1.09l.38-.14c3.35-1.21,5.8-4.8,6.41-7.26-2.47.89-5.23,2.84-6.65,4.88.11-1.29.28-2.54.5-3.74l.49-.09c3.11-.55,5.79-3.3,6.7-5.36-2.39.42-5.24,1.79-6.75,3.46.27-1.08.58-2.13.94-3.14h.2c2.88-.12,5.65-2.29,6.73-4.04-2.04.08-4.52.84-6.13,1.98.36-.84.76-1.65,1.18-2.44l.34.03c2.65.25,5.45-1.4,6.64-2.87-1.95-.18-4.43.26-6.04,1.18.42-.69.86-1.36,1.32-2.01h.04c2.35.49,5.02-.7,6.23-1.9-1.56-.32-3.55-.24-5.05.27.43-.54.87-1.07,1.33-1.59,2.05.59,4.5-.21,5.69-1.15-1.3-.42-2.98-.55-4.36-.3.31-.32.63-.64.96-.95,1.97.81,4.48.29,5.77-.51-1.27-.58-2.98-.9-4.39-.78.33-.29.65-.58.99-.87,1.68.82,3.9.54,5.08-.06-1.07-.6-2.53-1-3.78-1.02.41-.33.83-.66,1.25-.98,1.42.89,3.43.81,4.53.36-.95-.63-2.3-1.12-3.43-1.18.38-.28.77-.56,1.16-.83l.07.05c1.2.81,2.97.75,3.92.35-.87-.58-2.13-1.01-3.13-1,.21-.14.45-.29.72-.45.16-.07.32-.15.48-.25,1.04.68,2.54.62,3.35.29-.64-.43-1.53-.76-2.32-.85.32-.17.63-.33.92-.48,1.33.44,3.39-.32,5.07-1.47,0,.02,0,.05,0,.07,0,.21,0,.42.02.63.15,2.72,1.23,5.19,2.93,7.1-12.49,3.73-21.6,15.31-21.6,29.02,0,16.73,13.56,30.29,30.29,30.29s30.29-13.56,30.29-30.29c0-11.92-6.89-22.23-16.91-27.18l-.25,1.32c8.81,4.64,14.94,13.55,14.94,24.21,0,15.5-12.57,28.07-28.07,28.07-2.27,0-4.48-.27-6.59-.78,4.49.56,10.5.35,16.76-2.66,0,0,8.48-3.7,13.25-11.68,0,0,6.04-11.95-.45-21.49l-.22-.19s-.05-.68-.22-.92c-.17-.25-.21-.3-.28-.4-.06-.1-.08-.06-.07-.22.01-.16-.06-.33-.06-.33,0,0-.09.08-.07-.18.02-.26-.07-.45-.07-.45,0,0-.15-.18-.25-.21-.08-.03-.14-.01-.23-.09-.08-.08-.15-.13-.15-.13,0,0,.17-.64.22-.91,0,0,.23-1.07-.07-1.43,0,0-.3-.55-1.26-.94,0,0-1.34-.14-1.67.5,0,0-.14.44-.18.58-.04.14-.47.29-.51.49,0,0-.18.18-.07.47,0,0,.13.2-.33,0,0,0-.78-.37-1.35-.54,0,0-.21-.05-.58-.14,0,0,0-.02-.4-.27,0,0-.27.09-.12-.32,0,0,0-.28.23-.38,0,0,.15-.42-.08-.51,0,0-.25-.38-.27-.68,0,0-.13-.49-.26-.89,0,0-.14-.54-.38-.84,0,0-.17-.44-.21-.85,0,0,.04-.44-.2-.77,0,0-.05-.24-.13-.61,0,0-.14-.29-.12-.55,0,0,0-.67-.38-.89,0,0-.13-.13-.32-.15,0,0-.11.25-.1-.39,0,0,.16-.83-.07-1.14,0,0-.24-.32-.24-.51,0,0-.04-.1-.18-.42,0,0-.21-.29-.15-.5,0,0-.09-.3-.14-.63,0,0-.15-.65.06-.73,0,0,.26-.26-.07-.43,0,0-.59.21-.48-.58,0,0,.07-.87.18-.97,0,0,.19-.01.45-.01,0,0,.43-.1-.03-.26,0,0-.37-.07-.34-.4l.17-.98s-.36-.52-.63-.2l-1,6.57s-.17.43-.17.67l-.53,5.17s-.36-.45-.54-.32c0,0-.44.44-.09.79,0,0-.34.19-.44.27,0,0-.23.21-.06.66,0,0,.23.15.02.25,0,0-.03.31.2.4,0,0-.15.46.2.57,0,0,.38.3-.1.31,0,0-.42-.11-.56.6,0,0,.02.49.71.53,0,0,.22.18-.14.3,0,0-.1.43.01.78,0,0,.09.3-.05.53,0,0-.05.32-.14.52l-1.44,3.34s-.31.31.35.41l2.62.18s.29.06.24-.47c0,0-.25-1.26-.11-1.91l.09-.57s.1-.14.41.18l1.99,1.89s.56.54.77-.07c0,0,.48-.77.62-1.12,0,0,.21-.43.12-.74v-.48s.64.54.79.89c0,0,.31.73.43,1.27,0,0,.31.85.33,1,0,0,.18.49-.02.63,0,0-.05.51.02.66,0,0,.12.6-.06,1.18,0,0-.5.37-.78.69,0,0-.26.3-.39.52,0,0-.3-.52-.56-.46,0,0,.12-.75-.63-.78,0,0-.89-.05-1.04.91,0,0-1.12-.28-1.95.48l-16.85-2.95s.07-.22.55-.18c0,0,.87-.04.25-.26,0,0-.68-.41-.87-.43,0,0-.38-.33.4-.46,0,0,1.04.07.47-.32,0,0-.46-.22-.88-.19,0,0-.82.03-1.43-.64l-.27-.26s.43-.09.66-.3c0,0,.7-.38.38-.72,0,0,0-.39-.32-.66,0,0-.24-.31-.46-.5,0,0-.34-.07-.43,0,0,0-.22.14-.53-.4,0,0-.51-.96-1.35-1.22,0,0-.69-.32-1.33-.29,0,0-.34.47-1-.44,0,0-.52-.66-1.35-.95,0,0-1.93-.85-2.82-.22,0,0-.56.54-.98.43,0,0-.88.19-.49.85,0,0,.09.24.65.36,0,0,.21.07.42.11,0,0,.57.21-.23.08,0,0-1.11-.4-.94.53,0,0,.19.02.17.26,0,0,.07.24.6.29,0,0,.67.15,1.02.32,0,0,.24.04.48.17,0,0,.33.27.42.48,0,0-.37.12-.62.15,0,0-.6.12-.29.57,0,0-.23,0,.28.09,0,0-.26.61.3.53,0,0,.19-.02.35-.21,0,0,.22.51.38.15,0,0,.18-.41.48-.09,0,0,.42.6,1.44,1.15,0,0,.23.16.53.25,0,0,.66.11.06.2,0,0-1.09.34-.34,1.11,0,0,.68.06.15.34,0,0-.42.61.09.56,0,0,.39-.23.13.18,0,0-.57.63,0,.55,0,0,.43-.3.26.03,0,0-.13,1.13.34.44,0,0,.72-1.08.36-.27,0,0-.08.34.41.13,0,0,.51-.21.87.66,0,0,1.06,1.97,1.23,2.69,0,0,.6,1.83.69,2.66,0,0,.1,2.12,1.5,3.36,0,0,.43.34.56.51,0,0,.14.12.3.22,0,0,.23.22.32.56,0,0,.7,1.34,2.09,2.37,0,0,2.3,1.81,3.37,2.09,0,0,.23-.02.11.29,0,0-.18.92-.93,1.81,0,0-.96,1.44-1.61,1.61,0,0-.86.04-1.38-.03,0,0-.34-.2-.47.53,0,0-.05.56-.13.9,0,0,.06.4-.7.41,0,0-.41-.04-.82.81,0,0-.03.61-.98,1.11,0,0-1.35.78-2.58,1.45,0,0-1.25.85-1.65,1.06,0,0-.33.46-1.32.53,0,0-.68.17-1.07.33,0,0-.91.24-1.61-.04,0,0-.61-.36-.63.19,0,0-.06,1.26-.31,1.52-7.06-5.1-11.65-13.39-11.65-22.76,0-12.77,8.86-22.84,20.54-26.24,2.03,1.73,4.66,2.78,7.53,2.78s5.66-1.12,7.72-2.94c.71.21,1.42.45,2.11.71l.21-1.23c-.45-.16-.9-.3-1.35-.44.92-1.03,1.66-2.22,2.17-3.53.09-.24.18-.48.25-.73.29-.93.47-1.91.52-2.93,0-.18.01-.36.01-.54,0-.1,0-.19,0-.29,1.73,1.27,3.96,2.15,5.37,1.69.28.15.6.31.92.48-.79.08-1.68.42-2.32.85.82.34,2.33.39,3.36-.3.45.24.86.48,1.19.71-1,0-2.27.42-3.15,1,.95.39,2.72.45,3.92-.35l.08-.06c.39.28.78.56,1.17.84-1.13.06-2.48.54-3.43,1.18,1.1.45,3.11.53,4.53-.36.42.32.84.65,1.25.98-1.25.02-2.71.42-3.78,1.02,1.18.61,3.4.88,5.09.06.33.28.66.57.99.87-1.41-.11-3.12.21-4.39.78,1.29.8,3.8,1.32,5.77.51.32.31.64.63.96.95-1.37-.25-3.06-.12-4.36.3,1.19.94,3.64,1.74,5.69,1.15.46.52.9,1.04,1.33,1.59-1.5-.51-3.49-.59-5.05-.27,1.22,1.2,3.88,2.39,6.23,1.91h.04c.46.64.9,1.31,1.32,2-1.61-.92-4.09-1.36-6.04-1.18,1.19,1.47,3.99,3.12,6.64,2.87l.34-.03c.42.79.81,1.6,1.18,2.44-1.61-1.14-4.09-1.9-6.13-1.98,1.07,1.75,3.84,3.92,6.73,4.03h.2c.36,1.02.67,2.06.94,3.15-1.51-1.66-4.36-3.04-6.75-3.46.91,2.05,3.59,4.81,6.7,5.36l.49.09c.22,1.2.39,2.45.5,3.74-1.43-2.04-4.18-3.99-6.65-4.88.61,2.46,3.06,6.05,6.41,7.26l.38.14c0,.36.02.72.02,1.09,0,1.17-.05,2.33-.15,3.47-.9-2.37-3.31-4.99-5.65-6.42.1,2.53,1.77,6.54,4.81,8.41l.58.35c-.24,1.65-.57,3.27-.99,4.85-.42-2.8-2.49-6.25-4.74-8.35-.45,2.78.48,7.5,3.37,10.2l.63.59c-.56,1.64-1.21,3.23-1.97,4.76.25-2.85-1.12-6.8-2.96-9.39-1,2.63-1.03,7.45,1.27,10.67l.59.82c-.94,1.66-2,3.25-3.17,4.74,1.12-3.08.69-7.92-.66-11.34-1.82,2.64-3.17,7.96-1.51,12.14l.48,1.22c-.37.41-.75.81-1.14,1.21-.02,0-.05-.01-.07-.02-.87-2.37-1.38-3.41-1.2-5.49-5.73,6.26-9.2,7.72-9.87,8.04.12.44.23.88.35,1.32,1.24-.6,2.45-1.25,3.6-1.97.27-.17.54-.34.81-.52.09.28.19.55.28.83.64,1.86,2.44,6.55,3.08,8.41,1.25-.78,4.85-3.82,5.99-4.71,1.31-1.01,7.3-7.02,8.45-8.16-3.44,2.5-7.71,2.7-10.06,2.47.83-.89,1.62-1.8,2.37-2.75l1.52-.14c4.26-.39,8.18-3.81,9.64-6.48-2.95.27-6.47,1.54-8.77,3.3.7-1.08,1.36-2.2,1.96-3.35l1.26-.45Z"/>
      <path class="cls-1" d="M62.37,39.62c.25-.27-.02-.38-.02-.38-.23-.29-.5-1.03-.5-1.03-.25-.44-.54-1.26-.54-1.26-.33-.58-.17-1.42-.17-1.42.09-.31-.04-.35-.04-.35-.22-.19-.37.67-.37.67-.07.53-.42.12-.42.12l-.25-.34c-.54-.24-.24.28-.24.28.27.34.65.84.65.84.23.34.65,1.36.65,1.36.17.45.58,1.47.58,1.47.22.61.68.04.68.04"/>
      <path class="cls-1" d="M48.78,70.04s.05.34.59,0c0,0,.72-.47.84-.73,0,0,.17-.4.13-.57,0,0-.03-.54-.36-.03,0,0-.67.85-.99.9,0,0-.36.16-.22.42"/>
      <path class="cls-1" d="M48.61,59.13s.34-.2.79-.16c0,0,.64.11.53-.65,0,0-.09-.94.04-1.17,0,0,.18-.54.27-.94,0,0,.33-.71-.2-1.12,0,0-.35-.27-.46.34,0,0,.12.39,0,.53,0,0-.17.24.13.34,0,0,.17.16-.11.2,0,0-.16.18-.1.43,0,0,0,.34-.23.53,0,0-.13.56-.29.68,0,0-.36.47-.52.54,0,0-.44.23-.32.36,0,0,.21.13.45.1"/>
      <path class="cls-1" d="M45.9,50.56s.02-.21.18-.3c0,0,.14-.16-.09-.35,0,0-.32-.03-.41,0,0,0-.78-.03-1.42-.28,0,0-.66-.4-1-.4,0,0-.46-.14-.97-.43,0,0-.5-.38-.81-.69,0,0-.24-.31-.56-.6,0,0-.2-.15-.26-.29,0,0-.4-.37-.38-.01,0,0,.04.15.16.22,0,0,.15.39.29.37,0,0,.03.04.05.19,0,0,.29.39.56.6,0,0,.58.47.9.7,0,0,.54.42.92.55,0,0,.39.3.66.32,0,0,.21.06.29.2,0,0,.06.04.36.16,0,0,.63.13.84.11,0,0,.52.18.68-.08"/>
      <path class="cls-1" d="M51.97,45.99s.29-.15.03-.2c0,0-.2.09-.24-.05,0,0-.08-.2-.19-.11,0,0-.11.05-.08.12,0,0,.13.01.21.1.07.09.12.15.27.14"/>
      <path class="cls-1" d="M52.58,46.17s.18-.1,0-.11l-.2-.07s-.19-.06-.16.1c0,0,.2.08.35.09"/>
      <path class="cls-1" d="M50.24,47.49s.26-.09.28.26c0,0,.04.3.32.24,0,0,.29-.05.53-.16,0,0,.31-.3.68-.38,0,0,.12-.06.33-.07,0,0,.14-.12-.15-.2,0,0-.13.11-.44.02,0,0-.25.24-.59.08,0,0-.22.02-.33-.22,0,0-.15-.31-.43-.15,0,0-.28.15-.29.32,0,0-.17.23.08.27"/>
      <path class="cls-1" d="M48.67,50.57c.41.24.51-.16.51-.16.07-.24.35-.58.35-.58.22-.28.82-.59.82-.59.44-.5-.1-.24-.1-.24-.16.08-.41.02-.41.02-.15-.07-.37.12-.37.12-.04.2-.48.23-.48.23-.12.11-.51.36-.51.36-.24.08-.29.45-.29.45.1.14.47.38.47.38"/>
      <path class="cls-1" d="M52.42,50.57s.11.67-.1,1.2c0,0-.12.55-.38.64,0,0-.14.16-.28.11,0,0-.25.21.16.44,0,0,.43.31.93.05,0,0,.52-.3.53-.91,0,0,.05-.55-.1-.87,0,0-.04-.18-.22-.19,0,0,.14-.02.05-.22,0,0-.13-.24-.38-.43,0,0-.23,0-.21.17"/>
      <path class="cls-1" d="M47.34,52.17c-.16.1-.9-.04-.9-.04-.34,0-.28.43-.28.43-.26.21-.16.58-.16.58.12.25-.08.69-.08.69-.1.33-.11.46-.11.46.07.26-.15.49-.15.49-.09.32-.02.8-.02.8.26.36.14.56.14.56-.12.48.18.74.18.74.47.04.19-.67.19-.67-.16-.32-.03-.91-.03-.91.08-.41.5-1.27.5-1.27.19-.38.69-1.03.69-1.03.24-.51.39-.63.39-.63.36-.59-.36-.2-.36-.2"/>
      <path class="cls-1" d="M39.83,50.86c.04.25.14.15.14.15.16-.02.04-.22.04-.22-.09-.1-.19.08-.19.08"/>
      <path class="cls-1" d="M41.07,51.12c-.12.1.07.22.07.22.18.01.13-.14.13-.14,0-.19-.2-.08-.2-.08"/>
      <path class="cls-1" d="M42.55,51.8c-.23-.02-.1.24-.1.24-.13.19.11.3.11.3.22,0,.1-.3.1-.3.09-.2-.11-.24-.11-.24"/>
      <path class="cls-1" d="M43.32,52.55s-.14-.07-.19.04c0,0-.12.27.17.2,0,0,.22-.17.02-.25"/>
      <path class="cls-1" d="M42.45,53.66c-.09.15.11.22.11.22.17.01.1-.21.1-.21-.12-.18-.2-.02-.2-.02"/>
      <path class="cls-1" d="M43.11,54.09c-.24-.07-.17.18-.17.18.19.09.21.03.21.03.18-.12-.04-.21-.04-.21"/>
      <path class="cls-1" d="M43.4,54c.05-.16-.15-.2-.15-.2.03-.19-.24-.17-.24-.17-.14.17.09.24.09.24-.03.28.25.29.25.29-.03.19.21.14.21.14.23-.22-.16-.3-.16-.3"/>
      <path class="cls-1" d="M43.67,54.6c-.01.13.18.1.18.1.19-.02.07-.2.07-.2-.21-.2-.25.1-.25.1"/>
      <path class="cls-1" d="M56.18,56.67c-.3-.2-.32.24-.32.24.42.2.32-.24.32-.24"/>
      <path class="cls-1" d="M57.08,57.28c.33.38.31-.05.31-.05-.11-.29-.31.05-.31.05"/>
      <path class="cls-1" d="M55.15,56.71c.47-.13.19-.36.19-.36-.3-.12-.33.2-.33.2-.17-.07-.2.27-.2.27.05.15.34-.11.34-.11"/>
      <path class="cls-1" d="M41.27,62.73s.5.16.71.3c0,0,.44.2.71.43,0,0,.27.12.43.21,0,0,.56.26.25-.19,0,0-.05-.1-.48-.38,0,0-.56-.24-.6-.47v-.32s-.09-.6-.45-.16c0,0-.13.25-.39.23,0,0-.63.07-.18.37"/>
      <path class="cls-1" d="M31.1,69.93c.42.05.87.03.87.03.62.01.34-.35.34-.35-.13-.14-.15-.28-.15-.28-.44-.42-.61-.09-.61-.09-.16.14-.4.27-.4.27-.13.1-.38.1-.38.1-.49.26.33.32.33.32"/>
      <path class="cls-1" d="M69.17,89.36c-6.86,3.84-15.98,5.98-24.18,5.96-8.2.01-17.31-2.12-24.17-5.96-.03-.02-.06-.03-.09-.05.88-2.77,2.76-7.54,3.64-10.31.04.03.09.05.13.08,6.03,3.53,13.23,5.49,20.49,5.47,7.27.01,14.46-1.94,20.5-5.48.04-.03.09-.05.13-.08.88,2.77,2.76,7.54,3.64,10.31-.03.02-.06.03-.09.05M44.98,83.82c-7.7.01-15.1-2.21-21.11-5.98-1.07,3.24-3.15,8.47-4.22,11.71,7.01,4.1,16.5,6.51,25.33,6.5,8.83.01,18.57-2.39,25.58-6.5-1.07-3.24-3.15-8.47-4.22-11.71-6.01,3.77-13.66,5.99-21.36,5.98"/>
      <path class="cls-1" d="M41.65,89.86s-.12.03-.22.12c-.1.08-.14.15-.14.19,0,.01,0,.03,0,.04.1.21.29.32.57.35.07,0,.13,0,.2-.03-.09-.25-.13-.38-.15-.39-.08-.17-.17-.26-.27-.27"/>
      <path class="cls-1" d="M60.66,88.83s-.04.07-.11.15l-1.24.47v-.02s-1.01.33-1.01.33h0s-.17.05-.17.05l-.17.06h0s-2.28.66-2.28.66l-.27-.74-1.16.24c-.07.04-.31.25-.74.61-.35.3-.6.46-.73.49l-1.79.26-1.07.13-.19.02-.17.02-.92.08h-.2s-.17.03-.17.03l-.93.05h-.16s-.19.02-.19.02l-1.3.04h-1.29s-1.04,0-1.04,0l-.75-.06c-.21.38-.46.71-.78.99-.4.36-.76.53-1.1.5-.28-.02-.59-.12-.94-.29-.37-.18-.63-.37-.78-.58v-.1s.07-.03.1-.02c.1,0,.24.05.43.12.19.07.33.11.42.12.29.02.64-.05,1.05-.22.36-.16.67-.34.93-.55-.52-.14-.8-.22-.85-.24-.33-.14-.48-.36-.46-.65.03-.31.19-.7.49-1.18.34-.53.65-.78.94-.76.45.04.72.63.8,1.79l.27.02,1.65.02h0s1.25-.01,1.25-.01l1.1-.03,1.23-.07,1.25-.11,1.46-.17,1.74-.27c.19-.11.48-.28.85-.51-.17-.04-.42-.08-.74-.11-.37-.04-.6-.05-.71-.03-.16.03-.3.11-.43.23-.13.12-.23.19-.32.21l-.03-.13c.21-.85.57-1.33,1.09-1.43.3-.06.72-.03,1.26.11.61.15,1.04.22,1.3.21.26,0,.66-.03,1.2-.07-.01.27-.04.55-.09.83.06-.02,1.61-.54,1.61-.54l1.39-.46h0s.71-.26.71-.26c0-.04,0-.07,0-.1-.07-.17-.24-.5-.52-.99-.28-.49-.47-.79-.58-.9-.12-.03-.25-.09-.4-.18.05-.6.13-1.05.25-1.34l.07.02c.05.12.11.22.17.29.06.07.28.14.64.2.28.06.52.09.72.1l-.37,1.22.59,1.22c.04.08.09.29.14.63.05.34.07.55.04.62M37.99,93.06l-.66-.56c-.11.07-.28.19-.51.36-.31-.24-.53-.44-.67-.6.19-.2.41-.39.64-.57.34.34.55.52.63.53.05,0,.14-.04.28-.16.14-.11.24-.18.28-.19l.7.61c-.26.28-.48.48-.68.58M34.99,90.59l-.16-.04-.9-.23-.17-.05-.17-.04-.9-.26-.17-.05-.17-.05-.92-.28-1.42-.52,1.02-3.79s.16-.15.44-.33c.26-.16.43-.26.51-.29-.17.58-.34,1.16-.51,1.74-.22.78-.36,1.35-.4,1.71-.02.11.06.19.24.26l.13.05h0s1.38.44,1.38.44l1.23.35,1.2.31,1.43.34,2.11.35c-.07-.38-.21-.78-.43-1.2l.72-.87c.4.69.57,1.27.49,1.74-.05.27-.2.77-.47,1.5l-2.85-.48-1.07-.26-.19-.05ZM51.35,86.91c.14-.23.24-.34.28-.35.07-.01.35.16.87.51,0,.05-.08.18-.26.39-.18.21-.29.31-.35.33-.12.02-.4-.11-.83-.41.04-.08.14-.24.28-.46M44.99,85.37c-7.09.01-14.36-1.92-20.26-5.34-.81,2.57-2.35,6.3-3.16,8.87,6.65,3.7,15.48,5.75,23.41,5.74,7.93.01,16.77-2.04,23.42-5.74-.81-2.57-2.44-6.3-3.25-8.87-5.9,3.43-13.07,5.35-20.16,5.34"/>
      <path class="cls-1" d="M49.2,6.28c-.16.03-.1.19-.1.19,0,0,.14.04.32.07.18.04.32.08.51.28.25.26.31.41.31.41,0,0,.01-.1-.01-.26-.03-.16-.15-.35-.45-.54-.3-.19-.42-.17-.58-.15"/>
      <path class="cls-1" d="M49.09,5.5c.12-.14.16-.27.21-.32.15-.15-.14-.18-.28-.09-.45.28-.32.64-.32.64,0,0,.26-.09.39-.22"/>
      <path class="cls-1" d="M46.74,5.53c-.12-.07-.61.02-.75.14-.14.11-.2.35-.22.53-.02.19.01.27.01.27,0,0,.18-.3.29-.45.07-.1.22-.05.25-.09.04-.04.07-.1.2-.17.25-.14.32-.19.22-.24"/>
      <path class="cls-1" d="M48.63,11.05c.08.47.32,1.65.49,1.88.09.13.16.06.25.01.09-.05.19-.97.24-1.36.04-.32-.02-1.23-.03-1.46-.03-.77-.27-1.58-.64-2.2t0,0c-.07.21-.23.41-.36.52-.09.07.08-.42-.12-.68-.09.21-.1,1.12-.03,1.73.06.51.15,1.15.21,1.56"/>
    </g>
  </g>
</svg>