<?xml version="1.0" encoding="UTF-8"?>
<svg id="Layer_2" data-name="Layer 2" xmlns="http://www.w3.org/2000/svg" viewBox="0 0 481.89 650.06">
  <g id="Dimensions">
    <g>
      <rect x="41.3" y="41.26" width="24.51" height="145.25"/>
      <path d="M65.77,292.38h14.62c15.51,0,18.44,2.48,22.94,12.61,3.59,8.56,4.72,15.99,9.89,15.99h.9v-61.26h-.9c-5.17,0-6.3,7.21-9.89,15.77-4.05,9.24-7.42,12.61-22.94,12.61h-14.62v-65.08h-24.51v145.25h24.51v-75.89Z"/>
      <path d="M150.09,136.75h-.9c-7.87,0-6.97,16.21-12.37,29.28-4.54,11.55-8.99,18.15-24.85,19.95v.53h38.11v-49.76Z"/>
      <path d="M122.27,223.29c8.31,2.79,11.72,8.28,15.32,17.52,4.95,12.83,3.82,25,11.69,25h.9v-42.79h-27.91v.27Z"/>
      <path d="M213.9,184.04c8.1,0,10.57-4.05,15.06-18.24l40.3-119.2h.22v139.92h24.51V41.26h-28.8l-42.07,125.89h-.23l-49-125.89h-25.23l48.82,124.77c4.27,12.39,8.09,18.02,16.41,18.02Z"/>
      <path d="M193.99,294.7c0-36.54,10.31-61.69,27.95-71.61h-16.32c-23.81,13.06-39.28,39.52-39.28,71.61,0,33.67,17.05,61.29,42.88,73.64h16.39c-19.87-8.43-31.61-34.63-31.61-73.64Z"/>
      <path d="M265.39,223.09h-16.32c17.63,9.92,27.95,35.08,27.95,71.61,0,39.01-11.75,65.21-31.62,73.64h16.39c25.84-12.35,42.89-39.96,42.89-73.64s-15.48-58.56-39.28-71.61Z"/>
      <path d="M0,0v482.43h481.89V0H0ZM476.94,477.47h-36.3l-36.31-54.54-36.3,54.54H4.95V4.95h471.99v472.52Z"/>
      <polygon points="47.46 551.89 40.82 551.89 40.82 591.11 66.05 591.11 66.87 585.34 47.46 585.34 47.46 551.89"/>
      <polygon points="100.34 557.6 100.34 551.89 74.3 551.89 74.3 591.11 100.62 591.11 101.38 585.39 80.93 585.39 80.93 573.81 99.25 573.81 99.25 568.04 80.93 568.04 80.93 557.6 100.34 557.6"/>
      <polygon points="146.23 591.11 156.98 562.6 156.98 591.11 163.07 591.11 163.07 551.89 155.28 551.89 143.82 583.09 132.69 551.89 124.63 551.89 124.63 591.11 130.61 591.11 130.61 562.66 140.97 591.11 146.23 591.11"/>
      <rect x="173.74" y="551.89" width="6.64" height="39.22"/>
      <path d="M217.74,569.91c.99-1.7,1.48-3.84,1.48-6.43,0-1.32-.22-2.64-.66-4.01-.44-1.38-1.21-2.64-2.3-3.74-1.1-1.1-2.63-2.03-4.55-2.74-1.92-.72-4.33-1.05-7.29-1.05h-13.43v39.22h6.52v-15.49h8.17c.39,0,.72-.06,1.04-.11l7.02,15.6h7.24l-8.12-17.14c2.25-1.04,3.89-2.41,4.88-4.12ZM212.04,566.23c-.22.82-.61,1.48-1.15,2.03-.55.55-1.32.99-2.3,1.32-.99.33-2.25.5-3.73.5l-.16-.06h-7.35v-12.63h6.69c1.59,0,2.91.17,3.95.44,1.04.27,1.92.66,2.58,1.21.65.55,1.09,1.21,1.37,1.97.27.77.44,1.6.44,2.53,0,.99-.11,1.87-.33,2.69Z"/>
      <path d="M241.54,551.89l-14.91,39.22h6.85l3.62-10h15.19l3.67,10h7.08l-14.92-39.22h-6.58ZM238.91,575.56l5.76-16.15,5.81,16.15h-11.57Z"/>
      <path d="M285.86,570.29v5.6h8.66v7.96c-1.37.93-2.79,1.6-4.28,1.98-1.48.39-3.12.55-4.93.55-2.03,0-3.79-.33-5.21-1.05-1.43-.71-2.63-1.7-3.57-3.02-.93-1.32-1.65-2.91-2.09-4.72-.43-1.81-.65-3.9-.65-6.21s.22-4.28.65-6.1c.44-1.81,1.1-3.4,2.03-4.72.93-1.32,2.08-2.36,3.46-3.08,1.37-.71,2.96-1.1,4.77-1.1,1.37,0,2.58.17,3.57.5.99.33,1.81.77,2.47,1.37.66.61,1.21,1.32,1.65,2.2.44.88.82,1.87,1.1,2.97l6.53-.93c-.33-1.59-.88-3.13-1.65-4.56-.76-1.43-1.75-2.69-2.96-3.74-1.21-1.04-2.69-1.86-4.44-2.47-1.76-.6-3.84-.93-6.2-.93-2.69,0-5.15.5-7.35,1.43-2.19.93-4.06,2.31-5.59,4.12-1.54,1.82-2.74,3.95-3.57,6.48-.82,2.53-1.26,5.39-1.26,8.57s.38,5.99,1.15,8.51c.77,2.53,1.92,4.67,3.46,6.43s3.45,3.13,5.76,4.12c2.3.99,4.99,1.48,8.01,1.48,2.79,0,5.54-.49,8.28-1.43,2.74-.93,5.1-2.36,7.13-4.22l-.11-15.98h-14.81Z"/>
      <polygon points="317.03 573.81 335.35 573.81 335.35 568.04 317.03 568.04 317.03 557.6 336.44 557.6 336.44 551.89 310.4 551.89 310.4 591.11 336.72 591.11 337.48 585.4 317.03 585.4 317.03 573.81"/>
      <polygon points="40.83 649.08 47.46 649.08 47.46 632.43 64.73 632.43 64.73 626.66 47.46 626.66 47.46 615.57 65.83 615.57 65.83 609.86 40.83 609.86 40.83 649.08"/>
      <rect x="73.77" y="609.86" width="6.63" height="39.22"/>
      <polygon points="87.66 615.62 100.06 615.62 100.06 649.08 106.69 649.08 106.69 615.62 119.03 615.62 119.03 609.86 87.66 609.86 87.66 615.62"/>
      <path d="M172.1,614.36c-1.59-1.75-3.51-3.13-5.76-4.06-2.25-.93-4.77-1.43-7.57-1.43s-5.26.44-7.51,1.37c-2.25.93-4.17,2.31-5.76,4.07-1.59,1.76-2.85,3.9-3.73,6.48-.87,2.58-1.31,5.49-1.31,8.73s.44,6.1,1.31,8.62c.88,2.53,2.14,4.67,3.73,6.43,1.59,1.76,3.51,3.08,5.76,4.01,2.25.93,4.77,1.38,7.56,1.38l-.05.11c2.85,0,5.43-.5,7.68-1.43,2.25-.93,4.16-2.31,5.76-4.07,1.59-1.75,2.8-3.9,3.62-6.43.82-2.53,1.26-5.43,1.26-8.68s-.43-6.15-1.32-8.67c-.88-2.53-2.08-4.67-3.67-6.43ZM167.44,640.29c-1.92,2.64-4.77,3.95-8.55,3.95h-.11c-3.79,0-6.63-1.32-8.55-3.95-1.92-2.64-2.85-6.26-2.85-10.88,0-2.31.22-4.39.71-6.21.5-1.81,1.21-3.35,2.19-4.61.99-1.26,2.19-2.25,3.62-2.97,1.42-.71,3.07-1.04,4.99-1.04s3.56.33,4.99,1.04c1.43.71,2.63,1.71,3.57,2.97.93,1.27,1.65,2.8,2.14,4.61.49,1.82.77,3.9.77,6.21,0,4.61-.99,8.24-2.9,10.88Z"/>
      <path d="M209.6,633.42c0,3.68-.66,6.42-1.97,8.24-1.32,1.81-3.51,2.69-6.64,2.69s-5.43-.93-6.74-2.75-1.97-4.56-1.97-8.24v-23.5h-6.58v23.34c0,5.88,1.32,10.16,3.9,12.85,2.58,2.69,6.36,4,11.35,4,2.3,0,4.39-.33,6.25-.93,1.86-.61,3.45-1.59,4.83-2.91,1.37-1.32,2.41-3.02,3.12-5.11.71-2.08,1.1-4.67,1.1-7.68v-23.51h-6.64v23.51Z"/>
      <polygon points="223.35 615.62 235.74 615.62 235.74 649.08 242.38 649.08 242.38 615.62 254.72 615.62 254.72 609.86 223.35 609.86 223.35 615.62"/>
    </g>
  </g>
</svg>