<?xml version="1.0" encoding="UTF-8"?>
<svg id="Layer_2" data-name="Layer 2" xmlns="http://www.w3.org/2000/svg" viewBox="0 0 352.61 112.54">
  <defs>
    <style>
      .cls-1 {
        fill: #3f499f;
      }
    </style>
  </defs>
  <g id="Layer_1-2" data-name="Layer 1">
    <g>
      <path class="cls-1" d="M275.57,99.07h-3.44c-2.31,0-3.74,1.14-3.74,2.97v.02c0,1.77,1.47,2.91,3.74,2.91h3.44v-5.9ZM352.61,102.25c0,1.39-.36,3.31-.98,5.28v.04h-78.77c-4.48,0-7.16-2.06-7.16-5.52v-.02c0-3.38,2.75-5.56,7.01-5.56h2.87v-.97h2.84v9.45h4.57v-8.48h2.82v8.48h47.82v-13.26h2.82v13.26h13c.3-1.03.47-2.02.47-2.79,0-2.14-1.78-3.47-4.66-3.47-1.46,0-2.71.26-4.44.93l-.06.02-.89-2.41.06-.02c2.02-.76,3.85-1.13,5.57-1.13,4.44,0,7.1,2.3,7.1,6.16M284.43,109.58c-.92,0-1.59.56-1.59,1.32,0,.92.82,1.34,1.59,1.34s1.57-.42,1.57-1.34c0-.75-.68-1.32-1.57-1.32M270.13,92.66c0,.79.65,1.34,1.57,1.34.77,0,1.55-.46,1.55-1.34,0-.75-.67-1.32-1.55-1.32s-1.57.57-1.57,1.32M274.38,92.66c0,.88.78,1.34,1.55,1.34.92,0,1.57-.55,1.57-1.34s-.67-1.32-1.57-1.32-1.55.57-1.55,1.32M246.23,99.86h-2.98c-1.59,0-2.57.76-2.57,2v.02c0,1.19,1.01,1.96,2.57,1.96h2.98v-3.97ZM254.22,91.7h4.1v15.87h-8.13c-.46,3.13-2.37,4.29-7.02,4.29-1.36,0-3.03-.12-4.45-.33h-.04s-.71-3.47-.71-3.47h.08c1.99.26,3.6.36,5.58.36,1.69,0,2.33-.21,2.53-.85h-1.83c-4.7,0-7.5-2.13-7.5-5.69v-.02c0-3.43,2.93-5.73,7.29-5.73h6.18v7.71h3.92v-12.13ZM230.56,101.41c0,1.7-.9,2.6-2.62,2.6s-2.59-.94-2.59-2.52v-4.02h-4.1v3.87c0,2.18-1.97,2.5-3.15,2.5h-1.57v-6.37h-4.1v6.37h-5.62v-7.71h-4.08v7.71h-45.1v-12.13h-4.08v14.56h-2.25c-1.75,0-3.83-.56-3.83-3.2v-5.59h-4.08v6.04c0,4.12,2.65,6.49,7.26,6.49h6.97v-2.43h60.48c2.01,0,3.69-.64,4.88-1.85.98,1.26,2.92,2.04,5.11,2.04,4.45,0,6.52-2.02,6.52-6.37v-5.3h-4.08v5.32ZM202.38,109.1c-1.21,0-2.08.72-2.08,1.71,0,1.2,1.04,1.73,2.08,1.73.97,0,2.1-.45,2.1-1.73,0-.99-.88-1.71-2.1-1.71M207.48,109.1c-1.21,0-2.08.72-2.08,1.71,0,1.2,1.04,1.73,2.08,1.73,1.26,0,2.08-.68,2.08-1.73s-.86-1.71-2.08-1.71M133.13,107.57h2.84v-15.87h-2.84v15.87ZM126.6,104.96h-51.52v-2.81c0-3.82-1.99-5.67-6.1-5.67h-2.76v2.59h3.16c2,0,3.02.96,3.02,2.85v3.04h-9.94v2.61h66.96v-15.87h-2.82v13.26ZM57.45,99.07h-3.44c-2.31,0-3.74,1.14-3.74,2.97v.02c0,1.77,1.47,2.91,3.74,2.91h3.44v-5.9ZM54.58,96.48h5.71v9.29s-.02.14-.02.14v.4c0,4.21-1.59,5.56-6.56,5.56-1.43,0-3.04-.18-4.41-.49h-.04s-.6-2.74-.6-2.74l.1.02c1.81.42,3.35.62,4.85.62,2.69,0,3.63-.42,3.82-1.7h-2.69c-4.48,0-7.16-2.06-7.16-5.52v-.02c0-3.38,2.75-5.56,7.01-5.56M24,99.07h-3.45c-2.31,0-3.74,1.14-3.74,2.97v.02c0,1.77,1.47,2.91,3.74,2.91h3.45v-5.9ZM41.68,91.7h2.82v15.87h-23.23c-4.48,0-7.16-2.06-7.16-5.52v-.02c0-3.38,2.75-5.56,7.01-5.56h2.87v-.97h2.84v9.45h5.96v-8.48h2.82v8.48h6.06v-13.26ZM36.43,109.56c-.88,0-1.55.58-1.55,1.34,0,.87.78,1.32,1.55,1.32s1.57-.45,1.57-1.32c0-.78-.66-1.34-1.57-1.34M32.2,109.56c-.91,0-1.57.56-1.57,1.34,0,.87.79,1.32,1.57,1.32s1.55-.45,1.55-1.32c0-.77-.67-1.34-1.55-1.34M18.56,92.66c0,.79.65,1.34,1.57,1.34.77,0,1.55-.46,1.55-1.34,0-.75-.67-1.32-1.55-1.32s-1.57.57-1.57,1.32M22.81,92.66c0,.88.78,1.34,1.55,1.34.92,0,1.57-.55,1.57-1.34s-.68-1.32-1.57-1.32-1.55.57-1.55,1.32M345.12,80.59v-10.74h6.84v-2.52h-16.56v2.52h6.84v10.74h2.88ZM333.46,67.32h-2.88v13.26h2.88v-13.26ZM310.91,67.32v7.66c0,4.09,1.76,5.8,7.3,5.8h2.31c5.55,0,7.31-1.71,7.31-5.8v-7.66h-2.94v7.48c0,2.62-1.08,3.62-5.04,3.62h-.97c-3.98,0-5.06-1-5.06-3.62v-7.48h-2.92ZM299.11,69.48h.99c3.87,0,5.15.7,5.65,2.22h2.98c-.57-3.35-2.98-4.57-8.07-4.57h-2.1c-6.01,0-8.22,1.71-8.22,6.25v1.14c0,4.55,2.22,6.25,8.22,6.25h2.1c5.1,0,7.5-1.21,8.07-4.57h-2.98c-.49,1.52-1.78,2.22-5.65,2.22h-.99c-4.91,0-5.87-1.08-5.87-4.19v-.55c0-3.09.97-4.21,5.87-4.21M285.11,71.58v-.13c0-1.46-.72-1.78-3.66-1.78h-7.54v3.68h8.05c2.43,0,3.15-.36,3.15-1.76M285.07,74.26v.08c1.91.23,2.92.8,2.92,3.07v3.18h-2.88v-2.8c0-1.67-.63-2.07-3.66-2.07h-7.54v4.87h-2.88v-13.26h11.5c4.02,0,5.46.97,5.46,3.33v.63c0,1.99-.95,2.82-2.92,2.97M267.92,67.32h-2.88v13.26h2.88v-13.26ZM252.9,69.48h.99c3.87,0,5.15.7,5.65,2.22h2.98c-.57-3.35-2.98-4.57-8.07-4.57h-2.1c-6.01,0-8.22,1.71-8.22,6.25v1.14c0,4.55,2.22,6.25,8.22,6.25h2.1c5.1,0,7.5-1.21,8.07-4.57h-2.98c-.49,1.52-1.78,2.22-5.65,2.22h-.99c-4.91,0-5.87-1.08-5.87-4.19v-.55c0-3.09.97-4.21,5.87-4.21M223.13,67.32v13.26h14.1v-2.52h-11.22v-10.74h-2.88ZM214.68,74.94l-3.54-5.8h-.11l-3.56,5.8h7.22ZM213.28,67.32l8.07,13.26h-3.24l-2.01-3.28h-10.06l-2.01,3.28h-3.26l8.07-13.26h4.43ZM183.64,69.94h.13l10.9,10.65h4.3v-13.26h-2.86v10.67h-.13l-10.9-10.67h-4.32v13.26h2.88v-10.65ZM169.22,69.48h-1.08c-5.06,0-6.01,1.12-6.01,4.21v.55c0,3.07.95,4.19,6.01,4.19h1.08c5,0,6.01-1.12,6.01-4.19v-.55c0-3.09-1-4.21-6.01-4.21M169.73,67.13c6.1,0,8.41,1.71,8.41,6.25v1.14c0,4.55-2.31,6.25-8.41,6.25h-2.14c-6.1,0-8.38-1.71-8.38-6.25v-1.14c0-4.55,2.27-6.25,8.38-6.25h2.14ZM156.6,80.59v-13.26s-2.88,0-2.88,0v13.26s2.88,0,2.88,0ZM144.95,80.59v-10.74h6.84v-2.52h-16.56v2.52h6.84v10.74h2.88ZM130.98,74.94l-3.54-5.8h-.11l-3.56,5.8h7.22ZM129.58,67.32l8.07,13.26h-3.24l-2.01-3.28h-10.06l-2.01,3.28h-3.26l8.07-13.26h4.43ZM112.42,77.99h-.13l-10.9-10.67h-4.32v13.26s2.88,0,2.88,0v-10.65h.13l10.9,10.65h4.3v-13.26s-2.86,0-2.86,0v10.67ZM91.36,71.58v-.13c0-1.46-.72-1.78-3.66-1.78h-7.54v3.68s8.05,0,8.05,0c2.43,0,3.15-.36,3.15-1.76M91.33,74.26v.08c1.91.23,2.92.8,2.92,3.07v3.18h-2.88v-2.8c0-1.67-.63-2.07-3.66-2.07h-7.54v4.87h-2.88v-13.26h11.5c4.02,0,5.46.97,5.46,3.33v.63c0,1.99-.95,2.82-2.92,2.97M74.46,69.67v-2.35h-15.07v13.26h15.06v-2.35s-12.18,0-12.18,0v-3.11h12.18v-2.37h-12.18v-3.09h12.18ZM50.63,80.59v-10.74h6.84v-2.52h-16.56v2.52h6.84v10.74h2.88ZM38.95,80.59v-13.26s-2.86,0-2.86,0v10.67h-.13l-10.9-10.67h-4.32v13.26s2.88,0,2.88,0v-10.65h.13l10.9,10.65h4.3ZM17.64,67.32h-2.88v13.26h2.88v-13.26Z"/>
      <path class="cls-1" d="M134.59,52.25v1.78s40.82,0,40.82,0h0c5.66,0,10.8-3.41,12.85-8.63-21.45,0-53.66,1.4-53.67,6.84"/>
      <path class="cls-1" d="M98.82,54.04h13.91c6.81,0,12.84-3.42,16.47-8.63-26.64,0-36.52,1.17-42.31,4.68,3.34,2.48,7.47,3.95,11.94,3.95"/>
      <path class="cls-1" d="M29.25,54.03h31.39c5.9,0,10.99-3.55,13.24-8.62-25.2.03-45.73.92-54.57,4.67,2.6,2.45,6.09,3.96,9.93,3.96"/>
      <path class="cls-1" d="M188.43,14.49s0-.09,0-.14c-9.54,0-12.26.96-12.27,2.72v1.35h12.28v-3.93Z"/>
      <path class="cls-1" d="M233.78,41.76h-15.02l15.02-6.96v6.96ZM204.31,34.93v-5.05c-6.76.01-12.26,5.08-12.28,11.87h0s0,.01,0,.01h0s0,0,0,0h-2.85c.56-4.59-1.1-8.93-4.43-11.89-6.78,0-16.23.82-19.43,3.88l10.75,4.97c.29.13,1.17.54.89,1.79-.22,1.01-.88,1.26-1.3,1.26h-44.47c1.01-2.39,1.59-5.03,1.59-7.79v-6.18h86.91l-15.38,7.13ZM149.7,12.28h43.91c-1.02,2.39-1.58,5.03-1.58,7.79v6.17h-13.7l-28.78-13.3c-.34-.16-.23-.66.15-.66M246.83,12.29h41.16V.01h-38.31v10.71h-5.94C240.37,4.36,233.68.01,226,.01h-13.91c-7.68,0-14.37,4.34-17.73,10.7h-6.43C186.26,4.55,180.63,0,173.94,0h-24.86c-5.97,0-11.24,4.13-12.43,9.98-.05.25-.08.49-.12.74h-3.75V0h-12.28v10.71h-29.98C88.86,4.56,83.23,0,76.54,0h-13.68v10.71h-21.09v1.56h94.62c-.12,4.89,2.59,9.3,7.23,11.45l5.44,2.52h-16.29v-11.89c-6.77,0-12.27,5.06-12.28,11.87v.02h-14.74v1.56h14.74v6.18c0,4.29-3.49,7.78-7.78,7.78h-13.91c-4.29,0-7.78-3.49-7.78-7.78V14.5s0-.1,0-.14c-6.73.05-12.26,5.09-12.27,11.86v7.76c0,2.76.57,5.39,1.58,7.78h-5.39c.11-.72.18-1.46.18-2.22l.03-13.3h-12.28l-.03,13.3c0,1.22-.99,2.21-2.21,2.21h-31.39c-1.22,0-2.21-.99-2.21-2.21V0h-12.28v39.54c0,.76.07,1.5.18,2.22H.03l-.03,1.56h192.03v10.71h12.28v-4.17c0-.86.5-1.65,1.28-2.01l9.79-4.54h30.67v-15.53h16.65v13.97h-13.03v12.28h38.31v-12.28h-10.75c-1.24,0-2.25-.99-2.25-2.21v-11.76h64.72v11.76c0,1.22-.99,2.21-2.21,2.21h-31.39c-1.22,0-2.21-.99-2.21-2.21v-9.68c-6.73,0-12.2,3.09-12.27,9.81.07,7.93,6.54,14.36,14.49,14.36h31.39c7.99,0,14.49-6.5,14.49-14.49v-13.31h-48.1V.01h-12.28v26.23h-16.62v-11.87c-6.57.03-11.98,4.8-12.28,11.32v.56h-16.65v-6.17c0-1.98-.29-3.89-.83-5.69-6.46,0-10.15,1.01-11.59,2.83-.1.13-.19.26-.27.39.25.74.41,1.49.41,2.34s-.52,1.57-1.28,1.92l-9.44,4.38h-18.75v-6.17c0-4.29,3.49-7.78,7.78-7.78h34.74Z"/>
      <path class="cls-1" d="M233.78,54.02v.02h12.28v-8.63c-6.77,0-12.27,3.32-12.28,8.62"/>
      <path class="cls-1" d="M134.59,52.25v1.78s40.82,0,40.82,0h0c5.66,0,10.8-3.41,12.85-8.63-21.45,0-53.66,1.4-53.67,6.84"/>
      <path class="cls-1" d="M98.82,54.04h13.91c6.81,0,12.84-3.42,16.47-8.63-26.64,0-36.52,1.17-42.31,4.68,3.34,2.48,7.47,3.95,11.94,3.95"/>
      <path class="cls-1" d="M29.25,54.03h31.39c5.9,0,10.99-3.55,13.24-8.62-25.2.03-45.73.92-54.57,4.67,2.6,2.45,6.09,3.96,9.93,3.96"/>
      <path class="cls-1" d="M188.43,14.49s0-.09,0-.14c-9.54,0-12.26.96-12.27,2.72v1.35h12.28v-3.93Z"/>
      <path class="cls-1" d="M233.78,41.76h-15.02l15.02-6.96v6.96ZM204.31,34.93v-5.05c-6.76.01-12.26,5.08-12.28,11.87h0s0,.01,0,.01h0s0,0,0,0h-2.85c.56-4.59-1.1-8.93-4.43-11.89-6.78,0-16.23.82-19.43,3.88l10.75,4.97c.29.13,1.17.54.89,1.79-.22,1.01-.88,1.26-1.3,1.26h-44.47c1.01-2.39,1.59-5.03,1.59-7.79v-6.18h86.91l-15.38,7.13ZM149.7,12.28h43.91c-1.02,2.39-1.58,5.03-1.58,7.79v6.17h-13.7l-28.78-13.3c-.34-.16-.23-.66.15-.66M246.83,12.29h41.16V.01h-38.31v10.71h-5.94C240.37,4.36,233.68.01,226,.01h-13.91c-7.68,0-14.37,4.34-17.73,10.7h-6.43C186.26,4.55,180.63,0,173.94,0h-24.86c-5.97,0-11.24,4.13-12.43,9.98-.05.25-.08.49-.12.74h-3.75V0h-12.28v10.71h-29.98C88.86,4.56,83.23,0,76.54,0h-13.68v10.71h-21.09v1.56h94.62c-.12,4.89,2.59,9.3,7.23,11.45l5.44,2.52h-16.29v-11.89c-6.77,0-12.27,5.06-12.28,11.87v.02h-14.74v1.56h14.74v6.18c0,4.29-3.49,7.78-7.78,7.78h-13.91c-4.29,0-7.78-3.49-7.78-7.78V14.5s0-.1,0-.14c-6.73.05-12.26,5.09-12.27,11.86v7.76c0,2.76.57,5.39,1.58,7.78h-5.39c.11-.72.18-1.46.18-2.22l.03-13.3h-12.28l-.03,13.3c0,1.22-.99,2.21-2.21,2.21h-31.39c-1.22,0-2.21-.99-2.21-2.21V0h-12.28v39.54c0,.76.07,1.5.18,2.22H.03l-.03,1.56h192.03v10.71h12.28v-4.17c0-.86.5-1.65,1.28-2.01l9.79-4.54h30.67v-15.53h16.65v13.97h-13.03v12.28h38.31v-12.28h-10.75c-1.24,0-2.25-.99-2.25-2.21v-11.76h64.72v11.76c0,1.22-.99,2.21-2.21,2.21h-31.39c-1.22,0-2.21-.99-2.21-2.21v-9.68c-6.73,0-12.2,3.09-12.27,9.81.07,7.93,6.54,14.36,14.49,14.36h31.39c7.99,0,14.49-6.5,14.49-14.49v-13.31h-48.1V.01h-12.28v26.23h-16.62v-11.87c-6.57.03-11.98,4.8-12.28,11.32v.56h-16.65v-6.17c0-1.98-.29-3.89-.83-5.69-6.46,0-10.15,1.01-11.59,2.83-.1.13-.19.26-.27.39.25.74.41,1.49.41,2.34s-.52,1.57-1.28,1.92l-9.44,4.38h-18.75v-6.17c0-4.29,3.49-7.78,7.78-7.78h34.74Z"/>
      <path class="cls-1" d="M233.78,54.02v.02h12.28v-8.63c-6.77,0-12.27,3.32-12.28,8.62"/>
    </g>
  </g>
</svg>