<?xml version="1.0" encoding="UTF-8"?>
<svg id="Layer_2" data-name="Layer 2" xmlns="http://www.w3.org/2000/svg" viewBox="0 0 184.08 18.09">
  <defs>
    <style>
      .cls-1 {
        fill: #0f0f10;
      }
    </style>
  </defs>
  <g id="Layer_1-2" data-name="Layer 1">
    <g>
      <g>
        <g>
          <path class="cls-1" d="M66.64,14.25h-1.8s-1.37-1.51-1.37-1.51l-1.37,1.11c-.98.72-2.36.53-3.17-.34s-.92-2.21-.16-3.15l1.38-1.35-.92-1.1c-.7-1.02-.46-2.38.43-3.16s2.26-.79,3.17,0,1.15,2.18.41,3.19c-.33.44-.79.75-1.19,1.17l1.52,1.71.34-.3h2.22s-1.61,1.35-1.61,1.35l2.12,2.38ZM61.27,8.23l.8-.9c.38-.43.37-1.05.01-1.46s-.95-.51-1.42-.2c-.41.27-.66.86-.38,1.35.2.35.5.66.77.96l.22.25ZM62.35,11.81l-1.36-1.6-1.17,1.05c-.37.33-.22.97.09,1.32s.9.53,1.29.21l1.16-.98Z"/>
          <g>
            <path class="cls-1" d="M97.76,7.44c0-1.84-1.02-3.45-2.53-4.25-1.68-.89-3.67-.72-5.18.45l-1.73-1.31.82-.67c2.21-1.5,5.1-1.57,7.42-.18,2.16,1.3,3.48,3.75,3.33,6.34-.21,3.6-3.12,6.41-6.68,6.53s-6.67-2.52-7.09-6.1h2.15c.44,2.48,2.68,4.17,5.14,3.95s4.34-2.25,4.35-4.76Z"/>
            <path class="cls-1" d="M75.14,11.57c1.96,1.13,4.59.79,6.07-1.13l1.67,1.33-.53.63c-2.87,2.79-7.5,2.57-10.08-.49-1.58-1.87-2.09-4.42-1.23-6.85.72-2.04,2.5-3.77,4.76-4.34,1.84-.47,3.78-.19,5.39.83l.47.37-1.45,1.55c-1.53-1.03-3.49-1.1-5.1-.16-1.49.87-2.43,2.53-2.36,4.33.06,1.68,1.02,3.17,2.38,3.96Z"/>
          </g>
        </g>
        <g>
          <polygon class="cls-1" points="47.1 8.19 45.6 9.88 45.6 14.32 43.12 14.32 43.12 9.45 51.1 .42 53.92 .44 48.52 6.57 53.93 14.36 51.34 14.37 47.1 8.19"/>
          <g>
            <polygon class="cls-1" points="37.47 14.07 28.63 5.79 28.63 14.07 26.14 14.07 26.15 .24 34.98 8.51 34.99 .48 37.47 .48 37.47 14.07"/>
            <g>
              <polygon class="cls-1" points="9 11.56 9.01 14.07 0 14.07 0 .48 2.49 .47 2.49 11.57 9 11.56"/>
              <polygon class="cls-1" points="19.81 14.07 17.33 14.07 17.32 9.85 10.81 .48 13.58 .48 19.82 9.15 19.81 14.07"/>
            </g>
          </g>
        </g>
      </g>
      <path class="cls-1" d="M133.25,4.9c-.34-1.49-1.44-2.37-2.06-2.85-1.38-1.07-2.75-1.37-4.25-1.68-.86-.18-3.39-.63-6.69-.08-1.65.28-2.9.5-4.29,1.4-.78.5-2.47,1.59-2.76,3.48-.1.65,0,1.22.09,1.59.07.33.24,1.16.77,1.93.36.53.89,1.02,2.08,1.61.75.37,2.8,1.29,5.99,1.43.79.03,1.93.03,3.3-.15l-6.19,5.88,4.48.11c2.13-2,4.26-4,6.38-6,.82-.65,2.69-2.32,3.14-4.79.18-1.02.04-1.7,0-1.87ZM129.68,6.88c0,.12-.06.23-.17.28-1.13.64-3.76,1.91-7.22,1.62-2.35-.19-4.14-1.03-5.17-1.62-.1-.06-.16-.17-.16-.28v-1.93c0-.13.07-.24.18-.29,1.16-.55,3.06-1.27,5.48-1.38,3.15-.15,5.59.78,6.86,1.38.11.05.18.17.18.29v1.93Z"/>
      <path class="cls-1" d="M155.9,2.88C153.03-.12,148.99-.03,146.76.01c-2.09.05-6.88.15-9.62,3.77-.41.54-1.88,2.61-1.74,5.52.18,3.69,2.82,5.91,3.42,6.42,2.84,2.39,6.15,2.38,8.08,2.37,1.83,0,4.87-.02,7.65-2.17.75-.58,3.65-2.81,3.85-6.62.19-3.42-1.92-5.8-2.52-6.42ZM154.63,11.48c0,.14-.05.27-.14.38-.49.55-1.25,1.27-2.32,1.84-1.82.98-3.48.99-5.16,1-1.7.01-3.52.02-5.48-1.04-1.05-.57-1.8-1.26-2.29-1.8-.09-.1-.15-.24-.15-.38v-4.91c0-.14.05-.27.14-.38.48-.54,1.23-1.24,2.28-1.82,1.92-1.06,3.69-1.09,5.16-1.11,1.62-.02,3.75-.05,5.87,1.26.88.55,1.51,1.17,1.94,1.66.09.11.14.24.14.38v4.92Z"/>
      <path class="cls-1" d="M181.55,2.88C178.67-.12,174.64-.03,172.41.01c-2.09.05-6.88.15-9.62,3.77-.41.54-1.88,2.61-1.74,5.52.18,3.69,2.82,5.91,3.42,6.42,2.84,2.39,6.15,2.38,8.08,2.37,1.83,0,4.87-.02,7.65-2.17.75-.58,3.65-2.81,3.85-6.62.19-3.42-1.92-5.8-2.52-6.42ZM180.28,11.53c0,.11-.04.21-.11.3-.49.56-1.26,1.29-2.35,1.88-1.82.98-3.48.99-5.16,1-1.7.01-3.52.02-5.48-1.04-1.07-.58-1.83-1.29-2.32-1.84-.07-.08-.11-.19-.11-.3v-5c0-.11.04-.21.11-.3.48-.54,1.23-1.26,2.31-1.86,1.92-1.06,3.69-1.09,5.16-1.11,1.62-.02,3.75-.05,5.87,1.26.91.56,1.55,1.21,1.97,1.71.07.08.1.18.1.29v5.01Z"/>
    </g>
  </g>
</svg>