<?xml version="1.0" encoding="UTF-8"?>
<svg id="Layer_1" data-name="Layer 1" xmlns="http://www.w3.org/2000/svg" viewBox="0 0 2669.78 642.12">
  <defs>
    <style>
      .cls-1 {
        fill: #546891;
      }

      .cls-2 {
        fill: #83a3cb;
      }

      .cls-3 {
        fill: #ccd6e7;
      }

      .cls-4 {
        fill: #97b0d4;
      }

      .cls-5 {
        fill: #a3b8d7;
      }

      .cls-6 {
        fill: #dae0ed;
      }

      .cls-7 {
        fill: #8faad1;
      }

      .cls-8 {
        fill: #174b7d;
      }

      .cls-9 {
        fill: #bdcbe1;
      }

      .cls-10 {
        fill: #7398c5;
      }
    </style>
  </defs>
  <g>
    <path class="cls-2" d="M106.18,425.01c.82-39.68,13.75-77.94,37.56-110.52-5.5-33.05-5.07-67.24,1.66-101.2,3.14-15.92,7.62-31.34,13.26-46.15-34.11,14.66-64.31,37.52-88.2,67.31-1.11,1.37-2.15,2.82-3.23,4.24-22.22,64.43-6.49,135.82,38.94,186.33"/>
    <path class="cls-10" d="M46.88,270.32c-1.45,2.66-2.82,5.39-4.14,8.09-.28.55-.55,1.09-.82,1.63-.86,1.81-1.66,3.62-2.47,5.44-.96,2.15-1.91,4.28-2.78,6.45-.22.51-.41,1.04-.63,1.55-13.68,34.41-18.86,71.89-14.72,109.77,3.93,35.96,15.98,69.18,34.15,97.98,9.19,13.56,19.43,26.42,30.59,38.48,6.16,6.17,12.66,12.12,19.62,17.7,18.01,14.45,37.62,25.95,58.4,34.27.28.12.56.23.84.31,2.62,1.04,5.24,2.05,7.89,2.98,1.32.47,2.66.88,3.99,1.33,1.65.55,3.33,1.11,5.02,1.64,1.51.47,3.06.88,4.6,1.33,1.56.41,3.11.9,4.66,1.29,1.29.36,2.62.61,3.9.93,1.87.47,3.73.93,5.61,1.33.77.17,1.56.29,2.36.45,5.3,1.09,10.68,2.01,16.09,2.71-61.11-29.06-104.38-87.69-111.8-155.59-.26-2.36-.42-4.7-.59-7.03-46.84-45.42-68.86-110.15-59.78-173.04"/>
    <path class="cls-1" d="M355.35,1.84c-6.17-.67-12.38-1.16-18.64-1.47-65.9,19.79-121.68,64.2-156.83,123.05,2.77-.65,5.54-1.27,8.32-1.84,2.8-.6,5.62-1.14,8.44-1.63C236.73,58.94,300.68,15.93,374.45,4.48c-6.31-1.06-12.67-1.96-19.1-2.64"/>
    <path class="cls-3" d="M476.36,347.03c-.84-6-1.91-11.97-3.19-17.9-1.25-5.72-2.73-11.38-4.4-17-7.83-10.51-16.68-20.14-26.34-28.83.32,2.92.58,5.82.78,8.76.21,2.94.37,5.9.44,8.86,1.19,45.48-13.15,90.82-42.46,127.34-29.45,36.7-70.65,60.96-116.42,69.43,23.14,12.99,48.43,22.39,75.17,27.65,16.27,3.23,32.89,4.84,49.33,4.84,4.19,0,8.35-.13,12.49-.33,2.23-2.52,4.4-5.09,6.53-7.73,40.78-50.83,56.39-114.49,48.08-175.09"/>
    <path class="cls-9" d="M256.69,494.63c-2.79-1.93-5.53-3.93-8.24-5.98-24.42-18.51-45.8-41.36-63.18-67.96-18.2-27.83-31.03-58.22-38.29-89.9-.63-2.69-1.22-5.39-1.74-8.1-.53-2.73-1.05-5.45-1.5-8.19-23.81,32.57-36.74,70.83-37.56,110.51-.06,3.02-.06,6.07.01,9.14.09,3.06.24,6.13.46,9.22,2.1,2.02,4.28,4.01,6.46,5.97,2.19,1.95,4.42,3.85,6.69,5.71.41.33.81.68,1.23,1.04,36.12,28.98,81.27,44.96,127.16,44.96,5.7,0,11.35-.23,16.95-.7-2.87-1.86-5.66-3.75-8.46-5.7"/>
    <path class="cls-8" d="M196.64,119.95c15.22-2.7,30.71-4.08,46.4-4.08,149.38,0,270.9,124.24,270.9,276.96,0,44.75-10.59,87.69-29.63,125.82,59.96-18.74,112.22-57.69,145.99-113.33l.91-1.51c6.86-26.29,10.51-53.95,10.51-82.53,0-158.95-115.8-291.26-267.27-316.82-73.77,11.47-137.74,54.47-177.82,115.49"/>
    <path class="cls-8" d="M6.8,257.17c19.62-35.75,46.85-66.65,80.11-90.72,28.34-20.46,59.79-34.93,92.97-43.02C215.03,64.57,270.82,20.15,336.72.37c-5.2-.24-10.41-.37-15.67-.37C167.49,0,36.68,110.04,6.8,257.17"/>
    <path class="cls-9" d="M419.57,224.55c-4.52-5.49-9.78-10.3-15-15.1,11.7,19.55,19.52,40.63,23.54,62.19,2.52,1.86,4.94,3.79,7.35,5.75,2.36,1.92,4.7,3.89,6.96,5.93-1.66-14.46-4.9-28.83-9.75-42.83l-13.09-15.92Z"/>
    <path class="cls-9" d="M6.8,257.17c-1.33,6.78-3.12,15.08-3.99,21.85-.95,7.05-1.65,14.09-2.13,21.11-2.05,31.27.54,62.05,7.25,91.58.26,1.13.5,2.24.77,3.39,3.01,12.58,6.77,24.96,11.24,37.03.32.88.67,1.75,1,2.66,10.8,28.38,22.86,47.66,30.72,59.83-36.05-60.74-41.44-134.78-15.6-201.14.19-.52.41-1.04.63-1.55.88-2.15,1.82-4.3,2.78-6.45.81-1.82,1.63-3.64,2.47-5.44.26-.54.52-1.09.81-1.63,4.02-8.32,8.53-16.42,13.58-24.28,3.42-5.29,7.07-10.43,10.92-15.46,1.08-1.41,2.11-2.85,3.24-4.24,23.87-29.77,54.07-52.65,88.18-67.29.99-2.55,2.04-5.09,3.08-7.63,1.08-2.6,2.19-5.16,3.34-7.72,2.01-4.43,4.11-8.79,6.31-13.07,1.34-2.6,2.74-5.2,4.15-7.74,1.42-2.55,2.85-5.07,4.34-7.55-33.18,8.09-64.63,22.57-92.97,43.02-33.26,24.07-60.48,54.97-80.11,90.72"/>
    <path class="cls-9" d="M174.48,161.11c-2.68.93-5.34,1.88-7.98,2.91-2.64,1.01-5.25,2.01-7.85,3.12-5.64,14.81-10.11,30.22-13.26,46.15-6.72,33.96-7.16,68.14-1.66,101.2,1.69-2.3,3.46-4.58,5.25-6.85.52-.65,1.04-1.34,1.57-2,1.22-1.48,2.48-2.91,3.74-4.35-3.44-28.11-2.46-56.94,3.23-85.61,3.74-19.03,9.5-37.28,16.96-54.57"/>
    <path class="cls-6" d="M359.92,525.34c-26.74-5.26-52.02-14.66-75.17-27.65-3.15.58-6.34,1.1-9.52,1.54-3.34.45-6.69.82-10.07,1.1,27.84,17.9,59.02,30.54,92.37,37.15,17.06,3.34,34.49,5.07,51.74,5.07h.5c2.1-2.07,4.17-4.16,6.2-6.32,1.97-2.07,3.89-4.21,5.79-6.37-4.15.22-8.3.35-12.48.35-16.46,0-33.06-1.63-49.35-4.85"/>
    <path class="cls-5" d="M154.3,301.3c33.38-38.49,79.62-62.71,130.94-68.32,7.46-.82,15.04-1.23,22.49-1.23,44.12,0,86.29,14.55,120.38,39.87-4.02-21.56-11.84-42.64-23.54-62.19-41.15-37.92-95.84-60.89-154.95-60.89-8.35,0-16.83.47-25.19,1.38-17.23,1.87-33.93,5.71-49.94,11.19-7.46,17.28-13.22,35.53-16.97,54.57-5.67,28.66-6.66,57.49-3.21,85.61"/>
    <path class="cls-4" d="M442.42,283.31c9.68,8.68,18.52,18.32,26.34,28.81-7.62-25.47-19.65-49.79-36.1-71.66,4.85,14.02,8.09,28.38,9.75,42.84"/>
    <path class="cls-7" d="M106.2,434.14c-.08-3.07-.09-6.11-.01-9.13-45.43-50.51-61.16-121.91-38.94-186.34-3.87,5.03-7.51,10.18-10.92,15.46-5.07,7.86-9.57,15.96-13.58,24.28,1.32-2.71,2.69-5.43,4.13-8.09-9.08,62.88,12.94,127.62,59.78,173.03-.23-3.08-.37-6.16-.46-9.22"/>
    <path class="cls-1" d="M622.16,432.82c-.44,1.27-.93,2.48-1.38,3.73,1.69-4.45,3.33-8.95,4.81-13.5,2.07-6.31,3.94-12.74,5.62-19.23l-.52.86c-34.91,56.99-86.42,95.24-146.36,113.97-1.32,2.61-2.66,5.2-4.05,7.78-1.34,2.5-2.73,4.97-4.15,7.42,54.36-14.3,110.75-54.36,146.03-101.02"/>
    <path class="cls-8" d="M476.12,533.84c-25.46,43.98-63.04,81.09-108.5,105.25,8.65-.96,17.67-2.89,26.25-4.74,23.3-5.33,45.58-13.13,66.55-23.18,46.75-22.76,89.37-57.69,120.8-101,17.06-23.5,21.2-30.17,39.54-73.62.52-1.2.95-2.47,1.38-3.74-35.28,46.67-91.65,86.73-146.03,101.02"/>
    <path class="cls-9" d="M467.81,535.89c-2.8.64-5.59,1.23-8.4,1.77-10.46,2.05-21.07,3.44-31.78,4.21-3,.2-5.99.37-9,.49-2.96.1-5.9.17-8.86.18-40.4,39.64-93.84,62.85-150.98,65.18-3.19.14-6.4.23-9.6.23-3.58,0-7.14-.09-10.7-.26-6.53-.31-13.02-.86-19.43-1.72.03.04.08.05.1.09-5.47-.73-10.87-1.69-16.21-2.79-.78-.15-1.59-.28-2.34-.46-1.88-.4-3.75-.84-5.61-1.32-1.29-.33-2.61-.59-3.92-.93-1.56-.4-3.1-.88-4.65-1.29-1.54-.45-3.08-.86-4.61-1.34-1.69-.51-3.35-1.09-5.01-1.63-1.34-.45-2.69-.86-3.99-1.33-2.66-.93-5.29-1.95-7.9-2.98-.27-.09-.56-.19-.84-.31-29.03-11.61-55.2-29.04-77.04-50.91,16.91,18.06,35.96,34.24,56.82,48.08.69.46,1.38.93,2.07,1.37,11.2,7.31,22.93,13.95,35.1,19.87.59.27,1.15.55,1.74.82,23.59,11.25,48.95,19.79,75.74,25.08,20.63,4.07,41.63,6.14,62.44,6.14,3.15,0,6.27-.09,9.4-.19,6.46-.17,12.84-.56,19.21-1.04,6.76-.47,11.07-.9,18.25-1.8,45.44-24.16,82.83-61.26,108.28-105.25-2.77.72-5.52,1.41-8.31,2.05"/>
    <path class="cls-4" d="M409.26,542.53c-17.24,0-34.66-1.72-51.73-5.07-33.35-6.61-64.53-19.24-92.38-37.14-5.59.47-11.25.7-16.95.7-45.89,0-91.04-15.98-127.16-44.97-.42-.35-.82-.7-1.23-1.02-2.28-1.87-4.51-3.78-6.69-5.72-2.19-1.96-4.37-3.93-6.46-5.97.17,2.33.33,4.67.6,7.04,7.42,67.91,50.68,126.54,111.8,155.58,6.41.86,12.9,1.41,19.43,1.72,3.56.17,7.12.26,10.7.26,3.2,0,6.41-.09,9.6-.23,57.14-2.33,110.57-25.54,150.98-65.18h-.51Z"/>
  </g>
  <g>
    <path class="cls-8" d="M724.89,199.65c0-1.71.85-2.56,2.56-2.56h30.47c2.05,0,3.41.86,4.1,2.56l44.04,99.34h1.02l43.27-99.34c.68-1.71,2.05-2.56,4.1-2.56h29.96c1.7,0,2.56.86,2.56,2.56v168.98c0,1.71-.86,2.56-2.56,2.56h-28.93c-1.71,0-2.56-.85-2.56-2.56v-98.06h-1.02l-32.26,73.48c-1.02,2.22-2.65,3.33-4.86,3.33h-17.67c-2.22,0-3.84-1.11-4.87-3.33l-32.26-73.48h-1.02v98.06c0,1.71-.86,2.56-2.56,2.56h-28.93c-1.71,0-2.56-.85-2.56-2.56v-168.98Z"/>
    <path class="cls-8" d="M967.1,199.65c.51-1.71,1.62-2.56,3.33-2.56h32.26c1.7,0,2.82.86,3.33,2.56l58.89,168.98c.51,1.71-.09,2.56-1.79,2.56h-33.28c-1.71,0-2.82-.85-3.33-2.56l-9.98-30.46h-60.94l-9.73,30.46c-.51,1.71-1.63,2.56-3.33,2.56h-33.54c-1.71,0-2.3-.85-1.79-2.56l59.91-168.98ZM1006.28,306.16l-19.71-60.94h-.77l-19.71,60.94h40.2Z"/>
    <path class="cls-8" d="M1085.14,199.65c0-1.71.85-2.56,2.56-2.56h30.73c1.87,0,3.33.86,4.35,2.56l61.45,109.58h1.28v-109.58c0-1.71.85-2.56,2.56-2.56h28.93c1.7,0,2.56.86,2.56,2.56v168.98c0,1.71-.86,2.56-2.56,2.56h-30.47c-1.88,0-3.33-.85-4.35-2.56l-61.71-109.32h-1.28v109.32c0,1.71-.86,2.56-2.56,2.56h-28.93c-1.71,0-2.56-.85-2.56-2.56v-168.98Z"/>
    <path class="cls-8" d="M1252.84,199.65c0-1.71.85-2.56,2.56-2.56h30.73c1.87,0,3.33.86,4.35,2.56l61.45,109.58h1.28v-109.58c0-1.71.85-2.56,2.56-2.56h28.93c1.71,0,2.56.86,2.56,2.56v168.98c0,1.71-.86,2.56-2.56,2.56h-30.47c-1.88,0-3.33-.85-4.35-2.56l-61.71-109.32h-1.28v109.32c0,1.71-.86,2.56-2.56,2.56h-28.93c-1.71,0-2.56-.85-2.56-2.56v-168.98Z"/>
    <path class="cls-8" d="M1467.4,199.65c.51-1.71,1.62-2.56,3.33-2.56h32.26c1.71,0,2.82.86,3.33,2.56l58.89,168.98c.51,1.71-.09,2.56-1.79,2.56h-33.28c-1.71,0-2.82-.85-3.33-2.56l-9.99-30.46h-60.94l-9.73,30.46c-.51,1.71-1.63,2.56-3.33,2.56h-33.54c-1.71,0-2.3-.85-1.79-2.56l59.91-168.98ZM1506.57,306.16l-19.71-60.94h-.77l-19.71,60.94h40.2Z"/>
    <path class="cls-8" d="M1585.43,199.65c0-1.71.85-2.56,2.56-2.56h32.52c1.71,0,2.56.86,2.56,2.56v168.98c0,1.71-.86,2.56-2.56,2.56h-32.52c-1.71,0-2.56-.85-2.56-2.56v-168.98Z"/>
  </g>
  <g>
    <path class="cls-8" d="M1741.74,370.35c-1.71,0-2.56-.85-2.56-2.56v-136.47c0-1.02-.51-1.53-1.54-1.53h-44.04c-1.71,0-2.56-.85-2.56-2.54v-28.21c0-1.69.85-2.54,2.56-2.54h128.79c1.7,0,2.56.85,2.56,2.54v28.21c0,1.69-.86,2.54-2.56,2.54h-44.04c-1.02,0-1.54.51-1.54,1.53v136.47c0,1.71-.86,2.56-2.56,2.56h-32.52Z"/>
    <path class="cls-8" d="M1898.44,373.17c-14.17,0-25.95-3.07-35.33-9.21-9.39-6.15-15.87-14.85-19.46-26.12-1.37-3.93-2.43-8.19-3.2-12.8-.77-4.61-1.15-10.15-1.15-16.64s.34-12.08,1.02-16.78c.68-4.69,1.7-9,3.07-12.92,3.59-11.27,10.02-19.93,19.33-25.99,9.3-6.06,20.61-9.09,33.92-9.09s25.3,3.08,34.44,9.22c9.13,6.15,15.49,14.68,19.08,25.6.68,2.05,1.28,4.22,1.79,6.53s.94,4.91,1.28,7.81c.34,2.91.6,6.28.77,10.12.17,3.84.25,8.41.25,13.7,0,1.71-.94,2.56-2.82,2.56h-75.02c-1.02,0-1.54.51-1.54,1.53.17,2.56.68,4.87,1.54,6.92,1.71,5.46,4.78,9.56,9.22,12.29,4.44,2.73,9.9,4.1,16.39,4.1,6.15,0,11.52-.98,16.13-2.95,4.61-1.96,8.7-4.65,12.29-8.07,1.54-1.19,2.73-1.19,3.59,0l16.9,15.88c1.36,1.2,1.45,2.39.26,3.58-5.98,6.32-13.4,11.36-22.28,15.11-8.88,3.75-19.04,5.63-30.47,5.63ZM1917.38,295.33c1.02,0,1.54-.51,1.54-1.53,0-1.88-.13-3.54-.38-4.99-.25-1.45-.56-2.86-.9-4.22-1.37-4.26-3.88-7.59-7.55-9.98s-8.06-3.59-13.18-3.59-9.52,1.2-13.19,3.59c-3.67,2.39-6.19,5.72-7.55,9.98-.35,1.37-.64,2.77-.9,4.22s-.38,3.12-.38,4.99c0,1.02.51,1.53,1.54,1.53h40.97Z"/>
    <path class="cls-8" d="M2031.58,373.17c-13.15,0-24.41-2.95-33.8-8.83-9.39-5.89-15.96-14.63-19.71-26.25-1.37-3.75-2.35-8.02-2.95-12.8s-.89-10.4-.89-16.89.3-12.12.89-16.9,1.58-9.05,2.95-12.8c3.75-11.61,10.33-20.35,19.71-26.25,9.39-5.89,20.65-8.84,33.8-8.84,10.75,0,20.14,2.18,28.16,6.53,8.02,4.35,14.25,9.94,18.69,16.77.85,1.37.68,2.56-.51,3.59l-22.27,14.6c-1.54,1.02-2.82.85-3.84-.51-2.73-3.75-5.59-6.48-8.58-8.19-2.99-1.71-6.7-2.56-11.14-2.56-4.78,0-8.83,1.11-12.16,3.33-3.33,2.22-5.68,5.55-7.04,9.99-.86,2.56-1.45,5.46-1.79,8.7-.34,3.24-.51,7.42-.51,12.55s.17,9.3.51,12.54c.34,3.24.94,6.15,1.79,8.71,1.36,4.44,3.71,7.76,7.04,9.98,3.33,2.23,7.38,3.33,12.16,3.33,4.44,0,8.15-.85,11.14-2.56,2.98-1.71,5.85-4.44,8.58-8.19,1.02-1.36,2.31-1.54,3.84-.51l22.27,14.6c1.19,1.02,1.36,2.22.51,3.58-4.44,6.83-10.67,12.42-18.69,16.77-8.03,4.35-17.41,6.53-28.16,6.53Z"/>
    <path class="cls-8" d="M2180.59,370.35c-1.71,0-2.56-.85-2.56-2.56v-71.18c0-6.82-1.58-12.29-4.74-16.38-3.16-4.1-7.98-6.15-14.47-6.15-6.14,0-10.92,2.05-14.34,6.15-3.42,4.1-5.12,9.56-5.12,16.38v71.18c0,1.71-.86,2.56-2.56,2.56h-30.73c-1.71,0-2.56-.85-2.56-2.56v-168.99c0-1.71.85-2.56,2.56-2.56h30.73c1.7,0,2.56.85,2.56,2.56v59.02h.26c2.9-3.89,6.95-7.19,12.16-9.89,5.2-2.71,11.82-4.06,19.84-4.06,6.82,0,12.89,1.11,18.18,3.32,5.29,2.22,9.73,5.37,13.31,9.45,3.59,4.09,6.27,8.95,8.06,14.56,1.79,5.63,2.69,11.84,2.69,18.66v77.93c0,1.71-.86,2.56-2.56,2.56h-30.73Z"/>
  </g>
  <g>
    <path class="cls-8" d="M2489.27,370.35c-1.71,0-2.56-.85-2.56-2.54v-8.87h-.25c-3.24,4.24-7.39,7.66-12.42,10.29-5.04,2.62-11.48,3.93-19.33,3.93-6.83,0-12.85-1.15-18.05-3.46-5.21-2.3-9.56-5.5-13.06-9.6-3.5-4.1-6.15-8.96-7.94-14.6-1.79-5.63-2.69-11.78-2.69-18.43v-78.09c0-1.71.85-2.56,2.56-2.56h30.72c1.71,0,2.56.86,2.56,2.57v71.37c0,6.68,1.58,12.11,4.74,16.3,3.16,4.19,7.89,6.29,14.21,6.29s10.84-2.05,14.08-6.16c3.24-4.1,4.86-9.58,4.86-16.43v-71.37c0-1.71.85-2.57,2.56-2.57h30.73c1.7,0,2.56.86,2.56,2.56v118.8c0,1.71-.86,2.56-2.56,2.56h-30.73Z"/>
    <path class="cls-8" d="M2623.43,373.17c-8.19,0-14.94-1.32-20.23-3.96-5.29-2.65-9.39-6.1-12.29-10.38h-.26v8.96c0,1.71-.86,2.56-2.56,2.56h-30.73c-1.71,0-2.56-.85-2.56-2.56v-168.99c0-1.71.85-2.56,2.56-2.56h30.73c1.7,0,2.56.85,2.56,2.56v59.15h.26c2.9-4.26,7-7.72,12.29-10.37,5.29-2.65,12.03-3.98,20.23-3.98,10.41,0,19.2,2.48,26.37,7.43,7.17,4.95,12.38,12.38,15.62,22.27,1.54,4.96,2.65,9.99,3.33,15.11.68,5.13,1.02,11.78,1.02,19.98s-.35,14.63-1.02,19.84c-.68,5.21-1.79,10.28-3.33,15.23-3.24,9.73-8.45,17.12-15.62,22.15-7.17,5.03-15.96,7.55-26.37,7.55ZM2611.91,342.96c9.9,0,16.3-4.44,19.2-13.31.85-2.39,1.45-5.16,1.79-8.33.34-3.16.51-7.46.51-12.92s-.17-9.77-.51-12.93c-.35-3.16-.94-5.92-1.79-8.32-2.73-8.88-9.13-13.32-19.2-13.32s-16.22,4.44-18.95,13.32c-.85,2.39-1.45,5.16-1.79,8.32-.34,3.16-.51,7.47-.51,12.93s.17,9.77.51,12.92c.34,3.17.94,5.94,1.79,8.33,2.9,8.87,9.22,13.31,18.95,13.31Z"/>
  </g>
  <rect class="cls-2" x="2237.12" y="196.25" width="37.63" height="174.1" rx="18.54" ry="18.54"/>
  <rect class="cls-2" x="2349.83" y="196.25" width="37.63" height="174.1" rx="18.54" ry="18.54"/>
  <rect class="cls-2" x="2293.47" y="245.78" width="37.63" height="69.59" rx="18.81" ry="18.81"/>
</svg>