<?xml version="1.0" encoding="UTF-8"?>
<svg id="Layer_2" data-name="Layer 2" xmlns="http://www.w3.org/2000/svg" viewBox="0 0 177.35 70.77">
  <defs>
    <style>
      .cls-1 {
        fill: #a32035;
      }

      .cls-2 {
        fill: #24272a;
      }
    </style>
  </defs>
  <g id="Layer_1-2" data-name="Layer 1">
    <g>
      <g>
        <path class="cls-1" d="M42.12,37.59h9.75L35.55.59l-8.18,3.79,5.7,12.87-2.66,6L20.21,0l-8.27,3.6,6.64,14.86s-.02.04-.03.06c-4.09,9.37-9.12,11.94-9.62,12.13-1.16.46-2.42.7-3.74.7-.4,0-.8-.02-1.19-.06L0,39.45c1.32.73,2.81,1.15,4.39,1.15,2.01,0,3.84-.66,5.36-1.76v.03s3.77-1.83,7.82-11.82c0,0,1.48-3.2,2.28-5.23l.08-.23,7.12,16.01h9.74l-5.01-11.27,2.66-5.99,7.68,17.25Z"/>
        <path class="cls-1" d="M177.35,58.72h-78.05v-16.46h78.05v16.46ZM100.38,57.63h75.88v-14.28h-75.88v14.28Z"/>
      </g>
      <g>
        <path class="cls-2" d="M12.98,46.16h1.53l2.41,4.11,2.38-4.11h1.53l.42,8.7h-1.6l-.29-6.03-2.09,3.55h-.77l-2.1-3.46-.29,5.94h-1.54l.42-8.7Z"/>
        <path class="cls-2" d="M28.19,46.16h1.7l3.3,8.7h-1.83l-.76-2.2h-3.23l-.76,2.2h-1.72l3.3-8.7ZM30.13,51.3l-1.15-3.38-1.16,3.38h2.31Z"/>
        <path class="cls-2" d="M36.89,46.16h2.88c.55,0,1.01.08,1.4.25.38.17.69.38.93.63.24.26.41.54.52.84.11.3.16.6.16.87,0,.55-.12,1.03-.36,1.46-.24.42-.61.76-1.1,1.01l2.01,3.64h-1.85l-1.76-3.43h-1.24v3.43h-1.58v-8.7ZM39.79,50.08c.42,0,.74-.12.97-.37.23-.24.35-.54.35-.89,0-.37-.12-.68-.37-.91-.24-.23-.56-.35-.95-.35h-1.32v2.52h1.32Z"/>
        <path class="cls-2" d="M47.24,46.16h2.88c.55,0,1.01.08,1.4.25.38.17.69.38.93.63.23.26.41.54.51.84.11.3.16.6.16.87,0,.55-.12,1.03-.36,1.46-.24.42-.61.76-1.1,1.01l2.01,3.64h-1.85l-1.76-3.43h-1.24v3.43h-1.58v-8.7ZM50.14,50.08c.42,0,.74-.12.97-.37.23-.24.34-.54.34-.89,0-.37-.12-.68-.37-.91-.24-.23-.56-.35-.95-.35h-1.32v2.52h1.32Z"/>
        <path class="cls-2" d="M57.58,46.16h1.65v8.7h-1.65v-8.7Z"/>
        <path class="cls-2" d="M67.98,55.1c-.64,0-1.23-.12-1.78-.36-.55-.24-1.03-.57-1.44-.99-.41-.42-.73-.91-.97-1.46-.24-.56-.35-1.15-.35-1.79s.12-1.23.35-1.79c.23-.56.55-1.04.96-1.45.4-.41.88-.74,1.43-.98.55-.24,1.15-.36,1.78-.36s1.23.12,1.77.36c.55.24,1.03.57,1.44.98.41.41.73.9.97,1.45.24.56.35,1.15.35,1.79s-.12,1.23-.35,1.79c-.24.56-.56,1.04-.97,1.46-.41.42-.89.75-1.44.99-.55.24-1.14.36-1.77.36ZM67.98,53.55c.43,0,.81-.08,1.16-.25.35-.17.64-.39.89-.67.24-.28.43-.61.56-.99.13-.37.2-.77.2-1.18s-.07-.81-.2-1.18c-.13-.37-.32-.69-.56-.97-.24-.28-.54-.5-.89-.66-.35-.16-.74-.24-1.16-.24s-.83.08-1.17.24c-.34.16-.64.38-.88.66-.25.28-.43.6-.56.97-.13.37-.2.76-.2,1.18s.07.8.2,1.18c.13.37.32.7.56.99.24.28.54.51.88.67.34.17.73.25,1.17.25Z"/>
        <path class="cls-2" d="M78.68,47.61h-2.95v-1.45h7.55v1.45h-2.95v7.26h-1.64v-7.26Z"/>
        <path class="cls-2" d="M89.73,47.61h-2.95v-1.45h7.54v1.45h-2.95v7.26h-1.64v-7.26Z"/>
        <path class="cls-2" d="M103.57,46.16h1.2l2.65,4.53,2.65-4.53h1.17l.41,8.7h-1.23l-.29-6.68-2.45,4.11h-.63l-2.42-4.06-.3,6.63h-1.17l.41-8.7Z"/>
        <path class="cls-2" d="M118.86,46.16h1.28l3.41,8.7h-1.4l-.9-2.43h-3.58l-.9,2.43h-1.32l3.41-8.7ZM120.87,51.38l-1.41-3.82-1.42,3.82h2.83Z"/>
        <path class="cls-2" d="M127.39,46.16h2.78c.56,0,1.03.08,1.41.23.38.15.69.35.93.59.24.24.41.51.52.82.11.3.16.61.16.93,0,.56-.13,1.05-.39,1.48-.26.43-.66.74-1.21.95l2.03,3.72h-1.41l-1.87-3.56h-1.75v3.56h-1.21v-8.7ZM130.28,50.25c.55,0,.96-.13,1.23-.4.27-.27.41-.63.41-1.08,0-.48-.15-.85-.44-1.11-.3-.27-.71-.4-1.23-.4h-1.65v3h1.67Z"/>
        <path class="cls-2" d="M143.76,54.58c-.3.16-.63.28-.99.37-.35.09-.72.14-1.1.14-.63,0-1.21-.12-1.76-.36-.54-.24-1.02-.56-1.42-.97-.4-.41-.71-.89-.94-1.45-.23-.56-.34-1.15-.34-1.79s.11-1.23.34-1.79c.23-.56.54-1.04.94-1.45.4-.41.87-.74,1.42-.98.54-.24,1.13-.36,1.76-.36s1.21.12,1.75.36c.54.24,1.02.57,1.42.98.4.41.71.9.94,1.45.23.56.34,1.15.34,1.79,0,.7-.14,1.35-.41,1.95-.27.6-.65,1.1-1.13,1.52l1.04,1.27-.77.65-1.09-1.33ZM141.91,52.29l.78-.65,1.11,1.38c.31-.3.56-.68.73-1.12.17-.44.26-.91.26-1.42,0-.47-.07-.91-.22-1.33-.15-.41-.36-.77-.63-1.08-.27-.31-.6-.55-.99-.74-.38-.18-.81-.27-1.29-.27s-.91.09-1.29.27c-.38.18-.71.43-.99.74-.27.31-.48.67-.63,1.08-.15.41-.22.85-.22,1.33s.07.91.22,1.32c.15.41.36.78.63,1.09.28.31.6.56.99.74.38.18.81.27,1.29.27s.92-.09,1.33-.29l-1.08-1.34Z"/>
        <path class="cls-2" d="M150.39,46.16h1.25v5.09c0,.39.04.75.11,1.08.07.33.19.61.36.84.17.23.4.42.68.54.28.13.64.19,1.08.19s.78-.06,1.06-.19c.28-.13.51-.31.68-.54.17-.23.29-.52.36-.84.07-.32.1-.68.1-1.08v-5.09h1.25v5.39c0,.49-.07.96-.21,1.39-.14.43-.35.8-.63,1.12-.28.32-.64.57-1.08.75-.43.18-.95.27-1.54.27s-1.1-.09-1.54-.27c-.44-.18-.8-.43-1.08-.75-.29-.32-.5-.69-.64-1.12-.14-.43-.21-.9-.21-1.39v-5.39Z"/>
        <path class="cls-2" d="M162.02,46.16h1.25v8.7h-1.25v-8.7Z"/>
        <path class="cls-2" d="M168.27,52.75c.12.14.26.28.41.42.15.14.32.27.51.38.19.11.4.2.64.27.24.07.49.1.77.1.58,0,1.02-.13,1.34-.39.32-.26.48-.61.48-1.06,0-.48-.18-.84-.55-1.08-.37-.24-.89-.43-1.58-.58-.37-.08-.71-.19-1.02-.33-.3-.14-.57-.31-.79-.52-.22-.21-.39-.45-.52-.72-.12-.27-.18-.58-.18-.93,0-.32.06-.63.18-.91.12-.29.3-.54.55-.76.24-.22.55-.39.91-.52.36-.13.79-.2,1.27-.2.43,0,.79.05,1.1.14.31.09.57.2.79.33.22.13.39.27.52.4.13.14.23.25.3.34l-.84.77c-.05-.06-.13-.14-.24-.24-.1-.1-.24-.2-.4-.29-.16-.09-.35-.18-.56-.24-.21-.06-.46-.1-.74-.1s-.52.04-.72.11c-.2.07-.37.17-.5.29-.13.12-.23.25-.29.4-.06.15-.09.3-.09.44,0,.22.05.4.14.55.09.15.22.29.4.4.17.12.39.22.65.3.26.08.55.16.88.24.32.08.64.18.95.31.31.13.59.3.83.51.24.21.44.48.58.78.14.31.21.69.21,1.13,0,.37-.08.72-.24,1.03-.16.31-.37.58-.65.82-.27.23-.6.41-.97.53-.37.13-.78.19-1.21.19-.41,0-.78-.05-1.12-.14-.33-.09-.64-.22-.91-.37-.27-.15-.51-.31-.72-.49-.2-.18-.37-.35-.5-.53l.89-.81Z"/>
        <g>
          <path class="cls-2" d="M20.13,69.02c-.1.16-.24.34-.44.54-.2.2-.44.39-.73.57-.29.18-.62.33-.99.45-.37.12-.79.18-1.24.18-.64,0-1.23-.11-1.76-.34-.53-.23-.99-.54-1.37-.95-.38-.4-.68-.88-.89-1.44-.21-.55-.32-1.15-.32-1.81s.11-1.23.32-1.79c.21-.56.51-1.04.89-1.46.38-.42.84-.75,1.38-.98.53-.24,1.13-.36,1.78-.36.46,0,.87.06,1.24.17.37.11.69.25.96.42.28.17.51.35.71.55.2.2.35.39.48.57l-.89.76c-.1-.15-.23-.3-.37-.46-.14-.16-.32-.31-.52-.44-.2-.13-.43-.24-.69-.33-.26-.09-.56-.13-.9-.13-.48,0-.91.09-1.28.27-.38.18-.7.43-.97.74-.27.31-.47.68-.61,1.1-.14.42-.21.86-.21,1.33s.07.91.22,1.32c.14.41.35.77.61,1.08.26.3.58.54.95.72.37.17.79.26,1.25.26.39,0,.73-.05,1.01-.15.28-.1.52-.22.72-.36.2-.14.36-.28.48-.42.13-.14.23-.26.32-.36l.88.73Z"/>
          <path class="cls-2" d="M24.22,61.84h1.25v8.71h-1.25v-8.71Z"/>
          <path class="cls-2" d="M32.52,62.94h-3.12v-1.1h7.48v1.1h-3.11v7.61h-1.25v-7.61Z"/>
          <path class="cls-2" d="M43.37,66.66l-3-4.82h1.4l2.27,3.72,2.27-3.72h1.35l-3.02,4.82v3.89h-1.26v-3.89Z"/>
          <path class="cls-2" d="M63.83,69.02c-.1.16-.24.34-.44.54s-.44.39-.73.57c-.29.18-.62.33-.99.45-.37.12-.79.18-1.24.18-.65,0-1.23-.11-1.76-.34-.53-.23-.99-.54-1.37-.95-.38-.4-.68-.88-.89-1.44-.21-.55-.32-1.15-.32-1.81s.11-1.23.32-1.79c.21-.56.51-1.04.89-1.46.38-.42.84-.75,1.38-.98.53-.24,1.13-.36,1.78-.36.46,0,.87.06,1.24.17.37.11.69.25.96.42.27.17.51.35.7.55.2.2.35.39.48.57l-.89.76c-.1-.15-.23-.3-.37-.46-.14-.16-.32-.31-.52-.44-.2-.13-.43-.24-.69-.33-.26-.09-.56-.13-.9-.13-.48,0-.91.09-1.29.27-.38.18-.7.43-.96.74-.27.31-.47.68-.61,1.1-.14.42-.21.86-.21,1.33s.07.91.22,1.32c.14.41.35.77.61,1.08.26.3.58.54.95.72.37.17.79.26,1.25.26.39,0,.73-.05,1.01-.15.28-.1.52-.22.72-.36.2-.14.36-.28.48-.42.13-.14.23-.26.32-.36l.87.73Z"/>
          <path class="cls-2" d="M67.89,61.84h5.48v1.11h-4.23v2.53h3.18v1.12h-3.18v2.82h4.54v1.12h-5.8v-8.71Z"/>
          <path class="cls-2" d="M77.75,61.84h1.27l4.75,6.8v-6.8h1.23v8.71h-1.25l-4.76-6.81v6.81h-1.23v-8.71Z"/>
          <path class="cls-2" d="M92.05,62.94h-3.12v-1.1h7.48v1.1h-3.11v7.61h-1.25v-7.61Z"/>
          <path class="cls-2" d="M100.34,61.84h5.48v1.11h-4.23v2.53h3.18v1.12h-3.18v2.82h4.54v1.12h-5.8v-8.71Z"/>
          <path class="cls-2" d="M110.2,61.84h2.78c.56,0,1.03.08,1.41.23.38.15.69.35.93.59.24.24.41.51.52.82.11.3.16.61.16.93,0,.56-.13,1.05-.39,1.47-.26.43-.67.74-1.21.95l2.04,3.72h-1.41l-1.87-3.56h-1.75v3.56h-1.21v-8.71ZM113.08,65.93c.55,0,.96-.13,1.23-.4.27-.27.41-.63.41-1.08,0-.48-.15-.85-.44-1.12-.3-.27-.7-.4-1.23-.4h-1.64v3h1.67Z"/>
          <path class="cls-2" d="M125.56,61.84h2.91c.69,0,1.32.09,1.9.25.58.17,1.08.44,1.49.8.42.36.74.82.98,1.36.24.55.35,1.2.35,1.96s-.12,1.37-.35,1.91c-.23.54-.56,1-.98,1.36-.42.36-.92.63-1.5.8-.58.17-1.22.26-1.91.26h-2.9v-8.71ZM128.43,69.43c1.09,0,1.93-.27,2.54-.8.61-.54.91-1.33.91-2.38s-.29-1.87-.87-2.43c-.58-.56-1.45-.84-2.61-.84h-1.58v6.46h1.62Z"/>
          <path class="cls-2" d="M141.58,70.77c-.63,0-1.21-.12-1.75-.36-.54-.24-1.01-.57-1.41-.98-.4-.41-.71-.9-.94-1.45-.23-.56-.34-1.15-.34-1.79s.11-1.23.34-1.78c.23-.55.54-1.04.93-1.45.4-.41.87-.74,1.41-.98.54-.24,1.13-.36,1.76-.36s1.21.12,1.76.36c.54.24,1.02.57,1.42.98.4.41.71.9.94,1.45.23.55.34,1.15.34,1.78s-.11,1.23-.34,1.79c-.23.56-.54,1.04-.94,1.45-.4.41-.87.74-1.42.98-.54.24-1.13.36-1.76.36ZM141.58,69.6c.48,0,.91-.09,1.3-.27.39-.18.72-.43.99-.74.28-.31.48-.68.63-1.09.15-.41.22-.85.22-1.31s-.08-.91-.22-1.33c-.15-.41-.36-.78-.63-1.09-.27-.31-.6-.56-.99-.74-.39-.18-.82-.27-1.3-.27s-.91.09-1.29.27c-.38.18-.71.42-.99.74-.27.31-.49.68-.63,1.09-.15.41-.22.85-.22,1.33s.07.9.22,1.31c.15.41.36.78.63,1.09.27.31.6.56.99.74.38.18.81.27,1.29.27Z"/>
          <path class="cls-2" d="M150.36,61.84h1.25v3.64h4.76v-3.64h1.25v8.71h-1.25v-3.94h-4.76v3.94h-1.25v-8.71Z"/>
          <path class="cls-2" d="M164.87,61.84h1.28l3.41,8.71h-1.4l-.9-2.43h-3.58l-.9,2.43h-1.32l3.41-8.71ZM166.88,67.06l-1.41-3.82-1.42,3.82h2.83Z"/>
        </g>
      </g>
    </g>
  </g>
</svg>