<?xml version="1.0" encoding="UTF-8"?>
<svg id="Layer_2" data-name="Layer 2" xmlns="http://www.w3.org/2000/svg" viewBox="0 0 183.9 85.04">
  <defs>
    <style>
      .cls-1 {
        fill: #dd592b;
      }

      .cls-2 {
        fill: #572d83;
      }
    </style>
  </defs>
  <g id="Dimensions">
    <g>
      <path class="cls-1" d="M147.9,1.56c-1.22.05-2.33.08-3.41.1L145.69,0h3.33M137.61,4.9l1.49-2.07c-3.47.03-6.62.06-9.58-.05l-1.49,2.07c1.92.08,5.6.19,9.58.06M119.93,10.3l-1.73,2.43c1.71.06,4.45.01,7.64-.13l1.67-2.34c-2.75.1-6.42.06-7.58.04M128.16,13.79l-1.65,2.31c4-.17,7.72-.72,11.35-1.65l1.7-2.37c-3.85.91-7.67,1.43-11.4,1.71M144.42,0h-4.07s-1.21,1.68-1.21,1.68h4.08S144.42,0,144.42,0ZM138.54,0h-4.17s-1.19,1.66-1.19,1.66c1.04.02,2.36.02,4.15.03L138.54,0ZM139.49,4.82c1.17-.06,2.36-.15,3.62-.25l1.34-1.86c-1.18.04-2.33.07-3.51.1l-1.45,2.01ZM139.44,14c5.52-1.62,9.58-3.59,13.33-5.67l1.51-1.17c-6,2.46-10.37,3.79-13.18,4.53l-1.66,2.31ZM136.14,9.62c-2.25.27-4.53.46-6.77.57l-1.65,2.31c2.34-.15,4.67-.41,6.88-.74l1.53-2.15ZM149.91,0l-1.1,1.52c4.51-.2,9.44-.61,14.65-1.2.22-.12.44-.23.67-.33h-14.22ZM116.35,5.66l-1.98,2.88c20.83,1.53,35.48-2.11,44.73-5.14.25-.19.83-.55,1.05-.71-9.5,2.29-20.72,4.55-43.8,2.98M144.48,4.42c4.93-.51,10.04-1.25,16.92-2.72.24-.17.45-.33.66-.47-6.1.71-9.65,1.12-16.3,1.43l-1.27,1.76ZM136.05,11.51c8.21-1.42,15.73-4.07,20.48-6.1l.7-.56c-7.09,2.1-13.66,3.77-19.69,4.57l-1.49,2.09Z"/>
      <path class="cls-2" d="M36.49,62.3l9.46,22.33h-7.86s-5.42-12.8-5.42-12.8l-6.55,11.39c-.65,1.12-1.84,1.82-3.14,1.82h0c-1.3,0-2.49-.69-3.14-1.82l-6.55-11.39-5.42,12.8H0s9.46-22.33,9.46-22.33c.54-1.26,1.74-2.12,3.11-2.2,1.37-.08,2.67.62,3.36,1.81l7.04,12.24,7.04-12.24c.69-1.19,1.99-1.89,3.36-1.81,1.37.08,2.58.94,3.11,2.2M164.99,60.1c-1.19,0-2.3.58-2.98,1.56l-14.1,20.39v-21.56s-7.24,0-7.24,0v8.85s-14.48,0-14.48,0v-8.85s-7.24,0-7.24,0v21.55s-14.1-20.39-14.1-20.39c-.68-.98-1.79-1.56-2.98-1.56s-2.3.58-2.98,1.56l-15.93,22.97h25.09s-4.46-6.43-4.46-6.43h-7.38s5.66-8.11,5.66-8.11l10.06,14.54h14.26s0-8.85,0-8.85h14.48s0,8.85,0,8.85h14.26s10.06-14.54,10.06-14.54l5.65,8.11h-7.37s-4.46,6.43-4.46,6.43h25.09s-15.93-22.97-15.93-22.97c-.68-.98-1.79-1.56-2.98-1.56M48.37,60.5v24.14s7.24,0,7.24,0v-24.14s-7.24,0-7.24,0ZM66.07,78.2v-17.7s-7.24,0-7.24,0v24.14s20.29,0,20.29,0l4.46-6.43h-17.51ZM154.93,52.45l10.06-14.54,5.65,8.11h-7.37s-4.46,6.44-4.46,6.44h25.08s-15.93-22.97-15.93-22.97c-.68-.98-1.79-1.56-2.98-1.56s-2.3.58-2.98,1.56l-11.44,16.54h-31.22s0-17.7,0-17.7h-7.24s0,17.7,0,17.7h-17.51s4.46,6.44,4.46,6.44h55.87ZM106.98,42.81v-14.5s-7.24,0-7.24,0v14.5s7.24,0,7.24,0ZM20.63,46.02h-7.38s5.66-8.11,5.66-8.11l10.06,14.54h66.22s-15.93-22.97-15.93-22.97c-.68-.98-1.79-1.56-2.98-1.56s-2.3.58-2.98,1.56l-8.12,11.75h8.8s2.29-3.32,2.29-3.32l5.66,8.11h-48.61s-11.44-16.54-11.44-16.54c-.68-.98-1.79-1.56-2.98-1.56s-2.3.58-2.98,1.56L0,52.45h25.08s-4.46-6.44-4.46-6.44Z"/>
    </g>
  </g>
</svg>