<?xml version="1.0" encoding="UTF-8"?>
<svg id="Layer_2" data-name="Layer 2" xmlns="http://www.w3.org/2000/svg" viewBox="0 0 241.51 121.74">
  <defs>
    <style>
      .cls-1 {
        fill: #3897b6;
      }

      .cls-2 {
        fill: #fff;
      }

      .cls-3 {
        fill: #231f20;
      }
    </style>
  </defs>
  <g id="Layer_1-2" data-name="Layer 1">
    <path class="cls-3" d="M70.8,53.67c-.01-.2-.03-.36-.04-.56l-.02-.42-.28.32c-.37.42-.85.92-1.34,1.08l-.13.04.11,1.71.46-.05c-.03.95-.29,1.77-2.19,1.77h-1.17c-.8,0-1.32-.5-1.57-1.53-.42-2.02-1.7-3.18-2.22-3.4-.12-.05-.23,0-.27.08l-.33,1.77v.03c.02.09.05.12.07.15l.04.04h.05c.2.06,1.84,1.28,2.05,3.13-.28,1.33-1.03,2.2-1.74,2.88-.84.82-1.87,1.37-3.23,1.74-.31.08-1.42.27-2.26.27h-.08s-.12.15-.12.15l.09.18.32.08c.72.15,2.1.26,2.33.27.05,0,.09,0,.14,0,.64,0,1.19-.07,1.42-.11.74-.14,1.28-.39,1.49-.52.72-.46,1.93-1.59,2.3-4.07.38.39.9.6,1.54.6h1.03c1.31,0,2.25-.31,2.86-.95.56-.59.83-1.47.8-2.61-.04-1.11-.08-1.62-.11-2.03"/>
    <path class="cls-3" d="M68.69,60.2l-.63.58c-.2.21-.39.42-.48.52l-.08.15.5.54c.17.18.36.38.53.55l.26.22.06.04h.11l.35-.29c.2-.19.4-.39.56-.58l.22-.28-1.06-1.15-.34-.29Z"/>
    <path class="cls-3" d="M67.16,61.13c-.22-.24-.46-.49-.66-.68l-.32-.28-.65.57c-.22.22-.4.43-.48.54l-.07.13.35.38c.18.2.43.46.67.7l.25.21.07.04h.11l.35-.29c.18-.17.4-.39.56-.57l.24-.31-.42-.46h0Z"/>
    <path class="cls-3" d="M100.84,49.08l.26.21.07.04h.11l.41-.35c.17-.17.35-.35.5-.52l.22-.28-1.06-1.15-.34-.29-.63.58c-.18.18-.34.36-.44.47l-.12.19.54.59c.16.17.33.35.49.51"/>
    <path class="cls-3" d="M98.31,49.04l.25.22.07.04h.11l.35-.29c.18-.17.4-.39.56-.57l.24-.31-.43-.47c-.2-.21-.45-.47-.66-.67l-.32-.28-.64.57c-.22.22-.4.43-.48.54l-.07.14.35.38c.18.2.43.46.67.7"/>
    <path class="cls-3" d="M112.76,54.63c-.09-3.49-.14-5.41-.34-8.82l-.03-.45-.28.35c-.42.53-.84,1.02-1.42,1.2l-.12.04.08,2.65.67-.07.21,5.63c0,1.28-.19,2.34-2.46,2.38h-.12c-.71,0-1.27-.54-1.41-1.35,0-.16.02-.32,0-.5-.37-6.81-.49-8.62-.54-9.39-.02-.24-.02-.36-.03-.51l-.02-.43-.28.32c-.16.19-.97,1.14-.94,1.44l.05,1.16c.12,1.2.52,7.28.39,7.9-.21.94-.71,1.36-1.62,1.36h-.5c-.71,0-1.27-.54-1.41-1.34,0-.16.02-.33,0-.51-.05-3-.09-3.77-.13-4.29,0-.12-.01-.22-.02-.33l-.02-.42-.28.32c-.33.38-.84.92-1.34,1.08l-.13.04.11,1.71.48-.06c.16,1.73,0,2.8-.48,3.34-.27.31-.66.46-1.2.46h-.53c-1.06,0-1.67-.48-1.92-1.5.09-.3.15-.61.18-.9v-.11c0-.47-.06-1.02-.42-1.65-.15-.26-.49-.75-1.02-1.13-.58-.42-1.17-.63-1.81-.63h-.2c-.98,0-2.07.39-3.24,1.17-.86.57-1.6,1.24-2.19,1.78l-.85.77c-.11.1-.2.19-.25.25-.23.28-.36.55-.36.76,0,.12.03.21.12.29l.11.07.13-.04.06-.04c.63-.6,1.63-1.46,2.8-2.16,1.1-.64,2.1-.97,2.98-.97h.09c.67,0,1.35.24,1.92.67.53.4.87.94.98,1.53v.08c0,.1-.04.2-.13.3-.07.09-.16.18-.3.27-.23.16-.56.32-1.01.51-1.09.44-2.71.75-4.45.84-1.23.06-3.43-.05-4.1-.62-.05-.04-.12-.13-.2-.26.03-.2.05-.42.06-.66,0-.04,0-.1-.42-1.12-.07-.15-.17-.17-.23-.17-.04,0-.15.03-.19.19-.11.46-.4,1.48-.5,1.67-.44.81-1.73.82-2.61.81h-.16c-1.52-.05-2.54-.43-3.1-1.14l-.1-.17c-.1-.51-.24-1.03-.41-1.56-.29-.83-.65-1.49-1.09-1.97-.36-.38-.74-.62-1.17-.75-.44-.12-.73-.07-1.09.1-.22.1-.44.25-.72.47-.38.32-.74.79-1.02,1.32-.28.53-.48,1.12-.56,1.66-.03.27-.07.58-.07.85,0,.75.2,1.75,1.18,2.28.54.29,1.1.25,1.64.21.57-.04,1.11-.08,1.59.27.07.05.16.05.23.01.15-.09.17-.35.15-.55-.04-.5-.31-1.18-.97-1.44-.2-.08-.51-.08-.91-.09-.76-.01-1.8-.03-2.14-.65-.08-.4.12-1,.17-1.09.04-.1.12-.23.23-.4.25-.36.52-.63.82-.81.24-.14.5-.22.76-.22h.11c.35,0,.66.28.9.53.74.75,1.77,3.95,1.39,4.72-.36.66-.85,1.25-1.55,1.87-.93.84-2.02,1.37-3.52,1.72-.36.09-1.53.23-2.41.18h-.12s-.08.22-.08.22l.08.08.05.03c.07.04.22.07.28.09.76.19,2.21.36,2.46.38.15,0,.31,0,.45,0,.51,0,.95-.03,1.21-.06.87-.13,1.43-.38,1.59-.49.81-.47,1.9-1.45,2.45-3.49.05-.15.1-.32.12-.5.08-.38.12-.76.13-1.17.87,1.02,2.33,1.2,2.87,1.24h.51c1.22.04,2.61.08,3.34-1.29,0,0,0-.02.01-.03.21.4.58.89,1.21,1.16.59.24,2.09.32,2.47.32,2.64-.02,4.59-.4,5.93-1.17.54-.32.98-.68,1.3-1.07.18.92.76,2.08,2.52,2.08h.39c1.14,0,2.05-.44,2.58-1.24.36.81,1.03,1.24,1.95,1.24h.36c1.14,0,2.05-.44,2.58-1.24.36.81,1.03,1.24,1.95,1.24h.36v-.02c1.16-.09,3.47-.69,3.47-4.04v-.58Z"/>
    <path class="cls-3" d="M2.94,25.09l.24.21.1.06h.17l.38-.3c.19-.17.4-.39.55-.57l.19-.24.31.34c.17.18.35.38.52.54l.25.21.09.06h.17l.38-.31c.18-.18.39-.38.56-.57l.26-.34-1.09-1.19-.39-.34-.68.62c-.2.2-.38.4-.47.51l-.05.08-.22-.25c-.2-.21-.44-.47-.65-.66l-.37-.32-.7.61c-.2.21-.39.41-.48.53l-.11.2.4.43c.2.22.45.48.66.68"/>
    <path class="cls-3" d="M25.34,35.01l.51.06,1.33-1.79-1.62-.19c-.47-.04-.84-.08-1.18-.14-1.43-.24-2.37-.69-2.96-1-.31-.16-.6-.33-.87-.49-.38-.22-.75-.44-1.13-.61-.36-.15-.69-.25-1.01-.31-.64-.11-1.26-.06-1.86.15-.45.15-.87.5-1.2.99-.28.4-.49.92-.58,1.42-.03.24-.04.42-.02.56.03.24.28.5.5.54.34.06.62-.07.8-.4l.09-.31-.02-.04c-.01-.16-.08-.42-.38-.57.22-.16.44-.27.69-.34.29-.08.63-.1,1.1-.07.19,0,.37.03.55.07.58.1,1.09.25,1.6.47.53.22,1.13.45,1.59.62-1,.33-2.69.98-3.52,1.83l-4.23-.02h0s-4.05,0-4.05,0h-.54c-.7,0-1.18-.03-1.51-.37-.15-.18-.24-.46-.31-.74-.07-.32-.15-.71-.2-1.09-.09-.73-.13-1.53-.14-1.84-.03-.96-.06-1.64-.08-2.32-.03-.68-.06-1.35-.08-2.29l-.02-.58-.42.39c-.37.35-.68.67-.96,1l-.07.08.07.96h0c-.41.23-.81.43-1.2.62-.52.26-1.02.5-1.48.8-.67.46-1.43,1.1-1.93,2.43-.08.16-.3,1.27-.29,1.51.02.83.24,1.47.66,1.91.37.38.86.58,1.42.58,1.16,0,2.41-.85,2.91-1.98l.04-.1-.18-.53-.26.12c-.54.26-1.1.39-1.63.39s-.99-.12-1.33-.36c-.35-.23-.55-.62-.56-1.07.55-1.36,2.31-2.21,3.95-2.86v.02s.04.27.14,1.73c.08,1.16.26,3.21.56,3.91h0c.45,1.04,1.11,1.54,2.02,1.54h10.37c.21,0,.37-.19.62-.59.88-.96,3.77-1.76,4.5-1.8.6-.04,1.23.04,1.8.11"/>
    <path class="cls-3" d="M29.65,36.4c.55.3,1.1.25,1.64.22.56-.04,1.04-.08,1.48.25l.18.1.14-.08c.15-.09.22-.3.19-.63-.04-.52-.32-1.22-1-1.48-.21-.08-.52-.08-.91-.09-.71,0-1.67-.02-1.99-.57-.06-.33.1-.86.16-.98.04-.09.11-.21.21-.37.23-.34.48-.59.76-.76.22-.13.45-.2.69-.2h.11c.24,0,.48.15.8.48.74.76,1.65,3.81,1.33,4.46-.34.63-.81,1.19-1.48,1.79-.89.8-1.93,1.31-3.37,1.64-.34.08-1.46.21-2.32.17h-.18s-.13.34-.13.34l.12.13.07.05c.07.04.2.07.29.09.76.19,2.19.35,2.4.37.15,0,.31,0,.45,0,.46,0,.87-.03,1.17-.06.85-.13,1.41-.38,1.58-.48.8-.46,1.87-1.44,2.42-3.44.05-.15.09-.32.12-.49.36-1.73-.11-3.52-.43-4.43-.28-.82-.64-1.47-1.08-1.94-.36-.38-.74-.63-1.18-.76-.44-.12-.76-.07-1.12.1-.22.1-.45.25-.72.47-.37.31-.73.78-1.01,1.31-.28.53-.48,1.11-.55,1.64-.03.24-.06.55-.06.84,0,.75.2,1.76,1.19,2.3"/>
    <path class="cls-3" d="M35.96,37.02c.07.1.16.16.22.15.55.11,1.42.12,1.88.12h.66c.3,0,.63,0,.97,0,.94,0,1.88,0,2.19-.02.17-.02.64-.39.93-.63.38.43.93.65,1.6.65h.45v-.03c2.13-.18,3.41-1.65,3.41-4.01v-.49c-.1-3.41-.15-5.29-.35-8.62l-.04-.69-.42.54c-.4.5-.8.97-1.33,1.13l-.19.06.09,2.76.65-.08.2,5.36c0,1.23-.17,2.17-2.3,2.21-.02,0-.03,0-.04,0h-.12c-.69,0-1.09-.4-1.33-1.32-.23-1.08-.88-2.64-2.63-3.95-.49-.37-.87-.56-1.19-.59l-.27.07c-.08.04-.18.1-.28.18-.19.14-.4.32-.56.49-.06.06-.11.13-.18.22l-.2.26.29.15c1.08.53,1.91,1.13,2.49,1.78.5.56,1.25,2.06,1.42,2.73l-5.15-.02-.16-.02c-.08,0-.18-.02-.27-.03-.09-.02-.16-.04-.23-.07l-.33-.15-.04.37c-.02.17-.04.35-.04.54s.02.37.05.55c.03.14.08.33.16.41"/>
    <path class="cls-3" d="M50.16,27.89l.6-.03.3,9.16c0,.13.08.26.2.32.05.02.1.04.15.04.08,0,.18-.03.28-.09.25-.15.6-.54.61-.92,0-.12-.1-11.96-.37-12.25l-.08-.08h-.23l-.08.09c-.28.32-.86.86-1.22.92l-.2.03v.21c-.03.26.02,2.11.03,2.33v.27Z"/>
    <path class="cls-3" d="M62.5,33.38l.24.21.1.06h.1l.14-.04.32-.27c.18-.18.4-.39.54-.56l.28-.34-1.1-1.2-.39-.33-.68.62c-.21.21-.4.42-.48.52l-.12.21.54.58c.17.18.35.38.52.54"/>
    <path class="cls-3" d="M60.19,39.02c.49.63,1,.92,1.19,1.01.54.27,1.02.38,1.2.42l.1-.25-.06.26h0c.24.05.52.08.82.08,1.42,0,2.67-.67,3.28-1.07,1.08-.69,1.71-1.93,1.94-2.88.1-.58.16-1.37.16-1.96,0-.24,0-.57-.06-.8-.07-.45-.29-1.57-.76-2.25l-.13-.18c-.16-.23-.32-.46-.47-.65-.23-.29-.44-.51-.64-.63-.08-.05-.16-.08-.24-.11l-.28-.08-.36,2.14.2.08c.17.07.34.18.51.37.19.21.37.48.55.83.32.63.56,1.37.61,1.92-.04.37-.18.8-.4,1.21-.26.46-.59.84-.95,1.12-.87.64-1.91,1-2.94,1-.31,0-.59-.03-.83-.09-.29-.06-.74-.19-1.18-.46-.43-.25-.78-.58-1-.97-.22-.4-.34-.89-.34-1.41,0-.39.07-.79.18-1.12.06-.15.07-.27.07-.36,0-.06,0-.13-.04-.2l-.14-.16h-.1c-.09,0-.19.04-.3.14-.11.12-.19.26-.24.41-.21.55-.32,1.42-.32,1.95,0,.12,0,.24.02.33.1.9.41,1.69.92,2.35"/>
    <path class="cls-3" d="M70.22,27.27l.53-.03.29,7.36h0c.13,1.84,1.13,2.69,3.16,2.69.03,0,.06,0,.1,0h5.56c.21,0,.37-.19.62-.59.88-.96,3.77-1.76,4.5-1.8.6-.04,1.24.04,1.8.11l.51.06,1.33-1.79-1.62-.19c-.47-.04-.84-.08-1.18-.14-1.43-.24-2.37-.69-2.96-1-.31-.16-.6-.33-.87-.49-.38-.22-.75-.44-1.14-.61-.36-.15-.69-.25-1.01-.31-.64-.11-1.26-.06-1.86.15-.45.15-.87.5-1.2.99-.28.4-.49.92-.58,1.42-.03.24-.04.42-.02.56.03.24.28.5.5.54.34.06.62-.07.8-.4l.09-.31-.02-.04c-.01-.16-.08-.42-.38-.57.22-.16.44-.27.69-.34.29-.08.63-.1,1.1-.07.19,0,.37.03.55.07.58.1,1.09.25,1.6.47.53.22,1.13.45,1.59.62-1,.33-2.69.98-3.52,1.83l-4.24-.02h0s-.26,0-.26,0h-.13c-1.84,0-1.97-.54-2.09-1.02-.12-.41-.22-4.45-.27-6.17-.01-.54-.02-.97-.03-1.17-.05-1.61-.11-2.92-.13-3.51l-.03-.65-.42.49c-.13.15-.27.31-.44.46-.29.28-.59.46-.89.55l-.2.06.1,2.54.07.26Z"/>
    <path class="cls-3" d="M79.49,38.71l-.68.62c-.21.21-.4.42-.48.52l-.12.21.54.58c.17.18.35.38.52.54l.24.21.1.06h.19l.37-.31c.18-.18.39-.38.54-.56l.28-.34-1.1-1.2-.39-.33Z"/>
    <path class="cls-3" d="M111.01,30.07c-.24-.18-.51-.32-.62-.36-.38-.15-.79-.1-.88-.06-.99.23-1.85,1.22-2.4,2.79-.02.06-.04.13-.07.23-.02.04-.03.1-.05.16-.1.39-.4,1.58-.78,2-.48.48-.92.58-1.46.59,0,0,0,0,0,0l-2.79.03h-.11c.37-.37.68-.8.87-1.26.55-1.29.54-3.03-.02-3.95-.24-.4-.58-.62-.97-.64-.53,0-1.04.21-1.55.69-1.12,1.06-2.05,3.27-2.18,5.13h-2.2c-.73,0-1.19-.46-1.42-1.4v-.04c-.44-2-1.68-3.11-2.22-3.34l-.26-.07-.12.18-.34,1.78v.05c.03.09.05.15.1.19l.05.06.08.02c.23.07,1.72,1.24,1.92,2.92-.27,1.25-.98,2.08-1.65,2.73-.81.78-1.79,1.31-3.09,1.66-.3.08-1.35.25-2.17.25h-.11s-.2.21-.2.21l.13.29.37.09c.71.15,2.05.25,2.27.26.04,0,.09,0,.13,0,.63,0,1.17-.07,1.39-.1.9-.17,1.42-.48,1.47-.52.69-.44,1.85-1.51,2.25-3.83.37.32.85.48,1.42.48h.45c.52,0,1.08-.02,1.59-.04h.08c-.08,2,.42,4.79,2.18,5.02.05,0,.11,0,.16,0,.33,0,.7-.11,1.18-.34.86-.41,1.77-1.46,2.17-2.48.18-.48.29-.91.33-1.27.04-.33.03-.62-.02-.91h1.18v-.02c2-.2,2.5-1.68,2.95-3l.09-.25c.7-2.16,1.88-2.31,1.85-2.32h.04s.05.01.05.01c.33-.03.77.2,1.12.54.24.23.64.73.65,1.46-.01.32-.13.56-.35.73-.74.58-2.47.34-3.08.2l-.24-.06-.07.24s-.04.15-.05.25v.07s.02.07.02.07c.32.72,1.55,1.45,2.72,1.37.94-.08,1.61-.69,1.87-1.7.03-.11.1-.46.11-.56.11-1.01-.26-3.06-1.74-4.23M100.98,36.86c.02.21.15.36.35.4l.15.03c.26.05.48.1.68.21.3.16.78.52.7,1.14-.01.14-.05.28-.12.46-.09.17-.31.45-.67.73-.45.34-.85.48-1.22.44-.73-.21-1.05-.75-1.3-1.5-.17-.52-.29-1.12-.34-1.66.72-.21,1.55-.67,2.25-1.28-.26.3-.51.74-.49,1.03M101.63,33.48h0c-.34.77-1.29,1.45-2.41,1.75-.07-1.13.61-2.25,1.25-2.91.43-.44.74-.56.78-.57.35.33.57,1.33.39,1.72"/>
    <path class="cls-3" d="M0,49.47h3.88c3.46,0,5.28,1.56,5.28,4.97s-2.15,5.3-5.38,5.3H0v-10.27ZM3.73,57.98c1.15,0,1.96-.26,2.54-.63.42-.65.69-1.68.69-2.85,0-2.05-1.05-3.26-2.9-3.26h-1.9v6.75h1.58Z"/>
    <path class="cls-3" d="M12.19,54.7c0-3.21,1.88-5.46,5.25-5.46s5.12,2.05,5.12,5.3c0,3.01-1.68,5.43-5.27,5.43s-5.11-2.46-5.11-5.26M17.36,58.15c.91,0,1.88-.37,2.31-.8.42-.65.59-1.82.59-2.66,0-1.94-.94-3.65-2.91-3.65-.86,0-1.79.34-2.23.75-.43.65-.64,1.87-.64,2.79,0,1.86.88,3.57,2.87,3.57"/>
    <polygon class="cls-3" points="32.07 55.61 27.84 55.61 27.84 59.73 25.59 59.73 25.59 49.47 27.84 49.47 27.84 53.85 32.07 53.85 32.07 49.47 34.32 49.47 34.32 59.73 32.07 59.73 32.07 55.61"/>
    <path class="cls-3" d="M41.11,49.47h2.75l3.77,10.27h-2.38l-.69-2.04h-4.17l-.69,2.04h-2.36l3.77-10.27ZM43.96,55.95l-1.48-4.43-1.5,4.43h2.98Z"/>
    <path class="cls-3" d="M0,69.03h3.88c2.94,0,4.28,1.22,4.28,3.44,0,2.62-1.82,3.83-4.34,3.83h-1.56v3H0v-10.27ZM3.93,74.57c.8,0,1.34-.16,1.72-.44.26-.36.38-.86.38-1.53,0-1.22-.69-1.84-2.03-1.84h-1.76v3.81h1.68Z"/>
    <polygon class="cls-3" points="15.79 75.17 11.56 75.17 11.56 79.29 9.31 79.29 9.31 69.03 11.56 69.03 11.56 73.41 15.79 73.41 15.79 69.03 18.04 69.03 18.04 79.29 15.79 79.29 15.79 75.17"/>
    <path class="cls-3" d="M19.2,74.26c0-3.21,1.88-5.46,5.25-5.46s5.12,2.05,5.12,5.3c0,3.01-1.68,5.43-5.27,5.43s-5.11-2.46-5.11-5.26M24.37,77.71c.91,0,1.88-.37,2.31-.8.42-.65.59-1.82.59-2.66,0-1.94-.94-3.65-2.91-3.65-.86,0-1.79.34-2.23.75-.43.65-.64,1.87-.64,2.79,0,1.86.88,3.57,2.87,3.57"/>
    <polygon class="cls-3" points="33.66 70.85 30.73 70.85 30.73 69.03 38.81 69.03 38.81 70.85 35.92 70.85 35.92 79.29 33.66 79.29 33.66 70.85"/>
    <path class="cls-3" d="M39.97,74.26c0-3.21,1.88-5.46,5.25-5.46s5.12,2.05,5.12,5.3c0,3.01-1.68,5.43-5.27,5.43s-5.11-2.46-5.11-5.26M45.14,77.71c.91,0,1.88-.37,2.31-.8.42-.65.59-1.82.59-2.66,0-1.94-.94-3.65-2.91-3.65-.86,0-1.79.34-2.23.75-.43.65-.64,1.87-.64,2.79,0,1.86.88,3.57,2.87,3.57"/>
    <path class="cls-3" d="M51.5,74.42c0-3.57,2.33-5.62,5.81-5.62,1.17,0,2.07.24,2.89.68l-.35,1.76c-.88-.39-1.76-.64-2.63-.64-1.01,0-2.11.33-2.73.78-.43.7-.69,1.78-.69,2.85,0,2.22,1.08,3.47,3.27,3.47.58,0,1.2-.08,1.76-.23v-2.13h-2.03v-1.73h3.89v4.95c-.96.64-2.3.95-3.75.95-3.42,0-5.44-1.71-5.44-5.1"/>
    <path class="cls-3" d="M61.85,69.03h3.97c3.32,0,4.31,1.22,4.31,3.21,0,1.58-.85,2.59-2.16,3.06l2.54,3.99h-2.73l-2.12-3.62h-1.56v3.62h-2.25v-10.27ZM65.83,73.92c.85,0,1.34-.11,1.68-.26.26-.36.37-.8.37-1.35,0-.9-.46-1.52-2.04-1.52h-1.72v3.13h1.72Z"/>
    <path class="cls-3" d="M75.44,69.03h2.75l3.77,10.27h-2.38l-.69-2.04h-4.17l-.69,2.04h-2.36l3.77-10.27ZM78.3,75.51l-1.48-4.43-1.5,4.43h2.98Z"/>
    <path class="cls-3" d="M83.11,69.03h3.88c2.94,0,4.28,1.22,4.28,3.44,0,2.62-1.82,3.83-4.34,3.83h-1.56v3h-2.25v-10.27ZM87.04,74.57c.8,0,1.34-.16,1.72-.44.26-.36.38-.86.38-1.53,0-1.22-.69-1.84-2.03-1.84h-1.76v3.81h1.68Z"/>
    <polygon class="cls-3" points="98.91 75.17 94.68 75.17 94.68 79.29 92.43 79.29 92.43 69.03 94.68 69.03 94.68 73.41 98.91 73.41 98.91 69.03 101.16 69.03 101.16 79.29 98.91 79.29 98.91 75.17"/>
    <polygon class="cls-3" points="106.42 75.84 102.32 69.03 104.87 69.03 107.55 73.82 110.23 69.03 112.77 69.03 108.67 75.84 108.67 79.29 106.42 79.29 106.42 75.84"/>
    <polygon class="cls-3" points="0 88.59 6.75 88.59 6.75 90.36 2.25 90.36 2.25 93.26 6.15 93.26 6.15 95.02 2.25 95.02 2.25 98.85 0 98.85 0 88.59"/>
    <polygon class="cls-3" points="8.21 88.59 14.84 88.59 14.84 90.35 10.46 90.35 10.46 92.92 14.23 92.92 14.23 94.68 10.46 94.68 10.46 97.09 14.85 97.09 14.85 98.85 8.21 98.85 8.21 88.59"/>
    <path class="cls-3" d="M16.24,98.15l.4-1.89c.94.72,2.39,1.01,3.3,1.01.51,0,1.09-.08,1.4-.21.22-.18.42-.55.42-.93,0-2.05-5.49-.83-5.49-4.56,0-2,1.55-3.21,3.8-3.21.97,0,2.33.21,3.24.95l-.38,1.82c-.85-.64-2.03-.96-3.03-.96-.69,0-1.07.18-1.31.33-.14.16-.27.49-.27.8,0,2,5.57.75,5.57,4.58,0,2.05-1.53,3.21-4.12,3.21-1.37,0-2.55-.29-3.53-.93"/>
    <polygon class="cls-3" points="28.02 90.41 25.1 90.41 25.1 88.59 33.17 88.59 33.17 90.41 30.28 90.41 30.28 98.85 28.02 98.85 28.02 90.41"/>
    <rect class="cls-3" x="34.32" y="88.59" width="2.15" height="10.27"/>
    <polygon class="cls-3" points="37.56 88.59 39.93 88.59 42.66 96.8 45.4 88.59 47.75 88.59 44.03 98.85 41.28 98.85 37.56 88.59"/>
    <path class="cls-3" d="M50.64,88.59h2.75l3.77,10.27h-2.38l-.69-2.04h-4.17l-.69,2.04h-2.36l3.77-10.27ZM53.49,95.07l-1.48-4.43-1.5,4.43h2.98Z"/>
    <polygon class="cls-3" points="58.22 88.59 60.47 88.59 60.47 97.09 64.89 97.09 64.89 98.85 58.22 98.85 58.22 88.59"/>
    <path class="cls-1" d="M56.39,39.37c-.03,4.6-3.67,8.32-8.18,8.35,4.51.03,8.15,3.75,8.18,8.35.03-4.6,3.67-8.32,8.18-8.35-4.51-.03-8.15-3.75-8.18-8.35"/>
    <polygon class="cls-2" points="168.47 9.7 171.18 1.71 179.59 4.68 179.87 4.19 180.15 3.7 171.54 .65 170.5 .28 170.14 1.34 167.01 10.55 167.74 10.12 168.47 9.7"/>
    <path class="cls-2" d="M173.44,16.67l3.17,5.61c1.54-.3,3.09-.5,4.65-.6.73-.04,1.47-.07,2.2-.07h0c5.22,0,10.34,1.11,15.11,3.24.29.13.57.27.86.4.28.13.56.27.83.41l9.21-1.81.62-.12.62-.12,7.84-1.54.41-.08.41-.08,8.16-1.6,1.68,8.92h1.12l-1.72-9.13-.21-1.1-1.08.21-9.41,1.85-.41.08-.41.08-10.97-6.47-1.71-1.01-3.59-2.12-2.52-1.48-15.89-9.37-1.76,3.12-.28.49-.28.49-6.67,11.8Z"/>
    <path class="cls-2" d="M240.79,78.74l-6.25-7.37-.27-.32-.27-.32V29.79h-27.25c.19.15.39.3.58.46.15.12.3.25.45.38.15.13.3.26.45.39,1.49,1.29,2.86,2.68,4.12,4.17.06.07.13.15.19.22.06.08.13.15.19.23,2.75,3.35,4.93,7.14,6.42,11.27,1.05,2.88,1.74,5.84,2.12,8.82.04.33.08.66.12.99.03.32.06.64.08.95l6.44,7.6.42.49.41.49,5.26,6.2.27.32.27.32,5.42,6.39-6.73,5.95.28.49.28.49,6.89-6.09.83-.73-.72-.85Z"/>
    <path class="cls-2" d="M220.68,56.79c-.02-.22-.05-.45-.08-.67-.86-6.86-3.61-13.47-8-18.95-.15-.18-.3-.35-.45-.53-.06-.08-.13-.15-.19-.22-.06-.08-.13-.15-.19-.22-1.23-1.42-2.55-2.74-3.97-3.95-.15-.13-.3-.25-.45-.38-.15-.13-.3-.25-.45-.38-.4-.32-.81-.62-1.22-.93v38.74l-.27.24-.27.24-12.78,11.3,2.52-1.48,2.52-1.48,7.75-6.85.27-.24.27-.24.75-.66.48-.42.48-.42,13.37-11.81c-.02-.23-.05-.45-.07-.68"/>
    <path class="cls-2" d="M233.09,86.29l-.28-.49-6.67-11.79-.16-.28-.16-.28-3.38-5.97-.29-.51-.29-.51-.54-.95c-.04.36-.08.72-.13,1.08-.03.2-.06.39-.09.59-.03.2-.06.39-.09.59-.33,1.93-.8,3.83-1.39,5.69-.03.09-.06.19-.09.28-.03.09-.06.19-.09.28-1.85,5.45-4.85,10.51-8.92,14.73,0,0,0,0,0,0-1.22,1.23-2.53,2.36-3.9,3.41-.26.19-.51.39-.77.57-.25.18-.51.36-.76.54l-3.06,9-.21.61-.21.61-2.63,7.75-.14.4-.14.4-2.71,7.99-8.41-2.98-.28.49-.28.49,8.61,3.05,1.04.37.36-1.06,3.13-9.21.14-.4.14-.4,11.02-6.5,4.48-2.64.8-.47,2.52-1.48,15.9-9.38-1.76-3.12-.28-.49Z"/>
    <path class="cls-2" d="M186.19,85.37h0s.93.33.93.33l.6.21.6.21,16.2,5.73c.19-.13.37-.26.56-.39.19-.13.38-.26.56-.4,1.53-1.13,2.98-2.37,4.33-3.73,3.71-3.84,6.59-8.41,8.45-13.34.04-.09.07-.19.1-.28.03-.09.07-.19.1-.28.65-1.8,1.17-3.65,1.55-5.52.04-.2.07-.39.11-.59.04-.2.07-.39.1-.59.09-.55.17-1.11.24-1.67l-4.12,2.43-1.45.85-1.45.86-7.19,4.24-.48.28-.27.16-.06.03-.15.09-1.11.65-9.18,5.41-2.52,1.49-2.52,1.48-2.7,1.59-.34-.12-.33-.12h0s-15.96-5.65-15.96-5.65l.24.14,2.28,1.34,2.52,1.48,9.67,3.42h0s.33.12.33.12l.34.12Z"/>
    <path class="cls-2" d="M193.71,105.06l.16-.28.16-.28,3.38-5.97.29-.51.29-.51.31-.56c-.19.08-.39.16-.59.24-.18.07-.36.14-.55.21-.18.07-.36.14-.55.21-1.82.67-3.69,1.2-5.59,1.59-.1.02-.19.04-.29.05-.1.02-.19.03-.29.05-2.29.43-4.62.66-6.96.66-5.24,0-10.28-1.05-14.92-3.09l.26-.05.28-.05.11-.02-.17-.9-.03-.17v-.02s-.03-.15-.03-.15c.36.16.72.31,1.08.45,4.24,1.67,8.71,2.52,13.29,2.52,2.12,0,4.23-.2,6.31-.56.1-.02.19-.03.29-.05.1-.02.19-.03.29-.05,1.81-.35,3.59-.82,5.33-1.43.19-.07.37-.13.56-.19.18-.07.36-.14.54-.21.45-.17.9-.35,1.35-.54l-3.61-2.13-1.45-.86-1.45-.86-7.19-4.24-.48-.28-.27-.16-.21-.12-10.29-6.06-2.52-1.48-2.52-1.48-2.34-1.38-.37-.22-.07-.36-.07-.36h0s-3.19-16.93-3.19-16.93v5.94l1.93,10.25h0s.07.36.07.36l.07.36.19,1,.12.64.12.63,3.25,17.25.03.18.03.18.11.56-.59.12-.26.05-.23.05-9.2,1.8-.62.12-.62.12-7.84,1.54-.41.08-.41.08-8.16,1.6-1.68-8.92h-1.12l1.72,9.14.21,1.1,1.08-.21,9.41-1.85.41-.08.41-.08,9.76,5.75,9.04,5.33,15.89,9.37,1.76-3.12.28-.49.28-.49,6.67-11.8Z"/>
    <polygon class="cls-2" points="137.8 91.94 151.13 91.94 151.44 91.94 151.76 91.94 158.52 91.94 159.1 91.94 159.68 91.94 160.39 91.94 160.62 91.94 160.87 91.94 161.48 91.94 161.48 91.49 161.48 91.3 161.48 91.12 161.48 86.65 161.48 84.94 161.48 83.23 161.48 74.77 161.48 74.21 161.48 73.88 161.48 73.65 161.48 61.53 161.48 58.56 161.48 55.6 161.48 52.42 161.75 52.18 162.02 51.94 174.8 40.64 174.8 40.64 172.29 42.13 169.77 43.61 169.77 43.61 162.02 50.46 161.75 50.7 161.48 50.94 160.72 51.6 160.24 52.03 159.77 52.45 146.48 64.2 146.34 64.32 146.2 64.44 146.08 64.54 146.08 64.54 145.93 64.37 145.77 64.18 139.24 56.48 138.83 55.99 138.41 55.5 133.16 49.3 132.88 48.98 132.61 48.65 127.19 42.26 133.92 36.31 133.64 35.82 133.36 35.33 126.47 41.41 125.64 42.15 126.36 42.99 132.61 50.36 132.88 50.69 133.16 51.01 133.16 57.23 133.16 59.97 133.16 70.22 133.16 73.19 133.16 91.94 136.69 91.94 137.25 91.94 137.8 91.94"/>
    <polygon class="cls-2" points="134.06 35.45 134.34 35.94 141.01 47.73 141.17 48.01 141.33 48.29 144.7 54.27 144.99 54.78 145.28 55.29 145.81 56.23 145.94 56.45 146.06 56.66 146.18 56.87 146.27 56.82 146.43 56.72 146.59 56.63 150.64 54.24 152.09 53.39 153.54 52.53 160.73 48.29 161.2 48.01 161.47 47.85 161.48 47.85 161.68 47.73 171.97 41.67 174.48 40.18 177 38.7 179.7 37.11 180.33 36.74 180.96 36.37 183.03 35.15 183.2 35.04 183.1 34.87 182.82 34.38 176.85 23.82 176.78 23.69 176.7 23.55 176.2 22.66 176.12 22.52 176.05 22.4 173.13 17.23 172.97 16.95 172.81 16.67 169.04 10.01 168.19 10.51 167.46 10.93 166.74 11.36 162.06 14.12 161.42 14.5 155.52 17.97 153.44 19.2 150.43 20.97 147.92 22.46 132.02 31.83 133.78 34.95 134.06 35.45"/>
    <polygon class="cls-2" points="181.64 36.61 181.02 36.98 180.39 37.35 196.35 43 193.83 41.52 191.31 40.03 181.64 36.61"/>
    <path class="cls-2" d="M201.94,46.3h0s3.19,16.93,3.19,16.93v-5.94l-1.93-10.25h0s-.07-.36-.07-.36h0s-.07-.36-.07-.36h0s-.19-1-.19-1l-.12-.63-.12-.64-3.24-17.23c-.2-.09-.41-.18-.61-.27-.2-.09-.41-.18-.61-.27-4.61-1.98-9.61-3.06-14.68-3.06-2.04,0-4.07.17-6.07.51l6.34,11.21h0s10.28,6.07,10.28,6.07l2.52,1.48,2.52,1.48,2.06,1.21.65.38.07.36.07.36Z"/>
    <path class="cls-2" d="M170.72,60.59h-.01v.28h0v.28h.01c.15,7.02,5.71,12.7,12.58,12.84h0s.27.01.27.01h.28c6.88-.16,12.44-5.84,12.58-12.86h.01v-.28h0v-.28h-.01c-.15-7.02-5.71-12.7-12.59-12.85h0s-.27-.01-.27-.01h0c-7,0-12.71,5.75-12.85,12.87M173.62,60.87c4.97-1.07,8.91-5.09,9.95-10.16,1.05,5.07,4.99,9.09,9.96,10.16-4.97,1.07-8.91,5.09-9.96,10.16-1.05-5.07-4.99-9.09-9.95-10.16M183.3,73.45c-6.57-.15-11.89-5.58-12.04-12.29,6.55.15,11.89,5.6,12.04,12.29M183.85,73.45c.15-6.69,5.49-12.15,12.04-12.29-.15,6.71-5.47,12.15-12.04,12.29M183.85,48.29c6.58.15,11.9,5.58,12.04,12.3-6.56-.15-11.9-5.6-12.04-12.3M183.3,48.29c-.14,6.69-5.49,12.15-12.04,12.3.15-6.71,5.47-12.15,12.04-12.3"/>
    <path class="cls-1" d="M144.58,47.26l2.16-1.28c1.93-1.14,3.44-.87,4.52,1.03,1.05,1.86.47,3.67-1.33,4.73l-2.11,1.25-3.24-5.73ZM149.36,50.77c.64-.38,1.01-.79,1.22-1.19.03-.5-.15-1.16-.52-1.82-.65-1.15-1.62-1.47-2.65-.86l-1.06.63,2.13,3.76.88-.52Z"/>
    <path class="cls-1" d="M150.53,43.76l2.16-1.28c1.64-.97,2.77-.73,3.47.51.83,1.46.2,2.74-1.21,3.57l-.87.52.95,1.67-1.26.74-3.24-5.73ZM154.47,45.55c.45-.26.7-.53.82-.81.03-.28-.06-.61-.27-.98-.39-.68-.96-.8-1.71-.36l-.98.58,1.2,2.13.94-.55Z"/>
    <polygon class="cls-1" points="155.75 40.68 159.52 38.45 160.08 39.44 157.57 40.93 158.48 42.55 160.66 41.26 161.21 42.24 159.04 43.53 160.25 45.66 158.99 46.41 155.75 40.68"/>
    <path class="cls-1" d="M233.51,85.92l-.28-.49,6.73-5.95-5.42-6.39-.27-.32-.27-.32-5.26-6.2-.41-.49-.41-.49-6.44-7.6c-.03-.32-.05-.64-.08-.95-.03-.33-.08-.66-.12-.99-.38-2.98-1.07-5.94-2.12-8.82-1.5-4.13-3.67-7.92-6.42-11.27-.06-.08-.13-.15-.19-.23-.06-.08-.13-.15-.19-.22-1.26-1.48-2.64-2.88-4.12-4.16-.15-.13-.3-.26-.45-.39-.15-.13-.3-.25-.45-.38-.19-.16-.38-.31-.58-.46h27.25v40.93l.27.32.27.32V29.23h-5.3l-1.68-8.92-8.16,1.6-.41.08-.41.08-7.84,1.54-.62.12-.62.12-9.21,1.81c-.28-.14-.56-.27-.83-.41-.29-.14-.57-.27-.86-.4-4.77-2.13-9.89-3.24-15.11-3.24h0c-.73,0-1.47.02-2.2.07-1.56.1-3.12.3-4.65.6l-3.17-5.61,6.67-11.8.28-.49.28-.49,1.76-3.12,15.89,9.37,2.52,1.48,3.59,2.12,1.71,1.01,10.97,6.47.41-.08.41-.08-13.16-7.76-3.71-2.18L182.47.14l-.24-.14-2.09,3.7-.28.49-.28.49-8.41-2.98-2.71,7.99-.73.43-.73.43-13.79,8.13-3.11,1.83-18.61,10.97-.24.14,2.09,3.7.28.49.28.49-6.73,5.95,5.42,6.39.27.32.27.32,5.26,6.2.41.49.42.49,6.53,7.7.16.19.15.17h0s.12-.1.12-.1l.14-.13.14-.12,13.29-11.75.48-.42.48-.42.75-.66.27-.24h0l.27-.24,7.74-6.84h0s2.52-1.49,2.52-1.49l2.52-1.48h0s5.59-3.29,5.59-3.29l.63-.37.63-.37h0l9.67,3.42,2.52,1.48,2.52,1.48,1.99,1.17,3.61,2.13h0s-.07-.36-.07-.36l-.07-.36-.65-.38-2.06-1.21-2.52-1.48-2.52-1.48-10.28-6.06h0s-6.34-11.22-6.34-11.22c2-.34,4.03-.51,6.07-.51,5.07,0,10.07,1.08,14.68,3.06.2.09.41.18.61.27.2.09.41.18.61.27l3.24,17.23.12.64.12.64.19,1h0s.07.36.07.36l.07.36h0s1.93,10.25,1.93,10.25v12.51l.27-.24.27-.24V30.57c.41.3.82.61,1.22.93.15.12.3.25.45.38.15.12.3.25.45.38,1.42,1.21,2.74,2.53,3.97,3.95.06.07.13.15.19.22.06.07.13.15.19.22.15.18.31.35.45.53,4.4,5.47,7.14,12.09,8,18.95.03.22.05.45.08.67.02.23.05.45.07.68l-13.37,11.81-.48.42-.48.42-.75.66-.27.24-.27.24-7.75,6.85-2.52,1.48-2.52,1.48-5.58,3.29h0s.33.12.33.12l.34.12,2.7-1.59,2.52-1.48,2.52-1.48,9.18-5.41,1.11-.65.15-.09.06-.03.27-.16.48-.28,7.19-4.24,1.45-.86,1.45-.85,4.12-2.43c-.07.56-.15,1.11-.24,1.67-.03.2-.07.39-.1.59-.04.2-.07.39-.11.59-.38,1.88-.9,3.72-1.55,5.52-.03.09-.06.19-.1.28s-.07.19-.1.28c-1.87,4.93-4.74,9.49-8.45,13.34-1.35,1.36-2.8,2.6-4.33,3.73-.18.14-.37.26-.56.39-.19.13-.37.27-.56.39l-16.2-5.73-.6-.21-.6-.21-.93-.33h0s-.34-.12-.34-.12h0s-.33-.12-.33-.12h0s-9.67-3.43-9.67-3.43l-2.52-1.48-2.28-1.34-.24-.14-.15-.09-5.44-3.21h0s.07.36.07.36l.07.36.37.22,2.34,1.38,2.52,1.48,2.52,1.48,10.28,6.06.21.12.27.16.48.28,7.19,4.24,1.45.85,1.45.86,3.61,2.13c-.44.19-.89.37-1.35.54-.18.07-.36.15-.54.21-.19.07-.37.13-.56.19-1.74.61-3.52,1.09-5.33,1.43-.1.02-.19.03-.29.05-.1.02-.19.03-.29.05-2.08.36-4.19.56-6.31.56-4.58,0-9.05-.85-13.29-2.52-.36-.14-.72-.3-1.08-.45l.03.15v.02s.04.17.04.17l.17.9-.11.02-.28.06-.26.05c4.64,2.03,9.68,3.09,14.92,3.09,2.34,0,4.67-.23,6.96-.66.1-.02.19-.03.29-.05.1-.02.19-.03.29-.05,1.9-.39,3.77-.92,5.59-1.59.18-.07.36-.14.55-.21.18-.07.37-.14.55-.21.2-.08.39-.16.59-.24l-.32.56-.29.51-.29.51-3.38,5.97-.16.28-.16.28-6.67,11.8-.28.49-.28.49-1.76,3.12-15.89-9.37-9.04-5.33-9.75-5.75-.41.08-.41.08,35.47,20.91.24.14,2.09-3.7.28-.49.28-.49,8.41,2.98,2.71-7.99.14-.41.14-.4,2.63-7.75.21-.61.21-.61,3.06-9c.26-.18.51-.36.76-.54.26-.19.52-.38.77-.57,1.37-1.04,2.68-2.18,3.9-3.41,0,0,0,0,0,0,4.08-4.22,7.08-9.28,8.92-14.73.03-.09.06-.19.09-.28.03-.09.06-.19.09-.28.6-1.86,1.07-3.76,1.39-5.69.03-.2.06-.39.09-.59.03-.2.06-.39.09-.59.05-.36.09-.72.13-1.08l.54.95.29.51.29.51,3.38,5.97.16.28.16.28,6.67,11.79.28.49.28.49,1.76,3.12-15.9,9.38-2.52,1.48-.8.47-4.48,2.64-11.02,6.5-.14.4-.14.41,16.03-9.45.87-.51,18.61-10.97.24-.14-2.09-3.7-.28-.49ZM183.1,34.87l.1.18-.17.1-2.07,1.22-.63.37-.63.37-2.7,1.59-2.52,1.48-2.52,1.49-10.29,6.07-.19.11h0s-.27.17-.27.17l-.48.28-7.19,4.24-1.45.86-1.45.85-4.05,2.39-.16.09-.16.09-.09.05-.12-.21-.12-.21-.12-.22-.53-.94-.29-.51-.29-.51-3.38-5.97-.16-.28-.16-.28-6.67-11.79-.28-.49-.28-.49-1.76-3.12,15.9-9.37,2.52-1.48,3.01-1.78,2.08-1.22,5.9-3.48.63-.37,4.68-2.76.73-.43.73-.43.85-.5,3.77,6.66.16.28.16.28,2.92,5.17.07.12.08.14.5.89.08.14.08.14,5.97,10.56.27.49Z"/>
    <polygon class="cls-1" points="157.04 98 157.66 97.88 166.86 96.08 167.09 96.03 167.34 95.98 167.94 95.87 167.83 95.31 167.8 95.13 167.76 94.95 164.52 77.7 164.4 77.06 164.28 76.43 164.09 75.42 164.02 75.06 163.95 74.7 163.95 74.7 162.02 64.45 162.02 61.48 162.02 58.51 162.02 51.94 161.75 52.18 161.47 52.42 161.47 55.6 161.47 58.56 161.47 61.53 161.47 73.65 161.47 73.88 161.47 74.21 161.47 74.77 161.47 83.23 161.47 84.94 161.47 86.65 161.47 91.12 161.47 91.3 161.47 91.49 161.47 91.94 160.87 91.94 160.62 91.94 160.39 91.94 159.68 91.94 159.1 91.94 158.52 91.94 151.76 91.94 151.44 91.94 151.13 91.94 137.8 91.94 137.25 91.94 136.69 91.94 133.16 91.94 133.16 73.19 133.16 70.22 133.16 59.97 133.16 57.23 133.16 51.01 132.88 50.69 132.61 50.36 132.61 59.95 132.61 70.27 132.61 92.5 136.79 92.5 137.35 92.5 137.91 92.5 139.59 101.43 147.75 99.83 148.16 99.75 148.58 99.67 156.42 98.13 157.04 98"/>
    <path class="cls-1" d="M183.85,48.29c.14,6.69,5.49,12.15,12.05,12.3-.15-6.72-5.47-12.15-12.05-12.3"/>
    <path class="cls-1" d="M183.3,73.45c-.15-6.69-5.49-12.15-12.04-12.29.15,6.71,5.47,12.14,12.04,12.29"/>
    <path class="cls-1" d="M195.9,61.15c-6.55.15-11.9,5.6-12.05,12.29,6.58-.15,11.9-5.58,12.05-12.29"/>
    <path class="cls-1" d="M183.3,48.29c-6.57.15-11.9,5.59-12.04,12.3,6.55-.15,11.9-5.61,12.04-12.3"/>
    <path class="cls-3" d="M71.41,97.21l2.55-2.66c.8-.83,1.44-1.45,1.85-2.05.11-.33.18-.65.18-.98,0-.72-.38-1.32-1.36-1.32-1.09,0-2.03.54-2.63,1.06l-.42-1.71c.72-.6,1.84-1.17,3.42-1.17,2.04,0,3.22.98,3.22,2.77,0,1.56-.67,2.57-2.39,4.27l-1.72,1.69h4.02v1.76h-6.72v-1.66Z"/>
    <path class="cls-3" d="M82.5,93.95c0-3.96,1.32-5.57,3.97-5.57s3.91,1.42,3.91,5.12c0,4.01-1.34,5.61-3.96,5.61s-3.93-1.42-3.93-5.15M86.49,97.29c.48,0,.99-.16,1.29-.46.21-.55.34-1.69.34-3.13,0-2.43-.51-3.52-1.72-3.52-.48,0-.94.16-1.21.37-.22.52-.42,1.68-.42,3.26,0,2.54.56,3.47,1.72,3.47"/>
    <path class="cls-3" d="M94.57,97.21l2.55-2.66c.8-.83,1.44-1.45,1.85-2.05.11-.33.18-.65.18-.98,0-.72-.38-1.32-1.36-1.32-1.09,0-2.03.54-2.63,1.06l-.42-1.71c.72-.6,1.84-1.17,3.42-1.17,2.04,0,3.22.98,3.22,2.77,0,1.56-.67,2.57-2.39,4.27l-1.72,1.69h4.02v1.76h-6.72v-1.66Z"/>
    <path class="cls-3" d="M105.86,98.22l.4-1.71c.81.54,1.68.78,2.65.78.69,0,1.13-.13,1.42-.37.13-.23.19-.59.19-1.04,0-1.25-.51-1.68-2.11-1.68h-2.19v-5.59h6v1.76h-3.85v2.07h.69c2.6,0,3.7,1.06,3.7,3.19,0,2.35-1.33,3.47-3.91,3.47-1.16,0-2-.25-3-.88"/>
    <path class="cls-1" d="M137.06,85.53l1.63-1.7c.51-.53.92-.93,1.18-1.31.07-.21.11-.42.11-.63,0-.46-.24-.84-.87-.84-.69,0-1.3.34-1.68.68l-.27-1.09c.46-.39,1.17-.75,2.18-.75,1.3,0,2.06.63,2.06,1.77,0,1-.43,1.64-1.53,2.73l-1.1,1.08h2.57v1.12h-4.29v-1.06Z"/>
    <path class="cls-1" d="M142.11,83.45c0-2.53.85-3.56,2.54-3.56s2.5.91,2.5,3.27c0,2.56-.86,3.58-2.53,3.58s-2.51-.91-2.51-3.29M144.66,85.58c.31,0,.63-.1.83-.29.13-.35.21-1.08.21-2,0-1.55-.33-2.25-1.1-2.25-.31,0-.6.1-.77.24-.14.33-.27,1.07-.27,2.08,0,1.62.36,2.22,1.1,2.22"/>
    <path class="cls-1" d="M147.78,85.53l1.63-1.7c.51-.53.92-.93,1.18-1.31.07-.21.11-.42.11-.63,0-.46-.24-.84-.87-.84-.69,0-1.3.34-1.68.68l-.27-1.09c.46-.39,1.17-.75,2.18-.75,1.31,0,2.06.63,2.06,1.77,0,1-.43,1.64-1.53,2.73l-1.1,1.08h2.57v1.12h-4.29v-1.06Z"/>
    <path class="cls-1" d="M152.96,86.18l.25-1.09c.52.34,1.07.5,1.69.5.44,0,.72-.08.91-.24.08-.15.12-.37.12-.67,0-.8-.33-1.07-1.35-1.07h-1.4v-3.57h3.83v1.13h-2.46v1.32h.44c1.66,0,2.37.68,2.37,2.04,0,1.5-.85,2.22-2.5,2.22-.75,0-1.28-.16-1.92-.56"/>
  </g>
</svg>