<?xml version="1.0" encoding="UTF-8"?>
<svg id="Layer_2" data-name="Layer 2" xmlns="http://www.w3.org/2000/svg" viewBox="0 0 85.04 27.01">
  <defs>
    <style>
      .cls-1 {
        fill: #353535;
      }
    </style>
  </defs>
  <g id="Dimensions">
    <g>
      <g>
        <g>
          <g>
            <path class="cls-1" d="M.01,20.5h1.82v.89c.65-.69,1.43-1.04,2.33-1.04.48,0,.89.09,1.25.26.35.17.64.43.87.78.33-.35.68-.61,1.06-.78.38-.17.79-.26,1.22-.26.55,0,1.01.1,1.39.29.38.19.66.48.85.85.14.28.2.73.2,1.35v4.16h-1.98v-3.72c0-.65-.07-1.06-.2-1.25-.18-.25-.46-.37-.84-.37-.28,0-.54.07-.78.22-.24.15-.42.36-.53.65-.11.28-.16.73-.16,1.35v3.13h-1.98v-3.57c0-.63-.04-1.04-.11-1.23-.07-.18-.18-.32-.33-.41-.15-.09-.35-.13-.6-.13-.3,0-.58.07-.82.21-.24.14-.42.35-.52.62-.11.27-.16.72-.16,1.34v3.16H.01v-6.51Z"/>
            <path class="cls-1" d="M13.09,19.62v-1.59h1.98v1.59h-1.98ZM13.09,27.01v-6.51h1.98v6.51h-1.98Z"/>
            <path class="cls-1" d="M19.14,27.01h-1.98v-6.51h1.84v.93c.31-.44.6-.73.85-.86.25-.14.54-.21.85-.21.45,0,.88.11,1.3.32l-.61,1.5c-.33-.19-.64-.28-.93-.28s-.51.07-.7.2c-.19.13-.34.37-.45.72-.11.35-.17,1.07-.17,2.18v2.01Z"/>
            <path class="cls-1" d="M24.87,27.01h-1.98v-6.51h1.84v.93c.31-.44.6-.73.85-.86.25-.14.54-.21.85-.21.45,0,.88.11,1.3.32l-.61,1.5c-.33-.19-.64-.28-.93-.28s-.51.07-.7.2c-.19.13-.34.37-.45.72-.11.35-.17,1.07-.17,2.18v2.01Z"/>
            <path class="cls-1" d="M28.76,19.62v-1.59h1.98v1.59h-1.98ZM28.76,27.01v-6.51h1.98v6.51h-1.98Z"/>
            <path class="cls-1" d="M32.84,27.01v-8.98h1.98v4.77l2.31-2.29h2.43l-2.55,2.38,2.74,4.13h-2.13l-1.88-2.92-.92.84v2.08h-1.98Z"/>
            <path class="cls-1" d="M43.02,18.02v3.3c.64-.65,1.4-.97,2.29-.97.45,0,.87.07,1.23.22s.64.34.83.56c.19.23.31.48.38.76.07.28.1.71.1,1.29v3.82h-1.98v-3.44c0-.68-.04-1.12-.11-1.3-.08-.18-.21-.33-.4-.44-.19-.11-.43-.16-.71-.16-.33,0-.62.07-.88.21-.26.14-.45.35-.57.63s-.18.69-.18,1.24v3.26h-1.98v-8.98h1.98Z"/>
          </g>
          <g>
            <polygon class="cls-1" points="36.42 9.34 35.94 8.07 37.33 6.88 38.34 9.86 36.42 9.34"/>
            <path class="cls-1" d="M14.88,8.54l1.3-1.3s1.33,1.33,1.22,3.18-1.76,4.78-3.31,4.78-2.74-1.93-2.74-1.93c0,0,3.44,1.31,4.95-2.45-.08-.76-1.36-2.19-1.43-2.27Z"/>
            <path class="cls-1" d="M10.28,9.34H1.99s-1.7-.71-.85-3.17c0,0-2.98,4.39.71,5.18h9.03s1.03-1.78.95-3.54-.39-5.09-.39-5.09l-1.71-.54.55,7.17Z"/>
            <path class="cls-1" d="M11.83,3.59l.78-1.53s-1.88-.77-2.01-.85-.32-.52-.31-.69c0,0-.95,1.49-1.06,1.64s-.02.36.07.44.85.44,2.53.98Z"/>
            <path class="cls-1" d="M4.16,6.95s1.04-1.02,2.7-1.18l.35-1.02s-1.58.53-2.52-.29c0,0,.38-.63,1.81-.52,0,0,.61-.57.16-.93-.25-.16-.9-.37-1.74.26s-1.06,1.5-.96,1.73.12.54.75.78c0,0-.54.62-.54,1.16Z"/>
            <path class="cls-1" d="M48.45,5.97c-1.24-1.13-2.48,0-2.48,0l-3.01,3.36h0s-26.03,0-26.03,0v2h19.4l.59-.65.25.65h5.69l.71-.97,4.89,1.78s1.1-1.63,1.49-2.61-.9-3.01-1.51-3.57ZM48.34,10.01l-3.53-1.3s1.29-1.7,2.05-1.66c.31.03,1.31.53,1.57,1.76.08.49-.09,1.2-.09,1.2Z"/>
            <polygon class="cls-1" points="37.64 12.85 39.11 14.02 38.03 14.87 37.09 14.3 36.16 14.87 34.79 13.75 36.01 12.88 36.95 13.49 37.64 12.85"/>
          </g>
        </g>
        <path class="cls-1" d="M80.53,17.9l-1.65,1.1v-10.27c-.08-.33-.29-.59-.64-.76-.9-.46-2.42-.31-3.97.39-1.98.89-3.15,2.17-3.15,3.43v9.69h-2.29v-9.69c0-1.26-1.18-2.55-3.15-3.43-1.55-.7-3.07-.84-3.97-.39-.35.18-.56.43-.64.76v10.27l-1.65-1.1V6.53s-.02-.4.39-.76c.48-.43,1.63-.85,4.36-.41,1.67.26,4.67,1.94,5.8,3.05,1.14-1.11,4.14-2.79,5.8-3.05,2.73-.43,3.88-.01,4.36.41.4.35.4.73.39.78v11.35Z"/>
      </g>
      <path class="cls-1" d="M84.04,1v24.65h-28.14V1h28.14M85.04,0h-30.14v26.65h30.14V0h0Z"/>
    </g>
  </g>
</svg>