<?xml version="1.0" encoding="UTF-8"?>
<svg id="Layer_2" data-name="Layer 2" xmlns="http://www.w3.org/2000/svg" viewBox="0 0 212.52 77.29">
  <defs>
    <style>
      .cls-1 {
        fill: #2cafa4;
      }

      .cls-2 {
        fill: #95a0a9;
      }
    </style>
  </defs>
  <g id="Layer_1-2" data-name="Layer 1">
    <path class="cls-2" d="M208.59,72.48s-1.8-.08-1.8-2.11.07-11.11.07-11.11h4v-4.45h-4v-6.84h-5.58v6.84h-2.44v4.36h2.28v12.3s-.07,5.35,5.66,5.35h4.16v-4.35h-2.36ZM174.57,76.75v-4.44s-3.06.4-3.69-.54c-.63-.94-.56-2.18-.56-2.18v-25.2h-5.66v26.68s.41,5.74,6.14,5.83c5.73.07,3.77-.16,3.77-.16M131.67,63.13c-4.47-.23-5.87-1-5.79-2.33.07-1.32,1.32-2.02,3.92-2.17,2.6-.15,4.95,1.56,4.95,1.56l3.46-3.58s-2.52-2.87-8.18-2.87-9.58,2.87-9.58,7.78,4.24,6.06,8.09,6.46c3.85.39,4.71,1.24,4.71,2.09s-.24,2.11-4.16,2.26c-3.92.16-5.98-2.02-5.98-2.02l-3.61,3.81s3.71,3.19,9.35,3.19,10.21-2.63,10.21-7.24-2.9-6.68-7.39-6.92M186.36,72.72c-2.11,0-4.07-.47-4.07-2.5s2.34-2.96,2.34-2.96h5.67s.08,1.01.08,2.72-1.9,2.74-4.01,2.74M186.83,53.66c-.86,0-5.96-.48-8.95,3.41l3.53,3.57s1.33-1.94,4.72-1.94c1.96,0,4.09.86,4.09,2.48s.07,2.26.07,2.26h-7.39s-6.2.61-6.2,6.61,5.64,7.24,9.5,7.24,8.17-1.01,9.58-5.21c0,0,1.02-5.9.08-12.14-.94-6.21-8.16-6.28-9.03-6.28M151.33,72.72c-2.13,0-4.1-.47-4.1-2.5s2.35-2.96,2.35-2.96h5.66s.07,1.01.07,2.72-1.89,2.74-3.99,2.74M151.78,53.66c-.85,0-5.97-.48-8.95,3.41l3.54,3.57s1.33-1.94,4.71-1.94c1.96,0,4.07.86,4.07,2.48s.08,2.26.08,2.26h-7.38s-6.2.61-6.2,6.61,5.64,7.24,9.5,7.24,8.17-1.01,9.58-5.21c0,0,1.01-5.9.07-12.14-.93-6.21-8.17-6.28-9.04-6.28M106.93,72.72c-2.11,0-4.08-.47-4.08-2.5s2.37-2.96,2.37-2.96h5.65s.07,1.01.07,2.72-1.88,2.74-4.01,2.74M107.41,53.66c-.87,0-5.98-.48-8.96,3.41l3.54,3.57s1.33-1.94,4.72-1.94c1.96,0,4.08.86,4.08,2.48s.08,2.26.08,2.26h-7.4s-6.2.61-6.2,6.61,5.66,7.24,9.51,7.24,8.17-1.01,9.58-5.21c0,0,1.01-5.9.07-12.14-.95-6.21-8.16-6.28-9.02-6.28M52.48,68.49c-.23,2.27-1.62,3.43-4.12,3.43-3.28,0-4.13-1.61-4.28-2.97v-5.74c.06-.46.28-1.53.85-2.43.51-.86,1.26-1.64,3.29-1.64s2.92.77,3.42,1.54c.6.89.81,1.96.86,2.37v5.46ZM48,53.66c-9.02,0-9.66,9.09-9.66,9.09v6.29c0,1.17,1.09,8.17,9.82,8.17,9.19,0,9.66-8.47,9.66-8.47v-6.07c0-.47-.79-9.02-9.83-9.02M24.91,53.73c-1.65,0-5.18.31-7.46,3.11,0,0-2.37-3.11-7.62-3.11s-8.26,4.2-8.26,7.07.08,16.11.08,16.11h5.67v-15.02s.47-2.95,3.76-2.95,4.09,2.72,4.09,3.81v14.16h5.42v-14.55s.4-3.5,4-3.5,4.01,3.42,4.01,4.04v14h5.5v-14.78s-.46-8.4-9.19-8.4M88.39,53.73v15.02s-.47,2.95-3.78,2.95-4.08-2.72-4.08-3.81v-14.16h-5.43v14.54s-.39,3.5-4.01,3.5-4-3.42-4-4.04v-14h-5.5v14.78s.47,8.4,9.19,8.4c1.66,0,5.18-.31,7.47-3.11,0,0,2.35,3.11,7.62,3.11s8.24-4.2,8.24-7.09-.08-16.1-.08-16.1h-5.65Z"/>
    <g>
      <path class="cls-1" d="M111.93,40.58s15.26,1.26,30.52-10.13c15.25-11.39,18.24-23.39,18.24-26.04h19.2s-5.19,20.89-35.08,31.5c-8.34,2.65-12.7,4.56-32.87,5.56v-.89Z"/>
      <path class="cls-1" d="M112.04,41.93s16.88,0,30.5-3.92c13.62-3.92,40.09-13.65,46.13-38.02h23.84s-9.17,25.38-46.68,35.44c-17,3.98-24.54,6.67-53.85,7.37l.05-.87Z"/>
      <path class="cls-1" d="M67.56,40.44h-14.86s-.98.1-1.02-1.84c-.03-2.59.51-3.67,2.13-4,1.67.05,13.63,0,13.63,0,0,0,2.57-.07,2.57,3.11,0,1.33-.57,2.72-2.46,2.72M69.51,31.14c-.61-.04-17.26,0-17.26,0,0,0-3.73.39-4.4,3.96-.22.61-.27,2.45-.27,3.22,0,0-.02,1.56.36,2.13h-3.05v-4.11l-3.89.02v4.1h-2.68v-19.03l-3.89.05v24.66s-.23,1.72-2,1.72c-2.01,0-2.51-1.04-2.51-3h-4.01s-.28,6.74,6.06,6.74c4.9,0,6.3-2.68,6.35-4.79.02-.7.02-1.73,0-2.57h29.05s4.9.22,6.07-3.11c.34-1,.65-2.8.61-4.01-.02-1.39-.8-5.6-4.56-5.97M20.9,29.14v9.25s-.04,2.05-2.22,2.05H7.05s-3.13.17-3.13-2.95H.03s-.72,6.58,5.3,6.74c4.56.12,13.35,0,13.35,0,0,0,6.06.39,6.02-4.23-.05-3.67,0-10.86,0-10.86h-3.8ZM105.14,38.45c0,1.16-.94,2.11-2.12,2.11s-2.12-.94-2.12-2.11v-3.48c0-1.16.96-2.1,2.12-2.1s2.12.94,2.12,2.1v3.48ZM90.32,38.45c0,1.16-.95,2.11-2.11,2.11s-2.11-.94-2.11-2.11v-3.48c0-1.16.96-2.1,2.11-2.1s2.11.94,2.11,2.1v3.48ZM108.98,35.93c0-.94,0-4.79-3.79-6.28-.66-.17-1.22-.45-2.17-.45-1.27,0-3.37.35-4.78,2.12-1.34,1.68-1.5,4.07-1.45,5.8.05,1.5,1,3.28,1,3.28h-3.16c.03-2.02-.03-5.9-.18-6.35-.83-4.57-4.96-5.02-5.96-5.02s-2.4.23-3.17.56c-3.9,1.95-3.7,5.97-3.51,9.69.22,4.35,4.72,4.95,4.72,4.95h3.73c.05,1.17.17,3.61-2.06,3.61s-2.16-2.94-2.16-2.94h-4.01c0,6.45,4.62,6.85,6.02,6.85,1.66,0,3.06-.11,4.56-1.56,1.24-1.21,1.69-3.81,1.87-6h9.82s3.44-.17,4.34-3.89c.45-1.35.34-3.4.34-4.35M75.74,44.11h3.9v-22.71l-3.9.05v22.66ZM29.87,21.4l-3.89.05v22.66h3.89v-22.71ZM18.35,32.61c1.08,0,1.97-.87,1.97-1.96s-.89-1.97-1.97-1.97-1.97.87-1.97,1.97.89,1.96,1.97,1.96M12.44,32.61c1.09,0,1.97-.87,1.97-1.96s-.87-1.97-1.97-1.97-1.96.87-1.96,1.97.88,1.96,1.96,1.96"/>
    </g>
  </g>
</svg>