<?xml version="1.0" encoding="UTF-8"?>
<svg id="Layer_2" data-name="Layer 2" xmlns="http://www.w3.org/2000/svg" viewBox="0 0 233.19 62.62">
  <defs>
    <style>
      .cls-1 {
        fill: none;
        stroke: #575858;
        stroke-miterlimit: 10;
        stroke-width: .02px;
      }

      .cls-2 {
        fill: #ffc709;
      }

      .cls-3 {
        fill: #73c3d6;
      }

      .cls-4 {
        fill: #575858;
      }

      .cls-5 {
        fill: #555759;
      }
    </style>
  </defs>
  <g id="Layer_1-2" data-name="Layer 1">
    <g id="Layer_1-2" data-name="Layer 1-2">
      <g>
        <g>
          <path class="cls-5" d="M158.17,25.28v-.05c.76.64,1.72,1.05,2.77,1.12.05,0,.09.01.14.01h.8s.09,0,.14-.01c1.51-.1,2.83-.9,3.65-2.08.81,1.17,2.13,1.97,3.63,2.08.05,0,.1.01.15.01h.8c.05,0,.1,0,.15-.01,2.5-.18,4.49-2.27,4.49-4.82v-4.33c0-.47-.38-.86-.86-.86s-.86.38-.86.86v4.33c0,1.72-1.4,3.12-3.12,3.12h-.41c-1.7,0-3.09-1.37-3.12-3.07v-4.38c0-.47-.38-.86-.86-.86h0c-.47,0-.86.38-.86.86v4.38c-.03,1.7-1.42,3.07-3.12,3.07h-.42c-1.6,0-2.92-1.21-3.1-2.75v-4.42c0-.06,0-.13-.02-.19v-.09c0-.47-.38-.86-.86-.86s-.86.38-.86.86v4.33c0,.16,0,.31.02.46v3.29c0,1.72-1.4,3.12-3.12,3.12h-3.54c-1.72,0-3.12-1.4-3.12-3.12v-6.21c0-.47-.38-.86-.86-.86s-.86.38-.86.86v6.21c0,2.67,2.17,4.83,4.83,4.83h3.54c2.67,0,4.83-2.17,4.83-4.83"/>
          <path class="cls-5" d="M232.28,16.34c-.47,0-.86.38-.86.86v4.33c0,1.72-1.4,3.12-3.12,3.12h-1.27c-1.71,0-3.11-1.39-3.12-3.1v-4.36c0-.47-.38-.86-.86-.86h0c-.47,0-.86.38-.86.86v4.36c-.01,1.71-1.41,3.1-3.12,3.1h-.36s-31.37-.01-31.37-.01c-.04,0-.08,0-.12,0v-6.88c0-.47-.38-.86-.86-.86s-.86.38-.86.86v7.52c0,1.72-1.4,3.12-3.12,3.12h-3.79c-.47,0-.86.38-.86.86s.38.86.86.86h3.79c2.31,0,4.25-1.63,4.72-3.81.07.02.15.03.23.03h30.76c.17.01.3.02.36.02h.61c1.65,0,3.1-.83,3.98-2.09.87,1.26,2.33,2.09,3.98,2.09h1.27c2.67,0,4.83-2.17,4.83-4.83v-4.33c0-.47-.38-.86-.86-.86"/>
          <path class="cls-5" d="M232.13,14.17c.59,0,1.06-.48,1.06-1.06s-.48-1.06-1.06-1.06-1.06.48-1.06,1.06.48,1.06,1.06,1.06"/>
          <path class="cls-5" d="M222.86,26.18c-.59,0-1.06.48-1.06,1.06s.48,1.06,1.06,1.06,1.06-.48,1.06-1.06-.48-1.06-1.06-1.06"/>
          <path class="cls-5" d="M180.49,26.36c.47,0,.86-.38.86-.86v-11.5c0-.47-.38-.86-.86-.86s-.86.38-.86.86v11.5c0,.47.38.86.86.86"/>
        </g>
        <g>
          <path class="cls-5" d="M173.95,38.19h-1.3c-.96,0-1.77.34-2.43,1.01-.65.67-.99,1.49-.99,2.44,0,.45.09.89.27,1.31.13.3.29.57.48.81h-5.65v-2.27c0-.91-.33-1.69-.99-2.34s-1.45-.97-2.35-.97h-1.92c-.91,0-1.7.33-2.35.97s-.99,1.43-.99,2.34v.22c0,.93.33,1.73.99,2.37s1.45.97,2.35.97h1.01c.16,0,.31-.06.45-.18.14-.13.22-.28.22-.44,0-.19-.07-.35-.22-.48-.14-.12-.29-.18-.45-.18h-1.01c-.57,0-1.04-.19-1.45-.59-.41-.4-.6-.87-.6-1.46v-.22c0-.56.2-1.03.6-1.43s.88-.59,1.45-.59h1.92c.57,0,1.04.19,1.45.59.41.4.6.86.6,1.43v2.93c0,.4.23.63.63.63h10.28c.96,0,1.78-.33,2.44-.99.67-.65,1.01-1.47,1.01-2.43s-.34-1.78-1-2.44-1.49-1-2.44-1h0ZM176.11,41.64c0,.59-.21,1.08-.64,1.5-.43.42-.93.63-1.52.63h-1.3c-.59,0-1.08-.2-1.5-.62s-.62-.91-.62-1.5.2-1.12.62-1.54.91-.62,1.5-.62h1.3c.59,0,1.09.2,1.52.63.43.42.64.92.64,1.54h0Z"/>
          <path class="cls-5" d="M221.76,33.52c-.4,0-.63.24-.63.66v7.06c0,.71-.24,1.3-.73,1.79s-1.08.73-1.79.73h-4.2c-.71,0-1.3-.24-1.79-.73-.49-.49-.73-1.08-.73-1.79v-7.06c0-.42-.24-.66-.66-.66-.4,0-.63.24-.63.66v7.06c0,.71-.24,1.3-.73,1.79s-1.08.73-1.79.73h-5.04c.49-.6.75-1.32.75-2.12,0-.96-.34-1.78-1-2.44s-1.49-1-2.44-1h-11.53v-4.01c0-.4-.23-.63-.63-.63-.42,0-.66.23-.66.63v9.58h-4.44c-.71,0-1.3-.24-1.79-.75-.49-.5-.73-1.09-.73-1.77v-7.1c0-.4-.23-.63-.63-.63-.42,0-.66.23-.66.63v7.1c0,.53.1,1.02.3,1.47.2.45.47.85.81,1.2.34.35.75.63,1.21.83s.97.3,1.49.3h25.01c.7,0,1.35-.17,1.92-.51.5-.29.92-.69,1.23-1.16.33.48.75.87,1.26,1.16.58.34,1.22.51,1.92.51h4.2c.53,0,1.02-.1,1.47-.3.45-.2.85-.47,1.2-.81.35-.34.63-.75.83-1.21.2-.47.3-.97.3-1.49v-7.06c0-.42-.24-.66-.66-.66h0ZM188.8,43.77v-4.29h11.53c.59,0,1.09.21,1.52.64.43.43.64.93.64,1.52s-.21,1.08-.64,1.5c-.43.42-.93.63-1.52.63h-11.53Z"/>
        </g>
        <g>
          <path class="cls-2" d="M132.62,32.01c1.47,0,2.67,1.19,2.67,2.67s-1.19,2.67-2.67,2.67-2.67-1.19-2.67-2.67,1.19-2.67,2.67-2.67"/>
          <path class="cls-3" d="M125.94,32.02c1.47,0,2.66,1.19,2.66,2.66s-1.19,2.66-2.66,2.66-2.66-1.19-2.66-2.66,1.19-2.66,2.66-2.66"/>
          <path class="cls-2" d="M104.32,32.05c1.46,0,2.65,1.18,2.65,2.65s-1.18,2.65-2.65,2.65-2.65-1.18-2.65-2.65,1.18-2.65,2.65-2.65"/>
          <path class="cls-3" d="M118.52,32.07c1.46,0,2.64,1.18,2.64,2.64s-1.18,2.64-2.64,2.64-2.64-1.18-2.64-2.64,1.18-2.64,2.64-2.64"/>
          <path class="cls-2" d="M129.16,38.61c1.46,0,2.64,1.18,2.64,2.64s-1.18,2.64-2.64,2.64-2.64-1.18-2.64-2.64,1.18-2.64,2.64-2.64"/>
          <path class="cls-3" d="M115.05,25.43c1.45,0,2.63,1.18,2.63,2.63s-1.18,2.63-2.63,2.63-2.63-1.18-2.63-2.63,1.18-2.63,2.63-2.63"/>
          <path class="cls-3" d="M122.23,25.52c1.44,0,2.6,1.16,2.6,2.6s-1.16,2.6-2.6,2.6-2.6-1.16-2.6-2.6,1.16-2.6,2.6-2.6"/>
          <path class="cls-2" d="M107.89,25.52c1.43,0,2.58,1.16,2.58,2.58s-1.16,2.59-2.58,2.59-2.59-1.16-2.59-2.59,1.16-2.58,2.59-2.58"/>
          <path class="cls-2" d="M122.19,38.72c1.43,0,2.59,1.16,2.59,2.59s-1.16,2.59-2.59,2.59-2.59-1.16-2.59-2.59,1.16-2.59,2.59-2.59"/>
          <path class="cls-3" d="M118.6,18.78c1.4,0,2.52,1.13,2.52,2.52s-1.13,2.52-2.52,2.52-2.52-1.13-2.52-2.52,1.13-2.52,2.52-2.52"/>
          <path class="cls-3" d="M125.49,18.78c1.4,0,2.52,1.13,2.52,2.52s-1.13,2.52-2.52,2.52-2.52-1.13-2.52-2.52,1.13-2.52,2.52-2.52"/>
          <path class="cls-2" d="M136.03,25.64c1.39,0,2.51,1.13,2.51,2.51s-1.13,2.51-2.51,2.51-2.51-1.13-2.51-2.51,1.13-2.51,2.51-2.51"/>
          <path class="cls-2" d="M111.52,18.81c1.39,0,2.51,1.12,2.51,2.51s-1.12,2.51-2.51,2.51-2.51-1.12-2.51-2.51,1.12-2.51,2.51-2.51"/>
          <path class="cls-2" d="M125.61,45.39c1.32,0,2.39,1.07,2.39,2.39s-1.07,2.39-2.39,2.39-2.39-1.07-2.39-2.39,1.07-2.39,2.39-2.39"/>
          <path class="cls-2" d="M115.21,12.29c1.27,0,2.3,1.03,2.3,2.3s-1.03,2.3-2.3,2.3-2.3-1.03-2.3-2.3,1.03-2.3,2.3-2.3"/>
          <path class="cls-2" d="M118.59,5.71c1.17,0,2.11.95,2.11,2.11s-.95,2.11-2.11,2.11-2.11-.95-2.11-2.11.95-2.11,2.11-2.11"/>
          <path class="cls-3" d="M129.17,26c1.16,0,2.1.94,2.1,2.1s-.94,2.1-2.1,2.1-2.1-.94-2.1-2.1.94-2.1,2.1-2.1"/>
          <path class="cls-2" d="M119.21,45.68c1.16,0,2.09.94,2.09,2.09s-.94,2.09-2.09,2.09-2.09-.94-2.09-2.09.94-2.09,2.09-2.09"/>
          <path class="cls-2" d="M111.34,32.65c1.14,0,2.07.93,2.07,2.07s-.93,2.07-2.07,2.07-2.07-.93-2.07-2.07.93-2.07,2.07-2.07"/>
          <path class="cls-2" d="M122.05,52.24c1.14,0,2.06.93,2.06,2.06s-.93,2.06-2.06,2.06-2.06-.93-2.06-2.06.93-2.06,2.06-2.06"/>
          <path class="cls-3" d="M122.05,12.68c1.1,0,1.99.89,1.99,1.99s-.89,1.99-1.99,1.99-1.99-.89-1.99-1.99.89-1.99,1.99-1.99"/>
          <path class="cls-2" d="M118.86,58.95c1.01,0,1.83.82,1.83,1.83s-.82,1.83-1.83,1.83-1.83-.82-1.83-1.83.82-1.83,1.83-1.83"/>
          <path class="cls-2" d="M122.08,0c.96,0,1.74.78,1.74,1.74s-.78,1.74-1.74,1.74-1.74-.78-1.74-1.74.78-1.74,1.74-1.74"/>
        </g>
        <path class="cls-4" d="M.71,30.67c-.39,0-.71-.32-.71-.71v-9.92c.1-1.34,1.17-2.42,2.51-2.51h.49c.5,0,.99.12,1.42.36,1.01.54,1.36,1.44,1.79,2.4l3.17,7.04.42.9c.19.36.38.64.75.83.38.21.65.19,1.04.19.71,0,1.28-.58,1.28-1.28v-9.73c0-.39.32-.71.71-.71s.71.32.71.71v9.92c-.1,1.34-1.17,2.42-2.51,2.51h-.49c-.5,0-.99-.12-1.42-.36-1-.54-1.36-1.44-1.79-2.4l-3.17-7.04-.42-.9c-.19-.36-.38-.64-.75-.83-.38-.21-.65-.19-1.04-.19-.71,0-1.28.58-1.28,1.28v9.73c0,.39-.32.71-.71.71"/>
        <path class="cls-4" d="M16.64,21.17c0-2,1.64-3.64,3.64-3.64h9.08c.39,0,.71.32.71.71s-.32.71-.71.71h-9.08c-1.22,0-2.22,1-2.22,2.22v2.22h10.27c.39,0,.71.32.71.71s-.32.71-.71.71h-10.27v2.24c.01,1.22,1.01,2.2,2.22,2.2h9.08c.39,0,.71.32.71.71s-.32.71-.71.71h-9.08c-2,0-3.64-1.63-3.64-3.64v-5.86h0Z"/>
        <path class="cls-4" d="M33.83,28.1c0,.64.52,1.16,1.15,1.16h8.09c1.22,0,2.22-1,2.22-2.22s-1-2.22-2.22-2.22h-9.25v3.29ZM45.3,21.17c0-1.22-1-2.22-2.22-2.22h-8.09c-.64,0-1.15.52-1.15,1.16v3.29h9.25c1.22,0,2.22-1,2.22-2.22M32.42,19.92c.09-1.28,1.11-2.29,2.38-2.39h8.28c2,0,3.63,1.64,3.63,3.64,0,.96-.36,1.79-.99,2.5l-.49.43c.92.68,1.48,1.79,1.48,2.93,0,2-1.64,3.64-3.63,3.64h-8.28c-1.27-.09-2.29-1.11-2.38-2.39h0v-8.36h0s0,0,0,0Z"/>
        <path class="cls-4" d="M61.07,21.15c-.01-1.22-1-2.2-2.22-2.2h-7.22c-.64,0-1.16.52-1.16,1.16v3.29h8.37c1.23,0,2.23-1.01,2.22-2.24M49.06,19.92c.09-1.28,1.11-2.29,2.39-2.39h7.4c1.99,0,3.64,1.63,3.64,3.64,0,1.43-.86,2.74-2.16,3.33l-.61.22,1.99,4.99c.14.36-.03.77-.4.92-.36.14-.77-.03-.92-.4l-2.15-5.41h0s-7.75,0-7.75,0v5.15c0,.39-.32.71-.71.71s-.71-.32-.71-.71v-10.04h0Z"/>
        <path class="cls-4" d="M72.79,18.94c-1.26,0-2.3.71-2.77,1.88l-2.18,5.5h9.91l-2.18-5.5c-.47-1.17-1.51-1.88-2.77-1.88M80.21,30.62c-.36.14-.77-.04-.91-.4l-.99-2.48h-11.03l-.99,2.49c-.14.36-.56.54-.91.4-.36-.14-.54-.56-.39-.92l3.73-9.41c1.47-3.7,6.69-3.7,8.15,0l3.73,9.39c.14.36-.03.77-.39.92"/>
        <path class="cls-4" d="M86.13,18.95c-.9,0-1.63.73-1.63,1.63,0,.7.46,1.34,1.11,1.55l9.66,2.59.08.03c1.22.43,2.03,1.58,2.03,2.87,0,1.68-1.36,3.05-3.04,3.05h-9.66c-.39,0-.71-.32-.71-.71s.32-.71.71-.71h9.66c.9,0,1.63-.73,1.63-1.63,0-.68-.43-1.3-1.07-1.53h-.04s-9.66-2.61-9.66-2.61l-.08-.03c-1.22-.43-2.03-1.58-2.03-2.87,0-1.68,1.36-3.05,3.04-3.05h9.66c.39,0,.71.32.71.71s-.32.71-.71.71h-9.66,0Z"/>
        <path class="cls-4" d="M10.94,37.39c0-1.61,1.32-2.93,2.93-2.93h7.3c.31,0,.57.26.57.57s-.26.57-.57.57h-7.3c-.98,0-1.79.8-1.79,1.79v1.79h8.26c.31,0,.57.26.57.57s-.26.57-.57.57h-8.26v1.8c0,.98.81,1.77,1.79,1.77h7.3c.31,0,.57.26.57.57s-.26.57-.57.57h-7.3c-1.61,0-2.93-1.32-2.93-2.93v-4.71h0Z"/>
        <path class="cls-1" d="M10.94,37.39c0-1.61,1.32-2.93,2.93-2.93h7.3c.31,0,.57.26.57.57s-.26.57-.57.57h-7.3c-.98,0-1.79.8-1.79,1.79v1.79h8.26c.31,0,.57.26.57.57s-.26.57-.57.57h-8.26v1.8c0,.98.81,1.77,1.79,1.77h7.3c.31,0,.57.26.57.57s-.26.57-.57.57h-7.3c-1.61,0-2.93-1.32-2.93-2.93v-4.71h0Z"/>
        <path class="cls-4" d="M24.27,45.03c-.31,0-.57-.26-.57-.57v-7.98c.08-1.08.94-1.94,2.02-2.02h.39c.4,0,.79.1,1.15.29.81.44,1.1,1.16,1.44,1.93l2.55,5.66.34.72c.16.29.31.51.61.67.3.17.52.15.84.15.57,0,1.03-.46,1.03-1.03v-7.82c0-.31.26-.57.57-.57s.57.26.57.57v7.98c-.08,1.08-.94,1.94-2.02,2.02h-.39c-.4,0-.79-.1-1.15-.29-.81-.44-1.1-1.16-1.44-1.93l-2.55-5.66-.34-.72c-.16-.29-.31-.51-.61-.67-.3-.17-.52-.15-.84-.15-.57,0-1.03.46-1.03,1.03v7.82c0,.31-.26.57-.57.57"/>
        <path class="cls-1" d="M24.27,45.03c-.31,0-.57-.26-.57-.57v-7.98c.08-1.08.94-1.94,2.02-2.02h.39c.4,0,.79.1,1.15.29.81.44,1.1,1.16,1.44,1.93l2.55,5.66.34.72c.16.29.31.51.61.67.3.17.52.15.84.15.57,0,1.03-.46,1.03-1.03v-7.82c0-.31.26-.57.57-.57s.57.26.57.57v7.98c-.08,1.08-.94,1.94-2.02,2.02h-.39c-.4,0-.79-.1-1.15-.29-.81-.44-1.1-1.16-1.44-1.93l-2.55-5.66-.34-.72c-.16-.29-.31-.51-.61-.67-.3-.17-.52-.15-.84-.15-.57,0-1.03.46-1.03,1.03v7.82c0,.31-.26.57-.57.57h0Z"/>
        <path class="cls-4" d="M37.17,37.39c0-1.61,1.32-2.93,2.93-2.93h7.3c.31,0,.57.26.57.57s-.26.57-.57.57h-7.3c-.98,0-1.79.8-1.79,1.79v1.79h8.26c.31,0,.57.26.57.57s-.26.57-.57.57h-8.26v1.8c0,.98.81,1.77,1.79,1.77h7.3c.31,0,.57.26.57.57s-.26.57-.57.57h-7.3c-1.61,0-2.93-1.32-2.93-2.93v-4.71h0Z"/>
        <path class="cls-1" d="M37.17,37.39c0-1.61,1.32-2.93,2.93-2.93h7.3c.31,0,.57.26.57.57s-.26.57-.57.57h-7.3c-.98,0-1.79.8-1.79,1.79v1.79h8.26c.31,0,.57.26.57.57s-.26.57-.57.57h-8.26v1.8c0,.98.81,1.77,1.79,1.77h7.3c.31,0,.57.26.57.57s-.26.57-.57.57h-7.3c-1.61,0-2.93-1.32-2.93-2.93v-4.71h0Z"/>
        <path class="cls-4" d="M59.59,37.37c0-.98-.81-1.77-1.79-1.77h-5.8c-.51,0-.93.42-.93.93v2.64h6.73c.99,0,1.8-.81,1.79-1.8M49.93,36.38c.07-1.03.89-1.85,1.92-1.92h5.95c1.61,0,2.93,1.31,2.93,2.93,0,1.15-.69,2.21-1.74,2.68l-.49.17,1.6,4.02c.12.29-.03.62-.32.74-.29.12-.62-.03-.74-.32l-1.73-4.35h0s-6.23,0-6.23,0v4.14c0,.31-.26.57-.57.57s-.57-.26-.57-.57v-8.08h0Z"/>
        <path class="cls-1" d="M59.59,37.37c0-.98-.81-1.77-1.79-1.77h-5.8c-.51,0-.93.42-.93.93v2.64h6.73c.99,0,1.8-.81,1.79-1.8ZM49.93,36.38c.07-1.03.89-1.85,1.92-1.92h5.95c1.61,0,2.93,1.31,2.93,2.93,0,1.15-.69,2.21-1.74,2.68l-.49.17,1.6,4.02c.12.29-.03.62-.32.74-.29.12-.62-.03-.74-.32l-1.73-4.35h0s-6.23,0-6.23,0v4.14c0,.31-.26.57-.57.57s-.57-.26-.57-.57v-8.08h0Z"/>
        <path class="cls-4" d="M73.14,42.96v-2.14h-3.86c-.31,0-.57-.26-.57-.57s.25-.57.57-.57h4.42c.31,0,.57.25.57.57v2.7c0,1.14-.93,2.06-2.06,2.06h-5.7c-2.1,0-3.82-1.72-3.82-3.83v-2.9c0-2.1,1.72-3.83,3.82-3.83h6.49c.31,0,.57.26.57.57s-.25.57-.57.57h-6.49c-1.47,0-2.69,1.21-2.69,2.69v2.9c0,1.48,1.21,2.69,2.69,2.69h5.7c.51,0,.93-.42.93-.93"/>
        <path class="cls-1" d="M73.14,42.96v-2.14h-3.86c-.31,0-.57-.26-.57-.57s.25-.57.57-.57h4.42c.31,0,.57.25.57.57v2.7c0,1.14-.93,2.06-2.06,2.06h-5.7c-2.1,0-3.82-1.72-3.82-3.83v-2.9c0-2.1,1.72-3.83,3.82-3.83h6.49c.31,0,.57.26.57.57s-.25.57-.57.57h-6.49c-1.47,0-2.69,1.21-2.69,2.69v2.9c0,1.48,1.21,2.69,2.69,2.69h5.7c.51,0,.93-.42.93-.93h0Z"/>
        <path class="cls-4" d="M81.58,45.03c-.31,0-.57-.26-.57-.57v-4.16l-.2-.03c-2.5-.3-4.57-1.96-4.57-4.61v-.62c0-.32.26-.57.58-.57.31,0,.56.26.56.57v.62c0,4.69,8.41,4.69,8.41,0v-.62c0-.32.26-.58.58-.57.3,0,.55.25.56.56v.64c0,2.63-2.06,4.34-4.57,4.62l-.21.02v4.16c0,.31-.26.57-.57.57"/>
        <path class="cls-1" d="M81.58,45.03c-.31,0-.57-.26-.57-.57v-4.16l-.2-.03c-2.5-.3-4.57-1.96-4.57-4.61v-.62c0-.32.26-.57.58-.57.31,0,.56.26.56.57v.62c0,4.69,8.41,4.69,8.41,0v-.62c0-.32.26-.58.58-.57.3,0,.55.25.56.56v.64c0,2.63-2.06,4.34-4.57,4.62l-.21.02v4.16c0,.31-.26.57-.57.57h0Z"/>
        <path class="cls-5" d="M174.4,34.13c-.46,0-.84.38-.84.84s.38.84.84.84.84-.38.84-.84-.38-.84-.84-.84"/>
        <path class="cls-5" d="M172.1,34.13c-.46,0-.84.38-.84.84s.38.84.84.84.84-.38.84-.84-.38-.84-.84-.84"/>
        <path class="cls-5" d="M161.21,34.13c-.46,0-.84.38-.84.84s.38.84.84.84.84-.38.84-.84-.38-.84-.84-.84"/>
        <path class="cls-5" d="M158.91,34.13c-.46,0-.84.38-.84.84s.38.84.84.84.84-.38.84-.84-.38-.84-.84-.84"/>
      </g>
    </g>
  </g>
</svg>