<?xml version="1.0" encoding="UTF-8"?>
<svg id="Layer_2" data-name="Layer 2" xmlns="http://www.w3.org/2000/svg" viewBox="0 0 214.07 53.17">
  <defs>
    <style>
      .cls-1 {
        fill: #514e54;
      }

      .cls-2 {
        fill: #f7d800;
      }
    </style>
  </defs>
  <g id="Layer_1-2" data-name="Layer 1">
    <g>
      <g>
        <path class="cls-1" d="M102.76,4.4l-6.96-1V.58h18.44v2.82l-6.64,1v48h-4.53l-31.96-41.66v37.79l6.96,1.04v2.82h-18.43v-2.82l6.65-1.04V4.4l-6.65-1V.58h17.73l25.39,33.12V4.4Z"/>
        <path class="cls-1" d="M117.59,49.57l6.65-1.04V4.4l-6.65-1V.58h44.13v13.18h-3.52l-1.23-8.38c-.83-.1-1.82-.2-3-.27-1.17-.07-2.37-.13-3.57-.17-1.22-.04-2.36-.06-3.44-.08-1.08-.01-1.92-.02-2.51-.02h-8.04v19.01h13.56l1.2-5.72h3.43v15.92h-3.43l-1.2-5.87h-13.56v19.98h9.78c1.6,0,3.11-.02,4.52-.06,1.42-.04,2.69-.08,3.83-.13,1.13-.05,2.1-.12,2.91-.19.81-.08,1.41-.15,1.8-.23l2.2-9.59h3.52l-.73,14.45h-46.64v-2.82Z"/>
        <path class="cls-1" d="M171,37.9v-1.39h3.41l1.74,8.31c.54.62,1.22,1.19,2.05,1.72.82.53,1.75,1,2.79,1.41,1.03.41,2.13.73,3.3.97,1.17.23,2.36.35,3.57.35,2.01,0,3.73-.23,5.14-.68,1.41-.45,2.56-1.08,3.43-1.88.88-.8,1.52-1.76,1.92-2.88.4-1.12.6-2.35.6-3.69,0-1.55-.39-2.82-1.18-3.83-.79-1.01-1.83-1.87-3.13-2.59-1.3-.72-2.78-1.36-4.43-1.91-1.65-.55-3.34-1.14-5.08-1.76-1.74-.62-3.43-1.33-5.08-2.13-1.65-.8-3.12-1.81-4.42-3.03-1.3-1.22-2.35-2.71-3.14-4.46-.78-1.75-1.18-3.9-1.18-6.45,0-4.56,1.55-8.03,4.65-10.42,3.1-2.38,7.65-3.57,13.62-3.57,1.27,0,2.54.04,3.85.13,1.3.09,2.57.21,3.81.37,1.24.15,2.42.33,3.56.54,1.13.21,2.19.41,3.17.62v12.33h-3.44l-1.74-7.11c-1.13-.82-2.43-1.5-3.9-2.05-1.47-.54-3.23-.81-5.29-.81-1.75,0-3.25.18-4.5.52-1.25.35-2.28.83-3.08,1.45-.79.62-1.38,1.37-1.74,2.24-.35.88-.54,1.85-.54,2.94,0,1.39.4,2.55,1.2,3.48.8.92,1.84,1.73,3.13,2.39,1.29.67,2.76,1.28,4.42,1.82,1.67.54,3.36,1.13,5.11,1.76,1.74.63,3.44,1.35,5.1,2.16,1.66.81,3.13,1.83,4.43,3.05,1.29,1.22,2.33,2.71,3.13,4.46.8,1.75,1.19,3.87,1.19,6.38s-.36,4.8-1.08,6.84c-.72,2.04-1.87,3.77-3.44,5.2-1.57,1.43-3.58,2.53-6.04,3.3-2.45.77-5.41,1.16-8.88,1.16-1.67,0-3.34-.07-4.98-.23-1.65-.15-3.22-.36-4.7-.62-1.48-.26-2.85-.56-4.12-.89-1.26-.33-2.33-.67-3.21-1.01v-12.52"/>
      </g>
      <rect class="cls-2" y=".58" width="51.71" height="51.71"/>
      <rect class="cls-1" x="4.74" y="5.08" width="14.8" height="14.8"/>
      <path class="cls-1" d="M207.25,11.29v-.54h2.76v.54h-1.06v2.7h-.64v-2.7h-1.06ZM211.49,10.74l.83,2.32.83-2.32h.92v3.24h-.6v-2.62l-.9,2.62h-.52l-.9-2.62v2.62h-.6v-3.24h.93Z"/>
    </g>
  </g>
</svg>