<?xml version="1.0" encoding="UTF-8"?>
<svg id="Layer_2" data-name="Layer 2" xmlns="http://www.w3.org/2000/svg" xmlns:xlink="http://www.w3.org/1999/xlink" viewBox="0 0 183.2 119.72">
  <defs>
    <style>
      .cls-1 {
        fill: #00d2c6;
      }

      .cls-2 {
        fill: none;
      }

      .cls-3 {
        fill: url(#radial-gradient);
      }

      .cls-4 {
        fill: #003ca5;
      }

      .cls-5 {
        clip-path: url(#clippath);
      }
    </style>
    <clipPath id="clippath">
      <path class="cls-2" d="M4.06,46.57s0,.02,0,.02c-2.55,3.52-4.07,7.8-4.07,12.42,0,12.01,10.13,21.75,22.62,21.75s22.62-9.74,22.62-21.75c0-4.62-1.51-8.9-4.07-12.42,0,0,0-.02,0-.02l-18.56-25.38L4.06,46.57Z"/>
    </clipPath>
    <radialGradient id="radial-gradient" cx="1818.61" cy="986.98" fx="1818.61" fy="986.98" r="1" gradientTransform="translate(-48709.48 -30185.37) scale(26.79 30.64)" gradientUnits="userSpaceOnUse">
      <stop offset="0" stop-color="#fff"/>
      <stop offset=".23" stop-color="#fee99d"/>
      <stop offset=".37" stop-color="#fedd63"/>
      <stop offset=".49" stop-color="#fdd35b"/>
      <stop offset=".7" stop-color="#fab945"/>
      <stop offset=".97" stop-color="#f68e23"/>
      <stop offset="1" stop-color="#f6891f"/>
    </radialGradient>
  </defs>
  <g id="Layer_1-2" data-name="Layer 1">
    <g>
      <path class="cls-4" d="M165.97,92.52c0,5.12-.54,5.6-7.09,5.6h-.48c-6.52,0-7.09-.48-7.09-5.6v-.27c0-5.18.57-5.63,7.09-5.63h.48c6.52,0,7.09.45,7.09,5.63v.27ZM159.03,83.79h-.74c-9.29,0-10.66.98-10.66,8.37v.48c0,7.29,1.37,8.37,10.66,8.37h.74c9.26,0,10.63-.98,10.63-8.37v-.48c0-7.38-1.37-8.37-10.63-8.37M172.87,100.79h3.39v-11.85h-3.39v11.85ZM125.32,94.66c0-2.5,1.16-3.31,4.38-3.31h.3c3.37,0,3.9.57,3.9,3.28v6.16h3.39v-6.55c0-4.41-1.28-5.51-6.28-5.51h-.3c-3.21,0-4.43.74-5.33,2.26h-.06v-7h-3.39v16.79h3.39v-6.13ZM172.87,86.92h3.39v-2.92h-3.39v2.92ZM179.78,100.79h3.39v-16.79h-3.39v16.79ZM101.8,93.26v.63h3.1c.03-.33.03-.86.03-1.13,0-2.98-.74-4.02-4.52-4.02h-.24c-2.95,0-4.2.95-4.82,2.65h-.06v-2.44h-3.37v11.85h3.4v-6.16c0-2.59,1.07-3.37,3.36-3.37h.21c2.41,0,2.92.3,2.92,1.99M108.17,96.09c0,3.96,1.01,4.91,5.03,4.91h.57c4.29,0,5.66-.98,5.66-4.29v-1.22h-2.95v.69c0,1.9-.3,2.32-2.32,2.32h-.33c-2.02,0-2.29-.27-2.29-2.95v-4.26h7.68v-2.35h-7.68v-3.1h-3.36v3.1h-2.29v2.35h2.29v4.79ZM66.25,97.67h-.12l-12.06-13.67h-5.63v16.79h3.63v-13.67h.12l12.15,13.67h5.54v-16.79h-3.63v13.67ZM76.34,94.66c0-3.01.51-3.48,4.26-3.48h.68c3.78,0,4.26.48,4.26,3.48v.33c0,3.07-.48,3.51-4.26,3.51h-.68c-3.75,0-4.26-.48-4.26-3.51v-.33ZM80.51,101h.92c6.19,0,7.44-1.04,7.44-6.01v-.33c0-4.97-1.28-5.93-7.44-5.93h-.92c-6.16,0-7.5.95-7.5,5.93v.33c0,4.97,1.28,6.01,7.5,6.01"/>
      <path class="cls-4" d="M134.68,109.46l-3.31,6.42h-.04l-3.6-6.42h-1.46l4.15,7.38h.49c-.25.42-.48.75-.68.99-.2.25-.4.43-.6.56-.2.13-.4.21-.63.24-.22.03-.48.05-.78.05h-.39c-.15,0-.27,0-.39-.02v1.04c.16.01.34.02.52.02h.52c.43,0,.8-.03,1.13-.1.32-.07.63-.23.94-.48.3-.25.62-.62.95-1.12.33-.49.71-1.16,1.15-2.01l3.45-6.55h-1.42Z"/>
      <path class="cls-4" d="M124.28,109.98c-.3-.25-.7-.42-1.21-.51-.51-.09-1.16-.14-1.96-.14h-.25c-.59,0-1.1.03-1.51.1-.41.07-.75.17-1.03.3-.28.13-.51.3-.68.49-.18.19-.33.43-.45.69h-.04v-1.46h-1.35v7.54h1.35v-4.07c0-.49.07-.9.2-1.22.13-.32.34-.58.62-.77.28-.19.63-.32,1.05-.4.42-.08.92-.12,1.5-.12h.23c.64,0,1.16.03,1.54.1.38.06.68.19.9.37.21.18.36.44.43.77.07.33.1.75.1,1.27v4.07h1.34v-4.37c0-.67-.06-1.22-.17-1.64-.11-.42-.32-.76-.62-1"/>
      <path class="cls-4" d="M112.68,109.96c-.3-.26-.73-.42-1.29-.5-.56-.08-1.31-.11-2.24-.11h-.32c-.74,0-1.37.03-1.89.1s-.93.17-1.26.33c-.32.16-.55.38-.69.66-.14.28-.21.65-.21,1.09v.17h1.31v-.11c0-.24.03-.44.1-.6.07-.16.21-.29.41-.39.2-.09.48-.16.83-.2.35-.04.81-.06,1.36-.06h.28c.69,0,1.24.02,1.64.07.4.04.7.15.9.31.2.16.33.4.39.7.06.3.08.71.08,1.23v.57h-.06c-.11-.17-.26-.3-.43-.41-.18-.11-.4-.19-.67-.25-.27-.06-.6-.1-.99-.12-.39-.02-.85-.04-1.38-.04h-.32c-.72,0-1.32.03-1.8.1s-.86.19-1.15.36c-.28.17-.49.4-.61.69-.12.29-.18.66-.18,1.1v.17c0,.44.05.81.15,1.11.1.3.29.53.57.71.28.18.67.3,1.17.38.51.08,1.15.11,1.95.11h.3c.53,0,.98-.02,1.35-.06.37-.04.69-.1.95-.18.26-.08.48-.19.65-.31.18-.13.33-.28.47-.47h.04v.89h1.33v-4.04c0-.79-.05-1.43-.15-1.9-.1-.47-.3-.84-.61-1.1M112.11,114.77c0,.28-.04.51-.12.69-.08.18-.23.32-.45.42-.22.1-.53.17-.94.21-.4.04-.93.06-1.57.06h-.23c-.64,0-1.16-.02-1.54-.05-.39-.03-.68-.1-.89-.19-.21-.1-.35-.24-.42-.42-.07-.18-.11-.42-.11-.72v-.08c0-.28.04-.51.11-.68.07-.17.2-.31.41-.4.2-.09.49-.16.85-.19.37-.03.85-.05,1.46-.05h.26c.64,0,1.17.01,1.58.04.41.02.74.08.98.18.24.09.4.23.49.4.09.17.13.4.13.68v.09Z"/>
      <path class="cls-4" d="M72.22,110.02c-.34-.27-.82-.46-1.42-.55-.61-.1-1.4-.14-2.37-.14h-.44c-.97,0-1.77.05-2.38.14-.61.1-1.09.28-1.43.55-.34.27-.58.65-.7,1.15-.13.49-.19,1.13-.19,1.93v.25c0,.8.06,1.44.18,1.93.12.49.35.88.69,1.15s.82.46,1.43.56c.61.1,1.41.15,2.4.15h.44c.99,0,1.78-.05,2.39-.15.61-.1,1.08-.29,1.41-.56s.56-.65.68-1.15c.12-.49.18-1.13.18-1.93v-.25c0-.8-.06-1.44-.18-1.93-.12-.49-.35-.87-.69-1.15M71.75,113.34c0,.59-.04,1.07-.1,1.42s-.22.62-.46.82c-.24.19-.58.32-1.02.38-.44.06-1.03.09-1.78.09h-.38c-.74,0-1.34-.03-1.78-.09-.44-.06-.78-.19-1.02-.38-.24-.19-.39-.46-.46-.82-.07-.35-.1-.83-.1-1.42v-.25c0-.59.03-1.07.1-1.42.07-.35.22-.62.46-.81.24-.19.58-.32,1.02-.38.44-.06,1.04-.09,1.78-.09h.38c.75,0,1.34.03,1.78.09.44.06.78.19,1.02.38.24.19.39.46.46.81.07.35.1.83.1,1.42v.25Z"/>
      <path class="cls-4" d="M59.97,113.72c0,.46-.04.83-.13,1.13-.09.29-.29.52-.62.68-.32.16-.79.27-1.41.32-.62.06-1.47.09-2.54.09h-.38c-1.14,0-2.04-.04-2.7-.13-.66-.09-1.17-.27-1.51-.56-.34-.28-.56-.7-.65-1.25-.1-.55-.14-1.29-.14-2.23v-.19c0-.95.05-1.7.15-2.25.1-.55.33-.97.67-1.26.35-.29.85-.48,1.51-.56.66-.08,1.55-.12,2.67-.12h.38c1.04,0,1.86.03,2.46.08.61.06,1.07.16,1.38.32.31.16.51.38.6.65s.13.63.13,1.06v.19h1.4v-.3c0-.65-.07-1.19-.21-1.61-.14-.42-.42-.74-.84-.97-.42-.23-1.02-.39-1.8-.48-.78-.09-1.8-.13-3.08-.13h-.45c-1.39,0-2.5.06-3.34.19-.84.13-1.49.38-1.94.77-.45.38-.76.92-.91,1.62-.15.69-.23,1.61-.23,2.75v.3c0,1.15.08,2.07.23,2.76.15.69.46,1.23.92,1.61.46.38,1.11.63,1.95.76.84.13,1.95.19,3.33.19h.46c1.28,0,2.31-.05,3.1-.14.79-.09,1.4-.26,1.85-.5.44-.24.74-.57.9-.99.16-.42.24-.95.24-1.59v-.34h-1.44v.15Z"/>
      <path class="cls-4" d="M101.87,110.04c-.31-.27-.75-.46-1.31-.56-.56-.1-1.28-.15-2.16-.15h-.23c-.58,0-1.07.02-1.48.07-.41.04-.76.12-1.05.22-.29.1-.53.24-.72.41-.19.17-.35.38-.47.63h-.04v-1.19h-1.31v10.2h1.34v-3.88h.04c.24.5.63.85,1.18,1.05.55.2,1.36.29,2.45.29h.28c.87,0,1.58-.05,2.14-.15.56-.1,1-.29,1.32-.57.32-.28.54-.66.66-1.15.12-.49.18-1.14.18-1.93v-.21c0-.8-.06-1.44-.18-1.93-.12-.49-.34-.87-.65-1.15M101.36,113.31c0,.59-.04,1.07-.1,1.42-.07.35-.22.63-.45.83-.23.2-.55.33-.97.4-.42.06-.98.1-1.68.1h-.38c-.72,0-1.3-.03-1.73-.1-.43-.06-.77-.19-1.01-.39-.24-.2-.4-.47-.48-.83-.08-.36-.12-.84-.12-1.43v-.21c0-.59.04-1.07.12-1.43.08-.36.24-.63.47-.82.23-.19.57-.31,1.01-.37.44-.06,1.02-.08,1.74-.08h.38c.69,0,1.25.03,1.68.09.42.06.75.19.97.38.23.19.38.46.45.82.07.36.1.83.1,1.41v.21Z"/>
      <path class="cls-4" d="M90,109.98c-.27-.25-.62-.42-1.08-.51-.45-.09-1.04-.14-1.74-.14h-.25c-.55,0-1.03.05-1.43.14-.4.09-.73.22-.99.39-.26.16-.48.36-.64.58-.16.22-.3.45-.4.69h-.02c-.07-.3-.18-.57-.31-.79-.13-.23-.32-.42-.57-.57-.25-.15-.57-.26-.96-.33-.4-.07-.89-.1-1.49-.1h-.23c-.49,0-.92.04-1.29.11-.37.08-.68.19-.95.33-.26.15-.48.32-.65.51-.17.2-.31.41-.41.63h-.04v-1.46h-1.34v7.54h1.34v-4.09c0-.48.06-.88.18-1.2.12-.32.3-.58.55-.77.25-.19.55-.32.93-.4.37-.08.82-.12,1.33-.12h.21c.51,0,.92.03,1.25.09.33.06.59.18.78.36.19.18.32.43.4.76.08.32.11.75.11,1.28v4.09h1.35v-3.98c0-.49.06-.9.17-1.24.11-.33.29-.6.54-.8.25-.2.55-.34.92-.43.37-.08.81-.12,1.32-.12h.25c.52,0,.94.03,1.27.1.33.06.59.19.78.37.19.18.32.44.39.76.07.32.1.75.1,1.28v4.07h1.34v-4.41c0-.64-.05-1.18-.16-1.6-.11-.42-.29-.76-.56-1"/>
      <path class="cls-4" d="M178.31,41.83c0,.28.1.52.3.71.2.19.44.29.72.29s.52-.1.71-.29c.19-.19.29-.43.29-.71s-.1-.52-.29-.72c-.19-.2-.43-.3-.71-.3s-.52.1-.72.3c-.2.2-.3.44-.3.72M177.92,40.48c.28,0,.52-.1.72-.3.2-.2.3-.43.3-.7,0-.29-.1-.54-.3-.73-.2-.19-.44-.29-.72-.29s-.5.1-.7.29c-.2.19-.3.44-.3.73,0,.27.1.51.3.7s.43.3.7.3M127.44,47.91c.17-.3.38-.54.65-.72.27-.18.58-.31.93-.38.35-.08.71-.12,1.09-.12s.68.02.97.07c.29.04.57.09.85.14.27.05.56.1.86.15.3.04.63.07,1,.07s.61-.05.75-.14v.47c0,.3,0,.63.02,1,0,.42,0,.91.02,1.47,0,.65-.14,1.08-.43,1.28-.29.2-.73.31-1.32.31h-2.21c-.38,0-.78-.05-1.18-.14-.4-.1-.77-.24-1.11-.44-.33-.2-.61-.45-.82-.76-.21-.31-.32-.69-.32-1.14s.08-.82.25-1.12M127.34,51.78c.42.32.92.55,1.47.71.56.16,1.15.24,1.76.24h2.25c1.07,0,1.87-.27,2.41-.81.29.32.59.54.89.65.29.11.69.16,1.18.16h12.6c.48,0,.89-.14,1.24-.43.34-.29.52-.66.52-1.11,0-.26-.07-.52-.21-.8-.14-.28-.36-.55-.65-.82l-4.01-3.85,4.53-3c.1-.07.17-.1.19-.1s.04,0,.05.03c0,.02.02.03.05.03.01,0,.02-.04.02-.11v-.79c0-.24-.11-.36-.33-.36-.04,0-.08,0-.12.02-.04.01-.08.03-.14.06l-6.25,4.04,5.05,4.86c.18.18.3.33.36.43.06.11.1.21.1.32,0,.17-.07.27-.21.32-.14.04-.28.07-.41.07h-12.64c-.14,0-.28-.01-.42-.03-.14-.02-.27-.06-.39-.12-.12-.06-.22-.15-.3-.25-.08-.1-.11-.24-.11-.42v-5.26h-1.17c0,.07-.01.13-.04.18-.05.12-.15.21-.31.26-.1.03-.2.04-.31.04-.33,0-.82-.05-1.46-.15-.64-.1-1.39-.19-2.23-.25-.09-.01-.17-.02-.25-.02h-.25c-1.15,0-2.08.3-2.77.89-.69.59-1.04,1.48-1.04,2.66,0,.59.13,1.12.38,1.58.25.46.59.85,1.01,1.17M129.88,42.83c.28,0,.52-.1.71-.29.19-.19.29-.44.29-.73,0-.27-.1-.5-.29-.7-.19-.2-.43-.3-.71-.3s-.52.1-.71.3c-.19.2-.29.43-.29.7,0,.3.1.54.29.73.19.19.43.29.71.29M176.52,42.83c.28,0,.52-.1.71-.29.19-.19.29-.43.29-.71s-.1-.52-.29-.72c-.19-.2-.43-.3-.71-.3s-.52.1-.71.3c-.19.2-.29.44-.29.72s.1.52.29.71c.19.19.43.29.71.29M177.22,52.42c.3-.15.53-.35.69-.6.18.23.41.43.68.6.4.24.94.36,1.64.36,1.03,0,1.78-.23,2.26-.68.47-.45.71-1.12.71-1.99v-4.68h-.72c-.37,0-.55.17-.55.5v4.24c0,.49-.15.85-.44,1.08-.3.23-.71.35-1.23.35-.55,0-.98-.13-1.26-.38-.29-.25-.43-.59-.43-1.03v-4.76h-1.23v4.76c0,.45-.18.8-.53,1.04-.35.24-.8.37-1.33.37h-.11c-.52,0-.93-.12-1.23-.35-.29-.23-.44-.59-.44-1.08v-4.74h-1.27v4.99c0,.1-.02.22-.06.35-.04.13-.11.25-.2.37-.1.12-.23.21-.4.29-.17.08-.37.12-.61.12h-.89v-.02h-11.26v.02h-.5c-.26,0-.48-.04-.66-.11-.19-.07-.29-.25-.32-.55v-5.45h-.69c-.26,0-.41.07-.46.2-.05.13-.08.27-.08.41v6.55c0,1.26-.25,2.23-.76,2.89-.51.66-1.33,1-2.47,1-.54,0-.93-.04-1.16-.11-.03-.01-.04.01-.05.08,0,.06-.01.14-.01.21v.55c0,.1.03.19.1.26.06.07.14.11.24.15.1.03.19.05.29.07s.18.02.26.02c1.72,0,2.95-.46,3.69-1.37.74-.91,1.11-2.24,1.11-3.97.14.14.3.24.49.29.19.05.43.08.72.08h12.59c.35,0,.68-.06,1.01-.18.33-.12.59-.32.78-.59.12.17.26.3.44.4s.38.19.59.25c.21.07.43.11.66.14.23.02.43.04.63.04.33,0,.65-.03.95-.09.3-.06.58-.15.84-.28M132.7,42.83c.28,0,.52-.1.71-.29.19-.19.29-.44.29-.73,0-.27-.1-.5-.29-.7-.19-.2-.43-.3-.71-.3s-.52.1-.72.3c-.2.2-.3.43-.3.7,0,.3.1.54.3.73.2.19.44.29.72.29"/>
      <path class="cls-1" d="M61.74,0h-7.96c-2.03,0-3.67,1.65-3.67,3.67v26.06L29.42,1.5c-.69-.94-1.79-1.5-2.96-1.5h-15.08c-2.03,0-3.67,1.65-3.67,3.67v32.46l12.32-16.84,2.6-3.55,2.6,3.55,18.56,25.38.83,1.15v.06c2.29,3.58,3.59,7.61,3.81,11.81h13.31c2.03,0,3.67-1.64,3.67-3.67V3.67c0-2.03-1.64-3.67-3.67-3.67"/>
      <path class="cls-4" d="M108.97,59.86c0-.91-.7-1.55-1.55-1.55s-1.52.64-1.52,1.55c0,.82.7,1.52,1.52,1.52s1.55-.7,1.55-1.52M109.55,64.95c.85,0,1.52-.67,1.52-1.52s-.67-1.55-1.52-1.55-1.55.7-1.55,1.55.7,1.52,1.55,1.52M63.5,63.7v10.89c0,1.73-.32,1.73-2.55,1.73h-8.1c-.79,0-1.23-.38-1.32-1.14v-6.99h-1.7c-1.26,0-1.4.41-1.4,1.55v2.28c0,1.2.03,2.49.03,2.81,0,2.11.56,4.48,4.86,4.48h8.83c1.67,0,2.84-.32,3.51-.94.67-.61.93-1.61.93-2.98v-13.2h-1.76c-1.02,0-1.35.5-1.35,1.52M128.54,63.52v15.77h3.07v-17.12h-1.61c-1.26,0-1.46.15-1.46,1.35M84.79,76.37c-1.87,0-2.96-.58-2.96-2.11.09-.91.44-1.46.76-1.7.29-.21,1.93-1.35,2.22-1.73.47.41,2.28,1.64,2.34,1.7.64.5.97,1.11.97,1.81,0,1.49-1.58,2.02-3.34,2.02M122.03,63.7v10.89c0,1.73.81,1.73-1.42,1.73h-3.13c-.79,0-1.23-.38-1.32-1.14v-6.99h-1.7c-1.26,0-1.4.41-1.4,1.55v2.28c0,1.2.03,2.49.03,2.81,0,1.17-.91,1.64-1.96,1.64s-2.22-.35-2.22-1.52v-6.76h-3.1v6.7c0,1.14-1.14,1.55-2.2,1.55-1.17,0-2.05-.41-2.14-1.61v-6.64h-3.16v6.99c-.09.76-.53,1.14-1.32,1.14h-4.72c-.79,0-1.26-.15-1.35-.7.15-.53.24-1.08.24-1.64,0-2.17-1.46-3.42-2.22-3.89-2.17-1.4-2.52-1.67-2.66-1.76-.26-.09-.59-.15-1.05-.15h-3.04c-.26,0-.41.06-.41.18,0,.09.06.2.2.29l.53.38-1.08.7c-1.2.79-2.66,2.4-2.66,4.24,0,.44.12.76.12,1.08,0,.97-.82,1.26-1.96,1.26h-3.12c-.85,0-.85-.15-.85-1.11v-13.02h-1.64c-1.14,0-1.46.21-1.46,1.4v12.82c0,1.76.56,2.9,2.52,2.9h5.58c.85,0,2.25-.5,2.66-1.46,1.14,1.14,2.34,1.52,4.33,1.52,1.76,0,3.39-.47,4.57-1.52.46.46,1.54,1.42,3.13,1.46h0s4.78,0,4.78,0c.94,0,1.58-.26,2.02-.53.23-.14.44-.32.61-.53.76,1.08,3.51,1.2,3.77,1.2,1.26,0,2.81-.29,3.66-1.2.91.79,2.2,1.17,3.89,1.17,1.52,0,2.81-.47,3.72-1.43.29.44,1.29,1.32,2.87,1.32h2.73c1.67,0,2.84-.32,3.51-.94.67-.61.94-1.61.94-2.98v-13.2h-1.76c-1.02,0-1.35.5-1.35,1.52M170.5,76.31c-2.02-.12-2.98-1.38-2.98-2.98,0-1.73,1.08-3.02,2.93-3.02s3.01,1.29,3.01,3.02c0,1.9-1.08,2.9-2.96,2.98M180.1,69.69v4.89c0,1.49-.56,1.73-1.82,1.73h-2.46c.44-.82.73-1.84.73-2.98,0-3.48-2.58-6-6.06-6s-6.09,2.57-6.09,6c0,1.08.26,2.28.94,2.98h-5.18c.56-.88.82-1.93.82-3.13,0-1.84-.76-3.31-1.9-4.33-1.08-.97-2.58-1.52-4.68-1.52-2.57,0-4.8,1.2-6.17,1.73l-4.09,1.8v-9.13h-1.64c-1.26,0-1.46.15-1.46,1.35v11.97c0,.23.09.35.29.35.09,0,.17-.03.29-.09,5.9-2.82,8.07-3.79,9.33-4.29.97-.35,2.11-.7,3.37-.7,2.22.15,3.57,1.17,3.57,2.96,0,2.31-1.67,3.04-4.15,3.04h-15.3c-.56,0-.64,0-.85-.2-.06-.06-.12-.09-.21-.09-.06.03-.09.12-.09.23v2.37c0,.44.41.67.85.67h40.34c3.1,0,4.71-.88,4.71-3.92v-7.2h-1.73c-1.02,0-1.35.5-1.35,1.52M103.76,63.43c0,.85.67,1.52,1.52,1.52s1.52-.67,1.52-1.52-.67-1.55-1.52-1.55-1.52.7-1.52,1.55M181.65,64.95c.85,0,1.55-.7,1.55-1.52,0-.91-.7-1.55-1.55-1.55s-1.52.64-1.52,1.55c0,.82.67,1.52,1.52,1.52M170.55,64.95c.85,0,1.55-.7,1.55-1.52,0-.91-.7-1.55-1.55-1.55s-1.52.64-1.52,1.55c0,.82.67,1.52,1.52,1.52"/>
      <g class="cls-5">
        <rect class="cls-3" x="0" y="21.19" width="45.25" height="59.57"/>
      </g>
    </g>
  </g>
</svg>