<?xml version="1.0" encoding="UTF-8"?>
<svg id="Layer_2" data-name="Layer 2" xmlns="http://www.w3.org/2000/svg" xmlns:xlink="http://www.w3.org/1999/xlink" viewBox="0 0 2658.03 307.75">
  <defs>
    <style>
      .cls-1 {
        fill: #866daa;
      }

      .cls-2 {
        clip-path: url(#clippath-38);
      }

      .cls-3 {
        clip-path: url(#clippath-39);
      }

      .cls-3, .cls-4, .cls-5, .cls-6, .cls-7 {
        fill: #7b7d81;
      }

      .cls-8 {
        clip-path: url(#clippath-17);
      }

      .cls-9 {
        clip-path: url(#clippath-23);
      }

      .cls-10 {
        clip-path: url(#clippath-43);
      }

      .cls-11 {
        clip-path: url(#clippath-11);
      }

      .cls-5 {
        clip-path: url(#clippath-37);
      }

      .cls-12 {
        clip-path: url(#clippath-35);
      }

      .cls-13 {
        clip-path: url(#clippath-45);
      }

      .cls-14 {
        clip-path: url(#clippath-40);
      }

      .cls-15 {
        clip-path: url(#clippath-5);
      }

      .cls-16 {
        clip-path: url(#clippath-20);
      }

      .cls-17 {
        clip-path: url(#clippath-8);
      }

      .cls-18 {
        clip-path: url(#clippath-41);
      }

      .cls-19 {
        clip-path: url(#clippath-26);
      }

      .cls-20 {
        clip-path: url(#clippath-14);
      }

      .cls-21 {
        clip-path: url(#clippath-32);
      }

      .cls-6 {
        clip-path: url(#clippath-44);
      }

      .cls-22 {
        clip-path: url(#clippath-2);
      }

      .cls-23 {
        clip-path: url(#clippath-29);
      }

      .cls-7 {
        clip-path: url(#clippath-42);
      }

      .cls-24 {
        clip-path: url(#clippath);
      }
    </style>
    <clipPath id="clippath">
      <polygon class="cls-4" points="1908.99 0 1908.94 307.75 1919.44 307.75 1919.52 0 1908.99 0"/>
    </clipPath>
    <clipPath id="clippath-2">
      <polygon class="cls-1" points="7.18 25.38 7.18 33.49 27.53 56.4 27.5 213.5 0 221.18 0 230.37 74.53 230.4 74.53 221.13 51.06 214.93 45.03 207.55 45.06 76.45 175.66 231.98 187.17 231.98 187.2 45.11 214.82 36.77 214.82 27.02 139.23 27.01 139.21 37.98 163.25 44.01 169.09 51.38 169.09 175.56 169 175.43 167.49 175.43 40.79 25.38 7.18 25.38"/>
    </clipPath>
    <clipPath id="clippath-5">
      <path class="cls-1" d="M247.27,155.47c0-34.42,13.22-57.46,39.64-57.44,29.48,0,48.23,29.18,48.23,63.61s-13.83,58.37-40.27,58.37c-31.04,0-47.63-30.11-47.61-64.54M218.72,159.78c-.03,50.39,35.3,74.06,72.18,74.06,34.09.01,72.82-28.24,72.82-76.51.01-50.08-36.54-72.83-72.79-72.83-34.73-.01-72.22,25.19-72.22,75.27"/>
    </clipPath>
    <clipPath id="clippath-8">
      <path class="cls-1" d="M672.26,10.21l-45.5,15.36v7.06c14.76,0,21.54,7.3,21.52,34.14v148.12s-20.3,7.66-20.3,7.66v7.99l71.56.03-.04-7.79-19.87-6.96-5.87-7.4.02-65.76-.02-22.76s12.3-14.14,31.36-14.14c22.41.02,41.76,6.78,41.76,41.22l-.93,68.12-19.68,7.46v8h71.54s0-7.76,0-7.76l-19.86-6.96-5.9-7.37.05-76.25c.02-37.14-23.35-47.62-48.54-47.63-20.32,0-49.81,23.65-49.81,23.65l.02-42.7c0-23.68,1.57-55.34,1.57-55.34h-3.09Z"/>
    </clipPath>
    <clipPath id="clippath-11">
      <path class="cls-1" d="M1081.61,98.84c19.66,0,28.86,9.83,28.86,22.73,0,15.06-5.24,17.83-19.98,18.44l-45.14,1.54c0-24.59,15.67-42.72,36.26-42.7M1018,159.96c0,47.94,31.32,74.05,66.36,74.06,25.81,0,46.38-15.67,53.76-23.02l-3.09-5.87s-20.59,7.06-37.78,7.06c-27.67,0-51.91-17.83-51.9-60.54l90.62.02s1.54-7.67,1.54-16.28c.01-33.18-22.71-50.7-51.91-50.71-37.49,0-67.59,31.66-67.62,75.29"/>
    </clipPath>
    <clipPath id="clippath-14">
      <path class="cls-1" d="M1168.3,125.56c0,22.14,11.05,31.35,33.48,42.7l15.66,8.03c11.69,6.13,21.23,12.28,21.23,23.95-.03,12.3-7.08,21.52-24.9,21.52-17.52-.01-31.05-12.92-34.71-32.9h-13.53l1.83,29.2c.32,6.45,5.84,9.54,7.98,10.44,8.92,3.71,22.75,5.55,38.43,5.55,24.56,0,49.77-15.05,49.77-40.26,0-20.87-7.04-31.67-32.25-44.56l-13.85-7.07c-24.26-12.59-28.22-16.92-28.22-26.73,0-12.3,11.67-17.21,24.26-17.21,18.73,0,27.95,8.31,27.95,30.71l12.61.02,4-35.96s-16.9-8.29-38.71-8.29c-31.04-.01-51.02,13.19-51.02,40.85"/>
    </clipPath>
    <clipPath id="clippath-17">
      <path class="cls-1" d="M1461.43,98.89c19.68.02,28.87,9.85,28.87,22.75,0,15.07-5.21,17.83-19.97,18.45l-45.17,1.53c0-24.59,15.69-42.73,36.27-42.73M1397.8,160.04c0,47.94,31.33,74.06,66.36,74.06,25.8,0,46.41-15.66,53.77-23.02l-3.06-5.87s-20.59,7.09-37.8,7.07c-27.67,0-51.95-17.82-51.92-60.55l90.65.02s1.55-7.67,1.55-16.29c0-33.18-22.74-50.69-51.94-50.71-37.47,0-67.61,31.66-67.62,75.29"/>
    </clipPath>
    <clipPath id="clippath-20">
      <path class="cls-1" d="M1708.05,83.89l-44.89,16.29v7.35c17.21.03,21.81,15.38,21.81,43.04l-.02,64.54-20.28,7.67v7.99h70.65s.57-7.76.57-7.76l-19.87-6.96-5.89-7.38v-88.21s10.79-14.47,30.17-14.47,40.53,7.11,40.53,41.22l-.97,68.17-19.61,7.4v7.99l70.65.03.58-7.79-19.88-6.95-5.87-7.4.32-77.76c0-35.95-23.38-46.08-47.33-46.11-20.28,0-48.86,23.67-48.86,23.67,0-12.93.61-24.6.61-24.6h-2.43Z"/>
    </clipPath>
    <clipPath id="clippath-23">
      <path class="cls-1" d="M795.55,96.92c9.83,0,12.83,8.29,18.01,22.45l37.06,112.76h12.88l37.76-91.27,32.9,91.29h14.49l37.05-105.09c9.83-25.18,15.99-28.59,28.58-30.11v-8.59h-55s0,7.99,0,7.99l20.88,7.35-32.39,92.81-31.15-93.43,18.49-5.54v-9.19l-58.66-.03v8.62s10.53,2.59,10.53,2.59l8.34,23.79-5.66,14.8-24.29,58.36-27.64-93.42,18.46-6.05v-8.69h-60.64s0,8.6,0,8.6Z"/>
    </clipPath>
    <clipPath id="clippath-26">
      <path class="cls-1" d="M543.01,55.98l-7.71,34.71-25.17,2.45v12c13.82,0,25.17,1.23,25.17,14.45s-1.22,54.69-1.23,71.29c0,31.35,11.94,43.04,31.95,43.04,17.19,0,31.31-7.08,44.23-17.53l-3.38-7.04s-8.6,5.52-21.5,5.52c-13.82,0-26.42-7.68-26.13-26.76l1.27-80.52,45.46.03h.42l.61-5.01,3.11-25.24-5.82-1.02-4.42,9.61-2.52,2.11-36.15,1.4-.39.02v-36.57l-17.8,3.07Z"/>
    </clipPath>
    <clipPath id="clippath-29">
      <path class="cls-1" d="M1315.74,56.16l-7.68,34.71-25.21,2.45v11.99c13.83,0,25.21,1.24,25.21,14.44-.02,13.24-1.26,54.71-1.26,71.29,0,31.35,11.97,43.03,31.95,43.03,17.21,0,31.34-7.07,44.25-17.51l-3.36-7.06s-8.64,5.52-21.52,5.52c-13.84,0-26.44-7.69-26.11-26.74l1.23-80.52h45.47s.01,0,.01,0h.07l.64-4.98,3.1-25.25-5.86-1.04-4.38,9.61-2.53,2.1-36.16,1.41v.02h-.04v-36.56l-17.83,3.07Z"/>
    </clipPath>
    <clipPath id="clippath-32">
      <path class="cls-1" d="M427.28,83.62l-43.94,16.28v7.36c16.59,0,21.8,15.06,21.79,40.57v67l-20.28,7.67v7.99h70.63l-.02-7.76-19.87-6.96-5.9-7.39v-65.78c.01-20.29,16.03-31.64,33.23-31.63,3.54,0,7.14.84,10.24,1.89l4.78,7.1,5.9.49,4.58-34.07v-.02c-.16-.04-5.36-1.83-15.35-1.83-21.54,0-43.96,33.8-43.96,33.8,0-18.74.62-34.73.62-34.73h-2.46Z"/>
    </clipPath>
    <clipPath id="clippath-35">
      <path class="cls-1" d="M1583.88,83.87l-43.96,16.28v7.36c16.59,0,21.81,15.07,21.81,40.6l-.02,66.98-20.26,7.67v8h70.65l-.04-7.76-19.86-6.96-5.89-7.4v-65.76c0-20.29,16.01-31.66,33.21-31.66,3.51.02,7.11.88,10.2,1.9l4.81,7.12,5.93.48,4.56-34.08v-.02c-.16-.04-5.38-1.84-15.36-1.84-21.54,0-43.96,33.81-43.96,33.81,0-18.73.64-34.73.64-34.73h-2.48Z"/>
    </clipPath>
    <clipPath id="clippath-37">
      <path class="cls-4" d="M2039.86,198.15c-10.62-11.07-11.04-29.96-11.04-44.08s.45-33.2,11.06-44.29c6.08-6.5,15.44-10.19,24.32-10.17,8.9,0,18.25,3.69,24.3,10.2,10.65,11.06,11.07,30.19,11.07,44.3,0,12.58-.43,29.07-8.05,40.36l-16.92-21.48-16.95,13.22,16.49,20.64c-3.26,1.08-6.72,1.52-9.98,1.52-8.91,0-18.23-3.71-24.32-10.21"/>
    </clipPath>
    <clipPath id="clippath-38">
      <path class="cls-5" d="M2019.93,91.55c-16.71,16.7-19.53,37.34-19.56,62.52,0,25.19,2.83,45.58,19.53,62.31,11.72,11.72,27.77,17.36,44.29,17.39,9.33,0,18.44-1.75,26.9-5.44l14.32,17.81,16.73-13.02-13.46-16.93c16.52-16.72,19.33-36.91,19.33-62.09s-2.8-45.8-19.52-62.53c-11.7-11.73-27.78-17.38-44.28-17.38s-32.54,5.64-44.28,17.36"/>
    </clipPath>
    <clipPath id="clippath-39">
      <polygon class="cls-4" points="2186.23 176.24 2208.15 111.35 2230.07 176.26 2186.23 176.24"/>
    </clipPath>
    <clipPath id="clippath-40">
      <polygon class="cls-3" points="2193.41 77.05 2139.32 230.94 2167.54 230.96 2177.54 201.43 2238.75 201.45 2248.71 230.98 2278.04 230.98 2224.01 77.05 2193.41 77.05"/>
    </clipPath>
    <clipPath id="clippath-41">
      <polygon class="cls-4" points="2267.46 103.1 2313.03 103.13 2313.02 230.98 2341 230.98 2341.03 103.13 2386.62 103.13 2386.64 77.08 2267.46 77.08 2267.46 103.1"/>
    </clipPath>
    <clipPath id="clippath-42">
      <polygon class="cls-4" points="2427 176.29 2448.94 111.4 2470.84 176.32 2427 176.29"/>
    </clipPath>
    <clipPath id="clippath-43">
      <polygon class="cls-7" points="2434.19 77.1 2380.1 230.99 2408.33 231.01 2418.32 201.49 2479.54 201.5 2489.53 231.03 2518.82 231.03 2464.81 77.1 2434.19 77.1"/>
    </clipPath>
    <clipPath id="clippath-44">
      <path class="cls-4" d="M2567.71,101.65h36.91c15.84,0,25.39,10.88,25.38,23.24,0,14.56-9.11,22.8-24.95,22.8h-37.34v-46.03Z"/>
    </clipPath>
    <clipPath id="clippath-45">
      <path class="cls-6" d="M2539.68,231.03l28.23.02v-58.2s34.09.03,34.09.03l25.6,58.17h30.41s-28.22-62.95-28.22-62.95c16.95-6.29,28.24-22.57,28.24-43.18,0-24.76-16.7-47.76-53.4-47.78l-64.91-.02-.03,153.91Z"/>
    </clipPath>
  </defs>
  <g id="Layer_1-2" data-name="Layer 1">
    <g>
      <g>
        <polygon class="cls-4" points="1908.99 0 1908.94 307.75 1919.44 307.75 1919.52 0 1908.99 0"/>
        <g class="cls-24">
          <rect class="cls-4" x="1799.03" y="44.06" width="230.41" height="219.63" transform="translate(484.25 1435.72) rotate(-46.47)"/>
        </g>
      </g>
      <g>
        <polygon class="cls-1" points="7.18 25.38 7.18 33.49 27.53 56.4 27.5 213.5 0 221.18 0 230.37 74.53 230.4 74.53 221.13 51.06 214.93 45.03 207.55 45.06 76.45 175.66 231.98 187.17 231.98 187.2 45.11 214.82 36.77 214.82 27.02 139.23 27.01 139.21 37.98 163.25 44.01 169.09 51.38 169.09 175.56 169 175.43 167.49 175.43 40.79 25.38 7.18 25.38"/>
        <g class="cls-22">
          <rect class="cls-1" x="-41.46" y="-20.34" width="297.74" height="298.04" transform="translate(-59.86 117.93) rotate(-46.47)"/>
        </g>
      </g>
      <g>
        <path class="cls-1" d="M247.27,155.47c0-34.42,13.22-57.46,39.64-57.44,29.48,0,48.23,29.18,48.23,63.61s-13.83,58.37-40.27,58.37c-31.04,0-47.63-30.11-47.61-64.54M218.72,159.78c-.03,50.39,35.3,74.06,72.18,74.06,34.09.01,72.82-28.24,72.82-76.51.01-50.08-36.54-72.83-72.79-72.83-34.73-.01-72.22,25.19-72.22,75.27"/>
        <g class="cls-15">
          <rect class="cls-1" x="187.12" y="55.16" width="208.19" height="208.03" transform="translate(-24.76 260.67) rotate(-46.47)"/>
        </g>
      </g>
      <g>
        <path class="cls-1" d="M672.26,10.21l-45.5,15.36v7.06c14.76,0,21.54,7.3,21.52,34.14v148.12s-20.3,7.66-20.3,7.66v7.99l71.56.03-.04-7.79-19.87-6.96-5.87-7.4.02-65.76-.02-22.76s12.3-14.14,31.36-14.14c22.41.02,41.76,6.78,41.76,41.22l-.93,68.12-19.68,7.46v8h71.54s0-7.76,0-7.76l-19.86-6.96-5.9-7.37.05-76.25c.02-37.14-23.35-47.62-48.54-47.63-20.32,0-49.81,23.65-49.81,23.65l.02-42.7c0-23.68,1.57-55.34,1.57-55.34h-3.09Z"/>
        <g class="cls-17">
          <rect class="cls-1" x="573.49" y="-17.5" width="277.57" height="275.79" transform="translate(134.41 553.88) rotate(-46.47)"/>
        </g>
      </g>
      <g>
        <path class="cls-1" d="M1081.61,98.84c19.66,0,28.86,9.83,28.86,22.73,0,15.06-5.24,17.83-19.98,18.44l-45.14,1.54c0-24.59,15.67-42.72,36.26-42.7M1018,159.96c0,47.94,31.32,74.05,66.36,74.06,25.81,0,46.38-15.67,53.76-23.02l-3.09-5.87s-20.59,7.06-37.78,7.06c-27.67,0-51.91-17.83-51.9-60.54l90.62.02s1.54-7.67,1.54-16.28c.01-33.18-22.71-50.7-51.91-50.71-37.49,0-67.59,31.66-67.62,75.29"/>
        <g class="cls-11">
          <rect class="cls-1" x="982.55" y="64.37" width="191.02" height="189.96" transform="translate(220.02 831.19) rotate(-46.47)"/>
        </g>
      </g>
      <g>
        <path class="cls-1" d="M1168.3,125.56c0,22.14,11.05,31.35,33.48,42.7l15.66,8.03c11.69,6.13,21.23,12.28,21.23,23.95-.03,12.3-7.08,21.52-24.9,21.52-17.52-.01-31.05-12.92-34.71-32.9h-13.53l1.83,29.2c.32,6.45,5.84,9.54,7.98,10.44,8.92,3.71,22.75,5.55,38.43,5.55,24.56,0,49.77-15.05,49.77-40.26,0-20.87-7.04-31.67-32.25-44.56l-13.85-7.07c-24.26-12.59-28.22-16.92-28.22-26.73,0-12.3,11.67-17.21,24.26-17.21,18.73,0,27.95,8.31,27.95,30.71l12.61.02,4-35.96s-16.9-8.29-38.71-8.29c-31.04-.01-51.02,13.19-51.02,40.85"/>
        <g class="cls-20">
          <rect class="cls-1" x="1126.64" y="72.41" width="175.79" height="173.93" transform="translate(262.48 930.15) rotate(-46.47)"/>
        </g>
      </g>
      <g>
        <path class="cls-1" d="M1461.43,98.89c19.68.02,28.87,9.85,28.87,22.75,0,15.07-5.21,17.83-19.97,18.45l-45.17,1.53c0-24.59,15.69-42.73,36.27-42.73M1397.8,160.04c0,47.94,31.33,74.06,66.36,74.06,25.8,0,46.41-15.66,53.77-23.02l-3.06-5.87s-20.59,7.09-37.8,7.07c-27.67,0-51.95-17.82-51.92-60.55l90.65.02s1.55-7.67,1.55-16.29c0-33.18-22.74-50.69-51.94-50.71-37.47,0-67.61,31.66-67.62,75.29"/>
        <g class="cls-8">
          <rect class="cls-1" x="1362.36" y="64.45" width="191.02" height="189.96" transform="translate(338.19 1106.59) rotate(-46.47)"/>
        </g>
      </g>
      <g>
        <path class="cls-1" d="M1708.05,83.89l-44.89,16.29v7.35c17.21.03,21.81,15.38,21.81,43.04l-.02,64.54-20.28,7.67v7.99h70.65s.57-7.76.57-7.76l-19.87-6.96-5.89-7.38v-88.21s10.79-14.47,30.17-14.47,40.53,7.11,40.53,41.22l-.97,68.17-19.61,7.4v7.99l70.65.03.58-7.79-19.88-6.95-5.87-7.4.32-77.76c0-35.95-23.38-46.08-47.33-46.11-20.28,0-48.86,23.67-48.86,23.67,0-12.93.61-24.6.61-24.6h-2.43Z"/>
        <g class="cls-16">
          <rect class="cls-1" x="1636.09" y="45.74" width="222.46" height="223.24" transform="translate(429.78 1315.8) rotate(-46.47)"/>
        </g>
      </g>
      <g>
        <path class="cls-1" d="M795.55,96.92c9.83,0,12.83,8.29,18.01,22.45l37.06,112.76h12.88l37.76-91.27,32.9,91.29h14.49l37.05-105.09c9.83-25.18,15.99-28.59,28.58-30.11v-8.59h-55s0,7.99,0,7.99l20.88,7.35-32.39,92.81-31.15-93.43,18.49-5.54v-9.19l-58.66-.03v8.62s10.53,2.59,10.53,2.59l8.34,23.79-5.66,14.8-24.29,58.36-27.64-93.42,18.46-6.05v-8.69h-60.64s0,8.6,0,8.6Z"/>
        <g class="cls-9">
          <rect class="cls-1" x="777.45" y="31.4" width="254.93" height="257.64" transform="translate(165.49 705.93) rotate(-46.47)"/>
        </g>
      </g>
      <g>
        <path class="cls-1" d="M543.01,55.98l-7.71,34.71-25.17,2.45v12c13.82,0,25.17,1.23,25.17,14.45s-1.22,54.69-1.23,71.29c0,31.35,11.94,43.04,31.95,43.04,17.19,0,31.31-7.08,44.23-17.53l-3.38-7.04s-8.6,5.52-21.5,5.52c-13.82,0-26.42-7.68-26.13-26.76l1.27-80.52,45.46.03h.42l.61-5.01,3.11-25.24-5.82-1.02-4.42,9.61-2.52,2.11-36.15,1.4-.39.02v-36.57l-17.8,3.07Z"/>
        <g class="cls-19">
          <rect class="cls-1" x="460.1" y="44.79" width="200.19" height="197.25" transform="translate(70.39 450.78) rotate(-46.47)"/>
        </g>
      </g>
      <g>
        <path class="cls-1" d="M1315.74,56.16l-7.68,34.71-25.21,2.45v11.99c13.83,0,25.21,1.24,25.21,14.44-.02,13.24-1.26,54.71-1.26,71.29,0,31.35,11.97,43.03,31.95,43.03,17.21,0,31.34-7.07,44.25-17.51l-3.36-7.06s-8.64,5.52-21.52,5.52c-13.84,0-26.44-7.69-26.11-26.74l1.23-80.52h45.47s.01,0,.01,0h.07l.64-4.98,3.1-25.25-5.86-1.04-4.38,9.61-2.53,2.1-36.16,1.41v.02h-.04v-36.56l-17.83,3.07Z"/>
        <g class="cls-23">
          <rect class="cls-1" x="1232.82" y="44.95" width="200.2" height="197.27" transform="translate(310.77 1011.05) rotate(-46.47)"/>
        </g>
      </g>
      <g>
        <path class="cls-1" d="M427.28,83.62l-43.94,16.28v7.36c16.59,0,21.8,15.06,21.79,40.57v67l-20.28,7.67v7.99h70.63l-.02-7.76-19.87-6.96-5.9-7.39v-65.78c.01-20.29,16.03-31.64,33.23-31.63,3.54,0,7.14.84,10.24,1.89l4.78,7.1,5.9.49,4.58-34.07v-.02c-.16-.04-5.36-1.83-15.35-1.83-21.54,0-43.96,33.8-43.96,33.8,0-18.74.62-34.73.62-34.73h-2.46Z"/>
        <g class="cls-21">
          <rect class="cls-1" x="346.45" y="68.38" width="178.86" height="177.34" transform="translate(21.8 364.89) rotate(-46.47)"/>
        </g>
      </g>
      <g>
        <path class="cls-1" d="M1583.88,83.87l-43.96,16.28v7.36c16.59,0,21.81,15.07,21.81,40.6l-.02,66.98-20.26,7.67v8h70.65l-.04-7.76-19.86-6.96-5.89-7.4v-65.76c0-20.29,16.01-31.66,33.21-31.66,3.51.02,7.11.88,10.2,1.9l4.81,7.12,5.93.48,4.56-34.08v-.02c-.16-.04-5.38-1.84-15.36-1.84-21.54,0-43.96,33.81-43.96,33.81,0-18.73.64-34.73.64-34.73h-2.48Z"/>
        <g class="cls-12">
          <rect class="cls-1" x="1503.04" y="68.62" width="178.89" height="177.37" transform="translate(381.61 1203.52) rotate(-46.47)"/>
        </g>
      </g>
      <g>
        <path class="cls-4" d="M2039.86,198.15c-10.62-11.07-11.04-29.96-11.04-44.08s.45-33.2,11.06-44.29c6.08-6.5,15.44-10.19,24.32-10.17,8.9,0,18.25,3.69,24.3,10.2,10.65,11.06,11.07,30.19,11.07,44.3,0,12.58-.43,29.07-8.05,40.36l-16.92-21.48-16.95,13.22,16.49,20.64c-3.26,1.08-6.72,1.52-9.98,1.52-8.91,0-18.23-3.71-24.32-10.21"/>
        <path class="cls-4" d="M2019.93,91.55c-16.71,16.7-19.53,37.34-19.56,62.52,0,25.19,2.83,45.58,19.53,62.31,11.72,11.72,27.77,17.36,44.29,17.39,9.33,0,18.44-1.75,26.9-5.44l14.32,17.81,16.73-13.02-13.46-16.93c16.52-16.72,19.33-36.91,19.33-62.09s-2.8-45.8-19.52-62.53c-11.7-11.73-27.78-17.38-44.28-17.38s-32.54,5.64-44.28,17.36"/>
        <g class="cls-2">
          <rect class="cls-4" x="1957.9" y="54.68" width="212.58" height="210.97" transform="translate(526.36 1546.39) rotate(-46.47)"/>
        </g>
      </g>
      <g>
        <polygon class="cls-4" points="2186.23 176.24 2208.15 111.35 2230.07 176.26 2186.23 176.24"/>
        <polygon class="cls-4" points="2193.41 77.05 2139.32 230.94 2167.54 230.96 2177.54 201.43 2238.75 201.45 2248.71 230.98 2278.04 230.98 2224.01 77.05 2193.41 77.05"/>
        <g class="cls-14">
          <rect class="cls-4" x="2105.11" y="50.72" width="207.14" height="206.59" transform="translate(575.78 1649.21) rotate(-46.47)"/>
        </g>
      </g>
      <g>
        <polygon class="cls-4" points="2267.46 103.1 2313.03 103.13 2313.02 230.98 2341 230.98 2341.03 103.13 2386.62 103.13 2386.64 77.08 2267.46 77.08 2267.46 103.1"/>
        <g class="cls-18">
          <rect class="cls-4" x="2230.21" y="57.82" width="193.67" height="192.41" transform="translate(612.62 1735.04) rotate(-46.47)"/>
        </g>
      </g>
      <g>
        <polygon class="cls-4" points="2427 176.29 2448.94 111.4 2470.84 176.32 2427 176.29"/>
        <polygon class="cls-4" points="2434.19 77.1 2380.1 230.99 2408.33 231.01 2418.32 201.49 2479.54 201.5 2489.53 231.03 2518.82 231.03 2464.81 77.1 2434.19 77.1"/>
        <g class="cls-10">
          <rect class="cls-4" x="2345.89" y="50.77" width="207.14" height="206.59" transform="translate(650.7 1823.81) rotate(-46.47)"/>
        </g>
      </g>
      <g>
        <path class="cls-4" d="M2567.71,101.65h36.91c15.84,0,25.39,10.88,25.38,23.24,0,14.56-9.11,22.8-24.95,22.8h-37.34v-46.03Z"/>
        <path class="cls-4" d="M2539.68,231.03l28.23.02v-58.2s34.09.03,34.09.03l25.6,58.17h30.41s-28.22-62.95-28.22-62.95c16.95-6.29,28.24-22.57,28.24-43.18,0-24.76-16.7-47.76-53.4-47.78l-64.91-.02-.03,153.91Z"/>
        <g class="cls-13">
          <rect class="cls-4" x="2502.29" y="58.17" width="193.13" height="191.84" transform="translate(697.2 1932.14) rotate(-46.47)"/>
        </g>
      </g>
    </g>
  </g>
</svg>