<?xml version="1.0" encoding="UTF-8"?>
<svg id="Layer_2" data-name="Layer 2" xmlns="http://www.w3.org/2000/svg" viewBox="0 0 227 35.47">
  <defs>
    <style>
      .cls-1 {
        fill: #ec2126;
      }

      .cls-2 {
        fill: #fff;
      }

      .cls-3 {
        fill: none;
      }
    </style>
  </defs>
  <g id="Layer_1-2" data-name="Layer 1">
    <path class="cls-1" d="M17.74,0C7.94,0,0,7.94,0,17.74s7.94,17.73,17.74,17.73,17.73-7.94,17.73-17.73S27.53,0,17.74,0"/>
    <path class="cls-2" d="M22.73,19.85c-.29.66-.68,1.24-1.17,1.73-.48.49-1.06.88-1.72,1.17-.66.29-1.37.44-2.11.44-.74,0-1.45-.15-2.11-.44-.66-.29-1.24-.68-1.72-1.17-.49-.49-.88-1.07-1.17-1.73-.29-.66-.43-1.37-.43-2.11s.15-1.45.43-2.11c.29-.66.68-1.24,1.17-1.73.48-.49,1.06-.88,1.72-1.17.66-.29,1.37-.44,2.11-.44s1.45.15,2.11.44c.66.29,1.24.68,1.72,1.17.48.48.88,1.07,1.16,1.73.58,1.32.58,2.9,0,4.23M24.12,11.35c-.8-.81-1.76-1.47-2.85-1.94-1.09-.47-2.28-.71-3.53-.71s-2.45.24-3.53.71c-1.09.47-2.05,1.13-2.85,1.94-.8.81-1.45,1.78-1.93,2.87-.47,1.09-.71,2.28-.71,3.53s.24,2.44.71,3.53c.47,1.09,1.12,2.05,1.93,2.85.8.8,1.76,1.45,2.85,1.93,1.09.47,2.28.71,3.53.71s2.44-.24,3.53-.71c1.09-.48,2.05-1.12,2.85-1.93.8-.8,1.45-1.76,1.93-2.86.47-1.09.71-2.28.71-3.53s-.24-2.44-.71-3.53c-.48-1.09-1.12-2.06-1.93-2.87"/>
    <path class="cls-1" d="M49.66,0c-9.8,0-17.74,7.94-17.74,17.74s7.94,17.73,17.74,17.73,17.73-7.94,17.73-17.73S59.45,0,49.66,0"/>
    <path class="cls-2" d="M54.65,19.85c-.29.66-.68,1.24-1.17,1.73-.48.49-1.06.88-1.72,1.17-.66.29-1.37.44-2.11.44-.74,0-1.45-.15-2.11-.44-.66-.29-1.24-.68-1.72-1.17-.49-.49-.88-1.07-1.17-1.73-.29-.66-.43-1.37-.43-2.11s.15-1.45.43-2.11c.29-.66.68-1.24,1.17-1.73.48-.49,1.06-.88,1.72-1.17.66-.29,1.37-.44,2.11-.44s1.45.15,2.11.44c.66.29,1.24.68,1.72,1.17.48.48.88,1.07,1.16,1.73.58,1.32.58,2.9,0,4.23M56.04,11.35c-.8-.81-1.76-1.47-2.85-1.94-1.09-.47-2.28-.71-3.53-.71s-2.44.24-3.53.71c-1.09.47-2.05,1.13-2.85,1.94-.81.81-1.45,1.78-1.93,2.87-.47,1.09-.71,2.28-.71,3.53s.24,2.44.71,3.53c.47,1.09,1.12,2.05,1.93,2.85.8.8,1.76,1.45,2.85,1.93,1.09.47,2.28.71,3.53.71s2.44-.24,3.53-.71c1.09-.48,2.05-1.12,2.85-1.93.8-.8,1.45-1.76,1.93-2.86.47-1.09.71-2.28.71-3.53s-.24-2.44-.71-3.53c-.48-1.09-1.12-2.06-1.93-2.87"/>
    <path class="cls-1" d="M177.34,0c-9.79,0-17.73,7.94-17.73,17.74s7.94,17.73,17.73,17.73,17.73-7.94,17.73-17.73S187.14,0,177.34,0"/>
    <path class="cls-2" d="M182.34,19.85c-.29.66-.68,1.24-1.16,1.73-.48.49-1.06.88-1.72,1.17-.66.29-1.37.44-2.11.44-.74,0-1.45-.15-2.11-.44-.66-.29-1.24-.68-1.72-1.17-.48-.49-.88-1.07-1.16-1.73-.29-.66-.43-1.37-.43-2.11s.15-1.45.43-2.11c.29-.66.68-1.24,1.16-1.73.48-.49,1.06-.88,1.72-1.17.66-.29,1.37-.44,2.11-.44s1.45.15,2.11.44c.66.29,1.24.68,1.72,1.17.48.48.88,1.07,1.16,1.73.58,1.32.58,2.9,0,4.23M183.73,11.35c-.81-.81-1.77-1.47-2.85-1.94-1.09-.47-2.28-.71-3.53-.71s-2.44.24-3.53.71c-1.09.47-2.05,1.13-2.86,1.94-.8.81-1.45,1.78-1.92,2.87-.47,1.09-.71,2.28-.71,3.53s.24,2.44.71,3.53c.47,1.09,1.12,2.05,1.93,2.85.8.8,1.76,1.45,2.86,1.93,1.09.47,2.28.71,3.53.71s2.44-.24,3.53-.71c1.09-.48,2.05-1.12,2.85-1.93.8-.8,1.45-1.76,1.92-2.86.47-1.09.71-2.28.71-3.53s-.24-2.44-.71-3.53c-.47-1.09-1.12-2.06-1.92-2.87"/>
    <path class="cls-1" d="M209.27,0c-9.8,0-17.74,7.94-17.74,17.74s7.94,17.73,17.74,17.73,17.73-7.94,17.73-17.73S219.06,0,209.27,0"/>
    <rect class="cls-3" x="0" y="0" width="227" height="35.47"/>
    <path class="cls-2" d="M214.26,19.85c-.29.66-.68,1.24-1.16,1.73-.48.49-1.06.88-1.72,1.17-.66.29-1.37.44-2.11.44-.74,0-1.45-.15-2.11-.44-.65-.29-1.24-.68-1.72-1.17-.48-.49-.88-1.07-1.16-1.73-.29-.66-.43-1.37-.43-2.11s.15-1.45.43-2.11c.29-.66.68-1.24,1.16-1.73.48-.49,1.07-.88,1.72-1.17.66-.29,1.37-.44,2.11-.44s1.45.15,2.11.44c.66.29,1.24.68,1.72,1.17.48.48.88,1.07,1.16,1.73.58,1.32.58,2.9,0,4.23M215.65,11.35c-.81-.81-1.77-1.47-2.85-1.94-1.09-.47-2.28-.71-3.53-.71s-2.44.24-3.53.71c-1.09.47-2.05,1.13-2.85,1.94-.8.81-1.45,1.78-1.93,2.87-.47,1.09-.71,2.28-.71,3.53s.24,2.44.71,3.53c.47,1.09,1.12,2.05,1.93,2.85.8.8,1.76,1.45,2.85,1.93,1.09.47,2.28.71,3.53.71s2.44-.24,3.53-.71c1.09-.48,2.05-1.12,2.85-1.93.8-.8,1.45-1.76,1.92-2.86.47-1.09.71-2.28.71-3.53s-.24-2.44-.71-3.53c-.47-1.09-1.12-2.06-1.92-2.87"/>
    <path class="cls-1" d="M81.58,0c-9.8,0-17.74,7.94-17.74,17.74s7.94,17.73,17.74,17.73,17.74-7.94,17.74-17.73S91.37,0,81.58,0"/>
    <path class="cls-2" d="M85.43,13.84c.48.49.88,1.06,1.16,1.72.16.37.28.76.35,1.16h3.64c-.09-.91-.31-1.78-.67-2.59-.47-1.09-1.12-2.05-1.93-2.85-.8-.8-1.76-1.45-2.85-1.92-1.09-.47-2.28-.71-3.53-.71s-2.44.23-3.53.7c-1.09.46-2.06,1.1-2.87,1.91-.81.81-1.46,1.76-1.92,2.85-.46,1.09-.7,2.29-.7,3.57v8.57h3.6v-8.82h.01c.03-.65.17-1.27.42-1.86.29-.66.68-1.24,1.16-1.72.48-.48,1.06-.88,1.72-1.16,1.32-.58,2.9-.58,4.22,0,.66.29,1.24.68,1.72,1.16"/>
    <path class="cls-1" d="M113.5,0c-9.79,0-17.74,7.94-17.74,17.74s7.94,17.73,17.74,17.73,17.74-7.94,17.74-17.73S123.29,0,113.5,0"/>
    <path class="cls-2" d="M108.71,14.69l.15-.24c.88-1.44,2.45-2.2,4.65-2.27h0c2.17.02,3.71.79,4.59,2.27l.14.24h-9.55ZM121.86,14.4c-.43-1.11-1.04-2.11-1.81-2.95-.77-.85-1.72-1.53-2.82-2.04-1.1-.51-2.36-.76-3.75-.76-1.25,0-2.44.24-3.53.71-1.09.48-2.05,1.12-2.86,1.92-.81.8-1.46,1.76-1.93,2.85-.47,1.09-.71,2.28-.71,3.53s.24,2.45.71,3.53c.47,1.09,1.12,2.05,1.93,2.85.81.8,1.77,1.45,2.86,1.93,1.09.47,2.28.71,3.53.71.93,0,1.86-.13,2.78-.38.91-.25,1.78-.66,2.57-1.21.79-.55,1.5-1.27,2.12-2.15.58-.83,1.07-1.85,1.43-3.03h-3.97c-.4.95-1.01,1.72-1.84,2.29-.86.59-1.9.89-3.1.89-.72,0-1.41-.14-2.05-.4-.65-.27-1.22-.63-1.7-1.1-.48-.46-.88-1.01-1.18-1.63-.3-.62-.47-1.3-.49-2.02v-.17s14.48,0,14.48,0c-.04-1.18-.27-2.31-.68-3.38"/>
    <path class="cls-1" d="M145.42,0c1.89,0,3.72.3,5.43.85v9.92l-.27-.25c-.28-.26-.62-.51-1.02-.74-.39-.23-.83-.44-1.28-.61-.45-.17-.92-.32-1.41-.43-.48-.11-.97-.16-1.45-.16-1.26,0-2.44.24-3.53.71-1.09.47-2.05,1.12-2.86,1.93-.8.8-1.45,1.76-1.93,2.85-.47,1.09-.71,2.28-.71,3.53s.24,2.44.71,3.53c.48,1.09,1.12,2.05,1.93,2.85.8.8,1.76,1.45,2.86,1.92,1.09.47,2.28.71,3.53.71s2.44-.24,3.53-.7c1.09-.46,2.06-1.1,2.87-1.91.81-.8,1.46-1.76,1.92-2.85.46-1.09.7-2.29.7-3.57V2.47c5.21,3.09,8.71,8.77,8.71,15.27,0,9.79-7.94,17.73-17.73,17.73s-17.74-7.94-17.74-17.73S135.63,0,145.42,0"/>
    <path class="cls-1" d="M149.25,21.43c-.49.49-1.06.88-1.72,1.16-.66.29-1.37.44-2.11.44s-1.45-.15-2.11-.44c-.66-.29-1.23-.68-1.72-1.16-.48-.48-.88-1.06-1.16-1.72-.29-.66-.44-1.37-.44-2.11s.15-1.45.44-2.11c.29-.66.68-1.23,1.16-1.72.48-.48,1.06-.88,1.72-1.16,1.32-.58,2.9-.58,4.22,0,.66.29,1.24.68,1.72,1.16.48.49.88,1.06,1.16,1.72.29.66.44,1.37.44,2.11s-.15,1.45-.44,2.11c-.29.66-.68,1.24-1.16,1.72"/>
    <path class="cls-2" d="M150.85,17.6c0,.74-.15,1.45-.43,2.11-.29.66-.68,1.24-1.17,1.72-.49.48-1.06.88-1.72,1.16-.66.29-1.37.43-2.11.43s-1.45-.15-2.11-.43c-.66-.29-1.23-.68-1.72-1.16-.48-.48-.88-1.06-1.16-1.72-.29-.66-.43-1.37-.43-2.11s.15-1.45.43-2.11c.29-.66.68-1.24,1.16-1.72.49-.48,1.06-.88,1.72-1.16,1.32-.58,2.89-.58,4.21,0,.66.29,1.24.68,1.72,1.16.49.48.88,1.06,1.17,1.72.29.66.43,1.37.43,2.11M154.45,17.6V2.47c-1.12-.67-2.33-1.21-3.6-1.62v9.92l-.27-.25c-.28-.26-.62-.51-1.02-.74-.39-.23-.82-.44-1.28-.61-.45-.18-.93-.32-1.41-.43-.48-.11-.97-.16-1.45-.16-1.25,0-2.44.24-3.53.71-1.09.47-2.05,1.12-2.86,1.92-.8.8-1.45,1.76-1.92,2.86-.47,1.09-.71,2.28-.71,3.53s.24,2.44.71,3.53c.47,1.09,1.12,2.05,1.92,2.85.8.8,1.77,1.45,2.86,1.93,1.09.47,2.28.71,3.53.71s2.45-.23,3.53-.7c1.09-.46,2.06-1.1,2.87-1.91.81-.8,1.46-1.76,1.92-2.85s.7-2.29.7-3.57"/>
  </g>
</svg>