<?xml version="1.0" encoding="UTF-8"?>
<svg id="Layer_2" data-name="Layer 2" xmlns="http://www.w3.org/2000/svg" viewBox="0 0 226.77 115.23">
  <defs>
    <style>
      .cls-1 {
        fill: #fff;
      }

      .cls-2 {
        fill: #005695;
      }

      .cls-3 {
        fill: #a7a9ac;
      }
    </style>
  </defs>
  <g id="Layer_1-2" data-name="Layer 1">
    <path class="cls-2" d="M5.4,87.58h1.23v1.62h-1.23v-1.62ZM3.47,87.58h1.23v1.62h-1.23v-1.62ZM6.66,94.15c0-1.61-.56-2.21-1.63-2.21s-1.64.6-1.64,2.21.54,2.21,1.64,2.21,1.63-.6,1.63-2.21M8.11,94.15c0,2.42-1.16,3.55-3.08,3.55s-3.07-1.13-3.07-3.55,1.11-3.53,3.07-3.53,3.08,1.11,3.08,3.53"/>
    <path class="cls-2" d="M11.06,91.01c1.96,0,3.04.33,3.46,2.59l.75,3.96h-6.26l.68-1.35h3.93l-.45-2.24c-.29-1.57-.77-1.62-2.18-1.66l.06-1.3Z"/>
    <path class="cls-2" d="M20.43,93.06c-.25-.06-.43-.11-.74-.11-.72,0-1.45.47-1.45,1.65s.62,1.6,1.37,1.6c.31,0,.56-.06.82-.14v-3.01ZM17.36,99.13c.19,0,.85.05,1,.05,1.31,0,1.95-.6,2.06-1.71-.24.06-.52.09-.83.09-1.55,0-2.72-.94-2.72-2.93s1.33-2.97,2.8-2.97c.79,0,1.29.1,2.16.35v5.1c0,2.23-1.08,3.38-3.38,3.38h-.43l-.65-1.36Z"/>
    <path class="cls-2" d="M25.49,91.01c1.96,0,3.04.33,3.46,2.59l.49,2.61h2.01l.12,1.35h-8.13l.68-1.35h3.94l-.45-2.24c-.29-1.57-.77-1.62-2.18-1.66l.06-1.3Z"/>
    <path class="cls-2" d="M46.14,95.54c0-1.17-.6-1.71-1.47-1.71-.74,0-1.33.43-1.45,1.24,0,.1-.02.17-.02.23-.01.11-.01.17-.01.24,0,1.16.59,1.65,1.41,1.65h.07c1.07,0,1.47-.47,1.47-1.65M41.82,94.98c.2-1.67,1.34-2.45,2.85-2.45,1.96,0,2.88,1.28,2.88,2.98,0,.17,0,.31-.02.43.49.23.94.28,1.38.28h.35c1.13,0,1.55-.62,1.55-1.79v-6.6l1.39-.2v7.05c0,1.85-.89,2.89-2.79,2.89h-.43c-.59,0-1.17-.11-1.78-.31-.45.91-1.29,1.29-2.52,1.29-.72,0-1.55-.28-2.06-.83-.14-.14-.32-.38-.45-.56-.42.29-.94.4-1.75.4h-8.96l-.14-1.35h5.96c-.05-2.33-1.42-4.29-3.32-4.29-.66,0-1.36.23-2.11.74l.76-1.62c.68-.25,1.28-.37,1.79-.37,2.21,0,3.78,1.82,4.1,4.42l.16,1.12h1.65c.98,0,1.42-.43,1.53-1.23"/>
    <polygon class="cls-2" points="53.93 97.55 53.93 87.82 55.31 87.62 55.31 97.55 53.93 97.55"/>
    <path class="cls-2" d="M67.35,99.08c-.96.25-2.52.37-3.61.37-2.3,0-3.38-1.12-3.38-3.4v-4.37l1.37-1.46v5.74c0,1.49.61,2.19,2.09,2.19.78,0,1.52-.05,2.14-.15v-10.17l1.39-.2v8.17c.56.31,1.14.42,1.63.42h.35l.14,1.35h-.43c-.57,0-1.13-.09-1.7-.28v1.8Z"/>
    <path class="cls-2" d="M69.66,88.47h.56c-.11-.2-.19-.53-.19-.83,0-1.07.72-1.46,1.37-1.46.48,0,.88.2,1.29.67l-.49.53c-.29-.29-.57-.48-.8-.48-.33,0-.6.25-.6.74,0,.56.2.83.6.83h1.4l-.39.74h-3.1l.34-.74ZM69.21,96.21c1.21,0,1.66-.6,1.66-1.79v-3.6l1.39-.21v4.06c0,1.9-.93,2.89-2.92,2.89l-.13-1.35Z"/>
    <polygon class="cls-2" points="74.01 97.55 74.01 87.82 75.38 87.62 75.38 97.55 74.01 97.55"/>
    <path class="cls-2" d="M78.5,94.61c0,1.16.65,1.6,1.39,1.6h.8v-3.14c-.25-.08-.42-.11-.72-.11-.71,0-1.47.47-1.47,1.65M77.62,99.13c.19,0,.85.05,1.01.05,1.22,0,1.82-.63,2.01-1.62h-.8c-1.52,0-2.72-.94-2.72-2.93s1.34-2.97,2.81-2.97c.79,0,1.26.1,2.14.35v4.21h.9l.15,1.35h-1.07c-.11,2.04-1.19,2.93-3.36,2.93h-.42l-.66-1.36Z"/>
    <path class="cls-2" d="M82.78,96.21h1.56c.97,0,1.31-.6,1.31-1.79v-2.62l1.37-.22v3.09c0,.57-.08,1-.22,1.36.55.11,1.25.19,1.82.19.92,0,1.3-.6,1.3-1.79v-3.22l1.38-.21v3.68c0,.45-.08.86-.15,1.17.53.29,1.08.37,1.55.37.97,0,1.33-.6,1.33-1.79v-3.6l1.39-.21v4.06c0,1.9-.84,2.89-2.64,2.89-.76,0-1.56-.14-2.36-.57-.47.39-1.03.57-1.73.57-.74,0-1.84-.17-2.76-.37-.39.26-.94.37-1.5.37h-1.5l-.15-1.35Z"/>
    <path class="cls-2" d="M105.13,94.64c-.14.03-.28.05-.41.05h-1l-.57-1.34h1.39c.97,0,1.25-.62,1.25-1.79v-3.73l1.38-.2v4.17c0,.94-.24,1.71-.73,2.2.19.99.42,2.17.59,3.11-1.13.33-2.7.45-3.77.45-2.33,0-3.4-1.16-3.4-3.4v-2.11l1.41-1.47v3.44c0,1.5.59,2.19,2.05,2.19.72,0,1.46-.03,2.08-.14l-.26-1.44Z"/>
    <path class="cls-2" d="M108.87,97.55v-9.73l1.37-.2v9.94h-1.37ZM107.65,100.65h.49c-.08-.2-.15-.49-.15-.76,0-.97.65-1.34,1.24-1.34.43,0,.82.2,1.17.62l-.45.5c-.26-.27-.54-.45-.73-.45-.31,0-.54.23-.54.68,0,.51.19.76.54.76h1.26l-.35.66h-2.79l.31-.66Z"/>
    <path class="cls-2" d="M116.68,88.44h1.41v1.68h-1.41v-1.68ZM113.68,99.13c.17,0,.8.05.96.05,1.43,0,2.07-.7,2.07-2.19v-4.55l1.37-.21v4.88c0,2.26-1.06,3.39-3.39,3.39h-.4l-.6-1.36Z"/>
    <path class="cls-2" d="M121.99,97.55c-.76,0-1.81-.27-1.81-2.11v-7.62l1.39-.2v7.73c0,.79.28.86.56.86h1.56l.14,1.35h-1.85Z"/>
    <path class="cls-2" d="M127.18,87.52h1.41v1.68h-1.41v-1.68ZM127.85,96.02l1.61-3.38c-.45-.25-1-.39-1.61-.39s-1.26.14-1.71.43l1.71,3.33ZM123.56,96.21h2.96c-.73-1.24-1.48-2.65-2.16-3.89,1.05-1.03,2.32-1.47,3.49-1.47,1.3,0,2.54.57,3.24,1.53l-1.91,3.82h2.75l.14,1.35h-8.37l-.14-1.35Z"/>
    <path class="cls-2" d="M131.78,96.21c1.22,0,1.66-.6,1.66-1.79v-6.6l1.39-.2v7.05c0,1.9-.93,2.89-2.91,2.89l-.14-1.35Z"/>
    <polygon class="cls-2" points="136.58 97.55 136.58 87.82 137.95 87.62 137.95 97.55 136.58 97.55"/>
    <path class="cls-2" d="M150,99.08c-.96.25-2.52.37-3.61.37-2.3,0-3.38-1.12-3.38-3.4v-4.37l1.38-1.46v5.74c0,1.49.61,2.19,2.08,2.19.79,0,1.53-.05,2.15-.15v-10.17l1.39-.2v8.17c.55.31,1.14.42,1.63.42h.36l.14,1.35h-.44c-.57,0-1.13-.09-1.7-.28v1.8Z"/>
    <path class="cls-2" d="M153.36,99.25h1.22v1.6h-1.22v-1.6ZM151.86,96.21c1.22,0,1.67-.6,1.67-1.79v-3.6l1.39-.21v4.06c0,1.9-.93,2.89-2.92,2.89l-.14-1.35ZM151.43,99.25h1.23v1.6h-1.23v-1.6Z"/>
    <path class="cls-2" d="M157.92,94.61c0,1.16.65,1.6,1.39,1.6h.8v-3.14c-.24-.08-.42-.11-.73-.11-.7,0-1.46.47-1.46,1.65M157.04,99.13c.18,0,.84.05,1.02.05,1.22,0,1.82-.63,2.01-1.62h-.8c-1.51,0-2.72-.94-2.72-2.93s1.34-2.97,2.81-2.97c.78,0,1.26.1,2.14.35v4.21h.89l.15,1.35h-1.07c-.11,2.04-1.18,2.93-3.36,2.93h-.42l-.66-1.36Z"/>
    <path class="cls-2" d="M169.59,96.21h1.65l.12,1.35h-8.96l-.14-1.35h5.96c-.05-2.33-1.42-4.29-3.32-4.29-.66,0-1.36.23-2.11.74l.76-1.62c.68-.24,1.28-.37,1.79-.37,2.2,0,3.78,1.82,4.1,4.41l.16,1.12Z"/>
    <path class="cls-2" d="M172.94,87.58h1.23v1.62h-1.23v-1.62ZM175.62,97.56c-.76,0-1.56-.14-2.35-.57-.51.39-1.22.57-2.03.57l-.09-1.35c1.22,0,1.62-.6,1.62-1.79v-3.6l1.39-.21v4.06c0,.45-.07.86-.15,1.17.54.29,1.08.37,1.56.37h.36l.13,1.35h-.43ZM171.01,87.58h1.24v1.62h-1.24v-1.62Z"/>
    <path class="cls-2" d="M175.78,96.21c1.22,0,1.67-.6,1.67-1.79v-6.6l1.39-.2v7.05c0,1.9-.92,2.89-2.91,2.89l-.14-1.35Z"/>
    <path class="cls-2" d="M190.77,99.08c-.96.25-2.48.37-3.59.37-2.33,0-3.39-1.12-3.39-3.4v-4.37l1.37-1.46v5.74c0,1.49.62,2.19,2.09,2.19.78,0,1.53-.05,2.14-.15v-6.43l1.39-.19v4.64c.57.12,1.28.2,1.84.2.97,0,1.3-.6,1.3-1.79v-3.22l1.39-.21v3.68c0,.45-.05.86-.17,1.17.55.29,1.09.37,1.57.37.97,0,1.31-.6,1.31-1.79v-3.6l1.4-.21v4.06c0,.45-.06.78-.17,1.16.57.29,1.1.39,1.59.39h.35l.14,1.35h-.43c-.74,0-1.54-.16-2.33-.57-.43.39-1.03.57-1.79.57s-1.54-.14-2.36-.57c-.45.37-1.05.57-1.73.57-.51,0-1.23-.08-1.91-.2v1.72Z"/>
    <path class="cls-2" d="M208.33,96.21l.14,1.35h-7.28l-.14-1.35h4.15v-1.24c0-1.69-2.36-2.35-4.05-2.35h-.05l4.13-4.98,1.53.46-3.03,3.47c1.46.41,2.84,1.5,2.84,3.4v1.24h1.76Z"/>
    <path class="cls-2" d="M209.69,99.25h1.22v1.6h-1.22v-1.6ZM208.2,96.21c1.22,0,1.67-.6,1.67-1.79v-3.6l1.39-.21v4.06c0,1.9-.92,2.89-2.91,2.89l-.14-1.35ZM207.77,99.25h1.23v1.6h-1.23v-1.6Z"/>
    <path class="cls-2" d="M211.96,99.13c.17,0,.8.05.95.05,1.43,0,2.06-.7,2.06-2.19v-4.55l1.38-.21v4.88c0,2.26-1.06,3.39-3.4,3.39h-.4l-.6-1.36Z"/>
    <path class="cls-2" d="M221.74,93.06c-.24-.06-.43-.11-.74-.11-.73,0-1.45.47-1.45,1.65s.63,1.6,1.38,1.6c.3,0,.55-.06.81-.14v-3.01ZM218.67,99.13c.19,0,.85.05,1,.05,1.31,0,1.95-.6,2.05-1.71-.24.06-.52.09-.83.09-1.55,0-2.72-.94-2.72-2.93s1.33-2.97,2.79-2.97c.79,0,1.3.1,2.16.35v5.1c0,2.23-1.08,3.38-3.38,3.38h-.43l-.65-1.36Z"/>
    <path class="cls-2" d="M224.68,97.55v-9.73l1.37-.2v9.93h-1.37ZM223.92,85.83h.51c-.08-.18-.15-.49-.15-.74,0-.99.65-1.34,1.22-1.34.45,0,.83.2,1.17.6l-.43.5c-.29-.25-.54-.45-.74-.45-.29,0-.53.25-.53.69,0,.5.17.74.53.74h1.28l-.35.67h-2.79l.29-.67Z"/>
    <path class="cls-2" d="M4.15,106.05c-1.65,0-2.48,1.29-2.48,3.87s.83,3.88,2.48,3.88,2.49-1.29,2.49-3.88-.83-3.87-2.49-3.87M7.21,113.94c-.69.87-1.71,1.29-3.06,1.29-2.77,0-4.15-1.77-4.15-5.31s1.38-5.3,4.15-5.3,4.18,1.77,4.18,5.3c0,1.78-.37,3.12-1.11,4.01"/>
    <path class="cls-2" d="M22.26,106.4c-.39-.29-.91-.43-1.54-.43-.15,0-.33,0-.55.02-.22.01-.48.04-.78.08v3.94h.78c1.87,0,2.8-.68,2.8-2.05,0-.69-.24-1.21-.71-1.56M23.14,115.02l-2.11-3.75c-.13.02-.28.03-.44.04-.16,0-.33.01-.53.01h-.68v3.7h-1.61v-10.17c.98-.15,1.97-.22,2.98-.22,1.14,0,2.05.26,2.74.77.77.58,1.16,1.43,1.16,2.55,0,1.45-.69,2.43-2.08,2.93l2.37,4.14h-1.79Z"/>
    <polygon class="cls-2" points="37.6 110.63 37.6 115.02 35.99 115.02 35.99 110.68 32.71 104.84 34.57 104.84 36.88 109.11 39.25 104.84 41.03 104.84 37.6 110.63"/>
    <polygon class="cls-2" points="54.14 109.81 57.5 115.02 55.62 115.02 53.27 111.27 50.9 115.02 48.97 115.02 52.44 109.92 49.15 104.84 51.07 104.84 53.33 108.43 55.6 104.84 57.53 104.84 54.14 109.81"/>
    <path class="cls-2" d="M84.07,107.29c-.44-.82-1.17-1.23-2.17-1.23-.87,0-1.52.33-1.95,1-.44.68-.66,1.63-.66,2.87,0,2.6.9,3.9,2.7,3.9.53,0,1.09-.07,1.66-.2v-2.31h-1.88l.12-1.35h3.23v4.75c-1.03.35-2.08.52-3.16.52-2.89,0-4.34-1.77-4.34-5.31,0-1.77.42-3.12,1.25-4.04.75-.84,1.76-1.26,3.04-1.26.84,0,1.52.15,2.05.44.46.26.85.68,1.2,1.26l-1.07.96Z"/>
    <polygon class="cls-2" points="101.01 106.29 98.08 106.29 98.08 115.02 96.47 115.02 96.47 106.29 93.57 106.29 93.57 104.84 101.14 104.84 101.01 106.29"/>
    <polygon class="cls-2" points="115.75 115.02 110 115.02 110 104.84 111.61 104.84 111.61 113.56 115.86 113.56 115.75 115.02"/>
    <polygon class="cls-2" points="142.34 115.02 136.59 115.02 136.59 104.84 138.19 104.84 138.19 113.56 142.45 113.56 142.34 115.02"/>
    <path class="cls-2" d="M151.02,107.91h1.52v7.1h-1.52v-7.1ZM151.02,104.68h1.52v1.82h-1.52v-1.82Z"/>
    <path class="cls-2" d="M171.1,115.02v-3.75c0-.75-.11-1.27-.31-1.6-.24-.38-.66-.57-1.26-.57s-1.17.16-1.69.47c.12.31.17.69.17,1.14v4.31h-1.53v-3.75c0-.74-.1-1.27-.3-1.6-.23-.38-.65-.57-1.26-.57-.24,0-.5.01-.75.04-.26.02-.52.06-.8.11v5.78h-1.52v-6.93c1.08-.27,2.16-.41,3.24-.41.86,0,1.52.21,1.98.63.8-.42,1.68-.63,2.63-.63,1.96,0,2.93,1.01,2.93,3.03v4.31h-1.53Z"/>
    <path class="cls-2" d="M181.89,107.91h1.52v7.1h-1.52v-7.1ZM181.89,104.68h1.52v1.82h-1.52v-1.82Z"/>
    <path class="cls-2" d="M195.66,115.23c-1.74,0-2.6-.86-2.6-2.6v-3.61h-1.21v-.84l1.21-.16v-2.09l1.21-.05.24,2.06,2.27-.03v1.13l-2.19-.02v3.42c0,1.01.42,1.5,1.27,1.5.33,0,.68-.04,1.05-.14l.26,1.18c-.52.16-1.02.24-1.51.24"/>
    <path class="cls-2" d="M208.24,108.98c-1.05,0-1.65.59-1.77,1.76h3.25c-.01-1.18-.5-1.76-1.48-1.76M210.6,111.83c-.45.03-.99.04-1.62.04h-2.52c.04,1.38.67,2.07,1.91,2.07.6,0,1.15-.12,1.66-.36l.37,1.09c-.7.38-1.42.57-2.18.57-1.05,0-1.85-.31-2.42-.91-.62-.65-.93-1.6-.93-2.88s.32-2.18.97-2.86c.59-.62,1.37-.92,2.36-.92s1.68.29,2.19.87c.52.59.75,1.44.71,2.56l-.51.74Z"/>
    <path class="cls-2" d="M224.46,109.22c-.39-.14-.8-.22-1.22-.22-1.32,0-1.98.82-1.98,2.44,0,.82.19,1.43.56,1.84.31.35.71.51,1.19.51.53,0,1.01-.18,1.45-.54v-4.03ZM224.82,115.02l-.04-.41c-.59.41-1.23.62-1.89.62-.93,0-1.68-.31-2.25-.92-.62-.68-.92-1.63-.92-2.86s.32-2.19.98-2.84c.62-.62,1.46-.93,2.53-.93.43,0,.84.07,1.24.2v-2.95l1.53-.25v10.34h-1.18Z"/>
    <polygon class="cls-2" points="217.36 29.12 133.83 29.12 124.44 46.51 133.83 63.94 217.36 63.94 226.76 46.51 217.36 29.12"/>
    <path class="cls-3" d="M33.96,48.67c0-1.77-.32-3.44-.96-5.03-.65-1.59-1.57-3.01-2.78-4.25-1.18-1.23-2.54-2.16-4.09-2.82-1.55-.66-3.19-.99-4.91-.99s-3.35.33-4.9.99c-1.55.65-2.93,1.59-4.14,2.83-1.21,1.22-2.13,2.64-2.77,4.22-.64,1.59-.96,3.28-.96,5.06s.32,3.44.96,5.01c.64,1.58,1.56,2.98,2.77,4.22,1.21,1.24,2.58,2.19,4.12,2.84,1.55.65,3.18.98,4.91.98s3.32-.32,4.86-.98c1.53-.65,2.91-1.6,4.14-2.84,1.21-1.24,2.13-2.65,2.78-4.23.64-1.59.96-3.25.96-5M39.87,48.67c0,2.48-.46,4.83-1.4,7.04-.93,2.21-2.28,4.19-4.06,5.92-1.8,1.73-3.82,3.06-6.09,3.98-2.26.92-4.62,1.38-7.11,1.38s-4.91-.46-7.19-1.39c-2.28-.93-4.3-2.26-6.05-3.98-1.78-1.73-3.13-3.7-4.06-5.89-.92-2.2-1.38-4.55-1.38-7.07s.46-4.85,1.38-7.06c.93-2.21,2.28-4.19,4.06-5.93,1.78-1.73,3.8-3.05,6.06-3.96,2.26-.9,4.65-1.36,7.18-1.36s4.9.45,7.15,1.36c2.25.91,4.27,2.23,6.05,3.96,1.78,1.77,3.13,3.75,4.06,5.97.93,2.22,1.4,4.56,1.4,7.03"/>
    <path class="cls-3" d="M52.07,46.01h1.03c3.01,0,5-.35,5.99-1.05.99-.7,1.48-1.94,1.48-3.72,0-1.92-.53-3.28-1.59-4.06-1.06-.79-3.02-1.18-5.88-1.18h-1.03v10.02ZM51.71,50.43v15.62h-5.32V31.13h7.92c2.32,0,4.13.15,5.41.45,1.28.3,2.37.81,3.28,1.5,1.08.85,1.92,1.93,2.51,3.27.59,1.34.89,2.8.89,4.39,0,2.8-.68,4.99-2.03,6.57-1.35,1.58-3.35,2.53-5.99,2.85l12.02,15.89h-6.42l-11.62-15.62h-.64Z"/>
    <path class="cls-3" d="M80.41,66.06v-15.99l-11.76-18.94h5.96l7.32,11.86c.18.3.4.7.66,1.19.26.5.53,1.03.8,1.6.22-.55.46-1.08.7-1.57.25-.49.51-.94.78-1.36l7.51-11.71h5.68l-12.02,18.94v15.99h-5.63Z"/>
    <path class="cls-3" d="M97.85,66.06l11.33-18.27-10.02-16.65h5.96l5.03,8.54c.28.44.78,1.36,1.51,2.77.16.32.27.55.36.69.25-.49.54-1.01.85-1.57.31-.55.66-1.17,1.06-1.83l5.32-8.59h5.82l-10.21,16.56,11,18.37h-6.28l-5.84-9.9s-.05-.09-.09-.17c-.64-1.19-1.22-2.31-1.77-3.36-.27.54-.56,1.1-.88,1.68-.32.58-.67,1.17-1.03,1.78l-6.11,9.97h-6.01Z"/>
    <path class="cls-2" d="M31.42,47.69c0-1.77-.32-3.44-.97-5.03-.64-1.59-1.57-3.01-2.78-4.25-1.18-1.22-2.54-2.16-4.09-2.83-1.55-.66-3.19-.98-4.9-.98s-3.35.32-4.9.97c-1.55.65-2.93,1.6-4.14,2.84-1.21,1.22-2.13,2.63-2.77,4.22-.64,1.59-.96,3.27-.96,5.06s.32,3.44.96,5.01c.63,1.57,1.55,2.98,2.77,4.22,1.21,1.24,2.58,2.19,4.13,2.84,1.55.65,3.18.98,4.92.98s3.32-.32,4.85-.98c1.53-.66,2.92-1.6,4.14-2.84,1.21-1.24,2.14-2.65,2.78-4.23.64-1.58.97-3.25.97-5M37.34,47.69c0,2.48-.47,4.83-1.4,7.04-.93,2.21-2.28,4.18-4.07,5.92-1.8,1.73-3.82,3.06-6.08,3.98-2.26.93-4.63,1.39-7.11,1.39s-4.91-.47-7.19-1.4c-2.28-.93-4.3-2.25-6.05-3.97-1.78-1.74-3.13-3.7-4.05-5.9C.46,52.55,0,50.2,0,47.69s.46-4.85,1.38-7.06c.92-2.21,2.27-4.18,4.05-5.94,1.78-1.73,3.8-3.05,6.06-3.97,2.26-.9,4.65-1.36,7.18-1.36s4.89.46,7.14,1.36c2.26.91,4.27,2.23,6.05,3.97,1.78,1.77,3.14,3.76,4.07,5.98.93,2.21,1.4,4.56,1.4,7.02"/>
    <path class="cls-2" d="M49.52,45.04h1.03c3.01,0,5-.35,5.99-1.05.99-.7,1.48-1.93,1.48-3.72,0-1.92-.52-3.28-1.58-4.07-1.06-.79-3.02-1.18-5.88-1.18h-1.03v10.02ZM49.16,49.45v15.63h-5.31V30.16h7.92c2.32,0,4.12.15,5.4.45,1.28.3,2.38.8,3.28,1.5,1.08.85,1.92,1.94,2.51,3.26.58,1.34.88,2.81.88,4.39,0,2.8-.68,4.99-2.03,6.57-1.35,1.58-3.35,2.53-5.99,2.85l12.02,15.89h-6.42l-11.62-15.63h-.65Z"/>
    <path class="cls-2" d="M77.86,65.08v-15.98l-11.76-18.94h5.97l7.32,11.86c.18.3.4.69.66,1.19.26.49.53,1.03.8,1.6.22-.56.45-1.08.7-1.57.25-.5.5-.94.78-1.36l7.51-11.71h5.68l-12.02,18.94v15.98h-5.63Z"/>
    <path class="cls-2" d="M95.3,65.08l11.33-18.27-10.02-16.65h5.96l5.03,8.54c.27.44.77,1.37,1.5,2.77.16.32.28.55.36.7.26-.5.54-1.03.84-1.58.31-.55.67-1.17,1.07-1.84l5.32-8.58h5.82l-10.21,16.55,10.99,18.37h-6.27l-5.84-9.9s-.05-.09-.1-.16c-.63-1.19-1.22-2.32-1.76-3.37-.27.54-.56,1.1-.88,1.68-.32.58-.66,1.18-1.03,1.78l-6.11,9.97h-6.01Z"/>
    <path class="cls-1" d="M144.9,46.76h6.67c0,.12,0,.28.01.48.02.54.04.91.04,1.1,0,2.37-.68,4.21-2.04,5.52-1.36,1.31-3.27,1.97-5.74,1.97-1.38,0-2.61-.21-3.69-.61-1.09-.41-2.03-1.02-2.84-1.84-.79-.81-1.41-1.77-1.84-2.86-.42-1.1-.64-2.27-.64-3.52s.22-2.45.65-3.51c.43-1.08,1.07-2.02,1.92-2.84.82-.81,1.78-1.42,2.89-1.84,1.1-.43,2.28-.64,3.54-.64,1.33,0,2.51.24,3.56.72,1.04.48,1.97,1.23,2.79,2.22l-2,1.51c-.57-.65-1.21-1.15-1.92-1.47-.71-.32-1.51-.48-2.39-.48-1.82,0-3.32.59-4.46,1.76-1.15,1.17-1.73,2.69-1.73,4.56s.58,3.44,1.73,4.63c1.15,1.19,2.65,1.78,4.49,1.78,1.57,0,2.8-.36,3.69-1.1.9-.72,1.35-1.72,1.35-2.97v-.24h-4.04v-2.31Z"/>
    <polygon class="cls-1" points="159.51 40.87 159.51 55.38 156.77 55.38 156.77 40.87 152.3 40.87 152.3 38.55 163.96 38.55 163.96 40.87 159.51 40.87"/>
    <polygon class="cls-1" points="166.05 55.38 166.05 38.55 168.79 38.55 168.79 52.93 174.9 52.93 174.9 55.38 166.05 55.38"/>
    <path class="cls-2" d="M138.24,75.11l.52.55c.16-.2.28-.4.36-.62.07-.22.11-.44.11-.69,0-.27-.05-.53-.14-.77-.1-.24-.24-.46-.43-.64-.19-.2-.4-.34-.64-.45-.24-.1-.49-.15-.75-.15s-.51.05-.75.15c-.24.11-.45.25-.63.45-.19.18-.33.4-.43.64-.1.24-.14.5-.14.77,0,.56.19,1.04.57,1.42.38.38.85.57,1.41.57.15,0,.3-.02.43-.05.15-.03.28-.09.41-.16l-.96-1.03h1.06ZM139.33,76.3l1.14,1.23h-1.04l-.7-.76c-.24.12-.48.23-.73.29-.24.06-.5.1-.77.1-.36,0-.72-.07-1.07-.21-.35-.14-.65-.34-.91-.6-.27-.26-.48-.56-.62-.9-.15-.34-.21-.7-.21-1.09s.07-.75.21-1.09c.14-.34.35-.64.62-.9.27-.26.57-.47.93-.6.34-.14.71-.21,1.1-.21s.76.07,1.1.21c.35.13.65.34.92.6.27.27.48.57.62.91.15.34.22.7.22,1.08s-.07.72-.21,1.05c-.13.34-.34.63-.6.89"/>
    <path class="cls-2" d="M142.01,73.92h.22c.48,0,.81-.06.97-.16.16-.11.24-.29.24-.56,0-.29-.09-.49-.26-.61-.17-.12-.49-.18-.95-.18h-.22v1.5ZM141.95,74.63v2.41h-.81v-5.36h1.32c.39,0,.68.02.86.06.18.04.34.11.48.21.16.12.3.29.39.5.09.21.14.44.14.7s-.05.49-.14.71c-.1.22-.23.38-.39.5-.14.1-.3.17-.48.21-.19.04-.47.06-.86.06h-.5Z"/>
    <rect class="cls-2" x="147.31" y="74.94" width="1.97" height=".73"/>
    <path class="cls-2" d="M152.38,75.96l.7-.32c.07.24.18.43.37.55.17.12.39.19.67.19.26,0,.46-.08.61-.21.15-.14.23-.34.23-.58,0-.31-.26-.59-.78-.84-.08-.03-.13-.06-.17-.08-.59-.29-.99-.54-1.18-.78-.2-.23-.3-.52-.3-.86,0-.43.15-.79.45-1.06.3-.27.69-.41,1.17-.41.39,0,.73.08,1,.23.26.15.45.37.55.66l-.68.35c-.11-.16-.22-.29-.35-.37-.13-.08-.28-.12-.44-.12-.23,0-.42.06-.56.18-.14.12-.21.29-.21.49,0,.32.3.63.91.9.05.02.08.05.11.06.53.24.9.48,1.09.71.19.23.3.52.3.87,0,.51-.16.92-.49,1.21-.32.3-.75.44-1.29.44-.46,0-.84-.1-1.13-.31-.29-.21-.48-.52-.57-.91"/>
    <path class="cls-2" d="M157.94,74.93h1.49l-.55-1.22c-.03-.07-.07-.16-.1-.27-.04-.1-.07-.21-.1-.34-.03.12-.06.23-.1.33-.03.11-.06.2-.09.28l-.55,1.22ZM160.35,77.03l-.61-1.38h-2.12l-.62,1.38h-.91l2.59-5.57,2.6,5.57h-.92Z"/>
    <path class="cls-2" d="M161.47,75.96l.69-.32c.07.24.19.43.37.55.17.12.4.19.67.19s.46-.08.62-.21c.15-.14.23-.34.23-.58,0-.31-.26-.59-.79-.84-.07-.03-.13-.06-.17-.08-.59-.29-.98-.54-1.18-.78-.2-.23-.3-.52-.3-.86,0-.43.15-.79.45-1.06.3-.27.68-.41,1.16-.41.4,0,.73.08,1,.23.26.15.45.37.55.66l-.68.35c-.11-.16-.22-.29-.35-.37-.13-.08-.27-.12-.44-.12-.23,0-.42.06-.56.18-.14.12-.2.29-.2.49,0,.32.3.63.91.9.04.02.08.05.11.06.53.24.89.48,1.09.71.2.23.3.52.3.87,0,.51-.16.92-.48,1.21-.32.3-.76.44-1.3.44-.46,0-.82-.1-1.12-.31-.29-.21-.48-.52-.57-.91"/>
    <path class="cls-2" d="M170.48,74.36c0-.27-.05-.53-.15-.77-.1-.25-.24-.47-.42-.66-.19-.19-.39-.33-.63-.43-.24-.11-.49-.15-.75-.15s-.51.05-.75.15c-.24.1-.45.24-.64.43-.18.19-.33.4-.42.65-.1.24-.15.5-.15.77s.05.52.15.77c.1.24.24.46.42.65.19.18.4.33.63.43.24.1.49.15.76.15s.51-.05.75-.15c.23-.1.44-.25.64-.43.18-.2.32-.41.42-.65.1-.24.15-.5.15-.77M171.39,74.36c0,.38-.07.74-.22,1.08-.14.33-.35.63-.62.9-.27.27-.58.48-.93.62-.35.14-.71.21-1.09.21s-.76-.07-1.11-.21c-.35-.15-.66-.35-.93-.62-.28-.26-.49-.56-.62-.9-.15-.34-.21-.7-.21-1.08s.06-.75.21-1.08c.14-.34.35-.64.62-.92.28-.27.58-.47.93-.6.35-.14.71-.21,1.1-.21s.75.07,1.1.21c.34.13.66.34.93.6.27.27.48.58.62.92.15.34.22.7.22,1.08"/>
    <polygon class="cls-2" points="172.39 77.03 172.39 71.67 173.26 71.67 173.26 76.26 175.21 76.26 175.21 77.03 172.39 77.03"/>
    <path class="cls-2" d="M178.15,73.55h.8v5.11h-.8v-5.11ZM178.04,72.06c0-.13.05-.24.15-.34.1-.1.22-.15.36-.15s.26.05.35.14c.09.09.15.21.15.35,0,.15-.05.27-.15.36-.1.1-.21.15-.35.15s-.26-.06-.36-.15c-.1-.1-.15-.21-.15-.36"/>
    <path class="cls-2" d="M182.81,75.31c0-.32-.1-.6-.31-.82-.21-.22-.46-.34-.76-.34s-.55.11-.76.34c-.21.22-.31.49-.31.82s.1.6.31.82c.21.22.47.34.76.34s.55-.11.76-.34c.2-.22.31-.5.31-.82M179.83,75.3c0-.25.05-.5.14-.71.1-.23.24-.43.42-.61.18-.17.38-.31.62-.4.23-.09.47-.14.73-.14s.51.05.74.14c.23.09.44.23.62.41.18.18.32.38.42.6.1.22.15.46.15.7,0,.25-.05.49-.14.73-.1.22-.23.42-.41.59-.19.19-.41.33-.63.42-.23.09-.48.14-.73.14s-.49-.04-.73-.14c-.23-.1-.44-.23-.62-.41-.18-.18-.33-.38-.42-.6-.09-.23-.14-.47-.14-.72"/>
    <path class="cls-2" d="M184.53,73.55h.79v3.48h-.79v-3.48ZM184.42,72.06c0-.13.05-.24.15-.34.1-.1.22-.15.35-.15.14,0,.26.05.36.14.1.09.14.21.14.35,0,.15-.04.27-.14.36-.1.1-.21.15-.36.15-.14,0-.25-.06-.35-.15-.1-.1-.15-.21-.15-.36"/>
    <path class="cls-2" d="M186.46,77.03v-3.47h.75v.57c.16-.24.34-.41.55-.53.22-.11.48-.17.79-.17.26,0,.47.04.66.13.19.08.33.2.43.37.06.09.11.2.13.33.02.12.04.35.04.66v2.11h-.8v-1.78c0-.46-.06-.76-.16-.91-.12-.15-.32-.22-.6-.22-.18,0-.35.03-.49.1-.15.07-.26.17-.35.29-.06.08-.1.18-.12.31-.02.14-.03.34-.03.63v1.58h-.8Z"/>
    <polygon class="cls-2" points="191.05 77.03 191.05 74.26 190.45 74.26 190.45 73.56 191.05 73.56 191.05 72.24 191.85 72.24 191.85 73.56 192.46 73.56 192.46 74.26 191.85 74.26 191.85 77.03 191.05 77.03"/>
    <path class="cls-2" d="M196.63,77.24l-1.82-3.68h.87l.76,1.75c.02.05.06.13.09.24.03.11.07.24.11.38.02-.1.05-.2.09-.31.03-.1.07-.21.12-.31l.75-1.75h.87l-1.82,3.68Z"/>
    <path class="cls-2" d="M201.47,74.88c-.03-.26-.12-.44-.29-.58-.15-.12-.37-.19-.65-.19-.26,0-.47.06-.63.19-.16.13-.27.32-.33.58h1.9ZM202.29,75.41h-2.78c.02.33.11.58.29.76.17.19.41.28.69.28.26,0,.47-.05.64-.16.17-.11.32-.28.44-.52l.67.37c-.19.35-.43.61-.73.78-.28.17-.62.25-1.01.25-.56,0-1-.16-1.32-.5-.33-.35-.5-.8-.5-1.36s.17-.99.51-1.34c.35-.35.78-.53,1.32-.53s1,.16,1.31.49c.32.32.47.76.47,1.34v.15Z"/>
    <path class="cls-2" d="M203.12,77.03v-3.47h.74v.57c.16-.24.35-.41.56-.53.21-.11.48-.17.78-.17.26,0,.48.04.66.13.18.08.33.2.43.37.06.09.11.2.13.33.03.12.04.35.04.66v2.11h-.8v-1.78c0-.46-.05-.76-.17-.91-.11-.15-.31-.22-.59-.22-.19,0-.35.03-.5.1-.15.07-.26.17-.35.29-.05.08-.09.18-.12.31-.02.14-.04.34-.04.63v1.58h-.79Z"/>
    <polygon class="cls-2" points="207.72 77.03 207.72 74.26 207.11 74.26 207.11 73.56 207.72 73.56 207.72 72.24 208.51 72.24 208.51 73.56 209.12 73.56 209.12 74.26 208.51 74.26 208.51 77.03 207.72 77.03"/>
    <path class="cls-2" d="M210.57,73.55v1.96c0,.34.07.58.2.73.15.15.37.22.68.22s.54-.07.68-.22c.14-.15.21-.39.21-.73v-1.96h.79v1.72c0,.67-.13,1.15-.4,1.45-.27.3-.69.45-1.27.45s-1.03-.15-1.29-.44c-.27-.3-.4-.78-.4-1.45v-1.72h.8Z"/>
    <path class="cls-2" d="M215.01,74.12c.08-.23.19-.4.34-.51.14-.11.31-.17.52-.17.11,0,.22.01.33.04.11.03.22.07.32.12l-.28.67c-.07-.05-.15-.09-.23-.11-.08-.02-.17-.03-.26-.03-.27,0-.45.1-.57.32-.11.21-.17.57-.17,1.07v1.52h-.8v-3.48h.8v.56Z"/>
    <path class="cls-2" d="M219.5,74.88c-.03-.26-.13-.44-.29-.58-.15-.12-.37-.19-.65-.19s-.48.06-.63.19c-.16.13-.27.32-.33.58h1.9ZM220.32,75.41h-2.78c.02.33.12.58.29.76.17.19.41.28.7.28.25,0,.47-.05.64-.16.16-.11.31-.28.44-.52l.67.37c-.19.35-.43.61-.73.78-.28.17-.62.25-1.01.25-.55,0-1-.16-1.33-.5-.33-.35-.49-.8-.49-1.36s.17-.99.51-1.34c.34-.35.79-.53,1.31-.53.56,0,1,.16,1.31.49.31.32.47.76.47,1.34v.15Z"/>
    <path class="cls-2" d="M189.01,36.84h14.27l-3.53,22.54s-3.72,3.52-7.25,0l-3.5-22.54Z"/>
    <path class="cls-3" d="M193.85,34.44c.2,1.33-.73,2.4-2.07,2.4h-.03c-1.34,0-2.5-1.09-2.57-2.43l-1.88-33c-.08-1.34.24-1.82.7-1.06.45.75,1,2.46,1.2,3.78l4.64,30.3Z"/>
    <path class="cls-3" d="M198.43,34.44c-.2,1.33.73,2.4,2.07,2.4h.03c1.34,0,2.49-1.09,2.57-2.43l1.87-33c.07-1.34-.24-1.82-.7-1.06-.46.75-1,2.46-1.2,3.78l-4.64,30.3Z"/>
    <path class="cls-3" d="M194.72,37.85c-.71-.78-.19-1.41,1.15-1.41h.54c1.34,0,1.79.64,1.01,1.41-.78.78-2,.78-2.7,0"/>
    <path class="cls-3" d="M200.01,61.34c-.14-1.13-.98-1.59-1.89-1.02h-3.96c-.9-.57-1.75-.11-1.89,1.02-.14,1.14.26,3.02.89,4.19s1.97,2.13,2.99,2.13,2.36-.96,2.98-2.13c.62-1.17,1.02-3.05.89-4.19"/>
    <path class="cls-3" d="M200.01,61.34c-.14-1.13-.98-1.59-1.89-1.02h-3.96c-.9-.57-1.75-.11-1.89,1.02-.14,1.14.26,3.02.89,4.19s1.97,2.13,2.99,2.13,2.36-.96,2.98-2.13c.62-1.17,1.02-3.05.89-4.19"/>
    <path class="cls-2" d="M193.12,63.89s2.77,3.26,6.03,0c0,0-3.01,5.58-6.03,0"/>
    <path class="cls-3" d="M187.37,44.25c-.23-1.32-1.45-2.8-2.69-3.3l-.85-.34c-1.24-.49-2.8-1.86-3.45-3.04l-1.69-3.03c-.65-1.17-.1-2.02,1.24-1.88l3.16.33c1.33.14,3.19,1.04,4.14,1.98l6.6,6.69c.94.96,1.34,2,.88,2.33-.46.32-.93,1.69-1.05,3.02l-.77,9c-.12,1.34-.62,1.41-1.13.17l-.68-1.7c-.5-1.24-1.24-2.37-1.63-2.5-.39-.13-.91-1.32-1.15-2.64l-.93-5.12Z"/>
    <path class="cls-2" d="M181.85,36.82c-.48-.89-.04-1.63.97-1.63s2.52.88,3.33,1.94l.31.4c.81,1.06.39,1.72-.91,1.46l-.43-.08c-1.31-.26-2.78-1.21-3.27-2.09"/>
    <path class="cls-2" d="M189.07,43.25h0c.58.64,1.36,1.49,1.73,1.89.37.41-.35,1.11-1.61,1.57,0,0-1.35.49-.12-3.46"/>
    <path class="cls-3" d="M204.91,44.25c.23-1.32,1.44-2.8,2.69-3.3l.85-.34c1.25-.49,2.79-1.86,3.45-3.04l1.69-3.03c.65-1.17.09-2.02-1.24-1.88l-3.16.33c-1.33.14-3.19,1.04-4.13,1.98l-6.61,6.69c-.94.96-1.34,2-.87,2.33.46.32.93,1.69,1.05,3.02l.77,9c.12,1.34.61,1.41,1.12.17l.68-1.7c.5-1.24,1.24-2.37,1.63-2.5.39-.13.91-1.32,1.15-2.64l.93-5.12Z"/>
    <path class="cls-2" d="M210.43,36.82c.48-.89.04-1.63-.98-1.63s-2.52.88-3.33,1.94l-.3.4c-.81,1.06-.4,1.72.92,1.46l.42-.08c1.31-.26,2.79-1.21,3.27-2.09"/>
    <path class="cls-2" d="M203.21,43.25h0c-.59.64-1.37,1.5-1.74,1.9-.37.4.36,1.11,1.62,1.56,0,0,1.35.49.12-3.46"/>
  </g>
</svg>