<?xml version="1.0" encoding="UTF-8"?>
<svg id="Layer_2" data-name="Layer 2" xmlns="http://www.w3.org/2000/svg" viewBox="0 0 248.95 156.2">
  <defs>
    <style>
      .cls-1 {
        fill: #8a2f49;
      }

      .cls-2 {
        fill: #702840;
      }

      .cls-3 {
        fill: #fff;
      }

      .cls-4 {
        fill: #62af45;
      }

      .cls-5, .cls-6, .cls-7 {
        fill: #343536;
      }

      .cls-8 {
        letter-spacing: .12em;
      }

      .cls-6 {
        letter-spacing: .12em;
      }

      .cls-6, .cls-7 {
        font-family: P22Bangersfield-Demi, 'P22 Bangersfield';
        font-size: 16.2px;
        font-weight: 300;
      }

      .cls-9 {
        fill: #ddd;
      }

      .cls-10 {
        fill: #5b1d35;
      }

      .cls-11 {
        letter-spacing: .06em;
      }

      .cls-12 {
        letter-spacing: .09em;
      }

      .cls-13 {
        letter-spacing: .09em;
      }
    </style>
  </defs>
  <g id="Layer_1-2" data-name="Layer 1">
    <g>
      <g>
        <path class="cls-1" d="M154.62,25.62c-.46.23-.91.45-1.34.67.5-.24.94-.47,1.34-.67Z"/>
        <path class="cls-1" d="M152.96,1.04c.44-.1.71-.16.71-.16,0,0-.25.05-.71.16Z"/>
        <path class="cls-1" d="M177.52,11.32c-2.59.53-7.93.69-7.93.69,0,0,.15-1.68.15-2.82s1.83-6.33-3.73-8.31c-5.56-1.98-12.35,0-12.35,0l4.12,1.14s-1.98.69-3.35,1.3c-1.37.61-.99.72-.99.72l4.34.8-4.5,2.06,4.5.61-4.42,2.06,4.42.69-4.04,2.06,4.04.84-4.12,1.83,4.12.76-4.34,1.91,4.34.3-4.34,2.44h4.65l-4.5,3.28h4.5s-.05.23-3.47,1.95c0,0,0,0,.01,0,4.37-2.14,6.05,0,6.05,0l-.91,6.36s.53.3,7.01.38c6.48.08,10.14-2.83,10.14-2.83l4.04-19.58s-.84.84-3.43,1.37Z"/>
      </g>
      <g>
        <path class="cls-3" d="M138.7,7.21s3.08-2.13,7.57-3.96c4.5-1.83,7.39-2.36,7.39-2.36l4.12,1.14s-1.98.69-3.35,1.3c-1.37.61-.99.72-.99.72l4.34.8-4.5,2.06,4.5.61-4.42,2.06,4.42.69-4.04,2.06,4.04.84-4.12,1.83,4.12.76-4.34,1.91,4.34.3-4.34,2.44h4.65l-4.5,3.28h4.5s-.08.36-7.01,3.69c-6.94,3.33-12.31,7.82-12.38,8.89-.06,1.07,0-29.04,0-29.04Z"/>
        <path class="cls-9" d="M138.69,36.41h0s-.08,0-.11-.16h-.03s0-.07.02-.1c-.04-.42-.04-1.52-.04-4.42,0-2.73,0-6.36,0-9.99,0-7.27.02-14.53.02-14.53,0-.04.02-.09.06-.11.03-.02,3.14-2.16,7.6-3.98,4.46-1.81,7.39-2.37,7.42-2.37.02,0,.04,0,.06,0l4.12,1.14c.06.02.1.07.1.13s-.04.11-.09.13c-.02,0-1.99.69-3.34,1.29-.57.25-.8.41-.9.49l4.22.78c.06.01.1.06.11.12,0,.06-.02.12-.08.14l-4.06,1.86,4.02.55c.06,0,.11.06.12.12,0,.06-.02.12-.08.15l-4.01,1.87,3.97.62c.06,0,.11.06.12.11,0,.06-.02.12-.07.14l-3.69,1.88,3.65.76c.06.01.1.06.11.12,0,.06-.03.12-.08.14l-3.71,1.65,3.68.68c.06.01.11.06.11.12,0,.06-.03.12-.08.14l-3.83,1.68,3.79.27c.06,0,.11.05.13.11.01.06-.01.12-.07.15l-3.88,2.18h4.12c.06,0,.11.04.13.1.02.06,0,.12-.05.15l-4.15,3.03h4.07s.08.02.11.05c.03.03.04.07.03.12-.08.37-4.47,2.53-7.09,3.78-6.88,3.3-12.24,7.79-12.3,8.77,0,.07-.07.16-.14.16ZM138.84,7.28c-.02,8.95-.04,25.09-.02,28.38,1.18-1.73,6.24-5.58,12.19-8.43,4.53-2.17,6.11-3.07,6.67-3.42h-4.09c-.06,0-.11-.04-.13-.1-.02-.06,0-.12.05-.15l4.15-3.03h-4.23c-.06,0-.12-.04-.13-.1-.02-.06.01-.12.07-.16l3.94-2.21-3.88-.27c-.06,0-.12-.05-.13-.11-.01-.06.02-.12.08-.15l3.93-1.73-3.67-.68c-.06-.01-.1-.06-.11-.12,0-.06.03-.12.08-.14l3.72-1.66-3.62-.75c-.06-.01-.1-.06-.11-.12,0-.06.02-.11.07-.14l3.66-1.86-4-.62c-.06,0-.11-.06-.12-.12s.02-.12.08-.14l3.99-1.86-4.03-.55c-.06,0-.11-.06-.12-.12,0-.06.02-.12.08-.15l4.1-1.88-3.91-.72c-.08-.02-.16-.09-.16-.18,0-.15.12-.36,1.12-.8.98-.44,2.29-.92,2.95-1.15l-3.66-1.02c-.32.06-3.15.65-7.34,2.35-4.09,1.66-7.04,3.61-7.49,3.91Z"/>
      </g>
      <path class="cls-3" d="M137.58,56.14s-3.23,4.87-3.67,8.4c-.45,3.53-.13,8.29,0,8.58s6.17,9.44,6.17,9.44l20.49-1.66,7.28,5.3,8.07-1.48s3.28-14.99,2.65-17.88c-.63-2.88-3.1-7.39-3.1-7.39,0,0-7.98-3.71-10.29-4-2.31-.29-8.62-4.73-8.62-4.73,0,0-4.07-1.26-10.99-.17-6.92,1.08-7.7,1.93-7.7,1.93l-.29,3.65Z"/>
      <path class="cls-3" d="M97.03,58.66s-9.37,2.86-10.4,4.58-4.76,19.17-3.11,20.83c1.65,1.66,7.49,6.42,7.49,6.42,0,0,.14.65,2.16.5,2.02-.14,9.89-7.93,9.89-7.93l18.08-.72,5.45-11.18s-1-4.47-1.28-5.87c-.28-1.4-2.98-6.87-5.34-9.04-2.36-2.17-4.95-2.78-4.95-2.78,0,0-9.26-.92-12.63,1.47-3.38,2.39-4.96,3.54-4.96,3.54"/>
      <g>
        <path class="cls-4" d="M7.62,98.68s-.23-1.6,0-4.12c.23-2.52.57-8.12.57-8.12"/>
        <path class="cls-4" d="M7.62,99.5c-.41,0-.76-.3-.82-.71,0-.07-.24-1.73,0-4.31.22-2.47.57-8.04.57-8.09.03-.46.42-.8.88-.78.46.03.8.42.78.88,0,.06-.35,5.64-.57,8.14-.22,2.37,0,3.91,0,3.93.06.45-.25.87-.7.94-.04,0-.08,0-.12,0Z"/>
      </g>
      <g>
        <line class="cls-4" x1="14.48" y1="79.7" x2="13.91" y2="98.68"/>
        <path class="cls-4" d="M13.91,99.5s-.02,0-.03,0c-.46-.01-.82-.4-.8-.85l.57-18.98c.01-.46.41-.82.85-.8.46.01.82.4.8.85l-.57,18.98c-.01.45-.38.8-.83.8Z"/>
      </g>
      <g>
        <path class="cls-4" d="M7.96,90.1s1.73-2.17,4.01-2.34,2.23,0,2.23,0"/>
        <path class="cls-4" d="M7.96,90.92c-.18,0-.37-.06-.52-.18-.36-.29-.42-.81-.13-1.16.08-.1,1.99-2.45,4.6-2.65,2.32-.17,2.64-.06,2.93.29.17.21.23.5.16.76-.13.44-.58.69-1.02.57-.03-.01-.07-.02-.1-.04-.16-.01-.63-.03-1.84.06-1.88.14-3.41,2.01-3.42,2.03-.16.2-.4.31-.65.31Z"/>
      </g>
      <path class="cls-4" d="M21.69,98.99s-.04,0-.07,0c-.46-.04-.8-.44-.76-.89l2.17-26.93c.03-.33.25-.62.57-.72.32-.1.67,0,.89.26.61.73,2.54,2.68,4.07,2.92.7.11,1.11.18,1.35.22.26.05,1.07.19.97.98-.01.09-.04.2-.11.31l-1.58,22.34c-.02.35-.27.65-.6.74-.06.02-1.59.43-3.14-.48-.81-.47-1.97-1.33-2.75-1.92l-.2,2.42c-.04.43-.4.76-.83.76ZM22.87,93.84s.01.01.02.02c.02.02,2.2,1.74,3.4,2.45.48.28.96.36,1.31.37l1.5-21.29c-.2-.03-.46-.08-.8-.13-1.39-.22-2.79-1.25-3.76-2.14l-1.67,20.72Z"/>
      <g>
        <line class="cls-4" x1="30.06" y1="65.69" x2="29.93" y2="75.35"/>
        <path class="cls-4" d="M29.93,76.18h-.01c-.46,0-.82-.38-.82-.84l.13-9.66c0-.46.39-.81.84-.82.46,0,.82.38.82.84l-.13,9.66c0,.45-.38.82-.83.82Z"/>
      </g>
      <g>
        <path class="cls-4" d="M35.12,97.82s1.83-18.81,3.49-26.13c1.66-7.32,3.49-16.35,3.49-16.35"/>
        <path class="cls-4" d="M35.12,98.65s-.05,0-.08,0c-.46-.04-.79-.45-.75-.91.08-.77,1.85-18.94,3.5-26.23,1.64-7.22,3.46-16.24,3.48-16.33.09-.45.53-.74.98-.65.45.09.74.53.65.98-.02.09-1.85,9.13-3.49,16.37-1.63,7.18-3.45,25.83-3.47,26.02-.04.43-.4.75-.82.75Z"/>
      </g>
      <g>
        <path class="cls-4" d="M46.32,88.89s-3.03-.79-5.66.3c-2.63,1.09-4.97,3.09-4.97,3.09"/>
        <path class="cls-4" d="M35.7,93.1c-.23,0-.47-.1-.63-.29-.3-.35-.26-.87.09-1.17.1-.09,2.47-2.1,5.19-3.22,2.85-1.18,6.05-.37,6.18-.33.44.11.71.57.59,1.01-.12.44-.56.71-1.01.59h0s-2.8-.7-5.14.26c-2.48,1.02-4.72,2.93-4.74,2.95-.16.13-.35.2-.54.2Z"/>
      </g>
      <g>
        <path class="cls-4" d="M46.32,98.16s1.31-30.18,1.66-35.39c.34-5.2,1.77-13.78,1.77-13.78"/>
        <path class="cls-4" d="M46.33,98.99s-.02,0-.04,0c-.46-.02-.81-.41-.79-.86.01-.3,1.32-30.25,1.66-35.41.34-5.18,1.77-13.77,1.78-13.86.08-.45.5-.76.95-.68.45.08.76.5.68.95-.01.09-1.43,8.6-1.76,13.7-.34,5.13-1.64,35.07-1.66,35.37-.02.45-.39.79-.83.79Z"/>
      </g>
      <g>
        <path class="cls-4" d="M39.93,65.69s1.42,1.83,4.22,2.29c2.8.46,3.57-.46,3.57-.46"/>
        <path class="cls-4" d="M45.59,68.93c-.45,0-.98-.04-1.57-.14-3.09-.5-4.68-2.51-4.74-2.6-.28-.36-.22-.88.15-1.16.36-.28.88-.22,1.16.14.02.03,1.29,1.59,3.7,1.98,2.17.36,2.84-.21,2.84-.22-.03.02-.04.04-.04.04l1.27,1.07c-.14.17-.86.88-2.77.88Z"/>
      </g>
      <g>
        <path class="cls-4" d="M59.36,41.57s-.91,22.81-1.43,29.67c-.51,6.86-3.94,27.21-3.94,27.21"/>
        <path class="cls-4" d="M53.99,99.28s-.09,0-.14-.01c-.45-.08-.76-.5-.68-.96.03-.2,3.43-20.39,3.94-27.14.51-6.77,1.42-29.41,1.43-29.64.02-.46.41-.82.86-.79.46.02.81.4.8.86,0,.23-.92,22.9-1.43,29.7-.51,6.82-3.81,26.46-3.95,27.29-.07.4-.42.69-.82.69Z"/>
      </g>
      <g>
        <path class="cls-4" d="M66.33,98.16s.97-27.15.74-36.7c-.23-9.55-2.06-23.15-2.06-23.15"/>
        <path class="cls-4" d="M66.33,98.99s-.02,0-.03,0c-.46-.02-.82-.4-.8-.86,0-.27.97-27.24.74-36.65-.23-9.39-2.03-22.93-2.05-23.06-.06-.45.26-.87.71-.93.45-.07.87.26.93.71.02.14,1.84,13.76,2.07,23.24.23,9.46-.73,36.48-.74,36.75-.02.45-.38.8-.83.8Z"/>
      </g>
      <g>
        <path class="cls-4" d="M58.9,52.49s2.53-1.87,4.98-2.23l2.45-.36"/>
        <path class="cls-4" d="M58.9,53.32c-.25,0-.51-.12-.67-.34-.27-.37-.19-.89.17-1.16.11-.08,2.73-2,5.35-2.39l2.44-.36c.45-.07.87.25.94.7.07.45-.25.87-.7.94l-2.45.36c-2.21.33-4.58,2.06-4.61,2.08-.15.11-.32.16-.49.16Z"/>
      </g>
      <g>
        <path class="cls-4" d="M57.24,77.29s2.97-.86,5.66,0c2.69.86,4.21,2.29,4.21,2.29"/>
        <path class="cls-4" d="M67.11,80.41c-.2,0-.41-.07-.57-.22-.01-.01-1.44-1.32-3.89-2.1-2.42-.77-5.15,0-5.18,0-.44.13-.9-.13-1.03-.57s.13-.9.57-1.03c.13-.04,3.25-.92,6.14,0,2.83.9,4.46,2.41,4.52,2.47.33.31.35.84.04,1.17-.16.17-.38.26-.6.26Z"/>
      </g>
      <g>
        <path class="cls-4" d="M73.54,98.16s-.51-24.75-.11-33.79c.4-9.03,2.92-34.47,2.92-34.47"/>
        <path class="cls-4" d="M73.54,98.99c-.45,0-.82-.36-.83-.81,0-.25-.51-24.88-.11-33.84.4-8.95,2.89-34.26,2.92-34.52.05-.46.46-.79.91-.74.46.05.79.45.74.91-.03.25-2.52,25.52-2.91,34.43-.39,8.9.11,33.48.11,33.73,0,.46-.35.84-.81.85h-.02Z"/>
      </g>
      <g>
        <path class="cls-4" d="M82.09,25.96c-.23.15-1.45,13.11-1.91,18.98-.46,5.87-.61,16.92-.61,16.92"/>
        <path class="cls-4" d="M79.58,62.69h-.01c-.46,0-.82-.38-.82-.84,0-.11.16-11.15.61-16.97.23-3,.65-7.68,1.04-11.65.75-7.63.81-7.67,1.23-7.96.38-.25.9-.15,1.15.23.16.25.18.54.07.79-.26,1.15-1.35,12.42-1.84,18.71-.45,5.78-.61,16.76-.61,16.87,0,.45-.38.82-.83.82ZM82.55,26.65h0,0ZM82.55,26.65s0,0,0,0c0,0,0,0,0,0Z"/>
      </g>
      <g>
        <path class="cls-4" d="M90.1,52.49s.76-13.19,1.83-20.66c1.07-7.47,2.13-12.5,2.13-12.5"/>
        <path class="cls-4" d="M90.1,53.32s-.03,0-.05,0c-.46-.03-.81-.42-.78-.88,0-.13.78-13.31,1.84-20.73,1.06-7.41,2.13-12.5,2.14-12.56.09-.45.53-.73.98-.64.45.09.73.54.64.98-.01.05-1.07,5.09-2.12,12.45-1.05,7.35-1.81,20.46-1.82,20.59-.03.44-.39.78-.83.78Z"/>
      </g>
      <g>
        <path class="cls-4" d="M100.54,41.57s2.06-16.98,2.74-20.64c.69-3.66,2.06-7.77,2.06-7.77"/>
        <path class="cls-4" d="M100.54,42.39s-.07,0-.1,0c-.45-.06-.78-.47-.72-.92.08-.69,2.07-17.05,2.75-20.69.69-3.67,2.03-7.71,2.09-7.88.14-.43.61-.67,1.05-.52.43.14.67.61.52,1.05-.01.04-1.36,4.11-2.03,7.67-.67,3.59-2.72,20.42-2.74,20.58-.05.42-.41.73-.82.73Z"/>
      </g>
      <g>
        <path class="cls-4" d="M91.34,36.73s1.96-3.79,6.15-4.07l4.19-.27"/>
        <path class="cls-4" d="M91.34,37.56c-.13,0-.26-.03-.38-.09-.41-.21-.56-.71-.35-1.11.09-.17,2.23-4.21,6.84-4.51l4.19-.27c.45-.03.85.32.88.77.03.46-.32.85-.77.88l-4.19.27c-3.66.24-5.4,3.48-5.47,3.62-.15.28-.44.45-.74.45Z"/>
      </g>
      <g>
        <path class="cls-4" d="M112.51,47.07s.91-17.46,1.14-24.01c.23-6.56,0-13.49,0-13.49"/>
        <path class="cls-4" d="M112.51,47.9s-.03,0-.04,0c-.46-.02-.81-.41-.78-.87,0-.17.92-17.52,1.14-24,.22-6.45,0-13.37,0-13.44-.02-.46.34-.84.8-.86.45-.03.84.34.86.8,0,.07.23,7.04,0,13.55-.23,6.49-1.13,23.85-1.14,24.02-.02.44-.39.79-.83.79Z"/>
      </g>
      <g>
        <path class="cls-4" d="M119.21,43.41s.53-14.18.69-20.43,0-15.17,0-15.17"/>
        <path class="cls-4" d="M119.21,44.24s-.02,0-.03,0c-.46-.02-.81-.4-.8-.86,0-.14.54-14.24.69-20.42.15-6.16,0-15.05,0-15.13,0-.46.36-.83.81-.84.44-.01.83.36.84.81,0,.09.15,9.01,0,15.2-.15,6.18-.68,20.3-.69,20.44-.02.45-.38.8-.83.8Z"/>
      </g>
      <g>
        <path class="cls-4" d="M113.73,13.61s2.43,1.6,3.96,1.68,2.28,0,2.28,0"/>
        <path class="cls-4" d="M118.95,16.15c-.35,0-.79,0-1.31-.03-1.7-.08-4.1-1.64-4.37-1.81-.38-.25-.49-.77-.24-1.15.25-.38.77-.49,1.15-.24.63.41,2.48,1.49,3.54,1.54,1.42.07,2.15,0,2.15,0,.46-.03.86.29.91.74.05.45-.29.86-.74.91-.02,0-.39.04-1.09.04Z"/>
      </g>
      <g>
        <path class="cls-4" d="M113.03,36.73s2.06-2.62,3.82-3c1.75-.38,2.36,0,2.36,0"/>
        <path class="cls-4" d="M113.03,37.56c-.18,0-.36-.06-.51-.18-.36-.28-.42-.8-.14-1.16.23-.29,2.3-2.86,4.29-3.3,1.93-.42,2.77-.02,2.98.11l-.88,1.41s.02.01.05.03c0,0-.5-.21-1.8.08-1.06.23-2.61,1.78-3.34,2.7-.16.21-.41.32-.65.32Z"/>
      </g>
      <g>
        <path class="cls-4" d="M127.22,4.84s1.91,7.09,1.91,16.85v25.38"/>
        <path class="cls-4" d="M129.12,47.9c-.46,0-.83-.37-.83-.83v-25.38c0-9.54-1.86-16.56-1.88-16.63-.12-.44.14-.9.59-1.02.44-.12.9.14,1.02.59.08.29,1.93,7.31,1.93,17.06v25.38c0,.46-.37.83-.83.83Z"/>
      </g>
      <g>
        <path class="cls-4" d="M129.12,16.43s1.6-2.29,4.65-3.66,4.65-1.45,4.65-1.45"/>
        <path class="cls-4" d="M129.12,17.26c-.16,0-.33-.05-.48-.15-.37-.26-.46-.78-.2-1.15.07-.1,1.77-2.49,4.99-3.94,3.16-1.42,4.88-1.52,4.95-1.52.47-.02.85.33.87.79.02.46-.33.85-.79.87,0,0-1.52.1-4.35,1.38-2.79,1.25-4.3,3.36-4.31,3.38-.16.23-.42.35-.68.35Z"/>
      </g>
      <path class="cls-4" d="M7.52,98.16s-.05-2.15-3.1-3.37c-3.05-1.22-4.42-.84-4.42-.84,0,0,1.52,2.93,4.04,3.87,2.52.93,3.48.34,3.48.34Z"/>
      <path class="cls-4" d="M22.36,89.85s.89-5.28-1.39-8.63c-2.29-3.35-3.58-3.81-3.58-3.81,0,0-1.52,5.18.91,8.61,2.44,3.43,4.06,3.83,4.06,3.83Z"/>
      <path class="cls-4" d="M16.01,92.27s.87-1.79,3.05-2.42c2.18-.63,3.35-.67,3.35-.67,0,0-.89,2.25-2.69,2.55-1.81.3-3.71.53-3.71.53Z"/>
      <path class="cls-4" d="M36.64,84.2s-.02-2.68-1.52-4.62c-1.51-1.94-2.95-2.17-2.95-2.17,0,0-.23,2.82,1.75,4.8,1.98,1.98,2.73,1.99,2.73,1.99Z"/>
      <path class="cls-4" d="M34.83,70.52s-.46-2.26-1.68-3.94-3.23-1.52-3.23-1.52c0,0,0,2.47,2.45,3.96l2.45,1.5Z"/>
      <path class="cls-4" d="M41.51,58.21s-1.26-.92-3.78,1.44-3.33,5.41-3.33,5.41c0,0,2.8-.56,4.62-2.13,1.82-1.57,2.48-4.72,2.48-4.72Z"/>
      <path class="cls-4" d="M47.85,65.06s1.01-2.44,4.13-3.2c3.13-.76,3.66-.32,3.66-.32,0,0-1.68,2.6-3.58,3.14s-4.21.38-4.21.38Z"/>
      <path class="cls-4" d="M47.85,65.69s-1.28,1.96,2.76,5.55,5.03,3.05,5.03,3.05c0,0-.08-4.15-2.67-6.49-2.59-2.35-4.94-3.76-4.94-3.76l-.19,1.66Z"/>
      <path class="cls-4" d="M58.65,58.03s-.49-4.94-2.62-7.15c-2.13-2.21-4.28-3.25-4.28-3.25,0,0-.14,3.94,1.91,6.99s4.98,3.41,4.98,3.41Z"/>
      <path class="cls-4" d="M55.2,91.03s-.39-3.03-2.3-5.7c-1.91-2.67-3.81-3.51-3.81-3.51,0,0,.4,4.82,2.56,7.06,2.16,2.24,3.54,2.15,3.54,2.15Z"/>
      <path class="cls-4" d="M65.79,44.71c-.03-.23-.54-5.94,3.04-8.8,3.58-2.86,4.44-3.51,4.44-3.51,0,0,.21,6.48-2.08,9.17-2.29,2.69-5.13,4.21-5.13,4.21l-.28-1.07Z"/>
      <path class="cls-4" d="M74.3,52.08c.02-.21-.21-3.71-2.35-5.01-2.13-1.3-2.44-1.52-2.44-1.52,0,0-.53,2.06,1.53,4.34,2.06,2.29,3.76,2.19,3.76,2.19"/>
      <path class="cls-4" d="M79.7,56.14s.64-2.86,3.77-4.06c3.13-1.2,3.89-1.28,3.89-1.28,0,0-1.71,3.81-3.83,4.54-2.12.72-3.83.8-3.83.8Z"/>
      <path class="cls-4" d="M79.2,58.43s-.53-1.21-2.86-1.98c-2.33-.77-2.37-.31-2.37-.31,0,0,.84,2.13,3.24,2.82s1.98-.53,1.98-.53Z"/>
      <path class="cls-4" d="M81.52,30.35c-.01.11-2.85.14-4.23,2.04-1.38,1.9-1.91,2.75-1.91,2.75,0,0,4.34-.23,5.45-1.58s.69-3.21.69-3.21Z"/>
      <path class="cls-4" d="M91.34,35.15s-1.55-4.84-3.99-6.83c-2.44-1.98-2.59-3.2-2.59-3.2,0,0-1.14,5.84,1.45,8.44,2.59,2.61,3.43,3.17,3.43,3.17,0,0-1.52-.48-3.58,1.57-2.06,2.06-2.9,3.26-2.9,3.26,0,0,3.77.04,5.87-1.35,2.1-1.4,2.31-5.06,2.31-5.06Z"/>
      <path class="cls-4" d="M102.44,26.62s1.3-2.72,5.04-4.63c3.73-1.91,4.42-1.98,4.42-1.98,0,0-1.07,5.29-4.27,6.61-3.2,1.32-5.42,1.7-5.42,1.7l.23-1.7Z"/>
      <path class="cls-4" d="M112.51,39.09s.08-3.56-2.52-5.52c-2.59-1.96-4.65-3.21-4.65-3.21,0,0,0,4.6,2.44,7.19s5.07,2.9,5.07,2.9l-.34-1.36Z"/>
      <path class="cls-4" d="M120.28,12.31c-.33,0,.76-3.58,3.05-4.5l2.29-.91s.38,3.51-1.75,4.42c-2.13.91-3.58.99-3.58.99Z"/>
      <path class="cls-4" d="M129.12,27.36c0-.1.15-1.71-2.59-2.7l-2.74-.99s0,1.68,2.67,3.2,1.65.61-.81,2.74c-2.47,2.13-3.3,5.78-3.3,5.78,0,0,2.44-.1,4.88-1.83s2.29-6.2,2.29-6.2"/>
      <path class="cls-4" d="M138.47,38.38s0-.13.07-.36c.22-.74,1.05-2.47,4.22-3.46,4.12-1.29,5.41-1.81,5.41-1.81,0,0-.84,3.42-3.58,4.64-2.74,1.22-3.81.99-3.81.99,0,0,1.68,0,3.43,1.22,1.75,1.22,1.91,2.59,1.91,2.59,0,0-3.13.72-5.41-.63s-3.58-3.03-3.58-3.03"/>
      <path class="cls-4" d="M129.12,44.24c-.24,0-.48-.11-.65-.31-.29-.36-.23-.88.13-1.16.13-.1,3.24-2.57,5.99-3.13,1.45-.3,2.51-.4,3.2-.42.03-3.81.16-19.51,0-22.27-.12-2-.14-4.29-.15-6.14,0-1.12-.02-2.09-.04-2.72-.07-1.6-.82-5.87-.83-5.92-.08-.45.22-.88.67-.96.45-.08.88.22.96.67.03.18.77,4.42.85,6.13.03.66.04,1.64.04,2.78.01,1.82.03,4.09.15,6.05.19,3.19,0,22.4,0,23.22,0,.23-.1.46-.28.61s-.41.23-.64.2c0,0-1.2-.11-3.59.38-2.36.49-5.26,2.78-5.29,2.81-.15.12-.34.18-.52.18Z"/>
      <g>
        <path class="cls-4" d="M177.98,47.63s1.6-13.78,2.97-20.87c1.37-7.09,4.8-20.47,4.8-20.47"/>
        <path class="cls-4" d="M177.98,48.46s-.06,0-.1,0c-.45-.05-.78-.46-.73-.92.02-.14,1.62-13.89,2.98-20.93,1.36-7.03,4.78-20.38,4.81-20.51.11-.44.57-.71,1.01-.6.44.11.71.57.6,1.01-.03.13-3.44,13.43-4.79,20.42-1.35,6.98-2.95,20.67-2.96,20.81-.05.42-.41.73-.82.73Z"/>
      </g>
      <path class="cls-4" d="M189.13,98.93c-.42,0-.78-.32-.82-.74-.03-.29-3.03-29.35-2.35-51.14.68-21.85,4.68-35.37,4.72-35.5.13-.44.59-.69,1.03-.55.44.13.69.59.56,1.03-.04.13-3.98,13.47-4.65,35.08-.68,21.68,2.31,50.63,2.34,50.92.05.45-.28.86-.74.91-.03,0-.06,0-.09,0Z"/>
      <g>
        <path class="cls-4" d="M183.81,16.18s.94,1.53,2.87,2.4c1.93.86,3.07.61,3.07.61"/>
        <path class="cls-4" d="M189.31,20.05c-.61,0-1.63-.12-2.96-.72-2.14-.96-3.2-2.65-3.24-2.72-.24-.39-.12-.9.27-1.14.39-.24.9-.12,1.14.27.02.03.86,1.34,2.5,2.08,1.61.72,2.56.56,2.57.56.44-.08.88.21.97.65.09.44-.19.87-.63.97-.05.01-.27.05-.62.05Z"/>
      </g>
      <g>
        <path class="cls-4" d="M179.44,36.28s1.29,4.2,3.8,5.29c2.52,1.09,3.75.82,3.75.82"/>
        <path class="cls-4" d="M186.59,43.24c-.66,0-1.89-.14-3.68-.92-2.83-1.22-4.21-5.62-4.27-5.81-.13-.44.11-.9.55-1.04.44-.13.9.11,1.04.55.33,1.07,1.57,4.01,3.34,4.77,2.17.94,3.25.77,3.26.77.45-.07.88.22.96.66.08.44-.19.87-.63.96-.05.01-.24.05-.57.05Z"/>
      </g>
      <path class="cls-4" d="M193.3,98.93s-.08,0-.12,0c-.45-.07-.77-.49-.7-.94.03-.21,3.09-21.17,3.88-35.94.79-14.76-1.01-42.49-1.03-42.76-.03-.46.32-.85.77-.88.45-.03.85.32.88.77.02.28,1.82,28.11,1.03,42.96-.79,14.84-3.86,35.88-3.9,36.09-.06.41-.41.71-.82.71Z"/>
      <path class="cls-4" d="M205.31,98.93c-.43,0-.79-.33-.83-.76-.02-.22-1.84-22.58-2.29-35.6-.42-12.11.72-25.1.9-27.02-.27-.48-1.15-1.8-2.9-1.98-2.62-.27-3.41-.39-3.45-.39-.45-.06-.77-.48-.7-.94s.48-.77.94-.7c0,0,.81.11,3.38.38,3.08.32,4.28,3.03,4.33,3.14.06.13.08.27.06.41-.01.14-1.36,14.1-.91,27.04.45,12.98,2.27,35.3,2.28,35.52.04.46-.3.86-.76.89-.02,0-.05,0-.07,0Z"/>
      <path class="cls-4" d="M211.92,98.93c-.08,0-.17-.01-.25-.04-.35-.11-.59-.45-.57-.82,0-.07.24-6.87-.43-19.82-.68-13.08,1.02-24.86,1.04-24.97.07-.45.49-.77.94-.7.45.07.77.49.7.94-.02.12-1.69,11.74-1.02,24.65.45,8.59.5,14.5.47,17.55,1.26-1.35,3.17-2.95,5.33-3.23l3.43-.46c.45-.06.87.26.93.71.06.45-.26.87-.71.93l-3.43.46c-3.01.4-5.7,4.4-5.73,4.44-.16.24-.42.37-.69.37Z"/>
      <g>
        <path class="cls-4" d="M220.86,67.69s.23,14.75.8,20.24,1.49,10.18,1.49,10.18"/>
        <path class="cls-4" d="M223.14,98.93c-.39,0-.74-.27-.81-.67,0-.05-.93-4.79-1.5-10.25-.57-5.46-.8-19.71-.8-20.31,0-.46.36-.83.82-.84h.01c.45,0,.82.36.83.82,0,.15.23,14.78.8,20.16.56,5.39,1.47,10.06,1.48,10.1.09.45-.21.88-.65.97-.05.01-.11.02-.16.02Z"/>
      </g>
      <g>
        <path class="cls-4" d="M211.33,73.06s2.9-3.77,5.76-3.89c2.86-.11,3.77.46,3.77.46"/>
        <path class="cls-4" d="M211.33,73.89c-.18,0-.35-.06-.5-.17-.36-.28-.43-.8-.15-1.16.13-.17,3.17-4.08,6.38-4.21,2.96-.12,4.06.46,4.25.58.39.24.51.75.26,1.14-.24.39-.75.51-1.14.26h0s-.87-.43-3.3-.33c-2.02.08-4.39,2.6-5.13,3.57-.16.21-.41.32-.66.32Z"/>
      </g>
      <g>
        <path class="cls-4" d="M230.23,80.27c-.11.34-.91,17.84-.91,17.84"/>
        <path class="cls-4" d="M229.32,98.93s-.03,0-.04,0c-.46-.02-.81-.41-.79-.87.81-17.61.91-17.93.96-18.06.14-.43.61-.67,1.05-.52.4.13.64.55.55.96-.1.8-.59,10.99-.9,17.7-.02.44-.39.79-.83.79Z"/>
      </g>
      <path class="cls-4" d="M238.58,98.25c-.43,0-.8-.34-.83-.78l-.45-7.22c-.91.89-2.2,1.91-3.75,2.36-2.98.87-4.21.15-4.42,0-.37-.26-.46-.78-.2-1.16.26-.37.78-.46,1.15-.2,0,0,.24.12.87.12.48,0,1.18-.08,2.14-.36,2.42-.7,4.22-3.3,4.24-3.33.2-.29.56-.42.91-.33.34.09.59.39.61.75l.57,9.26c.03.46-.32.85-.78.88-.02,0-.03,0-.05,0Z"/>
      <g>
        <path class="cls-4" d="M194.64,88.16s3.26-3.41,6.44-3.66l3.18-.25"/>
        <path class="cls-4" d="M194.64,88.99c-.21,0-.41-.08-.57-.23-.33-.32-.34-.84-.03-1.17.14-.15,3.52-3.64,6.98-3.91l3.18-.25c.46-.03.86.3.89.76.04.46-.3.86-.76.89l-3.18.25c-2.83.22-5.88,3.37-5.91,3.41-.16.17-.38.26-.6.26Z"/>
      </g>
      <g>
        <path class="cls-4" d="M197.3,59.46s1.85,1.72,3.78,2.4c1.94.69,1.91,0,1.91,0"/>
        <path class="cls-4" d="M202.45,63c-.43,0-.97-.12-1.64-.35-2.07-.74-3.99-2.5-4.07-2.58-.34-.31-.36-.83-.04-1.17.31-.34.84-.36,1.17-.05.02.02,1.75,1.61,3.5,2.23.53.19.84.24,1,.25.15-.18.37-.29.61-.3.46-.02.84.34.85.8,0,.26-.11.64-.46.89-.24.18-.55.27-.93.27ZM202.17,61.89s0,0,0,0c0,0,0,0,0,0Z"/>
      </g>
      <path class="cls-4" d="M178.57,42.83s-.05-3.76-2.42-6.2-3.81-3.13-3.81-3.13c0,0-.38,4.19,1.75,6.4,2.13,2.21,2.82,2.48,2.82,2.48,0,0-.84-.12-2.52,1.03-1.68,1.14-2.82,2.44-2.82,2.44,0,0,2.35.57,4.57-.46s2.42-2.57,2.42-2.57Z"/>
      <path class="cls-4" d="M188.02,30.45s1.55-3.1,4.07-3.49c2.52-.39,3.58,0,3.58,0,0,0-1.09,2.88-3.82,3.49-2.73.61-3.82.77-3.82.77"/>
      <path class="cls-4" d="M197.18,40.82s-.45-4.11-3.19-5.94c-2.74-1.83-3.66-2.51-3.66-2.51,0,0-.08,4.75,2.97,6.98,3.05,2.24,3.88,1.47,3.88,1.47Z"/>
      <path class="cls-4" d="M186.68,60.81s1.74.13,4.79,3.11c3.05,2.97,2.82,7.62,2.82,7.62,0,0-6.69-4.12-7.31-7.01-.62-2.9-.3-3.72-.3-3.72Z"/>
      <path class="cls-4" d="M189.72,76.72s2.53-3.12,4.92-3.66c2.4-.53,1.7,0,1.7,0,0,0,.16,2.82-2.58,3.66-2.74.84-4.04,0-4.04,0Z"/>
      <path class="cls-4" d="M202.95,59.8s.26-4.27,4-7.09c3.73-2.82,5.34-3.2,5.34-3.2,0,0-2.29,8.09-4.95,9.15s-4.38,1.14-4.38,1.14Z"/>
      <path class="cls-4" d="M211.32,65.23s.43-.93-2.24-2c-2.67-1.07-3.2-.69-3.2-.69,0,0,1.17,2.37,3.35,3.28,2.18.91,2.09-.59,2.09-.59Z"/>
      <path class="cls-4" d="M230.06,82.9s-.32-3.73-2.53-5.15c-2.21-1.41-3.66-2-3.66-2,0,0-.46,2.88,1.52,4.52,1.98,1.64,3.35,2.25,3.35,2.25,0,0-1.22-.23-2.44,1.37-1.22,1.6-1.37,2.31-1.37,2.31,0,0,2.13-.18,3.81-1.47,1.68-1.3,1.31-1.83,1.31-1.83Z"/>
      <path class="cls-4" d="M238.29,92.79s2.04-1.12,5.77.63c3.73,1.75,4.88,4.69,4.88,4.69,0,0-4.19,1.03-6.94-.69-2.74-1.72-3.43-2.71-3.43-2.71l-.29-1.92Z"/>
      <path class="cls-4" d="M79.7,99.28c-.46,0-.83-.37-.83-.83v-9.6c0-.46.37-.83.83-.83s.83.37.83.83v9.6c0,.46-.37.83-.83.83Z"/>
      <g>
        <line class="cls-4" x1="126.65" y1="98.1" x2="130.65" y2="84.73"/>
        <path class="cls-4" d="M126.65,98.93c-.08,0-.16-.01-.24-.03-.44-.13-.69-.59-.56-1.03l4-13.38c.13-.44.59-.69,1.03-.56.44.13.69.59.56,1.03l-4,13.38c-.11.36-.44.59-.79.59Z"/>
      </g>
      <path class="cls-5" d="M87.25,62.85s-5.92,3.2-6.91,11.89c-.99,8.69,2.74,17.23,5.11,20.2,2.36,2.97,5.56,4.04,6.63,2.59s.61-3.51.61-3.51c0,0,3.2,5.72,7.7,7.01,4.5,1.3,5.64-2.36,4.88-4.65-.76-2.29-3.35-12.96,4.65-12.42,8,.53,4.5,11.81,3.96,12.2s-1.37,3.96,2.74,4.57,8.16-8.16,9.22-13.03c1.07-4.88,1.07-10.44.8-15.63-.27-5.18-1.33-6.78-1.33-6.78,0,0,2.74,10.98-7.32,14.25-10.06,3.28-14.94,1.68-18.22.3-3.28-1.37-6.1-5.95-4.88-12.35,1.22-6.4,1.98-7.7,4.27-9.3,2.29-1.6,3.43-3.58,3.43-3.58,0,0-1.52-3.95-4.95-2.13-3.43,1.82-3.28,3.95-2.36,5.1s1.75,1.08,1.75,1.08c0,0-5.79,4.42-6.63,11.73-.84,7.32-.3,15.85-.3,15.85,0,0-4.5-5.72-5.18-11.81-.69-6.1,2.34-11.59,2.34-11.59Z"/>
      <path class="cls-5" d="M112.51,65.44s-3.89-1.22-2.74,3.35c1.14,4.57,3.96,6.4,5.95,5.72,1.98-.69,1.98-5.03.84-6.71s-4.04-2.36-4.04-2.36Z"/>
      <path class="cls-5" d="M101.68,65.75s-2.9.53-3.81,3.28-.46,5.87,1.91,5.18c2.36-.69,4.88-3.51,5.18-5.34.3-1.83-1.14-3.2-3.28-3.13Z"/>
      <path class="cls-5" d="M105.34,81.36c-.32-.04-4.19-3.64-1.07-4.33,3.13-.69,6.29.21,4.82,2.16-1.47,1.95-1.02,2.33-2.15,2.27-1.13-.06-1.61-.11-1.61-.11Z"/>
      <path class="cls-5" d="M121.12,59.17s-1.88-3.22-3.8-4.23c-1.92-1.01-2.3-1.47-2.3-1.47,0,0,.82-4.8,4.95-3.43,4.12,1.37,4.43,5.56,3.82,6.78-.61,1.22-2.67,2.34-2.67,2.34Z"/>
      <path class="cls-5" d="M133.91,71.92s1.39,7.93,13.12,8.77c11.74.84,16.16-4.45,17.53-6.03,1.37-1.59,2.97-8.14,1.98-11.8-.99-3.66-2.06-6.4-2.06-6.4,0,0-.15.46-1.83-.3s-6.1-5.41-6.1-5.41c0,0-.3-1.71,2.44-3.1,2.74-1.39,6.17,1.12,6.78,3.33.61,2.21-.23,4.88-.23,4.88,0,0,5.72,4.73,6.48,12.81.76,8.08.46,15.6.46,15.6,0,0,5.03-6,5.49-12.4.46-6.4-2.52-12.39-2.52-12.39,0,0,10.52,6.23,7.39,19.68-3.13,13.44-5.26,18.24-8.69,18.97-3.43.72-4.27-.11-4.5-1.18-.23-1.07-.08-3.96-.08-3.96,0,0-2.44,7.78-7.62,8.35-5.18.57-7.24-1.95-6.02-5.61,1.22-3.66,1.91-12.42-5.26-12.42s-6.17,7.09-5.49,9.15c.69,2.06,3.89,7.62-.46,8.31-4.34.69-9.17-2.97-10.84-10.6-1.66-7.62,0-18.22,0-18.22Z"/>
      <path class="cls-5" d="M137.58,56.14s3.66-3.16,4.19-4.13c.53-.97-.51-4.02-3.08-4.02s-4.34,2.21-4.79,4.5,1.23,4.27,3.67,3.66Z"/>
      <path class="cls-5" d="M152.9,60.81c-.62.11-3.51,1.47-2.36,4.42,1.14,2.95,3.58,6.37,6.63,5.88,3.05-.49,1.81-4.84,1.13-6.82-.68-1.98-2.05-4.08-5.4-3.49Z"/>
      <path class="cls-5" d="M140.56,61.4s-2.9-.49-3.96,3.83c-1.07,4.32.02,5.85,2.11,5.24,2.09-.61,4.6-3.31,5.13-5.24.53-1.93-.3-3.91-3.28-3.83Z"/>
      <path class="cls-5" d="M143.98,72.3c-.46,0-2.67.12-1.75,2s2.44,2.8,4.12,2.5,3.81-2.9,2.97-3.73c-.84-.84-.53-.61-2.13-.76-1.6-.15-3.2,0-3.2,0Z"/>
      <path class="cls-5" d="M33.92,103.25c-.24-.02-1.6-.38-3.05,4.65-1.45,5.03-2.21,15.09,0,19.82,2.21,4.73,4.34,4.5,6.86,3.89,2.52-.61,2.52-4.88.38-6.56s-4.68-9.45-3.71-14.63c.97-5.18,1.96-7.01-.48-7.17Z"/>
      <path class="cls-5" d="M49.75,122.38s.78,2.44-1.35,2.97c-2.13.53-2.36-.38-4.5-.53-2.13-.15-5.11,3.66-2.36,6.48,2.74,2.82,7.01,1.3,8.69-.69,1.68-1.98,1.91-4.8,1.91-4.8,0,0,.76,5.49,5.71,5.49h43.6s4.95-.76,6.4-5.18c1.45-4.42.53-9.76-2.82-10.98-3.35-1.22-7.24,1.52-5.64,4.57,1.6,3.05,3.35,6.71-.3,6.71h-40.78s-4.25-.91-3.12-4.5c1.13-3.58,2.58-9.3-2.22-9.3s-4.46,5.95-3.22,9.76Z"/>
      <circle class="cls-5" cx="102.37" cy="109.35" r="3.35"/>
      <circle class="cls-5" cx="130.38" cy="135.63" r="2.79"/>
      <circle class="cls-5" cx="180.06" cy="110.55" r="3.03"/>
      <circle class="cls-5" cx="187.36" cy="110.55" r="3.03"/>
      <circle class="cls-5" cx="198.89" cy="134.82" r="3.03"/>
      <circle class="cls-5" cx="206.18" cy="134.82" r="3.03"/>
      <circle class="cls-5" cx="213.46" cy="136.09" r="3.03"/>
      <path class="cls-5" d="M117.38,111.86s2.97-8.38-2.21-8.38-4.8,4.8-5.34,7.7c-.53,2.9-.61,13.42,3.58,17.15,4.19,3.73,8,2.9,10.9,2.82s6.06-3.66,6.06-3.66c0,0,2.17,4.8,8.72,3.35s7.47-9.3,7.62-12.65c.15-3.35.3-14.71-5.18-14.71s-3.35,8.61-2.44,10.6,4.04,10.44-.76,12.2c-4.8,1.75-6.4-1.14-6.02-2.29.38-1.14,5.11-7.7-1.22-8.99-6.33-1.3-4.35,7.39-4.31,8.54s-1.41,4.65-7.66,2.9c-6.25-1.75-1.75-14.56-1.75-14.56Z"/>
      <path class="cls-5" d="M152.9,103.48s-1.22-.76-2.97,1.91c-1.75,2.67-3.89,16.69-1.6,21.72,2.29,5.03,5.79,4.99,8.16,4.17,2.36-.82,1.22-5.52-1.75-8.54-2.97-3.02-3.23-12.7-2.19-14.38s2.26-4.12.36-4.88Z"/>
      <path class="cls-5" d="M172.42,120.09s-3.51-1.14-3.96,2.52c-.46,3.66,3.28,7.62,8.16,6.94,4.88-.69,9.14-6.1,10.75-8.16,1.6-2.06,3.13-4.04,5.49-3.35,2.36.69,2.74,3.58,1.91,4.73s-1.45,2.06-1.45,2.06c0,0,1.6,2.59,4.42,1.83,2.82-.76,2.9-4.34,2.59-5.34s-1.14-6.25,3.51-6.25,3.58,5.56,3.05,6.71c-.53,1.14-.99,2.59-.99,2.59,0,0,1.55,3.2,4.55,2.29,3-.91,2.46-3.13,1.78-3.96s-4.27-5.03-.23-7.62c4.04-2.59,7.39,2.36,7.39,5.87s-.88,9.49-6.33,10.35-9.53-3.41-9.53-3.41c0,0-2.41,2.9-6.65,2.97-4.25.08-5.85-2.67-5.85-2.67,0,0-4.12,4.88-11.43,5.56-7.32.69-12.42-2.13-14.94-7.09-2.52-4.95,2.13-12.27,8.77-12.31,6.63-.04,10.21,4.61,7.85,7.51s-4.95,1.83-6.48.69c-1.52-1.14-2.36-2.44-2.36-2.44Z"/>
      <text class="cls-7" transform="translate(59.91 151.69)"><tspan class="cls-11" x="0" y="0">P</tspan><tspan class="cls-8" x="10.67" y="0">AN</tspan><tspan class="cls-12" x="35.97" y="0">D</tspan><tspan class="cls-13" x="48.17" y="0">A</tspan></text>
      <text class="cls-6" transform="translate(128.18 151.69)"><tspan x="0" y="0">HOUSE</tspan></text>
      <path class="cls-10" d="M160.68,25.62s3.66.67,4.9,2.83c1.24,2.16-5.81,3.53-5.81,3.53l.91-6.36Z"/>
      <path class="cls-2" d="M169.6,12.01l-3.88,16.99-5.96,2.98s5.36.79,9.83.22,7.32-2.67,7.32-2.67l4.04-19.58s-1.81.63-5.11,1.37c-3.3.74-6.25.69-6.25.69Z"/>
    </g>
  </g>
</svg>