<?xml version="1.0" encoding="UTF-8"?>
<svg id="Layer_2" data-name="Layer 2" xmlns="http://www.w3.org/2000/svg" viewBox="0 0 523.73 347.41">
  <defs>
    <style>
      .cls-1 {
        fill: #fff;
      }

      .cls-2 {
        fill: #e7c87c;
      }

      .cls-3 {
        fill: #8f1838;
      }

      .cls-4 {
        fill: #005289;
      }

      .cls-5 {
        fill: #daab28;
      }
    </style>
  </defs>
  <g id="Layer_1-2" data-name="Layer 1">
    <g>
      <g>
        <path class="cls-1" d="M7.41,287.99c.67-.69,1.31-1.33,1.94-1.91,1,.68,1.86,1.18,2.57,1.49.71.31,1.12.47,1.21.47l2.73-2.9c-1.49-.59-2.76-1.29-3.82-2.1-1.4,1.3-2.22,1.96-2.46,1.96-.15,0-.66-.25-1.54-.76-.87-.51-1.44-.89-1.7-1.15l-2.75,2.85,1.81,1.17,1.99.89Z"/>
        <path class="cls-1" d="M61.91,296.26c-.15-.77-.29-1.38-.43-1.82-.14-.44-.26-.77-.36-.99-.11-.21-.28-.46-.54-.73-.2-.13-.41-.22-.63-.27-.6,0-1.12.08-1.54.24-.42.16-.81.36-1.16.6-.35.24-.75.56-1.19.98-.44.41-.94,1.01-1.48,1.8-.55.78-1.08,1.51-1.6,2.18-.52.68-1.72,1-3.63.96h-1.39s-6.11,0-6.11,0h-17.69s-1.12,0-1.12,0c-1.08.07-1.86-.22-2.33-.86-.37-.52-.72-1.12-1.07-1.81-.35-.69-.6-1.39-.78-2.09-.31-.66-.94-1.04-1.88-1.15-1.1.11-2.28.79-3.53,2.04-1.26,1.25-2.33,2.81-3.21,4.69-.88,1.88-1.84,2.73-2.88,2.56-1.32.06-2.24-1.23-2.73-3.9-.31-1.81-.36-3.79-.18-5.94-.55.43-.89,1.53-1.02,3.3l-.21,2.29c.09,5.99,1.45,8.92,4.1,8.79.94,0,1.95-.85,3.04-2.54l2.9-5.15c1.26-1.71,2.2-2.31,2.81-1.82.61.49,1.11,1.23,1.5,2.21.48,1.25.94,2.18,1.41,2.77.83.74,1.77,1.19,2.8,1.37v.09h1.01s0,0,.01,0h1.39s5.89,0,5.89,0h20.08v-.03c.54-.03,1.02-.11,1.42-.26.51-.19.9-.48,1.17-.86s.72-1.31,1.34-2.77c1.43,1.02,3.38,2.15,5.84,3.36.99-1.34,1.81-2.48,2.44-3.43-.17-1.77-.33-3.04-.48-3.81ZM56.44,296.24c.25-.19.52-.34.83-.44.31-.1.61-.05.91.15.4.45.65,1.13.76,2.04-.87-.45-1.71-1.03-2.51-1.75Z"/>
        <path class="cls-1" d="M122.1,285.02c-.24-.18-.45-.36-.64-.55-.19-.18-.38-.47-.56-.85-.18-.38-.28-.71-.3-.99-.02-.27-.12-.41-.28-.41l-1.13,2.18c-.48,1.06-.73,1.75-.76,2.07-.03.32.03.6.18.83.16.23.3.43.44.59.13.16.31.42.52.78.16.57.26,1.1.31,1.58l1.08,8.93h-4.58c-.52,0-.98-.18-1.38-.55-.41-.38-.57-.97-.5-1.78l.42-1.7-.51.08c-.34.27-.67.62-.98,1.04-.31.42-.6.99-.89,1.71-.28.72-.58,1.14-.9,1.26-.31.13-.69.17-1.13.16-.44-.02-.99-.13-1.64-.31-.65-.18-.87-.37-.66-.55.12-.51.45-1.36.99-2.57-.45.05-.83.17-1.11.36-.29.19-.55.43-.79.71-.24.28-.46.58-.66.88-.23.77-.87,1.18-1.91,1.25-1.03.07-1.95.06-2.73-.03-.79-.09-1.2-.16-1.23-.23-.03-.06.18-.44.63-1.12.45-.69.71-1.16.78-1.43.07-.27-.24-.26-.92.02-.46.4-.93.84-1.4,1.31-.47.48-.93.84-1.39,1.08-.46.24-1.53.39-3.21.43h-1.26s-7.67,0-7.67,0h0c-1.08,0-1.89-.19-2.43-.57-.53-.38-.92-1.46-1.13-3.24-.22-1.78-.44-4.42-.65-7.91l-.17-5.23-2.26,3.27c-.14.71-.2,1.47-.18,2.27.02.81-.14,2.28-.49,4.43-.35,2.15-1.18,4.05-2.49,5.71l-.86,1.09.24-1.23c.16-2.44-.16-4.5-.97-6.17-.46-.95-1.11-1.92-1.94-2.91-.83-.99-1.67-1.8-2.51-2.45-2.24-1.63-3.81-2.52-4.69-2.65-.23.44-.44,1.25-.63,2.44-.1,1.07-.14,1.98-.14,2.73,0,.22,0,.45.03.66.03.44.24.79.63,1.05.39.26.77.5,1.15.71,1.11.67,2.21,1.33,3.32,1.97l.31-1.2c1.11.67,2.12,1.88,3.04,3.63.67,1.35,1.08,2.63,1.24,3.85-.31.32-.95.82-1.91,1.5-.96.67-2.19,1.41-3.69,2.2-1.5.79-2.89,1.44-4.17,1.96-1.28.52-2.23.97-2.86,1.36,5.9-.32,9.96-.9,12.19-1.73,1.69-.67,2.93-1.71,3.71-3.11.78-1.41,1.35-2.82,1.71-4.23l.53-1.96c.09,2.3.42,4.18.99,5.64.5,1.28,1.48,2.19,2.94,2.75v.22h11.78v-.07c1.12-.1,1.96-.4,2.51-.92.48.27.83.45,1.07.53.23.09.8.18,1.68.29.88.11,1.72.11,2.52,0,.8-.11,1.6-.39,2.41-.86,1.02.57,2.07.88,3.16.94,1.09.05,1.92-.32,2.51-1.13.29-.36.55-.73.79-1.12.41.97,1.03,1.6,1.85,1.89.64.23,1.27.34,1.89.39v.05h4.32c.84.09,1.42-.32,1.73-1.21l.53-1.78.39-1.76-.05-1.94-.05-.95-.1-1.94-.18-3.85,1.99-3.61c-1.68-1.14-2.64-1.81-2.88-1.99Z"/>
        <path class="cls-1" d="M128.95,302.92c.22-.39.45-.87.7-1.45.24-.58.43-1.4.56-2.48.06-.7.07-1.63.02-2.8l-.12-1.09-.11-1.55-.21-2.53-.07-.78-.68-4.76-.55-3.15-.29.5-.32.76c-.26.51-.48,1.01-.66,1.51l-.44,1.2c-.43,1.14-.64,1.85-.63,2.12l2.04,15.71c.29-.42.55-.82.77-1.21Z"/>
        <path class="cls-1" d="M139.51,290.86c-.95.07-2.03,1.22-3.24,3.46-.67,1.55-1.06,2.86-1.18,3.94-.03,1.39.09,2.32.37,2.78.61.8,1.28,1.26,2.01,1.39.72.13,1.26.13,1.62-.02.36-.14.66-.29.9-.44.24-.16.49-.41.73-.76.24-.35.48-1.07.7-2.15.08.19.13.42.15.68-.03,1.21-.59,2.66-1.66,4.35-1.1,1.67-2.6,2.94-4.5,3.79-1.76.71-4.23,1.03-7.4.95.62.43,2.05.85,4.3,1.24,2.25.39,3.89.56,4.93.5,2.05-.01,3.75-1.7,5.1-5.06.98-2.41,1.41-4.97,1.28-7.67.03-1.19-.33-2.59-1.09-4.19-1.02-1.92-2.03-2.85-3.01-2.79ZM139.22,297.95c-.36.1-.78.09-1.26-.03-.49-.12-.89-.36-1.22-.73.04-.26.24-.56.61-.91.37-.34.75-.53,1.13-.56.45.05.87.24,1.24.56.37.32.62.67.74,1.04-.47.32-.88.53-1.23.63Z"/>
        <path class="cls-1" d="M170.34,303.42c.22-.77.4-1.38.51-1.85.11-.47.22-1.22.32-2.26-.04-.79-.7-1.34-1.97-1.67-1.18-.17-2.35-.35-3.51-.52-1.28-.22-2.06-.55-2.33-1,.25-.76,1.03-1.65,2.36-2.69,1.33-.97,2.45-1.54,3.38-1.7.36-.13.73-.13,1.13.01.4.14.67.39.83.73.16.35.29.48.4.39.44-.99.67-2.05.7-3.19-.1-1.36-.65-2.03-1.65-2.02-1.62.21-3.18,1.07-4.68,2.59-1.28,1.19-2.31,2.64-3.09,4.35-.96,1.91-1.46,3.57-1.49,4.97.04.88.74,1.48,2.09,1.8.51.13,1.74.26,3.69.41,1.23.11,1.85.32,1.86.63-.7.53-1.97,1.02-3.82,1.47-1.61.42-2.97.66-4.11.73-1.41.07-2.83-.16-4.24-.7-1.74-.69-2.69-1.66-2.86-2.9-.39-1.22.1-3.29,1.47-6.2.38-.77.55-1.23.53-1.39-.02-.16-.22-.07-.6.28-.38.35-.78.92-1.19,1.71-.41.79-.85,1.83-1.3,3.14-.54,1.38-.86,2.91-.97,4.58-.21,4.12,2.33,6.26,7.63,6.42,4.12-.14,7.53-1.68,10.23-4.63.25-.24.49-.74.71-1.51Z"/>
        <path class="cls-1" d="M154.82,290.26h1.31l-.87.94c-.23.33-.38.67-.44,1,.61-.65,1.2-1.18,1.76-1.6.14-.14.28-.23.41-.28s.27-.1.42-.18c.27-.14.56-.25.89-.32l.24-.05c.06-.24.13-.43.19-.57.07-.14.12-.26.15-.37,0-.02.01-.06.01-.11h-.08l-.11.03h-.07l-1.68.19c-.98.08-1.74-.08-2.28-.47.13-.26.28-.46.47-.6.73-.45,1.35-.39,1.85.18.28-.35.41-.74.39-1.2-.04-.21-.14-.35-.28-.44-.15-.09-.29-.13-.45-.14-.15,0-.27,0-.36.02-.42.1-.78.27-1.08.52-.29.25-.54.58-.75.98-.2.41-.33.77-.39,1.11-.07.32-.05.65.03.97.1.23.34.35.72.37Z"/>
        <path class="cls-1" d="M180.92,294.05c-1.02-1.12-1.91-1.9-2.68-2.33l-1.18,4.55c.12.23.58.67,1.38,1.34.81.66,1.72,1.78,2.75,3.36-.44,1.18-1.09,2.23-1.93,3.15-.85.93-1.66,1.63-2.45,2.11s-1.48.86-2.1,1.14c-.62.28-1.34.48-2.14.59-.81.11-1.54.17-2.19.18-.65,0-1.35-.08-2.12-.27.17.18.72.48,1.65.87.93.39,2.23.82,3.89,1.28,1.66.46,2.92.63,3.74.52.99-.41,2.12-1.43,3.38-3.07,1.25-1.64,2.06-3.8,2.4-6.49.16-1.25.06-2.44-.32-3.56-.37-1.12-1.07-2.24-2.09-3.36Z"/>
        <path class="cls-1" d="M188.65,301.47c.24-.58.43-1.4.56-2.48.06-.7.07-1.63.02-2.8l-.12-1.09-.11-1.55-.21-2.53-.07-.78-.68-4.76-.55-3.15-.29.5-.32.76c-.26.51-.48,1.01-.66,1.51l-.44,1.2c-.43,1.14-.64,1.85-.63,2.12l2.04,15.71c.29-.42.55-.82.77-1.21.22-.39.45-.87.7-1.45Z"/>
        <path class="cls-1" d="M267.31,285.02c-.24-.18-.45-.36-.64-.55-.19-.18-.38-.47-.56-.85-.18-.38-.28-.71-.3-.99-.02-.27-.12-.41-.28-.41l-1.13,2.18c-.48,1.06-.73,1.75-.76,2.07-.03.32.03.6.18.83.16.23.3.43.44.59.13.16.31.42.52.78.16.57.26,1.1.31,1.58l1.08,8.93h-4.58v.02c-.74-.04-1.36-.18-1.84-.44-.69-.37-1.1-1.01-1.24-1.92-.15-.92-.54-5.84-1.19-14.76l-2.56,4.16c.62,6.12.98,9.49,1.08,10.12.09.63.06,1.29-.11,1.97-.12.51-.94.8-2.45.87h-1.74s-.07,0-.11,0h0s-6.98,0-6.98,0h0s-3.56,0-3.56,0c.75-.64,1.28-1.49,1.62-2.56.29-.65.11-1.41-.53-2.3-1.04-1.27-2.51-1.96-4.4-2.07-1.57.21-3.02.7-4.34,1.46-3.25,1.69-5.76,3.16-7.54,4.39.53-.78.83-2.1.89-3.97l-.36-3.5,2.28-3.56c-1.64-1.18-2.61-1.9-2.93-2.17-.31-.27-.67-.55-1.07-.84-.4-.29-.56-.62-.49-.98.07-.36.05-.6-.06-.7-.11-.11-.34.18-.69.88-.35.7-.64,1.3-.88,1.81-.24.51-.39.92-.45,1.24s-.01.59.14.84c.15.25.35.48.61.69.26.21.42.76.49,1.64l1.13,9.26-.7.44h-2.8s-5.52,0-5.52,0h-11.75c-.28-1.59-.8-3.05-1.57-4.39-.77-1.34-1.59-2.14-2.48-2.38-.88-.24-1.85.41-2.88,1.95-1.18,1.93-1.84,4.01-1.99,6.23-.11,2.08,1.29,3.23,4.21,3.45h1.72c-.94,1.52-1.76,2.5-2.45,2.92-.7.43-1.4.76-2.1,1.01-.7.25-1.86.49-3.46.73l-1.85.22-2.77-.15,2.17.76c2.49.89,4.92,1.47,7.3,1.73,2.76-.41,4.74-2.82,5.92-7.23h2.96s5.55,0,5.55,0h11.78s18.19,0,18.19,0h0s9.6,0,9.6,0h0s.02,0,.03,0h2.15v-.1c.71-.07,1.26-.18,1.64-.33.71-.29,1.17-1.31,1.38-3.07.53,2.14,1.93,3.3,4.19,3.5h.78s4.32,0,4.32,0c.84.09,1.42-.32,1.73-1.21l.53-1.78.39-1.76-.05-1.94-.05-.95-.1-1.94-.18-3.85,1.99-3.61c-1.68-1.14-2.64-1.81-2.88-1.99ZM196.73,298.15c.22-.29.46-.53.72-.71.26-.18.54-.27.83-.26.29,0,.62.18.98.5.36.32.71.84,1.04,1.54-2.28-.07-3.47-.42-3.58-1.07ZM232.8,299.22h-5.7c2.08-1.1,3.97-1.91,5.65-2.44,1.35-.42,2.53-.44,3.53-.06,1.01.38,1.72.88,2.13,1.5-.46.69-2.32,1.02-5.62,1Z"/>
        <path class="cls-1" d="M285.67,290.12l2.88-2.64c-1.27-.83-2.34-1.72-3.2-2.67l-3.02,2.65c.86,1.37,1.98,2.26,3.35,2.65Z"/>
        <path class="cls-1" d="M291.58,292.11l-2.31,4.16c.67.81,1.34,1.75,2.02,2.81.83,1.36,1.28,2.41,1.36,3.14-.26.32-1.22.78-2.88,1.36-1.35.36-2.38.58-3.11.69-.72.11-1.83.1-3.31,0-1.92-.41-2.99-1.39-3.22-2.95-.01-1.76.18-3.16.58-4.21.49-1.09.8-1.9.95-2.44-.71.38-1.49,1.34-2.35,2.9-.87,1.44-1.46,2.82-1.76,4.12-.3,1.3-.34,2.49-.13,3.55.44,3.1,3.34,4.37,8.69,3.84.78-.09,1.95-.44,3.53-1.05s2.6-1.19,3.06-1.71c.72-1.02,1.3-2.56,1.75-4.63.31-1.09.41-2.13.31-3.13-.23-2.1-1.28-4.25-3.17-6.44Z"/>
        <path class="cls-1" d="M353.31,289.96l2.88-2.64c-1.27-.83-2.34-1.72-3.2-2.67l-3.03,2.65c.86,1.37,1.98,2.26,3.35,2.65Z"/>
        <path class="cls-1" d="M374.18,285.02c-.24-.18-.45-.36-.64-.55-.19-.18-.38-.47-.56-.85-.18-.38-.28-.71-.3-.99-.02-.27-.12-.41-.28-.41l-1.13,2.18c-.48,1.06-.73,1.75-.76,2.07-.03.32.03.6.18.83.16.23.3.43.44.59.13.16.31.42.52.78.16.57.26,1.1.31,1.58l1.08,8.93h-4.58v.02h-6.99s-1.78,0-1.78,0h-2.24l.68-2.36c.15-2.28.03-3.81-.36-4.59-.4-.78-.8-1.17-1.22-1.17s-.95.16-1.61.49c-.66.32-1.28.73-1.86,1.23-.59.49-1.19,1.08-1.78,1.79-.59.71-1.11,1.39-1.54,2.05-.43.66-.7,1.17-.8,1.52-.1.36-.14.71-.11,1.05h-4.71s-5.6,0-5.6,0h-34.44c-.05,0-.1,0-.15,0h-.85c-.73-.04-1.31-.18-1.72-.44-.58-.37-.99-1.01-1.25-1.92-.25-.92-.7-5.73-1.35-14.43l-2.24,4.16c.58,7.96,1.1,12.63,1.54,14,.5,2,1.76,3.14,3.79,3.44v.06h.4s0,0,0,0h1.83s6.07,0,6.07,0h33.96s5.34,0,5.34,0c1.69,0,2.85-.14,3.46-.42.15.14.79.28,1.92.42h6.59s6.99,0,6.99,0h0s4.32,0,4.32,0c.84.09,1.42-.32,1.73-1.21l.53-1.78.39-1.76-.05-1.94-.05-.95-.1-1.94-.18-3.85,1.99-3.61c-1.68-1.14-2.64-1.81-2.88-1.99ZM353.26,299c-.45-.13-.82-.41-1.11-.83-.3-.43-.45-.72-.47-.9-.02-.17.16-.39.51-.66.35-.26.83-.51,1.41-.74.58-.23,1.05-.17,1.39.19.34.35.6.68.75.96.16.29.23.53.23.74-.57.69-1.48,1.11-2.72,1.24Z"/>
        <path class="cls-1" d="M408.39,296.21l.21,2.83c-.82.22-1.51.28-2.06.17-.56-.11-.92-.23-1.09-.34-.17-.11-.22-.3-.13-.57l.76-2.36c.08-.23.13-.44.15-.63l-.57.49c-.21.14-.4.28-.55.42l-.49.55-.76,1.33c-.11.24-.22.44-.35.62-.12.33-.57.53-1.35.59-.78.06-1.5.01-2.15-.13-.65-.15-1.09-.41-1.34-.8-.25-.39-.6-1.03-1.06-1.93-.46-.89-.75-1.22-.86-.99l-1.86,3.26c-.19.26-.24.52-.15.78l.97,2.07.9,3.03c-.02.33-.09.59-.21.78-.2.17-.42.31-.63.42l-2.22.76-2.64.28h-1.04l-1.66-.34-.7-.34-.55-.42-.48-.49-.36-.7-.21-.83.21-1.8.97-2.73c-.04-.08-.11-.13-.21-.15l-.89,1.12-.76,1.31c-.15.24-.27.47-.36.7l-.34.63c-.08.28-.17.53-.27.76l-.36,1.65v1.58l.15.91.27.76.76,1.18,1.12.97.68.34c1.03.32,2.24.49,3.63.49l2.56-.27,1.46-.45c.24-.12.45-.24.63-.36l.69-.34,1.1-1.13.36-.63.21-.76c.12-.27.21-.52.28-.76l.55-2.07c.05-.25.13-.62.22-1.12.75.39,1.43.57,2.01.54.59-.03,1.14-.09,1.67-.17.52-.09,1.06-.38,1.61-.87,1.26.45,2.47.66,3.63.63.32-.03.61-.08.84-.15.24-.12.45-.26.63-.42l.49-.55c.41-.75.85-1.91,1.31-3.48l.21-1.81c-.14-2.15-.35-3.32-.63-3.53l-1.94,2.49Z"/>
        <path class="cls-1" d="M415.34,302.92c.22-.39.45-.87.7-1.45.24-.58.43-1.4.56-2.48.06-.7.07-1.63.02-2.8l-.12-1.09-.11-1.55-.21-2.53-.07-.78-.68-4.76-.55-3.15-.29.5-.32.76c-.26.51-.48,1.01-.66,1.51l-.44,1.2c-.43,1.14-.64,1.85-.63,2.12l2.04,15.71c.29-.42.55-.82.77-1.21Z"/>
        <path class="cls-1" d="M425.65,294.05c-1.02-1.12-1.91-1.9-2.68-2.33l-1.18,4.55c.12.23.58.67,1.38,1.34.81.66,1.72,1.78,2.75,3.36-.44,1.18-1.09,2.23-1.93,3.15-.85.93-1.66,1.63-2.45,2.11-.78.48-1.48.86-2.1,1.14-.62.28-1.34.48-2.14.59-.81.11-1.54.17-2.19.18-.65,0-1.35-.08-2.12-.27.17.18.72.48,1.65.87.93.39,2.23.82,3.89,1.28,1.66.46,2.92.63,3.74.52.99-.41,2.12-1.43,3.38-3.07,1.25-1.64,2.06-3.8,2.4-6.49.16-1.25.06-2.44-.32-3.56-.37-1.12-1.07-2.24-2.09-3.36Z"/>
        <path class="cls-1" d="M439.74,287.99c.67-.69,1.31-1.33,1.94-1.91,1,.68,1.86,1.18,2.57,1.49.71.31,1.12.47,1.21.47l2.73-2.9c-1.49-.59-2.76-1.29-3.82-2.1-1.4,1.3-2.22,1.96-2.46,1.96-.15,0-.66-.25-1.54-.76-.87-.51-1.44-.89-1.7-1.15l-2.75,2.85,1.81,1.17,1.99.89Z"/>
        <path class="cls-1" d="M469.73,308.86c-.15,0-.66-.25-1.54-.76-.87-.51-1.44-.89-1.7-1.15l-2.75,2.85,1.81,1.17,1.99.89c.67-.69,1.32-1.33,1.94-1.91,1,.69,1.86,1.19,2.58,1.5.71.31,1.12.46,1.21.46l2.74-2.9c-1.49-.59-2.76-1.29-3.82-2.1-1.41,1.3-2.23,1.96-2.46,1.96Z"/>
        <path class="cls-1" d="M523.55,299.26c-.25-1.15-.54-2.04-.88-2.66-.33-.62-.96-1.29-1.88-2.01-.87-.6-1.87-1-2.99-1.2-2.4-.18-4.68-.16-6.85.08l-5.36.45c-8.48-.04-12.78-.35-12.9-.92.38-.23,1.23-.68,2.56-1.36.99-.53,1.91-.94,2.73-1.25,1.15-.42,2.28-.85,3.4-1.29,1.49-.55,2.61-.87,3.37-.97,1.11-1.52,2.12-2.9,3.01-4.14l-2.83.78c-1.53.41-3.07.94-4.61,1.6-3.48,1.53-6.2,3.24-8.15,5.11-1.77,1.73-2.65,3.19-2.65,4.38,0,.52.3.91.89,1.17,1.22.57,4.78.87,10.68.89,1.64.02,3.62-.03,5.94-.15,3.75-.15,6.51-.25,8.25-.29,1.04.08,1.85.22,2.44.42.59.21,1.13.64,1.62,1.31h-32.09s-.07,0-.11,0h-.81c-.8-.02-1.46-.17-1.96-.44-.69-.37-1.1-1.01-1.24-1.92-.15-.92-.54-5.84-1.19-14.76l-2.56,4.16c.62,6.12.98,9.49,1.08,10.12.09.63.06,1.29-.11,1.97-.14.58-1.19.87-3.12.88v-.02h-.86c-.74,0-1.42-.14-2.04-.41-.62-.27-.95-.61-1-1.03-.05-.42-.05-.87-.02-1.38.04-.5-.05-.82-.26-.95-.22-.14-.5-.02-.85.36-.34.37-.67.9-.98,1.58-.31.69-.65,1.13-1.01,1.34-.35.21-1.15.37-2.38.48h-11.35s-1.12,0-1.12,0c-1.08.07-1.86-.22-2.33-.86-.37-.52-.72-1.12-1.07-1.81-.35-.69-.6-1.39-.78-2.09-.31-.66-.94-1.04-1.88-1.15-1.1.11-2.28.79-3.53,2.04-1.26,1.25-2.33,2.81-3.21,4.69-.88,1.88-1.84,2.73-2.88,2.56-1.32.06-2.24-1.23-2.73-3.9-.3-1.81-.36-3.79-.18-5.94-.55.43-.89,1.53-1.02,3.3l-.21,2.29c.09,5.99,1.45,8.92,4.1,8.79.94,0,1.95-.85,3.04-2.54l2.9-5.15c1.26-1.71,2.2-2.31,2.81-1.82.61.49,1.11,1.23,1.5,2.21.48,1.25.94,2.18,1.41,2.77.83.74,1.77,1.19,2.8,1.37v.09h1.01s0,0,.01,0h1.39s7.34,0,7.34,0h4.39c1.82,0,2.99-.81,3.51-2.43.27,1.05.7,1.7,1.29,1.95.59.25,1.24.4,1.97.43.32.01.67.01,1,.02v.03c.23,0,.42,0,.64-.01.21,0,.41.01.62.01v-.03c1.18-.05,2.03-.19,2.57-.4.71-.29,1.17-1.31,1.38-3.07.53,2.14,1.93,3.3,4.19,3.5h1.83s34.08.03,34.08.03l2.22-4.84Z"/>
      </g>
      <g>
        <path class="cls-1" d="M21.08,339.63c-1.12-.12-2.03-.4-2.71-.84-.69-.44-1.54-1.35-2.51-2.71l-4.17-5.8c1.66-.41,2.92-1.08,3.74-2.01.87-.98,1.31-2.15,1.31-3.48,0-1.24-.39-2.33-1.16-3.24-.76-.89-1.69-1.52-2.78-1.85-1.07-.33-2.75-.49-4.98-.49H.18c-.1,0-.18.08-.18.18v.57c0,.1.08.18.18.18h.79c.74,0,1.29.21,1.65.62.18.19.39.76.39,2.34v13.56c0,1.44-.16,1.97-.29,2.18-.35.53-.92.78-1.75.78H.18c-.1,0-.18.08-.18.18v.57c0,.1.08.18.18.18h8.99c.1,0,.18-.08.18-.18v-.57c0-.1-.08-.18-.18-.18h-.82c-.72,0-1.27-.21-1.63-.62-.17-.19-.38-.76-.38-2.34v-5.9c.1,0,.19,0,.29,0,.15,0,.3,0,.44,0,.31,0,.71,0,1.19-.03l7.05,9.74s.09.08.15.08h5.61c.1,0,.18-.08.18-.18v-.57c0-.09-.07-.17-.16-.18ZM12.89,325c0,1.28-.49,2.34-1.46,3.17-.98.83-2.46,1.26-4.41,1.26-.1,0-.21,0-.35,0-.1,0-.21,0-.33,0v-8.4c.93-.17,1.69-.26,2.25-.26,1.29,0,2.35.4,3.13,1.18.78.79,1.18,1.82,1.18,3.07Z"/>
        <path class="cls-1" d="M35.03,337.3c-.07-.03-.15,0-.2.04-.76.76-1.08,1.02-1.22,1.1-.18.1-.45.14-.63-.03-.06-.05-.14-.18-.19-.5-.05-.29-.08-1.12-.08-2.45v-4.81c0-1.41-.1-2.32-.29-2.8-.31-.72-.79-1.26-1.43-1.59-.83-.43-1.9-.65-3.18-.65-1.67,0-3,.39-3.94,1.16-.95.78-1.43,1.65-1.43,2.59,0,.51.14.92.41,1.22.28.31.64.46,1.08.46s.81-.15,1.08-.45c.28-.29.42-.71.42-1.23l-.03-.89c0-.41.17-.76.53-1.08.34-.31.82-.48,1.42-.48.81,0,1.4.24,1.82.73.42.49.63,1.43.63,2.79v.43c-2.41.88-4.09,1.61-5.13,2.23-1.07.63-1.83,1.32-2.27,2.04-.32.53-.49,1.17-.49,1.89,0,1.14.34,2.07,1,2.77.67.71,1.53,1.06,2.56,1.06.65,0,1.27-.14,1.86-.4.36-.17,1.18-.75,2.49-1.76.05.71.21,1.22.5,1.55.34.39.79.59,1.35.59,1.11,0,2.27-.81,3.46-2.39.03-.03.04-.07.04-.11v-.87c0-.07-.05-.14-.11-.17ZM27.04,333.41c.42-.24,1.34-.64,2.74-1.21v5.04c-1.21.96-2.18,1.46-2.91,1.46-.53,0-.98-.22-1.4-.68-.41-.46-.62-1.02-.62-1.73,0-.55.17-1.06.49-1.52.33-.47.9-.93,1.69-1.37Z"/>
        <path class="cls-1" d="M43.33,332.31l-2.26-1.1c-.95-.46-1.58-.89-1.89-1.3-.3-.38-.46-.84-.46-1.37,0-.41.2-.78.6-1.13.41-.35.95-.53,1.63-.53.89,0,1.64.26,2.22.78.58.52,1.07,1.53,1.45,3,.02.08.09.14.18.14h.52c.1,0,.18-.08.18-.18v-4.83c0-.1-.08-.18-.18-.18h-.52c-.07,0-.13.04-.17.1-.15.29-.23.39-.27.41-.06.05-.16.07-.28.07-.09,0-.34-.03-1-.22-.81-.24-1.51-.36-2.08-.36-1.31,0-2.4.41-3.23,1.23-.83.82-1.25,1.84-1.25,3.06,0,.94.25,1.73.74,2.34.48.62,1.46,1.3,3,2.06,1.48.73,2.47,1.34,2.95,1.81.47.46.7,1,.7,1.66,0,.54-.2.99-.62,1.38-.41.38-.95.58-1.61.58-.97,0-1.83-.35-2.62-1.05-.78-.7-1.32-1.77-1.6-3.17-.01-.09-.09-.15-.18-.15h-.51c-.1,0-.18.08-.18.18v5.06c0,.1.08.18.18.18h.51c.07,0,.13-.04.17-.1.13-.27.29-.3.39-.3.2,0,.46.05.79.15,1.13.31,2.14.47,3.02.47,1.25,0,2.39-.41,3.39-1.22,1.02-.82,1.53-1.92,1.53-3.26,0-1.74-1.09-3.15-3.25-4.2Z"/>
        <path class="cls-1" d="M74.47,334.51l-.51-.11c-.09-.01-.17.03-.21.11-.53,1.28-1.06,2.22-1.57,2.8-.52.59-1.08.98-1.71,1.21-.62.23-1.74.35-3.32.35h-1.53c-1.74,0-2.22-.09-2.35-.14-.22-.09-.38-.22-.48-.39-.15-.29-.23-.86-.23-1.68v-13.19c0-1.51.12-2.08.23-2.28.15-.29.43-.54.84-.74.4-.19,1.11-.29,2.12-.29h.15s.1-.02.13-.05c.04-.03.06-.08.06-.13v-.57c0-.1-.08-.18-.18-.18h-9.5c-.1,0-.18.08-.18.18v.57c0,.1.08.18.18.18h.79c.75,0,1.29.2,1.66.62.18.2.39.77.39,2.34v13.54c0,1.44-.16,1.99-.29,2.19-.35.53-.92.79-1.75.79h-.79c-.1,0-.18.08-.18.18v.57c0,.1.08.18.18.18h16.25c.08,0,.15-.05.17-.13l1.8-5.7s0-.1-.01-.15c-.03-.04-.07-.08-.12-.09Z"/>
        <path class="cls-1" d="M89.35,337.3c-.06-.03-.15-.01-.2.04-.76.76-1.08,1.02-1.22,1.1-.17.1-.45.14-.63-.03-.05-.04-.14-.16-.19-.51-.05-.29-.08-1.11-.08-2.45v-4.81c0-1.41-.1-2.33-.29-2.8-.3-.72-.79-1.25-1.43-1.59-.83-.43-1.9-.65-3.18-.65-1.67,0-3,.39-3.94,1.16-.95.78-1.43,1.65-1.43,2.59,0,.51.14.92.41,1.22.27.31.63.47,1.07.47s.81-.15,1.08-.45c.28-.29.42-.7.42-1.23l-.03-.89c0-.41.17-.76.53-1.07.35-.32.82-.48,1.43-.48.81,0,1.4.24,1.82.73.42.49.63,1.43.63,2.79v.43c-2.41.88-4.09,1.61-5.13,2.23-1.07.63-1.83,1.32-2.27,2.04-.32.53-.49,1.17-.49,1.89,0,1.14.34,2.07,1,2.77.67.71,1.53,1.06,2.56,1.06.65,0,1.28-.14,1.86-.4.36-.17,1.2-.76,2.49-1.76.05.71.21,1.22.49,1.55.34.39.79.59,1.35.59,1.11,0,2.27-.81,3.46-2.39.03-.03.04-.07.04-.11v-.87c0-.07-.05-.14-.12-.17ZM81.37,333.41c.41-.24,1.33-.64,2.74-1.21v5.04c-1.21.96-2.19,1.46-2.91,1.46-.52,0-.98-.22-1.4-.68-.41-.46-.61-1.02-.61-1.73,0-.54.16-1.06.49-1.52.34-.47.9-.93,1.69-1.37Z"/>
        <path class="cls-1" d="M96.43,321.12c.13-.49.35-.85.65-1.08.29-.22.66-.34,1.1-.34.36,0,.68.09.97.27.3.18.63.55,1,1.08.39.58.73.96,1.01,1.15.69.44,1.33.36,1.85-.18.31-.31.46-.64.46-1,0-.64-.33-1.21-.97-1.71-.94-.72-1.98-1.09-3.1-1.09-1.2,0-2.29.31-3.25.93-.96.61-1.68,1.44-2.15,2.45-.46.99-.7,2.23-.7,3.66v.75h-2.58c-.1,0-.18.08-.18.18v1.12c0,.1.08.18.18.18h2.58v9.14c0,.99-.06,1.65-.18,1.98-.12.31-.32.55-.63.74-.31.18-.65.28-1.03.28h-.63c-.1,0-.18.08-.18.18v.55c0,.1.08.18.18.18h8.47c.1,0,.18-.08.18-.18v-.55c0-.1-.08-.18-.18-.18h-1.28c-.59,0-1.04-.2-1.39-.61-.18-.22-.39-.81-.39-2.39v-9.14h3.47c.1,0,.18-.08.18-.18v-1.12c0-.1-.08-.18-.18-.18h-3.47v-.84c0-2.18.07-3.54.21-4.06Z"/>
        <path class="cls-1" d="M113.15,322.02c.3-.31.46-.64.46-1,0-.64-.33-1.21-.97-1.71-.94-.72-1.98-1.09-3.1-1.09-1.2,0-2.29.31-3.25.93-.96.62-1.68,1.44-2.15,2.45-.46.99-.7,2.23-.7,3.66v.75h-2.58c-.1,0-.18.08-.18.18v1.12c0,.1.08.18.18.18h2.58v9.14c0,.99-.06,1.65-.18,1.98-.12.32-.33.56-.63.75-.31.18-.65.28-1.03.28h-.63c-.1,0-.18.08-.18.18v.55c0,.1.08.18.18.18h8.47c.1,0,.18-.08.18-.18v-.55c0-.1-.08-.18-.18-.18h-1.28c-.59,0-1.05-.2-1.39-.61-.18-.21-.39-.81-.39-2.39v-9.14h3.47c.1,0,.18-.08.18-.18v-1.12c0-.1-.08-.18-.18-.18h-3.47v-.84c0-2.18.07-3.54.21-4.06.13-.49.35-.85.65-1.08.29-.23.66-.34,1.1-.34.36,0,.68.09.97.27.3.18.63.55,1,1.09.39.57.74.96,1.02,1.15.68.44,1.32.36,1.85-.18Z"/>
        <path class="cls-1" d="M124.44,337.3c-.06-.03-.15-.01-.2.04-.75.76-1.08,1.02-1.21,1.1-.18.1-.45.14-.63-.03-.05-.04-.14-.16-.19-.51-.05-.29-.08-1.11-.08-2.45v-4.81c0-1.41-.1-2.33-.29-2.8-.3-.72-.79-1.25-1.43-1.59-.83-.43-1.9-.65-3.18-.65-1.67,0-3,.39-3.94,1.16-.95.78-1.43,1.65-1.43,2.59,0,.51.14.92.41,1.22.28.31.64.47,1.08.47s.81-.15,1.08-.45c.28-.29.42-.7.42-1.23l-.03-.89c0-.41.17-.76.53-1.07.35-.32.82-.48,1.42-.48.81,0,1.4.24,1.82.73.42.49.63,1.42.63,2.79v.43c-2.41.88-4.09,1.61-5.13,2.23-1.07.63-1.84,1.32-2.27,2.04-.32.53-.49,1.17-.49,1.89,0,1.14.34,2.07,1,2.77.67.71,1.53,1.06,2.55,1.06.66,0,1.28-.14,1.86-.4.36-.17,1.2-.76,2.49-1.76.05.71.21,1.22.5,1.55.34.39.79.59,1.35.59,1.11,0,2.27-.81,3.46-2.39.03-.03.04-.07.04-.11v-.87c0-.07-.05-.14-.12-.17ZM116.46,333.41c.41-.24,1.33-.64,2.74-1.21v5.04c-1.21.96-2.18,1.46-2.91,1.46-.53,0-.98-.22-1.4-.68-.41-.46-.62-1.02-.62-1.73,0-.55.17-1.06.49-1.52.34-.47.91-.93,1.7-1.37Z"/>
        <path class="cls-1" d="M140.3,339.64c-.64,0-1.09-.07-1.31-.19-.22-.13-.38-.3-.48-.52-.09-.2-.2-.67-.2-1.75v-6.05c0-1.29-.12-2.27-.35-2.91-.35-.92-.82-1.59-1.4-2-.58-.41-1.29-.61-2.1-.61-1.46,0-2.99.9-4.57,2.69v-2.51c0-.1-.08-.18-.18-.18h-.67s-.05,0-.07.01l-4.27,1.73s-.08.06-.1.1c-.02.05-.02.1,0,.14l.23.55c.03.09.14.13.23.1.7-.27,1.21-.29,1.5-.06.09.08.21.25.29.66.05.25.11.99.11,3.07v5.26c0,.99-.12,1.66-.35,1.99-.21.31-.66.47-1.31.47h-.31c-.1,0-.18.08-.18.18v.55c0,.1.08.18.18.18h7.01c.1,0,.18-.08.18-.18v-.55c0-.1-.08-.18-.18-.18-.92,0-1.29-.1-1.45-.18-.22-.13-.39-.31-.52-.58-.06-.11-.15-.49-.15-1.7v-7.41c1.16-1.26,2.33-1.9,3.48-1.9.73,0,1.23.26,1.54.79.32.55.48,1.47.48,2.72v5.8c0,1.04-.03,1.33-.05,1.41-.1.35-.25.61-.48.79-.16.12-.51.26-1.28.26h-.29c-.1,0-.18.08-.18.18v.55c0,.1.08.18.18.18h7.01c.1,0,.18-.08.18-.18v-.55c0-.1-.08-.18-.18-.18Z"/>
        <path class="cls-1" d="M167.32,334.94h-.62c-.07,0-.13.04-.16.1-.66,1.26-1.31,2.23-1.93,2.85-.47.47-.97.78-1.48.93-.52.16-1.37.24-2.53.24h-3.56c-.68,0-.96-.08-1.09-.15-.17-.1-.29-.23-.36-.39-.04-.1-.11-.45-.11-1.62v-6.74h4.43c.85,0,1.48.1,1.87.29.39.19.66.44.83.77.14.27.27.91.42,1.91.01.09.09.16.18.16h.57c.1,0,.18-.08.18-.18v-7.31c0-.1-.08-.18-.18-.18h-.57c-.1,0-.18.08-.18.18-.06,1.14-.34,1.94-.83,2.38-.37.33-1.13.5-2.28.5h-4.43v-7.93h5.58c1.02,0,1.73.08,2.11.22.48.2.84.5,1.08.87.25.39.49,1.14.69,2.21.02.09.09.15.18.15h.61c.05,0,.1-.02.13-.06.03-.04.06-.09.05-.14l-.23-4.6c0-.1-.09-.18-.18-.18h-16.17c-.1,0-.18.08-.18.18v.57c0,.1.08.18.18.18h.74c.81,0,1.39.19,1.72.55.16.19.36.75.36,2.34v13.64c0,.99-.06,1.66-.17,1.97-.1.28-.29.5-.58.64-.41.22-.86.34-1.32.34h-.74c-.1,0-.18.08-.18.18v.57c0,.1.08.18.18.18h16.17c.08,0,.15-.05.17-.12l1.82-5.26c.02-.06,0-.12-.03-.17-.03-.05-.09-.08-.15-.08Z"/>
        <path class="cls-1" d="M192.73,339.64c-.59,0-1.02-.07-1.27-.21-.24-.14-.41-.31-.5-.49-.09-.22-.19-.7-.19-1.76v-6.1c0-1.32-.12-2.26-.35-2.89-.35-.91-.84-1.57-1.45-1.98-.61-.41-1.32-.61-2.11-.61s-1.59.2-2.35.6c-.69.37-1.54,1.11-2.52,2.22-.25-.85-.67-1.53-1.26-2-.67-.54-1.48-.81-2.4-.81-.55,0-1.11.11-1.67.34-.55.23-1.08.54-1.55.94-.17.14-.63.58-1.52,1.48v-2.58c0-.1-.08-.18-.18-.18h-.67s-.05,0-.07.01l-4.28,1.73s-.08.05-.1.1c-.02.05-.02.1,0,.14l.23.55c.04.09.14.13.23.1.71-.27,1.23-.29,1.49-.07.12.1.21.3.27.6.09.43.14,1.41.14,2.98v5.42c0,.85-.06,1.42-.18,1.7-.12.27-.28.46-.51.58-.16.08-.51.18-1.27.18-.1,0-.18.08-.18.18v.55c0,.1.08.18.18.18h7.01c.1,0,.18-.08.18-.18v-.55c0-.1-.08-.18-.18-.18-.92,0-1.3-.1-1.45-.18-.22-.12-.38-.3-.49-.54-.08-.17-.17-.61-.17-1.73v-7.53c.44-.52,1.08-1.01,1.89-1.44.51-.28,1.04-.43,1.57-.43.76,0,1.33.3,1.75.91.32.47.48,1.27.48,2.39v6.1c0,1.08-.04,1.39-.07,1.48-.1.33-.28.57-.53.73-.26.17-.78.25-1.52.25-.1,0-.18.08-.18.18v.55c0,.1.08.18.18.18h7.17c.1,0,.18-.08.18-.18v-.55c0-.1-.08-.18-.18-.18-.69,0-1.18-.07-1.45-.22-.26-.14-.44-.31-.53-.51-.07-.14-.15-.56-.15-1.73v-6.77l-.04-.62.02-.11c.75-.71,1.39-1.2,1.91-1.45.52-.26,1.05-.39,1.57-.39.83,0,1.41.3,1.78.9.26.45.39,1.24.39,2.35v6.1c0,.82-.02,1.31-.05,1.45-.1.32-.24.55-.44.69-.3.21-.75.32-1.32.32h-.29c-.1,0-.18.08-.18.18v.55c0,.1.08.18.18.18h7c.1,0,.18-.08.18-.18v-.55c0-.1-.08-.18-.18-.18Z"/>
        <path class="cls-1" d="M206.38,331.54c0-1.8-.53-3.25-1.58-4.33-1.05-1.08-2.41-1.62-4.05-1.62-1.92,0-3.54.7-4.82,2.09-1.27,1.39-1.92,3.34-1.92,5.8,0,2.27.63,4.12,1.87,5.47,1.24,1.36,2.76,2.05,4.51,2.05,1.61,0,2.98-.61,4.05-1.8,1.07-1.19,1.71-2.52,1.93-3.96,0-.07-.02-.14-.08-.18l-.48-.31s-.1-.03-.16-.02c-.05.02-.09.06-.11.11-.45,1.2-1.01,2.05-1.66,2.54-.65.48-1.43.73-2.31.73-1.33,0-2.51-.58-3.5-1.73-.97-1.12-1.47-2.68-1.49-4.65h9.61c.1,0,.18-.08.18-.18ZM197.71,328c.65-.63,1.36-.94,2.17-.94.52,0,1.03.16,1.5.47.48.31.85.74,1.09,1.28.15.33.24.89.3,1.66h-6.16c.13-1.04.51-1.87,1.11-2.47Z"/>
        <path class="cls-1" d="M217.58,326.17c-.4-.38-.92-.57-1.53-.57-1.21,0-2.35.88-3.47,2.7v-2.52c0-.1-.08-.18-.18-.18h-.65s-.05,0-.07.01l-4.29,1.73c-.09.03-.14.13-.11.22l.15.55c.01.05.05.09.09.12.05.02.1.02.15,0,.68-.26,1.23-.32,1.58-.04.15.12.25.31.31.58.07.29.1,1.24.1,2.91v5.5c0,1.05-.04,1.36-.07,1.45-.09.32-.24.54-.47.69-.32.2-.83.31-1.51.31-.05,0-.09.02-.13.05-.03.04-.06.08-.06.13v.55c0,.1.08.18.18.18h7.26c.1,0,.18-.08.18-.18v-.55c0-.1-.08-.18-.18-.18-.61,0-1.08-.09-1.38-.26-.3-.17-.52-.37-.63-.61-.18-.38-.28-.95-.28-1.7v-6.75c.48-.93.94-1.6,1.39-2,.17-.17.34-.26.47-.26.1,0,.34.07.89.5.99.79,1.82.71,2.42.1.3-.31.45-.7.45-1.15,0-.51-.21-.95-.62-1.33Z"/>
        <path class="cls-1" d="M232.49,326.64c-.07-.03-.22-.05-.83-.05h-2.95c-1.01-.66-2.21-.99-3.57-.99-1.7,0-3.11.53-4.19,1.57-1.09,1.04-1.64,2.31-1.64,3.75,0,.95.25,1.83.73,2.61.43.71,1.05,1.28,1.83,1.71-.97.82-1.58,1.45-1.87,1.93-.31.51-.47.97-.47,1.36,0,.37.13.69.38.98.21.24.53.49.99.78-1.17,1.22-1.38,1.45-1.43,1.52-.56.7-.93,1.24-1.11,1.63-.13.27-.19.54-.19.82,0,.62.42,1.21,1.24,1.76,1.4.91,3.13,1.38,5.15,1.38,2.63,0,4.79-.78,6.43-2.31,1.12-1.05,1.7-2.2,1.7-3.41,0-.89-.31-1.66-.91-2.27-.59-.6-1.4-.98-2.4-1.12-.64-.09-1.99-.17-4.15-.22-1.15-.03-1.87-.07-2.15-.11-.56-.08-.8-.21-.9-.31-.13-.13-.2-.26-.2-.38,0-.17.07-.39.21-.66.14-.26.41-.56.81-.91.72.19,1.42.29,2.11.29,1.74,0,3.15-.49,4.2-1.46,1.04-.97,1.57-2.16,1.57-3.53,0-1.04-.24-1.94-.7-2.66h1.49c.61,0,.77-.03.85-.06.12-.05.2-.11.26-.21.06-.13.1-.33.1-.64,0-.28-.04-.47-.11-.58-.06-.1-.15-.18-.26-.22ZM220.74,343.11c0-.35.12-.74.35-1.17.23-.42.57-.88,1.01-1.36,1.25.17,2.98.28,5.28.34,1.56.04,2.61.17,3.12.39.46.19.68.51.68.97,0,.68-.42,1.34-1.25,1.95-.85.63-2.19.95-4,.95-1.91,0-3.38-.31-4.37-.93-.55-.34-.81-.72-.81-1.15ZM227.07,334.05c-.48.55-1.06.82-1.8.82-.78,0-1.4-.31-1.9-.95-.67-.86-1.01-2.1-1.01-3.68,0-1.21.24-2.11.73-2.68.48-.57,1.07-.85,1.78-.85.77,0,1.39.31,1.89.95.68.89,1.03,2.15,1.03,3.74,0,1.21-.24,2.1-.71,2.65Z"/>
        <path class="cls-1" d="M246.76,331.54c0-1.8-.53-3.26-1.59-4.33-1.05-1.08-2.41-1.62-4.05-1.62-1.92,0-3.54.7-4.82,2.09-1.27,1.39-1.91,3.34-1.91,5.8,0,2.28.63,4.12,1.87,5.47,1.24,1.36,2.76,2.05,4.51,2.05,1.61,0,2.98-.61,4.05-1.8,1.07-1.18,1.71-2.51,1.93-3.96,0-.07-.02-.15-.08-.18l-.48-.31s-.11-.03-.16-.02c-.05.02-.1.06-.12.11-.45,1.2-1.01,2.05-1.66,2.54-.65.48-1.43.73-2.31.73-1.33,0-2.51-.58-3.5-1.73-.97-1.12-1.47-2.68-1.49-4.65h9.61c.1,0,.18-.08.18-.18ZM238.09,328c.65-.63,1.36-.94,2.17-.94.52,0,1.03.16,1.5.47.48.31.85.74,1.09,1.28.15.33.24.89.3,1.66h-6.16c.13-1.04.51-1.87,1.11-2.47Z"/>
        <path class="cls-1" d="M263.35,339.64c-.64,0-1.09-.07-1.31-.19-.22-.13-.37-.3-.47-.52-.09-.2-.2-.67-.2-1.75v-6.05c0-1.29-.12-2.27-.35-2.91-.35-.92-.82-1.59-1.4-2-.58-.41-1.29-.61-2.1-.61-1.46,0-2.99.9-4.57,2.69v-2.51c0-.1-.08-.18-.18-.18h-.67s-.05,0-.07.01l-4.27,1.73s-.08.06-.1.1c-.02.05-.02.1,0,.14l.23.55c.03.09.14.13.23.1.71-.27,1.21-.29,1.5-.06.09.08.21.25.29.66.05.25.11.99.11,3.07v5.26c0,.99-.12,1.66-.35,1.99-.21.31-.66.47-1.31.47h-.31c-.1,0-.18.08-.18.18v.55c0,.1.08.18.18.18h7.01c.1,0,.18-.08.18-.18v-.55c0-.1-.08-.18-.18-.18-.92,0-1.29-.1-1.45-.18-.22-.13-.39-.31-.52-.58-.06-.11-.15-.49-.15-1.7v-7.41c1.16-1.26,2.33-1.9,3.48-1.9.73,0,1.23.26,1.54.79.32.55.48,1.47.48,2.72v5.8c0,.99-.03,1.31-.06,1.41-.09.35-.25.61-.48.79-.23.17-.66.26-1.28.26h-.29c-.1,0-.18.08-.18.18v.55c0,.1.08.18.18.18h7.01c.1,0,.18-.08.18-.18v-.55c0-.1-.08-.18-.18-.18Z"/>
        <path class="cls-1" d="M276.31,334.61s-.1-.02-.14,0c-.05.02-.09.05-.11.1-.52,1.22-1.06,2.06-1.61,2.52-.77.66-1.64.99-2.6.99-1.36,0-2.41-.61-3.21-1.86-.81-1.26-1.21-2.74-1.21-4.38s.41-2.92,1.21-3.89c.6-.73,1.36-1.08,2.35-1.08.59,0,1.05.14,1.38.42.33.29.52.71.57,1.27.06.65.19,1.09.39,1.34.34.44.86.66,1.52.66.5,0,.9-.14,1.19-.41.29-.28.44-.65.44-1.09,0-.85-.48-1.67-1.41-2.44-.93-.76-2.12-1.15-3.56-1.15-1.9,0-3.55.72-4.91,2.15-1.35,1.42-2.04,3.3-2.04,5.56s.62,4.22,1.84,5.6c1.23,1.38,2.69,2.09,4.35,2.09,1.39,0,2.68-.52,3.82-1.55,1.14-1.03,1.91-2.51,2.3-4.41.02-.08-.02-.17-.1-.2l-.45-.22Z"/>
        <path class="cls-1" d="M293.54,326.02h-4.61c-.1,0-.18.08-.18.18v.57c0,.1.08.18.18.18.52,0,.76.05.87.09.14.06.24.13.3.21.05.06.07.17.07.3,0,.39-.08.79-.24,1.19l-3.02,7.45-3.27-6.78c-.33-.68-.5-1.21-.5-1.59,0-.25.09-.45.28-.61.19-.17.51-.25.92-.25h.32c.1,0,.18-.08.18-.18v-.57c0-.1-.08-.18-.18-.18h-6.6c-.1,0-.18.08-.18.18v.57c0,.09.06.16.14.18.5.12.86.25,1.08.4.15.11.35.34.59.69.34.47.58.86.73,1.17l5.06,10.62-.98,2.39c-.36.89-.72,1.49-1.06,1.79-.33.29-.63.44-.89.44-.03,0-.16-.02-.71-.22-.61-.24-1.09-.35-1.46-.35-.54,0-.98.15-1.29.45-.32.3-.49.69-.49,1.18s.22.96.65,1.34c.43.38.97.57,1.62.57.88,0,1.79-.37,2.72-1.09.92-.72,1.68-1.79,2.25-3.19l5.78-14.15c.33-.85.47-1.09.5-1.15.23-.32.45-.54.63-.65.18-.11.46-.18.81-.22.09-.01.17-.09.17-.18v-.57c0-.1-.08-.18-.18-.18Z"/>
        <path class="cls-1" d="M325.2,336.04s-.11-.05-.17-.03c-.06.02-.1.07-.11.13-.19.71-.53,1.25-.99,1.61-.46.36-1.03.54-1.7.54-.71,0-1.39-.2-2.09-.62-.68-.4-1.46-1.11-2.32-2.1,1.11-1.4,2.11-2.91,2.99-4.5.89-1.62,1.55-2.59,1.95-2.89.4-.3,1.03-.49,1.9-.56.1,0,.17-.09.17-.18v-.57c0-.1-.08-.18-.18-.18h-6.5c-.1,0-.18.08-.18.18v.57c0,.09.07.17.16.18.38.05.66.19.86.43.28.34.42.73.42,1.15,0,1.39-.85,3.14-2.53,5.18-1.33-1.83-2.62-3.86-3.86-6.04,1.84-.97,3.1-1.84,3.85-2.66.78-.86,1.17-1.87,1.17-3s-.41-2.06-1.22-2.82c-.8-.76-1.85-1.14-3.12-1.14s-2.52.38-3.56,1.12c-1.34.96-2.02,2.37-2.02,4.19,0,.65.09,1.33.27,2.02.17.66.48,1.51.93,2.52-2.41,1.31-4.08,2.6-4.98,3.83-.92,1.27-1.38,2.57-1.38,3.85s.52,2.44,1.56,3.38c1.03.94,2.44,1.41,4.18,1.41,1.19,0,2.32-.22,3.36-.67,1-.43,2.14-1.2,3.37-2.27,1,1.04,1.93,1.79,2.78,2.24.89.47,1.79.71,2.66.71,1.16,0,2.19-.36,3.07-1.08.87-.71,1.51-1.83,1.9-3.31.02-.07,0-.15-.07-.19l-.57-.42ZM314.38,336.91c-.96.77-1.73,1.28-2.29,1.52-.58.25-1.19.37-1.81.37-1.16,0-2.05-.39-2.74-1.19-.68-.8-1.02-1.74-1.02-2.79,0-.95.3-1.86.9-2.68.58-.8,1.45-1.54,2.57-2.21.58,1.17,1.14,2.19,1.65,3.03.52.85,1.44,2.17,2.74,3.94ZM311.76,321.09c.42-.57,1.06-.86,1.89-.86.63,0,1.16.23,1.58.67.42.45.64,1.03.64,1.72,0,.9-.3,1.73-.9,2.47-.59.72-1.48,1.37-2.64,1.94-.47-1.12-.79-1.98-.95-2.56-.17-.63-.26-1.17-.26-1.65,0-.55.22-1.13.65-1.73Z"/>
        <path class="cls-1" d="M348.67,330.49c-.72-.56-2.08-1.39-4.04-2.44-2.37-1.27-3.89-2.3-4.52-3.05-.41-.49-.62-1.04-.62-1.63,0-.78.34-1.49,1-2.1.66-.62,1.52-.93,2.54-.93.91,0,1.82.24,2.67.71.86.47,1.52,1.1,1.98,1.9.47.8.8,1.9.98,3.26.01.09.09.16.18.16h.57c.1,0,.18-.08.18-.18v-7.26c0-.1-.08-.18-.18-.18h-.57c-.09,0-.16.06-.18.15-.12.55-.26.78-.36.87-.14.13-.31.19-.53.19s-.6-.13-1.15-.37c-1.27-.55-2.49-.84-3.62-.84-1.82,0-3.35.56-4.54,1.68-1.19,1.12-1.79,2.47-1.79,4.02,0,.89.21,1.73.61,2.47.4.74,1,1.43,1.77,2.04.77.6,2.06,1.42,3.86,2.42,1.79,1,2.89,1.66,3.28,1.96.57.43,1,.91,1.27,1.41.27.49.41.99.41,1.48,0,.88-.35,1.63-1.06,2.28-.71.65-1.7.97-2.94.97-1.08,0-2.08-.24-2.99-.72-.9-.48-1.58-1.08-2.01-1.8-.44-.73-.8-1.85-1.06-3.32-.02-.09-.09-.15-.18-.15h-.57c-.1,0-.18.08-.18.18v7.19c0,.1.08.18.18.18h.57c.09,0,.17-.07.18-.16.09-.55.2-.77.28-.86.11-.12.27-.17.48-.17.24,0,.87.16,1.86.48,1,.32,1.68.52,2.01.57.55.09,1.14.14,1.75.14,1.98,0,3.62-.6,4.89-1.78,1.26-1.18,1.91-2.61,1.91-4.24,0-.86-.2-1.7-.6-2.48-.39-.78-.96-1.47-1.7-2.05Z"/>
        <path class="cls-1" d="M366.74,337.3c-.06-.03-.15-.01-.2.04-.76.76-1.08,1.02-1.22,1.1-.18.1-.45.14-.63-.03-.05-.04-.14-.16-.19-.51-.05-.29-.08-1.11-.08-2.45v-4.81c0-1.41-.1-2.33-.29-2.8-.3-.72-.79-1.25-1.43-1.59-.83-.43-1.9-.65-3.18-.65-1.67,0-3,.39-3.94,1.16-.95.78-1.43,1.65-1.43,2.59,0,.51.14.92.41,1.22.27.31.63.47,1.07.47s.81-.15,1.08-.45c.28-.29.42-.7.42-1.23l-.03-.89c0-.41.17-.76.53-1.07.35-.32.82-.48,1.43-.48.8,0,1.41.24,1.82.73.42.49.63,1.43.63,2.79v.43c-2.41.88-4.09,1.61-5.13,2.23-1.07.63-1.83,1.32-2.27,2.04-.32.53-.49,1.17-.49,1.89,0,1.14.34,2.07,1,2.77.67.71,1.53,1.06,2.56,1.06.65,0,1.28-.14,1.86-.4.36-.17,1.2-.76,2.49-1.76.05.71.21,1.22.49,1.55.34.39.79.59,1.35.59,1.11,0,2.27-.81,3.46-2.39.03-.03.04-.07.04-.11v-.87c0-.07-.05-.14-.12-.17ZM358.76,333.41c.41-.24,1.33-.64,2.74-1.21v5.04c-1.21.96-2.19,1.46-2.91,1.46-.52,0-.98-.22-1.4-.68-.41-.46-.61-1.02-.61-1.73,0-.54.16-1.06.49-1.52.34-.47.9-.93,1.69-1.37Z"/>
        <path class="cls-1" d="M380.39,322.02c.3-.31.46-.64.46-1,0-.64-.33-1.21-.97-1.71-.94-.72-1.98-1.09-3.1-1.09-1.2,0-2.29.31-3.25.93-.96.61-1.68,1.44-2.15,2.45-.46.99-.7,2.23-.7,3.66v.75h-2.58c-.1,0-.18.08-.18.18v1.12c0,.1.08.18.18.18h2.58v9.14c0,.99-.06,1.65-.18,1.98-.12.32-.33.56-.63.75-.31.18-.65.28-1.03.28h-.63c-.1,0-.18.08-.18.18v.55c0,.1.08.18.18.18h8.47c.1,0,.18-.08.18-.18v-.55c0-.1-.08-.18-.18-.18h-1.28c-.59,0-1.04-.2-1.39-.61-.18-.21-.39-.81-.39-2.39v-9.14h3.47c.1,0,.18-.08.18-.18v-1.12c0-.1-.08-.18-.18-.18h-3.47v-.84c0-2.18.07-3.54.21-4.06.13-.49.35-.85.65-1.08.29-.22.66-.34,1.1-.34.36,0,.68.09.97.27.3.18.63.55,1,1.08.39.58.73.96,1.01,1.15.69.44,1.32.36,1.85-.18Z"/>
        <path class="cls-1" d="M390.96,331.54c0-1.8-.53-3.26-1.58-4.33-1.05-1.08-2.41-1.62-4.05-1.62-1.92,0-3.54.7-4.82,2.09-1.27,1.39-1.91,3.34-1.91,5.8,0,2.27.63,4.12,1.87,5.47,1.24,1.36,2.76,2.05,4.51,2.05,1.61,0,2.97-.61,4.05-1.8,1.06-1.18,1.71-2.51,1.93-3.96,0-.07-.02-.15-.08-.18l-.48-.31s-.1-.03-.16-.02c-.05.02-.09.06-.12.11-.45,1.2-1.01,2.06-1.66,2.54-.65.48-1.43.73-2.31.73-1.33,0-2.51-.58-3.5-1.73-.97-1.12-1.47-2.69-1.49-4.65h9.61c.1,0,.18-.08.18-.18ZM387.34,330.46h-6.16c.13-1.04.51-1.87,1.11-2.47.64-.63,1.37-.94,2.17-.94.52,0,1.03.16,1.51.47.48.31.85.74,1.09,1.28.15.33.24.89.29,1.66Z"/>
        <path class="cls-1" d="M400.69,337.38h-.6c-.08,0-.14.05-.17.11-.16.38-.39.66-.67.86-.29.19-.59.29-.89.29-.36,0-.64-.14-.87-.41-.23-.28-.35-.87-.35-1.74v-9.01h3.13c.1,0,.18-.08.18-.18v-1.08c0-.1-.08-.18-.18-.18h-3.13v-4.48c0-.1-.08-.18-.18-.18h-.48c-.08,0-.14.04-.17.11-.43,1.05-.75,1.75-.97,2.13-.45.72-.97,1.36-1.56,1.89-.58.52-1.14.9-1.69,1.12-.07.03-.12.1-.12.17v.51c0,.1.08.18.18.18h2.06v9.35c0,1.06.12,1.83.34,2.34.24.52.6.93,1.08,1.21.48.28.98.42,1.49.42.74,0,1.47-.27,2.16-.81.69-.53,1.22-1.33,1.59-2.37.02-.06,0-.12-.02-.17-.04-.05-.09-.08-.15-.08Z"/>
        <path class="cls-1" d="M416.46,326.02h-4.62c-.1,0-.18.08-.18.18v.57c0,.1.08.18.18.18.52,0,.76.05.86.09.15.06.25.13.31.21.05.06.07.17.07.3,0,.39-.08.79-.25,1.19l-3.02,7.45-3.27-6.78c-.33-.68-.5-1.21-.5-1.59,0-.25.09-.45.29-.61.19-.17.5-.25.92-.25h.33c.1,0,.18-.08.18-.18v-.57c0-.1-.08-.18-.18-.18h-6.61c-.1,0-.18.08-.18.18v.57c0,.09.06.16.14.18.51.12.87.26,1.08.4.11.08.3.26.6.69.33.47.58.86.72,1.17l5.06,10.62-.98,2.39c-.36.89-.72,1.49-1.06,1.79-.33.29-.63.44-.89.44-.04,0-.18-.02-.71-.22-.61-.24-1.09-.35-1.46-.35-.54,0-.97.15-1.29.45-.32.3-.49.69-.49,1.18s.22.96.65,1.34c.43.38.97.57,1.62.57.87,0,1.79-.37,2.72-1.09.92-.71,1.68-1.79,2.25-3.19l5.78-14.15c.34-.86.48-1.11.5-1.15.23-.32.44-.54.62-.65.19-.11.47-.18.82-.22.09-.01.16-.09.16-.18v-.57c0-.1-.08-.18-.18-.18Z"/>
        <path class="cls-1" d="M444.56,335c-.08-.06-.19-.03-.25.05-1.23,1.71-2.37,2.86-3.38,3.42-1.01.56-2.19.85-3.52.85-1.53,0-2.9-.37-4.09-1.09-1.18-.72-2.08-1.77-2.67-3.12-.59-1.36-.9-2.99-.9-4.86,0-2.26.32-4.18.95-5.7.63-1.51,1.5-2.61,2.59-3.3,1.09-.68,2.32-1.03,3.68-1.03,1.61,0,3.01.46,4.16,1.37,1.15.91,2.05,2.43,2.68,4.52.02.08.1.13.18.13h.48c.05,0,.1-.02.14-.06.03-.04.05-.09.05-.14l-.48-7.13c0-.1-.09-.17-.18-.17h-.54c-.08,0-.16.06-.18.14-.1.46-.28.82-.52,1.07-.17.16-.37.24-.6.24-.11,0-.34-.06-.85-.32-1.5-.75-3.03-1.13-4.57-1.13-1.97,0-3.82.5-5.49,1.47-1.67.98-3,2.37-3.94,4.15-.95,1.77-1.44,3.74-1.44,5.86,0,2.62.73,4.95,2.18,6.89,1.93,2.62,4.7,3.95,8.23,3.95,1.95,0,3.67-.45,5.1-1.33,1.42-.88,2.68-2.28,3.74-4.17.05-.08.02-.19-.06-.24l-.48-.31Z"/>
        <path class="cls-1" d="M454.12,325.61c-1.21,0-2.36.32-3.44.94-1.08.63-1.96,1.62-2.62,2.93-.65,1.3-.98,2.63-.98,3.96,0,1.82.55,3.49,1.63,4.94,1.29,1.75,3.05,2.63,5.24,2.63,1.34,0,2.57-.34,3.66-1.02,1.09-.67,1.96-1.69,2.59-3.02.62-1.32.93-2.64.93-3.93,0-1.84-.57-3.49-1.7-4.91-1.33-1.67-3.12-2.51-5.31-2.51ZM454.61,339.53c-1.28,0-2.29-.7-3.08-2.15-.8-1.46-1.21-3.23-1.21-5.25,0-1.24.17-2.28.5-3.07.32-.77.75-1.32,1.26-1.62.52-.31,1.05-.46,1.56-.46,1.07,0,1.96.48,2.65,1.41,1.05,1.4,1.58,3.37,1.58,5.83,0,1.96-.31,3.35-.93,4.14-.62.79-1.38,1.17-2.33,1.17Z"/>
        <path class="cls-1" d="M470.36,339.64c-.7,0-1.17-.07-1.41-.2-.23-.13-.41-.32-.52-.57-.08-.18-.18-.62-.18-1.69v-18.81c0-.1-.08-.18-.18-.18h-.69s-.05,0-.07.01l-4.23,1.73s-.08.06-.1.11c-.02.05-.01.1,0,.15l.26.54c.05.09.15.13.23.09.73-.28,1.18-.3,1.45-.08.12.11.22.33.28.65.07.35.11,1.33.11,2.91v12.88c0,.85-.06,1.42-.19,1.71-.12.27-.28.47-.48.58-.15.08-.48.18-1.24.18-.1,0-.18.08-.18.18v.55c0,.1.08.18.18.18h6.95c.1,0,.18-.08.18-.18v-.55c0-.1-.08-.18-.18-.18Z"/>
        <path class="cls-1" d="M479.33,339.64c-.87,0-1.25-.11-1.41-.2-.23-.13-.41-.32-.52-.57-.08-.18-.18-.62-.18-1.69v-18.81c0-.1-.08-.18-.18-.18h-.69s-.05,0-.07.01l-4.23,1.73s-.09.06-.1.11c-.02.05-.02.1,0,.15l.26.54c.04.09.15.13.23.09.73-.28,1.17-.3,1.45-.08.13.11.22.32.29.65.05.25.11.95.11,2.91v12.88c0,1.05-.1,1.51-.19,1.71-.12.27-.28.47-.48.58-.15.08-.48.18-1.24.18-.1,0-.18.08-.18.18v.55c0,.1.08.18.18.18h6.95c.1,0,.18-.08.18-.18v-.55c0-.1-.08-.18-.18-.18Z"/>
        <path class="cls-1" d="M493.49,331.54c0-1.8-.53-3.25-1.58-4.33-1.05-1.08-2.41-1.62-4.05-1.62-1.92,0-3.54.7-4.82,2.09-1.27,1.39-1.92,3.34-1.92,5.8,0,2.27.63,4.12,1.87,5.47,1.24,1.36,2.76,2.05,4.51,2.05,1.61,0,2.98-.61,4.05-1.8,1.07-1.19,1.71-2.52,1.93-3.96,0-.07-.02-.14-.08-.18l-.48-.31s-.1-.03-.16-.02c-.05.02-.09.06-.11.11-.45,1.2-1.01,2.05-1.66,2.54-.65.48-1.43.73-2.31.73-1.33,0-2.51-.58-3.5-1.73-.97-1.12-1.47-2.68-1.49-4.65h9.61c.1,0,.18-.08.18-.18ZM486.99,327.05c.52,0,1.03.16,1.51.47.48.31.85.74,1.09,1.28.15.33.24.89.3,1.66h-6.16c.13-1.04.51-1.87,1.11-2.47.65-.63,1.36-.94,2.17-.94Z"/>
        <path class="cls-1" d="M509.46,326.64c-.07-.03-.22-.05-.83-.05h-2.95c-1.01-.66-2.21-.99-3.57-.99-1.69,0-3.1.53-4.19,1.57-1.09,1.04-1.64,2.31-1.64,3.75,0,.95.25,1.83.73,2.61.43.71,1.05,1.28,1.83,1.71-.96.82-1.58,1.45-1.87,1.93-.31.51-.47.97-.47,1.36,0,.37.13.69.38.98.21.23.54.5.98.77-1.17,1.22-1.38,1.46-1.43,1.52-.56.7-.93,1.24-1.11,1.63-.12.27-.19.54-.19.82,0,.62.42,1.21,1.24,1.76,1.4.91,3.13,1.38,5.15,1.38,2.63,0,4.79-.78,6.43-2.31,1.13-1.05,1.7-2.2,1.7-3.41,0-.89-.31-1.66-.91-2.27-.6-.6-1.41-.98-2.4-1.12-.63-.09-1.99-.17-4.15-.22-1.14-.03-1.87-.07-2.15-.11-.56-.08-.8-.21-.9-.31-.13-.13-.2-.26-.2-.38,0-.17.07-.4.22-.66.14-.26.41-.56.81-.91.71.19,1.42.29,2.11.29,1.74,0,3.16-.49,4.2-1.46,1.04-.97,1.57-2.16,1.57-3.53,0-1.04-.23-1.94-.7-2.66h1.49c.61,0,.77-.03.85-.06.12-.05.2-.11.26-.21.07-.13.1-.33.1-.64,0-.29-.04-.47-.12-.58-.06-.1-.15-.18-.26-.22ZM497.71,343.11c0-.35.12-.74.35-1.17.23-.42.57-.88,1.01-1.36,1.25.17,2.98.28,5.28.34,1.56.04,2.61.17,3.12.39.46.19.68.51.68.97,0,.68-.42,1.34-1.25,1.95-.85.63-2.19.95-4,.95-1.91,0-3.38-.31-4.37-.93-.55-.34-.81-.72-.81-1.15ZM504.04,334.05c-.48.55-1.06.82-1.8.82-.77,0-1.39-.31-1.9-.95-.67-.86-1.01-2.1-1.01-3.68,0-1.21.25-2.11.73-2.68.48-.57,1.07-.85,1.78-.85.77,0,1.39.31,1.88.95.68.89,1.03,2.15,1.03,3.74,0,1.21-.24,2.1-.71,2.65Z"/>
        <path class="cls-1" d="M523.17,334.75s-.1-.03-.16-.02c-.05.02-.09.06-.12.11-.45,1.2-1.01,2.06-1.66,2.54-.65.48-1.43.73-2.31.73-1.33,0-2.51-.58-3.5-1.73-.97-1.13-1.47-2.69-1.49-4.65h9.61c.1,0,.18-.08.18-.18,0-1.8-.53-3.26-1.58-4.33-1.05-1.08-2.41-1.62-4.05-1.62-1.92,0-3.54.7-4.82,2.09-1.27,1.39-1.91,3.34-1.91,5.8,0,2.27.63,4.12,1.87,5.47,1.24,1.36,2.76,2.05,4.51,2.05,1.61,0,2.98-.61,4.05-1.8,1.06-1.18,1.71-2.51,1.93-3.96,0-.07-.02-.15-.08-.18l-.48-.31ZM520.12,330.46h-6.16c.13-1.04.51-1.87,1.11-2.47.64-.63,1.37-.94,2.17-.94.52,0,1.03.16,1.51.47.48.31.84.73,1.09,1.28.15.33.24.89.29,1.66Z"/>
      </g>
      <g>
        <g>
          <g>
            <path class="cls-1" d="M219.17,205.23c.19-.39.09-.84-.29-1.36-.62-.79-1.48-1.22-2.59-1.28-.93.13-1.78.42-2.55.87-1.91,1.02-3.4,1.91-4.44,2.65.31-.47.49-1.26.52-2.39l-.21-2.11,1.34-2.15c-.97-.71-1.54-1.15-1.73-1.31-.18-.16-.39-.33-.63-.51-.23-.18-.33-.37-.29-.59.04-.22.03-.36-.04-.42-.07-.07-.2.11-.41.53-.21.42-.38.78-.52,1.09-.14.31-.23.56-.26.75-.03.18,0,.36.08.51.09.15.21.29.36.42s.25.46.29.99l.66,5.59-.53.26h-8.79c-.63.04-1.09-.13-1.37-.52-.21-.31-.43-.68-.63-1.1-.2-.42-.36-.84-.46-1.26-.18-.4-.55-.63-1.1-.69-.65.06-1.35.47-2.09,1.23-.74.76-1.37,1.7-1.89,2.83-.52,1.13-1.08,1.65-1.69,1.54-.78.04-1.32-.74-1.61-2.35-.18-1.09-.22-2.28-.11-3.58-.33.26-.52.92-.6,1.99l-.13,1.39c.05,3.61.85,5.38,2.41,5.3.55,0,1.15-.51,1.79-1.53l1.71-3.1c.74-1.03,1.29-1.39,1.65-1.1.36.29.65.74.88,1.33.28.76.55,1.31.83,1.67.48.44,1.04.66,1.65.77v.11h14.79c2.54-.07,4.54-1.56,5.96-4.47ZM213.47,206.77h-3.35c1.22-.66,2.33-1.16,3.32-1.47.8-.26,1.49-.25,2.08.01.6.26,1.02.58,1.26.95-.27.35-1.37.52-3.31.51Z"/>
            <path class="cls-1" d="M248.82,204.29l-.07-.94-.13-1.52-.03-.47-.4-2.87-.32-1.91-.17.3-.18.46c-.15.31-.29.61-.39.91l-.25.72c-.26.69-.38,1.12-.37,1.28l1.2,9.49c.17-.25.32-.5.45-.73.13-.23.27-.52.41-.88.14-.35.25-.85.33-1.5.03-.42.04-.99,0-1.69l-.07-.66Z"/>
            <path class="cls-1" d="M244.1,198.21c-.14-.11-.26-.22-.38-.33-.11-.11-.22-.28-.33-.51-.11-.23-.17-.43-.18-.59,0-.17-.07-.25-.16-.25l-.66,1.31c-.28.64-.43,1.06-.45,1.25-.01.19.02.36.12.5.09.14.17.26.25.36.08.1.18.26.31.47.1.34.16.66.18.96l.63,5.39h-2.69s-.07.01-.07.01c-.32,0-.6-.12-.84-.34-.24-.23-.34-.59-.29-1.08l.25-1.02-.3.05c-.2.16-.4.37-.58.62-.18.25-.35.6-.52,1.03-.17.43-.35.69-.53.76-.19.08-.41.1-.67.09-.26-.01-.58-.08-.96-.18-.39-.11-.52-.22-.39-.34.07-.3.27-.82.58-1.55-.26.03-.48.11-.65.22-.17.12-.32.26-.47.43-.15.17-.27.35-.39.53-.14.46-.52.71-1.13.76-.61.04-1.15.04-1.61-.01-.47-.05-.7-.1-.72-.14-.02-.04.11-.26.37-.68.27-.41.42-.7.46-.86.04-.17-.15-.16-.55,0-.27.24-.54.51-.82.79-.27.29-.55.51-.82.65-.27.15-.9.23-1.89.26h-.4c-.45,0-.87-.06-1.29-.2-.41-.15-.85-.39-1.31-.74-.47-.35-1.27-1.19-2.43-2.52-.2,1.01-.33,2.02-.4,3.03.64.85,1.17,1.42,1.6,1.7.19.42-.13,1.21-.97,2.36-.84,1.1-2.31,1.64-4.42,1.61l-1.38-.23c.79.51,1.76.96,2.91,1.35,1.16.39,1.81.57,1.98.53.52-.03,1.11-.44,1.77-1.23.67-.79,1.12-1.89,1.36-3.29.7.31,1.45.46,2.24.5v.05h.37s.03,0,.05,0h0s.33,0,.33,0c.87-.02,1.51-.21,1.9-.59.28.16.49.27.63.32.15.05.47.11,1,.17.52.07,1.01.07,1.48,0,.47-.07.94-.24,1.42-.51.6.34,1.22.53,1.86.56.65.03,1.14-.2,1.48-.68.17-.22.33-.44.46-.67.24.59.61.97,1.09,1.14.41.15.81.22,1.21.24v.02h2.54c.5.05.84-.19,1.02-.73l.31-1.08.23-1.06-.04-1.17-.03-.57-.05-1.17-.11-2.32,1.17-2.18c-.99-.69-1.55-1.09-1.69-1.2Z"/>
            <path class="cls-1" d="M189.95,199.99c.39-.42.77-.8,1.14-1.15.59.41,1.1.71,1.52.9.42.19.66.29.71.29l1.61-1.75c-.88-.36-1.63-.78-2.25-1.27-.83.79-1.31,1.18-1.45,1.18-.09,0-.39-.16-.9-.46-.52-.31-.85-.54-1-.69l-1.62,1.72,1.07.7,1.17.54Z"/>
            <path class="cls-1" d="M233.74,201.72l1.2-1.17c.47.48,1,.86,1.61,1.17l1.35-1.3c-.67-.43-1.24-.91-1.71-1.43l-1.26,1.17c-.59-.3-1.11-.69-1.56-1.17l-1.32,1.43c.52.65,1.09,1.09,1.7,1.3Z"/>
            <path class="cls-1" d="M234.93,199.66l1.35-1.37c-.53-.27-1.04-.7-1.51-1.29l-1.33,1.38c.4.6.9,1.02,1.49,1.28Z"/>
            <path class="cls-1" d="M253.61,199.99c.39-.42.77-.8,1.14-1.15.59.41,1.1.71,1.52.9.42.19.66.29.71.29l1.61-1.75c-.87-.36-1.62-.78-2.25-1.27-.83.79-1.31,1.18-1.45,1.18-.09,0-.39-.16-.9-.46-.52-.31-.85-.54-1-.69l-1.62,1.72,1.07.7,1.18.54Z"/>
            <path class="cls-1" d="M334.64,196.14l-.48.53c-.13.19-.21.38-.24.57.34-.37.66-.66.96-.9.08-.08.16-.13.23-.16.07-.02.14-.06.22-.1.15-.08.31-.14.49-.19l.13-.02c.04-.14.07-.24.11-.32.04-.08.07-.15.09-.21,0-.01,0-.03,0-.06h-.04l-.06.02h-.04l-.91.11c-.54.05-.96-.04-1.25-.26.07-.15.16-.26.25-.33.4-.25.73-.22,1,.09.16-.19.23-.41.22-.66-.03-.12-.08-.2-.16-.24-.08-.05-.16-.07-.24-.07-.08,0-.15,0-.2,0-.23.06-.42.16-.58.29-.17.14-.3.32-.41.54-.11.23-.18.44-.21.64-.03.17-.03.35.02.53.05.14.18.2.39.21h.72Z"/>
            <path class="cls-1" d="M336.22,204.95l-.07-.66-.07-.94-.13-1.52-.04-.47-.4-2.87-.33-1.91-.17.3-.19.46c-.16.31-.28.61-.39.91l-.25.72c-.25.69-.38,1.12-.37,1.28l1.2,9.49c.17-.25.33-.5.45-.73.13-.23.27-.52.41-.88.14-.35.25-.85.33-1.5.04-.42.04-.99,0-1.69Z"/>
            <path class="cls-1" d="M331.2,203.98c-.51-.36-1.1-.6-1.76-.72-1.41-.11-2.75-.09-4.03.05l-3.15.27c-4.99-.03-7.52-.21-7.59-.56.22-.14.72-.41,1.51-.82.58-.32,1.12-.57,1.61-.75.67-.25,1.34-.52,2-.78.88-.33,1.54-.53,1.98-.59.65-.92,1.24-1.75,1.77-2.5l-1.67.47c-.9.24-1.81.57-2.71.96-2.06.92-3.65,1.95-4.8,3.09-1.04,1.04-1.56,1.92-1.56,2.65,0,.31.18.55.52.7.72.34,2.82.52,6.29.53.97.01,2.14-.02,3.5-.09,2.21-.09,3.83-.15,4.86-.17.61.05,1.09.13,1.44.25.35.12.67.38.95.79h-18.84c-.73.05-1.26-.04-1.6-.26-.34-.22-.58-.61-.74-1.16-.15-.55-.42-3.46-.8-8.71l-1.32,2.51c.35,4.8.64,7.62.91,8.45.31,1.29,1.13,1.99,2.47,2.11h.48l20.61.02,1.31-2.92c-.15-.7-.32-1.23-.52-1.6-.19-.38-.56-.78-1.1-1.22Z"/>
            <path class="cls-1" d="M303.87,201.68c-.67-.53-1.15-.8-1.45-.83-.29-.02-.55.26-.79.86-.23.6-.33,1.21-.29,1.82.37-.01.72.05,1.06.19.35.14.71.41,1.09.79.39.39.68.76.88,1.11.21.36.35.73.43,1.14h-4.26c-.17,0-.4-.07-.7-.19v1.88c-.07.84.2,1.25.81,1.25h4.52c.19-.39.35-.92.48-1.58.13-.66.2-1.09.22-1.29.02-.2.03-.47.02-.78,0-.32-.15-.96-.42-1.93-.41-.97-.94-1.78-1.61-2.43Z"/>
            <path class="cls-1" d="M292.74,212.57c-.09,0-.39-.15-.91-.46-.51-.31-.85-.53-1-.69l-1.61,1.72,1.07.7,1.16.54c.4-.42.78-.8,1.15-1.15.59.41,1.1.71,1.52.9.42.19.66.28.71.28l1.61-1.75c-.87-.36-1.62-.78-2.25-1.27-.83.79-1.31,1.18-1.45,1.18Z"/>
            <path class="cls-1" d="M273.07,212.59c-.09,0-.39-.15-.9-.46-.52-.31-.85-.54-1-.7l-1.62,1.72,1.07.7,1.17.54c.4-.42.78-.8,1.14-1.15.59.42,1.1.72,1.52.9.42.18.65.28.71.28l1.61-1.75c-.87-.35-1.62-.78-2.25-1.27-.83.79-1.31,1.18-1.45,1.18Z"/>
            <path class="cls-1" d="M297.26,203.44c-.24-.47-.64-1.02-1.2-1.66l-1.21,2.38c.71.87,1.17,1.73,1.39,2.61h-8.46c-.23.05-.55-.1-.97-.44-.42-.34-.71-.7-.87-1.07-.17-.38-.33-.81-.49-1.28-.16-.48-.3-.78-.41-.9-.11-.12-.26-.2-.46-.22-.2-.02-.43,0-.71.09-.27.09-.57.27-.9.55-.33.28-.67.64-1.03,1.09-.36.45-.66.86-.9,1.23-.23.37-.46.62-.67.76-.21.14-.52.2-.92.2h-1.57c-.43,0-.84-.08-1.2-.24-.36-.17-.56-.37-.58-.62-.03-.25-.03-.53,0-.83.02-.3-.03-.5-.16-.57-.13-.08-.29-.01-.49.21-.2.22-.4.54-.58.95-.18.42-.38.69-.59.81-.21.13-.67.22-1.4.29h-10.05c-.63.04-1.09-.13-1.37-.52-.22-.31-.43-.68-.63-1.1-.2-.42-.36-.84-.46-1.26-.18-.4-.55-.63-1.1-.69-.65.06-1.34.47-2.08,1.23-.74.76-1.37,1.7-1.89,2.83-.52,1.13-1.08,1.65-1.69,1.54-.78.04-1.32-.74-1.61-2.35-.17-1.09-.21-2.28-.1-3.58-.32.26-.52.92-.6,1.99l-.13,1.39c.05,3.61.85,5.38,2.41,5.3.55,0,1.15-.51,1.79-1.53l1.71-3.1c.74-1.03,1.3-1.39,1.65-1.1.36.29.66.74.88,1.33.28.76.55,1.31.83,1.67.49.44,1.05.66,1.65.77v.11h11.04c1.07,0,1.76-.49,2.07-1.47.16.63.41,1.02.76,1.18.34.15.73.24,1.16.26.2,0,.42,0,.63.01v.03h1.91c.75-.2,1.35-.88,1.8-2.03.97.85,1.75,1.46,2.33,1.84.58.38.96.56,1.14.56s.5-.39.94-1.15c.52.51,1.18.76,1.96.76h8.27c.54,0,.87-.13.99-.4.12-.26.29-.77.51-1.5.22-.73.34-1.3.35-1.69.02-.39-.03-.82-.14-1.28-.11-.47-.29-.93-.53-1.39ZM282.92,205.14c.2-.24.4-.41.6-.48.2-.08.35-.06.48.06.12.11.21.26.27.44.06.18.2.63.43,1.34-.85-.51-1.44-.96-1.77-1.36Z"/>
          </g>
          <g>
            <path class="cls-1" d="M231.59,230.5c-.58.49-1.23.74-1.95.74-1.01,0-1.82-.46-2.42-1.38-.6-.92-.89-1.98-.89-3.19s.3-2.13.9-2.85c.45-.54,1.05-.82,1.78-.82.46,0,.82.11,1.08.33.26.23.41.56.45.99.04.43.12.73.25.88.22.28.55.42.99.42.33,0,.58-.08.76-.25.18-.17.27-.4.27-.68,0-.57-.32-1.11-.97-1.64-.64-.52-1.46-.79-2.46-.79-1.33,0-2.47.5-3.42,1.49-.95.99-1.43,2.28-1.43,3.86s.43,2.94,1.29,3.9c.86.96,1.87,1.44,3.02,1.44.97,0,1.85-.36,2.65-1.07.8-.72,1.33-1.74,1.61-3.06l-.32-.16c-.38.89-.78,1.5-1.19,1.84Z"/>
            <path class="cls-1" d="M215.47,231.62c-.09-.2-.14-.62-.14-1.25v-13.37h-.5l-3.03,1.23.18.39c.3-.12.54-.17.74-.17.17,0,.33.05.44.14.12.1.19.27.25.53.05.26.08.96.08,2.1v9.16c0,.62-.05,1.05-.15,1.27-.09.22-.22.38-.4.47s-.49.14-.96.14v.4h4.99v-.4c-.52,0-.89-.05-1.08-.16-.19-.11-.33-.26-.43-.47Z"/>
            <path class="cls-1" d="M221.8,231.63c-.09-.21-.14-.63-.14-1.26v-8.1h-.49l-3.06,1.23.16.4c.3-.11.55-.17.76-.17.19,0,.35.04.45.14.11.09.19.25.25.49.07.32.1,1.03.1,2.13v3.88c0,.62-.05,1.05-.15,1.27-.1.22-.23.38-.4.47-.17.1-.51.14-1,.14v.4h4.94v-.4c-.48,0-.82-.05-.99-.15-.19-.1-.32-.26-.42-.47Z"/>
            <path class="cls-1" d="M220.74,219.23c.31,0,.57-.11.79-.33.22-.22.33-.49.33-.79s-.11-.57-.33-.79c-.22-.21-.48-.32-.79-.32-.32,0-.59.11-.81.32-.22.22-.33.48-.33.79s.11.57.34.79c.22.22.49.33.8.33Z"/>
            <path class="cls-1" d="M205.44,222.26c-.84,0-1.64.22-2.4.66-.75.44-1.36,1.11-1.82,2.03-.47.91-.7,1.83-.7,2.76,0,1.27.38,2.41,1.14,3.43.9,1.22,2.12,1.82,3.65,1.82.94,0,1.79-.23,2.56-.71.77-.47,1.37-1.17,1.81-2.09.43-.92.65-1.84.65-2.74,0-1.28-.4-2.42-1.19-3.41-.93-1.16-2.17-1.74-3.71-1.74ZM207.57,231.29c-.47.59-1.06.88-1.77.88-.97,0-1.74-.53-2.33-1.59-.59-1.06-.88-2.33-.88-3.8,0-.91.13-1.65.37-2.23.24-.58.57-.98.96-1.22.4-.23.79-.34,1.18-.34.82,0,1.48.35,2.01,1.05.78,1.03,1.17,2.44,1.17,4.23,0,1.43-.23,2.44-.7,3.03Z"/>
            <path class="cls-1" d="M196.2,218.13c-.78-.27-1.84-.41-3.19-.41h-5.52v.4h.57c.57,0,1,.17,1.28.49.2.23.3.81.3,1.75v9.64c0,.85-.08,1.39-.22,1.61-.27.41-.73.62-1.36.62h-.57v.41h6.45v-.41h-.58c-.57,0-1-.16-1.28-.48-.21-.23-.31-.81-.31-1.75v-4.35c.48.1.93.18,1.36.23.42.05.81.08,1.17.08,1.48,0,2.62-.38,3.43-1.15.81-.76,1.22-1.75,1.22-2.97,0-.89-.26-1.67-.8-2.32-.53-.65-1.19-1.12-1.96-1.39ZM195.59,224.36c-.55.59-1.22.89-1.99.89-.21,0-.48-.02-.78-.06-.3-.04-.65-.09-1.04-.17v-6.21c.59-.14,1.08-.21,1.45-.21.62,0,1.18.14,1.66.41.49.28.87.69,1.14,1.24.27.55.4,1.15.4,1.8,0,.94-.28,1.7-.84,2.29Z"/>
            <path class="cls-1" d="M305.58,223.38c-.73-.75-1.67-1.12-2.81-1.12-1.35,0-2.47.49-3.35,1.45-.89.97-1.34,2.31-1.34,4.03,0,1.59.44,2.86,1.3,3.8.87.95,1.92,1.42,3.14,1.42,1.12,0,2.06-.41,2.81-1.24.75-.83,1.2-1.74,1.35-2.74l-.34-.22c-.33.88-.75,1.5-1.24,1.87-.49.36-1.07.54-1.74.54-1,0-1.87-.43-2.61-1.28-.74-.85-1.11-2.02-1.1-3.52h7.03c0-1.25-.36-2.25-1.1-2.99ZM299.65,225.72c.08-.85.37-1.5.86-1.98.49-.47,1.03-.71,1.64-.71.4,0,.79.12,1.15.35.37.23.64.56.83.97.12.26.19.72.23,1.37h-4.71Z"/>
            <path class="cls-1" d="M323.52,231.67c-.1-.23-.15-.67-.15-1.3v-4.33c0-.91-.08-1.58-.24-2-.25-.62-.58-1.07-1-1.34-.42-.28-.9-.42-1.44-.42s-1.1.14-1.62.42c-.52.27-1.17.85-1.93,1.73-.16-.7-.47-1.23-.92-1.59-.46-.37-1-.55-1.64-.55-.38,0-.76.08-1.14.23-.39.16-.74.37-1.08.65-.14.11-.57.53-1.31,1.26v-2.15h-.48l-3.07,1.23.17.4c.29-.11.54-.17.74-.17s.35.04.46.14c.11.09.19.26.24.5.06.32.1,1.04.1,2.15v3.85c0,.62-.05,1.05-.15,1.26-.1.22-.24.38-.42.47-.18.1-.51.15-.98.15v.4h5.03v-.4c-.56,0-.92-.05-1.11-.15-.18-.1-.32-.24-.41-.45-.09-.2-.14-.62-.14-1.29v-5.4c.33-.4.81-.77,1.42-1.09.39-.21.79-.32,1.19-.32.58,0,1.04.23,1.37.7.25.36.37.95.37,1.77v4.33c0,.6-.02.97-.05,1.09-.09.27-.23.47-.44.6-.21.13-.59.19-1.16.19v.4h5.14v-.4c-.52,0-.88-.06-1.1-.17s-.36-.26-.44-.43c-.08-.17-.11-.59-.11-1.29v-4.81l-.02-.47.02-.12c.56-.52,1.04-.89,1.44-1.08.39-.2.79-.29,1.18-.29.63,0,1.1.23,1.39.7.2.34.3.92.3,1.74v4.33c0,.59-.01.94-.04,1.07-.08.26-.2.45-.37.56-.25.17-.59.25-1.02.25h-.21v.4h5.02v-.4c-.45,0-.78-.06-.97-.17-.2-.11-.34-.25-.41-.41Z"/>
            <path class="cls-1" d="M332.93,222.56v.41c.32,0,.54.03.67.07.13.05.22.11.28.19.05.07.08.17.08.3,0,.29-.06.59-.19.89l-2.27,5.57-2.48-5.09c-.24-.51-.36-.9-.36-1.19,0-.21.08-.39.25-.53.17-.15.41-.22.75-.22h.23v-.41h-4.74v.41c.38.09.65.19.82.31.12.09.27.26.45.52.24.34.43.62.53.85l3.65,7.6-.72,1.75c-.26.65-.53,1.09-.79,1.32-.26.23-.51.34-.73.34-.07,0-.26-.06-.55-.17-.42-.16-.76-.24-1-.24-.36,0-.63.1-.84.28-.2.19-.3.43-.3.74s.14.61.42.86c.28.25.64.37,1.08.37.6,0,1.22-.25,1.87-.75.65-.5,1.17-1.24,1.57-2.21l4.14-10.06c.18-.47.31-.75.38-.85.18-.24.34-.41.49-.5.15-.09.36-.15.63-.18v-.41h-3.31Z"/>
            <path class="cls-1" d="M242.19,223.38c-.73-.75-1.67-1.12-2.81-1.12-1.35,0-2.47.49-3.35,1.45-.89.97-1.34,2.31-1.34,4.03,0,1.59.44,2.86,1.3,3.8.87.95,1.92,1.42,3.14,1.42,1.13,0,2.06-.41,2.81-1.24.75-.83,1.2-1.74,1.35-2.74l-.34-.22c-.33.88-.75,1.5-1.24,1.87-.49.36-1.07.54-1.74.54-1,0-1.87-.43-2.61-1.28-.74-.85-1.11-2.02-1.1-3.52h7.03c0-1.25-.37-2.25-1.1-2.99ZM236.26,225.72c.08-.85.37-1.5.85-1.98.49-.47,1.03-.71,1.65-.71.4,0,.78.12,1.15.35.37.23.64.56.83.97.12.26.2.72.23,1.37h-4.71Z"/>
            <path class="cls-1" d="M296.37,231.51c-.17,0-.31-.05-.43-.16-.12-.1-.21-.28-.26-.54-.06-.26-.09-.98-.09-2.16v-11.66h-.5l-3.03,1.23.15.39c.32-.12.57-.17.76-.17.18,0,.33.05.45.14.12.1.2.28.26.54.05.26.08.97.08,2.13v1.86c-.58-.56-1.32-.85-2.22-.85-1.44,0-2.62.6-3.54,1.8-.92,1.2-1.38,2.53-1.38,3.97s.41,2.63,1.24,3.55c.83.92,1.8,1.38,2.91,1.38.55,0,1.06-.11,1.53-.34.48-.22.96-.59,1.46-1.11v1.44h.51l3.02-1.24-.12-.39c-.33.13-.6.19-.8.19ZM293.76,230.74c-.63.67-1.28,1-1.95,1-.8,0-1.52-.39-2.18-1.18-.65-.79-.98-1.92-.98-3.41s.34-2.59,1.01-3.34c.51-.58,1.09-.87,1.74-.87.35,0,.7.11,1.07.31.36.21.66.52.88.93.22.41.35.86.4,1.36v5.2Z"/>
            <path class="cls-1" d="M262.85,229.79l-5.24-12.41h-.39l-5.3,12.28c-.46,1.08-.87,1.79-1.25,2.15-.18.18-.59.32-1.22.43v.41h4.74v-.41c-.72-.05-1.2-.17-1.42-.33-.22-.17-.33-.37-.33-.6,0-.28.13-.72.38-1.29l1.02-2.36h5.83l.91,2.15c.3.7.44,1.21.44,1.53,0,.24-.11.45-.31.62-.21.17-.62.26-1.22.29v.41h5.94v-.41c-.61-.04-1.09-.2-1.44-.5-.35-.3-.73-.95-1.15-1.94ZM254.19,226.84l2.62-6.03,2.55,6.03h-5.17Z"/>
            <path class="cls-1" d="M273.52,230.5c-.57.49-1.23.74-1.95.74-1.01,0-1.82-.46-2.42-1.38-.59-.92-.89-1.98-.89-3.19s.29-2.13.9-2.85c.45-.54,1.04-.82,1.78-.82.46,0,.82.11,1.08.33.26.23.41.56.45.99.04.43.12.73.25.88.22.28.55.42.99.42.33,0,.58-.08.76-.25.18-.17.27-.4.27-.68,0-.57-.32-1.11-.96-1.64-.65-.52-1.47-.79-2.47-.79-1.34,0-2.48.5-3.43,1.49-.95.99-1.42,2.28-1.42,3.86s.43,2.94,1.28,3.9c.86.96,1.87,1.44,3.02,1.44.97,0,1.85-.36,2.65-1.07s1.34-1.74,1.61-3.06l-.32-.16c-.38.89-.78,1.5-1.19,1.84Z"/>
            <path class="cls-1" d="M284.61,231.46c-.11,0-.21-.03-.29-.11-.09-.07-.15-.22-.18-.44-.04-.21-.06-.8-.06-1.76v-3.42c0-.98-.06-1.62-.2-1.94-.21-.48-.53-.84-.97-1.07-.57-.3-1.32-.46-2.22-.46-1.18,0-2.09.27-2.74.8-.65.52-.97,1.1-.97,1.73,0,.33.09.59.26.78.17.19.39.29.67.29s.51-.09.68-.27c.18-.18.26-.44.26-.78l-.02-.64c0-.32.14-.61.42-.86.27-.25.64-.38,1.11-.38.61,0,1.08.19,1.4.56.32.37.48,1.07.48,2.07v.4c-1.75.63-2.99,1.17-3.74,1.61-.76.44-1.28.91-1.58,1.41-.22.36-.34.78-.34,1.27,0,.78.23,1.41.69,1.88.45.48,1.03.72,1.74.72.45,0,.87-.09,1.27-.28.26-.12.92-.58,1.96-1.38,0,.6.12,1.02.33,1.27.21.25.51.37.86.37.76,0,1.55-.55,2.37-1.65v-.62c-.44.44-.74.71-.9.8-.09.05-.19.08-.31.08ZM282.25,230.48c-.92.73-1.65,1.1-2.22,1.1-.41,0-.78-.17-1.1-.52-.32-.35-.47-.79-.47-1.31,0-.42.13-.81.38-1.16.25-.35.67-.69,1.25-1.01.32-.18,1.05-.5,2.16-.94v3.84Z"/>
          </g>
        </g>
        <g>
          <path class="cls-1" d="M314.26,34.64l9.04-26.72c2.42,6.66,9.08,26.7,10.79,50.24l-4.98-8.04.86,7.84-4.28-6.99.99,8.17-4.16-6.73.82,7.74-4.3-6.99.99,8.22-2.15-3.47c-.54-7.34-1.69-15.1-3.62-23.28"/>
          <path class="cls-5" d="M326.74,110.61c-8.23,19.1-22.94,33.25-43.77,42.16,4.91-4.65,13.42-13.77,20.79-27.18,7.94-14.43,15.79-36.27,14.31-64.78l4.06,6.55-.99-8.17,4.18,6.8-.82-7.76,4.28,6.92-.98-8.11,4.19,6.84-.86-7.92,3.16,5.1c.88,16.12-.68,33.66-7.53,49.55M314.26,34.64l9.03-26.71c2.43,6.65,9.09,26.69,10.8,50.24l-4.98-8.04.86,7.85-4.28-6.99.99,8.17-4.16-6.73.82,7.74-4.3-6.99,1,8.22-2.15-3.47c-.54-7.34-1.69-15.1-3.62-23.28M324.09,4.88l-.92-2.25-10.8,31.92.06.26c9.76,41.05-.17,71.49-10.22,89.8-10.91,19.87-24.29,30.15-24.43,30.25l-4.98,3.78,5.83-2.17c23.96-8.9,40.7-24.08,49.77-45.14,19.91-46.2-4.08-105.88-4.32-106.47"/>
          <path class="cls-3" d="M326.74,110.61c-8.23,19.09-22.94,33.25-43.78,42.16,4.92-4.65,13.42-13.77,20.79-27.17,7.93-14.43,15.79-36.27,14.31-64.78l4.06,6.55-.99-8.17,4.18,6.8-.82-7.77,4.27,6.92-.98-8.11,4.19,6.84-.87-7.92,3.16,5.1c.87,16.12-.68,33.66-7.53,49.55"/>
          <path class="cls-5" d="M189.46,61.06l3.16-5.1-.86,7.92,4.18-6.84-.98,8.11,4.28-6.92-.82,7.76,4.18-6.8-.99,8.17,4.06-6.55c-1.48,28.51,6.38,50.35,14.31,64.78,7.37,13.4,15.87,22.53,20.79,27.17-20.83-8.9-35.55-23.07-43.77-42.16-6.85-15.89-8.41-33.43-7.53-49.55M205.86,57.92l-2.15,3.47.99-8.22-4.3,6.99.81-7.74-4.16,6.73.99-8.17-4.28,6.99.86-7.85-4.98,8.04c1.71-23.54,8.37-43.58,10.8-50.24l9.03,26.72c-1.93,8.18-3.08,15.94-3.62,23.28M195.33,111.35c9.07,21.05,25.82,36.24,49.77,45.14l5.83,2.17-4.98-3.78c-.13-.1-13.53-10.39-24.43-30.25-10.05-18.31-19.98-48.76-10.22-89.81l.06-.26-10.79-31.92-.92,2.25c-.24.6-24.23,60.27-4.32,106.47"/>
          <path class="cls-3" d="M189.46,61.06l3.16-5.1-.86,7.92,4.18-6.84-.98,8.11,4.28-6.92-.82,7.76,4.18-6.8-.99,8.17,4.06-6.55c-1.48,28.51,6.38,50.35,14.31,64.78,7.37,13.41,15.87,22.53,20.79,27.18-20.83-8.9-35.55-23.07-43.77-42.16-6.85-15.89-8.41-33.43-7.53-49.55"/>
          <path class="cls-1" d="M263.08,171.13h.7c-.26-10.42,5.87-16.2,6.88-17.18v-20.4l-7.59,6.28v31.3Z"/>
          <path class="cls-4" d="M263.69,140.12v25.28c1.28-6.04,4.6-9.96,6.37-11.7v-18.85l-6.37,5.27ZM264.41,171.74h-1.94v-32.2l8.82-7.29v21.97l-.19.18c-2.1,2.01-6.92,7.61-6.7,16.72l.02.63Z"/>
          <path class="cls-1" d="M260.65,171.13h-.7c.26-10.42-5.87-16.2-6.89-17.18v-20.4l7.59,6.28v31.3Z"/>
          <path class="cls-4" d="M253.68,153.69c1.79,1.76,5.08,5.68,6.37,11.7v-25.28l-6.37-5.27v18.84ZM261.26,171.74h-1.94v-.63c.24-9.11-4.58-14.71-6.67-16.7l-.19-.18-.02-.28v-21.7l8.81,7.29v32.2Z"/>
          <path class="cls-1" d="M205.86,57.92l-2.15,3.47,1-8.22-4.3,6.99.82-7.74-4.16,6.73.99-8.17-4.28,6.99.86-7.84-4.98,8.04c1.72-23.54,8.37-43.58,10.79-50.24l9.04,26.72c-1.93,8.18-3.08,15.94-3.62,23.28"/>
          <path class="cls-2" d="M259.63,178.81c-4.55-5.88-9.68-7.69-14-7.69-3.14,0-6.35,1.23-6.37,1.24-8.55,3.45-16.06,4.28-22.3,4.28s-9.91-.73-12.15-2.35l3.12,4.76h51.88l-.17-.23Z"/>
          <path class="cls-2" d="M262.86,178.81c4.55-5.88,9.68-7.69,14-7.69,3.14,0,6.35,1.23,6.37,1.24,8.55,3.45,16.06,4.28,22.3,4.28s9.91-.73,12.15-2.35l-3.12,4.76h-51.88l.18-.23Z"/>
          <path class="cls-5" d="M261.87,180.86h-61.25l7.45,5.07h45.81c1.59,1.7,4.57,2.85,7.99,2.85s6.4-1.15,7.99-2.85h45.81l7.45-5.07h-61.25Z"/>
          <polygon class="cls-1" points="296.65 69 319.56 2.65 298.26 26.35 296.65 69"/>
          <path class="cls-4" d="M298.86,26.59l19.14-21.29-20.59,59.6,1.45-38.32ZM321.13,0l-23.47,26.1-1.78,47L321.13,0Z"/>
          <polygon class="cls-1" points="285.49 117.54 293.93 78.85 295.53 29.14 271.5 82.99 285.49 117.54"/>
          <path class="cls-4" d="M272.17,83l13.15,32.47,8.02-36.75,1.48-46.48-22.65,50.77ZM285.67,119.6l-14.83-36.62,25.4-56.93-1.69,52.83-8.88,40.73Z"/>
          <polygon class="cls-1" points="252.73 77.55 271 77.55 261.87 98.08 252.73 77.55"/>
          <path class="cls-4" d="M253.67,78.16l8.19,18.42,8.19-18.42h-16.39ZM261.87,99.59l-10.08-22.65h20.16l-10.08,22.65Z"/>
          <polygon class="cls-1" points="227.09 69 204.17 2.65 225.47 26.35 227.09 69"/>
          <path class="cls-4" d="M205.73,5.3l19.14,21.29,1.44,38.32-20.59-59.6ZM227.86,73.1l-1.78-47L202.6,0l25.25,73.09Z"/>
          <polygon class="cls-1" points="238.25 117.54 229.81 78.85 228.21 29.14 252.23 82.99 238.25 117.54"/>
          <path class="cls-4" d="M228.92,32.24l1.49,46.6,8,36.64,13.15-32.47-22.65-50.77ZM238.07,119.6l-8.86-40.62-1.71-52.94,25.4,56.93-14.82,36.62Z"/>
          <polygon class="cls-1" points="261.87 137.14 240.19 119.15 253.63 86.05 261.87 104.33 270.11 86.05 283.55 119.15 261.87 137.14"/>
          <path class="cls-4" d="M240.92,118.97l20.95,17.38,20.95-17.38-12.74-31.37-8.21,18.22-8.21-18.22-12.74,31.37ZM261.87,137.93l-22.41-18.59,14.14-34.84,8.27,18.34,8.27-18.34,14.15,34.84-22.42,18.59Z"/>
        </g>
      </g>
      <rect class="cls-1" y="256.34" width="523.73" height="3.28"/>
    </g>
  </g>
</svg>