<?xml version="1.0" encoding="UTF-8"?>
<svg id="Layer_2" data-name="Layer 2" xmlns="http://www.w3.org/2000/svg" viewBox="0 0 276.32 137.61">
  <defs>
    <style>
      .cls-1 {
        fill: #24356f;
      }
    </style>
  </defs>
  <g id="Layer_1-2" data-name="Layer 1">
    <g>
      <path class="cls-1" d="M19.05,66.74H0s0,70.86,0,70.86h8.34v-24.72h8.83c11.59,0,27.47,0,35.38-10.89,2.56-3.52,3.86-7.61,3.86-12.18s-1.3-8.66-3.85-12.18c-7.96-10.96-21.53-10.94-33.51-10.9ZM48.07,89.81c0,6.54-2.75,11.54-8.17,14.85-5.79,3.53-12.54,3.91-15.17,3.91H8.34v-37.52h16.38c15.71,0,23.34,6.14,23.34,18.76Z"/>
      <path class="cls-1" d="M112.95,101.99c2.56-3.52,3.85-7.61,3.85-12.17s-1.3-8.66-3.85-12.18c-7.97-10.96-21.54-10.94-33.51-10.9h-19.05v70.87h8.34v-24.73h8.83c5.26,0,11.76,0,17.91-1.15l13.41,25.88h9.57l-14.7-28.37c3.87-1.73,6.96-4.17,9.2-7.26ZM108.46,89.81c0,6.54-2.75,11.54-8.17,14.85-5.79,3.53-12.54,3.91-15.17,3.91h-16.38v-37.52h16.38c15.71,0,23.34,6.14,23.34,18.76Z"/>
      <rect class="cls-1" x="126.43" y="66.74" width="8.34" height="70.87"/>
      <polygon class="cls-1" points="144.87 64.17 144.87 137.6 149.99 137.6 149.99 86.88 183.88 137.61 193.75 137.61 180.89 118.25 210.65 82.83 210.65 137.6 218.99 137.6 218.99 64.79 177.93 113.79 144.87 64.17"/>
      <polygon class="cls-1" points="276.32 71.05 276.32 66.74 230.66 66.74 230.66 137.6 276.32 137.6 276.32 133.3 239 133.3 239 102.64 268.32 102.64 268.32 98.33 239 98.33 239 71.05 276.32 71.05"/>
      <path class="cls-1" d="M178.66,54.01c-.8.8-1.2,1.75-1.2,2.86s.4,2.06,1.2,2.85c.8.8,1.75,1.2,2.85,1.2s2.06-.4,2.86-1.2c.8-.8,1.2-1.75,1.2-2.85s-.4-2.06-1.2-2.86c-.8-.8-1.75-1.2-2.86-1.2s-2.06.4-2.85,1.2Z"/>
      <path class="cls-1" d="M194.04,52.81c-1.1,0-2.06.4-2.86,1.2-.8.8-1.2,1.75-1.2,2.86s.4,2.06,1.2,2.85c.8.8,1.75,1.2,2.86,1.2s2.06-.4,2.86-1.2c.8-.8,1.2-1.75,1.2-2.85s-.4-2.06-1.2-2.86c-.8-.8-1.75-1.2-2.86-1.2Z"/>
      <path class="cls-1" d="M267.46,54.01c-.8.8-1.2,1.75-1.2,2.86s.4,2.06,1.2,2.85c.8.8,1.75,1.2,2.86,1.2s2.06-.4,2.86-1.2c.8-.8,1.2-1.75,1.2-2.85s-.4-2.06-1.2-2.86c-.8-.8-1.75-1.2-2.86-1.2s-2.06.4-2.86,1.2Z"/>
      <rect class="cls-1" x="207.29" width="7.43" height="47.84"/>
      <polygon class="cls-1" points="275.4 47.67 275.4 14.09 271.51 14.09 271.51 40.24 228.87 40.24 228.87 23.16 224.98 23.16 224.98 46.27 212.94 60.76 221.82 60.76 232.69 47.67 275.4 47.67"/>
      <path class="cls-1" d="M156.3,48.23c2.24.75,4.39,1.13,6.39,1.13,2.32,0,4.32-.45,5.93-1.33.6-.33,1.17-.73,1.69-1.18.79.43,1.78.81,2.85.81h24.9V14.09h-3.9v26.15h-20.29s0,0,0-.01c.09-.57.16-1.14.23-1.73.07-.6.1-1.25.1-1.93,0-1.98-.3-3.81-.89-5.44-.59-1.65-1.43-3.09-2.48-4.28-1.07-1.21-2.35-2.16-3.8-2.83-2.54-1.17-5.37-1.45-8.94-.27-1.55.51-3.04,1.4-4.43,2.66-1.37,1.24-2.63,2.91-3.74,4.98-1.11,2.07-1.9,4.72-2.34,7.88-.04.3-.05.6-.06.9h-21.11v20.38h8.37v-12.81h20.26c.43.18.85.35,1.27.49ZM161.93,29.12c.98,0,1.84.19,2.6.58.77.39,1.41.92,1.91,1.55.51.66.92,1.44,1.19,2.31.28.89.43,1.84.43,2.82,0,2.49-.51,4.24-1.52,5.22l-.02.02c-5.11,5.16-13.23.14-15.3-1.29.46-2.49,2.71-11.58,10.7-11.22Z"/>
    </g>
  </g>
</svg>