<?xml version="1.0" encoding="UTF-8"?>
<svg id="Layer_2" data-name="Layer 2" xmlns="http://www.w3.org/2000/svg" viewBox="0 0 271.65 127.49">
  <defs>
    <style>
      .cls-1 {
        fill: #4c9d46;
      }

      .cls-2 {
        fill: #c4d6ec;
      }

      .cls-3 {
        fill: #fff;
      }

      .cls-4 {
        fill: #acbfbc;
      }

      .cls-5 {
        fill: #1f4c81;
      }

      .cls-6 {
        fill: #3fa042;
      }

      .cls-7 {
        fill: #0e428a;
      }
    </style>
  </defs>
  <g id="Layer_1-2" data-name="Layer 1">
    <g>
      <g>
        <path class="cls-6" d="M115.5,41.3h7.01c-.85,4.73-2.61,9.12-5.12,12.97l-6.34-7.42c.9-.75,1.14-1.91.51-2.63-.61-.71-1.84-.71-2.77-.02l-.31-.36c1.21-2.71,1.88-5.72,1.88-8.89,0-11.96-9.57-21.67-21.4-21.67s-21.4,9.71-21.4,21.67,9.58,21.68,21.4,21.68c2.81,0,5.5-.55,7.96-1.55.06.18.15.34.28.49.59.67,1.73.7,2.63.11l7.3,8.87c-5.26,3.4-11.49,5.37-18.17,5.37-18.84,0-34.11-15.65-34.11-34.96S70.12,0,88.96,0s34.1,15.64,34.11,34.92h-7.57v6.37Z"/>
        <path class="cls-7" d="M133.45,37.35c0,7.43,3.57,8.56,6.61,8.56s4.89-2.89,4.89-2.89v9.19c-5.41,1-8.92.19-8.92.19-8-1.29-10.6-7.06-11.44-11.1h5.86v-6.37h-6.13c.79-8.7,6.07-12.9,11.56-13.6,5.94-.75,9.15.66,9.15.66v8.06s-2.58-2.21-5.22-2.21-6.34,1.51-6.34,9.51Z"/>
        <path class="cls-7" d="M191.23,20.69h-9.22l-6.37,20.5c.34-1.48.51-3.04.51-4.66,0-8.9-5.04-16.12-15.29-16.12s-15.29,7.22-15.29,16.12,4.73,16.12,15.29,16.12c7.22,0,11.88-3.63,13.99-8.91l-2.35,7.55,7.8.14,1.45-5.05h9.94l1.32,4.84h7.95l-9.73-30.53ZM160.97,45.99c-4.86,0-6.57-4.2-6.57-9.38s1.85-9.38,6.57-9.38,6.57,4.2,6.57,9.38-1.79,9.38-6.57,9.38ZM183.49,40.28l3.35-11.73,3.19,11.73h-6.55Z"/>
        <polygon class="cls-7" points="195.46 20.54 215.38 20.54 215.38 28.19 208.69 28.19 208.69 51.28 202.23 51.28 202.23 28.26 195.61 28.26 195.46 20.54"/>
        <path class="cls-2" d="M214.73,60.73v7.99l-101.23-.18-12.63-15.11c-.05-.2-.15-.39-.29-.55-.12-.15-.28-.25-.44-.33l-12.91-15.45,3.37-2.69,24.54,30.3.15.18h99.31v-.99h-98.84l-24.39-30.1,2.28-1.83,24.07,28.61,97,.16Z"/>
        <path class="cls-4" d="M214.73,68.72v2.17h-.02c-.01,1.14-.81,2.07-1.79,2.07s-1.78-.92-1.79-2.07h-22.33c0,1.14-.81,2.07-1.78,2.07s-1.78-.92-1.8-2.07h-22.38c-.01,1.14-.81,2.07-1.78,2.07s-1.78-.92-1.8-2.07h-22.33c-.01,1.14-.81,2.07-1.79,2.07s-1.78-.92-1.79-2.07h-20.15c-.59,1.02-1.76,1.47-2.63,1.02-.87-.46-1.1-1.64-.51-2.66.13-.22.28-.41.46-.58l-3.39-4.13-7.3-8.87c-.9.59-2.04.57-2.63-.11-.13-.15-.22-.31-.28-.49-.21-.67.06-1.49.72-2.07l-9.73-11.83s-.05.05-.09.07c-.92.74-2.2.76-2.83.03-.63-.73-.4-1.91.54-2.65.06-.05.12-.09.18-.13l-.1-.12,1.6-1.29h0s12.91,15.46,12.91,15.46c.17.08.32.18.44.33.05.06.1.13.14.19.07.11.12.23.15.36l8.17,9.79,4.45,5.33,101.23.18Z"/>
        <path class="cls-4" d="M214.73,57.8v2.93l-97-.16-2.65-3.14-8.52-10.14-12.9-15.33h-.01s2.36-1.88,2.36-1.88c.1-.12.21-.22.34-.33.93-.74,2.2-.75,2.83-.03.63.72.4,1.9-.52,2.63l9.82,11.48.31.36c.92-.69,2.15-.69,2.77.02.63.71.4,1.88-.51,2.63l6.34,7.42.61.72c.92-.67,2.12-.66,2.73.03.62.71.4,1.86-.48,2.6l.15.18h12.94c0-1.18.79-2.11,1.79-2.11s1.79.94,1.79,2.1h0s22.33.01,22.33.01h0c0-1.18.8-2.11,1.8-2.11s1.79.94,1.79,2.1c0,0,0,0,0,.01h22.38c0-1.18.81-2.11,1.8-2.11s1.78.94,1.78,2.1h0s22.33.01,22.33.01h0c0-1.18.8-2.11,1.79-2.11s1.8.94,1.8,2.1c0,0,0,0,0,.01h.02Z"/>
        <polygon class="cls-5" points="214.61 63.89 214.61 64.88 115.29 64.88 115.14 64.7 90.6 34.4 91.38 33.79 115.76 63.89 214.61 63.89"/>
        <polygon class="cls-5" points="91.38 33.79 90.6 34.4 90.59 34.38 91.36 33.76 91.38 33.79"/>
        <rect class="cls-3" x="115.5" y="34.92" width="14.94" height="6.37"/>
      </g>
      <path class="cls-1" d="M0,101.02l1.06,1.16.94-1.45-1.03-1.16-.96,1.45ZM45.37,122.31c-.26-.35-.59-.66-1-.96.81-.14,1.42-.49,1.84-1.05.4-.56.61-1.27.61-2.12,0-.67-.14-1.27-.41-1.79-.27-.52-.64-.89-1.08-1.09-.45-.2-1.17-.3-2.16-.3h-3.94v11.36h1.87v-4.74h.38c.43,0,.75.05.94.13.2.09.39.24.56.47.18.23.51.78.99,1.66l1.34,2.47h2.24l-1.13-2.21c-.45-.88-.8-1.49-1.06-1.84M42.49,119.82h-1.38v-2.89h1.46c.76,0,1.21.01,1.37.04.3.06.54.21.7.44.17.24.25.55.25.93,0,.34-.07.62-.19.85-.13.23-.3.39-.52.48-.22.09-.78.14-1.68.14M47.14,94.73c-.61-1.11-1.11-1.66-1.46-1.66-.05,0-.1.01-.14.05-.52.57-.78,1.28-.78,2.14,0,.21.01.44.06.69-.01,0,.07-.06.24-.18.17-.14.35-.22.52-.22.36,0,.71.3,1.06.9.44.78.66,1.44.66,2.01,0,.15-.01.32-.04.48-1.15.46-2.01.69-2.57.69-.21,0-.39-.04-.52-.11-.44-.21-.77-.47-1.02-.8-.08.64-.12,1.22-.12,1.75,0,1.22.22,1.97.66,2.27.19.12.5.19.94.19.61,0,1.25-.09,1.92-.3.67-.19,1.05-.4,1.15-.63.39-.95.58-1.87.58-2.75,0-.33-.02-.75-.06-1.24-.07-1-.43-2.1-1.08-3.28M11.32,123.24c.22-.75.34-1.6.34-2.59,0-1.85-.4-3.28-1.21-4.31-.81-1.03-1.91-1.54-3.28-1.54s-2.5.52-3.31,1.55c-.81,1.03-1.22,2.48-1.22,4.34s.4,3.31,1.22,4.34c.81,1.03,1.93,1.55,3.37,1.55.74,0,1.42-.16,2.02-.49.78.62,1.19.95,1.25.99.27.18.55.32.83.41l.7-1.64c-.55-.24-1.05-.56-1.51-.96.38-.53.65-1.08.81-1.65M9.54,122.37c-.13.49-.31.92-.55,1.26-.57-.52-1.16-.91-1.77-1.17l-.53,1.33c.39.17.78.4,1.16.7-.24.11-.5.17-.77.17-.73,0-1.33-.33-1.81-.99-.48-.66-.72-1.66-.72-2.99s.24-2.3.72-2.95c.48-.65,1.1-.98,1.88-.98s1.39.33,1.87.98c.47.65.71,1.64.71,2.95,0,.64-.06,1.2-.18,1.7M16.11,115.01l-3.6,11.36h2.01l.77-2.57h3.72l.8,2.57h2.04l-3.69-11.36h-2.03ZM15.86,121.86l1.25-4.19,1.27,4.19h-2.52ZM5.34,99.22c-.32.04-.57.13-.76.29-.41.35-.62,1.04-.62,2.06,0,.62.11,1.68.32,3.17.17,1.1.24,2.68.24,4.76.41-1.14.62-2.19.62-3.12,0-.49-.04-1.22-.1-2.19-.07-.95-.1-1.53-.1-1.74,0-.18.02-.29.04-.35.06-.16.17-.25.32-.29.16-.04.32-.06.46-.09.54.02.95.08,1.26.16.55.19.94.35,1.16.48.26-.74.42-1.32.51-1.75.12-.69.18-1.31.18-1.88-1.23-1.81-2.24-2.72-3.04-2.72-.13,0-.26.03-.36.07-.81.44-1.25,1.3-1.31,2.56.26-.42.6-.63,1.01-.63.7,0,1.15.41,1.34,1.23-.05,0-.17-.02-.38-.04-.28-.03-.55-.03-.78,0M28.9,115.01h-7.35v1.93h2.74v9.43h1.87v-9.43h2.74v-1.93ZM57.35,122.75l-1.67-7.75h-2.82v11.36h1.74v-8.94s1.84,8.94,1.84,8.94h1.8l1.85-8.94v8.94h1.75v-11.36h-2.82l-1.68,7.75ZM32.17,115.01l-3.61,11.36h2.01l.77-2.57h3.71l.79,2.57h2.05l-3.7-11.36h-2.02ZM31.91,121.86l1.25-4.19,1.27,4.19h-2.52ZM10.42,101.02l1.06,1.16.93-1.45-1.03-1.16-.96,1.45ZM201.5,89.89l-.98-1.14-.88,1.21.98,1.16.88-1.24ZM211.75,90.95l-1.11-1.27-.99,1.37,1.12,1.27.98-1.38ZM202.51,91.13l.88-1.24-1.02-1.14-.88,1.21,1.02,1.16ZM147.69,95.47l.96-1.4-1.13-1.27-.98,1.37,1.14,1.3ZM268.95,95.9l.88-1.22-1.02-1.16-.86,1.21,1,1.17ZM212.87,92.32l.96-1.38-1.12-1.27-.96,1.37,1.12,1.27ZM146.56,94.07l-1.1-1.27-.98,1.37,1.11,1.3.98-1.4ZM267.86,94.68l-.98-1.16-.86,1.21.97,1.17.87-1.22ZM107.32,92.56l.94-1.43-1.29-1.42-.96,1.42,1.3,1.43ZM141.75,91.86l-1.3-1.44-.94,1.44,1.28,1.42.96-1.42ZM25.06,102.74c.19.12.5.19.94.19.61,0,1.25-.09,1.92-.3.67-.19,1.05-.4,1.14-.63.38-.95.58-1.87.58-2.75,0-.33-.02-.75-.06-1.24-.07-1-.43-2.1-1.08-3.28-.62-1.11-1.1-1.66-1.46-1.66-.05,0-.1.01-.14.05-.52.57-.78,1.28-.78,2.14,0,.21.02.44.06.69-.01,0,.07-.06.24-.18.17-.14.34-.22.52-.22.36,0,.71.3,1.06.9.44.78.66,1.44.66,2.01,0,.15-.01.32-.04.48-1.15.46-2,.69-2.56.69-.22,0-.39-.04-.52-.11-.44-.21-.78-.47-1.02-.8-.08.64-.11,1.22-.11,1.75,0,1.22.22,1.97.66,2.27M22.84,100.73l-1.04-1.16-.96,1.45,1.06,1.16.94-1.45ZM26.9,90.42l-1.16-1.24-.84,1.24,1.16,1.29.84-1.29ZM15.76,99.22c-.32.04-.57.13-.76.29-.41.35-.62,1.04-.62,2.06,0,.62.1,1.68.32,3.17.16,1.1.24,2.68.24,4.76.42-1.14.63-2.19.63-3.12,0-.49-.04-1.22-.1-2.19-.07-.95-.09-1.53-.09-1.74,0-.18,0-.29.04-.35.05-.16.16-.25.32-.29.16-.04.31-.06.46-.09.53.02.95.08,1.26.16.54.19.93.35,1.16.48.25-.74.42-1.32.49-1.75.12-.69.18-1.31.18-1.88-1.22-1.81-2.24-2.72-3.03-2.72-.13,0-.25.03-.36.07-.82.44-1.26,1.3-1.32,2.56.27-.42.61-.63,1.02-.63.7,0,1.15.41,1.33,1.23-.05,0-.16-.02-.38-.04-.28-.03-.54-.03-.78,0M37.18,106.02c.73,0,1.48-.16,2.23-.48.71-.29,1.14-.6,1.28-.9.47-1.27.73-2.85.78-4.76.04-1.55-.33-3.24-1.1-5.05l-.88,2.3c.66,1.36.98,2.78.98,4.28-.06.19-.46.46-1.18.79-.8.39-1.54.58-2.2.58-.69,0-1.18-.23-1.46-.67-.29-.46-.44-1.07-.44-1.85,0-1,.15-1.81.46-2.4-.21.17-.48.76-.8,1.74-.37,1.16-.56,2.22-.56,3.17,0,.77.13,1.4.4,1.9.47.88,1.3,1.32,2.48,1.32M39.12,93.17l-1.28-1.43-.96,1.43,1.28,1.43.96-1.43ZM268.79,92.46l-1-1.14-.86,1.24.98,1.13.88-1.24ZM218.51,115.01l-3.61,11.36h2.01l.77-2.57h3.71l.79,2.57h2.05l-3.69-11.36h-2.03ZM218.26,121.86l1.25-4.19,1.27,4.19h-2.51ZM235.07,101.44c.31-.67.46-1.36.46-2.09s-.17-1.65-.54-2.67c-.21-.58-.54-1.23-.98-1.93-.36-.56-.63-.93-.8-1.09.74-.43,1.34-.75,1.8-.92.88-.35,1.54-.58,2-.69l.69-2.01c-.88.19-1.81.51-2.81.96-.69.3-1.33.62-1.9.95-.57,1.15-.83,2.07-.78,2.77.03.25.16.56.4.93.24.38.41.59.52.66l.14-.26c.05,0,.25.32.6.95.4.69.63,1.24.68,1.66.02.46-.22.69-.72.69h-19.62c-.16,0-.28-.11-.37-.31-.02-.07-.08-.33-.17-.77-.17-1.87-.29-3.51-.36-4.92l-.9,1.67.06,1.32c-.59.25-1.09.51-1.5.79-.32.22-.69.54-1.13.98-.44.79-.75,1.64-.93,2.53.22.41.53.76.91,1.06.51.39,1.11.58,1.8.58.55-.84.96-1.64,1.24-2.37,0,.06.05.33.16.79.15.55.29.95.43,1.22.2.51.42.76.66.76h19.54c.17,0,.4-.1.68-.31.32-.27.56-.57.73-.93M211.2,98.8c.38-.56.86-1.03,1.44-1.4l.16,1.93c-.52.09-1.05-.09-1.6-.53M214.41,116.28c-.35-.57-.8-.94-1.33-1.11-.34-.11-1.09-.17-2.23-.17h-3.01v11.36h1.86v-4.28h1.24c.85,0,1.5-.06,1.95-.16.33-.09.65-.27.97-.54.32-.27.58-.64.79-1.12.21-.47.31-1.06.31-1.76,0-.91-.17-1.64-.54-2.22M212.8,119.42c-.14.25-.34.44-.59.56-.25.11-.74.17-1.48.17h-1.04v-3.22h.91c.68,0,1.14.03,1.36.08.3.07.56.24.76.5.2.27.3.61.3,1.02,0,.33-.07.63-.22.88M231.23,122.6l-3.82-7.59h-1.83v11.36h1.74v-7.43l3.76,7.43h1.89v-11.36h-1.75v7.59ZM201.12,122.75l-1.67-7.75h-2.82v11.36h1.74v-8.94s1.84,8.94,1.84,8.94h1.8l1.86-8.94v8.94h1.75v-11.36h-2.81l-1.68,7.75ZM162.5,102.42c.31.18.53.26.68.26h38.33c1.4,0,2.21-.38,2.43-1.13.2-.78.32-1.67.32-2.7,0-1.59-.23-3.08-.68-4.47-.47-1.41-1.02-2.22-1.66-2.43-.43-.14-.86.24-1.3,1.16-.44.92-.66,1.87-.66,2.85,0,.6.1,1.11.32,1.54.2.42.47.63.82.63.52,0,1.09-.42,1.72-1.25.35.6.52,1.16.52,1.7,0,.17-.1.35-.29.53-.22.16-.43.24-.64.24h-8.59c.21-.28.32-.96.32-2.03,0-.27-.01-.51-.04-.74-.08-.78-.57-1.16-1.48-1.16-.34,0-.71.07-1.08.23-.52.21-1.23.59-2.12,1.14-.76.44-1.16.68-1.2.74.1-.66.16-1,.16-1.03,0-1.92-.02-3.02-.06-3.3l.19.15.58-1.42c-.35-.2-.63-.5-.86-.93-.18-.35-.31-.72-.36-1.11l-.88,1.92.21.27c.18,1.78.3,3.31.34,4.6.03.76.05,1.19.05,1.3l-1.42,1.37h-21.98v-.03h-1.32c-.26-.44-.43-.77-.54-.98-.29-.56-.47-.99-.54-1.27l-1.12,2.16.82,1.75c-.29,1.11-.91,2.08-1.85,2.93-.48.43-1.08.64-1.78.64-.47,0-.95-.09-1.43-.26.94,1.7,1.82,2.59,2.61,2.64,1.15.08,2.14-1.61,2.95-5.05.22.29.4.46.54.53M201.58,95.55c-.18,0-.32-.05-.44-.13-.17-.13-.27-.31-.27-.56,0-.32.16-.48.47-.48.37,0,.76.29,1.18.85-.27.21-.58.32-.94.32M188.98,98.3c1-.67,1.83-1.01,2.5-1.01.27,0,.55.13.84.37.29.23.44.47.44.72,0,.11-.03.2-.1.29-.33.5-1.78.75-4.34.75-.34,0-.55-.02-.62-.06,0-.11.43-.46,1.28-1.05M190.33,114.8c-.76,0-1.43.15-2.01.45-.44.23-.83.57-1.21,1.02-.37.47-.65.99-.86,1.57-.28.78-.43,1.76-.43,2.92,0,1.81.42,3.24,1.23,4.27.81,1.03,1.91,1.55,3.3,1.55s2.46-.52,3.28-1.56c.82-1.04,1.23-2.48,1.23-4.32s-.42-3.3-1.24-4.33c-.83-1.04-1.92-1.56-3.3-1.56M192.21,123.63c-.49.66-1.1.99-1.85.99s-1.37-.34-1.86-1c-.48-.67-.73-1.65-.73-2.94s.24-2.3.71-2.95c.48-.65,1.11-.98,1.88-.98s1.4.33,1.87.97c.46.64.7,1.62.7,2.93s-.24,2.32-.72,2.98M181.69,124.01c-.36.39-.79.59-1.3.59-.68,0-1.23-.31-1.65-.92-.43-.61-.63-1.64-.63-3.08,0-1.36.21-2.34.64-2.94.43-.61.99-.91,1.68-.91.5,0,.93.18,1.28.51.36.34.58.81.69,1.4l1.87-.54c-.21-.91-.53-1.6-.96-2.09-.72-.82-1.63-1.23-2.77-1.23-1.31,0-2.36.52-3.16,1.56-.8,1.06-1.2,2.52-1.2,4.41,0,1.79.4,3.21,1.19,4.23.8,1.03,1.82,1.55,3.05,1.55,1,0,1.83-.31,2.48-.91.65-.6,1.12-1.53,1.4-2.77l-1.83-.68c-.16.83-.42,1.44-.78,1.82M166.47,122.21h2.16v1.44c-.29.27-.63.5-1.03.69-.4.19-.79.28-1.19.28-.8,0-1.45-.34-1.94-1.02-.49-.68-.75-1.69-.75-3.05,0-1.26.24-2.2.73-2.85.48-.64,1.14-.96,1.95-.96.55,0,.99.16,1.35.49.36.32.61.76.74,1.32l1.87-.44c-.19-1.04-.61-1.85-1.26-2.44-.65-.59-1.55-.88-2.7-.88-.89,0-1.64.19-2.23.56-.79.49-1.38,1.2-1.78,2.12-.4.92-.61,1.97-.61,3.16,0,1.09.18,2.1.55,3.04.36.93.91,1.64,1.63,2.14.73.5,1.57.75,2.55.75.76,0,1.52-.18,2.27-.53.74-.35,1.31-.76,1.71-1.22v-4.54h-4.03v1.93ZM270.53,103.14c.41-.46.67-.87.76-1.22.24-.97.36-1.88.36-2.72,0-1.15-.18-2.06-.54-2.75l-.78,1.77c.26.57.39,1.09.36,1.58-.47-.03-.94-.29-1.44-.76,0,.02-.02-.19-.06-.61-.04-.23-.11-.53-.2-.9-.16.74-.49,1.28-.98,1.64-.4.09-.73.13-.98.13-.42,0-.77-.02-1.02-.06l.19-1.43c-.17.34-.4.64-.68.9-.13.14-.26.29-.39.42-.15.14-.3.21-.46.21h-18.49v-.03h-1.32c-.25-.44-.44-.77-.54-.98-.3-.56-.48-.99-.55-1.27l-1.12,2.16.83,1.75c-.3,1.11-.92,2.08-1.87,2.93-.47.43-1.07.64-1.77.64-.47,0-.94-.09-1.42-.26.94,1.7,1.81,2.59,2.59,2.64,1.16.08,2.15-1.61,2.96-5.05.23.29.41.46.54.53.3.18.53.26.68.26h18.49c-.09,0,.02-.03.35-.1.25-.09.5-.23.75-.42-.06.21-.08.35-.08.39-.03.21-.04.37-.04.47.51,0,1.07-.06,1.68-.21.61-.14,1.23-.38,1.84-.72.85.53,1.63.87,2.34,1.04M268.05,118.28h-.88v8.08h4.13v-.96h-3.25v-7.13ZM264.51,126.36h.94v-1.12h-.94v1.12ZM253.78,123.48c-.14.66-.25,1.24-.35,1.75-.11-.89-.28-1.84-.52-2.85l-.94-4.1h-1.06l-1.26,5.47c-.04.13-.13.62-.32,1.49-.09-.54-.18-1.09-.28-1.65l-1-5.3h-.9l1.75,8.08h.91l1.39-6.15c.07-.26.14-.58.22-.95.02.12.09.44.21.95l1.38,6.15h.89l1.79-8.08h-.91l-1.01,5.2ZM238.71,119.5l-2.18-4.5h-2.21l3.41,6.58v4.78h1.87v-4.77l3.42-6.59h-2.16l-2.14,4.5ZM259.86,118.28h-.87v8.08h4.13v-.96h-3.26v-7.13ZM256.33,126.36h.94v-1.12h-.94v1.12ZM148.41,126.36h1.87v-11.36h-1.87v11.36ZM91.99,115.11h-1.87v11.25h6.54v-1.93h-4.67v-9.32ZM88.7,90.37l-1.06,2.27c.34,3.26.57,5.61.68,7.06.1.97.14,1.98.14,3.02l.9-2.22c0-.77-.02-1.37-.06-1.77-.39-4.62-.6-7.4-.6-8.35M116.47,124.01c-.37.39-.8.59-1.29.59-.69,0-1.23-.31-1.66-.92-.43-.61-.64-1.64-.64-3.08,0-1.36.21-2.34.65-2.94.43-.61.99-.91,1.69-.91.5,0,.93.18,1.27.51.36.34.58.81.69,1.4l1.88-.54c-.22-.91-.54-1.6-.96-2.09-.71-.82-1.64-1.23-2.78-1.23-1.31,0-2.36.52-3.17,1.56-.8,1.06-1.2,2.52-1.2,4.41,0,1.79.4,3.21,1.2,4.23.8,1.03,1.81,1.55,3.05,1.55.99,0,1.83-.31,2.48-.91.65-.6,1.11-1.53,1.39-2.77l-1.83-.68c-.16.83-.42,1.44-.78,1.82M104.03,120.07c-.44-.29-1.11-.56-2.03-.82-.91-.26-1.48-.52-1.72-.76-.19-.19-.27-.42-.27-.69,0-.29.1-.53.3-.7.3-.28.73-.41,1.28-.41s.92.13,1.19.38c.26.26.44.68.51,1.26l1.87-.09c-.03-1.04-.34-1.88-.93-2.5-.59-.63-1.47-.94-2.64-.94-.71,0-1.32.13-1.83.39-.5.26-.89.65-1.16,1.15-.27.5-.4,1.04-.4,1.62,0,.9.28,1.66.86,2.29.41.45,1.11.82,2.13,1.13.78.23,1.28.41,1.5.5.32.14.55.3.67.49.14.19.2.42.2.68,0,.42-.15.79-.46,1.1-.31.31-.77.47-1.37.47s-1.04-.18-1.37-.53c-.34-.34-.57-.9-.68-1.65l-1.83.2c.12,1.29.5,2.26,1.14,2.92.63.67,1.53,1.01,2.71,1.01.82,0,1.49-.14,2.03-.42.55-.28.96-.7,1.26-1.27.29-.57.44-1.19.44-1.84,0-.72-.12-1.33-.37-1.82-.25-.48-.59-.87-1.03-1.15M75.26,102.68c.29,0,.51-.13.64-.4.33-.61.57-1.04.72-1.29l.39,1.4c1.26.49,2.36.77,3.32.84l.62-1.48c.1.19.22.37.37.52.17.27.3.4.38.4h2.06c.74,0,1.29-.84,1.64-2.54.02-.07.02-.28.02-.63,0-.78-.02-1.99-.08-3.65-.06-1.61-.1-2.43-.12-2.48l.26.26.52-1.66c-.27-.25-.46-.43-.58-.56-.33-.37-.63-.8-.88-1.29l-.66,1.93.28.29s.11.85.24,2.43c.14,1.71.22,2.91.22,3.6,0,.29-.02.48-.04.52-.16.31-.34.45-.56.45h-2.32c-.13,0-.25-.09-.36-.26-.1-.2-.21-.38-.32-.56-.08-.1-.31-.61-.68-1.51-.23-.54-.55-.82-.98-.82-.57,0-1.11.29-1.62.85-.25.28-.64.84-1.16,1.66-.27.42-.62.64-1.08.64h-1.3c-.66.02-1.06-.09-1.2-.31-.01-.02.09-.19.32-.5.22-.32.32-.65.32-1,0-.14-.02-.28-.04-.42-.27-1.27-1-1.91-2.18-1.91-.32,0-.65.06-1,.17-.23.07-.52.49-.86,1.27-.29.7-.44,1.14-.44,1.3.11-.04.31-.04.6,0,.19.01.36.15.52.39.16.25.26.48.3.69.02.09-.14.17-.46.24-.34.07-.65.11-.94.11h-17.54c-.27,0-.51-.14-.7-.42-.09-.16-.14-.35-.16-.58-.03-.23-.05-.45-.06-.66l-.38-6.82-.98,1.72c.34,3.13.51,5.12.54,5.95.05,1.78.27,2.97.66,3.56.25.39.46.58.64.58h16.92v.03h1.2c.61,0,1.12-.12,1.52-.37.32-.3.53-.53.64-.71.23.3.39.49.48.55.09.07.23.16.42.24.38.18.67.26.86.26h2.06ZM77.96,98.46c.29-.28.58-.42.86-.42.33,0,.61.21.82.61.22.4.3.84.26,1.29-.88.09-1.7-.17-2.46-.77.05-.21.23-.45.52-.71M79.74,115.01h-7.35v1.93h2.74v9.43h1.87v-9.43h2.74v-1.93ZM83.01,115.01l-3.6,11.36h2.01l.76-2.57h3.72l.79,2.57h2.04l-3.7-11.36h-2.02ZM82.76,121.86l1.25-4.19,1.28,4.19h-2.52ZM139.53,116.93h2.74v9.43h1.87v-9.43h2.74v-1.93h-7.35v1.93ZM158.06,122.6l-3.83-7.59h-1.82v11.36h1.75v-7.43l3.76,7.43h1.89v-11.36h-1.74v7.59ZM65.92,121.38h4.68v-1.93h-4.68v-2.51h5.03v-1.93h-6.9v11.36h7.09v-1.93h-5.22v-3.05ZM152.77,91.99c-.27-.25-.46-.43-.58-.56-.34-.37-.62-.8-.88-1.29l-.66,1.93.28.29s.11.85.24,2.43c.15,1.71.23,2.91.23,3.6,0,.29-.02.48-.05.52-.15.31-.34.45-.55.45h-2.55c-.13,0-.36-.21-.7-.64-.1-.14-.22-.36-.34-.66-.11-.24-.16-.4-.16-.45-.13.55-.28.94-.46,1.17-.33.38-.68.58-1.08.58h-1.92c-.66.02-1.07-.09-1.2-.31-.01-.02.09-.19.32-.5.22-.32.32-.65.32-1,0-.14-.01-.28-.04-.42-.27-1.27-.99-1.91-2.18-1.91-.32,0-.65.06-1,.17-.23.07-.51.49-.86,1.27-.29.7-.44,1.14-.44,1.3.11-.04.3-.04.6,0,.19.01.36.15.52.39.16.25.26.48.3.69.01.09-.14.17-.46.24-.33.07-.64.11-.94.11h-7.45c-.35,0-.58-.31-.69-.95-.12-.72-.19-1.25-.2-1.59l-.34-6.5-.78,1.29.41,6.87c.02.3-.01.5-.08.58-.16.19-.38.29-.66.29h-1.76c-.13,0-.37-.21-.7-.64-.11-.14-.23-.36-.34-.66-.11-.24-.16-.4-.16-.45-.12.55-.28.94-.47,1.17-.32.38-.67.58-1.08.58h-16.08c.23-.95.34-1.88.34-2.8,0-.54-.07-1.03-.18-1.46-.18-.56-.46-.85-.82-.85-.34,0-.74.26-1.22.77-.42.43-.8.97-1.14,1.59-.21.39-.42.95-.6,1.69-.16.58-.24.93-.24,1.05-.96.21-4.15.29-5.16.21-.91-.05-1.81-.1-2.7-.16-.95-.16-1.54-.55-1.74-1.19-.15-.46-.22-.89-.22-1.3s.08-.89.24-1.39c-.64.91-.96,2.15-.96,3.72,0,1.18.18,1.99.54,2.44.77.93,4.78,1.38,7.59,1.34.91-.01,1.54-.05,1.88-.1.6-.11,1.2-.33,1.79-.66.19-.1.43-.27.7-.5.06.19.16.38.32.56.24.24.49.36.76.36h16.7c.25,0,.48-.12.7-.36.2-.27.42-.84.68-1.72.09.65.29,1.16.6,1.53.3.38.52.55.64.55h2.05c.12,0,.34-.23.64-.68.21-.44.36-.78.44-1,.13.51.27.88.42,1.11.24.39.42.58.55.58h6.68v.03h1.2c.62,0,1.12-.12,1.52-.37.32-.3.54-.53.64-.71.23.3.39.49.48.55.09.07.24.16.42.24.39.18.67.26.87.26h2.74c.25,0,.49-.12.7-.36.2-.27.42-.84.67-1.72.09.65.3,1.16.6,1.53.31.38.52.55.64.55h2.58c.74,0,1.29-.84,1.64-2.54.01-.07.02-.28.02-.63,0-.78-.02-1.99-.08-3.65-.07-1.61-.11-2.43-.11-2.48l.25.26.52-1.66ZM107.01,98.78c-.29.14-.54.18-.74.13-.37-.1-.65-.4-.83-.9.05-.17.19-.38.42-.61.26-.25.51-.34.74-.29.22.05.43.25.62.58.19.32.28.56.28.74-.08.1-.24.22-.48.34M134.1,115.01l-3.6,11.36h2.01l.77-2.57h3.71l.8,2.57h2.04l-3.7-11.36h-2.02ZM133.84,121.86l1.25-4.19,1.27,4.19h-2.52ZM125.12,114.8c-.76,0-1.43.15-2.01.45-.43.23-.84.57-1.2,1.02-.37.47-.66.99-.87,1.57-.29.78-.43,1.76-.43,2.92,0,1.81.41,3.24,1.22,4.27.82,1.03,1.93,1.55,3.31,1.55s2.46-.52,3.28-1.56c.82-1.04,1.22-2.48,1.22-4.32s-.41-3.3-1.23-4.33c-.83-1.04-1.92-1.56-3.29-1.56M126.99,123.63c-.49.66-1.1.99-1.85.99s-1.38-.34-1.86-1c-.49-.67-.73-1.65-.73-2.94s.24-2.3.72-2.95c.48-.65,1.1-.98,1.88-.98s1.4.33,1.87.97c.47.64.7,1.62.7,2.93s-.24,2.32-.72,2.98M123.56,105.86l1.1,1.3.98-1.37-1.1-1.3-.97,1.37ZM127.74,105.78l-1.13-1.3-.97,1.37,1.13,1.3.97-1.37Z"/>
    </g>
  </g>
</svg>