<?xml version="1.0" encoding="UTF-8"?>
<svg id="Layer_2" data-name="Layer 2" xmlns="http://www.w3.org/2000/svg" viewBox="0 0 184.44 140.39">
  <defs>
    <style>
      .cls-1 {
        fill: #0055b8;
      }

      .cls-2 {
        fill: #76bc21;
      }
    </style>
  </defs>
  <g id="Layer_1-2" data-name="Layer 1">
    <g>
      <g>
        <path class="cls-2" d="M87.21,24.68c.16.08.17.26.23.41.05.11.14.23.22.32.17.18.36.31.56.43.19.1.38.19.56.28.07.05.14.1.2.14.09.05.32.17.35.28,0,.04.01.09,0,.13-.05.06-.09.12-.14.18-.02.04-.04.07-.06.1-.1.11-.2.22-.31.33-.08.1-.16.21-.24.31-.14.18-.27.33-.35.54-.12.35-.04.77.01,1.13.04.3.08.61.12.91,0,.12.02.24.03.36.02.21.06.43.04.65-.02.24-.1.48-.16.72-.08.35-.16.67-.45.92-.07.06-.2.15-.3.17-.14.03-.3,0-.44,0-.27,0-.54,0-.81,0-.09,0-.19,0-.29,0-.29,0-.57,0-.86,0-.42,0-.87-.01-1.3-.01-1.36,0-2.68,0-4.03.01-.49,0-1.29-.13-1.53-1.37-.1-.51-.1-1.09-.01-1.61.07-.38.23-.72.42-1.04.06-.1.1-.2.17-.3.01-.02.06-.07.06-.04h.03c-.02.1-.05.21-.08.31-.1.55-.1,1.46.29,1.84.14.14.33.23.52.27.19.04.41.03.62.03h.92c1.05,0,2.09.02,3.17,0h1.92c.22,0,.55.04.75-.01.02,0,.03,0,.04-.02,0,0,0-.02.02-.03.04-.14-.04-.5-.06-.64,0-.07-.01-.14-.02-.21-.02-.17-.04-.32-.05-.5-.01-.24-.07-.49-.1-.72-.07-.55-.06-1.24-.26-1.73-.05-.13-.12-.24-.2-.35-.06-.08-.3-.27-.3-.35,0-.05.01-.1.03-.13.22-.35.42-.72.64-1.08.12-.21.23-.48.39-.66Z"/>
        <path class="cls-2" d="M96.48,25.02c.17.03.3.21.44.32.23.19.46.38.69.56.03.02.17.16.18.16-.08.15-1.09,1.21-1.2,1.19-.08,0-.15-.11-.22-.16-.17-.13-.34-.27-.51-.39-.09-.08-.49-.37-.51-.46-.02-.05.02-.1.05-.13.07-.07.15-.14.22-.21.29-.28.61-.58.86-.89Z"/>
        <path class="cls-2" d="M84.75,25.12s.1-.01.1.02h.02c-.09.29-.25.56-.38.83-.05.1-.1.28-.21.34-.11.06-.26.07-.39.09-.19.05-.39.1-.58.14-.09.04-.18.07-.27.1-.02.01-.16.13-.16.13,0,.03-.01.04.02.04.17.25.67.23.96.31.13.04.26.1.37.17.14.09.21.19.2.37-.03.31-.13.58-.28.82-.41.63-1.16.86-1.91.88-.39.01-.78,0-1.13-.07,0,0-.19-.07-.1-.07.09-.08.17-.16.25-.25.05-.05.1-.12.16-.15.13-.05.3-.04.44-.04.07-.01.14-.03.2-.04.22-.05.47-.1.6-.28.02-.03.06-.07.03-.11-.08-.14-.41-.14-.56-.17-.25-.05-.58-.14-.69-.4-.05-.12-.03-.28.02-.39.1-.21.28-.37.44-.55.53-.57,1.13-1,1.8-1.31.21-.08.42-.17.64-.26.13-.04.28-.06.41-.13Z"/>
        <path class="cls-2" d="M106.24,24.37s-.04-.04-.06-.06v.02c-.12,0-.22.07-.33.1-.26.08-.52.17-.77.25-.94.3-1.88.61-2.83.91-.34.11-.67.22-1.01.32-.07.02-.18.03-.24.09-.09.09-.08.29-.11.41-.11.52-.2,1.04-.29,1.56-.02.08-.05.16-.07.24,0,.06,0,.13.02.18.04.11.15.21.24.29.19.19.39.38.6.54.1.08.2.18.32.24.05.03.12.04.19.05.1.02.21.02.3-.01.08-.03.14-.13.24-.09.14.05.28.16.41.25.48.33,1.06.91,1.33,1.43-.02,0-5.21,0-5.22,0,0-.16.25-.43.34-.57.03-.06.05-.12.08-.18.11-.23.23-.5.25-.77.03-.49-.06-3.22-3.27-.74-.11.12-1.08.57-1.5,2.1h-2.63s-.64-5.9-.67-6.16h-.02v-.02s-.04.02-.05.04c-.1.12-.19.27-.28.4-.16.25-.33.49-.51.73-.07.1-.2.21-.22.33-.03.15,0,.35.02.49.03.28.44,5.31.48,5.67.02.15-.02.45.07.55,0,.03.01.02.03.03.23.02,12.47,0,13.24,0,.13,0,.6.03.68-.02.09-.06.31-.94.37-1.11.08-.27.15-.55.23-.82.03-.11.09-.23.08-.36-.01-.11-.08-.21-.14-.31-.29-.52-.78-.96-1.22-1.36-.23-.21-.43-.42-.67-.62-.31-.25-.61-.5-.92-.76-.09-.07-.17-.13-.26-.2-.05-.03-.1-.06-.14-.11,0-.01,0-.02-.02-.03v-.02c.13-.19.43-.21.64-.28.19-.06.37-.11.56-.17.53-.17,1.07-.36,1.61-.52.13-.04.55-.13.63-.21.08-.08.13-.37.16-.49.09-.33.17-.65.25-.98.02-.07.07-.19.05-.27ZM98.15,30.73c-.12.17-.72.22-.76.23-.41,0-1.02-.11-1.19-.48-.05-.1-.04-.22,0-.31.12-.21.41-.39.62-.47.08-.03.16-.06.24-.09.2,0,.37,0,.53.08.08.04.17.12.23.2.11.15.45.67.32.84Z"/>
      </g>
      <path class="cls-2" d="M125.87,65.4c-1.3,1.51-5.87,4.47-15.09,2.41,11.5-6.22,19.27-18.03,19.27-31.59C130.05,16.69,113.94.77,93.75,0v.69c12.25,1.19,21.94,16.64,21.94,35.53,0,12.5-4.25,23.49-10.67,29.85-12.27-4.2-20.3.62-20.3.62l.34.33s5.61-.29,9.52,1.33c6.26,2.59,9.33,4.13,17.08,4.61,7.66.48,12.89-5.57,12.89-5.57,0,0,2.86-3.76,1.33-2Z"/>
      <g>
        <g>
          <path class="cls-1" d="M87.06,40.32c.02.16.48,3.06.48,3.06h-.94l.46-3.06ZM86.17,46.16l.28-1.42h1.25s.32,1.42.32,1.42h1.71l-1.7-7.57h-1.89l-1.71,7.57h1.73Z"/>
          <path class="cls-1" d="M97.4,40.32c.02.16.48,3.06.48,3.06h-.94l.46-3.06ZM96.51,46.16l.29-1.42h1.25s.32,1.42.32,1.42h1.71l-1.7-7.57h-1.88l-1.71,7.57h1.73Z"/>
          <path class="cls-1" d="M90.41,46.17v-7.57h4.09v1.6h-2.37v1.39h2.2v1.24h-2.2v3.33h-1.72Z"/>
          <path class="cls-1" d="M105.28,43.24h-1.64v.71c0,.33-.04.57-.06.6-.24.52-.99.39-1.17.1-.07-.11-.08-.09-.09-.56v-3.49c0-.24.03-.48.04-.5.17-.51.99-.44,1.15-.18.09.14.15.3.15.79v.4h1.63v-.53s.28-2-2.23-2.03c-2.49-.04-2.21,2.18-2.21,2.18v3.28s-.27,2.08,2.21,2.18c2.4.09,2.23-2.03,2.23-2.03v-.92Z"/>
          <path class="cls-1" d="M84.19,46.39l-.94-.93c.43-.58.37-1.31.37-1.31v-3.57s.28-2-2.2-2.03c-2.45-.04-2.18,2.18-2.18,2.18v3.28s-.27,2.08,2.18,2.18c.19,0,.37,0,.53-.02l1.22,1.18,1.01-.96ZM80.93,44.63c-.06-.11-.07-.09-.09-.55v-3.45c0-.23.03-.47.03-.49.15-.51.9-.43,1.05-.18.08.14.14.3.13.78v3.2c0,.32-.04.56-.05.6-.22.51-.91.38-1.08.1Z"/>
        </g>
        <path class="cls-1" d="M128.58,67.54c-4.78,6.64-9.21,9.46-18.7,9.13-10.42-.35-19.23-7.75-26.34-7.36-8.67-5.23-14.8-18.08-14.8-33.1,0-18.87,9.68-34.32,21.92-35.52v-.69c-20.18.78-36.28,16.69-36.28,36.22,0,15.5,10.14,28.72,24.41,33.9-5.82,1.64-9.16,5.05-9.16,5.05l.64.43s5.57-3.57,12.56-.22c9.64,4.62,19.48,9.07,29.62,7.49,12.12-1.88,16.49-14.77,16.49-14.77l-.36-.57Z"/>
      </g>
      <g>
        <path class="cls-1" d="M4.29,133.47l-.81,1.01.77.94s-.3.43-.87.35c-.54-.08-1-.3-1.36-.9-.36-.6-.54-1.51-.54-2.71s.18-2.08.54-2.68c.36-.59.83-.89,1.4-.89s1.04.3,1.4.89c.36.59.54,1.48.54,2.67,0,.58-.04,1.09-.13,1.54-.09.45-.15.65-.15.65-.3-.33-.32-.38-.79-.88ZM6.6,134.52c.17-.68.26-1.46.26-2.36,0-1.69-.31-3-.92-3.94-.61-.94-1.44-1.4-2.49-1.4s-1.9.47-2.51,1.41c-.62.94-.93,2.26-.93,3.94s.31,3.01.92,3.95c.61.94,1.46,1.41,2.55,1.41.56,0,1.22-.22,1.69-.52.59.57.79.77.9.88l.9-.98s-.55-.65-.9-1.02c.29-.48.41-.87.53-1.38Z"/>
        <path class="cls-1" d="M10.91,134.16c0,.47-.02.79-.06.96-.05.26-.16.47-.32.65-.22.23-.45.35-.69.35-.22,0-.4-.1-.54-.3-.14-.2-.21-.44-.21-.71s.09-.51.26-.69c.12-.11.36-.23.74-.34.38-.12.65-.22.83-.3v.39ZM9.45,131.27c.14-.14.33-.21.57-.21.37,0,.61.08.74.25.13.17.14.57.14.96v.2c-.25.15-.7.22-1.34.39-.47.13-.83.29-1.08.46-.25.18-.75.62-.78,1.99-.01.64.15,1.17.46,1.59.31.42.72.63,1.25.63.29,0,.58-.08.84-.25.27-.17.51-.42.74-.76,0,.04.03.12.05.23.05.26.1.45.13.58h1.35c-.12-.36-.2-.69-.24-1.01-.04-.31-.06-.8-.06-1.46l.02-2.32c0-.86-.06-1.46-.19-1.78-.12-.32-.33-.59-.63-.8-.3-.21-.75-.4-1.35-.4-.67,0-1.36.24-1.7.73-.42.61-.43,1.7-.43,1.7l1.24-.03c.08-.35.12-.56.26-.7Z"/>
        <path class="cls-1" d="M132.42,133.99c0,.47-.02.79-.06.96-.05.25-.16.47-.33.65-.22.23-.45.35-.7.35-.21,0-.4-.1-.54-.3-.14-.2-.21-.44-.21-.71s.09-.51.26-.69c.12-.11.36-.23.74-.34.38-.12.65-.22.83-.3v.39ZM130.96,131.1c.14-.14.33-.21.57-.21.36,0,.61.08.74.25.13.17.14.57.14.96v.2c-.25.15-.7.22-1.34.39-.47.13-.83.29-1.08.46-.25.18-.75.62-.78,1.99-.01.64.15,1.17.46,1.59.31.42.72.63,1.25.63.29,0,.57-.08.84-.25.27-.17.51-.42.74-.75,0,.04.03.12.05.23.05.26.1.45.13.58h1.36c-.12-.36-.2-.69-.24-1.01-.04-.31-.06-.8-.06-1.46l.02-2.32c0-.86-.06-1.46-.18-1.78-.12-.32-.33-.59-.63-.8-.3-.21-.75-.4-1.35-.4-.67,0-1.36.24-1.7.73-.42.61-.43,1.7-.43,1.7l1.24-.03c.08-.36.13-.57.26-.71Z"/>
        <path class="cls-1" d="M20,134.16c0,.47-.02.79-.06.96-.05.26-.16.47-.32.65-.22.23-.45.35-.7.35-.21,0-.39-.1-.54-.3-.14-.2-.21-.44-.21-.71s.09-.51.26-.69c.12-.11.36-.23.74-.34.38-.12.65-.22.83-.3v.39ZM18.54,131.27c.14-.14.33-.21.57-.21.37,0,.61.08.74.25.13.17.14.57.14.96v.2c-.25.15-.7.22-1.34.39-.47.13-.84.29-1.09.46-.25.18-.75.62-.78,1.99-.01.64.15,1.17.46,1.59.31.42.72.63,1.25.63.3,0,.57-.08.84-.25.26-.17.51-.42.74-.76,0,.04.03.12.05.23.05.26.09.45.13.58h1.36c-.12-.36-.2-.69-.24-1.01-.04-.31-.06-.8-.06-1.46l.02-2.32c0-.86-.06-1.46-.18-1.78-.12-.32-.33-.59-.63-.8-.3-.21-.75-.4-1.36-.4-.67,0-1.36.24-1.7.73-.42.61-.43,1.7-.43,1.7l1.24-.03c.08-.35.13-.56.26-.7Z"/>
        <path class="cls-1" d="M16.05,129.65v1.48h-.75v3.32c0,.61.01.97.02,1.07.02.1.06.19.12.25.06.06.44.23.67.11l.03,1.54c-.37.09-.67.11-1.06.11-.24,0-.46-.06-.66-.18-.19-.12-.33-.27-.42-.47-.09-.19-.15-.45-.19-.77-.03-.23-.04-.7-.04-1.4v-3.57h-.62v-1.48h.62v-2.09l1.54-.02v2.11h.74Z"/>
        <path class="cls-1" d="M172.78,129.56v1.48h-.75v3.32c0,.61,0,.97.03,1.07.02.1.06.19.12.25.07.07.44.24.67.11l.03,1.54c-.37.09-.67.1-1.06.1-.24,0-.46-.06-.65-.18-.19-.12-.34-.27-.43-.46-.09-.19-.16-.45-.19-.77-.03-.23-.04-.7-.04-1.4v-3.58h-.62v-1.48h.62v-2.09l1.53-.03v2.11h.75Z"/>
        <path class="cls-1" d="M77.43,129.65v1.48h-.75v3.32c0,.61,0,.97.02,1.07.02.1.06.19.12.25.06.06.44.23.67.11l.03,1.54c-.37.09-.66.11-1.06.11-.24,0-.46-.06-.65-.18-.19-.12-.33-.27-.42-.47-.09-.19-.15-.45-.19-.77-.03-.23-.04-.7-.04-1.4v-3.57h-.62v-1.48h.62v-2.09l1.53-.02v2.11h.74Z"/>
        <path class="cls-1" d="M24,137.34h-1.36v-7.69h1.26v1.26c.21-.51.98-1.73,1.88-1.49v2.05c-.9-.26-1.6.63-1.68,1.04-.07.4-.11,1.24-.11,2.51v2.32Z"/>
        <path class="cls-1" d="M29.57,137.34v-10.33h5.11v1.75h-3.68v2.44h3.29v1.75h-3.29v4.38h-1.43Z"/>
        <path class="cls-1" d="M39.07,137.34v-1.12c-.19.4-.43.72-.74.96-.31.24-.62.35-.96.35s-.65-.11-.92-.33c-.27-.22-.47-.53-.59-.94-.12-.4-.18-.95-.18-1.66v-4.97h1.35v3.67c0,1.05.03,1.7.08,1.94.05.24.14.43.27.56.13.14.3.21.5.21.23,0,.44-.09.63-.28.18-.19.31-.42.37-.69.07-.28.1-.95.1-2.02v-3.34h1.48v7.67h-1.38Z"/>
        <path class="cls-1" d="M42.85,132.8c0-.54.1-.81.29-1.13.19-.32.43-.48.73-.48.27,0,.6.12.79.42.19.3.27.61.28,1.19h-2.08ZM43.93,136.04c-.31,0-.57-.16-.77-.49-.21-.33-.32-.78-.33-1.37h3.59c.02-1.53-.1-2.71-.54-3.46-.44-.74-1.09-1.26-2.05-1.22-.68.03-1.42.46-1.83,1.18-.4.72-.56,1.72-.56,2.97,0,1.05.17,1.91.51,2.6.43.86,1.09,1.25,1.97,1.28.7.03,2.22-.25,2.5-2.48h-1.45c-.09.85-.83.99-1.04.99Z"/>
        <path class="cls-1" d="M174.79,132.8c0-.54.09-.81.29-1.13.19-.32.43-.48.73-.48.27,0,.59.12.78.42.2.3.28.61.28,1.19h-2.08ZM175.87,136.04c-.31,0-.57-.16-.77-.49-.21-.33-.32-.78-.32-1.37h3.59c.02-1.53-.1-2.71-.55-3.46-.44-.74-1.09-1.26-2.05-1.22-.67.03-1.42.46-1.83,1.18-.39.72-.56,1.72-.56,2.97,0,1.05.17,1.91.51,2.6.43.86,1.09,1.25,1.97,1.28.7.03,2.22-.25,2.5-2.48h-1.45c-.09.85-.84.99-1.04.99Z"/>
        <path class="cls-1" d="M87.94,132.8c0-.54.09-.81.29-1.13.19-.32.44-.48.73-.48.27,0,.6.12.79.42.19.3.27.61.28,1.19h-2.08ZM89.02,136.04c-.31,0-.57-.16-.77-.49-.21-.33-.32-.78-.33-1.37h3.59c.02-1.53-.11-2.71-.55-3.46-.44-.74-1.09-1.26-2.05-1.22-.68.03-1.43.46-1.83,1.18-.39.72-.56,1.72-.56,2.97,0,1.05.17,1.91.51,2.6.43.86,1.09,1.25,1.97,1.28.7.03,2.22-.25,2.51-2.48h-1.45c-.09.85-.83.99-1.04.99Z"/>
        <path class="cls-1" d="M47.45,137.34v-10.33h1.35v10.33h-1.35Z"/>
        <path class="cls-1" d="M54.66,133.41l.95-3.97.98,3.97h-1.93ZM56.38,127.01h-1.54l-2.73,10.33h1.53l.59-2.21h2.82l.61,2.21h1.56l-2.83-10.33Z"/>
        <path class="cls-1" d="M61.48,131.75c.22-.37.49-.56.81-.56s.6.19.82.57c.22.38.32,1,.32,1.87,0,.78-.11,1.35-.33,1.74-.22.39-.49.58-.81.58-.39,0-.7-.26-.92-.78-.15-.36-.23-.94-.23-1.74,0-.75.11-1.31.33-1.68ZM64.77,126.9h-1.35v3.57c-.42-.7-.85-.94-1.42-1.01-2.29-.27-2.49,2.87-2.49,4.14s.43,4.19,2.4,3.93c.28-.04.57-.11.86-.32.29-.21.53-.54.74-.96v1.1h1.26v-10.44Z"/>
        <path class="cls-1" d="M181.04,131.75c.22-.37.49-.56.81-.56s.6.19.82.57c.21.38.32,1,.32,1.87,0,.78-.11,1.35-.33,1.74-.22.39-.49.58-.8.58-.39,0-.7-.26-.92-.78-.15-.36-.22-.94-.22-1.74,0-.75.11-1.31.33-1.68ZM184.32,126.9h-1.35v3.57c-.42-.7-.85-.94-1.42-1.01-2.29-.27-2.49,2.87-2.49,4.14s.43,4.19,2.4,3.93c.29-.04.57-.11.86-.32.28-.21.53-.54.74-.96v1.1h1.26v-10.44Z"/>
        <path class="cls-1" d="M67.72,131.75c.22-.37.49-.56.81-.56s.6.19.82.57c.21.38.32,1,.32,1.87,0,.78-.11,1.35-.33,1.74-.22.39-.49.58-.8.58-.39,0-.7-.26-.92-.78-.15-.36-.23-.94-.23-1.74,0-.75.11-1.31.33-1.68ZM71.01,126.9h-1.36v3.57c-.42-.7-.85-.94-1.42-1.01-2.29-.27-2.49,2.87-2.49,4.14s.43,4.19,2.4,3.93c.28-.04.57-.11.86-.32.28-.21.53-.54.74-.96v1.1h1.26v-10.44Z"/>
        <path class="cls-1" d="M72.37,128.69v-1.83h1.36v1.83h-1.36ZM72.37,137.34v-7.78h1.36v7.78h-1.36Z"/>
        <path class="cls-1" d="M155.9,128.69v-1.83h1.35v1.83h-1.35ZM155.9,137.34v-7.78h1.35v7.78h-1.35Z"/>
        <path class="cls-1" d="M167.63,128.69v-1.83h1.36v1.83h-1.36ZM167.63,137.34v-7.78h1.36v7.78h-1.36Z"/>
        <path class="cls-1" d="M78.45,128.69v-1.83h1.36v1.83h-1.36ZM78.45,137.34v-7.78h1.36v7.78h-1.36Z"/>
        <path class="cls-1" d="M82.48,137.34l-1.75-7.78h1.58l1.08,5.33c.07-.32,1.23-5.3,1.23-5.3h1.58l-2.03,7.75h-1.68Z"/>
        <path class="cls-1" d="M92.09,134.81l1.55-.02c.06.39.11,1.24,1.17,1.17.55-.04,1.28-.88.32-1.41-1.01-.56-1.87-.64-2.17-.92-.55-.5-.65-1.11-.65-1.86,0-.67.25-1.22.6-1.68.35-.46.96-.67,1.7-.67.7,0,1.23.17,1.57.52.34.35.69.88.71,1.94l-1.45-.05c-.05-.3-.02-.9-.81-.93-.64-.03-.87.51-.87.68,0,.15-.01.24.08.34.12.14.55.33,1.27.58.72.25,1.23.55,1.52.92.29.36.49.88.49,1.53,0,.71-.27,1.31-.65,1.83-.47.63-1.13.86-1.78.86-.7,0-1.45-.25-1.86-.68-.41-.42-.73-1-.73-2.13Z"/>
        <path class="cls-1" d="M105.76,133.68l1.39-.03c.02,1.61-.68,2.61-1.06,3.03-.5.55-1.12.83-1.88.83-.94,0-1.8-.41-2.41-1.35-.6-.94-.93-2.29-.93-3.92,0-1.72.2-3.07.81-4.02.61-.95,1.44-1.53,2.43-1.55,2.27-.07,3.09,2.52,3.02,3.68h-1.41c-.08-.55-.24-1.11-.51-1.42-.27-.31-.6-.45-.98-.45-.53,0-1,.28-1.33.83-.33.55-.55,1.56-.55,2.79,0,1.31.27,2.24.6,2.79.32.55.74.83,1.25.83.37,0,.7-.18.97-.53.28-.35.47-.75.59-1.51Z"/>
        <path class="cls-1" d="M109.89,131.58c.24-.39.54-.59.89-.59s.65.2.9.59c.24.4.36,1.27.36,2.01s-.12,1.33-.36,1.74c-.24.4-.54.59-.9.59s-.65-.2-.89-.59c-.24-.4-.36-.97-.36-1.72s.12-1.62.36-2.02ZM108.47,135.69c.22.61.55,1.06.97,1.37.43.31.88.47,1.35.47.76,0,1.39-.37,1.89-1.12.5-.75.75-1.69.75-2.83s-.25-2.37-.74-3.11c-.49-.74-1.13-1.11-1.91-1.11-.5,0-.96.16-1.37.49-.41.32-.72.8-.94,1.42-.22.62-.33,1.56-.33,2.22,0,.87.11,1.6.33,2.2Z"/>
        <path class="cls-1" d="M158.6,129.55h1.26v1.02c.44-.8.97-1.21,1.58-1.21.33,0,.61.1.85.3.24.2.44.5.58.9.22-.4.47-.7.73-.9.26-.2.54-.3.83-.3.37,0,.69.11.95.33.26.22.45.55.58.99.09.32.14.84.14,1.55v5.1h-1.36v-4.59c.03-1.27-.36-1.6-.78-1.59-.66,0-.84.54-.87,1.01-.02.34-.07.86-.07,1.57v3.6h-1.35v-4.41c0-.73-.06-1.03-.08-1.24-.05-.62-1.54-.94-1.59.41-.01.32-.07.88-.07,1.6v3.65h-1.35v-7.79Z"/>
        <path class="cls-1" d="M114.56,129.55h1.26v1.02c.44-.8.97-1.21,1.58-1.21.33,0,.61.1.85.3.24.2.43.5.59.9.22-.4.46-.7.72-.9.26-.2.54-.3.84-.3.37,0,.69.11.95.33.26.22.45.55.58.99.09.32.14.84.14,1.55v5.1h-1.36v-4.59c.03-1.27-.36-1.6-.78-1.59-.66,0-.84.54-.87,1.01-.02.34-.07.86-.07,1.57v3.6h-1.35v-4.41c0-.73-.06-1.03-.08-1.24-.05-.62-1.54-.94-1.59.41-.01.32-.06.88-.06,1.6v3.65h-1.36v-7.79Z"/>
        <path class="cls-1" d="M125.16,131.51c.22-.37.49-.56.81-.56s.58.19.8.57c.21.38.32,1.27.32,2.06,0,.84-.16,1.31-.31,1.52-.25.35-.47.56-.78.56-.33,0-.6-.2-.83-.6-.23-.4-.34-.73-.34-1.57,0-.74.11-1.59.33-1.97ZM123.5,140.21h1.36v-3.76c.26.4,1.78,1.96,3.01-.26.4-.71.63-1.37.63-2.63s-.21-2.48-.62-3.17c-.42-.69-.92-1.02-1.51-1.02-.34,0-.65.12-.93.36-.28.24-.5.55-.67.93v-1.1h-1.26v10.66Z"/>
        <path class="cls-1" d="M139.94,137.34h-1.35v-3.83c0-.81-.04-1.51-.09-1.75-.18-.86-1.36-.87-1.63-.34-.27.53-.23,1.69-.23,2.52v3.4h-1.36v-7.79h1.26v1.1c.44-.86,1-1.29,1.68-1.29.29,0,.56.08.81.23.24.16.43.36.56.6.13.24.22.52.27.83.05.31.07.76.07,1.33v4.97Z"/>
        <path class="cls-1" d="M140.69,129.54h1.56l1.17,5.46,1.07-5.46h1.58l-1.81,7.52-.33,1.31c-.12.44-.24.77-.34,1.01-.11.23-.23.41-.37.56-.14.14-.31.26-.52.34-.21.08-.44.12-.7.12s-.43-.04-.68-.12v-1.55c.2.06.22.09.38.09.31,0,.54-.13.69-.41.15-.27.32-.56.2-1.04l-1.92-7.82Z"/>
        <path class="cls-1" d="M149.95,137.34v-10.46h1.43v8.71h3.58v1.75h-5.01Z"/>
      </g>
      <path class="cls-2" d="M184.44,110.79v7.23h-7.23s-.06,1.67-.34,2.22c0,0-.46,1.04-1.42,1.15-1.27.14-1.83-.99-2.18-1.9,0,0,.6.64,1.51.79.9.15.92-.14,1.07-.94l.05-.77v-3.31s.9-.65,1.31-1.76v2.71h1.9v-1.81s.85-.03,1.3-.38v2.14h.76v-2.26s.91-.4,1.21-.8v3.06h.79v-3.72s1.1-1.26,1.26-1.66Z"/>
      <path class="cls-2" d="M171.9,115.38c-.19-3.38-3.28-2.94-3.28-2.94h-4.74c1.06-1.35-.98-3.47-.98-3.47.98,2.64.08,3.16-.53,3.39-.6.23-1.13,0-1.13,0v1.96h6.7c.75,0,1.54.04,2.03.6.47.54.23,1.36.23,1.36h-10.77v-4.59c-1.85.26-3.09,2.11-3.09,2.11-1.28,1.81-.91,4.29-.91,4.29h16.49s.04-1.36-.04-2.71ZM158.12,116.13h-1.32s.08-1.69,1.32-1.96v1.96Z"/>
      <path class="cls-2" d="M147.24,109.21c-2.2,1.65-1.51,5.2-1.51,5.2h2.49v1.78h-4.22s-.06-1.05-.19-1.52c-.72-2.56-3.95-2.22-3.95-2.22h-5.35v-10.62c-.75,1.28-1.36,1.43-1.36,1.43v12.93h-1.66v-2.53c-.53.98-1.36,1.5-1.36,1.5v3.69c0,.83-.52,1.36-1.05,1.51-.53.15-1.51-.75-1.51-.75,1.51,2.56,2.75,1.58,3.24,1.09.59-.6.68-2.6.68-2.6h18.15v-10.17s-.61-.07-2.41,1.28ZM142.46,116.25h-7.91v-2l5.61-.03s1.1,0,1.7.3c.86.43.6,1.73.6,1.73ZM148.29,112.41h-1.28s-.08-1.43,1.28-1.99v1.99Z"/>
      <path class="cls-2" d="M117.16,119.47s.22.34-.08.64-.71.7-.23,1.07h.53v.57h-1.52v-.51h.23s-.06-.58.12-.85c.19-.26.75-.66.94-.92Z"/>
      <path class="cls-2" d="M118.47,101.64v14.57h-2.51v1.86h7.03v-14.76s-.9-.7-1.31-1.56v14.46h-1.81v-12.75s-1.05-1.11-1.4-1.82Z"/>
      <path class="cls-2" d="M117.27,101.75v12.5h-1.35v-10.96s1.05-.75,1.35-1.54Z"/>
      <path class="cls-2" d="M92.38,110.75v7.27h-7.94v-6.36s1.17,1.81,1.36,1.92v2.68h5.12v-3.73s1.09-.79,1.47-1.77Z"/>
      <path class="cls-2" d="M114.59,115.31s-.11-1.35-.87-2.03c-.75-.68-2.03-.68-2.03-.68h-5.12v-1.58c-.45.9-1.36,1.58-1.36,1.58v3.61h-1.7v-14.46c-.69.98-1.39,1.51-1.39,1.51v14.8h12.48l-.02-2.76ZM112.97,116.21h-6.25v-1.81s3.84.01,4.45,0c2.03-.04,1.81,1.81,1.81,1.81Z"/>
      <path class="cls-2" d="M98.69,109.08c-2.34,1.6-1.96,5.37-1.96,5.37h2.56v1.81h-4.17v-14.66c-.2.3-1.51,1.8-1.51,1.8l-.02,14.71h7.14v-10.14s-.3-.1-2.06,1.1ZM99.4,112.49h-1.16s.2-1.76,1.16-1.96v1.96Z"/>
      <path class="cls-2" d="M78.46,101.7v16.37h-1.4v-14.66s.65-.7,1.4-1.7Z"/>
      <path class="cls-2" d="M37.36,101.7v16.27h-1.41v-14.57s.65-.7,1.41-1.7Z"/>
      <path class="cls-2" d="M2.15,112.95c-2.03,1.41-1.56,4.97-1.56,4.97h4.07v-6.33s-.55,0-2.51,1.35ZM3.36,116.16h-1.21s-.2-1.61,1.21-1.96v1.96Z"/>
      <path class="cls-2" d="M6.07,112.4v1.81s1.73-.14,2.21.65c.4.65.4,1.21.4,1.21h-2.56v1.91h4.07s.25-1.46-.25-3.36c-.53-2-2.46-2.36-3.87-2.21Z"/>
      <path class="cls-2" d="M15.46,118.42v-6.93s-1.96.55-3.21,2.25c-1.3,1.78-.75,4.17-.75,4.17h2.66c.15,1.35-.15,1.96-.85,2.21-.7.25-1.76-.55-1.76-.55.55,1.76,2.16,1.65,2.16,1.65,2.11-.4,1.76-2.81,1.76-2.81ZM14.05,116.06h-1.2s0-1.56,1.2-2.06v2.06Z"/>
      <path class="cls-2" d="M33.33,101.65v14.51h-2.01c-.15-1.11-.75-2.1-2.21-1.86-1.51.25-1.55,1.88-1.55,1.88h-1.96s-.15-1.28-1.26-3.39c-.26-.5-1.86-.25-1.86-.25v1.56c.2,0,.75-.15.95.25.31.63.6,1.86.6,1.86h-3.16c.1-1.25-.45-2.16-.45-2.16-.6-1.56-3.51-1.71-3.51-1.71v1.76s.93-.47,1.86.35c.9.8.45,1.66.45,1.66h-2.36v1.78h10.65c.05.5.55,2.14,2.06,1.99,1.5-.15,1.71-1.99,1.71-1.99h3.36v-14.58c-.7-.3-1.3-1.66-1.3-1.66ZM29.46,117.89c-.4,0-.72-.41-.72-.93s.32-.93.72-.93.72.41.72.93-.32.93-.72.93Z"/>
      <path class="cls-2" d="M75.81,103.3v14.72h-10.77s-.04,2.48-1.32,3.05c-.88.39-2.3.42-2.86-1.66,0,0,.99.89,1.84.83.49-.04.75-.67.79-1.62v-3.31s1.06-.94,1.35-1.73v2.52h2.22v-3.54l1.28-1.66v5.2h2.67v-3.65s.9-1.05,1.28-1.77l-.04,5.5h2.26v-14.57s.83,1.69,1.28,1.69Z"/>
      <g>
        <path class="cls-2" d="M68.45,108.63c.44,0,.79-.43.79-.96s-.36-.97-.79-.97-.79.43-.79.97.36.96.79.96Z"/>
        <path class="cls-2" d="M66.26,108.63c.44,0,.79-.43.79-.96s-.35-.97-.79-.97-.79.43-.79.97.35.96.79.96Z"/>
      </g>
      <g>
        <path class="cls-2" d="M46.11,110.4c.44,0,.79-.43.79-.97s-.35-.96-.79-.96-.79.43-.79.96.35.97.79.97Z"/>
        <path class="cls-2" d="M43.91,110.4c.44,0,.79-.43.79-.97s-.36-.96-.79-.96-.79.43-.79.96.35.97.79.97Z"/>
      </g>
      <g>
        <path class="cls-2" d="M3.76,110.4c.44,0,.79-.43.79-.97s-.35-.96-.79-.96-.79.43-.79.96.35.97.79.97Z"/>
        <path class="cls-2" d="M1.56,110.4c.44,0,.79-.43.79-.97s-.35-.96-.79-.96-.79.43-.79.96.35.97.79.97Z"/>
      </g>
      <g>
        <path class="cls-2" d="M89.25,112.07c.44,0,.79-.43.79-.97s-.36-.97-.79-.97-.79.43-.79.97.36.97.79.97Z"/>
        <path class="cls-2" d="M87.06,112.07c.44,0,.79-.43.79-.97s-.35-.97-.79-.97-.79.43-.79.97.35.97.79.97Z"/>
      </g>
      <g>
        <path class="cls-2" d="M148.74,106.2c.44,0,.79-.43.79-.96s-.35-.97-.79-.97-.79.43-.79.97.35.96.79.96Z"/>
        <path class="cls-2" d="M146.55,106.2c.43,0,.79-.43.79-.96s-.36-.97-.79-.97-.79.43-.79.97.35.96.79.96Z"/>
      </g>
      <g>
        <path class="cls-2" d="M158.53,110.41c.44,0,.79-.43.79-.97s-.35-.97-.79-.97-.79.44-.79.97.35.97.79.97Z"/>
        <path class="cls-2" d="M156.34,110.41c.44,0,.79-.43.79-.97s-.35-.97-.79-.97-.79.44-.79.97.36.97.79.97Z"/>
      </g>
      <path class="cls-2" d="M182.07,111.51c.43,0,.79-.44.79-.97s-.35-.97-.79-.97-.79.43-.79.97.35.97.79.97Z"/>
      <path class="cls-2" d="M180.9,108.83c.44,0,.79-.43.79-.97s-.35-.96-.79-.96-.79.43-.79.96.35.97.79.97Z"/>
      <path class="cls-2" d="M179.87,111.51c.44,0,.79-.44.79-.97s-.36-.97-.79-.97-.79.43-.79.97.35.97.79.97Z"/>
      <g>
        <path class="cls-2" d="M50.76,121.64c.44,0,.79-.43.79-.97s-.35-.96-.79-.96-.79.43-.79.96.36.97.79.97Z"/>
        <path class="cls-2" d="M48.56,121.64c.44,0,.79-.43.79-.97s-.35-.96-.79-.96-.79.43-.79.96.35.97.79.97Z"/>
      </g>
      <path class="cls-2" d="M71.52,121.64c.44,0,.79-.43.79-.97s-.35-.96-.79-.96-.79.43-.79.96.36.97.79.97Z"/>
      <path class="cls-2" d="M98.86,106.28c.44,0,.79-.43.79-.97s-.35-.97-.79-.97-.79.43-.79.97.35.97.79.97Z"/>
      <path class="cls-2" d="M109.61,110.14c.44,0,.79-.43.79-.97s-.35-.97-.79-.97-.79.43-.79.97.36.97.79.97Z"/>
      <path class="cls-2" d="M56.42,113.65c-1.46,1.76-1,4.47-1,4.47l2.61.05c.05,1.3-.3,2.06-.9,2.01-.52-.04-1.61-.7-1.61-.7-.1.76.82,2.23,2.31,1.96,1.66-.3,1.71-2.81,1.71-2.81v-7.08s-1.66.35-3.11,2.11ZM58.08,116.11h-1.1s.1-1.66,1.1-1.86v1.86Z"/>
      <path class="cls-2" d="M54.21,103.31c-.4.1-1.36-1.56-1.36-1.56l.02,14.43h-2.28v-5.45c-.3.7-1.25,1.71-1.25,1.71v3.72h-2.26v-4.52s-.91.25-1.96.95c-2.79,1.86-1.91,5.38-1.91,5.38h11.03l-.03-14.67ZM45.78,116.16h-1.25s0-1.36,1.25-1.91v1.91Z"/>
    </g>
  </g>
</svg>