<?xml version="1.0" encoding="UTF-8"?>
<svg id="Layer_2" data-name="Layer 2" xmlns="http://www.w3.org/2000/svg" viewBox="0 0 368.5 172.99">
  <defs>
    <style>
      .cls-1 {
        fill: #aadee8;
      }

      .cls-2 {
        fill: #a5dde7;
      }

      .cls-3 {
        fill: #9ad9e4;
      }

      .cls-4 {
        fill: #edf7f9;
      }

      .cls-5 {
        fill: #2cc0d4;
      }

      .cls-6 {
        fill: #cdebf0;
      }

      .cls-7 {
        fill: #32c1d4;
      }

      .cls-8 {
        fill: #b2e1ea;
      }

      .cls-9 {
        fill: #b1e1ea;
      }

      .cls-10 {
        fill: #6eccdc;
      }

      .cls-11 {
        fill: #00728f;
      }

      .cls-12 {
        fill: #76cedd;
      }

      .cls-13 {
        fill: #c6e8ef;
      }

      .cls-14 {
        fill: #98d8e4;
      }

      .cls-15 {
        fill: #d5eef2;
      }

      .cls-16 {
        fill: #5daac0;
      }

      .cls-17 {
        fill: #b9e4ec;
      }

      .cls-18 {
        fill: #eff8fa;
      }

      .cls-19 {
        fill: #ffe14f;
      }

      .cls-20 {
        fill: #008752;
      }

      .cls-21 {
        fill: #d4edf2;
      }

      .cls-22 {
        fill: #7bcfde;
      }

      .cls-23 {
        fill: #c5e8ee;
      }

      .cls-24 {
        fill: #8cd4e1;
      }

      .cls-25 {
        fill: #caeaf0;
      }

      .cls-26 {
        fill: #90d6e2;
      }

      .cls-27 {
        fill: #a1dbe6;
      }

      .cls-28 {
        fill: #00b5cc;
      }

      .cls-29 {
        fill: #def1f4;
      }

      .cls-30 {
        fill: #ebf7f8;
      }

      .cls-31 {
        fill: #5dc8d9;
      }

      .cls-32 {
        fill: #bbe4ec;
      }
    </style>
  </defs>
  <g id="Layer_1-2" data-name="Layer 1">
    <path class="cls-16" d="M17.71,164.77c0-1.39-.36-2.67-1.08-3.85-.78-1.27-1.86-2.28-3.25-3.02-1.38-.74-2.88-1.11-4.5-1.11s-3.23.4-4.67,1.2c-1.31.73-2.33,1.69-3.06,2.89-.74,1.18-1.11,2.47-1.11,3.84s.36,2.62,1.07,3.78c.77,1.25,1.85,2.25,3.23,2.99,1.39.72,2.88,1.09,4.49,1.09,1.89,0,3.6-.5,5.13-1.5l1.27,1.22h2.41l-2.38-2.17c1.63-1.65,2.44-3.44,2.44-5.37M13.94,168.91l-2.91-2.75h-2.48l4.09,3.71c-1.13.73-2.41,1.1-3.83,1.1-1.93,0-3.56-.61-4.88-1.81-1.32-1.22-1.97-2.7-1.97-4.44,0-1.1.27-2.12.81-3.04.61-1.02,1.45-1.84,2.53-2.41,1.08-.59,2.28-.89,3.57-.89,1.99,0,3.64.62,4.97,1.84,1.31,1.22,1.95,2.72,1.95,4.52,0,1.55-.62,2.94-1.85,4.18"/>
    <path class="cls-16" d="M21.7,172.3h2.07l2.8-5.99h5.76l2.74,5.99h2.08l-7.62-15.99-7.82,15.99ZM27.34,164.72l2.15-4.44,2.09,4.44h-4.24Z"/>
    <polygon class="cls-16" points="39.11 158.62 43.21 158.62 43.21 172.3 45.11 172.3 45.11 158.62 49.24 158.62 49.24 157.04 39.11 157.04 39.11 158.62"/>
    <path class="cls-16" d="M51.25,172.3h2.06l2.8-5.99h5.76l2.75,5.99h2.08l-7.62-15.99-7.82,15.99ZM56.88,164.72l2.15-4.44,2.09,4.44h-4.24Z"/>
    <path class="cls-16" d="M79.13,164.19c.77-.74,1.16-1.69,1.16-2.87,0-1.55-.62-2.7-1.88-3.46-.91-.54-2.27-.82-4.07-.82h-2.74v15.26h1.9v-6.69h.48l5.12,6.69h2.32l-5.4-6.83c1.3-.1,2.34-.52,3.1-1.28M73.5,164.1v-5.48h1.13c2.52,0,3.79.9,3.79,2.7s-1.24,2.78-3.73,2.78h-1.18Z"/>
    <polygon class="cls-16" points="95.84 172.3 97.74 172.3 97.74 164.74 103.37 164.74 103.37 163.15 97.74 163.15 97.74 158.62 103.56 158.62 103.56 157.04 95.84 157.04 95.84 172.3"/>
    <polygon class="cls-16" points="109.41 172.3 118.2 172.3 118.2 170.72 111.32 170.72 111.32 164.74 118.01 164.74 118.01 163.15 111.32 163.15 111.32 158.62 118.2 158.62 118.2 157.04 109.41 157.04 109.41 172.3"/>
    <path class="cls-16" d="M131.76,164.19c.77-.74,1.16-1.69,1.16-2.87,0-1.55-.62-2.7-1.88-3.46-.91-.54-2.26-.82-4.07-.82h-2.75v15.26h1.9v-6.69h.49l5.12,6.69h2.31l-5.4-6.83c1.31-.1,2.34-.52,3.11-1.28M126.12,164.1v-5.48h1.13c2.53,0,3.79.9,3.79,2.7s-1.24,2.78-3.74,2.78h-1.19Z"/>
    <polygon class="cls-16" points="137.38 158.62 141.49 158.62 141.49 172.3 143.39 172.3 143.39 158.62 147.52 158.62 147.52 157.04 137.38 157.04 137.38 158.62"/>
    <rect class="cls-16" x="152.61" y="157.04" width="1.9" height="15.26"/>
    <polygon class="cls-16" points="163.37 157.04 161.47 157.04 161.47 172.3 170.15 172.3 170.15 170.72 163.37 170.72 163.37 157.04"/>
    <rect class="cls-16" x="175.45" y="157.04" width="1.9" height="15.26"/>
    <path class="cls-16" d="M190.16,163.67c-1.57-.62-2.55-1.05-2.95-1.29-.71-.42-1.05-.97-1.05-1.64s.27-1.28.83-1.71c.53-.44,1.19-.65,1.97-.65s1.48.23,2.03.66c.28.21.58.55.89,1.01l1.49-.88c-1.01-1.59-2.48-2.38-4.38-2.38-1.14,0-2.16.29-3.05.88-1.14.75-1.69,1.77-1.69,3.06,0,1.58,1.15,2.83,3.43,3.76,1.6.64,2.61,1.08,3.01,1.32.93.53,1.4,1.26,1.4,2.17s-.34,1.57-.99,2.15c-.67.57-1.45.86-2.42.86-1.19,0-2.12-.42-2.78-1.23-.29-.36-.53-.88-.68-1.58l-1.84.46c.31,1.23.91,2.19,1.79,2.87.91.72,2.06,1.08,3.45,1.08s2.6-.39,3.61-1.18c1.18-.92,1.78-2.1,1.78-3.52,0-1.05-.37-1.93-1.12-2.65-.58-.55-1.49-1.07-2.72-1.56"/>
    <polygon class="cls-16" points="200.02 172.3 208.81 172.3 208.81 170.72 201.92 170.72 201.92 164.74 208.62 164.74 208.62 163.15 201.92 163.15 201.92 158.62 208.81 158.62 208.81 157.04 200.02 157.04 200.02 172.3"/>
    <path class="cls-16" d="M222.37,164.19c.77-.74,1.15-1.69,1.15-2.87,0-1.55-.62-2.7-1.88-3.46-.91-.54-2.26-.82-4.06-.82h-2.74v15.26h1.9v-6.69h.49l5.11,6.69h2.32l-5.4-6.83c1.31-.1,2.34-.52,3.11-1.28M216.74,164.1v-5.48h1.13c2.52,0,3.8.9,3.8,2.7s-1.24,2.78-3.74,2.78h-1.18Z"/>
    <path class="cls-16" d="M242.47,157.91c-1.33.73-2.39,1.68-3.17,2.9-.77,1.22-1.16,2.52-1.16,3.9,0,1.28.34,2.48,1,3.61.85,1.44,2.09,2.56,3.74,3.33,1.29.62,2.64.92,4.07.92,1.8,0,3.5-.49,5.11-1.49v-2.12c-1.6,1.35-3.3,2.01-5.13,2.01-1.66,0-3.17-.52-4.53-1.58-1.55-1.21-2.34-2.76-2.34-4.65,0-1.02.26-1.99.77-2.92.58-1.03,1.42-1.88,2.51-2.51,1.09-.62,2.28-.94,3.57-.94,1.06,0,2.1.23,3.12.68.62.28,1.29.73,2.02,1.34v-2.12c-1.61-1-3.28-1.5-5.02-1.5-1.65,0-3.17.37-4.56,1.12"/>
    <path class="cls-16" d="M270.12,157.84c-1.38-.73-2.84-1.07-4.39-1.06-2.35.01-4.37.74-6.05,2.17-1.86,1.57-2.8,3.45-2.8,5.62,0,1.48.39,2.83,1.14,4.03.77,1.21,1.84,2.18,3.22,2.9,1.38.72,2.84,1.08,4.38,1.08,1.65,0,3.17-.37,4.58-1.12,1.35-.71,2.41-1.69,3.18-2.87.77-1.2,1.16-2.51,1.16-3.91s-.41-2.75-1.21-3.96c-.8-1.21-1.86-2.18-3.22-2.88M271.77,167.74c-.61,1-1.46,1.79-2.56,2.37-1.1.58-2.29.87-3.55.87-1.95,0-3.58-.63-4.9-1.89-1.31-1.24-1.96-2.74-1.96-4.49,0-1.51.56-2.86,1.69-4.04,1.4-1.46,3.15-2.19,5.24-2.18,1.89,0,3.49.61,4.79,1.76,1.4,1.24,2.11,2.76,2.11,4.54,0,1.08-.29,2.11-.86,3.05"/>
    <polygon class="cls-16" points="289.08 169.2 280.96 156.4 280.05 156.4 280.05 172.3 281.95 172.3 281.95 161.32 289.18 172.3 295.65 161.32 295.65 172.3 297.55 172.3 297.55 156.4 296.66 156.4 289.08 169.2"/>
    <path class="cls-16" d="M311.15,157.99c-1-.63-2.37-.95-4.1-.95h-3.09v15.26h1.9v-6.69h1.65c1.6,0,2.86-.35,3.82-1.05,1.03-.75,1.56-1.84,1.56-3.23,0-1.5-.58-2.62-1.74-3.34M307.41,164.06h-1.54v-5.43h1.41c2.5,0,3.75.9,3.75,2.68s-1.2,2.75-3.61,2.75"/>
    <path class="cls-16" d="M314.98,172.3h2.06l2.8-5.99h5.75l2.75,5.99h2.07l-7.62-15.99-7.82,15.99ZM320.61,164.72l2.16-4.44,2.09,4.44h-4.25Z"/>
    <polygon class="cls-16" points="348.55 168.86 335.32 156.4 335.32 172.3 337.23 172.3 337.23 160.54 350.46 172.99 350.46 157.04 348.55 157.04 348.55 168.86"/>
    <polygon class="cls-16" points="361.88 163.85 357.57 157.04 355.38 157.04 360.94 165.73 360.94 172.3 362.82 172.3 362.82 165.73 368.48 157.04 366.28 157.04 361.88 163.85"/>
    <path class="cls-16" d="M7.52,132.88c.76,0,1.12-.36,1.12-1.12,0-.71-.52-1.2-1.12-1.2-.75,0-1.14.39-1.14,1.14s.39,1.18,1.14,1.18"/>
    <path class="cls-16" d="M4.09,132.88c.75,0,1.14-.36,1.14-1.12,0-.71-.52-1.2-1.14-1.2-.78,0-1.17.39-1.17,1.14s.39,1.18,1.17,1.18"/>
    <path class="cls-16" d="M19.65,140.79v3.26c0,1.87-.81,2.81-2.42,2.81h-1.95v-.03h-3.54v.03h-.42c-1.61,0-2.41-.94-2.41-2.79v-9.08c-.55.13-1.23.29-2.06.49l.13,1.44h-1.38c-1.67,0-3.02.49-4.06,1.51-1.02,1.02-1.54,2.34-1.54,4,0,3.21,1.56,5.08,3.96,5.08,1.48-.05,2.65-.39,3.51-1.01.18.37.52.7,1.01,1.01.65.39,1.38.6,2.18.6h7.21c2.06,0,3.33-1.33,3.33-3.59v-7.45l-1.98.49.42,3.22ZM4.58,146.18c-1.96,0-2.92-1.4-2.95-4.19,0-1.2.37-2.18,1.12-3,.75-.8,1.64-1.19,2.65-1.22.47-.03,1.04-.03,1.74-.03l.13,7.94c-.99.34-1.9.49-2.7.49"/>
    <path class="cls-16" d="M18.66,151.57c-.75,0-1.15.39-1.15,1.17s.39,1.14,1.15,1.14,1.14-.39,1.14-1.14c0-.65-.52-1.17-1.14-1.17"/>
    <path class="cls-16" d="M16.36,152.74c0-.65-.52-1.17-1.17-1.17-.75,0-1.15.39-1.15,1.17s.39,1.14,1.15,1.14,1.17-.39,1.17-1.14"/>
    <path class="cls-16" d="M27.66,148.37c.91,0,2.03-.19,3.33-.52,0,2.62-1.22,4.38-3.69,5.28l.41.7c3.26-.9,4.9-3.15,4.9-6.71v-10.05h-3.31c-1.66,0-3.02.57-4.06,1.72-1.01,1.14-1.53,2.66-1.53,4.55,0,3.12,1.56,5.03,3.95,5.03M29.12,137.9h1.87v8.64c-.99.35-1.9.5-2.7.5-1.95,0-2.94-1.4-2.94-4.21,0-3.02,1.35-4.93,3.77-4.93"/>
    <path class="cls-16" d="M75.25,153.83c.78,0,1.17-.36,1.17-1.09,0-.65-.52-1.17-1.17-1.17-.75,0-1.14.39-1.14,1.14s.39,1.12,1.14,1.12"/>
    <path class="cls-16" d="M72.99,152.74c0-.65-.55-1.17-1.15-1.17-.76,0-1.15.39-1.15,1.14s.39,1.12,1.15,1.12,1.15-.36,1.15-1.09"/>
    <path class="cls-16" d="M102.88,134.99v9.06c0,1.87-.8,2.81-2.45,2.81h-2.91v-.02h-2.42v-5.36c0-1.3-.55-2.37-1.64-3.18-1.1-.8-2.5-1.22-4.24-1.22h-5.86l3.07-3.38,2.6-2.39h-2.11c-1.56,2.05-3.64,4.39-6.27,7.08h7.99c2.99,0,4.92,1.35,4.92,3.56v4.92h-14.83c-1.59,0-2.36-.94-2.36-2.79v-7l-2.01.49.42,3.28v3.2c0,1.87-.81,2.81-2.42,2.81h-1.09v-.02h-3.54v.02h-.9c-1.64,0-2.45-.94-2.42-2.81v-2.86l.23-2.53c-.96-.34-2.03-.49-3.2-.49-3.62,0-5.89,2.4-5.99,6.36-.05,1.56-.84,2.34-2.34,2.34h-.68v-.02h-11.66v.02h-.91c-1.59,0-2.39-.94-2.39-2.81v-12.73l-1.98.47.42,3.1v9.63c0,2.39,1.12,3.59,3.33,3.59h14.57c.85,0,1.56-.26,2.13-.75.67,1.58,1.77,2.36,3.25,2.36,1.67,0,3.41-1.12,4.43-2.76.78.76,1.64,1.15,2.6,1.15h6.87c1.04,0,1.85-.36,2.44-1.09.62.73,1.49,1.09,2.6,1.09h22.92c2.09,0,3.36-1.33,3.36-3.59v-13.22l-1.95.49.41,3.2ZM62.84,146.78c-.86,1.07-1.87,1.62-3.05,1.62-1.66,0-2.73-1.77-2.73-4.35,0-1.46.29-2.6.88-3.46.65-.99,1.64-1.48,2.92-1.48.49,0,1.07.1,1.72.29l.26,1.97v5.42Z"/>
    <polygon class="cls-16" points="107.25 131.48 107.61 134.39 107.61 148.11 109.18 148.11 109.18 134.39 109.41 131.3 107.25 131.48"/>
    <path class="cls-16" d="M125.05,143.94v-4.16l.27-2.55c-.97-.35-2.03-.5-3.2-.5-3.62,0-5.86,2.4-5.99,6.35-.05,1.57.34,2.84,1.15,3.85.76.91,1.69,1.35,2.86,1.35,1.67,0,3.07-.91,4.19-2.76.42-.81.65-1.35.73-1.59M123.49,145.38c-.86,1.07-1.85,1.58-3,1.58-1.69,0-2.73-1.77-2.73-4.34,0-1.43.29-2.6.86-3.46.65-.99,1.64-1.48,2.91-1.48.49,0,1.07.1,1.72.29l.24,1.97v5.44Z"/>
    <path class="cls-16" d="M123.67,133.61c.75,0,1.14-.39,1.14-1.15,0-.65-.52-1.16-1.14-1.16-.76,0-1.15.39-1.15,1.13,0,.79.39,1.18,1.15,1.18"/>
    <path class="cls-16" d="M120.26,133.61c.75,0,1.12-.39,1.12-1.15,0-.65-.52-1.16-1.12-1.16-.8,0-1.19.39-1.19,1.13,0,.79.39,1.18,1.19,1.18"/>
    <path class="cls-16" d="M184.21,145.98c.91,1.43,2.11,2.13,3.59,2.13,2,0,3.28-1.4,3.28-3.59v-7.45l-2.01.49.44,3.28v3.17c0,1.85-.77,2.76-2.34,2.76-.93,0-1.87-.52-2.79-1.57v-7.03l-1.54.39v5.44c0,1.85-.8,2.76-2.39,2.76-.75,0-1.54-.39-2.37-1.17.08-.29.1-.58.1-.9v-6.53l-1.54.39-.02,5.47c0,1.87-.8,2.81-2.42,2.81h-3.31c-1.64,0-2.45-.94-2.42-2.81v-2.86l.24-2.53c-.96-.34-2.03-.49-3.2-.49-3.62,0-5.88,2.4-5.99,6.36-.05,1.56-.83,2.34-2.34,2.34h-.67v-.02h-17.07v.02h-2.86v-4.26c-.03-1.74-.46-3.15-1.35-4.21-.89-1.1-2.03-1.64-3.44-1.64l-.15,1.51c.34-.18.7-.28,1.07-.28,1.35,0,2.31,1.63,2.31,4.16v4.24l-.05.49h-6.89l-.29,1.25h30.11c.85,0,1.56-.26,2.13-.75.68,1.58,1.77,2.36,3.26,2.36,1.67,0,3.41-1.12,4.43-2.76.78.76,1.64,1.15,2.6,1.15h4.55c1.02,0,1.83-.31,2.42-.94.23-.24.42-.49.55-.75.91,1.12,2.03,1.69,3.31,1.69,1.54,0,2.58-.7,3.07-2.13M166.94,146.78c-.86,1.07-1.88,1.62-3.04,1.62-1.67,0-2.73-1.77-2.73-4.35,0-1.46.28-2.6.88-3.46.65-.99,1.64-1.48,2.91-1.48.5,0,1.07.1,1.72.29l.26,1.97v5.42Z"/>
    <path class="cls-16" d="M197.01,132.23l-.68.1h-1.45v-.32c0-1.07.42-1.58,1.25-1.58.28,0,.6.13.88.36l.28-.41c-.44-.45-.93-.65-1.48-.65-1.17,0-1.74.73-1.74,2.16v.44h-.88v.68h4.73l-.91-.78Z"/>
    <path class="cls-16" d="M214.92,131.3l-1.95.49.41,3.2v9.06c0,1.87-.8,2.81-2.44,2.81h-4.01c-1.62,0-2.42-.94-2.42-2.79v-12.93l-2.01.46.44,3.28v9.16c0,.83-.18,1.48-.55,1.96l-6.22-11.35h-2.11l1.87,2.42,5.39,9.68c-.24.08-.49.1-.78.1h-5.28l-.6,1.25h6.56c1.07,0,1.9-.36,2.5-1.09.6.73,1.43,1.09,2.55,1.09h5.28c2.08,0,3.35-1.33,3.35-3.59v-13.22Z"/>
    <path class="cls-16" d="M258.44,148.11h28.39c2.06,0,3.51-.44,4.35-1.33.9-.96,1.35-2.68,1.35-5.15v-1.33c0-1.12-.3-2.01-.96-2.71-.7-.73-1.72-1.08-3-1.08-.97,0-1.8.25-2.47.77-.94.71-1.41,1.75-1.41,3.13,0,2.6,1.29,3.9,3.88,3.9.94,0,1.69-.1,2.29-.34-.02,2.06-1.07,2.89-3.67,2.89h-3.49v-.03h-5.86v-5.1c0-1.29-.54-2.37-1.66-3.17-1.09-.83-2.5-1.24-4.24-1.24-3.7,0-6.74,2.5-9.14,7.52l.21-9.63.26-3.09-2.13.23.3,2.86v11.66h-3.01v-.03h-30.6v.03h-.62c-1.61,0-2.43-.94-2.43-2.79v-7l-2,.49.41,3.28v7.16c0,.96-.23,1.85-.73,2.7-.68,1.12-1.67,1.93-2.99,2.42l.41.7c3.1-.85,4.71-2.88,4.89-6.14.5.29,1.07.42,1.77.42h31.87ZM288.47,143.48c-1.48,0-2.24-.96-2.24-2.9,0-2.21.81-3.31,2.42-3.31s2.34,1.04,2.34,3.11c0,1.43-.03,2.26-.1,2.55-.6.36-1.4.55-2.42.55M271.38,138.64c3,0,4.86,1.3,4.86,3.56v4.63l-13.09.03c2.45-5.49,5.19-8.22,8.23-8.22"/>
    <path class="cls-16" d="M286.78,133.56c.75,0,1.12-.37,1.12-1.1,0-.64-.51-1.16-1.12-1.16-.76,0-1.15.39-1.15,1.13s.39,1.12,1.15,1.12"/>
    <path class="cls-16" d="M290.19,133.56c.75,0,1.14-.37,1.14-1.1,0-.64-.52-1.16-1.14-1.16-.76,0-1.15.39-1.15,1.13s.39,1.12,1.15,1.12"/>
    <path class="cls-16" d="M303.33,132.88c.75,0,1.13-.36,1.13-1.12,0-.71-.51-1.2-1.13-1.2-.79,0-1.18.39-1.18,1.14s.39,1.18,1.18,1.18"/>
    <path class="cls-16" d="M306.76,132.88c.75,0,1.12-.36,1.12-1.12,0-.71-.51-1.2-1.12-1.2-.75,0-1.15.39-1.15,1.14s.4,1.18,1.15,1.18"/>
    <path class="cls-16" d="M316.38,148.11h18.71v-6.63c0-1.31-.54-2.37-1.67-3.18-1.09-.8-2.51-1.22-4.23-1.22h-5.81l3.02-3.38,2.6-2.39h-2.08c-1.58,2.05-3.66,4.39-6.3,7.08h8c2.99,0,4.92,1.35,4.92,3.56v4.92h-13.62v-.03h-8.95v.03h-.41c-1.62,0-2.42-.94-2.42-2.79v-9.08c-.55.13-1.22.29-2.06.49l.13,1.44h-1.38c-1.66,0-3.01.49-4.05,1.51-1.02,1.02-1.53,2.34-1.53,4,0,3.21,1.56,5.08,3.95,5.08,1.48-.05,2.66-.39,3.51-1.01.18.37.53.7,1.02,1.01.65.39,1.38.6,2.18.6h6.48ZM303.83,146.18c-1.96,0-2.92-1.4-2.95-4.19,0-1.2.36-2.18,1.12-3,.75-.8,1.64-1.19,2.66-1.22.47-.03,1.04-.03,1.74-.03l.13,7.94c-.98.34-1.9.49-2.7.49"/>
    <path class="cls-16" d="M361.59,132.44c0,.75.36,1.12,1.11,1.12s1.15-.37,1.15-1.1c0-.64-.53-1.16-1.15-1.16-.74,0-1.11.39-1.11,1.13"/>
    <path class="cls-16" d="M361.01,130.52c.75,0,1.12-.39,1.12-1.14,0-.63-.51-1.18-1.12-1.18-.76,0-1.14.39-1.14,1.18s.38,1.14,1.14,1.14"/>
    <path class="cls-16" d="M359.29,133.56c.75,0,1.14-.37,1.14-1.1,0-.64-.52-1.16-1.14-1.16-.75,0-1.14.39-1.14,1.13s.39,1.12,1.14,1.12"/>
    <path class="cls-16" d="M366.48,137.57l.44,3.28v3.17c0,1.85-.78,2.76-2.35,2.76-.93,0-1.88-.53-2.78-1.57v-7.03l-1.54.39v5.44c0,1.85-.79,2.76-2.39,2.76-.75,0-1.54-.39-2.37-1.17.08-.29.11-.58.11-.9v-6.53l-1.54.39-.03,5.47c0,1.87-.81,2.81-2.42,2.81h-1.57v-.03h-6.25v.03h-.62c-1.62,0-2.42-.94-2.42-2.79v-7l-2.01.49.41,3.28v7.16c0,.96-.23,1.85-.73,2.7-.68,1.12-1.66,1.93-2.99,2.42l.41.7c3.1-.85,4.71-2.88,4.89-6.15.49.29,1.07.42,1.77.42h9.74c1.01,0,1.82-.31,2.42-.94.24-.24.41-.49.55-.75.9,1.12,2.02,1.69,3.3,1.69,1.53,0,2.57-.7,3.07-2.13.9,1.43,2.11,2.13,3.59,2.13,2.01,0,3.28-1.4,3.28-3.59v-7.45l-2,.49Z"/>
    <path class="cls-11" d="M289.96,45.35c1.72-2.97,2.57-6.21,2.57-9.67s-.88-6.8-2.68-9.8c-1.78-3.01-4.15-5.4-7.18-7.14-3.06-1.79-6.31-2.66-9.77-2.63-5.24.06-9.75,1.86-13.49,5.4-4.15,3.9-6.23,8.56-6.23,13.93,0,3.65.86,6.98,2.55,9.97.98,1.7,2.2,3.19,3.61,4.5h-26.7s-.02-.02-.02-.02h-3.57c-2.76-6.35-6.66-15.93-7.31-17.64-2.36-5.69-5.93-10.16-11.54-10.4l17.98-19.58c1.84-.68,6.63-1.5,8.24-2.23h-14.23l-22.22,26.2c1.62-.57,3.09-.65,4.63-.65,5.12,0,8.93,2.92,11.38,8.45,1.79,4.15,6.24,15.85,6.24,15.85h-46.59v.02s-3.95,0-3.95,0l.17-.17h-.01s.08-.06.1-.09c2.61-2.61,4.35-5.64,5.25-9.17.88-3.39.86-6.74-.02-10.05-.88-3.31-2.57-6.2-5.01-8.65-2.5-2.51-5.44-4.19-8.83-5.04-3.39-.88-6.75-.88-10.12.02-3.45.9-6.34,2.58-8.77,5.05-3.66,3.74-5.58,8.21-5.72,13.35-.17,5.7,1.65,10.45,5.45,14.25,2.58,2.58,5.54,4.33,8.85,5.25,2,.54,4.01.72,6.05.61l-12.42,11.96,3.78,3.86,15.91-15.87h11.59v.02h56.02c.09,0,.17-.01.25-.02h36.12l1.71-.02c.23,0,.45.02.68.02,3.67,0,7.06-.91,10.19-2.77,3.01-1.78,5.37-4.16,7.08-7.11M158.15,50.26c-3.97-.11-7.39-1.62-10.28-4.5-2.48-2.48-3.88-5.54-4.13-9.13-.33-4.49,1.04-8.25,4.15-11.32,2.81-2.78,6.16-4.17,9.97-4.22,4.12-.03,7.67,1.42,10.61,4.36,1.79,1.79,3.03,3.88,3.75,6.28.74,2.54.79,5.09.11,7.68-.68,2.6-1.95,4.82-3.82,6.69-1.95,1.96-4.15,3.22-6.62,3.79h-.36l-.04.08c-1.07.22-2.18.31-3.34.28M272.75,50.31c-4.08,0-7.49-1.45-10.27-4.39-2.72-2.88-4.08-6.36-4.08-10.44,0-3.51,1.17-6.65,3.54-9.39,2.94-3.4,6.57-5.09,10.94-5.06,3.95.02,7.3,1.4,10.03,4.08,2.95,2.88,4.43,6.42,4.43,10.57,0,2.52-.6,4.88-1.8,7.1-1.28,2.31-3.04,4.15-5.36,5.51-2.31,1.35-4.78,2.02-7.43,2.02"/>
    <path class="cls-11" d="M348.5,55.22h.15c3.68,0,7.06-.91,10.19-2.77,3.01-1.78,5.37-4.16,7.08-7.11,1.73-2.97,2.57-6.21,2.57-9.67s-.88-6.8-2.68-9.8c-1.77-3.01-4.15-5.4-7.17-7.14-3.07-1.79-6.32-2.66-9.78-2.63-5.24.06-9.75,1.86-13.49,5.4-4.15,3.9-6.23,8.56-6.23,13.93,0,3.65.86,6.97,2.55,9.97,1.03,1.79,2.34,3.34,3.84,4.71l-17.63-.2c-4.09,0-7.38-1.02-9.61-3.05-2.24-2.01-3.32-4.92-3.31-8.39l.08-33.57.09-2.6v-.14c2.02-.67,6.42-1.44,7.94-2.13h-14.22l.02.06c0,5.61-.08,38.65-.08,38.73.08,9.65,6.21,15.45,16.71,16.31l1.01.09h31.96,0ZM338.45,45.91c-2.73-2.88-4.08-6.36-4.08-10.44,0-3.51,1.17-6.65,3.54-9.39,2.94-3.4,6.58-5.1,10.94-5.06,3.95.03,7.3,1.4,10.03,4.08,2.95,2.88,4.43,6.42,4.43,10.57,0,2.52-.6,4.88-1.79,7.1-1.28,2.31-3.05,4.16-5.36,5.51-2.31,1.35-4.78,2.02-7.43,2.02-4.08,0-7.48-1.45-10.27-4.39"/>
    <path class="cls-11" d="M272.91,6.66c1.83,0,3.31-1.48,3.31-3.32s-1.48-3.31-3.31-3.31-3.32,1.48-3.32,3.31,1.49,3.32,3.32,3.32"/>
    <path class="cls-11" d="M342.38,6.66c1.84,0,3.32-1.48,3.32-3.32s-1.48-3.31-3.32-3.31-3.31,1.48-3.31,3.31,1.48,3.32,3.31,3.32"/>
    <path class="cls-11" d="M355.6,6.66c1.83,0,3.31-1.48,3.31-3.32s-1.47-3.31-3.31-3.31-3.31,1.48-3.31,3.31,1.48,3.32,3.31,3.32"/>
    <path class="cls-11" d="M188.08,98.93c0-4.31-1.01-8.3-3.02-11.95-2.19-3.96-5.21-7.08-9.06-9.38-3.86-2.33-8.06-3.48-12.58-3.48s-9.03,1.25-13.06,3.75c-3.65,2.26-6.5,5.25-8.55,8.96-2.05,3.69-3.09,7.67-3.09,11.95s1,8.13,2.98,11.75c2.15,3.89,5.18,6.98,9.03,9.28,3.89,2.25,8.06,3.4,12.54,3.4,5.28,0,10.08-1.56,14.35-4.66l4.38,4.66h6.74l-7.47-7.61c4.55-5.11,6.8-10.66,6.8-16.67M177.55,111.82l-8.13-8.55h-6.94l11.43,11.54c-3.17,2.26-6.74,3.4-10.7,3.4-5.39,0-9.94-1.88-13.62-5.63-3.68-3.79-5.52-8.38-5.52-13.8,0-3.44.76-6.59,2.26-9.45,1.7-3.2,4.07-5.7,7.09-7.51,3.02-1.84,6.36-2.74,9.97-2.74,5.56,0,10.19,1.91,13.9,5.7,3.64,3.79,5.46,8.45,5.46,14.03,0,4.83-1.74,9.14-5.18,13"/>
    <polygon class="cls-11" points="243.92 123.2 249.23 123.2 249.23 98.86 264.97 98.86 264.97 93.93 249.23 93.93 249.23 79.85 265.49 79.85 265.49 74.92 243.92 74.92 243.92 123.2"/>
    <path class="cls-11" d="M285.23,77.64c-3.72,2.26-6.67,5.25-8.85,9.03-2.16,3.78-3.24,7.81-3.24,12.12,0,3.96.95,7.72,2.79,11.22,2.36,4.48,5.83,7.95,10.42,10.35,3.61,1.91,7.4,2.85,11.35,2.85,5.04,0,9.8-1.53,14.28-4.62v-6.6c-4.44,4.17-9.2,6.25-14.31,6.25-4.62,0-8.85-1.63-12.64-4.93-4.34-3.76-6.53-8.59-6.53-14.45,0-3.17.73-6.19,2.16-9.08,1.62-3.22,3.95-5.83,7.01-7.78,3.07-1.95,6.4-2.92,9.97-2.92,2.96,0,5.87.69,8.72,2.12,1.74.86,3.62,2.25,5.62,4.16v-6.57c-4.48-3.12-9.13-4.69-14-4.69-4.62,0-8.85,1.19-12.75,3.51"/>
    <path class="cls-11" d="M365.13,86.39c-2.21-3.78-5.18-6.77-8.95-8.96-3.83-2.26-7.88-3.33-12.2-3.3-6.53.07-12.16,2.33-16.82,6.77-5.18,4.9-7.78,10.74-7.78,17.48,0,4.59,1.08,8.76,3.18,12.51,2.14,3.75,5.11,6.74,8.95,9,3.84,2.22,7.91,3.33,12.2,3.33,4.59,0,8.8-1.15,12.7-3.48,3.76-2.22,6.7-5.21,8.84-8.93,2.14-3.71,3.22-7.78,3.22-12.12s-1.11-8.54-3.35-12.3M360.78,108.17c-1.69,3.09-4.05,5.56-7.12,7.36-3.07,1.8-6.35,2.71-9.88,2.71-5.42,0-9.95-1.95-13.64-5.87-3.63-3.85-5.43-8.51-5.43-13.97,0-4.69,1.56-8.89,4.7-12.54,3.91-4.54,8.74-6.8,14.54-6.77,5.26.03,9.71,1.87,13.34,5.46,3.91,3.85,5.88,8.57,5.88,14.13,0,3.37-.8,6.53-2.39,9.49"/>
    <path class="cls-11" d="M217.24,77.27l-2.23-4.04-2.24,4.04c-6.76,12.26-13.5,27.19-19.88,44.21l-.65,1.73h14.25c-1.68-.77-6.38-1.52-8.04-2.23,2.87-7.54,5.81-14.65,8.78-21.26h15.55c2.97,6.62,5.91,13.72,8.79,21.27-1.66.7-6.35,1.45-8.03,2.22h14.23l-.65-1.72c-6.38-17.03-13.12-31.97-19.89-44.22M209.49,94.79c1.84-3.89,3.68-7.61,5.52-11.1,1.84,3.5,3.68,7.21,5.51,11.1h-11.03Z"/>
    <path class="cls-10" d="M22.88,89.86l-20.83-14c1.89,7.92,5.32,15.33,10.02,21.82l10.81-7.82h0Z"/>
    <path class="cls-22" d="M109.59,69.21l1.88,9.64,2.93,15h0c4.13-6.69,7.03-14.28,8.35-22.52l-13.17-2.12Z"/>
    <path class="cls-7" d="M9.51,29.31c-4.12,6.7-7.03,14.29-8.35,22.54l13.17,2.11-4.82-24.65Z"/>
    <path class="cls-23" d="M94.23,9.14c-6.69-4.13-14.29-7.03-22.53-8.35l-2.11,13.17,24.64-4.82Z"/>
    <path class="cls-8" d="M47.68,1.67c-7.92,1.9-15.33,5.32-21.82,10.03l7.82,10.81L47.68,1.67Z"/>
    <path class="cls-9" d="M101.04,33.3l5.3,3.56.47.3,15.06,10.13c-1.89-7.92-5.32-15.33-10.02-21.82l-10.81,7.82Z"/>
    <path class="cls-23" d="M98.06,111.46l-7.82-10.8-14,20.82c7.92-1.89,15.33-5.32,21.82-10.02"/>
    <path class="cls-24" d="M29.69,114.04c6.69,4.12,14.28,7.03,22.53,8.35l2.11-13.18-24.64,4.82Z"/>
    <path class="cls-13" d="M121.87,47.32l-12.28,21.9,13.17,2.11c1.32-8.24.93-16.37-.89-24.01"/>
    <path class="cls-26" d="M1.16,51.85c-1.32,8.24-.93,16.36.89,24l12.28-21.89-13.17-2.11Z"/>
    <path class="cls-17" d="M22.88,89.86h0l-10.81,7.82c4.7,6.5,10.67,12.07,17.6,16.34l-6.79-24.15s0-.01,0-.01"/>
    <path class="cls-3" d="M111.84,25.48c-4.7-6.49-10.67-12.07-17.6-16.34l6.79,24.16,10.81-7.82Z"/>
    <path class="cls-30" d="M69.59,13.95l2.11-13.17c-8.25-1.33-16.37-.93-24.02.89h0l21.9,12.28Z"/>
    <path class="cls-28" d="M25.85,11.7c-6.49,4.7-12.07,10.67-16.34,17.59l24.16-6.78-7.82-10.81Z"/>
    <path class="cls-5" d="M52.22,122.39c8.24,1.31,16.36.92,24-.9l-21.9-12.28-2.11,13.18Z"/>
    <path class="cls-31" d="M114.4,93.87l-24.16,6.8,7.82,10.8c6.49-4.7,12.07-10.66,16.34-17.6"/>
    <polygon class="cls-8" points="66.99 30.21 79.98 32.29 69.59 13.96 53.99 28.12 66.99 30.21"/>
    <polygon class="cls-18" points="56.93 92.96 43.94 90.87 43.94 90.88 54.32 109.21 54.33 109.21 54.33 109.2 69.93 95.04 56.93 92.96"/>
    <polygon class="cls-29" points="93.34 66.62 91.25 79.61 94.93 77.52 92.12 79.12 109.59 69.21 95.42 53.62 93.34 66.62"/>
    <polygon class="cls-3" points="28.5 69.55 30.58 56.56 32.67 43.56 14.34 53.95 14.33 53.95 28.5 69.55"/>
    <polygon class="cls-2" points="91.25 79.62 91.25 79.61 80.59 87.32 69.93 95.04 90.24 100.66 90.24 100.65 91.25 79.62"/>
    <polygon class="cls-12" points="32.67 43.55 32.67 43.55 43.32 35.84 53.99 28.13 53.98 28.12 33.68 22.51 33.68 22.51 32.66 43.55 32.67 43.55"/>
    <polygon class="cls-22" points="43.93 90.87 43.93 90.87 36.22 80.22 28.5 69.55 28.5 69.56 28.5 69.56 22.88 89.86 22.89 89.86 22.89 89.86 43.93 90.88 43.93 90.87"/>
    <polygon class="cls-4" points="95.41 53.62 95.41 53.62 101.04 33.3 79.99 32.29 79.99 32.3 87.7 42.95 95.41 53.62"/>
    <polygon class="cls-32" points="109.59 69.21 109.59 69.21 92.12 79.12 91.26 79.61 91.25 79.61 91.25 79.62 90.24 100.65 90.24 100.65 90.25 100.65 114.39 93.86 114.41 93.85 111.47 78.85 109.59 69.21"/>
    <polygon class="cls-14" points="69.93 95.04 69.93 95.04 54.33 109.2 54.35 109.22 76.23 121.48 90.24 100.66 90.25 100.66 69.93 95.04"/>
    <polygon class="cls-21" points="53.99 28.13 53.99 28.13 53.99 28.12 69.59 13.95 47.69 1.67 47.68 1.69 33.69 22.5 33.68 22.51 53.99 28.12 53.99 28.13"/>
    <polygon class="cls-13" points="32.67 43.56 32.67 43.56 32.67 43.55 32.67 43.55 33.68 22.51 33.67 22.51 9.52 29.31 9.52 29.31 14.33 53.94 14.34 53.95 32.67 43.56"/>
    <polygon class="cls-1" points="28.5 69.56 28.5 69.55 28.5 69.55 14.33 53.95 14.32 53.97 2.06 75.85 2.06 75.86 22.87 89.85 22.88 89.86 28.5 69.56 28.5 69.56"/>
    <polygon class="cls-25" points="43.93 90.88 43.93 90.87 43.93 90.88 22.89 89.86 22.89 89.88 29.69 114.01 29.69 114.03 54.32 109.21 54.32 109.21 43.94 90.88 43.93 90.88"/>
    <polygon class="cls-27" points="101.04 33.3 101.04 33.3 95.41 53.62 95.42 53.62 109.59 69.21 121.87 47.32 121.87 47.31 121.86 47.31 106.8 37.17 101.04 33.3"/>
    <polygon class="cls-15" points="79.98 32.29 79.99 32.3 79.99 32.29 101.04 33.3 100.63 31.87 94.24 9.15 94.23 9.13 69.59 13.95 79.98 32.29"/>
    <polygon class="cls-6" points="53.99 28.12 32.67 43.55 28.5 69.55 43.93 90.88 69.93 95.04 91.25 79.62 95.41 53.62 79.99 32.29 53.99 28.12"/>
    <path class="cls-20" d="M50.89,109.67s.04.02.11.05c1.2.57,12.4,3.43,21.55-5.54,11.82-11.59,2.49-31.89-13.66-42.18-1.52-.96-2.95-1.96-4.34-2.96-9.35-6.79-15.73-14.35-18.52-21.95-1.71-4.67-1.72-9.28-.91-13.89.8-4.54,2.56-7.75,4.31-10.68C44.18,4.65,51.05,1.16,58.33.12,31.25,1.69,8.86,20.75,2.32,46.19c0,0,0,.02,0,.02-.17.67-.32,1.36-.47,2.05-.12.55-.23,1.09-.34,1.65-.72,3.89-1.11,7.91-1.11,12.03.13,22.8,12.65,42.66,31.17,53.19,14.12,4.31,19.33-5.47,19.33-5.47"/>
    <path class="cls-19" d="M41.02,103.36c5.34,4.54,9.6,6.83,9.63,6.84v-.05s2.31,8.11,13.33,11.15c11.34,3.12,18.45-2.11,20.77-4.55.85-.9-.07-4.72-.07-4.72,0,0-1.13-.75-2.25.44-1.13,1.2-4.95,5.39-13.36,5.39-12.73,0-15.61-7.18-15.61-7.18-4.79-7.99-6.56-18.53-5.08-29.66,1.46-10.9,4.63-18.2,6.5-21.73-.1-.08-.22-.15-.32-.23-2.57,4.46-4.87,9.98-6.39,16.78-3.27,14.66-1.59,24.48,1.17,30.8-4.58-2.91-14.48-10.01-21.01-20.56-1.85-7.43-3.45-17.88-1.43-27.74,1.93-9.43,6.13-16.65,9.23-20.97-.03-.08-.06-.16-.09-.24-3.96,4.86-7.93,11.66-10.23,20.92-2,8.04-1.03,17.16.48,24.38-.36-.74-.72-1.47-1.05-2.23-7.14-16.54-6.75-34.5-4.69-44.15,6.85-13.34,14.24-19.93,18.52-22.88.11-.19.22-.37.33-.56-8.38,4.83-14.38,13.26-17.54,18.54,4.42-14.76,12.83-21.57,21.7-26.59,4.29-2.42,8.12-3.51,10.23-3.98-.65.08-1.29.19-1.93.29-7.59,1.73-25.05,8.22-31.57,31.98-.76,2.89-1.3,6-1.64,9.23-.5-1.35-2.23-6.22-3.09-11.87-.7-4.59-.72-7.14-.66-8.29-.11.14-.23.27-.35.41-.08,1.57-.13,5.68,1.01,12.2,1.2,6.86,2.4,10.03,2.81,10.95-.1,1.58-.14,3.19-.14,4.81,0,11.17,2.25,22.99,6.72,32.55C11.9,75.28,4.6,58.67,1.51,49.85c0,0,0,.02,0,.02-.06.36-.11.71-.17,1.07,1.85,5.71,6.38,17.43,14.54,26.08,4.35,4.6,7.75,7.04,10.32,8.28.11.2.22.42.33.62,3.54,6.41,8.06,11.54,12.23,15.4-3.81-.13-9.93-.95-17.13-4.18-6.6-2.96-11.79-6.64-15.78-10.2.23.51.48,1.03.72,1.53,4.38,3.57,11.4,8.62,19.21,11.61,6.31,2.41,11.75,3.11,15.24,3.27"/>
  </g>
</svg>