<?xml version="1.0" encoding="UTF-8"?>
<svg id="Layer_2" data-name="Layer 2" xmlns="http://www.w3.org/2000/svg" viewBox="0 0 135.89 52.69">
  <defs>
    <style>
      .cls-1 {
        fill: #8a1739;
      }
    </style>
  </defs>
  <g id="Layer_1-2" data-name="Layer 1">
    <path class="cls-1" d="M39.12,36.19c-.93-.06-3.69.32-3.73.33h0s0,0,0,0h0,0s-.87,2.69-.97,3.62c-.07.66.23,1.32.7,1.87l5.58,6.65c2.13-1.33,4.06-2.95,5.72-4.81l-5.58-6.65c-.46-.56-1.06-.96-1.72-1.01"/>
    <path class="cls-1" d="M44.67,25.45c-.71-.13-1.43-.06-1.97.33-.75.55-2.62,2.62-2.65,2.65h0,0s0,0,0,0h0s1.06,2.62,1.58,3.4c.37.55,1.02.86,1.73.98l8.55,1.51c.76-2.33,1.21-4.8,1.29-7.36l-8.54-1.51Z"/>
    <path class="cls-1" d="M38.76,15.5c-.23.9-.32,3.69-.33,3.73h0s0,0,0,0h0s0,0,0,0c.04.02,2.5,1.33,3.39,1.58.64.18,1.34,0,1.96-.36l7.52-4.34c-.94-2.34-2.21-4.51-3.74-6.47l-7.51,4.34c-.63.36-1.13.87-1.29,1.52"/>
    <path class="cls-1" d="M29.13,10.15c.41.84,2.12,3.04,2.15,3.07h0s0,0,0,0h0s2.77-.59,3.62-.97c.61-.27,1.03-.86,1.27-1.54l2.97-8.16c-1-.54-2.05-1.01-3.12-1.41l-.24-.09-.13-.05-.18-.07c-1.09-.38-2.21-.7-3.35-.94l-2.97,8.16c-.25.68-.31,1.4-.01,1.99"/>
    <path class="cls-1" d="M18.32,12.25c.85.38,3.58.96,3.62.97h0s0,0,0,0h0s0,0,0,0c.03-.03,1.74-2.23,2.15-3.07.29-.6.24-1.32-.02-1.99L21.1,0c-1.15.24-2.26.56-3.35.94l-.19.07-.13.05-.24.09c-1.08.41-2.12.88-3.12,1.42l2.97,8.16c.24.68.66,1.27,1.27,1.54"/>
    <path class="cls-1" d="M11.38,20.81c.89-.26,3.36-1.56,3.4-1.58h0s0,0,0,0h0s-.1-2.83-.33-3.73c-.16-.64-.66-1.16-1.29-1.52l-7.51-4.34c-1.53,1.96-2.8,4.13-3.74,6.47l7.52,4.34c.62.37,1.32.54,1.96.36"/>
    <path class="cls-1" d="M11.57,31.83c.52-.77,1.57-3.36,1.58-3.4h0,0s-1.9-2.1-2.65-2.65c-.54-.39-1.26-.46-1.96-.33l-8.54,1.51c.09,2.56.53,5.03,1.29,7.36l8.55-1.51c.71-.12,1.36-.43,1.73-.98"/>
    <path class="cls-1" d="M18.8,40.14c-.1-.92-.96-3.58-.97-3.62h0s0,0,0,0h0s0,0,0,0c-.04,0-2.8-.39-3.73-.33-.66.05-1.26.45-1.72,1.01l-5.58,6.65c1.67,1.86,3.6,3.48,5.73,4.8l5.58-6.65c.47-.55.76-1.21.7-1.87"/>
    <path class="cls-1" d="M29.68,41.87c-.67-.65-3.03-2.13-3.07-2.15h0s-2.4,1.5-3.07,2.15c-.48.46-.67,1.16-.67,1.88v8.68c1.22.17,2.47.27,3.73.27h0c1.27,0,2.52-.09,3.74-.27v-8.68c0-.72-.19-1.42-.67-1.88"/>
    <rect class="cls-1" x="32.55" y="46.94" width="4.19" height="2.64" transform="translate(-14.36 14.67) rotate(-19.9)"/>
    <rect class="cls-1" x="31.45" y="43.91" width="4.19" height="2.64" transform="translate(-13.39 14.12) rotate(-19.9)"/>
    <rect class="cls-1" x="44.94" y="36.58" width="4.19" height="2.64" transform="translate(-9.34 59.59) rotate(-59.9)"/>
    <rect class="cls-1" x="42.15" y="34.96" width="4.19" height="2.64" transform="translate(-9.33 56.37) rotate(-59.9)"/>
    <rect class="cls-1" x="48.55" y="19.9" width="2.64" height="4.19" transform="translate(-3.04 8.91) rotate(-9.91)"/>
    <rect class="cls-1" x="45.37" y="20.46" width="2.64" height="4.19" transform="translate(-3.18 8.37) rotate(-9.91)"/>
    <rect class="cls-1" x="40.5" y="5.9" width="2.64" height="4.19" transform="translate(8.77 34.83) rotate(-49.9)"/>
    <rect class="cls-1" x="38.42" y="8.36" width="2.64" height="4.19" transform="translate(6.14 34.12) rotate(-49.9)"/>
    <rect class="cls-1" x="25.33" y=".35" width="2.64" height="4.19" transform="translate(24.16 29.09) rotate(-89.9)"/>
    <rect class="cls-1" x="25.32" y="3.57" width="2.64" height="4.19" transform="translate(20.93 32.3) rotate(-89.9)"/>
    <rect class="cls-1" x="9.36" y="6.62" width="4.19" height="2.64" transform="translate(-2.43 9.2) rotate(-39.9)"/>
    <rect class="cls-1" x="11.43" y="9.09" width="4.19" height="2.64" transform="translate(-3.53 11.1) rotate(-39.9)"/>
    <rect class="cls-1" x="1.26" y="20.59" width="4.19" height="2.64" transform="translate(-18.81 21.38) rotate(-79.9)"/>
    <rect class="cls-1" x="4.44" y="21.16" width="4.19" height="2.64" transform="translate(-16.75 24.97) rotate(-79.91)"/>
    <rect class="cls-1" x="4.81" y="35.73" width="2.64" height="4.19" transform="translate(-18.04 8.09) rotate(-29.9)"/>
    <rect class="cls-1" x="7.61" y="34.13" width="2.64" height="4.19" transform="translate(-16.87 9.27) rotate(-29.9)"/>
    <rect class="cls-1" x="17.17" y="46.14" width="2.64" height="4.19" transform="translate(-33.16 49.03) rotate(-69.9)"/>
    <rect class="cls-1" x="18.28" y="43.11" width="2.64" height="4.19" transform="translate(-29.59 48.08) rotate(-69.9)"/>
    <polygon class="cls-1" points="34.41 32.37 33.17 30.9 32.44 31.51 31.21 30.04 29.74 31.28 30.97 32.75 30.23 33.36 31.47 34.83 30.73 35.45 31.97 36.92 36.37 33.22 35.14 31.75 34.41 32.37"/>
    <polygon class="cls-1" points="36.64 25.88 34.75 25.54 34.58 26.49 32.69 26.16 32.36 28.05 34.25 28.38 34.08 29.32 35.97 29.66 35.8 30.6 37.69 30.93 38.69 25.27 36.8 24.93 36.64 25.88"/>
    <polygon class="cls-1" points="32.51 20.43 32.99 21.26 31.33 22.22 32.29 23.88 33.95 22.93 34.43 23.76 36.09 22.8 36.57 23.63 38.23 22.67 35.36 17.68 33.69 18.64 34.17 19.47 32.51 20.43"/>
    <polygon class="cls-1" points="31.12 19.26 31.78 17.46 32.68 17.79 33.33 15.99 27.93 14.02 27.27 15.82 28.17 16.15 27.52 17.95 28.42 18.28 27.76 20.08 29.57 20.74 30.22 18.94 31.12 19.26"/>
    <polygon class="cls-1" points="24.8 18.28 25.7 17.95 25.04 16.15 25.94 15.82 25.29 14.02 19.88 15.99 20.54 17.79 21.44 17.46 22.09 19.26 22.99 18.94 23.65 20.74 25.45 20.08 24.8 18.28"/>
    <polygon class="cls-1" points="16.64 23.63 17.12 22.8 18.78 23.76 19.26 22.93 20.92 23.88 21.88 22.22 20.22 21.26 20.7 20.43 19.04 19.47 19.52 18.64 17.86 17.68 14.98 22.67 16.64 23.63"/>
    <polygon class="cls-1" points="17.25 29.66 19.13 29.32 18.97 28.38 20.86 28.05 20.52 26.16 18.63 26.49 18.47 25.54 16.58 25.88 16.41 24.93 14.52 25.27 15.52 30.93 17.41 30.6 17.25 29.66"/>
    <polygon class="cls-1" points="22.01 30.04 20.78 31.51 20.04 30.9 18.81 32.37 18.08 31.75 16.84 33.22 21.25 36.92 22.48 35.45 21.75 34.83 22.98 33.36 22.25 32.75 23.48 31.28 22.01 30.04"/>
    <polygon class="cls-1" points="28.53 33.99 27.57 33.99 27.57 32.07 25.65 32.07 25.65 33.99 24.69 33.99 24.69 35.9 23.73 35.9 23.73 37.82 29.48 37.82 29.48 35.9 28.53 35.9 28.53 33.99"/>
    <path d="M65.61,36.52c-.89,0-1.84-.5-2.64-1.09,1.82-.22,2.7-1.56,2.7-3.27,0-2.1-1.18-3.42-3.3-3.42s-3.27,1.44-3.27,3.44c0,1.72.68,2.79,2.07,3.23,1.25.62,2.65,2.01,4.13,2.01.45,0,.92-.09,1.28-.32l-.19-.77c-.23.1-.57.19-.79.19M60.16,32.17c0-.66.17-1.49.54-1.95.33-.3,1.02-.56,1.66-.56,1.5,0,2.25,1.2,2.25,2.53,0,.66-.17,1.45-.51,1.92-.34.29-1.04.57-1.73.57-1.51,0-2.2-1.21-2.2-2.51"/>
    <path d="M68.7,28.88l-2.51,6.58h1.11l.56-1.55h2.93l.56,1.55h1.12l-2.51-6.58h-1.27ZM68.19,33.04l1.15-3.13,1.14,3.13h-2.29Z"/>
    <polygon points="77.53 28.88 72.25 28.88 72.25 29.79 74.35 29.79 74.35 35.46 75.41 35.46 75.41 29.79 77.53 29.79 77.53 28.88"/>
    <path d="M79.79,28.88l-2.51,6.58h1.11l.56-1.55h2.93l.56,1.55h1.12l-2.51-6.58h-1.27ZM79.27,33.04l1.15-3.13,1.14,3.13h-2.29Z"/>
    <path d="M89.66,30.87c0-1.23-.58-1.98-2.52-1.98h-2.48v6.58h1.06v-2.55h1.32l1.57,2.55h1.29l-1.74-2.68c.9-.23,1.5-.86,1.5-1.91M85.72,32.02v-2.23h1.42c1.13,0,1.45.43,1.45,1.1,0,.39-.08.71-.28.94-.24.11-.61.2-1.17.2h-1.42Z"/>
    <path d="M95.8,28.88h-2.32v6.58h1.05v-2.01h1.22c1.58,0,2.71-.84,2.71-2.37,0-1.42-.84-2.2-2.67-2.2M97.1,32.26c-.28.19-.68.31-1.26.31h-1.29v-2.8h1.35c1.02,0,1.55.46,1.55,1.36,0,.48-.1.87-.33,1.13"/>
    <path d="M101.18,28.88l-2.51,6.58h1.11l.56-1.55h2.93l.56,1.55h1.12l-2.51-6.58h-1.27ZM100.67,33.04l1.15-3.13,1.14,3.13h-2.29Z"/>
    <polygon points="108.01 34.45 106.03 28.88 104.92 28.88 107.38 35.46 108.64 35.46 111.1 28.88 109.99 28.88 108.01 34.45"/>
    <rect x="112.2" y="28.88" width="1.04" height="6.58"/>
    <polygon points="115.96 28.88 114.9 28.88 114.9 35.46 119.14 35.46 119.14 34.56 115.96 34.56 115.96 28.88"/>
    <rect x="120.2" y="28.88" width="1.04" height="6.58"/>
    <path d="M125.95,28.75c-2.14,0-3.32,1.44-3.32,3.49,0,1.78.91,3.36,3.23,3.36s3.34-1.55,3.34-3.47c0-2.07-1.21-3.38-3.25-3.38M127.63,34.09c-.35.32-1.06.6-1.76.6-1.49,0-2.19-1.21-2.19-2.52,0-.66.18-1.49.54-1.95.33-.29,1-.56,1.69-.56,1.47,0,2.21,1.2,2.21,2.57,0,.61-.14,1.41-.5,1.87"/>
    <polygon points="134.87 28.88 134.87 34.22 132.08 28.88 130.59 28.88 130.59 35.46 131.61 35.46 131.61 30.12 134.41 35.46 135.89 35.46 135.89 28.88 134.87 28.88"/>
    <path d="M62.42,23.26c.31.25.65.36.99.36h34.21c.15-.45.24-.94.24-1.38,0-1.39-.83-2.87-1.99-2.87-1.07,0-1.91,1.27-1.91,2.11,0,.51.31.89.7,1.16h-4.65c-.26,0-.52.03-.76.09.29-.3.45-.62.45-1.04,0-1.08-.85-2.08-2.2-2.08-.73,0-1.39.3-1.99.77.07-.4.07-.78.07-1.55v-2.18h-.91v2.82c0,.62-.02,1.25-.09,1.84-.34.4-.66.86-.96,1.33h-20.11c-.52,0-.84-.26-1.14-1.18l-.45-1.35-.88.34c.41,1.2.57,1.8.63,2.26-.29.93-1.13,1.73-2.58,2.45l.53.81c1.47-.77,2.47-1.65,2.78-2.72M95.84,20.34c.53,0,1.06,1.02,1.06,1.92,0,.14-.01.27-.03.39-.81-.11-1.69-.58-2.05-1.13.09-.7.67-1.17,1.02-1.17M87.34,20.59c.95,0,1.53.66,1.47,1.45-.65.48-2.14.6-3.36.6h-.89c1.02-1.48,1.89-2.05,2.77-2.05"/>
    <path d="M96.61,18.5c.34,0,.6-.26.6-.6s-.26-.62-.6-.62-.6.27-.6.62.26.6.6.6"/>
    <path d="M95.11,18.5c.34,0,.6-.26.6-.6s-.26-.62-.6-.62-.6.27-.6.62.26.6.6.6"/>
    <path d="M104.08,18.1c.34,0,.6-.26.6-.6s-.26-.62-.6-.62-.6.27-.6.62.26.6.6.6"/>
    <path d="M102.58,18.1c.34,0,.6-.26.6-.6s-.26-.62-.6-.62-.6.27-.6.62.26.6.6.6"/>
    <path d="M113.24,23.62h12.95c.13-.71.19-1.76.19-3.23v-3.74h-.91v3.74c0,.91-.02,1.63-.06,2.26h-19.82c-.65,0-.74-.44-.74-2.21v-1.43h-.93v.75c-1.25.12-3.03.82-3.03,1.94,0,.73.76,1.6,2.04,1.6.45,0,.89-.1,1.27-.37.23.54.61.71,1.21.71h7.84ZM103,22.34c-.54,0-1.05-.23-1.23-.72.31-.46,1.25-.87,2.14-.94.01.54.03.98.07,1.35-.29.21-.64.31-.99.31"/>
    <path d="M130.21,23.64c-.43.78-1.44,1.31-2.45,1.65l.45.81c1.61-.59,3.06-1.62,3.06-3.45,0-1.4-.81-2.73-1.86-2.73s-1.86,1.32-1.86,2.25.85,1.42,2.67,1.47M129.34,20.9c.66,0,1.01,1.08,1.06,1.74h-.08c-.67,0-1.54-.04-1.97-.41.02-.68.46-1.33.99-1.33"/>
    <path d="M135.4,23.62l.48-.65c.09-1.53-.82-3-2.26-3.58l-.41.81c1.03.58,1.61,1.39,1.8,2.44h-1.3c-.77,0-1.13-.03-1.64-.08l-.03.99c.45.06.83.07,1.7.07h1.65Z"/>
  </g>
</svg>