<?xml version="1.0" encoding="UTF-8"?>
<svg id="Layer_2" data-name="Layer 2" xmlns="http://www.w3.org/2000/svg" viewBox="0 0 221.21 62.42">
  <defs>
    <style>
      .cls-1, .cls-2 {
        fill: #6a747c;
      }

      .cls-1, .cls-3 {
        fill-rule: evenodd;
      }

      .cls-4, .cls-3 {
        fill: #7a133e;
      }

      .cls-5 {
        fill: #949ba1;
      }
    </style>
  </defs>
  <g id="Layer_1-2" data-name="Layer 1">
    <path class="cls-1" d="M40.59,55.43c-.47.03-.93.06-1.4.06-.53,0-1.05-.04-1.59-.06l1.56-3.76,1.43,3.76ZM42.32,59.69c.27-.01.7-.09,1.13-.09s.96.07,1.19.09c-.69-1.48-1.7-3.79-2.28-5.12-.55-1.28-1.47-3.42-2.2-5.51-.17.05-.32.08-.49.08-.18,0-.34-.03-.5-.08-.37,1.25-1.25,3.24-2.8,6.69l-1.77,3.94c.21-.03.43-.09.69-.09.25,0,.54.06.73.09.25-.87.73-2.14,1.22-3.31.61-.03,1.22-.06,1.83-.06.66,0,1.3.03,1.96.06l.64,1.62.64,1.69Z"/>
    <path class="cls-2" d="M45.98,52.74c0,2.61,0,5.13-.17,6.95.34-.01.77-.09,1.1-.09.35,0,.72.07,1.07.09-.12-1.24-.15-2.89-.15-5.16,0-1.54,0-4.18.17-5.32-.37.05-.75.09-1.08.09-.23,0-.8-.06-1.08-.09.15,1.48.15,2.57.15,3.53"/>
    <path class="cls-1" d="M55.06,54.5c1.4-.26,2.66-1.13,2.66-2.82,0-.65-.24-1.27-.7-1.71-.66-.63-1.41-.75-2.4-.75-.35,0-2.12.08-2.52.08-.78,0-1.18-.05-1.53-.08.11,1.97.11,2.18.11,4.19,0,2.95-.02,3.29-.14,6.29.34-.04.7-.09,1.05-.09.38,0,.72.06,1.02.09,0-.4-.06-2.37-.06-2.81v-2.17h.37c.83,1.16,1.77,2.51,2.55,3.71.23.35.57.92.8,1.27.46-.06.64-.09,1.23-.09.55,0,.93.05,1.36.09-.96-1.2-1.38-1.74-2.58-3.44-.23-.32-.56-.82-.79-1.15l-.43-.61ZM52.56,50.04c.23-.02.79-.08,1.08-.08.5,0,1.01.08,1.42.38.54.4.64.95.64,1.59,0,.99-.57,2.11-2.09,2.11-.4,0-.76-.03-1.05-.05v-3.96Z"/>
    <path class="cls-2" d="M63.02,56.12c-.71-2.12-1.71-5.1-2.18-6.91-.38.06-.72.09-1.07.09s-.89-.06-1.19-.09c.63,1.65,1.16,3.12,1.57,4.28.7,1.99,1.16,3.36,1.71,5.04l.38,1.16c.21-.04.46-.09.63-.09s.32.03.58.09c.24-.79.53-1.77.75-2.4.59-1.74.67-1.99,1.45-4.15l.46-1.27c.17.49.46,1.27.63,1.75.17.48.95,2.81,1.13,3.33.25.68.31.88.87,2.73.14-.01.43-.09.66-.09.22,0,.38.05.61.09.58-1.82.64-2,1.5-4.44.84-2.38,1.36-3.74,2.28-6.03-.23.06-.46.09-.69.09-.29,0-.53-.05-.7-.09-.55,1.99-.82,2.95-1.27,4.26-.72,2.14-.81,2.38-1.25,3.54-.49-1.31-.96-2.64-1.41-3.98-.24-.74-1.18-3.79-1.19-3.82-.22.04-.37.09-.67.09-.27,0-.47-.06-.67-.09-.46,1.86-2.08,6.36-2.23,6.77l-.38.99-.29-.85Z"/>
    <path class="cls-1" d="M78.44,55.43c-.47.03-.93.06-1.41.06-.53,0-1.05-.04-1.59-.06l1.55-3.76,1.44,3.76ZM80.16,59.69c.28-.01.7-.09,1.13-.09s.96.07,1.19.09c-.69-1.48-1.7-3.79-2.28-5.12-.55-1.28-1.47-3.42-2.2-5.51-.17.05-.32.08-.49.08-.18,0-.33-.03-.51-.08-.36,1.25-1.25,3.24-2.79,6.69l-1.77,3.94c.22-.03.43-.09.69-.09.24,0,.53.06.73.09.24-.87.73-2.14,1.22-3.31.61-.03,1.22-.06,1.84-.06.65,0,1.3.03,1.95.06l.64,1.62.64,1.69Z"/>
    <path class="cls-2" d="M86.58,55.6c0-.14.09-.3.2-.49.64-1.1,1.24-2.25,1.93-3.35.23-.37,1.34-2.14,1.57-2.55-.17.06-.34.09-.64.09-.34,0-.65-.05-.89-.09-1.1,2.42-1.34,2.93-2.64,5.17-1.29-2.27-1.88-3.48-2.67-5.17-.44.08-.89.09-1.25.09-.34,0-.69-.03-1.26-.09.79,1.33,2.1,3.44,2.88,4.78l.9,1.56c0,.95-.05,2.95-.09,4.14.29-.03.72-.09,1.02-.09.35,0,.71.06,1.06.09-.06-1.42-.11-2.24-.11-3.53v-.56Z"/>
    <path class="cls-2" d="M91.16,57.4c-.08.73-.09.93-.35,1.73.55.27,1.54.78,2.86.78,2.8,0,3.88-1.79,3.88-3.35,0-.43-.11-1.33-.75-2.02-.44-.49-.9-.66-2.08-1.11-1.34-.52-2.13-.83-2.13-1.94,0-.9.6-1.65,1.81-1.65.96,0,1.77.46,2,1.33h.22c.13-.58.17-.7.47-1.45-.75-.33-1.42-.63-2.54-.63-2.77,0-3.56,1.71-3.56,3.06,0,1.27.45,2.05,1.93,2.7.43.18,1.15.46,1.57.64.29.12,1.25.55,1.25,1.76,0,1.1-.8,1.91-2,1.91-.9,0-1.67-.23-2.37-1.76h-.21Z"/>
    <path class="cls-3" d="M6.28,29.17c0-11.55,6.19-14.67,10.87-14.67,7.51,0,10.77,6.23,10.77,12.88,0,3.81-.46,7.38-2.34,10.27-1.88,2.89-4.99,4.63-8.39,4.63-8.48,0-10.91-8.07-10.91-13.11M29.11,52.78c1.38-.96,3.53-2.16,5.09-2.84l-10.36-6.42c6.37-2.25,10.36-7.93,10.36-15.67,0-11-8.39-15.67-16.96-15.67C7.98,12.17,0,17.3,0,28.94c0,2.48.55,7.15,4.4,11.04,3.99,4.04,8.71,4.63,12.69,4.63.5,0,1.01,0,1.52-.04l10.5,8.2Z"/>
    <path class="cls-3" d="M55.57,31.19c-1.42.09-2.8.19-4.22.19-1.6,0-3.16-.14-4.76-.19l4.67-11.27,4.31,11.27ZM60.75,43.97c.82-.04,2.11-.27,3.39-.27s2.89.23,3.57.27c-2.06-4.44-5.09-11.36-6.83-15.35-1.65-3.85-4.4-10.27-6.6-16.55-.5.14-.96.23-1.47.23-.55,0-1.01-.09-1.51-.23-1.1,3.76-3.76,9.72-8.39,20.08l-5.32,11.82c.64-.09,1.29-.27,2.06-.27.73,0,1.61.18,2.2.27.73-2.61,2.2-6.42,3.67-9.94,1.83-.09,3.67-.18,5.5-.18,1.97,0,3.9.09,5.87.18l1.92,4.86,1.93,5.09Z"/>
    <path class="cls-4" d="M81.09,20.74c0-1.74.04-3.48.09-5.14,3.16,0,6.42.05,9.12.32-.14-.73-.23-1.15-.23-1.65,0-.37.09-.97.23-1.74-4.4.23-8.43.27-12.24.27-3.53,0-8.61-.05-12.24-.27.14.55.23,1.14.23,1.69s-.09,1.15-.23,1.7c2.34-.23,6.74-.32,7.15-.32h2.29c.05,1.79.09,3.39.09,5.09l.04,12.79c0,3.48-.27,7.01-.46,10.49,1.65-.18,2.34-.27,3.12-.27.55,0,2.02.14,3.35.27-.14-1.28-.32-2.8-.32-6.28v-16.96Z"/>
    <path class="cls-3" d="M106.61,31.19c-1.42.09-2.8.19-4.22.19-1.61,0-3.17-.14-4.77-.19l4.68-11.27,4.31,11.27ZM111.78,43.97c.82-.04,2.11-.27,3.39-.27s2.89.23,3.58.27c-2.06-4.44-5.09-11.36-6.83-15.35-1.65-3.85-4.4-10.27-6.6-16.55-.5.14-.96.23-1.47.23-.55,0-1.01-.09-1.51-.23-1.1,3.76-3.76,9.72-8.39,20.08l-5.31,11.82c.64-.09,1.28-.27,2.06-.27.73,0,1.6.18,2.2.27.73-2.61,2.2-6.42,3.67-9.94,1.83-.09,3.66-.18,5.5-.18,1.97,0,3.9.09,5.86.18l1.93,4.86,1.93,5.09Z"/>
    <path class="cls-3" d="M137.21,28.39c4.17-.78,7.97-3.39,7.97-8.48,0-1.93-.73-3.81-2.11-5.13-1.97-1.88-4.22-2.24-7.2-2.24-1.05,0-6.37.23-7.56.23-2.34,0-3.53-.14-4.58-.23.32,5.91.32,6.55.32,12.56,0,8.85-.05,9.85-.41,18.88,1.01-.14,2.11-.27,3.16-.27,1.15,0,2.16.18,3.07.27,0-1.19-.18-7.11-.18-8.43v-6.51h1.1c2.48,3.48,5.32,7.52,7.65,11.14.69,1.06,1.7,2.75,2.38,3.8,1.38-.18,1.93-.27,3.71-.27,1.65,0,2.8.14,4.08.27-2.89-3.62-4.12-5.22-7.74-10.31-.69-.96-1.7-2.47-2.39-3.43l-1.28-1.83ZM129.69,15.01c.68-.05,2.38-.23,3.25-.23,1.51,0,3.02.23,4.26,1.15,1.6,1.19,1.92,2.84,1.92,4.76,0,2.98-1.69,6.33-6.28,6.33-1.19,0-2.29-.09-3.16-.14v-11.87Z"/>
    <path class="cls-5" d="M205.73,28.48c0,.3-4.15.57-10.07.81-1.05-.59-1.84-1.19-2.42-1.7,7.18.25,12.49.57,12.49.9"/>
    <path class="cls-5" d="M201.47,18.48c0,.24-3.48.48-8.45.68.71-.42,1.45-.84,2.22-1.26,3.76.18,6.23.37,6.23.58"/>
    <path class="cls-5" d="M164.43,39.99c-2.3.03-4.32.04-5.9.04-2.26,0-4.11-.7-4.11-1.57s1.84-1.56,4.11-1.56c2.01,0,4.73.02,7.86.06-1.21,1.74-1.79,2.79-1.84,2.86-.04.05-.08.11-.12.17"/>
    <path class="cls-5" d="M165.67,42.09c.76.92,1.49,1.69,2.46,2.53,0,0,.36.53,1.48.07,1.13-.46,2.09-1.09,3.18-2.54,3.17.05,6.52.12,9.83.2.27.39.83,1.21,1.51,2.22-9.21.24-19.21.38-24.33.38-2.13,0-3.87-.66-3.87-1.47s1.73-1.47,3.87-1.47c1.56,0,3.57.01,5.87.04,0,.02,0,.04,0,.04"/>
    <path class="cls-5" d="M162.1,49.77c-1.89,0-3.43-.58-3.43-1.3s1.53-1.31,3.43-1.31c5.01,0,15.27.15,24.07.4.42.61.85,1.21,1.25,1.77-9.05.27-20.07.44-25.32.44"/>
    <path class="cls-5" d="M191.31,53.95c-7.39.32-20.08.54-25.36.54-1.49,0-2.69-.46-2.69-1.02s1.21-1.03,2.69-1.03c5.05,0,16.9.2,24.38.5.34.36.67.71.98,1.01"/>
    <path class="cls-5" d="M172.09,29.9c-5.49.09-10.4.15-13.56.15-2.26,0-4.1-.7-4.1-1.57s1.84-1.57,4.1-1.57c3.67,0,9.71.07,16.25.19-.97.96-1.87,1.9-2.69,2.79"/>
    <path class="cls-5" d="M198.99,22.91c3.21.18,5.23.37,5.23.57,0,.22-2.45.43-6.23.62.81-.61.99-1.14,1-1.18"/>
    <path class="cls-5" d="M159.79,24.94c-2.14,0-3.87-.66-3.87-1.47s1.73-1.47,3.87-1.47c4.38,0,12.32.1,20.28.28-.97.83-1.9,1.64-2.78,2.44-6.99.14-13.64.22-17.51.22"/>
    <path class="cls-5" d="M183.6,19.45c-8.14.21-16.97.34-21.5.34-1.89,0-3.43-.58-3.43-1.3s1.54-1.3,3.43-1.3c5,0,15.24.16,24.02.4-.44.32-.88.64-1.32.97-.41.31-.81.6-1.2.9"/>
    <path class="cls-5" d="M165.95,14.51c-1.49,0-2.69-.45-2.69-1.02s1.21-1.03,2.69-1.03c5.6,0,19.57.24,26.67.6-.45.3-.9.6-1.36.91-7.39.32-20.04.54-25.3.54"/>
    <path class="cls-5" d="M158.11,35.07c-2.31,0-4.19-.71-4.19-1.59s1.87-1.59,4.19-1.59c2.89,0,7.23.04,12.12.12-.92,1.08-1.72,2.08-2.4,2.99-3.9.05-7.31.08-9.72.08"/>
    <path class="cls-5" d="M170.51,9.51c0-.4.69-.73,1.53-.73,4.36,0,17.62.33,17.62.73s-13.26.72-17.62.72c-.85,0-1.53-.33-1.53-.72"/>
    <path class="cls-4" d="M206.16,32.29c.03.79.02,1.58-.01,2.35-7.72.31-15.03.77-15.03,1.29s7.15.97,14.78,1.28c-.13.88-.31,1.75-.52,2.59-7.52.31-14.5.76-14.5,1.27s6.52.93,13.73,1.24c-.33.92-.7,1.81-1.13,2.67-6.19.3-11.31.7-11.31,1.13,0,.41,4.47.78,10.11,1.07-.31.52-.64,1.02-.99,1.5-.37.52-.77,1.04-1.19,1.54-3.52.27-5.94.57-5.94.9,0,.28,1.73.54,4.4.77-1.46,1.44-3.18,2.79-5.21,3.97,0,0-2.39-2.06-4.36-4.46-1.76-2.14-5.49-7.79-6.37-9.06-.88-1.27-1.46-1.64-2.49-1.27-1.38.49-2.98.73-3.47.73s-.76-.19.06-.52c.82-.33,4.07-1.87,5.67-5.04,1.8-3.57.22-8.51.22-8.51-.6,2.64-1.98,3.62-1.98,3.62.44-2.45-.04-4.67-1.25-6.23l-.67,3.1s-.43-.02-1.47.86c-1.04.88-1.33,2.16-1.33,2.16.82.33,1.81-.49,1.81-.49-1.26,4.72-3.07,8.56-4.39,10.59-1.32,2.03-2.41,2.8-3.72,3.34-1.12.45-1.48-.08-1.48-.08-.98-.84-1.71-1.61-2.46-2.53,0,0-.06-.11.15-.1.54,0,1.51-.92,1.72-1.3.24-.44.21-.78.09-.81-.12-.02-.32.33-1.37.99-1.04.66-1.52.2-1.87-.17-.27-.29,0-.65.16-.88.16-.2,5.67-10.48,20.25-21.27C203.91,4.4,216.11.58,216.81.31c.46-.18,1.22-.42,1.39-.24.19.2.28.36.26.58-.02.23-.15.35-1.03.74-7.33,3.23-15.9,8.62-20.76,11.75-5.98,2.91-11.7,7.08-11.9,7.18-.46.29-.12.7.16.53,10.1-6.72,21.95-11.3,35.04-15.05.62-.18.96-.18,1.07-.04.12.15.17.33.19.52.02.24-.18.36-.72.58-14.06,5.22-24.42,10.08-31.09,14.56,0,0-.69.41-.7.9,0,.18.37.2.37.2,3.34.06,7.8.26,9.92.38,0,0-.3,1.07-2.34,1.94-1.57.67-3.02.56-4.46.57-.32,0-.59.32-.33.66.13.17,3.18,5.1,14.3,6.22"/>
    <path class="cls-4" d="M104.26,58.05h-1.88s-.25-1.16.43-1.61c.69-.45,1.46-.8,1.46-.8v2.4ZM113.21,53.7s-1.15.66-1.87,1.3c-.72.64.15.88.15.88v2.16h-5.47v-7.54s-1.99,1.83-2.17,2.08c-.2.26.47.49.47.49l-.11.72s-.79.41-1.76,1.06c-.96.64-1.67,1.47-1.67,2.04s-.24,2.81-.24,2.81h12.67v-5.99ZM101.89,50.95c.62,0,1.06-.25,1.06-.74s-.29-.85-1.06-.85c-.69,0-.87.3-.87.85s.24.74.87.74M104.22,50.95c.63,0,1.06-.25,1.06-.74s-.29-.85-1.06-.85c-.69,0-.87.3-.87.85s.24.74.87.74M107.75,60.34c-.68,0-.87.29-.87.84s.24.74.87.74,1.07-.25,1.07-.74-.29-.84-1.07-.84M110.17,60.34c-.68,0-.87.29-.87.84s.24.74.87.74,1.07-.25,1.07-.74-.29-.84-1.07-.84M137.48,50.8c.63,0,1.07-.24,1.07-.74s-.29-.85-1.07-.85c-.68,0-.86.3-.86.85s.24.74.86.74M139.9,50.8c.63,0,1.06-.24,1.06-.74s-.29-.85-1.06-.85c-.68,0-.87.3-.87.85s.24.74.87.74M146.58,51c-.34.3-.24.65.19.6v8.1h1.79v-10.09s-1.65,1.09-1.99,1.38M139.37,55.55h-1.16c0-.64,1.16-.99,1.16-.99v.99ZM131.72,56.89c0,.29-.01.77-.03,1.16h-10.15v-1.78c.26-.69.71-.77,1.4-.77h7.42c1.6,0,1.35.84,1.35,1.39M143.58,51.59v6.45h-2.41v-5.86s-.49.19-1.17.49c-.67.3-3.1,1.29-3.1,2.62v1.54h2.47v1.21h-5.87c0-.29.01-.7.01-1.31,0-1.92-1.64-2.97-3.09-2.97h-6.79c-1.19,0-1.76.29-2.08.62v-4.96s-1.06.74-1.84,1.34c-.78.59,0,.99,0,.99v6.3h-2.22l-.05-5.41s-1.55,1.13-1.99,1.47c-.43.34-.19.65.29.65,0,0-.09,3.99-.09,4.93s-.78,2.03-2.43,1.54c0,0-.52.1-.09.5.43.39.96.69,1.54.69s2.72-.4,2.72-2.73h27.98v-10.08s-1.65,1.09-1.99,1.38c-.34.3-.24.65.2.6"/>
  </g>
</svg>