<?xml version="1.0" encoding="UTF-8"?>
<svg id="Layer_2" data-name="Layer 2" xmlns="http://www.w3.org/2000/svg" viewBox="0 0 184.08 133.32">
  <defs>
    <style>
      .cls-1 {
        fill: #8c9d9e;
      }

      .cls-2 {
        fill: #010101;
      }

      .cls-3 {
        fill: #11808a;
      }
    </style>
  </defs>
  <g id="Layer_1-2" data-name="Layer 1">
    <g>
      <path class="cls-2" d="M28,112.75c-5.24,0-8.44,3.67-8.45,8.34,0,4.8,3.32,8.68,8.01,8.68,2.09,0,3.24-.68,4.44-1.57v-3.54c-1.03,1.29-2.42,2.25-4.12,2.24-3.13,0-5.34-2.56-5.34-5.58,0-3.1,2.08-5.72,5.39-5.72,2.71,0,5.31,1.57,5.3,4.63v9.19s2.98,0,2.98,0v-8.92c.01-4.7-3.18-7.77-8.22-7.77"/>
      <path class="cls-2" d="M41.74,105.73h-2.99s-.01,18.44-.01,18.44c0,3.24,1.76,5.27,4.82,5.27h4.03s0-2.86,0-2.86h-3.61c-1.53,0-2.25-.5-2.25-2.04v-8.57s5.86,0,5.86,0v-2.86s-5.86,0-5.86,0v-7.37Z"/>
      <path class="cls-2" d="M57.18,112.77c-5.24,0-8.44,3.67-8.45,8.34,0,4.8,3.33,8.68,8.03,8.68,2.08,0,3.24-.68,4.42-1.57v-3.54c-1.01,1.29-2.41,2.25-4.11,2.24-3.14,0-5.33-2.56-5.33-5.58,0-3.1,2.06-5.72,5.38-5.72,2.71,0,5.31,1.57,5.31,4.63v9.19s2.98,0,2.98,0v-8.92c.01-4.69-3.19-7.76-8.23-7.77"/>
      <path class="cls-2" d="M71.01,115h-.07v-1.87s-2.87,0-2.87,0v16.34s2.99,0,2.99,0v-7.62c0-4.43,1.72-6.2,4.61-6.2h.44s0-2.86,0-2.86h-.69c-2,0-3.4.61-4.42,2.21"/>
      <path class="cls-2" d="M108.24,126.97c-3.11,0-5.34-2.31-5.34-5.64,0-3.34,2.24-5.66,5.35-5.65,1.84,0,2.68.55,3.7,1.57l-8.07,4.49,1.22,2.38,11.05-6.12c-1.53-3.15-4.08-5.18-7.89-5.18-4.54,0-8.49,3.46-8.49,8.51,0,5.03,3.95,8.51,8.48,8.51,4.7,0,8.16-3.26,8.51-7.59l-3.03-.37c-.61,2.99-1.95,5.09-5.48,5.09"/>
      <path class="cls-2" d="M127.65,112.83c-1.64,0-3.2.34-4.63,1.16v3.13c1.08-.74,2.75-1.43,4.12-1.43,3.23,0,5.37,2.25,5.37,5.62,0,3.34-2.25,5.68-5.45,5.67-2.86,0-5.24-2.18-5.23-6.67v-14.63s-2.99,0-2.99,0v15.17c-.02,5.38,3.42,8.99,8.22,9,5.32,0,8.44-4.08,8.45-8.92,0-4.55-3.66-8.1-7.85-8.1"/>
      <path class="cls-2" d="M146.2,112.84c-5.25,0-8.45,3.67-8.46,8.34,0,4.8,3.33,8.68,8.03,8.68,2.08,0,3.23-.68,4.42-1.57v-3.54c-1.02,1.29-2.41,2.24-4.12,2.24-3.14,0-5.34-2.56-5.34-5.58,0-3.1,2.08-5.72,5.38-5.72,2.72,0,5.3,1.57,5.29,4.63v9.19s2.99,0,2.99,0v-8.92c.01-4.7-3.18-7.77-8.22-7.77"/>
      <path class="cls-2" d="M159.94,105.82h-3s-.01,18.44-.01,18.44c0,3.24,1.77,5.27,4.83,5.27h4.03s0-2.86,0-2.86h-3.62c-1.53,0-2.24-.5-2.24-2.04v-8.57s5.86,0,5.86,0v-2.86s-5.86,0-5.86,0v-7.37Z"/>
      <path class="cls-2" d="M181.03,121.93c-.6,2.99-1.94,5.09-5.47,5.09-3.1,0-5.35-2.31-5.35-5.64,0-3.34,2.25-5.66,5.36-5.65,1.83,0,2.68.55,3.7,1.56l-8.07,4.49,1.23,2.38,11.03-6.12c-1.52-3.15-4.07-5.18-7.88-5.18-4.54,0-8.49,3.46-8.49,8.51,0,5.03,3.95,8.51,8.48,8.51,4.69,0,8.16-3.26,8.51-7.59l-3.04-.37Z"/>
      <path class="cls-2" d="M17.25,128.23v-7.45c0-4.74-3.83-8.58-8.57-8.58-4.73,0-8.58,3.83-8.58,8.57,0,4.74,3.83,8.59,8.57,8.6h5.62s0,3.95,0,3.95h2.97s0-5.08,0-5.08h0ZM14.25,126.36h-5.58c-3.07,0-5.57-2.5-5.57-5.59,0-3.07,2.51-5.56,5.58-5.56,3.09,0,5.58,2.5,5.58,5.57v5.58Z"/>
      <path class="cls-2" d="M97.34,112.46v-3.94s-2.97,0-2.97,0v3.94s-5.57,0-5.57,0c-4.74,0-8.59,3.84-8.6,8.58,0,4.73,3.84,8.59,8.59,8.59,4.72,0,8.58-3.84,8.58-8.58v-8.58s-.03,0-.03,0ZM94.36,121.04c0,3.08-2.5,5.57-5.57,5.57-3.09,0-5.58-2.5-5.58-5.58,0-3.08,2.5-5.57,5.59-5.57h5.56s0,5.58,0,5.58Z"/>
      <path class="cls-2" d="M66.6,86.87c-3.58,0-6.09,2.56-6.09,6.23,0,1.16.26,2.25.78,3.21h-10.74c-.07-6.13-2.41-9.24-6.98-9.24-2.86,0-5.45,1.46-7.97,4.66l.39-9.75h-2.96s-.01,14.32-.01,14.32l-26.24-.02v-9.17s-3.01,0-3.01,0v10.31c0,2.59-1.25,3.83-3.75,3.83v2.59c3.66,0,6.11-1.58,6.57-4.47h11.7s20.41.02,20.41.02l19.55.02h8.36c3.62,0,6.05-2.64,6.05-6.2,0-3.52-2.44-6.31-6.04-6.31M47.42,96.3h-12.06c1.75-3.79,4.91-6.53,7.93-6.53,2.59,0,4.15,2.21,4.15,5.66,0,.3,0,.57-.02.87M66.66,96.61c-1.82,0-3.06-1.58-3.06-3.53,0-2.11,1.17-3.45,2.89-3.45,1.81,0,3.06,1.51,3.06,3.55,0,2-1.15,3.43-2.89,3.43M104.6,93.03c0,1.38-.37,2.32-1.14,2.81-.51.34-1.45.5-2.83.5h-14.13c-1.66-.01-2.9-.31-3.7-.88-1.03-.7-.88-1.93-.87-3.7v-4.61s-2.99,0-2.99,0v4.61c0,5.11.85,7.64,6.56,7.64h17.87c2.68.02,4.19-1.6,4.2-4.3v-7.93s-2.97,0-2.97,0v5.86ZM110.37,99.42h2.99s.01-17.43.01-17.43h-2.99s-.01,17.43-.01,17.43ZM142.61,87.14c-2.83,0-5.43,1.46-7.91,4.66l.33-9.75h-2.97s-.01,14.31-.01,14.31h-10.57s0-9.18,0-9.18h-3.02s0,10.31,0,10.31c0,2.59-1.25,3.83-3.75,3.83v2.59c3.67,0,6.12-1.58,6.58-4.47l28.17.02c.09-1,.13-1.9.13-2.8,0-6.33-2.31-9.51-6.97-9.51M146.49,96.38h-12.09c1.83-3.84,4.88-6.53,7.94-6.53,2.61,0,4.15,2.24,4.15,5.66v.87ZM178.05,89.32c-3.59,0-6.11,2.61-6.11,6.21,0,.25.03.5.06.73l.02.13h-7.37c.44-.51.65-1.54.65-3.14v-6.04s-2.98,0-2.98,0v6.21c0,.93-.12,1.64-.33,2.05-.32.62-.91.91-1.81.91h-2.42c-1.14,0-1.92-.17-2.32-.46-.57-.41-.87-1.27-.86-2.59v-11.27s-2.99,0-2.99,0v12.48c-.01,1.49.35,2.65,1.07,3.52.78.94,1.89,1.4,4.01,1.4h17.16c.48,1.62,2.13,2.42,4.22,2.42,3.58,0,6.04-2.63,6.04-6.22,0-3.53-2.45-6.33-6.03-6.33M178.12,99.08c-1.81,0-3.08-1.55-3.07-3.57,0-2.02,1.21-3.45,2.92-3.45,1.78,0,3.02,1.54,3.02,3.58,0,2.06-1.19,3.43-2.86,3.43"/>
      <rect class="cls-2" x="67.68" y="81.58" width="2.93" height="3"/>
      <rect class="cls-2" x="62.56" y="81.58" width="2.94" height="3"/>
      <rect class="cls-2" x="140.51" y="81.73" width="2.97" height="2.99"/>
      <rect class="cls-2" x="162.34" y="81.75" width="2.96" height="2.99"/>
      <rect class="cls-2" x="93.76" y="81.6" width="2.94" height="3"/>
      <rect class="cls-2" x="88.63" y="81.6" width="2.95" height="3"/>
      <path class="cls-1" d="M105.99,24.93C105.99,11.21,94.86.09,81.12.09s-24.84,11.12-24.84,24.84,11.13,24.9,24.84,24.9h24.86v-24.9ZM97.29,41.11h-16.17c-8.89,0-16.15-7.23-16.15-16.17s7.26-16.12,16.15-16.12,16.17,7.23,16.17,16.12v16.17Z"/>
      <rect class="cls-1" x="97.36" y="63.94" width="8.61" height="8.61"/>
      <path class="cls-3" d="M127.73,11.43h-24.84c-13.75,0-24.9,11.15-24.9,24.87s11.15,24.87,24.9,24.87,24.84-11.15,24.84-24.87V11.43ZM119.01,36.3c0,8.92-7.23,16.14-16.12,16.14s-16.17-7.23-16.17-16.14,7.23-16.15,16.17-16.15h16.12v16.15Z"/>
      <rect class="cls-3" x="119.12" width="8.61" height="8.61"/>
    </g>
  </g>
</svg>