<?xml version="1.0" encoding="UTF-8"?>
<svg xmlns="http://www.w3.org/2000/svg" xmlns:xlink="http://www.w3.org/1999/xlink" viewBox="0 0 119.76 137.66">
  <defs>
    <style>
      .cls-1 {
        fill: url(#linear-gradient-15);
      }

      .cls-2 {
        fill: url(#linear-gradient-13);
      }

      .cls-3 {
        fill: url(#linear-gradient-9);
      }

      .cls-3, .cls-4, .cls-5, .cls-6, .cls-7, .cls-8 {
        opacity: .7;
      }

      .cls-9 {
        fill: url(#linear-gradient-2);
      }

      .cls-10 {
        fill: #b7b8ba;
      }

      .cls-11 {
        fill: url(#linear-gradient-10);
      }

      .cls-12 {
        fill: #a89475;
      }

      .cls-13 {
        mix-blend-mode: soft-light;
      }

      .cls-14 {
        fill: #8c734b;
      }

      .cls-4 {
        fill: url(#linear-gradient-12);
      }

      .cls-15 {
        fill: url(#linear-gradient-3);
      }

      .cls-16 {
        fill: url(#linear-gradient-5);
      }

      .cls-17 {
        isolation: isolate;
      }

      .cls-5 {
        fill: url(#linear-gradient-6);
      }

      .cls-18 {
        fill: url(#linear-gradient-14);
      }

      .cls-6 {
        fill: url(#linear-gradient-8);
      }

      .cls-19 {
        fill: url(#linear-gradient-7);
      }

      .cls-7 {
        fill: url(#linear-gradient-4);
      }

      .cls-20 {
        fill: url(#linear-gradient-11);
      }

      .cls-21 {
        fill: #cc8d93;
      }

      .cls-22 {
        fill: #8e1537;
      }

      .cls-23 {
        fill: #76777a;
      }

      .cls-24 {
        fill: #c5b5a0;
      }

      .cls-8 {
        fill: url(#linear-gradient);
      }

      .cls-25 {
        fill: #b4a186;
      }
    </style>
    <linearGradient id="linear-gradient" x1="48.56" y1="55.07" x2="44.52" y2="23.3" gradientUnits="userSpaceOnUse">
      <stop offset="0" stop-color="#a38d6c"/>
      <stop offset="1" stop-color="#e1d9ce"/>
    </linearGradient>
    <linearGradient id="linear-gradient-2" x1="61.11" y1="56.44" x2="35.95" y2="36.62" gradientUnits="userSpaceOnUse">
      <stop offset="0" stop-color="#a38d6c"/>
      <stop offset=".29" stop-color="#af9b7f"/>
      <stop offset=".73" stop-color="#bfae97"/>
      <stop offset="1" stop-color="#c5b5a0"/>
    </linearGradient>
    <linearGradient id="linear-gradient-3" x1="60.41" y1="59.4" x2="35.44" y2="39.32" gradientUnits="userSpaceOnUse">
      <stop offset="0" stop-color="#a38d6c"/>
      <stop offset=".29" stop-color="#af9b7f"/>
      <stop offset=".73" stop-color="#bfae97"/>
      <stop offset="1" stop-color="#c5b5a0"/>
    </linearGradient>
    <linearGradient id="linear-gradient-4" x1="44.37" y1="61.77" x2="40.33" y2="29.99" xlink:href="#linear-gradient"/>
    <linearGradient id="linear-gradient-5" x1="55.23" y1="64.48" x2="28.18" y2="47.36" xlink:href="#linear-gradient-2"/>
    <linearGradient id="linear-gradient-6" x1="40.03" y1="66.51" x2="35.99" y2="34.73" xlink:href="#linear-gradient"/>
    <linearGradient id="linear-gradient-7" x1="67.93" y1="30.44" x2="62.33" y2="-2.22" gradientUnits="userSpaceOnUse">
      <stop offset="0" stop-color="#8e1537"/>
      <stop offset="1" stop-color="#ddafb3"/>
    </linearGradient>
    <linearGradient id="linear-gradient-8" x1="56.33" y1="32.43" x2="50.73" y2="-.24" gradientUnits="userSpaceOnUse">
      <stop offset="0" stop-color="#8e1537"/>
      <stop offset="1" stop-color="#f0dcdd"/>
    </linearGradient>
    <linearGradient id="linear-gradient-9" x1="53.13" y1="32.98" x2="47.53" y2=".32" gradientUnits="userSpaceOnUse">
      <stop offset="0" stop-color="#8e1537"/>
      <stop offset="1" stop-color="#ebd0d2"/>
    </linearGradient>
    <linearGradient id="linear-gradient-10" x1="64.99" y1="30.95" x2="59.39" y2="-1.72" xlink:href="#linear-gradient-7"/>
    <linearGradient id="linear-gradient-11" x1="66.1" y1="30.76" x2="60.5" y2="-1.91" xlink:href="#linear-gradient-7"/>
    <linearGradient id="linear-gradient-12" x1="45.71" y1="34.25" x2="40.11" y2="1.58" xlink:href="#linear-gradient-9"/>
    <linearGradient id="linear-gradient-13" x1="-42.56" y1="48.58" x2="-73.97" y2="54.21" gradientTransform="translate(133.11)" gradientUnits="userSpaceOnUse">
      <stop offset="0" stop-color="#96979a"/>
      <stop offset=".14" stop-color="#9b9c9f"/>
      <stop offset=".31" stop-color="#aaabad"/>
      <stop offset=".5" stop-color="#c4c4c6"/>
      <stop offset=".63" stop-color="#dadadb"/>
      <stop offset=".8" stop-color="#d8d8d9"/>
      <stop offset=".86" stop-color="#d1d1d2"/>
      <stop offset=".9" stop-color="#c5c5c7"/>
      <stop offset=".93" stop-color="#b4b5b6"/>
      <stop offset=".96" stop-color="#9e9fa1"/>
      <stop offset=".99" stop-color="#848487"/>
      <stop offset="1" stop-color="#76777a"/>
    </linearGradient>
    <linearGradient id="linear-gradient-14" x1="-43.31" y1="44.32" x2="-74.79" y2="49.96" xlink:href="#linear-gradient-13"/>
    <linearGradient id="linear-gradient-15" x1="-44.76" y1="36.43" x2="-76.15" y2="42.05" xlink:href="#linear-gradient-13"/>
  </defs>
  <g class="cls-17">
    <g id="Layer_2" data-name="Layer 2">
      <g id="Layer_1-2" data-name="Layer 1">
        <g>
          <g>
            <g class="cls-17">
              <g class="cls-13">
                <polygon class="cls-25" points="62.45 57.22 64.03 58.45 41.04 45.33 41.64 45.35 62.45 57.22"/>
                <polygon class="cls-25" points="76.89 66.57 80.64 68.02 33.82 52.96 34.47 52.93 76.89 66.57"/>
                <polygon class="cls-25" points="56.06 63.69 58.67 64.21 26.92 60.14 27.64 60.04 56.06 63.69"/>
              </g>
            </g>
            <g>
              <polygon class="cls-21" points="49.4 34.82 47.02 35.83 72.04 19.78 72.03 20.3 49.4 34.82"/>
              <polygon class="cls-21" points="48.38 26.18 45.89 28.44 69.37 .47 69.39 1.14 48.38 26.18"/>
              <polygon class="cls-21" points="32.81 44.46 28.87 47.4 70.63 9.87 70.64 10.46 32.81 44.46"/>
            </g>
            <g>
              <g>
                <polygon class="cls-22" points="72.03 20.3 72.04 19.78 72.78 25.88 72.71 25.82 72.03 20.3"/>
                <polygon class="cls-22" points="70.64 10.46 70.63 9.87 71.55 16.1 71.48 16.11 70.64 10.46"/>
                <polygon class="cls-22" points="69.39 1.14 69.37 .47 70.19 6.74 70.13 6.76 69.39 1.14"/>
              </g>
              <g>
                <polygon class="cls-22" points="72.71 25.82 72.78 25.88 47.02 35.83 49.4 34.82 72.71 25.82"/>
                <polygon class="cls-22" points="70.13 6.76 70.19 6.74 45.89 28.44 48.38 26.18 70.13 6.76"/>
                <polygon class="cls-22" points="71.48 16.11 71.55 16.1 28.87 47.4 32.81 44.46 71.48 16.11"/>
              </g>
            </g>
            <g>
              <polygon class="cls-12" points="41.04 45.33 40.19 44.86 44.69 40.27 45.54 40.73 41.04 45.33"/>
              <polygon class="cls-12" points="26.92 60.14 26.07 59.67 30.68 54.89 31.53 55.36 26.92 60.14"/>
            </g>
            <g>
              <polygon class="cls-22" points="47.02 35.83 46.17 35.36 71.19 19.32 72.04 19.78 47.02 35.83"/>
              <polygon class="cls-22" points="45.89 28.44 45.04 27.98 68.52 0 69.37 .47 45.89 28.44"/>
              <polygon class="cls-22" points="28.87 47.4 28.02 46.94 69.78 9.41 70.63 9.87 28.87 47.4"/>
            </g>
            <g class="cls-13">
              <polygon class="cls-12" points="79.79 67.55 37.5 47.67 38.35 48.13 38.57 48.55 76.89 66.57 80.64 68.02 79.79 67.55"/>
              <polygon class="cls-12" points="30.68 54.89 31.53 55.36 31.76 55.76 56.06 63.69 58.67 64.21 57.82 63.75 30.68 54.89"/>
            </g>
            <g>
              <polygon class="cls-8" points="45.72 41.2 41.64 45.35 52.86 51.75 53.42 48.58 45.72 41.2"/>
              <polygon class="cls-9" points="62.45 57.22 54.45 49.56 53.42 48.58 52.86 51.75 53.93 52.36 62.45 57.22"/>
              <polygon class="cls-15" points="76.89 66.57 53.34 55.5 52.28 55 51.67 58.46 52.72 58.8 76.89 66.57"/>
              <polygon class="cls-7" points="38.57 48.55 34.47 52.93 51.67 58.46 52.28 55 38.57 48.55"/>
              <polygon class="cls-16" points="51.03 62.05 50.86 63.02 51.91 63.16 56.06 63.69 52.05 62.38 51.03 62.05"/>
              <polygon class="cls-5" points="31.76 55.76 27.64 60.04 50.86 63.02 51.03 62.05 31.76 55.76"/>
            </g>
            <g>
              <polygon class="cls-19" points="70.13 6.76 69.39 1.14 61.84 10.14 59.8 12.57 59.09 16.62 60.94 14.97 70.13 6.76"/>
              <polygon class="cls-6" points="48.38 26.18 59.09 16.62 59.8 12.57 48.38 26.18"/>
              <polygon class="cls-3" points="49.4 34.82 56.33 32.14 56.69 30.15 49.4 34.82"/>
              <polygon class="cls-11" points="72.71 25.82 72.03 20.3 58.28 29.12 56.69 30.15 56.33 32.14 57.83 31.57 72.71 25.82"/>
              <polygon class="cls-20" points="71.48 16.11 70.64 10.46 59.99 20.04 58.19 21.65 57.34 26.48 59.01 25.25 71.48 16.11"/>
              <polygon class="cls-4" points="32.81 44.46 57.34 26.48 58.19 21.65 32.81 44.46"/>
            </g>
            <g>
              <g>
                <path class="cls-23" d="M90.96,94.96h1.19c.26,0,.47.21.47.47v1.87c0,.26-.21.47-.47.47h-1.19c-.26,0-.47-.21-.47-.47v-1.87c0-.26.21-.47.47-.47Z"/>
                <path class="cls-23" d="M87.84,94.96h1.19c.26,0,.47.21.47.47v1.87c0,.26-.21.47-.47.47h-1.19c-.26,0-.47-.21-.47-.47v-1.87c0-.26.21-.47.47-.47Z"/>
                <g>
                  <path class="cls-23" d="M27.64,95.16h-1.38c-.21,0-.35-.16-.39-.35l-1.52-5.38h-6.06l-1.5,5.38c-.05.19-.24.35-.42.35h-1.38c-.23,0-.4-.16-.4-.38,0-.05,0-.12.02-.16l4.33-15.24c.4-1.43,1.5-1.78,2.39-1.78s1.96.32,2.36,1.75l4.33,15.26s.02.12.02.16c0,.21-.14.38-.4.38ZM21.76,79.88c-.07-.26-.21-.42-.44-.42-.26,0-.4.16-.47.42l-2.13,7.7h5.17l-2.13-7.7Z"/>
                  <path class="cls-23" d="M33.32,95.16h-1.29c-.23,0-.42-.21-.42-.47v-16.47c0-.23.16-.45.42-.45h1.29c.23,0,.42.19.42.45v16.47c0,.23-.17.47-.42.47Z"/>
                  <path class="cls-23" d="M119.08,95.16h-1.29c-.23,0-.42-.21-.42-.47v-16.47c0-.23.16-.45.42-.45h1.29c.24,0,.42.19.42.45v16.47c0,.23-.16.47-.42.47Z"/>
                  <path class="cls-23" d="M48.02,95.11c-.61.09-2.36.21-4.56.21-2.51,0-4.98-.49-4.98-4.35v-12.73c0-.26.21-.47.47-.47h1.19c.26,0,.47.21.47.47v12.73c0,1.78.4,2.44,2.88,2.44h4.52c.16,0,.26.12.26.28v1.1c0,.14-.09.3-.23.33Z"/>
                </g>
                <path class="cls-23" d="M108.43,91.28h1.13c2.5,0,4.98-.49,4.98-4.35v-8.71c0-.26-.21-.47-.47-.47h-1.19c-.26,0-.47.21-.47.47v8.47c0,1.78-.4,2.43-2.88,2.43h-1.72c-1.08,0-2.29-.55-3.47-1.14v-3.92c0-.26-.23-.52-.52-.52h-1.26c-.26,0-.49.23-.49.52v8.16c0,2.29-1.29,3.44-3.15,3.44-.54,0-.99,0-1.42-.03v-.02h-.39c-.24,0-.44.13-.39.4l.16.97c.06.35.19.51.64.59.43.03.94.07,1.4.07,3.15,0,5.41-2.18,5.41-5.42v-2.12c1.41.79,2.57,1.18,4.08,1.18"/>
                <path class="cls-23" d="M56.32,93.03c-1.78,0-2.43-.4-2.43-2.88v-3.5c0-.16-.12-.26-.28-.26h-1.1c-.14,0-.31.09-.33.23-.09.61-.21,1.33-.21,3.53,0,2.5.49,4.98,4.35,4.98h4.15c3.15,0,5.41-2.18,5.41-5.42v-.42c1.03,1.33,2.57,1.98,4.09,1.98h19.84c2.51,0,4.98-.49,4.98-4.35v-4.87c0-.26-.21-.47-.47-.47h-1.2c-.26,0-.46.21-.46.47v4.6c0,1.78-.4,2.43-2.88,2.43h-20.43c-1.08,0-2.49-.95-3.47-1.93v-8.86c0-.26-.23-.52-.51-.52h-1.26c-.25,0-.49.23-.49.52v11.3c0,2.29-1.29,3.44-3.15,3.44h-4.15Z"/>
              </g>
              <path class="cls-23" d="M101.58,80.64c.56,0,1-.24,1.28-.73.35.51.79.77,1.31.79.47,0,.88-.11,1.16-.35.22-.19.35-.46.35-.74v-1.52c0-.1-.09-.2-.21-.2h-.48c-.1,0-.19.09-.19.2v1.34c0,.47-.24.62-.71.62-.54,0-.78-.31-.78-.95v-1.01c0-.1-.03-.2-.21-.2h-.52c-.13,0-.19.09-.19.2v1.01c0,.64-.25.95-.75.95-.47.02-.72-.2-.72-.64v-1.32c0-.1-.08-.2-.2-.2h-.48c-.1,0-.2.09-.2.2v1.52c0,.29.12.53.34.72.28.23.69.33,1.19.31"/>
              <path class="cls-23" d="M4.94,77.61H1.31c-.64,0-1.05.52-1.05,1.11v15.97c0,.26.19.47.42.47h1.26c.26,0,.42-.23.42-.47v-6.88c1.24.05,1.8.07,2.57.07h.61l4.19,6.97c.19.3.33.3.61.3h1.49c.19,0,.31-.14.31-.3,0-.07-.02-.14-.07-.21l-4.26-7.11c2.13-.56,3.67-2.1,3.67-4.73v-.16c0-3.79-2.86-5.03-6.55-5.03ZM2.36,86.02v-5.82c0-.35.25-.67.63-.67h1.95c2.92,0,4.45.77,4.45,3.11v.16c0,2.53-1.57,3.25-4.45,3.25-.54,0-1.55-.02-2.57-.04h0Z"/>
            </g>
          </g>
          <g>
            <polygon class="cls-10" points="88.42 62.24 88.03 62.38 82.41 31.72 83.41 34.8 88.42 62.24"/>
            <polygon class="cls-10" points="70.89 59.41 70.41 59.52 75.53 30.76 75.53 33.38 70.89 59.41"/>
            <polygon class="cls-10" points="79.79 60.93 79.35 61.06 75.28 9.2 76.09 13.94 79.79 60.93"/>
            <polygon class="cls-23" points="88.03 62.38 87.16 61.91 81.55 31.26 82.41 31.72 88.03 62.38"/>
            <polygon class="cls-23" points="70.41 59.52 69.55 59.06 74.67 30.29 75.53 30.76 70.41 59.52"/>
            <polygon class="cls-23" points="79.35 61.06 78.5 60.59 74.42 8.73 75.28 9.2 79.35 61.06"/>
            <polygon class="cls-23" points="83.41 34.8 82.41 31.72 93.79 63.32 93.6 63.09 83.41 34.8"/>
            <polygon class="cls-23" points="75.53 33.38 75.53 30.76 75.99 60.51 75.92 60.31 75.53 33.38"/>
            <polygon class="cls-23" points="76.09 13.94 75.28 9.2 85.14 61.91 85.02 61.71 76.09 13.94"/>
            <polygon class="cls-23" points="93.6 63.09 93.79 63.32 88.03 62.38 88.42 62.24 93.6 63.09"/>
            <polygon class="cls-23" points="85.02 61.71 85.14 61.91 79.35 61.06 79.79 60.93 85.02 61.71"/>
            <polygon class="cls-23" points="75.92 60.31 75.99 60.51 70.41 59.52 70.89 59.41 75.92 60.31"/>
            <polygon class="cls-2" points="83.41 34.8 88.42 62.24 93.6 63.09 83.41 34.8"/>
            <polygon class="cls-18" points="75.92 60.31 75.53 33.38 70.89 59.41 75.92 60.31"/>
            <polygon class="cls-1" points="79.79 60.93 85.02 61.71 76.09 13.94 79.79 60.93"/>
          </g>
          <polygon class="cls-12" points="33.82 52.96 32.97 52.5 37.5 47.67 38.35 48.13 33.82 52.96"/>
          <polygon class="cls-24" points="27.64 60.04 26.92 60.14 31.53 55.36 31.76 55.76 27.64 60.04"/>
          <polygon class="cls-24" points="34.47 52.93 33.82 52.96 38.35 48.13 38.57 48.55 34.47 52.93"/>
          <polygon class="cls-24" points="41.64 45.35 41.04 45.33 45.54 40.73 45.72 41.2 41.64 45.35"/>
          <polygon class="cls-12" points="30.68 54.89 31.53 55.36 31.76 55.76 56.06 63.69 58.67 64.21 57.82 63.75 30.68 54.89"/>
          <polygon class="cls-12" points="62.45 57.22 64.03 58.45 45.54 40.73 45.72 41.2 62.45 57.22"/>
          <polygon class="cls-12" points="79.79 67.55 37.5 47.67 38.35 48.13 38.57 48.55 76.89 66.57 80.64 68.02 79.79 67.55"/>
        </g>
        <path class="cls-14" d="M6.98,135.3c0,.06-.02.1-.06.13-.04.03-.09.05-.15.05h-1.22c-.05,0-.1-.02-.14-.05-.04-.04-.06-.08-.08-.13l-.53-2.04h-2.64l-.53,2.04s-.04.09-.08.13c-.04.04-.09.05-.14.05H.21c-.06,0-.11-.02-.15-.05-.04-.03-.06-.08-.06-.13,0,0,0-.01,0-.02,0,0,0-.02,0-.03l1.88-6.73c.07-.25.17-.45.3-.59.13-.14.27-.25.42-.33.15-.08.3-.12.46-.15.16-.02.3-.03.42-.03s.26,0,.42.03c.16.02.31.07.46.15.15.08.29.18.42.33.13.14.23.34.3.59l1.88,6.73s0,.02,0,.03c0,0,0,.01,0,.02M3.67,128.85c-.02-.06-.03-.11-.06-.13-.02-.02-.07-.04-.13-.04s-.1.01-.13.04c-.02.03-.04.07-.06.13l-.83,3.19h2.02l-.83-3.19Z"/>
        <path class="cls-14" d="M12.06,135.15c0,.08-.02.15-.05.19-.03.04-.1.07-.2.09-.13.04-.32.07-.57.1-.25.03-.56.04-.91.04-.38,0-.72-.06-1.04-.16-.32-.11-.59-.27-.83-.49-.23-.22-.42-.49-.55-.82-.13-.33-.2-.7-.2-1.14v-1c0-.44.07-.82.2-1.14.13-.33.32-.6.55-.82.23-.22.51-.38.83-.49.32-.11.66-.16,1.04-.16.35,0,.66.01.91.04.25.03.44.06.57.1.1.02.17.05.2.09.03.04.05.1.05.19v.7c0,.06-.02.1-.06.12-.04.02-.09.04-.15.04h-.04c-.11-.01-.22-.03-.32-.04-.1-.01-.2-.02-.31-.02-.11,0-.23,0-.37,0-.14,0-.3,0-.48,0-.14,0-.27.02-.4.07-.13.04-.25.12-.35.22-.1.1-.19.25-.25.43-.06.18-.1.41-.1.69v1c0,.28.03.51.1.69.06.18.15.33.25.43.1.11.22.18.35.22.13.04.26.06.4.06.18,0,.34,0,.48,0,.14,0,.26,0,.37,0,.11,0,.21-.01.31-.02.1,0,.21-.02.32-.04h.04c.06,0,.11.01.15.04.04.03.06.07.06.12v.7Z"/>
        <path class="cls-14" d="M17.26,135.15c0,.08-.02.15-.05.19-.03.04-.09.07-.2.09-.13.04-.32.07-.57.1-.25.03-.55.04-.91.04-.38,0-.72-.06-1.04-.16-.32-.11-.59-.27-.83-.49-.23-.22-.42-.49-.55-.82-.13-.33-.2-.7-.2-1.14v-1c0-.44.07-.82.2-1.14.13-.33.32-.6.55-.82.23-.22.51-.38.83-.49.32-.11.66-.16,1.04-.16.35,0,.65.01.91.04.25.03.44.06.57.1.1.02.17.05.2.09.03.04.05.1.05.19v.7c0,.06-.02.1-.06.12-.04.02-.09.04-.15.04h-.03c-.11-.01-.22-.03-.32-.04-.1-.01-.2-.02-.31-.02-.11,0-.23,0-.37,0-.14,0-.3,0-.48,0-.14,0-.27.02-.4.07-.13.04-.25.12-.35.22-.1.1-.19.25-.25.43-.06.18-.1.41-.1.69v1c0,.28.03.51.1.69.06.18.15.33.25.43.1.11.22.18.35.22.13.04.26.06.4.06.18,0,.34,0,.48,0,.14,0,.26,0,.37,0,.11,0,.21-.01.31-.02.1,0,.21-.02.32-.04h.03c.06,0,.11.01.15.04.04.03.06.07.06.12v.7Z"/>
        <path class="cls-14" d="M23.65,132.9c0,.39-.06.74-.18,1.07-.12.33-.29.6-.52.84-.23.24-.51.42-.86.56-.34.13-.74.21-1.19.21s-.85-.07-1.19-.21c-.34-.14-.62-.32-.86-.56-.23-.24-.4-.52-.52-.84-.12-.32-.18-.68-.18-1.07v-.87c0-.39.06-.74.18-1.07.12-.33.29-.61.52-.84.23-.24.52-.42.86-.56.34-.14.73-.21,1.19-.21s.85.07,1.19.21c.34.14.63.32.86.56.23.24.4.52.52.84.12.33.18.68.18,1.07v.87ZM22.13,132.03c0-.44-.1-.8-.31-1.06-.21-.26-.51-.39-.92-.39s-.71.13-.92.39c-.21.26-.31.61-.31,1.06v.87c0,.44.1.8.31,1.06.21.26.51.39.92.39s.71-.13.92-.39c.21-.26.31-.61.31-1.06v-.87Z"/>
        <path class="cls-14" d="M33.19,135.26c0,.06-.02.11-.07.16-.05.04-.1.07-.16.07h-1.06c-.06,0-.11-.02-.16-.07-.05-.05-.07-.1-.07-.16v-3.64c0-.2-.01-.38-.04-.51-.03-.13-.07-.24-.13-.31-.06-.08-.15-.13-.25-.17-.11-.03-.24-.05-.4-.05-.11,0-.26.02-.46.06-.2.04-.4.11-.61.21.02.12.03.25.04.38,0,.13,0,.26,0,.39v3.64c0,.06-.02.11-.07.16-.05.04-.1.07-.16.07h-1.06c-.06,0-.11-.02-.16-.07-.05-.05-.07-.1-.07-.16v-3.64c0-.2-.01-.38-.04-.51-.02-.13-.06-.24-.12-.31-.06-.08-.14-.13-.24-.17-.1-.03-.24-.05-.4-.05-.24,0-.59.12-1.06.35v4.33c0,.06-.02.11-.07.16-.05.04-.1.07-.16.07h-1.05c-.06,0-.12-.02-.16-.07-.05-.05-.07-.1-.07-.16v-5.61c0-.06.02-.11.07-.15.04-.04.1-.07.16-.07h1c.06,0,.12.02.16.07.05.04.07.1.07.15v.23c.25-.14.5-.27.75-.37.25-.1.55-.15.9-.15s.6.04.82.13c.22.09.39.21.52.36.29-.15.58-.27.87-.36.29-.08.63-.13,1.03-.13s.71.06.96.18c.25.11.44.28.58.48.14.21.23.44.29.71.05.27.08.57.08.88v3.65Z"/>
        <path class="cls-14" d="M40.05,132.87c0,.84-.23,1.5-.68,1.98-.45.48-1.14.72-2.07.72-.14,0-.3,0-.49-.02-.19-.01-.39-.03-.61-.06v1.9c0,.06-.02.11-.07.15-.04.04-.1.06-.16.06h-1.05c-.06,0-.12-.02-.16-.06-.05-.04-.07-.09-.07-.15v-7.47c0-.08.02-.14.06-.18.04-.04.12-.08.25-.11.36-.09.74-.15,1.15-.21.4-.05.79-.08,1.16-.08.93,0,1.62.24,2.07.71.45.48.68,1.14.68,1.98v.83ZM38.53,132.05c0-.22-.02-.42-.05-.61-.04-.19-.1-.34-.19-.48-.09-.13-.22-.24-.38-.32-.16-.08-.36-.12-.61-.12-.21,0-.41,0-.62.02-.21.01-.37.03-.48.05v3.73c.16.02.35.04.57.05.22.02.4.02.53.02.25,0,.45-.04.61-.12.16-.08.29-.19.38-.32.09-.14.16-.3.19-.48.03-.18.05-.39.05-.61v-.82Z"/>
        <path class="cls-14" d="M42.88,135.26c0,.06-.02.11-.06.16-.04.04-.09.07-.16.07h-1.07c-.06,0-.12-.02-.16-.07-.04-.05-.07-.1-.07-.16v-7.73c0-.06.02-.11.07-.15.05-.04.1-.07.16-.07h1.07c.06,0,.11.02.16.07.04.04.06.09.06.15v7.73Z"/>
        <path class="cls-14" d="M46.02,128.41c0,.06-.02.11-.07.15-.05.04-.1.07-.16.07h-1.11c-.06,0-.12-.02-.17-.07-.05-.04-.08-.09-.08-.15v-.94c0-.06.03-.11.08-.15.05-.04.1-.06.17-.06h1.11c.06,0,.11.02.16.06.04.04.07.09.07.15v.94ZM45.99,135.26c0,.06-.02.11-.07.16-.05.04-.1.07-.16.07h-1.06c-.06,0-.12-.02-.16-.07-.04-.05-.07-.1-.07-.16v-5.61c0-.06.02-.11.07-.15.05-.04.1-.07.16-.07h1.06c.06,0,.11.02.16.07.05.04.07.09.07.15v5.61Z"/>
        <path class="cls-14" d="M51.87,133.9c0,.24-.05.46-.14.66-.09.2-.23.38-.42.53-.19.15-.42.27-.71.35-.29.08-.61.13-.99.13-.12,0-.25,0-.42-.01-.16,0-.34-.02-.54-.04-.19-.02-.38-.04-.57-.06-.19-.02-.37-.06-.53-.1-.14-.04-.22-.12-.22-.25v-.65s.02-.08.05-.12c.04-.04.08-.05.14-.05h.05c.14.01.3.03.49.04.19.01.37.03.56.04.18,0,.36.02.52.03.16,0,.28,0,.37,0,.18,0,.32-.01.42-.04.11-.02.19-.06.25-.11.06-.05.09-.1.11-.17.02-.06.03-.13.03-.2,0-.1-.04-.19-.12-.27-.08-.08-.21-.17-.39-.28l-1.57-.9c-.28-.17-.51-.38-.69-.63-.18-.25-.27-.54-.27-.85,0-1.07.73-1.61,2.18-1.61.23,0,.44,0,.63.02.19.01.36.03.52.05.16.02.31.04.46.07.14.03.29.05.44.08.14.04.21.12.21.25v.63c0,.14-.06.21-.18.21h-.05c-.08,0-.2-.02-.34-.04-.15-.02-.31-.03-.48-.04-.18-.01-.36-.02-.55-.03-.19-.01-.36-.02-.52-.02-.28,0-.48.03-.6.1-.13.07-.19.19-.19.35,0,.09.04.16.12.23.08.07.19.14.34.22l1.5.86c.24.14.43.27.57.41.15.13.26.27.34.41.08.13.13.27.16.41.02.14.03.27.03.41"/>
        <path class="cls-14" d="M58.43,135.26c0,.06-.02.11-.07.16-.05.04-.1.07-.16.07h-1.06c-.06,0-.11-.02-.16-.07-.04-.05-.07-.1-.07-.16v-3.53c0-.24-.01-.43-.04-.58-.03-.15-.07-.27-.14-.35-.07-.08-.16-.15-.29-.18-.12-.04-.28-.05-.47-.05-.39,0-.83.12-1.33.37v4.34c0,.06-.02.11-.07.16-.05.04-.1.07-.16.07h-1.06c-.06,0-.12-.02-.16-.07-.05-.05-.07-.1-.07-.16v-7.73c0-.06.02-.11.07-.15.05-.04.1-.07.16-.07h1.06c.06,0,.11.02.16.07.04.04.07.09.07.15v2.22c.22-.12.46-.22.73-.29.26-.07.6-.11,1.01-.11s.73.06.99.18c.26.12.48.29.63.51.16.21.27.47.33.76.06.29.1.6.1.93v3.53Z"/>
        <path class="cls-14" d="M61.51,128.41c0,.06-.02.11-.07.15-.05.04-.1.07-.16.07h-1.12c-.06,0-.12-.02-.17-.07-.05-.04-.07-.09-.07-.15v-.94c0-.06.02-.11.07-.15.05-.04.11-.06.17-.06h1.12c.06,0,.11.02.16.06.05.04.07.09.07.15v.94ZM61.48,135.26c0,.06-.02.11-.07.16-.05.04-.1.07-.16.07h-1.06c-.06,0-.12-.02-.16-.07-.05-.05-.07-.1-.07-.16v-5.61c0-.06.02-.11.07-.15.05-.04.1-.07.16-.07h1.06c.06,0,.11.02.16.07.05.04.07.09.07.15v5.61Z"/>
        <path class="cls-14" d="M68.31,135.26c0,.06-.02.11-.07.16-.05.04-.1.07-.16.07h-1.06c-.06,0-.12-.02-.16-.07-.04-.05-.07-.1-.07-.16v-3.5c0-.23-.01-.43-.03-.58-.02-.15-.06-.27-.13-.36-.07-.09-.17-.15-.29-.19-.13-.04-.31-.06-.53-.06-.2,0-.4.04-.62.1-.21.07-.44.16-.68.28v4.32c0,.06-.02.11-.07.16-.04.04-.1.07-.16.07h-1.06c-.06,0-.12-.02-.16-.07-.05-.05-.07-.1-.07-.16v-5.61c0-.06.02-.11.07-.15.04-.04.1-.07.16-.07h1c.06,0,.12.02.16.07.05.04.07.09.07.15v.22c.17-.1.32-.18.46-.25.14-.06.29-.12.43-.15.15-.04.29-.07.45-.09.15-.02.32-.03.52-.03.42,0,.75.06,1.01.18.26.12.46.29.6.51.14.21.24.47.29.76.05.29.08.61.08.95v3.5Z"/>
        <path class="cls-14" d="M75.44,130.17c0,.08-.01.13-.04.16-.03.03-.07.05-.15.08l-.38.14c.09.12.16.25.21.38.05.13.07.29.07.48v.08c0,.67-.24,1.16-.71,1.48-.47.32-1.14.47-2.02.47-.3,0-.56-.02-.77-.06-.21-.04-.37-.08-.48-.12-.13.08-.19.17-.19.28,0,.1.03.18.1.23.06.05.16.09.29.12l1.35.3c.39.09.75.17,1.07.25.32.08.59.18.81.31.22.12.39.27.52.46.12.18.19.42.19.71v.07c0,.55-.23.97-.68,1.26-.45.29-1.16.43-2.14.43s-1.64-.15-2.12-.47c-.48-.31-.72-.75-.72-1.31v-.1c0-.22.05-.43.15-.64.1-.2.25-.38.43-.54-.16-.12-.29-.26-.38-.43-.09-.18-.14-.36-.14-.56h0c0-.17.04-.33.11-.49.08-.16.19-.29.34-.39-.18-.16-.3-.35-.37-.55-.07-.2-.1-.44-.1-.71v-.08c0-.26.05-.52.15-.76.1-.24.26-.45.48-.63.22-.18.5-.33.84-.43.34-.11.76-.16,1.26-.16h2.69c.08,0,.16.03.22.09.06.06.09.12.09.2v.45ZM73.8,135.9c0-.06-.01-.11-.04-.16-.03-.05-.09-.1-.18-.15-.09-.05-.23-.1-.41-.15-.18-.05-.42-.11-.72-.18l-1.02-.23c-.08.12-.15.22-.21.32-.05.1-.08.24-.08.43v.1c0,.11.02.21.06.29.04.09.12.17.22.23.1.06.24.11.42.14.18.03.4.05.67.05s.5-.02.67-.04c.17-.03.3-.07.4-.12.1-.05.16-.11.19-.19.03-.08.05-.17.05-.27v-.07ZM73.67,131.42c0-.13-.02-.25-.05-.36-.04-.11-.1-.21-.19-.29-.09-.08-.22-.15-.38-.19-.16-.05-.36-.07-.61-.07s-.45.02-.61.07c-.16.05-.29.11-.38.19-.09.08-.16.18-.2.29-.04.11-.06.23-.06.36v.09c0,.1.01.2.05.3.03.1.09.19.18.27.09.08.21.15.37.2.16.05.38.08.64.08.48,0,.8-.07.97-.22.17-.15.26-.36.26-.63v-.09Z"/>
        <path class="cls-14" d="M84.18,135.27c0,.06-.02.11-.07.15-.05.04-.1.06-.16.06h-.98c-.06,0-.11-.02-.16-.06-.05-.04-.07-.09-.07-.15v-.17c-.27.15-.54.27-.8.35-.27.08-.54.12-.82.12-.24,0-.47-.03-.71-.08-.24-.05-.45-.14-.64-.28-.19-.14-.34-.32-.46-.55-.12-.23-.18-.53-.18-.89v-.04c0-.31.05-.58.16-.81.1-.23.27-.42.49-.58.23-.16.52-.28.87-.35.36-.08.78-.12,1.28-.12h.72v-.48c0-.35-.08-.59-.25-.7-.16-.11-.42-.17-.76-.17-.37,0-.72,0-1.07.03-.34.02-.61.04-.8.06h-.06c-.06,0-.11-.01-.15-.03-.04-.02-.06-.07-.06-.15v-.68c0-.12.07-.2.22-.22.23-.04.51-.08.83-.11.33-.04.69-.05,1.09-.05.82,0,1.44.17,1.88.5.43.34.65.85.65,1.55v3.86ZM82.67,132.82h-.73c-.26,0-.48.02-.64.06-.17.04-.3.09-.39.17-.1.07-.16.17-.2.28-.04.11-.05.25-.05.4v.04c0,.27.07.44.2.53.13.09.34.13.63.13.21,0,.41-.03.62-.08.21-.06.39-.13.56-.21v-1.32Z"/>
        <path class="cls-14" d="M95.06,127.69s0,.02,0,.03c0,0,0,.01,0,.03l-1.88,6.73c-.07.25-.17.45-.3.59-.13.14-.27.25-.42.33-.15.08-.3.12-.46.15-.16.02-.3.03-.42.03s-.26-.01-.42-.03c-.16-.02-.31-.07-.46-.15-.15-.08-.29-.18-.42-.33-.13-.14-.23-.34-.3-.59l-1.88-6.73s0-.02,0-.03c0,0,0-.01,0-.03,0-.06.02-.1.06-.14.04-.03.09-.05.15-.05h1.22c.05,0,.1.02.14.05.04.04.06.08.08.13l1.67,6.45c.01.06.03.11.06.13.02.02.07.04.13.04s.1-.01.13-.04c.02-.03.04-.07.06-.13l1.67-6.45c.01-.05.04-.09.08-.13.04-.04.08-.05.14-.05h1.22c.06,0,.11.02.15.05.04.03.06.08.06.14"/>
        <path class="cls-14" d="M97.67,128.41c0,.06-.02.11-.07.15-.05.04-.1.07-.16.07h-1.11c-.06,0-.12-.02-.17-.07-.05-.04-.08-.09-.08-.15v-.94c0-.06.03-.11.08-.15.05-.04.1-.06.17-.06h1.11c.06,0,.12.02.16.06.04.04.07.09.07.15v.94ZM97.63,135.26c0,.06-.02.11-.07.16-.04.04-.1.07-.16.07h-1.05c-.06,0-.12-.02-.16-.07-.05-.05-.07-.1-.07-.16v-5.61c0-.06.02-.11.07-.15.04-.04.1-.07.16-.07h1.05c.06,0,.12.02.16.07.05.04.07.09.07.15v5.61Z"/>
        <path class="cls-14" d="M103.51,133.9c0,.24-.05.46-.14.66-.09.2-.23.38-.42.53-.19.15-.42.27-.71.35-.28.08-.61.13-.99.13-.11,0-.25,0-.42-.01-.17,0-.34-.02-.54-.04-.19-.02-.38-.04-.57-.06-.19-.02-.37-.06-.53-.1-.15-.04-.22-.12-.22-.25v-.65s.02-.08.05-.12c.03-.04.08-.05.14-.05h.04c.14.01.3.03.49.04.19.01.37.03.56.04.18,0,.35.02.52.03.16,0,.29,0,.37,0,.17,0,.32-.01.42-.04.11-.02.19-.06.25-.11.06-.05.1-.1.11-.17.02-.06.03-.13.03-.2,0-.1-.04-.19-.11-.27-.08-.08-.21-.17-.39-.28l-1.58-.9c-.28-.17-.51-.38-.69-.63-.18-.25-.27-.54-.27-.85,0-1.07.73-1.61,2.18-1.61.23,0,.44,0,.63.02.19.01.36.03.52.05.16.02.32.04.46.07.15.03.29.05.44.08.14.04.21.12.21.25v.63c0,.14-.06.21-.18.21h-.04c-.09,0-.2-.02-.35-.04-.15-.02-.31-.03-.48-.04-.17-.01-.36-.02-.54-.03-.19-.01-.36-.02-.52-.02-.28,0-.48.03-.6.1-.13.07-.19.19-.19.35,0,.09.04.16.12.23.08.07.19.14.34.22l1.5.86c.24.14.43.27.58.41.15.13.26.27.34.41.08.13.13.27.16.41.02.14.03.27.03.41"/>
        <path class="cls-14" d="M106.36,128.41c0,.06-.02.11-.07.15-.05.04-.1.07-.16.07h-1.11c-.06,0-.12-.02-.17-.07-.05-.04-.07-.09-.07-.15v-.94c0-.06.02-.11.07-.15.05-.04.11-.06.17-.06h1.11c.06,0,.12.02.16.06.04.04.07.09.07.15v.94ZM106.33,135.26c0,.06-.02.11-.07.16-.05.04-.1.07-.16.07h-1.06c-.06,0-.12-.02-.16-.07-.04-.05-.07-.1-.07-.16v-5.61c0-.06.02-.11.07-.15.05-.04.1-.07.16-.07h1.06c.06,0,.11.02.16.07.05.04.07.09.07.15v5.61Z"/>
        <path class="cls-14" d="M113.15,132.9c0,.39-.06.74-.18,1.07-.12.33-.29.6-.52.84-.23.24-.51.42-.86.56-.34.13-.74.21-1.19.21s-.85-.07-1.19-.21c-.34-.14-.62-.32-.85-.56-.23-.24-.4-.52-.52-.84-.12-.32-.18-.68-.18-1.07v-.87c0-.39.06-.74.18-1.07.12-.33.29-.61.52-.84.23-.24.52-.42.85-.56.34-.14.74-.21,1.19-.21s.85.07,1.19.21c.34.14.63.32.86.56.23.24.41.52.52.84.12.33.18.68.18,1.07v.87ZM111.63,132.03c0-.44-.1-.8-.31-1.06-.21-.26-.52-.39-.92-.39s-.71.13-.92.39c-.21.26-.31.61-.31,1.06v.87c0,.44.1.8.31,1.06.21.26.51.39.92.39s.71-.13.92-.39c.2-.26.31-.61.31-1.06v-.87Z"/>
        <path class="cls-14" d="M119.75,135.26c0,.06-.02.11-.07.16-.05.04-.1.07-.16.07h-1.06c-.06,0-.12-.02-.16-.07-.04-.05-.07-.1-.07-.16v-3.5c0-.23,0-.43-.03-.58-.02-.15-.06-.27-.13-.36-.06-.09-.16-.15-.29-.19-.13-.04-.31-.06-.53-.06-.2,0-.4.04-.62.1-.21.07-.44.16-.68.28v4.32c0,.06-.02.11-.07.16-.05.04-.1.07-.17.07h-1.05c-.06,0-.11-.02-.16-.07-.04-.05-.07-.1-.07-.16v-5.61c0-.06.02-.11.07-.15.05-.04.1-.07.16-.07h1c.06,0,.12.02.16.07.05.04.07.09.07.15v.22c.17-.1.33-.18.47-.25.14-.06.29-.12.43-.15.15-.04.29-.07.45-.09.16-.02.33-.03.52-.03.41,0,.75.06,1.01.18.26.12.46.29.6.51.14.21.24.47.29.76.05.29.08.61.08.95v3.5Z"/>
        <g>
          <path class="cls-14" d="M28.15,116.8c0-.06-.03-.1-.07-.14-.04-.04-.1-.06-.19-.06h-.96c-.07,0-.12.02-.17.06-.04.04-.06.09-.06.14.01.51.02.99.02,1.43v1.27c0,.17-.03.27-.09.3-.06.03-.18.05-.37.05h-.64s-2.45,0-2.45,0H5.69c-.25,0-.43-.04-.55-.11-.11-.07-.17-.22-.17-.46v-2.92c0-.06-.01-.1-.03-.13-.02-.03-.08-.05-.16-.07-.17-.05-.41-.09-.72-.12-.31-.03-.61-.04-.91-.04-1.01,0-1.77.23-2.29.7-.52.47-.78,1.12-.78,1.96v.21c0,.38.06.71.18.99.12.28.29.5.5.68.21.18.45.31.73.39.28.08.58.12.9.12h.15c.26,0,.53-.04.78-.11.25-.08.46-.19.61-.33.13.21.32.36.57.46.25.09.58.14.97.14h20.55c.15,0,.32,0,.5,0,.18,0,.36-.01.53-.02.17,0,.33-.02.47-.04.14-.01.25-.03.34-.05.09-.04.16-.08.19-.13.03-.05.06-.11.07-.18.02-.19.03-.44.04-.75,0-.31,0-.69,0-1.15v-.99c0-.16,0-.32,0-.5,0-.17-.01-.37-.02-.6ZM3.53,119.25c0,.16-.07.29-.21.36-.15.08-.35.12-.61.12h-.17c-.35,0-.61-.09-.78-.26-.17-.17-.25-.46-.25-.87v-.15c0-.41.13-.72.39-.92.26-.2.62-.3,1.08-.3.07,0,.17,0,.29,0,.12,0,.21.01.26.02v1.99Z"/>
          <path class="cls-14" d="M27.87,122.14h-.8c-.07,0-.13.02-.19.07-.06.05-.09.1-.09.17v.85c0,.06.03.11.09.16.06.04.12.07.19.07h.8c.08,0,.14-.02.19-.07.05-.05.08-.1.08-.16v-.85c0-.07-.02-.13-.08-.17-.05-.05-.11-.07-.19-.07Z"/>
          <path class="cls-14" d="M25.75,122.14h-.79c-.08,0-.14.02-.19.07-.05.05-.08.1-.08.17v.85c0,.06.03.11.08.16.05.04.12.07.19.07h.79c.07,0,.13-.02.2-.07.06-.05.09-.1.09-.16v-.85c0-.07-.03-.13-.09-.17-.06-.05-.12-.07-.2-.07Z"/>
          <path class="cls-14" d="M31.26,114.99h1.76c.12,0,.18-.04.18-.13v-.32c0-.07-.06-.11-.18-.11h-.8c-.07-.04-.12-.1-.17-.19-.04-.09-.07-.2-.07-.32,0-.16.04-.27.13-.33.09-.06.24-.09.44-.09h.4c.1,0,.15-.04.15-.11v-.29c0-.05-.04-.09-.13-.11-.09-.03-.19-.05-.29-.05-.1,0-.19,0-.24,0-.76,0-1.14.3-1.14.9,0,.1.02.21.05.32.03.11.07.2.14.29h-.22c-.12,0-.19.03-.19.11v.31c0,.08.06.13.19.13Z"/>
          <path class="cls-14" d="M34.38,116.2c-.08-.03-.19-.05-.33-.07-.13-.02-.28-.04-.43-.05-.15-.02-.31-.03-.47-.04-.16,0-.32-.02-.46-.02-.98,0-1.74.23-2.27.69-.53.46-.79,1.11-.79,1.95v.21c0,.78.22,1.36.67,1.75.45.4,1.06.59,1.84.59.07,0,.15,0,.23,0,.09,0,.18-.01.27-.03.09-.01.18-.03.26-.05.08-.02.15-.05.21-.08v.49c-.02.21-.06.37-.14.5-.08.13-.19.23-.34.3-.15.07-.34.12-.56.15-.22.03-.48.04-.78.04h-1.04c-.14,0-.21.06-.21.18v.78c0,.06.01.1.03.13.02.03.07.05.15.07.05.01.13.02.25.03.12,0,.25.01.4.02.14,0,.28,0,.42,0h.3c.39,0,.77-.03,1.13-.1.36-.06.67-.18.95-.37.27-.18.49-.43.65-.76.16-.32.24-.75.24-1.26v-4.87c0-.06-.01-.1-.03-.12-.02-.03-.08-.05-.16-.08ZM33.13,119.6c0,.13-.08.22-.25.24-.16.03-.37.04-.61.04-.43,0-.74-.1-.92-.29-.19-.2-.29-.5-.29-.9v-.13c0-.41.12-.74.35-.96.24-.22.57-.34,1.02-.34.24,0,.47.01.69.03v2.32Z"/>
          <path class="cls-14" d="M38.11,116.63h-.99c-.06,0-.12.02-.16.06-.04.04-.07.09-.07.14v4.79c0,.22-.02.39-.06.52-.04.12-.1.22-.18.29-.08.06-.18.1-.3.12-.12.02-.26.03-.42.03h-.23c-.14,0-.22.06-.22.17v.78c0,.11.06.18.19.21.08.01.19.02.33.02.14,0,.23,0,.29,0,.43,0,.8-.06,1.1-.18.3-.12.52-.33.68-.63.12-.21.2-.45.22-.7.03-.25.04-.52.04-.79v-4.63c0-.06-.02-.1-.06-.14-.04-.04-.09-.06-.15-.06Z"/>
          <path class="cls-14" d="M46.27,114.97h.79c.07,0,.13-.02.19-.07.06-.05.09-.1.09-.17v-.83c0-.07-.03-.13-.09-.18-.06-.05-.12-.07-.2-.07h-.79c-.08,0-.14.02-.2.07-.05.05-.08.11-.08.18v.83c0,.06.03.12.08.17.05.05.12.07.2.07Z"/>
          <path class="cls-14" d="M48.38,114.97h.8c.08,0,.14-.02.19-.07.05-.05.07-.1.07-.17v-.83c0-.07-.02-.13-.07-.18-.05-.05-.11-.07-.19-.07h-.8c-.07,0-.13.02-.19.07-.06.05-.09.11-.09.18v.83c0,.06.03.12.09.17.06.05.12.07.19.07Z"/>
          <path class="cls-14" d="M64.39,122.14h-.79c-.08,0-.14.02-.19.07-.05.05-.08.1-.08.17v.85c0,.06.03.11.08.16.05.04.12.07.19.07h.79c.07,0,.13-.02.19-.07.06-.05.09-.1.09-.16v-.85c0-.07-.03-.13-.09-.17-.06-.05-.12-.07-.2-.07Z"/>
          <path class="cls-14" d="M66.51,122.14h-.8c-.07,0-.13.02-.19.07-.06.05-.08.1-.08.17v.85c0,.06.03.11.08.16.05.04.12.07.19.07h.8c.07,0,.14-.02.19-.07.05-.05.07-.1.07-.16v-.85c0-.07-.02-.13-.07-.17-.05-.05-.11-.07-.19-.07Z"/>
          <path class="cls-14" d="M81.11,114.92h.79c.07,0,.13-.02.19-.07.06-.05.09-.1.09-.17v-.83c0-.07-.03-.13-.09-.18-.06-.05-.12-.07-.2-.07h-.79c-.08,0-.14.02-.19.07-.05.05-.08.11-.08.18v.83c0,.07.03.12.08.17.05.05.12.07.19.07Z"/>
          <path class="cls-14" d="M83.23,114.92h.8c.08,0,.14-.02.19-.07.05-.05.07-.1.07-.17v-.83c0-.07-.03-.13-.07-.18-.05-.05-.11-.07-.19-.07h-.8c-.07,0-.13.02-.19.07-.06.05-.09.11-.09.18v.83c0,.07.03.12.09.17.06.05.12.07.19.07Z"/>
          <path class="cls-14" d="M116.59,115.44h.79c.07,0,.13-.02.19-.07.06-.05.09-.1.09-.17v-.83c0-.07-.03-.13-.09-.18-.06-.04-.12-.07-.2-.07h-.79c-.08,0-.14.02-.19.07-.05.05-.08.11-.08.18v.83c0,.06.03.12.08.17.05.05.12.07.19.07Z"/>
          <path class="cls-14" d="M119.73,116.79c0-.06-.03-.1-.07-.14-.04-.04-.1-.06-.18-.06h-.96c-.07,0-.12.02-.17.06-.04.04-.06.09-.06.14.01.51.02.99.02,1.43v1.27c0,.17-.04.27-.09.3-.06.03-.18.05-.36.05h-13.03c-.06,0-.11,0-.15-.03-.04-.02-.08-.06-.12-.12-.02-.03-.05-.08-.08-.15-.03-.07-.07-.15-.1-.23-.04-.08-.07-.16-.11-.24-.04-.08-.07-.15-.09-.21l-.15-.3c-.23-.48-.48-.89-.75-1.21-.27-.32-.55-.58-.87-.78-.31-.19-.64-.33-1-.42-.36-.08-.74-.12-1.16-.12-.2,0-.39,0-.57.02-.18.01-.36.04-.55.08-.15.03-.23.09-.23.2v.79c0,.13.08.19.24.17.08,0,.2-.01.33-.01.14,0,.23,0,.29,0,.72,0,1.29.13,1.71.39.42.26.74.62.96,1.07l.23.45.31.66h-18.04v-3.51c0-.06-.01-.1-.03-.13-.02-.03-.08-.06-.16-.08-.1-.02-.22-.04-.37-.07-.15-.02-.3-.04-.46-.06-.16-.02-.33-.03-.51-.04-.18,0-.34-.01-.5-.01-.44,0-.84.05-1.2.16-.36.1-.67.25-.93.45-.26.2-.46.45-.6.75-.14.3-.21.65-.21,1.04v.2c0,.31.04.57.12.79.08.22.19.39.34.52h-13.54s0,0,0,0h-.19c-.05,0-.12,0-.19,0-.08,0-.15,0-.22-.02-.08-.02-.15-.04-.21-.06-.06-.03-.11-.05-.13-.09v-2.84c0-.06-.02-.1-.06-.14-.04-.04-.09-.06-.16-.06h-.99c-.07,0-.12.02-.17.06-.04.04-.06.09-.06.14v2.66c0,.08-.02.15-.07.2-.05.05-.1.08-.17.11-.06.03-.14.04-.21.05-.08,0-.15.01-.22.01h-.45s-2.45,0-2.45,0h-10.85v-3.45c0-.06-.01-.1-.04-.12-.03-.03-.08-.05-.15-.08-.09-.03-.19-.05-.33-.07-.13-.02-.28-.04-.43-.05-.16-.02-.32-.03-.48-.04-.16-.01-.32-.02-.47-.02-.97,0-1.73.23-2.26.69-.53.46-.8,1.11-.8,1.95v.22c0,.78.23,1.36.68,1.75.45.39,1.08.59,1.89.59h.95v.61c0,.24,0,.46-.01.66-.07.02-.2.02-.36.03-.16,0-.34.01-.52.01-.18,0-.35.01-.51.01h-.36c-.57,0-1.04-.06-1.41-.17-.37-.11-.67-.28-.89-.49-.22-.21-.38-.48-.46-.79-.09-.31-.13-.66-.13-1.06,0-.11,0-.24,0-.41,0-.16.01-.33.03-.49,0-.14-.07-.2-.19-.2h-.87c-.13,0-.21.07-.23.2-.05.24-.08.49-.1.74-.02.25-.03.46-.03.61,0,1.16.36,2.01,1.08,2.56.72.55,1.8.82,3.26.82.48,0,.98,0,1.48-.03.51-.02.97-.05,1.38-.11.16-.02.24-.09.24-.22.02-.25.03-.58.03-.99,0-.41,0-.85,0-1.3h.95s0,0,0,0h12.58c.12,0,.25,0,.4-.02.14-.01.28-.03.42-.06.14-.03.28-.07.4-.12.13-.04.25-.1.36-.17.2.15.44.25.74.29.3.05.59.07.88.07h12.41s6.61,0,6.61,0c0,0,0,0,0,0h31.38s.39,0,.39,0c.15,0,.32,0,.5,0,.18,0,.36-.01.53-.02.17-.01.33-.02.47-.04.14-.01.25-.03.34-.05.09-.04.15-.08.19-.13.04-.05.06-.11.07-.18.02-.19.04-.44.04-.75,0-.31,0-.69,0-1.15v-.99c0-.16,0-.32,0-.5,0-.17-.01-.37-.02-.6ZM48.64,119.89h-.9c-.41,0-.71-.1-.9-.29-.19-.2-.29-.5-.29-.9v-.14c0-.41.12-.74.36-.96.24-.22.58-.34,1.01-.34.26,0,.5.01.72.03v2.6ZM83.49,119.89h-.87c-.43,0-.75-.11-.94-.33-.2-.22-.29-.54-.29-.96v-.19c0-.82.45-1.23,1.36-1.23.27,0,.52,0,.74.03v2.69Z"/>
          <path class="cls-14" d="M119.69,114.2s-.11-.07-.19-.07h-.8c-.07,0-.13.02-.19.07-.06.05-.09.11-.09.18v.83c0,.06.03.12.09.17.06.05.12.07.19.07h.8c.07,0,.14-.02.19-.07.05-.05.07-.1.07-.17v-.83c0-.07-.02-.13-.07-.18Z"/>
        </g>
      </g>
    </g>
  </g>
</svg>