<?xml version="1.0" encoding="UTF-8"?>
<svg id="Layer_2" data-name="Layer 2" xmlns="http://www.w3.org/2000/svg" viewBox="0 0 2252.14 316.72">
  <defs>
    <style>
      .cls-1 {
        fill: #a51d47;
      }

      .cls-1, .cls-2 {
        fill-rule: evenodd;
      }

      .cls-2, .cls-3 {
        fill: #a31c47;
      }
    </style>
  </defs>
  <g id="Layer_1-2" data-name="Layer 1">
    <path class="cls-2" d="M1228.58,17.86l-28.34-11.6-4.71,11.02c-3.54-.52-8.69-2.24-12.63-3.01-4.55-.89-8.9-1.51-13.66-2.11V0s-30.71,0-30.71,0l-.04,12.11c-4.52.92-9.26,1.26-13.79,2.18l-12.66,3.02-4.78-11.07-28.13,11.78,4.53,11.25c-3.26,1.32-8.61,4.98-11.54,6.93l-10.81,7.9-8.68-8.48-21.44,21.6c1.09,2.38,7.17,6.52,8.2,8.79-1.13,1.7-2.78,3.58-4.06,5.33-3.36,4.57-8.22,11.7-10.62,16.65-3.1-.43-7.97-3.5-11.32-4.33l-11.6,28.33,10.88,4.53c-1,4.23-2.22,8.24-3.16,12.82-.95,4.64-1.49,8.96-2.1,13.69l-11.84.06.05,30.53,11.74.08c.31,4.56,1.2,9.56,2.09,14,.69,3.46,2.74,9.81,2.95,12.61l-10.7,4.46,11.69,28.38,10.54-4.42c.78.53.6.37,1.17,1.39l2.52,4.4c1.2,1.99,2.35,3.84,3.66,5.76l7.83,11.01-6.06,6.16c-.88.87-1.5,1.15-1.87,2.45,1.97,1.34,3.88,3.57,5.64,5.33,2.7,2.7,14.89,15.26,16.13,15.82l8.21-8c2.82,2.92,17.71,13.06,22.37,14.97l-4.31,10.83,28.32,11.55,4.46-10.37c1.95.32,4.43,1.16,6.48,1.67,7.2,1.8,12.57,2.46,20.05,3.52v11.49h30.71l.11-11.52c4.8-.52,9.3-1.2,13.89-2.13l12.71-3.04,4.26,10.56,28.31-11.86c-.41-2.86-3.82-7.95-4.02-10.68,3.37-2.23,7.14-4.19,11.4-7.03l10.82-7.73c1.45.79,6.88,6.4,8.15,7.8,1.41-.65,9.2-8.89,10.97-10.66,1.75-1.75,10.02-9.62,10.69-10.96-.6-1.18-6.62-6.91-8-8.28,2.6-3.51,5.24-6.8,7.86-10.74,2.46-3.69,4.94-7.66,7.06-11.78l10.69,4.33c.76-.74,11.53-26.69,11.78-28.31l-10.52-4.29,2.98-13c.94-4.7,1.34-9.02,2.1-13.74l11.72-.1-.03-30.49h-11.84c-.94-12.44-4.68-21.78-5.18-26.57l10.73-4.63c-.3-1.8-11.13-27.57-11.76-28.21l-10.97,4.34c-2.58-4.16-4.55-7.91-7.16-11.68l-7.79-10.52c1.37-1.28,7.75-7.38,8.39-8.67l-21.7-21.51-8.49,8.36c-.84-.4-13.77-10.84-22.39-14.75l4.57-11.37ZM1144.88,16.22c21.54-1.28,43.47,2.25,61.52,9.73,8.74,3.62,16.32,7.38,23.68,12.11,3.73,2.39,7.19,4.71,10.54,7.36,1.79,1.41,3.14,2.5,4.88,3.91,14.26,11.52,26.96,28.23,35.54,44.5,18.69,35.45,20.49,79.95,5.6,117.36-7.06,17.74-15.55,30.16-27.44,43.83-1.4,1.62-3.04,3.08-4.53,4.57-10.95,10.96-21.53,18.74-35.87,26.27-15.16,7.96-35.4,14.16-55.94,15.33-82.04,4.67-146.3-57.48-151.52-133.42-2.14-31.13,6.25-60.24,21.78-85.15,8.15-13.07,21.42-27.9,34.03-37.24,22.4-16.58,47.23-27.35,77.72-29.16"/>
    <path class="cls-2" d="M1187.61,211.74l-4.64,1.57c-2.4-1.79-6.8-7.8-8.4-8.13v8.7s4.95.1,4.95.1c-.43,1.18-1.03.84-3.54,1.74-5.55,2-8.57,1.18-15.64,1.18h-44.28c-7.19,0-14.99-.29-22.11.03l-.11,10.19c0,1.79-.01,1.84.97,2.69,7.4,6.43,17.51,11.91,27.11,15.61,14.45,5.57,33.34,7.36,49.72,3.96,4.64-.96,17.26-4.96,21.32-6.91,12.47-5.99,23.7-14.42,32.22-24.96,3.72-4.6,5.74-7.48,8.74-12.64,1.01-1.72,2.05-2.85,1.74-5.32h-47.96l-.1,12.16ZM1212.92,207.14l-1.41,9.21c-.32.28-.07.13-.6.39l-4.09,1.1-2.82-7.79,8.93-2.9ZM1172.75,224.71c1.24-.72,13.11-4.78,14.87-5.11l-.02,5.26c-2.79.77-13.18,4.64-14.86,4.62v-4.77Z"/>
    <path class="cls-2" d="M1156.57,257.12c14.28,0,27.99-4.09,39.04-9.14,31.26-14.28,57.16-48.29,57.16-87.12v-4.08c0-50.58-44.1-96.51-96.82-96.51h-4.4c-51.11,0-96.55,44.43-96.58,97.14v2.51c-.01,29.82,14.82,54.37,28.69,68.2,13.63,13.61,38.4,29,67.57,29h5.34ZM1058.68,162.74c-2.24-53.51,40.32-96.8,90.97-98.79,68.18-2.68,118.79,64.53,92.3,130.79-4.2,10.52-12.15,22.46-18.68,28.73-1.9,1.83-3.67,4-5.82,5.79-7.36,6.14-11.97,9.71-21.36,14.41-29.73,14.88-66.54,12.62-94.01-5.43-25.05-16.45-42.07-43.8-43.4-75.51"/>
    <path class="cls-2" d="M1093.86,164.35v9.66s78.89.09,78.89.09v-10.56c-6.57-1.49-37.52-11.93-39.7-11.8-1.43.09-7.73,2.43-9.83,3.07l-19.49,6.26c-3.01,1.02-7.3,2.09-9.87,3.27"/>
    <path class="cls-2" d="M1238.32,65.54c-10.25,0-6.47-1.66-14.07,7.85-.84,1.05-1.96,2.75-3.72,3.19-2.54.63-4.77-1.7-4.79-1.74-.04-.12-.15-.11-.23-.15.19,3.28,1.48,6.5,4.23,7.07,2.99.62,6.53-1.74,7.81-3.11,2.67,1.21,11.25,11.49,13.71,14.79,3.69,4.94,9.73,12.5,8.66,19.18l2.49-.75c2.31,6.37,4.55,9.96,6.63,17.81,1.06,4.01-.23,4.05-.65,6.97l26.47-6.79c.1-6.17-3.08-9.75-6.11-12.34-4.25-3.63-8.62-2.67-13.89-.97.4,2.16,4.5,6.79,4.01,10.55-1.15.8-2.8,1.03-4.55.95-.46-.9-1.11-3.39-1.49-4.63-1.62-5.25-3.77-9.27-5.25-13.44,3.14-1.9,6.39-2.03,7.03-6.32.74-4.97-5.9-13.85-8.62-17.69-1.04-1.48-1.56-2.49-3.47-3.15-1.71-.6-3.88-.86-5.76-.88.23-1.09,10.4-9.31,11.37-9.83-.85-.79-1.82-.79-3.22-1.06-.73-.14-2.87-.68-3.46-.64-1.88.13-10.56,9.86-13.21,10.98-1.5-2.07-4.81-5.32-6.85-6.87l6.95-8.97ZM1245.45,87.99c1.76-1.15,4.54-.82,5.93.36,1.76,1.5,4.45,6.87,5.86,9.2.89,1.47,2.33,3.43.92,5.01-2.83,3.18-3.79.57-4.31-.34-2.26-3.97-6.88-10.76-8.4-14.23M1273.1,121.62c2.2.23,3.29.95,3.83,2.8-.89.54-1.88.91-3.06.83l-.77-3.64Z"/>
    <path class="cls-2" d="M1152.65,27.85v16.3s-8.48.41-8.48.41l-.42-10.51c-2.08,1.13-3.46,3.35-5.44,4.59l.18,6.33c-1.17.73-3.31.77-4.94,1.04l-1.3-10.15c-.77-.13-.67-.07-2.21,1.74-4.52,5.3-2.54,1.62-2.09,9.6l-4.02.93-3.29-13.37-5.07,1.24.34,3.33c-5.98,1.49-8.92,7.28-9.04,14.99l-1.56,1.03c.51,1.21,1.1,2.3,1.61,3.48.43.98.59,2.77,1.23,3.62,2.45-3.49-.83-2.8,7.99-6.07,20.46-7.57,41.51-8.71,62.71-3.83,6.44,1.48,3.34,1.27,5.71,3.08,2.48-10.42,7-18.3-3.36-20.52-3.67-.79-9.33-1.89-13.01-2.09-2.34-.13-4.18.74-5.73,1.8-2.6,1.77-2.99,2.99-4.42,3.57l.32-13.96c-2.19.8-3.66,2.6-5.7,3.44M1160.79,44.49c.12-1.08,3.02-3.97,3.99-4.53,2.04-1.16,5.05-1.13,7.48-.64,1.86.37,5.53,1.04,7.08,1.73,3.09,1.39,1.6,2.91,1.58,6.26-2.63-.05-11.81-2.71-20.13-2.83M1112.49,51.84c-.04-3.48,2.09-6.42,4.52-7.19.79,1.03,1.36,3.75,1.41,5.16l-5.92,2.03Z"/>
    <path class="cls-2" d="M1067.32,83.6c-.54,1.16-2.08,2.45-2.83,3.77l-8.45-6.07c-.19,10.38-.95,5.06,4.75,10.84l-1.57,2.04c-4.02-1.84-12.6-7.8-16.37-9.12l.48,7.26c4.23,2.34,17.12,10.95,19.54,11.88.06-5.29-.95-4.38,1.84-8.22,8.98-12.33,19.79-22.81,33-30.72,5.22-3.12,3.2-2.32,7.56-2.2-.41-1.4-11.79-23.04-12.44-23.7l-.99,1.18c-2.95,4.86-2.55,4.09-.04,8.91,1.46,2.79,4.01,7.25,5.02,10-.94.59-2.35,1.72-3.68,1.78-1.78-2.78-2.93-6.47-6.59-6.68-3.63-.21-6.59,3.16-8.57,4.77-9.23,7.5-10.64,7.47-10.68,15.77-1.48-.17-3.39-2.62-4.93-3.36l-.36,7.15c1.49,1.62,3.57,3.14,5.31,4.71M1072.46,77.95c-.11-3.69-.8-5.43,1.21-8.17,1.31-1.78,2.91-2.93,4.7-4.39,3.29-2.68,7.62-7.86,10.59-.95-3.04,2.04-5.71,4.21-8.52,6.46-1.55,1.24-2.55,2.16-3.98,3.55-.8.78-3.14,3.15-4,3.5"/>
    <path class="cls-2" d="M1054.97,204.59c.96-1.32,1.88-2.12,2.08-4.49.17-2.02-.51-3.89-1.5-5.11-3.26-4.02-4.94-.79-5.95-4.11l-3.12-13.15c-1.34-7.41-.29-4.54,1.92-9.67l-18.09,1.23c.38,1.57,3.25,3.97,4.42,5.15l5.68-.49.73,4.85-9.74.73c.11.86,1.45,1.9,2.48,2.89.97.93,1.75,1.71,2.73,2.65l5.74-.35.54,2.52c-1.09.39-3.76.65-5.1.85-1.34.21-3.73.27-4.74,1.1,1.36.65,3.61,2.87,4.91,3.94,1.36,1.11,1.33.8,3.37.45,4.46-.78,2.92-.49,3.4.14.76,1.01-3.45,3.61-1.28,8.65,1.85,4.32,5.56,3.16,6.88,4.98-.74,1.37-7.38,4.29-9.1,5.95.06.06.14.14.18.17l2.75,1.72c.8.46,2.24,1.49,3.05,1.4.9-.1,4.63-2.6,6.05-3.08.66.95,1.67,2.24,1.82,3.56-1.75,1.57-6.64,4.43-7.5,5.65.79.6,5.2,2.81,6,2.78,1.02-.05,3.94-2.48,5.3-3.04,2.45,4.6,11.08,13.86,11.65,15.02-.79,1.45-3.61,3.86-3.9,4.86-.3,1.04.19,6.45.28,7.89.98-.08,1.09-.58,1.79-1.39,2.16-2.45,10.65-10.76,11.19-12.3-3.39-.29-2.97-.53-4.74-2.42-1.05-1.12-2.44-2.55-3.44-3.78-7.63-9.29-11.08-14.11-16.72-25.76M1047.45,200.11c-.78-3.49,4.41-4.59,5.03-1.14.63,3.55-4.4,3.94-5.03,1.14"/>
    <path class="cls-2" d="M1277.79,166.97l-5.14.67c-.46,2.53-.46,5.52-.87,8.23-.85,5.62-3.31,16.72-5.58,21.06-1.62.02-2.49-.76-3.79-1.16.52-5.12,5.85-15.01,5.88-35.37l13.13-.11-.16-6.07-2.81-.04c-.59-4.36-1.01-5.67-3.51-8.04-2.04-1.93-3.97-2.94-7.65-3.68l-.51-2.22c-2.74.4-4.89,1.26-7.42,1.45,1.05,1.57,2.72,3.2,3.05,5.99,1.69,14.45-.26,30.62-4.66,44.32-2.26,7.02-1.74,4.11-4.9,5.76-.66.34-.37.14-.76.58,2.09,1.27,7.2,3.1,9.93,4.09,1.87.67,3.85,1.51,6.05,1.19,2.5-.35,2.48-1.61,3.35-3.63,1.57-3.64,2.53-6.3,3.56-10.56l2.26-10.91s.11-.09.12-.19.08-.13.14-.19c1.96,2.19,1.55,5.38,1.35,8.1l5.19-.4c.75-7.56-2.07-14.36-6.24-18.87M1267.97,148.15c2.92.7,4.48,2.62,4.73,6.05l-4.28-.3-.44-5.75Z"/>
    <polygon class="cls-2" points="1093.86 187.21 1095.02 187.35 1172.75 187.32 1172.75 177.14 1093.86 177.14 1093.86 187.21"/>
    <path class="cls-2" d="M1093.86,200.4c3.9.58,77.3.36,78.89-.08v-9.75s-78.83-.09-78.83-.09l-.05,9.92Z"/>
    <polygon class="cls-2" points="1093.87 213.74 1172.68 213.77 1172.74 203.76 1093.91 203.67 1093.87 213.74"/>
    <path class="cls-2" d="M1094.79,279.72c11.45,4.81,13.15-3.63,16.54-12.09,5.11-12.74,1.27-13.87-7.91-18.78-9.89-5.29-11.04-1.51-17.62,8.33-1.76,2.63-4.8,6.9-5.01,10.77-.28,5.23,3.96,6.14,6.99,8.5l-.58,1.87,6.67,3.24.91-1.85ZM1091.25,270.15c-5.83-2.41-1.26-7.86.79-10.84,3.14-4.59,3.23-7.62,9.78-3.78,4.97,2.92,7.13,3.63,3.86,10.23-1.71,3.46-3.17,9.91-8.27,7.51l1.15-3.21-5.43-2.5c-.06.05-.14.13-.17.17-.03.04-.12.12-.16.17-.04.05-.11.12-.16.18l-.5.77c-.44.72-.39.75-.89,1.28"/>
    <path class="cls-2" d="M1151.46,262.27l-5.84-.32c-.22,2.06-.55,16.59-1.93,18.26-.72-.46-6.35-10.76-7.37-12.41-5.99-9.74-4.78-8.49-10.6-9.32-1.2,5.3-7.53,27.55-7.29,30.03l6.76,1.09c.53-2.93,1.67-6.37,2.34-9.57.46-2.19,1.25-8.42,2.03-9.86.97.59,6.18,10.2,6.86,11.33,1.17,1.94,2.2,3.87,3.34,5.77,1.06,1.78,2.42,3.89,3.16,5.54l7.19.36,1.36-30.9Z"/>
    <path class="cls-2" d="M1222.2,261.67c1.02,4.6,5.33,4.75-6,10.3-6.3,3.09-7.25-.18-10.46-6.37-3.3-6.35-5.9-9.18-.37-12.59,11.27-6.95,9.34-2.06,11.84.13l6.08-2.96c-.82-3.06-4.46-7.86-9.48-6.94-3.09.57-8.71,3.65-11.18,5.13-10.35,6.21-8.09,10.86-2.96,21.05,4.79,9.53,7.93,13.23,19.59,7.21,2.95-1.52,8.28-4.41,10.06-6.27,4.27-4.47,0-9.78-.84-12.02l-6.28,3.33Z"/>
    <path class="cls-2" d="M1184.75,278.23c.46,5.75,1.28,6.82-8.73,7.89-7.36.79-7.08-2.95-7.99-9.16-.32-2.17-1.08-6.03-.92-8.09.23-2.87,1.83-3.54,4.39-4.16,10.55-2.54,10.43-.74,11.27,3.95l6.97-1.09c-.6-4.35-1.97-8.16-5.7-9.17-3.27-.89-10.38.37-13.65,1.09-11.38,2.5-10.93,7.3-9.29,19.04,1.55,11.09,3.69,14.79,16.14,12.95,3.54-.53,9.43-1.42,12.11-2.98,4.1-2.39,2.93-6.26,2.48-11.25l-7.08.99Z"/>
    <path class="cls-2" d="M1207.39,120.63l-.02,10.44h34.68c-.76-3.67-6.36-16.59-8.22-18.48l-26.44,8.03Z"/>
    <path class="cls-2" d="M1263.73,217.48c-.36-1.81-1.3-5.79-1.89-7.36-.48-1.27.08-.64-1.29-1.23-.44-.19-1.16-.44-1.6-.62-9.3-3.73-11.95-4.51-9.32-11.39-2.24.83-4.24,3.48-4.23,6.69.02,5.02,2.67,5.01,4.13,7.22-1.28,4.22-9.43,14.77-12.73,18.67-3.97,4.68-2.71,3.3-6.71,3.66.39,1.23,11.77,12.2,12.85,12.73.45-.85,1.34-5.96,1.29-7.1-1.15-1.11-3.51-3.14-4.12-4.4.55-1.19,1.28-1.89,2.2-2.71,2.35,1.39,6.49,6.02,8.03,6.02l.49-7.08c-5.63-5.63-5.45-1.87-1.94-8.1,1.97,1.01,7.18,5.16,8.71,5.49v-7.13c-1.43-1.08-3.96-2.58-5.19-3.79l2.15-3.43c3.37.64,6.31,2.96,9.16,3.85"/>
    <path class="cls-2" d="M1209.58,67.77c1-1.59,14.03-23.38,14.49-24.98-1.09.12-6.25.63-6.85.97-1.12.66-6.55,12.21-8.2,14.33-1.28-.2-2.68-1.13-3.79-1.83.68-3,3.9-7.78,4.15-10.36-8.14-8.85-22.91.87-21.34,11.83,2.87-.98,6.53-1.48,9.06,1.05-.78,2.73-3.28,4.54-6.9,3.48.89,1.83,3.75,4.18,6.81,3.93,2.76-.23,4.96-2.73,5.74-4.86,6.68,2.03,5.35,4.81,6.84,6.43M1195.92,52.18c.74-2.19,2.37-4.06,5.57-3.04l-1.6,4.68-3.97-1.65Z"/>
    <path class="cls-2" d="M1051.11,108.44c-2.09-.1-4.47-.79-3.38-3.3.42-.96,2.31-2.4,3.11-3.3l-5.77-3.09c-1.99,1.24-4.54,5.71-3.9,9.5.7,4.16,4.2,4.47,7.01,6.47l-1.26,2.81-12.22-4.28-1.01,5.93,1.38.86c-.34,5.38.91,10.65,4.99,13.82,2.66,2.07,1.15.42,1.67,2.97,1.76.44,6.14,1.94,7.57,1.88-1.67-4.01-1.91-4.32-.62-8.82,1.86-6.48,3.55-11.08,6.34-17.23,1.61-3.54,4.64-3.33,6.02-5.57l-7.15-4.25-2.78,5.61ZM1043.24,128.81c-2.86-.77-3.22-3.75-2.79-7.12.98.17,3.94,1.47,4.5,2.14l-1.71,4.98Z"/>
    <path class="cls-2" d="M1186.78,196.64l51.48.07c.89-2.93,2.77-5.92,3.31-9.1-16.78-5.19-9.14-5.44-27.49.3-3.79,1.19-25.97,7.74-27.3,8.73"/>
    <path class="cls-2" d="M1207.37,187.62l17.63-5.41c4.77-1.52,3.65-1.12,8.44.41,2.16.69,7.2,2.69,8.88,2.74,1.13-2.6,2.57-9.54,2.89-12.65h-37.84v14.91Z"/>
    <polygon class="cls-2" points="1207.37 157.14 1246.24 157.14 1246.24 156.15 1245.59 146.64 1207.37 146.64 1207.37 157.14"/>
    <path class="cls-2" d="M1207.36,170.05c4.34,0,35.82.37,37.73-.15l1.25-10.1-38.85-.1-.13,10.35Z"/>
    <path class="cls-2" d="M1102.47,159.34l10.13-3.17c1.67-.54,3.01-.65,3.24-1.59v-26.29s-13.25,0-13.25,0l-.12,31.04Z"/>
    <path class="cls-2" d="M1207.37,144.05h37.68c-.34-3.72-1.7-7.08-2.05-10.33l-1.31-.03h-.31s-33.92,0-33.92,0l-.09,10.36Z"/>
    <path class="cls-2" d="M1020.6,148.45l2.78,6.18,15.96.86c0,2.96-.16,8.61.46,11.25l7.1-.84c.25-.55.25.25-.03-.39l-.81-.89c-1.85-1.59-1.26-2.12-1.24-6.9,0-1.82-.23-3.87.63-4.97.76-.96,1.87-1.61,2.36-2.79l-27.21-1.51Z"/>
    <polygon class="cls-2" points="1061.39 158.42 1078.11 158.43 1078.09 147.77 1062.13 147.77 1061.39 158.42"/>
    <polygon class="cls-2" points="1062.26 171.69 1078.11 171.69 1078.11 161.02 1061.51 161.02 1062.26 171.69"/>
    <path class="cls-2" d="M1132.93,148.29c0,1.73.14,1.13,3.09,2.03,1.17.35,2.21.71,3.36,1.05,2.25.66,4.61,1.57,6.91,2.01v-14.56s-13.35,0-13.35,0v9.47Z"/>
    <path class="cls-2" d="M1078,211.3c.42-5.59.11-17.62.11-23.84h-12.04c1.3,5.45,8.82,21.1,11.92,23.84"/>
    <path class="cls-2" d="M1065.14,184.88h12.97s0-10.6,0-10.6h-15.28c.39,3.87,1.7,7.1,2.31,10.6"/>
    <polygon class="cls-2" points="1062.35 145.21 1078.11 145.24 1078.11 135.02 1064.47 135.02 1062.35 145.21"/>
    <path class="cls-2" d="M1225.31,59.67c1.26-1.73,7.18-9.27,7.49-10.53h-7.09c-2.17,2.94-4.25,5.98-6.36,8.98-1.93,2.74-4.04,6.13-6.18,8.73.67,1.13,3.13,2.8,4.5,3.31l7.65-10.49Z"/>
    <path class="cls-2" d="M1086.32,166.73c1.01-.31,2.18-2,2.95-2.83.88-.95,2.45-1.98,2.45-3.67v-20.47s-5.4.03-5.4.03v26.93Z"/>
    <path class="cls-2" d="M1022.63,138.14c.66,1.57,1.88,4.25,2.85,5.55.99,1.33,4.55,1.21,6.41,1.46,4.12.54,10.05,1.68,14.09,1.76l.52-4.89c-.21-.13-.28-.18-.74-.34-.36-.12-.44-.13-.78-.19-.42-.08-.97-.14-1.41-.2-5.55-.82-16.83-2.85-20.95-3.14"/>
    <polygon class="cls-2" points="1130.45 137.35 1148.77 137.35 1148.75 131.44 1130.59 131.44 1130.45 137.35"/>
    <rect class="cls-3" x="1099.99" y="120.88" width="18.32" height="5.83"/>
    <path class="cls-2" d="M1049.81,241.8c.17-2.09,1.34-3.43-.53-5.36-1.21-1.25-3.4-1.64-5.07-.45-2.91,2.08-1.97,7.49,3.34,6.96-.14,1.94-1.29,3.22.39,5.19,1.09,1.28,3.27,1.88,5.05.74,2.94-1.88,2.52-7.52-3.17-7.07"/>
    <path class="cls-2" d="M1133.33,55.59c-1.39-.6-2.27-2.07-4.85-1.06-3.5,1.37-2.58,7.5,1.97,7.07,2.31-.22,2.51-1.75,3.5-3.14,1.41.76,2.44,1.87,4.69.95,3.53-1.44,2.58-7.32-1.86-7.02-2.35.16-2.67,1.5-3.46,3.21"/>
    <path class="cls-2" d="M1028.42,128.51c1.81-.49,2.95-1.32,3.04-3.48.19-4.39-5.77-5.19-7.11-1.53-.96,2.61.74,3.46,1.22,4.69-1.62.96-2.87,1.29-2.88,3.77-.01,4.39,6.11,4.94,7.19,1.1.73-2.58-.66-3.03-1.45-4.55"/>
    <path class="cls-2" d="M1103.45,36.49c-1.43-.53-2.77-2.05-5.03-.71-1.24.73-2.34,2.61-1.48,4.72,1.25,3.06,7.07,3.49,7.07-2.46,1.63.63,3.11,1.86,5.26.45,1.19-.79,2.1-2.88,1.1-4.8-1.58-3.05-7.15-2.89-6.92,2.8"/>
    <path class="cls-2" d="M1274.97,106.62c.5-1.92,1.59-3.34-.14-5.29-.98-1.1-3.07-1.65-4.72-.63-2.95,1.82-2.24,6.73,2.32,6.85-.65,1.61-1.76,2.96-.32,4.98.81,1.13,2.81,2.13,4.7,1.19,2.51-1.25,3.59-6.33-1.83-7.1"/>
    <path class="cls-2" d="M1284.71,144.25c.83-1.05,2.44-2.07,1.76-4.59-1-3.72-6.93-3.4-7.21.79-.18,2.76,1.39,2.95,2.63,4.08-.72,1.23-2.36,2.18-1.34,4.77.54,1.37,1.98,2.52,4.12,2.18,3.58-.56,4.41-5.86.04-7.23"/>
    <path class="cls-2" d="M1263.98,230.95c5.01-.07,5.62-4.99,2.68-6.83-1.67-1.04-7.28-1.05-4.94,5.6-5.4.07-5.62,5.35-2.53,6.94,1.77.91,3.81.23,4.65-.89,1.27-1.68.57-3.01.14-4.82"/>
    <path class="cls-2" d="M1020.39,160.35c.66,1.56,2.56,4.43,3.65,5.75l14.26-.71c.05-.99-.83-1.78-1.42-2.6-.71-.99-.97-1.53-1.85-2.46l-14.64.02Z"/>
    <polygon class="cls-2" points="1132.93 129.54 1146.25 129.54 1146.3 125 1132.93 125 1132.93 129.54"/>
    <polygon class="cls-2" points="1102.45 118.92 1115.83 118.93 1115.79 114.47 1102.58 114.47 1102.45 118.92"/>
    <path class="cls-2" d="M1038.26,222.1c2.38-4.95-5.31-7.59-7.11-3.23-1.94,4.71,4.88,7.85,7.11,3.23"/>
    <path class="cls-2" d="M1195.87,157.11l9.13.03v-9.64c-1.45.77-8.89,9.13-9.13,9.61"/>
    <path class="cls-2" d="M1195.87,131.04l9.13.03v-9.6c-1.17.58-8.85,8.99-9.13,9.57"/>
    <path class="cls-2" d="M1195.96,144.05h9.03s-.01-9.49-.01-9.49c-1.16.7-8.28,8.17-9.02,9.49"/>
    <path class="cls-2" d="M1195.96,170.05h9.03s0-9.48,0-9.48c-.98.5-8.4,8.27-9.02,9.48"/>
    <path class="cls-2" d="M1136.82,24.78c-4.53,2.05-1.55,8.45,2.85,6.76,4.42-1.7,1.92-8.91-2.85-6.76"/>
    <path class="cls-2" d="M1045.83,82.03c.53,4.43,8.17,3.85,7.19-1.55-.75-4.09-7.83-3.83-7.19,1.55"/>
    <path class="cls-2" d="M1252.02,241.57c.97,4.27,8.42,2.96,7.12-2.04-1.13-4.32-8.3-3.14-7.12,2.04"/>
    <path class="cls-2" d="M1083.12,200.77h8.66s0-9.03,0-9.03c-1.12.44-3.51,3.39-4.33,4.27-1.34,1.45-3.56,3.17-4.33,4.76"/>
    <path class="cls-2" d="M1083.12,174.07h8.66s0-9.03,0-9.03c-.99.38-3.53,3.45-4.32,4.29-1.28,1.37-3.64,3.29-4.35,4.75"/>
    <path class="cls-2" d="M1174.58,187.19l1.16.11,6.27-.02,1.19-.05c-.51-.87-7.81-8.66-8.62-9.01v8.97Z"/>
    <path class="cls-1" d="M1083.24,187.39h8.44s.1-8.88.1-8.88c-.99.3-3.63,3.27-4.44,4.19-.86.97-3.85,3.8-4.1,4.69"/>
    <path class="cls-2" d="M1083.25,214.08h8.44s.1-8.87.1-8.87c-.92.27-3.64,3.26-4.45,4.18-.87.99-3.85,3.8-4.09,4.69"/>
    <path class="cls-2" d="M1174.58,166.2l.02,7.66,8.52.04c-.22-.69-3.41-3.89-3.97-4.5-.94-1.02-3.36-3.95-4.57-4.38v1.19Z"/>
    <path class="cls-1" d="M1174.59,200.55l8.52.03c-.31-.96-7.68-8.53-8.53-8.88l.02,8.85Z"/>
    <g>
      <path class="cls-3" d="M1375.4,180.28h-7.95c-7.19,0-11.4-.09-12.64-.27-1.24-.18-2.6-.75-4.07-1.72-1.48-.96-2.59-2.3-3.35-4-.76-1.7-1.18-4.15-1.26-7.33-.08-3.18.17-6.26.74-9.25.57-2.99,1.41-5.94,2.5-8.87,1.09-2.92,1.84-4.6,2.26-5.02.41-.42.87-.68,1.38-.77-2.08,7.72-2.52,12.84-1.32,15.36,1.2,2.52,3.9,3.78,8.11,3.78h22.64c.08-2.56.29-5.28.64-8.14,4.42-6.79,6.79-9.69,7.11-8.71.32.98.39,2.77.2,5.38-.19,2.61-.45,4.79-.78,6.56s-.35,2.92-.06,3.48c.29.56.7.93,1.22,1.13.52.2,1.32.29,2.42.29h3.11v18.09c-2.64.06-4.63.03-5.99-.09-1.36-.12-2.61-.54-3.77-1.24-1.16-.71-2.22-2.38-3.17-5l-2.99,6.33h-4.95ZM1383.5,126.86l-2.68,3.8c-1.81,2.56-2.93,4.07-3.35,4.52l-2.71-1.95c-2.05-1.51-3.56-2.76-4.51-3.75l-2.47,3.44-1.72,2.26-3.15-2.26c-2.26-1.72-3.82-3.08-4.67-4.07.45-1.09,1.52-2.79,3.19-5.11l2.95-3.89c.69,1.06,2.1,2.49,4.23,4.3l2.52,2.04c.74-1.14,1.68-2.44,2.8-3.89l1.88-2.44c.82,1.24,2.35,2.77,4.59,4.62l3.11,2.4Z"/>
      <path class="cls-3" d="M1396.44,180.28h-3.75v-18.09h10.78c.1-2.56.33-5.28.68-8.14,4.39-6.79,6.75-9.69,7.07-8.71.32.98.39,2.77.2,5.38-.19,2.61-.44,4.8-.78,6.56-.33,1.76-.35,2.93-.06,3.48.29.56.7.93,1.22,1.13.52.2,1.32.29,2.42.29h6.83v18.09c-5.11.06-8.34.03-9.7-.09s-2.62-.54-3.77-1.24c-1.16-.71-2.22-2.37-3.17-5l-2.99,6.33h-4.95ZM1413.05,128.81l-6.27,8.1c-2.98-1.45-5.52-3.66-7.63-6.65l6.43-8.78c1.78,2.8,4.27,5.25,7.47,7.33"/>
      <path class="cls-3" d="M1488.87,148.12c.4.82.71,3.02.92,6.63.21,3.6.06,7.41-.46,11.42-.52,4.01-1.12,7.02-1.8,9.02-.68,2.01-1.37,3.3-2.08,3.89-.71.59-1.88.71-3.51.36-1.64-.35-3.87-1.47-6.69-3.37-1.22,1.66-2.2,2.69-2.93,3.1-.73.41-1.7.7-2.9.86-1.2.17-2.86.25-4.99.25s-3.9-.47-5.31-1.4c-1.17.88-3.02,1.34-5.55,1.4h-3.51c-2.88,0-5.18-1.18-6.91-3.53-1.49,3.56-2.54,5.34-3.16,5.34s-1.89-.87-3.83-2.6c-1.94-1.73-4.55-4.57-7.83-8.53-1.49,5.34-3.5,8.47-6.03,9.41h-3.55l-.08-18.18h2.99c1.36,0,2.4-.32,3.11-.95.72-.63,1.47-1.81,2.26-3.53.78-1.72,1.78-3.61,2.99-5.68,1.21-2.06,2.37-3.75,3.47-5.04,1.1-1.3,2.12-2.14,3.04-2.53.92-.39,1.7-.54,2.36-.43.65.11,1.16.45,1.52,1.02.36.57.81,1.97,1.36,4.18.55,2.22,1.1,4.2,1.66,5.95.56,1.75,1.54,3.41,2.94,4.98,1.4,1.57,3.12,2.25,5.17,2.04h5.39c2.13-.3,3.6-.95,4.41-1.95s1.48-2.28,2.02-3.85c.53-1.57,1.82-3.41,3.87-5.52-.16,1.66-.55,3.56-1.18,5.7-.63,2.14-1.17,4.01-1.62,5.61,4.07.33,6.82.13,8.24-.61,1.42-.74,2.75-3.4,3.97-7.98,1.44-2.11,2.85-3.47,4.23-4.07-2.05,6-3.02,9.26-2.9,9.77.12.51.63,1.12,1.54,1.83.91.71,1.94,1.25,3.12,1.63,1.17.38,2.16.45,2.95.2-.05-2.32-.27-4.22-.64-5.7l3.91-9.14ZM1435.35,152.4c-.65.35-1.32,1.09-2.02,2.24,1.12,1.84,3.1,3.93,5.95,6.29-.74-3.29-1.22-5.35-1.42-6.2-.2-.85-.51-1.53-.92-2.06-.41-.53-.94-.62-1.6-.27"/>
      <path class="cls-3" d="M1524.53,121.25c.35-.03.49.27.44.9-.05.63-.04,1.33.06,2.08.09.75.47,1.72,1.14,2.89.67,1.18,2.13,2.85,4.39,5.02l.76.95-.64,1.09-2.52,4.57c-.45.93-1.04,2.02-1.76,3.26l-.88-.72c.13,1.81-.2,3.94-1,6.4-.8,2.46-1.54,4.62-2.24,6.49l.32.63c.93,4.49,1.46,7.49,1.58,8.98.12,1.49.15,3.87.1,7.12-.05,3.26-.07,5.3-.04,6.13.03.83-.17,1.91-.6,3.23l-23.72-.05,2.83-18c.69-.09,1.24-.15,1.66-.18.41-.03,1.08-.14,2.02-.34.93-.2,2.04-.67,3.33-1.42s2.53-1.73,3.71-2.92c1.18-1.19,2.19-2.28,3.02-3.28-.85-1.93-2.36-3.82-4.53-5.68-2.17-1.86-3.68-3.04-4.53-3.55l-.4,2.49-1.52-.5c-.83-.42-1.8-.99-2.92-1.72l-5.15-3.08c-.83-.51-1.68-1.15-2.56-1.9-.64-1.06-1.05-2.31-1.24-3.78-.19-1.46-.14-3.57.14-6.33.28-2.76.43-4.7.46-5.83.03-1.13.51-1.74,1.44-1.83l4.99,3.17c.77.51,1.62,1.21,2.56,2.08.77.51,1.61,1.22,2.51,2.13.67.48,1.45,1.16,2.36,2.04l2.32,2.35c.91,1.09,2.13,2.5,3.67,4.25,1.54,1.75,2.72,3.34,3.52,4.77.8,1.43,1.57,3.01,2.31,4.73,1.04-2.68,1.29-6.51.76-11.49-.05-1.21-.32-2.41-.8-3.62l-.6-2.4.32-1.58c.82-1.84,1.73-3.32,2.71-4.43l2.2-3.12ZM1518.7,158.12c-1.44,1.96-3.02,3.33-4.75,4.12h5.87c-.21-1.39-.58-2.76-1.12-4.12"/>
      <path class="cls-3" d="M1545.18,159.16c.08,3.14.03,5.65-.16,7.55-.35,2.89-.82,5.11-1.42,6.65-.6,1.54-1.17,2.82-1.72,3.85-.55,1.02-1.18,2.1-1.9,3.21l-4.15-42.34c.03-.72.56-2.61,1.6-5.65l1.08-3.21c.45-1.36,1-2.7,1.64-4.03l.8-2.04.72-1.36,1.16,8.55,1.4,12.85.12,2.08.44,6.79.16,4.21.24,2.89Z"/>
      <path class="cls-3" d="M1581.79,126.14l-2.68,3.8c-1.81,2.56-2.93,4.07-3.35,4.52l-2.71-1.95c-2.05-1.51-3.55-2.76-4.51-3.76l-2.48,3.44-1.72,2.26-3.16-2.26c-2.26-1.72-3.82-3.08-4.67-4.07.45-1.09,1.52-2.79,3.19-5.11l2.95-3.89c.35.54,1.16,1.34,2.44,2.4.74.63,1.5,1.27,2.28,1.9.32.27.68.63,1.08,1.09.4.45.72.77.96.95.88-1.33,1.81-2.64,2.8-3.94l1.88-2.4c.83,1.24,2.36,2.77,4.59,4.61l3.11,2.4ZM1581.59,130.39c1.44,5.55,2.5,11.42,3.19,17.62.69,6.2,1.38,10.05,2.08,11.56.69,1.51,1.58,2.32,2.68,2.44,1.09.12,3.1.18,6.03.18v18.09l-2.68-.04c-2.5.3-5.03-.5-7.59-2.4-2.56-1.9-4.3-6.63-5.23-14.2-1.2,3.98-2.29,6.88-3.27,8.68-1.86,1.81-5.27,2.2-10.22,1.18-5.4-.81-7.92-2.15-7.55-4.03.99-5.28,1.82-8.93,2.52-10.97.69-2.04,2.14-3.7,4.35-5l11.5-9.05-.72-4.7,4.91-9.36ZM1578,149.89c-1.52,3.23-4.57,5.91-9.14,8.05,2.69.69,5.07.9,7.15.63,2.08-.27,3.14-.78,3.19-1.54l-1.2-7.15Z"/>
      <path class="cls-3" d="M1624.96,179.79c-4.18.03-10.1.2-17.77.5h-14.73v-18.09h6.91l-.32-2.44c-.21-2.5.44-4.88,1.98-7.12,1.53-2.25,3.49-4.59,5.89-7.03,2.4-2.44,4.92-3.9,7.57-4.39,2.65-.48,5.18.75,7.61,3.69,2.42,2.94,3.87,5.6,4.33,7.98.47,2.38,0,2.78-1.38,1.2-1.39-1.58-3.35-2.61-5.91-3.08-2.56-.47-4.92-.5-7.09-.11-2.17.39-3.96,1.31-5.37,2.76,2.32,4.59,5.48,7.43,9.5,8.55l15.33-.45-5.07,16.55c-.24.79-.73,1.28-1.48,1.49"/>
      <path class="cls-3" d="M1643.37,121.48c1.04,24.7,1.84,38.27,2.4,40.71h9.58v18.09h-15.97l-2.68-46.64,6.67-12.17Z"/>
      <path class="cls-3" d="M1655.26,180.28h-3.75v-18.09h10.78c.11-2.56.33-5.28.68-8.14,4.39-6.79,6.75-9.69,7.07-8.71.32.98.39,2.77.2,5.38-.19,2.61-.45,4.8-.78,6.56-.33,1.76-.35,2.93-.06,3.48.29.56.7.93,1.22,1.13.52.2,1.32.29,2.42.29h6.83v18.09c-5.11.06-8.34.03-9.7-.09-1.36-.12-2.61-.54-3.77-1.24-1.16-.71-2.22-2.37-3.17-5l-2.99,6.33h-4.95ZM1671.87,128.81l-6.27,8.1c-2.98-1.45-5.52-3.66-7.63-6.65l6.43-8.78c1.78,2.8,4.27,5.25,7.47,7.33"/>
      <path class="cls-3" d="M1702.5,153.03c2.56-2.15,5.31-4.32,8.27-6.49,2.95-2.17,5.66-3.2,8.11-3.1,2.45.11,4.56,1.75,6.33,4.93,1.77,3.18,2.62,5.56,2.55,7.15-.07,1.58-.6,3.81-1.62,6.67h6.27v18.09h-42.17c-3.22.03-5.23-2.23-6.03-6.79-1.3,4.82-2.89,7.09-4.75,6.79h-2.79l-.04-18.09h3.63c2.48,0,3.85-.49,4.11-1.47.27-.98.45-3.08.56-6.31l4.99-7.01c.24,2.9.2,5.37-.12,7.42-.32,2.05-.37,3.79-.16,5.2.19,1.45,1.02,2.13,2.52,2.04,4.34-3.86,7.79-6.87,10.34-9.02M1708.81,162.19h9.66c-.51-1.36-1.03-2.45-1.58-3.28-.55-.83-1.5-1.68-2.86-2.56-1.36-.87-3.37-.75-6.03.36-2.69,1.09-5.8,2.91-9.34,5.47h10.14Z"/>
      <path class="cls-3" d="M1739.91,121.93c.32,0,.5.38.54,1.15s.24,1.69.6,2.76c.36,1.07.72,1.86,1.1,2.38.37.51.79,1.02,1.26,1.54.47.51,2.49,2.37,6.09,5.56l-3.91,10.09.32,8.05.6,5.43.12,2.67.08,3.17-1.16,7.19-1.08,4.98c-.61,2.5-1.74,3.63-3.39,3.39h-12.54v-18.14h11.86l-2.16-17.73c-.08-1.36-.28-2.83-.6-4.43-.69-.99-1.17-1.72-1.44-2.17-.27-.45-.55-1-.86-1.65-.31-.65-.43-1.42-.38-2.33.05-.9.69-2.83,1.92-5.79l3.03-6.11Z"/>
      <path class="cls-3" d="M1784.84,126.14l-2.68,3.8c-1.81,2.56-2.93,4.07-3.35,4.52l-2.71-1.95c-2.05-1.51-3.55-2.76-4.51-3.76l-2.48,3.44-1.72,2.26-3.16-2.26c-2.26-1.72-3.82-3.08-4.67-4.07.45-1.09,1.52-2.79,3.19-5.11l2.95-3.89c.35.54,1.16,1.34,2.44,2.4.74.63,1.5,1.27,2.28,1.9.32.27.68.63,1.08,1.09.4.45.72.77.96.95.88-1.33,1.81-2.64,2.8-3.94l1.88-2.4c.83,1.24,2.36,2.77,4.59,4.61l3.11,2.4ZM1784.64,130.39c1.44,5.55,2.5,11.42,3.19,17.62.69,6.2,1.38,10.05,2.08,11.56.69,1.51,1.58,2.32,2.68,2.44,1.09.12,3.1.18,6.03.18v18.09l-2.68-.04c-2.5.3-5.03-.5-7.59-2.4-2.56-1.9-4.3-6.63-5.23-14.2-1.2,3.98-2.29,6.88-3.27,8.68-1.86,1.81-5.27,2.2-10.22,1.18-5.4-.81-7.92-2.15-7.55-4.03.99-5.28,1.82-8.93,2.52-10.97.69-2.04,2.14-3.7,4.35-5l11.5-9.05-.72-4.7,4.91-9.36ZM1781.05,149.89c-1.52,3.23-4.57,5.91-9.14,8.05,2.69.69,5.07.9,7.15.63,2.08-.27,3.14-.78,3.19-1.54l-1.2-7.15Z"/>
      <path class="cls-3" d="M1800.49,180.28h-5.75v-18.09h12.78c.11-2.56.33-5.28.68-8.14,4.39-6.79,6.75-9.69,7.07-8.71.32.98.39,2.78.2,5.38-.19,2.61-.45,4.79-.78,6.56s-.35,2.92-.06,3.48c.29.56.7.93,1.22,1.13.52.2,1.32.29,2.42.29h4.71v18.09c-3.7.06-6.23.03-7.59-.09-1.36-.12-2.61-.54-3.77-1.24-1.16-.71-2.22-2.37-3.17-5l-2.99,6.33h-4.95ZM1821.77,191.73l-2.68,3.8c-1.81,2.56-2.93,4.07-3.35,4.52l-2.72-1.95c-2.05-1.51-3.55-2.76-4.51-3.76l-2.47,3.44-1.72,2.26-3.15-2.26c-2.26-1.72-3.82-3.08-4.67-4.07.45-1.09,1.52-2.79,3.19-5.11l2.95-3.89c.35.54,1.16,1.34,2.44,2.4.74.63,1.5,1.27,2.28,1.9.32.27.68.63,1.08,1.08.4.45.72.77.96.95.88-1.33,1.81-2.64,2.8-3.93l1.88-2.4c.82,1.24,2.36,2.77,4.59,4.61l3.11,2.4Z"/>
      <path class="cls-3" d="M1822.37,180.28h-3.75v-18.09h10.78c.11-2.56.33-5.28.68-8.14,4.39-6.79,6.75-9.69,7.07-8.71.32.98.39,2.77.2,5.38-.19,2.61-.45,4.8-.78,6.56-.33,1.76-.35,2.93-.06,3.48.29.56.7.93,1.22,1.13.52.2,1.32.29,2.42.29h6.83v18.09c-5.11.06-8.34.03-9.7-.09-1.36-.12-2.61-.54-3.77-1.24-1.16-.71-2.22-2.37-3.17-5l-2.99,6.33h-4.95ZM1838.98,128.81l-6.27,8.1c-2.98-1.45-5.52-3.66-7.63-6.65l6.43-8.78c1.78,2.8,4.27,5.25,7.47,7.33"/>
      <path class="cls-3" d="M1858.63,132.88l-4.51,9.95.72,5.25c-.13,5.22-.72,8.91-1.76,11.08,3.51-3.44,8.46-7.52,14.85-12.26,2.61-2.11,5.47-3.47,8.58-4.07,3.73.3,6.62,2.28,8.67,5.92,1.3,2.38,1.84,4.92,1.6,7.6-2.93,7.66-5.86,13.56-8.8,17.71-2.94,4.15-5.97,6.22-9.08,6.22h-24.8v-18.09h4.47l1.4-1.22-2.24-21.35c-.13-2.47-.46-4-.98-4.59-.52-.59-.92-1.23-1.22-1.92-.29-.69-.38-1.25-.26-1.67.12-.42.41-1.35.88-2.78.47-1.43,1.11-3.12,1.94-5.07.83-1.94,1.34-2.77,1.56-2.46.21.3.25.96.12,1.97-.13,1.01.19,1.92.98,2.74.79.81,1.48,1.6,2.1,2.35.61.75,2.54,2.32,5.79,4.7M1866.93,162.15c6.49.06,10.18-.72,11.06-2.35-.8-1.72-2.2-3.19-4.19-4.41-2-1.22-4.33-1.24-6.99-.07-3.33,1.48-7.04,3.76-11.14,6.83h11.26Z"/>
      <path class="cls-3" d="M1915.73,180.28h-8.22c-.64,2.83-1.25,5.08-1.84,6.74-.67,2.05-1.46,3.87-2.4,5.47-.27.45-.58.9-.94,1.33-.36.44-.83.94-1.42,1.51-1.04,1.09-1.82,1.67-2.36,1.77l-1.76.14c-2.42,0-5.21-.46-8.37-1.38-3.15-.92-5.68-2.24-7.57-3.96-.45-.42-.63-.69-.52-.79.11-.11.35-.11.72-.02l1.64.36c1.2.15,2.63.11,4.29-.11,1.66-.23,3.44-.84,5.33-1.83,2.18-1.15,4.03-2.49,5.55-4.03,1.65-1.66,3.15-3.83,4.51-6.51l-1.04.32-1.84.45c-2.56.06-4.45-.47-5.67-1.58-1.22-1.12-2.02-2.43-2.4-3.94l-.28-1.54-.08-1.99c0-2.29.29-4.81.88-7.55.37-1.72.87-3.59,1.5-5.61.62-2.02,1.39-4.21,2.3-6.56.61-1.54,1.4-2.88,2.36-4.02,1.17-1.36,2.36-2.04,3.55-2.04,1.12,0,2.06.57,2.83,1.72.24.36.84,1.63,1.8,3.8.56,1.33,1.16,3.48,1.8,6.47.29,1.45.52,2.51.68,3.19.16.68.28,1.38.36,2.1h6.59v18.09ZM1899.66,156.49c-.52-.03-1.01.21-1.48.72-.47.51-.9,1.17-1.3,1.99.21,1.81,2.35,2.8,6.43,2.98-.59-1.96-1.21-3.39-1.88-4.3-.67-.9-1.26-1.37-1.78-1.4"/>
      <path class="cls-3" d="M1923,121.93c.32,0,.5.38.54,1.15.04.77.24,1.69.6,2.76.36,1.07.73,1.86,1.1,2.38.37.51.79,1.02,1.26,1.54.47.51,2.49,2.37,6.09,5.56l-3.91,10.09.32,8.05.6,5.43.12,2.67.08,3.17-1.16,7.19-1.08,4.98c-.61,2.5-1.74,3.63-3.39,3.39h-12.54v-18.14h11.86l-2.16-17.73c-.08-1.36-.28-2.83-.6-4.43-.69-.99-1.17-1.72-1.44-2.17-.27-.45-.55-1-.86-1.65-.31-.65-.43-1.42-.38-2.33.05-.9.69-2.83,1.92-5.79l3.04-6.11Z"/>
      <path class="cls-3" d="M1945.79,159.16c.08,3.14.03,5.65-.16,7.55-.35,2.89-.82,5.11-1.42,6.65-.6,1.54-1.17,2.82-1.72,3.85-.55,1.02-1.18,2.1-1.9,3.21l-4.15-42.34c.03-.72.56-2.61,1.6-5.65l1.08-3.21c.45-1.36,1-2.7,1.64-4.03l.8-2.04.72-1.36,1.16,8.55,1.4,12.85.12,2.08.44,6.79.16,4.21.24,2.89Z"/>
      <path class="cls-3" d="M1992.52,180.28h-8.78c-.45,0-.94-.09-1.46-.27s-.87-.38-1.06-.59c-.88,3.32-1.88,6.24-3.01,8.77-1.13,2.53-2.5,4.84-4.09,6.92-.59.81-1.3,1.49-2.16,2.04-1.07.69-2.08,1.04-3.04,1.04-1.46,0-4.09-1.25-7.87-3.76-4.07-2.71-6.59-5.17-7.55-7.37l.24-.36c.19-.21.37-.32.56-.32.96.6,2.01,1.06,3.15,1.38,1.15.32,2.37.48,3.67.48,1.49,0,2.78-.26,3.85-.77,1.08-.51,2.24-1.34,3.49-2.49,2.18-1.96,3.95-3.88,5.29-5.77,1.34-1.88,2.1-3.49,2.26-4.82.13-1.18-.33-3.03-1.4-5.56-.91-2.17-2.25-4.87-4.03-8.1.29-.84,1.12-2.67,2.48-5.47,1.49-3.17,2.41-4.95,2.76-5.34,1.68,2.59,3.05,4.87,4.11,6.83,1.25,2.29,2.4,3.83,3.43,4.61.21.15.39.26.54.32.14.06.44.17.9.32l1.72.18h5.99v18.09Z"/>
      <path class="cls-3" d="M2002.94,133.78l-4.51,9.95.72,4.34c-.13,5.22-.72,8.91-1.76,11.08,3.51-3.44,8.48-7.52,14.89-12.26,2.58-2.11,5.43-3.47,8.54-4.07,3.73.3,6.63,2.23,8.71,5.79,1.28,2.47,1.62,4.61,1.04,6.42-.67,2.98-1.73,5.37-3.19,7.15h10.26v18.09h-49.87v-18.09h5.51l1.4-1.22-2.24-20.45c-.13-2.47-.45-4-.96-4.59-.51-.59-.91-1.23-1.22-1.92-.31-.69-.4-1.4-.28-2.13s.41-1.8.88-3.23c.47-1.43,1.04-3.12,1.74-5.07.69-1.94,1.15-2.77,1.36-2.47.21.3.25.96.12,1.97-.13,1.01.19,1.92.98,2.74.79.81,1.48,1.6,2.1,2.35s2.54,2.62,5.79,5.61M2011.4,162.19c6.49.06,10.19-.87,11.1-2.8-.83-1.72-2.23-3.11-4.21-4.18-1.98-1.07-4.31-1.02-6.97.16-3.33,1.48-7.05,3.75-11.18,6.83h11.26Z"/>
      <path class="cls-3" d="M2034.68,162.19h24.36c0-2.41-.52-5.2-1.56-8.37-.4,1.69-.73,2.9-1,3.64-.27.74-.89,1.52-1.88,2.33-.99.82-2.42,1.1-4.29.86-1.88-.24-3.37-1.16-4.47-2.76-1.11-1.6-1.34-4.42-.7-8.46,1.2-5.22,2.82-9.21,4.87-11.99,2.05-2.77,3.98-3.76,5.79-2.94,2.69,1.24,4.92,5.02,6.71,11.35,1.44,5.34,1.86,10.8,1.28,16.38-.8,8.9-1.5,14.13-2.12,15.7-.61,1.57-1.48,2.35-2.6,2.35h-24.4v-18.09ZM2060.2,123.56l-2.68,3.8c-1.81,2.56-2.93,4.07-3.35,4.52l-2.72-1.95c-2.05-1.51-3.55-2.76-4.51-3.76l-2.48,3.44-1.72,2.26-3.15-2.26c-2.26-1.72-3.82-3.08-4.67-4.07.45-1.08,1.52-2.79,3.19-5.11l2.95-3.89c.69,1.05,2.1,2.49,4.23,4.3.26.24.81.84,1.64,1.81.37.45.67.75.88.9.93-1.51,1.86-3.03,2.79-4.57l1.88-2.44c.82,1.24,2.36,2.77,4.59,4.61l3.11,2.4ZM2051.33,144.89c-.83.2-1.49.62-2,1.27-.51.65-.5,1.29.02,1.92s1.13,1.08,1.84,1.36c.71.27,1.44.38,2.2.34.76-.04,1.6-.45,2.54-1.2-.61-1.66-1.32-2.74-2.14-3.23-.81-.5-1.63-.65-2.45-.45"/>
      <path class="cls-3" d="M2103.84,126.14l-2.68,3.8c-1.81,2.56-2.93,4.07-3.35,4.52l-2.72-1.95c-2.05-1.51-3.55-2.76-4.51-3.76l-2.48,3.44-1.72,2.26-3.16-2.26c-2.26-1.72-3.82-3.08-4.67-4.07.45-1.09,1.52-2.79,3.19-5.11l2.96-3.89c.35.54,1.16,1.34,2.44,2.4.75.63,1.5,1.27,2.28,1.9.32.27.68.63,1.08,1.09.4.45.72.77.96.95.88-1.33,1.81-2.64,2.8-3.94l1.88-2.4c.82,1.24,2.35,2.77,4.59,4.61l3.11,2.4ZM2103.64,130.39c1.44,5.55,2.5,11.42,3.19,17.62.69,6.2,1.38,10.05,2.08,11.56.69,1.51,1.58,2.32,2.68,2.44,1.09.12,3.1.18,6.03.18v18.09l-2.68-.04c-2.5.3-5.03-.5-7.59-2.4-2.55-1.9-4.3-6.63-5.23-14.2-1.2,3.98-2.29,6.88-3.27,8.68-1.86,1.81-5.27,2.2-10.22,1.18-5.4-.81-7.92-2.15-7.55-4.03.98-5.28,1.82-8.93,2.52-10.97.69-2.04,2.14-3.7,4.35-5l11.5-9.05-.72-4.7,4.91-9.36ZM2100.05,149.89c-1.52,3.23-4.57,5.91-9.14,8.05,2.69.69,5.07.9,7.15.63,2.08-.27,3.14-.78,3.19-1.54l-1.2-7.15Z"/>
      <path class="cls-3" d="M2176.87,180.37l-62.97-.09v-18.09h58.66c-.88-1.87-1.84-3.09-2.9-3.66-1.05-.57-2.5-.96-4.33-1.18-3.09.12-7.97.39-14.65.81-4.13.33-7.64.47-10.54.41-10.49-.06-16.81-.89-18.97-2.49-1.06-.72-1.6-1.81-1.6-3.26,0-3.35,1.45-6.83,4.35-10.45,3.73-5.25,8.68-10.01,14.85-14.29,2.71-1.84,5.44-3.33,8.19-4.48l5.03-2.17c-1.57,3.47-3.35,7.33-5.35,11.58-1.33.27-3.31,1.18-5.95,2.71-2,1.24-4.02,2.44-6.07,3.62-1.46.84-3.07,2.01-4.83,3.48-1.89,1.3-3.05,2.26-3.47,2.89-.03.39,3.61.77,10.9,1.13,7.29.36,14.11.12,20.44-.72,3.83-.66,7.88-.74,12.14-.23,2,.54,3.78,1.66,5.35,3.35,1.62,2.02,2.87,3.9,3.73,5.63.86,1.73,1.51,4.21,1.94,7.44l-3.95,18.05Z"/>
      <path class="cls-3" d="M2217.08,180.28h-8.78c-.45,0-.94-.09-1.46-.27s-.87-.38-1.06-.59c-.88,3.32-1.88,6.24-3.01,8.77-1.13,2.53-2.5,4.84-4.09,6.92-.59.81-1.3,1.49-2.16,2.04-1.07.69-2.08,1.04-3.04,1.04-1.46,0-4.09-1.25-7.87-3.76-4.07-2.71-6.59-5.17-7.55-7.37l.24-.36c.19-.21.37-.32.56-.32.96.6,2.01,1.06,3.15,1.38,1.15.32,2.37.48,3.67.48,1.49,0,2.78-.26,3.85-.77,1.08-.51,2.24-1.34,3.49-2.49,2.18-1.96,3.95-3.88,5.29-5.77,1.34-1.88,2.1-3.49,2.26-4.82.13-1.18-.33-3.03-1.4-5.56-.91-2.17-2.25-4.87-4.03-8.1.29-.84,1.12-2.67,2.48-5.47,1.49-3.17,2.41-4.95,2.76-5.34,1.68,2.59,3.05,4.87,4.11,6.83,1.25,2.29,2.4,3.83,3.43,4.61.21.15.39.26.54.32.14.06.44.17.9.32l1.72.18h5.99v18.09Z"/>
      <path class="cls-3" d="M2251.18,148.12c.37.81.66,3.02.88,6.63.21,3.6.01,7.41-.6,11.42-.61,4.01-1.26,7.02-1.94,9.02-.68,2.01-1.38,3.3-2.1,3.89-.72.59-1.89.71-3.51.36-1.62-.35-3.86-1.47-6.71-3.37-1.2,1.66-2.16,2.69-2.9,3.1-.73.41-1.7.69-2.92.86-1.21.17-2.88.25-5.01.25s-3.9-.47-5.31-1.4c-1.17.88-3.01,1.34-5.51,1.4h-2.88v-18.05l3.59-.05h2.92c1.89-.3,3.24-.95,4.05-1.95.81-.99,1.48-2.28,2.02-3.84.53-1.57,1.96-3.41,4.27-5.52-.19,1.66-.58,3.56-1.2,5.7-.61,2.14-1.16,4.01-1.64,5.61,4.1.33,6.79.13,8.09-.61,1.29-.74,2.55-3.4,3.77-7.98,1.7-2.11,3.25-3.47,4.63-4.07-2.08,6-3.05,9.26-2.93,9.77.12.51.64,1.12,1.56,1.83.92.71,1.96,1.25,3.11,1.63,1.16.38,2.15.45,2.97.2-.05-2.32-.27-4.22-.64-5.7l3.91-9.14ZM2250.34,136.68l-2.68,3.8c-1.81,2.56-2.93,4.07-3.35,4.52l-2.71-1.95c-2.05-1.51-3.55-2.76-4.51-3.75l-2.48,3.44-1.72,2.26-3.15-2.26c-2.26-1.72-3.82-3.08-4.67-4.07.45-1.09,1.52-2.79,3.19-5.11l2.96-3.89c.69,1.06,2.1,2.49,4.23,4.3l2.52,2.04c.74-1.15,1.68-2.44,2.79-3.89l1.88-2.44c.82,1.24,2.35,2.77,4.59,4.61l3.11,2.4ZM2244.03,124.1l-2.68,3.8c-.72,1.03-1.6,2.46-2.64,4.3-.43.78-.68,1.21-.76,1.27-.45-.3-.91-.72-1.36-1.27-.59-.66-1.17-1.34-1.76-2.04-2.26-1.72-3.82-3.08-4.67-4.07.45-1.09,1.52-2.79,3.19-5.11l2.95-3.89c.82,1.24,2.36,2.77,4.59,4.62l3.11,2.4Z"/>
      <path class="cls-3" d="M1687.39,247.12c-4.23,4.83-7.36,9.57-9.38,14.23-2.02,4.66-3.03,9.46-3.03,14.41,0,4.55.98,9.24,2.95,14.07,1.04,2.62,2.2,4.98,3.48,7.06,1.17,1.9,3.11,4.58,5.83,8.05l-.32.54c-1.41-1.03-2.54-1.87-3.39-2.53-.98-.78-1.78-1.46-2.4-2.04-1.14-1.02-2.49-2.49-4.03-4.39-2.48-3.17-4.32-6.48-5.53-9.93-1.21-3.45-1.82-7.12-1.82-11.01s.53-7.13,1.6-10.18c1.06-3.04,2.82-6.17,5.27-9.36,1.28-1.66,2.63-3.18,4.07-4.57.72-.69,1.54-1.41,2.45-2.15.92-.74,2.12-1.65,3.61-2.74l.64.54Z"/>
      <path class="cls-3" d="M1717.18,251.83c.48-.39,1.1-.65,1.88-.77.77-.12,1.68.24,2.72,1.09,1.04.85,1.82,1.73,2.34,2.67.52.93,1.1,2.35,1.76,4.25.65,1.9,1.22,3.94,1.7,6.11.48,2.17.8,3.99.98,5.45.17,1.46.23,3.81.16,7.03-.07,3.23-.13,5.16-.18,5.79-.05.63-.25,1.7-.6,3.21l-.72,4.21-1.2,3.26c-.51.79-.99,1.39-1.46,1.81-.47.42-1.08,1-1.84,1.74-.76.74-1.32,1.26-1.7,1.56-.37.3-.81.59-1.32.88-.51.29-1.17.72-2,1.31-.82.59-2.27,1.28-4.33,2.08-2.06.8-4.18,1.35-6.35,1.65-2.17.3-3.81.41-4.91.32-1.11-.09-2.4-.35-3.89-.77-1.49-.42-2.95-1.43-4.39-3.03s-2.37-3.36-2.8-5.29c-.43-1.93-.55-4.12-.36-6.58.19-2.46.34-4.11.46-4.95.12-.84.38-1.99.78-3.44.24-1.14.58-2.32,1.04-3.53.37-1.02.84-2.35,1.4-3.96.56-1.61,1.11-2.97,1.66-4.07.55-1.1,1.34-2.68,2.38-4.73.35-.69.64-1.2.88-1.51.24-.32.58-.33,1.02-.04.44.29.37,1.03-.2,2.24-.57,1.21-1.28,3.05-2.14,5.52-.85,2.47-1.32,5.38-1.4,8.73l.16,2.4c.29,1.09.76,2.11,1.4,3.08.61.88,1.38,1.61,2.31,2.22.77.51,1.7.95,2.8,1.31,1.09.24,2.33.38,3.71.41l3.71-.41c3.49-.84,6.59-2.14,9.32-3.89,2.73-1.75,4.21-3.2,4.45-4.34l-.2-2.31-1.04-3.71-.88-1.76-.56,2.17c-.43,1.06-1.01,2.02-1.76,2.9-.74.78-1.43,1.27-2.06,1.47-.62.2-1.44.29-2.44.29s-2.06-.33-3.17-.99c-1.12-.66-1.84-1.27-2.16-1.83-.32-.56-.68-1.45-1.08-2.69-.24-1.42-.36-2.96-.36-4.61.37-3.62,1.48-7.3,3.31-11.04l1.6-2.85,1.96-2.4c.59-.69,1.12-1.24,1.6-1.63M1722.61,237.85l-2.68,3.8c-1.81,2.56-2.93,4.07-3.35,4.52l-2.72-1.94c-2.05-1.51-3.55-2.76-4.51-3.75l-2.48,3.44-1.72,2.26-3.15-2.26c-2.26-1.72-3.82-3.08-4.67-4.07.45-1.09,1.52-2.79,3.19-5.11l2.95-3.89c.69,1.06,2.1,2.49,4.23,4.3l2.52,2.04c.74-1.14,1.68-2.44,2.8-3.89l1.88-2.44c.83,1.24,2.36,2.78,4.59,4.61l3.11,2.4ZM1715.92,262.59c-.68.03-1.62.72-2.82,2.08.43,1.21.88,2.02,1.38,2.44.49.42,1.12.72,1.9.88.77.17,1.86-.14,3.27-.93-.51-1.63-1.08-2.79-1.74-3.48-.65-.69-1.32-1.02-2-1"/>
      <path class="cls-3" d="M1740.54,291.45c-3.38-1.11-6.14-3.59-8.27-7.42l7.47-7.42c2.13,2.65,4.77,5.14,7.91,7.46l-7.11,7.37Z"/>
      <path class="cls-3" d="M1752.27,266.84c.37-2.95,1.16-6.3,2.35-10.04.98-2.96,2.08-5.44,3.27-7.46,1.54-2.23,3.19-3.39,4.95-3.48,1.3-.09,2.95.51,4.95,1.81,2,1.3,3.19,2.9,3.59,4.79-2.58-1.02-4.8-1.24-6.65-.63-1.85.6-3.48,1.53-4.89,2.78-1.41,1.25-2.31,2.38-2.71,3.39-.4,1.01.57,2.66,2.91,4.95.96.57,2.07.9,3.33.97,1.26.08,3.19-.58,5.77-1.97l6.99-3.93c-.64,3.14-.97,4.81-1,5.02-.4,1.96-.86,4.31-1.4,7.06-5.88,2.99-10.35,6.76-13.42,11.31-2.08,2.78-3.05,5.84-2.92,9.18-.37,7.39,6.1,10.72,19.41,10h6.19c-3.89,5.43-6.4,8.56-7.55,9.39-1.14.83-3.86,1.71-8.15,2.65-4.47-.03-7.8-.88-9.98-2.53-3.06-1.99-4.66-5.85-4.79-11.58-.11-3.29.47-7.42,1.74-12.39,1.26-4.98,2.48-8.46,3.65-10.45-1.76-1.15-3.02-2.25-3.79-3.3-1.2-1.51-1.82-3.35-1.88-5.52"/>
      <path class="cls-3" d="M1792.6,291.45c-3.38-1.11-6.14-3.59-8.27-7.42l7.47-7.42c2.13,2.65,4.77,5.14,7.91,7.46l-7.11,7.37Z"/>
      <path class="cls-3" d="M1813.13,255.24c.8-.35,1.62-.36,2.46-.04.84.32,1.57.73,2.2,1.24.62.51,1.41,1.31,2.36,2.4.94,1.09,2.45,3.25,4.51,6.49,2.06,3.24,3.71,5.53,4.93,6.85l-1.72,7.15-1.72,7.56c-5.19-1.18-8.57-1.56-10.12-1.15-1.56.41-2.8.82-3.73,1.24-.93.42-1.78,1.39-2.56,2.9.93,6.57,1.4,10.76,1.42,12.55.01,1.79-.3,3.69-.94,5.7-.64,2-1.52,3.72-2.64,5.13l-.56.41-2.36-23.61c-.11-.84-.16-1.79-.16-2.85l-.04-3.08c.43-3.01.83-5.17,1.22-6.47.39-1.3.9-2.37,1.54-3.21.64-.84,1.66-1.68,3.06-2.51,1.4-.83,3.25-1.5,5.57-2.01-.96-1.3-1.97-2.12-3.04-2.47-1.06-.35-2.05-.26-2.95.27-.91.53-1.68,1.2-2.34,2.01-.65.82-.92.56-.8-.77.12-1.33.46-3.07,1.02-5.22.56-2.15,1.08-3.73,1.58-4.73.49-.99,1.05-1.79,1.68-2.38.62-.59,1.34-1.06,2.14-1.4"/>
      <path class="cls-3" d="M1840.6,291.45c-3.38-1.11-6.14-3.59-8.27-7.42l7.47-7.42c2.13,2.65,4.77,5.14,7.91,7.46l-7.11,7.37Z"/>
      <path class="cls-3" d="M1906.32,257.98c.56.57.97,3.86,1.24,9.86l-.4,5.07c-.9,7.42-1.77,12.17-2.6,14.25l-.96,1.54c-.35.45-.76.85-1.24,1.18-.48.18-1.04.32-1.68.41-2.26.09-4.64-.5-7.15-1.76-1.09,1.36-2.15,2.16-3.17,2.42-1.02.26-2.12.42-3.27.5-1.16.08-2.48-.43-3.97-1.51-.21,1.39-.37,2.43-.48,3.12-.43,3.92-1.03,6.95-1.82,9.09-.78,2.14-1.82,3.8-3.09,4.98-1.28,1.57-3.1,2.94-5.47,4.12l-5.07.77c-5.14.21-8.88-.9-11.22-3.32-2.34-2.43-3.58-5.41-3.71-8.93-.13-3.53.12-6.72.76-9.59.64-2.86,1.77-6.24,3.39-10.13,1.62-3.89,2.68-5.97,3.15-6.24.48-.27.64,0,.48.82-2.08,8.44-2.58,13.43-1.52,14.97l.72,1.94.96,1.36,1.08,1.18,1.4.95,3.27.95c4.1-.15,6.99-.47,8.68-.95,1.69-.48,3.19-1.22,4.49-2.22.03-1.42-.25-3.35-.84-5.79l-1.16-4.39-1.92-5.79c-.19-.72-.09-1.45.28-2.17l3.99-11.81c.24-.66.81.26,1.72,2.76.9,2.5,1.6,4.3,2.1,5.38.49,1.09,1.38,1.83,2.66,2.24,1.28.41,2.62.53,4.03.36,1.41-.17,2.24-.72,2.48-1.65.24-.48.47-1.06.68-1.72l1.52-3.71.96-1.54c.29-.39.65-.78,1.08-1.18l1.52-1.36c-.05.54-.15,1.13-.28,1.76l-1.52,6.6c-.16.75-.07,1.29.26,1.61.33.32,1.05.63,2.16.95,1.1.32,2.47.16,4.09-.47l-.44-7.92,3.83-6.97ZM1903.77,243.77l-2.68,3.8c-1.81,2.56-2.93,4.07-3.35,4.52l-2.71-1.95c-2.05-1.51-3.55-2.76-4.51-3.75l-2.48,3.44-1.72,2.26-3.15-2.26c-2.26-1.72-3.82-3.08-4.67-4.07.45-1.09,1.52-2.79,3.19-5.11l2.96-3.89c.69,1.06,2.1,2.49,4.23,4.3l2.52,2.04c.74-1.15,1.68-2.44,2.8-3.89l1.88-2.44c.82,1.24,2.35,2.78,4.59,4.62l3.11,2.4ZM1897.46,231.2l-2.6,3.8c-.69,1-1.58,2.43-2.68,4.3-.43.76-.69,1.18-.8,1.27-.45-.3-.91-.72-1.36-1.27-.59-.66-1.17-1.34-1.76-2.03-2.26-1.72-3.82-3.08-4.67-4.07.45-1.09,1.52-2.79,3.19-5.11l2.95-3.89c.82,1.24,2.35,2.78,4.59,4.62l3.11,2.4Z"/>
      <path class="cls-3" d="M1928.64,275.3c0,7.66-2.49,14.64-7.47,20.94-1.36,1.72-2.69,3.18-3.99,4.39-1.12,1.02-3.03,2.55-5.75,4.57l-.48-.54,1.88-2.4,2.24-2.98c2.69-3.83,4.74-7.77,6.17-11.83,1.42-4.06,2.14-8.04,2.14-11.96,0-4.92-.99-9.67-2.97-14.27-1.98-4.6-5.13-9.39-9.44-14.36l.68-.54c2.71,2.05,4.72,3.69,6.01,4.91,1.29,1.22,2.63,2.74,4.01,4.55,2.4,3.14,4.15,6.27,5.27,9.41.56,1.57.98,3.18,1.28,4.84.29,1.66.44,3.42.44,5.29"/>
    </g>
    <g>
      <path class="cls-3" d="M29.92,166.75c1.75,1.42,3.66,2.55,5.72,3.39l-2.63,5.71c-1.08-.36-2.13-.87-3.16-1.5-.23-.13-1.81-1.31-4.75-3.55-2.32,1.15-4.88,1.72-7.7,1.72-5.44,0-9.7-1.81-12.78-5.44-3.08-3.63-4.62-8.72-4.62-15.28s1.54-11.63,4.63-15.27c3.09-3.64,7.28-5.45,12.57-5.45s9.4,1.82,12.48,5.45c3.07,3.63,4.61,8.72,4.61,15.27,0,3.46-.43,6.51-1.28,9.13-.64,2.01-1.67,3.95-3.09,5.82M24.18,162.19c.92-1.22,1.6-2.7,2.06-4.43.46-1.73.69-3.72.69-5.96,0-4.63-.9-8.09-2.7-10.37-1.8-2.29-4.16-3.43-7.07-3.43s-5.27,1.15-7.08,3.44c-1.81,2.3-2.71,5.75-2.71,10.36s.9,8.19,2.71,10.51c1.81,2.32,4.1,3.48,6.86,3.48,1.03,0,2-.19,2.92-.57-1.45-1.07-2.92-1.91-4.42-2.51l2-4.62c2.35.91,4.59,2.28,6.73,4.1"/>
      <path class="cls-3" d="M73.53,171.84h-7.77l-3.09-9.1h-14.14l-2.92,9.1h-7.58l13.78-40.08h7.55l14.17,40.08ZM60.38,155.98l-4.88-14.87-4.78,14.87h9.65Z"/>
      <polygon class="cls-3" points="83.35 171.84 83.35 138.54 72.85 138.54 72.85 131.76 100.97 131.76 100.97 138.54 90.49 138.54 90.49 171.84 83.35 171.84"/>
      <path class="cls-3" d="M135.55,171.84h-7.77l-3.09-9.1h-14.14l-2.92,9.1h-7.58l13.78-40.08h7.55l14.17,40.08ZM122.4,155.98l-4.87-14.87-4.78,14.87h9.65Z"/>
      <path class="cls-3" d="M141.1,171.84v-40.08h15.03c3.78,0,6.53.36,8.24,1.08,1.71.72,3.09,2,4.12,3.84,1.03,1.84,1.54,3.95,1.54,6.31,0,3.01-.78,5.49-2.34,7.45-1.56,1.96-3.89,3.2-7,3.7,1.54,1.02,2.82,2.14,3.82,3.36,1.01,1.22,2.36,3.39,4.07,6.51l4.32,7.82h-8.54l-5.16-8.72c-1.83-3.12-3.09-5.08-3.76-5.89-.68-.81-1.39-1.37-2.15-1.67-.76-.3-1.96-.45-3.6-.45h-1.45v16.73h-7.14ZM148.24,148.71h5.28c3.43,0,5.57-.16,6.42-.49s1.52-.89,2-1.7c.48-.8.72-1.8.72-3.01,0-1.35-.32-2.44-.95-3.27-.64-.83-1.53-1.35-2.69-1.57-.58-.09-2.32-.14-5.21-.14h-5.57v10.17Z"/>
      <polygon class="cls-3" points="192.31 171.84 192.31 131.76 199.26 131.76 213.74 158.53 213.74 131.76 220.37 131.76 220.37 171.84 213.2 171.84 198.94 145.7 198.94 171.84 192.31 171.84"/>
      <path class="cls-3" d="M261.57,171.84h-7.77l-3.09-9.1h-14.14l-2.92,9.1h-7.58l13.78-40.08h7.55l14.17,40.08ZM248.41,155.98l-4.88-14.87-4.78,14.87h9.65Z"/>
      <polygon class="cls-3" points="271.39 171.84 271.39 138.54 260.89 138.54 260.89 131.76 289 131.76 289 138.54 278.53 138.54 278.53 171.84 271.39 171.84"/>
      <rect class="cls-3" x="295.13" y="131.76" width="7.14" height="40.08"/>
      <path class="cls-3" d="M309.37,152.05c0-4.08.54-7.51,1.62-10.28.8-2.04,1.9-3.87,3.29-5.5,1.39-1.62,2.92-2.82,4.57-3.61,2.2-1.06,4.75-1.59,7.63-1.59,5.21,0,9.38,1.83,12.51,5.5,3.13,3.66,4.69,8.76,4.69,15.28s-1.55,11.53-4.66,15.19c-3.1,3.65-7.26,5.48-12.45,5.48s-9.44-1.82-12.55-5.45c-3.11-3.64-4.66-8.64-4.66-15.02M316.73,151.77c0,4.54.92,7.98,2.77,10.32,1.85,2.34,4.2,3.51,7.05,3.51s5.18-1.16,7.01-3.48c1.83-2.32,2.74-5.81,2.74-10.46s-.89-8.02-2.67-10.28c-1.78-2.26-4.14-3.39-7.08-3.39s-5.32,1.14-7.12,3.43c-1.8,2.29-2.7,5.74-2.7,10.35"/>
      <polygon class="cls-3" points="351.07 171.84 351.07 131.76 358.02 131.76 372.5 158.53 372.5 131.76 379.14 131.76 379.14 171.84 371.97 171.84 357.71 145.7 357.71 171.84 351.07 171.84"/>
      <path class="cls-3" d="M420.33,171.84h-7.77l-3.09-9.1h-14.14l-2.92,9.1h-7.58l13.78-40.08h7.55l14.16,40.08ZM407.18,155.98l-4.87-14.87-4.78,14.87h9.65Z"/>
      <polygon class="cls-3" points="426.05 171.84 426.05 132.09 433.19 132.09 433.19 165.09 450.95 165.09 450.95 171.84 426.05 171.84"/>
      <path class="cls-3" d="M493.26,157.1l6.93,2.49c-1.06,4.37-2.83,7.62-5.3,9.75-2.47,2.12-5.6,3.18-9.4,3.18-4.7,0-8.56-1.82-11.58-5.45-3.03-3.64-4.54-8.61-4.54-14.91,0-6.67,1.52-11.85,4.56-15.54,3.04-3.69,7.04-5.54,11.99-5.54,4.33,0,7.84,1.45,10.55,4.35,1.61,1.71,2.81,4.17,3.62,7.38l-7.07,1.91c-.42-2.08-1.29-3.72-2.62-4.92-1.33-1.2-2.94-1.8-4.84-1.8-2.62,0-4.75,1.06-6.38,3.2-1.63,2.13-2.45,5.59-2.45,10.36,0,5.07.8,8.68,2.41,10.83,1.61,2.15,3.7,3.23,6.27,3.23,1.9,0,3.53-.68,4.9-2.05,1.37-1.37,2.35-3.52,2.94-6.45"/>
      <polygon class="cls-3" points="508.05 171.84 508.05 131.76 534.28 131.76 534.28 138.54 515.19 138.54 515.19 147.43 532.95 147.43 532.95 154.18 515.19 154.18 515.19 165.09 534.96 165.09 534.96 171.84 508.05 171.84"/>
      <polygon class="cls-3" points="542.65 171.84 542.65 131.76 553.34 131.76 559.76 159.1 566.11 131.76 576.82 131.76 576.82 171.84 570.19 171.84 570.19 140.29 563.17 171.84 556.29 171.84 549.29 140.29 549.29 171.84 542.65 171.84"/>
      <polygon class="cls-3" points="585.66 171.84 585.66 131.76 611.89 131.76 611.89 138.54 592.8 138.54 592.8 147.43 610.56 147.43 610.56 154.18 592.8 154.18 592.8 165.09 612.56 165.09 612.56 171.84 585.66 171.84"/>
      <polygon class="cls-3" points="620.43 171.84 620.43 131.76 627.38 131.76 641.86 158.53 641.86 131.76 648.5 131.76 648.5 171.84 641.33 171.84 627.07 145.7 627.07 171.84 620.43 171.84"/>
      <polygon class="cls-3" points="665.75 171.84 665.75 138.54 655.25 138.54 655.25 131.76 683.37 131.76 683.37 138.54 672.89 138.54 672.89 171.84 665.75 171.84"/>
      <path class="cls-3" d="M726.08,157.1l6.93,2.49c-1.06,4.37-2.83,7.62-5.3,9.75-2.47,2.12-5.6,3.18-9.4,3.18-4.7,0-8.56-1.82-11.58-5.45-3.03-3.64-4.54-8.61-4.54-14.91,0-6.67,1.52-11.85,4.56-15.54,3.04-3.69,7.04-5.54,11.99-5.54,4.33,0,7.84,1.45,10.55,4.35,1.61,1.71,2.81,4.17,3.62,7.38l-7.07,1.91c-.42-2.08-1.29-3.72-2.62-4.92-1.33-1.2-2.94-1.8-4.84-1.8-2.62,0-4.75,1.06-6.38,3.2-1.63,2.13-2.45,5.59-2.45,10.36,0,5.07.8,8.68,2.41,10.83,1.61,2.15,3.7,3.23,6.27,3.23,1.9,0,3.53-.68,4.9-2.05,1.37-1.37,2.35-3.52,2.94-6.45"/>
      <path class="cls-3" d="M739.43,152.05c0-4.08.54-7.51,1.62-10.28.8-2.04,1.9-3.87,3.29-5.5,1.39-1.62,2.92-2.82,4.57-3.61,2.2-1.06,4.74-1.59,7.62-1.59,5.21,0,9.38,1.83,12.51,5.5,3.13,3.66,4.69,8.76,4.69,15.28s-1.55,11.53-4.66,15.19c-3.1,3.65-7.26,5.48-12.45,5.48s-9.44-1.82-12.55-5.45c-3.11-3.64-4.66-8.64-4.66-15.02M746.79,151.77c0,4.54.92,7.98,2.77,10.32,1.85,2.34,4.2,3.51,7.05,3.51s5.18-1.16,7.01-3.48,2.74-5.81,2.74-10.46-.89-8.02-2.67-10.28c-1.78-2.26-4.14-3.39-7.08-3.39s-5.32,1.14-7.12,3.43-2.7,5.74-2.7,10.35"/>
      <polygon class="cls-3" points="780.96 171.84 780.96 131.76 791.65 131.76 798.07 159.1 804.41 131.76 815.13 131.76 815.13 171.84 808.49 171.84 808.49 140.29 801.47 171.84 794.59 171.84 787.59 140.29 787.59 171.84 780.96 171.84"/>
      <path class="cls-3" d="M823.96,171.84v-40.08h11.46c4.34,0,7.18.2,8.49.6,2.03.6,3.72,1.91,5.09,3.92,1.37,2.01,2.05,4.61,2.05,7.8,0,2.46-.39,4.53-1.18,6.21-.79,1.68-1.79,2.99-3,3.95-1.22.96-2.45,1.59-3.71,1.9-1.71.38-4.17.58-7.41.58h-4.66v15.12h-7.14ZM831.1,138.54v11.37h3.91c2.82,0,4.7-.21,5.65-.63.95-.42,1.69-1.08,2.23-1.97.54-.89.81-1.93.81-3.12,0-1.46-.38-2.66-1.14-3.61-.76-.95-1.71-1.54-2.87-1.78-.85-.18-2.57-.27-5.14-.27h-3.45Z"/>
      <path class="cls-3" d="M886.9,171.84h-7.77l-3.09-9.1h-14.14l-2.92,9.1h-7.58l13.78-40.08h7.55l14.16,40.08ZM873.74,155.98l-4.87-14.87-4.78,14.87h9.65Z"/>
      <polygon class="cls-3" points="892.49 171.84 892.49 131.76 899.44 131.76 913.92 158.53 913.92 131.76 920.56 131.76 920.56 171.84 913.39 171.84 899.13 145.7 899.13 171.84 892.49 171.84"/>
      <polygon class="cls-3" points="939.14 171.84 939.14 154.97 926.18 131.76 934.56 131.76 942.88 147.62 951.04 131.76 959.27 131.76 946.26 155.03 946.26 171.84 939.14 171.84"/>
      <path class="cls-3" d="M386.39,250.81h-4.66c-2.46-4.21-4.34-8.58-5.62-13.12-1.29-4.54-1.93-8.93-1.93-13.18,0-5.27.8-10.25,2.39-14.95,1.38-4.08,3.14-7.85,5.26-11.29h4.63c-2.2,5.52-3.72,10.22-4.55,14.09-.83,3.87-1.24,7.98-1.24,12.32,0,2.99.24,6.05.74,9.19.49,3.13,1.16,6.11,2.01,8.94.56,1.86,1.55,4.53,2.97,8.01"/>
      <path class="cls-3" d="M420.12,233.94c1.75,1.42,3.66,2.55,5.72,3.39l-2.63,5.71c-1.08-.36-2.13-.87-3.16-1.5-.23-.13-1.81-1.31-4.75-3.55-2.32,1.15-4.88,1.72-7.7,1.72-5.44,0-9.7-1.81-12.78-5.44-3.08-3.63-4.62-8.72-4.62-15.28s1.54-11.63,4.63-15.27c3.09-3.64,7.28-5.45,12.57-5.45s9.4,1.82,12.48,5.45c3.07,3.63,4.61,8.72,4.61,15.27,0,3.46-.43,6.51-1.28,9.13-.64,2.01-1.67,3.95-3.09,5.82M414.38,229.37c.92-1.22,1.6-2.7,2.06-4.43.46-1.73.69-3.72.69-5.96,0-4.63-.9-8.09-2.7-10.37-1.8-2.29-4.16-3.43-7.07-3.43s-5.27,1.15-7.08,3.44c-1.81,2.3-2.71,5.75-2.71,10.36s.9,8.19,2.71,10.51c1.81,2.32,4.1,3.48,6.86,3.48,1.03,0,2-.19,2.92-.57-1.45-1.07-2.92-1.91-4.42-2.51l2-4.62c2.35.91,4.59,2.28,6.73,4.1"/>
      <rect class="cls-3" x="430.91" y="231.34" width="6.78" height="7.68"/>
      <path class="cls-3" d="M445.56,239.03v-40.08h11.46c4.34,0,7.18.2,8.49.6,2.03.6,3.72,1.91,5.09,3.92,1.37,2.01,2.05,4.61,2.05,7.8,0,2.46-.39,4.53-1.18,6.21-.79,1.68-1.79,2.99-3,3.95-1.22.96-2.45,1.59-3.71,1.9-1.71.38-4.17.58-7.41.58h-4.66v15.12h-7.14ZM452.7,205.73v11.37h3.91c2.82,0,4.7-.21,5.65-.63.95-.42,1.69-1.08,2.23-1.97.54-.89.81-1.93.81-3.12,0-1.46-.38-2.66-1.14-3.61-.76-.95-1.71-1.54-2.87-1.78-.85-.18-2.57-.27-5.14-.27h-3.45Z"/>
      <rect class="cls-3" x="472.97" y="231.34" width="6.78" height="7.68"/>
      <path class="cls-3" d="M485.81,225.98l6.95-.77c.42,2.64,1.27,4.58,2.55,5.82,1.28,1.24,3.01,1.86,5.18,1.86,2.3,0,4.03-.55,5.2-1.65,1.17-1.1,1.75-2.39,1.75-3.87,0-.95-.25-1.75-.74-2.42-.49-.66-1.35-1.24-2.57-1.74-.84-.33-2.74-.91-5.72-1.75-3.83-1.08-6.52-2.4-8.06-3.96-2.17-2.21-3.26-4.89-3.26-8.06,0-2.04.51-3.95,1.53-5.73,1.02-1.78,2.49-3.13,4.42-4.06,1.92-.93,4.24-1.39,6.96-1.39,4.44,0,7.78,1.1,10.03,3.31,2.24,2.21,3.42,5.15,3.54,8.83l-7.14.35c-.3-2.06-.96-3.54-1.97-4.44-1.01-.9-2.51-1.35-4.53-1.35s-3.7.48-4.88,1.45c-.76.62-1.13,1.45-1.13,2.49,0,.95.35,1.76,1.06,2.43.9.86,3.09,1.75,6.56,2.68,3.48.93,6.04,1.89,7.71,2.88,1.67.99,2.97,2.35,3.91,4.07.94,1.72,1.41,3.85,1.41,6.38,0,2.3-.56,4.45-1.69,6.45-1.13,2.01-2.72,3.49-4.78,4.47-2.06.97-4.63,1.46-7.7,1.46-4.47,0-7.91-1.17-10.3-3.51-2.4-2.34-3.83-5.76-4.29-10.24"/>
      <rect class="cls-3" x="521.41" y="231.34" width="6.78" height="7.68"/>
      <path class="cls-3" d="M558.69,224.29l6.93,2.49c-1.06,4.37-2.83,7.62-5.3,9.75-2.47,2.12-5.6,3.18-9.4,3.18-4.7,0-8.56-1.82-11.58-5.45-3.03-3.64-4.54-8.61-4.54-14.91,0-6.67,1.52-11.85,4.56-15.54,3.04-3.69,7.04-5.54,11.99-5.54,4.33,0,7.84,1.45,10.55,4.35,1.61,1.71,2.81,4.17,3.62,7.38l-7.07,1.91c-.42-2.08-1.29-3.72-2.62-4.92-1.33-1.2-2.94-1.8-4.84-1.8-2.62,0-4.75,1.06-6.38,3.2-1.63,2.13-2.45,5.59-2.45,10.36,0,5.07.8,8.68,2.41,10.83,1.61,2.15,3.7,3.23,6.27,3.23,1.9,0,3.53-.68,4.9-2.05,1.37-1.37,2.35-3.52,2.94-6.45"/>
      <path class="cls-3" d="M570.68,250.81c1.33-3.24,2.28-5.73,2.82-7.46.55-1.73,1.05-3.73,1.52-5.99.47-2.26.81-4.4,1.04-6.44.22-2.03.34-4.11.34-6.25,0-4.34-.41-8.44-1.23-12.32-.82-3.87-2.33-8.57-4.54-14.09h4.61c2.43,3.92,4.32,8.07,5.66,12.47,1.34,4.39,2.02,8.85,2.02,13.37,0,3.81-.53,7.89-1.59,12.25-1.21,4.88-3.19,9.7-5.96,14.46h-4.68Z"/>
    </g>
  </g>
</svg>