<?xml version="1.0" encoding="UTF-8"?>
<svg id="Layer_2" data-name="Layer 2" xmlns="http://www.w3.org/2000/svg" viewBox="0 0 425.2 128.43">
  <defs>
    <style>
      .cls-1 {
        fill: #224f9c;
      }

      .cls-2 {
        fill: #7a1440;
      }

      .cls-3 {
        fill: #224c99;
      }
    </style>
  </defs>
  <g id="Layer_1-2" data-name="Layer 1">
    <g>
      <path class="cls-3" d="M343.42,35.33l1.43,5.05-5.59-1.32-17.22-16.68-.1-4.6,4.33.05,17.16,17.5ZM322.3,34.07l.77.44,7.57,2.09-8.18-8.5-.17,5.98ZM331.89,18l8.5,8.17-2.08-7.57-.45-.77-5.98.17ZM403.32,103.14l4.33.05-.11-4.61-17.22-16.68-5.59-1.32,1.42,5.05,17.17,17.5ZM407.1,92.88l-8.17-8.5,7.57,2.08.76.43-.16,5.98ZM391.69,103.14l-.44-.77-2.08-7.57,8.5,8.17-5.98.17ZM339.46,81.97l5.04-1.43-1.32,5.59-16.67,17.23-4.61.1.05-4.33,17.5-17.17ZM338.2,103.09l.44-.77,2.08-7.57-8.5,8.18,5.98.17ZM322.13,93.49l8.17-8.5-7.57,2.09-.77.43.17,5.98ZM407.37,21.96l.05-4.33-4.61.11-16.67,17.22-1.31,5.59,5.05-1.43,17.5-17.17ZM397.11,18.18l-8.5,8.17,2.08-7.57.44-.76,5.98.16ZM407.37,33.59l-.77.44-7.57,2.08,8.17-8.5.17,5.98Z"/>
      <path class="cls-2" d="M331.8,57.77l4.57,2.56-4.89,3.03-23.97.38-3.33-3.18,3.1-3.03,24.51.23ZM315.98,71.81l.85-.23,6.83-3.87-11.79-.24,4.11,4.34ZM311.4,53.66l11.79-.23-6.83-3.88-.85-.23-4.11,4.34ZM325.21,81.34l12.63-3.79,11.09-10.47-15.2-.08-14.5,7.83,5.97,6.51ZM319.08,46.06l14.5,7.83,15.2-.08-11.09-10.47-12.65-3.8-5.97,6.52ZM422.09,63.36l3.1-3.03-3.33-3.18-23.96.39-4.89,3.03,4.58,2.56,24.5.24ZM417.52,53.43l-11.79-.24,6.83-3.88.85-.23,4.11,4.34ZM413.87,71.58l-.85-.23-6.83-3.88,11.79-.24-4.11,4.35ZM410.15,46.06l-14.5,7.83-15.2-.08,11.09-10.47,12.64-3.8,5.97,6.52ZM404.34,81.34l-12.64-3.79-11.1-10.47,15.21-.08,14.5,7.83-5.97,6.51ZM361.98,93.55l2.56-4.58,3.02,4.88.4,23.97-3.18,3.33-3.02-3.1.24-24.51ZM376.02,109.37l-.24-.85-3.87-6.83-.24,11.79,4.35-4.12ZM357.87,113.94l-.24-11.79-3.87,6.82-.24.85,4.35,4.11ZM385.56,100.14l-3.8-12.64-10.47-11.09-.08,15.2,7.84,14.51,6.51-5.97ZM350.26,106.26l7.83-14.5-.07-15.21-10.47,11.09-3.8,12.64,6.51,5.97ZM367.56,3.1l-3.02-3.1-3.18,3.33.39,23.96,3.02,4.89,2.56-4.58.23-24.51ZM357.63,7.68l-.23,11.78-3.88-6.82-.24-.85,4.35-4.11ZM375.78,11.32l-.23.85-3.88,6.82-.23-11.78,4.34,4.11ZM350.26,15.04l7.83,14.5-.07,15.21-10.47-11.1-3.8-12.64,6.51-5.97ZM385.56,20.86l-3.8,12.64-10.47,11.09-.08-15.2,7.84-14.51,6.51,5.98Z"/>
      <path class="cls-1" d="M25.63,128.43c-3.47-.96-6.58-2-9.72-3.21-.55-.19-1.07-.33-1.62-.37-5.76-.29-10.91-4.55-10.91-12.64s4.77-13.08,11.9-13.08,11.49,5.54,11.49,12.56c0,6.02-2.77,10.05-6.43,11.49v.14c2.15.59,4.55,1.11,6.58,1.52l-1.29,3.59ZM15.1,121.23c4.36,0,6.87-4.1,6.87-9.31,0-4.77-2.32-9.17-6.84-9.17s-6.98,4.36-6.95,9.35c-.03,4.98,2.52,9.12,6.88,9.12h.03Z"/>
      <path class="cls-1" d="M43.33,120.12c0,1.63.07,3.21.26,4.32h-4.1l-.29-2h-.11c-1.1,1.41-2.99,2.4-5.32,2.4-3.62,0-5.65-2.62-5.65-5.36,0-4.55,4.03-6.84,10.68-6.8v-.29c0-1.19-.48-3.14-3.66-3.14-1.77,0-3.62.55-4.84,1.33l-.88-2.96c1.33-.81,3.66-1.59,6.5-1.59,5.76,0,7.43,3.66,7.43,7.57v6.5ZM38.89,115.65c-3.22-.08-6.28.62-6.28,3.36,0,1.77,1.14,2.58,2.58,2.58,1.8,0,3.14-1.18,3.55-2.47.11-.33.15-.71.15-1v-2.47Z"/>
      <path class="cls-1" d="M51.98,101.83v4.62h4.31v3.4h-4.31v7.94c0,2.18.59,3.33,2.32,3.33.85,0,1.25-.07,1.78-.22l.07,3.48c-.67.26-1.85.48-3.29.48-1.66,0-3.07-.59-3.92-1.52-.96-1.03-1.41-2.66-1.41-5.02v-8.46h-2.58v-3.4h2.58v-3.32l4.44-1.29Z"/>
      <path class="cls-1" d="M72.55,120.12c0,1.63.08,3.21.26,4.32h-4.1l-.3-2h-.11c-1.11,1.41-2.99,2.4-5.32,2.4-3.62,0-5.65-2.62-5.65-5.36,0-4.55,4.02-6.84,10.68-6.8v-.29c0-1.19-.49-3.14-3.66-3.14-1.78,0-3.62.55-4.84,1.33l-.88-2.96c1.33-.81,3.66-1.59,6.5-1.59,5.76,0,7.42,3.66,7.42,7.57v6.5ZM68.12,115.65c-3.22-.08-6.28.62-6.28,3.36,0,1.77,1.15,2.58,2.59,2.58,1.8,0,3.13-1.18,3.54-2.47.12-.33.15-.71.15-1v-2.47Z"/>
      <path class="cls-1" d="M76.2,112.24c0-2.44-.04-4.17-.15-5.8h3.95l.15,3.44h.15c.89-2.55,3-3.84,4.91-3.84.45,0,.71.04,1.08.11v4.28c-.37-.07-.78-.14-1.33-.14-2.18,0-3.65,1.4-4.06,3.44-.07.41-.16.88-.16,1.4v9.31h-4.54v-12.19Z"/>
      <path class="cls-1" d="M112.66,123.63c-1.18.59-3.54,1.22-6.57,1.22-7.02,0-12.31-4.47-12.31-12.64s5.29-13.08,13.01-13.08c3.1,0,5.07.66,5.92,1.11l-.77,2.62c-1.22-.6-2.96-1.04-5.03-1.04-5.84,0-9.72,3.73-9.72,10.27,0,6.09,3.51,10.01,9.57,10.01,1.96,0,3.95-.41,5.25-1.04l.66,2.55Z"/>
      <path class="cls-1" d="M115.32,112.13c0-2.11-.03-3.91-.14-5.58h2.84l.11,3.51h.15c.82-2.4,2.77-3.92,4.95-3.92.37,0,.63.04.92.11v3.07c-.32-.08-.66-.11-1.1-.11-2.3,0-3.92,1.74-4.36,4.18-.07.44-.15.96-.15,1.51v9.54h-3.22v-12.3Z"/>
      <path class="cls-1" d="M127.7,116.09c.07,4.4,2.88,6.21,6.13,6.21,2.33,0,3.73-.41,4.95-.92l.56,2.32c-1.15.52-3.1,1.15-5.95,1.15-5.5,0-8.79-3.66-8.79-9.05s3.18-9.64,8.39-9.64c5.84,0,7.39,5.14,7.39,8.42,0,.67-.08,1.19-.11,1.52h-12.56ZM137.23,113.76c.04-2.07-.85-5.29-4.5-5.29-3.3,0-4.73,3.03-4.99,5.29h9.49Z"/>
      <path class="cls-1" d="M158.7,98.2v21.62c0,1.59.04,3.4.15,4.62h-2.92l-.15-3.1h-.08c-.99,1.99-3.17,3.51-6.09,3.51-4.32,0-7.65-3.66-7.65-9.09-.04-5.95,3.66-9.6,8.02-9.6,2.73,0,4.58,1.29,5.39,2.74h.07v-10.68h3.25ZM155.44,113.84c0-.41-.04-.96-.15-1.37-.48-2.07-2.25-3.77-4.69-3.77-3.36,0-5.36,2.96-5.36,6.91,0,3.62,1.77,6.61,5.28,6.61,2.18,0,4.17-1.44,4.76-3.88.11-.45.15-.89.15-1.4v-3.1Z"/>
      <path class="cls-1" d="M166.56,101.53c.04,1.11-.77,2-2.07,2-1.15,0-1.97-.89-1.97-2s.85-2.03,2.04-2.03,1.99.89,1.99,2.03M162.94,106.55h3.25v17.88h-3.25v-17.88Z"/>
      <path class="cls-1" d="M174.36,102.27v4.29h4.66v2.48h-4.66v9.65c0,2.21.63,3.47,2.44,3.47.89,0,1.4-.07,1.89-.22l.14,2.44c-.63.26-1.62.48-2.88.48-1.51,0-2.73-.52-3.51-1.41-.92-.96-1.26-2.55-1.26-4.65v-9.76h-2.77v-2.48h2.77v-3.29l3.18-1Z"/>
      <path class="cls-1" d="M188.32,99.87c1.41-.29,3.62-.52,5.88-.52,3.21,0,5.28.55,6.83,1.81,1.29.96,2.07,2.44,2.07,4.4,0,2.4-1.59,4.5-4.22,5.47v.08c2.37.59,5.14,2.55,5.14,6.24,0,2.14-.85,3.77-2.1,4.99-1.74,1.59-4.55,2.33-8.61,2.33-2.22,0-3.92-.15-4.99-.29v-24.5ZM191.53,110.06h2.92c3.4,0,5.4-1.77,5.4-4.17,0-2.92-2.22-4.06-5.47-4.06-1.48,0-2.33.11-2.85.22v8.02ZM191.53,122c.63.11,1.55.14,2.7.14,3.33,0,6.39-1.22,6.39-4.84,0-3.4-2.92-4.8-6.43-4.8h-2.66v9.5Z"/>
      <path class="cls-1" d="M222.05,119.56c0,1.85.04,3.47.15,4.88h-2.88l-.18-2.92h-.07c-.85,1.44-2.74,3.33-5.91,3.33-2.81,0-6.17-1.55-6.17-7.84v-10.46h3.25v9.9c0,3.4,1.04,5.69,3.99,5.69,2.18,0,3.7-1.51,4.29-2.95.18-.48.29-1.07.29-1.66v-10.98h3.25v13.01Z"/>
      <path class="cls-1" d="M226.3,112.13c0-2.11-.04-3.91-.15-5.58h2.85l.11,3.51h.15c.81-2.4,2.77-3.92,4.95-3.92.37,0,.63.04.93.11v3.07c-.33-.08-.67-.11-1.11-.11-2.29,0-3.91,1.74-4.36,4.18-.07.44-.15.96-.15,1.51v9.54h-3.22v-12.3Z"/>
      <path class="cls-1" d="M238.68,116.09c.07,4.4,2.88,6.21,6.13,6.21,2.33,0,3.73-.41,4.95-.92l.55,2.32c-1.15.52-3.11,1.15-5.95,1.15-5.5,0-8.79-3.66-8.79-9.05s3.17-9.64,8.39-9.64c5.84,0,7.39,5.14,7.39,8.42,0,.67-.07,1.19-.11,1.52h-12.56ZM248.2,113.76c.04-2.07-.85-5.29-4.5-5.29-3.29,0-4.73,3.03-4.99,5.29h9.49Z"/>
      <path class="cls-1" d="M266.79,120.15c0,1.55.07,3.07.3,4.29h-2.96l-.26-2.25h-.11c-1,1.4-2.92,2.66-5.46,2.66-3.62,0-5.47-2.55-5.47-5.14,0-4.32,3.85-6.68,10.75-6.65v-.37c0-1.48-.4-4.13-4.06-4.13-1.66,0-3.41.52-4.66,1.33l-.73-2.15c1.48-.96,3.61-1.59,5.87-1.59,5.47,0,6.8,3.73,6.8,7.31v6.69ZM263.65,115.31c-3.55-.07-7.58.55-7.58,4.03,0,2.11,1.41,3.11,3.07,3.11,2.33,0,3.8-1.48,4.32-2.99.11-.33.19-.7.19-1.04v-3.1Z"/>
      <path class="cls-1" d="M285.85,119.56c0,1.85.04,3.47.15,4.88h-2.89l-.18-2.92h-.07c-.85,1.44-2.73,3.33-5.92,3.33-2.81,0-6.17-1.55-6.17-7.84v-10.46h3.25v9.9c0,3.4,1.04,5.69,3.99,5.69,2.18,0,3.69-1.51,4.29-2.95.18-.48.29-1.07.29-1.66v-10.98h3.26v13.01Z"/>
      <rect class="cls-1" y="90.73" width="282.35" height=".97"/>
      <path class="cls-2" d="M15.98,29.02h5.84v6.34h-5.97l-.03.13c-.92,2.58-2.13,4.8-3.62,6.68-1.6,2.01-3.08,3.01-4.43,3.01-1.79,0-4.08-2.07-6.86-6.22,1.41.44,2.6.66,3.57.66,1.67,0,3.34-.57,5.01-1.72,1.22-.83,2.34-2.22,3.36-4.16l.21-.37c-.44-.95-1.05-2.01-1.83-3.18-.7-1.06-1.32-1.88-1.87-2.43l3.7-4.09.33.49c1.26,1.91,2.1,3.48,2.53,4.72l.05.12Z"/>
      <rect class="cls-2" x="21.05" y="29.02" width="15.12" height="6.34"/>
      <rect class="cls-2" x="34.87" y="29.02" width="15.12" height="6.34"/>
      <rect class="cls-2" x="48.69" y="29.02" width="15.12" height="6.34"/>
      <rect class="cls-2" x="62.5" y="29.02" width="15.12" height="6.34"/>
      <rect class="cls-2" x="76.32" y="29.02" width="15.12" height="6.34"/>
      <rect class="cls-2" x="90.14" y="29.02" width="15.12" height="6.34"/>
      <rect class="cls-2" x="103.96" y="29.02" width="15.12" height="6.34"/>
      <rect class="cls-2" x="117.77" y="29.02" width="15.13" height="6.34"/>
      <path class="cls-2" d="M163.32,29.02h6.37v6.34h-37.99v-6.34h6.39l2.54-1.59-1.31-12.63c-.85-.26-1.27-.72-1.27-1.37,0-.37.23-.89.7-1.54l2.51-3.48c.02.83.15,1.4.4,1.69.26.3.86.64,1.84,1l1.39.57,2.37.9-2.03,4.41-.91-.34.31,4.18v1.23c0,1.24-.25,2.34-.76,3.28l-.03.08,2.24-1.42c1.28-.8,3.38-1.96,6.28-3.48,1.56-.82,2.72-1.23,3.47-1.23,1.1,0,2.34.46,3.7,1.35,2.92,1.9,4.38,3.88,4.38,5.97,0,.52-.18,1.29-.55,2.3l-.03.12ZM159.36,29.02c-.61-1.32-1.53-2.46-2.75-3.4-1.22-.95-2.4-1.42-3.5-1.42-.75,0-1.87.41-3.36,1.22l-2.71,1.47c-.75.38-1.89,1.08-3.41,2.13h15.75Z"/>
      <path class="cls-2" d="M186.4,35.36h-17.42v-6.34h16.69v-1.32c0-.21-.06-.6-.16-1.17,0-.1-.03-.29-.07-.56l-1.33,1.64h-3.08l-1.32-.02c-1.01-.03-1.64-.08-1.91-.15-.26-.06-.59-.24-.99-.54-.8-.67-1.2-1.68-1.2-3.06,0-1.72.54-3.38,1.64-5,1.68-2.55,3.39-3.82,5.11-3.82,1.2,0,2.3.61,3.32,1.81,2.15,2.61,3.23,5.73,3.23,9.35,0,1.14-.17,2.42-.51,3.84-.34,1.42-1,3.2-1.99,5.34M188.02,10.25l-3.42,2.79-2.4-1.88-2.22,1.88-4.25-3.67,3.18-2.77,2.4,1.94,2.32-1.94,4.38,3.65ZM184.74,21.88c-.37-1.65-1.2-2.47-2.51-2.47-.54,0-1.03.18-1.46.54-.43.36-.65.76-.65,1.2,0,.37.23.6.71.68h.97l1.01.05h1.93Z"/>
      <path class="cls-2" d="M211.9,29.02h5.85v6.34h-5.97l-.03.13c-.92,2.58-2.13,4.8-3.62,6.68-1.6,2.01-3.08,3.01-4.43,3.01-1.8,0-4.09-2.07-6.86-6.22,1.41.44,2.6.66,3.57.66,1.67,0,3.33-.58,5-1.72,1.21-.83,2.34-2.22,3.36-4.16l.21-.37c-.44-.95-1.04-2.01-1.83-3.18-.69-1.07-1.31-1.88-1.87-2.43l3.7-4.09.34.49c1.25,1.9,2.1,3.48,2.53,4.72l.05.12ZM210.02,17.3l-3.19,2.82-4.43-3.55,3.23-2.87,4.38,3.6Z"/>
      <path class="cls-2" d="M245.63,8.54l-2.91,5.63-11.84,2.91,10.22,10.63c.42.51.63.9.63,1.18,0,.18-.01.31-.02.39l-.4.66-.58,1.06-2.37,4.38h-21.3v-6.34h17.6l-6.36-6.64-.76.81-2.58-2.3c-.4-.34-.6-.73-.6-1.17,0-.13.04-.28.13-.47l.39-.95,2.66-5.51,18.09-4.26Z"/>
      <path class="cls-2" d="M256.17,29.02h5.85v6.34h-5.97l-.03.13c-.93,2.58-2.13,4.8-3.62,6.68-1.6,2.01-3.08,3.01-4.44,3.01-1.79,0-4.07-2.07-6.86-6.22,1.41.44,2.6.66,3.57.66,1.67,0,3.34-.57,5-1.72,1.22-.83,2.35-2.22,3.36-4.16l.21-.37c-.43-.95-1.05-2.01-1.83-3.18-.7-1.06-1.32-1.88-1.88-2.43l3.71-4.09.34.49c1.25,1.91,2.1,3.48,2.53,4.72l.05.12Z"/>
      <path class="cls-2" d="M261.34,29.02h6.13l.39-.54,2.19-2.74c1.53-1.9,2.52-3.1,2.97-3.6.56-.62,1.21-1.26,1.96-1.93.97-.82,1.84-1.22,2.61-1.22,1.62,0,3.08,1.07,4.4,3.21.68,1.06,1.26,2.27,1.76,3.65.5,1.37.75,2.43.75,3.18,0,.67-.35,1.72-1.07,3.14-.87,1.7-1.9,3.48-3.1,5.33l-11.6-4.75-1.75,2.62h-5.63v-6.34ZM280.05,30.44c-.07-1.65-.45-3.07-1.14-4.26-.7-1.19-1.49-1.79-2.38-1.79-.42,0-.93.29-1.54.86-.41.3-.81.66-1.15,1.08l-1.05,1.17,7.25,2.94Z"/>
      <path class="cls-2" d="M11.02,56.71l-4.15-2.11-2.2,2.03c-1.53-.49-2.94-1.28-4.19-2.23.95-1.13,1.97-2.18,3.08-3.2.84.53,2.7,2.03,3.69,2.11.83-.71,1.71-1.43,2.55-2.19l4.29,2.37c-1.03,1.06-1.83,2.37-3.08,3.2M22.76,75.59h-4.79c-2.74,0-2.93-3.17-3.61-5.05-1.26.79-1.36,3.92-3.23,3.92-2.81,0-5.89-1.32-8.82-1.43,1.64-7.99,3.49-8.03,9.96-11.76-.08-.49-.24-.98-.38-1.47l3.08-5.05c1.37,4.78,1.75,9.76,3.12,14.54.84.64,1.64.9,2.47,1.01h2.21v5.28ZM12.84,63.9c-.61.79-1.19,1.74-2.06,2.3-.68.45-1.64.6-2.01,1.35l5.02.6-.94-4.26Z"/>
      <path class="cls-2" d="M33.49,75.59c-1.64,0-2.63-1.66-2.97-3.02l-1.82,3.02h-7.57v-5.28h8.75c.23-.63.19-1.39.19-2.15,0-3.02,1.79-3.96,3.69-5.92v2.3c0,1.17-.31,2.6-.46,3.8-.14,1.28.92,1.73,2.06,1.96h2.05v5.28h-3.91ZM32.38,83.31l-3.68-2.15c-.73.64-1.33,1.36-1.98,2.07-1.33-.56-2.66-1.32-3.77-2.22.68-1.21,1.75-2.26,2.7-3.24.61.49,2.7,1.96,3.39,2.04.8-.37,1.56-1.51,2.32-2.11l3.83,2.3c-.45.75-2.04,2.94-2.81,3.32"/>
      <path class="cls-2" d="M47.37,75.59h-11.56v-5.28h9.28c-.88-1.92-1.83-3.69-3.04-5.42l2.7-4.64c1.79,2.26,3.69,5.05,3.69,7.99,0,2.49-.65,4.9-1.06,7.35M42.54,59.2c-1.6-.6-3.09-1.73-4.75-2.15.38-.6,2.97-3.73,3.57-3.73.19,0,3.46,1.96,4.34,2.19-.68,1.35-2.2,2.49-3.15,3.69"/>
      <path class="cls-2" d="M53.18,75.59l-1.63-18.54.03-.42c.96-1.36,1.98-2.93,3.16-4.11.84,5.76.99,11.68,1.75,17.49.15.19.91.26,1.71.3h2.17v5.28h-7.19Z"/>
      <path class="cls-2" d="M74.25,75.59c-.65.6-.73,2.03-1.56,2.26l-9.16-5.12c-1.11.49-.19,2.86-2.66,2.86h-2.44v-5.28h4.49l.56-.41c1.3-3.2,4.57-6.37,8.29-6.37.46,0,1.18.07,1.37.53.19.38.08,1.09.15,1.55.12,1.02,2.4,4.71,3.31,4.71h2.13v5.28h-4.49ZM69.39,68.05c-.65,0-1.45.22-2.06.48.99.72,2.06,1.32,3.19,1.77,0-.15.07-.18.07-.34,0-.75-.22-1.91-1.21-1.91"/>
      <path class="cls-2" d="M93.68,75.59h-3.43c-1.86,0-2.96-1.55-3.46-3.17l-1.83,3.17h-7.48v-5.28h8.67c.49-1.24.11-3.43.49-4.18.68-1.47,2.32-2.75,3.38-3.96v2.52c0,1.17-.46,2.41-.46,3.58,0,1.35,1.41,1.96,2.7,2.03.49.04,1.03,0,1.41,0v5.28ZM88.97,58.1c-.08,0-3.77-1.92-4.15-2.11-.68.68-1.44,1.35-2.21,2.04-.83-.04-3.42-1.66-4.15-2.23.88-1.09,1.91-2.33,3.09-3.16.61.45,3.04,2.07,3.65,2.07.35,0,2.18-1.81,2.59-2.15l4.22,2.3c-.39.56-2.47,3.24-3.04,3.24"/>
      <path class="cls-2" d="M105.51,75.59h-13v-5.28h10.65c-.72-1.92-1.68-3.81-3.04-5.38l2.78-4.75c1.94,2.68,3.61,4.82,3.61,8.25,0,2.41-.49,4.82-.99,7.16M100.68,58.82h-.18c-2.17-.07-4.52,1.28-6.31,2.41.38-1.13,1.52-1.73,2.51-2.37-.76-.49-2.74-.34-2.74-1.46,0-2.19,2.32-4.45,4.52-4.45.58,0,1.48.67,1.56,1.24l-1.1,1.7c-.56-.38-1.02-1.05-1.75-1.05-.61,0-1.33.57-1.79.87,1.15,1.55,4.91,1.02,6.62,1.28-.38.64-.84,1.24-1.34,1.84"/>
      <path class="cls-2" d="M115.44,82.74h-.16c-1.6-.03-3.53,1.05-4.83,1.92.38-1.02,1.15-1.32,1.94-1.85-.61-.3-1.48-.26-2.05-.76v-.19c0-1.69,1.48-3.5,3.26-3.5.46,0,1.3.45,1.3.91,0,.26-.69,1.09-.84,1.32-.23-.19-1.1-.87-1.33-.87-.27,0-1.03.53-1.25.67.61,1.13,3.72.94,4.86.94-.22.49-.53.98-.91,1.39"/>
      <path class="cls-2" d="M130.3,60.55c-.45.23-1.03-.04-1.44-.19l-.12.11c-.15,2.23-1.52,4.22-2.89,5.88.95,2.03,1.67,3.32,1.67,5.61,0,1.17-.19,2.45-.31,3.62h-12.66l1.93-5.28c1.9-.03,4.18-1.73,5.48-3.05-.72-.9-2.81-3.43-3.91-3.58l-1.15,1.36c-2.05-1.36-7.75-3.51-7.75-6.18,0-1.35,1.37-4.1,1.9-5.46h.64c5.09,2.41,9.74,6.29,12.89,10.97.95-.91,1.26-2.91,1.26-4.15,0-1.09-.3-1.96-1.15-2.67l-.07-.34,3.46-5.01c.31,3.46,3.08,2.52,4.75,4.63-.91,1.2-1.67,2.52-2.54,3.73M123.38,68.88c-.67.75-1.44,1.47-2.24,2.08.61.04,1.22.08,1.83.08.53,0,1.06,0,1.6-.04-.26-.57-.69-1.77-1.18-2.11"/>
      <path class="cls-2" d="M137.72,76.04l-2.09-15.37c-.15-.98,2.7-5.39,3.38-6.37.76,4.37,1.41,8.78,1.41,13.19,0,3.35-.58,5.88-2.69,8.55"/>
      <path class="cls-2" d="M171.57,75.59h-17.53c-2.82,0-4.41-2.53-4.41-5.09,0-1.43,1.79-9.04,3.38-9.12-.26,1.28-.53,2.6-.53,3.92,0,2.26,1.63,4.98,4.22,4.98h14.45l.03-.19c0-1.17-1.29-3.09-1.97-4.03l2.7-4.97c1.44,1.66,2.74,3.73,2.74,5.95,0,3.36-1.33,5.77-3.08,8.56M166.08,57.68l-4.06-2.03c-.8.6-1.52,1.32-2.21,2.03-1.52-.56-2.97-1.32-4.22-2.29l3-3.17c1.15.79,2.36,1.43,3.58,2.08l3.15-2.68c1.22.98,2.51,2.07,3.88,2.82-.68.79-2.17,2.94-3.12,3.24"/>
      <path class="cls-2" d="M179.44,75.59l-1.63-18.54.03-.42c.95-1.36,1.98-2.93,3.16-4.11.84,5.76.99,11.68,1.75,17.49.15.19.9.26,1.71.3h2.17v5.28h-7.19Z"/>
      <path class="cls-2" d="M197.31,75.06l-7.61-2.79c-.15-.08-.41.3-.49.38-.42.64-1.15,2.94-1.98,2.94h-2.36v-5.28h2.89c.23-.26.39-.6.5-.98,1.14-3.28,5.17-7.42,8.89-7.42.99,0,1.07.45,1.3,1.32.46,1.81,1.79,5.08,1.79,6.74,0,1.28-1.84,4.34-2.93,5.09M194.23,66.5c-.76,0-1.44.49-2.06.87l3.43,1.47c-.2-.64-.5-2.34-1.38-2.34"/>
      <path class="cls-2" d="M215.72,75.59c-1.1,2.68-3.31,7.35-6.77,7.35-2.93,0-8.44-.68-10.15-2.11,5.25-.04,9.77-1.62,13.58-5.24-2.29-.34-6.54-.15-6.54-3.47,0-2.56,3.04-9.88,6.08-9.88,3.8,0,3.42,6.29,4.71,8.06h1.98v5.28h-2.89ZM210.32,66.85c-.5,0-1.83,1.21-1.83,1.73,0,1.2,2.32,1.88,3.31,1.88.19,0,1.03-.08,1.03-.34,0-.83-1.56-3.28-2.51-3.28"/>
      <path class="cls-2" d="M222.52,75.59c-1.25-.61-.91-1.92-.91-3.17-.64,1.02-1.22,2.11-1.82,3.17h-2.78v-5.28h4.49l-1.6-12.88,3.3-5.16.15.11c.61,2.45,1.56,17.3,2.4,17.93h2.58v5.28h-5.82Z"/>
      <path class="cls-2" d="M238.34,75.59l-1.44-2.49c-.46.87-.99,1.7-1.56,2.49h-8.52v-5.28h8.07c-1.52-2.15-3.12-2.25-5.55-1.92,1.67-3.81,2.7-6.26,7.45-6.26,2.51,0,6.21,1.92,6.21,4.79,0,1.05-1.18,2.45-1.68,3.39h3.65v5.28h-6.61Z"/>
      <path class="cls-2" d="M259.29,75.59c-.64.6-.72,2.03-1.56,2.26l-9.16-5.12c-1.1.49-.18,2.86-2.66,2.86h-2.43v-5.28h4.48l.57-.41c1.29-3.2,4.57-6.37,8.29-6.37.45,0,1.18.07,1.37.53.19.38.07,1.09.15,1.55.11,1.02,2.39,4.71,3.3,4.71h2.13v5.28h-4.49ZM254.43,68.05c-.64,0-1.44.22-2.05.48.99.72,2.05,1.32,3.2,1.77,0-.15.07-.18.07-.34,0-.75-.23-1.91-1.21-1.91"/>
      <path class="cls-2" d="M267.81,75.59c-1.25-.61-.91-1.92-.91-3.17-.65,1.02-1.22,2.11-1.82,3.17h-2.78v-5.28h4.48l-1.59-12.88,3.3-5.16.15.11c.61,2.45,1.57,17.3,2.41,17.93h2.58v5.28h-5.82Z"/>
      <path class="cls-2" d="M280.32,62.36l-.04.53.54,6.18c.11,1.01-.83,6.52-2.17,6.52h-6.46v-5.28h5.21c.04-.26.15-.53.15-.75,0-3.28-1.07-7.09-1.64-10.33-.53-.42-1.02-.91-1.52-1.39.5-1.21,2.63-5.16,3.73-5.61v.38c-.15,2.48,3.96,4.11,5.93,5.16-.99,1.66-2.62,3.01-3.73,4.6"/>
    </g>
  </g>
</svg>