<?xml version="1.0" encoding="UTF-8"?>
<svg id="Layer_2" data-name="Layer 2" xmlns="http://www.w3.org/2000/svg" viewBox="0 0 238.19 71.75">
  <defs>
    <style>
      .cls-1 {
        fill: #b9bec0;
      }

      .cls-2 {
        fill: #206ab3;
      }

      .cls-3 {
        fill: #0a9f56;
      }
    </style>
  </defs>
  <g id="Layer_1-2" data-name="Layer 1">
    <g>
      <path class="cls-3" d="M181.03,8.57c0-.89.87-1.77,2.04-1.77s2.05.88,2.05,1.77-.87,1.77-2.05,1.77-2.04-.88-2.04-1.77"/>
      <path class="cls-3" d="M122.73,8.57c0-.89.9-1.77,2.07-1.77s2.04.88,2.04,1.77-.88,1.77-2.04,1.77-2.07-.88-2.07-1.77"/>
      <path class="cls-3" d="M127.72,8.57c0-.89.89-1.77,2.05-1.77s2.03.88,2.03,1.77-.87,1.77-2.03,1.77-2.05-.88-2.05-1.77"/>
      <g>
        <path class="cls-2" d="M53.16,6.39c-15.3-5.65-24.74-2.32-24.74-2.32,17.14,3.36,21.77,10.27,21.77,10.27-10.72-5.72-22.74-3.48-22.74-3.48,12.48,2.85,18.43,11.55,18.43,11.55C30.54,12.68,9.78,17.28,0,32.59c.7-7.15,3.01-12.85,6.75-18.2C16.51.46,38.84-5.55,53.16,6.39"/>
        <path class="cls-1" d="M2.17,35.38c2.79,16.08,10.38,22.59,10.38,22.59-5.65-16.51-2-23.98-2-23.98.44,12.15,8.36,21.43,8.36,21.43-3.79-12.23.78-21.75.78-21.75-.72,18.17,13.61,33.87,31.74,34.65-6.49,2.96-12.61,3.84-19.08,3.28C15.38,70.11-1,53.76,2.17,35.38"/>
        <path class="cls-3" d="M52.8,65.03c12.54-10.44,14.37-20.28,14.37-20.28-11.47,13.17-19.79,13.72-19.79,13.72,10.33-6.45,14.39-17.96,14.39-17.96-8.72,9.38-19.22,10.19-19.22,10.19,16.09-8.44,22.49-28.72,14.14-44.81,5.82,4.16,9.62,9.01,12.37,14.92,7.19,15.43,1.23,37.79-16.27,44.22"/>
        <path class="cls-2" d="M194.71,59.09c.12.98.54,1.75,1.8,2.47,1.82.99,6.34.45,6.49.45,0,0-2.17-.88-2.17-3.52v-14.96h-6.47v11.04c0,2.98-1.07,4.45-3.17,4.45-1.81,0-2.71-1.05-2.71-3.28v-7.95c0-1.72-.05-2.84-1.95-3.88-1.9-1.01-6.62-.45-6.81-.41v1.87c1.52,0,2.22.57,2.22,1.66v8.72c0,4.77,1.44,6.84,6.2,6.84,2.64,0,4.96-1.23,6.58-3.48"/>
        <path class="cls-2" d="M235.94,49.9c0-4.67-1.69-6.89-5.74-6.89-2.64,0-4.58.93-6.31,3.02-.86-2.06-2.66-3.01-5.39-3.01s-4.56.89-6.25,3.11v.03c-.16-.89-.61-1.59-1.87-2.25-1.88-1.03-6.38-.46-6.55-.43v1.85c1.49,0,2.2.55,2.2,1.64v10.68c0,1.74.08,2.87,1.99,3.87,1.91,1.02,6.71.46,6.86.46,0,0-2.27-1.12-2.27-3.55v-7.56c0-2.84,1-4.31,2.8-4.31,1.69,0,2.33,1.09,2.33,3.33v7.77c0,1.74.07,2.87,1.98,3.87,1.88,1.02,6.61.46,6.78.46,0,0-2.25-1.12-2.25-3.55v-7.74c0-2.73,1.06-4.14,2.81-4.14s2.35,1.09,2.35,3.33v7.77c0,1.74.06,2.87,1.95,3.87,1.91,1.02,6.65.46,6.82.46,0,0-2.24-1.12-2.24-3.55v-8.55Z"/>
        <path class="cls-2" d="M176.75,57.09v-16.76c0-1.26.07-2-1.06-2.69-2.61-1.61-7.4-.61-7.8-.57v1.35h.18c1.42,0,2.03.69,2.03,1.68v16.19c0,2.18.08,3.55,2.01,4.88,1.14.77,3.36,1.39,6.38,1.39h.46s-2.21-1.32-2.21-5.48"/>
        <path class="cls-2" d="M125.4,59.91c.05.18.29,1.15,1.39,1.95,2.24,1.58,5.93.64,6.31.34,0,0-1.9-.43-1.9-2.83v-10.17c0-2.19-.07-3.56-2-4.88-1.12-.78-3.36-1.43-6.35-1.43-5.78,0-8.58,1.67-8.61,4.74-.02,1.37.82,2.64,2.79,2.75,1.56.07,2.78-.57,2.91-2.01.11-.83-.44-2.12-1.85-2.18.83-.6,1.69-.86,2.91-.91,4.01-.18,3.91,4.01,3.91,4.01v6.37c0,2.03-1.08,3.07-2.75,3.12-1.72.08-2.73-1.32-2.73-2.53,0-1.12.54-2.98,3.32-3.73-.21-.08-1.39-.4-2.91-.35-4.3.21-6.76,1.63-6.76,5.29,0,3.18,2.26,5.3,5.92,5.3,2.64,0,4.77-.95,6.4-2.84"/>
        <path class="cls-2" d="M160.27,59.91c.04.18.28,1.15,1.37,1.95,2.27,1.58,5.92.64,6.32.34,0,0-1.89-.43-1.89-2.83v-10.17c0-2.19-.09-3.56-1.99-4.88-1.14-.78-3.36-1.43-6.38-1.43-5.76,0-8.58,1.67-8.6,4.74,0,1.37.79,2.64,2.78,2.75,1.55.07,2.77-.57,2.95-2.01.06-.83-.48-2.12-1.87-2.18.82-.6,1.7-.86,2.92-.91,4.02-.18,3.9,4.01,3.9,4.01v6.37c0,2.03-1.06,3.07-2.73,3.12-1.75.08-2.75-1.32-2.75-2.53,0-1.12.54-2.98,3.31-3.73-.18-.08-1.38-.4-2.92-.35-4.27.21-6.74,1.63-6.74,5.29,0,3.18,2.26,5.3,5.91,5.3,2.67,0,4.76-.95,6.42-2.84"/>
        <path class="cls-2" d="M142.01,57.19v-10.86h3.84l1.04-2.78h-4.88v-3.21c0-1.26.05-2-1.06-2.69-2.61-1.61-7.44-.61-7.82-.57v1.35h.2c1.43,0,2.02.69,2.02,1.68l.02,15.25c0,2.19.08,4.57,1.99,5.91,1.14.8,3.39,1.8,6.4,1.4,2.48-.31,3.48-1.32,3.48-1.32,0,0-5.23.48-5.23-4.16"/>
        <path class="cls-2" d="M95.97,59.86c-4.19,0-5.88-3.16-5.88-9.71s1.69-9.7,5.88-9.7,5.84,3.13,5.84,9.7-1.69,9.71-5.84,9.71M109.83,63.69v-26.3s-2.6,1.46-4.46,2.47c-2.33-1.85-5.51-2.85-9.4-2.85-8.73,0-13.91,5.02-13.91,13.14s5.18,13.11,13.91,13.11c2.53,0,5.26-.8,7.62-2.29v1.95c0,2.07.08,3.36,1.88,4.62,1.08.72,3.19,1.34,6.02,1.34.72,0,1.43-.06,2.06-.11-3.03-.78-3.72-3.34-3.72-5.07"/>
        <path class="cls-3" d="M169.32,30.24c0-.88.87-1.77,2.04-1.77s2.04.89,2.04,1.77-.84,1.75-2.04,1.75-2.04-.88-2.04-1.75"/>
        <path class="cls-3" d="M174.28,30.24c0-.88.91-1.77,2.08-1.77s2.04.89,2.04,1.77-.88,1.75-2.04,1.75-2.08-.88-2.08-1.75"/>
        <path class="cls-3" d="M229.97,31.41c0,2.06-1.46,2.62-2.64,2.62,3.51.89,6.73.6,6.73-3.5V7.37c0-1.46.58-2.33,1.76-2.62v-.58c-1.76,0-5.85.58-5.85,3.81v23.44Z"/>
        <path class="cls-3" d="M130.07,14.43c-1.77-2.64-9.09-2.06-9.09,2.63v3.79c0,.61,0,1.49.57,1.49h-4.38c-1.17,0-1.17-.88-1.17-1.18v-2.36c0-2.9-1.45-5.84-6.74-5.84h-9.94v-5.59c0-1.44.58-2.33,1.76-2.62v-.58c-1.76,0-5.88.58-5.88,3.81v12.88c0,.31,0,1.49-1.16,1.49h-3.81v-6.15c0-1.46.58-2.34,1.76-2.64v-.58c-1.76,0-5.85.58-5.85,3.81v14.65c0,2.06-1.46,2.62-2.65,2.62,3.52.88,6.74.6,6.74-3.5v-4.68h7.33c1.17,0,1.77-1.18,1.77-2.07,0,.89.58,2.07,2.04,2.07h12.88c1.17,0,1.76-1.18,1.76-2.07,0,.89.6,2.07,2.05,2.07h11.14c2.34,0,3.81-2.07,3.81-3.81v-5.86c0-1.46.59-2.34,1.76-2.64v-.58c-1.16,0-3.51,0-4.67,1.47M111.89,22.33h-12.58v-5.86h10.8c1.78,0,1.78,1.46,1.78,2.32v3.54ZM128.88,20.85c0,.31,0,1.49-1.17,1.49h-1.46c-1.17,0-1.17-.88-1.17-1.49v-4.09c0-.87.28-2.04,1.75-2.04,1.76,0,2.04,1.17,2.04,2.04v4.09Z"/>
        <path class="cls-3" d="M148.82,14.43c-1.79-2.64-9.08-2.06-9.08,2.63v14.35c0,2.06-1.49,2.62-2.64,2.62,3.52.88,6.74.6,6.74-3.5v-4.68h4.11c2.33,0,3.81-2.07,3.81-3.81v-5.86c0-1.46.58-2.34,1.75-2.64v-.58c-1.17,0-3.5,0-4.68,1.47M147.63,20.85c0,.31,0,1.49-1.17,1.49h-1.47c-1.15,0-1.15-.88-1.15-1.49v-4.09c0-.87.29-2.04,1.75-2.04,1.76,0,2.05,1.17,2.05,2.04v4.09Z"/>
        <path class="cls-3" d="M199.49,14.43c-1.76-2.64-9.07-2.06-9.07,2.63v3.79c0,.61,0,1.49-1.18,1.49h-2.65c-.87,0-1.18-.88-1.18-1.49v-7.89h-4.09v7.89c0,.61,0,1.49-1.16,1.49h-2.64c-.88,0-1.17-.88-1.17-1.49v-7.89h-4.09v7.89c0,.61,0,1.49-1.2,1.49h-3.81v-6.15c0-1.46.58-2.34,1.76-2.64v-.58c-1.18,0-3.52,0-4.69,1.47-1.75-2.64-9.07-2.06-9.07,2.63v4.99c0,1.73.86,3.81,4.38,3.81h3.53v5.56c0,2.06-1.46,2.62-2.64,2.62,3.52.88,6.73.6,6.73-3.5v-4.68h5.01c1.45,0,2.01-1.18,2.01-2.07,0,.89.62,2.07,1.79,2.07h5.25c1.47,0,2.06-1.18,2.06-2.07,0,.89.59,2.07,1.75,2.07h3.53c1.47,0,2.05-1.18,2.05-2.07,0,.89.58,2.07,1.75,2.07h6.13c2.34,0,3.83-2.07,3.83-3.81v-5.86c0-1.46.6-2.34,1.76-2.64v-.58c-1.16,0-3.51,0-4.7,1.47M163.17,22.33h-2.64c-1.18,0-1.18-.88-1.18-1.49v-4.09c0-.87.29-2.04,1.75-2.04,1.79,0,2.08,1.17,2.08,2.04v5.57ZM198.32,20.85c0,.31,0,1.49-1.18,1.49h-1.45c-1.17,0-1.17-.88-1.17-1.49v-4.09c0-.87.29-2.04,1.76-2.04,1.75,0,2.05,1.17,2.05,2.04v4.09Z"/>
        <path class="cls-3" d="M222.64,7.97v12.89c0,.29,0,1.49-1.18,1.49h-3.5v-6.17c0-1.46.58-2.34,1.75-2.64v-.58c-1.17,0-3.52,0-4.66,1.47-1.77-2.64-9.09-2.06-9.09,2.61v5.01c0,1.73.86,3.81,4.37,3.81h3.54v5.56c0,2.04-1.46,2.62-2.65,2.62,3.54.89,6.75.6,6.75-3.5v-4.68h4.95c2.37,0,3.84-2.07,3.84-3.81V7.39c0-1.47.58-2.35,1.75-2.63v-.6c-1.75,0-5.86.6-5.86,3.81M213.86,22.35h-2.65c-1.18,0-1.18-.88-1.18-1.49v-4.11c0-.86.29-2.03,1.75-2.03,1.78,0,2.07,1.17,2.07,2.03v5.6Z"/>
      </g>
    </g>
  </g>
</svg>