<?xml version="1.0" encoding="UTF-8"?>
<svg id="Layer_2" data-name="Layer 2" xmlns="http://www.w3.org/2000/svg" viewBox="0 0 170.14 25.83">
  <defs>
    <style>
      .cls-1 {
        fill: #53626f;
      }

      .cls-1, .cls-2 {
        fill-rule: evenodd;
      }

      .cls-2, .cls-3 {
        fill: #682145;
      }

      .cls-4 {
        fill: #7a868e;
      }
    </style>
  </defs>
  <g id="Dimensions">
    <g>
      <g id="Original">
        <g>
          <path class="cls-4" d="M85.11,12.11c0,.12-1.76.24-4.28.34-.44-.25-.78-.51-1.03-.73,3.05.11,5.31.24,5.31.38Z"/>
          <path class="cls-4" d="M83.3,7.86c0,.1-1.48.2-3.59.29.3-.18.62-.35.94-.53,1.6.07,2.65.16,2.65.25Z"/>
          <path class="cls-4" d="M67.55,17c-.98.01-1.84.02-2.51.02-.97,0-1.75-.3-1.75-.67s.78-.67,1.75-.67c.85,0,2.01.01,3.34.03-.52.74-.76,1.19-.78,1.21-.02.02-.04.05-.05.07Z"/>
          <path class="cls-4" d="M68.07,17.89c.32.39.63.72,1.05,1.08,0,0,.16.22.63.03.48-.2.89-.46,1.35-1.08,1.34.02,2.77.05,4.18.09.11.17.35.52.64.95-3.92.1-8.17.16-10.34.16-.91,0-1.64-.28-1.64-.63s.74-.63,1.64-.63c.66,0,1.52,0,2.49.02,0,.01,0,.02,0,.02Z"/>
          <path class="cls-4" d="M66.56,21.16c-.8,0-1.46-.25-1.46-.55s.65-.55,1.46-.55c2.13,0,6.5.06,10.23.17.18.26.36.51.53.75-3.85.11-8.53.19-10.76.19Z"/>
          <path class="cls-4" d="M78.98,22.93c-3.14.14-8.54.23-10.78.23-.63,0-1.15-.2-1.15-.44s.51-.44,1.15-.44c2.15,0,7.18.09,10.36.21.14.15.28.3.42.43Z"/>
          <path class="cls-4" d="M70.79,24.11c1.85,0,7.49.14,7.49.31s-5.64.31-7.49.31c-.36,0-.65-.14-.65-.31s.29-.31.65-.31Z"/>
          <path class="cls-4" d="M70.81,12.71c-2.33.04-4.42.06-5.77.06-.97,0-1.75-.3-1.75-.66s.78-.67,1.75-.67c1.56,0,4.13.03,6.91.08-.41.41-.8.81-1.14,1.19Z"/>
          <path class="cls-4" d="M82.24,9.74c1.37.07,2.23.15,2.23.24,0,.09-1.04.18-2.65.26.34-.26.42-.48.42-.5Z"/>
          <path class="cls-4" d="M65.58,10.6c-.91,0-1.64-.28-1.64-.62s.74-.63,1.64-.63c1.86,0,5.24.05,8.62.12-.42.35-.81.7-1.18,1.04-2.97.06-5.8.09-7.44.09Z"/>
          <path class="cls-4" d="M75.7,8.27c-3.46.09-7.21.14-9.14.14-.8,0-1.46-.25-1.46-.55s.65-.55,1.46-.55c2.12,0,6.48.07,10.21.17-.19.14-.37.27-.56.41-.17.13-.34.26-.51.38Z"/>
          <path class="cls-4" d="M68.2,6.17c-.63,0-1.15-.19-1.15-.44s.51-.44,1.15-.44c2.38,0,8.32.1,11.34.25-.19.13-.38.26-.58.39-3.15.14-8.52.23-10.76.23Z"/>
          <path class="cls-4" d="M64.86,14.91c-.98,0-1.78-.3-1.78-.68s.8-.68,1.78-.68c1.23,0,3.07.02,5.16.05-.39.46-.73.89-1.02,1.27-1.66.02-3.11.03-4.13.03Z"/>
          <path class="cls-4" d="M70.13,4.04c0-.17.29-.31.65-.31,1.85,0,7.49.14,7.49.31s-5.64.31-7.49.31c-.36,0-.65-.14-.65-.31Z"/>
          <path class="cls-3" d="M85.29,13.73c.01.34.01.67,0,1-3.28.13-6.39.33-6.39.55s3.04.41,6.28.54c-.06.37-.13.74-.22,1.1-3.19.13-6.16.32-6.16.54s2.77.39,5.84.53c-.14.39-.3.77-.48,1.14-2.64.13-4.81.3-4.81.48,0,.17,1.9.33,4.3.46-.13.22-.28.43-.42.64-.16.22-.33.44-.51.66-1.5.11-2.53.24-2.53.38,0,.12.74.23,1.87.33-.62.61-1.35,1.19-2.21,1.69,0,0-1.02-.88-1.85-1.9-.75-.91-2.33-3.31-2.71-3.85-.37-.54-.62-.7-1.06-.54-.58.21-1.27.31-1.48.31s-.32-.08.03-.22c.35-.14,1.73-.79,2.41-2.14.76-1.52.09-3.62.09-3.62-.25,1.12-.84,1.54-.84,1.54.19-1.04-.02-1.98-.53-2.65l-.28,1.32s-.18,0-.62.37c-.44.37-.57.92-.57.92.35.14.77-.21.77-.21-.54,2.01-1.31,3.64-1.87,4.5-.56.87-1.02,1.19-1.58,1.42-.47.19-.63-.03-.63-.03-.41-.36-.72-.69-1.05-1.08,0,0-.03-.05.06-.04.23,0,.64-.39.73-.56.1-.19.09-.33.04-.34-.05,0-.14.14-.58.42-.44.28-.65.09-.79-.07-.11-.12,0-.28.07-.37.07-.09,2.41-4.45,8.61-9.04C84.33,1.87,89.52.25,89.82.13c.2-.08.52-.18.59-.1.08.08.12.15.11.25-.01.1-.06.15-.44.31-3.12,1.37-6.76,3.66-8.83,5-2.54,1.24-4.97,3.01-5.06,3.05-.2.12-.05.3.07.22,4.29-2.86,9.33-4.8,14.89-6.4.27-.08.41-.08.46-.02.05.06.07.14.08.22,0,.1-.08.16-.31.24-5.98,2.22-10.38,4.28-13.22,6.19,0,0-.3.18-.3.38,0,.08.16.09.16.09,1.42.02,3.32.11,4.22.16,0,0-.13.46-.99.83-.67.28-1.28.24-1.9.24-.14,0-.25.13-.14.28.05.07,1.35,2.17,6.08,2.64Z"/>
        </g>
        <g>
          <g>
            <path class="cls-2" d="M11.78,21.93c.56-.39,1.43-.87,2.06-1.15l-4.19-2.6c2.58-.91,4.19-3.21,4.19-6.35,0-4.45-3.39-6.35-6.86-6.35C3.23,5.49,0,7.56,0,12.28c0,1,.22,2.89,1.78,4.47,1.61,1.63,3.53,1.87,5.14,1.87.2,0,.41,0,.61-.02l4.25,3.32ZM2.54,12.37c0-4.68,2.51-5.94,4.4-5.94,3.04,0,4.36,2.52,4.36,5.21,0,1.54-.19,2.99-.95,4.16-.76,1.17-2.02,1.88-3.4,1.88-3.43,0-4.42-3.27-4.42-5.31Z"/>
            <path class="cls-2" d="M24.78,18.37c.33-.02.85-.11,1.37-.11s1.17.09,1.45.11c-.84-1.8-2.06-4.6-2.76-6.22-.67-1.56-1.78-4.16-2.67-6.7-.2.06-.39.09-.59.09-.22,0-.41-.04-.61-.09-.44,1.52-1.52,3.93-3.39,8.13l-2.15,4.79c.26-.04.52-.11.84-.11.3,0,.65.07.89.11.3-1.06.89-2.6,1.48-4.03.74-.04,1.48-.08,2.23-.08.8,0,1.58.04,2.38.08l.78,1.97.78,2.06ZM22.68,13.19c-.57.04-1.13.07-1.71.07-.65,0-1.28-.06-1.93-.07l1.89-4.57,1.74,4.57Z"/>
            <path class="cls-2" d="M33.2,8.96c0-.71.02-1.41.04-2.08,1.28,0,2.6.02,3.69.13-.06-.3-.09-.46-.09-.67,0-.15.04-.39.09-.71-1.78.09-3.41.11-4.96.11-1.43,0-3.49-.02-4.95-.11.06.22.09.46.09.69s-.04.46-.09.69c.95-.09,2.73-.13,2.9-.13h.93c.02.72.04,1.37.04,2.06l.02,5.18c0,1.41-.11,2.84-.18,4.25.67-.07.94-.11,1.26-.11.22,0,.82.06,1.36.11-.06-.52-.13-1.13-.13-2.54v-6.87Z"/>
            <path class="cls-2" d="M45.81,18.37c.33-.02.85-.11,1.37-.11s1.17.09,1.45.11c-.83-1.8-2.06-4.6-2.76-6.22-.67-1.56-1.78-4.16-2.67-6.7-.21.06-.39.09-.59.09-.22,0-.41-.04-.61-.09-.45,1.52-1.52,3.93-3.4,8.13l-2.15,4.79c.26-.04.52-.11.84-.11.3,0,.65.07.89.11.3-1.06.89-2.6,1.48-4.03.74-.04,1.49-.08,2.23-.08.8,0,1.58.04,2.38.08l.78,1.97.78,2.06ZM43.72,13.19c-.57.04-1.13.07-1.71.07-.65,0-1.28-.06-1.93-.07l1.89-4.57,1.74,4.57Z"/>
            <path class="cls-2" d="M53.25,6.64c.28-.02.97-.09,1.32-.09.61,0,1.22.09,1.73.46.65.48.78,1.15.78,1.93,0,1.21-.69,2.56-2.54,2.56-.48,0-.93-.04-1.28-.06v-4.81ZM56.29,12.06c1.69-.31,3.23-1.37,3.23-3.43,0-.78-.3-1.54-.85-2.08-.8-.76-1.71-.91-2.91-.91-.43,0-2.58.09-3.06.09-.95,0-1.43-.06-1.85-.09.13,2.39.13,2.65.13,5.09,0,3.58-.02,3.99-.17,7.64.41-.06.85-.11,1.28-.11.46,0,.87.07,1.24.11,0-.48-.07-2.88-.07-3.41v-2.64h.45c1,1.41,2.15,3.04,3.1,4.51.28.43.69,1.11.96,1.54.56-.07.78-.11,1.5-.11.67,0,1.13.06,1.65.11-1.17-1.47-1.67-2.12-3.13-4.18-.28-.39-.69-1-.97-1.39l-.52-.74Z"/>
          </g>
          <path class="cls-3" d="M41.8,21.19c-.26,0-.35-.08-.35-.3s.08-.34.35-.34c.32,0,.44.14.44.34s-.18.3-.44.3ZM60.1,21.21c.14-.12.81-.56.81-.56v4.08h-.73v-3.28c-.18.02-.22-.12-.08-.24ZM46.43,22.31v2.43h-5.19s.1-.91.1-1.14.29-.56.68-.82c.39-.26.72-.43.72-.43l.05-.29s-.27-.1-.19-.2c.07-.1.89-.84.89-.84v3.05h2.24v-.87s-.35-.1-.06-.36c.3-.26.77-.53.77-.53ZM42.77,24.06v-.97s-.32.14-.6.32c-.28.18-.18.65-.18.65h.77ZM58.87,21.45c-.18.02-.22-.12-.08-.24.14-.12.81-.56.81-.56v4.08h-11.46c0,.94-.87,1.1-1.11,1.1s-.46-.12-.63-.28c-.18-.16.04-.2.04-.2.68.2,1-.24,1-.62s.04-2,.04-2c-.2,0-.3-.12-.12-.26.18-.14.82-.6.82-.6l.02,2.19h.91v-2.55s-.32-.16,0-.4c.32-.24.75-.54.75-.54v2.01c.13-.13.37-.25.85-.25h2.78c.59,0,1.27.42,1.27,1.2,0,.25,0,.41,0,.53h2.4v-.49h-1.01v-.62c0-.54.99-.94,1.27-1.06.28-.12.48-.2.48-.2v2.37h.99v-2.61ZM54.01,23.59c0-.22.1-.56-.56-.56h-3.04c-.28,0-.47.03-.57.31v.72h4.15c0-.16.01-.35.01-.47ZM57.15,23.05v-.4s-.48.14-.48.4h.48ZM57.36,21.13c-.26,0-.35-.08-.35-.3s.07-.34.35-.34c.32,0,.44.14.44.34s-.18.3-.44.3ZM56.37,21.13c-.26,0-.35-.08-.35-.3s.08-.34.35-.34c.32,0,.44.14.44.34s-.18.3-.44.3ZM45.19,24.99c.32,0,.44.14.44.34s-.18.3-.44.3-.36-.08-.36-.3.08-.34.36-.34ZM44.2,24.99c.32,0,.44.14.44.34s-.18.3-.44.3-.36-.08-.36-.3.08-.34.36-.34ZM42.75,21.19c-.26,0-.36-.08-.36-.3s.07-.34.36-.34c.32,0,.43.14.43.34s-.18.3-.43.3Z"/>
          <g>
            <path class="cls-1" d="M17.37,24.73c.11,0,.29-.04.46-.04s.39.03.48.04c-.28-.6-.69-1.53-.92-2.07-.22-.52-.59-1.39-.89-2.23-.07.02-.13.03-.2.03-.07,0-.14-.01-.2-.03-.15.51-.51,1.31-1.13,2.71l-.72,1.6c.09-.01.17-.04.28-.04.1,0,.22.02.3.04.1-.35.3-.87.5-1.34.25-.01.49-.03.74-.03.27,0,.53.01.79.03l.26.66.26.69ZM16.68,23c-.19.01-.38.03-.57.03-.22,0-.43-.02-.64-.03l.63-1.52.58,1.52Z"/>
            <path class="cls-1" d="M18.89,21.92c0,1.06,0,2.08-.07,2.81.14,0,.31-.04.44-.04.14,0,.29.03.43.04-.05-.5-.06-1.17-.06-2.09,0-.62,0-1.69.07-2.15-.15.02-.3.04-.44.04-.09,0-.32-.02-.44-.04.06.6.06,1.04.06,1.43Z"/>
            <path class="cls-1" d="M21.58,20.82c.09,0,.32-.03.44-.03.2,0,.41.03.57.15.22.16.26.38.26.64,0,.4-.23.86-.85.86-.16,0-.31-.01-.43-.02v-1.6ZM22.6,22.63c.56-.11,1.08-.46,1.08-1.14,0-.26-.1-.51-.28-.69-.27-.25-.57-.3-.97-.3-.14,0-.86.03-1.02.03-.32,0-.48-.02-.62-.03.04.8.04.88.04,1.7,0,1.19,0,1.33-.06,2.55.14-.02.28-.04.43-.04.15,0,.29.02.41.04,0-.16-.02-.96-.02-1.14v-.88h.15c.33.47.72,1.01,1.03,1.5.09.14.23.37.32.51.19-.02.26-.04.5-.04.22,0,.38.02.55.04-.39-.49-.56-.7-1.05-1.39-.09-.13-.23-.34-.32-.47l-.17-.25Z"/>
            <path class="cls-1" d="M25.85,23.28c-.29-.86-.69-2.07-.89-2.8-.15.02-.29.04-.43.04s-.36-.02-.48-.04c.25.67.47,1.26.64,1.73.28.81.47,1.36.69,2.04l.15.47c.09-.02.19-.04.25-.04s.13.01.24.04c.1-.32.22-.72.3-.97.24-.7.27-.8.59-1.68l.18-.51c.07.2.19.51.25.71.07.19.38,1.14.46,1.35.1.28.12.36.35,1.11.06,0,.17-.04.26-.04.09,0,.16.02.25.04.24-.74.26-.81.6-1.8.34-.97.55-1.52.92-2.44-.09.02-.19.04-.28.04-.12,0-.22-.02-.28-.04-.22.8-.33,1.19-.51,1.73-.29.87-.33.96-.51,1.43-.2-.53-.39-1.07-.57-1.61-.1-.3-.48-1.54-.48-1.55-.09.02-.15.04-.27.04-.11,0-.19-.02-.27-.04-.19.75-.84,2.57-.9,2.74l-.15.4-.12-.35Z"/>
            <path class="cls-1" d="M32.82,24.73c.11,0,.28-.04.46-.04s.39.03.48.04c-.28-.6-.69-1.53-.92-2.07-.22-.52-.59-1.39-.89-2.23-.07.02-.13.03-.2.03-.07,0-.14-.01-.2-.03-.15.51-.51,1.31-1.13,2.71l-.72,1.6c.09-.01.17-.04.28-.04.1,0,.22.02.3.04.1-.35.3-.87.49-1.34.25-.01.5-.03.74-.03.27,0,.53.01.79.03l.26.66.26.69ZM32.12,23c-.19.01-.38.03-.57.03-.22,0-.43-.02-.64-.03l.63-1.52.58,1.52Z"/>
            <path class="cls-1" d="M35.45,23.07c0-.06.04-.12.08-.2.26-.44.5-.91.78-1.35.09-.15.54-.87.64-1.03-.07.02-.14.04-.26.04-.14,0-.26-.02-.36-.04-.44.98-.54,1.19-1.07,2.09-.53-.92-.76-1.41-1.08-2.09-.18.03-.36.04-.51.04-.14,0-.28-.01-.51-.04.32.54.85,1.39,1.16,1.93l.37.63c0,.38-.02,1.19-.04,1.68.12-.01.29-.04.41-.04.14,0,.28.02.43.04-.02-.57-.04-.91-.04-1.43v-.23Z"/>
            <path class="cls-1" d="M37.34,23.8c-.03.3-.04.38-.14.7.22.11.62.32,1.16.32,1.13,0,1.57-.72,1.57-1.36,0-.17-.04-.54-.3-.82-.18-.2-.36-.27-.84-.45-.54-.21-.86-.33-.86-.79,0-.36.24-.67.73-.67.39,0,.72.18.81.54h.09c.06-.23.07-.28.19-.59-.3-.14-.58-.25-1.03-.25-1.12,0-1.44.69-1.44,1.24,0,.51.18.83.78,1.1.17.07.46.19.64.26.12.05.51.22.51.71,0,.45-.32.77-.81.77-.36,0-.67-.09-.96-.71h-.09Z"/>
          </g>
        </g>
      </g>
      <g>
        <path class="cls-4" d="M116.46,8.08h-.19c-.23-.45-.89-1.77-3.6-1.77-3.15,0-4.82,2.07-4.82,5.63,0,.66,0,2.41,1.15,3.94.68.89,1.7,1.71,3.41,1.71,2.32,0,3.5-1.15,4.35-2.15l.21.13-.21,1.87c-1.43.79-3.05,1.19-4.76,1.19-3.67,0-6.73-2.28-6.73-6.52,0-3.79,2.32-6.82,7.35-6.82,1.54,0,2.9.26,4.41.94l-.56,1.85Z"/>
        <path class="cls-4" d="M126.39,16.28l-.79-2c-.81-.04-1.6-.08-2.41-.08-.75,0-1.51.04-2.26.08-.6,1.45-1.21,3.01-1.51,4.09-.24-.04-.6-.11-.9-.11-.32,0-.59.07-.85.11l2.19-4.86c1.9-4.26,2.99-6.71,3.45-8.25.21.06.4.09.62.09.21,0,.4-.04.6-.09.9,2.58,2.03,5.22,2.71,6.8.71,1.64,1.96,4.48,2.8,6.31-.28-.02-.94-.11-1.47-.11s-1.05.09-1.39.11l-.79-2.09ZM123.28,8.48l-1.92,4.63c.66.02,1.3.07,1.96.07.58,0,1.15-.04,1.73-.07l-1.77-4.63Z"/>
        <path class="cls-4" d="M137.56,12.72c.28.4.7,1.02.98,1.41,1.49,2.09,2,2.75,3.18,4.24-.53-.06-1-.11-1.68-.11-.73,0-.96.04-1.52.11-.28-.43-.7-1.13-.98-1.56-.96-1.49-2.13-3.14-3.14-4.58h-.45v2.68c0,.55.07,2.98.07,3.47-.38-.04-.79-.11-1.26-.11-.43,0-.89.06-1.3.11.15-3.71.17-4.12.17-7.76,0-2.47,0-2.73-.13-5.16.43.04.92.09,1.88.09.49,0,2.67-.09,3.11-.09,1.22,0,2.15.15,2.96.92.57.55.87,1.32.87,2.11,0,2.09-1.56,3.16-3.28,3.48l.53.75ZM133.94,11.34c.36.02.81.06,1.3.06,1.88,0,2.58-1.38,2.58-2.6,0-.79-.13-1.47-.79-1.96-.51-.38-1.13-.47-1.75-.47-.36,0-1.05.08-1.34.09v4.88Z"/>
        <path class="cls-4" d="M149.36,5.3c1.55,0,2.9.26,4.41.94l-.56,1.85h-.19c-.23-.45-.89-1.77-3.6-1.77-3.14,0-4.82,2.07-4.82,5.63,0,1.43.26,2.79,1.15,3.94.68.89,1.69,1.71,3.41,1.71.88,0,1.92-.19,2.67-.68.06-1.32.06-1.47.06-1.72,0-.92-.06-1.85-.11-2.77.41.06.85.13,1.34.13.53,0,.79-.06,1.19-.13-.11.68-.15,2.66-.15,3.17,0,.71.02,1.19.06,1.71-1.6.85-3.65,1.32-5.46,1.32-3.67,0-6.72-2.28-6.72-6.52,0-3.79,2.32-6.82,7.34-6.82Z"/>
        <path class="cls-4" d="M170.14,11.74c0,4.2-2.84,6.89-7.02,6.89-3.92,0-7.02-2.32-7.02-6.44,0-4.78,3.28-6.89,7.08-6.89,3.52,0,6.97,1.92,6.97,6.44ZM163.12,17.67c3.2,0,4.45-3.01,4.45-5.71,0-3.07-1.15-5.71-4.45-5.71s-4.45,3.13-4.45,5.71c0,2.81,1.21,5.71,4.45,5.71Z"/>
      </g>
      <rect class="cls-4" x="94.88" y="5.31" width=".88" height="19.42"/>
    </g>
  </g>
</svg>