<?xml version="1.0" encoding="UTF-8"?>
<svg id="Layer_2" data-name="Layer 2" xmlns="http://www.w3.org/2000/svg" viewBox="0 0 86.8 80.81">
  <defs>
    <style>
      .cls-1 {
        fill: #fff;
      }

      .cls-2 {
        fill: none;
        stroke: #fff;
        stroke-miterlimit: 40;
        stroke-width: 1.97px;
      }

      .cls-3 {
        fill: #e32b2f;
      }

      .cls-4 {
        fill: #ffc428;
      }
    </style>
  </defs>
  <g id="Layer_1-2" data-name="Layer 1">
    <path class="cls-1" d="M43.4,0C19.47,0,0,19.47,0,43.4c0,2.91.29,5.83.88,8.68l.27,1.33,12.16,8.84,2.07,16.57h22.2l.25.18c1.63,1.19,3.56,1.81,5.58,1.81s3.95-.63,5.57-1.81l.25-.18h22.2l2.07-16.57,12.16-8.84.27-1.33c.58-2.85.87-5.77.87-8.68C86.8,19.47,67.33,0,43.4,0M82.51,51.38l-12.28,8.94-1.88,15.01h-20.25l-1.17.85c-1.02.75-2.26,1.15-3.52,1.15s-2.5-.4-3.52-1.15l-1.17-.85h-20.25l-1.88-15.01-12.28-8.94c-.54-2.63-.81-5.3-.81-7.98C3.49,21.37,21.37,3.49,43.4,3.49s39.91,17.88,39.91,39.91c0,2.68-.27,5.35-.8,7.98"/>
    <path class="cls-2" d="M38.71,75.33h-20.25l-1.88-15.01-12.28-8.93c-.54-2.63-.81-5.3-.81-7.98C3.49,21.37,21.37,3.49,43.4,3.49s39.91,17.88,39.91,39.91c0,2.68-.27,5.36-.81,7.98l-12.28,8.93-1.88,15.01h-20.25l-1.17.85c-1.02.75-2.26,1.15-3.52,1.15s-2.5-.4-3.52-1.15l-1.17-.85Z"/>
    <path class="cls-4" d="M38.71,75.33h-20.25l-1.88-15.01-12.28-8.93c-.54-2.63-.81-5.3-.81-7.98C3.49,21.37,21.37,3.49,43.4,3.49s39.91,17.88,39.91,39.91c0,2.68-.27,5.36-.81,7.98l-12.28,8.93-1.88,15.01h-20.25l-1.17.85c-1.02.75-2.26,1.15-3.52,1.15s-2.5-.4-3.52-1.15l-1.17-.85Z"/>
    <path class="cls-3" d="M43.4,3.49C21.37,3.49,3.49,21.37,3.49,43.4c0,2.68.27,5.36.81,7.98l12.28,8.93,1.88,15.01h20.25l1.17.85c1.02.74,2.26,1.15,3.52,1.15s2.5-.4,3.52-1.15l1.17-.85h20.25l1.88-15.01,12.28-8.93c.54-2.63.81-5.3.81-7.98,0-22.03-17.88-39.91-39.91-39.91M74.85,36.49c.97,2.18,1.47,4.53,1.47,6.91,0,1.43-.18,2.85-.54,4.23l-12.12,8.82-1.49,11.89h-14.72l-2.18,1.58c-.55.4-1.2.61-1.88.61s-1.33-.21-1.88-.61l-2.18-1.58h-14.72l-1.49-11.89-12.12-8.82c-.36-1.38-.54-2.8-.54-4.23,0-2.38.5-4.74,1.47-6.91l21.47,21.71-20.87-25.76c.82-3.34,2.64-6.35,5.21-8.64l18.71,32.29L19.89,20.73c2.14-2.85,5.14-4.96,8.55-6.01l11.44,40.08L31.52,13.06c2.54-1.43,5.41-2.19,8.33-2.19.62,0,1.23.03,1.85.1l1.7,43.4,1.7-43.4c.61-.07,1.23-.1,1.85-.1,2.92,0,5.79.75,8.33,2.19l-8.36,41.73,11.44-40.08c3.41,1.06,6.4,3.16,8.55,6.01l-16.58,35.35,18.71-32.29c2.57,2.28,4.39,5.3,5.21,8.64l-20.87,25.76,21.47-21.71Z"/>
  </g>
</svg>