<?xml version="1.0" encoding="UTF-8"?>
<svg id="Layer_2" data-name="Layer 2" xmlns="http://www.w3.org/2000/svg" viewBox="0 0 478.55 495.49">
  <defs>
    <style>
      .cls-1 {
        fill: #135299;
      }

      .cls-2 {
        fill: #25b590;
      }
    </style>
  </defs>
  <g id="Layer_1-2" data-name="Layer 1">
    <g>
      <g>
        <g>
          <path class="cls-2" d="M221.45,480.18v-56.42h38.1v10.66h-25.4v11.07s22.55,0,22.55,0v10.42h-22.55v13.6h27.27v10.67h-39.97Z"/>
          <path class="cls-2" d="M269.19,438.82c2.06-.6,4.72-1.15,7.98-1.67,3.26-.52,6.68-.77,10.26-.77s6.66.48,9.08,1.42c2.41.95,4.33,2.29,5.74,4.03,1.41,1.74,2.41,3.8,3.01,6.19.6,2.39.9,5.05.9,7.98v24.18h-12.13v-22.71c0-3.91-.52-6.68-1.55-8.3-1.03-1.63-2.96-2.44-5.78-2.44-.87,0-1.79.04-2.77.12-.98.08-1.85.18-2.61.29v33.05h-12.13v-41.36Z"/>
          <path class="cls-2" d="M313.48,459.1c0-3.8.58-7.12,1.75-9.97,1.17-2.85,2.7-5.22,4.6-7.12,1.9-1.9,4.08-3.34,6.55-4.31,2.47-.98,5.01-1.47,7.61-1.47,6.08,0,10.88,1.86,14.41,5.58,3.53,3.72,5.29,9.19,5.29,16.4,0,.71-.03,1.48-.08,2.32-.05.84-.11,1.59-.16,2.24h-27.52c.27,2.5,1.44,4.48,3.5,5.94,2.06,1.47,4.83,2.2,8.3,2.2,2.23,0,4.41-.2,6.55-.61,2.14-.41,3.89-.91,5.25-1.51l1.63,9.85c-.65.33-1.52.65-2.61.98-1.09.33-2.29.61-3.62.86-1.33.24-2.75.45-4.27.61-1.52.16-3.04.24-4.56.24-3.85,0-7.2-.57-10.05-1.71-2.85-1.14-5.21-2.7-7.08-4.68-1.87-1.98-3.26-4.33-4.15-7.04-.9-2.71-1.34-5.64-1.34-8.79ZM341.98,454.45c-.05-1.03-.23-2.04-.53-3.01-.3-.98-.76-1.84-1.38-2.61-.62-.76-1.41-1.38-2.36-1.87-.95-.49-2.13-.73-3.54-.73s-2.52.23-3.5.69c-.98.46-1.79,1.07-2.44,1.83-.65.76-1.15,1.64-1.51,2.65-.35,1.01-.61,2.02-.77,3.05h16.04Z"/>
          <path class="cls-2" d="M388.02,448.1c-1.09-.27-2.36-.56-3.83-.85-1.47-.3-3.04-.45-4.72-.45-.76,0-1.67.07-2.73.2-1.06.14-1.86.29-2.4.45v32.73h-12.13v-40.54c2.17-.76,4.73-1.48,7.69-2.16,2.96-.68,6.25-1.02,9.89-1.02.65,0,1.44.04,2.36.12.92.08,1.84.19,2.77.33.92.14,1.84.3,2.77.49.92.19,1.71.42,2.36.69l-2.04,10.01Z"/>
          <path class="cls-2" d="M430.35,474.81c0,7-1.78,12.2-5.33,15.59-3.56,3.39-9.05,5.09-16.49,5.09-2.61,0-5.21-.23-7.82-.69-2.6-.46-5.02-1.07-7.25-1.83l2.12-10.18c1.9.76,3.89,1.36,5.98,1.79,2.09.43,4.46.65,7.12.65,3.47,0,5.93-.76,7.37-2.28,1.44-1.52,2.16-3.47,2.16-5.86v-1.55c-1.3.6-2.65,1.05-4.03,1.34-1.38.3-2.89.45-4.52.45-5.92,0-10.45-1.75-13.6-5.25-3.15-3.5-4.72-8.4-4.72-14.69,0-3.15.49-6.01,1.47-8.59.98-2.58,2.4-4.79,4.27-6.64,1.87-1.84,4.16-3.27,6.88-4.27,2.71-1,5.78-1.51,9.2-1.51,1.46,0,2.97.07,4.52.2,1.55.14,3.08.31,4.6.53,1.52.22,2.97.48,4.36.77,1.38.3,2.62.61,3.7.94v35.98ZM403.73,457.39c0,6.79,2.74,10.18,8.22,10.18,1.25,0,2.41-.16,3.5-.49,1.08-.33,2.01-.7,2.77-1.14v-19.38c-.6-.11-1.3-.2-2.12-.29-.81-.08-1.76-.12-2.85-.12-3.2,0-5.59,1.06-7.17,3.17-1.57,2.12-2.36,4.8-2.36,8.06Z"/>
          <path class="cls-2" d="M478.55,437.36c-2.45,8.25-5.01,15.99-7.67,23.2-2.67,7.22-5.58,14.22-8.73,21-1.14,2.44-2.28,4.52-3.42,6.23-1.14,1.71-2.39,3.12-3.75,4.23-1.36,1.11-2.89,1.93-4.61,2.44-1.71.51-3.71.77-5.99.77-1.9,0-3.66-.18-5.26-.53-1.6-.35-2.92-.75-3.95-1.18l2.12-9.69c1.25.43,2.36.73,3.34.9.98.16,2.01.24,3.1.24,2.17,0,3.84-.58,5.01-1.75,1.17-1.17,2.16-2.78,2.97-4.84-2.77-5.43-5.54-11.52-8.31-18.28-2.77-6.76-5.38-14.34-7.82-22.76h12.86c.54,2.12,1.19,4.41,1.92,6.88.74,2.47,1.51,4.97,2.33,7.49.82,2.52,1.65,4.98,2.49,7.37.84,2.39,1.65,4.56,2.41,6.51.71-1.95,1.44-4.12,2.21-6.51.76-2.39,1.51-4.84,2.25-7.37.73-2.52,1.44-5.02,2.13-7.49.68-2.47,1.29-4.76,1.84-6.88h12.54Z"/>
        </g>
        <g>
          <path class="cls-1" d="M56.18,451.92c0,3.96-.49,7.53-1.47,10.71-.98,3.17-2.35,5.96-4.11,8.34-1.76,2.39-3.87,4.37-6.31,5.94-2.44,1.57-5.13,2.71-8.06,3.42.27,1.08.87,1.97,1.79,2.65.92.68,2.09,1.23,3.5,1.67,1.41.43,3.05.76,4.93.98,1.87.22,3.89.41,6.07.57l-2.61,9.28c-4.23-.16-7.86-.58-10.87-1.26-3.01-.68-5.56-1.62-7.65-2.81-2.09-1.19-3.75-2.66-4.97-4.4-1.22-1.74-2.16-3.75-2.81-6.03-3.37-.43-6.49-1.37-9.36-2.81-2.88-1.44-5.37-3.38-7.49-5.82-2.12-2.44-3.77-5.37-4.97-8.79C.6,460.14,0,456.26,0,451.92c0-4.83.76-9.08,2.28-12.74,1.52-3.66,3.57-6.74,6.15-9.24,2.58-2.5,5.56-4.37,8.96-5.62,3.39-1.25,6.96-1.87,10.71-1.87,3.85,0,7.49.62,10.91,1.87,3.42,1.25,6.4,3.12,8.96,5.62,2.55,2.5,4.56,5.58,6.02,9.24,1.47,3.66,2.2,7.91,2.2,12.74ZM13.11,451.92c0,2.77.34,5.27,1.02,7.49.68,2.23,1.66,4.14,2.93,5.74,1.27,1.6,2.84,2.84,4.68,3.7,1.84.87,3.96,1.3,6.35,1.3s4.44-.43,6.31-1.3c1.87-.87,3.45-2.1,4.72-3.7,1.27-1.6,2.25-3.51,2.93-5.74.68-2.22,1.02-4.72,1.02-7.49s-.34-5.28-1.02-7.53c-.68-2.25-1.66-4.18-2.93-5.78-1.28-1.6-2.85-2.84-4.72-3.7-1.87-.87-3.98-1.3-6.31-1.3s-4.51.45-6.35,1.34c-1.85.9-3.41,2.14-4.68,3.75-1.28,1.6-2.25,3.53-2.93,5.78-.68,2.25-1.02,4.74-1.02,7.45Z"/>
          <path class="cls-1" d="M80.48,436.21c3.58,0,6.57.41,8.95,1.22,2.39.81,4.3,1.98,5.74,3.5,1.44,1.52,2.45,3.37,3.05,5.54.6,2.17.9,4.59.9,7.25v25.24c-1.74.38-4.15.83-7.25,1.34-3.09.52-6.84.77-11.24.77-2.77,0-5.28-.24-7.53-.73-2.25-.49-4.19-1.29-5.82-2.4-1.63-1.11-2.88-2.56-3.75-4.36-.87-1.79-1.3-3.99-1.3-6.59s.5-4.61,1.51-6.35c1-1.74,2.35-3.12,4.03-4.15,1.68-1.03,3.61-1.78,5.78-2.24,2.17-.46,4.42-.69,6.76-.69,1.57,0,2.97.07,4.19.2,1.22.14,2.21.31,2.97.53v-1.14c0-2.06-.62-3.72-1.87-4.97-1.25-1.25-3.42-1.87-6.51-1.87-2.06,0-4.1.15-6.11.45-2.01.3-3.75.72-5.21,1.26l-1.55-9.77c.7-.22,1.59-.45,2.65-.69,1.06-.24,2.21-.46,3.46-.65,1.25-.19,2.56-.35,3.95-.49,1.38-.14,2.78-.2,4.19-.2ZM81.46,471.7c1.19,0,2.33-.03,3.42-.08,1.08-.05,1.95-.13,2.61-.24v-9.2c-.49-.11-1.22-.22-2.2-.33-.98-.11-1.87-.16-2.69-.16-1.14,0-2.21.07-3.22.2-1,.14-1.89.39-2.65.77-.76.38-1.36.9-1.79,1.55-.43.65-.65,1.46-.65,2.44,0,1.9.64,3.22,1.91,3.95,1.27.73,3.03,1.1,5.25,1.1Z"/>
          <path class="cls-1" d="M108.01,426.68l12.13-1.95v12.62h14.57v10.1h-14.57v15.06c0,2.55.45,4.59,1.34,6.11.9,1.52,2.7,2.28,5.41,2.28,1.3,0,2.65-.12,4.03-.37,1.38-.24,2.65-.58,3.79-1.02l1.71,9.44c-1.47.6-3.09,1.11-4.88,1.55-1.79.43-3.99.65-6.59.65-3.31,0-6.05-.45-8.22-1.34-2.17-.9-3.91-2.14-5.21-3.75-1.3-1.6-2.21-3.54-2.73-5.82-.52-2.28-.77-4.8-.77-7.57v-35.99Z"/>
          <path class="cls-1" d="M160.02,436.21c3.58,0,6.57.41,8.95,1.22,2.39.81,4.3,1.98,5.74,3.5,1.44,1.52,2.45,3.37,3.05,5.54.6,2.17.9,4.59.9,7.25v25.24c-1.74.38-4.15.83-7.25,1.34-3.09.52-6.84.77-11.24.77-2.77,0-5.28-.24-7.53-.73-2.25-.49-4.19-1.29-5.82-2.4-1.63-1.11-2.88-2.56-3.75-4.36-.87-1.79-1.3-3.99-1.3-6.59s.5-4.61,1.51-6.35c1-1.74,2.35-3.12,4.03-4.15,1.68-1.03,3.61-1.78,5.78-2.24,2.17-.46,4.42-.69,6.76-.69,1.57,0,2.97.07,4.19.2,1.22.14,2.21.31,2.97.53v-1.14c0-2.06-.62-3.72-1.87-4.97-1.25-1.25-3.42-1.87-6.51-1.87-2.06,0-4.1.15-6.11.45-2.01.3-3.75.72-5.21,1.26l-1.55-9.77c.7-.22,1.59-.45,2.65-.69,1.06-.24,2.21-.46,3.46-.65,1.25-.19,2.56-.35,3.95-.49s2.78-.2,4.19-.2ZM161,471.7c1.19,0,2.33-.03,3.42-.08,1.08-.05,1.95-.13,2.61-.24v-9.2c-.49-.11-1.22-.22-2.2-.33-.98-.11-1.87-.16-2.69-.16-1.14,0-2.21.07-3.22.2-1,.14-1.89.39-2.65.77-.76.38-1.36.9-1.79,1.55-.43.65-.65,1.46-.65,2.44,0,1.9.64,3.22,1.91,3.95,1.27.73,3.03,1.1,5.25,1.1Z"/>
          <path class="cls-1" d="M213.76,448.09c-1.09-.27-2.36-.56-3.83-.85-1.47-.3-3.04-.45-4.72-.45-.76,0-1.67.07-2.73.2-1.06.14-1.86.29-2.4.45v32.73s-12.13,0-12.13,0v-40.54c2.17-.76,4.73-1.48,7.69-2.16,2.96-.68,6.25-1.02,9.89-1.02.65,0,1.44.04,2.36.12.92.08,1.84.19,2.77.33.92.14,1.84.3,2.77.49.92.19,1.71.42,2.36.69l-2.04,10.01Z"/>
        </g>
      </g>
      <g>
        <path class="cls-2" d="M16.49,358.66c1.56,0,2.95-.59,4.11-1.76,1.17-1.17,1.76-2.58,1.76-4.2s-.59-3.03-1.76-4.2c-1.17-1.17-2.55-1.76-4.11-1.76-1.68,0-3.08.59-4.16,1.77-1.08,1.17-1.62,2.58-1.62,4.19,0,1.62.55,3.03,1.62,4.19,1.08,1.17,2.48,1.77,4.16,1.77Z"/>
        <path class="cls-2" d="M32.69,358.66c1.68,0,3.08-.59,4.16-1.77,1.08-1.17,1.62-2.58,1.62-4.19s-.55-3.03-1.62-4.19c-1.08-1.17-2.48-1.77-4.16-1.77-1.56,0-2.93.59-4.07,1.76-1.14,1.17-1.72,2.58-1.72,4.2s.58,3.03,1.72,4.2c1.14,1.17,2.51,1.76,4.07,1.76Z"/>
        <path class="cls-2" d="M86.05,358.66c1.56,0,2.94-.59,4.11-1.76,1.17-1.17,1.76-2.58,1.76-4.2s-.59-3.03-1.76-4.2c-1.17-1.17-2.55-1.76-4.11-1.76-1.68,0-3.08.59-4.16,1.77-1.08,1.17-1.62,2.58-1.62,4.19,0,1.62.55,3.03,1.62,4.19,1.08,1.17,2.48,1.77,4.16,1.77Z"/>
        <path class="cls-2" d="M108.31,367.25c-1.93-1.81-4.2-3.1-6.75-3.84-2.53-.73-5.23-1.1-8.02-1.1s-5.68.52-8.22,1.54c-2.54,1.02-4.79,2.44-6.68,4.22-1.9,1.78-3.41,3.88-4.49,6.25-1.08,2.37-1.63,4.93-1.63,7.62,0,1.7.24,3.29.71,4.72.47,1.43,1.03,2.68,1.68,3.7.64,1.02,1.28,1.87,1.9,2.51.31.32.57.58.8.77h-36.43v-29.86h-13.53c-9,0-15.93,1.83-20.59,5.44-4.68,3.62-7.05,8.95-7.05,15.84,0,1.86.27,3.95.79,6.19.53,2.26,1.57,4.38,3.09,6.31,1.52,1.93,3.7,3.57,6.48,4.85,2.77,1.28,6.45,1.94,10.93,1.94h93.36v-18.41c0-4.53-.58-8.36-1.71-11.39-1.14-3.04-2.69-5.49-4.62-7.31ZM28.9,393.83h-6.75c-2.9,0-5.27-.72-7.05-2.13-1.77-1.4-2.66-3.63-2.66-6.62,0-1.25.19-2.54.56-3.81.37-1.27,1.04-2.42,1.99-3.44.96-1.02,2.3-1.86,3.97-2.52,1.68-.65,3.84-.99,6.41-.99h3.53v19.5ZM102.2,393.83h-8.32c-1.3,0-2.5-.26-3.56-.76-1.07-.51-2.02-1.22-2.8-2.12-.79-.9-1.42-1.99-1.88-3.24-.45-1.24-.68-2.65-.68-4.19,0-3.47.8-6.24,2.39-8.22,1.57-1.97,3.66-2.97,6.19-2.97,2.99,0,5.2.95,6.57,2.83,1.39,1.9,2.09,4.62,2.09,8.1v10.58Z"/>
        <path class="cls-2" d="M102.24,358.66c1.68,0,3.08-.59,4.16-1.77,1.08-1.17,1.62-2.58,1.62-4.19s-.55-3.03-1.62-4.19c-1.08-1.17-2.48-1.77-4.16-1.77-1.56,0-2.93.59-4.07,1.76-1.14,1.17-1.71,2.58-1.71,4.2s.58,3.03,1.71,4.2c1.14,1.17,2.51,1.76,4.07,1.76Z"/>
        <path class="cls-2" d="M255.99,347.94s-3.62.1-3.62,3.42c0,.36,0,42.31,0,42.31h-10.06c-1.53,0-2.77-.21-3.7-.63-.91-.42-1.61-1.03-2.08-1.83-.48-.81-.79-1.82-.93-3.01-.14-1.2-.22-2.63-.22-4.24,0,0,0-35.65,0-35.8v-.21h-8.85s-3.68.1-3.68,3.42c0,.2,0,32.6,0,32.6,0,1.6-.07,3.03-.22,4.24-.14,1.18-.46,2.2-.93,3.01-.47.8-1.15,1.41-2.04,1.83-.9.42-2.13.63-3.65.63h-7.82s0-5.01,0-5.01c0-4.93-.69-9.14-2.06-12.49-1.37-3.35-3.19-6.08-5.41-8.13-2.22-2.04-4.83-3.52-7.74-4.4-2.91-.87-5.92-1.32-8.94-1.32-2.51,0-4.87.31-7.02.92-2.16.61-4.14,1.47-5.89,2.55-1.75,1.08-3.3,2.35-4.62,3.78-1.11,1.21-2.05,2.5-2.8,3.85v-25.49h-8.94s-3.59.1-3.59,3.42v42.31s-15.3,0-15.3,0v-43.34h-8.95s-3.58.09-3.58,3.41c0,.36,0,50.63,0,50.63h95.27c2.28,0,4.45-.42,6.44-1.24,1.9-.78,3.46-2.27,4.62-4.43,1.15,2.15,2.6,3.64,4.31,4.43,1.79.82,3.85,1.24,6.14,1.24h24.77v-56.43h-8.91ZM195.75,393.66h-32.21c.02-2.61.47-5.14,1.34-7.5.89-2.43,2.16-4.6,3.79-6.46,1.63-1.86,3.6-3.35,5.85-4.43,2.25-1.08,4.79-1.63,7.52-1.63,4.78,0,8.3,1.35,10.45,4.01,2.16,2.68,3.26,6.59,3.26,11.62v4.4Z"/>
      </g>
      <g>
        <path class="cls-1" d="M466.14,358.66c1.68,0,3.08-.59,4.16-1.77,1.08-1.17,1.62-2.58,1.62-4.19,0-1.62-.55-3.03-1.62-4.19-1.08-1.17-2.48-1.77-4.16-1.77-1.56,0-2.93.59-4.07,1.76-1.14,1.17-1.71,2.58-1.71,4.2s.58,3.03,1.71,4.2c1.14,1.17,2.51,1.76,4.07,1.76Z"/>
        <path class="cls-1" d="M476.83,374.56c-1.14-3.04-2.69-5.49-4.62-7.31-1.93-1.81-4.2-3.1-6.75-3.84-2.53-.73-5.23-1.1-8.02-1.1s-5.68.52-8.22,1.54c-2.54,1.02-4.79,2.44-6.68,4.22-1.9,1.78-3.41,3.89-4.49,6.25-1.08,2.37-1.63,4.93-1.63,7.62,0,1.7.24,3.29.71,4.72.47,1.44,1.03,2.68,1.68,3.7.64,1.02,1.28,1.87,1.9,2.51.31.32.57.58.8.77h-67.24v-5.01c0-4.93-.69-9.14-2.06-12.49-1.37-3.35-3.19-6.09-5.41-8.13-2.22-2.04-4.83-3.52-7.74-4.4-2.91-.87-5.92-1.32-8.94-1.32-2.51,0-4.87.31-7.02.92-2.16.61-4.14,1.47-5.89,2.55-1.75,1.08-3.3,2.35-4.62,3.78-1.11,1.21-2.05,2.5-2.8,3.85v-25.49h-8.89s-3.64.1-3.64,3.42c0,.22,0,42.31,0,42.31h-15.37v-28.75h-8.9s-3.63.1-3.63,3.42c0,.33,0,40.27,0,40.27,0,2.53-.6,4.31-1.79,5.27-1.21.98-2.87,1.48-4.96,1.48-1.37,0-2.63-.17-3.77-.51-1.42-.43-1.96-.61-2.16-.69l-.21-.08-3.01,8.49.17.08c.12.06.5.22,1.15.48.64.26,1.47.53,2.46.79.98.26,2.13.5,3.42.7,1.28.2,2.64.31,4.04.31,2.27,0,4.47-.28,6.54-.83,2.08-.56,3.93-1.54,5.48-2.92,1.55-1.38,2.82-3.22,3.76-5.48.93-2.25,1.41-5.14,1.41-8.57v-2.74h176.67v-18.41c0-4.53-.58-8.36-1.71-11.39ZM361.81,393.66h-32.21c.02-2.61.47-5.14,1.34-7.5.89-2.43,2.16-4.6,3.79-6.46,1.63-1.86,3.6-3.35,5.85-4.43,2.25-1.08,4.79-1.63,7.52-1.63,4.78,0,8.3,1.35,10.45,4.01,2.16,2.68,3.26,6.59,3.26,11.62v4.4ZM466.1,393.83h-8.32c-1.3,0-2.5-.26-3.56-.76-1.07-.51-2.02-1.22-2.8-2.12-.79-.9-1.42-1.99-1.88-3.24-.45-1.24-.68-2.65-.68-4.19,0-3.47.8-6.24,2.39-8.22,1.57-1.97,3.66-2.97,6.19-2.97,2.99,0,5.2.95,6.57,2.83,1.39,1.9,2.09,4.62,2.09,8.1v10.58Z"/>
        <path class="cls-1" d="M449.95,358.66c1.56,0,2.94-.59,4.11-1.76,1.17-1.17,1.76-2.58,1.76-4.2s-.59-3.03-1.76-4.2c-1.17-1.17-2.55-1.76-4.11-1.76-1.68,0-3.08.59-4.16,1.77-1.08,1.17-1.62,2.58-1.62,4.19s.55,3.03,1.62,4.19c1.08,1.17,2.48,1.77,4.16,1.77Z"/>
      </g>
      <path class="cls-1" d="M261.91,268.64c-1.78,0-3.42.55-4.77,1.5-.17.12-.35.25-.5.39-.13.11-.92.77-1.37,1.07-.37.24-.69.4-.91.51-2.54,1.18-8.92,3.28-12.64-3.08h0s0,0,0,0c-.33,0-.66,0-1.01,0-17.81-.24-34.75-7.42-47.69-20.2-12.93-12.77-20.3-29.6-20.75-47.39-.32-12.74,2.78-25.23,8.98-36.11l.28-.48c.99-1.71,2.08-3.41,3.25-5.08l.77-1.09.52-.74.49-.76.45-.7,53.9-79.99s.54-.77.73-1,.43-.52.64-.76c.37-.42,1.05-1.06,2.02-1.62,2.32-1.32,6.18-2.24,10.43.71.17.12.76.51.9.6,1.33.88,2.91,1.4,4.63,1.4,4.63,0,8.38-3.75,8.38-8.38,0-4.63-3.75-8.38-8.38-8.38-2.04,0-3.92.73-5.37,1.95-.38.32-1.26,1.14-1.55,1.44-1.48,1.56-6.32,5.89-10.22.35-.19-.26-.7-1.07-.88-1.89-.36-1.6-.65-4.55,2.52-5.63.07-.02.4-.1.48-.12,1.76-.33,3.33-1.21,4.51-2.45.07-.08.77-.79.9-.89,5.15-4.38,10.84-1.62,13.08-.2.15.1.61.43.72.51.88.63,1.95,1.01,3.12,1.01,2.94,0,5.33-2.39,5.33-5.33,0-2.94-2.39-5.33-5.33-5.33-.7,0-1.37.14-1.98.38-.17.07-.33.15-.49.24-.13.07-.78.5-.97.64-6.11,4.31-11.22.68-12.84-.75-.35-.31-.87-1.01-1.06-1.24-1.09-1.38-2.61-2.4-4.35-2.87h0s-4.17-1.05-4.17-5.46v-4.42c0-3.08,1.29-4.5,2.24-5.14.18-.12.66-.33.89-.43.05-.02.17-.07.2-.08,2.97-1.29,5.05-4.25,5.05-7.69,0-2.93-1.51-5.51-3.79-7.01-.11-.07-.23-.15-.37-.23-.01,0-.03-.02-.05-.02-.02-.01-.04-.02-.06-.03-3.89-2.17-4.1-7.8-4.11-8.28V0h0s-16.53,24.53-16.53,24.53l-73.34,108.83-.72,1.12-.77,1.09c-1.86,2.65-3.62,5.39-5.21,8.15l-.35.6c-10.05,17.58-15.08,37.67-14.56,58.14.73,28.71,12.53,55.79,33.23,76.24,20.71,20.46,47.93,31.94,76.66,32.33.53,0,1.06.01,1.58.01h0c4.63,0,8.38-3.75,8.38-8.38,0-3.03-1.69-5.62-4.11-7.09-.04-.02-.26-.16-.34-.21-.5-.28-1.19-.72-1.5-.93-.16-.12-.31-.25-.49-.4-.97-.81-1.94-2.19-2-4.15-.01-.36-.02-1.76.35-2.93.18-.57.44-1.22.83-1.87.29-.47.76-1,.9-1.14.44-.44.95-.89,1.54-1.29.02-.01.03-.02.05-.03,2.4-1.6,6.01-2.42,10.91.65.05.03.09.06.14.09.12.08.5.32.58.38,1.39,1.02,3.1,1.62,4.95,1.62,4.63,0,8.38-3.75,8.38-8.38,0-4.63-3.75-8.38-8.38-8.38Z"/>
      <g>
        <circle class="cls-2" cx="279.87" cy="67.41" r="5.33"/>
        <path class="cls-2" d="M294.65,94.06c2.94,0,5.33-2.39,5.33-5.33,0-2.94-2.39-5.33-5.33-5.33s-5.33,2.39-5.33,5.33,2.39,5.33,5.33,5.33Z"/>
        <circle class="cls-2" cx="260.59" cy="297.07" r="5.33"/>
        <path class="cls-2" d="M335.82,155.46c2.94,0,5.33-2.39,5.33-5.33s-2.39-5.33-5.33-5.33-5.33,2.39-5.33,5.33,2.39,5.33,5.33,5.33Z"/>
        <path class="cls-2" d="M339.97,206.39c-4.63,0-8.38,3.75-8.38,8.38s3.75,8.38,8.38,8.38,8.38-3.75,8.38-8.38c0-4.63-3.75-8.38-8.38-8.38Z"/>
        <path class="cls-2" d="M338.86,181.78c4.63,0,8.38-3.75,8.38-8.38s-3.75-8.38-8.38-8.38-8.38,3.75-8.38,8.38,3.75,8.38,8.38,8.38Z"/>
        <path class="cls-2" d="M279.45,287.07c-4.63,0-8.38,3.75-8.38,8.38s3.75,8.38,8.38,8.38,8.38-3.75,8.38-8.38c0-4.63-3.75-8.38-8.38-8.38Z"/>
        <circle class="cls-2" cx="273.25" cy="107.49" r="8.38"/>
        <circle class="cls-2" cx="284.27" cy="128.82" r="5.33"/>
        <circle class="cls-2" cx="280.15" cy="277.01" r="5.33"/>
        <path class="cls-2" d="M311.34,173.4c0,2.94,2.39,5.33,5.33,5.33,2.94,0,5.33-2.39,5.33-5.33,0-2.94-2.39-5.33-5.33-5.33s-5.33,2.39-5.33,5.33Z"/>
        <path class="cls-2" d="M290,263.97c2.94,0,5.33-2.39,5.33-5.33s-2.39-5.33-5.33-5.33-5.33,2.39-5.33,5.33,2.39,5.33,5.33,5.33Z"/>
        <circle class="cls-2" cx="316.12" cy="215.67" r="5.33"/>
        <path class="cls-2" d="M305.1,245.89c4.63,0,8.38-3.75,8.38-8.38,0-4.63-3.75-8.38-8.38-8.38s-8.38,3.75-8.38,8.38,3.75,8.38,8.38,8.38Z"/>
        <path class="cls-2" d="M291.9,112.5c.8,0,1.56-.16,2.24-.48.12-.06.23-.12.34-.18.43-.25,1.6-1.18,1.71-1.25.11-.07.21-.14.31-.2,2.82-1.69,5.2-.8,6.53.04.27.17.97.77,1.13.89,0,0,0,0,0,0h0c.91.73,2.07,1.17,3.33,1.17,2.94,0,5.33-2.39,5.33-5.33,0-2.94-2.39-5.33-5.33-5.33-.93,0-1.81.24-2.57.67-.21.12-.41.25-.6.39-.15.11-.76.54-.93.63-.27.13-.53.25-.79.35-2.3.86-4.41.48-5.93-.11-.25-.1-1.26-.65-1.69-.92-.29-.18-.57-.36-.74-.44,0,0,0,0,0,0h0c-.71-.34-1.5-.54-2.33-.54-2.94,0-5.33,2.39-5.33,5.33s2.39,5.33,5.33,5.33Z"/>
        <path class="cls-2" d="M324.03,200.38c.13-.11.26-.21.39-.31,6.32-5,10.79-3.52,12.68-2.42.24.14.77.54,1.02.7.6.41,1.76,1.04,3.04.97,2.94-.16,5.33-2.39,5.33-5.33s-2.39-5.33-5.33-5.33c-.85,0-1.65.2-2.36.55-.1.05-.29.15-.48.27-.29.17-1.1.59-1.3.68-4.05,1.76-7.82.5-10.05-.66-.29-.15-1.37-.87-1.73-1.17-.39-.33-.76-.66-.91-.8-1.27-1.11-2.87-1.85-4.64-2.03-.29-.03-.58-.04-.87-.04h-.24c-.3,0-.6.02-.89.05-4.21.44-7.49,4-7.49,8.33,0,4.63,3.75,8.38,8.38,8.38.04,0,.08,0,.12,0,.04,0,.08,0,.12,0,1.24,0,2.41-.28,3.46-.76.07-.03,1.21-.6,1.77-1.06Z"/>
        <path class="cls-2" d="M310.35,124.02c1.8,1.34,4.91,2.79,8.49.72.16-.09.87-.55,1.08-.66.73-.38,1.56-.59,2.44-.59,2.94,0,5.33,2.39,5.33,5.33s-2.39,5.33-5.33,5.33c-.96,0-1.86-.26-2.64-.7-.14-.08-.27-.16-.4-.26h0s0,0-.01-.01c-.07-.05-.71-.48-1.12-.67-1.69-.75-5.15-1.4-9.69,2.5-.01.01-.03.02-.04.03-.17.15-.35.28-.54.42,0,0-.01,0-.02.01-1.37.98-3.05,1.56-4.86,1.56-4.63,0-8.38-3.75-8.38-8.38s3.75-8.38,8.38-8.38c1.79,0,3.44.56,4.8,1.52.32.22.61.46.9.73h0s0,0,.01.02c.23.21,1.23,1.19,1.61,1.48Z"/>
        <path class="cls-2" d="M299.56,158.15c.93,0,1.81-.24,2.57-.66v.02s.04-.03.06-.05c.45-.26.85-.59,1.22-.95.88-.85,1.34-1.06,1.43-1.1,3.14-1.59,6.13-.2,7.6,1.08.17.15.83.77,1,.94.18.17.36.34.55.5h0s0,0,0,0c.21.18.44.34.67.5,1.33.89,2.93,1.41,4.65,1.41,4.63,0,8.38-3.75,8.38-8.38s-3.75-8.38-8.38-8.38c-2.02,0-3.88.72-5.32,1.91h0s0,0,0,0c-.44.37-.83.76-1.2,1.23-.3.38-.73.92-1.07,1.32-.21.25-.84.82-1.01.96-2.6,1.98-4.84,1.92-6.24,1.2-.36-.18-.69-.4-.95-.57-.24-.16-.66-.51-.75-.58-.89-.67-1.99-1.06-3.18-1.06-2.94,0-5.33,2.39-5.33,5.33,0,2.94,2.39,5.33,5.33,5.33Z"/>
        <path class="cls-2" d="M339.35,231.86c-1.11,0-2.13.34-2.98.92-.22.15-1.04.73-1.66,1.01-.75.33-1.5.49-2.21.56-1.76.18-3.32-.27-4.46-.78-.16-.07-.78-.43-1.09-.64s-.65-.42-.86-.52c0,0,0,0,0,0h0c-.71-.34-1.5-.54-2.33-.54-2.94,0-5.33,2.39-5.33,5.33s2.39,5.33,5.33,5.33c.69,0,1.35-.13,1.95-.37.15-.06.29-.12.43-.19.22-.11.66-.42.99-.67.43-.33.94-.71,1.05-.77,3.11-1.98,5.71-.79,6.99.11.15.11.7.58.85.71,0,0,0,0,0,0h0c.91.73,2.07,1.17,3.33,1.17,2.94,0,5.33-2.39,5.33-5.33s-2.39-5.33-5.33-5.33Z"/>
        <path class="cls-2" d="M326.94,247.9c-2.48,0-4.56,1.11-6.24,2.8h0c-5.32,5.28-9.29,2.99-10.28,2.27-.16-.11-.24-.19-.24-.19h0c-.06-.05-.12-.1-.18-.15-.9-.69-2.02-1.1-3.24-1.1-2.94,0-5.33,2.39-5.33,5.33,0,2.94,2.39,5.33,5.33,5.33,1.31,0,2.5-.47,3.43-1.25h0s0,0,0,0c.15-.13.7-.64.83-.75,4.07-3.32,7.64-.51,9.04.93.1.11.51.58.64.72,0,0,0,0,0,0h0c1.53,1.71,3.76,2.8,6.24,2.8,4.63,0,8.38-3.75,8.38-8.38s-3.75-8.38-8.38-8.38Z"/>
        <path class="cls-2" d="M318.12,270.33c-.85,0-1.69.19-2.35.56-.07.04-.67.38-1.41,1.07-.18.17-.78.7-1.15.92s-.72.37-1.07.5c-2.54.95-4.81.03-6.36-1.01-.15-.1-.3-.21-.43-.31-.29-.22-.81-.72-.92-.84-.23-.24-.47-.47-.73-.68h0s0,0,0,0c-1.45-1.19-3.3-1.91-5.32-1.91-4.63,0-8.38,3.75-8.38,8.38s3.75,8.38,8.38,8.38c2.02,0,3.88-.72,5.32-1.91h0s0,0,0,0c.31-.26.61-.54.88-.84.33-.36,1.21-1.54,1.65-1.99.17-.17.37-.35.54-.49.53-.42,1.04-.76,1.54-1.01,1.95-1.02,3.6-.86,4.8-.41.18.07.34.14.5.21.49.25,1.06.78,1.13.84.92.76,2.1,1.22,3.38,1.22,2.94,0,5.33-2.39,5.33-5.33s-2.39-5.33-5.33-5.33Z"/>
        <path class="cls-2" d="M276.82,79.75c-1.92,0-3.68.65-5.09,1.74h0c-.19.14-.58.52-.96.88s-1.07,1-1.2,1.1c-4.3,3.37-7.42,2.16-8.55,1.49-.3-.18-.72-.47-.83-.55-.87-.62-1.9-1.01-3.05-1.01-2.94,0-5.33,2.39-5.33,5.33s2.39,5.33,5.33,5.33c1.3,0,2.49-.47,3.42-1.24h0s0,0,.01-.01c.12-.1,1.08-1.01,1.58-1.26.34-.17.69-.3,1.04-.39,2.32-.56,4.83.74,6.54,1.95.22.15.93.73,1.19.97.24.22.49.44.63.55.08.07.16.13.25.19.02.02.04.04.04.04h0c1.39,1.02,3.11,1.63,4.97,1.63,4.63,0,8.38-3.75,8.38-8.38s-3.75-8.38-8.38-8.38Z"/>
        <circle class="cls-2" cx="255.4" cy="30.32" r="5.33"/>
      </g>
    </g>
  </g>
</svg>