<?xml version="1.0" encoding="UTF-8"?>
<svg id="Layer_2" data-name="Layer 2" xmlns="http://www.w3.org/2000/svg" viewBox="0 0 265.45 171.17">
  <defs>
    <style>
      .cls-1, .cls-2 {
        fill: #fff;
      }

      .cls-3 {
        fill: #a41f35;
      }

      .cls-2, .cls-4 {
        fill-rule: evenodd;
      }

      .cls-5, .cls-4 {
        fill: #929496;
      }
    </style>
  </defs>
  <g id="Layer_1-2" data-name="Layer 1">
    <rect class="cls-3" x="109.41" y="82.07" width="8.14" height="13.66"/>
    <path class="cls-3" d="M164.81,82.25h-15.26c.29-.04.94-.29,1.24-.38,2.13-.63,3.5-1.29,5-2.11,2.14-1.18,3.32-3.27,3.32-5.78v-18.7s0-3.04,0-3.04V16.29c0-10.48,6.62-16.16,14.83-16.29h15.26c-.3.04-.94.29-1.24.38-2.13.63-3.5,1.28-5,2.1-2.14,1.18-3.32,3.27-3.32,5.78v43.98s0,13.72,0,13.72c0,10.48-6.61,16.16-14.82,16.29"/>
    <path class="cls-3" d="M132.57,82.25h15.26c-.29-.04-.94-.29-1.24-.38-2.13-.63-3.5-1.29-5-2.11-2.14-1.18-3.32-3.27-3.32-5.78V16.29c0-10.48-6.62-16.16-14.82-16.29h-15.26c.3.04.93.29,1.24.38,2.13.63,3.5,1.28,5,2.1,2.14,1.18,3.32,3.27,3.32,5.78v43.98s0,13.72,0,13.72c0,10.48,6.61,16.16,14.82,16.29"/>
    <path class="cls-3" d="M91.08,82.25c-8.21-.13-14.83-5.82-14.83-16.29V16.29c0-10.48,6.62-16.16,14.83-16.29h15.26c-.3.04-.93.29-1.24.38-2.13.63-3.5,1.28-4.99,2.1-2.14,1.18-3.32,3.27-3.32,5.78,0,21.91,0,43.82,0,65.72,0,2.51,1.18,4.6,3.32,5.78,1.5.82,2.86,1.47,4.99,2.11.31.09.95.34,1.24.38h-15.26"/>
    <path class="cls-2" d="M6.94,156.17c0-4.8,3.82-8.62,8.51-8.62s8.51,3.82,8.51,8.62-3.82,8.62-8.51,8.62-8.51-3.82-8.51-8.62M32.58,165.74h-7.8v-.08c3.82-1.69,5.55-5.55,5.55-9.49,0-8.39-6.62-14.29-14.89-14.29s-14.88,5.87-14.88,14.29c0,8.98,6.41,14.29,15.12,14.29h16.89v-4.72Z"/>
    <path class="cls-2" d="M51.15,159.36h-6.81l3.39-8.67,3.43,8.67ZM33.31,170.46h6.77l2.32-5.9h10.83l2.4,5.9h6.93l-12.13-27.88h-5.08l-12.05,27.88Z"/>
    <polygon class="cls-1" points="67.71 170.46 73.86 170.46 73.86 148.02 81.81 148.02 81.81 142.58 59.76 142.58 59.76 148.02 67.71 148.02 67.71 170.46"/>
    <path class="cls-2" d="M96.85,159.36h-6.81l3.38-8.67,3.43,8.67ZM79.01,170.46h6.77l2.32-5.9h10.83l2.4,5.9h6.93l-12.13-27.88h-5.08l-12.05,27.88Z"/>
    <path class="cls-2" d="M117.78,147.78h4.02c2.24,0,4.76.43,4.76,3.23,0,3.03-2.92,3.11-5.16,3.11h-3.62v-6.34M111.64,170.46h6.15v-11.14h3.03l5.83,11.14h7.36l-7.09-11.77c3.94-.71,6.03-3.74,6.03-7.64,0-6.5-4.81-8.47-10.51-8.47h-10.79v27.88Z"/>
    <path class="cls-1" d="M167.97,144.79c-2.36-2.09-5.4-2.91-8.55-2.91-5.47,0-10.63,3.11-10.63,9.06,0,9.29,13.07,6.54,13.07,11.66,0,1.97-2.24,2.91-4.25,2.91s-4.1-.99-5.35-2.64l-4.37,4.81c2.64,2.44,5.79,3.5,9.37,3.5,5.75,0,10.75-2.95,10.75-9.18,0-9.76-12.84-6.5-12.84-11.58,0-2.09,2.4-2.88,4.13-2.88,1.5,0,3.46.59,4.45,1.85l4.21-4.61"/>
    <polygon class="cls-1" points="178.55 170.46 184.7 170.46 184.7 148.02 192.65 148.02 192.65 142.58 170.6 142.58 170.6 148.02 178.55 148.02 178.55 170.46"/>
    <polygon class="cls-1" points="196.58 170.46 216.23 170.46 216.23 164.79 202.73 164.79 202.73 159.09 214.82 159.09 214.82 153.41 202.73 153.41 202.73 148.26 215.53 148.26 215.53 142.58 196.58 142.58 196.58 170.46"/>
    <polygon class="cls-1" points="221.97 170.46 241.62 170.46 241.62 164.79 228.12 164.79 228.12 159.09 240.2 159.09 240.2 153.41 228.12 153.41 228.12 148.26 240.91 148.26 240.91 142.58 221.97 142.58 221.97 170.46"/>
    <polygon class="cls-1" points="247.36 170.46 264.88 170.46 264.88 164.79 253.5 164.79 253.5 142.58 247.36 142.58 247.36 170.46"/>
    <path class="cls-5" d="M22,98.84h-3.35v23c0,2.79-3.77,5.44-8.46,5.44s-6.82-2.46-6.82-5.11c0-3.95,2.68-5.44,5.48-5.44l-1.16-3.21s-7.68.78-7.68,9.02c0,2.65,1.71,8.09,9.81,8.09,6.52,0,10.22-2.8,11.56-5.45h3.65v-3.35h-3.02v-23"/>
    <path class="cls-4" d="M23.78,121.84v3.35l27.94.04v-3.39h-4.25v-10.44h-3.35v10.44h-20.34M47.26,127.28c-1.27.15-2.13,1.31-1.98,2.57.15,1.27,1.34,2.16,2.61,1.98,1.27-.19,2.09-1.3,1.94-2.57-.15-1.27-1.31-2.12-2.57-1.98M42.33,127.28c-1.27.15-2.12,1.31-1.98,2.57.15,1.27,1.34,2.16,2.61,1.98,1.27-.19,2.09-1.3,1.94-2.57-.15-1.27-1.3-2.12-2.57-1.98"/>
    <path class="cls-4" d="M50.08,121.84v3.35l27.94.04v-3.39h-4.25v-10.44h-3.36v10.44h-20.33M73.54,104.02c-1.27.15-2.13,1.31-1.98,2.57.15,1.27,1.34,2.16,2.61,1.98,1.27-.19,2.09-1.3,1.94-2.57-.15-1.27-1.31-2.12-2.57-1.98M68.62,104.02c-1.27.15-2.12,1.31-1.98,2.57.15,1.27,1.34,2.16,2.61,1.98,1.27-.19,2.09-1.3,1.94-2.57-.15-1.27-1.31-2.12-2.57-1.98"/>
    <polygon class="cls-5" points="118.13 125.19 118.13 121.84 116.9 121.84 116.9 108.79 113.54 110.5 113.54 121.84 76.36 121.84 76.36 125.19 118.13 125.19"/>
    <polygon class="cls-5" points="138.28 125.19 138.28 107.74 134.92 109.46 134.92 121.84 127.42 121.84 127.42 107.33 124.06 109.05 124.06 121.84 116.48 121.84 116.48 125.19 138.28 125.19"/>
    <path class="cls-5" d="M160.68,125.19l36.73.04v-3.39h-36.73v-10.52h-3.36v13.01c0,5.03-5.03,4.88-9.47,4.88l-.63,3.43c5.26,0,8.46-.37,10.37-1.83,1.19-.71,3.09-3.02,3.09-5.63"/>
    <path class="cls-4" d="M199.75,121.84h-3.73v3.35h26.47c4.47,0,8.35-2.2,8.35-7.12,0-5.18-3.88-6.75-8.35-6.75h-18.64v3.43h18.27s4.96-.3,4.96,3.32c0,3.17-2.35,3.77-4.96,3.77h-19.02v-23.16l-3.35-.04v23.19M238.39,125.19h-11.61s1.87-.82,2.65-1.6c.6-.59,1.34-1.75,1.34-1.75h7.62v3.35Z"/>
    <path class="cls-4" d="M236.92,121.84v3.36h16.29c9.59,0,12.19.34,12.23-7.23.04-6.08-6.15-11.56-13.27-11.56-4.92,0-9.51,3.66-11.08,8.32-.67,1.94-.3,5.26-.3,5.26l15.03-.07c-.34.19,1.53-2.43,2.05-3.35-5.56.19-8.91,0-13.39.04.07-4.14,4.92-6.9,7.57-6.94,3.06-.03,10.03,2.69,10.03,9.33,0,1.98-.26,2.87-1.94,2.87h-23.23M253.93,98.87c-1.27.15-2.12,1.3-1.98,2.57.15,1.27,1.34,2.16,2.61,1.98,1.27-.18,2.09-1.3,1.94-2.57-.15-1.27-1.3-2.12-2.57-1.97M249.01,98.87c-1.26.15-2.12,1.3-1.98,2.57.15,1.27,1.35,2.16,2.61,1.98,1.27-.18,2.09-1.3,1.94-2.57-.15-1.27-1.3-2.12-2.57-1.97"/>
  </g>
</svg>