<?xml version="1.0" encoding="UTF-8"?>
<svg id="Layer_2" data-name="Layer 2" xmlns="http://www.w3.org/2000/svg" viewBox="0 0 424 409.31">
  <defs>
    <style>
      .cls-1 {
        fill: #79aafa;
      }

      .cls-2 {
        fill: none;
      }

      .cls-3 {
        fill: #faff1e;
      }

      .cls-4 {
        fill: #ed3c8a;
      }

      .cls-5 {
        fill: #ffc200;
      }
    </style>
  </defs>
  <g id="Layer_1-2" data-name="Layer 1">
    <g>
      <rect class="cls-2" width="424" height="409.31"/>
      <g>
        <rect class="cls-5" x="242.3" y="125.13" width="86.68" height="85.64"/>
        <polygon class="cls-3" points="213.66 96.94 213.66 180.2 289.99 138.57 213.66 96.94"/>
        <path class="cls-4" d="M210.83,172.28l-15.72-15.72-16.1,16.1c-1.49,13.72-8.85,25.65-19.51,33.28l35.61,35.62,42.5-42.5-19.63-19.62-7.14,3.89v-11.04Z"/>
        <circle class="cls-1" cx="137.5" cy="168.47" r="43.07"/>
        <g>
          <rect x="289.52" y="262.75" width="4.3" height="4.6"/>
          <path d="M179.53,270.04c-2.94-.1-4.41-.1-6.71-.1-6.32,0-8.33,3.37-8.33,7.15v.38c0,1.87.34,3.05.97,4.08v.2h-20.85v-3c0-5.82-2.54-8.81-8.63-8.81h-.78c-1.57,0-3.91.29-5.58,1.13v-8.32h-4.6v19.01h-23.47v-10.78h-4.64v13.56c0,2.19-.88,3.19-3.1,3.19h-1.22v4.06h1.82c4.07,0,6.47-1.85,7.01-5.48h78.11v-16.26ZM140.12,281.75h-10.49v-6.48c1.12-.83,3.58-1.11,4.8-1.11h.97c2.86,0,4.71,1.27,4.71,4.4v3.19ZM175.12,281.75h-2.88c-2.26,0-3.43-1.04-3.43-4.03v-.35c0-2.49,1.36-3.52,3.9-3.52h2.41v7.89Z"/>
          <rect x="223.38" y="262.75" width="4.61" height="4.6"/>
          <rect x="296.03" y="262.75" width="4.26" height="4.6"/>
          <path d="M261.87,278.76c0-5.82-2.5-8.81-8.58-8.81-1.91,0-4.31.49-6.27,1.81l1.82,3.42c1.46-.78,3.07-1.02,4.31-1.02,2.84,0,4.21,1.27,4.21,4.24v3.35h-26.49v-.14c1.48-1.19,2.31-2.81,2.31-5v-.5c0-4.65-3.78-6.66-7.73-6.66-3.74,0-7.75,1.82-7.75,6.66v.5c0,2.01.54,3.76,2.2,5v.14h-14.07c-3.77,0-6.27-1.04-6.27-5.79v-2.49h-4.21c-.15,1.42-.19,2.79-.19,3.42,0,6.96,3.72,9.41,9.89,9.41h13.67c1.81,0,4.8-.2,6.72-.83,2.05.64,4.35.83,6.45.83h29.97v-7.54ZM228.81,276.79c0,2.89-1.4,3.83-3.35,4.16-1.83-.33-3.44-1.16-3.44-4.16v-.48c0-2.15,1.36-3.14,3.44-3.14,1.84,0,3.35.9,3.35,3.14v.48Z"/>
          <path d="M323.83,287.87h.74c4.79,0,7.34-2.99,7.34-7.6v-9.26c-2.95-.1-4.61-.1-6.91-.1-6.32,0-8.62,2.98-8.62,8.82v.19c0,.64.04,1.28.09,1.83h-19.23v-10.77h-4.6v10.77h-19.98v-19.01h-4.6v23.55h50.22c1.82,1.18,3.47,1.57,5.53,1.57ZM320.9,279.2c0-2.99,1.07-4.07,4.15-4.07h2.31v4.7c0,2.51-.89,3.67-2.99,3.67h-.49c-1.91,0-2.98-1.12-2.98-3.67v-.63Z"/>
          <rect x="173.64" y="262.75" width="4.25" height="4.6"/>
          <rect x="167.14" y="262.75" width="4.3" height="4.6"/>
          <path d="M245.38,313.59c-1.84,0-3.48-.28-5.2-1.65l-2.72,3.42c2.38,2.04,4.98,2.6,7.96,2.6,4.27,0,7.86-2.27,7.86-6.58,0-3.26-1.37-5.55-5.75-6.31l-2.27-.38c-1.44-.23-2.11-.84-2.11-2s.89-2.09,2.71-2.09c1.22,0,2.76.16,4.43,1.38l2.61-3.44c-1.95-1.54-4.03-2.2-6.91-2.2-4.66,0-7.47,2.59-7.47,6.42,0,3.58,1.77,5.57,5.69,6.23l2.44.47c1.33.21,1.98.82,1.98,1.97,0,1.33-1.22,2.17-3.26,2.17Z"/>
          <path d="M274.04,296.66v13.23c0,5.26,2.97,8.07,8.24,8.07,4.64,0,8.13-2.82,8.13-8.07v-13.23h-4.7v12.73c0,2.98-1.18,4.21-3.43,4.21s-3.44-1.22-3.44-4.21v-12.73h-4.8Z"/>
          <path d="M218.61,296.66v13.23c0,5.26,2.97,8.07,8.24,8.07,4.65,0,8.13-2.82,8.13-8.07v-13.23h-4.7v12.73c0,2.98-1.16,4.21-3.43,4.21s-3.43-1.22-3.43-4.21v-12.73h-4.81Z"/>
          <polygon points="313.76 317.62 313.76 296.66 309.65 296.66 304.4 307.23 298.93 296.66 294.84 296.66 294.84 317.62 299.26 317.62 299.26 306.4 299.43 306.4 302.75 313.09 305.78 313.09 309.1 306.34 309.28 306.34 309.28 317.62 313.76 317.62"/>
          <path d="M324.43,313.59c-1.82,0-3.48-.28-5.2-1.65l-2.71,3.42c2.37,2.04,4.98,2.6,7.96,2.6,4.26,0,7.85-2.27,7.85-6.58,0-3.26-1.37-5.55-5.75-6.31l-2.27-.38c-1.44-.23-2.11-.84-2.11-2s.88-2.09,2.72-2.09c1.22,0,2.76.16,4.42,1.38l2.6-3.44c-1.94-1.54-4.04-2.2-6.93-2.2-4.64,0-7.45,2.59-7.45,6.42,0,3.58,1.76,5.57,5.69,6.23l2.43.47c1.32.21,1.99.82,1.99,1.97,0,1.33-1.22,2.17-3.26,2.17Z"/>
          <path d="M169.41,309.78h2.49l3.65,7.91h5.08l-4.31-8.58c2.44-.89,3.76-3.28,3.76-6.03,0-3.72-2.83-6.36-7.07-6.36h-8.31v20.97h4.7v-7.91ZM169.41,300.58h2.88c1.94,0,3.15.85,3.15,2.66s-1.21,2.78-3.15,2.78h-2.88v-5.44Z"/>
          <polygon points="214.18 317.62 214.18 296.66 210.08 296.66 204.83 307.23 199.34 296.66 195.25 296.66 195.25 317.62 199.68 317.62 199.68 306.4 199.85 306.4 203.17 313.09 206.2 313.09 209.53 306.34 209.7 306.34 209.7 317.62 214.18 317.62"/>
          <path d="M108.27,304.41c0-5.25-3.04-8.06-8.29-8.06-4.64,0-8.3,2.81-8.3,8.06v5.54c0,5.26,2.83,8.07,7.86,8.07,1.49,0,2.93-.27,4.09-.94l2.27,1.99,3.37-2.83-2.33-2.15c.9-1.34,1.33-3.33,1.33-5.36v-4.33ZM103.47,309.72c0,.56-.06,1.05-.1,1.49l-1.34-1.33-2.81,2.66,1.54,1.31c-.27.07-.5.07-.77.07-2.2,0-3.48-1.21-3.48-4.21v-5.03c0-2.99,1.21-4.2,3.48-4.2s3.49,1.21,3.49,4.2v5.03Z"/>
          <polygon points="270.99 313.65 261.64 313.65 261.64 309.11 269.06 309.11 269.06 305.02 261.64 305.02 261.64 300.65 270.39 300.65 270.39 296.66 256.82 296.66 256.82 317.62 270.99 317.62 270.99 313.65"/>
          <polygon points="138.54 317.69 138.54 301.14 144.35 301.14 144.35 296.72 127.92 296.72 127.92 301.14 133.73 301.14 133.73 317.69 138.54 317.69"/>
          <path d="M118.23,296.72l-7.64,20.97h4.87l1.28-3.71h6.47l1.22,3.71h5.2l-7.48-20.97h-3.92ZM117.9,310.1l2.16-6.58h.17l2,6.58h-4.32Z"/>
          <path d="M148.78,313.98h6.47l1.21,3.71h5.19l-7.46-20.97h-3.92l-7.64,20.97h4.87l1.28-3.71ZM152.09,303.52h.17l2,6.58h-4.33l2.16-6.58Z"/>
          <path d="M240.93,198.38v15.5h90.98v-90.98h-66.41l-54.64-31.55v76.73l-16.26-16.26-12.24,12.24c-2.19-23.06-21.66-41.17-45.28-41.17-25.08,0-45.49,20.41-45.49,45.49s20.41,45.49,45.49,45.49c7.72,0,14.98-1.94,21.36-5.34l36.17,36.17,46.33-46.33ZM240.93,198.15l-18.9-18.9,18.9-10.91v29.81ZM327.32,127.49v81.8h-81.8v-43.6l47.04-27.16-19.11-11.03h53.86ZM215.46,172.68v-73.37l40.86,23.59,7.96,4.59,19.11,11.03-37.85,21.86-4.59,2.65-22.27,12.85-3.21,1.85v-5.06ZM155.02,205.13c-5.42,2.66-11.51,4.16-17.95,4.16-22.55,0-40.9-18.35-40.9-40.9s18.35-40.9,40.9-40.9,40.9,18.35,40.9,40.9c0,.02,0,.04,0,.06,0,2.44-.23,4.82-.65,7.14-2.03,11.38-8.78,21.14-18.16,27.18-1.33.86-2.71,1.65-4.15,2.35ZM182.52,170.4l12.08-12.08,16.26,16.26v11.12l7.05-4.07,16.64,16.64-39.95,39.95-32.11-32.11c11.58-7.83,19.37-20.85,20.02-35.7Z"/>
        </g>
      </g>
    </g>
  </g>
</svg>