<?xml version="1.0" encoding="UTF-8"?>
<svg id="Layer_2" data-name="Layer 2" xmlns="http://www.w3.org/2000/svg" viewBox="0 0 113.53 96.19">
  <defs>
    <style>
      .cls-1 {
        fill: #891635;
      }

      .cls-2 {
        fill: #3069b3;
      }
    </style>
  </defs>
  <g id="Layer_1-2" data-name="Layer 1">
    <g>
      <g>
        <g>
          <path class="cls-2" d="M51.96,33.36c.04-.93.14-1.7.18-2.54,1.78.33,3,1.7,3.35,2.06,1.09,1.11,1.85,1.6,2.14,1.77,0,0,.02.02.03.02-.25,0-.5,0-.74.03,1.88-.09,3.31.56,3.39.6-.03-.02-.06-.04-.1-.06-.5-.25-.88-.66-1.18-1.04-.56-.74-.98-1.39-1.49-2.06,1.58-.9,3.38-.63,3.88-.59,1.54.15,2.44.03,2.77-.03,0,0,.03,0,.04,0-.03.03-.07.06-.1.09,1.42-1.09,2.93-1.38,2.93-1.38h0c-.17.02-.34.04-.51.08-.55.13-1.09.06-1.57-.03-.91-.2-1.64-.43-2.46-.62.63-1.71,2.19-2.67,2.6-2.96,1.28-.88,1.89-1.55,2.1-1.81,0,0,.02-.02.03-.02-.02.13-.04.26-.06.39.35-2.05,1.4-3.21,1.4-3.21h0c-.12.13-.23.25-.34.39-.33.45-.8.75-1.22.99-.82.43-1.53.73-2.28,1.12-.61-1.72-.03-3.46.1-3.94.41-1.5.45-2.41.45-2.75,0-.01,0-.02,0-.03.41.76,1.05,1.51,1.05,1.51h0s.03.03.04.04c.09.11.2.21.3.31-2.25-2.46-2.17-4.9-2.17-4.9h0c0,.17-.01.34-.01.52.03.56-.13,1.09-.3,1.55-.36.86-.71,1.55-1.03,2.33-1.56-.92-2.24-2.63-2.44-3.08-.64-1.42-1.19-2.14-1.41-2.4,0,0-.01-.02-.02-.03.22.09.45.16.68.22-1.74-.58-2.88-1.63-2.88-1.63.38.41.6.92.76,1.38.28.88.47,1.65.72,2.45-1.8.32-3.41-.56-3.86-.78-1.4-.67-2.28-.87-2.61-.92,0,0-.02,0-.03-.01.25-.09.49-.19.72-.3-1.7.74-3.2.67-3.2.67h0c.5.1.96.32,1.34.55.78.5,1.39.97,2.1,1.42-1.17,1.39-2.96,1.76-3.44,1.88-1.5.39-2.3.81-2.59.98,0,0-.02,0-.03.01.02-.03.03-.06.05-.09-.98,1.6-2.27,2.28-2.27,2.28h0c.15-.08.3-.16.46-.25.47-.31,1.01-.43,1.48-.51.91-.12,1.7-.18,2.52-.29,0,1.83-1.15,3.28-1.43,3.69-.9,1.27-1.25,2.11-1.36,2.43,0,0-.01.02-.02.03-.02-.15-.06-.29-.09-.44.38,2.02-.21,3.55-.21,3.55.07-.16.13-.32.19-.49.16-.54.49-.98.81-1.35.63-.69,1.19-1.21,1.76-1.83,1.16,1.4,1.21,3.24,1.25,3.74.12,1.55.39,2.42.51,2.74,0,0,0,.03,0,.03-.14-.12-.29-.24-.44-.35,1.35,1.11,2.03,2.43,2.03,2.43-.22-.52-.25-1.07-.24-1.56ZM49.4,25.66c.52-.66.87-1.31.99-2.01.15-.88.06-2.01-.35-3.05.82-.17,1.51-.44,2.04-.9.68-.57,1.34-1.5,1.68-2.56.73.4,1.44.63,2.14.63.89,0,1.98-.29,2.92-.88.31.78.7,1.41,1.23,1.87.68.57,1.7,1.06,2.8,1.22-.26.79-.37,1.53-.25,2.23.15.88.63,1.92,1.37,2.74-.71.44-1.26.93-1.62,1.55-.44.77-.75,1.87-.7,2.98-.82-.12-1.57-.1-2.23.14-.83.31-1.77.95-2.45,1.83-.55-.63-1.13-1.09-1.79-1.33-.83-.31-1.96-.41-3.05-.18-.02-.84-.17-1.57-.52-2.18-.44-.77-1.24-1.58-2.22-2.11Z"/>
          <path class="cls-2" d="M47.72,17.91c-.04.14-.1.26-.16.39.09-.22.16-.39.16-.39Z"/>
          <path class="cls-2" d="M45.9,25.1c.06.15.1.29.14.43-.08-.25-.14-.44-.14-.44h0Z"/>
          <path class="cls-2" d="M53.16,13.88c.32-.16.55-.29.55-.29-.18.11-.37.2-.55.29Z"/>
          <path class="cls-2" d="M62.89,32.86s-.01.02-.02.03c.01-.02.03-.04.05-.06,0,0-.02.02-.02.03Z"/>
          <path class="cls-2" d="M67.11,27.18c-.01-.2-.03-.4-.03-.6,0,.05,0,.11,0,.11h0s0,.03,0,.06c0,.14.02.28.03.43Z"/>
          <path class="cls-2" d="M62.92,32.82h0s.02-.03.04-.05c0,.01-.04.05-.04.05Z"/>
          <path class="cls-2" d="M67.17,25.3c-.04.27-.06.54-.07.76.02-.26.04-.52.07-.76Z"/>
          <path class="cls-2" d="M55.82,34.83h0c.14-.03.27-.04.4-.06-.23.03-.41.06-.41.06Z"/>
        </g>
        <g>
          <path class="cls-1" d="M80.6,23.5c-.62-1.27-1.69-2.33-2.98-3.08-.32-.19-.66-.35-1.01-.5,1.58-1.39,2.44-3.54,1.97-6.19-.41-2.35-1.78-4.56-3.92-5.6-1.28-.57-2.79-.69-4.26-.43-.37.07-.73.16-1.09.27.32-2.09-.39-4.29-2.45-6.02-1.82-1.53-4.28-2.34-6.58-1.75-1.35.39-2.58,1.27-3.54,2.42-.24.29-.46.59-.66.91-1.09-1.8-3.04-3.03-5.72-3.03-2.37,0-4.77.97-6.16,2.91-.78,1.17-1.16,2.64-1.16,4.14,0,.38.03.75.08,1.12-1.99-.68-4.27-.35-6.32,1.38-1.82,1.53-3.04,3.83-2.86,6.21.15,1.4.8,2.78,1.76,3.92.24.29.5.56.78.81-1.96.77-3.5,2.49-3.96,5.14-.41,2.35.12,4.89,1.78,6.61,1.01.98,2.39,1.61,3.85,1.87.37.07.74.1,1.11.12-1.01,1.85-1.09,4.16.25,6.5,1.19,2.06,3.22,3.67,5.59,3.91,1.4.09,2.86-.31,4.15-1.06.32-.19.63-.4.93-.63.41,2.07,1.83,3.89,4.35,4.81,2.23.82,4.81.73,6.78-.62,1.13-.83,1.99-2.08,2.5-3.49.13-.35.23-.72.31-1.08,1.64,1.32,3.89,1.8,6.41.88,2.23-.82,4.15-2.55,4.8-4.86.34-1.37.2-2.88-.31-4.29-.13-.35-.28-.7-.45-1.03,2.1-.05,4.13-1.14,5.47-3.47,1.19-2.06,1.55-4.64.57-6.82ZM71.51,10.32c2.9-.51,5.59.14,6.05,2.77.6,3.44-2.51,5.35-5.67,5.91-3.22.57-5.8-.32-6.17-2.44-.58-3.33,2.14-5.58,5.79-6.23ZM59.28,3.91c1.89-2.26,4.37-3.51,6.41-1.79,2.67,2.25,1.5,5.72-.57,8.19-2.1,2.52-4.65,3.5-6.29,2.11-2.58-2.18-1.93-5.66.45-8.51ZM49.56,1.39c3.48,0,4.8,3.41,4.8,6.64s-1.32,5.68-3.47,5.68c-3.37,0-5.1-3.08-5.1-6.81,0-2.96,1.11-5.51,3.76-5.51ZM36.75,11.25c2.67-2.25,5.86-.49,7.92,1.98,2.1,2.52,2.62,5.21.98,6.59-2.58,2.18-5.88.93-8.26-1.92-1.89-2.26-2.67-4.94-.64-6.65ZM37.98,31.77c-2.9-.51-5.21-2.05-4.75-4.68.6-3.44,4.18-4.16,7.34-3.6,3.22.57,5.34,2.29,4.97,4.42-.58,3.33-3.91,4.51-7.56,3.87ZM47.3,42c-2.55,1.48-5.3,1.79-6.63-.52-1.74-3.03.54-5.89,3.32-7.5,2.83-1.64,5.56-1.69,6.63.18,1.68,2.93-.11,5.98-3.32,7.85ZM60.98,43.82c-1.01,2.78-2.92,4.8-5.41,3.88-3.27-1.2-3.35-4.86-2.25-7.89,1.12-3.09,3.17-4.89,5.19-4.15,3.16,1.16,3.74,4.65,2.47,8.15ZM61.8,34.62c-.18.43-.29.9-.36,1.39-.25-.17-.52-.34-.79-.51h0c-.11-.07-.23-.14-.35-.21-.07-.03-1.51-.69-3.39-.6-.27.02-.5.05-.69.07-.13.02-.27.03-.4.06h0s-.04,0-.07,0c-.69.13-1.36.33-1.95.65-.41.22-.8.5-1.17.83-.08-.3-.18-.6-.28-.9h0c-.05-.16-.1-.33-.16-.5,0,0-.68-1.32-2.03-2.43-.54-.4-1.07-.71-1.07-.71h0s-.04-.02-.06-.03c-.61-.35-1.25-.62-1.91-.76-.46-.1-.93-.13-1.42-.12.13-.28.25-.57.36-.87h0s.59-1.53.21-3.55c-.08-.35-.16-.66-.24-.91-.05-.14-.08-.29-.14-.43h0s-.01-.04-.02-.06c-.25-.66-.56-1.29-.98-1.82-.28-.37-.63-.7-1.01-1.01.28-.13.55-.28.83-.44,0,0,1.29-.68,2.27-2.28.24-.42.44-.87.57-1.19.05-.13.11-.25.16-.39h0s.02-.03.03-.05c.24-.67.39-1.35.42-2.03.02-.47-.04-.95-.13-1.43.3.08.6.14.92.2h0c.17.04.33.07.51.11.04,0,.08.03.12.03h0s1.5.06,3.2-.68c.14-.06.28-.13.39-.19.18-.09.36-.18.55-.29h0s.04-.02.06-.03c.61-.36,1.16-.78,1.61-1.28.31-.35.58-.75.81-1.18.18.25.37.5.57.75h0c.1.14.21.27.32.41,0,0,1.14,1.05,2.88,1.63.58.17,1.1.26,1.1.26h0s.04,0,.06.01c.69.12,1.39.16,2.06.06.46-.06.92-.2,1.38-.38-.02.31-.04.62-.04.95,0,0-.08,2.44,2.17,4.9.38.4.78.78,1.24,1.06.39.25.83.44,1.3.6-.21.22-.43.45-.64.7,0,0-1.04,1.16-1.4,3.21,0,.02,0,.04,0,.06-.04.24-.06.5-.07.76-.01.25-.02.41-.02.52,0,.19.01.39.03.6.03.56.1,1.11.27,1.62.14.45.36.88.61,1.3-.31.03-.62.07-.93.12,0,0-1.51.29-2.93,1.38-.57.48-1.07,1.06-1.16,1.17-.01.01-.02.03-.04.04h0s-.01.01-.02.02c-.01.02-.03.04-.05.06-.44.54-.81,1.11-1.06,1.73ZM70.96,42.85c-3.27,1.2-5.67-1.56-6.77-4.59-1.12-3.09-.69-5.79,1.32-6.53,3.16-1.16,5.84,1.15,7.11,4.65,1.01,2.78.83,5.56-1.66,6.47ZM79.65,29.18c-1.74,3.03-5.34,2.47-8.12.86-2.83-1.64-4.23-3.99-3.16-5.86,1.68-2.93,5.21-2.9,8.42-1.03,2.55,1.48,4.19,3.72,2.87,6.03Z"/>
          <polygon class="cls-1" points="68.58 22.03 68.58 22.03 68.58 22.03 68.58 22.03"/>
          <polygon class="cls-1" points="67.05 30.22 67.05 30.22 67.05 30.22 67.05 30.22"/>
          <polygon class="cls-1" points="44.72 21.77 44.72 21.77 44.72 21.77 44.72 21.77"/>
          <polygon class="cls-1" points="64.51 14.78 64.52 14.77 64.51 14.77 64.51 14.78"/>
        </g>
      </g>
      <g>
        <g>
          <path class="cls-1" d="M13.11,68.62c-.44.4-.96.71-1.55.94-.59.23-1.17.34-1.74.34-.78,0-1.48-.22-2.12-.66-.64-.44-1.17-1.06-1.59-1.85-1.15-.02-2.19-.3-3.12-.83-.93-.53-1.66-1.25-2.19-2.16-.53-.91-.8-1.92-.8-3.03s.27-2.14.82-3.05c.55-.91,1.3-1.63,2.24-2.15.95-.52,2.01-.78,3.18-.78s2.22.26,3.17.78c.95.52,1.7,1.24,2.25,2.15.55.91.82,1.93.82,3.05,0,1.29-.36,2.44-1.07,3.45-.72,1.01-1.67,1.74-2.85,2.17.5.55,1.01.83,1.55.83.28,0,.59-.08.95-.24.35-.16.72-.38,1.1-.67l.95,1.71ZM3.18,63.25c.33.57.76,1.01,1.31,1.35.55.33,1.14.5,1.79.5s1.23-.16,1.77-.49c.54-.33.96-.78,1.28-1.35.32-.57.47-1.2.47-1.89s-.16-1.3-.47-1.86c-.32-.57-.74-1.01-1.28-1.34-.54-.33-1.13-.49-1.77-.49s-1.24.16-1.8.49c-.55.33-.99.77-1.31,1.34-.32.57-.48,1.19-.48,1.86s.16,1.31.49,1.88Z"/>
          <path class="cls-1" d="M23.09,67.2l-.91-2.26h-5.39l-.91,2.26h-2.71l5.05-11.64h2.71l4.97,11.64h-2.81ZM17.65,62.83h3.67l-1.83-4.52-1.84,4.52Z"/>
          <path class="cls-1" d="M26.13,55.57h9.72v2.23h-3.56v9.41h-2.63v-9.41h-3.54v-2.23Z"/>
          <path class="cls-1" d="M46.02,67.2l-.91-2.26h-5.39l-.91,2.26h-2.71l5.05-11.64h2.71l4.97,11.64h-2.81ZM40.59,62.83h3.67l-1.83-4.52-1.84,4.52Z"/>
          <path class="cls-1" d="M57.36,67.2l-1.84-3.32h-2.68v3.32h-2.63v-11.64h5.05c1.52,0,2.69.35,3.52,1.06.83.7,1.25,1.7,1.25,2.98,0,.9-.19,1.67-.56,2.3s-.91,1.12-1.62,1.45l2.48,3.84h-2.98ZM52.84,61.68h2.43c.73,0,1.29-.17,1.69-.51.39-.34.59-.83.59-1.49s-.2-1.13-.59-1.45c-.39-.33-.96-.49-1.69-.49h-2.43v3.94Z"/>
          <path class="cls-1" d="M66.47,55.57h8.36l-.02,2.18h-5.72v2.86h5.25v2.19h-5.25v4.4h-2.63v-11.64Z"/>
          <path class="cls-1" d="M79.66,64.37c.47.48,1.1.72,1.89.72s1.37-.24,1.83-.72c.45-.48.68-1.14.68-1.98v-6.83h2.63v6.83c0,1.02-.21,1.9-.62,2.65-.42.75-1.01,1.32-1.79,1.73-.78.4-1.69.61-2.74.61s-1.97-.2-2.76-.61c-.79-.41-1.39-.98-1.81-1.73-.42-.75-.63-1.63-.63-2.65v-6.83h2.63v6.83c0,.83.24,1.49.71,1.97Z"/>
          <path class="cls-1" d="M97.25,55.57h2.49v11.64h-2.39l-5.63-7.48v7.48h-2.51v-11.64h2.39l5.65,7.51v-7.51Z"/>
          <path class="cls-1" d="M110.58,56.31c.93.49,1.65,1.18,2.17,2.06.52.88.77,1.89.77,3.02s-.26,2.14-.79,3.02c-.53.88-1.26,1.57-2.2,2.06-.94.49-2.02.74-3.22.74h-4.84v-11.64h4.94c1.19,0,2.24.25,3.17.74ZM109.21,64.53c.52-.3.92-.73,1.2-1.27.29-.54.43-1.16.43-1.86s-.15-1.32-.46-1.88c-.3-.55-.72-.98-1.25-1.29-.53-.3-1.12-.46-1.79-.46h-2.26v7.21h2.38c.64,0,1.22-.15,1.74-.46Z"/>
        </g>
        <g>
          <path class="cls-1" d="M0,72.58h5.36v1.3H1.49v2.1h3.52v1.3H1.49v3.08H0v-7.77Z"/>
          <path class="cls-1" d="M12.22,73c.63.35,1.13.83,1.49,1.43.36.61.54,1.28.54,2.02s-.18,1.42-.54,2.03c-.36.61-.86,1.09-1.49,1.45-.63.36-1.33.53-2.1.53s-1.47-.18-2.1-.53c-.63-.35-1.13-.84-1.49-1.45s-.54-1.29-.54-2.03.18-1.41.54-2.02.86-1.08,1.49-1.43c.63-.35,1.33-.52,2.1-.52s1.47.17,2.1.52ZM8.81,74.16c-.41.23-.73.55-.97.95-.24.4-.36.85-.36,1.34s.12.94.36,1.34c.24.41.56.73.97.96.4.24.84.36,1.32.36s.9-.12,1.3-.36c.4-.24.72-.56.95-.96.23-.41.35-.86.35-1.34s-.12-.93-.35-1.34c-.23-.4-.55-.72-.95-.95-.4-.23-.83-.35-1.3-.35s-.91.12-1.32.35Z"/>
          <path class="cls-1" d="M20.53,80.35l-1.34-2.3c-.06,0-.15.01-.28.01h-1.75v2.29h-1.49v-7.77h3.24c1.01,0,1.78.23,2.33.7.55.47.82,1.12.82,1.98,0,.61-.13,1.12-.39,1.55-.26.43-.65.75-1.15.96l1.71,2.58h-1.7ZM17.16,76.75h1.75c.56,0,.99-.12,1.29-.37.3-.24.44-.61.44-1.09s-.15-.83-.44-1.07c-.3-.24-.73-.36-1.29-.36h-1.75v2.88Z"/>
          <path class="cls-1" d="M31.96,73.07c.61.33,1.09.79,1.44,1.38.35.59.52,1.26.52,2.01s-.18,1.42-.53,2c-.35.59-.84,1.05-1.46,1.38-.62.33-1.33.5-2.12.5h-3.17v-7.77h3.23c.78,0,1.47.16,2.09.49ZM31.18,78.71c.38-.22.68-.52.89-.91.21-.39.32-.83.32-1.33s-.11-.94-.33-1.34c-.22-.4-.53-.7-.92-.92-.39-.22-.82-.33-1.3-.33h-1.72v5.15h1.78c.47,0,.9-.11,1.28-.33Z"/>
          <path class="cls-1" d="M35.33,72.58h5.69v1.3h-4.21v1.92h3.77v1.3h-3.77v1.95h4.34v1.3h-5.83v-7.77Z"/>
          <path class="cls-1" d="M41.85,72.58h1.6l2.29,6.12,2.31-6.12h1.53l-3.11,7.77h-1.54l-3.07-7.77Z"/>
          <path class="cls-1" d="M50.67,72.58h5.69v1.3h-4.21v1.92h3.77v1.3h-3.77v1.95h4.34v1.3h-5.83v-7.77Z"/>
          <path class="cls-1" d="M58.12,72.58h1.49v6.43h3.35v1.34h-4.84v-7.77Z"/>
          <path class="cls-1" d="M69.87,73c.63.35,1.13.83,1.49,1.43.36.61.54,1.28.54,2.02s-.18,1.42-.54,2.03c-.36.61-.86,1.09-1.49,1.45-.63.36-1.33.53-2.1.53s-1.47-.18-2.1-.53c-.63-.35-1.13-.84-1.49-1.45s-.54-1.29-.54-2.03.18-1.41.54-2.02.86-1.08,1.49-1.43c.63-.35,1.33-.52,2.1-.52s1.47.17,2.1.52ZM66.46,74.16c-.41.23-.73.55-.97.95-.24.4-.36.85-.36,1.34s.12.94.36,1.34c.24.41.56.73.97.96.4.24.84.36,1.31.36s.9-.12,1.3-.36c.4-.24.72-.56.95-.96.23-.41.35-.86.35-1.34s-.12-.93-.35-1.34c-.23-.4-.55-.72-.95-.95-.4-.23-.83-.35-1.3-.35s-.91.12-1.32.35Z"/>
          <path class="cls-1" d="M78.78,73.28c.54.47.81,1.12.81,1.98s-.27,1.58-.81,2.07c-.54.49-1.29.74-2.27.74h-1.7v2.29h-1.49v-7.77h3.19c.98,0,1.73.23,2.27.7ZM77.73,76.38c.3-.24.45-.61.45-1.09s-.15-.83-.45-1.07c-.3-.24-.73-.36-1.29-.36h-1.62v2.88h1.62c.56,0,.99-.12,1.29-.37Z"/>
          <path class="cls-1" d="M80.93,72.58h1.7l2.57,5.01,2.55-5.01h1.7v7.77h-1.37v-5.57l-2.42,4.77h-.95l-2.43-4.77v5.57h-1.35v-7.77Z"/>
          <path class="cls-1" d="M91.47,72.58h5.69v1.3h-4.21v1.92h3.77v1.3h-3.77v1.95h4.34v1.3h-5.83v-7.77Z"/>
          <path class="cls-1" d="M104.34,72.58h1.44v7.77h-1.41l-4-5.35v5.35h-1.45v-7.77h1.41l4.01,5.36v-5.36Z"/>
          <path class="cls-1" d="M106.93,72.58h6.34v1.32h-2.42v6.45h-1.5v-6.45h-2.42v-1.32Z"/>
        </g>
        <g>
          <path class="cls-2" d="M6.05,92.19v1.53h-2.98c-1.82,0-3.04-1.11-3.04-2.78H.03c0-1.7,1.29-2.82,3.25-2.82h.14v-.49h1.53v4.56h1.1ZM1.15,86.15c0-.48.38-.79.88-.79s.88.31.88.79c0,.53-.42.79-.88.79s-.88-.26-.88-.79ZM3.42,89.64h-.48c-.83,0-1.47.47-1.47,1.29h0c0,.79.64,1.26,1.47,1.26h.48v-2.55ZM3.25,86.15c0-.48.38-.79.88-.79s.88.31.88.79c0,.53-.42.79-.88.79s-.88-.26-.88-.79Z"/>
          <path class="cls-2" d="M5.86,92.19h1.71v1.53h-1.71v-1.53Z"/>
          <path class="cls-2" d="M7.37,92.19h1.71v1.53h-1.71v-1.53Z"/>
          <path class="cls-2" d="M13.64,93.72h-4.76v-1.53h1.52v-4.07h1.53v4.07h1.71v1.53ZM11.06,95.4c0,.53-.42.79-.88.79s-.88-.26-.88-.79c0-.48.38-.79.88-.79s.88.31.88.79ZM13.15,95.4c0,.53-.42.79-.88.79s-.88-.26-.88-.79c0-.48.38-.79.88-.79s.88.31.88.79Z"/>
          <path class="cls-2" d="M13.45,92.19h1.71v1.53h-1.71v-1.53Z"/>
          <path class="cls-2" d="M14.96,92.19h1.71v1.53h-1.71v-1.53Z"/>
          <path class="cls-2" d="M23.78,93.72h-1.47c-.5.68-1.29,1.08-2.27,1.08h0c-1,0-1.8-.4-2.28-1.08h-1.27v-1.53h.72c0-.11,0-.21,0-.33h0c0-1.84,1.13-3.06,2.84-3.06h0c1.69,0,2.82,1.22,2.82,3.05h0c0,.13,0,.23,0,.34h.94v1.53ZM21.32,91.81c0-.9-.51-1.49-1.29-1.49h0c-.79,0-1.32.59-1.32,1.49h0c0,.89.53,1.47,1.32,1.47h0c.78,0,1.29-.59,1.29-1.46h0Z"/>
          <path class="cls-2" d="M23.59,92.19h1.71v1.53h-1.71v-1.53Z"/>
          <path class="cls-2" d="M25.11,92.19h1.71v1.53h-1.71v-1.53Z"/>
          <path class="cls-2" d="M30.16,92.19v1.53h-3.54v-1.53h.91v-4.07h1.53v4.07h1.1ZM27.41,86.4c0-.48.39-.79.89-.79s.89.31.89.79c0,.54-.42.8-.89.8s-.89-.26-.89-.8Z"/>
          <path class="cls-2" d="M29.97,92.19h1.71v1.53h-1.71v-1.53Z"/>
          <path class="cls-2" d="M36.24,93.72h-4.76v-1.53h1.52v-4.07h1.53v4.07h1.71v1.53ZM31.9,86.45c0-.48.38-.79.88-.79s.88.31.88.79c0,.53-.42.79-.88.79s-.88-.26-.88-.79ZM33.99,86.45c0-.48.38-.79.88-.79s.88.31.88.79c0,.53-.42.79-.88.79s-.88-.26-.88-.79Z"/>
          <path class="cls-2" d="M36.04,92.19h1.71v1.53h-1.71v-1.53Z"/>
          <path class="cls-2" d="M41.18,92.19v1.53h-3.62v-1.53h.99v-6.38h1.53v6.38h1.1Z"/>
          <path class="cls-2" d="M40.98,92.19h1.71v1.53h-1.71v-1.53Z"/>
          <path class="cls-2" d="M45.44,85.81v7.91h-3.02v-1.53h1.49v-6.38h1.53Z"/>
          <path class="cls-2" d="M51.9,93.72h-1.06c-.12,1.67-.85,2.15-2.19,2.15-.28,0-.57-.03-.82-.09l-.16-1.33c.33.02.56.03.82.03.49,0,.84-.25.84-.99v-5.36h1.53v4.07h1.04v1.53Z"/>
          <path class="cls-2" d="M51.7,92.19h1.71v1.53h-1.71v-1.53Z"/>
          <path class="cls-2" d="M53.22,92.19h1.71v1.53h-1.71v-1.53Z"/>
          <path class="cls-2" d="M54.73,92.19h1.71v1.53h-1.71v-1.53Z"/>
          <path class="cls-2" d="M65.03,92.19v1.53h-8.79v-1.53h.97v-6.43h1.53v2.36h2.09c1.99,0,3.11,1.11,3.1,3.07v1h1.1ZM62.4,90.92c0-.84-.56-1.27-1.43-1.27h-2.22v2.54h3.65v-1.27Z"/>
          <path class="cls-2" d="M64.84,92.19h1.71v1.53h-1.71v-1.53Z"/>
          <path class="cls-2" d="M66.35,92.19h1.71v1.53h-1.71v-1.53Z"/>
          <path class="cls-2" d="M71.91,88.12h1.67v5.6h-5.72v-1.53h1.07c-.18-.36-.27-.79-.27-1.25h0c0-1.7,1.29-2.82,3.25-2.82ZM70.02,86.45c0-.48.38-.79.88-.79s.88.31.88.79c0,.53-.42.79-.88.79s-.88-.26-.88-.79ZM72.05,89.64h-.48c-.83,0-1.47.47-1.47,1.29h0c0,.79.64,1.26,1.47,1.26h.48v-2.55ZM73.87,86.45c0,.53-.42.79-.88.79s-.88-.26-.88-.79c0-.48.38-.79.88-.79s.88.31.88.79Z"/>
          <path class="cls-2" d="M83.91,88.12v7.75h-4.5c-2.11,0-3.13-1.03-3.13-3.07v-1.99h1.53v1.83c0,1.23.79,1.7,1.93,1.7h2.63v-.87h-.34c-1.81,0-3.04-.9-3.04-2.53h0c0-1.7,1.29-2.82,3.25-2.82h1.67ZM80.02,86.45c0-.48.38-.79.88-.79s.88.31.88.79c0,.53-.42.79-.88.79s-.88-.26-.88-.79ZM82.38,89.64h-.48c-.83,0-1.47.47-1.47,1.29h0c0,.79.64,1.26,1.47,1.26h.48v-2.55ZM82.11,86.45c0-.48.38-.79.88-.79s.88.31.88.79c0,.53-.42.79-.88.79s-.88-.26-.88-.79Z"/>
          <path class="cls-2" d="M89.9,88.12v5.05c0,2.08-.83,2.69-2.57,2.69-.47,0-.92-.04-1.33-.13l-.33-1.63c.52.15,1.06.22,1.59.22.57,0,.99-.13,1.08-.61h-.32c-1.82,0-3.04-1.11-3.04-2.78h0c0-1.7,1.29-2.82,3.25-2.82h1.67ZM88.37,89.64h-.48c-.83,0-1.47.47-1.47,1.29h0c0,.79.64,1.26,1.47,1.26h.48v-2.55Z"/>
          <path class="cls-2" d="M96.65,92.19v1.53h-5.91v-1.53h3.37v-1.31c0-.82-.39-1.23-1.18-1.23h-.46v-1.53h.23c1.97,0,2.85,1,2.85,2.92v1.15h1.1Z"/>
          <path class="cls-2" d="M96.46,92.19h1.71v1.53h-1.71v-1.53Z"/>
          <path class="cls-2" d="M97.97,92.19h1.71v1.53h-1.71v-1.53Z"/>
          <path class="cls-2" d="M103.02,92.19v1.53h-3.54v-1.53h.91v-4.07h1.53v4.07h1.1ZM100.27,86.4c0-.48.39-.79.89-.79s.89.31.89.79c0,.54-.42.8-.89.8s-.89-.26-.89-.8Z"/>
          <path class="cls-2" d="M102.83,92.19h1.71v1.53h-1.71v-1.53Z"/>
          <path class="cls-2" d="M104.34,92.19h1.71v1.53h-1.71v-1.53Z"/>
          <path class="cls-2" d="M113.48,91.19v2.53h-7.63v-1.53h.91v-4.61h1.53v.55h2.09c1.99,0,3.11,1.11,3.1,3.07ZM111.95,90.92c0-.84-.56-1.27-1.43-1.27h-2.22v2.54h3.65v-1.27Z"/>
        </g>
      </g>
    </g>
  </g>
</svg>