<?xml version="1.0" encoding="UTF-8"?>
<svg id="Layer_2" xmlns="http://www.w3.org/2000/svg" viewBox="0 0 770.02 469.11">
  <g id="Layer_1-2" data-name="Layer_1">
    <g>
      <path d="M364.03,97.04c-7.56,0-12.89.12-18.22-.03-8.59-.24-17.2-.39-25.75-1.08-5.65-.46-11.19-2.15-16.84-2.65-5.26-.47-10.22-1.98-15.26-3.28-5.26-1.35-10.16-3.57-14.5-6.9-.78-.6-1.57-1.31-2.08-2.14-.92-1.48-1.77-2.84-.67-4.91,2.85-5.34,5.02-11.06,8.06-16.29,3.11-5.36,6.66-10.53,10.51-15.4,2.98-3.77,6.71-6.93,10.09-10.38,10.51-10.75,23.06-18.53,36.71-24.47,8.64-3.76,17.75-6.19,27.15-7.57,6.99-1.03,13.98-2.4,21.03-1.81,7.46.62,14.92.96,22.34,2.62,7.64,1.71,15.29,3.46,22.39,6.51,7.78,3.35,15.69,6.76,22.21,12.54,2.57,2.27,5.36,4.33,8.22,6.23,5.19,3.44,9.33,8.04,13.35,12.6,5.39,6.12,10.37,12.58,14.39,19.84,4.36,7.86,7.94,15.99,11.07,24.36.65,1.75.15,2.86-1.6,3.15-.49.08-1,.04-1.5.04-5.59-.02-11.04,1.06-16.53,1.91-4.04.63-8.16.94-12.25,1.04-5.91.15-11.74.84-17.52,1.99-.32.06-.66.03-1,.05-5.92.34-11.9.25-17.74,1.13-6.27.94-12.59.22-18.75,1.07-5.62.77-11.27.08-16.77.94-10.93,1.7-21.86.23-30.54.88Z"/>
      <path d="M498.18,155.9c-3.66,14.68-10.47,26.94-18.93,37.98-14.87,19.39-33.65,34.19-57.1,41.93-16.29,5.38-28.62,7.34-49.44,6.06-11.33-.69-22.52-3.16-33.14-7.53-10.47-4.31-20.51-9.4-29.75-16.63,2.8-1.49,5.42-1.79,8.16-1.68,4.95.19,9.73-1.22,14.56-1.64,5.09-.45,9.96-1.76,14.97-2.44,4.48-.61,8.91-1.72,13.29-2.9,9.55-2.57,19.11-5.12,28.54-8.08,7.89-2.48,15.53-5.77,23.42-8.29,11.32-3.62,22.04-8.76,33.21-12.78,4.87-1.75,9.42-4.38,14.15-6.52,7.73-3.49,15.51-6.89,23.25-10.36,1.32-.59,2.53-1.43,3.84-2.05,3.39-1.6,6.81-3.15,10.99-5.07Z"/>
      <path d="M281.26,42.97c-6.88,5.53-12.06,12.19-16.07,19.59-3.24,5.98-4.79,12.54-2.43,19.46,1.05,3.09,2.75,5.69,5.3,7.53,4.51,3.26,9.43,5.72,14.74,7.61,6.5,2.31,13.2,3.55,19.91,4.77,5.62,1.02,11.44,1.02,17.02,2.2,5.78,1.22,11.59.26,17.3.97,14.92,1.86,29.88.92,44.79.68,8.58-.14,17.23-.17,25.76-.99,5.28-.51,10.61-.09,15.77-.94,5.12-.83,10.36.02,15.25-1.08,4.55-1.02,9.26.26,13.61-1.68.56-.25,1.32-.06,1.98-.06,6.75.07,13.43-.6,20.05-1.97.48-.1,1-.03,1.5-.03,6.24-.07,12.41-.84,18.55-1.92,2.24-.4,4.62-.06,7.07.49-2.24.8-4.44,1.77-6.73,2.36-9.75,2.49-19.52,4.94-29.32,7.26-7.27,1.72-14.58,3.24-21.88,4.82-6.19,1.34-12.36,2.76-18.59,3.89-4.98.9-10.03,1.35-15.03,2.13-5.79.9-11.53,2.08-17.33,2.89-4.06.57-8.19.65-12.26,1.12-3.56.41-7.09,1.05-10.63,1.6-.64.1-1.28.3-1.92.34-6.26.37-12.59.25-18.76,1.18-6.95,1.05-13.92.17-20.78.98-14.43,1.71-28.87.38-43.29.85-7.35-1.72-14.95-.94-22.39-2.72-5.69-1.36-11.51-2.27-17-4.32-6.03-2.25-11.85-4.92-16.23-10-4.87-5.66-6.62-11.8-4.51-19.17,2.01-7.02,5.95-12.77,10.82-17.94,9.82-10.42,21.43-18.44,34.19-24.82,2.94-1.47,5.89-2.93,8.87-4.33.82-.39,1.77-.51,2.66-.75Z"/>
      <path d="M513.52,114.19c-3.55,1.12-7.12,2.16-10.64,3.36-6.15,2.1-12.23,4.42-18.4,6.45-8.65,2.84-17.45,5.24-26.02,8.3-6.74,2.41-13.57,4.54-20.38,6.72-12.98,4.17-26.09,7.91-39.32,11.27-6.75,1.71-13.45,3.89-20.26,5.27-7.17,1.45-14.1,3.92-21.46,4.67-5.28.54-10.41,2.47-15.65,3.53-3.36.67-6.83.77-10.22,1.32-5.46.89-10.87,2.06-16.34,2.87-3.89.57-7.85.72-11.77,1.11-2.93.29-5.85.67-8.78.98-2.76.29-5.64-.61-8.3.9-.51.29-1.31.08-1.98.09-.67,0-1.33,0-2,0-4.67,0-9.34.13-14-.03-4.6-.16-9.26-.22-13.76-1.04-10.09-1.83-20.1-3.78-29.02-9.65-8.22-5.41-12.48-13.1-15.3-22.02.5-3.87-.94-7.64-.24-11.6.77-4.33.77-8.79,1.94-13.29.41,1.91.8,3.83,1.25,5.73.76,3.2,1.79,6.17,4.19,8.72,5.56,5.9,12.08,9.83,19.82,12.4,6.07,2.01,12.25,3.35,18.44,4.6,4.8.97,9.89.46,14.74,1.25,10.91,1.77,21.88.97,32.78.7,6.41-.16,12.9-.26,19.26-1,3.78-.44,7.67-.05,11.26-.95,4.52-1.13,9.13-.3,13.64-1.64,3.06-.91,6.47-.42,9.76-1.04,6.09-1.16,12.42-1.09,18.5-2.29,5.27-1.04,10.78-.71,15.84-2.81,7.31.45,14.17-2.26,21.28-3.23,9.8-1.33,19.4-4.06,29.17-5.59,5.8-.91,11.51-2.21,17.27-3.25,5.27-.95,10.5-2.18,15.74-3.3,5.71-1.22,11.43-2.43,17.13-3.69,3.33-.74,6.65-1.53,9.95-2.37,3.14-.8,6.24-1.74,9.38-2.53.76-.19,1.6-.03,2.4-.03.03.37.05.74.08,1.11Z"/>
      <path d="M233.68,176.19c1.23.5,2.16.67,2.85,1.17,6.36,4.63,13.67,6.93,21.2,8.63,4.62,1.04,9.37,1.43,14.02,2.19,8.95,1.45,17.87.51,26.8.75,2.58.07,5.18-.59,7.78-.9,2.43-.29,4.93.5,7.33-.85.89-.5,2.29-.17,3.45-.14,4.14.1,8.1-.97,12.12-1.69,3.21-.58,6.49-.79,9.71-1.34,7.85-1.36,15.69-2.69,23.43-4.68,6.92-1.78,14.02-2.83,21-4.36,3.8-.83,7.55-1.95,11.3-2.99,14.24-3.97,28.5-7.86,42.69-12.01,6.71-1.96,13.24-4.5,19.9-6.64,6.96-2.24,14.01-4.19,20.95-6.49,4.48-1.48,8.82-3.4,13.26-5.03,4.12-1.51,8.31-2.8,12.42-4.33,8.09-3,16.15-6.09,24.23-9.12.41-.15.88-.12,1.65.43-1.53,1.06-2.98,2.29-4.62,3.14-5.84,3.02-11.75,5.91-17.64,8.84-13.19,6.57-26.31,13.26-39.59,19.64-7.36,3.54-14.96,6.57-22.47,9.78-8.26,3.53-16.5,7.11-24.83,10.47-6.8,2.74-13.67,5.3-20.58,7.74-7.51,2.66-15.03,5.31-22.66,7.58-9.34,2.78-18.78,5.16-28.31,7.28-6.19,1.37-12.49,2.13-18.64,3.66-2.65.66-5.52.67-8.27.94-8.05.8-16.21,1.54-24.24.97-8.21-.58-16.33-2.23-24.26-5.16-8.25-3.05-15.62-7.49-23.15-11.76-1.42-.8-2.7-1.88-3.93-2.97-4.09-3.61-8.14-7.27-12.17-10.94-.31-.28-.35-.85-.72-1.81Z"/>
      <path d="M668.87,317.54c0-3.07.25-5.93-.07-8.72-.36-3.18,1.28-5.06,3.57-6.56,1.47-.97,3.2-1.55,5.32-2.54v18.17c4.13.24,7.88.11,11.91.1.07-.81.31-1.48.15-2.03-2.27-7.83-.37-13.34,6.26-17.99,3.27-2.29,3.36-2.51,1.61-6.44-.41-.91-1.12-1.65-.13-2.63.85-.84,1.58-.88,2.63-.28.66.38,1.59.38,2.41.38,2.35,0,3.87,1.26,4.27,3.36.46,2.47,1.96,2.73,3.96,2.68,2.67-.06,5.33.02,8-.02,8.22-.11,15.43,5.8,16.03,15.36.15,2.36-.81,4.79-1.34,7.64h12.36c0-2.77,0-5.22,0-7.68,0-6.33.11-12.67-.05-19-.06-2.5.8-4.16,2.92-5.26,1.44-.74,2.92-1.41,4.29-2.06.32.22.46.29.57.4.11.11.28.26.28.39.04,13.5.08,26.99.09,40.49,0,.46-.22.92-.43,1.74-1.47,0-2.94,0-4.4,0-44.33,0-88.66,0-132.99,0-9.67,0-15.34-5.52-17.03-14.02-1.05-5.26,1.28-10.12,5.17-13.8,8.89-8.42,21.89-2.91,25.03,5.31,1.77,4.63,1.97,8.76-.24,13.32h20.62c.44-3.22.05-6.51.25-9.77.09-1.43-.01-3.43.84-4.15,1.96-1.64,4.42-2.69,6.75-3.85.22-.11,1.2.62,1.28,1.06.2,1.13.12,2.32.12,3.49,0,4.3,0,8.61,0,13.31,3.53-.03,6.74.48,10-.41ZM607.9,310.91c-.03,3.71,3.34,7,7.24,7.1,3.3.08,6.71-3.5,6.7-7.04-.01-3.37-3.54-6.88-6.95-6.91-3.4-.03-6.96,3.47-6.99,6.85ZM711.89,304.06c1.78,4.24,3.3,8.01,4.96,11.73.93,2.09,2.02,2.6,3.82,2.18,3.38-.79,5.5-3.99,5.19-7.83-.28-3.47-2.45-5.8-5.93-6.04-2.46-.17-4.94-.03-8.03-.03ZM702.91,304.18c-4.49,2.25-6.05,5.34-4.92,9.18.97,3.33,5.57,5.08,10.84,4.05-1.92-4.3-3.83-8.57-5.91-13.24Z"/>
      <path d="M258.21,342.07c-.19-.92-.37-1.39-.38-1.86-.03-2.16-.01-4.32-.01-6.77,1.02-.15,1.95-.3,2.89-.43,4.17-.59,6.06-2.61,6.13-6.92.09-5.83.14-11.66-.02-17.49-.08-3.17.85-5.5,3.95-6.55,1.52-.51,2.44-2.94,4.28-1.85,1.66.99.73,3.04.77,4.61.1,4.16.04,8.32.04,12.75,3.46.89,6.9.29,10.83.42.2-3.34.26-6.64.04-9.89-.19-2.85.63-4.73,3.33-5.87,1.44-.61,2.72-1.6,4.72-2.81v18.35h18.03c0-4.7,0-9.32,0-13.95,0-4.16.1-8.33-.04-12.49-.07-2.25.45-3.79,2.73-4.66,1.35-.52,2.44-1.69,3.76-2.34,1.62-.8,2.53-.23,2.57,1.58.07,2.82.02,5.65.02,8.93,1.71.07,3.31.18,4.91.19,4,.03,8,.03,11.99,0,6.72-.05,11.4,3.43,15.01,8.71.54.79,1.03,1.8,1.05,2.72.07,3.75-.05,7.5-.11,11.41h10.84c.1-1.19.3-2.45.3-3.71.03-7.16.12-14.33-.03-21.49-.07-3.16.86-5.49,3.91-6.58,1.51-.54,2.46-2.95,4.28-1.9,1.92,1.11.81,3.35.83,5.04.12,7.99.05,15.99.05,23.99v4.06c.49.43.61.62.74.63,8.11.43,7.17.06,7.16-6.73,0-7.82,0-15.64,0-23.32,1.99-1.29,3.74-2.51,5.57-3.6,1.23-.73,2.33-.14,2.51,1.2.02.16.02.33.02.5,0,13.48,0,26.96,0,40.23-.32.33-.43.46-.56.56-.13.09-.28.2-.42.2-37.8,0-75.6,0-113.78,0-1.98,9.56-7.29,15.3-17.92,15.11ZM321.97,318.01c6.19,0,11.97.11,17.74-.04,3.79-.1,7.05-3.48,7.08-6.9.03-3.21-3.02-6.84-6.5-6.93-6.06-.16-12.15-.35-18.32.14v13.73Z"/>
      <path d="M114.4,317.86h14.29c-.3-5.09.79-9.68,4.83-12.93,3.11-2.51,6.58-4.07,10.81-3.98,7.2.16,14.94,6.2,15.82,16.87,1.4.06,2.84.15,4.29.19,1.3.03,2.61,0,4.41,0,0-1.73,0-3.18,0-4.63,0-7.33.1-14.66-.05-21.99-.05-2.69.86-4.38,3.3-5.47,1.49-.66,2.83-1.66,4.64-2.75.36.93,1.06,1.89,1.07,2.86.07,12.49.07,24.98.03,37.48-.01,2.91-.6,3.47-3.51,3.51-4.83.07-9.66.03-14.49.01-2,0-3.63.39-5.47,1.66-8.58,5.94-12.49,5.85-20.96.05-1.81-1.24-3.42-1.72-5.45-1.72-12.66.03-25.32.01-37.98.01-1.17,0-2.33.02-3.5,0-1.57-.04-2.45-.89-2.59-2.43-.09-.99-.06-2-.03-3,.1-2.96.59-3.53,3.45-3.58,3.83-.07,7.66-.07,11.49,0,2.48.05,4.45-.9,6.17-2.6,3.45-3.41,2.1-8.6-2.44-10.6-2.33-1.02-4.55-.58-6.82-.76-1.49-.11-3-.08-4.49,0-1.7.08-2.74-.58-3.49-2.17-.76-1.63-2.02-3.02-2.79-4.64-.39-.84-.28-2.23,1.16-2.16,6.25.33,12.6-1.19,18.76.88,6.14,2.07,11.02,8.58,10.92,14.87-.04,2.23-.86,4.46-1.39,7.01ZM144.17,310.05c-4.06-.38-7.14,2.42-7.31,6.19-.16,3.78,3.12,7.57,6.75,7.77,3.32.17,7.14-3.35,7.23-6.66.12-4.61-2.24-7.19-6.67-7.3Z"/>
      <path d="M566.59,326.92h-69.5c-.1-1.38-.27-2.65-.27-3.93-.02-10.16.17-20.33-.11-30.49-.1-3.78,1.26-5.95,4.56-7.27.9-.36,1.77-.78,2.57-1.14.27.09.44.11.56.19.13.09.32.25.32.37.01,10.96.01,21.92.01,33.11h12.63c-.15-.57-.25-1.27-.51-1.89-3.33-7.82,2.6-18.32,11.11-20.4.79-.19,1.6-.43,2.39-.43,5.31-.04,10.63-.02,16.36-.02-.11,1.15.02,2.13-.34,2.88-.7,1.47-1.78,2.76-2.5,4.23-.79,1.61-2.02,1.98-3.66,1.94-2.66-.07-5.33-.11-8,0-3.94.16-7.25,3.19-7.36,6.58-.12,3.79,2.99,7.15,7.1,7.32,4.16.17,8.33.04,12.49.04,4.31,0,8.61,0,12.89,0,.51-1.94.77-3.47.67-5.31-.38-7.14-.22-14.32-.11-21.48.01-1.02.62-2.2,1.3-3.02,1.82-2.23,4.43-3.22,7.08-4.18.75,3.84.96,34.96.29,42.91Z"/>
      <path d="M437.09,317.83h20.35c.47-2.88.54-5.99,2.32-8.71,5.63-8.61,15.75-11.61,24.5-3.67,6.62,6.01,6.52,16.42.22,22.63-3.03,2.99-6.67,4.26-10.47,4.82-3.87.57-7.51-1.39-10.37-3.81-2.02-1.71-3.93-2.08-6.3-2.07-11.33.04-22.66-.02-33.99.03-8.31.04-17.52-6.94-16.58-17.54.51-5.77,5.9-12.44,11.18-13.69,6.26-1.48,11.84.16,16.31,4.8,4.59,4.78,4.13,10.05,2.96,15.68-.09.43-.09.89-.14,1.53ZM473.45,324.01c3.87-.05,7.5-3.65,7.26-7.21-.24-3.62-3.5-6.68-7.2-6.75-3.58-.07-7.47,3.23-7.58,6.43-.13,3.96,3.48,7.58,7.52,7.53ZM422.48,318.01c3.88-.05,7.53-3.68,7.31-7.27-.21-3.49-3.74-6.63-7.4-6.69-3.53-.06-6.61,2.74-6.61,7.03,0,4.28,3.31,7.16,6.7,6.94Z"/>
      <path d="M23.43,304.06c-2.82,0-4.63.08-6.43-.02-2.7-.14-4.77.99-6.55,2.89-2.31,2.48-2.26,5.9.15,8.36,1.68,1.72,3.6,2.78,6.11,2.75,5.82-.07,11.64-.02,17.97-.02.33-3.18.24-6.3.11-9.39-.17-4.29,1.67-7.52,4.44-10.6,3.28-3.65,11.27-3.98,15.18-.1,3.01,2.99,4.66,6.23,4.49,10.47-.12,2.98-.02,5.98-.02,9.24,2.85.75,5.63.16,8.84.47.27-3.52.09-6.8.14-10.07.02-1.5-.07-3,.02-4.49.16-2.58.86-4.8,3.66-5.86,1.36-.52,2.53-1.51,4.19-2.55.38.97,1.07,1.93,1.08,2.9.09,8.49.09,16.98.03,25.47-.02,2.92-.6,3.49-3.5,3.52-6.66.06-13.32.06-19.98,0-2.89-.03-3.44-.6-3.48-3.53-.07-5.33-.04-10.66,0-15.98.01-1.64-.31-2.99-2.15-3.4-2.02-.44-4.07.69-3.92,3.16.21,3.48.05,6.99.05,10.49,0,1.83.04,3.66,0,5.49-.08,3.28-.51,3.76-3.74,3.78-7.49.05-14.99-.1-22.48.07-3.43.08-6.42-1.03-9.45-2.32-4.02-1.7-5.88-5.26-7.23-8.95-2.26-6.16-.24-11.76,4.04-16.16,2.15-2.22,5.53-3.47,8.57-4.54,2.49-.88,4.94.14,6.42,2.54,1.1,1.79,2.02,3.7,3.46,6.38Z"/>
      <path d="M413.85,452.92h27.86v-25.29c4.64-.71,5.02-.43,5.14,3.53.03,1.13,0,2.27,0,3.88,3.59,0,6.88.12,10.15-.03,5.48-.25,10.95,3.6,12.63,9.88.61,2.29-.64,5.08-1.11,8.08,3.02.15,6.39.08,10.07,0-.28-1.88-.69-3.56-.77-5.26-.31-6.43,2.71-10.91,9.94-12.6,4.14-.97,11.35,3.43,11.9,7.77.45,3.59,1.25,7.45-1.63,10.9-2.26,2.72-4.62,4.33-8.23,4.32-22.98-.05-45.95-.02-68.93-.02-1.17,0-2.33-.01-3.5,0q-3.26.04-4.49,3.22c-1.71,4.4-5.91,7.62-9.73,7.79-1.75.08-2.4-.81-2.82-2.13-.37-1.17.77-2.53,2.32-2.94,4.75-1.25,6.12-3,6.14-7.95.02-5.48,0-10.96,0-16.4,4.4-.88,4.96-.51,5.03,3.35.05,3.14.01,6.29.01,9.88ZM446.98,453.04c4.11,0,7.75,0,11.39,0,2.28,0,4.19-.85,5.4-2.82,2.64-4.27-.09-9.56-5.44-10.07-3.73-.35-7.53-.19-11.35.01v12.87ZM488.7,453.04c4.71.31,6.93-3.07,7.09-5.81.2-3.35-3.35-7.04-6.79-7.15-3.41-.11-7.03,3.46-6.99,6.91.03,2.6,3.81,6.02,6.69,6.05Z"/>
      <path d="M509.57,93.88c10.09,3.1,19.37,6.29,29.3,7.37,9.81,1.07,19.46,2.25,29.39,1.18,9.86-1.06,19.52-2.88,29.13-5.3-4.1,4.03-9.62,5.2-14.41,7.75-4.89,2.6-10.17,4.45-15.23,6.75-9.24,4.2-18.47,8.44-27.64,12.79-1.63.77-2.77.78-3.94-.55-2.18-2.47-4.37-4.94-6.57-7.38-1-1.11-2.06-2.17-3.09-3.26-5.33-5.67-10.66-11.34-15.96-17.04-.37-.4-.46-1.06-.98-2.31Z"/>
      <path d="M648.99,381.18v11.3c-2.9,1.14-5.71.4-8.43.56-.93-3.45-1.14-31.39-.25-38.01,6.88,0,13.84-.24,20.77.08,5.24.24,10.41,5.94,10.81,11.17.48,6.31-1.73,11.17-7.99,14.27,2.65,3.89,5.27,7.74,8.11,11.92-2.86,1.15-5.63.56-8.31.45-.61-.02-1.29-.96-1.75-1.61-1.41-2.01-2.9-3.98-4.02-6.14-1.93-3.72-5.16-3.94-8.93-3.99ZM649.19,372.99c3.05,0,5.72.14,8.36-.04,2.32-.16,4.46-.74,5.49-3.37.93-2.4-.33-5.42-2.82-5.46-3.75-.05-7.55-.52-11.36.33,0,2.42-.02,4.58.01,6.73,0,.47.16.93.32,1.81Z"/>
      <path d="M397.88,392.96h-8.44c-.78-3.8-1.01-29.13-.36-37.46.4-.14.83-.37,1.29-.45,5.16-.99,8.43.9,11.01,5.7,3.39,6.31,7.75,12.1,12.43,17.98v-23.42h7.52c.73,3.71.95,29.43.32,37.2-.27.17-.53.48-.8.49-2.33.03-5,.72-6.88-.19-1.8-.87-2.84-3.39-4.1-5.26-3.84-5.69-7.63-11.42-11.97-17.93v23.36Z"/>
      <path d="M364.73,393.09c-10.34,1.39-19.29-10.16-19.05-18.91.27-9.93,8.93-19.35,19.37-19.3,9.89.05,19.24,8.74,19.06,20.11-.13,8.49-8.88,19.39-19.38,18.1ZM364.72,364.05c-5.87.03-9.79,4.27-9.91,10.34-.06,3.1,1.16,5.36,3.28,7.4,2,1.93,4.6,2.9,7.09,2.96,4.9.13,10.6-5.6,10.44-10.51-.2-6.29-5.74-11.09-10.89-10.19Z"/>
      <path d="M616.85,393.09c-11.66,0-18.65-7.41-19.19-19-.53-11.41,10.24-19.48,18.87-19.14,10.04.39,19.03,7.64,19.28,19.63.18,8.29-8.61,19.95-18.97,18.51ZM626.84,373.95c-.02-5.82-4.29-9.76-10.4-9.93-5.87-.16-10.1,4.19-10.39,10.02-.14,2.81,1.12,5.72,3.3,7.95,2.12,2.17,5.13,2.6,7.66,2.72,5.39.24,9.85-5.08,9.83-10.75Z"/>
      <path d="M569.73,355.21v14.52c4.94.6,9.7.15,14.86.34v-14.78c1.82-.11,3.25-.27,4.68-.27,3.85,0,3.67.02,3.7,4.35.06,10.61.34,21.22.4,31.82,0,.62-1.05,1.7-1.7,1.78-2.1.23-4.25.09-6.79.09v-14.77h-14.88v14.17c-2.89,1.19-5.69.41-8.4.58-.93-3.42-1.14-31.32-.29-37.82h8.42Z"/>
      <path d="M477.28,393.09c-2.49.44-4.27-.36-4.81-3.66-.42-2.55-2.22-3.75-5.1-3.46-2.96.3-6,.29-8.97,0-2.85-.28-4.41.85-5.18,3.4-.42,1.4-.46,3.29-2.16,3.56-2.1.33-4.31.14-6.46-.05-.29-.03-.85-1.5-.64-2.07,1.29-3.52,2.75-6.98,4.18-10.45,2.88-6.94,5.79-13.87,8.68-20.8.31-.75.68-1.49.92-2.26.51-1.68,1.61-2.42,3.34-2.29.17.01.33,0,.5,0,4.81.2,5.08-1.35,7.43,4.97,3.01,8.1,6.55,16.01,9.86,24,.88,2.11,1.8,4.21,2.65,6.33.79,1.96.32,2.66-1.84,2.77-.66.03-1.33,0-2.4,0ZM467.23,377.85c-1.53-3.99-2.4-7.59-4.75-10.81-1.5,3.76-2.88,7.23-4.31,10.81h9.06Z"/>
      <path d="M200.16,393.08c-2.64.53-4.22-.61-4.75-3.77-.39-2.34-1.98-3.55-4.68-3.33-3.14.25-6.34.28-9.47,0-2.9-.27-4.33,1.06-5.13,3.52-.4,1.23-.26,3.04-1.76,3.27-2.25.35-4.59.17-6.88.03-.14,0-.49-1.77-.21-2.54,1.21-3.37,2.6-6.69,3.95-10.01,2.94-7.26,5.9-14.51,8.85-21.77,1.3-3.19,1.74-3.46,5.63-3.47,4.34-.01,4.6.26,6.14,4.13,3.25,8.18,6.6,16.32,9.91,24.48.86,2.12,1.71,4.25,2.57,6.36.98,2.42.67,2.98-1.79,3.09-.66.03-1.33,0-2.39,0ZM185.8,365.97c-1.69,4.56-2.94,7.94-4.35,11.75h8.76c-1.42-3.8-2.69-7.18-4.4-11.75Z"/>
      <path d="M506.83,355.01c2.56,0,4.39-.01,6.22,0,1.82.01,2.81.98,2.77,2.77-.17,7.93.66,15.9-.94,23.78-1.23,6.06-7.63,11.35-13.79,11.54-4.05.13-7.82-.33-11.13-3-3.2-2.59-5.69-5.98-5.94-9.8-.55-8.25-.17-16.57-.17-24.52.5-.43.62-.63.75-.64,9.71-.5,8.2-.21,8.25,7.66.03,5-.03,9.99.02,14.99.04,3.67,3.26,6.96,6.8,7.08,1.59.06,5.67-2.64,6.12-4.26.48-1.71.94-3.5.99-5.26.13-5.33.05-10.66.05-15.99,0-1.3,0-2.59,0-4.35Z"/>
      <path d="M278.24,355.01c2.66,6.62,5.14,12.82,7.64,19,2.21,5.44,4.5,10.85,6.64,16.32.81,2.07.33,2.64-1.87,2.75-.83.04-1.66.02-2.49,0q-3.15-.05-4.42-3.25c-1.42-3.56-1.75-3.78-5.9-3.8-3.16-.02-6.32.05-9.48-.02-1.89-.04-3.22.42-3.54,2.56-.12.78-.66,1.49-.9,2.26-.53,1.68-1.67,2.19-3.38,2.28-6.28.32-6.36.28-4.05-5.41,4.1-10.13,8.26-20.25,12.29-30.41.66-1.67,1.58-2.36,3.29-2.31,1.99.06,3.99.01,6.15.01ZM274.25,367.16c-1.57,3.62-4.51,6.59-4.12,10.78,3.01,0,5.69.27,8.4-.16-1.52-3.77-2.9-7.2-4.29-10.62Z"/>
      <path d="M35.64,355.01c-1.98,3.14-3.31,5.36-4.76,7.5-.79,1.17-1.97,1.62-3.45,1.57-2.83-.1-5.7.25-8.49-.09-5.11-.62-9.11,4.29-10.01,8.42-.78,3.57,1.8,9.91,6.26,11.26,2.17.66,4.45,1.13,6.7,1.25,3.82.21,7.66.07,11.49.1.31,0,.62.15,1.23.31v7.49c-1.21.09-2.49.25-3.76.26-4,.03-8.03-.33-11.99.09-7.14.76-15.4-6.1-17.55-12.2-3.6-10.24,1.71-21.46,11.47-24.83,2.12-.73,4.48-1,6.75-1.07,4.96-.16,9.93-.05,16.11-.05Z"/>
      <path d="M198.73,355.37c7.96-.72,7.98-.73,10.68,5.74,2.33,5.58,4.56,11.19,6.89,16.76.43,1.03,1.12,1.95,2,3.47,1.99-4.99,3.75-9.47,5.57-13.93,1.36-3.33,2.77-6.65,4.21-9.95.68-1.55,1.57-2.78,3.65-2.49,1.47.2,2.98.04,4.46.04,1.08,1.49.7,2.77.08,4.23-4.41,10.38-8.75,20.79-13.09,31.2-.31.73-.44,1.54-.63,2.22-.46.16-.75.35-1.06.37-7.48.38-7.55.4-10.4-6.43-3.97-9.51-7.84-19.05-11.72-28.6-.29-.72-.37-1.53-.63-2.64Z"/>
      <path d="M94.35,355.03c-4.28,13.39-10.53,25.22-14.8,37.66-.5.16-.8.34-1.11.35-7.44.36-7.5.38-10.37-6.44-4.04-9.63-7.99-19.3-11.94-28.97-.24-.58-.21-1.27-.36-2.28,1.42-.12,2.67-.31,3.93-.32,3.97-.04,3.96,0,5.56,3.79,3.09,7.35,6.19,14.69,9.47,22.48.72-1.06,1.49-1.85,1.86-2.79,2.81-7.12,5.56-14.26,8.29-21.41.45-1.19,1.11-2.04,2.45-2.06,2.11-.03,4.22,0,7.02,0Z"/>
      <path d="M303.77,364.02h-12.67c-.56-2.94-.17-5.7-.28-8.4,4-.76,26.38-.97,34.79-.35.53,2.68.22,5.44.17,8.61h-12.76v28.86c-3.11.59-5.86.32-9.09.23-.23-9.55.01-18.96-.14-28.95Z"/>
      <path d="M726.78,355.01v8.91c-4.15.32-8.26-.01-12.85.23-.09,9.52.01,18.93-.06,28.85-2.29.03-4.39.12-6.49.07-1.57-.04-2.37-1.02-2.48-2.53-.06-.83-.15-1.69,0-2.49.81-4.2.18-8.38.04-12.57-.12-3.58.3-7.18.51-11.3-2.99-.25-6.27-.04-9.53-.12-3.56-.08-3.97-.49-4.04-4-.02-.83-.04-1.67.01-2.49.11-1.53.94-2.41,2.5-2.53.33-.02.67-.01,1-.01,10.3,0,20.6,0,31.4,0Z"/>
      <path d="M113.11,355.02c2.28,0,4.26-.05,6.23.01,1.57.05,2.4.98,2.49,2.51.07,1.16.02,2.33.02,3.49,0,7.8,0,15.59,0,23.88,9.75.04,19.29.07,29.65.11-1.68,2.83-2.79,4.97-4.2,6.9-.48.66-1.68,1.1-2.56,1.1-10.45.07-20.91.05-31.3.05-.76-4.05-.98-28.83-.35-38.06Z"/>
      <path d="M541.91,392.95h-7.73c-.75-4.77-.26-9.56-.35-14.31-.09-4.65-.02-9.3-.02-14.36-3.35-.44-6.63-.13-9.88-.22-3.57-.1-3.99-.5-4.06-3.99-.02-.83-.04-1.67.01-2.49.1-1.53.92-2.41,2.48-2.54.33-.03.66-.01,1-.01,10.3,0,20.59,0,31.13,0,.8,2.89.33,5.66.33,8.69-4.15.83-8.29-.03-12.86.59-.1,4.7-.04,9.47-.05,14.23-.01,4.64,0,9.28,0,14.42Z"/>
      <path d="M746.85,393.09c0-4.06.06-7.54-.04-11.01-.03-1.1-.23-2.34-.78-3.25-3.82-6.31-7.77-12.55-11.66-18.82-.52-.84-1.03-1.7-1.4-2.61-.54-1.31.08-2.25,1.5-2.37.66-.06,1.35.08,2-.02,2.99-.47,4.81.59,6.27,3.43,2.38,4.65,5.32,9.01,8.27,13.88,3.13-3.41,4.63-7.22,6.87-10.53.46-.67.7-1.49,1.12-2.19,2.77-4.63,3.76-5.12,9.2-4.57,1.39.14,2.1,1.19,1.53,2.35-.21.44-.63.78-.89,1.2-3.96,6.38-7.97,12.74-11.82,19.18-.72,1.2-1.02,2.77-1.12,4.2-.18,2.49,0,5-.06,7.49-.08,2.99-.6,3.53-3.4,3.64-1.65.06-3.3.01-5.58.01Z"/>
      <path d="M217.9,299.69c0,3.59.05,6.38-.01,9.18-.05,2.37.57,4.58,1.88,6.46,1.68,2.41,6.34,3.49,9.53,2.52,3.18-.97,5.33-3.85,5.5-7.39.02-.33-.02-.67,0-1,.17-1.78-.27-4.1.69-5.23,1.52-1.79,3.92-2.88,6.07-4.06.81-.44,2.19-.4,2.22,1.03.15,5.74.49,11.48-1.9,16.98-2.46,5.68-7.41,7.82-12.81,8.74-4.96.85-9.85-.16-13.8-3.76-3.09-2.81-5.36-6.09-5.48-10.47-.03-1.16.16-2.35-.04-3.48-.75-4.36,1.22-6.91,5.2-8.25.75-.25,1.46-.63,2.94-1.28Z"/>
      <path d="M297.21,457.58c-1.19.26-1.73.51-2.24.46-2.23-.2-4.46-.7-6.69-.69-2.27,0-4.53.69-6.8.68-6.15,0-11.55-5.52-11.68-11.72-.02-1.16-.02-2.33,0-3.49.11-6.59,5.28-11.73,11.9-11.83.83-.01,1.68.09,2.49-.02,3.66-.51,6.36,1.36,8.73,3.68,2.54,2.48,4.16,5.48,3.98,9.22-.1,2.13.32,4.35-1.06,6.23-1.94,2.64-2.03,5.07,1.37,7.48ZM282.66,447.88q3.56-1.21,6.07.44c1.28.84,2.91.35,2.97-1.02.09-2.1.18-4.37-.47-6.32-1.79-5.42-7.97-5.97-12.5-4.29-4.05,1.51-5.66,6.67-3.83,11.19,1.69,4.17,6.16,5.95,11.13,4.19-1.13-1.41-2.21-2.76-3.37-4.2Z"/>
      <path d="M184.85,327.05c0-8.88,0-17.17,0-25.46,0-2.83-.09-5.66.03-8.48.08-1.76-.14-4.06.85-5.14,1.59-1.73,3.99-2.79,6.18-3.86.99-.49,1.92.14,1.94,1.47,0,.66,0,1.33,0,1.99,0,11.64,0,23.27,0,34.91,0,.5.03,1,0,1.5-.17,2.32-.72,2.93-2.97,3.05-1.81.09-3.62.02-6.03.02Z"/>
      <path d="M259.75,326.37c-.4.35-.52.54-.65.55-9.76.51-8.21.16-8.24-7.61-.04-8.97-.04-17.93,0-26.9.02-4.7,2.66-7.67,7.35-8.37.94-.14,1.59.3,1.63,1.35.02.66.03,1.33.03,1.99,0,12.29,0,24.58,0,36.87,0,.8-.09,1.59-.12,2.13Z"/>
      <path d="M373.85,448.59v9.22c-1.63.1-3.04.18-4.49.27-.23-.69-.51-1.14-.51-1.59-.03-7.48-.04-14.97-.03-22.45,0-.82-.15-1.83.26-2.41.48-.67,1.73-1.53,2.25-1.32,3.24,1.33,6.58.69,9.82.57,3.16-.12,5.02,1.43,6.53,3.69,2.13,3.19,1.85,9.31-1.38,11.23-1.94,1.15-1.56,2.13-.71,3.57,1.49,2.52,2.91,5.07,4.37,7.64-3.88,1.65-4.34,1.54-5.88-1.39-.61-1.16-1.16-2.36-1.74-3.53-1.64-3.32-3.99-5.18-8.5-3.51ZM374.01,443.02c2.44,0,4.57.08,6.69-.02,2.49-.11,3.12-.86,3.17-3.37.05-2.57-.61-3.47-2.93-3.58-2.26-.11-4.53-.02-6.93-.02v7Z"/>
      <path d="M332.09,355.12h8.17c.76,3.82.99,29.22.33,37.69-2.69.54-5.45.24-8.17.19-.78-3.87-1-29.4-.33-37.88Z"/>
      <path d="M686.59,392.96h-8.16c-.77-3.86-1-28.88-.34-37.72,1.38-.08,2.82-.19,4.26-.24,1.31-.04,2.63,0,3.88,0,.79,3.98,1.02,28.83.36,37.96Z"/>
      <path d="M250.85,392.95h-8.44c-.77-3.81-.99-29.31-.32-37.88,2.04-.02,4.15-.1,6.25-.06,1.58.03,2.35,1.01,2.5,2.53.02.17.01.33.01.5,0,11.48,0,22.95,0,34.91Z"/>
      <path d="M49.63,393.09c-1.95,0-3.6.05-5.25-.01-2.88-.1-3.47-.62-3.49-3.54-.06-7.83-.02-15.67-.02-23.5,0-2.67-.07-5.34.02-8,.08-2.29.74-2.92,2.98-3.03,1.81-.09,3.63-.02,5.39-.02.82,3.89,1.06,28.97.37,38.1Z"/>
      <path d="M582.63,326.92h-7.51c-.11-1.17-.3-2.28-.3-3.38-.02-10.49.11-20.98-.09-31.46-.06-3.33,1.03-5.37,4.06-6.53,1.18-.45,2.31-1.05,3.52-1.62.75,3.96.97,34.62.32,42.99Z"/>
      <path d="M769.33,283.94c.73,3.97.94,35.11.31,42.79-2.35.59-4.79.27-7.53.22-.11-1.22-.29-2.32-.29-3.43-.02-10.49.12-20.98-.09-31.46-.06-3.33,1.05-5.36,4.07-6.52,1.18-.45,2.31-1.05,3.52-1.6Z"/>
      <path d="M297.68,457.55c3.52-8.74,6.79-17.09,10.32-25.33.44-1.03,2.23-1.82,3.5-2.02.68-.11,1.96,1.12,2.35,2.02,2.44,5.7,4.68,11.48,7.04,17.21.87,2.12,1.96,4.15,2.84,6.27.55,1.32-.12,2.19-1.53,2.39-2.13.3-3.26-.36-3.72-2.67-.52-2.59-2.27-3.81-5.12-3.43-1.96.26-3.99.1-5.99.04-1.89-.06-2.94.53-3.58,2.55-1.16,3.66-1.35,3.6-6.11,2.98ZM307.38,446.75h7.31c-1.19-2.98-2.27-5.69-3.75-9.38-1.36,3.59-2.37,6.24-3.56,9.38Z"/>
      <path d="M97.99,393.04v-38.05c2.15,0,4.12-.09,6.07.02,2.16.12,2.65.94,2.26,3.14-.2,1.12-.37,2.27-.37,3.41-.03,8.65-.03,17.3,0,25.95,0,1.14.06,2.33.39,3.41.42,1.4-.55,1.97-1.37,2.05-2.14.2-4.31.07-6.98.07Z"/>
      <path d="M359.33,452.09h-11.9c-.72,1.36-1.47,2.81-2.25,4.23-.82,1.5-2.41,2.31-3.5,1.62-1.38-.87-1.03-2.28-.56-3.51,1.29-3.35,2.65-6.67,3.99-10.01,1.34-3.33,2.63-6.68,4.03-9.99.44-1.05,1.18-1.97,1.74-2.97.69-1.22,1.88-.67,2.86-.93,1.42-.37,1.74.59,2.1,1.41,2.03,4.64,4.03,9.3,5.96,13.99,1.18,2.86,2.15,5.81,3.34,8.68.45,1.07,1.35,2.1.23,3.12-1.11,1.01-3.35.36-4.29-1.12-.26-.41-.4-.9-.58-1.36-.34-.91-.67-1.82-1.16-3.14ZM349.43,446.71h7.55c-1.29-3.05-2.42-5.73-4-9.48-1.41,3.75-2.4,6.4-3.56,9.48Z"/>
      <path d="M334.94,436.02v21.69c-1.61.16-3.02.31-4.46.46-.27-.66-.6-1.1-.6-1.53-.03-6.65-.02-13.3-.02-20.14-3.17-1.01-6.35-.07-9.75-.7-.08-1.21-.38-2.51-.2-3.74.17-1.15.81-1.5,2.39-1.42,6.62.34,13.28.38,19.9.09,1.42-.06,2.19-.06,2.58,1.12.6,1.79-.31,3.75-1.78,4.1-.63.15-1.33.07-1.99.07-1.83,0-3.65,0-6.07,0Z"/>
      <path d="M660.78,295.03c-3.8,0-6.95.04-10.1-.01-3.53-.06-3.77-.43-3.4-4.86.75-.05,1.54-.16,2.33-.13,1.69.05,2.6-.55,3.24-2.3,1.48-4.02,2.88-4.7,7.69-4.43.12.55.29,1.15.37,1.77.25,1.94-.21,3.24-2.59,3.06-.4-.03-.86.67-1.29,1.03.34.27.64.66,1.03.8.88.33,2.42.32,2.59.83.39,1.15.12,2.53.12,4.25Z"/>
      <path d="M682.57,330.28c1.05,8.39-.36,8.22-7.1,7.57-1.52-6.78-.37-8.07,7.1-7.57Z"/>
      <path d="M26.84,338.06c0-1.84-.1-3.01.02-4.15.42-3.89,3.95-4.58,6.64-3.48.67.27,1.2,1.55,1.3,2.42.43,3.7-.93,5.18-4.53,5.21-.97,0-1.94,0-3.43,0Z"/>
      <path d="M613.91,287.08c-.03,3.41-.61,3.98-4.09,3.97-2.94,0-3.83-.6-3.76-2.55.13-3.94,1.36-5.48,4.36-5.46,2.89.02,3.52.75,3.5,4.04Z"/>
      <path d="M24.62,337.89h-6.62c-.06-1.25-.17-2.36-.15-3.46.05-4.01.63-4.54,4.6-4.4,2.33.09,3.05.91,2.78,3.24-.17,1.44-.37,2.87-.6,4.62Z"/>
      <path d="M615.94,290.51c-.05-.7-.1-1.19-.11-1.69q-.06-6.16,6.92-5.36c.05.89.14,1.85.16,2.8.03,1.45,0,2.91,0,4.65-2.64.04-4.85.61-6.98-.4Z"/>
      <path d="M229.93,290.47c-.82.32-1.11.52-1.4.53-1.65.03-3.3.02-5.18.02-.18-.61-.48-1.2-.5-1.79-.22-6.11-.05-6.27,6.7-6.05.12,1.19.3,2.44.37,3.69.06,1.15.01,2.31.01,3.61Z"/>
      <path d="M298.73,330.2v7.35c-2.1.97-4.3.43-6.75.38-.07-1.06-.15-1.85-.16-2.63-.06-4.53.39-5.01,4.91-5.25.48-.03.97.07,2,.15Z"/>
      <path d="M289.51,330.16c.17.76.34,1.22.36,1.69.25,6.29-.16,6.65-6.76,5.76-.1-.43-.28-.89-.3-1.36-.24-6.07.01-6.31,6.7-6.09Z"/>
      <path d="M75.57,283.46c.1.43.28.88.29,1.35.26,6.32-.12,6.65-6.73,5.81-.1-.42-.29-.88-.31-1.34-.25-6.3.13-6.63,6.74-5.82Z"/>
      <path d="M672.8,330.32v7.42c-1.19.11-2.27.25-3.37.31-.97.05-1.95.01-3.13.01-.17-.73-.42-1.32-.44-1.93-.18-5.85.26-6.24,6.94-5.81Z"/>
      <path d="M422.33,287.19c-.6,1.24-.96,3.12-1.73,3.31-1.8.45-3.8.08-5.72.02-.12,0-.25-.21-.35-.34-.44-.55.48-5.83,1.1-6.4.97-.89,4.2-1.24,5.09-.22.78.89,1.03,2.25,1.61,3.63Z"/>
      <path d="M423.79,290.81c0-1.6-.06-3.05.01-4.5.13-2.63,1-3.35,3.79-3.27,2.49.07,3.17.74,3.31,3.23.22,4.09-.5,4.81-4.78,4.77-.63,0-1.26-.12-2.33-.24Z"/>
      <path d="M483.97,431.43v-4.14c3.24-.92,6.36.78,9.63-.39.14,1.03.32,1.65.3,2.27-.11,2.78-1.1,3.9-3.08,2.66-2.46-1.54-4.42,1.44-6.85-.4Z"/>
    </g>
  </g>
</svg>