<?xml version="1.0" encoding="UTF-8"?>
<svg id="Layer_2" data-name="Layer 2" xmlns="http://www.w3.org/2000/svg" xmlns:xlink="http://www.w3.org/1999/xlink" viewBox="0 0 310.84 174.44">
  <defs>
    <style>
      .cls-1 {
        fill: #fff;
      }

      .cls-2 {
        fill: none;
      }

      .cls-3 {
        fill: url(#radial-gradient);
      }

      .cls-4 {
        fill: url(#radial-gradient-3);
      }

      .cls-5 {
        clip-path: url(#clippath-1);
      }

      .cls-6 {
        clip-path: url(#clippath-3);
      }

      .cls-7 {
        fill: url(#radial-gradient-2);
      }

      .cls-8 {
        fill: #293781;
      }

      .cls-9 {
        fill: url(#radial-gradient-4);
      }

      .cls-10 {
        clip-path: url(#clippath-2);
      }

      .cls-11 {
        fill: #941a41;
      }

      .cls-12 {
        clip-path: url(#clippath);
      }
    </style>
    <clipPath id="clippath">
      <path class="cls-2" d="M157.24,43.12c0,5.08,4.12,9.18,9.17,9.18s9.18-4.1,9.18-9.18-4.1-9.18-9.18-9.18-9.17,4.1-9.17,9.18"/>
    </clipPath>
    <radialGradient id="radial-gradient" cx="-99.57" cy="-314.05" fx="-99.57" fy="-314.05" r=".36" gradientTransform="translate(2707.22 -7971.28) scale(25.52 -25.52)" gradientUnits="userSpaceOnUse">
      <stop offset="0" stop-color="#fff"/>
      <stop offset=".13" stop-color="#f9f9f9"/>
      <stop offset=".29" stop-color="#eae9e9"/>
      <stop offset=".47" stop-color="#d1cfcf"/>
      <stop offset=".66" stop-color="#aeabab"/>
      <stop offset=".86" stop-color="#827e7e"/>
      <stop offset="1" stop-color="#615b5b"/>
    </radialGradient>
    <clipPath id="clippath-1">
      <path class="cls-2" d="M204.88,50.76c0,3.9,3.16,7.07,7.07,7.07s7.06-3.16,7.06-7.07-3.17-7.06-7.06-7.06-7.07,3.16-7.07,7.06"/>
    </clipPath>
    <radialGradient id="radial-gradient-2" cx="-105.94" cy="-322.22" fx="-105.94" fy="-322.22" r=".36" gradientTransform="translate(2292.84 -6278.77) scale(19.65 -19.65)" xlink:href="#radial-gradient"/>
    <clipPath id="clippath-2">
      <path class="cls-2" d="M250.41,57.34c0,3.15,2.54,5.72,5.7,5.72s5.7-2.57,5.7-5.72-2.55-5.71-5.7-5.71-5.7,2.55-5.7,5.71"/>
    </clipPath>
    <radialGradient id="radial-gradient-3" cx="-114.19" cy="-330.43" fx="-114.19" fy="-330.43" r=".36" gradientTransform="translate(2069.49 -5190.95) scale(15.88 -15.88)" xlink:href="#radial-gradient"/>
    <clipPath id="clippath-3">
      <path class="cls-2" d="M292.85,64.82c0,2.42,1.95,4.38,4.36,4.38s4.38-1.96,4.38-4.38-1.97-4.36-4.38-4.36-4.36,1.96-4.36,4.36"/>
    </clipPath>
    <radialGradient id="radial-gradient-4" cx="-127" cy="-343.48" fx="-127" fy="-343.48" r=".36" gradientTransform="translate(1839.42 -4106.76) scale(12.15 -12.15)" xlink:href="#radial-gradient"/>
  </defs>
  <g id="Layer_1-2" data-name="Layer 1">
    <g>
      <rect class="cls-8" width="310.84" height="163.04"/>
      <g class="cls-12">
        <rect class="cls-3" x="157.24" y="33.94" width="18.35" height="18.35"/>
      </g>
      <g class="cls-5">
        <rect class="cls-7" x="204.88" y="43.7" width="14.13" height="14.13"/>
      </g>
      <g class="cls-10">
        <rect class="cls-4" x="250.41" y="51.63" width="11.41" height="11.42"/>
      </g>
      <g class="cls-6">
        <rect class="cls-9" x="292.85" y="60.46" width="8.74" height="8.74"/>
      </g>
      <g>
        <path class="cls-1" d="M133.51,33.79h17.76v42.52s10.28-9.14,21.24-.63c0,0,2.15,1.63,3.54,5.3,1.16,3.13,1.61,7.62,1.21,14.91v33.66h-18.66v-37.02s.08-3.84-3.66-3.68c0,0-3.37.31-3.37,6.13v34.88h-18.35l.3-96.07Z"/>
        <path class="cls-1" d="M252.26,129.62v-36.18s-.39-4.88,4.2-4.27c0,0,3.1-.31,2.85,5.19v35.26h17.74v-36.78s.3-4.29,4.59-3.37c0,0,2.75.31,2.75,5.2v34.95h17.76v-42.59s.33-9.42-9.49-13.15c0,0-14.99-5.82-24.48,4.58,0,0-7.65-8.88-22.33-4.89,0,0-11.01,3.67-11.94,15.6v40.46h18.35Z"/>
        <path class="cls-1" d="M221.68,102.32l12.54,6.74s-5.62,13.89-19.53,18.79c-13.91,4.9-31.82-1.21-36.58-18.72,0,0-6.99-27.02,18.74-35.01,0,0,22.06-6.27,34.62,15.97l-21.58,14.66s-5.08,2.93-8.15-.75c0,0-3.62-4.03-.22-8.13,0,0,1.12-1.19,1.85-1.51.72-.33,8.03-5.16,8.03-5.16,0,0-5.54-4.82-13.5.81,0,0-9.6,7.99-2.01,18.97,0,0,5.78,7.83,16,3.37,0,0,5.83-2.43,9.79-10.02"/>
        <path class="cls-11" d="M94.51,112.9s-7.47-7.88-9.97-21.39c0,0-1.86-10.29.33-19.13,0,0,2.56-13.27,10.45-21.62,0,0-14.4-17.53-37.16-17.22,0,0-20.1-1.28-35.04,14.72,0,0-14.95,13.42-13.03,38.26,0,0,1.54,31.37,31.48,40.65,0,0,15.67,6.5,35.94-1.33l5.99,6.83s3.77,6.02,10.37,5.63c0,0,6.91-.33,7.96-6.68,0,0,.8-3.37-2.18-7.56l-7.37-8.92,2.24-2.25Z"/>
        <path class="cls-8" d="M84.08,81.76c0,14.23-11.53,25.75-25.75,25.75s-25.74-11.52-25.74-25.75,11.53-25.74,25.74-25.74,25.75,11.53,25.75,25.74"/>
        <path class="cls-1" d="M93.02,139.42c-6.38,0-10.11-5.33-10.6-6.09l-5.44-6.2c-19.73,7.35-34.83,1.54-35.98,1.07-15.82-4.92-23.73-15.97-27.59-24.37-4.17-9.09-4.59-16.92-4.61-17.25-1.91-24.68,12.33-38.16,13.35-39.09,14.91-15.95,34.5-15.11,35.83-15.03,22.99-.28,37.37,16.89,37.97,17.62l.61.74-.66.7c-7.58,8.01-10.15,20.95-10.18,21.08v.05c-2.11,8.5-.34,18.58-.32,18.68,2.4,12.99,9.61,20.75,9.69,20.83l.72.77-2.28,2.3,6.79,8.22c3.07,4.31,2.46,7.92,2.36,8.39-.96,5.69-6.29,7.44-8.98,7.57-.23.01-.46.02-.69.02ZM77.62,124.55l6.6,7.54c.03.05,3.53,5.48,9.38,5.12.26-.01,6.06-.39,6.95-5.77v-.07c.04-.11.63-2.97-1.97-6.64l-7.98-9.65,2.22-2.23c-1.96-2.35-7.45-9.77-9.55-21.14-.08-.43-1.87-10.6.33-19.56.17-.84,2.66-13.03,10.05-21.39-2.97-3.22-16.33-16.38-35.68-16.12h-.04s-.04,0-.04,0c-.2-.02-19.78-1.04-34.17,14.38l-.07.07c-.14.13-14.53,13.4-12.67,37.36,0,.11.44,7.83,4.45,16.55,5.35,11.61,14.18,19.4,26.26,23.14l.1.03c.15.06,15.54,6.23,35.13-1.34l.71-.27Z"/>
        <path class="cls-1" d="M58.12,108.6c-14.8,0-26.83-12.04-26.83-26.84s12.04-26.83,26.83-26.83,26.84,12.04,26.84,26.83-12.04,26.84-26.84,26.84ZM58.12,57.11c-13.59,0-24.65,11.06-24.65,24.66s11.06,24.66,24.65,24.66,24.66-11.06,24.66-24.66-11.06-24.66-24.66-24.66Z"/>
        <path class="cls-1" d="M130.93,33.79v21.71s-25.38.92-26.29,26.62c.29,25.09,26.04,26.54,26.04,26.54l-.1,21.19s-43.1-.61-47.07-44.67c0,0-1.84-24.48,17.13-39.76,0,0,11.92-10.73,30.28-11.64"/>
        <rect class="cls-8" y="167.12" width="310.84" height="3.06"/>
        <rect class="cls-8" y="172.91" width="310.84" height="1.53"/>
      </g>
    </g>
  </g>
</svg>