<?xml version="1.0" encoding="UTF-8"?>
<svg id="Layer_2" data-name="Layer 2" xmlns="http://www.w3.org/2000/svg" viewBox="0 0 119.69 146.64">
  <defs>
    <style>
      .cls-1 {
        fill: #3eb98f;
      }

      .cls-2 {
        fill: #045ba0;
      }

      .cls-3 {
        fill: none;
      }
    </style>
  </defs>
  <g id="Layer_1-2" data-name="Layer 1">
    <g>
      <polygon class="cls-1" points="55.39 120.1 55.39 105.99 64.92 105.99 64.92 108.65 58.56 108.65 58.56 111.42 64.2 111.42 64.2 114.03 58.56 114.03 58.56 117.43 65.38 117.43 65.38 120.1 55.39 120.1"/>
      <path class="cls-1" d="M67.33,109.75c.52-.15,1.18-.29,2-.42.81-.13,1.67-.19,2.57-.19s1.67.12,2.27.36c.6.24,1.08.57,1.44,1.01.35.43.6.95.75,1.55.15.6.22,1.26.22,2v6.05h-3.03v-5.68c0-.98-.13-1.67-.39-2.08-.26-.41-.74-.61-1.45-.61-.22,0-.45.01-.69.03-.24.02-.46.04-.65.07v8.27h-3.03v-10.34Z"/>
      <path class="cls-1" d="M78.4,114.82c0-.95.15-1.78.44-2.49.29-.71.67-1.31,1.15-1.78.48-.48,1.02-.83,1.64-1.08.62-.24,1.25-.37,1.9-.37,1.52,0,2.72.47,3.6,1.39.88.93,1.32,2.3,1.32,4.1,0,.18,0,.37-.02.58-.01.21-.03.4-.04.56h-6.88c.07.62.36,1.12.88,1.49.52.37,1.21.55,2.08.55.56,0,1.1-.05,1.64-.15.54-.1.97-.23,1.31-.38l.41,2.46c-.16.08-.38.16-.65.24-.27.08-.57.15-.91.21-.33.06-.69.11-1.07.15-.38.04-.76.06-1.14.06-.96,0-1.8-.14-2.51-.43-.71-.28-1.3-.67-1.77-1.17-.47-.49-.81-1.08-1.04-1.76-.22-.68-.34-1.41-.34-2.2M85.53,113.66c-.01-.26-.06-.51-.13-.75-.07-.25-.19-.46-.35-.65-.16-.19-.35-.35-.59-.47-.24-.12-.53-.18-.89-.18s-.63.06-.88.17c-.24.12-.45.27-.61.46-.16.19-.29.41-.38.66-.09.25-.15.51-.19.76h4.01Z"/>
      <path class="cls-1" d="M97.05,112.07c-.27-.07-.59-.14-.96-.21-.37-.07-.76-.11-1.18-.11-.19,0-.42.02-.68.05-.26.03-.47.07-.6.11v8.19h-3.03v-10.14c.54-.19,1.18-.37,1.92-.54.74-.17,1.56-.25,2.47-.25.16,0,.36,0,.59.03.23.02.46.05.69.08.23.03.46.07.69.12.23.05.43.11.59.17l-.51,2.5Z"/>
      <path class="cls-1" d="M107.63,118.75c0,1.75-.44,3.05-1.33,3.9-.89.85-2.26,1.27-4.12,1.27-.65,0-1.3-.06-1.95-.17-.65-.11-1.26-.27-1.81-.46l.53-2.55c.48.19.97.34,1.5.45.52.11,1.12.16,1.78.16.87,0,1.48-.19,1.84-.57.36-.38.54-.87.54-1.47v-.39c-.33.15-.66.26-1.01.34-.35.07-.72.11-1.13.11-1.48,0-2.61-.44-3.4-1.31-.79-.88-1.18-2.1-1.18-3.68,0-.79.12-1.5.37-2.15.24-.64.6-1.2,1.07-1.66.47-.46,1.04-.82,1.72-1.07.68-.25,1.44-.38,2.3-.38.37,0,.74.02,1.13.05.39.03.77.08,1.15.13.38.05.74.12,1.09.19.35.07.65.15.93.23v9ZM100.97,114.39c0,1.7.69,2.55,2.06,2.55.31,0,.6-.04.88-.12.27-.08.5-.18.69-.28v-4.85c-.15-.03-.33-.05-.53-.07-.2-.02-.44-.03-.71-.03-.8,0-1.4.27-1.79.79-.39.53-.59,1.2-.59,2.02"/>
      <path class="cls-1" d="M119.69,109.39c-.61,2.06-1.25,4-1.92,5.8s-1.39,3.56-2.18,5.25c-.29.61-.57,1.13-.86,1.56-.29.43-.6.78-.94,1.06-.34.28-.72.48-1.15.61-.43.13-.93.19-1.5.19-.48,0-.91-.04-1.31-.13-.4-.09-.73-.19-.99-.3l.53-2.42c.31.11.59.18.83.22.24.04.5.06.78.06.54,0,.96-.15,1.25-.44.29-.29.54-.7.74-1.21-.69-1.36-1.39-2.88-2.08-4.57-.69-1.69-1.34-3.59-1.96-5.69h3.22c.14.53.3,1.1.48,1.72.18.62.38,1.24.58,1.87.2.63.41,1.25.62,1.84.21.6.41,1.14.6,1.63.18-.49.36-1.03.55-1.63.19-.6.38-1.21.56-1.84.18-.63.36-1.26.53-1.87.17-.62.32-1.19.46-1.72h3.14Z"/>
      <path class="cls-2" d="M14.05,113.03c0,.99-.12,1.88-.37,2.68-.24.79-.59,1.49-1.03,2.09-.44.6-.97,1.09-1.58,1.49-.61.39-1.28.68-2.02.86.07.27.22.49.45.66.23.17.52.31.88.42.35.11.76.19,1.23.24.47.05.97.1,1.52.14l-.65,2.32c-1.06-.04-1.97-.15-2.72-.32-.75-.17-1.39-.4-1.91-.7-.52-.3-.94-.67-1.24-1.1-.31-.44-.54-.94-.7-1.51-.84-.11-1.62-.34-2.34-.7-.72-.36-1.34-.85-1.87-1.46-.53-.61-.94-1.34-1.24-2.2-.3-.86-.45-1.83-.45-2.91,0-1.21.19-2.27.57-3.19.38-.92.89-1.69,1.54-2.31.64-.62,1.39-1.09,2.24-1.4.85-.31,1.74-.47,2.68-.47s1.87.16,2.73.47c.86.31,1.6.78,2.24,1.4.64.62,1.14,1.39,1.51,2.31.37.92.55,1.98.55,3.19M3.28,113.03c0,.69.08,1.32.25,1.87.17.56.41,1.04.73,1.44.32.4.71.71,1.17.93.46.22.99.33,1.59.33s1.11-.11,1.58-.33c.47-.22.86-.53,1.18-.93.32-.4.56-.88.73-1.44.17-.56.25-1.18.25-1.87s-.09-1.32-.25-1.88c-.17-.56-.41-1.05-.73-1.45-.32-.4-.71-.71-1.18-.93-.47-.22-.99-.33-1.58-.33s-1.13.11-1.59.34c-.46.22-.85.54-1.17.94-.32.4-.56.88-.73,1.44-.17.56-.25,1.19-.25,1.86"/>
      <path class="cls-2" d="M20.13,109.1c.9,0,1.64.1,2.24.31.6.2,1.08.5,1.44.88.36.38.61.84.76,1.38.15.54.22,1.15.22,1.81v6.31c-.44.1-1.04.21-1.81.34-.77.13-1.71.19-2.81.19-.69,0-1.32-.06-1.88-.18s-1.05-.32-1.46-.6c-.41-.28-.72-.64-.94-1.09-.22-.45-.33-1-.33-1.65s.13-1.15.38-1.59c.25-.44.59-.78,1.01-1.04.42-.26.9-.44,1.45-.56.54-.12,1.11-.17,1.69-.17.39,0,.74.02,1.05.05.31.03.55.08.74.13v-.29c0-.52-.16-.93-.47-1.24-.31-.31-.86-.47-1.63-.47-.52,0-1.03.04-1.53.11-.5.07-.94.18-1.3.32l-.39-2.44c.18-.05.4-.11.66-.17.26-.06.55-.12.87-.16.31-.05.64-.09.99-.12.35-.03.7-.05,1.05-.05M20.37,117.98c.3,0,.58,0,.85-.02.27-.01.49-.03.65-.06v-2.3c-.12-.03-.31-.05-.55-.08-.24-.03-.47-.04-.67-.04-.28,0-.55.02-.8.05-.25.03-.47.1-.66.19-.19.1-.34.22-.45.39-.11.16-.16.37-.16.61,0,.48.16.8.48.99.32.18.76.28,1.31.28"/>
      <path class="cls-2" d="M27.01,106.72l3.03-.49v3.16h3.64v2.53h-3.64v3.77c0,.64.11,1.15.34,1.53.22.38.67.57,1.35.57.33,0,.66-.03,1.01-.09.35-.06.66-.15.95-.25l.43,2.36c-.37.15-.77.28-1.22.39-.45.11-1,.16-1.65.16-.83,0-1.51-.11-2.06-.34-.54-.22-.98-.54-1.3-.94-.33-.4-.55-.89-.68-1.46-.13-.57-.19-1.2-.19-1.89v-9Z"/>
      <path class="cls-2" d="M40.02,109.1c.9,0,1.64.1,2.24.31.6.2,1.08.5,1.44.88.36.38.61.84.76,1.38.15.54.22,1.15.22,1.81v6.31c-.44.1-1.04.21-1.81.34-.77.13-1.71.19-2.81.19-.69,0-1.32-.06-1.88-.18s-1.05-.32-1.46-.6c-.41-.28-.72-.64-.94-1.09-.22-.45-.33-1-.33-1.65s.13-1.15.38-1.59c.25-.44.59-.78,1.01-1.04.42-.26.9-.44,1.45-.56.54-.12,1.11-.17,1.69-.17.39,0,.74.02,1.05.05.31.03.55.08.74.13v-.29c0-.52-.16-.93-.47-1.24-.31-.31-.85-.47-1.63-.47-.52,0-1.03.04-1.53.11-.5.07-.94.18-1.3.32l-.39-2.44c.18-.05.4-.11.66-.17.26-.06.55-.12.87-.16.31-.05.64-.09.99-.12.35-.03.7-.05,1.05-.05M40.27,117.98c.3,0,.58,0,.85-.02.27-.01.49-.03.65-.06v-2.3c-.12-.03-.31-.05-.55-.08-.24-.03-.47-.04-.67-.04-.28,0-.55.02-.8.05-.25.03-.47.1-.66.19-.19.1-.34.22-.45.39-.11.16-.16.37-.16.61,0,.48.16.8.48.99.32.18.76.28,1.31.28"/>
      <path class="cls-2" d="M53.46,112.07c-.27-.07-.59-.14-.96-.21-.37-.07-.76-.11-1.18-.11-.19,0-.42.02-.68.05-.26.03-.47.07-.6.11v8.19h-3.03v-10.14c.54-.19,1.18-.37,1.92-.54.74-.17,1.56-.25,2.47-.25.16,0,.36,0,.59.03.23.02.46.05.69.08.23.03.46.07.69.12.23.05.43.11.59.17l-.51,2.5Z"/>
      <path class="cls-1" d="M4.13,89.7c.39,0,.74-.15,1.03-.44.29-.29.44-.65.44-1.05s-.15-.76-.44-1.05c-.29-.29-.64-.44-1.03-.44-.42,0-.77.15-1.04.44-.27.29-.41.65-.41,1.05s.14.76.41,1.05c.27.29.62.44,1.04.44"/>
      <path class="cls-1" d="M8.18,89.7c.42,0,.77-.15,1.04-.44.27-.29.41-.64.41-1.05s-.14-.76-.41-1.05c-.27-.29-.62-.44-1.04-.44-.39,0-.73.15-1.02.44-.28.29-.43.64-.43,1.05s.14.76.43,1.05c.28.29.63.44,1.02.44"/>
      <path class="cls-1" d="M21.52,89.7c.39,0,.74-.15,1.03-.44.29-.29.44-.65.44-1.05s-.15-.76-.44-1.05-.64-.44-1.03-.44c-.42,0-.77.15-1.04.44-.27.29-.41.65-.41,1.05s.14.76.41,1.05c.27.29.62.44,1.04.44"/>
      <path class="cls-1" d="M27.09,91.85c-.48-.45-1.05-.78-1.69-.96-.63-.18-1.31-.27-2.01-.27s-1.42.13-2.06.39c-.64.26-1.2.61-1.67,1.06-.47.45-.85.97-1.12,1.56-.27.59-.41,1.23-.41,1.91,0,.43.06.82.18,1.18.12.36.26.67.42.93.16.25.32.47.48.63.08.08.14.14.2.19h-9.11v-7.47h-3.39c-2.25,0-3.98.46-5.15,1.36C.59,93.26,0,94.59,0,96.31c0,.47.07.99.2,1.55.13.56.39,1.09.77,1.58.38.48.93.89,1.62,1.21.69.32,1.61.48,2.73.48h23.35v-4.6c0-1.13-.14-2.09-.43-2.85-.28-.76-.67-1.37-1.16-1.83M7.23,98.5h-1.69c-.72,0-1.32-.18-1.76-.53-.44-.35-.66-.91-.66-1.66,0-.31.05-.64.14-.95.09-.32.26-.61.5-.86.24-.25.57-.47.99-.63.42-.16.96-.25,1.6-.25h.88v4.88ZM25.56,98.5h-2.08c-.32,0-.62-.06-.89-.19-.27-.13-.5-.31-.7-.53-.2-.23-.36-.5-.47-.81-.11-.31-.17-.66-.17-1.05,0-.87.2-1.56.6-2.06.39-.49.91-.74,1.55-.74.75,0,1.3.24,1.64.71.35.48.52,1.16.52,2.03v2.65Z"/>
      <path class="cls-1" d="M25.57,89.7c.42,0,.77-.15,1.04-.44.27-.29.41-.64.41-1.05s-.14-.76-.41-1.05c-.27-.29-.62-.44-1.04-.44-.39,0-.73.15-1.02.44-.28.29-.43.64-.43,1.05s.14.76.43,1.05c.28.29.63.44,1.02.44"/>
      <path class="cls-1" d="M64.03,87.02s-.91.02-.91.85c0,.09,0,10.58,0,10.58h-2.52c-.38,0-.69-.05-.93-.16-.23-.1-.4-.26-.52-.46-.12-.2-.2-.46-.23-.75-.04-.3-.05-.66-.05-1.06,0,0,0-8.92,0-8.95v-.05h-2.21s-.92.02-.92.85c0,.05,0,8.15,0,8.15,0,.4-.02.76-.05,1.06-.04.3-.11.55-.23.75-.12.2-.29.35-.51.46-.22.1-.53.16-.91.16h-1.95v-1.25c0-1.23-.17-2.28-.52-3.12-.34-.84-.8-1.52-1.35-2.03-.56-.51-1.21-.88-1.94-1.1-.73-.22-1.48-.33-2.24-.33-.63,0-1.22.08-1.76.23-.54.15-1.03.37-1.47.64-.44.27-.83.59-1.15.95-.28.3-.51.62-.7.96v-6.37h-2.24s-.9.02-.9.85v10.58s-3.83,0-3.83,0v-10.84h-2.24s-.9.02-.9.85c0,.09,0,12.66,0,12.66h23.83c.57,0,1.11-.1,1.61-.31.48-.2.86-.57,1.16-1.11.29.54.65.91,1.08,1.11.45.21.96.31,1.54.31h6.2v-14.11h-2.23ZM48.96,98.46h-8.06c0-.65.12-1.28.33-1.88.22-.61.54-1.15.95-1.62.41-.47.9-.84,1.46-1.11.56-.27,1.2-.41,1.88-.41,1.2,0,2.08.34,2.61,1,.54.67.82,1.65.82,2.91v1.1Z"/>
      <path class="cls-2" d="M116.59,89.7c.42,0,.77-.15,1.04-.44.27-.29.41-.64.41-1.05s-.14-.76-.41-1.05c-.27-.29-.62-.44-1.04-.44-.39,0-.73.15-1.02.44-.28.29-.43.64-.43,1.05s.14.76.43,1.05c.28.29.63.44,1.02.44"/>
      <path class="cls-2" d="M119.26,93.68c-.28-.76-.67-1.37-1.16-1.83-.48-.45-1.05-.78-1.69-.96-.63-.18-1.31-.27-2.01-.27s-1.42.13-2.06.39c-.64.25-1.2.61-1.67,1.06-.47.45-.85.97-1.12,1.56-.27.59-.41,1.23-.41,1.91,0,.43.06.82.18,1.18.12.36.26.67.42.93.16.25.32.47.47.63.08.08.14.14.2.19h-16.82v-1.25c0-1.23-.17-2.28-.52-3.12-.34-.84-.8-1.52-1.35-2.03-.56-.51-1.21-.88-1.94-1.1-.73-.22-1.48-.33-2.24-.33-.63,0-1.22.08-1.76.23-.54.15-1.03.37-1.47.64-.44.27-.83.59-1.15.95-.28.3-.51.62-.7.96v-6.37h-2.22s-.91.02-.91.86c0,.05,0,10.58,0,10.58h-3.84v-7.19h-2.23s-.91.02-.91.85c0,.08,0,10.07,0,10.07,0,.63-.15,1.08-.45,1.32-.3.24-.72.37-1.24.37-.34,0-.66-.04-.94-.13-.36-.11-.49-.15-.54-.17l-.05-.02-.75,2.12.04.02s.12.06.29.12c.16.07.37.13.62.2.25.07.53.12.86.18.32.05.66.08,1.01.08.57,0,1.12-.07,1.64-.21.52-.14.98-.39,1.37-.73.39-.35.7-.81.94-1.37.23-.56.35-1.28.35-2.14v-.69h44.19v-4.6c0-1.13-.14-2.09-.43-2.85M90.49,98.46h-8.06c0-.65.12-1.28.33-1.88.22-.61.54-1.15.95-1.62.41-.46.9-.84,1.46-1.11.56-.27,1.2-.41,1.88-.41,1.2,0,2.08.34,2.61,1,.54.67.82,1.65.82,2.91v1.1ZM116.58,98.5h-2.08c-.32,0-.63-.06-.89-.19-.27-.13-.5-.31-.7-.53-.2-.23-.36-.5-.47-.81-.11-.31-.17-.66-.17-1.05,0-.87.2-1.56.6-2.06.39-.49.91-.74,1.55-.74.75,0,1.3.24,1.64.71.35.48.52,1.16.52,2.03v2.65Z"/>
      <path class="cls-2" d="M112.54,89.7c.39,0,.74-.15,1.03-.44.29-.29.44-.65.44-1.05s-.15-.76-.44-1.05-.64-.44-1.03-.44c-.42,0-.77.15-1.04.44-.27.29-.41.65-.41,1.05s.14.76.41,1.05c.27.29.62.44,1.04.44"/>
      <path class="cls-2" d="M65.51,67.19c-.44,0-.86.14-1.19.37-.04.03-.09.06-.13.1-.03.03-.23.19-.34.27-.09.06-.17.1-.23.13-.64.3-2.23.82-3.16-.77h0s0,0,0,0c-.08,0-.17,0-.25,0-4.45-.06-8.69-1.86-11.93-5.05-3.23-3.19-5.08-7.4-5.19-11.85-.08-3.19.7-6.31,2.24-9.03l.07-.12c.25-.43.52-.85.81-1.27l.19-.27.13-.19.12-.19.11-.18,13.48-20.01s.14-.19.18-.25c.05-.06.11-.13.16-.19.09-.11.26-.27.5-.4.58-.33,1.55-.56,2.61.18.04.03.19.13.23.15.33.22.73.35,1.16.35,1.16,0,2.1-.94,2.1-2.1s-.94-2.1-2.1-2.1c-.51,0-.98.18-1.34.49-.1.08-.31.28-.39.36-.37.39-1.58,1.47-2.56.09-.05-.07-.17-.27-.22-.47-.09-.4-.16-1.14.63-1.41.02,0,.1-.03.12-.03.44-.08.83-.3,1.13-.61.02-.02.19-.2.22-.22,1.29-1.1,2.71-.41,3.27-.05.04.02.15.11.18.13.22.16.49.25.78.25.74,0,1.33-.6,1.33-1.33s-.6-1.33-1.33-1.33c-.18,0-.34.03-.5.1-.04.02-.08.04-.12.06-.03.02-.2.12-.24.16-1.53,1.08-2.81.17-3.21-.19-.09-.08-.22-.25-.26-.31-.27-.34-.65-.6-1.09-.72h0s-1.04-.26-1.04-1.37v-1.11c0-.77.32-1.13.56-1.29.05-.03.16-.08.22-.11.01,0,.04-.02.05-.02.74-.32,1.26-1.06,1.26-1.92,0-.73-.38-1.38-.95-1.75-.03-.02-.06-.04-.09-.06,0,0,0,0-.01,0,0,0,0,0-.02,0-.97-.54-1.03-1.95-1.03-2.07h0s0-.01,0-.01l-4.13,6.13-18.34,27.22-.18.28-.19.27c-.47.66-.9,1.35-1.3,2.04l-.09.15c-2.51,4.4-3.77,9.42-3.64,14.54.18,7.18,3.13,13.95,8.31,19.07,5.18,5.12,11.99,7.99,19.17,8.09.13,0,.27,0,.4,0h0c1.16,0,2.09-.94,2.09-2.1,0-.76-.42-1.41-1.03-1.77-.01,0-.07-.04-.09-.05-.12-.07-.3-.18-.37-.23-.04-.03-.08-.06-.12-.1-.24-.2-.48-.55-.5-1.04,0-.09,0-.44.09-.73.05-.14.11-.3.21-.47.07-.12.19-.25.23-.28.11-.11.24-.22.39-.32,0,0,0,0,.01,0,.6-.4,1.5-.6,2.73.16.01,0,.02.01.03.02.03.02.12.08.15.1.35.25.77.41,1.24.41,1.16,0,2.1-.94,2.1-2.1s-.94-2.1-2.1-2.1"/>
      <path class="cls-1" d="M70,18.19c.74,0,1.33-.6,1.33-1.33s-.6-1.33-1.33-1.33-1.33.6-1.33,1.33.6,1.33,1.33,1.33"/>
      <path class="cls-1" d="M73.69,23.53c.74,0,1.33-.6,1.33-1.33s-.6-1.33-1.33-1.33-1.33.6-1.33,1.33.6,1.33,1.33,1.33"/>
      <path class="cls-1" d="M65.17,72.97c-.74,0-1.33.6-1.33,1.33s.6,1.33,1.33,1.33,1.33-.6,1.33-1.33-.6-1.33-1.33-1.33"/>
      <path class="cls-1" d="M83.99,38.88c.74,0,1.33-.6,1.33-1.33s-.6-1.33-1.33-1.33-1.33.6-1.33,1.33.6,1.33,1.33,1.33"/>
      <path class="cls-1" d="M85.03,51.62c-1.16,0-2.1.94-2.1,2.1s.94,2.1,2.1,2.1,2.1-.94,2.1-2.1-.94-2.1-2.1-2.1"/>
      <path class="cls-1" d="M84.75,45.46c1.16,0,2.1-.94,2.1-2.1s-.94-2.1-2.1-2.1-2.1.94-2.1,2.1.94,2.1,2.1,2.1"/>
      <path class="cls-1" d="M69.89,71.8c-1.16,0-2.1.94-2.1,2.1s.94,2.1,2.1,2.1,2.1-.94,2.1-2.1-.94-2.1-2.1-2.1"/>
      <path class="cls-1" d="M68.34,28.98c1.16,0,2.1-.94,2.1-2.1s-.94-2.1-2.1-2.1-2.1.94-2.1,2.1.94,2.1,2.1,2.1"/>
      <path class="cls-1" d="M69.76,32.22c0,.74.6,1.33,1.33,1.33s1.33-.6,1.33-1.33-.6-1.33-1.33-1.33-1.33.6-1.33,1.33"/>
      <path class="cls-1" d="M70.07,70.62c.74,0,1.33-.6,1.33-1.33s-.6-1.33-1.33-1.33-1.33.6-1.33,1.33.6,1.33,1.33,1.33"/>
      <path class="cls-1" d="M77.87,43.37c0,.74.6,1.33,1.33,1.33s1.33-.6,1.33-1.33-.6-1.33-1.33-1.33-1.33.6-1.33,1.33"/>
      <path class="cls-1" d="M72.53,66.02c.74,0,1.33-.6,1.33-1.33s-.6-1.33-1.33-1.33-1.33.6-1.33,1.33.6,1.33,1.33,1.33"/>
      <path class="cls-1" d="M80.4,53.94c0-.74-.6-1.33-1.33-1.33s-1.33.6-1.33,1.33.6,1.33,1.33,1.33,1.33-.6,1.33-1.33"/>
      <path class="cls-1" d="M76.31,61.5c1.16,0,2.1-.94,2.1-2.1s-.94-2.1-2.1-2.1-2.1.94-2.1,2.1.94,2.1,2.1,2.1"/>
      <path class="cls-1" d="M73.01,28.14c.2,0,.39-.04.56-.12.03-.01.06-.03.09-.05.11-.06.4-.29.43-.31.03-.02.05-.03.08-.05.7-.42,1.3-.2,1.63.01.07.04.24.19.28.22,0,0,0,0,0,0h0c.23.18.52.29.83.29.74,0,1.33-.6,1.33-1.33s-.6-1.33-1.33-1.33c-.23,0-.45.06-.64.17-.05.03-.1.06-.15.1-.04.03-.19.14-.23.16-.07.03-.13.06-.2.09-.58.22-1.1.12-1.48-.03-.06-.02-.32-.16-.42-.23-.07-.05-.14-.09-.19-.11,0,0,0,0,0,0h0c-.18-.08-.37-.14-.58-.14-.74,0-1.33.6-1.33,1.33s.6,1.33,1.33,1.33"/>
      <path class="cls-1" d="M81.04,50.12s.06-.05.1-.08c1.58-1.25,2.7-.88,3.17-.61.06.03.19.13.25.17.15.1.44.26.76.24.74-.04,1.33-.6,1.33-1.33s-.6-1.33-1.33-1.33c-.21,0-.41.05-.59.14-.02.01-.07.04-.12.07-.07.04-.28.15-.33.17-1.01.44-1.96.12-2.51-.17-.07-.04-.34-.22-.43-.29-.1-.08-.19-.17-.23-.2-.32-.28-.72-.46-1.16-.51-.07,0-.14-.01-.22-.01h-.06c-.07,0-.15,0-.22.01-1.05.11-1.87,1-1.87,2.08,0,1.16.94,2.09,2.1,2.09.01,0,.02,0,.03,0,0,0,.02,0,.03,0,.31,0,.6-.07.87-.19.02,0,.3-.15.44-.27"/>
      <path class="cls-1" d="M77.62,31.02c.45.33,1.23.7,2.12.18.04-.02.22-.14.27-.16.18-.09.39-.15.61-.15.74,0,1.33.6,1.33,1.33s-.6,1.33-1.33,1.33c-.24,0-.47-.06-.66-.18-.03-.02-.07-.04-.1-.06,0,0,0,0,0,0-.02-.01-.18-.12-.28-.17-.42-.19-1.29-.35-2.42.63,0,0,0,0-.01,0-.04.04-.09.07-.13.1,0,0,0,0,0,0-.34.24-.76.39-1.21.39-1.16,0-2.1-.94-2.1-2.1s.94-2.1,2.1-2.1c.45,0,.86.14,1.2.38.08.06.15.12.22.18h0s0,0,0,0c.06.05.31.3.4.37"/>
      <path class="cls-1" d="M74.92,39.56c.23,0,.45-.06.64-.17h0s0,0,.01,0c.11-.06.21-.15.3-.24.22-.21.34-.26.36-.27.79-.4,1.53-.05,1.9.27.04.04.21.19.25.24.04.04.09.09.14.12.05.04.11.09.17.12.33.22.73.35,1.16.35,1.16,0,2.1-.94,2.1-2.09s-.94-2.1-2.1-2.1c-.51,0-.97.18-1.33.48h0s0,0,0,0c-.11.09-.21.19-.3.31-.08.09-.18.23-.27.33-.05.06-.21.21-.25.24-.65.5-1.21.48-1.56.3-.09-.05-.17-.1-.24-.14-.06-.04-.17-.13-.19-.14-.22-.17-.5-.27-.8-.27-.74,0-1.33.6-1.33,1.33s.6,1.33,1.33,1.33"/>
      <path class="cls-1" d="M84.87,57.99c-.28,0-.53.09-.75.23-.06.04-.26.18-.42.25-.19.08-.38.12-.55.14-.44.05-.83-.07-1.11-.2-.04-.02-.2-.11-.27-.16-.08-.05-.16-.11-.21-.13,0,0,0,0,0,0h0c-.18-.09-.37-.14-.58-.14-.74,0-1.33.6-1.33,1.33s.6,1.33,1.33,1.33c.17,0,.34-.03.49-.09.04-.01.07-.03.11-.05.06-.03.16-.1.25-.17.11-.08.23-.18.26-.19.78-.5,1.43-.2,1.75.03.04.03.17.15.21.18,0,0,0,0,0,0h0c.23.18.52.29.83.29.74,0,1.33-.6,1.33-1.33s-.6-1.33-1.33-1.33"/>
      <path class="cls-1" d="M81.77,62c-.62,0-1.14.28-1.56.7h0c-1.33,1.32-2.32.75-2.57.57-.04-.03-.06-.05-.06-.05-.01-.01-.03-.03-.05-.04-.23-.17-.51-.28-.81-.28-.74,0-1.33.6-1.33,1.33s.6,1.33,1.33,1.33c.33,0,.63-.12.86-.31h0s.17-.16.21-.19c1.02-.83,1.91-.13,2.26.23.03.03.13.15.16.18,0,0,0,0,0,0h0c.38.43.94.7,1.56.7,1.16,0,2.1-.94,2.1-2.1s-.94-2.1-2.1-2.1"/>
      <path class="cls-1" d="M79.56,67.61c-.21,0-.42.05-.59.14-.02,0-.17.09-.35.27-.05.04-.2.18-.29.23-.09.05-.18.09-.27.13-.64.24-1.2,0-1.59-.25-.04-.03-.07-.05-.11-.08-.07-.05-.2-.18-.23-.21-.06-.06-.12-.12-.18-.17-.36-.3-.83-.48-1.33-.48-1.16,0-2.09.94-2.09,2.09s.94,2.1,2.09,2.1c.51,0,.97-.18,1.33-.48h0s0,0,0,0c.08-.06.15-.14.22-.21.08-.09.3-.38.41-.5.04-.04.09-.09.14-.12.13-.11.26-.19.38-.25.49-.25.9-.21,1.2-.1.04.02.09.03.12.05.12.06.26.19.28.21.23.19.52.3.85.3.74,0,1.33-.6,1.33-1.33s-.6-1.33-1.33-1.33"/>
      <path class="cls-1" d="M69.24,19.95c-.48,0-.92.16-1.27.43-.05.04-.15.13-.24.22-.1.1-.27.25-.3.28-1.08.84-1.86.54-2.14.37-.08-.05-.18-.12-.21-.14-.22-.15-.48-.25-.76-.25-.74,0-1.33.6-1.33,1.33s.6,1.33,1.33,1.33c.33,0,.62-.12.86-.31,0,0,0,0,0,0,.03-.02.27-.25.39-.32.09-.04.17-.08.26-.1.58-.14,1.21.19,1.64.49.05.04.23.18.3.24.06.05.12.11.16.14.02.02.04.03.06.05,0,0,.01.01.01.01h0c.35.25.78.41,1.24.41,1.16,0,2.1-.94,2.1-2.1s-.94-2.1-2.1-2.1"/>
      <path class="cls-1" d="M63.88,8.92c.74,0,1.33-.6,1.33-1.33s-.6-1.33-1.33-1.33-1.33.6-1.33,1.33.6,1.33,1.33,1.33"/>
      <rect class="cls-1" x=".11" y="128.51" width="119.48" height=".94"/>
      <polygon class="cls-2" points="40.83 143.38 40.83 131.78 43.1 131.78 43.1 141.49 48.73 141.49 48.73 143.38 40.83 143.38"/>
      <polygon class="cls-2" points="53.92 143.38 53.92 131.78 56.12 131.77 60.71 139.66 60.71 131.77 62.81 131.77 62.81 143.38 60.54 143.38 56.02 136.07 56.02 143.38 53.92 143.38"/>
      <path class="cls-2" d="M73.98,139.07v-1.89h4.88v4.47c-.47.46-1.16.86-2.06,1.21-.9.35-1.81.52-2.74.52-1.17,0-2.2-.25-3.07-.74-.87-.49-1.53-1.2-1.96-2.11-.44-.92-.66-1.91-.66-2.99,0-1.17.24-2.21.73-3.11.49-.91,1.2-1.6,2.15-2.09.72-.37,1.61-.56,2.69-.56,1.39,0,2.48.29,3.26.88.78.58,1.29,1.39,1.51,2.42l-2.25.42c-.16-.55-.46-.99-.89-1.3-.44-.32-.98-.48-1.63-.48-.99,0-1.78.31-2.36.94-.58.63-.88,1.56-.88,2.79,0,1.33.3,2.33.89,2.99.59.67,1.37,1,2.33,1,.47,0,.95-.09,1.43-.28.48-.19.89-.41,1.23-.68v-1.42h-2.59Z"/>
      <rect class="cls-3" x="0" y="0" width="119.69" height="146.64"/>
    </g>
  </g>
</svg>