<?xml version="1.0" encoding="UTF-8"?>
<svg id="Layer_2" data-name="Layer 2" xmlns="http://www.w3.org/2000/svg" viewBox="0 0 174.84 181.57">
  <defs>
    <style>
      .cls-1 {
        fill: #4f1955;
      }
    </style>
  </defs>
  <g id="Layer_1-2" data-name="Layer 1">
    <path class="cls-1" d="M47.66,30.97c.46-.65,4.33-15.72,18.28-24.62C79.23-2.12,93.17.33,93.17.33c0,0,7.92,1.41,11.12,3.2,0,0-8.59-1.98-16.96,2.26-7.77,3.94-11.93,9.15-19.49,18.8-6.93,8.82-18.63,6.71-20.04,6.42,1.53.49,11.15,7.03,22.1-1.58,10.88-8.56,12.33-16.8,23.99-23.59,5.99-3.49,12.15-1.27,12.15-1.27,17.25,8.05,20.64,24.02,20.64,24.02.73,3.12-2.94,6.25-4.31,6.99-4.8,2.58-15.96.96-20.62.55-11-1-22.71-1.6-31.19,1.22-6.14,2.04-12.08,5.83-14.51,11.96-2.42,6.12-.39,15.51,5.34,21.02,3.09,2.98,6.96,6.49,10.95,8.24-32.66-14.27-24.67-47.59-24.67-47.59M114.89,70.97c-18.83,16.58-40.43,8.13-40.43,8.13,0,0-5.18-1.15-9.29-7.86-3.79-6.21-3.82-14.81,1.1-20.51,1.79-2.08,4.29-3.77,6.81-4.8,11.14-4.56,23.31-1.67,34.91-2.76,6.25-.59,16.69-1,18.67-8.32.37-1.38.4-4.34,0-6.31-.17-.65-.28-1.02-.28-1.02.11.29.2.64.28,1.02,1.24,4.94,5.49,26.78-11.77,42.43"/>
    <path class="cls-1" d="M71.79,120.7c-2.32,0-3.53-1-3.99-3.22-.37.06-.71.09-1.05.09-3.74,0-5.53-3.68-5.53-11.15s1.64-11.03,6.09-11.03,5.97,3.58,5.97,11.03c0,4.4-.49,7.51-2.35,9.69.25.7.77.97,1.64.97h.25v3.56c-.37.03-.71.06-1.02.06M68.85,107.21c0-5.77-.12-8.42-1.58-8.42-1.55,0-1.64,2.43-1.64,7.78s.15,7.39,1.67,7.39c1.27,0,1.55-2.19,1.55-6.75M79.83,101.62c3.28,0,4.42,1.46,4.42,4.59v8.48c0,.79.09,1.67.31,2.55h-3.4c-.25-.49-.4-.94-.43-1.37-.83,1.15-1.79,1.73-2.84,1.73-1.73,0-3.19-1.76-3.19-4.5,0-3.38,1.89-5.14,5.81-5.56v-2.1c0-.52-.37-.88-.9-.88-.71,0-1.02.55-1.11,1.64l-3.28-.22c.22-2.88,1.82-4.38,4.61-4.38M80.51,109.94c-1.36.09-2.13,1-2.13,2.55,0,1.25.49,2.01,1.11,2.01.34,0,.74-.27,1.02-.76v-3.8ZM85.58,101.98h1.57l.37-5.14h3.18v5.14h2.38v2.95h-2.38v8.48c0,.7.56,1.12,1.48,1.12.31,0,.65-.06,1.05-.15v2.71c-1.05.34-2.01.55-2.9.55-2.63,0-3.19-1.13-3.19-3.62v-9.09h-1.57v-2.95ZM99.37,101.62c3.28,0,4.42,1.46,4.42,4.59v8.48c0,.79.09,1.67.31,2.55h-3.4c-.25-.49-.4-.94-.43-1.37-.83,1.15-1.79,1.73-2.84,1.73-1.73,0-3.18-1.76-3.18-4.5,0-3.38,1.88-5.14,5.81-5.56v-2.1c0-.52-.37-.88-.9-.88-.71,0-1.02.55-1.12,1.64l-3.28-.22c.22-2.88,1.82-4.38,4.61-4.38M100.05,109.94c-1.36.09-2.13,1-2.13,2.55,0,1.25.49,2.01,1.11,2.01.34,0,.74-.27,1.02-.76v-3.8ZM106.11,101.98h3.59v2.19c.93-1.46,2.19-2.28,3.93-2.43v4.04c-.59-.12-1.08-.18-1.48-.18-1.55,0-2.44.7-2.44,1.76v9.88h-3.59v-15.26Z"/>
    <path class="cls-1" d="M70.19,154.15c4.3,0,5.97,3.61,5.97,11.12s-1.64,11.12-5.94,11.12-6.12-3.56-6.12-11.12,1.64-11.12,6.09-11.12M71.74,166.04c0-5.77-.13-8.42-1.58-8.42-1.54,0-1.64,2.46-1.64,7.81s.16,7.38,1.67,7.38c1.27,0,1.55-2.22,1.55-6.78M78.44,160.75h3.59v.76c.84-.76,1.67-1.12,2.57-1.12,2.47,0,3.46,2.52,3.46,7.63,0,5.44-1.18,8.12-3.74,8.12-.93,0-1.79-.43-2.29-1.06v6.5h-3.59v-20.82ZM82.8,173.76c1.24,0,1.33-1.91,1.33-5.93,0-3.31-.15-4.92-1.21-4.92-.46,0-.9.49-.9,1.06v8.72c0,.7.28,1.06.77,1.06M94.88,176.4c-3.09,0-5.19-2.83-5.19-7.84,0-5.35,1.92-8.17,5.01-8.17s4.7,2.64,4.7,7.87c0,.39,0,.82-.03,1.25h-5.66v.49c0,2.19.4,3.25,1.45,3.25.89,0,1.55-.76,1.67-2.04l2.69.58c-.68,3.04-2.26,4.62-4.64,4.62M95.81,166.52c.03-.3.03-.61.03-.88,0-1.58-.31-2.34-1.11-2.34s-1.14.79-1.14,2.4c0,.24,0,.51.03.82h2.2ZM101.68,160.75h3.59v1.37c.99-1.15,1.88-1.76,3-1.76,1.7,0,2.47,1,2.47,3.01v12.64h-3.59v-11.49c0-.67-.31-1.03-.8-1.03-.53,0-.9.33-1.08.94v11.58h-3.59v-15.26Z"/>
    <path class="cls-1" d="M20.84,131.71c-4.22,0-7.53,3.18-7.53,7.25s3.31,7.22,7.53,7.22,7.51-3.17,7.51-7.22-3.3-7.25-7.51-7.25M24.61,138.96c0,2.11-1.69,3.83-3.78,3.83s-3.8-1.68-3.8-3.83,1.67-3.89,3.8-3.89,3.78,1.71,3.78,3.89M54.4,131.85c-.8,0-1.62.41-1.66,1.33v.19c-1.31-1.11-2.82-1.65-4.61-1.65-3.93,0-6.89,3.11-6.89,7.23s2.95,7.23,6.86,7.23c1.82,0,3.35-.59,4.55-1.76l.04,1.48h3.35v-12.69c0-.74-.75-1.36-1.64-1.36M48.68,142.8c-2.14,0-3.75-1.66-3.75-3.86s1.61-3.86,3.75-3.86,3.78,1.59,3.81,3.86c0,2.27-1.57,3.85-3.81,3.85M70.13,142.26h9v3.64h-11.82c-.49,0-.89-.39-.89-.87v-16.73c0-.48.4-.87.89-.87h10.66c.49,0,.89.39.89.87v1.66c0,.48-.4.87-.89.87h-7.84v4.02h6.8c.49,0,.89.39.89.87v1.89c0,.48-.4.87-.89.87h-6.8v3.77ZM15.52,130.84h-5.41v15.06h-3.82v-15.06H.89c-.49,0-.89-.39-.89-.87v-1.66c0-.48.4-.87.89-.87h14.64c.49,0,.89.39.89.87v1.66c0,.48-.4.87-.89.87M63.1,128.96v16.94h-3.72v-16.94c0-1.11,1.14-1.53,1.86-1.53s1.86.41,1.86,1.53M40.48,143.04c.39.81.25,1.48-.41,1.96l-.04.03c-1.28.95-2.79,1.15-3.82,1.15-3.28,0-5.41-2.04-5.41-5.19v-5.88h-1.92v-3.12h1.92v-4.56h3.72v4.56h3.97c.88,0,1.28.78,1.28,1.56s-.45,1.56-1.28,1.56h-3.97v5.71c0,1.41.72,2.06,2.27,2.06.67,0,1.32-.16,1.89-.46.29-.15.67-.18,1.01-.07.36.12.64.36.8.68M122.29,134.85c-.54.08-.61.05-1.19.17-.73.14-3.13.94-3.2,5.27v5.61h-3.72v-12.69c0-.74.76-1.36,1.65-1.36.8,0,1.62.41,1.66,1.33l.03,1.02c1.27-2.39,3.25-2.49,4.47-2.49.93,0,1.57.53,1.65,1.38.07.74-.32,1.61-1.35,1.76M95.49,138.26v7.64h-3.72v-7.24c0-2.18-1.26-3.59-3.21-3.59-2.09,0-3.18,1.5-3.33,2.99l-.03,7.84h-3.71v-12.69c0-.74.76-1.36,1.64-1.36.8,0,1.62.41,1.66,1.33v.16c1.1-1.05,2.64-1.62,4.38-1.62,3.83,0,6.31,2.57,6.31,6.55M136.79,131.85c-.89,0-1.6.54-1.66,1.25l-.02.33c-1.23-1.12-2.82-1.72-4.63-1.72-3.95,0-6.92,3.12-6.92,7.26s2.96,7.21,6.9,7.21c1.63,0,3.06-.51,4.23-1.52v.45c0,2.06-1.65,3.44-4.12,3.44-2.19,0-3.69-.7-4.1-.91-.68-.36-1.68-.33-2.15.35-.25.36-.36.83-.28,1.24.08.41.33.76.74,1.03,1.46.97,3.68,1.54,5.96,1.54,4.63,0,7.63-2.76,7.63-7.04v-11.64c0-.71-.7-1.27-1.59-1.27M134.87,138.97c0,2.28-1.57,3.81-3.82,3.81s-3.77-1.61-3.77-3.82,1.62-3.87,3.77-3.87,3.79,1.59,3.82,3.87M145.15,133.38v12.52h-3.72v-12.52c0-1.11,1.14-1.53,1.86-1.53s1.86.41,1.86,1.53M145.51,128.12c0,1.2-.96,2.11-2.23,2.11s-2.2-.91-2.2-2.11.92-2.06,2.19-2.09c1.27-.03,2.24.86,2.24,2.09M104.94,131.71c-4.23,0-7.31,3.04-7.31,7.23s3.29,7.23,7.66,7.23c1.98,0,3.76-.57,5.27-1.69.53-.37.71-1.27.36-1.88-.42-.73-1.42-.79-1.95-.52-.53.28-1.9.91-3.35.91-2.06,0-3.69-1.11-4.2-2.84h9.5c.5,0,.84-.32.89-.84v-.49c0-4.19-2.82-7.12-6.86-7.12M108.25,137.35h-6.72c.5-1.6,1.83-2.55,3.57-2.55,1.58,0,2.83,1.02,3.15,2.55M154.75,131.71c-4.23,0-7.3,3.04-7.3,7.23s3.29,7.23,7.66,7.23c1.98,0,3.76-.57,5.27-1.69.54-.37.71-1.27.36-1.88-.41-.73-1.42-.79-1.95-.52-.53.28-1.91.91-3.35.91-2.06,0-3.69-1.11-4.2-2.84h9.5c.5,0,.84-.32.89-.84v-.49c0-4.19-2.82-7.12-6.86-7.12M157.99,137.35h-6.72c.5-1.6,1.83-2.55,3.57-2.55,1.58,0,2.83,1.02,3.15,2.55M174.84,141.64c0,2.77-2.32,4.53-5.82,4.53-2.06,0-3.84-.5-5.46-1.59-.39-.27-.64-.62-.7-1.02-.06-.38.04-.77.28-1.08.57-.74,1.4-.87,2.21-.35.35.22,1.57.9,3.79.9.75,0,1.99-.18,1.99-1.19,0-.61-.44-1.06-2.58-1.54-2.51-.55-5.14-1.53-5.14-4.21s2.28-4.39,5.55-4.39c2.74,0,4.27.7,5.03,1.15.77.45,1.04,1.23.68,1.93-.44.85-1.17,1.1-2.12.75-.92-.35-2.37-.68-3.68-.68-.65,0-1.76.16-1.76,1.04,0,.55.62.83,2.84,1.32h0c2.89.67,4.88,1.73,4.88,4.43"/>
  </g>
</svg>