<?xml version="1.0" encoding="UTF-8"?>
<svg id="Layer_2" data-name="Layer 2" xmlns="http://www.w3.org/2000/svg" viewBox="0 0 86.5 39.4">
  <defs>
    <style>
      .cls-1 {
        fill: #de633d;
      }

      .cls-2 {
        fill: #717275;
      }
    </style>
  </defs>
  <g id="Layer_1-2" data-name="Layer 1">
    <path class="cls-2" d="M2.68,12.57c0,5.48,4.42,10.06,9.89,10.06s9.89-4.58,9.89-10.06S18.11,2.51,12.57,2.51,2.68,7.06,2.68,12.57M25.14,12.61c0,6.99-5.69,12.53-12.57,12.53S0,19.59,0,12.61,5.69,0,12.57,0s12.57,5.64,12.57,12.61"/>
    <polygon class="cls-2" points="32.93 2.6 32.93 10.07 41.04 10.07 41.04 12.66 32.93 12.66 32.93 25.14 30.22 25.14 30.22 0 41.31 0 41.31 2.6 32.93 2.6"/>
    <path class="cls-2" d="M49.65,22.54h2.71c3.03,0,6.24-.76,6.24-4.6s-3.62-4.47-6.6-4.47h-2.36v9.07ZM49.65,11.07h1.03c3.07,0,5.69-.37,5.69-4.27s-2.33-4.2-5.66-4.2h-1.06v8.47ZM46.93,0h4.01C55.37,0,59.09,1.67,59.09,6.8c0,2.03-.73,3.77-2.39,4.9,2.9.74,4.62,3.44,4.62,6.44,0,5-3.91,7-8.73,7h-5.65V0Z"/>
    <path class="cls-2" d="M75.47,5.65l-4.17,9.61h8.24l-4.08-9.61ZM70.21,17.75l-2.94,6.81h-2.98L75.55,0l10.96,24.55h-3.01l-2.87-6.81h-10.41Z"/>
    <path class="cls-1" d="M1.13,25.33s5.77-13.66,11.46-12.22c5.46,1.39,14.38,21.58,27.22,23.04,9.72,1.13,27.35-3.89,43.68-11.59h3.01s-38.89,16.36-50.26,14.73c-15.4-2.22-21.6-22.8-25.62-24.52-3.44-1.47-9.49,10.57-9.49,10.57"/>
  </g>
</svg>