<?xml version="1.0" encoding="UTF-8"?>
<svg id="Layer_2" data-name="Layer 2" xmlns="http://www.w3.org/2000/svg" viewBox="0 0 337.86 102.28">
  <defs>
    <style>
      .cls-1 {
        fill: #623e5a;
      }
    </style>
  </defs>
  <g id="Layer_1-2" data-name="Layer 1">
    <g>
      <path class="cls-1" d="M49.91,72.43l.02-.12c.29-2.55.45-5.11.32-7.67-.08-1.49-.2-3.01-.54-4.46-.31-1.27-.77-2.49-1.36-3.66-.87-1.75-1.98-3.38-3-5.04-1.53-2.47-2.83-5.03-3.34-7.91-.49-2.8-.34-5.72.6-8.42.76-2.19,1.97-4.22,3.43-6.01,1-1.24,2.15-2.38,3.43-3.33.92-.67,2-1.37,3.15-1.54-.02-.05-.69.08-.76.1-.3.06-.61.15-.91.24-.7.24-1.39.56-2.03.93-1.76,1.02-3.26,2.41-4.54,3.96-1.76,2.15-3.15,4.63-3.86,7.31-.76,2.79-.73,5.8-.09,8.6.91,4.02,3.28,7.48,5.24,11.05,1.35,2.46,2.45,5.01,3.05,7.76.58,2.71.92,5.46,1.18,8.22"/>
      <path class="cls-1" d="M52.92,79.9c1.26-.55,2.41-1.34,3.5-2.18,4.35-3.39,7.88-7.86,9.84-13.01,1.81-4.88,2.08-10.29.53-15.28-.68-2.08-1.66-4.03-2.83-5.87-.72-1.13-1.48-2.21-2.25-3.3-1.21-1.73-2.45-3.45-3.55-5.24-.81-1.26-1.49-2.56-2.02-3.95-.5-1.29-.91-2.62-1.27-3.95.08,2.1.34,4.19.87,6.23.37,1.41,1,2.71,1.73,3.98.76,1.33,1.58,2.59,2.46,3.84.89,1.26,1.83,2.51,2.65,3.83,1.16,1.92,2.14,3.98,2.75,6.16.72,2.64.93,5.43.64,8.13-.48,4.67-2.46,9.09-5.21,12.87-1.21,1.63-2.54,3.15-4.01,4.56-.93.89-1.93,1.74-2.99,2.44-.83.52-1.81,1.04-2.82,1.04-.38,0-.77-.08-1.11-.27.86.8,2.13.4,3.09-.01"/>
      <path class="cls-1" d="M52.33,68.05c.71-2.67,1.09-5.42,1.08-8.18,0-1.31-.16-2.61-.56-3.86-.34-1.05-.85-2.06-1.43-2.99-1.09-1.75-2.44-3.33-3.52-5.08-1.24-2.01-2.06-4.22-2.3-6.56-.29-2.71.24-5.36,1.45-7.82.67-1.36,1.53-2.6,2.46-3.79.44-.57.9-1.13,1.36-1.67.2-.24.41-.48.61-.71.13-.14.32-.32.43-.49-2.67,1.43-4.74,3.75-6.2,6.37-.62,1.12-1.12,2.31-1.45,3.55-.38,1.38-.5,2.79-.45,4.22.04,1.45.3,2.91.75,4.3.45,1.39,1.12,2.7,1.86,3.96.99,1.68,2.1,3.3,3.06,5,1.31,2.31,2.26,4.77,2.58,7.4.25,2.11.34,4.25.26,6.37"/>
      <path class="cls-1" d="M64.43,80.97c-3.39,2.71-8.48,5.83-13.42,5.83-6.79,0-10.17-6.64-14.46-15.18-.95-1.88-2-3.75-3-5.55-1.76-3.13-3.58-6.37-4.91-9.78-1.15-2.96-1.86-5.5-2.21-7.99-.18-1.36-.28-2.72-.28-4.1,0-1.91.18-3.84.55-5.82.96-5.1,3.62-10.2,7.49-14.36,5.05-5.43,11.81-8.58,18.06-8.58,4.41,0,6.56,3.29,9.58,7.98l1.36,2.15c.75,1.15,1.63,2.22,2.55,3.35l1.43,1.79c1.72,2.27,3.53,4.62,5.16,7.15,3.49,5.55,5.15,10.97,5.19,17.06.02,9.79-4.85,19.53-13.09,26.06M74.11,37.04c-1.77-2.88-3.85-5.49-5.46-7.45-.66-.83-1.39-1.66-2.11-2.47-.85-.95-1.73-1.92-2.54-2.93-4.29-5.45-7.11-9.15-11.94-9.15-6.88,0-13.92,3.38-19.34,9.09-2.76,2.92-6.34,7.78-7.75,14.37-.49,2.27-.74,4.55-.74,6.81,0,1.09.06,2.17.17,3.24.27,2.59.92,5.28,1.98,8.23,1.7,4.76,4.39,9.23,6.98,13.55l1.58,2.66c5.29,8.93,9.6,14.19,16.07,14.19,4.2,0,9.07-2.03,14.04-5.71,8.89-6.56,14.19-16.71,14.15-27.17-.03-6.09-1.69-11.75-5.11-17.26"/>
      <path class="cls-1" d="M62.56,34.55c-1.02-1.39-2.09-2.77-3.01-4.23-1.47-2.43-2.48-5.13-3.78-7.66.39,1.13.65,2.31.96,3.46.31,1.16.65,2.31,1.06,3.43.44,1.26.93,2.47,1.62,3.63.51.85,1.06,1.67,1.59,2.49,1.93,2.88,4.1,5.57,5.78,8.58,2.4,4.39,3.47,9.41,2.99,14.4-.51,5.19-2.62,10.16-5.81,14.33-1.6,2.15-3.52,4.08-5.62,5.8-1,.85-2.1,1.64-3.27,2.3-1,.58-2.13,1.08-3.3,1.27-.85.13-1.74.07-2.51-.33-.72-.37-1.26-.99-1.69-1.65-.54-.85-.91-1.8-1.23-2.75-.41-1.18-.73-2.39-1.06-3.6-.75-2.82-1.42-5.69-2.44-8.44-1.01-2.74-2.46-5.32-3.87-7.88-1.41-2.55-2.77-5.15-3.7-7.91-.97-2.85-1.39-5.86-1.24-8.87.14-2.77.76-5.45,1.91-7.98,1.16-2.58,2.78-4.95,4.73-7.01,1.82-1.92,3.96-3.59,6.36-4.74,1.05-.5,2.16-.91,3.29-1.16,1.05-.23,2.34-.46,3.38-.06-.68-.37-1.46-.35-2.2-.29-.67.05-1.35.17-2.01.32-5.17,1.16-9.63,4.74-12.69,8.93-1.63,2.24-2.92,4.73-3.71,7.37-.84,2.8-1.1,5.81-.87,8.72.45,5.94,3.28,11.22,6.1,16.37,1.28,2.35,2.54,4.71,3.54,7.2.47,1.18.95,2.36,1.42,3.54.94,2.33,1.85,4.71,3.09,6.9.73,1.3,1.67,2.8,3.11,3.4,1.56.64,3.41.11,4.87-.5,2.53-1.06,4.77-2.83,6.83-4.61.64-.56,1.26-1.13,1.86-1.74,3.66-3.71,6.4-8.3,7.72-13.33,1.32-5.02,1.13-10.41-.68-15.3-1.69-4.59-4.71-8.46-7.54-12.39"/>
      <path class="cls-1" d="M53.74,38.04c.65,2.1,1.86,3.97,3.14,5.74,1.05,1.45,2.11,2.88,2.99,4.45,1.14,2.03,1.92,4.23,2.23,6.55.72,5.2-.71,10.36-3.37,14.86-.94,1.67-2.1,3.24-3.34,4.75-.72.89-1.47,1.75-2.34,2.51-.57.51-1.33,1.11-2.14,1.2h-.12c.48.14,1.15-.14,1.49-.35.84-.51,1.62-1.22,2.34-1.88,1.62-1.46,3.14-3.1,4.4-4.85,2.85-3.83,4.76-8.39,4.96-13.17.11-2.6-.25-5.24-1.13-7.69-.74-2.01-1.85-3.89-3.09-5.65-1.23-1.72-2.47-3.42-3.56-5.23-.73-1.22-1.43-2.46-1.94-3.78-.53-1.37-.85-2.84-1.08-4.3-.21,2.26-.15,4.69.55,6.86"/>
      <polygon class="cls-1" points="51.66 75.33 51.67 75.32 51.66 75.32 51.66 75.33"/>
      <path class="cls-1" d="M51.43,22.02c-.54.07-.92.17-1.58.38-1.14.36-2.23.86-3.26,1.45-2.35,1.38-4.39,3.26-6.02,5.41-1.68,2.18-3,4.66-3.75,7.31-.78,2.77-.91,5.75-.53,8.6.83,5.88,4.31,10.81,6.9,16.03.64,1.32,1.24,2.66,1.73,4.04.52,1.44.93,2.91,1.34,4.38.71,2.56,1.28,5.19,2.16,7.71-.24-1.16-.33-2.34-.45-3.51-.26-2.73-.54-5.44-1.06-8.13-.28-1.47-.65-2.91-1.2-4.3-.49-1.3-1.1-2.54-1.77-3.76-1.92-3.54-4.24-6.93-5.32-10.85-.77-2.81-.96-5.82-.5-8.7.42-2.67,1.49-5.22,2.93-7.5,1.5-2.36,3.42-4.51,5.7-6.15,1.72-1.25,3.84-2.4,6.04-2.4h.14c-.43-.17-1.08-.06-1.53,0"/>
      <path class="cls-1" d="M54.99,65.51c1.04-2.73,1.61-5.62,1.38-8.55-.18-2.27-.88-4.42-2.1-6.36-1.04-1.67-2.36-3.15-3.42-4.82-1.33-2.08-2.07-4.39-2.12-6.87-.02-1.73.15-3.46.54-5.16-.71,1.27-1.25,2.63-1.53,4.05-.49,2.56-.01,5.31,1.12,7.65.9,1.88,2.24,3.5,3.43,5.2,1.33,1.89,2.41,3.91,2.87,6.18.29,1.42.31,2.86.26,4.3-.06,1.47-.21,2.93-.46,4.37"/>
      <path class="cls-1" d="M56.5,69.41c1.26-2,2.25-4.13,2.91-6.39.76-2.56,1.01-5.23.64-7.89-.32-2.3-1.13-4.49-2.31-6.49-1.01-1.66-2.24-3.17-3.33-4.78-1.51-2.23-2.77-4.7-3.15-7.38-.07-.45-.11-.9-.15-1.35-.08.44-.15.88-.19,1.32-.15,1.42-.19,2.88.06,4.29.21,1.14.63,2.23,1.19,3.24.92,1.64,2.16,3.05,3.22,4.57,1.17,1.67,2.09,3.48,2.59,5.45.66,2.73.63,5.61.1,8.35-.53,2.56-1.49,5.01-2.71,7.32-.99,1.91-2.16,3.77-3.52,5.47.19-.18.38-.34.57-.52,1.55-1.56,2.9-3.35,4.07-5.21"/>
      <path class="cls-1" d="M64.96,76.53c-1.8,1.92-3.84,3.65-6.06,5.12-2.12,1.43-4.58,2.64-7.19,2.88-1.82.16-3.52-.38-4.85-1.6-1.5-1.38-2.48-3.15-3.33-4.96-1.55-3.31-2.69-6.79-4.21-10.12-1.26-2.79-2.8-5.44-4.24-8.14-1.34-2.49-2.56-5.04-3.47-7.71-1.9-5.56-2.08-11.76-.12-17.34,1.83-5.23,5.4-9.94,9.94-13.17,2.06-1.48,4.36-2.57,6.82-3.24,1.13-.31,2.28-.51,3.45-.57.99-.05,1.99,0,2.88.47,1.85.96,2.81,3,3.65,4.78,1.19,2.6,2.3,5.27,3.98,7.63,2.13,3.08,4.51,6.03,6.52,9.18,1.66,2.53,3.03,5.24,3.89,8.14,1.45,4.97,1.42,10.34.07,15.32-1.39,4.99-4.14,9.57-7.72,13.34M70.55,38.93c-1.57-2.44-3.32-4.76-5.04-6.99l-1.4-1.75c-.91-1.12-1.83-2.28-2.65-3.52l-1.4-2.16c-3.06-4.82-4.69-7.24-7.81-7.24-5.68,0-11.86,3.1-16.54,8.12-3.61,3.88-6.09,8.62-6.97,13.35-.61,3.18-.69,6.21-.27,9.27.32,2.33.98,4.73,2.07,7.54,1.29,3.28,2.99,6.31,4.79,9.52,1.02,1.83,2.08,3.72,3.05,5.64,4.4,8.77,7.36,14.24,12.61,14.24,3.43,0,7.62-1.99,12.14-5.56,7.73-6.14,12.33-15.29,12.29-24.46-.04-5.7-1.61-10.77-4.88-15.99"/>
      <path class="cls-1" d="M68.19,85.22c-5.76,4.02-11.71,6.05-17.14,6.05-9.79,0-16.22-7.46-21.23-14.86-3.66-5.4-7.4-11.22-9.57-17.77-1.1-3.29-1.75-6.38-1.98-9.41-.29-3.8.01-7.65.91-11.45,1.42-5.98,4.55-11.62,9.07-16.32,6.47-6.73,15.07-10.49,23.63-10.49,6.89,0,11.42,4.17,16.21,9.33l2.03,2.11c1.1,1.12,2.24,2.27,3.26,3.5,2.48,2.86,4.43,5.52,6.06,8.17,3.76,6.21,5.64,12.61,5.66,19.57.02,12.41-6.31,24.22-16.92,31.57M81.25,33.23c-1.7-2.8-3.79-5.61-6.28-8.35-1.55-1.71-3.24-3.31-4.92-4.85l-.92-.85c-6.43-6.03-11.5-8.59-17.43-8.59-9.1,0-18.18,4.08-24.93,11.02-4.55,4.68-7.78,10.35-9.34,16.38-.98,3.82-1.37,7.73-1.16,11.6.17,3.17.75,6.32,1.77,9.64,1.81,5.83,5.01,11.67,10.08,18.34,7.26,9.54,14.56,14.09,22.96,14.09,5.82,0,12.01-2.15,17.87-6.01,11.23-7.37,17.93-19.57,17.91-32.61-.02-6.97-1.92-13.63-5.6-19.81"/>
      <path class="cls-1" d="M73.86,91.59c-7.03,4.24-14.92,6.38-22.75,6.38-11.76,0-22.62-4.93-31.39-14.43-5.8-6.29-9.96-13.67-12.04-21.34-1.02-3.77-1.58-7.65-1.65-11.54-.07-4.66.56-9.29,1.86-13.74,2.11-7.19,6.07-13.85,11.43-19.27,8.61-8.67,19.98-13.35,31.99-13.35,8.44,0,16.6,2.69,24.16,8.21,2.8,2.03,5.2,4.08,7.28,6.24,2.9,2.98,5.36,6.23,7.39,9.67,4.2,7.2,6.36,15.05,6.36,23.35,0,8.15-2.18,16.18-6.28,23.22-3.94,6.79-9.6,12.52-16.38,16.59M84.43,17.81c-8.9-8.9-20.74-13.9-33.3-13.9s-24.42,5-33.3,13.9c-8.91,8.91-13.81,20.75-13.81,33.34s4.9,24.42,13.81,33.33c8.89,8.89,20.72,13.88,33.3,13.88,25.98,0,47.08-21.22,47.08-47.21,0-12.59-4.89-24.43-13.79-33.34"/>
      <path class="cls-1" d="M71.99,89.46c-6.65,4.17-13.86,6.28-20.89,6.28-10.38,0-19.81-4.84-28-14.57-5.47-6.49-9.24-13.28-11.22-20.15-1.05-3.61-1.63-7.25-1.75-10.84-.15-4.35.37-8.71,1.54-12.98,1.87-6.78,5.56-13.1,10.64-18.29h0c7.83-7.94,18.48-12.4,29.2-12.4,7.43,0,14.28,2.66,21.49,8.57,2.09,1.7,4.51,3.74,6.64,6.04,2.73,2.89,5.05,5.98,6.96,9.17,4.04,6.85,6.07,14.28,6.08,22.09.02,15.07-7.71,28.92-20.7,37.06M88.35,29.45c-1.91-3.3-4.3-6.42-7.05-9.28-2.04-2.08-4.32-4.05-7.05-6.02-7.19-5.25-14.93-8.02-22.92-8.02-11.45,0-22.28,4.66-30.51,12.94-5.14,5.18-8.9,11.54-10.93,18.41-1.18,4.05-1.78,8.25-1.78,12.49,0,.21,0,.43,0,.66.07,3.71.59,7.42,1.58,11.05,2,7.35,5.99,14.43,11.57,20.49,8.37,9.08,18.69,13.96,29.86,13.96,7.43,0,14.96-2.25,21.68-6.29,6.46-3.88,11.87-9.37,15.64-15.86,3.91-6.73,6-14.41,5.99-22.21,0-7.94-2.06-15.45-6.08-22.33"/>
      <path class="cls-1" d="M66.33,83.1c-5.35,3.93-10.63,5.93-15.3,5.93-8.23,0-13.33-7.37-17.85-15.01l-1.59-2.65c-2.65-4.4-5.38-8.96-7.16-13.9-1.11-3.11-1.79-5.95-2.08-8.71-.37-3.52-.17-7.11.59-10.69,1.19-5.57,4.06-10.88,8.28-15.33,5.8-6.13,13.39-9.54,20.84-9.54,5.85,0,9.09,4.03,13.59,9.74.77.96,1.58,1.87,2.42,2.84.74.82,1.5,1.66,2.21,2.53,1.65,2.01,3.74,4.69,5.61,7.67,3.6,5.84,5.38,11.83,5.42,18.32.03,11.09-5.57,21.86-14.99,28.81M77.66,35.14c-1.55-2.54-3.46-5.13-5.83-7.9-1.03-1.17-2.14-2.31-3.22-3.4l-2.03-2.14c-5.28-5.69-9.19-8.87-14.71-8.87-7.99,0-16.05,3.72-22.13,10.05-4.26,4.43-7.21,9.75-8.55,15.38-.85,3.59-1.14,7.23-.86,10.82.22,2.87.84,5.79,1.88,8.93,2.09,6.3,5.75,11.98,9.33,17.27,6.67,9.85,12.51,14.15,19.51,14.15,5,0,10.54-2.1,15.98-5.87,10.06-6.97,16.02-18.15,16-29.9-.03-6.58-1.76-12.64-5.36-18.52"/>
      <path class="cls-1" d="M70.09,87.34c-6.23,4.1-12.8,6.15-19.02,6.15-8.98,0-17.03-4.75-24.61-14.7-5.22-6.87-8.53-12.89-10.4-18.97-1.07-3.48-1.68-6.79-1.86-10.12-.22-4.08.19-8.2,1.24-12.22,1.63-6.38,5.04-12.36,9.84-17.3,7.14-7.33,16.77-11.45,26.42-11.45,8.05,0,13.83,4.26,18.86,8.95l.92.85c1.67,1.57,3.44,3.2,5.06,4.98,2.53,2.84,4.73,5.76,6.46,8.67,3.91,6.49,5.87,13.49,5.9,20.83.02,13.74-7,26.57-18.81,34.31M84.79,31.35c-1.83-3.07-4.05-6.04-6.67-8.81-2.07-2.23-4.41-4.21-6.41-5.86-6.85-5.6-13.28-8.31-20.2-8.31-10.17,0-20.27,4.43-27.72,11.98-4.83,4.94-8.34,10.96-10.13,17.4-1,3.62-1.5,7.32-1.5,11,0,.46,0,.91.02,1.37.12,3.42.68,6.9,1.68,10.34,1.89,6.61,5.53,13.14,10.82,19.41,7.78,9.25,16.67,14.02,26.41,14.02,6.64,0,13.46-2.19,19.78-6.14,12.37-7.76,19.78-20.97,19.77-35.33-.01-7.45-1.99-14.54-5.85-21.06"/>
      <path class="cls-1" d="M51.14,100.31c-13.14,0-25.49-5.12-34.78-14.4C7.07,76.62,1.97,64.28,1.97,51.15s5.11-25.48,14.39-34.78C25.64,7.09,37.99,1.97,51.14,1.97s25.49,5.12,34.78,14.4c9.28,9.29,14.4,21.64,14.4,34.78,0,27.11-22.08,49.16-49.17,49.16M51.14,0C22.9,0,0,22.9,0,51.14s22.9,51.14,51.14,51.14,51.14-22.9,51.14-51.14S79.38,0,51.14,0"/>
      <path class="cls-1" d="M120.86,47.46c.54.53,1.22.93,2.04,1.21.82.28,1.76.42,2.85.42,2.19,0,3.83-.54,4.9-1.62,1.07-1.08,1.6-2.66,1.6-4.74v-16.16h-2.02v16.14c0,.79-.08,1.46-.24,2.02-.16.56-.42,1.02-.78,1.37-.36.36-.82.61-1.38.78-.56.16-1.24.24-2.04.24-1.54,0-2.68-.38-3.43-1.15-.75-.77-1.12-1.92-1.12-3.45v-2.77h-2.02v3.18c0,.96.14,1.83.41,2.6.27.76.68,1.41,1.23,1.94"/>
      <path class="cls-1" d="M172.76,41.22c-.42.39-.99.58-1.73.58-.53,0-1.09-.11-1.67-.33-.58-.22-1.14-.54-1.67-.95.17-.7.37-1.29.6-1.79.23-.49.49-.9.78-1.22.28-.32.6-.56.93-.71.34-.15.69-.23,1.06-.23s.7.07.99.2c.29.13.53.32.73.56.2.24.35.53.45.86.1.34.15.71.15,1.12,0,.89-.21,1.53-.62,1.91M181.84,42.17c.09.19.22.37.39.53.17.16.36.3.57.42.22.12.45.21.71.28.25.07.51.1.76.1h4.92v-16.94h-2.02v14.97h-2.91c-.42,0-.76-.06-1.04-.19-.27-.12-.49-.3-.65-.52-.16-.22-.28-.5-.34-.82-.07-.33-.1-.68-.1-1.08v-12.36h-2.04v13.24c0,.39-.05.71-.14.94-.09.23-.22.4-.39.52-.17.12-.37.19-.61.22-.24.03-.5.05-.79.05h-1.16c-.37,0-.7-.13-.99-.39-.29-.26-.51-.65-.67-1.15.02-.15.03-.29.04-.44,0-.15.01-.3.01-.45,0-.67-.1-1.28-.31-1.83-.21-.55-.5-1.02-.88-1.41-.38-.39-.82-.7-1.34-.91-.52-.21-1.09-.32-1.7-.32-.43,0-.89.07-1.36.2-.48.13-.94.38-1.4.73-.46.36-.88.84-1.28,1.45-.4.61-.74,1.4-1.01,2.37-.14.48-.29.86-.46,1.14-.17.28-.35.5-.53.65-.19.15-.37.25-.56.3-.19.05-.38.07-.56.07h-24.82c-.36,0-.64-.03-.86-.1-.22-.07-.39-.17-.52-.32-.12-.15-.21-.34-.25-.57-.04-.23-.06-.51-.06-.85v-13.14h-2.02v13.66c0,.63.08,1.15.25,1.57.17.42.4.76.7,1.01.3.26.65.43,1.07.54s.88.16,1.38.16h25.18c.29,0,.55-.01.78-.04.24-.02.46-.08.67-.17.21-.09.42-.22.62-.41.2-.18.4-.43.61-.75.44.32.86.6,1.25.81.39.22.77.39,1.13.52.36.13.71.22,1.04.27.33.05.66.08.97.08.9,0,1.66-.17,2.26-.5.6-.34,1.07-.81,1.4-1.41.27.57.6.98.99,1.23.39.25.8.37,1.23.37h1.74c.26,0,.54-.02.84-.05.3-.03.58-.09.86-.19.28-.1.54-.23.78-.4.24-.17.44-.4.6-.69"/>
      <path class="cls-1" d="M259.33,31.27c.12.12.25.21.4.27.15.07.32.1.49.1s.33-.03.48-.1c.15-.07.28-.16.4-.27.12-.12.21-.25.27-.4.07-.15.1-.31.1-.49s-.03-.33-.1-.48c-.07-.15-.16-.28-.27-.4-.12-.12-.25-.21-.4-.27-.15-.07-.31-.1-.48-.1s-.34.03-.49.1c-.15.07-.28.16-.4.27-.12.12-.21.25-.27.4-.07.15-.1.31-.1.48s.03.34.1.49c.07.15.16.28.27.4"/>
      <path class="cls-1" d="M262.41,31.27c.12.12.25.21.4.27.15.07.31.1.49.1s.33-.03.48-.1c.15-.07.28-.16.4-.27.12-.12.21-.25.27-.4.07-.15.1-.31.1-.49s-.03-.33-.1-.48c-.07-.15-.16-.28-.27-.4-.11-.12-.25-.21-.4-.27-.15-.07-.31-.1-.48-.1s-.34.03-.49.1c-.15.07-.28.16-.4.27-.12.12-.21.25-.27.4-.07.15-.1.31-.1.48s.03.34.1.49c.07.15.16.28.27.4"/>
      <path class="cls-1" d="M264.32,41.54h-2.18c-.42,0-.82-.06-1.18-.17-.36-.11-.67-.28-.93-.52s-.47-.52-.61-.88c-.15-.35-.22-.77-.22-1.24,0-.39.06-.75.18-1.09.12-.34.29-.64.51-.89.22-.26.49-.46.79-.61.31-.15.65-.23,1.02-.23.56,0,1,.1,1.34.29.34.19.6.45.79.75.19.31.32.66.38,1.04.07.39.1.77.1,1.16v2.38ZM251.27,41.54h-9.49c.14-.44.32-.88.54-1.33.22-.44.47-.87.77-1.29.29-.41.61-.8.97-1.15.36-.36.74-.67,1.15-.93.41-.27.84-.48,1.3-.63.46-.15.94-.23,1.44-.23.67,0,1.22.1,1.65.31.43.2.77.47,1.02.81.25.33.42.71.52,1.15.09.43.14.87.14,1.32v1.97ZM265.47,35.73c-.33-.49-.78-.89-1.36-1.21-.58-.32-1.31-.47-2.21-.47-.73,0-1.38.12-1.96.37-.58.25-1.08.59-1.49,1.03-.41.44-.72.96-.95,1.55-.22.59-.33,1.24-.33,1.93,0,.58.07,1.08.2,1.49.14.41.29.79.47,1.12h-4.57v-2.04c0-.85-.11-1.61-.34-2.29-.23-.68-.56-1.25-.98-1.71-.43-.47-.95-.83-1.58-1.08-.62-.25-1.33-.38-2.13-.38-1.3,0-2.48.32-3.56.96-1.08.64-2.05,1.64-2.91,2.99v-11.42h-2.02v14.97h-34.57c-.39,0-.73-.06-1-.19-.27-.12-.49-.3-.65-.52-.17-.22-.29-.5-.36-.82-.08-.32-.11-.68-.11-1.08v-4.55h-2.02v8.18c0,.8-.01,1.49-.04,2.07-.03.58-.11,1.05-.26,1.42-.15.37-.38.64-.71.82-.32.18-.78.27-1.37.27h-.79v1.97h.71c.89,0,1.62-.14,2.2-.42.58-.28,1.03-.7,1.36-1.26.33-.56.56-1.25.7-2.07.13-.83.2-1.78.2-2.87.08.15.19.28.34.4.15.12.32.23.52.32.19.09.4.17.62.22.22.05.45.08.68.08h61.15v-4.41c0-.56-.06-1.14-.19-1.74-.13-.6-.35-1.14-.68-1.63"/>
      <path class="cls-1" d="M278.1,31.27c.11.12.25.21.4.27.15.07.31.1.49.1s.33-.03.48-.1c.15-.07.28-.16.4-.27.12-.12.21-.25.27-.4.07-.15.1-.31.1-.49s-.03-.33-.1-.48c-.07-.15-.15-.28-.27-.4-.12-.12-.25-.21-.4-.27s-.31-.1-.48-.1-.34.03-.49.1c-.15.07-.28.16-.4.27-.12.12-.21.25-.27.4-.07.15-.1.31-.1.48s.03.34.1.49c.07.15.16.28.27.4"/>
      <path class="cls-1" d="M306.69,43.51h5.91c.76,0,1.38-.11,1.85-.33.48-.22.85-.5,1.12-.83.27-.34.45-.7.55-1.09.1-.39.14-.75.14-1.09,0-.56-.1-1.14-.3-1.74-.2-.61-.53-1.21-.98-1.81-.46-.6-1.06-1.19-1.8-1.78-.75-.58-1.66-1.13-2.75-1.64l5.62-3.45v-2.32l-7.71,5.01v2.09c.79.32,1.56.7,2.29,1.14.73.44,1.38.91,1.93,1.41.56.49,1.01,1,1.34,1.52.33.52.5,1.01.5,1.47,0,.29-.05.54-.16.72-.1.19-.25.34-.43.46-.18.12-.4.2-.65.24-.25.05-.52.07-.82.07h-30.24c-.39,0-.73-.06-1-.19-.27-.12-.49-.3-.65-.52-.17-.22-.29-.5-.37-.82-.08-.32-.12-.68-.12-1.08v-4.55h-2.02v8.18c0,.8-.01,1.49-.04,2.07-.03.58-.11,1.05-.26,1.42-.15.37-.38.64-.71.82-.33.18-.78.27-1.37.27h-.79v1.97h.71c.89,0,1.62-.14,2.2-.42.58-.28,1.03-.7,1.36-1.26.33-.56.56-1.25.7-2.08.13-.83.2-1.78.2-2.87.08.15.19.28.34.4.15.12.32.23.52.32.19.09.4.17.62.22.22.05.45.08.68.08h24.57Z"/>
      <path class="cls-1" d="M335.21,41.22c-.42.39-.99.58-1.73.58-.53,0-1.09-.11-1.67-.33-.58-.22-1.14-.54-1.67-.96.17-.7.37-1.29.6-1.78.23-.49.49-.9.78-1.22.28-.32.6-.56.93-.71.34-.15.69-.23,1.06-.23s.7.07.99.2c.29.13.53.32.73.56.2.24.35.53.45.86s.15.71.15,1.12c0,.89-.21,1.53-.62,1.91M337.55,37.27c-.21-.55-.5-1.02-.88-1.41-.38-.39-.82-.7-1.34-.91-.52-.21-1.09-.32-1.7-.32-.43,0-.89.07-1.36.2-.48.13-.94.38-1.4.73-.46.36-.88.84-1.28,1.45-.4.61-.74,1.4-1.01,2.37-.14.48-.3.86-.49,1.14-.18.28-.38.5-.59.65-.2.15-.41.25-.62.29-.21.05-.4.07-.59.07h-.97c-.39,0-.73-.06-1-.19-.27-.12-.49-.3-.65-.52-.17-.22-.29-.5-.37-.82-.08-.33-.12-.68-.12-1.08v-4.55h-2.02v8.18c0,.8-.01,1.49-.04,2.07-.03.57-.11,1.05-.26,1.42-.15.37-.38.64-.71.82-.32.18-.78.27-1.37.27h-.79v1.97h.71c.89,0,1.62-.14,2.19-.42.58-.28,1.03-.7,1.36-1.26.33-.56.56-1.25.7-2.07.13-.83.2-1.78.2-2.87.08.15.19.28.34.41.15.12.32.23.52.32.19.09.4.17.62.22.22.05.45.08.68.08h1.02c.29,0,.56-.01.81-.04.26-.02.5-.08.73-.17.23-.09.46-.22.67-.41.22-.18.43-.43.64-.75.44.32.86.6,1.25.81s.77.39,1.13.52c.36.13.71.22,1.04.27.33.05.66.08.97.08.73,0,1.36-.11,1.89-.33.54-.22.98-.54,1.34-.95.36-.41.62-.9.79-1.49.17-.58.26-1.23.26-1.94,0-.67-.1-1.28-.31-1.83"/>
      <path class="cls-1" d="M131.15,71.07l-2.24-1.86-1.18,1.42,1.86,1.54c-.71.32-1.46.49-2.33.49-4.1,0-5.81-3.66-5.81-7.18s1.72-7.18,5.81-7.18,5.81,3.66,5.81,7.18c0,2.1-.61,4.25-1.93,5.59M127.26,56.34c-5.34,0-8.05,4.4-8.05,9.14s2.71,9.14,8.05,9.14c1.58,0,2.92-.37,4.02-1.05l2.57,2.15,1.13-1.46-2.21-1.83c1.69-1.71,2.54-4.27,2.54-6.94,0-4.74-2.71-9.14-8.05-9.14"/>
      <path class="cls-1" d="M144.54,69.8c0,1.15-1.08,2.86-3.72,2.86-1.22,0-2.35-.49-2.35-1.86,0-1.54,1.13-2.03,2.45-2.27,1.34-.24,2.85-.27,3.62-.86v2.13ZM146.54,71.24v-6.5c0-2.96-2.38-3.47-4.57-3.47-2.71,0-5.04,1.1-5.15,4.23h2c.09-1.86,1.34-2.39,3.04-2.39,1.27,0,2.71.29,2.71,2.1,0,1.56-1.88,1.42-4.1,1.86-2.07.42-4.12,1.03-4.12,3.88,0,2.52,1.81,3.54,4.02,3.54,1.69,0,3.18-.61,4.28-1.96,0,1.37.66,1.96,1.7,1.96.64,0,1.08-.12,1.44-.34v-1.61c-.26.1-.45.12-.61.12-.63,0-.63-.44-.63-1.42"/>
      <path class="cls-1" d="M151.71,57.78h-2v3.79h-2.07v1.83h2.07v8.04c0,2.32.82,2.76,2.89,2.76h1.53v-1.83h-.92c-1.25,0-1.51-.17-1.51-1.12v-7.84h2.42v-1.83h-2.42v-3.79Z"/>
      <path class="cls-1" d="M163.18,69.8c0,1.15-1.08,2.86-3.72,2.86-1.22,0-2.35-.49-2.35-1.86,0-1.54,1.13-2.03,2.45-2.27,1.34-.24,2.85-.27,3.62-.86v2.13ZM165.18,71.24v-6.5c0-2.96-2.38-3.47-4.57-3.47-2.71,0-5.04,1.1-5.15,4.23h2c.09-1.86,1.34-2.39,3.04-2.39,1.27,0,2.71.29,2.71,2.1,0,1.56-1.88,1.42-4.1,1.86-2.07.42-4.12,1.03-4.12,3.88,0,2.52,1.81,3.54,4.02,3.54,1.69,0,3.18-.61,4.28-1.96,0,1.37.66,1.96,1.7,1.96.64,0,1.08-.12,1.44-.34v-1.61c-.26.1-.45.12-.61.12-.63,0-.63-.44-.63-1.42"/>
      <path class="cls-1" d="M169.43,64.23h-.05v-2.66h-1.88v12.63h2v-5.62c0-3.2,1.18-5.11,4.4-5.11v-2.2c-2.17-.07-3.51.93-4.47,2.96"/>
      <polygon class="cls-1" points="180.87 74.2 183.11 74.2 183.11 66.21 190.83 66.21 190.83 64.25 183.11 64.25 183.11 58.71 191.91 58.71 191.91 56.75 180.87 56.75 180.87 74.2"/>
      <rect class="cls-1" x="193.46" y="56.75" width="2" height="2.54"/>
      <rect class="cls-1" x="193.46" y="61.57" width="2" height="12.63"/>
      <path class="cls-1" d="M203.74,61.27c-1.74,0-3.11.73-3.95,2.3h-.05v-2h-1.88v12.63h2v-7.13c0-2.27,1.18-3.96,3.6-3.96,1.53,0,2.47,1,2.47,2.54v8.55h2v-8.31c0-2.71-.99-4.62-4.19-4.62"/>
      <path class="cls-1" d="M217.77,69.8c0,1.15-1.08,2.86-3.72,2.86-1.22,0-2.35-.49-2.35-1.86,0-1.54,1.13-2.03,2.45-2.27,1.34-.24,2.85-.27,3.62-.86v2.13ZM219.77,71.24v-6.5c0-2.96-2.38-3.47-4.57-3.47-2.71,0-5.04,1.1-5.15,4.23h2c.09-1.86,1.34-2.39,3.04-2.39,1.27,0,2.71.29,2.71,2.1,0,1.56-1.88,1.42-4.1,1.86-2.07.42-4.12,1.03-4.12,3.88,0,2.52,1.81,3.54,4.02,3.54,1.7,0,3.18-.61,4.28-1.96,0,1.37.66,1.96,1.7,1.96.64,0,1.08-.12,1.43-.34v-1.61c-.26.1-.45.12-.61.12-.63,0-.63-.44-.63-1.42"/>
      <path class="cls-1" d="M228.05,61.27c-1.74,0-3.11.73-3.95,2.3h-.05v-2h-1.88v12.63h2v-7.13c0-2.27,1.18-3.96,3.6-3.96,1.53,0,2.47,1,2.47,2.54v8.55h2v-8.31c0-2.71-.99-4.62-4.19-4.62"/>
      <path class="cls-1" d="M239.56,72.66c-2.54,0-3.55-2.3-3.55-4.62,0-2.57.89-4.93,3.79-4.93,1.65,0,2.71.93,3.01,2.52h2.07c-.28-3.01-2.49-4.35-5.25-4.35-3.86,0-5.74,2.98-5.74,6.77s1.98,6.45,5.7,6.45c3.06,0,4.92-1.83,5.37-4.91h-2.05c-.26,1.91-1.41,3.08-3.34,3.08"/>
      <rect class="cls-1" x="246.6" y="56.75" width="2" height="2.54"/>
      <rect class="cls-1" x="246.6" y="61.57" width="2" height="12.63"/>
      <path class="cls-1" d="M258.53,69.8c0,1.15-1.08,2.86-3.72,2.86-1.22,0-2.35-.49-2.35-1.86,0-1.54,1.13-2.03,2.45-2.27,1.34-.24,2.85-.27,3.62-.86v2.13ZM260.53,71.24v-6.5c0-2.96-2.38-3.47-4.57-3.47-2.71,0-5.04,1.1-5.15,4.23h2c.09-1.86,1.34-2.39,3.04-2.39,1.27,0,2.71.29,2.71,2.1,0,1.56-1.88,1.42-4.09,1.86-2.07.42-4.12,1.03-4.12,3.88,0,2.52,1.81,3.54,4.02,3.54,1.7,0,3.18-.61,4.28-1.96,0,1.37.66,1.96,1.7,1.96.64,0,1.08-.12,1.43-.34v-1.61c-.26.1-.45.12-.61.12-.63,0-.63-.44-.63-1.42"/>
      <rect class="cls-1" x="263.04" y="56.75" width="2" height="17.44"/>
      <path class="cls-1" d="M280.74,72.66c-4.02,0-5.72-3.32-5.72-7.3,0-3.64,1.7-7.06,5.7-7.06,2.33,0,4.24,1.24,4.71,3.71h2.24c-.52-3.71-3.41-5.67-6.92-5.67-5.18,0-7.96,4.13-7.96,9.19s2.54,9.09,7.77,9.09c4.24,0,6.85-2.64,7.27-6.99h-2.23c-.21,2.88-1.91,5.03-4.85,5.03"/>
      <path class="cls-1" d="M291.02,66.67c.14-1.93,1.39-3.57,3.48-3.57,1.98,0,3.41,1.59,3.51,3.57h-6.99ZM294.63,61.27c-3.32,0-5.72,2.79-5.72,6.57.12,3.86,1.95,6.64,5.84,6.64,2.73,0,4.66-1.51,5.2-4.3h-1.98c-.35,1.64-1.51,2.47-3.15,2.47-2.66,0-3.86-1.95-3.79-4.15h9.11c.12-3.05-1.2-7.23-5.51-7.23"/>
      <path class="cls-1" d="M307.38,61.27c-1.74,0-3.11.73-3.95,2.3h-.05v-2h-1.88v12.63h2v-7.13c0-2.27,1.18-3.96,3.6-3.96,1.53,0,2.47,1,2.47,2.54v8.55h2v-8.31c0-2.71-.99-4.62-4.19-4.62"/>
      <path class="cls-1" d="M316.65,57.78h-2v3.79h-2.07v1.83h2.07v8.04c0,2.32.82,2.76,2.9,2.76h1.53v-1.83h-.92c-1.25,0-1.51-.17-1.51-1.12v-7.84h2.42v-1.83h-2.42v-3.79Z"/>
      <path class="cls-1" d="M326.91,61.27c-2.17-.07-3.51.93-4.47,2.96h-.05v-2.66h-1.88v12.63h2v-5.62c0-3.2,1.18-5.11,4.4-5.11v-2.2Z"/>
      <path class="cls-1" d="M328.75,66.67c.14-1.93,1.39-3.57,3.48-3.57,1.98,0,3.41,1.59,3.51,3.57h-6.99ZM332.35,61.27c-3.32,0-5.72,2.79-5.72,6.57.12,3.86,1.95,6.64,5.84,6.64,2.73,0,4.66-1.51,5.2-4.3h-1.98c-.35,1.64-1.51,2.47-3.15,2.47-2.66,0-3.86-1.95-3.79-4.15h9.11c.12-3.05-1.2-7.23-5.51-7.23"/>
    </g>
  </g>
</svg>