<?xml version="1.0" encoding="UTF-8"?>
<svg id="Layer_2" data-name="Layer 2" xmlns="http://www.w3.org/2000/svg" xmlns:xlink="http://www.w3.org/1999/xlink" viewBox="0 0 241.82 104.9">
  <defs>
    <style>
      .cls-1 {
        fill: #02a0c6;
      }

      .cls-2 {
        fill: none;
      }

      .cls-3 {
        fill: #2f58a5;
      }

      .cls-4 {
        fill: #3f9c49;
      }

      .cls-5 {
        fill: #8e203d;
      }

      .cls-6 {
        fill: #73c09b;
      }

      .cls-7 {
        fill: #f9a146;
      }

      .cls-8 {
        clip-path: url(#clippath);
      }

      .cls-9 {
        fill: #b8b3aa;
      }
    </style>
    <clipPath id="clippath">
      <rect class="cls-2" width="241.82" height="104.9"/>
    </clipPath>
  </defs>
  <g id="Layer_1-2" data-name="Layer 1">
    <g>
      <polygon class="cls-1" points="152.17 28.12 195.89 34.2 152.17 40.28 152.17 28.12"/>
      <polygon class="cls-6" points="152.17 40.29 195.89 46.37 152.17 52.45 152.17 40.29"/>
      <polygon class="cls-5" points="195.89 52.45 239.6 58.54 195.89 64.62 195.89 52.45"/>
      <polygon class="cls-9" points="152.17 64.62 195.89 70.7 152.17 76.79 152.17 64.62"/>
      <polygon class="cls-5" points="108.46 22.04 152.17 28.12 108.46 34.2 108.46 22.04"/>
      <polygon class="cls-3" points="108.46 34.2 152.17 40.28 108.46 46.37 108.46 34.2"/>
      <polygon class="cls-4" points="108.46 46.37 152.17 52.45 108.46 58.53 108.46 46.37"/>
      <polygon class="cls-7" points="108.46 58.53 152.17 64.62 108.46 70.7 108.46 58.53"/>
      <polygon class="cls-5" points="108.46 70.7 152.17 76.78 108.46 82.87 108.46 70.7"/>
      <rect x="107.68" y="2.44" width="1.56" height="100.02"/>
      <g class="cls-8">
        <path d="M43.75,21.96v32.8h-14.85v-.1c5.42-2.06,8.73-8.69,8.73-14.78,0-10.07-6.9-17.83-17.7-17.83S2.22,29.81,2.22,39.88c0,10.71,8.63,17.83,18.34,17.83h26.43v-16.5h17.41v-2.95h-17.41v-13.35h38.53s-21.12,30.25-21.12,30.25v2.55h25.31v-2.95h-21.26l21.26-30.15v-2.65h-45.97ZM20.47,54.76c-8.78,0-14.99-6.73-14.99-14.88s5.38-14.88,14.45-14.88,14.45,6.43,14.45,14.88c0,7.71-4.93,14.88-13.91,14.88"/>
        <path d="M3.31,80.25c0,1.02.71,1.77,1.68,1.77s1.7-.75,1.7-1.77-.7-1.73-1.71-1.73-1.67.74-1.67,1.73M8,82.82h-2.9c-1.55,0-2.72-.98-2.72-2.59,0-1.46,1.2-2.51,2.62-2.51s2.62,1.05,2.62,2.51c0,1.04-.57,1.59-1.05,1.86h0s1.43.01,1.43.01v.71Z"/>
        <path d="M10.63,81.31h-.18c-.46,0-1.27.04-1.27.52,0,.31.32.44.59.44.58,0,.85-.3.85-.77v-.19ZM10.68,82.36h-.02c-.24.38-.63.55-1.09.55-.63,0-1.23-.35-1.23-1.01,0-1.09,1.28-1.17,2.13-1.17h.21v-.09c0-.41-.32-.63-.78-.63-.35,0-.68.14-.9.35l-.44-.44c.37-.38.9-.54,1.44-.54,1.45,0,1.45,1.04,1.45,1.52v1.93h-.76v-.46Z"/>
        <path d="M11.96,80.17v-.71h.7v-.98h.84v.98h.93v.71h-.93v1.47c0,.34.1.55.47.55.15,0,.35-.03.46-.11v.71c-.18.08-.47.11-.67.11-.89,0-1.1-.4-1.1-1.19v-1.54h-.7Z"/>
        <path d="M17.15,81.31h-.18c-.46,0-1.27.04-1.27.52,0,.31.32.44.59.44.58,0,.85-.3.85-.77v-.19ZM17.2,82.36h-.02c-.24.38-.63.55-1.09.55-.62,0-1.23-.35-1.23-1.01,0-1.09,1.28-1.17,2.13-1.17h.21v-.09c0-.41-.32-.63-.78-.63-.35,0-.67.14-.9.35l-.44-.44c.37-.38.9-.54,1.44-.54,1.45,0,1.45,1.04,1.45,1.52v1.93h-.76v-.46Z"/>
        <path d="M18.87,79.45h.85v.53h.01c.19-.39.56-.62,1-.62.11,0,.21.02.3.05v.81c-.14-.04-.28-.06-.41-.06-.8,0-.91.67-.91.85v1.8h-.85v-3.37Z"/>
        <polygon points="23.84 77.85 26.93 77.85 26.93 78.4 24.43 78.4 24.43 80.04 26.75 80.04 26.75 80.59 24.43 80.59 24.43 82.82 23.84 82.82 23.84 77.85"/>
        <path d="M27.66,80.32c0-.3-.03-.56-.03-.78h.52c0,.17.01.36.01.54h.01c.15-.32.56-.63,1.1-.63.07,0,.15,0,.22.03l-.04.56c-.09-.03-.2-.04-.29-.04-.67,0-.96.47-.96,1.22v1.6h-.55v-2.5Z"/>
        <path d="M32.48,80.88c-.02-.55-.39-.92-.99-.92s-1.01.37-1.08.92h2.07ZM32.95,82.22c-.39.5-.85.68-1.46.68-1.04,0-1.67-.77-1.67-1.73,0-1.02.72-1.73,1.69-1.73s1.56.63,1.56,1.72v.18h-2.66c.04.57.48,1.05,1.08,1.05.47,0,.79-.17,1.05-.5l.42.32Z"/>
        <path d="M36.4,80.88c-.02-.55-.39-.92-.99-.92s-1.01.37-1.08.92h2.07ZM36.87,82.22c-.39.5-.85.68-1.46.68-1.04,0-1.67-.77-1.67-1.73,0-1.02.72-1.73,1.69-1.73s1.56.63,1.56,1.72v.18h-2.66c.04.57.48,1.05,1.08,1.05.47,0,.79-.17,1.05-.5l.42.32Z"/>
        <polygon points="39.48 82.29 42.36 78.4 39.52 78.4 39.52 77.85 43.08 77.85 43.08 78.36 40.2 82.27 43.12 82.27 43.12 82.82 39.48 82.82 39.48 82.29"/>
        <path d="M45.41,82.4c.71,0,1.17-.53,1.17-1.22s-.46-1.22-1.17-1.22-1.17.53-1.17,1.22.46,1.22,1.17,1.22M45.41,79.45c1.02,0,1.76.7,1.76,1.72s-.75,1.73-1.76,1.73-1.76-.7-1.76-1.73.75-1.72,1.76-1.72"/>
        <path d="M48.03,80.32c0-.3-.03-.56-.03-.78h.52c0,.17.01.36.01.54h.01c.15-.32.56-.63,1.1-.63.87,0,1.25.55,1.25,1.34v2.03h-.55v-1.97c0-.55-.24-.89-.75-.89-.71,0-1.02.51-1.02,1.26v1.6h-.55v-2.5Z"/>
        <path d="M54.41,80.88c-.02-.55-.39-.92-.99-.92s-1.01.37-1.08.92h2.07ZM54.89,82.22c-.39.5-.85.68-1.46.68-1.04,0-1.67-.77-1.67-1.73,0-1.02.72-1.73,1.69-1.73s1.56.63,1.56,1.72v.18h-2.66c.04.57.48,1.05,1.08,1.05.47,0,.79-.17,1.05-.5l.42.32Z"/>
        <path d="M55.93,81.96c.22.27.46.44.85.44.34,0,.73-.15.73-.5s-.35-.44-.71-.52c-.63-.14-1.16-.27-1.16-.95,0-.64.62-.97,1.23-.97.46,0,.89.17,1.12.6l-.46.3c-.14-.23-.37-.39-.7-.39-.3,0-.65.14-.65.45,0,.27.39.39.83.48.58.11,1.08.32,1.08.98,0,.74-.66,1.03-1.32,1.03-.56,0-.96-.15-1.28-.61l.44-.34Z"/>
        <path d="M62.8,78.61h-.01l-1.03,2.44h2.04l-.99-2.44ZM62.54,77.85h.56l2.12,4.97h-.69l-.51-1.22h-2.49l-.51,1.22h-.67l2.2-4.97Z"/>
        <path d="M68.65,82.04c0,.3.03.56.03.78h-.52c0-.18-.01-.36-.01-.54h-.01c-.15.32-.56.63-1.1.63-.87,0-1.25-.55-1.25-1.34v-2.03h.55v1.97c0,.55.24.89.75.89.71,0,1.02-.51,1.02-1.26v-1.6h.55v2.5Z"/>
        <path d="M71.5,80h-.97v1.64c0,.42,0,.76.49.76.16,0,.34-.04.49-.11l.02.5c-.19.08-.44.12-.64.12-.78,0-.91-.42-.91-1.1v-1.8h-.72v-.46h.72v-.93h.55v.93h.97v.46Z"/>
        <path d="M72.17,77.52h.55v2.47h.01c.15-.26.54-.54,1.06-.54.87,0,1.26.55,1.26,1.34v2.03h-.55v-1.97c0-.55-.24-.89-.75-.89-.71,0-1.02.51-1.02,1.26v1.6h-.55v-5.3Z"/>
        <path d="M77.66,82.4c.71,0,1.17-.53,1.17-1.22s-.46-1.22-1.17-1.22-1.17.53-1.17,1.22.46,1.22,1.17,1.22M77.66,79.45c1.02,0,1.76.7,1.76,1.72s-.75,1.73-1.76,1.73-1.76-.7-1.76-1.73.75-1.72,1.76-1.72"/>
        <path d="M80.27,80.32c0-.3-.03-.56-.03-.78h.52c0,.17.01.36.01.54h.01c.15-.32.56-.63,1.1-.63.07,0,.15,0,.22.03l-.04.56c-.09-.03-.2-.04-.29-.04-.67,0-.97.47-.97,1.22v1.6h-.55v-2.5Z"/>
        <path d="M82.8,79.54h.55v3.28h-.55v-3.28ZM83.08,77.85c.23,0,.4.18.4.4,0,.23-.17.4-.4.4s-.4-.17-.4-.4c0-.22.18-.4.4-.4"/>
        <path d="M86.25,80h-.97v1.64c0,.42,0,.76.49.76.16,0,.34-.04.49-.11l.02.5c-.19.08-.44.12-.64.12-.78,0-.91-.42-.91-1.1v-1.8h-.72v-.46h.72v-.93h.55v.93h.97v.46Z"/>
        <path d="M88.13,83.57c-.22.56-.44.93-1.1.93-.15,0-.34-.01-.49-.09l.07-.48c.11.04.23.06.39.06.36,0,.49-.22.61-.54l.23-.62-1.37-3.3h.64l1.02,2.58h.01l.98-2.58h.6l-1.59,4.03Z"/>
        <path d="M5.25,72.9c-.08,0-.18-.02-.32-.05-.14-.04-.26-.11-.35-.23,0,.4-.05.73-.15,1-.09.27-.22.49-.4.65-.18.16-.4.28-.68.35-.27.07-.6.11-.98.12v-1.08c.24,0,.43-.03.58-.08.14-.05.25-.12.32-.23.07-.1.12-.23.14-.39.02-.16.03-.34.03-.56v-2.63h1.15v1.5c0,.12.02.21.06.29.04.08.09.14.15.18.06.05.13.08.21.1.08.02.16.03.23.03.05,0,.09,0,.13.01.04,0,.08.03.11.06.03.03.06.08.08.15.02.06.03.15.03.26,0,.2-.03.34-.09.41-.06.08-.14.12-.26.12"/>
        <path d="M6.29,71.89v-5.29h1.14v3.86c.1-.18.21-.34.36-.48s.3-.27.47-.38c.17-.11.35-.19.54-.24.19-.06.38-.08.58-.08.62,0,1.09.18,1.4.54.31.36.47.86.47,1.5v.57h.69s.09,0,.13.01c.04,0,.08.03.11.06.03.03.06.08.07.15s.03.15.03.26c0,.2-.03.34-.08.42-.06.08-.14.11-.26.11h-6.7s-.09,0-.13-.01c-.04,0-.08-.03-.11-.06-.03-.03-.06-.08-.08-.15-.02-.06-.02-.15-.02-.26,0-.2.03-.34.08-.42s.14-.11.26-.11h1.05ZM10.09,71.89v-.57c0-.14-.01-.27-.04-.39-.03-.12-.08-.22-.15-.3-.07-.09-.16-.15-.27-.2-.11-.05-.25-.07-.41-.07-.18,0-.36.04-.53.12-.18.08-.34.19-.5.33-.15.14-.29.31-.41.49-.12.19-.22.38-.3.6h2.61Z"/>
        <path d="M12.81,71.89c-.05-.09-.08-.21-.1-.36-.02-.14-.03-.28-.03-.4,0-.23.04-.46.12-.68.08-.22.19-.42.35-.59.15-.18.34-.31.56-.42.22-.11.48-.16.77-.16.34,0,.62.06.84.18.22.12.39.27.51.46.13.18.21.39.26.62.05.23.07.44.07.66v1.71h-4.13s-.09,0-.13-.01c-.04,0-.08-.03-.11-.06-.03-.03-.06-.08-.07-.15-.02-.06-.03-.15-.03-.27,0-.2.03-.34.08-.41.06-.08.14-.11.26-.11h.77ZM12.99,67.87c0-.17.06-.32.19-.44.12-.12.27-.19.44-.19s.32.06.44.19c.13.12.19.27.19.44s-.06.32-.19.44c-.12.12-.27.19-.44.19s-.32-.06-.44-.19c-.13-.12-.19-.27-.19-.44M13.79,71.08c0,.31.07.52.21.63.14.12.31.18.51.18h.49v-.67c0-.12,0-.23-.02-.34-.02-.11-.05-.2-.09-.28-.04-.08-.1-.15-.18-.2-.07-.05-.17-.07-.29-.07-.12,0-.23.02-.3.07-.08.04-.15.1-.2.17-.05.07-.08.15-.11.24-.02.09-.03.18-.03.28M14.43,67.87c0-.17.06-.32.19-.44.12-.12.27-.19.44-.19s.32.06.44.19c.12.12.19.27.19.44s-.06.32-.19.44c-.12.12-.27.19-.44.19s-.32-.06-.44-.19c-.12-.12-.19-.27-.19-.44"/>
        <rect x="19.58" y="70.1" width="2.56" height=".71"/>
        <path d="M25.05,71.39c0-.23.04-.47.12-.71.08-.24.19-.46.34-.65.15-.19.32-.35.53-.47s.45-.18.71-.18c.23,0,.44.05.64.14.2.09.37.22.52.4.15.17.27.38.35.63.09.25.13.53.13.85,0,.19-.03.38-.09.57-.06.18-.16.35-.3.49-.14.14-.32.26-.53.35-.22.09-.47.14-.78.14-.25,0-.47-.03-.67-.09-.2-.06-.37-.16-.52-.29-.15-.13-.26-.29-.34-.49-.08-.19-.12-.42-.12-.69M25.62,68.02c0-.13.05-.24.14-.33.09-.09.2-.14.33-.14s.24.05.33.14c.09.09.14.2.14.33s-.05.24-.14.33c-.09.09-.2.14-.33.14s-.24-.05-.33-.14c-.09-.09-.14-.2-.14-.33M26.73,70.1c-.15,0-.28.03-.41.1-.13.07-.23.16-.32.27-.09.11-.16.24-.21.39-.05.15-.07.3-.07.47s.03.3.08.41c.06.12.13.21.22.28.09.07.2.13.32.16.12.03.25.05.39.05.12,0,.25-.01.37-.04.12-.03.23-.07.32-.14.09-.07.17-.16.23-.26.06-.11.09-.25.09-.42,0-.19-.03-.37-.08-.52-.06-.15-.13-.28-.22-.39-.09-.11-.2-.19-.32-.25-.12-.06-.25-.09-.37-.09M26.77,68.02c0-.13.05-.24.14-.33.09-.09.2-.14.33-.14s.24.05.33.14c.09.09.14.2.14.33s-.05.24-.14.33c-.09.09-.2.14-.33.14s-.24-.05-.33-.14c-.09-.09-.14-.2-.14-.33"/>
        <path d="M31.6,72.9c-.2,0-.36-.04-.49-.13-.13-.09-.23-.19-.29-.31,0,.42-.02.78-.08,1.07-.05.29-.15.53-.29.7-.14.18-.33.31-.58.39-.25.08-.57.12-.96.12v-.73c.29,0,.51-.03.68-.09.16-.06.28-.16.36-.3.08-.14.13-.31.14-.53.01-.21.02-.47.02-.78v-2.36h.72v1.25c0,.3.06.54.16.71.11.17.31.26.61.26.24,0,.35.12.35.35,0,.14-.03.25-.08.3-.06.05-.15.08-.27.08"/>
        <path d="M31.6,72.9c-.24,0-.36-.12-.36-.35,0-.15.03-.25.08-.3.06-.05.15-.08.27-.08h3.55c0-.38-.05-.69-.15-.95-.1-.26-.24-.47-.41-.63-.17-.16-.37-.28-.6-.35-.23-.07-.47-.11-.73-.11-.17,0-.35.02-.54.05-.19.03-.35.07-.47.1v-.7c.12-.03.28-.07.47-.12.2-.04.41-.07.64-.07.44,0,.82.07,1.14.22.32.15.58.35.79.6.21.25.36.55.47.89.1.34.15.69.16,1.07h.55c.24,0,.36.12.36.35,0,.14-.03.25-.08.3-.06.05-.15.08-.27.08h-4.86Z"/>
        <path d="M36.47,72.9c-.24,0-.35-.12-.35-.35,0-.15.03-.25.08-.3.06-.05.15-.08.27-.08h1.38v-5.57h.73v6.3h-2.11Z"/>
        <rect x="39.82" y="66.6" width=".73" height="6.3"/>
        <path d="M49.5,72.9c-.04.36-.14.67-.29.92-.15.26-.36.47-.6.64-.25.17-.54.3-.88.38-.34.08-.72.12-1.14.12-.55,0-1.01-.06-1.39-.16-.38-.11-.68-.26-.91-.46-.23-.19-.4-.42-.5-.68-.1-.26-.15-.55-.15-.86v-1.31h.73v1.16c0,.52.18.92.55,1.19.37.27.93.4,1.68.4.28,0,.56-.02.82-.07.27-.04.5-.12.7-.22.2-.1.37-.24.49-.41.12-.17.18-.38.18-.64h-1c-.24,0-.46-.03-.67-.08-.2-.05-.38-.14-.53-.26-.15-.12-.27-.28-.35-.47-.09-.19-.13-.44-.13-.72,0-.24.04-.48.12-.71.08-.23.19-.43.35-.61.15-.18.33-.32.55-.43.22-.11.46-.16.74-.16.31,0,.57.05.78.16.21.11.39.26.52.46.14.2.23.44.29.73.06.28.09.6.09.94v.41h.68c.24,0,.36.12.36.35,0,.15-.03.25-.08.3-.06.05-.15.08-.27.08h-.71ZM46.8,71.3c0,.3.09.52.26.66.18.14.43.21.77.21h.95v-.58c0-.43-.07-.78-.22-1.04-.15-.26-.4-.39-.76-.39-.17,0-.32.03-.44.1-.12.07-.23.16-.31.26-.08.11-.14.23-.18.37-.04.14-.06.27-.06.41M46.88,68.02c0-.13.04-.24.14-.33.09-.09.2-.14.33-.14s.24.05.33.14c.09.09.14.2.14.33s-.05.24-.14.33c-.09.09-.2.14-.33.14s-.24-.05-.33-.14c-.09-.09-.14-.2-.14-.33M48.03,68.02c0-.13.05-.24.14-.33.09-.09.2-.14.33-.14s.24.05.33.14c.09.09.14.2.14.33s-.05.24-.14.33c-.09.09-.2.14-.33.14s-.24-.05-.33-.14c-.09-.09-.14-.2-.14-.33"/>
        <path d="M50.2,72.9c-.24,0-.35-.12-.35-.35,0-.15.03-.25.08-.3.06-.05.15-.08.27-.08h1v-5.57h.73v4.32c.3-.49.65-.87,1.06-1.13.4-.27.88-.4,1.41-.4.57,0,1.02.18,1.34.54.32.36.48.86.48,1.49v1.49h-6.02ZM55.5,72.17v-.59c0-.2-.02-.39-.06-.57-.04-.18-.11-.33-.21-.46-.1-.13-.23-.23-.4-.31-.16-.07-.36-.11-.6-.11-.28,0-.55.06-.79.19-.24.13-.46.29-.66.49-.2.2-.37.42-.51.66-.14.24-.26.48-.35.71h3.57Z"/>
        <path d="M59.23,72.52c0,.15-.03.25-.08.3-.06.05-.15.08-.27.08h-.23c-.19,0-.36-.02-.52-.06-.15-.04-.29-.1-.4-.2-.11-.09-.2-.22-.26-.37-.06-.16-.09-.35-.09-.59v-5.08h.73v4.89c0,.25.04.42.11.52.08.1.25.15.51.15h.14c.24,0,.36.12.36.35"/>
        <path d="M58.88,72.9c-.24,0-.36-.12-.36-.35,0-.15.03-.25.08-.3.06-.06.14-.08.27-.08h.59c.14,0,.26,0,.36-.02.1-.01.19-.04.25-.08.07-.04.12-.11.15-.19.03-.08.05-.2.05-.35v-2.02h.73v1.69c0,.15,0,.28.03.4.02.12.06.22.12.3.06.08.14.15.24.2.1.05.23.07.38.07.23,0,.36.12.36.35,0,.15-.03.25-.08.3-.06.05-.15.08-.27.08-.23,0-.42-.06-.56-.16-.14-.11-.24-.25-.29-.41-.11.24-.27.4-.5.47-.23.07-.51.11-.84.11h-.73ZM60.2,68.02c0-.13.05-.24.14-.33.09-.09.2-.14.33-.14s.24.05.33.14c.09.09.14.2.14.33s-.04.24-.14.33c-.09.09-.2.14-.33.14s-.24-.05-.33-.14c-.09-.09-.14-.2-.14-.33"/>
        <path d="M67.22,72.9c-.22,0-.42-.04-.59-.13-.16-.09-.3-.24-.4-.45v-.02c-.11.22-.28.4-.49.53-.22.12-.48.19-.81.19-.28,0-.56-.05-.84-.14s-.58-.25-.88-.48c-.08.12-.16.21-.24.28-.08.07-.16.12-.25.15-.09.03-.18.05-.28.06-.09,0-.19.01-.3.01h-.38c-.24,0-.35-.12-.35-.35,0-.15.03-.25.08-.3.06-.06.15-.08.27-.08h.37c.07,0,.14,0,.22-.03s.15-.06.23-.12c.08-.06.15-.14.23-.24.07-.1.14-.24.21-.42.14-.38.28-.68.43-.92.15-.23.3-.41.46-.54.16-.13.32-.21.48-.25.16-.04.32-.06.48-.06.22,0,.43.04.62.13.19.08.35.21.49.36.14.16.25.34.33.56.08.22.12.46.12.72,0,.04,0,.08,0,.12,0,.04,0,.07,0,.11.06.19.15.33.26.43.11.1.29.15.54.15s.35.12.35.35c0,.15-.03.25-.08.3-.06.05-.15.08-.27.08M65.71,71.34c0-.13-.02-.25-.06-.38-.04-.12-.1-.23-.17-.33-.07-.09-.16-.17-.27-.22-.11-.06-.23-.08-.37-.08-.25,0-.48.11-.68.33-.21.22-.4.6-.58,1.15.22.14.44.25.65.34.22.09.43.13.66.13.25,0,.45-.07.6-.21.15-.14.23-.38.23-.71"/>
        <path d="M67.23,72.9c-.24,0-.35-.12-.35-.35,0-.15.03-.25.08-.3.06-.05.15-.08.27-.08h1.38v-5.57h.73v6.3h-2.11Z"/>
        <rect x="70.58" y="66.6" width=".73" height="6.3"/>
        <path d="M76.04,72.17c-.14,0-.3-.02-.49-.06-.19-.04-.36-.12-.53-.22-.17-.11-.31-.26-.43-.46-.12-.2-.18-.45-.18-.77s.06-.58.17-.8c.11-.21.26-.39.43-.52.18-.13.37-.23.59-.29.22-.06.43-.09.64-.09h1.41v2.52c0,.25.04.42.12.52.08.1.25.15.51.15h.21c.24,0,.36.12.36.36,0,.15-.03.25-.08.3-.06.05-.15.08-.27.08h-.3c-.15,0-.3-.01-.44-.04-.14-.03-.26-.07-.37-.14-.11-.07-.2-.16-.28-.27-.08-.12-.13-.26-.15-.44-.13.05-.28.09-.44.12-.16.03-.32.05-.47.05M75.12,70.59c0,.25.08.44.23.6.16.15.41.23.75.23.13,0,.27-.02.42-.04.15-.03.28-.07.4-.12v-1.56h-.78c-.28,0-.53.07-.73.22-.2.14-.3.37-.3.68M75.32,67.35c0-.13.04-.24.14-.33.09-.09.2-.14.33-.14s.24.04.33.14c.09.09.14.2.14.33s-.05.24-.14.33c-.09.09-.2.14-.33.14s-.24-.05-.33-.14c-.09-.09-.14-.2-.14-.33M76.47,67.35c0-.13.05-.24.14-.33.09-.09.2-.14.33-.14s.24.04.33.14c.09.09.14.2.14.33s-.05.24-.14.33c-.09.09-.2.14-.33.14s-.24-.05-.33-.14c-.09-.09-.14-.2-.14-.33"/>
        <path d="M78.49,72.9c-.24,0-.35-.12-.35-.35,0-.15.03-.25.08-.3.06-.05.15-.08.27-.08h.59c.14,0,.26,0,.36-.02.1-.01.18-.04.25-.08.07-.04.12-.11.15-.19.03-.08.05-.2.05-.35v-2.02h.73v1.69c0,.15.01.28.03.4.02.12.06.22.12.3.06.08.14.15.24.19.1.05.23.07.38.07.24,0,.35.12.35.35,0,.15-.03.25-.08.3-.06.05-.15.08-.27.08-.23,0-.42-.06-.56-.16-.14-.11-.24-.25-.28-.41-.11.24-.27.4-.5.47s-.51.11-.84.11h-.73ZM81.2,68.48h-1.93v-.47h.45c-.14-.17-.2-.36-.2-.6,0-.17.03-.31.08-.43.05-.12.12-.22.21-.3.09-.08.19-.14.3-.18.11-.04.23-.06.36-.06s.23,0,.32.03c.09.02.16.03.19.04v.48c-.14-.05-.29-.08-.46-.08-.19,0-.33.06-.41.16-.09.11-.13.23-.13.36,0,.16.05.3.15.41.1.11.25.17.46.17h.61v.47Z"/>
        <path d="M81.4,72.9c-.23,0-.35-.12-.35-.35,0-.15.03-.25.08-.3.06-.05.15-.08.27-.08h.6c.14,0,.26,0,.36-.02.1-.01.18-.04.25-.08.07-.04.12-.11.15-.19.03-.08.05-.2.05-.35v-2.02h.73v1.69c0,.15,0,.28.03.4.02.12.06.22.12.3.06.08.14.15.24.19.1.05.23.07.38.07.24,0,.36.12.36.35,0,.15-.03.25-.08.3-.06.05-.15.08-.27.08-.23,0-.41-.06-.56-.16-.14-.11-.24-.25-.29-.41-.11.24-.27.4-.5.47-.23.07-.51.11-.84.11h-.73ZM82.1,74.23c0-.13.05-.24.14-.33.09-.09.2-.14.33-.14s.24.05.33.14c.09.09.14.2.14.33s-.05.24-.14.33c-.09.09-.2.14-.33.14s-.24-.05-.33-.14c-.09-.09-.14-.2-.14-.33M83.25,74.23c0-.13.04-.24.14-.33.09-.09.2-.14.33-.14s.24.05.33.14c.09.09.14.2.14.33s-.05.24-.14.33c-.09.09-.2.14-.33.14s-.24-.05-.33-.14c-.09-.09-.14-.2-.14-.33"/>
        <path d="M84.3,72.9c-.24,0-.35-.12-.35-.35,0-.15.03-.25.08-.3.06-.05.15-.08.27-.08h1.41c-.06-.08-.11-.2-.17-.35-.05-.15-.08-.34-.08-.56,0-.15.02-.3.05-.45.03-.15.09-.29.16-.42.07-.13.16-.24.27-.33.11-.1.24-.17.38-.22-.12,0-.24,0-.36,0s-.24,0-.36.01v-.66c.64-.03,1.22,0,1.73.09.51.09.94.26,1.29.51.35.25.62.57.8.98.19.41.28.91.28,1.49v.64h-5.42ZM86.79,72.17c.12,0,.23-.03.31-.09.08-.06.15-.14.2-.23.05-.09.08-.19.1-.3.02-.11.03-.21.03-.31,0-.13-.01-.25-.04-.37-.02-.12-.06-.23-.11-.32-.05-.09-.12-.17-.2-.22-.08-.05-.18-.08-.3-.08-.21,0-.37.1-.48.28-.12.19-.17.43-.17.73,0,.11,0,.21.03.32.02.11.06.2.11.29.05.08.12.15.19.21.08.06.18.09.31.09h.04ZM88.98,72.17c0-.63-.13-1.11-.38-1.45-.26-.34-.61-.58-1.05-.72.1.08.18.17.25.27.07.1.12.21.16.32.04.11.07.22.08.33.01.11.02.21.02.3,0,.22-.02.41-.06.57-.04.15-.09.28-.14.38h1.12Z"/>
      </g>
    </g>
  </g>
</svg>