<?xml version="1.0" encoding="UTF-8"?>
<svg id="Layer_2" data-name="Layer 2" xmlns="http://www.w3.org/2000/svg" viewBox="0 0 176.03 54.82">
  <defs>
    <style>
      .cls-1 {
        fill: #ab0635;
      }
    </style>
  </defs>
  <g id="Layer_1-2" data-name="Layer 1">
    <g>
      <path class="cls-1" d="M175.68,25.92c-5.47,2.55-17.5,6.65-30.89,6.65s-24.65-5.94-24.65-14.11c0-8.84,8.82-15.63,23.54-15.63,4.99,0,12.13.38,20.62,3.89l.34-.67c.04-.08.04-.18.01-.26-.03-.09-.08-.16-.16-.21C157.16,1.03,147.35.05,141.52.05c-22.83,0-34.48,9.45-34.48,18.4s9.12,18.19,34.88,18.19c13.78,0,27.66-5.31,33.95-9.71.08-.05.13-.13.16-.22.03-.09.02-.18-.02-.27l-.31-.54Z"/>
      <path class="cls-1" d="M101.81,33.78c0-.1-.04-.19-.1-.27-.07-.07-.16-.12-.25-.13l-5.23-.94V4.46l5.23-.93c.1,0,.19-.06.25-.13.07-.07.1-.17.1-.27v-.75h-24.26v.75c0,.1.04.19.1.27.07.07.16.12.25.13l5.23.93v28l-5.23.94c-.1,0-.19.05-.25.13-.07.07-.1.17-.1.27v.74h24.26v-.76Z"/>
      <path class="cls-1" d="M109.75,48.06l-.2-.39c-18.11,7.11-29.94.06-41.12-6.36-6.96-3.97-15.01-5.54-19.24-5.8,15.59-2.85,21.81-8.96,21.81-16.8C71,7.27,55.55,0,36.63,0c-5.93,0-15.31,1.03-23.12,5.49-.08.05-.14.12-.17.21-.03.09-.02.19.02.27l.39.64c9.15-3.8,18.37-3.69,21.48-3.69,14.09,0,22.65,6.98,22.65,15.53,0,6.37-5.05,15.33-22.41,15.33-15.74,0-21.02-7.36-22.13-12.96L0,18.45c0,7.73,9.03,17.81,34.06,18.18,8.01,0,19.94,4.53,27.99,8.9,9.29,5.05,27.52,16.43,47.62,2.89.06-.04.1-.1.11-.16.02-.07,0-.14-.03-.2Z"/>
    </g>
  </g>
</svg>