<?xml version="1.0" encoding="UTF-8"?>
<svg id="Layer_2" data-name="Layer 2" xmlns="http://www.w3.org/2000/svg" viewBox="0 0 214.03 52.56">
  <defs>
    <style>
      .cls-1 {
        fill: #b8965b;
      }
    </style>
  </defs>
  <g id="Layer_1-2" data-name="Layer 1">
    <g>
      <path class="cls-1" d="M45.74,35.08c0-.16,0-.31-.12-.33.16-.09.16-.64-.03-.7.17-.07.16-.63-.01-.69.14-.1.16-.64-.03-.7.16-.08.16-.63-.03-.69.17-.09.16-.64-.03-.7.17-.07.17-.65-.03-.69.18-.07.17-.62-.01-.7.17-.08.16-.63-.03-.69.17-.08.17-.62-.01-.69.14-.09.17-.66-.04-.7.2-.08.14-.61,0-.71.15-.09.14-.63-.04-.67.17-.07.17-.63-.01-.69.14-.09.17-.65-.04-.7.2-.08.15-.61,0-.71.16-.08.14-.63-.04-.67.17-.06.17-.64-.01-.69.16-.09.16-.63-.03-.7.17-.08.16-.63-.03-.69.17-.08.16-.64-.01-.7.15-.08.16-.62-.03-.69.17-.09.15-.63-.03-.7.17-.07.16-.64-.03-.69.17-.08.17-.64-.01-.7.15-.07.17-.65-.04-.69.05-.03.1-.07.12-.14.04.04.08.09.18.08-.14.1.02.69.25.65-.15.19.03.63.23.64-.1.18.01.6.25.66-.11.21.03.58.25.65-.1.21.02.6.26.65-.13.19,0,.61.25.65-.12.19,0,.6.25.65-.13.1.02.66.25.65-.13.2.02.59.23.66-.09.21.03.59.26.65-.12.19.02.59.25.65-.15.18.05.43.11.6.05.01.07.05.14.04-.11.21.02.6.25.65-.11.21.01.61.26.65-.15.19.03.63.23.65-.11.18.01.61.25.66-.11.21.03.59.25.65-.1.21.03.59.25.65-.1.21.02.6.26.65-.14.09.02.66.25.65-.14.19.04.62.23.64-.1.18.02.59.25.66-.1.21.03.58.25.65-.09.21.02.59.26.64-.12.19.02.6.25.65-.12.19.01.6.25.65-.1.21,0,.62.26.65-.16.15.02.42.08.56-1.95-.23-4.15-.33-6.37-.33M45.38,35.08c-2.23.02-4.4.09-6.38.36.03-.16.21-.41.05-.55.17,0,.37-.56.21-.66.21-.06.33-.46.22-.66.19-.07.34-.48.21-.66.2-.07.33-.46.22-.66.18-.09.34-.48.19-.67.18,0,.38-.56.21-.66.03-.02.1-.02.14-.05.07-.07.23-.54.07-.61.04-.02.08-.02.12-.04.06-.16.25-.46.1-.62.18-.01.37-.57.21-.66.21-.06.33-.45.22-.66.19-.08.34-.48.21-.66.19-.07.36-.5.19-.67.2,0,.38-.56.22-.66.18,0,.37-.56.21-.66.21-.06.35-.48.22-.66.17-.03.37-.54.21-.66.2-.07.33-.46.22-.66.21-.08.3-.49.22-.69.22-.07.29-.5.21-.66.17-.02.36-.54.18-.65.19,0,.38-.55.22-.66.18-.02.37-.53.21-.66.21-.06.35-.48.22-.66.16-.02.37-.55.21-.66.2-.07.33-.46.22-.66.03-.04.09-.04.12-.07.04-.16.22-.42.08-.59.18-.05.19-.26.25-.44.04.06.05.13.14.14-.17.07-.17.64.01.7-.16.08-.16.63.03.69-.16.08-.16.62.01.69-.14.1-.16.65.04.7-.18.07-.17.63.01.7-.16.07-.17.65.04.69-.19.05-.17.63,0,.69-.14.1-.17.66.04.7-.2.08-.14.61,0,.71-.16.09-.14.63.04.67-.17.07-.17.63.01.69-.15.09-.17.64.04.7-.19.06-.17.63.01.69-.17.08-.16.64.03.7-.17.06-.17.64.01.69-.16.09-.15.63.03.7-.17.08-.16.63.03.69-.17.08-.16.63.01.7-.14.08-.17.66.04.69-.19.07-.16.63.01.7-.17.08-.16.64.03.69-.16.07-.17.64.01.69-.15.09-.17.65.04.7-.2.08-.15.62,0,.72-.16.08-.15.64.04.67-.12.03-.12.18-.11.34M44.54,14.87c.09.13.37.01.33-.42h.06s.15.56.3.46c.28.27.09.75-.23.81-.46.09-.82-.46-.45-.85M7.75,14.94c.28.27.09.88-.23.94-.46.09-.82-.66-.45-1.05.09.13.37.36.33-.32h.06s.15.53.3.43M7.84,17.35c-.14.1.02.69.25.65-.15.19.03.63.23.64-.1.18.01.6.25.66-.11.21.03.58.25.65-.1.21.02.6.26.65-.13.19,0,.61.25.65-.12.19,0,.6.25.65-.13.1.02.66.25.65-.13.2.02.59.23.66-.09.21.03.59.26.65-.12.19.02.59.25.65-.15.18.05.43.11.6.05.01.07.05.14.04-.11.21.02.6.25.65-.11.21.01.61.26.65-.15.19.03.63.23.65-.11.18.01.61.25.66-.11.21.03.59.25.65-.1.21.03.59.25.65-.1.21.02.6.26.65-.14.09.02.66.25.65-.14.19.04.62.23.64-.1.18.02.59.25.66-.1.21.03.58.25.65-.09.21.02.59.26.64-.12.19.02.6.25.65-.12.19.01.6.25.65-.1.21,0,.62.26.65-.16.15.02.42.08.56-1.95-.23-4.15-.33-6.37-.33,0-.16,0-.31-.12-.33.16-.09.16-.64-.03-.7.17-.07.16-.63-.01-.69.14-.1.16-.64-.03-.7.16-.08.16-.63-.03-.69.17-.09.16-.64-.03-.7.17-.07.17-.65-.03-.69.18-.07.17-.62-.01-.7.17-.08.16-.63-.03-.69.17-.08.17-.62-.01-.69.14-.09.17-.66-.04-.7.2-.08.14-.61,0-.71.15-.09.14-.63-.04-.67.17-.07.17-.63-.01-.69.14-.09.17-.65-.04-.7.2-.08.15-.61,0-.71.16-.08.14-.63-.04-.67.17-.06.17-.64-.01-.69.16-.09.16-.63-.03-.7.17-.08.16-.63-.03-.69.17-.08.16-.64-.01-.7.15-.08.16-.62-.03-.69.17-.09.15-.63-.03-.7.17-.07.16-.64-.03-.69.17-.08.17-.64-.01-.7.15-.07.17-.65-.04-.69.06-.03.1-.07.12-.14.04.04.08.09.18.08M7.9,35.08c-2.23.02-4.4.09-6.38.36.03-.16.21-.41.05-.55.17,0,.37-.56.21-.66.21-.06.33-.46.22-.66.19-.07.34-.48.21-.66.2-.07.33-.46.22-.66.18-.09.34-.48.19-.67.18,0,.38-.56.21-.66.03-.02.1-.02.14-.05.07-.07.23-.54.07-.61.04-.02.08-.02.12-.04.06-.16.25-.46.1-.62.18-.01.37-.57.21-.66.21-.06.33-.45.22-.66.19-.08.34-.48.21-.66.19-.07.36-.5.19-.67.2,0,.38-.56.22-.66.18,0,.38-.56.21-.66.21-.06.35-.48.22-.66.17-.03.37-.54.21-.66.2-.07.33-.46.22-.66.21-.08.3-.49.22-.69.22-.07.29-.5.21-.66.17-.02.36-.54.18-.65.19,0,.38-.55.22-.66.18-.02.37-.53.21-.66.21-.06.35-.48.22-.66.16-.02.37-.55.21-.66.2-.07.33-.46.22-.66.03-.04.09-.04.12-.07.04-.16.22-.42.08-.59.18-.05.2-.26.25-.44.04.06.05.13.14.14-.17.07-.17.64.01.7-.16.08-.16.63.03.69-.16.08-.16.62.01.69-.14.1-.16.65.04.7-.18.07-.17.63.01.7-.16.07-.17.65.04.69-.19.05-.17.63,0,.69-.14.1-.17.66.04.7-.2.08-.14.61,0,.71-.16.09-.14.63.04.67-.17.07-.17.63.01.69-.15.09-.17.64.04.7-.19.06-.17.63.01.69-.17.08-.16.64.03.7-.17.06-.17.64.01.69-.16.09-.15.63.03.7-.17.08-.16.63.03.69-.17.08-.16.63.01.7-.14.08-.17.66.04.69-.19.07-.16.63.01.7-.17.08-.16.64.03.69-.16.07-.17.64.01.69-.15.09-.17.65.04.7-.2.08-.15.62,0,.72-.16.08-.15.64.04.67-.12.03-.12.18-.11.34M52.11,34.82c.15-.15-.04-.64-.25-.65.13-.21-.03-.58-.23-.67.1-.2-.05-.56-.25-.65.09-.2-.03-.58-.26-.63.13-.2-.03-.59-.25-.66.14-.18-.06-.43-.11-.59-.05,0-.07-.05-.14-.04.11-.22-.03-.61-.26-.66.17-.13-.04-.64-.25-.63.14-.2-.02-.6-.24-.66.11-.22-.04-.58-.25-.66.11-.21-.04-.57-.25-.65.1-.2-.03-.59-.26-.63.13-.19,0-.61-.25-.65.16-.14-.04-.64-.25-.65.14-.21-.04-.58-.23-.67.11-.21-.05-.56-.25-.65.09-.2-.03-.58-.26-.63.03-.04.07-.09.07-.15,0-.11-.16-.52-.32-.49.13-.2-.03-.59-.25-.66.12-.12-.03-.5-.1-.58-.04-.05-.11-.05-.17-.07.17-.16-.05-.43-.1-.59-.04-.03-.1-.03-.15-.05.17-.18-.06-.61-.23-.66.13-.17-.07-.61-.25-.63.11-.22-.04-.59-.25-.66.11-.21-.04-.59-.26-.65.16-.12-.05-.63-.25-.63.15-.14-.04-.64-.25-.65.14-.21-.04-.59-.23-.67.09-.08.03-.22,0-.32.28-.11.52-.34.55-.7.04-.41-.17-.67-.41-.85.02-.14-.04-.21-.12-.25.1-.01.12-.1.12-.22,1.34.12,2.19.28,2.19.28.13-.2-.92-3.42-6.99-3.91-6.1-.48-11.23.8-11.5,1.4.11-.16.07-.31.29-.53.64-.64,1.63-1.06,1.69-1.78.03-.38.12-.79-.23-.95-1.25-.56-2.27-.42-2.71-.42-.05-.85-.68-.89-1.46-.89.01-.16-.05-.33-.05-.33l.02-.23s1.17-.68.57-1.02c-.12-.13-.26-.85-.26-.85,1.04-.04.89-1.38-.15-1.37-.31,0-.36-.19-.02-.19s.4-.15.4-.56c-.27-1.59-.52-1.38-.99-1.35-.47-.03-.73-.24-.99,1.35,0,.41.06.56.4.56s.29.19-.02.19c-1.04-.01-1.19,1.33-.15,1.37,0,0-.14.72-.26.85-.6.34.57,1.02.57,1.02l.02.23s-.07.17-.05.33c-.78,0-1.41.04-1.47.89-.44,0-1.46-.14-2.71.42-.35.15-.26.57-.23.95.06.72,1.05,1.15,1.69,1.78.22.22.18.37.29.53-.27-.6-5.39-1.88-11.5-1.4-6.07.49-7.13,3.71-6.99,3.91,0,0,.92-.17,2.34-.29,0,.12.03.22.13.24-.11,0-.12.12-.14.22-.28.14-.49.41-.48.78,0,.44.31.72.66.83-.07.16-.22.46-.1.61-.19.07-.31.46-.21.66-.21.07-.31.51-.21.67-.21.06-.34.5-.19.66-.24.04-.34.48-.22.66-.23.05-.32.5-.22.66-.21.06-.31.46-.21.66-.21.07-.33.48-.21.66-.23.06-.31.5-.22.67-.22.06-.3.5-.2.66-.22.05-.31.5-.21.66-.21.06-.34.5-.19.66-.23.04-.34.48-.22.66-.23.05-.32.5-.22.66-.2.07-.31.46-.21.66-.23.07-.31.5-.22.67-.18.03-.35.55-.18.66-.26.02-.32.5-.23.66-.22.05-.31.5-.21.66-.21.06-.32.48-.21.66-.21.06-.33.48-.21.66-.22.06-.32.46-.22.66-.2.07-.31.46-.21.66-.22.07-.32.52-.2.67-.22.05-.35.5-.19.66-.24.03-.35.48-.22.66-.24.04-.32.5-.22.66-.21.07-.33.48-.21.66-.23.06-.28.45-.25.65-.22.03-.46.07-.67.12-.21.06-.44.11-.54.27.19.18.48.24.76.3,1,2.23,3.43,3.71,6.46,3.93.75.05,1.49.05,2.19,0,2.88-.21,5.33-1.57,6.05-3.92.31-.07.64-.12.84-.33-.31-.29-.9-.31-1.39-.42.1-.2-.03-.59-.26-.63.15-.15-.04-.64-.25-.65.13-.21-.03-.58-.23-.67.1-.2-.05-.56-.25-.65.09-.2-.03-.58-.26-.63.13-.2-.03-.59-.25-.66.14-.18-.06-.43-.11-.59-.05,0-.07-.05-.14-.04.11-.22-.03-.61-.26-.66.17-.13-.04-.64-.25-.63.14-.2-.02-.6-.24-.66.11-.22-.04-.58-.25-.66.11-.21-.04-.57-.25-.65.1-.2-.03-.59-.26-.63.13-.19,0-.61-.25-.65.16-.14-.04-.64-.25-.65.14-.21-.04-.58-.23-.67.11-.21-.05-.56-.25-.65.09-.2-.03-.58-.26-.63.03-.04.07-.09.07-.15,0-.11-.16-.52-.32-.49.13-.2-.03-.59-.25-.66.12-.12-.03-.5-.1-.58-.04-.05-.11-.05-.17-.07.17-.16-.05-.43-.1-.59-.03-.03-.1-.03-.15-.05.17-.18-.06-.61-.23-.66.13-.17-.07-.61-.25-.63.11-.22-.04-.59-.25-.66.11-.21-.04-.59-.26-.65.16-.12-.05-.63-.25-.63.15-.14-.04-.64-.25-.65.14-.21-.04-.59-.23-.67.09-.08.03-.22,0-.32.28-.11.52-.34.55-.7.04-.41-.17-.67-.41-.85.02-.14-.04-.21-.12-.25.12-.01.13-.15.12-.28,4.53-.26,12.6.25,14.78,6.83.66,1.51-.46,8.33-.34,8.98.08.46.62.79.62.79,0,0-4.35,8.26-2.03,15.74h5.24s5.24,0,5.24,0c2.32-7.47-2.03-15.74-2.03-15.74,0,0,.53-.26.62-.72.12-.66-1-7.51-.34-9.02,2.21-6.65,10.42-7.12,14.92-6.83,0,.13.02.23.11.27,0,0-.01,0-.02,0,0,0,.01,0,.02,0-.09.02-.1.12-.12.21-.28.14-.49.41-.48.78,0,.44.31.72.66.82-.07.16-.22.46-.1.61-.19.07-.31.46-.21.66-.21.07-.31.51-.21.67-.21.06-.34.5-.19.66-.24.04-.34.48-.22.66-.23.05-.32.5-.22.66-.21.06-.31.46-.21.66-.21.07-.33.48-.21.66-.23.06-.31.5-.22.67-.22.06-.3.5-.2.66-.22.05-.31.5-.21.66-.21.06-.34.5-.19.66-.23.04-.34.48-.22.66-.23.05-.32.5-.22.66-.2.07-.31.46-.21.66-.23.07-.31.5-.22.67-.18.03-.35.55-.18.66-.26.02-.32.5-.23.66-.22.05-.31.5-.21.66-.21.06-.32.48-.21.66-.21.06-.33.48-.21.66-.22.06-.32.46-.22.66-.2.07-.31.46-.21.66-.22.07-.32.52-.2.67-.22.05-.35.5-.19.66-.24.03-.35.48-.22.66-.24.04-.32.5-.22.66-.21.07-.33.48-.21.66-.23.06-.28.45-.25.65-.22.03-.46.07-.67.12-.21.06-.43.11-.54.27.19.18.48.24.76.3,1,2.23,3.43,3.71,6.46,3.93.75.05,1.49.05,2.19,0,2.88-.21,5.33-1.57,6.05-3.92.31-.07.64-.12.84-.33-.31-.29-.9-.31-1.39-.42.1-.2-.03-.59-.26-.63"/>
      <polygon class="cls-1" points="33.94 49.4 17.83 49.4 17.57 49.4 15.41 49.4 15.41 50.96 25.77 50.96 37.16 50.96 37.16 49.4 35.65 49.4 33.94 49.4"/>
      <polygon class="cls-1" points="33.94 47.23 25.77 47.23 17.83 47.23 17.83 48.79 33.94 48.79 33.94 47.23"/>
      <path class="cls-1" d="M66.6,37.57c-.05-.09-.08-.13-.12-.17-.16-.2-.33-.3-.7-.35v1.25c.3.09.41.18.62.52-.12.16-.3.26-.58.26-.66,0-.8-.48-.8-1.2v-2.32c0-.24,0-1.03.79-1.03s.79.54.79,1.03v2.02ZM67.93,38.97c.14-.35.19-.79.19-1.35v-1.62c0-1.07-.21-1.67-.58-2.07-.45-.48-1.07-.65-1.76-.65-.63,0-1.26.17-1.67.64-.46.51-.58,1.17-.58,1.85v1.79c0,.29.03.87.17,1.35.34,1.13,1.41,1.37,2.07,1.37.35,0,.95-.05,1.46-.39.06.21.24.49.65.69.29.14.47.14.74.14v-1.44c-.27,0-.43,0-.67-.31"/>
      <path class="cls-1" d="M71.69,37.63l.73-3.02h.04s.74,3.02.74,3.02h-1.5ZM71.55,33.42l-1.88,6.68h1.43s.35-1.33.35-1.33h2.05s.34,1.33.34,1.33h1.43s-1.93-6.68-1.93-6.68h-1.78Z"/>
      <polygon class="cls-1" points="76.02 34.64 77.72 34.64 77.72 40.1 79.25 40.1 79.25 34.64 80.92 34.64 80.92 33.42 76.02 33.42 76.02 34.64"/>
      <path class="cls-1" d="M83.71,37.63l.73-3.02h.04s.74,3.02.74,3.02h-1.5ZM85.84,40.1h1.43s-1.93-6.68-1.93-6.68h-1.78s-1.88,6.68-1.88,6.68h1.43s.35-1.33.35-1.33h2.05s.34,1.33.34,1.33Z"/>
      <path class="cls-1" d="M91.46,36.23c-.21.07-.34.07-1.17.07v-1.85c.82,0,1,0,1.23.08.29.11.44.34.44.8,0,.36-.04.73-.5.89M92.19,37.13c.94-.28,1.28-.93,1.28-1.78,0-1.79-1.37-1.94-2.46-1.94h-2.16s0,6.68,0,6.68h1.45s0-2.73,0-2.73h.49s1.27,2.73,1.27,2.73h1.59s-1.46-2.97-1.46-2.97Z"/>
      <polygon class="cls-1" points="101.05 39.49 100.26 39.49 100.26 34 101.05 34 101.05 33.42 98 33.42 98 34 98.78 34 98.78 39.51 98 39.51 98 40.1 101.05 40.1 101.05 39.49"/>
      <path class="cls-1" d="M107.55,40.1v-6.68s-1.35,0-1.35,0v2.49c0,.26,0,.31.03.76l.04.67h-.05s-.12-.29-.15-.35c-.06-.14-.15-.32-.23-.46l-1.72-3.12h-1.4s0,6.68,0,6.68h1.35s0-3.13,0-3.13c0-.17-.04-1.02-.05-1.21h.05c.35.81.35.84.5,1.1l1.78,3.24h1.2Z"/>
      <polygon class="cls-1" points="111.02 40.1 112.55 40.1 112.55 34.64 114.21 34.64 114.21 33.42 109.32 33.42 109.32 34.64 111.02 34.64 111.02 40.1"/>
      <polygon class="cls-1" points="117.37 37.28 119.44 37.28 119.44 36.06 117.36 36.06 117.36 34.64 120.39 34.64 120.39 33.42 115.9 33.42 115.9 40.1 120.6 40.1 120.6 38.86 117.37 38.86 117.37 37.28"/>
      <path class="cls-1" d="M123.96,34.46c.82,0,1,0,1.23.08.29.11.44.34.44.8,0,.36-.04.73-.5.89-.21.07-.34.07-1.17.07v-1.85ZM125.71,40.1h1.59s-1.46-2.97-1.46-2.97c.94-.28,1.28-.93,1.28-1.78,0-1.79-1.37-1.94-2.46-1.94h-2.16s0,6.68,0,6.68h1.45s0-2.73,0-2.73h.49s1.27,2.73,1.27,2.73Z"/>
      <path class="cls-1" d="M130.58,36.97c0-.17-.04-1.02-.05-1.21h.05c.35.81.36.84.5,1.1l1.78,3.24h1.2s0-6.68,0-6.68h-1.35s0,2.49,0,2.49c0,.26,0,.31.03.76l.04.67h-.05s-.12-.29-.15-.35c-.06-.14-.15-.32-.23-.46l-1.72-3.12h-1.4s0,6.68,0,6.68h1.35s0-3.13,0-3.13Z"/>
      <path class="cls-1" d="M138.49,34.61h.04s.74,3.02.74,3.02h-1.5s.73-3.02.73-3.02ZM135.73,40.1h1.43s.35-1.33.35-1.33h2.05s.34,1.33.34,1.33h1.43s-1.93-6.68-1.93-6.68h-1.78s-1.89,6.68-1.89,6.68Z"/>
      <polygon class="cls-1" points="146.98 33.42 142.09 33.42 142.09 34.64 143.79 34.64 143.79 40.11 145.32 40.11 145.32 34.64 146.98 34.64 146.98 33.42"/>
      <polygon class="cls-1" points="148.11 34.01 148.9 34.01 148.9 39.51 148.11 39.51 148.11 40.11 151.16 40.11 151.16 39.5 150.37 39.5 150.37 34.01 151.16 34.01 151.16 33.42 148.11 33.42 148.11 34.01"/>
      <path class="cls-1" d="M155.78,37.88c0,.46,0,1.2-.79,1.2-.66,0-.79-.5-.79-1.2v-2.32c0-.26,0-1.03.81-1.03s.77.56.77,1.03v2.32ZM154.96,33.3c-.63,0-1.26.17-1.68.64-.46.51-.58,1.17-.58,1.85v1.79c0,.29.03.87.17,1.35.34,1.13,1.41,1.37,2.07,1.37.43,0,1.23-.06,1.78-.66.42-.46.57-1.06.57-1.99v-1.62c0-1.07-.21-1.67-.58-2.07-.45-.48-1.07-.65-1.76-.65"/>
      <path class="cls-1" d="M164.29,33.42h-1.35s0,2.49,0,2.49c0,.26,0,.31.03.76l.04.67h-.05s-.12-.29-.15-.35c-.06-.14-.15-.32-.23-.46l-1.72-3.12h-1.4s0,6.68,0,6.68h1.35s0-3.13,0-3.13c0-.17-.04-1.02-.05-1.21h.05c.35.81.35.84.5,1.1l1.78,3.24h1.2s0-6.68,0-6.68Z"/>
      <path class="cls-1" d="M168,37.64l.73-3.02h.04s.74,3.02.74,3.02h-1.5ZM167.85,33.42l-1.88,6.68h1.43s.35-1.33.35-1.33h2.05s.34,1.33.34,1.33h1.43s-1.93-6.68-1.93-6.68h-1.78Z"/>
      <polygon class="cls-1" points="174.54 33.42 173.05 33.42 173.04 40.11 177.48 40.11 177.48 38.86 174.54 38.86 174.54 33.42"/>
      <path class="cls-1" d="M186.87,37.83h-1.47c0,.72-.18,1.21-.78,1.21-.81,0-.81-.7-.81-1.07v-2.54c0-.18,0-.51.25-.73.14-.14.37-.21.55-.21.73,0,.75.73.76,1.06h1.47c-.02-.54-.09-1.36-.69-1.83-.46-.36-1.07-.45-1.47-.45-1.56,0-2.38.86-2.38,2.39v2.01c0,1.37.36,1.75.63,2.01.42.41.96.59,1.73.59.29,0,.98-.06,1.46-.45.56-.45.65-.93.7-1.19.05-.28.05-.34.06-.82"/>
      <path class="cls-1" d="M191.97,37.88c0,.46,0,1.2-.79,1.2-.66,0-.79-.5-.79-1.2v-2.32c0-.26,0-1.03.81-1.03s.77.56.77,1.03v2.32ZM193.49,37.63v-1.62c0-1.07-.21-1.67-.58-2.07-.45-.48-1.07-.65-1.76-.65-.63,0-1.26.17-1.68.64-.46.51-.58,1.17-.58,1.85v1.79c0,.29.03.87.17,1.35.34,1.13,1.41,1.37,2.07,1.37.43,0,1.23-.06,1.78-.66.42-.46.57-1.06.57-1.99"/>
      <path class="cls-1" d="M195.65,33.43v4.32c0,.6.03,1.37.67,1.98.41.38,1.13.56,1.83.56.61,0,1.18-.14,1.65-.51.68-.56.69-1.52.69-1.92v-4.42s-1.48,0-1.48,0v4.42c0,1.22-.66,1.22-.94,1.22-.9,0-.9-.83-.9-1.23v-4.41s-1.52,0-1.52,0Z"/>
      <path class="cls-1" d="M204.15,34.46c.82,0,1,0,1.23.08.29.11.44.34.44.8,0,.36-.04.73-.5.89-.21.07-.34.07-1.17.07v-1.85ZM204.15,37.38h.49s1.27,2.73,1.27,2.73h1.59s-1.46-2.97-1.46-2.97c.94-.28,1.27-.93,1.27-1.78,0-1.79-1.37-1.94-2.46-1.94h-2.16s0,6.68,0,6.68h1.45s0-2.73,0-2.73Z"/>
      <polygon class="cls-1" points="210.59 40.11 212.12 40.11 212.12 34.65 213.78 34.65 213.78 33.43 208.88 33.43 208.88 34.65 210.59 34.65 210.59 40.11"/>
      <path class="cls-1" d="M64.73,50.16l.99-3.4s.02-.05.05-.05.04.02.05.04l1.06,3.41h-2.14ZM65.25,45.65l-2.16,6.68h.97s.42-1.39.42-1.39h2.64s.46,1.39.46,1.39h.97s-2.26-6.68-2.26-6.68h-1.05Z"/>
      <path class="cls-1" d="M73.39,49.6c0,.23,0,.57.02.99,0,.09.04.55.04.65,0,.09,0,.1-.04.14-.02,0-.04,0-.05,0-.04-.11-.23-.64-.27-.76,0,0-.27-.66-.27-.66l-1.94-4.3h-1.18s0,6.68,0,6.68h.76s0-4.44,0-4.44c0-.05-.05-1.05-.05-1.24,0-.05,0-.05.05-.1,0,0,.04,0,.05.02.05.15.29.86.54,1.42l1.95,4.34h1.17s0-6.68,0-6.68h-.77s0,3.95,0,3.95Z"/>
      <path class="cls-1" d="M77.55,51.49h-.69s0-4.99,0-4.99h.45c.83,0,1.31.14,1.68.57.43.52.53,1.3.53,1.91,0,1.25-.36,2.5-1.96,2.5M77.37,45.65h-1.45s0,6.68,0,6.68h1.46c1.77,0,2.33-.76,2.62-1.27.41-.72.47-1.55.47-1.98,0-2.15-.89-3.43-3.1-3.43"/>
      <path class="cls-1" d="M85.67,51.49h-.69s0-4.99,0-4.99h.45c.83,0,1.31.14,1.68.57.43.52.53,1.3.53,1.91,0,1.25-.36,2.5-1.96,2.5M85.5,45.65h-1.45s0,6.68,0,6.68h1.46c1.77,0,2.33-.76,2.62-1.27.41-.72.47-1.55.47-1.98,0-2.15-.89-3.43-3.1-3.43"/>
      <polygon class="cls-1" points="89.67 46.26 90.23 46.26 90.23 51.74 89.67 51.74 89.67 52.33 91.77 52.33 91.77 51.74 91.18 51.74 91.18 46.26 91.77 46.26 91.77 45.65 89.67 45.65 89.67 46.26"/>
      <path class="cls-1" d="M96,48.76l-1.33-.6c-.22-.1-.73-.36-.73-.96,0-.65.61-.88,1.02-.88.77,0,1.07.46,1.37,1.07l.78-.46c-.41-.91-1.14-1.42-2.16-1.42s-1.9.71-1.9,1.72c0,.46.11.76.2.93.21.37.69.71,1.1.89l1.18.54c.7.32.82.71.82,1.02,0,.73-.61,1.07-1.17,1.07-.9,0-1.35-.66-1.54-1.2l-.8.5c.15.32.32.66.75,1.01.46.39,1.12.53,1.53.53.35,0,.9,0,1.45-.47.43-.36.66-.88.66-1.51,0-.49-.15-.75-.23-.9-.28-.49-.77-.77-1-.87"/>
      <path class="cls-1" d="M100.01,48.88c-.13,0-.25,0-.36,0v-2.44s.57,0,.57,0c.46,0,1.81,0,1.81,1.24,0,1.08-.9,1.21-2.02,1.21M102.21,46.11c-.58-.42-1.33-.46-2.05-.46h-1.45s0,6.68,0,6.68h.93s0-2.66,0-2.66h.81c.62,0,1.32-.04,1.89-.49.27-.22.68-.66.68-1.49,0-.67-.28-1.2-.82-1.58"/>
      <path class="cls-1" d="M108.01,49.88c0,.36-.02.87-.2,1.24-.24.44-.71.57-1.02.57-1.09,0-1.26-.86-1.26-1.58v-4.45s-.93,0-.93,0v4.41c0,.6.05,1.15.43,1.69.46.67,1.22.78,1.55.78.49,0,1.14-.05,1.68-.6.45-.46.59-1.14.59-1.79v-4.49s-.84,0-.84,0v4.22Z"/>
      <polygon class="cls-1" points="110.15 46.5 112.1 46.5 112.1 52.33 113.06 52.33 113.06 46.5 115 46.5 115 45.65 110.15 45.65 110.15 46.5"/>
      <polygon class="cls-1" points="117.19 49.26 119.53 49.26 119.53 48.41 117.17 48.41 117.17 46.47 120.37 46.47 120.37 45.65 116.22 45.65 116.22 52.33 120.54 52.33 120.54 51.49 117.19 51.49 117.19 49.26"/>
      <path class="cls-1" d="M125.27,48.65v-2.21s.92,0,.92,0c1,0,1.53.35,1.53,1.13s-.57.94-.94,1.02c-.35.07-1,.07-1.51.06M128.66,47.46c0-.68-.4-1.81-2.27-1.81h-2.06s0,6.68,0,6.68h.94s0-2.97,0-2.97h1.03s1.58,2.97,1.58,2.97h1.09s-1.75-3.09-1.75-3.09c.6-.19,1.43-.53,1.43-1.78"/>
      <polygon class="cls-1" points="131.16 49.26 133.5 49.26 133.5 48.41 131.14 48.41 131.14 46.47 134.34 46.47 134.34 45.65 130.19 45.65 130.18 52.34 134.51 52.34 134.51 51.49 131.16 51.49 131.16 49.26"/>
      <path class="cls-1" d="M138.68,48.77l-1.33-.6c-.22-.1-.73-.36-.73-.96,0-.65.61-.88,1.02-.88.77,0,1.07.46,1.37,1.07l.78-.46c-.41-.91-1.14-1.42-2.16-1.42s-1.9.71-1.9,1.72c0,.46.11.76.2.93.21.37.69.71,1.1.89l1.18.54c.7.32.82.71.82,1.02,0,.73-.61,1.07-1.17,1.07-.9,0-1.35-.66-1.54-1.2l-.8.5c.15.32.32.66.75,1.01.46.39,1.12.53,1.53.53.35,0,.9,0,1.45-.47.43-.36.66-.88.66-1.51,0-.49-.15-.75-.23-.9-.28-.49-.77-.77-1-.87"/>
      <path class="cls-1" d="M143.04,51.71c-1.17,0-1.28-1.78-1.28-2.63,0-.7.07-1.29.2-1.69.19-.63.55-1.03,1.12-1.03,1.19,0,1.27,1.8,1.27,2.69,0,1.69-.36,2.67-1.31,2.67M143.06,45.55c-.49,0-1.16.1-1.71.99-.38.61-.55,1.54-.55,2.56,0,1.78.62,3.43,2.26,3.43,1.8,0,2.25-1.93,2.25-3.52,0-.46-.05-1.25-.25-1.84-.27-.8-.87-1.62-1.99-1.62"/>
      <polygon class="cls-1" points="147.62 45.65 146.7 45.65 146.7 52.34 150.71 52.34 150.71 51.49 147.62 51.49 147.62 45.65"/>
      <path class="cls-1" d="M155.52,49.88c0,.36-.02.87-.2,1.24-.24.44-.71.57-1.02.57-1.09,0-1.26-.86-1.26-1.58v-4.45s-.93,0-.93,0v4.41c0,.6.05,1.15.43,1.69.46.67,1.22.78,1.55.78.49,0,1.14-.05,1.68-.6.46-.46.59-1.14.59-1.79v-4.49s-.84,0-.84,0v4.22Z"/>
      <polygon class="cls-1" points="157.66 46.5 159.6 46.5 159.6 52.34 160.56 52.34 160.56 46.5 162.5 46.5 162.5 45.65 157.66 45.65 157.66 46.5"/>
      <polygon class="cls-1" points="163.35 46.26 163.91 46.26 163.91 51.75 163.35 51.75 163.35 52.34 165.45 52.34 165.45 51.75 164.86 51.75 164.86 46.26 165.45 46.26 165.45 45.65 163.35 45.65 163.35 46.26"/>
      <path class="cls-1" d="M168.71,51.71c-1.17,0-1.28-1.78-1.28-2.63,0-.7.07-1.29.2-1.69.19-.63.55-1.03,1.12-1.03,1.19,0,1.27,1.8,1.27,2.69,0,1.69-.36,2.67-1.31,2.67M168.73,45.55c-.49,0-1.16.1-1.71.99-.38.61-.55,1.54-.55,2.56,0,1.78.62,3.43,2.26,3.43,1.8,0,2.25-1.93,2.25-3.52,0-.46-.05-1.25-.25-1.84-.27-.8-.86-1.62-1.99-1.62"/>
      <path class="cls-1" d="M176.04,49.61c0,.23,0,.57.02.99,0,.09.04.55.04.65,0,.09,0,.1-.04.14-.02,0-.04,0-.05,0-.04-.11-.23-.64-.27-.76,0,0-.27-.66-.27-.66l-1.94-4.3h-1.18s0,6.68,0,6.68h.77s0-4.44,0-4.44c0-.05-.05-1.05-.05-1.24,0-.05,0-.05.05-.1,0,0,.04,0,.05.02.05.15.29.86.54,1.42l1.95,4.34h1.17s0-6.68,0-6.68h-.77s0,3.95,0,3.95Z"/>
      <path class="cls-1" d="M183.63,51.23c-.08.13-.36.51-.88.51-1.1,0-1.37-1.43-1.37-2.9,0-.07.03-1,.27-1.6.15-.35.43-.87,1.09-.87.73,0,1.04.58,1.11,1.23l.87-.16c-.05-.32-.14-.85-.59-1.31-.41-.42-.97-.55-1.39-.55-1.88,0-2.28,1.95-2.28,3.49,0,3.21,1.65,3.5,2.19,3.5.26,0,.91,0,1.48-.57.4-.4.59-.97.63-1.5l-.91-.16c-.02.22-.05.6-.24.91"/>
      <polygon class="cls-1" points="187.3 49.26 189.64 49.26 189.64 48.41 187.28 48.41 187.28 46.47 190.48 46.47 190.48 45.66 186.33 45.66 186.33 52.34 190.65 52.34 190.65 51.49 187.3 51.49 187.3 49.26"/>
      <path class="cls-1" d="M195.84,49.61c0,.23,0,.57.02.99,0,.09.04.55.04.65,0,.09,0,.1-.04.14-.02,0-.04,0-.05,0-.04-.11-.23-.64-.27-.76,0,0-.27-.66-.27-.66l-1.94-4.3h-1.18s0,6.68,0,6.68h.76s0-4.44,0-4.44c0-.05-.05-1.05-.05-1.24,0-.05,0-.05.05-.1,0,0,.04,0,.05.02.05.15.29.86.54,1.42l1.95,4.34h1.17s0-6.68,0-6.68h-.77s0,3.95,0,3.95Z"/>
      <polygon class="cls-1" points="197.79 46.5 199.74 46.5 199.74 52.34 200.7 52.34 200.7 46.5 202.64 46.5 202.64 45.66 197.79 45.66 197.79 46.5"/>
      <path class="cls-1" d="M204.78,48.65v-2.21s.92,0,.92,0c1,0,1.53.35,1.53,1.13s-.57.94-.94,1.02c-.35.07-1,.07-1.51.06M208.18,47.47c0-.68-.4-1.81-2.27-1.81h-2.06s0,6.68,0,6.68h.94s0-2.97,0-2.97h1.03s1.58,2.97,1.58,2.97h1.09s-1.75-3.09-1.75-3.09c.6-.19,1.43-.53,1.43-1.78"/>
      <polygon class="cls-1" points="210.68 51.49 210.68 49.26 213.02 49.26 213.02 48.42 210.66 48.42 210.66 46.48 213.85 46.48 213.85 45.66 209.7 45.66 209.7 52.34 214.03 52.34 214.03 51.49 210.68 51.49"/>
      <path class="cls-1" d="M65.57,3.81h.64s0,1.21,0,1.21c-.03.7-.14,1.23-.78,1.23s-.78-.53-.78-1.23c0-.75.22-1.21.93-1.21M65.43,7.45c.67,0,1.11-.25,1.47-.58.37.34.85.58,1.35.58h.54s.25,0,.25,0h1.41s.25,0,.25,0h1.41s.25,0,.25,0h1.41s.25,0,.25,0h1.41s.25,0,.25,0h1.41s.25,0,.25,0h1.41s.25,0,.25,0h1.41s.25,0,.25,0h1.41s.25,0,.25,0h.66c.55,0,1.02-.17,1.38-.5.37.34.86.5,1.35.5h.54s.25,0,.25,0h1.41s.25,0,.25,0h1.41s.25,0,.25,0h1.41s.25,0,.25,0h1.41s.25,0,.25,0h.65c1.32,0,2.08-.75,2.08-1.93V.69s-1.33.43-1.33.43v4.34c0,.53-.29.78-.79.78h-7.93c-.51,0-.79-.26-.79-.76v-2.59s-1.33.43-1.33.43v2.13c0,.53-.25.78-.76.78h-14.56c-.5,0-.79-.26-.79-.76v-2.82s-2.01,0-2.01,0c-1.37,0-2.24.78-2.24,2.36s.87,2.43,2.12,2.43"/>
      <path class="cls-1" d="M64.76,1.74c.38,0,.71-.34.71-.71,0-.39-.33-.72-.71-.72s-.7.33-.7.72c0,.37.33.71.7.71"/>
      <path class="cls-1" d="M66.61,1.74c.38,0,.71-.34.71-.71,0-.39-.33-.72-.71-.72s-.7.33-.7.72c0,.37.33.71.7.71"/>
      <path class="cls-1" d="M82.27,9.8c.38,0,.71-.34.71-.71,0-.39-.33-.72-.71-.72s-.7.33-.7.72c0,.37.33.71.7.71"/>
      <path class="cls-1" d="M84.83,9.09c0-.39-.33-.72-.71-.72s-.7.33-.7.72c0,.37.33.71.7.71s.71-.34.71-.71"/>
      <path class="cls-1" d="M99.3,3.73c.52,0,.92.54.92,1.32s-.4,1.29-.92,1.29-.92-.5-.92-1.29.4-1.32.92-1.32M99.3,7.52c.23,0,.49.01.92-.19-.15.68-.67.94-1.28.94-.23,0-1.1-.04-1.8-.53l.6,1.35c.36.2,1.06.34,1.47.34,1.13,0,2.33-.65,2.33-2.43v-1.73c0-1.54-.57-2.72-2.24-2.72-1.43,0-2.25,1.14-2.25,2.49s.84,2.47,2.25,2.47"/>
      <path class="cls-1" d="M108.3,7.45h1.41s.25,0,.25,0h1.41s.25,0,.25,0h.65c1.32,0,2.08-.75,2.08-1.93V.69s-1.33.43-1.33.43v4.34c0,.53-.29.78-.79.78h-5.33s0-1.63,0-1.63c.01-1.17-.9-2.12-2.28-1.95-.56.07-1,.33-1.37.68v1.25c.53-.58.97-.71,1.28-.74.53-.05,1.04.28,1.04.94v1.45s-2.35,0-2.35,0l-.78,1.21h5.62s.25,0,.25,0Z"/>
      <polygon class="cls-1" points="116.89 .69 115.55 1.12 115.55 7.45 116.89 7.45 116.89 .69"/>
      <path class="cls-1" d="M132.64,3.95c1.08,0,1.46,1.01,1.49,2.3h-3.91c.15-1.03,1.14-2.31,2.41-2.3M150.35,4.68c-.48,0-.81-.19-.81-.61s.39-.62.91-.62c.65,0,.96.21.91.94v.29s-1,0-1,0ZM120.69,9.44c1.03,0,2.24-.55,2.44-1.99h1.24s.25,0,.25,0h1.41s.25,0,.25,0h1.41s.25,0,.25,0h8.3s.25,0,.25,0h1.41s.25,0,.25,0h1.41s.25,0,.25,0h1.41s.25,0,.25,0h1.41s.25,0,.25,0h1.41s.25,0,.25,0h1.41s.25,0,.25,0h1.41s.25,0,.25,0h2.51c1.32,0,2.08-.75,2.08-1.93v-1.6c0-.79-.52-1.57-2.23-1.57-1.15,0-2.21.41-2.21,1.68,0,.97.59,1.56,1.83,1.56h1.26c-.05.43-.33.65-.78.65h-2.47s-.25,0-.25,0h-1.41s-.25,0-.25,0h-1.41s-.25,0-.25,0h-1.41s-.25,0-.25,0h-1.41s-.25,0-.25,0h-1.41s-.25,0-.25,0h-1.41s-.25,0-.25,0h-1.41s-.25,0-.25,0h-.76s0-.34,0-.34c0-1.78-1.02-3.21-2.89-3.19-.95.01-1.86.61-2.37,1.23V.88s-1.33.4-1.33.4v4.97s-.95,0-.95,0h-.25s-1.41,0-1.41,0h-.25s-2.86,0-2.86,0v-3.35s-1.33.43-1.33.43v3.44c0,.94-.62,1.5-1.41,1.5-.23,0-1.03-.04-1.73-.53l.6,1.35c.36.2.99.34,1.4.34"/>
      <path class="cls-1" d="M151.39,1.43c.38,0,.71-.34.71-.71,0-.39-.33-.72-.71-.72s-.7.33-.7.72.33.71.7.71"/>
      <path class="cls-1" d="M149.53,1.43c.38,0,.71-.34.71-.71C150.24.33,149.91,0,149.53,0s-.7.33-.7.72.33.71.7.71"/>
      <path class="cls-1" d="M156.7,1.74c.38,0,.71-.34.71-.71,0-.39-.33-.72-.71-.72s-.7.33-.7.72c0,.37.33.71.7.71"/>
      <path class="cls-1" d="M158.56,1.74c.38,0,.71-.34.71-.71,0-.39-.33-.72-.71-.72s-.7.33-.7.72c0,.37.33.71.7.71"/>
      <path class="cls-1" d="M157.52,3.81h.64s0,1.21,0,1.21c-.03.7-.14,1.23-.78,1.23s-.78-.53-.78-1.23c0-.75.22-1.21.93-1.21M167.63,4.72c.57,0,.85.49.85,1.14,0,.74-.28,1.16-.85,1.16s-.85-.42-.85-1.16c0-.65.28-1.14.85-1.14M210.04,3.89c.53,0,.79.44.79,1.22s-.27,1.21-.79,1.21-.8-.43-.8-1.21.27-1.22.8-1.22M157.37,7.45c.67,0,1.11-.25,1.47-.58.37.34.86.58,1.35.58h.54s.25,0,.25,0h1.41s.25,0,.25,0h1.41s.25,0,.25,0h.27c.46,0,.85-.1,1.14-.34.33.66.97,1.1,1.92,1.1s1.65-.48,1.96-1.2c.33.28.76.43,1.27.43h.08s.25,0,.25,0h1.41s.25,0,.25,0h1.41s.25,0,.25,0h1.41s.25,0,.25,0h1.41s.25,0,.25,0h1.41s.25,0,.25,0h1.41s.25,0,.25,0h1.41s.25,0,.25,0h7.01s.25,0,.25,0h1.41s.25,0,.25,0h1.41s.25,0,.25,0h1.41s.25,0,.25,0h6.41s.25,0,.25,0h1.41s.25,0,.25,0h1.41s.25,0,.25,0h1.41s.25,0,.25,0h.71c.43,0,.88-.06,1.24-.39.37.29.88.46,1.43.46,1.45,0,2.15-1.03,2.13-2.42.03-1.41-.67-2.43-2.13-2.43s-2.19,1.01-2.16,2.43v.33c0,.55-.27.81-.79.81h-.42s-.25,0-.25,0h-1.41s-.25,0-.25,0h-1.41s-.25,0-.25,0h-1.41s-.25,0-.25,0h-1.08s0-.66,0-.66c.05-1.78-.98-2.93-2.61-2.93-.93,0-1.84.44-2.36,1.1l.82.82c.45-.49,1.04-.7,1.54-.7.96,0,1.25.87,1.26,1.8v.56s-3.98,0-3.98,0h-.25s-1.41,0-1.41,0h-.25s-1.41,0-1.41,0h-.25s-1.41,0-1.41,0h-.25s-1.01,0-1.01,0c.01-.33,0-.69-.07-1.03-.25-1.16-1.34-2.31-3.07-2.08l2.24-2.34h-1.74s-3.06,3.43-3.06,3.43l.79.7c.48-.44,1.1-.7,1.75-.7.94,0,1.86.7,1.74,2.02h-4.58s-.25,0-.25,0h-1.41s-.25,0-.25,0h-1.41s-.25,0-.25,0h-1.41s-.25,0-.25,0h-1.41s-.25,0-.25,0h-1.41s-.25,0-.25,0h-1.41s-.25,0-.25,0h-1.41s-.25,0-.25,0h-.15c-.58,0-.92-.25-1-.77-.15-1.05-.86-1.94-2.15-1.94s-2.02.91-2.16,1.97c-.07.49-.39.74-.96.74h-.21s-.25,0-.25,0h-1.41s-.25,0-.25,0h-1.41s-.25,0-.25,0h-.44c-.5,0-.79-.26-.79-.76v-2.82s-2.01,0-2.01,0c-1.37,0-2.24.78-2.24,2.36s.87,2.43,2.12,2.43"/>
      <path class="cls-1" d="M67.19,15.23c0,.33.27.58.58.58s.59-.26.59-.58-.27-.58-.59-.58-.58.27-.58.58"/>
      <path class="cls-1" d="M65.15,19.71h3.66c1.21,0,1.94-.69,1.94-1.77v-2.88s-.96.26-.96.26v2.51c0,.67-.34,1.01-1.03,1.01h-3.47c-.68,0-1.02-.34-1.02-1.01v-1.93s-.97.99-.97.99v1.04c0,1.06.74,1.77,1.86,1.77"/>
      <path class="cls-1" d="M65.81,15.23c0,.33.26.58.58.58s.59-.26.59-.58-.27-.58-.59-.58-.58.27-.58.58"/>
      <path class="cls-1" d="M71.63,13.37v5.01c0,.79.48,1.33,1.36,1.33h.83s.26,0,.26,0h1.4s.25,0,.25,0h1.41s.25,0,.25,0h1.41s.25,0,.25,0h1.43s.23,0,.23,0h5.28s-.73-.87-.73-.87h-2.65s0-1.93,0-1.93c0-.59.37-1.03.99-1.03.31,0,.59.14.84.44l.73-.66c-.41-.4-.9-.61-1.45-.61-.65,0-1.16.2-1.54.59-.36.38-.55.87-.55,1.43v1.76s-.92,0-.92,0h-.23s-1.43,0-1.43,0h-.25s-1.41,0-1.41,0h-.25s-1.41,0-1.41,0h-.25s-1.4,0-1.4,0h-.26s-.71,0-.71,0c-.34,0-.5-.16-.5-.49v-5.29s-.98.31-.98.31Z"/>
      <path class="cls-1" d="M87.68,20.83c-.59,0-1.1-.13-1.57-.39l.46.97c.3.19.66.28,1.1.28.71,0,1.28-.21,1.69-.63.42-.42.63-.97.63-1.66v-4.34s-.98.29-.98.29v4.08c0,.87-.51,1.4-1.34,1.4"/>
      <path class="cls-1" d="M89.49,14.23c.32,0,.58-.27.58-.58s-.26-.59-.58-.59-.59.27-.59.59.27.58.59.58"/>
      <path class="cls-1" d="M117.2,16.87c.72,0,1.08.45,1.08,1.37s-.36,1.37-1.08,1.37-1.09-.45-1.09-1.37.36-1.37,1.09-1.37M92.37,18.85c-.34,0-.5-.16-.5-.49v-5.29s-.98.31-.98.31v5.01c0,.79.48,1.33,1.36,1.33h.83s.26,0,.26,0h1.4s.25,0,.25,0h1.41s.25,0,.25,0h1.41s.25,0,.25,0h1.41s.25,0,.25,0h1.41s.25,0,.25,0h1.41s.25,0,.25,0h1.41s.25,0,.25,0h1.41s.25,0,.25,0h.49c.63,0,1.11-.18,1.46-.55.35.36.82.55,1.43.55h.37s.25,0,.25,0h1.41s.25,0,.25,0h1.36s.3,0,.3,0h.03c.56,0,.98-.18,1.28-.52.28.78,1.03,1.24,1.97,1.24.99,0,1.75-.5,2-1.37.31.41.76.63,1.33.65h0s.08,0,.08,0h.13s.44,0,.44,0c.59,0,1.06-.18,1.41-.52.35-.35.53-.78.53-1.31v-4.8s-.98.29-.98.29v4.42c0,.7-.34,1.05-1.01,1.05l-.61.02c-.72,0-1.14-.34-1.26-1.01-.09-.61-.28-1.06-.58-1.34-.33-.31-.82-.46-1.49-.46-1.22,0-1.91.6-2.08,1.8-.08.66-.49.99-1.23.99l-3.84.02c-.68,0-1.02-.34-1.02-1.02v-2.78s-.97.29-.97.29v2.46c0,.7-.34,1.05-1.03,1.05l-14.66-.02Z"/>
      <path class="cls-1" d="M107.98,13.66c0,.32.27.59.58.59s.58-.27.58-.59-.27-.58-.58-.58-.58.26-.58.58"/>
      <polygon class="cls-1" points="124.01 19.71 125.18 19.71 125.18 13.07 124.01 13.37 124.01 19.71"/>
      <path class="cls-1" d="M131.22,13.66c0-.32-.27-.58-.59-.58s-.58.26-.58.58.26.59.58.59.59-.27.59-.59"/>
      <path class="cls-1" d="M129.82,13.66c0-.32-.27-.58-.59-.58s-.58.26-.58.58.27.59.58.59.59-.27.59-.59"/>
      <path class="cls-1" d="M130.63,17.35c0,.51-.07.88-.21,1.1-.15.28-.44.41-.85.41s-.69-.13-.84-.41c-.13-.23-.21-.6-.21-1.1s.07-.88.21-1.09c.15-.27.44-.4.84-.4h1.05s0,1.49,0,1.49ZM140.7,15.07l-.97.29v2.46c0,.7-.34,1.05-1.02,1.05h-6.09c-.67,0-1.01-.35-1.01-1.05v-2.75s-2.09,0-2.09,0c-1.31,0-1.97.76-1.97,2.29s.66,2.36,1.97,2.36c.77,0,1.28-.24,1.51-.72.22.48.73.72,1.54.72h.42s.25,0,.25,0h1.41s.25,0,.25,0h1.41s.25,0,.25,0h1.41s.25,0,.25,0h.55c.59,0,1.06-.18,1.41-.52.35-.34.53-.78.53-1.31v-2.82Z"/>
      <path class="cls-1" d="M138.03,21.21c0,.32.27.59.59.59s.58-.27.58-.59-.27-.58-.58-.58-.59.26-.59.58"/>
      <path class="cls-1" d="M139.41,21.21c0,.32.27.59.59.59s.57-.27.57-.59-.26-.58-.57-.58-.59.26-.59.58"/>
      <path class="cls-1" d="M144.61,18.87h-.91c-.76,0-1.14-.42-1.14-1.26,0-1.04.36-1.56,1.07-1.56.42,0,.71.18.86.52.09.22.13.56.13,1.04v1.26ZM145.58,18.87c0-.52.02-.94.02-1.26,0-1.61-.66-2.41-1.97-2.41-.7,0-1.24.26-1.6.76-.3.42-.45.97-.45,1.65,0,.62.18,1.11.53,1.48.37.4.91.61,1.6.62h.8c-.08.61-.56,1.11-1.21,1.12-.5.02-1.04-.1-1.62-.36l.43.95c.28.18.68.27,1.21.27.61,0,1.1-.2,1.49-.6.36-.36.58-.81.67-1.38h.97s.25,0,.25,0h1.41s.25,0,.25,0h1.41s.25,0,.25,0h1.41s.25,0,.25,0h1.41s.25,0,.25,0h1.41s.25,0,.25,0h1.41s.25,0,.25,0h1.43s.23,0,.23,0h8.93s.22,0,.22,0h1.44s.25,0,.25,0h1.41s.25,0,.25,0h.55c.59,0,1.06-.18,1.41-.52.35-.34.53-.78.53-1.31v-2.82s-.97.29-.97.29v2.46c0,.7-.34,1.05-1.02,1.05l-4.96-.02v-3.78s-.98.29-.98.29v3.49s-2.06,0-2.06,0v-3.33s-.98.29-.98.29v3.04s-2.04,0-2.04,0v-2.89s-.98.28-.98.28v2.61s-13.73.02-13.73.02Z"/>
      <path class="cls-1" d="M172.29,13.67c0,.32.27.59.58.59s.58-.27.58-.59-.26-.58-.58-.58-.58.26-.58.58"/>
      <path class="cls-1" d="M170.91,13.67c0,.32.27.59.59.59s.58-.27.58-.59-.26-.58-.58-.58-.59.26-.59.58"/>
      <path class="cls-1" d="M178.47,14.24c.32,0,.58-.27.58-.58s-.26-.59-.58-.59-.59.27-.59.59.27.58.59.58"/>
      <path class="cls-1" d="M176.65,20.84c-.59,0-1.1-.13-1.57-.39l.46.97c.3.19.66.28,1.1.28,1.33,0,2.18-.78,2.31-1.98h1.22s.25,0,.25,0h1.41s.25,0,.25,0h5.6c0-1.16-.01-1.82-.03-1.97-.08-.71-.37-1.28-.86-1.7-.48-.43-1.08-.65-1.79-.65-.16,0-.3.01-.45.03l2.23-2.34h-1.28s-3.21,3.34-3.21,3.34l.67.63c.46-.54,1.06-.8,1.8-.8.57,0,1.03.17,1.38.49.26.24.42.58.49,1,.03.22.05.6.04,1.12l-7.71-.02v-3.78s-.98.29-.98.29v4.08c0,.87-.51,1.4-1.34,1.4"/>
      <path class="cls-1" d="M204.6,16.13c.67,0,1.01.46,1.01,1.38s-.34,1.37-1.01,1.37-1.02-.45-1.02-1.37.34-1.38,1.02-1.38M190.71,15.36v4.08c0,.87-.51,1.4-1.34,1.4-.59,0-1.1-.13-1.57-.39l.46.97c.3.19.66.28,1.1.28,1.33,0,2.18-.78,2.31-1.98h1.22s.25,0,.25,0h1.41s.25,0,.25,0h1.41s.25,0,.25,0h1.41s.25,0,.25,0h1.41s.25,0,.25,0h1.41s.25,0,.25,0h.22c.68,0,1.19-.19,1.52-.55.36.36.83.55,1.43.55.7,0,1.23-.24,1.57-.7.28-.38.42-.89.42-1.51s-.14-1.13-.42-1.53c-.34-.46-.87-.69-1.57-.69s-1.24.23-1.58.69c-.28.39-.42.9-.42,1.53v.33c0,.69-.34,1.03-1.01,1.03l-9.9-.02v-3.78s-.98.29-.98.29Z"/>
      <path class="cls-1" d="M209.49,19.01c-.69,0-1.04-.49-1.04-1.45s.35-1.46,1.04-1.46,1.03.48,1.03,1.46-.34,1.45-1.03,1.45M209.23,20.84c-.5.03-1.05-.08-1.64-.36l.43.95c.29.18.69.27,1.21.27.73,0,1.29-.24,1.67-.7.36-.41.54-.97.55-1.68,0-.1.01-.32.03-.65,0-.3,0-.56,0-.75,0-.79-.11-1.4-.34-1.82-.32-.57-.88-.85-1.66-.85-.71,0-1.25.25-1.59.73-.28.4-.42.93-.42,1.58s.14,1.16.42,1.57c.34.49.88.74,1.59.74.36,0,.68-.08.98-.25-.08.77-.49,1.19-1.24,1.23"/>
      <rect class="cls-1" x="62.79" y="27.03" width="150.47" height="1.17"/>
    </g>
  </g>
</svg>