<?xml version="1.0" encoding="UTF-8"?>
<svg id="Layer_2" data-name="Layer 2" xmlns="http://www.w3.org/2000/svg" xmlns:xlink="http://www.w3.org/1999/xlink" viewBox="0 0 542.09 453.71">
  <defs>
    <style>
      .cls-1 {
        fill: #231f20;
      }

      .cls-2 {
        fill: #8d7632;
      }

      .cls-3 {
        fill: #76777a;
      }

      .cls-4 {
        fill: url(#linear-gradient);
      }
    </style>
    <linearGradient id="linear-gradient" x1="260.41" y1="83.55" x2="405.17" y2="282.79" gradientUnits="userSpaceOnUse">
      <stop offset=".22" stop-color="#76777a"/>
      <stop offset=".29" stop-color="#969799"/>
      <stop offset=".39" stop-color="#bebfc0"/>
      <stop offset=".47" stop-color="#d7d7d9"/>
      <stop offset=".52" stop-color="#e1e1e2"/>
      <stop offset=".98" stop-color="#76777a"/>
    </linearGradient>
  </defs>
  <g id="Layer_1-2" data-name="Layer 1">
    <g>
      <g>
        <path class="cls-3" d="M129.67,206.76c-24.39-41.75-29.02-79.41-10.27-116.62,15.06-29.89,54.87-63.68,127.17-60.15.44.03,0,0,1.32.07,2,.17,2.34-1.18.99-1.53-2.03-.36-.89-.12-1.32-.18-64.81-8.45-122.69,13.41-143.45,59.74-16.16,36.1-6.27,79.11,22.27,116.56,1.44,2.11,2.44,3.95,3.29,2.11Z"/>
        <path class="cls-2" d="M309.69,0l33.74,15.7-77.16,138.97s-2,.66-1.66-1.35c.33-1.99,45.08-153.31,45.08-153.31Z"/>
        <polygon class="cls-2" points="355.46 21.38 390.84 37.08 266.27 154.67 355.46 21.38"/>
        <path class="cls-3" d="M125.99,240.16l137.26-77.16,7.03,150.32s-38.08-8.01-43.09-12.53l34.56-132.77-49.6,127.76-38.57-19.05,85.67-108.71-98.69,99.19s-31.06-22.55-34.57-27.05Z"/>
        <path class="cls-2" d="M243.23,312.31c2.99.74,2,3.67-1.02,3.35-90.84-23.39-130.25-61.13-138.93-72.17-2.6-2.58-.09-3.83,1.67-4.6,1.75-.73,148.55-73.89,148.55-73.89,0,0,2,0,.75,1.01-1.26.99-136.78,74.41-136.78,74.41,0,0,32.07,43.58,125.76,71.89Z"/>
      </g>
      <g>
        <g>
          <rect class="cls-1" x="171.22" y="355.79" width="5.09" height="32.56"/>
          <path class="cls-1" d="M63.36,386.03l-3.18-5.43h-11.14l-3.27,5.43h-4.8l13.62-21.86,13.6,21.86h-4.84ZM50.73,377.78h7.84l-2.9-4.81-.5-1.06-.53-1.31-.5,1.27-.53,1.1-2.87,4.81Z"/>
          <polygon class="cls-1" points="79.93 367.92 79.93 386.03 75.37 386.03 75.37 367.92 67.93 367.92 67.93 364.97 87.37 364.97 87.37 367.92 79.93 367.92"/>
          <path class="cls-1" d="M109.39,386.03l-3.19-5.43h-11.13l-3.27,5.43h-4.81l13.6-21.86,13.62,21.86h-4.82ZM96.75,377.78h7.83l-2.87-4.81-.53-1.06-.52-1.31-.52,1.27-.52,1.1-2.87,4.81Z"/>
          <path class="cls-1" d="M121.11,376.62v9.4h-4.28v-21.06h6.4c1.85,0,3.31.09,4.34.28,1.01.2,1.91.48,2.62.93.87.49,1.54,1.14,2.01,1.96.48.81.7,1.68.7,2.65,0,1.71-.53,3.01-1.63,3.97-1.09.95-2.69,1.51-4.81,1.71l9.66,9.56h-5.17l-9.31-9.4h-.54ZM121.4,373.95h.85c2.41,0,3.99-.23,4.8-.64.78-.41,1.18-1.17,1.18-2.24,0-1.18-.42-1.97-1.27-2.45-.83-.45-2.41-.7-4.7-.7h-.85v6.03Z"/>
          <rect class="cls-1" x="138.9" y="364.97" width="4.57" height="21.06"/>
          <path class="cls-1" d="M443.59,380.06v10.19h-4.3v-22.7h6.42c1.88,0,3.35.09,4.38.28,1.03.21,1.92.54,2.66.98.87.57,1.56,1.27,2.04,2.15.48.86.73,1.81.73,2.83,0,1.79-.57,3.25-1.66,4.25-1.11,1.05-2.72,1.66-4.86,1.85l9.72,10.36h-5.23l-9.39-10.19h-.52ZM443.92,377.19h.81c2.45,0,4.08-.24,4.89-.72.79-.44,1.21-1.25,1.21-2.38,0-1.26-.44-2.15-1.31-2.64-.86-.52-2.46-.78-4.78-.78h-.81v6.52Z"/>
          <path class="cls-1" d="M490.48,378.9c0,1.63-.38,3.14-1.14,4.61-.74,1.43-1.84,2.73-3.28,3.85-1.44,1.11-3.1,1.96-4.91,2.6-1.84.6-3.75.89-5.78.89s-3.99-.29-5.82-.89c-1.84-.64-3.48-1.48-4.9-2.6-1.44-1.13-2.52-2.42-3.29-3.85-.74-1.42-1.11-2.94-1.11-4.61s.37-3.14,1.11-4.57c.77-1.44,1.84-2.74,3.29-3.87,1.43-1.14,3.07-2,4.91-2.58,1.81-.61,3.76-.9,5.8-.9s3.99.29,5.8.9c1.81.58,3.44,1.44,4.89,2.58,1.44,1.14,2.54,2.44,3.28,3.88.76,1.46,1.14,2.95,1.14,4.56M485.64,378.93c0-1.14-.25-2.23-.78-3.27-.5-1.03-1.26-1.95-2.24-2.75-.95-.81-2.04-1.42-3.3-1.84-1.23-.44-2.56-.64-3.96-.64s-2.7.2-3.95.61c-1.26.42-2.37,1.06-3.34,1.87-.98.79-1.72,1.7-2.24,2.74-.5,1.03-.77,2.13-.77,3.29s.27,2.24.77,3.27c.52,1.02,1.26,1.95,2.24,2.74.97.81,2.08,1.44,3.32,1.84,1.26.44,2.57.65,3.96.65s2.68-.21,3.93-.65c1.25-.4,2.33-1.03,3.32-1.84.98-.79,1.74-1.72,2.24-2.76.53-1.03.78-2.12.78-3.26"/>
          <path class="cls-1" d="M495.69,367.54h4.57v13.79c0,2.05.56,3.62,1.75,4.64,1.19,1.03,2.95,1.54,5.29,1.54s4.07-.5,5.26-1.54c1.18-1.02,1.77-2.58,1.77-4.64v-13.79h4.64v14.13c0,3.09-.98,5.38-2.91,6.91-1.93,1.51-4.85,2.27-8.76,2.27s-6.81-.75-8.73-2.27c-1.91-1.54-2.87-3.83-2.87-6.91v-14.13Z"/>
          <path class="cls-1" d="M529.5,380.06v10.19h-4.29v-22.7h6.97c2.05,0,3.58.08,4.53.26.98.19,1.83.48,2.56.89.89.53,1.58,1.25,2.08,2.12.52.91.74,1.89.74,2.98s-.23,2.07-.74,2.97c-.5.93-1.19,1.63-2.08,2.15-.73.41-1.58.71-2.56.89-.95.17-2.48.27-4.53.27h-2.68ZM529.83,377.06h1.18c2.53,0,4.23-.24,5.06-.68.86-.45,1.27-1.23,1.27-2.37,0-1.25-.45-2.11-1.35-2.58-.9-.49-2.57-.75-4.98-.75h-1.18v6.38Z"/>
          <polygon class="cls-1" points="182.13 388.26 182.13 364.66 200.17 378.55 201.64 379.79 203.23 381.31 203.23 365.54 207.47 365.54 207.47 389.14 189.11 375.01 187.65 373.82 186.35 372.49 186.35 388.26 182.13 388.26"/>
          <path class="cls-1" d="M222.97,389.14l-12.66-23.6h4.8l6.34,12.13c.38.69.69,1.32.93,1.93l.6,1.71.65-1.79.89-1.85,6.32-12.13h4.77l-12.62,23.6Z"/>
          <polygon class="cls-1" points="238.4 388.26 238.4 365.54 254.21 365.54 254.21 368.69 243.02 368.69 243.02 374.39 254.21 374.39 254.21 377.61 243.02 377.61 243.02 384.98 254.21 384.98 254.21 388.26 238.4 388.26"/>
          <path class="cls-1" d="M257.86,383.7l3.7-1.35c.32,1.02.98,1.79,1.91,2.3.93.54,2.13.78,3.58.78s2.45-.31,3.27-.9c.81-.61,1.22-1.43,1.22-2.44,0-1.34-1.38-2.53-4.16-3.55l-.9-.37c-3.13-1.22-5.22-2.32-6.25-3.3-1.05-.99-1.55-2.2-1.55-3.63,0-1.87.79-3.36,2.34-4.52,1.58-1.17,3.63-1.75,6.16-1.75,2.11,0,3.86.34,5.26.99,1.4.64,2.38,1.56,2.93,2.77l-3.58,1.5c-.56-.74-1.19-1.25-1.88-1.58-.68-.34-1.44-.49-2.36-.49-1.23,0-2.23.25-2.94.77-.73.53-1.13,1.22-1.13,2.08,0,1.38,1.63,2.68,4.85,3.87l.58.19c2.79,1.05,4.72,2.05,5.74,3.05,1.05.99,1.56,2.23,1.56,3.72,0,2.16-.83,3.84-2.52,5.11-1.7,1.26-3.99,1.92-6.86,1.92-2.42,0-4.4-.44-5.93-1.36-1.55-.87-2.54-2.15-3.03-3.82"/>
          <polygon class="cls-1" points="290.39 368.69 290.39 388.26 285.77 388.26 285.77 368.69 278.26 368.69 278.26 365.54 297.9 365.54 297.9 368.69 290.39 368.69"/>
          <path class="cls-1" d="M330.38,376.93c0,1.62-.4,3.14-1.14,4.58-.76,1.42-1.87,2.72-3.3,3.86-1.46,1.13-3.11,2-4.93,2.58-1.83.64-3.76.93-5.76.93s-3.99-.29-5.82-.93c-1.84-.58-3.48-1.47-4.9-2.58-1.44-1.14-2.54-2.4-3.29-3.86-.74-1.4-1.13-2.93-1.13-4.58s.38-3.15,1.13-4.6c.74-1.44,1.84-2.74,3.29-3.87,1.44-1.15,3.09-2,4.9-2.57,1.83-.6,3.77-.91,5.82-.91s3.97.32,5.79.91c1.81.57,3.46,1.42,4.9,2.57,1.43,1.15,2.54,2.45,3.3,3.89.74,1.43,1.14,2.94,1.14,4.57M325.53,376.94c0-1.14-.27-2.21-.78-3.25-.52-1.06-1.27-1.99-2.24-2.81-.95-.78-2.04-1.42-3.3-1.83-1.26-.41-2.57-.64-3.96-.64s-2.72.23-3.95.62c-1.26.42-2.37,1.02-3.34,1.84-.98.81-1.74,1.74-2.23,2.77-.52,1.03-.78,2.15-.78,3.29s.27,2.24.78,3.27c.49,1.01,1.25,1.93,2.23,2.76.97.81,2.08,1.39,3.34,1.83,1.23.42,2.54.64,3.95.64s2.69-.21,3.92-.64c1.25-.44,2.36-1.02,3.34-1.83.97-.82,1.72-1.75,2.24-2.77.52-1.02.78-2.12.78-3.26"/>
          <path class="cls-1" d="M339.92,378.06v10.2h-4.29v-22.72h6.44c1.87,0,3.34.09,4.36.29,1.05.21,1.95.53,2.69.99.86.56,1.54,1.23,2.03,2.12.46.87.72,1.81.72,2.85,0,1.81-.56,3.22-1.64,4.25-1.1,1.03-2.73,1.66-4.86,1.85l9.72,10.36h-5.22l-9.39-10.2h-.54ZM340.26,375.19h.81c2.45,0,4.07-.23,4.88-.68.81-.48,1.19-1.27,1.19-2.42,0-1.25-.42-2.12-1.27-2.62-.86-.53-2.45-.78-4.8-.78h-.81v6.5Z"/>
          <path class="cls-1" d="M356.19,383.7l3.68-1.35c.34,1.02.99,1.79,1.92,2.3.94.54,2.12.78,3.58.78,1.38,0,2.46-.31,3.27-.9.83-.61,1.23-1.43,1.23-2.44,0-1.34-1.39-2.53-4.17-3.55l-.9-.37c-3.13-1.22-5.21-2.32-6.24-3.3-1.03-.99-1.56-2.2-1.56-3.63,0-1.87.79-3.36,2.36-4.52,1.56-1.17,3.62-1.75,6.16-1.75,2.09,0,3.86.34,5.25.99,1.4.64,2.38,1.56,2.93,2.77l-3.58,1.5c-.57-.74-1.19-1.25-1.88-1.58-.68-.34-1.46-.49-2.34-.49-1.23,0-2.24.25-2.97.77-.73.53-1.1,1.22-1.1,2.08,0,1.38,1.6,2.68,4.82,3.87l.6.19c2.79,1.05,4.72,2.05,5.75,3.05,1.05.99,1.58,2.23,1.58,3.72,0,2.16-.85,3.84-2.53,5.11-1.71,1.26-3.99,1.92-6.86,1.92-2.42,0-4.41-.44-5.95-1.36-1.54-.87-2.56-2.15-3.03-3.82"/>
          <path class="cls-1" d="M422.31,371.5h14.96l.03,1.01c.04,1.14.08,1.91.08,2.28,0,4.93-1.55,8.76-4.6,11.5-3.05,2.74-7.35,4.13-12.88,4.13-3.13,0-5.87-.45-8.32-1.3-2.42-.85-4.56-2.13-6.38-3.83-1.8-1.7-3.18-3.68-4.13-5.96-.95-2.27-1.43-4.73-1.43-7.34s.49-5.1,1.47-7.32c.97-2.23,2.41-4.2,4.33-5.92,1.85-1.67,4.01-2.94,6.49-3.82,2.49-.89,5.14-1.32,7.97-1.32,2.99,0,5.66.49,8.03,1.51,2.36.97,4.44,2.53,6.29,4.6l-4.5,3.15c-1.27-1.36-2.73-2.38-4.32-3.03-1.6-.66-3.4-.99-5.38-.99-4.11,0-7.47,1.21-10.05,3.64-2.6,2.44-3.88,5.58-3.88,9.47s1.28,7.18,3.88,9.64c2.58,2.48,5.96,3.71,10.11,3.71,3.52,0,6.29-.75,8.31-2.27,2.03-1.52,3.02-3.59,3.02-6.2v-.52h-9.09v-4.82Z"/>
          <path class="cls-1" d="M20.35,389.55c-.94-.05-1.81-.09-2.69-.13-12.11-1.03-17.66-8.5-17.66-17.79,0-9.78,5.76-18.94,20.13-18.94,15.95,0,20.11,11.19,20.11,18.77,0,2.46-.58,4.62-1.34,6.69-2.57,6.85-6.88,8.74-9.4,9.74,4.04,4.24,10.48,1.54,10.48,1.54-1.38,1.8-1.63,2.97-2.95,4.82l-.5.19c-6.61.53-16.17-4.87-16.17-4.87M30.41,361.82c-2.29-2.75-6.05-4.32-9.99-4.32-4.95,0-13.96,2.74-13.96,14.23,0,2.07,1.07,13.7,14.01,13.7,1.99,0,4.03-.34,5.78-1.07,1.81-.78,3.33-2.11,4.4-3.54,2.12-2.89,3.43-6.94,3.43-9.35s-1.36-6.8-3.67-9.64"/>
        </g>
        <path class="cls-1" d="M11.14,429.86c.16.15.37.24.57.24.17,0,.37-.08.5-.19l2.23-1.87c.19-.13.28-.33.29-.54.01-.21-.05-.45-.2-.58l-2.42-2.64c-.28-.33-.78-.36-1.1-.04l-2.24,1.99c-.15.15-.25.34-.25.57-.01.24.08.41.23.58l2.4,2.48ZM32.89,445.56c-.28-.28-.73-.33-1.05-.08l-1.79,1.38-1.22-1.29c-.27-.29-.74-.33-1.05-.09l-2.3,1.77c-.17.15-.29.34-.31.56-.01.24.07.45.23.64l2.45,2.58c.16.15.36.24.58.24.19,0,.36-.05.5-.19l1.74-1.43,1.35,1.38c.29.31.78.32,1.09.01l2.12-1.88c.16-.15.26-.33.26-.54,0-.24-.07-.44-.21-.6l-2.4-2.46ZM287.13,426.74c.28.3.75.32,1.09.07l1.72-1.47,1.36,1.42c.16.17.37.24.57.24.19,0,.37-.05.53-.2l2.11-1.92c.17-.13.26-.32.28-.54.01-.23-.08-.42-.23-.57l-2.41-2.5c-.28-.29-.73-.32-1.05-.05l-1.76,1.38-1.25-1.32c-.29-.29-.74-.32-1.06-.05l-2.27,1.79c-.17.15-.28.37-.3.56,0,.24.07.46.23.61l2.44,2.58ZM269.67,426.76c.16.17.37.27.58.27.17,0,.34-.08.49-.2l1.77-1.5,1.35,1.42c.3.3.79.3,1.11.04l2.11-1.92c.17-.13.27-.32.28-.54,0-.23-.09-.42-.24-.57l-2.4-2.5c-.29-.29-.74-.32-1.06-.05l-1.73,1.38-1.27-1.32c-.28-.29-.73-.32-1.06-.05l-2.28,1.8c-.16.13-.27.36-.29.58-.01.2.05.44.21.6l2.42,2.58ZM271.28,421.46c.17.17.38.23.56.23.2,0,.38-.04.52-.19l2.23-1.84c.17-.13.27-.36.28-.56.03-.23-.05-.44-.2-.57l-2.41-2.66c-.29-.32-.79-.32-1.11-.03l-2.21,1.99c-.16.16-.26.37-.28.57,0,.23.08.41.24.58l2.4,2.48ZM188.84,429.64c.16.17.36.27.57.27.19,0,.36-.07.52-.2l2.17-1.85c.16-.13.25-.33.26-.54.01-.24-.07-.44-.2-.58l-2.42-2.62c-.15-.17-.33-.25-.54-.26-.19.01-.42.07-.57.23l-2.16,1.99c-.16.15-.25.33-.25.57-.01.2.08.42.23.56l2.4,2.46ZM123.32,420.83c.15.15.34.24.56.24.17,0,.34-.07.5-.17l1.79-1.46,1.27,1.36c.28.3.77.3,1.09.03l2.19-1.91c.16-.13.25-.34.27-.56.01-.21-.08-.42-.23-.58l-2.41-2.48c-.28-.28-.74-.33-1.06-.08l-1.73,1.42-1.25-1.34c-.29-.28-.76-.33-1.09-.08l-2.3,1.92c-.17.13-.28.32-.29.57,0,.21.07.44.23.58l2.48,2.53ZM28.82,437.33c.21,0,.42-.07.56-.24v.28c0,3.79,2.16,4.34,3.44,4.34h15.35c.32,0,.6-.17.71-.48.34-.79.54-1.26.6-1.39.61-1.89,1.05-3.27,1.38-4.28.21-.68.32-1.56.32-2.6,0-2.52-.93-4.74-2.77-6.7-.17-.16-.4-.25-.62-.23-.24.01-.45.13-.58.32l-1.91,2.58c-.17.24-.2.6-.04.86,1.28,2.21,1.93,4.19,1.93,5.83l-.08.97h-12.68c-.32,0-.48,0-.48-.57v-9.59c0-.29-.2-.6-.49-.74-.27-.09-.6-.05-.83.15l-2.99,2.62c-.16.15-.26.36-.26.6v3.18h-8c-.94-1.83-1.42-2.7-1.7-3.13-.13-.23-.36-.36-.61-.37-.25-.03-.48.09-.65.29l-1.99,2.4c-.19.25-.24.6-.07.89l.95,1.63c1.44,3.31,2.13,6.05,2.01,8.19l-.12,2.3c-1.15,1.02-2.56,1.88-4.19,2.6-1.81.77-3.5,1.17-5.02,1.17-1.73,0-3.01-.57-3.89-1.79-.83-1.09-1.25-2.6-1.25-4.48,0-1.18.07-2.2.21-3.09.37-1.8.69-3.31.98-4.53l.19-.9c.09-.38-.13-.78-.52-.91-.38-.15-.79.07-.98.42l-.73,1.64c-.34.99-.61,1.74-.76,2.19-1.23,3.5-1.84,6.08-1.84,7.91,0,2.48.82,4.56,2.41,6.15,1.6,1.56,3.66,2.37,6.12,2.37,3.14,0,6.65-1.29,10.46-3.8.11-.08.23-.17.26-.3.62-1.26,1.14-2.53,1.55-3.8.69-2.08,1.03-3.75,1.03-5.19,0-.93-.09-1.85-.27-2.75h5.82ZM437.45,436.61h-11.23c-1.66-1.1-3.1-2.34-4.32-3.64.64-1.39,1.48-2.54,2.49-3.51,2.94-2.77,6.2-2.46,9.31-.04.15.08.32.19.5.19h.01c.45,0,.78-.38.78-.81,0-.21-.07-.4-.19-.54-1.84-3.68-4.27-5.54-7.25-5.54-1.92,0-3.79,1.07-5.56,3.18-2.19,2.66-3.29,5.17-3.29,7.44,0,1.11.36,2.2,1.06,3.27h-12.66l-2.78-14.43c-.04-.09-.07-.19-.13-.28.13-.03.24-.09.34-.16l2.12-1.91c.16-.15.25-.34.27-.56.01-.21-.08-.42-.23-.58l-2.42-2.49c-.26-.29-.74-.33-1.05-.07l-1.7,1.35-1.25-1.28c-.28-.29-.75-.33-1.07-.07l-2.28,1.84c-.16.12-.28.32-.29.56-.01.2.07.42.21.58l2.44,2.6c.29.3.75.32,1.09.05l1.75-1.42,1.21,1.22c-.12.01-.24.11-.32.2l-2.68,2.38c-.21.19-.3.48-.25.74l.17.81-7.75,4.3c-1.17.65-1.5,1.01-1.67,1.22-.04.05-.07.12-.11.16l-.52,1.31-1.79,5.38c-.08.2-.05.46.08.66.12.2.33.33.54.36l13.25,2c.25.05.52-.04.7-.25l.32-.36.16.64c.09.36.4.6.77.6h32.02c.34,0,.65-.2.74-.52l1.18-3.54c.08-.25.04-.5-.11-.7-.15-.23-.4-.36-.64-.36ZM393.5,434.51c.34-.9.64-1.15.72-1.18l6.85-3.84,1.26,6.41-8.82-1.39ZM502.47,445.03c-.29-.29-.75-.32-1.07-.04l-2.19,1.84c-.16.13-.25.33-.26.53-.03.24.05.45.2.6l2.41,2.64c.16.16.37.24.58.24.17,0,.36-.07.52-.2l2.21-1.93c.16-.15.27-.33.28-.56.01-.24-.07-.41-.24-.6l-2.44-2.52ZM151.73,411.65l-2.81-1.25c-1.48-.65-1.64-1.42-1.64-1.88,0-.38-.25-.72-.6-.79-.36-.08-.73.08-.89.4l-1.73,3.26-.29.49c-.03.05-.03.11-.04.16l-.31.91c-.03.08-.05.16-.05.24,0,.57.28,1.3,1.43,1.79l1.76,21.63h-16.52c.2-.34.4-.7.57-1.03,1.15-2.24,1.75-4.34,1.75-6.2,0-1.51-.37-2.76-1.1-3.8-.91-1.14-2.12-1.73-3.63-1.73-2.24,0-4.8,2.09-7.83,6.37-1.34,1.95-2.33,3.5-2.91,4.57-.04.07-.07.15-.08.2l-.15.69c-.01.05-.01.12-.01.17,0,.24.07.5.17.77h-12.57c.12-.53.19-.97.19-1.35,0-1.22-.48-2.68-1.47-4.33-.82-1.36-1.75-2.53-2.72-3.47-1.77-1.7-3.38-2.52-4.89-2.52-.98,0-2.08.32-3.35.95-.64.33-1.36.74-2.17,1.23-1.34.81-2.09,1.27-2.29,1.39l-6.78,4.38c.24-1.15.36-2.3.36-3.4,0-1.32-.03-2.42-.11-3.32l-.66-9.64h0c.4.17.85-.01,1.03-.41l1.6-3.63c.09-.16.09-.4.03-.6-.09-.19-.23-.36-.42-.42l-2.82-1.26c-.93-.41-1.27-.75-1.38-.97l-.16-.9c-.07-.32-.33-.57-.66-.61-.32-.07-.64.08-.81.37l-1.92,3.25-.57,1.28c-.04.11-.07.24-.07.33,0,.98.99,1.54,1.44,1.79l1.59,20.39-2.2,1.47h-12.24c-.58-2.61-1.56-4.73-2.9-6.21-.16-.15-.38-.29-.6-.27-.23,0-.45.12-.6.29l-2.17,2.52c-.24.3-.25.71-.01,1.02.85,1.03,1.58,2.21,2.17,3.44.44.97.82,2.03,1.15,3.22-2.16,5.34-4.88,8.08-8.03,8.08-.64,0-1.25-.08-1.88-.25.01-.24-.07-.44-.23-.62l-2.41-2.54c-.29-.32-.76-.33-1.1-.07l-1.74,1.46-1.35-1.42c-.3-.31-.78-.31-1.1-.04l-2.12,1.91c-.16.16-.25.36-.27.56-.01.23.09.45.23.57l2.41,2.5c.28.28.74.33,1.06.08l1.74-1.39,1.27,1.31c.28.28.74.33,1.07.07l.9-.75c2.38,2.44,4.09,3.58,5.38,3.58,1.14,0,2.42-.77,3.93-2.37,1.06-1.09,1.96-2.25,2.65-3.44,1.22-1.97,2.04-4.03,2.48-6.11h58.29c.16,0,.34-.05.46-.15l1.06-.77,1.43.82c.12.07.25.09.4.09h23.59c.36,0,.66-.2.77-.52l.94-2.98c.6-1.84.86-3.47.85-4.82l-1.07-16.8.13.05c.4.12.81-.08.97-.45l1.56-3.52c.17-.4,0-.85-.4-1.03ZM81.33,436.61l5.56-3.63,4.69-2.91c1.31-.74,2-.91,2.34-.91,1.11,0,2.4.66,3.8,1.99,1.3,1.23,2.16,2.91,2.64,5.18l.08.29h-19.12ZM127.6,434.31l-2.04,1.21-.81.34-.37-.17-2.64-1.99c.53-.94,1.26-1.92,2.17-2.91,1.64-1.75,2.58-2.03,3.01-2.03.37,0,1.14,0,1.14,2.03,0,1.22-.15,2.41-.46,3.52ZM369.51,407.73c-.3-.05-.64.04-.82.28l-3.5,4.45c-.16.17-.2.42-.16.65.49,2,.81,3.55.94,4.44v.24c.07,2.16.11,4.01.13,5.58l.25,8.68c.08,2.99-.09,6.37-.53,10.01l-.09.81c-.04.37.2.73.56.86.08.01.16.01.23.01.29,0,.54-.15.71-.41,1.46-2.68,2.46-5.29,2.99-7.68.38-1.79.58-4.37.58-7.67v-3.25c-.13-1.99-.2-3.18-.2-3.79l-.49-5.66.75-.95c.15-.19.19-.41.16-.64l-.94-5.33c-.07-.32-.29-.56-.58-.64ZM537.97,428.15c-1.88-2.72-3.66-4.04-5.42-4.04-1.21,0-2.52.85-4.04,2.61-.85,1.11-1.7,2.24-2.54,3.39l-4.95,6.49h-4.99c.04-.07.07-.09.09-.16l1.58-2.41c.13-.24.16-.5.07-.74-.11-.24-.33-.41-.58-.46-2.31-.46-4.5-1.09-6.53-1.88-3.55-1.35-6.58-2.79-8.98-4.23-1.73-1.06-2.48-1.17-2.89-1.17-.66,0-1.44.4-2.42,1.25l-1.68,1.43c-.25.24-.34.61-.19.94.16.3.52.49.86.42l.77-.15,1.05.28,8.68,4.27c-1.05.45-2.03,1.09-2.98,1.85l-.91.76h-18.85v-6.7c0-1.11-.05-1.51-.11-1.75-.25-.9-1.09-1.97-3.66-1.97-3.27,0-6.15,1.09-8.61,3.22-2.01,1.8-3.63,4.24-4.82,7.21h-11.82c-.11-1.87-.64-3.8-1.55-5.8-1.38-2.95-3.13-4.44-5.21-4.44s-3.85,1.74-5.63,5.33c-1.03,2.13-1.55,3.97-1.55,5.62,0,1.01.32,1.93.91,2.74.64.83,1.46,1.34,2.42,1.51.46.13,1.27.16,2.6.16h4.17c-.53,1.73-1.34,3.23-2.42,4.5-1.42,1.71-2.99,2.56-4.81,2.56-.61,0-1.83-.27-3.59-.82-.34-.08-.72.04-.9.34-.2.32-.16.7.11.97,2.89,3.03,4.93,4.44,6.41,4.44,1.38,0,2.93-1.11,4.69-3.44,1.92-2.49,3.23-5.35,3.93-8.54h12.29c.28,0,.53-.12.68-.34l1.71-2.62,11.5,6.64c.17.13.4.15.6.09.23-.07.4-.2.49-.41l1.8-3.35h17.14c1.19,0,1.95-.19,2.41-.65l.76-.77c2.3-2.34,4.89-3.58,7.66-3.76l.65,2.4c.37,1.3.94,2.08,1.76,2.48.36.16.97.3,2.86.3h6.04c.27,0,.53-.12.68-.33l1.47-2.17,11.84,5.22c.38.16.81.01,1.01-.32.81-1.31,1.62-2.73,2.42-4.36.83-1.66,1.25-2.91,1.25-3.85,0-2.57-.91-5.15-2.7-7.75ZM445.52,436.61l-.81-.16c-.24-.12-.48-.28-.48-.91,0-.53.23-1.18.65-1.89.54-.91,1.39-2.03,2.36-2.03,1.66,0,2.4,2.56,2.77,4.99h-4.49ZM479.46,439.32l-8.21-4.81c1.77-2.52,3.87-3.74,6.44-3.74,1.46,0,1.77.58,1.77,1.5v7.05ZM535.89,438.75l-8.77-3.86,2.81-3.97,1.13-1.21,1.17-.6c.37.07,1.09.38,2.16,1.8,1.22,1.63,1.83,3.43,1.83,5.4,0,.71-.12,1.5-.32,2.42ZM361.89,439.73l-3.89-2.16-.53-.31-1.06-.87c-.09-.2-.2-.54-.2-1.19l-1.32-18.58c.37.11.77-.09.93-.42l1.6-3.47c.19-.41,0-.89-.38-1.05l-2.62-1.25-1.03-.54c-.56-.26-.81-.68-.81-1.27,0-.38-.25-.7-.6-.81-.36-.08-.71.11-.87.42l-2,3.71-.36,1.1c-.04.07-.04.17-.04.25,0,.85.78,1.34,1.35,1.6l1.92,21.71h-14.53l.28-.97c.25-.81.37-1.68.37-2.54,0-2.58-.94-4.86-2.78-6.82-.16-.16-.38-.25-.62-.23-.23.01-.45.13-.57.32l-1.89,2.58c-.2.24-.2.6-.05.86,1.3,2.13,1.92,4.09,1.92,5.83l-.08.97h-3.87l-4.6-9.91c-.13-.25-.38-.44-.65-.46-.3-.01-.56.13-.71.32l-1.83,2.52c-.17.25-.21.53-.09.79l2.99,6.74h-6.66l-4.61-9.92c-.12-.27-.36-.42-.64-.45-.28-.01-.54.09-.73.3l-1.83,2.54c-.19.24-.21.54-.09.79l2.98,6.73h-20.08l-1.96-6.74c-.08-.26-.28-.49-.56-.54-.26-.09-.54,0-.74.16l-2.32,2.21c-.21.2-.3.53-.21.82l1.27,4.09h-12.93l-1.95-6.74c-.07-.26-.28-.46-.56-.54-.27-.09-.54,0-.75.17l-2.29,2.21c-.21.19-.29.48-.21.79l1.25,4.11h-12.93v-6.7c0-.82-.03-1.38-.12-1.75-.24-.9-1.07-1.97-3.63-1.97-3.27,0-6.17,1.09-8.61,3.22-2.04,1.81-3.66,4.24-4.82,7.21h-12.04c-.58-2.61-1.55-4.73-2.9-6.21-.15-.15-.4-.29-.6-.27-.23,0-.45.12-.58.29l-2.19,2.52c-.25.3-.25.71-.01,1.02.85,1.02,1.59,2.21,2.17,3.44.45.98.83,2.07,1.15,3.22-2.16,5.34-4.86,8.08-8.04,8.08-.62,0-1.23-.08-1.87-.25.03-.24-.05-.44-.2-.62l-2.42-2.54c-.29-.32-.77-.33-1.09-.07l-1.73,1.46-1.38-1.42c-.3-.31-.78-.31-1.1-.04l-2.13,1.91c-.15.16-.24.36-.25.56,0,.23.08.45.23.57l2.42,2.5c.28.28.73.33,1.06.08l1.74-1.39,1.25,1.31c.29.28.75.33,1.06.07l.91-.75c2.4,2.44,4.12,3.58,5.39,3.58,1.13,0,2.41-.77,3.93-2.37,1.07-1.13,1.97-2.29,2.65-3.44,1.21-2,2.04-4.04,2.49-6.11h12.13c.27,0,.52-.12.66-.34l1.72-2.62,11.48,6.64c.2.13.41.15.62.09.2-.07.37-.2.48-.41l1.79-3.35h13.62c.2,0,.41-.08.56-.24l.38-.41.03.08c.09.33.42.57.78.57h15.67c.21,0,.41-.08.57-.24l.38-.41v.08c.11.33.42.57.79.57h23.37c.24,0,.46-.09.62-.3l.46-.57.17.41c.12.29.41.46.74.46h9.58c.24,0,.48-.09.62-.3l.45-.57.19.41c.12.29.4.46.73.46h6.46c.29,0,.57-.16.7-.42l.2-.4.27.44c.15.24.41.38.68.38h15.42c.25,0,.48-.09.62-.28l.86-1.06,6.17,3.48c.38.21.83.11,1.07-.28l1.7-2.74c.11-.19.13-.4.08-.61-.05-.23-.2-.4-.38-.5ZM255.06,439.32l-8.2-4.81c1.76-2.52,3.88-3.74,6.44-3.74,1.44,0,1.76.58,1.76,1.5v7.05ZM160.04,407.73c-.3-.05-.62.04-.82.28l-3.5,4.45c-.15.17-.21.42-.15.65.53,2.23.82,3.64.91,4.45.08,2.24.13,4.19.16,5.8l.23,8.68c.09,3.03-.08,6.41-.52,10l-.09.82c-.04.34.19.73.54.86.08.01.16.01.25.01.28,0,.54-.15.69-.41,1.47-2.68,2.49-5.26,3.01-7.68.38-1.77.6-4.37.6-7.67v-3.25c-.15-1.99-.19-3.18-.21-3.79l-.42-4.98-.07-.68.75-.95c.13-.19.2-.41.16-.64l-.94-5.33c-.07-.32-.29-.56-.58-.64ZM215.59,441.24c.33-.79.52-1.26.6-1.39.58-1.89,1.05-3.27,1.36-4.28.21-.69.32-1.58.32-2.6,0-2.52-.93-4.74-2.78-6.7-.15-.16-.38-.25-.61-.23-.24.01-.44.13-.6.32l-1.88,2.58c-.19.24-.21.6-.04.86,1.29,2.21,1.92,4.19,1.92,5.8-.03.38-.07.72-.08.99h-13.41c-.6-2.7-1.67-5.22-3.21-7.48-.12-.23-.36-.36-.61-.37-.25-.03-.48.09-.65.29l-1.99,2.4c-.21.25-.25.6-.08.89l.98,1.71c.21.4.48.94.77,1.63.95,2.28,1.39,4.42,1.27,6.48l-.12,2.3c-1.15,1.02-2.58,1.88-4.24,2.62-1.79.74-3.47,1.14-5.01,1.14-1.7,0-2.97-.57-3.86-1.77-.83-1.13-1.26-2.64-1.26-4.49,0-2.08.38-4.64,1.15-7.59l.24-.89c.11-.38-.11-.79-.49-.95-.38-.15-.81.04-.98.41-.46.93-.98,2.2-1.56,3.84-.65,1.96-1.07,3.18-1.22,3.74-.4,1.36-.61,2.75-.61,4.17,0,2.49.81,4.56,2.41,6.12,1.58,1.59,3.64,2.4,6.13,2.4,3.15,0,6.68-1.29,10.49-3.82.11-.09.21-.19.28-.32,1.14-2.46,1.92-4.66,2.34-6.68l.05-.66h14.2c.33,0,.61-.17.74-.48Z"/>
      </g>
    </g>
    <path class="cls-4" d="M380.23,89.24c46.71,42.35,67.2,98.24,47,143.33-19.91,44.46-73.92,66.36-135.49,60.66-.61-1.96-21.99-130.89-21.99-130.89l110.48-73.09Z"/>
  </g>
</svg>