<?xml version="1.0" encoding="UTF-8"?>
<svg id="Layer_2" data-name="Layer 2" xmlns="http://www.w3.org/2000/svg" viewBox="0 0 73.63 124.85">
  <defs>
    <style>
      .cls-1 {
        fill: #cb122d;
      }
    </style>
  </defs>
  <g id="Layer_1-2" data-name="Layer 1">
    <g>
      <path class="cls-1" d="M53.66,18.07c-.09.2-.2.4-.3.6l-.25.44v-.02c-.34.56-.73,1.12-1.16,1.65h0s-.21.26-.21.26c-.67.8-1.2,1.28-1.22,1.3,0-.01-1.67,1.62-1.67,1.62l-1.69,1.63h-.01s-.25.25-.25.25c0,0-.96.93-1.78,1.73l-1.26,1.22c-.8.78-5.91,5.72-7.1,6.88.39.4,1.94,2,2.33,2.4.45-.45,7.21-6.99,7.21-6.99l2.93-2.84,2.36-2.28.49-.48c.7-.68,1.32-1.38,1.82-2.07.57-.79,1.04-1.59,1.35-2.39.39-.97.58-1.94.58-2.89,0-.87-.16-1.74-.48-2.6-.25-.66-.57-1.23-.88-1.69.02.19.04.39.05.58,0,.06,0,.11,0,.17,0,.07,0,.13,0,.19,0,.06,0,.13,0,.19,0,.13-.02.28-.04.42,0,.04,0,.09-.01.15-.03.19-.07.37-.11.57,0,.04-.01.08-.02.12-.04.16-.08.31-.13.46-.02.06-.04.13-.06.2-.04.13-.09.26-.13.39-.03.07-.06.14-.08.21-.06.14-.12.27-.19.41-.02.06-.05.13-.08.19"/>
      <path class="cls-1" d="M55.24,27.2s-1.67,1.61-1.67,1.61c0,0-11.59,11.24-12.1,11.71.07.07.17.16.26.27l.93.96s.02.02.02.02c0,0,.01.01.03.03.02.02.03.04.05.06,0,0,0,0,.01.01.02.03.06.06.09.09,0,0,0,0,.01,0,.03.03.08.08.13.13,0,0,0,0,0,0,.05.05.1.1.16.15,0,0,0,.01.01.01.06.06.12.12.19.18,0,0,0,0,.02.01.06.06.14.13.21.19,0,0,.01.01.02.01.08.07.16.14.24.21h0c.44-.43,7.16-6.93,7.16-6.93l2.93-2.83,1.96-1.89.89-.87c.71-.68,1.32-1.38,1.83-2.08.57-.78,1.03-1.59,1.35-2.38.38-.97.58-1.94.58-2.9,0-.87-.17-1.74-.49-2.6-.25-.67-.57-1.24-.88-1.7.03.25.05.5.05.76,0,1.3-.39,2.68-1.16,4.1-.44.8-.97,1.58-1.61,2.34-.67.81-1.2,1.29-1.22,1.31"/>
      <path class="cls-1" d="M64.78,25.27c-.25-.67-.57-1.23-.87-1.69.03.24.06.5.06.75,0,1.3-.4,2.68-1.18,4.1-.44.8-.97,1.59-1.6,2.35-.67.8-1.21,1.28-1.23,1.3.01,0-1.67,1.62-1.67,1.62l-4.88,4.72s-5.14,4.98-6.59,6.38c1.47.67,2.86.89,4.14.63.16-.16,5.97-5.77,5.97-5.77l4.58-4.43c.7-.68,1.31-1.38,1.83-2.08.57-.78,1.03-1.59,1.34-2.39.39-.97.58-1.93.58-2.89,0-.88-.16-1.75-.49-2.61"/>
      <path class="cls-1" d="M19.73,38.96c.07-.15.15-.31.23-.46l.24-.44h.01c.33-.55.7-1.12,1.14-1.66h0s.21-.26.21-.26c.44-.54.83-.94,1.07-1.18.04-.05.08-.09.12-.12.06-.07.11-.1.11-.11,0,0,1.59-1.53,1.59-1.53l.26-.26c.42-.41,1.22-1.18,1.54-1.49l3.34-3.23c1.16-1.12,5.81-5.63,6.95-6.73-.38-.4-1.94-2.01-2.32-2.4-.36.36-1.3,1.26-1.3,1.26l-5.92,5.73-3.71,3.59-1.98,1.92c-.73.71-1.37,1.44-1.91,2.17-.56.8-1.02,1.61-1.32,2.41-.35.93-.53,1.86-.53,2.77,0,.98.2,1.95.61,2.9.22.54.49,1,.75,1.38-.03-.23-.04-.48-.04-.71v-.07c0-.14,0-.27,0-.41,0-.03,0-.05,0-.08,0-.13.02-.25.04-.38,0-.03,0-.05,0-.08.02-.14.05-.28.08-.43,0-.03.02-.06.02-.09.03-.13.06-.26.09-.39.01-.03.01-.05.02-.06.04-.15.09-.29.13-.44.01-.03.02-.07.03-.1.05-.14.1-.28.16-.41,0-.01,0-.04.01-.04.06-.15.13-.3.19-.46.02-.03.04-.07.05-.1"/>
      <path class="cls-1" d="M18.13,29.85s1.58-1.53,1.58-1.53l1.95-1.89h0l2.93-2.83s5.91-5.72,7.21-6.98c-.18-.18-.43-.44-.66-.68-.02-.02-.04-.03-.05-.05-.21-.21-.4-.41-.51-.53-.07-.07-.11-.12-.11-.12,0,0,0,0-.02-.02,0,0-.02-.01-.02-.02-.01,0-.02-.02-.04-.04-.01-.01-.03-.04-.06-.06,0,0-.02-.02-.04-.03-.02-.02-.05-.06-.09-.09-.02-.01-.02-.03-.04-.04-.03-.04-.08-.07-.11-.11-.02-.02-.03-.03-.05-.05-.04-.04-.08-.09-.14-.12-.01-.02-.03-.03-.05-.06-.05-.04-.1-.09-.16-.14-.02-.02-.04-.03-.06-.05-.06-.06-.12-.11-.18-.16h0c-.39.38-2.32,2.25-2.32,2.25l-4.86,4.7-2.93,2.83-2.77,2.67c-.73.71-1.37,1.44-1.9,2.17-.57.8-1.01,1.61-1.32,2.41-.35.93-.53,1.85-.53,2.77,0,.98.2,1.95.6,2.9.24.56.51,1.03.77,1.43-.03-.26-.07-.51-.07-.78,0-1.27.37-2.6,1.11-3.98.42-.8.96-1.59,1.59-2.36.71-.86,1.28-1.38,1.31-1.4"/>
      <path class="cls-1" d="M13.41,24.97s1.59-1.54,1.59-1.54l1.95-1.89s8.88-8.59,9.55-9.24c-1.41-.68-2.77-.94-4.02-.77-.18.17-2.22,2.15-2.22,2.15l-3.7,3.58-4.71,4.55-.93.97c-.35.4-.68.8-.97,1.2-.57.8-1.02,1.61-1.32,2.41-.36.93-.54,1.86-.54,2.78,0,.98.2,1.94.6,2.89.23.56.51,1.03.77,1.42-.03-.26-.07-.51-.07-.78,0-1.27.37-2.6,1.1-3.97.43-.81.96-1.59,1.6-2.36.7-.86,1.27-1.38,1.29-1.4"/>
      <path class="cls-1" d="M36.26,54.67c-.8-.41-1.6-.94-2.38-1.57-.92-.74-1.48-1.36-1.5-1.39l-3.34-3.45s-8.01-8.27-8.66-8.96c-.36.76-.6,1.51-.71,2.23-.02.08-.03.14-.03.21-.01.06-.02.13-.02.19-.01.13-.02.25-.02.37,0,.04,0,.08,0,.12,0,.1,0,.19,0,.29,0,.22.04.45.07.66.17.18,6.46,6.69,6.46,6.69l3.1,3.2c.58.6,1.16,1.13,1.74,1.58l.53.39c.8.56,1.62,1,2.43,1.29,1.98.73,3.96.64,5.85-.25.41-.19.77-.4,1.08-.61-1.45.18-3-.16-4.62-.99"/>
      <path class="cls-1" d="M47.8,45.95c-.18-.05-.37-.12-.55-.18-.02,0-.04-.02-.06-.02-.18-.07-.36-.14-.54-.22-.02,0-.04-.02-.07-.03-.19-.08-.37-.18-.55-.27h-.03c-.14-.09-.27-.16-.42-.24h0s0,0,0,0c-.56-.32-1.12-.7-1.68-1.13h0s0,0,0,0c-.08-.06-.17-.13-.25-.19l.24.19-.24-.19c-.58-.47-1.01-.88-1.26-1.13-.15-.16-.23-.25-.24-.26,0,0-1.45-1.49-1.45-1.49,0,0,0,0-.02-.02l-.04-.04s-.1-.11-.19-.21h0c-.98-1.01-4.47-4.61-4.47-4.61,0,0-.04-.04-.1-.11l-.15-.15c-1.06-1.1-5.11-5.29-6.16-6.36-.17.16-.58.56-1.01.98l-.12.12c-.52.5-1.06,1.03-1.27,1.23.45.46,6.41,6.62,6.41,6.62l2.83,2.92s2.59,2.68,2.59,2.68c.75.78,1.51,1.44,2.27,1.97.81.57,1.62,1.01,2.43,1.3,1.98.72,3.95.65,5.84-.25.42-.19.78-.41,1.09-.62-.23.03-.45.04-.68.04-.69,0-1.4-.1-2.13-.31,0,0-.01,0-.02,0M40.43,40.51l.05.05-.05-.05h0Z"/>
      <path class="cls-1" d="M50.63,46.22c-.9.11-1.84.02-2.81-.27.73.21,1.44.32,2.13.31.23,0,.46-.02.68-.04,0,0,0,0,0,0"/>
      <path class="cls-1" d="M41.14,49.95c-.8-.41-1.59-.94-2.39-1.58-.92-.74-1.47-1.36-1.49-1.38,0,.01-1.45-1.5-1.45-1.5,0,0-10.66-11.01-11.13-11.51-.31.31-1.06,1.03-1.27,1.24l-.06.06s-.01,0-.02.02c0,0-.02.02-.03.02-.01.01-.02.02-.03.04-.03.02-.05.05-.07.07-.01,0-.02.02-.03.03-.04.03-.06.06-.1.1-.01,0-.01.02-.03.03-.03.03-.08.08-.12.13-.01,0-.03.02-.04.03-.04.04-.1.1-.14.15-.01.02-.03.03-.04.05-.05.05-.1.11-.16.17,0,.02-.03.03-.04.05-.06.06-.11.12-.17.19,0,0,0,0,0,0,.41.42,11.18,11.57,11.18,11.57l.61.62c.74.77,1.51,1.43,2.27,1.97.8.57,1.62,1.01,2.43,1.3,1.98.73,3.96.65,5.85-.24.41-.2.77-.41,1.09-.62-1.45.17-3-.17-4.61-.99"/>
      <path class="cls-1" d="M37.07,2.44c.8.43,1.59.97,2.35,1.6.84.69,1.34,1.25,1.36,1.27,0-.01,1.57,1.62,1.57,1.62l4.72,4.88s4.54,4.7,5.86,6.05c.34-.71.59-1.41.73-2.09,0-.01,0-.03,0-.04.03-.14.05-.28.07-.42.02-.13.04-.27.04-.4,0-.05,0-.1,0-.15,0-.11,0-.23,0-.35,0-.06,0-.12,0-.19v-.04c-.01-.1-.02-.2-.04-.3-.18-.19-9.81-10.14-9.81-10.14-1.48-1.53-3-2.61-4.53-3.2-1.88-.74-3.77-.74-5.6,0-.59.24-1.11.54-1.53.81,1.51-.18,3.12.17,4.79,1.07"/>
      <path class="cls-1" d="M53.78,14.42c0,.12,0,.23,0,.35,0-.06.01-.13.01-.2,0-.05,0-.1-.01-.15"/>
      <path class="cls-1" d="M25.97,11.27s.06.02.1.03c.03,0,.06.03.09.03.18.07.35.14.53.23.21.09.42.2.63.32l.44.23h0c.56.34,1.12.72,1.65,1.15h.01s-.01,0-.01,0c.08.06.15.12.23.18l.03.03c.84.69,1.34,1.24,1.37,1.27-.02-.01,1.56,1.62,1.56,1.62l1.64,1.69.22.23.03.03s8.77,9.06,9.24,9.56c.29-.28,1.22-1.19,1.86-1.81h0c.23-.23.43-.42.53-.52-.47-.49-6.41-6.63-6.41-6.63l-2.83-2.93-1.89-1.95s-.83-.85-.83-.85c-.7-.72-1.41-1.35-2.13-1.87-.79-.59-1.6-1.03-2.4-1.34-1.88-.73-3.77-.73-5.58,0-.6.25-1.1.53-1.52.81,0,0-.01,0-.02,0,1.1-.13,2.25.02,3.45.46"/>
      <path class="cls-1" d="M27.31,11.89c.15.08.29.16.44.25h0s-.44-.25-.44-.25Z"/>
      <path class="cls-1" d="M32.19,7.16c.81.43,1.59.97,2.35,1.6.84.7,1.34,1.25,1.36,1.27l1.57,1.62s9.92,10.25,11.13,11.5c.21-.21.62-.61.95-.92l.03-.03c.13-.13.24-.23.32-.31l.06-.05s.06-.06.06-.06c0-.02.41-.39.95-.99-.38-.39-9.92-10.25-9.92-10.25l-1.18-1.22-.83-.84c-.69-.72-1.4-1.35-2.13-1.88-.8-.57-1.59-1.02-2.4-1.33-1.89-.74-3.77-.74-5.58,0-.6.24-1.12.54-1.53.82,1.51-.19,3.12.16,4.79,1.07"/>
      <path class="cls-1" d="M25.99,124.52c-1.61-.04-4.68-.07-6.37-.07-.64,0-2.43.11-4.18.18-1.75.1-3.46.22-4.07.22C1.72,124.85,0,115.87,0,111.72c0-7.04,3.68-13.62,12.44-13.62,6.68,0,11.65,4.54,11.65,13.01,0,5.86-2.68,8.48-3.9,9.62,1.18-.21,3.57-.36,5.79-.25v4.04ZM12.06,120.84c5.43,0,6.43-5.64,6.43-9.8,0-3.68-.82-5.43-1.61-6.61-.64-1-2.15-2.39-4.64-2.39-4.86,0-6.51,4.65-6.51,9.36,0,3.65,1.07,9.44,6.33,9.44"/>
      <rect class="cls-1" x="31.42" y="98.53" width="5.55" height="25.92"/>
      <rect class="cls-1" x="42.5" y="98.53" width="5.54" height="25.92"/>
      <path class="cls-1" d="M53.68,98.64h9.65c1.5,0,4.4,0,6.37,1.22,2.36,1.5,2.89,4,2.89,5.5,0,.96-.18,2.64-1.51,3.86-.17.21-1.42,1.36-2.93,1.75v.07c3.93.72,5.47,3.58,5.47,6.3,0,3.04-1.79,5.07-3.79,6.08-2,1.04-5.51,1.04-6.51,1.04h-9.65v-25.81ZM58.97,109.15h3.87c1.57,0,4.43,0,4.43-3.32s-2.72-3.22-4.54-3.22h-3.76v6.54ZM58.97,120.31h3.76c2.54,0,5.4,0,5.4-3.47,0-3.69-3.32-3.69-5.97-3.69h-3.19v7.15Z"/>
      <path class="cls-1" d="M61.37,85.37h-.73v-1.95h-2.08v1.95h-.73v-1.95h-2.08v1.95h-15.17v-5.94h-2.11v5.94h-2.81s0,2.1,0,2.1h26.25s.68,0,.68,0h.04c.24-.02.47-.12.63-.32h0s0,0,0,0h0s0,0,0,0h0s0,0,0,0h0c.11-.14.18-.33.19-.53h0s0-.02,0-.02v-3.16h-2.08v1.95Z"/>
      <polygon class="cls-1" points="37.74 79.43 37.61 79.43 37.3 79.43 36.09 79.43 35.79 79.43 35.66 79.43 35.66 84.81 37.74 84.81 37.74 79.43"/>
      <path class="cls-1" d="M65.49,89.88h-.41v1.23h1.44s.26-.02.33-.05c.07-.03.2-.12.26-.24v-.03s.02,0,.02,0v-.03s0,0,0,0h0c.02-.1.03-.21.03-.36v-.51h-.62s-.08-.11-.08-.3.09-.26.09-.26h.61v-1.28h-.89c-1.21,0-.86,1.75-.78,1.83"/>
      <polygon class="cls-1" points="65.51 79.43 65.21 79.43 65.08 79.43 65.08 84.81 67.16 84.81 67.16 79.43 67.03 79.43 66.72 79.43 65.51 79.43"/>
      <polygon class="cls-1" points="67.84 85.37 65.08 85.37 65.08 87.47 69.92 87.47 69.92 79.43 67.84 79.43 67.84 85.37"/>
      <polygon class="cls-1" points="71.54 79.44 71.54 79.57 71.54 79.87 71.54 87.47 73.62 87.47 73.62 79.44 71.54 79.44"/>
      <path class="cls-1" d="M69.92,64.07h-2.08v5.95h-20.57s0-.52,0-.52h0c0-.7-.26-1.34-.74-1.85-.53-.57-1.29-.83-2.19-.83h-1.7v2.1h1.31c.31,0,.54.02.59.03h0s.02,0,.02,0c.17.03.27.08.37.17.19.19.25.35.25.57v.34h-2.54v2.09h27.28v-8.04Z"/>
      <polygon class="cls-1" points="73.19 72.12 73.49 72.12 73.62 72.12 73.62 64.07 71.54 64.07 71.54 64.2 71.54 72.12 71.97 72.12 73.19 72.12"/>
      <path class="cls-1" d="M38.67,74.64c.8,0,1.49-.29,1.91-.87.3-.42.42-.96.42-1.6v-5.35h-1.89c-.77,0-1.46.35-1.95.98-.25.3-.41.66-.49,1.05-.04.25-.06.59-.06,1.06v2.2h2.24v.05h0c0,.22-.06.34-.07.35h0s0,0,0,0c-.02.02-.03.03-.11.04-.01,0-.13,0-.31,0h-1.75v2.07h2.06ZM38.39,69.74c0-.45.08-.74.21-.86.17-.18.36-.26.59-.26h.03v1.71h-.83v-.59Z"/>
      <path class="cls-1" d="M32.89,70.03H14.38v-3.2s-2.2,0-2.2,0c-1.67,0-2.18.21-2.68.66-.61.53-.91,1.31-.91,2.21h0v2.87H2.08v-4.52H0v5.07c0,.38.09.76.33,1.05.24.29.63.47,1.18.47h9.16v-4.94c0-.58.45-.77.68-.77h.94v3.2h22.68v-8.04h-2.09v5.95Z"/>
      <path class="cls-1" d="M33.45,84.15h0s0-.02,0-.02c-.45-.5-1.12-.72-1.93-.72h-2.12v1.96h-13.12s-1.89,0-1.89,0v-3.2s-2.2,0-2.2,0c-1.67,0-2.18.21-2.68.66-.61.53-.91,1.31-.91,2.21h0v2.87H2.09v-4.52H0v5.07c0,.38.09.76.33,1.05.24.29.64.47,1.18.47h9.16v-4.94c0-.58.45-.77.68-.77h.94v3.21h17.11c.03.15.1.28.17.35.19.19.57.34,1.01.34h3.42v-2.69c0-.48-.21-.93-.56-1.32M32.23,86.35h-1.07v-1.21h.03c.44,0,.72.1.85.27.12.15.19.36.19.64v.31Z"/>
      <path class="cls-1" d="M6.31,90.26c-.51,0-.92.41-.92.92s.41.92.92.92.92-.41.92-.92-.41-.92-.92-.92"/>
      <path class="cls-1" d="M4.37,90.26c-.51,0-.92.41-.92.92s.41.92.92.92.92-.41.92-.92-.41-.92-.92-.92"/>
      <path class="cls-1" d="M7.27,75.91c0-.51-.41-.92-.92-.92s-.92.41-.92.92.41.92.92.92.92-.41.92-.92"/>
      <path class="cls-1" d="M5.32,75.91c0-.51-.41-.92-.92-.92s-.92.41-.92.92.41.92.92.92.92-.41.92-.92"/>
    </g>
  </g>
</svg>