<?xml version="1.0" encoding="UTF-8"?>
<svg id="Layer_2" data-name="Layer 2" xmlns="http://www.w3.org/2000/svg" viewBox="0 0 148.13 166.1">
  <defs>
    <style>
      .cls-1 {
        fill: #a19060;
      }

      .cls-2 {
        fill: #00493c;
      }

      .cls-3 {
        fill: #8e1537;
      }
    </style>
  </defs>
  <g id="Layer_1-2" data-name="Layer 1">
    <g>
      <path class="cls-2" d="M35.7,141.64c.32,0,.57-.26.57-.58s-.26-.57-.57-.57-.57.25-.57.55c0,.35.25.59.57.59"/>
      <path class="cls-2" d="M37.49,141.64c.32,0,.57-.26.57-.58s-.26-.57-.57-.57-.57.25-.57.55c0,.35.25.59.57.59"/>
      <path class="cls-2" d="M36.73,143.51c-1.49,0-2.6.97-2.6,2.3,0,.71.24,1.29.65,1.7h-6.17c.29-.52.21-1.24.21-1.56,0-1.36-1.31-2.64-3.19-2.28-2.17.41-3.11,2.14-3.55,3.22l.16-5.02c0-.67.17-.87.15-1.01l-1.25.62c.16.17.18.26.18.85v5.18h-5.14c-.44,0-1.04-.36-1.12-1.01v-1.56c0-.42.14-1.19.18-1.27h-1.28c.04.07.18.84.18,1.27v4.14c-.01.3-.09.57-.21.82-.23.4-.63.79-1.52.79-.35,0-.75-.07-1.11-.3v.38c.68.4,1.01.49,1.59.49,1.22,0,2.16-.9,2.16-2.05v-1.75c.29.35.63.48.93.55.18.05.36.06.52.06h20.56c1.16,0,1.64-.96,1.64-1.52v-1.62c0-.89-.41-1.43-2-1.43M27.28,147.51h-5.2c.44-.95,1.58-2.87,3.41-3.19,1.88-.32,2.41.89,2.41,1.79,0,.44.1,1.36-.62,1.4M37.81,146.12c0,1.02-.33,1.39-1.05,1.39-.84,0-1.65-.8-1.65-1.93,0-1.01.78-1.76,1.63-1.76,1.14,0,1.08.94,1.08,2.3"/>
      <path class="cls-2" d="M43.83,141.64c.31,0,.57-.26.57-.58s-.26-.57-.57-.57-.57.25-.57.55c0,.35.26.59.57.59"/>
      <path class="cls-2" d="M45.62,141.64c.32,0,.57-.26.57-.58s-.25-.57-.57-.57-.57.25-.57.55c0,.35.25.59.57.59"/>
      <path class="cls-2" d="M69.16,144.33c.18.14.17.05.17.6v1.27c0,.8.01,1.49-.71,1.49-.25,0-.9-.42-1.14-.9v-1.96c0-.54.09-.78.15-.92v-.09l-1.25.62.02.05c.18.14.17.05.17.6v1.11c0,.8.01,1.49-.7,1.49-.26,0-.91-.42-1.15-.9,0-.12.02-.09.02-1.76,0-.54.09-.78.15-.92v-.09l-1.25.61.02.04c.18.14.17.05.17.61v.61c0,.87,0,1.6-.84,1.6h-3.01c-.44,0-1.04-.36-1.12-1.01v-1.82c0-.55.09-.78.15-.92v-.09l-1.25.62.02.04c.18.14.17.05.17.6v1.27c0,.8.01,1.49-.71,1.49-.26,0-.9-.42-1.15-.9v-1.96c0-.54.09-.78.15-.92v-.09l-1.25.62v.05c.19.14.18.05.18.6v1.11c0,.8.01,1.49-.71,1.49-.25,0-.9-.42-1.14-.9,0-.12.01-.09.01-1.76,0-.54.09-.78.15-.92v-.09l-1.25.61.02.04c.18.14.16.05.16.61v.61c0,.87-.08,1.6-.84,1.6h-4.3c-.72,0-.86-.45-.86-1.17v-2.67c-.07-.02-.15-.02-.25,0-.17.02-.38.03-.62.07-2.04.41-3.05,1.29-3.05,2.16,0,.53.26,1.2,1.29,1.27.53.04,1.23-.1,1.71-.54,0,.53.17,1.44,1.49,1.44h5c.77,0,1.1-.41,1.24-.83.75.87,1.26.95,1.55.95.68,0,1.13-.3,1.26-.9.72.81,1.22.9,1.5.9.68,0,1.08-.27,1.24-.82.28.36.66.54.98.62.18.05.36.06.56.08h3.08c.77,0,1.1-.41,1.23-.83.75.87,1.26.95,1.55.95.68,0,1.13-.3,1.26-.9.73.81,1.22.9,1.51.9.84,0,1.31-.44,1.31-1.33v-2.19c0-.55.09-.78.15-.92v-.09l-1.25.62.02.04ZM45.5,146.2c-.29.4-.77.54-1.11.54-.74,0-.92-.63-.87-.99.17-.92,1.07-1.53,1.98-1.61v2.06Z"/>
      <path class="cls-2" d="M74.91,142.27v-.33c-.36.16-.45.19-.7.19-.56,0-.72-.48-.68-.95.05-.35.27-.56.53-.51.2,0,.33.1.42.32l.48-.12c-.14-.24-.47-.42-.82-.46-.65-.11-1.23.28-1.28.93-.05.32.12.64.3.78-.3,0-.51,0-.57-.12l-.04-.02-.3.52h1.92c.35,0,.57-.13.74-.24"/>
      <path class="cls-2" d="M83.64,143.88c-1.38,0-2.46.98-2.46,2.24v.1c-.02.72-.18,1.28-.84,1.28h-4.6v-2.38c0-1.14-1.28-1.55-2-1.55-1.49,0-2.59.98-2.59,2.26s.89,2.24,2.03,2.24h1.64v1c-.02.3-.09.57-.21.82-.23.4-.63.79-1.52.79-.35,0-.75-.07-1.11-.3v.38c.68.4,1.01.49,1.6.49,1.22,0,2.17-.9,2.17-2.05v-1.14h5.03c.46,0,.76-.14.96-.36.41.4.97.66,1.67.66s1.35-.25,1.85-.66c.45-.39.68-.92.68-1.6,0-1.34-.9-2.24-2.29-2.24M74.82,147.51h-1.04c-1.02,0-1.53-.8-1.53-1.9,0-.96.65-1.75,1.49-1.75,1.11,0,1.08.92,1.08,2.29v1.35ZM83.63,148.08c-.83,0-1.43-.92-1.43-2.18,0-1.1.48-1.75,1.31-1.75s1.4.83,1.4,2.09c0,1.15-.48,1.83-1.28,1.83"/>
      <path class="cls-2" d="M92.31,152.9c-.3,0-.54.27-.54.57,0,.32.23.59.54.59s.57-.27.57-.59-.27-.57-.57-.57"/>
      <path class="cls-2" d="M94.09,152.9c-.3,0-.57.27-.57.57,0,.32.23.59.57.59.3,0,.55-.27.55-.59s-.24-.57-.55-.57"/>
      <path class="cls-2" d="M103.9,141.64c.31,0,.57-.26.57-.58s-.26-.57-.57-.57-.57.25-.57.55c0,.35.26.59.57.59"/>
      <path class="cls-2" d="M104.06,143.51c-1.49,0-2.6.97-2.6,2.3,0,.71.23,1.29.65,1.7h-5.1c-.26-.66-1.06-1.17-1.97-1.65v.57c1.37.73,1.78,2.05.59,3.28-.62.65-1.19.75-1.75.75-2.09,0-3.67-2.15-3.43-2.89.11-.26.24-.42.67-.66l-.1-.19c-.71.31-1.22.73-1.32,1.2-.18.9,1.74,3.34,4.18,3.34.71,0,1.59-.74,2.16-1.31.56-.58,1.06-1.29,1.07-1.87h7.3c1.16,0,1.64-.96,1.64-1.52v-1.62c0-.89-.41-1.43-2-1.43M105.14,146.12c0,1.02-.32,1.39-1.05,1.39-.83,0-1.65-.8-1.65-1.93,0-1.01.78-1.76,1.62-1.76,1.15,0,1.08.94,1.08,2.3"/>
      <path class="cls-2" d="M124.26,141.64c.31,0,.57-.26.57-.58s-.26-.57-.57-.57-.57.25-.57.55c0,.35.26.59.57.59"/>
      <path class="cls-2" d="M135.19,147.47c-1.26-.16-1.64-1.11-1.52-2.22.11-.91.74-1.35,1.51-1.24.41.06.74.25.93.67l.75-.24c-.23-.36-.8-.66-1.51-.77-1.37-.2-2.67.69-2.75,1.96-.06.79.32,1.52.84,1.87h-6.1c.29-.52.22-1.24.22-1.56,0-1.36-1.31-2.64-3.19-2.28-2.16.41-3.11,2.14-3.55,3.22.07-2.05.22-1.95.27-2.11v-.09l-1.25.62.02.05c.16.12.21.25.21.78v1.37h-5.65v-2.38c0-1.14-1.28-1.55-2-1.55-1.49,0-2.59.98-2.59,2.26s.89,2.24,2.03,2.24h1.63v1c-.01.3-.09.57-.21.82-.23.4-.63.79-1.52.79-.35,0-.76-.07-1.12-.3l.02.38c.66.4.99.49,1.58.49,1.22,0,2.16-.9,2.16-2.05v-1.14h20.76c.47.01.89-.05,1.42-.27l-.03-.5c-.59.2-.96.23-1.37.16M113.49,147.51h-1.03c-1.03,0-1.54-.8-1.54-1.9,0-.96.64-1.75,1.49-1.75,1.11,0,1.08.92,1.08,2.29v1.35ZM125.96,147.51h-5.14c.43-.95,1.57-2.87,3.41-3.19,1.88-.32,2.41.89,2.41,1.79,0,.44.1,1.4-.68,1.4"/>
      <path class="cls-2" d="M10.96,157.71v-.32c.34.02.68.02.99.02s.63,0,.92-.02c.29.66.56,1.24.8,1.73l1.87,3.86,1.68-3.54c.46-.96.77-1.64.93-2.05.35.02.64.02.88.02.22,0,.58,0,1.07-.02v.32c-.39,0-.63.02-.72.05-.08.02-.14.06-.17.11-.04.07-.07.23-.07.48,0,.07-.01.54-.02,1.4v2.28c0,.45,0,.89.02,1.31,0,.31.03.5.07.56.04.06.1.1.18.13.08.03.32.04.71.05v.32c-.67-.03-1.13-.05-1.41-.05-.22,0-.71.02-1.46.05v-.32c.39,0,.63-.02.72-.05.08-.03.14-.07.17-.12.04-.06.07-.23.07-.48,0-.06.01-.53.02-1.4v-3.61l-1.7,3.56c-.27.55-.48,1-.63,1.34-.11.24-.27.64-.5,1.17h-.19c-.04-.12-.08-.23-.12-.3l-.33-.72-2.36-4.89v3.45c0,.45,0,.89.02,1.31.01.31.04.5.07.56.04.06.1.1.18.13.09.03.32.04.71.05v.32l-1.19-.03-1.23.03v-.32c.39,0,.62-.02.71-.05.09-.03.14-.07.18-.12.04-.06.06-.23.07-.48,0-.06.01-.53.02-1.4v-2.28c0-.45,0-.89-.01-1.31,0-.31-.03-.5-.07-.55-.04-.06-.1-.11-.18-.13-.08-.03-.32-.04-.71-.05"/>
      <path class="cls-2" d="M24.49,163.64l-.16.35c-.23.14-.39.24-.5.28-.16.07-.33.13-.53.18-.2.05-.41.07-.63.07-.43,0-.83-.09-1.18-.27-.35-.18-.63-.45-.82-.81-.2-.36-.29-.78-.29-1.27,0-.38.05-.72.15-1.02.1-.3.22-.53.35-.68.1-.1.24-.22.44-.36.2-.14.4-.25.6-.33.26-.1.54-.16.84-.16.37,0,.7.08,1,.25.3.17.52.4.65.68.14.3.21.62.21.99,0,.09,0,.2-.03.33-.24.05-.45.08-.63.09-.36.02-.71.04-1.07.04h-1.58c0,.47.09.85.24,1.15.16.29.37.51.64.64.28.14.56.21.86.21.2,0,.4-.03.6-.1.2-.06.45-.18.74-.35l.08.08ZM21.33,161.62c.09.01.27.02.52.03.49.02.83.03,1.01.03.44,0,.73,0,.86-.03,0-.08,0-.13,0-.18,0-.52-.11-.91-.32-1.14-.21-.25-.49-.37-.84-.37-.37,0-.67.14-.9.4-.23.27-.34.69-.35,1.26"/>
      <path class="cls-2" d="M24.97,164.4v-.28h.47c.07,0,.12-.02.16-.05.04-.02.07-.04.09-.08.04-.06.06-.18.07-.35,0-.04,0-.51.03-1.41v-.59c0-.26,0-.55-.02-.85,0-.19-.02-.31-.04-.34-.02-.03-.06-.07-.11-.08-.05-.02-.27-.03-.64-.03v-.28c.67-.09,1.15-.21,1.46-.36.07-.03.11-.05.13-.05s.04.01.05.03c.01.01.02.04.02.07,0,.02,0,.05,0,.08-.01.16-.02.39-.03.71l.65-.59c.08-.08.13-.12.15-.13.08-.04.18-.08.33-.12.14-.03.29-.06.44-.06.31,0,.6.08.84.23.25.15.44.38.57.69l.54-.5c.12-.12.21-.18.25-.21.09-.05.21-.09.37-.14.16-.05.32-.07.47-.07.37,0,.69.1.94.3.25.21.42.43.49.69.05.17.07.53.07,1.08v1.19c.02.4.02.64.02.7,0,.16.03.29.06.36.01.03.03.05.06.07.03.02.07.04.12.05.02,0,.2,0,.55.01v.28c-.41-.02-.7-.03-.85-.03s-.43,0-.87.03l.04-1.36v-.53s.01-.43.01-.43c0-.55-.03-.92-.08-1.13-.06-.2-.18-.36-.36-.48-.18-.13-.39-.19-.63-.19-.27,0-.52.08-.74.24-.16.12-.27.26-.32.43-.05.16-.08.48-.08.96v1.01c.02.4.02.64.02.7,0,.16.03.29.06.36.02.03.03.05.06.07.03.02.07.04.12.05.02,0,.21,0,.55.01v.28c-.48-.02-.87-.03-1.16-.03-.23,0-.67,0-1.29.03v-.28h.47c.08,0,.13-.02.17-.05.04-.02.07-.04.09-.08.04-.06.06-.18.06-.35,0-.04.01-.51.03-1.41v-.38c0-.42-.03-.73-.1-.93-.06-.19-.18-.35-.34-.47-.17-.11-.36-.18-.59-.18-.2,0-.38.04-.56.13-.18.08-.31.19-.41.31-.1.12-.16.26-.17.4-.03.23-.05.49-.05.82v.3c.02.85.02,1.32.02,1.39,0,.16.03.29.06.36.01.03.03.05.06.07.03.02.07.04.12.05.02,0,.2,0,.55.01v.28c-.45-.02-.84-.03-1.16-.03-.28,0-.71,0-1.28.03"/>
      <path class="cls-2" d="M34.13,164.42c.04-.42.06-.68.06-.78.02-.72.03-1.13.03-1.26v-2.2c0-.55,0-1.11-.02-1.7-.01-.4-.03-.62-.05-.66-.02-.03-.05-.05-.08-.06-.05-.03-.28-.03-.68-.03v-.3c.74-.09,1.26-.2,1.55-.35.05-.01.08-.03.1-.03s.04,0,.05.02c.01.01.02.04.02.06,0,.02,0,.06,0,.1v.16c-.02.59-.03,1.09-.03,1.51v.77s0,.97,0,.97l.68-.66c.09-.08.24-.16.44-.22.21-.07.42-.11.65-.11.36,0,.68.09.96.26.28.17.49.41.65.72.15.31.22.65.22,1.02,0,.3-.04.56-.13.83-.09.26-.2.49-.33.69-.1.16-.18.26-.25.32l-.72.52c-.29.22-.52.36-.69.43-.16.06-.37.09-.63.09-.22,0-.43-.03-.61-.09-.19-.06-.38-.17-.6-.31l-.4.37-.17-.06ZM35.05,161.24v1.85c0,.17,0,.27.03.32.01.05.07.11.16.18.14.11.3.2.48.27.18.07.37.1.58.1.48,0,.84-.19,1.1-.55.26-.37.39-.82.39-1.37,0-.38-.06-.71-.18-.97-.12-.26-.29-.45-.5-.58-.22-.13-.46-.2-.72-.2-.31,0-.59.09-.84.27-.25.18-.41.41-.49.67"/>
      <path class="cls-2" d="M43.24,163.64l-.16.35c-.23.14-.39.24-.5.28-.15.07-.33.13-.53.18-.2.05-.41.07-.63.07-.43,0-.83-.09-1.18-.27-.35-.18-.63-.45-.82-.81-.19-.36-.29-.78-.29-1.27,0-.38.05-.72.16-1.02.1-.3.22-.53.35-.68.09-.1.24-.22.44-.36.2-.14.4-.25.6-.33.26-.1.54-.16.84-.16.37,0,.71.08,1,.25.3.17.52.4.65.68.14.3.21.62.21.99,0,.09,0,.2-.02.33-.24.05-.45.08-.64.09-.36.02-.71.04-1.06.04h-1.58c0,.47.09.85.24,1.15.16.29.37.51.65.64.27.14.56.21.85.21.2,0,.4-.03.6-.1.2-.06.44-.18.74-.35l.08.08ZM40.08,161.62c.09.01.26.02.52.03.49.02.83.03,1.01.03.44,0,.73,0,.86-.03,0-.08,0-.13,0-.18,0-.52-.1-.91-.32-1.14-.21-.25-.49-.37-.84-.37-.37,0-.67.14-.9.4-.23.27-.34.69-.34,1.26"/>
      <path class="cls-2" d="M43.75,164.4v-.28c.37,0,.57-.01.61-.02.05-.01.1-.03.12-.05.03-.02.05-.06.07-.09.03-.07.05-.19.06-.36.02-.87.02-1.34.02-1.37v-.59c0-.26,0-.55-.01-.85,0-.19-.02-.31-.04-.34-.02-.03-.06-.07-.11-.08-.06-.02-.27-.03-.64-.03v-.28c.66-.09,1.15-.21,1.46-.36.07-.03.11-.05.13-.05s.04.01.05.03c.01.01.02.04.02.07,0,.02,0,.05,0,.08-.02.2-.02.51-.03.94.15-.17.28-.34.41-.51.12-.17.21-.27.27-.32.1-.08.21-.16.34-.21.13-.05.26-.08.4-.08s.28.04.41.09l.03.08c-.05.44-.08.82-.08,1.15h-.23c-.07-.16-.16-.28-.26-.35-.1-.07-.22-.1-.38-.1-.26,0-.47.1-.65.31-.18.21-.26.52-.26.94v.5c0,.22,0,.62.02,1.19,0,.2.01.33.02.39.02.05.03.1.05.12.02.02.06.05.1.06.1.03.37.06.8.09v.28c-.58-.02-1.07-.03-1.48-.03s-.83,0-1.22.03"/>
      <path class="cls-2" d="M49.96,162.13c0-.74.23-1.34.7-1.8.47-.47,1.07-.7,1.8-.7.69,0,1.26.22,1.69.65.43.43.65,1,.65,1.68,0,.48-.11.92-.34,1.32-.22.4-.54.71-.95.93-.41.23-.86.34-1.35.34-.38,0-.7-.06-.97-.19-.26-.13-.48-.29-.64-.49-.16-.19-.29-.39-.38-.6-.15-.36-.23-.74-.23-1.15M50.9,161.77c0,.4.07.82.2,1.23.13.42.33.73.59.92.25.2.53.29.83.29.38,0,.7-.15.96-.45.26-.31.39-.77.39-1.4,0-.52-.08-.97-.23-1.36-.15-.38-.35-.65-.58-.8-.24-.16-.5-.24-.79-.24-.4,0-.73.15-.98.44-.25.29-.38.75-.38,1.37"/>
      <path class="cls-2" d="M55.32,160.55v-.2c.26-.11.48-.22.68-.34v-.29c0-.42.03-.73.08-.9.06-.18.13-.33.23-.47.15-.21.38-.47.7-.78.21-.21.37-.34.47-.39.14-.07.29-.11.47-.11.13,0,.26.02.39.06l.02.82-.12.04c-.1-.08-.2-.15-.3-.19-.1-.04-.22-.06-.36-.06-.18,0-.32.04-.43.11-.11.07-.19.18-.24.31-.05.14-.08.41-.08.83v1.02h.52c.26,0,.52,0,.77-.03l.05.03-.1.52c-.28-.01-.5-.02-.63-.02-.14,0-.35,0-.62.02v1.76c0,.22,0,.62.03,1.19,0,.2,0,.33.02.39.01.05.03.09.05.12.02.02.06.05.11.06.1.03.37.06.8.09v.28c-.77-.02-1.24-.03-1.4-.03-.16,0-.58,0-1.27.03v-.28h.47c.07,0,.12-.02.16-.05.04-.02.07-.04.09-.08.04-.06.06-.18.07-.35,0-.04,0-.51.02-1.41v-1.72l-.68.03Z"/>
      <path class="cls-2" d="M63.1,165.64v-.32c.54-.42.97-.68,1.28-.78-.83,0-1.5-.14-2.02-.42-.51-.27-.92-.7-1.23-1.28-.31-.59-.47-1.24-.47-1.96,0-1.06.35-1.93,1.05-2.61.7-.68,1.62-1.02,2.76-1.02.57,0,1.07.08,1.52.24.45.16.83.38,1.13.67.29.28.52.59.68.92.22.46.32.99.32,1.58,0,.7-.15,1.34-.44,1.9-.29.57-.72,1.03-1.29,1.38-.56.35-1.2.55-1.91.6.18.02.34.05.48.09.14.03.35.1.61.21.6.24,1.04.4,1.31.46.27.07.51.11.7.11.13,0,.31-.04.52-.11v.25c-.06.05-.14.1-.23.15-.18.1-.29.17-.36.22-.07.05-.14.1-.2.16-.04,0-.15-.02-.32-.03-.17-.03-.34-.06-.51-.11-.18-.05-.49-.14-.93-.3-.84-.28-1.35-.43-1.54-.43-.07,0-.13.01-.2.03-.08.03-.16.07-.25.12l-.46.27ZM61.7,160.64c0,.32.04.67.13,1.04.09.37.21.7.36.99.15.28.33.53.55.75.22.21.48.38.77.5.29.12.63.18,1.01.18.53,0,.99-.12,1.38-.37.39-.24.69-.6.89-1.08.2-.48.3-1.03.3-1.64,0-.5-.07-.97-.2-1.41-.14-.43-.32-.78-.56-1.06-.23-.28-.52-.49-.88-.64-.35-.16-.75-.23-1.18-.23-.79,0-1.42.24-1.88.75-.46.49-.69,1.23-.69,2.22"/>
      <path class="cls-2" d="M69.24,161.02l-.26-.07c0-.07,0-.18,0-.31s0-.25,0-.33c.42-.28.76-.45,1.03-.55.2-.07.43-.11.69-.11.38,0,.69.08.95.21.26.15.45.35.58.61.08.18.13.43.13.76l-.02.9v1.47c0,.16.01.27.04.35.02.05.05.09.09.1.03.02.1.03.21.04l.32.03v.28c-.27-.02-.51-.03-.71-.03s-.46.01-.79.03l.02-.87c-.67.51-1.07.79-1.19.85-.13.07-.28.1-.48.1-.4,0-.71-.1-.93-.32-.23-.21-.33-.49-.33-.84,0-.23.04-.43.12-.62.08-.19.17-.33.28-.45.11-.11.22-.19.33-.24.19-.09.5-.19.93-.28.43-.11.86-.18,1.28-.23,0-.31-.04-.55-.12-.73-.08-.17-.21-.32-.4-.43-.18-.11-.42-.17-.68-.17-.19,0-.36.03-.51.08-.14.05-.23.09-.27.13l-.09.18c-.09.2-.16.35-.2.47M71.51,161.8c-.43.07-.8.15-1.1.24-.3.09-.51.18-.64.28-.08.06-.14.14-.2.25-.09.17-.13.35-.13.56,0,.24.07.43.2.57.14.13.32.2.56.2.22,0,.44-.07.65-.19.21-.13.43-.31.64-.57v-1.33Z"/>
      <path class="cls-2" d="M73.25,160.53v-.2c.32-.12.57-.24.75-.34v-1.5c.34-.12.62-.24.83-.38l.12.09c-.03.27-.08.87-.12,1.81.26,0,.42,0,.48,0,.03,0,.2,0,.5-.01.17,0,.3-.01.39-.02l.03.04-.1.46c-.21,0-.4,0-.57,0s-.42,0-.73,0l-.02,2.01c-.01.49,0,.78,0,.88.01.09.05.18.09.25.05.07.11.13.18.17.07.04.2.08.38.1.13,0,.24,0,.32-.02.09,0,.19-.04.32-.09l.06.2c-.16.12-.3.24-.45.37-.13.05-.24.08-.35.09-.11.02-.24.02-.38.02-.17,0-.31-.02-.41-.05-.1-.04-.2-.1-.28-.17-.09-.07-.16-.16-.21-.27-.06-.11-.1-.28-.11-.51,0-.22.01-.47.02-.74,0-.05,0-.11,0-.17v-2.05h-.2c-.16,0-.35,0-.55.02"/>
      <path class="cls-2" d="M77.18,161.02l-.26-.07c0-.07,0-.18,0-.31s0-.25,0-.33c.42-.28.76-.45,1.03-.55.2-.07.43-.11.69-.11.37,0,.69.08.95.21.25.15.44.35.57.61.09.18.13.43.13.76l-.02.9v1.47c0,.16.01.27.04.35.02.05.05.09.09.1.03.02.1.03.2.04l.32.03v.28c-.27-.02-.5-.03-.71-.03s-.46.01-.79.03l.03-.87c-.67.51-1.07.79-1.19.85-.13.07-.28.1-.47.1-.4,0-.71-.1-.93-.32-.23-.21-.34-.49-.34-.84,0-.23.04-.43.12-.62.08-.19.17-.33.28-.45.11-.11.22-.19.33-.24.19-.09.5-.19.93-.28.43-.11.86-.18,1.27-.23,0-.31-.03-.55-.11-.73-.08-.17-.21-.32-.4-.43-.19-.11-.41-.17-.69-.17-.2,0-.36.03-.51.08-.15.05-.24.09-.27.13l-.09.18c-.09.2-.16.35-.2.47M79.45,161.8c-.42.07-.79.15-1.09.24-.3.09-.52.18-.64.28-.08.06-.14.14-.2.25-.09.17-.13.35-.13.56,0,.24.07.43.2.57.14.13.32.2.56.2.22,0,.44-.07.65-.19.21-.13.43-.31.64-.57v-1.33Z"/>
      <path class="cls-2" d="M81.2,164.4v-.28c.38,0,.58-.01.61-.02.05-.01.1-.03.12-.05.03-.02.05-.06.07-.09.03-.07.06-.19.06-.36.02-.87.03-1.34.03-1.37v-.59c0-.26,0-.55-.01-.85,0-.19-.02-.31-.04-.34-.02-.03-.06-.07-.12-.08-.05-.02-.27-.03-.64-.03v-.28c.66-.09,1.15-.21,1.46-.36.07-.03.11-.05.13-.05.02,0,.04.01.05.03.01.01.02.04.02.07,0,.02,0,.05,0,.08-.01.2-.02.51-.02.94.14-.17.28-.34.41-.51.12-.17.22-.27.27-.32.1-.08.22-.16.34-.21.13-.05.26-.08.4-.08s.28.04.41.09l.03.08c-.05.44-.07.82-.08,1.15h-.22c-.08-.16-.16-.28-.27-.35-.1-.07-.22-.1-.38-.1-.26,0-.47.1-.65.31-.18.21-.26.52-.26.94v.5c0,.22,0,.62.02,1.19,0,.2,0,.33.02.39.01.05.03.1.05.12.02.02.06.05.11.06.1.03.37.06.8.09v.28c-.58-.02-1.07-.03-1.48-.03s-.83,0-1.23.03"/>
      <path class="cls-2" d="M87.3,157.71v-.32c.5.03.92.03,1.27.03.25,0,.69,0,1.33-.02.64-.02,1.07-.03,1.29-.03.24,0,.46,0,.66,0,.2,0,.38.02.54.03-.09.28-.13.78-.16,1.49h-.31c-.03-.4-.07-.7-.12-.92-.17-.05-.38-.1-.63-.13-.26-.02-.55-.04-.88-.04s-.68.02-1.03.06c-.02.18-.04.34-.04.5,0,.09,0,.47-.02,1.13v1.09c.37,0,.69.01.98.01.41,0,.74-.02,1-.06.09-.02.16-.04.18-.09.03-.04.06-.17.09-.41l.04-.3h.31l-.03,1.12.03,1.21h-.31l-.03-.31c-.03-.36-.06-.56-.08-.58-.03-.05-.09-.08-.19-.11-.18-.04-.61-.06-1.27-.06-.23,0-.48,0-.72.02v1c0,.45,0,.88.02,1.31,0,.31.03.5.06.56.04.06.1.1.19.13.09.03.32.04.71.05v.32c-.42-.02-.83-.03-1.25-.03-.37,0-.91,0-1.63.03v-.32c.39,0,.62-.02.7-.05.09-.03.14-.07.18-.12.04-.06.07-.23.08-.48,0-.06,0-.53.02-1.4v-2.28c0-.45,0-.89-.02-1.31,0-.31-.03-.5-.07-.55-.03-.06-.1-.11-.18-.13-.08-.03-.31-.04-.71-.05"/>
      <path class="cls-2" d="M92.83,162.13c0-.74.24-1.34.71-1.8.47-.47,1.07-.7,1.81-.7.69,0,1.25.22,1.69.65.43.43.65,1,.65,1.68,0,.48-.12.92-.33,1.32-.22.4-.55.71-.95.93-.4.23-.86.34-1.35.34-.38,0-.7-.06-.96-.19-.27-.13-.48-.29-.65-.49-.17-.19-.29-.39-.38-.6-.15-.36-.23-.74-.23-1.15M93.77,161.77c0,.4.06.82.2,1.23.14.42.33.73.59.92.25.2.53.29.83.29.38,0,.7-.15.96-.45.26-.31.38-.77.38-1.4,0-.52-.08-.97-.23-1.36-.15-.38-.34-.65-.58-.8-.24-.16-.5-.24-.78-.24-.41,0-.74.15-.99.44-.25.29-.38.75-.38,1.37"/>
      <path class="cls-2" d="M103.65,164.12v.28c-.43-.02-.76-.03-.98-.03-.24,0-.49.01-.74.03.02-.27.03-.57.05-.9-.2.16-.43.37-.71.65-.05.06-.12.1-.18.14-.14.08-.28.14-.43.17-.14.03-.31.05-.5.05-.27,0-.49-.04-.67-.11-.18-.07-.33-.18-.46-.33-.1-.11-.17-.26-.22-.43-.05-.17-.08-.38-.08-.62,0-.12,0-.22,0-.33.01-.1.01-.2.01-.3v-.84c0-.09,0-.3-.01-.65,0-.22-.02-.35-.04-.42-.01-.03-.04-.06-.06-.08-.05-.03-.14-.05-.26-.05-.18,0-.32,0-.43,0v-.27c.71-.08,1.22-.21,1.54-.39.05-.03.09-.04.13-.04.02,0,.04,0,.05.03.02.02.03.04.03.07s0,.06,0,.1c-.02.11-.02.31-.03.61-.03.55-.04.92-.04,1.11v.96c0,.4.03.69.08.85.05.16.16.29.31.39.16.1.35.15.58.15.15,0,.32-.03.47-.08.16-.05.3-.13.42-.23.09-.07.19-.18.28-.31.07-.1.12-.17.15-.22.02-.05.04-.12.04-.23.01-.29.02-.58.02-.86v-.41c0-.09,0-.3-.02-.65,0-.22-.02-.35-.04-.42-.01-.03-.04-.06-.06-.08-.05-.03-.14-.05-.26-.05-.18,0-.33,0-.43,0v-.27c.7-.08,1.22-.21,1.53-.39.05-.03.09-.04.13-.04.02,0,.04,0,.05.03.02.02.03.04.03.07s0,.06,0,.1c-.01.11-.02.32-.03.63-.02.53-.03.9-.03,1.09v1.36c.03.4.03.64.04.7,0,.16.02.29.05.36.02.03.04.05.07.07.02.02.06.04.11.05.03,0,.2.01.55.01"/>
      <path class="cls-2" d="M103.84,164.4v-.28h.47c.08,0,.13-.02.17-.05.04-.02.07-.04.09-.08.04-.06.06-.18.07-.35,0-.04.01-.51.02-1.41v-.59c0-.26,0-.55,0-.85-.01-.19-.03-.31-.05-.34-.03-.03-.07-.07-.12-.08-.05-.02-.27-.03-.64-.03v-.28c.67-.09,1.15-.21,1.46-.36.06-.03.1-.05.13-.05.02,0,.04.01.05.03.01.01.02.04.02.07,0,.02,0,.05,0,.08-.01.12-.02.37-.03.75l.92-.79c.27-.1.52-.15.76-.15.27,0,.52.06.76.17.24.11.42.24.54.41.12.16.2.38.25.62.02.15.03.56.03,1.24v.87c0,.43.01.73.03.87.02.1.04.17.08.21.03.04.09.06.16.07h.52v.29c-.32-.02-.59-.03-.8-.03-.19,0-.49,0-.92.03.05-.81.07-1.32.07-1.54v-.83c0-.52-.02-.86-.05-1.02-.06-.22-.19-.4-.38-.53-.2-.14-.43-.2-.72-.2-.24,0-.47.05-.67.18-.21.11-.35.25-.44.4-.09.16-.13.41-.13.78v.59c0,.85.02,1.32.02,1.39,0,.16.03.29.06.36,0,.03.03.05.06.07.03.02.07.04.13.05.02,0,.2,0,.55.01v.28c-.4-.02-.76-.03-1.09-.03-.28,0-.73,0-1.35.03"/>
      <path class="cls-2" d="M112.73,157.7v-.28c.36-.04.67-.09.92-.14.25-.06.5-.12.74-.2l.07.04c-.02.28-.03.82-.05,1.62l-.02.79v3.09c0,.33,0,.63.02.87.02.24.03.39.06.44.03.05.08.09.15.11.07.03.28.06.62.09v.27c-.41-.02-.68-.03-.85-.03-.14,0-.43.01-.87.03.01-.23.02-.53.03-.92-.13.1-.31.24-.53.43-.22.2-.4.35-.52.47-.27.07-.5.1-.7.1-.37,0-.71-.09-1.02-.27-.31-.18-.56-.45-.73-.81-.17-.35-.25-.74-.25-1.18,0-.32.05-.64.16-.93.1-.3.23-.52.39-.69.09-.09.29-.23.61-.42.31-.19.57-.32.76-.41.2-.09.41-.13.64-.13.21,0,.42.03.61.08.2.05.39.13.58.23v-1.3c0-.46-.02-.73-.06-.84-.01-.03-.04-.06-.07-.08-.07-.03-.29-.05-.68-.05M113.55,160.8c-.23-.25-.46-.42-.71-.55-.24-.11-.49-.17-.72-.17-.27,0-.52.07-.75.2-.23.14-.4.35-.52.63-.12.28-.18.62-.18,1.01,0,.6.15,1.06.45,1.4.3.35.65.51,1.08.51.22,0,.41-.05.59-.14.18-.09.33-.23.46-.41.13-.18.22-.37.25-.59.02-.15.04-.51.04-1.08v-.84Z"/>
      <path class="cls-2" d="M116.43,161.02l-.26-.07c0-.07,0-.18,0-.31s0-.25,0-.33c.41-.28.75-.45,1.02-.55.2-.07.43-.11.69-.11.38,0,.69.08.95.21.26.15.45.35.57.61.09.18.13.43.13.76l-.02.9v1.47c0,.16.02.27.04.35.02.05.05.09.1.1.03.02.1.03.2.04l.33.03v.28c-.27-.02-.51-.03-.71-.03s-.46.01-.79.03l.03-.87c-.67.51-1.07.79-1.2.85-.12.07-.28.1-.47.1-.4,0-.71-.1-.93-.32-.22-.21-.33-.49-.33-.84,0-.23.04-.43.12-.62.08-.19.17-.33.28-.45.11-.11.22-.19.33-.24.19-.09.5-.19.93-.28.43-.11.85-.18,1.28-.23,0-.31-.04-.55-.12-.73-.08-.17-.21-.32-.4-.43-.18-.11-.41-.17-.68-.17-.19,0-.36.03-.51.08-.15.05-.24.09-.27.13l-.09.18c-.09.2-.15.35-.19.47M118.69,161.8c-.43.07-.79.15-1.09.24-.3.09-.52.18-.64.28-.08.06-.14.14-.2.25-.09.17-.13.35-.13.56,0,.24.07.43.2.57.14.13.32.2.56.2.22,0,.44-.07.66-.19.22-.13.43-.31.65-.57v-1.33Z"/>
      <path class="cls-2" d="M120.43,160.53v-.2c.31-.12.57-.24.75-.34v-1.5c.34-.12.62-.24.84-.38l.12.09c-.04.27-.08.87-.12,1.81.26,0,.42,0,.47,0,.03,0,.2,0,.51-.01.17,0,.3-.01.38-.02l.04.04-.11.46c-.2,0-.4,0-.57,0s-.41,0-.72,0l-.03,2.01c0,.49,0,.78,0,.88.02.09.05.18.09.25.04.07.11.13.18.17.07.04.2.08.37.1.14,0,.25,0,.33-.02.09,0,.19-.04.32-.09l.06.2c-.15.12-.3.24-.45.37-.13.05-.24.08-.35.09-.11.02-.23.02-.38.02-.18,0-.31-.02-.41-.05-.11-.04-.2-.1-.29-.17-.09-.07-.15-.16-.21-.27-.05-.11-.09-.28-.1-.51,0-.22,0-.47.02-.74,0-.05,0-.11,0-.17v-2.05h-.2c-.16,0-.35,0-.55.02"/>
      <path class="cls-2" d="M123.52,160.34v-.28c.64-.07,1.17-.21,1.61-.42l.11.08c-.02.7-.04,1.23-.04,1.61v.89c.01.85.02,1.32.03,1.39,0,.16.03.29.06.36.02.03.04.05.06.07.03.02.07.04.12.05.02,0,.2.01.54.01v.28c-.49-.02-.9-.03-1.19-.03-.26,0-.69.01-1.29.03v-.28h.47c.07,0,.12-.02.16-.05.04-.02.07-.05.09-.08.04-.06.06-.18.07-.35,0-.04,0-.51.03-1.41v-.87c0-.49-.02-.78-.05-.87-.02-.05-.06-.08-.11-.11-.05-.03-.27-.04-.66-.04M124.72,157.46c.15,0,.28.05.39.16.1.11.16.24.16.39s-.05.28-.16.39c-.11.11-.24.16-.39.16s-.29-.05-.39-.16c-.11-.1-.16-.23-.16-.39s.05-.28.16-.39c.11-.11.24-.16.39-.16"/>
      <path class="cls-2" d="M126.37,162.13c0-.74.23-1.34.71-1.8.47-.47,1.07-.7,1.8-.7.69,0,1.25.22,1.69.65.43.43.65,1,.65,1.68,0,.48-.11.92-.34,1.32-.22.4-.54.71-.94.93-.41.23-.86.34-1.35.34-.38,0-.71-.06-.97-.19-.26-.13-.48-.29-.64-.49-.16-.19-.29-.39-.37-.6-.16-.36-.23-.74-.23-1.15M127.3,161.77c0,.4.07.82.2,1.23.14.42.33.73.58.92.25.2.53.29.83.29.38,0,.7-.15.96-.45.26-.31.39-.77.39-1.4,0-.52-.08-.97-.23-1.36-.15-.38-.35-.65-.59-.8-.23-.16-.5-.24-.78-.24-.4,0-.73.15-.98.44-.25.29-.38.75-.38,1.37"/>
      <path class="cls-2" d="M131.49,164.4v-.28h.47c.07,0,.12-.02.17-.05.04-.02.06-.04.09-.08.04-.06.06-.18.07-.35,0-.04.01-.51.02-1.41v-.59c0-.26,0-.55-.01-.85-.01-.19-.03-.31-.05-.34-.02-.03-.06-.07-.11-.08-.05-.02-.27-.03-.64-.03v-.28c.67-.09,1.15-.21,1.46-.36.06-.03.11-.05.14-.05.02,0,.04.01.05.03.01.01.02.04.02.07,0,.02,0,.05,0,.08-.01.12-.02.37-.03.75l.92-.79c.27-.1.52-.15.76-.15.27,0,.52.06.76.17.23.11.42.24.54.41.12.16.2.38.24.62.02.15.03.56.03,1.24v.87c0,.43.01.73.03.87.02.1.04.17.08.21.04.04.09.06.16.07h.52v.29c-.32-.02-.59-.03-.81-.03-.19,0-.49,0-.92.03.04-.81.07-1.32.07-1.54v-.83c0-.52-.02-.86-.06-1.02-.05-.22-.18-.4-.38-.53-.2-.14-.44-.2-.72-.2-.24,0-.47.05-.67.18-.21.11-.35.25-.44.4-.08.16-.13.41-.13.78v.59c.01.85.02,1.32.02,1.39,0,.16.03.29.06.36.01.03.03.05.06.07.03.02.07.04.13.05.02,0,.21,0,.55.01v.28c-.4-.02-.76-.03-1.09-.03-.28,0-.72,0-1.35.03"/>
      <path class="cls-1" d="M1.53,115.34c.83-.8,1.86-1.2,3.08-1.2s2.22.39,3.06,1.18c.93.87,1.39,2.04,1.39,3.5,0,1.16-.3,2.14-.89,2.94-.64.86-1.54,1.4-2.71,1.63.55.79,1.21,1.35,1.98,1.68.44.18,1.03.32,1.77.41v.25h-.55c-.73,0-1.38-.06-1.94-.18-.57-.12-1.08-.3-1.55-.55-.46-.24-.89-.57-1.28-1-.39-.42-.61-.65-.66-.67l-.17-.08c-.76-.35-1.34-.74-1.75-1.19-.77-.83-1.15-1.9-1.15-3.24,0-1.45.45-2.6,1.36-3.48M2.55,121.96c.56.68,1.25,1.02,2.06,1.02s1.49-.34,2.06-1c.57-.66.85-1.72.85-3.18s-.29-2.54-.86-3.19c-.58-.66-1.26-.99-2.05-.99s-1.5.34-2.06,1.02c-.57.68-.85,1.74-.85,3.16s.28,2.47.84,3.15"/>
      <path class="cls-1" d="M11.01,120.41c.41-.27,1.22-.63,2.42-1.09v-.57c0-.46-.04-.77-.13-.95-.15-.3-.45-.45-.92-.45-.23,0-.44.06-.64.18-.2.12-.3.29-.3.5,0,.05,0,.14.03.27.02.13.03.21.03.25,0,.25-.08.42-.25.52-.09.06-.2.08-.33.08-.2,0-.36-.06-.46-.2-.11-.13-.16-.28-.16-.44,0-.31.19-.64.57-.98.38-.34.94-.51,1.67-.51.85,0,1.44.28,1.74.84.17.31.25.75.25,1.34v2.67c0,.26.01.43.05.53.05.17.17.25.36.25.1,0,.19-.01.25-.04.07-.03.18-.1.35-.22v.33c-.14.17-.3.31-.46.41-.25.17-.5.25-.76.25-.3,0-.52-.09-.66-.28-.13-.19-.21-.42-.22-.68-.33.29-.62.51-.86.65-.4.24-.78.36-1.14.36-.38,0-.71-.14-.99-.4-.28-.27-.42-.61-.42-1.02,0-.65.32-1.18.95-1.61M13.43,119.65c-.5.17-.92.35-1.25.56-.64.4-.95.84-.95,1.34,0,.4.13.7.39.89.17.12.37.18.57.18.29,0,.57-.08.84-.24.26-.16.39-.37.39-.62v-2.11Z"/>
      <path class="cls-1" d="M19.02,117.22v.45h-1.35v3.82c0,.33.02.59.08.76.11.31.32.46.64.46.17,0,.31-.04.43-.12.12-.07.25-.19.41-.36l.17.14-.15.2c-.23.31-.48.53-.74.67-.26.13-.5.2-.75.2-.53,0-.89-.24-1.07-.7-.1-.25-.15-.6-.15-1.05v-4.02h-.72s-.04-.02-.05-.04c-.01,0-.02-.03-.02-.05,0-.04,0-.07.03-.1.02-.02.09-.07.19-.16.3-.25.52-.45.65-.61.14-.16.45-.57.93-1.24.07,0,.11,0,.12.01,0,0,.01.04.01.1v1.64h1.33Z"/>
      <path class="cls-1" d="M20.82,120.41c.41-.27,1.21-.63,2.42-1.09v-.57c0-.46-.04-.77-.13-.95-.15-.3-.46-.45-.92-.45-.23,0-.44.06-.63.18-.21.12-.3.29-.3.5,0,.05.01.14.04.27.03.13.03.21.03.25,0,.25-.08.42-.25.52-.09.06-.21.08-.34.08-.2,0-.35-.06-.46-.2-.11-.13-.16-.28-.16-.44,0-.31.19-.64.57-.98.38-.34.94-.51,1.67-.51.86,0,1.44.28,1.74.84.17.31.25.75.25,1.34v2.67c0,.26.02.43.05.53.06.17.18.25.36.25.1,0,.19-.01.25-.04.07-.03.19-.1.35-.22v.33c-.14.17-.3.31-.46.41-.25.17-.5.25-.76.25-.3,0-.52-.09-.66-.28-.14-.19-.21-.42-.23-.68-.33.29-.62.51-.86.65-.41.24-.78.36-1.15.36s-.71-.14-.98-.4c-.28-.27-.42-.61-.42-1.02,0-.65.32-1.18.96-1.61M23.25,119.65c-.5.17-.92.35-1.25.56-.63.4-.95.84-.95,1.34,0,.4.13.7.39.89.17.12.36.18.57.18.29,0,.57-.08.83-.24.27-.16.4-.37.4-.62v-2.11Z"/>
      <path class="cls-1" d="M25.48,123.1c.41-.04.68-.11.82-.22.13-.11.2-.34.2-.7v-3c0-.44-.05-.75-.12-.94-.08-.19-.23-.28-.45-.28-.05,0-.1,0-.17.01-.07.01-.15.03-.23.05v-.22c.26-.09.51-.18.78-.27.27-.09.45-.16.55-.2.22-.08.45-.18.69-.29.03,0,.05.01.06.04,0,.02,0,.07,0,.15v1.1c.28-.4.55-.7.81-.93.26-.22.53-.33.81-.33.22,0,.4.07.54.21.14.14.21.31.21.51,0,.18-.05.34-.16.46-.11.13-.24.19-.4.19s-.33-.07-.5-.23c-.16-.16-.3-.23-.39-.23-.15,0-.34.13-.56.37-.22.25-.33.51-.33.77v2.98c0,.38.09.64.27.78.18.15.47.22.89.21v.21h-3.31v-.21Z"/>
      <path class="cls-1" d="M33.47,123.05c.51-.05.83-.14.98-.26.16-.12.23-.44.23-.94v-6.05c0-.48-.07-.79-.23-.94-.14-.14-.47-.23-.98-.27v-.26h3.83v.26c-.5.02-.83.1-1,.24-.17.13-.25.42-.25.87v6.54c0,.15.02.27.07.36.05.08.16.14.34.16.1.02.21.03.32.03.11,0,.32,0,.63,0,1.21,0,2.03-.1,2.45-.3.43-.2.84-.72,1.24-1.54h.35l-.67,2.36h-7.32v-.26Z"/>
      <path class="cls-1" d="M46.39,117.74c.47.42.71,1.03.71,1.82h-4.21c.04,1.03.28,1.78.7,2.25.41.47.92.7,1.49.7.46,0,.86-.12,1.17-.36.32-.24.61-.59.88-1.04l.23.08c-.18.56-.52,1.09-1.02,1.57-.5.48-1.11.72-1.83.72-.83,0-1.48-.32-1.93-.94-.45-.63-.68-1.35-.68-2.17,0-.89.26-1.66.79-2.3.52-.64,1.21-.97,2.06-.97.63,0,1.17.22,1.64.64M43.22,118.22c-.14.24-.24.54-.3.91h2.79c-.05-.44-.13-.77-.25-.99-.22-.39-.58-.59-1.09-.59s-.88.22-1.15.68"/>
      <path class="cls-1" d="M49.12,120.41c.4-.27,1.21-.63,2.42-1.09v-.57c0-.46-.04-.77-.13-.95-.15-.3-.46-.45-.92-.45-.22,0-.43.06-.63.18-.2.12-.3.29-.3.5,0,.05.01.14.04.27.02.13.03.21.03.25,0,.25-.08.42-.25.52-.1.06-.21.08-.34.08-.2,0-.35-.06-.47-.2-.1-.13-.16-.28-.16-.44,0-.31.19-.64.57-.98.38-.34.94-.51,1.67-.51.86,0,1.44.28,1.74.84.16.31.24.75.24,1.34v2.67c0,.26.02.43.06.53.06.17.18.25.36.25.1,0,.19-.01.25-.04.07-.03.19-.1.35-.22v.33c-.14.17-.3.31-.46.41-.25.17-.51.25-.76.25-.3,0-.52-.09-.66-.28-.14-.19-.21-.42-.23-.68-.34.29-.62.51-.86.65-.4.24-.78.36-1.14.36s-.71-.14-.99-.4c-.28-.27-.42-.61-.42-1.02,0-.65.32-1.18.96-1.61M51.54,119.65c-.5.17-.92.35-1.25.56-.63.4-.95.84-.95,1.34,0,.4.13.7.39.89.17.12.37.18.57.18.29,0,.57-.08.83-.24.27-.16.4-.37.4-.62v-2.11Z"/>
      <path class="cls-1" d="M57.81,117.26c.18.09.34.22.5.38v-2.11c0-.27-.03-.46-.09-.57-.06-.1-.2-.15-.43-.15-.05,0-.1,0-.13,0-.04,0-.13.01-.27.03v-.21l.54-.14c.2-.05.4-.11.6-.16.2-.05.37-.11.53-.16.07-.02.19-.06.35-.13h.04s0,.71,0,.71c0,.25,0,.51,0,.78,0,.27,0,.53,0,.79v5.42c0,.29.03.49.1.6.07.11.26.18.57.18.05,0,.1,0,.15,0,.05,0,.1,0,.15-.02v.22s-.35.12-.98.32l-1.06.39-.05-.06v-.83c-.24.27-.46.47-.64.59-.32.2-.69.31-1.11.31-.74,0-1.35-.29-1.81-.87-.46-.58-.69-1.25-.69-2.02,0-.96.27-1.78.83-2.46.55-.69,1.23-1.03,2.03-1.03.32,0,.62.07.88.21M58,122.4c.21-.2.31-.39.31-.57v-2.84c0-.57-.15-.97-.46-1.21-.31-.23-.6-.35-.89-.35-.55,0-.98.24-1.29.74-.31.49-.46,1.09-.46,1.81s.16,1.34.48,1.89c.32.55.81.83,1.47.83.34,0,.61-.1.83-.3"/>
      <path class="cls-1" d="M65.26,117.74c.47.42.71,1.03.71,1.82h-4.21c.05,1.03.28,1.78.7,2.25.41.47.91.7,1.48.7.47,0,.86-.12,1.18-.36.32-.24.61-.59.88-1.04l.23.08c-.18.56-.52,1.09-1.02,1.57-.5.48-1.11.72-1.83.72-.83,0-1.48-.32-1.93-.94-.46-.63-.68-1.35-.68-2.17,0-.89.26-1.66.79-2.3.53-.64,1.21-.97,2.06-.97.63,0,1.18.22,1.64.64M62.08,118.22c-.14.24-.24.54-.3.91h2.79c-.05-.44-.13-.77-.25-.99-.21-.39-.58-.59-1.08-.59s-.89.22-1.15.68"/>
      <path class="cls-1" d="M66.61,123.1c.41-.04.68-.11.81-.22.13-.11.2-.34.2-.7v-3c0-.44-.04-.75-.12-.94-.08-.19-.23-.28-.45-.28-.05,0-.1,0-.17.01-.07.01-.15.03-.23.05v-.22c.26-.09.51-.18.78-.27.27-.09.45-.16.55-.2.22-.08.45-.18.68-.29.04,0,.05.01.06.04,0,.02,0,.07,0,.15v1.1c.28-.4.55-.7.81-.93.26-.22.53-.33.81-.33.22,0,.4.07.54.21.14.14.22.31.22.51,0,.18-.06.34-.16.46-.1.13-.24.19-.4.19s-.33-.07-.5-.23c-.17-.16-.3-.23-.39-.23-.15,0-.33.13-.56.37-.22.25-.33.51-.33.77v2.98c0,.38.09.64.27.78.18.15.47.22.89.21v.21h-3.31v-.21Z"/>
      <path class="cls-1" d="M71.77,121.21h.22c.1.51.24.9.41,1.17.31.5.76.75,1.35.75.33,0,.59-.09.78-.28.19-.18.29-.42.29-.71,0-.18-.06-.37-.17-.54-.11-.17-.31-.34-.58-.5l-.75-.42c-.54-.29-.95-.58-1.2-.88-.25-.29-.38-.65-.38-1.05,0-.5.17-.9.52-1.22.35-.32.8-.48,1.33-.48.23,0,.49.05.77.13.28.09.43.13.47.13.08,0,.13-.01.17-.04.04-.02.07-.06.09-.11h.19l.05,1.84h-.19c-.09-.43-.21-.76-.36-.99-.28-.44-.68-.66-1.21-.66-.31,0-.56.09-.74.28-.18.19-.27.41-.27.67,0,.41.31.77.92,1.09l.88.47c.94.51,1.42,1.11,1.42,1.79,0,.52-.19.95-.58,1.28-.39.33-.9.5-1.52.5-.27,0-.57-.04-.9-.13-.33-.09-.53-.13-.59-.13-.05,0-.1.02-.14.05-.04.04-.07.08-.09.13h-.19v-2.15Z"/>
      <path class="cls-1" d="M76.47,123.13c.36-.05.6-.14.71-.27.11-.13.17-.44.17-.92v-6.38c0-.25-.03-.43-.1-.54-.06-.11-.22-.18-.47-.18-.05,0-.1,0-.14.01-.05,0-.1.01-.16.02v-.24c.2-.05.44-.13.73-.21.29-.08.49-.14.6-.18l.65-.2v.05s.01,4.1.01,4.1c.28-.32.52-.55.74-.7.39-.27.81-.4,1.25-.4.72,0,1.2.3,1.46.9.14.32.21.74.21,1.25v2.69c0,.46.06.77.16.91.1.14.33.23.66.28v.19h-2.86v-.19c.38-.05.63-.14.74-.27.11-.13.16-.43.16-.92v-2.68c0-.43-.07-.77-.21-1.04-.14-.27-.41-.4-.81-.4-.34,0-.68.12-1,.37-.32.25-.48.41-.48.48v3.26c0,.49.06.8.17.92.12.12.36.21.73.26v.19h-2.91v-.19Z"/>
      <path class="cls-1" d="M83.41,123.13c.48-.04.78-.12.9-.24.13-.12.19-.43.19-.95v-3.21c0-.28-.02-.48-.06-.58-.07-.18-.21-.27-.42-.27-.05,0-.09,0-.14.01-.05,0-.18.05-.4.11v-.19l.29-.09c.77-.24,1.31-.42,1.61-.54.12-.05.2-.08.24-.08,0,.03.02.07.02.1v4.74c0,.5.06.82.18.94.12.13.4.21.83.25v.19h-3.24v-.19ZM84.48,114.25c.13-.14.29-.21.49-.21s.35.07.48.2c.14.13.2.29.2.49s-.06.35-.2.48c-.13.13-.3.2-.48.2s-.36-.07-.49-.2c-.14-.13-.2-.29-.2-.48s.07-.35.2-.48"/>
      <path class="cls-1" d="M86.99,126.06c.41-.03.67-.12.78-.27.11-.15.17-.39.17-.72v-6.34c0-.34-.05-.55-.13-.64-.08-.09-.24-.14-.46-.14-.05,0-.09,0-.14,0-.04,0-.1.01-.18.03v-.21l.63-.2s.46-.16,1.32-.46c.02,0,.04,0,.05.03.01.02.02.04.02.07v.89c.29-.3.55-.51.78-.66.4-.25.82-.38,1.24-.38.61,0,1.15.26,1.59.78.44.52.67,1.23.67,2.13s-.27,1.68-.8,2.4c-.54.72-1.21,1.08-2.02,1.08-.26,0-.47-.03-.65-.09-.29-.09-.55-.26-.79-.5v2.18c0,.44.07.71.21.81.15.1.46.17.95.2v.24h-3.24v-.21ZM89.6,122.76c.23.15.5.22.82.22.48,0,.9-.24,1.24-.71.34-.47.51-1.13.51-1.98s-.18-1.42-.54-1.82c-.35-.4-.77-.6-1.24-.6-.33,0-.64.1-.91.3-.28.2-.41.4-.41.59v3.32c.12.3.29.52.52.67"/>
      <path class="cls-1" d="M96.58,123.31v-.26c.35-.04.62-.17.79-.39.18-.22.48-.83.9-1.83l2.82-6.69h.28l3.38,7.71c.22.51.4.83.53.95.13.12.36.2.67.24v.26h-3.45v-.26c.4-.03.65-.08.77-.13.11-.05.17-.17.17-.37,0-.07-.02-.18-.07-.35-.05-.17-.1-.35-.18-.53l-.55-1.31h-3.55c-.37.89-.59,1.44-.66,1.64-.07.2-.1.35-.1.46,0,.23.09.39.27.48.12.05.33.09.66.12v.26h-2.69ZM102.42,119.82l-1.56-3.76-1.55,3.76h3.1Z"/>
      <path class="cls-1" d="M110.99,117.48c.4.28.59.6.59.94,0,.15-.04.29-.15.41-.1.13-.26.19-.47.19-.15,0-.29-.05-.41-.16-.12-.11-.2-.26-.25-.46l-.08-.32c-.06-.23-.16-.4-.3-.5-.14-.09-.33-.14-.57-.14-.5,0-.93.22-1.27.66-.34.44-.52,1.03-.52,1.76,0,.67.19,1.28.57,1.81.39.53.9.8,1.55.8.46,0,.86-.15,1.22-.45.2-.18.43-.45.69-.83l.19.12c-.26.53-.52.94-.8,1.25-.54.59-1.15.88-1.86.88s-1.3-.27-1.83-.82c-.53-.55-.79-1.29-.79-2.22s.29-1.7.87-2.36c.58-.66,1.31-.99,2.19-.99.55,0,1.03.14,1.43.43"/>
      <path class="cls-1" d="M113.68,120.41c.41-.27,1.21-.63,2.42-1.09v-.57c0-.46-.05-.77-.13-.95-.15-.3-.46-.45-.92-.45-.22,0-.43.06-.64.18-.2.12-.3.29-.3.5,0,.05.01.14.04.27.03.13.03.21.03.25,0,.25-.09.42-.25.52-.09.06-.2.08-.34.08-.2,0-.35-.06-.46-.2-.11-.13-.16-.28-.16-.44,0-.31.19-.64.57-.98.38-.34.94-.51,1.68-.51.86,0,1.44.28,1.74.84.16.31.24.75.24,1.34v2.67c0,.26.02.43.06.53.06.17.18.25.37.25.1,0,.19-.01.25-.04.07-.03.18-.1.35-.22v.33c-.14.17-.3.31-.46.41-.25.17-.51.25-.76.25-.3,0-.52-.09-.65-.28-.14-.19-.21-.42-.23-.68-.34.29-.62.51-.86.65-.4.24-.78.36-1.14.36s-.71-.14-.98-.4c-.28-.27-.42-.61-.42-1.02,0-.65.32-1.18.96-1.61M116.11,119.65c-.5.17-.92.35-1.25.56-.64.4-.95.84-.95,1.34,0,.4.13.7.39.89.17.12.36.18.58.18.28,0,.56-.08.83-.24.27-.16.4-.37.4-.62v-2.11Z"/>
      <path class="cls-1" d="M122.37,117.26c.17.09.34.22.51.38v-2.11c0-.27-.03-.46-.09-.57-.06-.1-.2-.15-.43-.15-.05,0-.09,0-.14,0-.04,0-.13.01-.26.03v-.21l.54-.14c.2-.05.4-.11.6-.16.2-.05.37-.11.52-.16.07-.02.19-.06.35-.13h.04s0,.71,0,.71c0,.25,0,.51,0,.78,0,.27,0,.53,0,.79v5.42c0,.29.03.49.11.6.07.11.26.18.57.18.05,0,.09,0,.14,0,.05,0,.1,0,.15-.02v.22s-.35.12-.98.32l-1.05.39-.05-.06v-.83c-.24.27-.46.47-.64.59-.32.2-.69.31-1.11.31-.75,0-1.35-.29-1.81-.87-.47-.58-.7-1.25-.7-2.02,0-.96.28-1.78.83-2.46.55-.69,1.23-1.03,2.04-1.03.32,0,.61.07.88.21M122.56,122.4c.21-.2.32-.39.32-.57v-2.84c0-.57-.15-.97-.46-1.21-.3-.23-.6-.35-.89-.35-.55,0-.98.24-1.29.74-.31.49-.46,1.09-.46,1.81s.16,1.34.49,1.89c.33.55.82.83,1.46.83.34,0,.62-.1.83-.3"/>
      <path class="cls-1" d="M129.82,117.74c.47.42.71,1.03.71,1.82h-4.21c.05,1.03.28,1.78.7,2.25.41.47.91.7,1.49.7.46,0,.85-.12,1.17-.36.32-.24.62-.59.88-1.04l.24.08c-.18.56-.52,1.09-1.02,1.57-.5.48-1.11.72-1.83.72-.83,0-1.47-.32-1.93-.94-.45-.63-.68-1.35-.68-2.17,0-.89.27-1.66.79-2.3.53-.64,1.21-.97,2.06-.97.62,0,1.17.22,1.64.64M126.64,118.22c-.14.24-.24.54-.31.91h2.79c-.05-.44-.14-.77-.25-.99-.21-.39-.58-.59-1.09-.59s-.89.22-1.15.68"/>
      <path class="cls-1" d="M131.33,123.13c.35-.03.57-.09.69-.17.17-.13.26-.38.26-.75v-3.43c0-.33-.04-.54-.13-.64-.08-.1-.23-.15-.42-.15-.1,0-.16,0-.21.01-.04,0-.1.03-.16.05v-.24l.49-.16c.17-.06.45-.17.85-.32.39-.15.6-.23.63-.23s.04.01.04.03c0,.03,0,.07,0,.13v.91c.43-.41.81-.69,1.13-.84.31-.15.64-.24.97-.24.46,0,.82.16,1.09.48.14.17.26.4.35.7.33-.34.62-.59.86-.75.42-.28.86-.42,1.29-.42.72,0,1.2.29,1.44.87.13.33.2.85.2,1.55v2.76c0,.31.07.52.21.63.14.11.39.18.76.22v.19h-3v-.19c.39-.04.64-.12.76-.23.12-.12.19-.37.19-.74v-2.84c0-.42-.05-.74-.14-.94-.16-.36-.48-.54-.97-.54-.29,0-.58.09-.86.28-.16.11-.37.29-.6.53v3.4c0,.35.06.61.19.79.13.18.39.28.8.29v.19h-3.06v-.19c.42-.05.69-.15.8-.3.11-.15.17-.51.17-1.1v-1.85c0-.68-.04-1.15-.13-1.4-.15-.43-.45-.65-.93-.65-.27,0-.53.07-.79.22-.26.14-.49.34-.69.58v3.64c0,.32.05.54.18.66.11.12.37.18.76.19v.19h-3.03v-.19Z"/>
      <path class="cls-1" d="M141.86,117.22h2.8v.19c-.22,0-.38.02-.48.06-.2.06-.31.18-.31.34,0,.06.01.13.03.19.03.07.06.16.12.29l1.54,3.31,1.27-3.34s.03-.12.06-.25c.03-.13.04-.21.04-.26,0-.12-.04-.2-.12-.26-.08-.05-.18-.08-.31-.09h-.2v-.2h1.82v.19c-.18.02-.32.09-.41.19-.09.1-.17.25-.23.44l-2.1,5.52c-.37.95-.71,1.65-1.05,2.08-.33.43-.76.64-1.26.64-.26,0-.49-.06-.7-.19-.22-.13-.33-.33-.33-.6,0-.18.07-.33.19-.44.14-.11.3-.17.5-.17.11,0,.28.04.51.13.23.09.39.13.49.13.24,0,.5-.3.78-.89.27-.6.41-.99.41-1.19,0-.04,0-.09-.02-.15-.01-.06-.03-.11-.05-.16l-2.09-4.5c-.15-.32-.28-.54-.39-.64-.12-.1-.28-.17-.5-.2v-.19Z"/>
      <polygon class="cls-1" points="2.2 99.07 2.88 99.77 3.66 99.07 2.78 98.19 1.93 98.85 1.29 98.19 .45 98.85 1.36 99.77 2.2 99.07"/>
      <path class="cls-1" d="M3.8,102.19c-.77-.6-1.42-.9-1.94-.9-.22,0-.4.12-.54.38-.2.37-.43.97-.71,1.8-.38,1.16-.57,2.01-.57,2.56,0,.5.15.83.45.99.2.1.59.16,1.17.16h3.08l.39-1.3c.17-.59.26-1.02.26-1.3,0-.77-.52-1.57-1.58-2.39M4.51,105.88h-2.46c-.31,0-.51-.02-.6-.06-.09-.04-.17-.1-.24-.18-.12-.14-.17-.29-.17-.45,0-.46.15-1.05.45-1.77.23-.56.47-.85.72-.85.41,0,.91.27,1.48.81.57.54.86,1.24.86,2.12,0,.12,0,.25-.02.38"/>
      <path class="cls-1" d="M9.04,101.5l-.52,1.02c1.27.61,1.91,1.5,1.91,2.66,0,.19-.03.43-.09.7h-3.46l-.26,1.3h3.85c.13-.31.26-.66.4-1.06.25-.75.38-1.34.38-1.77,0-1.18-.73-2.13-2.2-2.86"/>
      <polygon class="cls-1" points="28.5 98.97 29.16 99.66 29.96 98.97 29.07 98.07 28.22 98.74 27.58 98.07 26.75 98.74 27.65 99.66 28.5 98.97"/>
      <path class="cls-1" d="M47.7,95.97c-.1-.14-.16-.32-.18-.57l-.64,1.2-.11.17c-.07.15-.1.26-.1.33,0,.19.17.34.51.43l.69,8.35h-5.37c-.23,0-.37-.03-.43-.08-.07-.05-.1-.16-.12-.32-.01-.16-.01-.34-.01-.54v-9.55l-1.11,1.15v9.34h-11.44c.35-.54.61-1.07.8-1.57.18-.5.28-.95.28-1.34,0-.52-.13-.94-.39-1.25-.26-.31-.61-.47-1.05-.47-.72,0-1.6.73-2.64,2.19-.74,1.03-1.11,1.65-1.11,1.87,0,.16.13.35.38.57h-10.8c-.18,0-.3-.04-.36-.1-.05-.07-.08-.21-.08-.4v-9.98l-1.11,1.13v9.36c0,.61.05.98.15,1.11.1.13.38.19.83.19h12.32l.53-.4.7.4h12.62l.38-.57c.15.38.44.57.86.57h6.38l.35-1.07c.2-.6.3-1.15.3-1.65,0-.34-.01-.67-.03-1.01l-.38-5.51.45.14.57-1.28-1.02-.45c-.3-.13-.5-.26-.6-.39M28.38,105.47c-.22.13-.36.19-.42.19-.08,0-.18-.05-.29-.14l-1.18-.88c.22-.45.58-.93,1.07-1.42.5-.5.9-.75,1.2-.75.47,0,.71.34.71,1.02,0,.52-.08,1.01-.22,1.47l-.87.5Z"/>
      <polygon class="cls-1" points="91.85 98 92.52 98.69 93.3 98 92.42 97.1 91.57 97.75 90.93 97.1 90.1 97.75 91 98.69 91.85 98"/>
      <path class="cls-1" d="M92.09,100.38c-.44,0-.93.36-1.47,1.09-.64.84-.96,1.66-.96,2.44,0,.58.2.99.59,1.23.24.15.67.23,1.3.23h1.3l.56-.72c.01.07.01.14.01.2,0,.07-.01.23-.05.49-.02.26-.04.4-.04.42-.02.06-.03.11-.04.14h-14.22l.02-.05c.1-.31.16-.55.16-.73,0-.35-.14-.78-.43-1.29-.28-.51-.62-.96-1.03-1.33-.59-.55-1.12-.83-1.6-.83-.31,0-.67.1-1.09.31-.45.22-.99.53-1.61.94l-3.12,1.99c.21-.66.31-1.28.31-1.87,0-.46-.01-.87-.04-1.2l-.28-3.95.43.18.59-1.32-1.04-.45c-.36-.15-.58-.32-.66-.52-.03-.15-.06-.27-.07-.36l-.69,1.15c-.14.23-.21.39-.21.46,0,.15.14.29.42.42.03,0,.06.01.11.05l.6,7.73-1.04.67h-10.54c-.19-1-.53-1.77-1.04-2.34l-.8.92c.34.39.61.83.83,1.32.17.38.33.82.47,1.3-.4,1.02-.89,1.8-1.47,2.37-.57.56-1.17.84-1.79.84-.47,0-.95-.12-1.44-.37.98,1.06,1.69,1.6,2.13,1.6.26,0,.61-.19,1.03-.57.42-.38.8-.85,1.14-1.41.47-.77.78-1.56.92-2.36h35.22l.05-.16c.36-1.09.56-1.72.61-1.9.09-.41.14-.81.14-1.2,0-1.17-.4-2.17-1.2-3.02-.33-.36-.67-.53-1.01-.53M70.09,105.88l2.86-1.84c.3-.18.58-.36.83-.52.5-.31.8-.49.9-.54.43-.26.77-.38,1.01-.38.49,0,1.02.26,1.58.78.5.49.86,1.16,1.07,2.03.04.1.07.26.1.47h-8.35ZM91.66,104.07c-.73,0-1.1-.21-1.1-.63s.2-.84.61-1.28c.28-.3.57-.45.88-.45.37,0,.68.22.93.66.26.44.41,1,.44,1.7h-1.77Z"/>
      <polygon class="cls-1" points="104.59 99.3 105.27 99.99 106.04 99.3 105.16 98.4 104.33 99.05 103.69 98.4 102.86 99.05 103.76 99.99 104.59 99.3"/>
      <polygon class="cls-1" points="111.68 109.64 111.02 108.95 110.22 109.64 111.11 110.54 111.96 109.89 112.6 110.54 113.43 109.89 112.53 108.95 111.68 109.64"/>
      <path class="cls-1" d="M122.27,101.2c-1.25,0-2.83,1.56-4.75,4.68h-4.89l-.78-2.65-.85.8.57,1.86h-5.41l-1.08-5.46-.97.87.11.5-3.03,1.66c-.29.16-.46.28-.51.34-.04.07-.11.23-.21.47-.05.12-.08.21-.09.24l-.57,1.71,4.86.73.48-.56.19.78h5.95l.5-.52.14.52h5.58l.48-.74,2.39,1.42.77-1.15-2.41-1.49c.27-.45.61-.88.99-1.28.29-.3.55-.54.78-.72.33-.26.62-.38.9-.38.42,0,.76.22,1,.66l.35-.59c.2-.34.29-.63.29-.89,0-.22-.08-.41-.23-.57-.16-.16-.35-.24-.56-.24M101.02,105.09c.13-.43.24-.69.33-.78.06-.06.23-.17.52-.33l2.52-1.39.63,3.11-4-.61Z"/>
      <polygon class="cls-1" points="120.81 109.96 120.18 109.28 119.34 109.96 120.24 110.87 121.09 110.18 121.75 110.87 122.55 110.18 121.67 109.28 120.81 109.96"/>
      <path class="cls-1" d="M126.26,101.5l-.52,1.02c1.27.61,1.91,1.5,1.91,2.66,0,.19-.03.43-.09.7h-3.47l-.26,1.3h3.85c.12-.31.26-.66.4-1.06.25-.75.38-1.34.38-1.77,0-1.18-.73-2.13-2.2-2.86"/>
      <path class="cls-1" d="M136.71,99.14c-.18.39-.28.63-.28.73,0,.11.08.27.24.45.12.1.21.19.28.26l.68.61.29-.33,4.53,5.03h-10.36c-.19,0-.31-.04-.37-.1-.06-.07-.09-.21-.09-.4v-9.98l-1.1,1.13v9.36c0,.61.05.98.14,1.11.09.13.38.19.84.19h11.16l.38-.69c.22-.41.33-.68.33-.83,0-.23-.16-.52-.48-.88l-5.27-5.83,6.55-2.1.57-1.28-7.43,2.29-.61,1.28Z"/>
      <path class="cls-1" d="M147.45,95.4l-1.29,1.61c.21.88.35,2.14.4,3.78.06,1.57.09,2.62.09,3.15,0,1.36-.06,2.59-.19,3.68l-.04.3c.53-.97.89-1.88,1.07-2.73.14-.62.2-1.53.2-2.72,0-.95-.03-1.8-.08-2.56-.05-.76-.1-1.35-.15-1.78l-.03-.36.35-.44-.35-1.94Z"/>
      <path class="cls-1" d="M145.39,96.18c.55-.64,1.26-1.04,2.1-1.2l.37-.76c-.34.12-.64.18-.89.18-.48,0-.9-.16-1.26-.49.34-.55.77-.83,1.32-.83.06,0,.14.01.25.05.11-.28.17-.48.17-.61,0-.15-.12-.23-.36-.23-.47,0-.91.19-1.29.55-.39.37-.58.77-.58,1.23,0,.5.28.81.84.92-.19.22-.31.38-.37.48-.13.23-.22.46-.28.72"/>
      <rect class="cls-3" x="90.61" y="42.3" width="36.78" height="36.78" transform="translate(-10.98 94.86) rotate(-45.01)"/>
      <rect class="cls-3" x="55.41" y="7.62" width="36.78" height="36.78" transform="translate(3.23 59.81) rotate(-45)"/>
      <polygon class="cls-3" points="38.57 86.76 12.56 60.75 38.57 34.74 64.57 60.75 38.57 86.76"/>
      <path class="cls-1" d="M39.24,60.93l6.07-9.06c.15-.21.05-.53-.21-.7-.26-.17-.58-.14-.72.07l-5.25,7.83v-10.02c0-.27-.25-.49-.56-.49s-.56.22-.56.49v10.04l-5.26-7.85c-.14-.21-.46-.24-.72-.07-.26.17-.35.49-.21.7l6.08,9.08-11.01-11.09v21.75s11.12,11.11,11.12,11.11v-21.61s.04.05.04.05c.01.03.04.05.06.08l.02.03s0,0,0,0c.03.03.06.06.1.09.02.02.05.04.08.05.08.04.17.07.27.07s.19-.03.28-.07c.02,0,.03-.02.04-.02.1-.06.17-.14.21-.25v-.02s.01,21.6.01,21.6l11.12-11.11v-21.75s-10.99,11.07-10.99,11.07Z"/>
      <polygon class="cls-1" points="74.35 25.97 74.34 47.97 96.36 25.97 74.35 25.97"/>
      <polygon class="cls-1" points="73.21 25.97 73.22 47.97 51.2 25.97 73.21 25.97"/>
      <polygon class="cls-1" points="131.57 60.72 119.2 60.7 119.21 73.1 131.57 60.72"/>
      <polygon class="cls-1" points="86.46 60.72 98.83 60.7 98.82 73.1 86.46 60.72"/>
      <path class="cls-1" d="M68.94,20c-.2-.03-.71.07-1,.2-.5.23-1.1.6-1.09,1.47,0,.03,0,.1-.05.1,0,0-.12.01-.28-.2,0,0-1.34-1.45.09-2.86,0,0,.64-.61,1.28-.86,0,0,.63-2.71,4.44-2.57,0,0,4.53-.08,5.82,4.86l.64,4.64h-10.16l1.02-2.55s-.95.16-1.7-.99c0,0-.39.17-.89-.02,0,0,.25-.87,1.9-1.12,0,0,.06-.09-.03-.1"/>
      <path class="cls-1" d="M99.94,49.48h.08l1.17,1.18s-.33.13-.38.47c0,0-.14.63.41.88,0,0,.62.26.92-.33,0,0,.19-.35.03-.81,0,0-.1-.35-.48-.56l1.18-1.19h.17l1.17,1.18s-.32.13-.37.47c0,0-.15.64.4.88,0,0,.62.26.92-.33,0,0,.2-.35.04-.81,0,0-.11-.35-.49-.56l1.19-1.19h.17s1.17,1.17,1.17,1.17c0,0-.32.13-.37.47,0,0-.15.63.41.88,0,0,.61.25.91-.33,0,0,.2-.35.04-.81,0,0-.11-.35-.49-.56l1.19-1.19h.19l1.18,1.19c-.39.21-.48.56-.48.56-.16.46.04.81.04.81.3.58.92.33.92.33.55-.24.4-.88.4-.88-.05-.34-.38-.47-.38-.47l1.18-1.18h.17s1.19,1.19,1.19,1.19c-.39.21-.49.56-.49.56-.16.46.04.81.04.81.31.58.92.33.92.33.55-.24.4-.88.4-.88-.04-.34-.37-.47-.37-.47l1.17-1.18h.18l1.18,1.19c-.38.21-.49.56-.49.56-.15.46.04.81.04.81.3.58.92.33.92.33.55-.24.4-.88.4-.88-.05-.34-.37-.47-.37-.47l1.17-1.18h.08l-.02,24.72-9.1,9.06-9.08-9.06v-24.72Z"/>
      <path class="cls-3" d="M72.98,17.72c-.16.39-.44.63-.65.78.12-.14.2-.32.2-.5,0-.26-.14-.49-.36-.64-.12-.09-.23-.13-.23-.13l.73-.2v-.14s-2.33.46-2.33.46c-.31.15-.22.88-.22.88h.05c.1-.62.47-.69.47-.69-.04.08-.07.15-.09.22-.03.08-.05.16-.05.25,0,.35.25.64.6.78.03.02.05.02.05.02-.63-.02-.96-.43-.96-.43h-.05c.47.75,1.47.59,1.47.59,1.1-.1,1.48-1.24,1.48-1.24h-.09Z"/>
      <path class="cls-3" d="M54.21,85.05c-.72-.98-.8-1.29-.8-1.29-.65-1.24-.21-1.55-.21-1.55l3.02-3.03c1.04-.88,1.45-.31,1.45-.31l.95.94c0,.18.07.36.2.5.28.27.72.27.99,0,.27-.28.27-.72,0-1-.1-.1-.24-.17-.37-.19-.04,0-.07,0-.09,0-.02,0-.03,0-.05,0l-.95-.95c-1.2-1.14.07-2.6.07-2.6.23-.26.09-.44.09-.44,0,0-.18-.14-.44.09,0,0-1.45,1.26-2.6.07l-.95-.95s0-.03,0-.05c0-.02,0-.05,0-.08-.02-.14-.09-.26-.19-.37-.28-.28-.72-.28-.99,0-.27.27-.27.72,0,.99.14.14.32.2.5.2l.95.95s.55.41-.32,1.45l-3.02,3.03c-1.15,1.13-.73,2.62-.73,2.62.36,1.55,1.83,2.84,1.83,2.84.77.67,1.35.2,1.35.2.65-.44.32-1.06.32-1.06"/>
      <path class="cls-3" d="M85.59,51.03s12.29-12.87,16.39-22.07c0,0-9.53,11.02-18.8,20.53,0,0-4.14,4.09-9.38,9.12-5.23-5.03-9.38-9.12-9.38-9.12-9.28-9.51-18.8-20.53-18.8-20.53,4.1,9.2,16.4,22.07,16.4,22.07,2.8,2.97,6.16,6.36,9.54,9.73-5.59,5.33-11.87,11.16-15.62,14.16-.05.04.72.73,1.94-.25.24-.2.69-.3,1.05.07.32.31.28.77.04,1.06-1.04,1.23-.23,2.02-.2,1.98,1.68-1.81,8.18-8.02,15.04-14.78,6.86,6.76,13.35,12.98,15.03,14.78.04.04.85-.75-.2-1.98-.24-.29-.28-.75.04-1.06.36-.36.81-.27,1.05-.07,1.22.99,1.99.3,1.94.25-3.75-2.99-10.03-8.83-15.62-14.16,3.39-3.37,6.75-6.76,9.54-9.73"/>
      <path class="cls-3" d="M93.41,85.05c.72-.98.8-1.29.8-1.29.66-1.24.2-1.55.2-1.55l-3.02-3.03c-1.03-.88-1.45-.31-1.45-.31l-.95.94c0,.18-.06.36-.21.5-.27.27-.71.27-.99,0-.27-.28-.27-.72,0-1,.1-.1.24-.17.37-.19.04,0,.07,0,.09,0,.02,0,.03,0,.05,0l.95-.95c1.2-1.14-.07-2.6-.07-2.6-.23-.26-.09-.44-.09-.44,0,0,.18-.14.44.09,0,0,1.46,1.26,2.6.07l.95-.95s0-.03,0-.05c0-.02,0-.05,0-.08.03-.14.09-.26.19-.37.28-.28.72-.28.99,0,.28.27.28.72,0,.99-.14.14-.32.2-.5.2l-.95.95s-.56.41.32,1.45l3.02,3.03c1.16,1.13.74,2.62.74,2.62-.36,1.55-1.83,2.84-1.83,2.84-.78.67-1.35.2-1.35.2-.64-.44-.32-1.06-.32-1.06"/>
      <rect class="cls-1" y="90.71" width="148.13" height=".49"/>
      <rect class="cls-1" y="127.72" width="148.13" height=".49"/>
    </g>
  </g>
</svg>