<?xml version="1.0" encoding="UTF-8"?>
<svg id="Layer_2" data-name="Layer 2" xmlns="http://www.w3.org/2000/svg" viewBox="0 0 224.36 97.71">
  <defs>
    <style>
      .cls-1 {
        fill: #ab1e38;
      }

      .cls-2 {
        fill: #76777b;
      }
    </style>
  </defs>
  <g id="Layer_1-2" data-name="Layer 1">
    <g>
      <path class="cls-1" d="M211.95,53.55c-.17.34-.35.68-.51,1.02-4.4,8.89-8.8,17.78-13.19,26.67-.65,1.33-1.61,2.03-3.13,1.97-1.06-.04-2.12-.03-3.18,0-1.39.04-2.32-.6-2.92-1.82-2.73-5.55-5.46-11.1-8.19-16.64-1.74-3.53-3.47-7.06-5.21-10.59-.11-.22-.25-.41-.55-.58v34.17h-12.22v-54.99c.59,0,1.11,0,1.63,0,3.51,0,7.02.07,10.53-.02,3.06-.08,5.04,1.28,6.31,4.02,3.89,8.4,7.84,16.77,11.77,25.15.14.3.29.59.53,1.06.25-.5.45-.86.62-1.22,3.96-8.4,7.94-16.8,11.88-25.21,1.19-2.55,3.09-3.83,5.94-3.79,4.07.05,8.14.01,12.3.01v54.98h-12.14v-34.12c-.09-.02-.18-.04-.27-.07Z"/>
      <path class="cls-1" d="M115.98,90.66c-3.02,3.16-6.51,5.32-10.68,6.33-6.88,1.66-13.14.53-18.49-4.32-.87-.79-1.65-1.73-2.31-2.71-.52-.78-1.05-1.06-2-1.02-6.81.26-13.01-1.65-18.29-5.92-9.37-7.55-13.06-17.48-10.35-29.14,2.76-11.88,10.59-19.27,22.6-21.67,15.82-3.16,31.24,7.7,33.51,23.67,1.73,12.22-2.85,21.86-13.1,28.78-.3.2-.61.39-.91.58,1.67,3.46,9.31,4.61,13.8-2.03,2.06,2.47,4.1,4.91,6.22,7.45ZM81.71,43.85c-9.11,0-16.53,7.37-16.54,16.44,0,9.13,7.42,16.58,16.52,16.57,9.06,0,16.48-7.44,16.48-16.51,0-9.1-7.39-16.5-16.47-16.5Z"/>
      <path class="cls-1" d="M120.28,32.77c3.27,0,6.44-.03,9.61.02,1.17.02,2.18.99,2.4,2.16.09.48.09.99.09,1.48,0,12.97,0,25.94,0,38.9v1.59h23.46v10.77h-35.57v-54.92Z"/>
      <path class="cls-2" d="M41.44,68.3c-2.02,0-1.94,0-1.87-2.13.14-4.37.63-8.7,1.65-12.95,4.12-17.17,14.27-29.68,29.67-38.04,2.03-1.1,4.2-1.94,6.3-2.92.71-.33,1.15-.22,1.4.6.69,2.24,1.44,4.46,2.15,6.69.26.8.05,1.27-.83,1.63-7.67,3.13-14.66,7.36-20.62,13.14-8.02,7.78-13.14,17.16-15.17,28.17-.28,1.52-.47,3.07-.56,4.62-.06.95-.4,1.32-1.32,1.19-.26-.04-.53,0-.79,0Z"/>
      <path class="cls-1" d="M2.64,10.3c3.03,1.44,5.78,2.58,8.37,4.01,12.29,6.79,21.4,16.48,26.82,29.53.87,2.09,1.21,4,.45,6.26-.85,2.51-1.16,5.2-1.74,7.97-.31-1.01-.58-1.9-.87-2.79-4.36-13.29-12.97-23.12-24.88-30.15-3.21-1.89-6.66-3.37-10.03-4.98-.62-.3-.9-.59-.7-1.26.82-2.74,1.65-5.49,2.58-8.59Z"/>
      <path class="cls-2" d="M4.25,7.79c.4-.7.73-1.42,1.19-2.04,1.22-1.68,2.52-3.31,3.74-5,.52-.72,1.03-.72,1.77-.38,5.39,2.46,10.31,5.68,14.82,9.5,7.76,6.58,13.8,14.47,18.18,23.65.39.82.41,1.44-.05,2.28-1.14,2.05-2.12,4.18-3.16,6.29-.16.32-.3.64-.53,1.14C33.57,25.9,20.65,15.16,4.25,7.79Z"/>
      <path class="cls-1" d="M76.42,7.9c-12.42,5.24-22.71,12.93-30.28,24.1-1.43-2.48-2.85-4.89-4.2-7.34-.13-.23.06-.74.25-1.02,3.65-5.33,7.96-10.06,12.93-14.18,4.48-3.71,9.31-6.86,14.62-9.27.7-.32,1.12-.27,1.57.36,1.46,2.04,2.97,4.05,4.44,6.08.26.37.43.8.67,1.27Z"/>
    </g>
  </g>
</svg>