<?xml version="1.0" encoding="UTF-8"?>
<svg id="Layer_2" data-name="Layer 2" xmlns="http://www.w3.org/2000/svg" viewBox="0 0 992.91 684.78">
  <defs>
    <style>
      .cls-1 {
        fill-rule: evenodd;
      }

      .cls-1, .cls-2 {
        fill: #8e1537;
      }
    </style>
  </defs>
  <g id="Layer_1-2" data-name="Layer 1">
    <g>
      <g>
        <path class="cls-2" d="M22.43,588.4c4.65-1.45,7.59-5.93,7.59-11.82,0-7.32-4.28-12.78-11.17-12.78s-11.17,5.45-11.17,12.78c0,6.2,2.51,10.58,7.59,11.82v-5.45h7.16v5.45ZM22.43,604.7h-7.16v-9.41c-9.62-1.6-15.24-9.46-15.24-18.71,0-10.8,7.17-19.45,18.82-19.45s18.87,8.66,18.87,19.45c0,9.19-5.83,17.11-15.29,18.71v9.41Z"/>
        <path class="cls-2" d="M76.23,571.77c0-5.4-3.15-8.34-7.16-8.34s-7.22,2.94-7.22,8.34v4.54h14.38v-4.54ZM83.82,595.08h-7.59v-12.08h-14.38v12.08h-7.59v-24.22c0-8.55,7.32-14.06,14.81-14.06s14.75,6.04,14.75,14.06v24.22Z"/>
      </g>
      <polygon class="cls-2" points="127.31 557.66 127.31 564.35 115.76 564.35 115.76 595.08 108.17 595.08 108.17 564.35 96.57 564.35 96.57 557.66 127.31 557.66"/>
      <g>
        <path class="cls-2" d="M162.56,571.77c0-5.4-3.15-8.34-7.16-8.34s-7.22,2.94-7.22,8.34v4.54h14.38v-4.54ZM170.16,595.08h-7.59v-12.08h-14.38v12.08h-7.59v-24.22c0-8.55,7.32-14.06,14.81-14.06s14.75,6.04,14.75,14.06v24.22Z"/>
        <path class="cls-2" d="M208.29,569.96c0-3.15-2.3-5.61-5.45-5.61h-6.42v11.44h6.42c3.15,0,5.45-2.67,5.45-5.83M196.43,582.41v12.67h-7.59v-37.42h13.79c7.97,0,13.15,5.51,13.15,12.13,0,7.11-4.28,10.48-7.38,11.65l8.45,13.63h-9.09l-7.27-12.67h-4.06Z"/>
      </g>
      <polygon class="cls-2" points="289.45 569.47 281.32 580.16 277.05 580.16 268.98 569.47 268.76 569.47 268.76 595.08 261.17 595.08 261.17 557.66 268.71 557.66 279.29 571.4 289.72 557.66 297.25 557.66 297.25 595.08 289.66 595.08 289.66 569.47 289.45 569.47"/>
      <polygon class="cls-2" points="343.41 595.08 316.46 595.08 316.46 557.66 342.93 557.66 342.93 564.35 324.06 564.35 324.06 573 337.36 573 337.36 579.63 324.06 579.63 324.06 588.4 343.41 588.4 343.41 595.08"/>
      <path class="cls-2" d="M370.43,588.4c8.77,0,12.51-4.86,12.51-12.03,0-7.64-3.74-12.02-12.51-12.02h-2.35v24.05h2.35ZM371.17,557.66c12.3,0,19.35,7.49,19.35,18.71s-7.05,18.71-19.35,18.71h-10.69v-37.42h10.69Z"/>
      <rect class="cls-2" x="407.6" y="557.66" width="7.64" height="37.42"/>
      <g>
        <path class="cls-2" d="M455.91,571.77c0-5.4-3.15-8.34-7.16-8.34s-7.22,2.94-7.22,8.34v4.54h14.38v-4.54ZM463.5,595.08h-7.59v-12.08h-14.38v12.08h-7.59v-24.22c0-8.55,7.32-14.06,14.81-14.06s14.75,6.04,14.75,14.06v24.22Z"/>
        <path class="cls-2" d="M537.6,592.99s-4.55,2.62-12.13,2.62c-13.31,0-18.71-10.21-18.71-19.03,0-11.33,7.64-19.45,19.14-19.45,7.54,0,11.22,2.08,11.22,2.08l-2.35,6.31s-3.63-1.76-8.39-1.76c-6.95,0-12.08,4.54-12.08,12.83,0,7.33,4.12,12.4,12.08,12.4,4.49,0,8.98-2.19,8.98-2.19l2.24,6.2Z"/>
        <path class="cls-2" d="M582.26,576.58c0-7.32-4.28-12.78-11.17-12.78s-11.17,5.45-11.17,12.78,4.33,12.35,11.17,12.35,11.17-5.03,11.17-12.35M589.96,576.58c0,10.32-7.22,18.98-18.87,18.98s-18.82-8.66-18.82-18.98,7.16-19.45,18.82-19.45,18.87,8.66,18.87,19.45"/>
        <path class="cls-2" d="M626.49,569.96c0-3.15-2.3-5.61-5.45-5.61h-6.42v11.44h6.42c3.15,0,5.45-2.67,5.45-5.83M614.62,582.41v12.67h-7.59v-37.42h13.79c7.97,0,13.15,5.51,13.15,12.13,0,7.11-4.28,10.48-7.38,11.65l8.45,13.63h-9.09l-7.27-12.67h-4.06Z"/>
        <path class="cls-2" d="M660.24,576.32h6.52c3.85,0,5.51-2.88,5.51-6.04s-2.35-5.93-5.08-5.93h-6.95v11.97ZM679.7,569.8c0,9.08-6.58,13.2-12.67,13.2h-6.79v12.08h-7.59v-37.42h13.95c8.02,0,13.1,5.51,13.1,12.13"/>
        <path class="cls-2" d="M724.1,576.58c0-7.32-4.28-12.78-11.17-12.78s-11.17,5.45-11.17,12.78,4.33,12.35,11.17,12.35,11.17-5.03,11.17-12.35M731.79,576.58c0,10.32-7.22,18.98-18.87,18.98s-18.82-8.66-18.82-18.98,7.16-19.45,18.82-19.45,18.87,8.66,18.87,19.45"/>
        <path class="cls-2" d="M768.33,569.96c0-3.15-2.3-5.61-5.45-5.61h-6.42v11.44h6.42c3.15,0,5.45-2.67,5.45-5.83M756.46,582.41v12.67h-7.59v-37.42h13.79c7.97,0,13.15,5.51,13.15,12.13,0,7.11-4.28,10.48-7.38,11.65l8.45,13.63h-9.09l-7.27-12.67h-4.06Z"/>
        <path class="cls-2" d="M815.93,571.77c0-5.4-3.15-8.34-7.16-8.34s-7.22,2.94-7.22,8.34v4.54h14.38v-4.54ZM823.52,595.08h-7.59v-12.08h-14.38v12.08h-7.59v-24.22c0-8.55,7.32-14.06,14.81-14.06s14.75,6.04,14.75,14.06v24.22Z"/>
      </g>
      <polygon class="cls-2" points="867 557.66 867 564.35 855.46 564.35 855.46 595.08 847.86 595.08 847.86 564.35 836.27 564.35 836.27 557.66 867 557.66"/>
      <rect class="cls-2" x="882.48" y="557.66" width="7.65" height="37.42"/>
      <path class="cls-2" d="M937.2,576.58c0-7.32-4.28-12.78-11.17-12.78s-11.17,5.45-11.17,12.78,4.33,12.35,11.17,12.35,11.17-5.03,11.17-12.35M944.9,576.58c0,10.32-7.22,18.98-18.87,18.98s-18.82-8.66-18.82-18.98,7.16-19.45,18.82-19.45,18.87,8.66,18.87,19.45"/>
      <polygon class="cls-2" points="985.28 557.66 985.28 572.79 985.07 572.79 969.08 557.66 961.97 557.66 961.97 595.08 969.56 595.08 969.56 567.87 969.78 567.87 985.28 582.57 985.28 595.08 992.87 595.08 992.87 557.66 985.28 557.66"/>
      <g>
        <path class="cls-2" d="M990.06,429.73c-.36-3.04-9.06-61.33-9.1-61.4l-5.12,14.58c.29,2.37,4.09,31.37,5.04,38.15,2.21,16.38,5.27,32.7,6.44,49.2.36,5.07.34,9.92.23,14.16-.09,3.35.26,3.44,1.72.56,1.54-3.04,2.72-7.53,3.25-13.51,1.22-13.7-.6-28.05-2.46-41.74"/>
        <path class="cls-2" d="M615.79,368.33l-5.12,14.58c.29,2.37,3.58,31.38,4.53,38.15,2.21,16.38,5.27,32.7,6.43,49.2.36,5.07.34,9.92.23,14.16-.09,3.35.26,3.45,1.72.56,1.54-3.04,2.71-7.54,3.25-13.51,1.23-13.71-.6-28.05-2.46-41.74-.36-3.04-8.56-61.33-8.59-61.4"/>
        <path class="cls-2" d="M896.67,422.11c-1.31.93-2.65,1.95-3.7,2.93-.99,1.63-1.35,3.22-1.63,4.56,5.05-2.72,9.75-5.6,20.36-9.15,1.66-2.04,2.74-4.06,3.53-6.02-3.07.93-5.61,1.95-8.62,2.49-1.78.09-3.42-.01-5.03-.34-2.93-.61-5.45-1.82-6.96-4.28,1.68-1.3,7.21-4.18,8.29-2.28.55.97.92,1.95,1.32,2.96.32.81.57.89,1.2-.01.84-1.19,1.69-3.19,1.8-5.37.11-2.08-.29-5.02-4.52-3.94-3.27.83-5.79,3.24-9.32,6.19-1.81,1.52-4.8,5.64-2.88,8.17,1.28,1.68,2.94,3.13,6.16,4.1"/>
        <path class="cls-2" d="M284.81,502.36c-2.93-.61-5.45-1.82-6.96-4.29,1.68-1.3,7.22-4.18,8.29-2.28.55.97.92,1.95,1.32,2.96.32.81.57.89,1.2-.01.84-1.19,1.69-3.18,1.81-5.37.1-2.08-.29-5.02-4.52-3.94-3.27.84-5.79,3.24-9.32,6.19-1.81,1.52-4.8,5.65-2.88,8.17,1.28,1.68,2.95,3.13,6.16,4.1-1.31.93-2.65,1.95-3.7,2.93-.99,1.63-1.35,3.22-1.63,4.56,5.04-2.72,9.75-5.6,20.35-9.15,1.66-2.04,2.74-4.06,3.53-6.02-3.06.93-5.6,1.95-8.62,2.5-1.78.09-3.42-.01-5.03-.34"/>
        <path class="cls-2" d="M387.67,433.96c.54,3.86,1.36,8.62,1.9,12.49-5.16,6.28-18.45,9.12-26.03,6.22,2.96-8.68,18.84-16.25,24.13-18.7M385.46,460.52c1.79-2.01,3.58-5.91,4.82-9.66,1.13,7.49,2.75,20.66,8.8,26.36,4.83,4.56,12.39,3.99,17.62.85,1.93-1.07,3.5-3.49,4.41-7.27,1.24-6.44.53-13.42-2.44-19.15-1.43-2.75-3.55-5.16-5.64-7.56-.56,1.85-3.09,9.33-3.38,10.17,4.51,4.62,7.11,8.79,8.43,12.29-5.45,4.2-12.48,5.26-16.3-.73-2.14-3.35-3.67-10.11-4.46-14.77-.97-6.42-2.22-16.17-2.78-20.97,5.41-2.73,9.66-5.49,14.11-11.81,2.49-3.55,2.14-6.16,2.14-6.16-.3.04-8.61,6.45-17.08,9.75-.73-7.26-2-14.39-4.78-20.17-1.37,3.74-2.69,7.74-3.95,11.56.72,5.02,1.26,8.38,1.7,12.18-10.8,4.65-18.28,11.41-23.55,19.03-2.8,4.05-5.09,9.52-5.82,14.88-.52,3.76,2.12,6.26,7.16,7.23,4.91.94,15.8-1.06,21.01-6.05"/>
        <path class="cls-2" d="M656.61,452.66c.62-1.31,1.34-5.13,9.71-10.62,4.05-2.79,8.71-5.5,14.42-8.09.51,4.22,1.39,8.27,1.9,12.49-5.54,6.52-18.21,9.1-26.04,6.22M836.08,479.73c.29-.04.59-.04.89-.08,2.35-.3,5.68-1.9,7.53-3.15,2.28-1.54,4.52-3.95,5.73-5.57.98-1.31,2.71-3.68,2.96-3.69,1.19,7.92,9.56,12.35,17.06,10.33,2.47-.67,4.95-2.58,6.83-6.54,3.15-6.64,4.26-15.62-.84-24.79,0,0-4.06,11.63-4.07,11.99,1.13,2,2.26,4.01,3.4,5.96-6,3.02-13.85,1.52-16.91-5.83.64-1.26,1.45-2.71,2.46-4.3,2.56-5.52-1.62-3.38-3.29-1.47-3.46,4.14-5.89,8.09-9.43,11-.91.75-3.14,2.22-4.23,2.7-2.38,1.04-6.07,1.7-8.96.9-1.69-.47-4.48-1.51-6.16-3.36.17-1.67.58-3.09,1.21-4.43,2.15-3.89-.19-4.09-1.15-3.4-2.62,1.66-5.83,4.79-8.4,7.03-5.03,4.37-14.4,5.98-21.06,5.23-6.48-.67-14.46-6.08-14.05-13.55,1.23-2.99.56-4.38-1.54-2.37-3.56,3.42-5.71,8.62-8.7,10.9-6.54,5-15.95,4.28-17.04-1.43.47-1.72,1.34-3.46,2.07-5.18,2.08-4.91-.69-3.7-1.59-2.85-4.72,4.46-7.7,9.61-12.57,12.62-1.34.83-5.34,1.82-5.34,1.82-4.38.46-8.91-.83-11.02-4.04-.41-1.31,0-2.74,1.25-4.46,2.14-3.88-.19-3.93-1.15-3.37-2.66,1.64-5.56,5.18-8.46,7.06-.92.59-6.01,3-9.26,3.96-4.56,1.34-13.33,2.94-18.03-3.49-1.12-1.54-3.25-9.61-4-14.67-.93-7.02-2.11-13.88-2.62-19.12,5.5-1.85,16.65-11,16.34-17.97-2.59,1.63-8.74,6.26-17.17,9.76-.69-7.13-1.9-13.83-4.78-20.17-1.53,4.06-2.3,6.72-3.95,11.56.65,3.86,1.18,8.06,1.79,12.18-9.05,4.13-17.12,9.68-22.9,17.9-3.07,4.36-5.59,9.49-6.47,15.32-.62,4.09,1.04,6.22,6.24,7.73,5.15,1.49,16.17-.51,21.83-5.86,1.96-2.16,3.51-5.6,4.91-9.66.88,6.65,2.72,17.01,5.57,22.64,2.51,4.96,6.06,6.9,11.06,7.37,4.29.4,10.4.61,20.01-7.4.73-.61,3.06-2.72,3.73-3.35.37,3.96,1.99,6.5,4.12,8.37,4.84,4.26,12.5,1.32,12.5,1.32,3.77-1.82,7.96-5.67,9.69-7.61.65-.74,1.94-2.15,2.66-3,.06,7.28,7.8,12.13,15.54,9.28,3.2-1.21,5.34-2.86,9.93-8.98.5-.67,1.83-2.53,2.39-3.18,3.22,9.64,10.08,14.33,18.21,14.04,8.19-.24,14.76-3.15,19.37-6.67,2.3-1.76,4.12-3.34,4.74-3.91.76,7.89,6.67,10.11,13.13,9.95"/>
      </g>
      <polygon class="cls-2" points="681.35 393.87 689.69 402.21 698.77 393.14 689.69 384.06 680.71 393.04 672.37 384.7 663.3 393.78 672.37 402.85 681.35 393.87"/>
      <polygon class="cls-2" points="388.91 393.87 397.25 402.21 406.33 393.14 397.25 384.06 388.27 393.04 379.93 384.7 370.86 393.78 379.93 402.85 388.91 393.87"/>
      <polygon class="cls-2" points="404.28 494.16 395.94 485.82 386.86 494.89 395.94 503.97 404.92 494.99 413.26 503.33 422.33 494.25 413.26 485.18 404.28 494.16"/>
      <polygon class="cls-2" points="564.96 403.69 573.3 412.03 582.38 402.96 573.3 393.88 564.32 402.87 555.98 394.52 546.9 403.6 555.98 412.67 564.96 403.69"/>
      <g>
        <path class="cls-2" d="M955.44,464.24c6.93-.32,12.54,1.26,15.16,6.91-4.95,4.21-13.14-2.02-15.16-6.91M900.9,459.53c1.8-2.81,4.11-3.81,6.46-3.46,3.02.45,5.83,2.68,7.62,6.38-4.3.56-13.61.28-14.07-2.92M969.59,454.33c-3.52-2.33-9-3.39-18.45-1.02-2.18-9.88-5.64-47.84-12.44-84.94-1.15,2.79-5.11,14.53-5.11,14.53.15,2.01,3.93,32.51,5.24,42.94,1.58,12.55,3.58,24.95,4.56,29.74-5.37,2.42-7.46,3.94-16.57,6.16-1.14-3.29-3.28-8.21-6.23-11.72-3.81-4.54-9.19-7.16-14.87-4.95-5.49,2.14-10.17,9.19-10.86,15.82-.62,5.96,1.07,9.3,5.13,11.58,5.26,2.96,14.03,2.25,19.94,1.25,1.25,2.81,1.67,6.31,1.55,9.02-9.85,8.29-41.09,28.43-93.71,41.81-6.77,1.72-6.52,3.17.24,2.51,9.97-.98,19.35-1.91,27.76-3.12,3.16-.48,6.44-.89,9.61-1.38,0,0,19.58-4.46,50.96-26.16,2.9-2.01,4.66-4.61,6.15-7.28,1.09-1.96,1.9-4.06,2.63-6.26.83-2.52,1.73-6.92,1.96-10.07,3.62-1.11,11.53-3.52,19-7.22,3,9.96,8.08,16.74,16.33,18.59,4.89.65,8.66-2.75,11.23-10.9,3.1-8.8,1.79-15.11-4.06-18.93"/>
        <path class="cls-2" d="M566.55,452.55c-2.16-4.53-3.77-9.17-4.56-13.98,1.67-3.78,4.27-6.75,8.28-5.9,4.85,2.67,6.4,8.53,7.35,13.04-3.69,2.55-7.38,4.83-11.08,6.83M476.62,465.4c5.41-5.32,16.5-13.37,27.82-19.75,12.59-5.86,24.85-7.1,34.47,5.85-5.26,5.83-34.47,15.89-62.3,13.9M593.96,368.29l-5.23,14.62c.28,2.36,6.14,48.15,8.73,68.08.47,3.63.37,9.87.28,11.87-9.54,5.13-22.27,8.82-27.23-1.45,9.49-4.71,11.17-12.97,11.09-22.28-.52-7.37-2.34-13.15-5.78-16.62-2.51-2.39-5.33-2.51-8.49-.36-6.92,4.7-8.8,16.46-8.76,21.51.03,3.16.37,7.02,1.33,11.74-2.55,1.23-19.25,5.83-23.38,6.37,5.36-4.91,10.18-13.52,7.85-21.19-4.2-9.51-18.22-12.43-26.08-9.97-15.15,4.75-34.46,19.65-34.73,19.93.19-1.45,1.88-5.35,1.52-16.75-.47-14.85-8.18-66.05-8.21-66.13l-5.12,14.58c1.6,10.44,6.47,45.98,7.68,62.45.24,3.33.22,6.57.28,9.6-5.51,5.21-10.66,9.83-13.21,10.38-4.17-.05-8.21-.57-10.81-2.26-4.39-3.06-7.73-12.11-10.5-12.5l-3.88,11.35c2.51,3.02,7.38,8.99,9.58,17.25.73,2.74.57,5.79.5,7.46-9.85,8.3-31.99,24.96-84.61,38.35-6.77,1.72-6.51,3.17.24,2.51,9.97-.97,19.35-1.91,27.76-3.12,3.16-.48,6.44-.89,9.61-1.38,0,0,10.49-.99,41.86-22.7,2.9-2.01,4.47-4.72,6.15-7.28,2.05-4.38,3.07-8.51,3.37-13.56.08-1.35.08-2.58-.06-3.46,4.94,2.28,15.37,2.97,28.74,2.67,18.85-.42,37.14-1.94,55.62-5.53,13.46-2.61,21.66-6.76,23.36-7.89,2.07,7.19,6,14.56,13.03,16.06,5.72,1.22,16.6-2.13,20.41-5.89.67-.85,2.38-3.68,2.91-4.91.81-1.9,1.58-4.33,2.06-7.38.2-1,1.08-8.37,1.15-9.46,1.02-13.71-1.18-24.1-2.85-37.77-.37-3.04-6.15-46.88-6.18-46.95"/>
        <path class="cls-2" d="M106.17,445.98c2.34-3.23,5.3-4.22,7.71-3.89,4.12.56,6.97,8.8,7.19,9.72-4.94-.98-10-3.13-14.91-5.83M130.38,455.74c.45-6.81-2.15-18.56-8.63-23.38-8.47-6.31-17.79,4.53-20.46,10.71-.61-.55-.98-.56-1.39.36-.37.82-2.71,9.8-4.32,12.54-2.24,3.82-5.46,7.91-10.74,11.92-15.06,11.45-35.85,22.02-79.59,33.15-7.16,1.82-6.89,3.35.25,2.65,10.54-1.03,20.48-1.99,29.37-3.3,3.34-.49,6.86-.7,10.17-1.46,12.22-2.81,24.38-7.49,44.19-23.76,2.24-1.84,7.94-8.74,10.85-19.51,0,0,9.09,8.22,24.09,10.03,2.46-2.99,4.68-6.18,6.22-9.96"/>
        <path class="cls-2" d="M324.05,368.33l-5.19,14.53c.29,2.45,2.7,25.14,3.97,34.57,2.73,20.28,5.27,33.74,4.64,47.36-5.92,3.41-16.85,6.48-22.78,2-3.9-2.94-6.13-8.42-7.54-14.32-3.65-15.3-3.76-30.49-6.06-46-2.74-18.41-2.92-27.64-4.89-38-1.19,3.99-3.83,10.72-5.14,14.68,1.86,9.98,5.98,44.4,6.65,63.81.11,3.39-.25,6.66-.75,9.24-.27-1.76-.6-3.3-.83-4.35-3.34-14.92-8.9-24.5-18.97-34.97-4.98-5.18-11.27-12.1-20.36-21.56-9.09-9.46-15.17-16.55-15.2-16.53.05.5,2.53,11.72,3.29,14.81,3.51,5.46,9.37,11.67,24.08,27.07,14.3,15.91,20.3,21.8,26.01,39.84.01.04.02.07.03.1-4.24,7.96-13.71,18.63-37.39,29.43-9.16,4.18-15.81,5.73-16.59,6.02-5.92,2.25-.11,2.41,2.84,2.01,14.32-1.92,16.82-2,26.92-5.68,15.25-5.57,21.62-12.95,25.08-19.96,3.34-6.77,4.53-20.94,4.53-20.94.01-.03.02-.06.03-.09,2.18,11.17,1.9,27.51,17.24,30.58,1.09.25,3.02.32,4.55.27,1.68-.05,2.8-.26,3.43-.37,3.72-.64,7.66-1.89,11.55-5.78,8.3-11.84,6.91-35.51,4.56-51.85-3-20.82-7.65-55.84-7.68-55.92"/>
        <path class="cls-2" d="M247.01,459.4c.94-4,2.15-8.35,3.08-12.35-5.65,6-15.3,13.25-24.62,17.7-4.85,2.31-10,3.79-15.61,2.05-9.07-2.82-15.35-11.74-18.85-26.26,7.73-7.28,27.39-14.8,42.4-8.65,4.3,1.76,4.41,1.17.7-2.44-7.72-7.5-20.63-10.05-30.97-6.38-7.84,2.78-12.76,9.19-14.87,13.16-2.07,3.89-2.78,7.56-2.63,11.01.38,8.6,3.28,15.46,7.87,20.48-14.88-.21-20.8-9.28-22.21-15.31-3.65-15.61-2.79-23.8-5.1-39.63-2.74-18.79-2.79-27.41-5.82-44.85-1.19,4.07-3.96,10.61-5.14,14.68,1.86,10.18,5.28,44.4,6.61,64.18.09,1.29-.46,8.61-.75,9.43-.27-1.79-.6-3.37-.83-4.44-3.07-14.03-8.24-23.22-16.82-33.05-4.38-5.03-15.76-16.35-20.12-21.29-.88-1-16.8-18.39-16.8-18.39,0,0,2.65,11.96,3.29,14.81,8.45,11.24,8.45,10.96,23.16,26.67,14.3,16.24,20.42,21.68,26.13,40.09.01.04.02.07.03.11-4.24,8.12-13.57,18.25-37.25,29.27-9.16,4.26-15.81,5.84-16.59,6.15-5.92,2.3-.11,2.45,2.83,2.05,14.32-1.96,16.83-2.04,26.92-5.8,15.25-5.68,21.68-12.45,25.15-19.61,3.34-6.91,4.53-21.36,4.53-21.36.01-.03.02-.06.03-.09,5.77,30.25,20.15,30.61,36.44,31.52,11.5.65,28.98-5.4,45.8-23.45"/>
        <path class="cls-2" d="M633.08,208.96c-.52-5.63-1.62-11.76-3.49-18.46,0,0-3.37-13.26-13.63-23.27,4.37-4.42,7.98-9.69,10.35-16.02,0,0,5.11-12.16,3.02-31.8,10.9,14.25,18.91,30.17,22.03,36.78l-8.05,8.05,8.37,8.37c-3.33,15.16-10.53,27.04-10.53,27.04-1.94,3.14-4.76,6.27-8.07,9.31M541.84,164.61c-22.56,9.77-44.62-.04-45.38-.38h0c.7.06,16.49,1.62,22.82.04,7.39-1.85,16.02-6.8,22.81-22.27,0,0,9.68-24.52,19.7-33.92,6.58-6.17,15.81-12.35,22.61-16.3,7.62-.3,13.14,1.96,13.14,1.96,4.02,1.12,7.94,3.1,11.73,5.67-1.67,19.21-11.03,31.22-11.03,31.22-8.7,10.4-14.9,13.41-20.75,12.71-2.76-9.17,1.77-19.97,1.77-19.97,5.51-18.02,23.45-17.26,23.45-17.26-40.13-12.15-41.67,19.61-41.67,19.61-.29,22.2,20.89,26.52,23.72,27,.95.21,1.88.34,2.89.35,21.07.23,28.66-28.95,30.19-36.03,1.22,15.76-1.51,31.21-12.54,42.74-2.8-1.3-5.9-2.32-9.32-2.9,0,0-15.54-2.06-28.71.21-8.01,1.11-16.19,3.51-25.43,7.51M518.68,209.87s24.52,9.68,33.91,19.7c6.17,6.58,12.35,15.81,16.3,22.61.3,7.62-1.97,13.14-1.97,13.14-1.12,4.02-3.09,7.95-5.67,11.73-19.2-1.68-31.22-11.03-31.22-11.03-10.4-8.71-13.4-14.9-12.71-20.75,9.17-2.76,19.97,1.77,19.97,1.77,18.02,5.51,17.26,23.45,17.26,23.45,12.15-40.13-19.61-41.67-19.61-41.67-22.19-.29-26.52,20.89-27,23.72-.21.95-.34,1.88-.35,2.89-.23,21.07,28.95,28.66,36.03,30.19-15.77,1.22-31.22-1.51-42.75-12.55,1.29-2.79,2.29-5.86,2.87-9.25,0,0,1.93-14.63-.02-27.52-1.03-8.41-3.46-16.95-7.67-26.67-9.77-22.56.04-44.62.38-45.38h.01c-.07.7-1.64,16.49-.05,22.82,1.85,7.39,6.8,16.02,22.27,22.81M504.49,319.13l-8.05-8.05-8.37,8.37c-15.16-3.33-27.04-10.53-27.04-10.53-3.12-1.93-6.24-4.74-9.26-8.02,5.6-.52,11.71-1.62,18.38-3.48,0,0,13.3-3.38,23.31-13.67,4.41,4.37,9.69,7.97,16.01,10.34,0,0,12.15,5.11,31.79,3.02-14.25,10.9-30.17,18.91-36.77,22.03M473.62,164.18c-7.39,1.85-16.02,6.8-22.81,22.27,0,0-9.68,24.52-19.7,33.91-6.58,6.17-15.81,12.35-22.61,16.3-7.62.3-13.14-1.97-13.14-1.97-4.02-1.12-7.95-3.09-11.73-5.67,1.67-19.2,11.03-31.22,11.03-31.22,8.7-10.4,14.9-13.4,20.75-12.71,2.76,9.17-1.77,19.98-1.77,19.98-5.51,18.02-23.45,17.26-23.45,17.26,40.13,12.15,41.67-19.61,41.67-19.61.29-22.2-20.89-26.52-23.72-27-.95-.21-1.88-.34-2.89-.35-21.07-.23-28.66,28.95-30.19,36.04-1.22-15.76,1.5-31.21,12.54-42.74,2.8,1.3,5.89,2.32,9.32,2.9,0,0,15.54,2.05,28.71-.22,8.01-1.11,16.19-3.51,25.43-7.51,22.56-9.77,44.62.04,45.37.38,0,0,0,0,0,.01-.7-.07-16.49-1.64-22.82-.05M341.55,172.27l8.05-8.05-8.37-8.37c3.32-15.16,10.53-27.04,10.53-27.04,1.93-3.13,4.74-6.25,8.03-9.28.56,5.64,1.67,11.77,3.53,18.43,0,0,3.37,13.26,13.63,23.26-4.37,4.42-7.98,9.7-10.35,16.02,0,0-5.11,12.15-3.02,31.79-10.91-14.25-18.91-30.17-22.03-36.77M474.23,118.59s-24.52-9.68-33.92-19.7c-6.17-6.58-12.35-15.81-16.3-22.61-.3-7.62,1.96-13.14,1.96-13.14,1.12-4.02,3.1-7.95,5.67-11.73,19.21,1.67,31.23,11.03,31.23,11.03,10.4,8.7,13.4,14.9,12.71,20.75-9.17,2.77-19.97-1.77-19.97-1.77-18.02-5.51-17.26-23.45-17.26-23.45-12.15,40.13,19.61,41.67,19.61,41.67,22.2.29,26.52-20.89,27-23.72.21-.95.34-1.88.35-2.89.23-21.07-28.95-28.66-36.03-30.19,15.76-1.22,31.21,1.5,42.74,12.54-1.3,2.8-2.32,5.89-2.9,9.32,0,0-2.06,15.54.21,28.71,1.11,8.01,3.51,16.19,7.52,25.43,9.77,22.56-.04,44.62-.38,45.37,0,0,0,0-.01,0,.07-.7,1.64-16.49.06-22.82-1.85-7.39-6.8-16.02-22.27-22.81M488.42,9.33l8.05,8.05,8.37-8.37c15.16,3.32,27.04,10.53,27.04,10.53,3.12,1.93,6.25,4.74,9.27,8.03-5.64.56-11.76,1.67-18.43,3.53,0,0-13.26,3.37-23.27,13.63-4.42-4.37-9.69-7.98-16.02-10.35,0,0-12.16-5.11-31.8-3.02,14.25-10.91,30.17-18.91,36.78-22.03M496.46,164.23s0,0,0,0h0s0,.01,0,0M496.45,164.23h0s0,0,0,0h0M496.45,164.23s0,0,0,0h0s0,0,0,0ZM496.45,164.23s0,0-.01,0h.01M660.68,164.24l-8.29-8.29c-4.16-33.53-15.79-51.07-28.52-59.95-1.95-5.45-4.48-11.2-7.72-17.18-6.75-21.32-21.7-30.43-21.7-30.43,10.17,15.04,14.17,28.94,14.93,40.87-6.89-1.86-13.39-1.99-18.47-1.54-7.52-.12-11.9.6-19.93,3.57-9.59,3.56-20.3,9.66-31.05,22.83,0,0-4.26,5.7-7.63,13.84-3.37,8.12-12.86,32.47-35.83,36.27.62-.79,10.76-13.93,13.55-23.34,4.35-14.69-9.07-43.27-9.07-43.27-2.31-5.8-6.4-12.17-8.31-16.1,1.61-5.59,3.76-12.15,6.29-17.72,3.32,5.1,6.08,11.29,8.15,18.75,0,0,12.78,40.5,9.17,50.84,4.29-6.9,5.69-23.13,5.69-23.13,0,0,.23-33.98-15.73-57.36h0s13.84-14.22,41.28-17.58c4.97,6.69,9.41,14.08,12.79,20.17-2.99-1.87-6.48-3.31-10.51-3.86-16.72-2.27-23.14-.12-25.39,2.17-2.01,2.04-5.01,7.49-5.18,15.76-.32,4.51.89,13.04,12.23,20.83,0,0,18.02,13.06,26.37-13.26h0c.58-1.7.91-3.01.91-3.01-.32-.89-.95-.14-1.08.1-.51.95-1.82,2.78-3.09,4.47-3.56,1.39-9.53,2.78-15.3-.19-7.33-3.77-12.07-8.38-13.59-13.38,3.12-1.64,7.74-2.77,14.55-2.32,0,0,15.14,1.38,27.02,5.66,5.33,2,22.62,11.7,26.41,14.91,3.86,3.27,4.1,1.74,4.1,1.74,1.16-4.85-15.16-19.9-15.16-19.9-11.24-9.63-19.25-22.82-19.25-22.82-1.65-2.82-3.36-5.4-5.13-7.78.79,0,1.58-.02,2.39,0,0,0,24.91,1.55,33.28,10.76,0,0-12.38-17.31-41.95-18.19-18.72-19.36-40.38-19.38-47.11-18.84l-8.33-8.32-8.29,8.29c-33.54,4.16-51.07,15.79-59.95,28.52-5.45,1.95-11.2,4.48-17.18,7.72-21.32,6.75-30.43,21.7-30.43,21.7,15.04-10.18,28.94-14.17,40.86-14.93-1.86,6.89-1.99,13.39-1.54,18.47-.12,7.52.6,11.9,3.57,19.93,3.56,9.59,9.66,20.3,22.83,31.05,0,0,5.7,4.26,13.84,7.63,8.12,3.36,32.47,12.86,36.27,35.83-.8-.62-13.93-10.76-23.34-13.55-14.69-4.35-43.27,9.07-43.27,9.07-5.8,2.31-12.17,6.4-16.1,8.31-5.59-1.61-12.15-3.76-17.72-6.29,5.1-3.32,11.29-6.09,18.75-8.15,0,0,40.5-12.79,50.84-9.17-6.9-4.3-23.13-5.69-23.13-5.69,0,0-33.98-.23-57.36,15.73h0s-14.21-13.84-17.58-41.28c6.69-4.97,14.08-9.41,20.17-12.79-1.87,2.99-3.31,6.48-3.86,10.52-2.27,16.72-.12,23.14,2.17,25.39,2.04,2.01,7.49,5.01,15.76,5.18,4.51.32,13.05-.9,20.83-12.23,0,0,13.06-18.02-13.26-26.37h0c-1.71-.58-3.02-.9-3.02-.9-.89.32-.14.95.1,1.08.95.51,2.78,1.82,4.47,3.08,1.39,3.56,2.78,9.53-.19,15.3-3.77,7.34-8.38,12.08-13.38,13.59-1.64-3.13-2.77-7.74-2.32-14.55,0,0,1.38-15.14,5.66-27.02,2-5.33,11.7-22.62,14.91-26.41,3.27-3.86,1.74-4.1,1.74-4.1-4.85-1.16-19.9,15.16-19.9,15.16-9.63,11.24-22.82,19.25-22.82,19.25-2.82,1.65-5.4,3.36-7.78,5.13,0-.79-.02-1.58,0-2.39,0,0,1.55-24.91,10.76-33.28,0,0-17.31,12.38-18.19,41.95-19.36,18.72-19.38,40.37-18.84,47.11l-8.32,8.33,8.29,8.29c4.16,33.53,15.79,51.07,28.52,59.95,1.95,5.45,4.48,11.19,7.72,17.18,6.75,21.32,21.7,30.43,21.7,30.43-10.17-15.04-14.17-28.94-14.93-40.86,6.89,1.86,13.39,1.98,18.47,1.54,7.52.11,11.9-.6,19.93-3.58,9.59-3.55,20.3-9.66,31.05-22.82,0,0,4.26-5.71,7.63-13.84,3.36-8.13,12.86-32.47,35.83-36.27-.62.8-10.76,13.93-13.55,23.34-4.35,14.69,9.07,43.26,9.07,43.26,2.3,5.79,6.38,12.13,8.3,16.07-1.61,5.59-3.76,12.16-6.29,17.74-3.32-5.1-6.08-11.28-8.14-18.74,0,0-12.79-40.5-9.17-50.84-4.29,6.9-5.69,23.13-5.69,23.13,0,0-.23,34,15.74,57.38-.02.01-.04.03-.05.05,0,0-13.78,14.78-41.71,16.88-4.78-6.52-9.05-13.63-12.32-19.53,2.99,1.87,6.48,3.31,10.52,3.86,16.72,2.27,23.14.12,25.39-2.16,2.01-2.04,5.01-7.49,5.18-15.76.32-4.51-.9-13.05-12.23-20.83,0,0-18.02-13.06-26.37,13.25h0c-.58,1.71-.91,3.01-.91,3.01.32.89.95.14,1.08-.1.51-.95,1.82-2.78,3.08-4.47,3.57-1.39,9.53-2.78,15.3.18,7.33,3.77,12.07,8.38,13.59,13.39-3.13,1.64-7.74,2.77-14.55,2.32,0,0-15.14-1.38-27.02-5.66-5.33-2-22.62-11.7-26.41-14.91-3.86-3.27-4.1-1.74-4.1-1.74-1.16,4.85,15.16,19.9,15.16,19.9,11.24,9.63,19.25,22.82,19.25,22.82,1.37,2.35,2.79,4.53,4.25,6.58-.34-.01-.67-.02-1.01-.04-5.2-.3-20-1.8-32.61-10.4,0,0,11.59,17.81,40.7,19.01,18.73,19.44,40.44,19.46,47.18,18.92l8.33,8.33,8.29-8.29c33.53-4.16,51.07-15.79,59.95-28.52,5.45-1.95,11.19-4.48,17.18-7.72,21.32-6.75,30.43-21.7,30.43-21.7-15.04,10.17-28.94,14.17-40.86,14.93,1.86-6.89,1.98-13.39,1.54-18.47.12-7.52-.6-11.9-3.58-19.93-3.55-9.59-9.66-20.3-22.82-31.05,0,0-5.71-4.26-13.84-7.63-8.12-3.37-32.47-12.86-36.27-35.83.8.62,13.93,10.76,23.34,13.55,14.69,4.35,43.26-9.07,43.26-9.07,5.8-2.31,12.17-6.4,16.11-8.31,5.59,1.61,12.15,3.76,17.72,6.29-5.1,3.32-11.29,6.08-18.75,8.15,0,0-40.5,12.78-50.84,9.17,6.9,4.29,23.14,5.69,23.14,5.69,0,0,33.98.23,57.36-15.73h0s14.81,13.81,16.88,41.79c-6.51,4.76-13.6,9.02-19.48,12.28,1.87-2.99,3.31-6.48,3.86-10.51,2.27-16.72.12-23.14-2.16-25.39-2.04-2.01-7.49-5.01-15.76-5.18-4.51-.32-13.05.89-20.83,12.23,0,0-13.06,18.02,13.25,26.37h0c1.71.58,3.01.9,3.01.9.89-.32.14-.95-.1-1.08-.95-.51-2.78-1.82-4.47-3.09-1.39-3.56-2.78-9.53.18-15.3,3.77-7.33,8.38-12.07,13.39-13.59,1.64,3.12,2.77,7.74,2.32,14.55,0,0-1.38,15.14-5.66,27.02-2,5.33-11.7,22.62-14.91,26.41-3.27,3.86-1.74,4.1-1.74,4.1,4.85,1.16,19.9-15.16,19.9-15.16,9.63-11.24,22.82-19.25,22.82-19.25,2.33-1.36,4.49-2.77,6.52-4.21-.01.32-.02.62-.04.93-.3,5.2-1.8,20-10.4,32.6,0,0,17.77-11.56,19-40.6,19.5-18.74,19.52-40.49,18.98-47.24l8.33-8.33Z"/>
      </g>
    </g>
    <g>
      <path class="cls-1" d="M677.12,638.99c.32,2.6.19,1.61.53,4.18.81,6.21,1.68,12.42,2.35,18.66.07,1.93.12,3.77.13,5.38-.04,1.27.14,1.33.58.21.55-1.14.89-2.87,1.03-5.15.39-5.21-.32-10.65-.99-15.84-.13-1.15-.29-2.35-.48-3.53-.37-2.52-2.57-17.57-2.58-17.6l-1.68,4.93c.11.9.21,1.8.33,2.7.26,2.03.52,4.06.78,6.07Z"/>
      <path class="cls-1" d="M491.91,653.7c-1.44-2.16-3.97-4.43-6.66-2.93-2.48,1.44-4.09,4.91-3.44,7.5.42,1.66,1.78,2.88,4.45,2.79,1.32.03,3.34-.36,4.99.86.55.4,1.05,1.18,1.48,2.02-2.11,1.96-4.55,3.67-7.1,5.24-2.42,1.49-8.9,5.53-21.36,9.05-2.1.99-1.63,1.09,0,.79,2.83-.47,5.69-.94,8.81-1.36,2.75-.23,4.37-.44,6.31-1.02.88-.26,3.86-1.75,4.6-2.19,1.98-1.19,5.24-2.99,8.5-6.62.58-1.03.99-2.12,1.17-3.31.36-1.71.37-3.49.22-5.3-.32-2.08-.94-3.95-1.98-5.52ZM483.75,655.9c.61-.91,1.39-1.6,2.75-1.18,1.34.66,2,1.34,2.51,2.01-1.53-.14-4.79.31-5.27-.84Z"/>
      <path class="cls-1" d="M700.03,653c-.49-1.05-1.43-2.72-2.22-4.47-.57-1.28-1.13-2.59-1.48-3.51-.07-.11-.13-.22-.18-.32,0,0-.61,3.32-.74,4.54-.03.23.5,1.62.65,2.03,1.55,4.3,3.09,5.4,3.52,7.21-.28.37-2.03,1.1-3.1,1.29-.32-.96-.71-1.77-1.14-2.44-1.4-2.15-3.37-3.09-4.75-2.99-1.78.13-2.99,1.56-3.49,2.33-2.01,3.1-1.38,6.22.13,7.25,2.03,1.38,5.8.71,7.62.4.39.66.57,1.43.53,2.61,0,0,0,.02,0,.03-.21.19-.74.64-.74.64-1.25.89-3.09,2.04-5.51,3.32-5.78,3.05-12.88,6.2-25.22,8.8-2.4.5-2.33,1.02.05.88,3.51-.19,6.81-.38,9.78-.68,1.11-.12,2.27-.22,3.39-.34,0,0,5.21-.23,16.25-7.8,2.05-1.41,2.97-3.82,3.16-4.35.03-.08.07-.15.1-.22,0,0-.01,0-.02,0,.35-1.05.64-2.33.76-3.79,2.62-1.07,3.36-3.05,3.6-5.3,0-.02,0-.04,0-.05.17-2.23-.34-3.77-.94-5.06ZM687.77,659.79c.6-.96,1.58-1.48,2.51-1.36,1.09.14,2.21.98,2.72,2.1-.61.15-3.95.58-5.23-.74Z"/>
      <path class="cls-1" d="M583.97,640.87c.32,2.6.19,1.61.53,4.18.81,6.21,1.41,10.09,2.09,16.33.07,1.93.12,3.77.13,5.38-.04,1.27.14,1.33.58.21.55-1.14.89-2.87,1.03-5.15.39-5.21-.32-10.65-.99-15.84-.13-1.15-.03-.02-.21-1.2-.37-2.52-2.57-17.57-2.58-17.6l-1.68,4.93c.11.9.21,1.8.33,2.7.26,2.03.52,4.06.78,6.07Z"/>
      <path class="cls-1" d="M468.55,663.52c1.77-.63,3.15-1.98,3.57-3.98.7-2.51.67-5.35-.62-7.58-.6-1.04-1.36-2.01-2.16-2.94-.4,1.36-.79,2.72-1.19,4.08,1.73,1.8,2.62,3.3,3.12,4.67-2.63,2.06-6.12,2.23-9.21,1.44.7-1.41,1.39-2.85,1.74-4.38.48-2.1.55-8.94-2.74-9.16-2.3.64-3.85,2.86-5.3,5.3-1.35,3.27-2.03,6.32-.65,9-1.86.76-4.94,2.04-7.02,1.06-.35-.17-1.34-.91-1.81-1.62-.39-.59-.92-1.62-1.65-3.52-.36-.94-.55-1.85-1.59-2.03-1.06-.01-2.01.68-2.97,1.22-2.55,1.79-3.79,3.93-4.66,6.52-.67,1.96-.69,3.79-.85,5.66-.68.28-1.44.55-2.11.77-.93.31-2.83,1.1-4.55,1.14-1.12.02-2.19-.19-3.07-.74-1.48-1.24-1.85-2.66-1.81-4.35.6-1.88-.33-1.61-.79-1.21-3.56,3.46-5.31,7-9.95,7.9,0,0-.01,0-.02,0-4.21.58-6.29-1.86-7.44-5.04-1.81-4.99-2.14-11.14-2.57-16.4-.39-4.81-.24-6.35-.68-11.17-.65-7.13.19-9.21-2.05-14.83-.39,1.36-.92,3.66-1.31,5.01,2.42,10.43.94,35.8,5.54,42.92,1.75,3.2,4.59,4.24,7.62,4.07,3.81-.22,6.87-3.13,8.84-6.65.46-.42.97-1.53,1.03-.92.38,4.21,3.52,6.1,6.76,5.67.51-.07.98.16,7.58-2.53,1.22,2.11,2.36,4.27,5.26,5.59.95.37,2.09.49,3.22-.43.83-.76,1.31-1.66,1.6-2.6.86-2.77,1.02-6.13-2.13-7.5-1.71-.51-3.7-.51-6.78.37-.44-1.09-.72-2.34-.57-3.62.84-1.46,1.79-2.77,3.31-3.77.89-.54,2.16-1.37,3.14-.69.4.78.54,1.74.84,2.59,1.49,4.33,3.66,4.72,4.89,4.89.56.08,1.16.04,2.03-.05,2.84-.29,6.03-2.08,7.72-3.17,2.7,1.65,7.31,2.14,10.42,1.03ZM444.52,671.84c-1.55,1.59-4.56-.6-5.38-1.81,2.1-.34,4.67.3,5.38,1.81ZM458.9,657.97c-1.26-.59-2.25-1.64-2.95-3.16.38-1.24.8-2.59,3.04-4.39,1.94-1.22,3.08.7,3.35,4.67-.7,1.04-1.72,2.03-3.44,2.88Z"/>
      <rect class="cls-2" x="509.35" y="676.35" width="4.36" height="4.36" transform="translate(-329.97 560.44) rotate(-45)"/>
      <rect class="cls-2" x="515.88" y="676.35" width="4.36" height="4.36" transform="translate(-328.05 565.06) rotate(-45)"/>
      <rect class="cls-2" x="558.94" y="675.36" width="4.36" height="4.36" transform="translate(-314.74 595.22) rotate(-45)"/>
      <rect class="cls-2" x="689.36" y="638.13" width="4.36" height="4.36" transform="translate(-250.22 676.52) rotate(-45)"/>
      <rect class="cls-2" x="451.12" y="635.95" width="4.36" height="4.36" transform="translate(-318.46 507.44) rotate(-45)"/>
      <rect class="cls-2" x="457.66" y="635.95" width="4.36" height="4.36" transform="translate(-316.54 512.06) rotate(-45)"/>
      <rect class="cls-2" x="466.77" y="667.63" width="4.36" height="4.36" transform="translate(-336.28 527.78) rotate(-45)"/>
      <rect class="cls-2" x="449.45" y="679.41" width="4.36" height="4.36" transform="translate(-358.37 570.12) rotate(-48.64)"/>
      <rect class="cls-2" x="449.04" y="672.89" width="4.36" height="4.36" transform="translate(-353.62 567.58) rotate(-48.63)"/>
      <rect class="cls-2" x="411.12" y="653.97" width="4.36" height="4.36" transform="translate(-352.28 532.71) rotate(-48.63)"/>
      <rect class="cls-2" x="594" y="679.52" width="4.36" height="4.36" transform="translate(-307.41 621.23) rotate(-45)"/>
      <path class="cls-1" d="M387.33,655.49c-.45,1.56-.74,3.16-1.19,4.72,1.98,2.07,2.91,3.95,3.49,5.52-1.36,1.07-3.11,1.49-4.32,1.51-3.27-.31-3.55-5.07-3.81-6.48-.24-1.35-.43-2.71-.59-4.08-.58-4.84-.81-9.75-1.36-14.58-1.01-8.96-.7-9.81-2.6-18.67-.4,1.92-1.02,3.47-1.42,5.39.18,1.7.43,3.92.61,5.62.52,5.42.07,2.77.6,8.06.45,6.71,1.65,18.88,1.7,24.42-.21.22-1.17,1.15-1.35,1.28-2.05,1.48-5.12,2.24-7.1,1.65-2.5-.75-2.72-2.96-3.44-6.17-.72-3.2-.88-6.58-1.52-9.75-.39-1.94-.99-3.64-1.9-5.01-.84-1.44-1.19.01-1.38.76-.36,1.43-.62,2.61-1.09,3.55-1.21,2.42-3.63,2.67-6.03,2.07-.71-.98-1.64-1.97-2.72-2.95-.35,1.42-.6,2.94-.96,4.36,1.81,2.31,3.18,5.01,3.38,7.84,0,0,0,.45,0,.72,0,.01,0,.02,0,.03-.23.23-.82.78-.82.78-1.4,1.09-3.47,2.51-6.2,4.1-6.53,3.81-12.67,7.1-26.81,10.7-2.75.7-2.64,1.29.1,1.02,4.04-.39,7.85-.77,11.26-1.26,1.28-.19,2.61-.36,3.9-.56,0,0,4.11.18,16.49-9.11,1.7-1.27,2.66-3.15,3.12-4.29l.02.04c.02-.09.48-2.21.49-2.28.2-1.23.13-2.68.17-4.05,4.02-.5,5.22-1.46,5.64-6.53.18-.22.21-.7.36-.31,1.44,3.8,1.51,8.13,2.38,12.18.71,3.3,1.15,6.76,3.53,8.3,2.4,1.54,6.19.34,8.6-1.28l.02.04c1.03-.96,1.56-1.14,2.17-2.49.69-1.53.56-3.8.8-5.26.16,1.16.41,2.17.72,3.04l-.02.09c.94,2.43,2.74,4.96,6.91,3.73.6-.18,2.5-.84,3.53-3.66.8-2.88.43-6.51-.81-9.17-.58-1.25-1.64-2.5-2.55-3.58Z"/>
      <rect class="cls-2" x="385.65" y="645.81" width="4.51" height="4.51" transform="translate(-354.83 510.93) rotate(-48.64)"/>
      <rect class="cls-2" x="364.47" y="637.06" width="4.68" height="4.68" transform="translate(-360.47 519.21) rotate(-50.77)"/>
      <rect class="cls-2" x="357.49" y="637.76" width="4.68" height="4.68" transform="translate(-363.58 514.07) rotate(-50.77)"/>
      <rect class="cls-2" x="345.97" y="642.71" width="4.51" height="4.51" transform="translate(-365.96 480.07) rotate(-48.63)"/>
      <path class="cls-1" d="M673.02,666.98c.2-.3.4-.59.6-.89.53-1.45,1.24-2.89,1.05-4.42-1.2-3.27-3.55-5.11-6.96-5.57-3.64-.68-14.95,1.39-20.87,2.26-5.12.85-14.36,2.33-17.4-.83,2.29-3.11,7.58-7.61,12.61-10.65,1.25-.49,2.3-1.26,3.65-.86.59.36,1.18,1.3,1.52.59.43-.88.77-1.94.74-3.05-1.53-1.58-2.27-1.55-3.01-1.34-2.23,1.04-3.36,1.96-4.64,2.9-4.19,2.77-8.71,6.88-11.02,10.47-.84,1.8-2.16,3.44-1.05,5.86,1.26,1.11,2.4,2.25,11.75,1.45,6.29-.6,17.17-2.83,23.75-3.27,4.26-.08,7.17,1.18,8.45,4.06-5.37.75-15.74,3.12-22.48,4.28-3.49.82-6.63,1.4-9.57,1.82-2.76.39-5.64.75-8.53.92-1.67.1-7.58.43-10.77-.16-.96-.27-2.04-.63-2.96-1.13-.04-.03-.08-.07-.12-.1v.04c-1.15-.66-2.03-1.56-2.04-2.81.26-.6.23-1.2-.15-1.31-.13-.04-1.22.14-1.43.23-4.39,1.96-9.21,3.59-14.24,4.6-5.84,1.17-14.68,2.39-20.29-.56-1.86-.98-3.11-2.57-2.5-5.14.04-.16.08-.32.13-.48,1.06-.11,1.85-.11,3.6-.08.4-1.26,1.05-2.94,1.45-4.21-6.9.11-11.92.09-17.95-1.54.21-.41.32-.91.41-1.44.26-.98,1.15-6.09.5-11.12-.13-1.12-.29-2.28-.46-3.42-.36-2.45-2.49-17.04-2.5-17.07l-1.63,4.78c.1.87.21,1.74.32,2.62.25,1.97.5,3.94.75,5.89.31,2.52.18,1.56.52,4.05.78,6.02.69,4.16,1.34,10.21.03.68.05,1.35.07,2.01h-.03c.02.74.04,1.48.05,2.23-4.42.26-7.58-.19-11.02.4-.55,1.33-1.56,3.17-2.1,4.5.89-.32,1.78-.48,2.68-.48,5.08.14,11.04,1.01,15.68,1.72-3.71,1.88-12.42,6.87-16.74,4.32-2.83-1.67-3.38-4.73-3.95-8.1-.26-1.55-.36-3.25-.56-4.91-.59-4.76-2.12-9.29-4.2-13.6-1.07-2.21-2.27-4.22-3.6-6.05-.28,1.46-.56,2.92-.84,4.38,3.6,7.56,5.55,14.37,6.82,20.89-1.62,2.43-3.41,4.09-5.26,5.54-2.63,2.06-5.26,4.12-8.24,5.64-2.67,1.37-5.29,2.21-7.77,1.29-2.52-1.54-1.88-6.01.4-11.98.05.3.1.6.16.92,1.21,5.68,4.86,6.74,8.55,4.57.75-.41,1.18-1.27,1.55-2.75.75-2.51.64-5.32-.63-7.59-.59-1.06-1.33-2.04-2.12-2.99-.42,1.36-.84,2.72-1.26,4.08,1.71,1.84,2.58,3.36,3.06,4.74-.75.57-1.47.9-2.15,1.06-4.96,1.19-5.91-4.87-6.27-8.25-.15-1.48-.27-3.06-.42-4.63-.45-4.49-1.79-8.79-3.66-12.9-.96-2.1-2.04-4.02-3.25-5.78-.29,1.37-.59,2.74-.89,4.11,3.23,7.19,4.91,13.65,5.96,19.81-1.58,2.25-3.3,3.78-5.07,5.1-2.52,1.89-5.04,3.76-7.88,5.13-2.54,1.23-5.03,1.96-7.34,1.05-2.4-1.54-1.6-5.9.81-11.68.59-1.93.32-2.09-.81-.48-2.66,5.54-3.58,10.09-2.58,13.57,1.46,4.16,5.32,3.9,10.42,1.23,2.96-1.55,5.84-3.52,8.37-5.7,1.2-1.03,2.32-2.17,3.28-3.55.7-.97,1.12-2.48,1.46-3.91.23,1.23.35,2.22.48,3.23-.14.18-.29.39-.47.66-2.69,5.95-3.55,10.8-2.41,14.48,1.66,4.38,5.74,4.01,11.09,1.05,3.11-1.72,6.11-3.89,8.75-6.26,1.25-1.12,2.41-2.37,3.4-3.85.72-1.04,1.13-2.66,1.46-4.19.58,2.75,1.24,5.68,2.21,7.81,1.4,3.06,4.02,4.4,7.13,3.96,6.45-.73,10.4-6.14,19.26-8.28.44-.06.81-.12,1.15-.16-.91,2.93-1.13,6.05,1.37,8.42,3.01,2.85,8.32,3.16,13.43,2.79,5.26-.37,14.18-2.38,21.33-5.66.53-.24,1.11-.48,2-.81.53,2.84,1.88,4.27,3.57,5.04v.03c3.22,1.63,10.45.87,13.13.69,2.58-.18,5.34-.53,8.2-1.01,5.36-.81,16.55-2.53,27-5.31,2.22-.38,4.45-.76,6.67-1.15Z"/>
      <path class="cls-1" d="M332.15,664.64c.66-.92,1.26-2.74,1.99-4.17-.05.54.12,1.13.38,1.56,1.52,1.33,5.76,4.29,7.64,4.06,1.34.2,2.99-4.03,3.1-4.88-.15-4.1-1.25-6.85-3.1-7.71-1.14-.42-3.58-.62-6.82,3.38-.42-.36-.76-.22-1.02.41-1.07,2-1.39,3.99-3.28,5.71-4.17,2.83-7.51,4.98-13.3,7.23-10,4.16-13.68,4.89-23.72,7.13-2.82.58-2.84.9-.03.85,3.66-.32,7.32-.7,10.98-1.02,2.6-.34,5.69-.06,7.8-1.03,5.69-1.87,5.08-2.25,10.76-4.69,3.91-1.93,6.39-3.29,8.61-6.82ZM342.13,661.25c-1.97-.86-3.49-1.43-5-3.03,2.65-1.95,4.05-.99,5,3.03Z"/>
    </g>
  </g>
</svg>