<?xml version="1.0" encoding="UTF-8"?>
<svg id="Layer_2" data-name="Layer 2" xmlns="http://www.w3.org/2000/svg" viewBox="0 0 131.02 117.83">
  <defs>
    <style>
      .cls-1 {
        fill: #84273d;
      }
    </style>
  </defs>
  <g id="Layer_1-2" data-name="Layer 1">
    <path class="cls-1" d="M21.45,66.35c6.15,8.29,25.2,5.55,44.44-5.75,19.02,11.6,37.47,14.64,43.76,6.33,4.81-6.35,1.33-17.72-7.85-29.5,8.04,11.49,10.86,20.62,6.92,25.82-5.09,6.72-20.68,3.83-37.35-6.11.33-.22.66-.44.99-.67,7.46-5.15,13.74-10.87,18.46-16.53h0c3.73-3.47,17.01-23.12,5.45-28.57-11.56-5.45-28.99,2.68-32.72,11.54-3.73,8.86,8.83,7.52,8.83,7.52-13-1.38-.07-18.9,13.84-18.73,9.19.11,10.22,5.35,9.86,8.88-1.78,8.68-11.63,20.69-26.1,30.66-1.28.88-2.57,1.73-3.86,2.54-1.62-1.1-3.25-2.26-4.86-3.48-20.1-15.22-31.43-34.1-25.31-42.18,4.07-5.37,15.59-5.23,28.57-.17C49.09.73,35.39-.23,30.14,6.7c-7.32,9.66,4.56,30.97,26.51,47.6,1.28.97,2.56,1.89,3.85,2.79-16.23,8.78-31.34,10.99-36.13,4.53-3.23-4.35-1.91-12.47,3.83-20.84-8.04,10.07-11.02,19.81-6.74,25.58"/>
    <polygon class="cls-1" points="94.09 57.69 100.88 57.3 100.94 50.01 93.71 50.9 94.09 57.69"/>
    <polygon class="cls-1" points="103.16 7.29 103.55 14.07 110.34 13.69 110.4 6.4 103.17 7.28 103.23 0 96 .88 96.38 7.67 103.16 7.29"/>
    <path class="cls-1" d="M4.63,91.16c.09.09.2.16.32.22.12.05.25.08.39.08.28,0,.52-.1.71-.29.19-.19.29-.43.29-.72s-.1-.52-.29-.71c-.19-.19-.43-.29-.71-.29-.14,0-.26.03-.39.08-.12.05-.22.12-.32.21-.09.09-.17.2-.22.32-.05.12-.08.25-.08.39s.03.27.08.39c.05.12.13.23.22.32"/>
    <path class="cls-1" d="M2.99,91.46c.28,0,.52-.1.71-.29.19-.19.29-.43.29-.72s-.1-.52-.29-.71c-.19-.19-.43-.29-.71-.29s-.52.1-.71.29c-.19.19-.28.43-.28.71s.09.52.28.72c.19.2.42.29.71.29"/>
    <path class="cls-1" d="M.74,99.48c.09.11.2.21.33.27.13.07.27.1.42.1h.93v-5.13h3.55v3.79c.08.44.25.77.51,1.01.26.23.54.34.84.33h5.07c.25,0,.48-.04.69-.14.21-.1.4-.25.56-.44.16-.2.28-.43.37-.72.09-.28.14-.6.14-.96v-4.71h-.89c-.34.03-.6.17-.77.42-.18.26-.26.56-.24.9v3.74h-4.37v-5.07H1.5c-.58.04-.92.41-1.01,1.1v.6c0,.22,0,.49,0,.82,0,.34,0,.75,0,1.26v1.92c-.01.18,0,.34.05.49.05.15.12.29.21.4"/>
    <path class="cls-1" d="M13.66,101.59c-.09-.09-.19-.16-.31-.21-.12-.05-.25-.07-.39-.07-.13,0-.26.03-.38.07-.12.05-.23.12-.32.21-.09.09-.16.2-.22.32-.05.12-.08.25-.08.38,0,.14.03.27.08.4.06.12.13.23.22.32.09.09.2.16.32.21.12.05.25.08.38.08.28,0,.52-.1.71-.29.19-.19.28-.43.28-.72,0-.13-.02-.26-.08-.38-.05-.12-.12-.23-.21-.32"/>
    <path class="cls-1" d="M10.99,101.37c-.12-.05-.24-.07-.37-.07-.14,0-.27.03-.39.07-.12.05-.23.12-.32.21-.09.09-.16.2-.21.32-.05.12-.08.25-.08.38,0,.29.1.53.29.72.19.19.43.29.71.29.13,0,.25-.02.37-.07.12-.05.23-.12.32-.21.09-.09.16-.2.22-.32.05-.12.08-.26.08-.4s-.03-.26-.08-.38c-.05-.12-.13-.23-.22-.32-.09-.09-.2-.16-.32-.21"/>
    <path class="cls-1" d="M15.74,103.69c.61-.48,1.09-1.04,1.42-1.68.33-.63.56-1.35.68-2.16h27.98c.55.01.98-.22,1.31-.69.33-.47.48-1.14.47-1.99v-9.32h-.91c-.13,0-.26.04-.36.1-.11.06-.21.14-.29.24-.08.1-.15.22-.21.35-.06.13-.1.27-.14.41v8.98h-2.65v-5.07h-6.38c-.28.02-.52.12-.72.31-.2.19-.31.46-.35.82v3.94h-2.42v-5.07h-7.23c-.18,0-.37.02-.57.05-.2.04-.41.1-.62.19-.21.09-.43.22-.65.4-.22.18-.45.41-.69.69-.24.28-.49.63-.74,1.04v-7.39s-.9,0-.9,0c-.28.01-.51.12-.68.31-.17.2-.28.46-.33.79v8.98h-2.93v-5.07h-.91c-.36.11-.64.32-.84.64-.2.32-.29.75-.28,1.3v5.85c-.06.32-.15.62-.28.89-.12.27-.27.53-.44.77-.17.24-.37.47-.59.69-.22.22-.46.44-.71.66h1.94ZM37.59,94.73h3.56v3.22h-3.56v-3.22ZM23.63,96.34c.33-.41.65-.72.96-.94.32-.23.63-.39.94-.48.31-.09.62-.15.94-.19h4.82v3.22h-8.67c.35-.67.68-1.2,1-1.61"/>
    <path class="cls-1" d="M40.03,89.53c-.12.05-.22.12-.31.21-.09.09-.16.2-.21.32-.05.12-.07.25-.07.39s.03.27.07.39c.05.12.12.23.21.32.09.09.19.16.31.22.12.05.25.08.4.08.29,0,.53-.1.71-.29.18-.19.28-.43.28-.72s-.09-.52-.28-.71c-.18-.19-.42-.29-.71-.29-.14,0-.27.03-.4.08"/>
    <path class="cls-1" d="M38.46,89.53c-.12-.05-.25-.08-.38-.08-.28,0-.52.1-.71.29-.19.19-.29.43-.29.71s.1.52.29.72c.19.2.43.29.71.29.13,0,.25-.03.38-.08.12-.05.22-.13.32-.22.09-.09.16-.2.22-.32.06-.12.08-.25.08-.39s-.02-.27-.08-.39c-.05-.12-.12-.23-.22-.32-.09-.09-.2-.16-.32-.21"/>
    <path class="cls-1" d="M49.78,87.97c-.11.06-.2.14-.28.24-.08.1-.15.22-.21.35-.06.13-.1.27-.14.41v10.89h.92c.28-.03.5-.14.67-.33.16-.19.26-.44.31-.75v-10.91h-.91c-.13,0-.26.04-.36.1"/>
    <path class="cls-1" d="M65.16,87.87c-.58.04-.92.4-1,1.1,0,.96,0,1.88,0,2.76,0,.88,0,1.78,0,2.67s0,1.78,0,2.67c0,.89,0,1.82.01,2.79h9.9c.25,0,.48-.04.7-.14.22-.1.4-.25.57-.44.16-.2.29-.43.38-.72.09-.28.13-.6.13-.96v-1.53c0-.34,0-.77,0-1.28,0-.51,0-1.14,0-1.9h-.89c-.35.03-.61.17-.78.42-.18.25-.25.54-.22.88v3.77h-3.04v-5.07h-.9c-.37.05-.64.2-.79.44-.16.25-.22.54-.2.86v3.76h-2.96v-10.08h-.91Z"/>
    <path class="cls-1" d="M70.98,102.69c.05-.12.08-.26.08-.4,0-.28-.1-.51-.29-.7-.19-.19-.43-.29-.71-.29-.13,0-.26.03-.38.07-.12.05-.23.12-.32.21-.09.09-.16.2-.22.32-.05.12-.08.25-.08.38,0,.14.03.27.08.4.05.12.13.23.22.32.09.09.2.16.32.21.12.05.25.08.38.08.15,0,.27-.02.4-.08.12-.05.23-.12.32-.21.09-.09.16-.2.21-.32"/>
    <path class="cls-1" d="M74.41,91.41c.12.05.25.08.39.08.13,0,.26-.03.38-.08.12-.05.22-.12.31-.21.09-.09.16-.19.22-.31.05-.12.08-.25.08-.39,0-.29-.1-.53-.29-.72-.19-.19-.43-.28-.7-.28-.28,0-.52.1-.71.28-.19.19-.29.43-.29.72,0,.14.02.27.08.39.05.12.12.22.21.31.09.09.2.16.32.21"/>
    <path class="cls-1" d="M77.26,98.97v.89h7.66c1.09-.05,1.65-.67,1.7-1.84v-10.16h-1.9v3.49c0,.39,0,.79.01,1.19v1.31c0,.46,0,.93,0,1.41,0,.47,0,.94,0,1.4v1.28h-3.57v-10.08h-.91c-.13,0-.26.04-.37.1-.11.06-.21.14-.29.24-.08.1-.15.22-.21.35-.06.13-.1.27-.12.41v9.02c-.57-.03-1.03.04-1.39.2-.35.16-.56.42-.63.78"/>
    <path class="cls-1" d="M78.87,86.12c-.02.34.12.5.42.48h1.36c.22.01.39-.07.53-.24.09-.12.15-.26.17-.43.02-.17-.01-.31-.11-.44-.13-.2-.28-.38-.46-.55-.18-.17-.35-.34-.51-.52h1.09v-.47c.03-.33-.11-.49-.41-.48h-1.37c-.13.02-.23.06-.31.12-.08.06-.14.12-.19.2-.05.08-.08.16-.09.25-.01.09-.02.18,0,.27,0,.05.02.11.04.19.02.08.06.15.13.22l.87.92h-1.15v.49Z"/>
    <path class="cls-1" d="M90.07,87.87h-.91c-.13,0-.25.04-.36.1-.11.06-.2.14-.28.24-.08.1-.15.22-.21.35-.06.13-.1.27-.13.41v10.89h.92c.28-.03.5-.14.67-.33.16-.19.26-.44.31-.75v-10.91Z"/>
    <path class="cls-1" d="M100.24,89.53c-.12.05-.23.12-.32.21-.1.09-.16.2-.22.32-.05.12-.08.25-.08.39s.03.27.08.39c.06.12.12.23.22.32.09.09.19.16.32.22.12.05.25.08.38.08.28,0,.52-.1.71-.29.19-.19.29-.43.29-.72s-.1-.52-.29-.71-.43-.29-.71-.29c-.13,0-.26.03-.38.08"/>
    <path class="cls-1" d="M97.58,89.74c-.19.19-.28.43-.28.71s.09.52.28.72c.19.2.43.29.71.29s.52-.1.71-.29c.19-.19.29-.43.29-.72s-.1-.52-.29-.71c-.19-.19-.43-.29-.71-.29s-.52.1-.71.29"/>
    <path class="cls-1" d="M107.38,99.17c.32-.47.48-1.14.47-1.99v-9.32h-.91c-.14,0-.26.04-.36.1-.11.06-.2.14-.28.24-.08.1-.15.22-.21.35-.06.13-.1.27-.14.41v8.98h-2.76v-5.07h-6.38c-.58.04-.91.41-1.01,1.1v.6c0,.22,0,.49,0,.82,0,.34,0,.75,0,1.26v1.92c-.01.18,0,.34.05.49.05.15.11.29.2.4.09.11.2.21.33.27.13.07.27.1.42.1h.93v-5.13h3.55v3.79c.08.44.25.77.5,1,.26.23.54.34.84.33h3.45c.54.01.98-.22,1.31-.69"/>
    <path class="cls-1" d="M111.32,87.87h-.91c-.58.04-.91.4-1,1.1,0,.96,0,1.88,0,2.76,0,.88,0,1.78,0,2.67s0,1.78,0,2.67c0,.89,0,1.82.02,2.79h11.12c.27,0,.52-.02.74-.07.22-.05.41-.14.57-.26.16-.12.28-.29.36-.5.08-.21.12-.46.11-.76v-3.67c.02-.32,0-.58-.09-.8-.08-.22-.2-.4-.35-.54-.15-.14-.34-.24-.57-.3-.22-.06-.46-.09-.72-.09h-2.68c-.42.04-.78.05-1.07.04-.29-.02-.52-.06-.7-.12-.18-.06-.31-.14-.4-.24-.09-.1-.16-.21-.2-.32-.04-.12-.06-.24-.06-.37v-.39c0-.05.03-.15.09-.31.06-.15.14-.33.24-.54.1-.2.21-.43.34-.68s.25-.49.38-.74c.13-.25.25-.49.36-.72.11-.23.21-.44.29-.62h-2.09c-.16.39-.35.81-.56,1.26-.21.45-.4.9-.57,1.36-.17.46-.29.91-.37,1.36-.08.45-.06.86.04,1.24.1.38.32.71.65,1,.33.29.83.5,1.48.65h4.67v3.22h-9.14v-10.08Z"/>
    <path class="cls-1" d="M124.63,92.88c-.56.03-.89.4-.98,1.11v4.96c-.05.61.19.92.71.91h4.9c-.09.46-.21.87-.36,1.25-.16.38-.33.72-.53,1.04-.2.31-.42.6-.65.85-.24.25-.48.49-.73.7h1.91c.46-.36.83-.71,1.12-1.07.28-.36.49-.73.64-1.13.15-.4.25-.82.29-1.28.05-.46.07-.97.07-1.53v-5.79h-6.39ZM129.11,97.95h-3.56v-3.22h3.56v3.22Z"/>
    <path class="cls-1" d="M59.11,97.25c.08-.2.2-.38.35-.55.16-.16.35-.28.54-.36.2-.08.41-.12.62-.12h.19c.18,0,.36-.04.53-.11.18-.07.33-.18.47-.31.14-.14.24-.3.31-.47.07-.18.11-.38.11-.6h-1.72c-.39,0-.77.07-1.14.21-.37.14-.7.37-1,.67-.29.29-.51.61-.66.97-.15.36-.23.73-.23,1.12v.45h-1.86c0,.22.03.42.1.6.07.18.18.33.33.47.14.15.29.26.47.33.17.07.36.1.54.1h3.69c.39,0,.74-.15,1.05-.44.14-.14.25-.3.32-.48.07-.18.11-.37.11-.58h-3.26v-.3c0-.21.04-.42.12-.62"/>
    <path class="cls-1" d="M7.84,114.71c.2-.55.3-1.19.3-1.92,0-1.37-.37-2.44-1.1-3.2-.73-.76-1.72-1.14-2.96-1.14s-2.25.38-2.99,1.14c-.73.76-1.1,1.83-1.1,3.2s.37,2.44,1.1,3.21c.73.76,1.74,1.14,3.03,1.14.67,0,1.28-.12,1.83-.36.7.47,1.07.72,1.13.74.25.13.5.24.75.32l.62-1.2c-.49-.18-.94-.41-1.36-.71.34-.39.58-.8.73-1.22M6.23,114.04c-.11.36-.27.67-.49.93-.51-.38-1.04-.67-1.6-.86l-.48.97c.36.13.71.3,1.05.53-.22.08-.45.12-.69.12-.66,0-1.2-.24-1.63-.73s-.64-1.22-.64-2.2.21-1.69.64-2.17c.43-.48.99-.72,1.68-.72s1.25.24,1.68.72c.43.48.64,1.21.64,2.17,0,.47-.06.89-.16,1.25"/>
    <path class="cls-1" d="M11.89,108.59l-3.27,8.4h1.8l.69-1.91h3.36l.73,1.91h1.85l-3.37-8.4h-1.79ZM11.63,113.67l1.13-3.12,1.16,3.12h-2.29Z"/>
    <polygon class="cls-1" points="23.16 108.59 16.48 108.59 16.48 110.01 18.97 110.01 18.97 116.99 20.67 116.99 20.67 110.01 23.16 110.01 23.16 108.59"/>
    <path class="cls-1" d="M25.8,108.59l-3.27,8.4h1.8l.69-1.91h3.36l.73,1.91h1.85l-3.37-8.4h-1.79ZM25.54,113.67l1.13-3.12,1.16,3.12h-2.29Z"/>
    <path class="cls-1" d="M37.42,113.99c-.24-.26-.54-.49-.91-.7.74-.11,1.29-.37,1.66-.78.37-.41.56-.93.56-1.56,0-.5-.12-.94-.37-1.32-.24-.39-.57-.65-.98-.81-.41-.15-1.06-.23-1.96-.23h-3.57v8.4h1.7v-3.51h.34c.39,0,.67.03.85.1.18.06.35.18.51.35.16.17.46.58.89,1.24l1.23,1.83h2.03l-1.03-1.64c-.41-.65-.73-1.11-.97-1.36M34.81,112.14h-1.26v-2.13h1.32c.69,0,1.1,0,1.24.03.27.05.49.16.64.33.15.17.23.4.23.68,0,.25-.06.46-.17.63-.11.17-.27.29-.48.36-.2.07-.71.1-1.52.1"/>
    <polygon class="cls-1" points="48.7 114.2 45.26 108.59 43.61 108.59 43.61 116.99 45.19 116.99 45.19 111.51 48.58 116.99 50.28 116.99 50.28 108.59 48.7 108.59 48.7 114.2"/>
    <polygon class="cls-1" points="53.77 113.29 57.99 113.29 57.99 111.87 53.77 111.87 53.77 110.01 58.3 110.01 58.3 108.59 52.07 108.59 52.07 116.99 58.46 116.99 58.46 115.58 53.77 115.58 53.77 113.29"/>
    <polygon class="cls-1" points="67.12 114.46 65.64 108.59 63.63 108.59 62.09 114.36 60.82 108.59 59.09 108.59 61.09 116.99 62.93 116.99 64.6 110.71 66.27 116.99 68.07 116.99 70.11 108.59 68.41 108.59 67.12 114.46"/>
    <path class="cls-1" d="M76.12,112.35c-.4-.21-1.01-.41-1.83-.6-.82-.2-1.35-.38-1.56-.56-.17-.14-.25-.31-.25-.51,0-.22.09-.39.27-.52.28-.2.66-.3,1.16-.3s.84.1,1.07.28c.24.19.4.5.47.93l1.7-.07c-.03-.77-.31-1.39-.84-1.85-.53-.46-1.33-.69-2.38-.69-.65,0-1.2.1-1.65.29-.46.2-.81.48-1.05.85-.24.37-.36.77-.36,1.2,0,.67.26,1.23.77,1.69.37.33,1.01.6,1.92.83.71.18,1.16.3,1.36.37.29.1.49.22.61.36.12.14.17.31.17.51,0,.31-.14.58-.41.81-.28.23-.69.35-1.24.35-.52,0-.93-.13-1.23-.39-.3-.26-.51-.67-.6-1.22l-1.65.16c.11.94.45,1.65,1.02,2.15.57.49,1.38.74,2.45.74.73,0,1.34-.1,1.83-.31.49-.2.87-.52,1.13-.94.27-.42.4-.87.4-1.35,0-.53-.11-.98-.34-1.34-.22-.36-.53-.65-.93-.85"/>
    <path class="cls-1" d="M84.05,108.59l-3.27,8.4h1.8l.69-1.91h3.36l.73,1.91h1.85l-3.37-8.4h-1.79ZM83.8,113.67l1.13-3.12,1.16,3.12h-2.29Z"/>
    <path class="cls-1" d="M94.02,113.9h1.94v1.07c-.26.2-.56.37-.92.51-.36.14-.71.21-1.07.21-.72,0-1.3-.25-1.74-.75-.44-.5-.66-1.25-.66-2.24,0-.92.22-1.62.66-2.09.44-.47,1.03-.71,1.77-.71.49,0,.9.12,1.22.36.33.24.55.57.67.98l1.68-.32c-.17-.77-.55-1.38-1.13-1.81-.59-.44-1.4-.66-2.44-.66-.8,0-1.47.14-2.01.42-.71.36-1.24.88-1.61,1.57-.37.68-.55,1.46-.55,2.33,0,.81.16,1.55.49,2.24s.82,1.21,1.47,1.58c.65.37,1.42.55,2.3.55.69,0,1.38-.13,2.05-.39.67-.26,1.19-.57,1.54-.91v-3.35h-3.66v1.42Z"/>
    <polygon class="cls-1" points="100.94 113.29 105.16 113.29 105.16 111.87 100.94 111.87 100.94 110.01 105.47 110.01 105.47 108.59 99.24 108.59 99.24 116.99 105.63 116.99 105.63 115.58 100.94 115.58 100.94 113.29"/>
    <polygon class="cls-1" points="112.18 114.2 108.74 108.59 107.09 108.59 107.09 116.99 108.66 116.99 108.66 111.51 112.05 116.99 113.75 116.99 113.75 108.59 112.18 108.59 112.18 114.2"/>
    <path class="cls-1" d="M120.22,115.26c-.33.29-.71.43-1.16.43-.61,0-1.11-.23-1.49-.68-.38-.45-.57-1.21-.57-2.27,0-1,.19-1.73.58-2.17.39-.45.89-.67,1.52-.67.45,0,.83.13,1.15.38.32.25.52.6.62,1.03l1.68-.4c-.19-.67-.48-1.19-.86-1.55-.64-.61-1.48-.91-2.51-.91-1.18,0-2.13.39-2.85,1.16-.72.77-1.08,1.86-1.08,3.26,0,1.32.36,2.37,1.08,3.13.72.76,1.63,1.14,2.75,1.14.9,0,1.65-.22,2.23-.67.59-.44,1.01-1.13,1.26-2.04l-1.65-.52c-.14.62-.37,1.07-.7,1.35"/>
    <polygon class="cls-1" points="127.12 111.91 125.14 108.59 123.15 108.59 126.23 113.46 126.23 116.99 127.92 116.99 127.92 113.47 131.01 108.59 129.06 108.59 127.12 111.91"/>
  </g>
</svg>