<?xml version="1.0" encoding="UTF-8"?>
<svg id="Layer_2" data-name="Layer 2" xmlns="http://www.w3.org/2000/svg" xmlns:xlink="http://www.w3.org/1999/xlink" viewBox="0 0 288.33 443.36">
  <defs>
    <style>
      .cls-1 {
        fill: #fff;
      }

      .cls-2 {
        fill: #00a651;
      }

      .cls-3 {
        fill: none;
      }

      .cls-4 {
        clip-path: url(#clippath-1);
      }

      .cls-5 {
        fill: #0081c8;
      }

      .cls-6 {
        fill: #ee334e;
      }

      .cls-7 {
        fill: #8b153d;
      }

      .cls-8 {
        clip-path: url(#clippath-2);
      }

      .cls-9 {
        fill: #fcb131;
      }

      .cls-10 {
        fill: url(#linear-gradient);
      }

      .cls-11 {
        clip-path: url(#clippath);
      }
    </style>
    <clipPath id="clippath">
      <rect class="cls-3" width="288.33" height="443.36"/>
    </clipPath>
    <clipPath id="clippath-1">
      <path class="cls-3" d="M31.86,50.19v109.38c0,17.93,2.79,35.4,7.99,51.93,13.01,37.75,40.55,70.19,78.11,90.11h0s-.02-.02-.02-.02c0,0,0,0-.01,0h0c-14.34-8.67-26.93-19.59-37.79-31.91-26.22-29.73-41.62-68.5-41.62-109.88v-20.09h0V55.44c25.92-10.38,63.63-16.92,105.63-16.92s79.7,6.54,105.63,16.92v104.36c0,1.36-.02,2.71-.05,4.05-.97,39.85-16.21,77.07-41.57,105.83-10.88,12.33-23.48,23.26-37.83,31.93,37.56-19.92,65.09-52.36,78.11-90.11,5.2-16.53,7.99-34.01,7.99-51.93V50.19c-27.97-11.26-67.92-18.3-112.28-18.3s-84.3,7.05-112.28,18.3"/>
    </clipPath>
    <linearGradient id="linear-gradient" x1="691.72" y1="913.44" x2="692.72" y2="913.44" gradientTransform="translate(-155296.42 205283.26) scale(224.55 -224.55)" gradientUnits="userSpaceOnUse">
      <stop offset="0" stop-color="#96814d"/>
      <stop offset="0" stop-color="#96814d"/>
      <stop offset=".2" stop-color="#96814d"/>
      <stop offset=".25" stop-color="#a4905b"/>
      <stop offset=".34" stop-color="#bcaa72"/>
      <stop offset=".43" stop-color="#cab980"/>
      <stop offset=".5" stop-color="#d0bf85"/>
      <stop offset=".59" stop-color="#cdbb82"/>
      <stop offset=".66" stop-color="#c4b279"/>
      <stop offset=".72" stop-color="#b4a16a"/>
      <stop offset=".78" stop-color="#9f8b56"/>
      <stop offset=".8" stop-color="#96814d"/>
      <stop offset="1" stop-color="#96814d"/>
      <stop offset="1" stop-color="#96814d"/>
    </linearGradient>
    <clipPath id="clippath-2">
      <rect class="cls-3" width="288.33" height="443.36"/>
    </clipPath>
  </defs>
  <g id="Layer_1-2" data-name="Layer 1">
    <g class="cls-11">
      <path class="cls-7" d="M208.15,269.68c25.36-28.76,40.6-65.98,41.57-105.83.03-1.34.05-2.69.05-4.05v-70.44l-10.46,29.61-12.1-31.35-11.9,31.35-11.79-31.35-11.8,31.35-11.89-31.35-11.9,31.35-11.9-31.35-11.88,31.35-11.88-31.35-11.9,31.35-11.9-31.35-11.89,31.35-11.8-31.35-11.79,31.35-11.9-31.35-12.1,31.35-10.46-29.61v50.35h0v20.09c0,41.38,15.4,80.15,41.62,109.88,10.87,12.32,23.46,23.24,37.79,31.91h0s0,0,0,0c0,0,.02.01.03.02l.04.02h.02c6.56,4.05,13.45,7.69,20.64,10.85,2.18.97,2.67,1.17,4.9,2.06.21.1.42.15.57.18,0,0,0,0,0,0,0,0,0,0,0,0,.15-.04.36-.08.57-.18,2.23-.9,2.72-1.1,4.9-2.06,7.19-3.16,14.08-6.79,20.65-10.84l.05-.03c14.36-8.67,26.96-19.6,37.84-31.94"/>
    </g>
    <g class="cls-4">
      <rect class="cls-10" x="31.86" y="31.89" width="224.55" height="269.73"/>
    </g>
    <g class="cls-8">
      <path class="cls-1" d="M249.76,89.37l-10.46,29.62-12.1-31.35-11.9,31.35-11.79-31.35-11.8,31.35-11.89-31.35-11.9,31.35-11.9-31.35-11.87,31.35-11.87-31.35-11.9,31.35-11.9-31.35-11.89,31.35-11.8-31.35-11.79,31.35-11.9-31.35-12.1,31.35-10.46-29.62v-33.93c25.92-10.38,63.63-16.92,105.63-16.92s79.7,6.54,105.63,16.92v33.93Z"/>
      <path class="cls-2" d="M170.88,366.26c.69,0,1.38.04,2.06.1,1.48.14,2.91.47,4.28.9,7.26,2.36,12.73,8.68,13.9,16.4,1.37.44,2.8.76,4.28.9-.93-10.5-8.44-19.1-18.38-21.66-1.33-.35-2.69-.57-4.1-.69-.68-.05-1.36-.09-2.04-.09-.76,0-1.49.04-2.23.11.06.65.09,1.31.09,1.99,0,.72-.04,1.43-.11,2.14.74-.08,1.48-.12,2.24-.12"/>
      <path class="cls-6" d="M197.47,339.56c-12.94,0-23.55,9.99-24.55,22.68,1.41.12,2.77.34,4.1.68.66-10.74,9.54-19.24,20.44-19.24s20.51,9.17,20.51,20.51-9.18,20.5-20.51,20.5c-.7,0-1.39-.04-2.07-.1-1.48-.15-2.91-.46-4.28-.91-7.26-2.37-12.73-8.68-13.9-16.4-1.37-.44-2.8-.76-4.28-.91.92,10.5,8.43,19.11,18.37,21.67,1.33.33,2.69.56,4.1.68.68.05,1.36.09,2.05.09,13.61,0,24.63-11.03,24.63-24.62s-11.02-24.62-24.63-24.62"/>
      <path class="cls-5" d="M115.35,362.32c-.96-12.74-11.57-22.76-24.56-22.76s-24.62,11.02-24.62,24.62,11.03,24.62,24.62,24.62c.74,0,1.47-.03,2.18-.09-.04-.62-.07-1.24-.07-1.87,0-.76.04-1.52.1-2.28-.72.09-1.46.13-2.21.13-11.32,0-20.5-9.19-20.5-20.51s9.19-20.51,20.5-20.51,19.85,8.57,20.46,19.36c.02.38.06.76.06,1.15,0,1.1-.11,2.16-.28,3.22-1.2,7.62-6.59,13.83-13.73,16.22-.17,1.05-.28,2.13-.28,3.22,0,.4.04.78.06,1.15,9.84-2.58,17.29-11.12,18.23-21.54.08-.74.12-1.51.12-2.27,0-.63-.03-1.25-.08-1.86"/>
      <path class="cls-9" d="M117.52,366.33c.7,0,1.39.03,2.08.1,1.47.15,2.91.46,4.27.91,7.27,2.36,12.73,8.67,13.9,16.39,1.37.45,2.8.76,4.28.9-.93-10.49-8.43-19.09-18.38-21.65-1.32-.34-2.69-.57-4.1-.68-.67-.05-1.36-.09-2.05-.09-.74,0-1.45.04-2.18.1.05.62.09,1.23.09,1.86,0,.76-.04,1.52-.12,2.27.74-.07,1.47-.12,2.21-.12"/>
      <path class="cls-9" d="M137.97,388.1c-.65,10.74-9.54,19.26-20.45,19.26s-19.85-8.57-20.44-19.36c-.02-.38-.06-.76-.06-1.15,0-1.09.11-2.16.28-3.22,1.2-7.62,6.58-13.83,13.73-16.22.17-1.05.28-2.12.28-3.22,0-.39-.03-.77-.06-1.15-9.85,2.59-17.29,11.12-18.25,21.52-.06.76-.1,1.52-.1,2.28,0,.63.04,1.25.07,1.87.96,12.72,11.58,22.77,24.55,22.77s23.55-10,24.54-22.7c-1.4-.12-2.77-.35-4.1-.68"/>
      <path d="M144.12,384.75c-.7,0-1.39-.03-2.07-.11-1.48-.15-2.9-.46-4.28-.9-7.27-2.36-12.73-8.67-13.9-16.39-1.36-.44-2.8-.76-4.27-.91.92,10.49,8.43,19.11,18.37,21.66,1.33.33,2.7.57,4.1.68.68.06,1.36.09,2.05.09.75,0,1.49-.04,2.22-.1-.05-.66-.09-1.32-.09-1.99,0-.73.04-1.44.1-2.15-.73.08-1.48.13-2.23.13"/>
      <path d="M168.66,362.25c-1.02-12.67-11.61-22.63-24.54-22.63s-23.55,9.99-24.54,22.69c1.4.11,2.77.34,4.1.68.66-10.74,9.54-19.25,20.45-19.25s19.78,8.5,20.44,19.23c.03.42.07.84.07,1.28,0,1.05-.11,2.07-.26,3.09-1.16,7.67-6.56,13.94-13.74,16.35-.16,1.01-.26,2.03-.26,3.09,0,.43.04.85.06,1.27,9.88-2.61,17.32-11.2,18.21-21.66.07-.71.11-1.43.11-2.14,0-.68-.03-1.33-.09-2"/>
      <path class="cls-2" d="M191.32,388.03c-.65,10.73-9.54,19.25-20.43,19.25s-19.79-8.51-20.45-19.23c-.03-.42-.06-.85-.06-1.27,0-1.06.1-2.08.26-3.09,1.16-7.68,6.56-13.95,13.74-16.35.15-1.01.26-2.04.26-3.09,0-.44-.04-.86-.07-1.28-9.87,2.61-17.3,11.2-18.21,21.65-.06.71-.1,1.42-.1,2.15,0,.66.04,1.33.09,1.99,1.01,12.66,11.6,22.63,24.54,22.63s23.54-9.99,24.53-22.68c-1.4-.12-2.77-.35-4.1-.68"/>
      <path class="cls-1" d="M110.83,176.01v-1.13c1.78.64,3.67.95,5.43.95h40.1c2.98,0,5.45-1.65,6.74-3.98v3.98c18.57,0,19.51,0,19.53,0,4.24,0,9.27-1.79,11.65-5.77.73-1.09,1.13-2.26,1.28-3.69.03-.22.1-1.26.1-1.26l-.02-7.8c0-7.66-7.27-10.95-13.04-10.95s-12.69,3.2-12.92,10.6v3.84c0,.38.15.75.42,1.03l5.64,5.64c.42.42,1.1.42,1.51,0l3.32-3.32c.42-.42.42-1.09,0-1.51l-3.31-3.32s-.82-6.27,5.38-6.27c3.2,0,5.43,1.79,5.43,4.89v6.25c0,3.1-2.26,4.89-5.45,4.89-.02,0-9.87,0-18.62,0,.15-1.18.03-2.43-.42-3.66l-4.97-13.34c-.54-1.46-1.93-2.42-3.49-2.42h-9.99c-3.82,0-7.51,1.16-10.41,3.09v-15.96c0-.6-.49-1.08-1.09-1.08h-5.4c-.6,0-1.08.49-1.08,1.08v32.3s-10.87,0-10.9,0c-3.2,0-5.43-1.79-5.43-4.89v-11.29c0-.6-.49-1.09-1.09-1.09h-5.44c-.6,0-1.09.49-1.09,1.09v22.36c0,3.1-2.23,4.85-5.43,4.85h-4.29c-.6,0-1.08.49-1.08,1.09v4.63c0,.6.48,1.09,1.08,1.09h4.29c5.77,0,13.04-3.29,13.04-10.91M134.73,166.53c0-2.13,1.08-5.03,2.85-6.74,2.31-2.26,4.98-3.31,7.84-3.31h6.69l4.63,12.56-22,.05v-2.56Z"/>
      <path class="cls-1" d="M83.96,194.78c-6.87.25-12.29,4.38-12.29,11.25v11.13c0,5.72,4.52,9.83,10.06,10.63l6.83,6.82c.41.41,1.08.41,1.49,0l3.4-3.4c.41-.41.41-1.08,0-1.49l-8.41-8.41h-1.01c-2.63,0-4.75-2.13-4.75-4.76v-10.34c0-2.63,2.06-4.76,4.97-4.76h.8c2.79,0,5.05,2.26,5.05,5.05v10.64c0,.9-.29,1.72-.77,2.4-.26.36-.21.91.1,1.22l3.83,3.83c.43.42,1.12.41,1.53-.03,1.77-1.85,2.85-4.35,2.85-7.11v-11.43c0-7.4-6.2-11.54-13.69-11.26"/>
      <path class="cls-1" d="M156.39,201.25v-4.65c0-.6-.49-1.09-1.09-1.09h-23.11c-.6,0-1.09.49-1.09,1.09v4.65c0,.61.49,1.09,1.09,1.09h7.78v23.96c0,.61.49,1.1,1.1,1.1h5.41c.61,0,1.1-.49,1.1-1.1v-23.96h7.73c.6,0,1.09-.49,1.09-1.09"/>
      <path class="cls-1" d="M188.74,142.41c1.94,0,3.44-1.54,3.44-3.4s-1.5-3.4-3.44-3.4-3.4,1.45-3.4,3.4,1.54,3.4,3.4,3.4"/>
      <path class="cls-1" d="M178.37,142.41c1.95,0,3.44-1.54,3.44-3.4s-1.49-3.4-3.44-3.4-3.35,1.45-3.35,3.4,1.49,3.4,3.35,3.4"/>
      <path class="cls-1" d="M216.39,225.84l-6.83-9.93c3.01-1.02,6.74-4.55,6.74-9.64,0-3.1-1.02-5.87-2.81-7.61-2.04-2.04-4.36-3.1-9.65-3.1h-12.21c-1.12,0-1.36.53-1.36,1.41v29.03c0,1.11.48,1.4,1.36,1.4h4.8c.87,0,1.41-.29,1.41-1.4v-23.65h6.45c2.52,0,4.46,1.6,4.46,4.12,0,2.28-2.23,3.92-4.6,3.92h-.97c-1.11,0-1.4.53-1.4,1.4v3.88c-.02.99.18,1.95.74,2.78.24.36,4.17,6.22,4.78,7.13.08.12.16.24.24.36.68,1.02,1.26,1.45,2.42,1.45h5.72c.92,0,1.16-.87.73-1.55"/>
      <path class="cls-1" d="M175.24,197.01c-.43-1.02-.92-1.5-1.98-1.5h-4.65c-1.07,0-1.6.48-1.99,1.5l-10.76,29.03c-.24.58-.24,1.36.82,1.36h5.09c1.07,0,1.45-.29,1.84-1.45l1.36-3.83h11.87l1.36,3.83c.39,1.16.77,1.45,1.84,1.45h5.09c1.07,0,1.07-.77.83-1.36l-10.71-29.03ZM167.3,215.33l3.63-10.71,3.64,10.71h-7.27Z"/>
      <path class="cls-1" d="M120.57,197.01c-.43-1.02-.92-1.5-1.98-1.5h-4.65c-1.07,0-1.6.48-1.99,1.5l-10.76,29.03c-.24.58-.24,1.36.82,1.36h5.09c1.07,0,1.45-.29,1.84-1.45l1.36-3.83h11.87l1.36,3.83c.39,1.16.77,1.45,1.84,1.45h5.09c1.07,0,1.07-.77.83-1.36l-10.71-29.03ZM112.62,215.33l3.63-10.71,3.64,10.71h-7.27Z"/>
    </g>
  </g>
</svg>