<?xml version="1.0" encoding="UTF-8"?>
<svg id="Layer_2" data-name="Layer 2" xmlns="http://www.w3.org/2000/svg" viewBox="0 0 673.63 598.75">
  <defs>
    <style>
      .cls-1 {
        fill: #8a1739;
      }

      .cls-2 {
        fill: #2d2926;
      }
    </style>
  </defs>
  <g id="Layer_1-2" data-name="Layer 1">
    <g>
      <g>
        <g>
          <g>
            <path class="cls-2" d="M107.27,497.86H31.06v-30.44h-15.24c-5.33,0-9.3,1.46-11.91,4.38-2.61,2.92-3.92,7.06-3.92,12.41v18.98h25.22c0,2.75-.31,5-.94,6.72-.62,1.73-1.7,3.03-3.24,3.92-1.53.88-3.65,1.33-6.35,1.33H5.26v5.34h11.11c5.07,0,8.75-1.5,11.05-4.5,2.3-3,3.49-7.27,3.57-12.8h82.13v-54.14h-5.85v48.8ZM25.3,497.86H5.85v-13.33c0-3.85.87-6.76,2.61-8.75,1.74-1.99,4.48-2.98,8.22-2.98h8.61v25.06Z"/>
            <path class="cls-2" d="M194.81,508.38c-.96,0-1.79.35-2.48,1.05-.69.7-1.03,1.55-1.03,2.53s.34,1.79,1.03,2.48c.69.69,1.51,1.03,2.48,1.03s1.82-.34,2.49-1.03c.68-.69,1.01-1.51,1.01-2.48s-.34-1.83-1.01-2.53c-.68-.7-1.51-1.05-2.49-1.05Z"/>
            <path class="cls-2" d="M238,497.86h-17.23v-48.8h-5.85v48.8h-17.23v-30.44h-5.77v30.44h-29.93s-.04,0-.06,0c-.02,0-.04,0-.06,0h-5.18v-30.44h-15.24c-5.33,0-9.3,1.46-11.91,4.38-2.61,2.92-3.92,7.06-3.92,12.41v18.98h25.22c0,2.75-.31,5-.94,6.72-.62,1.73-1.7,3.03-3.24,3.92-1.53.88-3.65,1.33-6.35,1.33h-9.43v5.34h11.11c5.07,0,8.75-1.5,11.05-4.5,2.3-3,3.49-7.27,3.57-12.8h5.26s.02,0,.03,0c.03,0,.05,0,.08,0h81.85v-54.14h-5.85v48.8ZM150.92,497.86h-19.45v-13.33c0-3.85.87-6.76,2.61-8.75,1.74-1.99,4.48-2.98,8.22-2.98h8.61v25.06Z"/>
          </g>
          <g>
            <path class="cls-2" d="M445.01,459.03c.68-.7,1.01-1.55,1.01-2.53s-.34-1.79-1.01-2.48c-.68-.69-1.51-1.03-2.49-1.03s-1.79.34-2.48,1.03c-.69.69-1.03,1.51-1.03,2.48s.34,1.83,1.03,2.53c.69.7,1.51,1.05,2.48,1.05s1.82-.35,2.49-1.05Z"/>
            <path class="cls-2" d="M454.51,459.03c.69-.7,1.03-1.55,1.03-2.53s-.34-1.79-1.03-2.48c-.69-.69-1.51-1.03-2.48-1.03s-1.84.34-2.55,1.03c-.71.69-1.07,1.51-1.07,2.48s.36,1.83,1.07,2.53,1.57,1.05,2.55,1.05,1.79-.35,2.48-1.05Z"/>
            <path class="cls-2" d="M434.59,471.78c-2.59,2.91-3.88,7.05-3.88,12.43v13.64h-17.07v-14.69c0-10.5-5.08-15.75-15.24-15.75h-31.14v-18.36h-5.85v48.8h-76.32v-30.44h-5.73v35.7c0,7.98-3.55,11.97-10.64,11.97h-1.6v5.42h1.91c10.63,0,15.98-5.77,16.06-17.31h176.68v-35.78h-15.32c-5.33,0-9.28,1.46-11.87,4.37ZM407.79,497.86h-40.54v-25.06h29.93c3.66,0,6.35.88,8.05,2.63,1.7,1.75,2.55,4.33,2.55,7.74v14.69ZM455.93,472.79v25.06h-19.45v-13.33c0-3.87.87-6.8,2.61-8.77,1.74-1.97,4.48-2.96,8.22-2.96h8.61Z"/>
          </g>
          <g>
            <path class="cls-2" d="M521.11,483.16v16.06c0,4.86-1.25,8.73-3.76,11.62-2.51,2.88-6.28,4.33-11.32,4.33s-8.86-1.37-11.38-4.11c-2.52-2.74-3.78-6.71-3.78-11.91v-20.85h-5.81v21.24c0,6.73,1.75,11.91,5.24,15.53,3.49,3.63,8.74,5.44,15.73,5.44,4.42,0,8.19-.84,11.32-2.51,3.13-1.68,5.52-4.05,7.15-7.13,1.64-3.08,2.46-6.7,2.46-10.86v-16.84c0-3.4.85-5.98,2.55-7.74,1.7-1.75,4.38-2.63,8.05-2.63h6v30.4h5.81v-35.78h-13.02c-10.16,0-15.24,5.25-15.24,15.75Z"/>
            <path class="cls-2" d="M574.9,467.41h-11.34v5.38h10.13c3.64,0,6.32.88,8.05,2.63,1.73,1.75,2.59,4.33,2.59,7.74v14.69h-26.58v5.34h32.39v-20.03c0-10.5-5.08-15.75-15.24-15.75Z"/>
            <path class="cls-2" d="M667.31,497.86h-55.82c-1.92,0-3.33-.46-4.23-1.38-.9-.92-1.34-2.44-1.34-4.54v-42.87h-5.85v41.59c0,2.94.33,5.3.99,7.09.66,1.79,1.86,3.15,3.59,4.07,1.28.68,2.94,1.11,4.98,1.29.37.06.81.1,1.32.1h62.13v-35.78h-5.77v30.44Z"/>
            <path class="cls-2" d="M670.12,453.15c-.96,0-1.79.33-2.48.99-.69.66-1.03,1.48-1.03,2.44s.34,1.83,1.03,2.53c.69.7,1.51,1.05,2.48,1.05s1.82-.35,2.49-1.05c.68-.7,1.01-1.55,1.01-2.53s-.34-1.77-1.01-2.44c-.68-.66-1.51-.99-2.49-.99Z"/>
          </g>
        </g>
        <g>
          <path class="cls-2" d="M11.5,594.81c3.69,2.03,8.09,3.04,13.21,3.04h27.4v-5.5h-11.26c1.09-.81,2.25-1.87,3.47-3.2,1.22-1.33,2.44-3.53,3.66-6.63,1.22-3.09,1.83-6.95,1.83-11.58,0-5.85-.97-10.78-2.92-14.81-1.95-4.03-4.78-7.06-8.5-9.1-3.72-2.04-8.21-3.06-13.49-3.06s-9.77,1.03-13.49,3.08c-3.72,2.05-6.55,5.09-8.5,9.12-1.95,4.03-2.92,8.98-2.92,14.85s.99,10.73,2.98,14.73c1.99,4,4.83,7.02,8.52,9.04ZM11.54,554.86c3.17-3.48,7.63-5.22,13.37-5.22s10.19,1.73,13.35,5.2c3.16,3.47,4.74,8.84,4.74,16.12s-1.58,12.6-4.76,16.06c-3.17,3.46-7.61,5.18-13.33,5.18s-10.23-1.72-13.39-5.16c-3.16-3.44-4.74-8.8-4.74-16.08s1.58-12.62,4.75-16.1Z"/>
          <path class="cls-2" d="M72.07,583.9h24.52l5.18,13.95h7.09l-20.58-53.01h-7.68l-20.58,53.01h6.86l5.18-13.95ZM84.31,550.61l10.21,27.6h-20.42l10.21-27.6Z"/>
          <polygon class="cls-2" points="128.55 597.86 128.55 550.42 146.59 550.42 146.59 544.85 104.03 544.85 104.03 550.42 122.15 550.42 122.15 597.86 128.55 597.86"/>
          <path class="cls-2" d="M151.15,597.86l5.18-13.95h24.52l5.18,13.95h7.09l-20.58-53.01h-7.68l-20.58,53.01h6.86ZM168.58,550.61l10.21,27.6h-20.42l10.21-27.6Z"/>
          <path class="cls-2" d="M237.88,570.94c2.13-2.46,3.2-6.07,3.2-10.86s-1.38-8.68-4.13-11.3c-2.75-2.62-6.6-3.94-11.54-3.94h-24.4v53.01h6.35v-22.1h14.07l14.62,22.1h7.8l-15.01-22.33c3.9-.6,6.91-2.12,9.04-4.58ZM207.36,570.06v-19.53h17.03c6.6,0,9.9,3.26,9.9,9.78s-3.3,9.74-9.9,9.74h-17.03Z"/>
        </g>
        <g>
          <path class="cls-2" d="M273.48,577.66h15.9c5.4,0,9.52-1.39,12.36-4.17,2.83-2.78,4.25-6.87,4.25-12.28s-1.42-9.45-4.27-12.22c-2.84-2.77-6.98-4.15-12.41-4.15h-22.18v53.01h6.35v-20.19ZM273.48,550.54h14.93c7.2,0,10.8,3.59,10.8,10.76,0,3.56-.92,6.23-2.75,8.01-1.83,1.78-4.54,2.67-8.13,2.67h-14.85v-21.44Z"/>
          <path class="cls-2" d="M339.58,598.75c8.11,0,14.28-2.34,18.53-7.04,4.25-4.69,6.37-11.48,6.37-20.37s-2.13-15.64-6.39-20.33c-4.26-4.69-10.43-7.04-18.51-7.04s-14.32,2.34-18.55,7.02c-4.24,4.68-6.35,11.46-6.35,20.35s2.12,15.68,6.37,20.37c4.25,4.69,10.43,7.04,18.53,7.04ZM339.58,549.72c12.06,0,18.09,7.21,18.09,21.63,0,7.22-1.51,12.64-4.54,16.23-3.03,3.6-7.54,5.4-13.54,5.4-12.08,0-18.12-7.21-18.12-21.63s6.04-21.63,18.12-21.63Z"/>
          <path class="cls-2" d="M395.63,597.86h13.17v-5.65h-11.89c-3.46,0-6.24-.49-8.34-1.48-2.1-.99-3.65-2.53-4.64-4.64-.99-2.1-1.48-4.89-1.48-8.34v-32.9h-6.39v33.44c0,6.57,1.62,11.48,4.85,14.71,3.23,3.23,8.14,4.85,14.71,4.85Z"/>
          <path class="cls-2" d="M436.87,543.99c-8.13,0-14.32,2.34-18.55,7.02-4.24,4.68-6.35,11.46-6.35,20.35s2.12,15.68,6.37,20.37c4.25,4.69,10.43,7.04,18.53,7.04s14.29-2.34,18.53-7.04c4.25-4.69,6.37-11.48,6.37-20.37s-2.13-15.64-6.39-20.33c-4.26-4.69-10.43-7.04-18.51-7.04ZM450.41,587.58c-3.03,3.6-7.54,5.4-13.55,5.4-12.08,0-18.12-7.21-18.12-21.63s6.04-21.63,18.12-21.63,18.09,7.21,18.09,21.63c0,7.22-1.51,12.64-4.54,16.23Z"/>
        </g>
        <g>
          <path class="cls-2" d="M509.53,597.86h14.46v-5.65h-13.1c-4.68,0-8.41-.72-11.19-2.16-2.78-1.44-4.79-3.68-6.02-6.7-1.23-3.03-1.85-7.02-1.85-11.99s.62-8.96,1.87-11.99c1.25-3.03,3.26-5.26,6.04-6.68,2.78-1.43,6.5-2.14,11.15-2.14h12.94v-5.69h-14.38c-8.26,0-14.4,2.16-18.4,6.47-4,4.31-6,10.99-6,20.03s2.01,15.75,6.02,20.05c4.01,4.3,10.17,6.45,18.46,6.45Z"/>
          <path class="cls-2" d="M566.83,592.2h-11.89c-3.46,0-6.24-.49-8.34-1.48-2.11-.99-3.65-2.53-4.64-4.64-.99-2.1-1.48-4.89-1.48-8.34v-32.9h-6.39v33.44c0,6.57,1.62,11.48,4.85,14.71,3.24,3.23,8.14,4.85,14.71,4.85h13.17v-5.65Z"/>
          <path class="cls-2" d="M617.07,544.85h-6.47v47.36h-13.72c-3.46,0-6.23-.49-8.32-1.48-2.09-.99-3.63-2.53-4.6-4.64-.97-2.1-1.46-4.89-1.46-8.34v-32.9h-6.39v33.44c0,6.57,1.62,11.48,4.85,14.71,3.24,3.23,8.14,4.85,14.71,4.85h21.4v-53.01Z"/>
          <path class="cls-2" d="M669.69,594.25c2.62-2.4,3.94-5.97,3.94-10.7,0-4.26-.99-7.45-2.98-9.57-1.99-2.12-4.4-3.4-7.23-3.84,1.95-.42,3.78-1.45,5.5-3.1,1.72-1.65,2.57-4.48,2.57-8.48,0-4.57-1.23-8-3.7-10.29-2.47-2.29-6.06-3.43-10.76-3.43h-24.56v53.01h25.69c5.07,0,8.91-1.2,11.54-3.61ZM638.82,550.42h17.03c2.96,0,5.18.7,6.65,2.09,1.47,1.39,2.2,3.55,2.2,6.49s-.73,5.11-2.2,6.51c-1.47,1.4-3.68,2.1-6.65,2.1h-17.03v-17.19ZM638.82,592.2v-19.02h18.2c3.27,0,5.73.78,7.37,2.34,1.64,1.56,2.46,3.95,2.46,7.17s-.82,5.65-2.46,7.19c-1.64,1.55-4.09,2.32-7.37,2.32h-18.2Z"/>
        </g>
        <path class="cls-1" d="M449.09,131.94c15.32,0,27.79,12.47,27.79,27.79s-12.47,27.79-27.79,27.79-27.79-12.47-27.79-27.79,12.47-27.79,27.79-27.79M449.09,122.3c-20.64,0-37.42,16.79-37.42,37.42s16.79,37.42,37.42,37.42,37.42-16.79,37.42-37.42-16.79-37.42-37.42-37.42h0ZM219.86,228.2l-32.74,18.9v-37.8l32.74,18.9ZM187.12,165.47v37.8l32.74-18.9-32.74-18.9ZM189.68,118.75c-.31,1.75-.64,3.49-.92,5.24l-.67,5.28c-.26,1.76-.35,3.53-.49,5.3l-.2,2.65c-.03.44-.07.88-.09,1.33l-.04,1.33-.13,5.31-.02.66v.6s0,1.18,0,1.18v11.81l32.86-18.23-30.3-22.46ZM205.49,75.05c-.91,1.52-1.67,3.13-2.49,4.7-.81,1.58-1.63,3.15-2.34,4.78-.73,1.62-1.47,3.23-2.18,4.86l-1.96,4.95c-.68,1.64-1.19,3.34-1.78,5.02-.57,1.68-1.16,3.36-1.61,5.08l-1.45,5.13-1.2,5.19,36.66-8.84-21.66-30.87ZM234.22,38.57l-3.85,3.67c-1.27,1.24-2.46,2.55-3.7,3.82-.61.65-1.23,1.28-1.82,1.94l-1.74,2.01-1.74,2.01-.87,1.01-.83,1.04-3.29,4.18c-1.06,1.42-2.07,2.88-3.1,4.32-.5.73-1.04,1.43-1.52,2.18l-1.44,2.24c-.94,1.5-1.95,2.96-2.81,4.52l37.58,3.17-10.88-36.12ZM272.95,12.95c-3.26,1.4-6.39,3.09-9.55,4.71-3.07,1.77-6.19,3.48-9.14,5.45-3.02,1.86-5.87,3.98-8.75,6.05l-4.18,3.29-1.04.82-1.01.87-2.01,1.74,34.7,14.78.99-37.7ZM317.81.79c-7.05.78-14.06,2.02-20.95,3.74-6.87,1.81-13.63,4.04-20.19,6.77l28.28,24.95L317.81.79ZM360.89,0h-28.41c-3.54.11-7.08.13-10.62.46l20.13,32.27L360.89,0ZM402.31,0h-37.8l18.9,32.74L402.31,0ZM369.32,79.51h-13.03l13.03,24.77v-24.77ZM187.12,286.6v9.64h174.26l-7.33-9.64h-166.93ZM352.26,218.56h-113.56v-72.65c0-25.41,9.9-49.31,27.87-67.29,17.97-17.97,41.87-27.87,67.29-27.87h51.44v129.72c-2.37,2.47-5.27,4.39-8.47,5.59-2.56.96-5.26,1.45-8.02,1.45-6.27,0-12.19-2.54-16.5-7.04v-22.93l-32.3-32.3c-5.02-5.03-5.02-13.21,0-18.24l-6.82-6.81c-8.78,8.78-8.78,23.08,0,31.86l29.48,29.48v22.5l.73.88c6.21,7.49,15.35,12.13,25.08,12.23,4.03.04,7.98-.65,11.73-2.06,5.29-1.98,9.99-5.34,13.61-9.71l1.11-1.34V59.6l19.42-18.48h-80.5c-27.99,0-54.31,10.9-74.1,30.69-19.79,19.8-30.69,46.12-30.69,74.11v82.28h123.02c6.51,0,12.68,2.92,16.81,7.95l13.48,16.43h-195.27v9.64h171.06l25.89,34.02h46.6l-6.46-7.87h0s-21.45-26.14-21.45-26.14h15.45l23.51,28.65c2.79,3.4,6.95,5.37,11.35,5.37h16.68c6.69,0,10.38-7.78,6.13-12.96l-38.12-46.46c-9.49-11.56-23.65-18.26-38.6-18.26h0c-6.69,0-10.38,7.78-6.13,12.96l17.28,21.06h-15.45l-18.61-22.68c-5.89-7.18-14.69-11.34-23.98-11.34ZM370.29,262.22h20l20.01,24.38h-21.45l-18.56-24.38ZM428.01,240.14l38.12,46.46h-11.65c-2.41,0-4.69-1.08-6.22-2.94l-45.51-55.46h0c9.78,0,19.05,4.38,25.25,11.94ZM391.67,335.35v6.72c0,8.12-6.6,14.73-14.73,14.73h-50.67l-7.33-9.63h58.01c2.8,0,5.09-2.29,5.09-5.09v-6.72c0-2.8-2.29-5.09-5.09-5.09h-59.26v43.95h-9.64v-53.59h68.9c8.13,0,14.73,6.61,14.73,14.73ZM299.65,356.8h-12.46v2.68c0,8.12-6.61,14.73-14.73,14.73h-70.62c-8.12,0-14.73-6.61-14.73-14.73v-24.13c0-8.12,6.61-14.73,14.73-14.73h70.62c8.12,0,14.73,6.61,14.73,14.73v11.81h5.13l7.32,9.61v.03ZM277.55,356.8h-19.62l-7.33-9.64h26.96v-11.81c0-2.8-2.28-5.09-5.08-5.09h-70.62c-2.8,0-5.08,2.29-5.08,5.09v24.13c0,2.8,2.28,5.09,5.08,5.09h70.62c2.8,0,5.08-2.29,5.08-5.09v-2.68ZM417.62,330.25h68.89v-.02l-7.32-9.61h-61.57c-8.13,0-14.74,6.61-14.74,14.73v24.13c0,8.12,6.61,14.73,14.74,14.73h68.89v-9.63h-68.89c-2.81,0-5.09-2.29-5.09-5.09v-24.13c0-2.8,2.28-5.09,5.09-5.09Z"/>
      </g>
      <rect class="cls-1" x="432.59" y="267.03" width="29.18" height="9.64"/>
    </g>
  </g>
</svg>