<?xml version="1.0" encoding="UTF-8"?>
<svg id="Layer_2" data-name="Layer 2" xmlns="http://www.w3.org/2000/svg" viewBox="0 0 268.38 40.96">
  <defs>
    <style>
      .cls-1 {
        fill: #546170;
      }

      .cls-2 {
        fill: #620d3e;
      }

      .cls-3 {
        fill: #77838f;
      }
    </style>
  </defs>
  <g id="Layer_1-2" data-name="Layer 1">
    <path class="cls-3" d="M111.2,6.4c0-.27.46-.49,1.03-.49,2.94,0,11.88.22,11.88.49s-8.94.49-11.88.49c-.57,0-1.03-.22-1.03-.49"/>
    <path class="cls-3" d="M134.94,19.2c0,.2-2.8.39-6.79.54-.71-.4-1.24-.8-1.63-1.15,4.84.17,8.42.38,8.42.6"/>
    <path class="cls-3" d="M132.07,12.46c0,.17-2.34.32-5.7.45.48-.28.98-.56,1.5-.84,2.53.12,4.2.25,4.2.39"/>
    <path class="cls-3" d="M107.1,26.96c-1.55.02-2.91.03-3.98.03-1.53,0-2.77-.47-2.77-1.06s1.24-1.05,2.77-1.05c1.35,0,3.19.02,5.29.04-.82,1.18-1.2,1.88-1.24,1.93-.03.04-.06.07-.08.12"/>
    <path class="cls-3" d="M107.94,28.37c.51.62,1,1.14,1.66,1.71,0,0,.25.35,1,.05.76-.31,1.41-.73,2.15-1.71,2.13.04,4.4.08,6.62.14.18.26.55.82,1.01,1.5-6.21.16-12.95.26-16.4.26-1.44,0-2.6-.45-2.6-.99s1.17-.99,2.6-.99c1.05,0,2.41,0,3.96.02,0,.02,0,.03,0,.03"/>
    <path class="cls-3" d="M105.54,33.55c-1.28,0-2.31-.39-2.31-.88s1.03-.88,2.31-.88c3.38,0,10.3.1,16.22.27.29.41.57.81.84,1.19-6.1.18-13.53.29-17.06.29"/>
    <path class="cls-3" d="M125.22,36.36c-4.98.22-13.53.37-17.09.37-1,0-1.82-.31-1.82-.69s.81-.69,1.82-.69c3.4,0,11.39.14,16.43.34.23.24.45.47.66.68"/>
    <path class="cls-3" d="M112.23,38.23c2.94,0,11.88.22,11.88.49s-8.94.49-11.88.49c-.57,0-1.03-.22-1.03-.49s.46-.49,1.03-.49"/>
    <path class="cls-3" d="M112.27,20.15c-3.7.06-7.01.1-9.14.1-1.53,0-2.77-.47-2.77-1.05s1.24-1.05,2.77-1.05c2.47,0,6.54.05,10.95.13-.65.65-1.26,1.28-1.81,1.88"/>
    <path class="cls-3" d="M130.4,15.44c2.17.12,3.53.25,3.53.38,0,.15-1.65.29-4.2.41.54-.41.66-.77.67-.79"/>
    <path class="cls-3" d="M103.98,16.81c-1.44,0-2.61-.44-2.61-.99s1.17-.99,2.61-.99c2.95,0,8.3.07,13.67.19-.66.55-1.29,1.1-1.87,1.64-4.71.1-9.19.15-11.8.15"/>
    <path class="cls-3" d="M120.03,13.11c-5.49.14-11.44.22-14.49.22-1.28,0-2.31-.39-2.31-.88s1.03-.88,2.31-.88c3.37,0,10.27.1,16.19.27-.29.21-.59.43-.89.65-.27.21-.54.41-.81.61"/>
    <path class="cls-3" d="M108.13,9.78c-1,0-1.82-.31-1.82-.69s.81-.69,1.82-.69c3.77,0,13.19.16,17.97.4-.31.2-.61.41-.92.62-4.99.21-13.51.36-17.06.36"/>
    <path class="cls-3" d="M102.84,23.63c-1.56,0-2.82-.48-2.82-1.07s1.26-1.08,2.82-1.08c1.95,0,4.87.03,8.17.08-.62.73-1.16,1.41-1.62,2.01-2.63.04-4.92.05-6.55.05"/>
    <path class="cls-2" d="M135.23,21.77c.02.54.02,1.06-.01,1.59-5.2.21-10.13.52-10.13.87s4.82.66,9.96.86c-.09.59-.2,1.18-.35,1.75-5.07.21-9.77.51-9.77.86s4.39.63,9.25.84c-.23.62-.48,1.22-.76,1.8-4.18.2-7.63.47-7.63.76,0,.27,3.02.52,6.82.72-.21.35-.44.68-.67,1.01-.25.35-.52.7-.8,1.04-2.37.18-4,.38-4,.6,0,.19,1.17.37,2.96.52-.98.97-2.14,1.88-3.51,2.67,0,0-1.61-1.39-2.94-3.01-1.18-1.45-3.7-5.25-4.3-6.11-.59-.85-.98-1.1-1.67-.85-.93.33-2.01.49-2.34.49s-.52-.13.04-.35c.55-.22,2.75-1.26,3.83-3.4,1.21-2.41.14-5.73.14-5.73-.4,1.78-1.33,2.44-1.33,2.44.3-1.65-.03-3.15-.85-4.2l-.45,2.09s-.29-.01-.99.58c-.71.59-.9,1.46-.9,1.46.56.22,1.22-.33,1.22-.33-.85,3.18-2.07,5.77-2.96,7.14-.89,1.37-1.62,1.89-2.51,2.25-.75.3-1-.05-1-.05-.66-.57-1.15-1.09-1.66-1.71,0,0-.04-.07.1-.07.37,0,1.02-.62,1.16-.88.16-.3.15-.53.06-.54-.08-.01-.22.22-.92.67-.71.44-1.03.14-1.26-.11-.18-.2,0-.44.11-.59.11-.14,3.82-7.06,13.64-14.34C133.71,2.97,141.94.39,142.41.21c.31-.12.82-.28.93-.16.13.13.19.24.17.4-.02.15-.1.23-.69.5-4.94,2.18-10.72,5.81-14,7.92-4.03,1.97-7.88,4.77-8.02,4.84-.31.19-.08.47.11.35,6.81-4.53,14.79-7.61,23.61-10.14.42-.12.65-.12.72-.03.08.1.11.22.12.35.01.16-.12.25-.48.39-9.48,3.52-16.47,6.79-20.96,9.82,0,0-.47.28-.47.6,0,.12.25.14.25.14,2.25.04,5.26.17,6.69.26,0,0-.2.72-1.57,1.31-1.06.45-2.03.38-3,.39-.22,0-.4.21-.23.45.09.12,2.15,3.43,9.64,4.19"/>
    <path class="cls-2" d="M18.68,34.77c.88-.62,2.26-1.38,3.26-1.82l-6.65-4.12c4.09-1.44,6.65-5.09,6.65-10.06,0-7.06-5.38-10.06-10.88-10.06C5.12,8.7,0,11.99,0,19.47c0,1.59.35,4.59,2.82,7.09,2.56,2.59,5.59,2.97,8.15,2.97.32,0,.65,0,.97-.03l6.74,5.27ZM4.03,19.62c0-7.41,3.97-9.41,6.97-9.41,4.82,0,6.91,4,6.91,8.27,0,2.44-.29,4.74-1.5,6.59-1.21,1.85-3.21,2.97-5.38,2.97-5.44,0-7-5.18-7-8.42"/>
    <path class="cls-2" d="M39.29,29.12c.53-.03,1.36-.18,2.18-.18s1.85.15,2.3.18c-1.32-2.86-3.27-7.3-4.38-9.86-1.06-2.47-2.83-6.59-4.24-10.62-.32.09-.62.15-.94.15-.35,0-.65-.06-.97-.15-.71,2.41-2.41,6.24-5.38,12.89l-3.41,7.59c.41-.06.83-.18,1.33-.18.47,0,1.03.12,1.41.18.47-1.68,1.41-4.12,2.35-6.39,1.18-.06,2.35-.12,3.53-.12,1.27,0,2.5.06,3.77.12l1.23,3.12,1.24,3.27ZM35.97,20.91c-.91.06-1.8.12-2.71.12-1.03,0-2.03-.09-3.06-.12l3-7.24,2.77,7.24Z"/>
    <path class="cls-2" d="M52.64,14.2c0-1.12.03-2.24.06-3.3,2.03,0,4.12.03,5.85.21-.09-.47-.15-.74-.15-1.06,0-.23.06-.62.15-1.12-2.82.15-5.41.18-7.86.18-2.26,0-5.53-.03-7.85-.18.09.35.14.73.14,1.09s-.06.73-.14,1.09c1.5-.15,4.32-.21,4.59-.21h1.47c.03,1.15.06,2.18.06,3.27l.03,8.21c0,2.24-.18,4.5-.29,6.74,1.06-.12,1.5-.18,2-.18.35,0,1.3.09,2.15.18-.09-.83-.21-1.8-.21-4.03v-10.89Z"/>
    <path class="cls-2" d="M72.64,29.12c.53-.03,1.35-.18,2.18-.18s1.85.15,2.29.18c-1.32-2.86-3.27-7.3-4.38-9.86-1.06-2.47-2.83-6.59-4.24-10.62-.33.09-.62.15-.94.15-.35,0-.65-.06-.97-.15-.71,2.41-2.41,6.24-5.38,12.89l-3.42,7.59c.41-.06.82-.18,1.33-.18.47,0,1.03.12,1.41.18.47-1.68,1.41-4.12,2.35-6.39,1.18-.06,2.36-.12,3.53-.12,1.27,0,2.5.06,3.77.12l1.24,3.12,1.24,3.27ZM69.32,20.91c-.91.06-1.8.12-2.71.12-1.03,0-2.03-.09-3.06-.12l3-7.24,2.76,7.24Z"/>
    <path class="cls-2" d="M84.43,10.52c.44-.03,1.53-.15,2.09-.15.97,0,1.94.15,2.73.74,1.03.76,1.24,1.83,1.24,3.06,0,1.91-1.09,4.06-4.03,4.06-.76,0-1.47-.06-2.03-.09v-7.62ZM89.25,19.12c2.68-.5,5.12-2.18,5.12-5.44,0-1.23-.47-2.44-1.35-3.29-1.27-1.21-2.71-1.44-4.62-1.44-.67,0-4.09.15-4.85.15-1.5,0-2.26-.09-2.94-.15.2,3.8.2,4.21.2,8.06,0,5.68-.03,6.33-.26,12.12.65-.09,1.35-.18,2.03-.18.74,0,1.38.12,1.97.18,0-.76-.12-4.56-.12-5.41v-4.18h.71c1.59,2.24,3.41,4.83,4.91,7.15.44.68,1.09,1.76,1.53,2.44.88-.12,1.24-.18,2.38-.18,1.06,0,1.8.09,2.62.18-1.85-2.33-2.65-3.35-4.97-6.62-.44-.62-1.09-1.59-1.53-2.21l-.83-1.18Z"/>
    <path class="cls-2" d="M66.27,33.59c-.41,0-.56-.12-.56-.48s.12-.54.56-.54c.5,0,.69.22.69.54s-.29.48-.69.48M95.29,33.63c.22-.19,1.29-.89,1.29-.89v6.47h-1.16v-5.2c-.28.03-.35-.2-.12-.38M73.62,35.37v3.85h-8.23s.16-1.44.16-1.8.46-.89,1.08-1.31c.62-.42,1.14-.68,1.14-.68l.07-.46s-.43-.15-.31-.31c.12-.16,1.41-1.33,1.41-1.33v4.84h3.55v-1.39s-.56-.15-.1-.57c.47-.41,1.21-.84,1.21-.84M67.82,38.15v-1.54s-.5.22-.95.51c-.44.29-.28,1.03-.28,1.03h1.23ZM93.34,34.01c-.28.03-.35-.19-.13-.38.22-.19,1.29-.89,1.29-.89v6.47h-18.16c0,1.49-1.39,1.75-1.76,1.75s-.72-.19-1-.44c-.28-.25.06-.32.06-.32,1.07.32,1.58-.38,1.58-.99s.06-3.17.06-3.17c-.32,0-.48-.2-.19-.42.29-.22,1.29-.94,1.29-.94l.03,3.47h1.44v-4.05s-.5-.25,0-.63c.51-.38,1.2-.86,1.2-.86v3.19c.21-.21.58-.4,1.35-.4h4.4c.94,0,2.01.67,2.01,1.91,0,.39,0,.66,0,.84h3.81v-.77h-1.61v-.99c0-.86,1.58-1.49,2.01-1.69.44-.19.76-.31.76-.31v3.76h1.57v-4.14ZM85.64,37.41c0-.35.16-.89-.88-.89h-4.81c-.45,0-.74.05-.91.49v1.15h6.58c.01-.25.02-.56.02-.75M90.61,36.55v-.64s-.75.23-.75.64h.75ZM90.95,33.5c-.41,0-.56-.12-.56-.47s.12-.54.56-.54c.5,0,.69.23.69.54s-.28.47-.69.47M89.38,33.5c-.41,0-.56-.12-.56-.47s.12-.54.56-.54c.5,0,.69.23.69.54s-.29.47-.69.47M71.65,39.63c.51,0,.69.22.69.54s-.28.48-.69.48-.57-.13-.57-.48.12-.54.57-.54M70.08,39.63c.51,0,.69.22.69.54s-.29.48-.69.48-.57-.13-.57-.48.12-.54.57-.54M67.78,33.59c-.41,0-.56-.12-.56-.48s.12-.54.56-.54c.5,0,.69.22.69.54s-.28.48-.69.48"/>
    <path class="cls-1" d="M27.55,39.21c.18-.01.45-.06.73-.06s.62.05.76.06c-.44-.95-1.09-2.43-1.46-3.29-.35-.82-.94-2.2-1.41-3.54-.11.03-.21.05-.31.05-.12,0-.21-.02-.32-.05-.23.8-.8,2.08-1.8,4.3l-1.14,2.53c.14-.02.27-.06.44-.06.16,0,.34.04.47.06.16-.56.47-1.37.79-2.13.39-.02.78-.04,1.18-.04.42,0,.83.02,1.25.04l.41,1.04.41,1.09ZM26.44,36.48c-.3.02-.6.04-.91.04-.34,0-.67-.03-1.01-.04l1-2.41.92,2.41Z"/>
    <path class="cls-1" d="M29.95,34.75c0,1.68,0,3.29-.11,4.46.22-.01.49-.06.7-.06.23,0,.46.05.69.06-.08-.79-.1-1.85-.1-3.32,0-.99,0-2.69.11-3.41-.24.03-.48.06-.7.06-.14,0-.51-.04-.69-.06.1.95.1,1.65.1,2.27"/>
    <path class="cls-1" d="M34.23,33.01c.15-.01.51-.05.7-.05.32,0,.64.05.91.24.34.26.41.61.41,1.02,0,.64-.36,1.35-1.34,1.35-.26,0-.49-.02-.68-.03v-2.54ZM35.83,35.88c.89-.17,1.7-.73,1.7-1.81,0-.41-.16-.82-.45-1.1-.42-.4-.9-.48-1.54-.48-.22,0-1.36.05-1.62.05-.5,0-.76-.03-.98-.05.07,1.26.07,1.4.07,2.69,0,1.89,0,2.11-.09,4.04.22-.03.45-.06.68-.06.24,0,.46.04.65.06,0-.26-.04-1.52-.04-1.81v-1.39h.23c.53.74,1.14,1.61,1.64,2.38.15.22.36.59.51.81.29-.04.41-.06.79-.06.35,0,.6.03.87.06-.62-.77-.88-1.12-1.66-2.21-.15-.21-.36-.53-.51-.74l-.27-.39Z"/>
    <path class="cls-1" d="M40.99,36.92c-.46-1.36-1.1-3.27-1.4-4.43-.24.04-.46.06-.68.06s-.57-.04-.76-.06c.4,1.06.75,2,1.01,2.75.45,1.27.74,2.16,1.1,3.24l.24.74c.14-.03.29-.06.4-.06s.21.02.38.06c.16-.51.34-1.14.48-1.54.38-1.12.43-1.27.93-2.67l.29-.81c.11.31.3.81.4,1.13.11.3.61,1.8.73,2.14.16.44.19.57.56,1.76.09-.01.28-.06.42-.06s.25.03.39.06c.37-1.17.41-1.29.96-2.85.54-1.53.87-2.4,1.46-3.87-.15.04-.29.06-.44.06-.19,0-.34-.03-.45-.06-.35,1.27-.53,1.89-.81,2.74-.46,1.37-.52,1.53-.81,2.27-.31-.84-.62-1.7-.9-2.56-.16-.47-.76-2.43-.77-2.45-.14.03-.24.06-.43.06-.18,0-.31-.04-.43-.06-.3,1.2-1.33,4.08-1.43,4.35l-.25.64-.19-.55Z"/>
    <path class="cls-1" d="M52.04,39.21c.18-.01.45-.06.73-.06s.62.05.76.06c-.44-.95-1.09-2.43-1.46-3.29-.35-.82-.94-2.2-1.41-3.54-.11.03-.21.05-.31.05-.12,0-.22-.02-.32-.05-.24.8-.8,2.08-1.79,4.3l-1.14,2.53c.14-.02.28-.06.44-.06.16,0,.34.04.47.06.16-.56.47-1.37.78-2.13.39-.02.79-.04,1.18-.04.42,0,.83.02,1.25.04l.41,1.04.41,1.09ZM50.93,36.48c-.31.02-.6.04-.9.04-.34,0-.68-.03-1.02-.04l1-2.41.92,2.41Z"/>
    <path class="cls-1" d="M56.21,36.58c0-.09.06-.19.12-.31.41-.71.79-1.44,1.24-2.15.15-.24.86-1.38,1.01-1.64-.11.04-.22.06-.41.06-.22,0-.42-.03-.57-.06-.71,1.55-.86,1.88-1.7,3.31-.83-1.46-1.21-2.24-1.72-3.31-.29.05-.57.06-.81.06-.22,0-.44-.02-.81-.06.51.85,1.34,2.21,1.84,3.07l.58,1c0,.61-.03,1.89-.06,2.66.19-.02.46-.06.66-.06.23,0,.45.04.68.06-.04-.91-.07-1.44-.07-2.27v-.36Z"/>
    <path class="cls-1" d="M59.2,37.74c-.05.47-.06.6-.23,1.11.35.18.99.5,1.83.5,1.8,0,2.49-1.15,2.49-2.15,0-.27-.07-.85-.48-1.29-.28-.31-.58-.42-1.33-.71-.86-.33-1.36-.53-1.36-1.25,0-.58.38-1.06,1.16-1.06.62,0,1.14.29,1.28.85h.14c.09-.37.11-.45.3-.93-.48-.22-.91-.4-1.63-.4-1.78,0-2.28,1.1-2.28,1.96,0,.82.28,1.31,1.24,1.74.27.12.73.29,1.01.41.19.08.81.35.81,1.13,0,.71-.51,1.22-1.28,1.22-.58,0-1.07-.15-1.52-1.13h-.14Z"/>
    <rect class="cls-3" x="150.43" y="8.42" width="1.4" height="30.8"/>
    <path class="cls-3" d="M184.41,13.04h-.3c-.35-.71-1.39-2.77-5.63-2.77-4.92,0-7.54,3.24-7.54,8.81,0,1.03,0,3.77,1.8,6.16,1.06,1.38,2.65,2.68,5.33,2.68,3.62,0,5.48-1.8,6.81-3.36l.32.21-.32,2.92c-2.24,1.24-4.77,1.85-7.45,1.85-5.75,0-10.52-3.56-10.52-10.19,0-5.92,3.62-10.66,11.49-10.66,2.41,0,4.53.41,6.89,1.47l-.88,2.89Z"/>
    <path class="cls-3" d="M199.94,25.86l-1.24-3.12c-1.27-.06-2.5-.12-3.77-.12-1.18,0-2.36.06-3.53.12-.95,2.27-1.89,4.71-2.36,6.39-.38-.06-.94-.18-1.41-.18-.5,0-.92.12-1.33.18l3.42-7.6c2.97-6.66,4.68-10.49,5.39-12.9.32.09.62.15.97.15.33,0,.62-.06.94-.15,1.42,4.04,3.18,8.16,4.24,10.63,1.12,2.57,3.06,7.01,4.38,9.87-.44-.03-1.47-.18-2.29-.18s-1.65.15-2.18.18l-1.24-3.27ZM195.08,13.66l-3,7.25c1.03.03,2.03.12,3.06.12.91,0,1.8-.06,2.71-.12l-2.77-7.25Z"/>
    <path class="cls-3" d="M217.41,20.29c.44.62,1.09,1.59,1.53,2.21,2.33,3.27,3.12,4.3,4.98,6.63-.83-.09-1.57-.18-2.62-.18-1.15,0-1.5.06-2.39.18-.44-.68-1.09-1.77-1.53-2.45-1.5-2.33-3.33-4.92-4.92-7.16h-.71v4.18c0,.85.12,4.65.12,5.42-.59-.06-1.24-.18-1.97-.18-.68,0-1.39.09-2.03.18.23-5.8.26-6.45.26-12.14,0-3.86,0-4.27-.21-8.07.68.06,1.45.15,2.95.15.77,0,4.18-.15,4.86-.15,1.92,0,3.36.24,4.63,1.44.88.86,1.35,2.06,1.35,3.3,0,3.27-2.44,4.95-5.12,5.45l.83,1.18ZM211.75,18.14c.56.03,1.27.09,2.03.09,2.95,0,4.04-2.15,4.04-4.07,0-1.24-.21-2.3-1.24-3.06-.79-.59-1.77-.74-2.74-.74-.56,0-1.65.12-2.09.15v7.63Z"/>
    <path class="cls-3" d="M235.86,8.68c2.42,0,4.54.41,6.9,1.47l-.88,2.89h-.29c-.36-.71-1.39-2.77-5.63-2.77-4.92,0-7.54,3.24-7.54,8.81,0,2.24.41,4.36,1.8,6.16,1.06,1.38,2.65,2.68,5.33,2.68,1.39,0,3.01-.3,4.18-1.06.09-2.06.09-2.3.09-2.68,0-1.44-.09-2.89-.18-4.33.65.09,1.33.21,2.09.21.83,0,1.24-.09,1.86-.21-.18,1.06-.24,4.15-.24,4.95,0,1.12.03,1.85.09,2.68-2.5,1.32-5.71,2.06-8.54,2.06-5.75,0-10.52-3.56-10.52-10.19,0-5.92,3.62-10.66,11.49-10.66"/>
    <path class="cls-3" d="M268.38,18.76c0,6.57-4.45,10.78-10.99,10.78-6.13,0-10.99-3.62-10.99-10.07,0-7.48,5.12-10.78,11.08-10.78,5.51,0,10.9,3,10.9,10.07M257.39,28.04c5.01,0,6.95-4.71,6.95-8.93,0-4.8-1.8-8.93-6.95-8.93s-6.96,4.89-6.96,8.93c0,4.39,1.89,8.93,6.96,8.93"/>
  </g>
</svg>