<?xml version="1.0" encoding="UTF-8"?>
<svg id="Layer_2" data-name="Layer 2" xmlns="http://www.w3.org/2000/svg" viewBox="0 0 125.35 147.29">
  <defs>
    <style>
      .cls-1 {
        fill: #2c2927;
      }

      .cls-2 {
        fill: #afb2b3;
      }

      .cls-3 {
        fill: #682145;
      }
    </style>
  </defs>
  <g id="Layer_1-2" data-name="Layer 1">
    <g>
      <path class="cls-1" d="M5.83,137.69c-.33-.38-.84-.62-1.46-.62s-1.15.25-1.47.62c-.44.49-.56,1.03-.56,3.28s.12,2.78.56,3.27c.33.38.85.62,1.47.62.28,0,.54-.07.75-.21l-1.02-1,1.21-1.2.87.87c.18-.51.21-1.18.21-2.36,0-2.24-.13-2.78-.57-3.28M7.76,147.29l-1.03-1.03c-.65.43-1.44.64-2.36.64-1.33,0-2.34-.46-3.16-1.28-1.18-1.18-1.15-2.64-1.15-4.65s-.03-3.47,1.15-4.65c.82-.82,1.83-1.28,3.16-1.28s2.33.46,3.14,1.28c1.18,1.18,1.16,2.64,1.16,4.65,0,1.75.02,3.05-.72,4.13l1,1-1.2,1.2Z"/>
      <path class="cls-1" d="M15.41,137.16h-2.15v3.08h2.15c1,0,1.65-.64,1.65-1.54s-.66-1.54-1.65-1.54M17.18,146.8l-2.28-4.65h-1.64v4.65h-2.28v-11.66h4.57c2.37,0,3.78,1.62,3.78,3.57,0,1.64-1,2.65-2.13,3.06l2.6,5.03h-2.64Z"/>
      <path class="cls-1" d="M27.4,137.89c-.39-.47-.92-.72-1.7-.72h-1.72v7.6h1.72c.79,0,1.31-.25,1.7-.72.43-.53.49-1.36.49-3.13s-.07-2.5-.49-3.03M28.99,145.68c-.77.77-1.87,1.11-3.08,1.11h-4.21v-11.66h4.21c1.21,0,2.31.34,3.08,1.11,1.31,1.31,1.18,2.92,1.18,4.67s.13,3.46-1.18,4.77"/>
      <rect class="cls-1" x="32.5" y="135.13" width="2.28" height="11.66"/>
      <path class="cls-1" d="M43.75,146.89c-1.15,0-2.2-.43-2.98-1.21-1.1-1.1-1.1-2.24-1.1-4.72s0-3.62,1.1-4.72c.79-.79,1.83-1.21,2.98-1.21,2.1,0,3.65,1.28,4.04,3.47h-1.28c-.31-1.42-1.31-2.36-2.77-2.36-.77,0-1.51.3-2.02.82-.74.75-.82,1.56-.82,4s.08,3.24.82,4c.51.52,1.25.82,2.02.82,1.46,0,2.49-.93,2.8-2.36h1.25c-.38,2.19-1.97,3.47-4.04,3.47"/>
      <path class="cls-1" d="M56.2,136.98c-.51-.52-1.25-.83-2.01-.83s-1.51.31-2.02.83c-.74.75-.82,1.54-.82,3.98s.08,3.23.82,3.98c.51.52,1.25.83,2.02.83s1.51-.31,2.01-.83c.74-.75.82-1.54.82-3.98s-.08-3.23-.82-3.98M57.16,145.68c-.79.79-1.82,1.21-2.98,1.21s-2.2-.43-2.98-1.21c-1.1-1.1-1.1-2.24-1.1-4.72s0-3.62,1.1-4.72c.79-.79,1.82-1.21,2.98-1.21s2.19.43,2.98,1.21c1.1,1.1,1.1,2.24,1.1,4.72s0,3.62-1.1,4.72"/>
      <path class="cls-1" d="M65.09,146.89c-2.36,0-4.06-1.62-4.06-3.95v-7.81h1.24v7.72c0,1.77,1.11,2.93,2.82,2.93s2.83-1.16,2.83-2.93v-7.72h1.25v7.81c0,2.33-1.72,3.95-4.08,3.95"/>
      <polygon class="cls-1" points="79.82 146.8 73.63 137.44 73.63 146.8 72.38 146.8 72.38 135.13 73.56 135.13 79.75 144.45 79.75 135.13 81 135.13 81 146.8 79.82 146.8"/>
      <path class="cls-1" d="M88.01,146.89c-1.15,0-2.2-.43-2.98-1.21-1.1-1.1-1.1-2.24-1.1-4.72s0-3.62,1.1-4.72c.79-.79,1.83-1.21,2.98-1.21,2.1,0,3.65,1.28,4.04,3.47h-1.28c-.31-1.42-1.31-2.36-2.77-2.36-.77,0-1.51.3-2.01.82-.74.75-.82,1.56-.82,4s.08,3.24.82,4c.51.52,1.24.82,2.01.82,1.46,0,2.49-.93,2.8-2.36h1.25c-.38,2.19-1.97,3.47-4.04,3.47"/>
      <rect class="cls-1" x="94.81" y="135.13" width="1.24" height="11.66"/>
      <polygon class="cls-1" points="99.43 146.8 99.43 135.13 100.67 135.13 100.67 145.68 106.64 145.68 106.64 146.8 99.43 146.8"/>
      <polyline class="cls-1" points="12.26 72.03 0 72.03 0 125.59 53.57 125.59 53.57 113.33 12.26 113.33"/>
      <polygon class="cls-3" points="112.71 12.26 112.71 53.57 124.97 53.57 124.97 0 71.4 0 71.4 12.26 112.71 12.26"/>
      <polygon class="cls-2" points="53.57 12.26 53.57 0 0 0 0 53.57 12.26 53.57 12.26 12.26 53.57 12.26"/>
      <path class="cls-1" d="M65.3,70.5h-2.27c-.25,1.36-1.15,2.07-2.68,2.17v-.89c1.23,0,1.85-.67,1.85-2.23v-5.04h.92v5.07h2.18v.92Z"/>
      <path class="cls-1" d="M74.34,69.59c.03-.29.04-.57.04-.83,0-2.05-.85-3.42-2.3-3.42-1.68,0-3.66,2.03-4.28,4.25h6.54ZM77.11,70.5h-12.52v-.91h2.43v-7.62h.98l-.21,6.14c.9-2.19,2.68-3.62,4.36-3.62,2.13,0,3.18,1.51,3.18,4.48,0,.2,0,.4-.01.61h1.8v.92Z"/>
      <path class="cls-1" d="M82.88,63.56h-.94v-1.12h.94v1.12ZM81.15,63.56h-.94v-1.12h.94v1.12ZM83.28,67.41c0-1.32-.59-2.13-1.68-2.13-1.18,0-1.78.89-1.78,2.29,0,1.32.65,2.17,1.73,2.17,1.15,0,1.73-.78,1.73-2.32M84.3,67.51c0,1.72-1.07,3-2.75,3h-4.69v-.92h2.58c-.44-.53-.66-1.22-.66-2.06,0-1.72,1.07-3,2.79-3s2.73,1.19,2.73,2.98"/>
      <path class="cls-1" d="M103,70.5h-9.28c0-.09-.01-.2-.05-.32-.58,1.58-1.9,2.51-3.37,2.51-2.1,0-3.74-1.88-3.74-4.54v-3.65h.92v3.46c0,2.31,1.08,3.83,2.81,3.83,1.6,0,2.6-1.25,2.77-3.3v-3.99h.95v3.65c0,.51-.05.99-.16,1.43h1.65c.85,0,1.12-.41,1.12-1.81v-3.26h.92v3.67c0,.57-.08,1.04-.25,1.4h1.58c.99,0,1.32-.42,1.32-1.81v-3.26h.92v3.67c0,.57-.09,1.04-.26,1.4h2.13v.92Z"/>
      <path class="cls-1" d="M107.32,70.5h-4.56v-.91h.85c.57,0,.94-.19,1.12-.54.13-.25.2-.67.2-1.28v-5.81h.92v6.22c0,.57-.08,1.04-.25,1.4h1.72v.92Z"/>
      <path class="cls-1" d="M112.52,72.51h-.94v-1.12h.94v1.12ZM117.61,70.5h-10.61v-.92h8.03c.01-.17.03-.33.03-.48,0-2.23-1.18-3.51-3.25-3.51-1.12,0-1.95.44-2.48,1.31-.13-.14-.4-.41-.81-.82.75-.94,1.84-1.4,3.27-1.4,2.63,0,4.36,1.74,4.36,4.49v.41h1.45v.92Z"/>
      <path class="cls-1" d="M123.71,68.56c0-.59-.12-1.07-.34-1.43-.29-.44-.71-.65-1.27-.65-.61,0-1.06.24-1.36.7-.25.38-.38.89-.38,1.53,0,.59.13,1.08.38,1.45.3.44.74.65,1.31.65,1.11,0,1.66-.75,1.66-2.26M124.78,68.65c0,.86-.24,1.56-.71,2.11-.5.59-1.18.89-2.02.89-1.02,0-1.78-.38-2.28-1.15h-2.55v-.92h2.17c-.08-.28-.12-.58-.12-.91,0-.87.25-1.58.75-2.15.5-.57,1.19-.85,2.05-.85s1.55.29,2.03.86c.46.54.69,1.25.69,2.13"/>
      <path class="cls-1" d="M71.95,80.31h-2.06v-1.89h2.06v1.89ZM70.39,77.68h-2.05v-1.91h2.05v1.91ZM68.85,80.31h-2.05v-1.89h2.05v1.89ZM76.29,85.07c0,1.71-1,2.71-2.78,2.71h-5.95c-3.63,0-5.44-1.53-5.44-4.6v-2.86h2.27v2.86c0,.97.31,1.64.92,1.99.48.28,1.23.41,2.3.41h4.24c.66,0,1.1-.05,1.35-.16.54-.23.82-.74.82-1.51v-3.57h2.27v4.74Z"/>
      <path class="cls-1" d="M82.92,85.58v-1.59c0-.97-.58-1.59-1.41-1.59s-1.33.67-1.33,1.55c0,.94.56,1.64,1.41,1.64h1.33ZM87.36,87.78h-2.17c-.26,1.81-1.51,2.71-3.75,2.71h-.25v-1.84h.2c.89,0,1.41-.33,1.6-.97-.18.07-.64.1-1.41.1-2.15,0-3.73-1.56-3.73-3.75s1.55-3.72,3.73-3.72,3.65,1.58,3.65,3.77v1.5h2.14v2.2Z"/>
      <rect class="cls-1" x="86.92" y="85.58" width="3.52" height="2.2"/>
      <rect class="cls-1" x="90.18" y="85.58" width="3.52" height="2.2"/>
      <path class="cls-1" d="M106.77,87.78h-13.42v-2.2h9.34c-.05-.87-.36-1.61-.94-2.24-.64-.71-1.5-1.07-2.53-1.07s-2.1.51-2.75,1.18c-.23-.31-.61-.82-1.15-1.56,1.12-1.17,2.47-1.74,4.06-1.74.97,0,1.83.18,2.57.53,1.76.84,2.79,2.47,3.07,4.9h1.74v2.2Z"/>
      <path class="cls-1" d="M111.16,90.51h-2.04v-1.91h2.04v1.91ZM113.81,87.78h-7.42v-2.2h1.51c.77,0,1.17-.53,1.17-1.58v-3.67h2.32v3.58c0,.61-.1,1.15-.28,1.66h2.7v2.2Z"/>
      <path class="cls-1" d="M120.88,87.78h-7.47v-2.2h1.56c.77,0,1.17-.53,1.17-1.58v-6.81h2.32v6.73c0,.61-.1,1.15-.28,1.66h2.7v2.2Z"/>
      <path class="cls-1" d="M125.35,84.61c0,.87-.25,1.59-.72,2.17-.54.68-1.3,1-2.27,1h-2.17v-2.2h1.69c.77,0,1.17-.54,1.17-1.61v-6.77h2.3v7.42Z"/>
      <path class="cls-1" d="M66.73,105.06h-2.55c-.38,1.81-1.86,2.71-4.47,2.71v-1.86c1.51,0,2.27-.72,2.27-2.17v-6.13h2.32v5.25h2.43v2.2Z"/>
      <path class="cls-1" d="M71,107.79h-2.06v-1.91h2.06v1.91ZM71.15,101.88c0,.87-.25,1.6-.72,2.17-.54.67-1.3,1-2.25,1h-1.96v-2.2h1.46c.77,0,1.17-.54,1.17-1.61v-3.63h2.3v4.28ZM67.89,107.79h-2.04v-1.91h2.04v1.91Z"/>
      <path class="cls-1" d="M77.78,102.85v-1.59c0-.97-.58-1.59-1.41-1.59s-1.33.67-1.33,1.55c0,.94.56,1.64,1.41,1.64h1.33ZM82.22,105.06h-2.17c-.26,1.81-1.51,2.71-3.75,2.71h-.25v-1.84h.2c.89,0,1.41-.33,1.59-.97-.18.07-.64.1-1.41.1-2.15,0-3.73-1.56-3.73-3.75s1.55-3.72,3.73-3.72,3.65,1.58,3.65,3.77v1.5h2.14v2.2Z"/>
      <path class="cls-1" d="M93.22,102.85c.02-.11.02-.21.02-.33,0-1.71-.85-2.94-2.29-2.94-1.69,0-3.21,1.1-4.47,3.27h6.74ZM97.43,105.06h-15.61v-2.2h2.63v-8.39h2.28l-.21,5.38c1.48-1.55,2.96-2.27,4.6-2.27,2.71,0,4.26,1.91,4.51,5.28h1.79v2.2Z"/>
      <path class="cls-1" d="M101.9,96.36h-2.04v-1.89h2.04v1.89ZM104.5,105.06h-7.42v-2.2h1.51c.77,0,1.17-.53,1.17-1.58v-3.67h2.32v3.59c0,.61-.1,1.15-.28,1.66h2.7v2.2ZM98.81,96.36h-2.04v-1.89h2.04v1.89Z"/>
      <rect class="cls-1" x="104.19" y="102.85" width="3.52" height="2.2"/>
      <path class="cls-1" d="M112.23,101.88c0,.87-.25,1.6-.72,2.17-.54.68-1.3,1-2.27,1h-2.17v-2.2h1.69c.77,0,1.17-.54,1.17-1.61v-6.77h2.3v7.42Z"/>
      <rect class="cls-1" x="113.91" y="94.45" width="2.3" height="10.61"/>
      <path class="cls-1" d="M123.03,101.37c0-1-.58-1.71-1.4-1.71s-1.35.69-1.35,1.66.53,1.69,1.43,1.69c.82,0,1.32-.64,1.32-1.64M125.34,104.73c0,2.02-1.25,3.04-3.77,3.04h-.23v-1.84h.15c.92,0,1.83-.64,1.83-1.53-.31.51-.86.76-1.63.76-2.12,0-3.7-1.61-3.7-3.81s1.55-3.77,3.7-3.77,3.65,1.63,3.65,3.8v3.35Z"/>
      <path class="cls-1" d="M64.32,120.82c0,1.51-.38,2.6-1.15,3.27-.71.64-1.86.95-3.44.95v-1.86c1.51,0,2.27-.72,2.27-2.17v-6.13h2.32v5.94Z"/>
      <path class="cls-1" d="M70.95,122.33h-2.17c-1.76,0-2.78-1.02-2.78-2.71v-7.89h2.3v6.69c0,1.12.28,1.71,1.97,1.71h.67v2.2Z"/>
      <path class="cls-1" d="M84.17,122.33h-13.57v-2.2h9.04c-.11-.89-.48-1.63-1.05-2.2-.63-.62-1.38-.94-2.27-.94h-4.14l3.26-5.25h2.75l-2.05,3.12h1.23c.81.08,1.53.3,2.14.66,1.46.87,2.32,2.4,2.56,4.6h2.11v2.2Z"/>
      <rect class="cls-1" x="83.76" y="120.13" width="3.52" height="2.2"/>
      <path class="cls-1" d="M91.8,113.63h-2.04v-1.89h2.04v1.89ZM94.4,122.33h-7.42v-2.2h1.51c.77,0,1.17-.53,1.17-1.58v-3.67h2.32v3.58c0,.61-.1,1.15-.28,1.66h2.7v2.2ZM88.71,113.63h-2.04v-1.89h2.04v1.89Z"/>
      <rect class="cls-1" x="94.09" y="120.13" width="3.52" height="2.2"/>
      <path class="cls-1" d="M102.13,125.06h-2.04v-1.91h2.04v1.91ZM102.26,119.16c0,.87-.25,1.59-.72,2.17-.54.68-1.3,1-2.25,1h-1.96v-2.2h1.46c.77,0,1.17-.54,1.17-1.61v-3.63h2.3v4.27Z"/>
      <path class="cls-1" d="M112.23,119.64c0,.81-.26,1.45-.81,1.96-.54.49-1.22.74-2.02.74h-5.46v-2.2h2.45l-2.07-7.28h2.43l2.04,7.28c.77-.02,1.17-.58,1.17-1.68v-6.71h2.27v7.89Z"/>
      <rect class="cls-1" x="113.91" y="111.73" width="2.3" height="10.61"/>
      <path class="cls-1" d="M123.03,118.65c0-1-.58-1.71-1.4-1.71s-1.35.69-1.35,1.66.53,1.69,1.43,1.69c.82,0,1.32-.64,1.32-1.64M125.34,122.01c0,2.02-1.25,3.04-3.77,3.04h-.23v-1.84h.15c.92,0,1.83-.64,1.83-1.53-.31.51-.86.76-1.63.76-2.12,0-3.7-1.61-3.7-3.81s1.55-3.77,3.7-3.77,3.65,1.63,3.65,3.8v3.35Z"/>
      <rect class="cls-3" x="112.98" y="134.8" width="12" height="12"/>
    </g>
  </g>
</svg>