<?xml version="1.0" encoding="UTF-8"?>
<svg id="Layer_2" data-name="Layer 2" xmlns="http://www.w3.org/2000/svg" viewBox="0 0 88.4 76.98">
  <defs>
    <style>
      .cls-1 {
        fill: #c7a876;
      }

      .cls-2 {
        fill: #fff;
      }
    </style>
  </defs>
  <g id="Layer_1-2" data-name="Layer 1">
    <g>
      <g>
        <path class="cls-1" d="M75.29,56.03v-.13s1.62-.2,2.59-.73c1.19-.65,1.82-1.46,1.82-1.47l.1.08s-.65.84-1.86,1.5c-1,.55-2.59.74-2.65.75Z"/>
        <path class="cls-1" d="M74.13,54.39l-.03-.13s2.17-.45,3.47-1.11c.61-.31,1.57-.93,2.68-2.11.06-.06.07-.07.08-.08l.07.11-.03-.05.04.05s-.03.03-.06.06c-1.13,1.2-2.1,1.82-2.72,2.13-1.32.67-3.48,1.12-3.5,1.12Z"/>
        <path class="cls-1" d="M73.02,52.19v-.13s1.41-.03,4.25-1.19c.92-.38,2.09-1.15,3.46-2.3.09-.07.11-.1.13-.1l.07.11-.03-.05.03.05s-.05.04-.11.09c-1.38,1.16-2.56,1.94-3.49,2.32-2.87,1.17-4.24,1.2-4.29,1.2Z"/>
        <path class="cls-1" d="M71.59,49.87v-.13s2.79-.18,5.39-1.19c.91-.35,2.36-1.05,4.14-2.33.05-.04.08-.06.1-.07l.07.11s-.04.03-.09.06c-1.79,1.3-3.26,1.99-4.17,2.35-2.62,1.02-5.41,1.2-5.44,1.2Z"/>
        <path class="cls-1" d="M56.92,30.31v-.13s5.86-.7,12.03-3.19c5.48-2.21,8.42-5.11,9.52-6.2.15-.14.26-.26.34-.33l.08.1c-.08.07-.19.18-.34.32-1.11,1.1-4.05,4.01-9.56,6.23-6.18,2.49-12.02,3.19-12.07,3.2Z"/>
        <path class="cls-1" d="M55.28,28.84l-.02-.13c.06,0,6.21-.82,12.38-3.3,5.57-2.24,8.97-5.54,10.09-6.63.13-.13.23-.23.3-.28l.08.1c-.06.06-.16.15-.29.28-1.12,1.09-4.54,4.4-10.13,6.66-6.18,2.49-12.35,3.3-12.41,3.31Z"/>
        <path class="cls-1" d="M53.74,27.18l-.02-.13c.07,0,6.66-.9,12.83-3.39,5.07-2.04,8.47-5.12,9.92-6.43.34-.31.56-.51.68-.59l.07.11c-.11.07-.34.28-.67.57-1.46,1.32-4.87,4.41-9.96,6.46-6.18,2.49-12.79,3.39-12.86,3.4Z"/>
        <path class="cls-1" d="M52.2,25.51l-.02-.13c.07,0,7.11-.99,13.28-3.47,5.51-2.22,9.07-5.73,10.23-6.88.15-.15.26-.26.33-.32l.08.1c-.07.06-.17.17-.33.31-1.17,1.16-4.74,4.68-10.28,6.91-6.18,2.49-13.24,3.47-13.31,3.48Z"/>
        <path class="cls-1" d="M50.66,23.85l-.02-.13c.07-.01,7.57-1.07,13.73-3.56,5.5-2.22,8.97-5.65,10.12-6.77.15-.15.27-.26.34-.33l.08.1c-.07.06-.18.17-.33.32-1.14,1.13-4.63,4.57-10.16,6.8-6.18,2.49-13.69,3.55-13.76,3.56Z"/>
        <path class="cls-1" d="M57.69,31.96l-.02-.13c.05,0,5.13-.64,11.31-3.1,5.03-2,8.82-5.23,10.06-6.29.15-.13.27-.23.34-.29l.08.1c-.07.06-.18.15-.34.28-1.25,1.06-5.05,4.3-10.1,6.31-6.2,2.46-11.29,3.1-11.34,3.11Z"/>
        <path class="cls-1" d="M59.09,33.59v-.13s4.63-.56,10.81-3.01c4.87-1.93,8.18-4.77,9.59-5.99.19-.16.34-.29.45-.38l.08.1c-.11.09-.26.22-.45.38-1.42,1.22-4.74,4.07-9.63,6.01-6.2,2.45-10.81,3.01-10.86,3.01Z"/>
        <path class="cls-1" d="M60.5,35.21v-.13s4.14-.47,10.33-2.91c4.79-1.89,8.17-4.89,9.28-5.87.15-.14.26-.23.34-.29l.08.1c-.07.06-.18.16-.33.29-1.11.99-4.51,3.99-9.32,5.89-6.2,2.45-10.34,2.92-10.38,2.92Z"/>
        <path class="cls-1" d="M61.91,36.83v-.13s3.66-.39,9.85-2.82c4.64-1.83,7.65-4.44,8.79-5.42.17-.14.3-.26.39-.33l.08.1c-.09.07-.22.18-.38.32-1.14.99-4.17,3.61-8.82,5.44-6.21,2.44-9.86,2.83-9.89,2.83Z"/>
        <path class="cls-1" d="M63.31,38.45v-.13s3.17-.3,9.36-2.73c4.56-1.79,7.28-4.15,8.3-5.04.15-.13.26-.23.35-.3l.08.1c-.08.07-.2.17-.35.29-1.03.89-3.76,3.27-8.34,5.06-6.21,2.44-9.38,2.74-9.41,2.74Z"/>
        <path class="cls-1" d="M64.72,40.08v-.13s2.69-.22,8.88-2.64c4.16-1.63,6.56-3.54,7.58-4.36.24-.19.41-.32.52-.4l.07.11c-.11.07-.28.2-.51.39-1.03.82-3.44,2.75-7.62,4.38-6.21,2.43-8.9,2.65-8.93,2.65Z"/>
        <path class="cls-1" d="M66.12,41.7v-.13s2.21-.13,8.4-2.55c4.12-1.61,6.1-3.11,7.05-3.83.18-.14.33-.25.44-.32l.07.11c-.1.07-.25.17-.43.31-.96.72-2.94,2.23-7.08,3.84-6.22,2.42-8.42,2.55-8.44,2.56Z"/>
        <path class="cls-1" d="M67.17,43.24v-.13s2.07-.14,7.81-2.31c3.78-1.44,5.92-3.11,6.84-3.83.16-.12.28-.22.37-.28l.07.1c-.09.06-.21.16-.37.28-.92.72-3.08,2.41-6.87,3.85-5.77,2.18-7.84,2.32-7.86,2.32Z"/>
        <path class="cls-1" d="M68.22,44.78v-.13s1.93-.15,7.22-2.07c3.52-1.29,5.67-3,6.48-3.64.08-.07.15-.12.21-.17l.08.1c-.06.04-.13.1-.21.16-.81.65-2.98,2.36-6.52,3.66-5.32,1.94-7.25,2.08-7.27,2.08Z"/>
        <path class="cls-1" d="M69.26,46.32v-.13s1.78-.15,6.64-1.84c2.26-.79,4.34-1.95,6.02-3.34l.08.1c-1.69,1.4-3.78,2.56-6.06,3.36-4.87,1.69-6.66,1.84-6.68,1.84Z"/>
        <path class="cls-1" d="M70.51,47.87c-.13,0-.2,0-.21,0v-.13s1.65.16,6.05-1.28c1.87-.61,3.69-1.71,5.42-3.25l.09.1c-1.74,1.56-3.58,2.66-5.47,3.28-3.59,1.18-5.32,1.3-5.88,1.3Z"/>
        <path class="cls-1" d="M46.54,22.33c-.12,0-.19,0-.2,0v-.13c.08,0,7.79.12,14.8-2.48,6.92-2.58,12.16-7.25,12.73-7.78h.01s.09.08.09.08h-.01c-.58.54-5.84,5.22-12.77,7.81-6.4,2.38-13.38,2.49-14.64,2.49Z"/>
        <path class="cls-1" d="M45.09,20.74c-.15,0-.24,0-.25,0v-.13c.08,0,8.17.14,15.34-2.54,7.12-2.67,11.85-7.05,12.36-7.54l.02-.02.09.1h-.02c-.84.82-5.41,4.96-12.41,7.58-6.49,2.42-13.73,2.55-15.14,2.55Z"/>
        <path class="cls-1" d="M43.64,19.14c-.19,0-.29,0-.3,0v-.13c.09,0,8.56.16,15.89-2.6,7.4-2.78,11.45-6.77,11.89-7.22,0,0,.01-.01.01-.01l.09.1h0c-.44.46-4.51,4.47-11.93,7.25-6.58,2.47-14.07,2.61-15.64,2.61Z"/>
        <path class="cls-1" d="M41.9,17.62c-.09,0-.14,0-.14,0v-.13c.09,0,9.03.1,16.53-2.73,8.01-3.02,11.47-6.58,11.51-6.62l.09.09s-3.52,3.62-11.56,6.65c-7,2.64-15.25,2.74-16.43,2.74Z"/>
        <path class="cls-1" d="M40.49,16.93v-.13c.09,0,8.71-.09,15.63-2.72,7.99-3.05,11.76-7.07,11.8-7.11l.09.09s-3.83,4.08-11.85,7.14c-6.95,2.64-15.59,2.73-15.68,2.73Z"/>
        <path class="cls-1" d="M39.13,16.31v-.13c.08,0,8.47-.36,14.83-2.8,7.98-3.08,11.99-7.32,12.03-7.36l.09.09s-4.07,4.31-12.08,7.39c-6.38,2.45-14.79,2.8-14.88,2.81Z"/>
        <path class="cls-1" d="M37.77,15.7v-.13c.07,0,8.24-.62,14.03-2.87,7.97-3.1,11.85-7.45,11.89-7.5l.1.08s-3.94,4.41-11.94,7.53c-5.81,2.26-14,2.87-14.08,2.88Z"/>
        <path class="cls-1" d="M36.33,15.14v-.13c.07,0,8.09-.94,13.32-3,7.96-3.14,11.52-7.32,11.55-7.36l.1.08s-3.62,4.25-11.6,7.4c-5.24,2.07-13.28,3-13.36,3Z"/>
        <path class="cls-1" d="M35.28,14.81l-.02-.13c.08-.01,7.64-1.03,12.88-3.06,7.12-2.77,10.64-7.19,10.67-7.23l.1.08s-3.57,4.49-10.73,7.27c-5.25,2.03-12.84,3.06-12.91,3.07Z"/>
        <path class="cls-1" d="M34.32,14.52l-.02-.13c.07-.01,7.09-1.18,12.34-3.18,6.29-2.4,9.59-6.85,9.62-6.89l.1.08s-3.36,4.52-9.68,6.94c-5.27,2-12.29,3.17-12.37,3.18Z"/>
        <path class="cls-1" d="M33.32,14.24l-.02-.13c.07-.01,6.58-1.32,11.85-3.28,5.45-2.03,8.35-6.29,8.38-6.33l.11.07s-2.95,4.33-8.44,6.38c-5.28,1.97-11.81,3.28-11.87,3.29Z"/>
        <path class="cls-1" d="M32.9,14.11l-.02-.13c.06-.01,6.09-1.15,10.8-3,4.86-1.91,7.59-6.15,7.61-6.2l.11.07s-2.78,4.33-7.68,6.25c-4.72,1.85-10.76,3-10.82,3.01Z"/>
        <path class="cls-1" d="M32.39,14.01l-.02-.13c.06,0,5.69-1.01,9.83-2.74,4.26-1.78,6.7-5.87,6.72-5.91l.11.06s-2.49,4.17-6.78,5.96c-4.15,1.74-9.8,2.74-9.86,2.75Z"/>
        <path class="cls-1" d="M31.93,13.93l-.02-.13c.05,0,5.26-.88,8.83-2.49,3.66-1.65,5.69-5.41,5.71-5.45l.11.06s-2.07,3.84-5.77,5.51c-3.59,1.62-8.81,2.49-8.86,2.5Z"/>
        <path class="cls-1" d="M31.39,13.85l-.02-.13s4.88-.76,7.89-2.26c3.06-1.52,4.75-4.84,4.77-4.88l.11.06s-1.73,3.4-4.83,4.93c-3.02,1.51-7.88,2.26-7.93,2.27Z"/>
        <path class="cls-1" d="M30.88,13.77l-.02-.13s4.49-.63,6.93-2.01c2.46-1.39,3.78-4.14,3.79-4.16l.12.05s-1.34,2.81-3.84,4.22c-2.46,1.39-6.93,2.02-6.98,2.02Z"/>
        <path class="cls-1" d="M30.31,13.67v-.13s4.14-.49,6.01-1.75c1.87-1.26,2.7-3.27,2.71-3.29l.12.05s-.86,2.07-2.76,3.35c-1.9,1.28-6.04,1.77-6.08,1.77Z"/>
      </g>
      <path class="cls-1" d="M81.34,21.91c.37,1.47.63,2.92.82,4.3-.18-1.49-.46-2.93-.82-4.3Z"/>
      <path class="cls-1" d="M82.61,12.86C71.95-8.53,42.06,3.22,42.06,3.22c26.89-8.65,36.62,8.06,39.26,18.61,0,.03.01.05.02.08.35,1.38.63,2.81.82,4.3.84,6.23.12,11.19.12,11.19h0c-1.05,15.94-6.54,30.63-10.6,39.56h8.6c5.87-14.17,13.66-41.39,2.33-64.1Z"/>
      <path class="cls-2" d="M82.28,37.4s1.08-7.46-.96-15.57c-2.65-10.55-12.38-27.26-39.26-18.61C19.13,10.6,8.62,28.84,5.19,34.88c-1.83,3.22-3.81,8.93-3.81,8.93,0,0,13.46-22.31,31.33-32.14,15.59-8.57,26.36-8.05,31.89-6.16,5.04,1.73,8.13,4.8,10.69,8.14,5.96,7.77,6.99,23.74,6.99,23.74Z"/>
      <path class="cls-1" d="M53.82,26.81C31.82,4.35,13.22,16.26,11.87,17.21c-1.36.95-4.88,3.49-8.14,8.56-.64.99-2.7,4.63-3.73,9.33,0,0,6.57-22.2,26.93-19.09,26.2,4,45.38,42.09,53.35,60.95h5.58c-5.63-12.85-16.5-34.28-32.04-50.15Z"/>
      <g>
        <ellipse class="cls-2" cx="13.43" cy="38.22" rx="1.72" ry="2.42" transform="translate(-14.07 8.47) rotate(-23.38)"/>
        <ellipse class="cls-2" cx="19.34" cy="36.8" rx="1.72" ry="2.42" transform="translate(-13.02 10.7) rotate(-23.38)"/>
        <ellipse class="cls-2" cx="25.25" cy="35.37" rx="1.72" ry="2.42" transform="translate(-11.96 12.93) rotate(-23.38)"/>
        <ellipse class="cls-2" cx="31.17" cy="33.94" rx="1.72" ry="2.42" transform="translate(-10.91 15.16) rotate(-23.38)"/>
        <ellipse class="cls-2" cx="10.08" cy="46.91" rx="1.72" ry="2.42" transform="translate(-17.79 7.85) rotate(-23.38)"/>
        <ellipse class="cls-2" cx="10.47" cy="55.38" rx="1.72" ry="2.42" transform="translate(-21.12 8.71) rotate(-23.38)"/>
        <ellipse class="cls-2" cx="10.87" cy="63.84" rx="1.72" ry="2.42" transform="translate(-24.45 9.56) rotate(-23.38)"/>
        <ellipse class="cls-2" cx="15.99" cy="45.48" rx="1.72" ry="2.42" transform="translate(-16.74 10.08) rotate(-23.38)"/>
        <ellipse class="cls-2" cx="21.9" cy="44.06" rx="1.72" ry="2.42" transform="translate(-15.69 12.31) rotate(-23.38)"/>
        <ellipse class="cls-2" cx="27.82" cy="42.63" rx="1.72" ry="2.42" transform="translate(-14.64 14.54) rotate(-23.38)"/>
        <ellipse class="cls-2" cx="33.73" cy="41.2" rx="1.72" ry="2.42" transform="translate(-13.58 16.77) rotate(-23.38)"/>
        <ellipse class="cls-2" cx="39.64" cy="39.78" rx="1.72" ry="2.42" transform="translate(-12.53 19) rotate(-23.38)"/>
        <ellipse class="cls-2" cx="27.82" cy="42.63" rx="1.72" ry="2.42" transform="translate(-14.64 14.54) rotate(-23.38)"/>
        <ellipse class="cls-2" cx="10.47" cy="55.38" rx="1.72" ry="2.42" transform="translate(-21.12 8.71) rotate(-23.38)"/>
        <ellipse class="cls-2" cx="16.39" cy="53.95" rx="1.72" ry="2.42" transform="translate(-20.07 10.93) rotate(-23.38)"/>
        <ellipse class="cls-2" cx="16.74" cy="63.09" rx="1.72" ry="2.42" transform="translate(-23.66 11.82) rotate(-23.38)"/>
        <ellipse class="cls-2" cx="17.09" cy="72.22" rx="1.72" ry="2.42" transform="translate(-27.26 12.71) rotate(-23.38)"/>
        <ellipse class="cls-2" cx="22.3" cy="52.52" rx="1.72" ry="2.42" transform="translate(-19.01 13.16) rotate(-23.38)"/>
        <ellipse class="cls-2" cx="22.65" cy="61.66" rx="1.72" ry="2.42" transform="translate(-22.61 14.05) rotate(-23.38)"/>
        <ellipse class="cls-2" cx="23" cy="70.8" rx="1.72" ry="2.42" transform="translate(-26.21 14.94) rotate(-23.38)"/>
        <ellipse class="cls-2" cx="28.21" cy="51.09" rx="1.72" ry="2.42" transform="translate(-17.96 15.39) rotate(-23.38)"/>
        <ellipse class="cls-2" cx="28.56" cy="60.23" rx="1.72" ry="2.42" transform="translate(-21.56 16.28) rotate(-23.38)"/>
        <ellipse class="cls-2" cx="28.91" cy="69.37" rx="1.72" ry="2.42" transform="translate(-25.16 17.17) rotate(-23.38)"/>
        <ellipse class="cls-2" cx="34.12" cy="49.67" rx="1.72" ry="2.42" transform="translate(-16.91 17.62) rotate(-23.38)"/>
        <ellipse class="cls-2" cx="34.47" cy="58.81" rx="1.72" ry="2.42" transform="translate(-20.51 18.51) rotate(-23.38)"/>
        <ellipse class="cls-2" cx="34.83" cy="67.94" rx="1.72" ry="2.42" transform="translate(-24.11 19.4) rotate(-23.38)"/>
        <ellipse class="cls-2" cx="40.04" cy="48.24" rx="1.72" ry="2.42" transform="translate(-15.86 19.85) rotate(-23.38)"/>
        <ellipse class="cls-2" cx="46.27" cy="55.95" rx="1.72" ry="2.42" transform="translate(-18.41 22.96) rotate(-23.38)"/>
        <ellipse class="cls-2" cx="40.39" cy="57.38" rx="1.72" ry="2.42" transform="translate(-19.46 20.74) rotate(-23.38)"/>
        <ellipse class="cls-2" cx="46.3" cy="55.96" rx="1.72" ry="2.42" transform="translate(-18.41 22.98) rotate(-23.38)"/>
        <ellipse class="cls-2" cx="52.57" cy="63.67" rx="1.72" ry="2.42" transform="translate(-20.95 26.09) rotate(-23.38)"/>
        <ellipse class="cls-2" cx="58.83" cy="71.38" rx="1.72" ry="2.42" transform="translate(-23.5 29.21) rotate(-23.38)"/>
        <ellipse class="cls-2" cx="52.22" cy="54.55" rx="1.72" ry="2.42" transform="translate(-17.36 25.21) rotate(-23.38)"/>
        <ellipse class="cls-2" cx="40.74" cy="66.52" rx="1.72" ry="2.42" transform="translate(-23.05 21.63) rotate(-23.38)"/>
        <ellipse class="cls-2" cx="45.95" cy="46.81" rx="1.72" ry="2.42" transform="translate(-14.81 22.08) rotate(-23.38)"/>
        <ellipse class="cls-2" cx="52.22" cy="54.55" rx="1.72" ry="2.42" transform="translate(-17.36 25.21) rotate(-23.38)"/>
        <ellipse class="cls-2" cx="46.6" cy="65.11" rx="1.72" ry="2.42" transform="translate(-22.02 23.84) rotate(-23.38)"/>
        <ellipse class="cls-2" cx="52.91" cy="72.8" rx="1.72" ry="2.42" transform="translate(-24.55 26.98) rotate(-23.38)"/>
        <ellipse class="cls-2" cx="16.74" cy="63.09" rx="1.72" ry="2.42" transform="translate(-23.66 11.82) rotate(-23.38)"/>
        <ellipse class="cls-2" cx="22.65" cy="61.66" rx="1.72" ry="2.42" transform="translate(-22.61 14.05) rotate(-23.38)"/>
        <ellipse class="cls-2" cx="28.56" cy="60.23" rx="1.72" ry="2.42" transform="translate(-21.56 16.28) rotate(-23.38)"/>
        <ellipse class="cls-2" cx="34.47" cy="58.81" rx="1.72" ry="2.42" transform="translate(-20.51 18.51) rotate(-23.38)"/>
        <ellipse class="cls-2" cx="52.57" cy="63.67" rx="1.72" ry="2.42" transform="translate(-20.95 26.09) rotate(-23.38)"/>
        <ellipse class="cls-2" cx="47" cy="74.22" rx="1.72" ry="2.42" transform="translate(-25.6 24.75) rotate(-23.38)"/>
        <ellipse class="cls-2" cx="52.91" cy="72.8" rx="1.72" ry="2.42" transform="translate(-24.55 26.98) rotate(-23.38)"/>
        <path class="cls-2" d="M42.66,74.95c.31.72.35,1.46.15,2.03-.75,0-1.66,0-2.91,0-.15-.2-.28-.42-.38-.67-.53-1.23-.26-2.53.61-2.91.87-.38,2.01.31,2.54,1.54Z"/>
        <path class="cls-2" d="M27.59,76.98c.15-.33.39-.59.7-.72.65-.28,1.45.03,2.03.72-.76,0-1.68,0-2.73,0Z"/>
        <path class="cls-2" d="M36.74,76.38c.09.2.15.4.2.6-.7,0-3.01,0-3.58,0-.17-.97.15-1.85.84-2.15.87-.38,2.01.31,2.54,1.54Z"/>
      </g>
    </g>
  </g>
</svg>