<?xml version="1.0" encoding="UTF-8"?>
<svg id="Layer_2" data-name="Layer 2" xmlns="http://www.w3.org/2000/svg" viewBox="0 0 262.87 56.26">
  <defs>
    <style>
      .cls-1 {
        fill: #891739;
      }
    </style>
  </defs>
  <g id="Layer_1-2" data-name="Layer 1">
    <g>
      <g>
        <polyline class="cls-1" points="215.04 41.39 215.04 41.39 215.04 41.39"/>
        <g>
          <polyline class="cls-1" points="203.07 15.09 203.06 15.09 203.07 15.09"/>
          <polyline class="cls-1" points="202.5 15.36 202.5 15.36 202.51 15.35 202.5 15.36"/>
        </g>
        <g>
          <polyline class="cls-1" points="215.04 41.39 215.04 41.39 215.04 41.39"/>
          <g>
            <polyline class="cls-1" points="203.07 15.09 203.06 15.09 203.07 15.09"/>
            <polyline class="cls-1" points="202.5 15.36 202.5 15.36 202.51 15.35 202.5 15.36"/>
          </g>
          <g>
            <path class="cls-1" d="M205.63,22.62l.28-.28c.77-.77,1.7-1.71,2.14-2.13.47.47,1.57,1.57,2.41,2.41h-4.83Z"/>
            <rect class="cls-1" x="198.28" y="17.38" width="5.2" height="5.24"/>
            <polygon class="cls-1" points="204.75 17.27 207.45 14.6 207.45 19.04 204.75 21.73 204.75 17.27"/>
            <path class="cls-1" d="M201.75,28.02l-.76-.75.76-.75s1.43-1.43,1.73-1.73v4.97c-.26-.26-1.73-1.73-1.73-1.73Z"/>
            <rect class="cls-1" x="204.76" y="23.9" width="6.63" height="6.74"/>
            <polygon class="cls-1" points="195.39 26.65 198.17 23.9 202.58 23.9 199.82 26.65 195.39 26.65"/>
            <rect class="cls-1" x="212.61" y="17.38" width="5.2" height="5.24"/>
            <polygon class="cls-1" points="208.64 19.04 208.64 14.6 211.34 17.27 211.34 21.73 208.64 19.04"/>
            <polygon class="cls-1" points="216.28 26.65 213.52 23.9 217.92 23.9 220.71 26.65 216.28 26.65"/>
            <path class="cls-1" d="M208.05,34.33c-.42-.42-1.32-1.32-2.08-2.08l-.34-.34h4.83c-.84.85-1.94,1.95-2.41,2.41Z"/>
            <rect class="cls-1" x="198.28" y="31.91" width="5.2" height="5.24"/>
            <polygon class="cls-1" points="204.75 37.27 204.75 32.81 207.45 35.49 207.45 39.94 204.75 37.27"/>
            <polygon class="cls-1" points="198.17 30.64 195.39 27.89 199.82 27.89 202.58 30.64 198.17 30.64"/>
            <rect class="cls-1" x="212.61" y="31.91" width="5.2" height="5.24"/>
            <polygon class="cls-1" points="208.64 35.49 211.34 32.81 211.34 37.27 208.64 39.94 208.64 35.49"/>
            <path class="cls-1" d="M212.61,24.78c.3.3,1.73,1.73,1.73,1.73l.76.75-.76.75s-1.45,1.45-1.73,1.73v-4.97Z"/>
            <polygon class="cls-1" points="213.52 30.64 216.28 27.89 220.71 27.89 217.92 30.64 213.52 30.64"/>
            <path class="cls-1" d="M199.64,16.11c2.12-1.6,4.62-2.55,7.26-2.77l-2.77,2.77h-4.49Z"/>
            <path class="cls-1" d="M211.99,16.11l-2.77-2.77c2.64.21,5.14,1.17,7.26,2.77h-4.49Z"/>
            <path class="cls-1" d="M206.9,41.22c-2.64-.21-5.14-1.17-7.26-2.77h4.49l2.77,2.77Z"/>
            <path class="cls-1" d="M211.99,38.45h4.49c-2.12,1.6-4.62,2.55-7.26,2.77l2.77-2.77Z"/>
            <path class="cls-1" d="M196.89,35.7c-1.6-2.12-2.55-4.62-2.77-7.26l2.77,2.77v4.49Z"/>
            <path class="cls-1" d="M194.12,26.11c.21-2.64,1.17-5.14,2.77-7.26v4.49l-2.77,2.77Z"/>
            <path class="cls-1" d="M219.23,31.21l2.77-2.77c-.21,2.64-1.17,5.14-2.77,7.26v-4.49Z"/>
            <path class="cls-1" d="M219.23,23.35v-4.49c1.6,2.12,2.55,4.62,2.77,7.26l-2.77-2.77Z"/>
          </g>
          <polygon class="cls-1" points="225.24 42.69 232.39 38.63 232.39 0 210.98 8.81 210.98 9.79 225.24 9.79 225.24 42.69"/>
          <polygon class="cls-1" points="235.32 54.1 225.23 44.69 190.96 44.69 190.92 44.69 190.92 10.39 188.48 19.5 188.48 46.96 180.83 54.1 235.32 54.1"/>
          <polygon class="cls-1" points="239 54.13 228.54 44.36 233.57 41.48 259.79 50.62 262.87 54.13 239 54.13"/>
          <g>
            <polygon class="cls-1" points="254.53 11.41 254.53 12.65 256.13 13.21 256.13 46.84 257.29 47.24 257.29 12.39 254.53 11.41"/>
            <polygon class="cls-1" points="251.22 11.48 252.78 12.03 252.78 45.67 253.99 46.09 253.99 11.22 251.22 10.25 251.22 11.48"/>
            <polygon class="cls-1" points="247.9 10.31 249.53 10.88 249.53 44.54 250.67 44.93 250.67 10.05 247.9 9.08 247.9 10.31"/>
            <polygon class="cls-1" points="244.58 9.14 246.17 9.7 246.17 43.37 247.35 43.78 247.35 8.88 244.58 7.9 244.58 9.14"/>
            <polygon class="cls-1" points="241.24 7.96 242.91 8.55 242.91 42.23 244.02 42.62 244.02 7.71 241.24 6.73 241.24 7.96"/>
            <polygon class="cls-1" points="237.9 6.79 239.48 7.34 239.48 41.04 240.68 41.46 240.68 6.53 237.9 5.56 237.9 6.79"/>
            <polygon class="cls-1" points="234.55 5.61 236.14 6.16 236.14 39.87 237.34 40.29 237.34 5.35 234.55 4.37 234.55 5.61"/>
          </g>
        </g>
      </g>
      <g>
        <path class="cls-1" d="M11.44,48.26c0-3.67-2.29-6.14-5.71-6.14s-5.73,2.47-5.73,6.14,2.25,6.12,5.73,6.12c.32,0,.57-.01.8-.05l2.07,1.94h2.92l-2.87-2.59c1.79-.98,2.8-2.93,2.8-5.41ZM9.12,48.26c0,1.98-.89,4.09-3.39,4.09s-3.42-2.21-3.42-4.09c0-1.32.42-2.49,1.16-3.23.58-.58,1.33-.87,2.22-.87h.03c.89-.02,1.64.28,2.22.86.74.73,1.16,1.91,1.16,3.24Z"/>
        <path class="cls-1" d="M18.42,42.32l-5.06,11.87h2.36l1.14-2.85h5.11l1.16,2.85h2.42l-5.02-11.87h-2.11ZM21.2,49.42h-3.58l1.79-4.46,1.79,4.46Z"/>
        <polygon class="cls-1" points="25.57 44.35 29.08 44.35 29.08 54.19 31.29 54.19 31.29 44.35 34.79 44.35 34.79 42.32 25.57 42.32 25.57 44.35"/>
        <path class="cls-1" d="M40.2,42.32l-5.06,11.87h2.36l1.14-2.85h5.1l1.15,2.85h2.42l-5.02-11.87h-2.1ZM42.98,49.42h-3.58l1.79-4.46,1.79,4.46Z"/>
        <path class="cls-1" d="M55.55,48.35c1.16-.44,1.9-1.45,1.9-2.67,0-2.96-2.37-3.36-4.68-3.36h-3.06v11.87h2.22v-5.01h.66c.85,0,1.2,0,1.61.91l1.81,4.09h2.52l-2.34-4.93c-.21-.4-.39-.69-.64-.91ZM55.13,45.71c0,.91-.8,1.45-2.13,1.45h-1.08v-2.81h1.25c.73,0,1.95.18,1.95,1.36Z"/>
        <path class="cls-1" d="M74.54,49.02c0,2.31-.76,3.33-2.45,3.33s-2.45-1.03-2.45-3.33v-6.7h-2.22v6.9c0,3.28,1.7,5.15,4.68,5.15s4.68-1.88,4.68-5.15v-6.9h-2.23v6.7Z"/>
        <polygon class="cls-1" points="87.86 50.59 83.33 42.32 80.65 42.32 80.65 54.19 82.87 54.19 82.87 45.74 87.53 54.19 90.07 54.19 90.07 42.32 87.86 42.32 87.86 50.59"/>
        <rect class="cls-1" x="93.94" y="42.32" width="2.22" height="11.87"/>
        <polygon class="cls-1" points="104.31 51.61 101.03 42.32 98.58 42.32 103.04 54.19 105.48 54.19 110.02 42.32 107.66 42.32 104.31 51.61"/>
        <polygon class="cls-1" points="112.51 54.19 119.41 54.19 119.41 52.16 114.74 52.16 114.74 49.06 119.02 49.06 119.02 47.03 114.74 47.03 114.74 44.35 119.41 44.35 119.41 42.32 112.51 42.32 112.51 54.19"/>
        <path class="cls-1" d="M128.76,48.35c1.16-.44,1.9-1.45,1.9-2.67,0-2.96-2.36-3.36-4.68-3.36h-3.06v11.87h2.22v-5.01h.66c.85,0,1.2,0,1.62.91l1.8,4.09h2.52l-2.33-4.93c-.22-.42-.41-.71-.64-.91ZM128.34,45.71c0,.91-.8,1.45-2.13,1.45h-1.07v-2.81h1.24c.73,0,1.95.18,1.95,1.36Z"/>
        <path class="cls-1" d="M137.91,46.95c-1.1-.53-1.77-.89-1.77-1.6,0-1.03,1.05-1.19,1.67-1.19.76,0,1.17.13,1.99.44l.35.13.34-2.11-.24-.08c-.77-.27-1.69-.42-2.52-.42-2.38,0-3.92,1.33-3.92,3.38s1.61,2.84,2.9,3.44c1.21.57,1.95.96,1.95,1.88,0,1.13-1.14,1.53-1.91,1.53-.71,0-1.61-.27-2.22-.53l-.38-.16-.23,2.14.23.08c.75.25,1.56.49,2.4.49,2.76,0,4.41-1.37,4.41-3.66s-1.7-3.11-3.07-3.77Z"/>
        <rect class="cls-1" x="144.2" y="42.32" width="2.22" height="11.87"/>
        <polygon class="cls-1" points="149.04 44.35 152.54 44.35 152.54 54.19 154.76 54.19 154.76 44.35 158.26 44.35 158.26 42.32 149.04 42.32 149.04 44.35"/>
        <polygon class="cls-1" points="168.28 42.32 165.18 47.12 161.99 42.32 159.38 42.32 164.04 49.28 164.04 54.19 166.25 54.19 166.25 49.28 170.91 42.32 168.28 42.32"/>
        <path class="cls-1" d="M79.46,14.42c.54,0,1.01-.18,1.47-.56.42-.39.63-.86.63-1.39s-.21-1.01-.64-1.4c-.45-.37-.92-.55-1.45-.55-.58,0-1.08.18-1.48.54-.43.38-.66.85-.66,1.41s.22,1.02.66,1.41c.41.36.92.54,1.48.54Z"/>
        <path class="cls-1" d="M84.71,14.42c.55,0,1.04-.19,1.46-.56.43-.4.64-.87.64-1.39s-.22-1-.65-1.39c-.42-.37-.91-.55-1.45-.55-.58,0-1.06.18-1.48.54-.43.38-.64.85-.64,1.4s.22,1.02.65,1.41c.43.36.91.54,1.47.54Z"/>
        <path class="cls-1" d="M84.69,31.58v-2.69h-.3c-2.89,0-4.87-.21-5.87-.63-1.78-.72-2.6-2.16-2.6-4.53,0-1.27.4-2.41,1.18-3.41.84-1.08,1.9-1.62,3.13-1.62h5.22v12.87h40.32c.74.18,1.48.26,2.21.26.52,0,1.03-.04,1.53-.13,1.96-.34,3.54-1.29,4.82-2.89,1.2-1.52,1.8-3.28,1.8-5.23,0-2.27-.8-4.21-2.37-5.75h0c-1.57-1.54-3.55-2.32-5.87-2.32s-4.32.78-5.89,2.33c-1.58,1.55-2.39,3.49-2.39,5.76,0,2.06.58,3.81,1.72,5.22h-12.34c1.36-1.48,2.05-3.27,2.05-5.34,0-2.28-.79-4.21-2.36-5.75-1.56-1.54-3.53-2.31-5.85-2.31s-4.31.78-5.87,2.31c-1.56,1.53-2.36,3.46-2.36,5.74,0,2.06.68,3.85,2.03,5.33h-8.34v-12.86h-8.15c-1.9,0-3.64.94-5.16,2.79-1.2,1.42-1.81,3.21-1.81,5.32s.6,3.67,1.93,5.22c.51.6,1.13,1.01,1.67,1.34.37.22.65.32,1.03.46l.24.09c.62.24,2.05.44,2.66.44h4ZM122.38,23.76c0-1.5.52-2.71,1.59-3.69,1.05-.98,2.37-1.47,3.92-1.47s2.85.5,3.89,1.48c1.06,1.01,1.57,2.21,1.57,3.68s-.52,2.68-1.59,3.67c-1.07.98-2.37,1.48-3.87,1.48s-2.86-.5-3.92-1.48c-1.07-.98-1.59-2.18-1.59-3.67ZM97.32,23.58c0-1.5.52-2.7,1.59-3.7,1.07-.98,2.38-1.48,3.91-1.48s2.85.49,3.91,1.49c1.05.98,1.58,2.22,1.58,3.68s-.53,2.68-1.58,3.65c-1.1,1-2.37,1.49-3.9,1.49s-2.84-.5-3.91-1.49c-1.05-.97-1.59-2.19-1.59-3.65Z"/>
        <path class="cls-1" d="M156.47,33.39c-.56,0-1.05.19-1.45.55-.43.37-.65.85-.65,1.42s.22,1.05.64,1.42c.41.37.89.55,1.45.55s1.06-.19,1.46-.55c.42-.38.63-.85.63-1.42s-.21-1.04-.63-1.41c-.4-.37-.89-.55-1.46-.55Z"/>
        <path class="cls-1" d="M170.65,31.58v-2.56l-16-13.05-1.98,1.92,13.29,10.97h-18.83c-.89,0-1.66-.08-2.23-.24-.71-.21-1.42-.61-2.09-1.18-.59-.64-1-1.33-1.23-2.04-.11-.4-.25-1.1-.25-2.18v-13.33h-2.77v14.1c.06,1.23.22,1.98.32,2.33.37,1.16,1.01,2.2,1.91,3.09.9.88,1.97,1.5,3.17,1.86.25.07.97.26,2.38.32h24.3Z"/>
        <path class="cls-1" d="M54.12,14.42c.58,0,1.07-.19,1.48-.55.41-.37.62-.84.62-1.4s-.21-1.02-.62-1.4c-.41-.36-.9-.55-1.48-.55s-1.06.18-1.46.55c-.43.38-.66.86-.66,1.4s.22,1.03.66,1.4c.41.36.9.55,1.47.55Z"/>
        <path class="cls-1" d="M48.66,14.42c.59,0,1.07-.18,1.46-.54.43-.37.65-.84.65-1.41s-.22-1.03-.64-1.4c-.4-.37-.88-.55-1.47-.55s-1.07.19-1.45.54c-.43.37-.65.84-.65,1.4s.21,1.04.64,1.4c.39.36.9.55,1.46.55Z"/>
        <path class="cls-1" d="M4.59,34.75c1.21-.84,2.08-1.88,2.65-3.17h51.09v-8.18c0-1.81-.1-3.43-1.34-4.82h0c-1.13-1.27-2.74-2.2-4.4-2.54-3.6-.71-7.55.84-9.2,3.59-1.63,2.73-1.53,6.17.27,8.55l.09.12c.14.19.27.36.38.51h-7.76c.1-.11.2-.24.31-.38.05-.06.09-.11.12-.15,2.36-2.95,1.94-7.73-.87-10.07l-.08-.07c-1.48-1.17-3.23-1.75-5.69-1.88-2.77-.14-5.45.6-7.95,2.22-.6.38-1.21.79-1.86,1.24v-9.83h-2.76v18.92H7.99v-8.3h-2.77v8.04c0,1.29-.46,2.4-1.38,3.3-.92.91-2.06,1.32-3.37,1.23l-.32-.02v2.99h.3c1.51,0,2.91-.44,4.14-1.3ZM55.57,25.85c0,.99,0,1.97,0,2.95h-5.39c-1.31-.13-2.17-.27-3.13-1.02-1.29-1.01-2.07-2.6-2.04-4.16.03-1.27.48-2.49,1.24-3.36.94-1.08,2.47-1.7,4.22-1.7.02,0,.04,0,.06,0,1.81.01,3.46.7,4.41,1.84.59.69.65,1.54.63,2.36,0,.68,0,1.37,0,2.06v1.04ZM20.35,28.81v-5.57c1-.95,2.27-1.85,3.76-2.7,3.31-1.86,6.81-2.11,9.37-.65,1.17.67,1.91,1.89,2.01,3.37.12,1.66-.58,3.35-1.79,4.3-1.63,1.27-3.88,1.27-5.87,1.27-1.45,0-2.91,0-4.36,0-1.04,0-2.08,0-3.13,0Z"/>
      </g>
    </g>
  </g>
</svg>