<?xml version="1.0" encoding="UTF-8"?>
<svg id="Layer_2" data-name="Layer 2" xmlns="http://www.w3.org/2000/svg" viewBox="0 0 231.59 88.51">
  <defs>
    <style>
      .cls-1 {
        fill: #bdd376;
      }

      .cls-1, .cls-2, .cls-3, .cls-4 {
        fill-rule: evenodd;
      }

      .cls-5 {
        fill: #d3cab4;
      }

      .cls-6, .cls-4 {
        fill: #e95869;
      }

      .cls-7 {
        fill: #fff;
      }

      .cls-8 {
        fill: #7f522a;
      }

      .cls-2 {
        fill: #077058;
      }

      .cls-3 {
        fill: #f8a65c;
      }

      .cls-9 {
        fill: #cc865d;
      }

      .cls-10 {
        fill: #6063a3;
      }

      .cls-11 {
        fill: #206190;
      }

      .cls-12 {
        fill: #f9a873;
      }
    </style>
  </defs>
  <g id="Layer_1-2" data-name="Layer 1">
    <path class="cls-11" d="M59.51,1.72c.27-.01.37-.18.3-.51,0,0,.19-.62,1.08-.52-.02.73-.26,1.27-.88,1.51,0,0,.13.28-.08.39l-.21.11s.17.3-.11.41c0,0-.13.1.02.14.15.04.24.16.23.48-.03.64-.92,1.3-2.37,1.48l-.35.42s0,.22-.19.26c-.2.04-.63.55-.89.51-.26-.04-.25-.52-.13-.83.12-.31.06-.45.06-.45l1.07-1.79s-.2-.14-.19-.27c.01-.13.66-1.26.66-1.26,0,0,.13-.64.12-.99s.35-.5.42-.23c.08.27-.11.29-.12.48-.01.19.06.47.29.47.23,0,.42-.52.37-1.11-.05-.6.58-.38.58-.38l.17.2-.29.41s-.09.97.42,1.07"/>
    <path class="cls-11" d="M56.12,21.62h-.01s.22-.23.22-.23l.08-.08h0s.12-.12.12-.12c.18-.18.37-.35.56-.51l.09-.08h0s.17-.14.17-.14l.11-.09h0s.12-.08.12-.08c.16-.11.33-.22.5-.32h.03c.69-.37,1.39-.62,2.08-.75.38-.07.77-.11,1.15-.11.28,0,.56.02.83.06.62.09,1.23.27,1.8.55.55.26,1.07.61,1.57,1.04.18.15.34.32.51.49l-.1-1.36s.52-1.13.12-1.92c-.41-.8-1.15-1.48-1.15-1.48.5-5.57-1.03-10.48-4.53-14.31l-.14-.26-.48.29-.49.61-.08,1.1.1.62s-.13-.04.74.36c1.5.7,2.24,6.11,1.25,8.77-.57.79-.94,1.74-1.06,2.88,0,0-2.12,1.62-2.99,1.94-.68.25-1.68,1.57-1.65,3.85.17-.25.36-.48.54-.69"/>
    <path class="cls-4" d="M93.47,27.52c0-.22-.23-.4-.5-.41-.01,0-.02,0-.04,0,.07-.06.17-.11.28-.11.2,0,.36.13.36.3,0,.08-.04.15-.11.21"/>
    <path class="cls-8" d="M151.99,38.4c-.22-.24-.49-.44-.82-.58-.33-.14-.71-.22-1.14-.23-.42,0-.79.08-1.11.22-.31.14-.58.34-.79.58-.21.24-.37.53-.47.83-.1.3-.16.63-.16.95s.05.65.16.95c.11.3.26.59.47.83.21.24.47.44.79.59.32.14.68.22,1.1.22.43,0,.81-.09,1.14-.23.32-.14.6-.34.81-.58.22-.24.38-.52.49-.82.11-.3.16-.62.16-.94s-.06-.64-.16-.94c-.11-.3-.27-.58-.49-.82"/>
    <path class="cls-8" d="M145.31,38.41c-.22-.24-.48-.44-.81-.59-.32-.14-.7-.23-1.13-.23-.43,0-.8.08-1.12.22-.32.14-.59.34-.8.58-.21.24-.37.52-.48.82s-.16.62-.16.95c0,.32.05.64.16.95.11.3.27.58.48.82.21.24.48.44.8.58.32.14.69.22,1.12.22.43,0,.8-.09,1.13-.23s.59-.35.81-.59c.21-.24.38-.52.48-.82.11-.3.16-.62.16-.94s-.05-.64-.16-.94c-.11-.3-.27-.58-.48-.82"/>
    <path class="cls-8" d="M140.5,28.44c.35.48.87.69,1.53.65l-.45-.67.91.18.12-.52c-.35-.17-.66-.38-.93-.64-.28-.27-.51-.59-.67-.96-.16-.37-.25-.79-.26-1.28,0-.21,0-.4.02-.6.01-.19.04-.38.07-.57s.07-.37.11-.56c.04-.18.09-.36.14-.55.06-.18.11-.36.17-.55.06-.18.13-.37.2-.56.07-.19.14-.38.21-.58.07-.2.14-.4.21-.61l-.67-.24-.6-.22-1.11,1.14.61-1.32-.23-.08-.67-.24-.23-.08-1.25,1.39.66-1.6-.52-.19-.67-.24-.67-.24c-.21.49-.42.99-.61,1.51-.19.51-.37,1.04-.53,1.57-.16.53-.3,1.07-.41,1.61-.11.54-.2,1.08-.25,1.61-.05.54-.07,1.07-.05,1.6.02.52.08,1.04.19,1.54.11.5.26.99.47,1.47.21.47.47.93.79,1.36.27.33.56.63.88.9l4.09-2.15c-.38-.43-.54-.87-.58-1.31"/>
    <path class="cls-8" d="M152.49,18.63c.09-.14.19-.27.3-.39.11-.12.24-.24.37-.35.13-.11.28-.21.42-.29.15-.09.3-.16.46-.22.16-.06.32-.11.48-.14.16-.03.33-.04.49-.04.12,0,.24,0,.37.03.13.02.26.04.39.08.13.03.27.07.4.12.13.04.27.1.4.15.13.05.26.11.39.17.13.06.25.12.38.19.12.07.24.13.35.2.11.07.22.13.32.2l.29-.62.29-.62.29-.62.29-.62.29-.62.29-.62.29-.62.29-.62c-.63-.44-1.27-.8-1.93-1.07-.66-.27-1.33-.47-2-.58s-1.34-.15-2-.11c-.66.04-1.31.16-1.94.34-.63.19-1.24.45-1.81.77-.58.33-1.12.72-1.62,1.18-.5.46-.96.98-1.37,1.57-.41.58-.76,1.23-1.05,1.93-.26.64-.44,1.23-.55,1.77-.11.54-.14,1.03-.11,1.48.03.45.13.86.28,1.23.15.37.36.72.62,1.03.26.31.56.6.91.87.35.27.73.52,1.15.76.42.24.87.47,1.35.69.48.22.97.44,1.49.67.19.1.31.2.37.32.06.11.06.23.01.36-.05.12-.14.25-.26.37-.12.13-.28.25-.46.37-.18.12-.37.24-.57.34-.2.11-.41.21-.61.3-.2.09-.4.16-.57.22-.17.06-.33.11-.45.14-.38.11-.79.2-1.22.27-.44.07-.89.12-1.36.15-.47.03-.94.02-1.4,0-.47-.03-.92-.1-1.36-.2-.15-.04-.31-.08-.46-.12l-2.57,2.15,2.64,1.78-3.92-1.31c.42.57,1.02,1.05,1.75,1.47-.81-.23-1.56-.63-2.22-1.27l.07,2.1c.35.17.72.33,1.09.46.81.29,1.67.51,2.55.64.88.14,1.79.2,2.71.18s1.83-.09,2.73-.24c.9-.14,1.79-.35,2.63-.62.85-.27,1.66-.59,2.41-.97.75-.38,1.44-.8,2.05-1.28.29-.24.59-.5.88-.79.29-.29.57-.59.84-.92.27-.32.52-.66.74-1.01.22-.35.42-.71.59-1.08.16-.37.29-.74.38-1.12.08-.38.13-.75.11-1.13-.01-.37-.08-.74-.21-1.1-.13-.36-.32-.71-.58-1.05-.12-.13-.25-.27-.38-.39-.13-.13-.28-.25-.43-.37-.15-.12-.3-.23-.46-.34-.16-.11-.32-.22-.49-.32-.17-.1-.33-.2-.51-.29-.17-.1-.34-.19-.51-.28-.17-.09-.34-.18-.51-.26-.17-.08-.34-.16-.5-.24-.09-.05-.18-.09-.29-.14-.1-.05-.21-.1-.32-.15-.11-.05-.22-.1-.33-.16-.11-.05-.22-.11-.32-.17-.1-.06-.21-.11-.3-.17-.1-.06-.18-.12-.26-.18-.08-.06-.15-.12-.2-.18-.06-.06-.1-.12-.13-.19.02-.15.06-.3.12-.44.06-.15.13-.29.22-.43"/>
    <path class="cls-8" d="M170.56,17.9c-.39-1.01-.9-2.04-1.52-3.08-.78.26-2.01.61-2.01.61l-.56-.26h-.02s-.19.6-.19.6l-.84.53-.43-.41-.37.18-.33.16.22,1.13-.91-.79-.31.15c.14.24.29.49.43.75.15.26.29.52.43.79.14.27.28.54.42.81.14.27.27.55.39.83.12.28.24.55.34.83.1.28.2.55.27.82.08.27.14.54.19.8.05.26.08.51.09.76-.04.46-.13.88-.26,1.28-.14.39-.32.76-.54,1.1-.22.34-.49.65-.78.94-.3.29-.62.55-.98.79s-.74.46-1.13.66c-.4.2-.82.38-1.25.54-.43.16-.87.31-1.32.45-.16.05-.32.09-.48.14.26.82.62,1.99.65,2.06.21-.02.42-.03.7-.06-.08.26-.13.44-.23.77.57-.14,1.02-.25,1.62-.39-.29.39-.52.69-.82,1.09l1,1.63c.64-.2,1.24-.42,1.82-.67,1.14-.48,2.15-1.04,3.05-1.68.9-.64,1.67-1.34,2.31-2.12.64-.77,1.16-1.61,1.54-2.5.38-.89.64-1.84.76-2.83.12-.99.1-2.03-.06-3.1-.16-1.08-.46-2.19-.9-3.32"/>
    <path class="cls-8" d="M189.85,14.35c.23.27.53.49.88.66.35.16.77.25,1.24.26.47,0,.88-.1,1.23-.25.35-.16.64-.38.87-.65.23-.27.4-.58.52-.92.11-.34.17-.69.17-1.05,0-.36-.06-.72-.18-1.06-.12-.34-.29-.65-.53-.92-.23-.27-.52-.5-.87-.66-.35-.16-.75-.26-1.21-.27-.46.01-.87.11-1.23.28-.35.16-.64.39-.88.66-.24.27-.41.59-.53.92-.12.34-.18.69-.18,1.05,0,.36.05.71.17,1.05.12.33.29.65.53.92"/>
    <path class="cls-8" d="M13.27,12.24c.21.24.48.44.8.59.32.14.69.22,1.11.23.43-.01.81-.1,1.13-.25.32-.14.59-.35.81-.59.22-.24.38-.52.48-.82.11-.3.16-.62.16-.93s-.05-.63-.16-.93c-.11-.3-.27-.58-.48-.82-.22-.24-.48-.44-.81-.59-.32-.14-.7-.23-1.13-.24-.43,0-.8.08-1.12.22-.32.14-.58.34-.8.58-.21.24-.37.52-.48.82-.11.3-.16.62-.16.94s.05.64.16.95c.11.3.27.58.48.83"/>
    <path class="cls-8" d="M19.84,12.25c.21.24.47.44.79.59.32.14.68.22,1.1.22.43,0,.82-.1,1.14-.24.33-.15.6-.35.82-.59.22-.24.38-.52.49-.82.11-.3.16-.62.17-.94,0-.32-.05-.64-.16-.94-.11-.3-.27-.58-.49-.82-.22-.24-.49-.44-.82-.58s-.71-.23-1.14-.23c-.42,0-.79.08-1.11.22-.32.14-.58.34-.79.58-.21.24-.37.52-.47.83-.1.3-.16.62-.16.95,0,.32.05.64.16.95.11.3.26.59.47.83"/>
    <path class="cls-8" d="M77.56,24.89c-.02-.83-.04-1.74-.08-2.71-.04-.96-.08-1.98-.12-2.99-.05-1.02-.09-2.03-.14-3.01-.05-.97-.1-1.9-.14-2.75-.04-.84-.08-1.6-.11-2.22-.03-.62-.04-1.12-.04-1.43h-2.52l-.21,1.94-.39-1.94h-.78l-.32,2.91-.58-2.91h-1.18c0,.21.01.62.03,1.17.02.55.05,1.24.09,2.02.04.79.08,1.67.12,2.59.04.92.08,1.89.13,2.86.04.96.09,1.93.12,2.84.03.91.07,1.77.08,2.53.02.76.03,1.42.03,1.93,0,.51-.02.88-.05,1.04-.02.18-.07.33-.14.46-.07.13-.16.23-.27.31-.11.08-.24.14-.38.18-.14.04-.3.07-.46.09-.17.02-.34.02-.51.02-.18,0-.36,0-.53,0-.18,0-.36,0-.53-.01-.17,0-.34,0-.5.02-.03-.64-.12-1.29-.27-1.91-.15-.62-.35-1.23-.61-1.8-.26-.57-.57-1.12-.93-1.61-.36-.5-.76-.94-1.2-1.33-.44-.38-.93-.71-1.44-.96-.52-.25-1.06-.42-1.64-.5-.57-.08-1.18-.07-1.8.05-.62.12-1.27.34-1.93.68-.16.09-.31.19-.46.3l.89,1.54-1.35-1.19c-.18.15-.35.31-.52.48l1.18.98-1.55-.59c-.2.23-.39.47-.56.72-.21.3-.4.62-.58.94-.17.33-.33.67-.46,1.01-.14.35-.25.7-.34,1.05-.09.36-.16.72-.21,1.08-.05.36-.07.72-.07,1.08,0,.42.04.82.12,1.2.08.38.2.73.35,1.06.15.33.34.63.56.91.22.28.46.54.73.77.27.23.57.45.89.64.32.19.66.36,1.02.5.36.15.73.27,1.12.37.39.1.79.18,1.2.24-.26.15-.52.28-.78.4-.27.12-.53.22-.8.32-.27.1-.55.18-.83.26-.28.08-.57.14-.85.2-.29.06-.58.11-.88.16-.3.05-.6.09-.91.12-.31.03-.62.07-.94.1-.1,0-.19.01-.29.03.01.8.03,1.71.03,1.78.2.04.41.09.68.15-.15.23-.25.38-.44.67.58.03,1.05.06,1.66.09-.39.29-.69.51-1.09.81l.49,1.83c.34-.03.68-.07,1.01-.11.69-.09,1.37-.2,2.02-.34.66-.14,1.29-.31,1.91-.51.61-.2,1.2-.43,1.76-.7.57-.27,1.1-.57,1.61-.91.5-.34.98-.72,1.42-1.14.45-.42.86-.88,1.23-1.39.37-.51.71-1.06,1-1.67.42,0,.84,0,1.27,0,.43,0,.86,0,1.29-.02.43-.02.86-.04,1.28-.08s.84-.1,1.24-.17c.4-.08.8-.17,1.17-.29.38-.12.74-.27,1.08-.44.34-.18.66-.38.96-.63.29-.24.57-.52.81-.85.07-.1.13-.2.2-.3.06-.1.12-.21.18-.31.06-.11.11-.22.16-.33.05-.11.1-.23.14-.34.04-.12.08-.24.12-.36.04-.12.07-.25.1-.37.03-.13.06-.25.08-.38.02-.13.04-.26.06-.39.05-.28.08-.74.09-1.33.01-.6.01-1.33,0-2.16M62.32,28.21c-.09,0-.18,0-.26,0-.09,0-.17,0-.25,0-.08,0-.15,0-.23-.01-.07,0-.14-.01-.21-.02-.07,0-.13-.01-.19-.03-.06,0-.12-.02-.17-.03-.05-.01-.1-.03-.15-.04-.19-.02-.35-.08-.47-.18-.13-.09-.22-.22-.29-.36-.07-.14-.11-.31-.14-.48-.02-.17-.02-.36,0-.54.02-.18.07-.37.13-.55.06-.17.14-.34.23-.49.09-.15.2-.27.32-.36.12-.1.25-.16.39-.18.13,0,.24.04.35.1.11.06.21.14.31.24.1.1.18.23.26.37.08.14.15.29.22.45.06.16.12.34.17.52.05.18.09.36.13.54.04.19.07.36.09.54.02.17.04.34.04.51-.1,0-.19,0-.28,0"/>
    <path class="cls-8" d="M86.83,27.57l-.16-5.93-.08-2.97-.08-2.97-.08-2.96-.07-2.75c-.35-.09-.67-.16-.87-.21h-.24c-.09.17-.17.35-.29.57-.18-.19-.3-.33-.52-.57h-.02c-.18.55-.32.99-.5,1.56-.18-.45-.32-.8-.5-1.26h-3.02s.07,2.67.07,2.67l.08,2.96.08,2.97.16,5.93.08,2.97.08,2.97.08,2.97h1.15l.14-3.27.25,3.27h4.44l-.08-2.97-.08-2.97Z"/>
    <path class="cls-8" d="M52.6,14.67l1.23-.93-.27-.55-.29-.64-.05-.11-2.03.55,1.81-1.04-.31-.69-.29-.64-.29-.64c-.42.16-.84.33-1.27.51-.43.18-.87.36-1.31.55-.44.19-.88.39-1.32.59-.44.2-.88.41-1.32.63-.44.21-.88.43-1.31.65-.43.22-.86.45-1.28.68-.42.23-.83.46-1.23.69-.4.23-.79.46-1.17.7-.3.17-.57.34-.8.5-.23.17-.43.33-.61.5-.17.17-.32.34-.45.51-.12.18-.23.35-.31.54-.08.19-.15.38-.2.59-.05.21-.09.43-.12.66-.03.24-.05.49-.07.75-.02.27-.03.55-.04.86.03.26.16.53.37.83.21.29.49.6.82.92.33.32.7.65,1.09.99.39.34.8.68,1.19,1.03.39.35.77.7,1.11,1.04.34.35.63.69.86,1.03.16.25.28.27.35.51l2.33.19-2.25.57c0,.22-.07.44-.2.65-.01,0-.02.02-.04.03-.02.01-.04.02-.06.03-.02.01-.05.02-.08.03s-.07.02-.11.03c-.04.01-.08.02-.13.03-.05,0-.1.02-.16.02-.06,0-.12.01-.2.01-.07,0-.15,0-.23,0-1.26.03-2.29.05-3.14.04-.85,0-1.52-.04-2.05-.11-.53-.07-.93-.17-1.24-.32-.31-.15-.53-.35-.7-.62-.18-.26-.31-.58-.44-.98-.14-.39-.27-.86-.46-1.41-.19-.55-.42-1.18-.75-1.91-.33-.73-.75-1.56-1.32-2.49l-.67.33-.67.33-.67.33-.67.33-.67.33-.67.33-.67.33-.67.33c.15.26.3.52.45.78.15.26.3.53.44.79.15.27.29.53.43.8s.27.54.39.81c.12.27.24.54.34.82.1.27.19.54.27.82.08.27.14.55.18.82.04.27.07.54.08.81-.04.45-.13.87-.27,1.26-.14.39-.33.75-.55,1.09-.22.33-.49.64-.79.93-.3.28-.63.54-.98.78-.36.24-.74.45-1.13.65-.4.2-.81.38-1.24.54-.43.16-.87.31-1.31.44-.13.04-.26.08-.4.12,0,.5.01.9.02.95.21.04.41.09.68.14-.15.23-.25.38-.44.67.58.03,1.05.06,1.66.09-.39.29-.69.51-1.09.81l.76,2.82c.36-.09.72-.2,1.08-.31.57-.17,1.12-.37,1.66-.59.54-.22,1.06-.47,1.57-.74.51-.27.99-.56,1.46-.88.47-.32.91-.66,1.32-1.03.42-.37.81-.76,1.17-1.18.36-.42.7-.87,1-1.35.21-.33.4-.67.58-1.02l-.75-1.36,1.19,1.02s.03.02.05.03c.09.06.18.11.28.15.09.05.19.09.29.14.1.04.2.08.31.11.11.03.21.07.33.09.11.03.23.05.34.07.12.02.24.04.36.05l.37.03h0c.22.01.35.02.47.02.16,0,.29,0,.58,0,.37,0,.77,0,1.18,0,.41,0,.83,0,1.26,0,.43,0,.86-.01,1.29-.03.43-.02.85-.04,1.27-.08.41-.04.81-.09,1.19-.15.38-.06.74-.14,1.06-.24.33-.1.63-.21.89-.35.86-.38,1.55-.83,2.09-1.33.54-.5.93-1.04,1.19-1.63.26-.58.39-1.2.41-1.83.02-.64-.07-1.29-.24-1.95-.18-.66-.44-1.32-.77-1.97-.16-.31-.33-.61-.51-.91l-1.28.28.98-.74c-.12-.18-.25-.36-.38-.54-.45-.62-.95-1.21-1.47-1.76-.53-.55-1.08-1.06-1.64-1.52.3-.17.61-.33.92-.49.31-.16.62-.32.93-.48.31-.15.63-.31.95-.46.32-.15.64-.3.97-.45.33-.15.65-.3.99-.44.33-.15.67-.29,1.01-.44.34-.15.69-.29,1.04-.44.35-.15.71-.3,1.07-.45l.04-.02.04-.02.09-.04.04-.02.04-.02.04-.02.04-.02-.35-.75-1.48.3Z"/>
    <path class="cls-8" d="M230.44,24.75c-.04-.46-.11-.92-.2-1.38-.04-.27-.09-.54-.14-.82-.05-.27-.1-.55-.16-.83-.06-.28-.12-.56-.18-.85-.07-.28-.13-.57-.2-.85-.07-.28-.15-.57-.22-.84-.08-.28-.16-.56-.24-.83-.08-.28-.17-.55-.26-.82-.04-.12-.08-.24-.12-.36-.13,0-.4,0-.52,0-.05.21-.09.41-.16.68-.23-.15-.38-.26-.66-.45-.04.58-.08,1.05-.12,1.65-.28-.4-.5-.7-.79-1.11l-3.51.88c.05.16.11.33.16.51.11.34.24.72.37,1.12.13.4.26.82.39,1.25.13.43.25.86.35,1.3.1.43.2.86.26,1.27.07.41.11.8.11,1.16,0,.36-.02.69-.09.97-.07.28-.18.52-.35.71-.03.02-.06.04-.1.07-.04.02-.08.04-.13.07-.05.02-.11.04-.17.06-.06.02-.13.04-.21.06-.08.02-.16.04-.26.05-.09.02-.2.03-.31.04-.11.01-.23.02-.36.03-.13,0-.27,0-.42,0-.31,0-.59,0-.82-.04-.24-.03-.44-.08-.6-.14-.17-.06-.3-.14-.41-.24-.11-.1-.19-.21-.25-.34-.06-.13-.1-.27-.12-.43-.02-.16-.02-.33-.01-.52.01-.19.03-.39.07-.6.03-.21.07-.44.11-.69.02-.11.04-.23.06-.34.02-.11.04-.22.06-.33.02-.11.04-.22.06-.33.02-.11.04-.21.05-.32.02-.11.04-.21.05-.32.02-.11.04-.21.06-.32.02-.11.04-.21.06-.32.02-.1.04-.21.06-.32l-.73-.11-1.09-.17-.88,1.95.06-2.08-.28-.04-.73-.11-.73-.11-.73-.11-.73-.11c-.05.24-.1.51-.15.8-.05.29-.09.6-.13.91-.04.32-.09.64-.14.97-.05.32-.11.65-.17.96-.06.32-.14.62-.22.9-.08.28-.18.55-.29.78-.11.23-.24.44-.39.6-.15.16-.31.29-.5.37-.61.12-1.11.19-1.53.19-.42,0-.76-.05-1.02-.15-.27-.1-.46-.25-.6-.43-.14-.19-.23-.41-.27-.67-.05-.26-.05-.55-.03-.86.02-.31.07-.65.12-1,.06-.35.12-.72.19-1.09.06-.38.12-.76.16-1.13l-3.56-.36c-.21.44-.37.77-.57,1.19-.14-.57-.25-1-.39-1.55h-.01c-.23.22-.36.35-.55.52-.11-.25-.18-.44-.27-.63-.09.01-.28.05-.41.07-.04.2-.08.41-.12.64-.05.28-.09.58-.14.89-.05.31-.1.62-.15.93-.05.31-.11.62-.18.92-.07.3-.15.59-.24.86-.09.27-.2.52-.32.74-.12.22-.26.42-.43.57-.16.16-.35.28-.55.35-.13.03-.27.06-.42.09l-2,3.74c.55.17.92.47,1.18.85-.55-.23-1.1-.11-1.65.32l.73.34-.87.38.08.27c.23,0,.45.01.68.02h0c.32,0,.63,0,.95-.01.32-.01.63-.03.94-.05.31-.02.62-.05.93-.1.31-.04.61-.09.9-.16.3-.07.59-.15.87-.25.28-.1.56-.22.83-.35.27-.14.53-.29.78-.47.25-.18.49-.39.72-.62.15.22.32.41.49.58.17.17.36.32.55.46.19.13.39.25.6.35.21.1.42.18.64.25.02,0,.04,0,.06.02.04-.04.07-.08.11-.11l.04-.02.04-.02c.08-.04.17-.07.26-.08.07-.12.16-.23.29-.3l.04-.02h.04c.07-.04.15-.06.23-.06.07-.1.17-.18.28-.24l.04-.02h.04c.07-.04.15-.05.23-.05.01,0,.03,0,.04,0,.09-.1.2-.19.34-.24h.04s.04-.02.04-.02c.05,0,.1-.01.14-.01.02,0,.05,0,.08,0,.08-.09.19-.17.32-.21h.04s.04-.02.04-.02c.05,0,.1-.01.14-.01.06,0,.12,0,.17.02.09-.08.21-.14.34-.17h.04s.09-.01.09-.01c.05,0,.1,0,.14.01.09-.08.2-.14.33-.16h.04s.06-.01.06-.01h.03c.07,0,.14,0,.21.03.09-.07.2-.12.32-.15h.04s.09-.01.09-.01c.08,0,.17.01.25.04.1-.08.22-.13.36-.15h.04s.04,0,.04,0c.09,0,.17.02.25.05.1-.06.21-.11.33-.12h.04s.04,0,.04,0c.08,0,.16.02.24.04.1-.06.2-.11.33-.13h.05s.04,0,.04,0c.09,0,.18.02.26.05.11-.07.24-.11.38-.12h.04s.04,0,.04,0c.07,0,.14.03.2.05.11-.06.23-.1.36-.11h.04s.04,0,.04,0c.1.01.19.04.27.08.1-.05.21-.08.34-.08h.1c.09.02.17.05.24.09.1-.04.2-.07.32-.07h.1c.09.03.17.06.24.1.1-.04.2-.07.32-.07h.1c.1.03.19.06.27.11.1-.04.2-.06.3-.06h.14s.04.02.04.02c.08.02.15.06.22.1.08-.03.16-.04.25-.04h.14s.04.03.04.03c.11.03.2.08.28.15.07-.02.15-.03.23-.03.07,0,.13,0,.2.03h.04s.04.03.04.03c.07.03.13.07.19.12,1.9-1.25,2.6-1.43,4-1.8l.21-.05c.06-.06.16-.17.24-.25.35-.38.74-.82,1.22-.82.23,0,.43.09.59.27.15.14.24.34.23.54,0,.21-.1.41-.27.59l-.02.23-.26.03-.02.23-.14.02c-.04.07-.08.14-.13.2l-.02.24-.35.04.05.06s-.08.06-.12.09v.15s-.31.04-.31.04l-.03.4.32-.04v-.15s1.09-.13,1.09-.13l.05.15c.17.06.29.16.36.25l.04.05c.21-.18.42-.38.6-.58.28-.32.53-.67.74-1.03.21-.37.38-.75.52-1.16.14-.4.25-.82.32-1.26.08-.43.12-.88.14-1.33.02-.45,0-.91-.04-1.37"/>
    <path class="cls-2" d="M227.35,31.7l-.17-.49-.04.53c-.09.02-.18.05-.27.09l-.14-.42-.04.49c-.1.04-.19.08-.28.11l-.13-.4-.04.46s-.03.01-.05.02c-.08.02-.17.04-.25.06l-.15-.42-.04.46c-.12.02-.23.04-.33.05l-.1-.29-.02.31c-.81.07-1.24-.13-1.24-.19,0-.07.4-.21.82-.46l.16.46.05-.59c.06-.04.12-.08.18-.13l.16.46.05-.64s.09-.1.13-.15l.13.38.06-.66h0c.05-.1.09-.21.11-.33,0,0,.01,0,.02,0l.16.46.04-.47c.1-.03.21-.08.31-.17l.1.29.03-.41c.07-.08.13-.16.18-.26l.07.21.05-.59s.07-.02.1-.04l.13.37.04-.46c.22-.15.33-.35.17-.47-.36-.49-1.15.85-1.44.93-1.71.45-2.26.54-4.62,2.13,0-.1-.06-.34-.22-.41-.15-.04-.38.14-.43.25h-.02c0-.09-.09-.34-.27-.4-.15-.02-.34.17-.38.29-.01-.1-.1-.32-.27-.38-.15-.02-.35.18-.38.29-.03-.09-.14-.31-.31-.34-.15,0-.32.21-.35.33h0c-.02-.09-.13-.32-.31-.35-.15,0-.32.21-.35.34-.02-.09-.14-.32-.31-.36-.15,0-.31.2-.35.32-.03-.09-.16-.31-.33-.33-.15,0-.3.22-.33.35-.04-.1-.16-.28-.32-.3-.15,0-.3.23-.33.35-.04-.09-.18-.28-.35-.29-.15.02-.29.26-.29.39-.03-.09-.18-.3-.36-.3-.16.02-.29.26-.3.39h0c-.03-.08-.18-.3-.36-.31-.17.02-.31.29-.29.41h0s0,0,0,0c0-.05-.19-.31-.39-.3-.16.03-.28.31-.26.43h0c-.01-.07-.2-.3-.39-.29-.14.03-.24.24-.26.37-.07-.09-.2-.22-.35-.21-.15.03-.26.26-.26.39-.05-.08-.24-.26-.42-.22-.16.05-.24.35-.2.46-.05-.08-.24-.25-.41-.22-.15.05-.22.3-.21.43-.07-.08-.26-.2-.42-.15-.13.06-.18.28-.17.41-.09-.07-.26-.15-.4-.1-.14.08-.17.35-.13.47-.08-.06-.29-.15-.44-.07-.13.09-.13.37-.07.48-.09-.05-.32-.12-.46-.02-.11.11-.07.39,0,.49-.11-.01-.32,0-.41.13-.07.13.03.34.12.43-.12.02-.28.08-.34.21-.04.13.1.32.2.4-.1.04-.28.16-.3.32,0,.17.26.33.38.33,0,.01,0,.02,0,.03-.09.06-.23.21-.22.35.04.16.32.28.43.26-.07.08-.17.28-.1.43.09.15.41.16.5.09-.05.1-.1.31,0,.44.11.11.36.07.47,0-.02.1-.03.33.1.44.13.08.39-.02.48-.12h0c-.02.09-.01.35.13.46.15.07.41-.07.47-.18h0c0,.1.05.34.2.42.14.05.35-.09.42-.2,0,.1.07.33.22.4.16.04.38-.15.42-.26h0c0,.09.1.34.27.39.15.02.32-.16.37-.28h.02c.02.11.11.32.27.36.15.02.34-.18.38-.3h.01c.01.1.11.33.27.38.14.02.31-.14.36-.26.04.11.12.26.26.3.18.02.41-.26.39-.35,0,0,0,0,0-.01h.02c.03.11.12.3.27.34.16.02.34-.18.38-.3.04.09.12.17.21.2.13.02.3-.14.36-.26h.03c.05.09.12.19.22.22.13.02.28-.12.35-.23h.05c.04.07.11.13.19.16.11.01.23-.08.31-.17h.11c.05.07.11.14.19.16.1.01.22-.07.29-.16.03,0,.06,0,.1,0,.04.07.11.13.18.16.09.01.2-.06.27-.13.03,0,.06,0,.09,0,.04.07.1.12.17.14.08,0,.17-.04.24-.1h.06c.05.08.11.15.19.17.09,0,.18-.05.26-.12.03,0,.06,0,.1.01.05.08.11.15.2.17.08.01.17-.04.24-.11.61.1,1.21.24,1.76.43-3.42-2.44-8.94-.48-10.15-2.65-.25-.44-.09-1.62,2.47-1.43-.59-.14-.92-.2-.91-.89.13.71.98.63,1.33.65-.8,1.56.62,1.93,2.5,1.37-.07-.05-.23-.08-.39-.14.35-.04.53-.04.71-.1-.24-.09-.46-.13-.62-.15.32-.08.48-.22.58-.3-.81.24-1.19-.21-1.8.2.85-.98.69-2.55-1.15-2.72,2.17-.06,1.85,1.82,1.74,2.14.66.03,2.24-.07,3-.42-.34-.16-.49-.26-.63-.64.24.36.55.56.9.64.2.26.23.55.41,1.09.12-.5.2-.64.51-.13-.17-.89.25-.49.43-.21,0-.51.33-.94-1.09-1.85.33.06.95.43,1.19.86,1.25-.04,2.35-.38,3.03-1.31,1.29-.03,2.85-.53,4.18-1.68-.06-.08-.18-.1-.34-.08M223.59,31.45c-.14.04-.27.14-.34.26-.06-.03-.1-.09-.1-.16-.02-.12.08-.24.21-.25.11-.01.22.05.25.15,0,0-.01,0-.02,0"/>
    <path class="cls-10" d="M123.88,4.08c.11.07.56.27.56.27,0,0-.31-.23-.42-.37-.11-.13-.2-.62-.09-.46.11.16.5.51.5.51,0,0-.1-.14-.13-.25-.04-.11-.05-.59-.01-.82.04-.23.21.02.22.34,0,.31.28.74.58,1.04.3.3.92.39,1.38.56.46.18,1.12.24,1.12.24,0,0-.2-.16-.26-.28-.06-.12.14-.04.51.11.37.15.67.28.97.31.3.03.45.01.73.12.28.1.65.23.92.26.26.03.79.25,1.21.38.42.13.71.2.91.17s.48.02.48.02c0,0,.1-.25.16-.34.03-.04.07-.08.11-.1.02-.07.05-.14.08-.2.06-.12.18-.2.18-.2,0,0,0-.08-.05-.14-.04-.06-.19-.25-.19-.28,0-.03.08.06.09.06,0,0-.06-.08-.1-.16-.04-.08-.06-.27-.03-.33.03-.06.1.1.1.1,0,0,0-.06.02-.15.02-.1.12.06.16.18.04.12.12.35.12.35,0,0,.02-.16.06-.23.04-.06.05.05.08.15s.04.26.05.26.12-.02.22-.01c.09.01.37.1.49.13.12.04.32.14.33.14,0,0,.16-.05.26-.1.1-.05.2-.11.29-.12.08,0-.04.14-.04.14,0,0,.25-.09.32-.07.07.02.01.07.01.07,0,0,.14,0,.18.02.04.03-.14.13-.25.13-.11,0-.28.07-.28.07,0,0,.02.02.05.04.03.02.06.08,0,.06-.06-.02-.24-.06-.24-.06,0,0,.03.05.07.1.02.03.03.05.07.13s.06.2.06.2l-.06-.05s.03.1.08.24c.02.05.03.09.03.13.02.07.02.11.02.11,0,0,.5,0,.67.07.17.07.6.13.84.14.65.03,1.28-.02,1.94-.11.66-.09.89-.19,1.29-.25.4-.06,1.03-.44,1.27-.6s.8-.46.74-.31c-.06.15-.23.33-.23.33,0,0,.99-.21,1.26-.45.27-.24.59-.76.72-1.03.13-.27.42-.24.43.13.01.36-.21.95-.21.95,0,0,.69-.52.9-.83.22-.32.45-.18.24.25-.22.43-.55.78-.55.78,0,0,.72-.25.97-.39.25-.14.48-.12.16.23-.32.35-.7.55-.7.55,0,0,1.12-.19,1,.03-.12.21-1.04.63-1.04.63,0,0,.9,0,.78.24s-.51.34-.51.34c0,0-.05.22-.16.29-.11.07-.28.07-.28.07,0,0,.05.37-.09.41-.15.05-.37.03-.37.03,0,0,.02.32-.09.4-.11.08-.45,0-.45,0,0,0-.02.2-.1.26-.08.06-.24.08-.24.08,0,0-.04.15-.1.17-.06.02-.21.02-.21.02,0,0-.12.16-.19.17-.07,0-.17-.05-.17-.05,0,0-.08.2-.18.22-.1.02-.24-.07-.24-.07,0,0-.12.16-.17.18-.05.01-.18-.05-.18-.05,0,0-.07.13-.17.15-.1.02-.23-.07-.23-.07,0,0,.04.14-.09.17-.13.03-.19-.06-.19-.06,0,0-.06.15-.14.16-.08,0-.2-.06-.2-.06,0,0-.15.15-.2.15-.05,0-.18-.05-.18-.05,0,0-.17.1-.24.09-.08-.01-.19-.06-.19-.06,0,0-.09.12-.19.13-.1,0-.19-.06-.19-.06,0,0-.16.13-.22.13-.06,0-.18-.05-.18-.05,0,0-.11.11-.2.11-.1,0-.26-.08-.26-.08,0,0-.07.12-.21.12-.04,0-.16-.05-.16-.05,0,0-.07.11-.23.1-.08,0-.26-.12-.26-.12,0,0-.15.1-.3.04-.04-.01-.1-.08-.1-.08,0,0-.13.08-.24.05-.11-.03-.15-.15-.15-.15,0,0-.15.1-.34,0-.06-.03-.12-.14-.12-.14,0,0,.02.07,0,.09,0,0-.02.01-.03.02.35.29.65.55.67.61.06.13-.04.29-.09.33-.05.04-.21.06-.21.06,0,0,.14.19,0,.37-.15.17-.29.15-.29.15,0,0,.04.19-.15.36-.2.18-.38.09-.38.09,0,0-.01.2-.2.34-.18.14-.36.08-.36.08,0,0-.05.14-.22.23-.17.09-.3.03-.3.03,0,0-.14.08-.22.08-.07,0-.15-.06-.15-.06,0,0-.1.09-.21.07-.11-.01-.23-.12-.23-.12,0,0-.17.02-.26-.02-.09-.04-.21-.2-.21-.2,0,0-.3-.04-.44-.19-.14-.15-.12-.32-.12-.32,0,0-.22.01-.37-.16-.15-.18-.13-.32-.13-.32,0,0-.26-.03-.3-.22-.04-.19-.02-.31-.02-.31,0,0-.18-.1-.21-.26-.02-.12.21-.48.49-.74-.05-.05-.08-.11-.08-.11,0,0-.04.03-.11.04s-.18-.14-.18-.14c0,0-.11.05-.19.06-.08.01-.12-.13-.12-.13,0,0-.07.06-.14.05-.07,0-.12-.14-.12-.14,0,0-.08.04-.15.03-.07,0-.15-.13-.15-.13,0,0-.08.05-.15.04-.07,0-.19-.14-.19-.14,0,0-.09.05-.16.03-.07-.02-.14-.15-.14-.15,0,0-.13.05-.21.03-.08-.02-.14-.14-.14-.14,0,0-.04.05-.14.04-.1-.01-.16-.12-.16-.12,0,0-.06.06-.11.07-.06.01-.24-.13-.24-.13,0,0-.06.04-.15.04-.09,0-.17-.16-.17-.16,0,0-.05.04-.13.06-.08.01-.19-.14-.19-.14,0,0-.08.04-.13.04s-.15-.13-.15-.13c0,0-.06.03-.13.04-.07.01-.18-.11-.18-.11,0,0-.06.03-.14.01s-.18-.12-.18-.12c0,0-.04.04-.14.03-.09-.01-.19-.18-.19-.18,0,0-.04.05-.16,0-.12-.05-.15-.15-.15-.15,0,0-.06.04-.13.05-.07.02-.22-.18-.22-.18,0,0-.11.02-.25-.02-.14-.04-.22-.25-.22-.25,0,0-.15.02-.29,0-.13-.03-.17-.23-.17-.23,0,0-.18-.02-.3-.11-.12-.09-.22-.35-.22-.35,0,0-.37-.07-.47-.21-.1-.15-.06-.28-.06-.28,0,0-.47-.19-.54-.31-.07-.12.14-.25.14-.25,0,0-.88-.36-.86-.45.02-.09.37-.15.39-.16.02,0-.87-.41-.84-.51.02-.09.57.04.57.04,0,0-.17-.14-.54-.39-.37-.26-.24-.35-.14-.28"/>
    <path class="cls-1" d="M14.57,20.15c-.28.28-.54.57-.79.87-.39.48-.75,1-1.06,1.53-.32.54-.59,1.11-.81,1.68-.22.59-.4,1.18-.5,1.76-.12.61-.16,1.21-.15,1.78.02.5.08.99.2,1.45-.08.01-.14.03-.18.06-.49,1.06-.91,1.92-.72,4.11-.06.43-.62.39-.69.05-.07.38-.64.49-.79.06-.09.49-.73.34-.66-.09.01-.25.01-.5,0-.74.64-.18,1.32-.29,1.99-.15-.63-.25-1.26-.26-2.01-.14.56-4.59-2.07-3.31-1.3-6.64.21.55.81,1.05,1.53,1.21,1.39.3,1.81-.57,1.85-1.96.05-1.66,1.02-3.03,1.24-4.5.06-.39.03-.19-.07-.53.69-.02,1.32-.07,1.91-.05.14,0,.49.07.92.16l.11.08Z"/>
    <path class="cls-1" d="M6.04,19.72c-1.39.01-1.73.87-3.52,2.91-.28.31,0,.86.16,1.34-.26-.35-.37-1.03-.4-1.03-.4.14-.75.4-1.03.64.08.27.26.59.54.92-.32-.27-.51-.55-.64-.83-.28.26-.55.62-.67.84.22.29.36.48.81.74-.41-.13-.8-.45-.9-.59-.48.75-.53,1.89-.1,2.67.62,1.11,2.67,1.46,2.3,2.82-.53.66.14.62.46.27.34.51.91.33.41-.27.37-2.1-1.55-1.9-1.93-3.34-.22-.83.94-1.53,1.9-1.39,1.18.92,3.07-.3,3.32,1.44-.02-.31.04-.79.16-1.34-.58-1.11-.53-2.09-.47-2.7,0,0,.37,3.84,2.67,3.89,1.07.03.94-1.01,1.12-2.49.16-1.39.83-2.31,1.16-3.58.79-3.02-4.33-3.14-5.36-.9M4.36,24.9c-.44.3-1.62.41-2.1-.18.8.58,1.44-.15,1.9-.38.62-.3.65.25.21.55M5.19,23.12c-.07-.06-.17-.09-.28-.09-.2.01-.36.15-.41.32-.06-.07-.09-.15-.09-.25,0-.22.18-.39.39-.39s.39.17.39.39h0Z"/>
    <path class="cls-8" d="M197.82,28.75c.82-.28,1.67-.36,2.56-.17l-.65-1.07c-.17,0-.35,0-.53,0-.19,0-.38,0-.57-.01-.18,0-.37,0-.54-.01-.18,0-.34,0-.5,0,.36-.55.63-1.12.8-1.7.18-.58.27-1.17.28-1.75,0-.58-.06-1.16-.2-1.72-.14-.56-.36-1.09-.63-1.6-.28-.5-.62-.97-1.02-1.39-.4-.42-.85-.79-1.35-1.09-.5-.31-1.05-.55-1.64-.71-.59-.17-1.22-.25-1.88-.25-.63,0-1.24.08-1.83.24-.59.16-1.14.4-1.66.69-.52.3-1,.66-1.43,1.07s-.8.87-1.12,1.36c-.31.49-.56,1.02-.74,1.57-.18.55-.28,1.12-.29,1.7-.01.58.06,1.17.23,1.75.17.58.44,1.16.82,1.71-.17,0-.36,0-.56.02-.2.02-.41.03-.63.05-.22.02-.44.04-.67.05-.22.01-.45.02-.67.02-.22,0-.43-.02-.63-.04-.2-.03-.39-.08-.56-.14-.17-.07-.32-.15-.45-.27-.13-.11-.24-.25-.31-.43-.07-.1-.13-.43-.2-.92-.06-.49-.12-1.15-.18-1.93-.06-.78-.11-1.66-.16-2.61-.05-.94-.1-1.95-.14-2.96-.04-1.01-.08-2.02-.12-2.98-.01-.24-.02-.48-.03-.71,0-.23-.02-.46-.03-.69-.08-1.5.35-3.51-.4-4.05-.24-.16-.5-.29-.79-.37l-.61,3.16-.84-3.36c-1.1-.02-2.31.15-3.39.15.01,2.82,0,4.99.13,7.4,0,.29.01.57.02.87.02.87.05,1.77.07,2.66.04,1.19.09,2.38.15,3.5.06,1.12.13,2.19.23,3.13.09.94.2,1.76.33,2.41.13.64.28,1.11.46,1.35.18.29.38.55.6.78.22.23.44.43.69.6.24.17.5.32.78.45.27.13.56.23.86.32.03,0,.06.01.1.02.44-.35.92-.6,1.41-.7.47-.1.93-.15,1.39-.15.87,0,1.63.17,2.24.49l.06-.17c.5.07,1.03.11,1.56.11.6,0,1.14-.05,1.56-.11-.02-.02-.03-.03-.05-.05-.17-.18-.27-.42-.31-.74-.21-.21-.29-.61-.3-.93-.13-.17-.23-.39-.2-.66.05-.41.39-.62.72-.81.17-.1.35-.21.54-.36.01-.3.15-.5.27-.63-.04-.35.04-.74.23-1.02.17-.26.42-.41.7-.41.15,0,.3.04.43.13.4-.38.92-.59,1.52-.59,1.67,0,3.47,1.56,3.86,3.33.22,1.04-.03,1.91-.49,2.63.22.2.42.42.59.66.25.04.49.09.74.12.35.05.7.09,1.06.13.35.04.71.07,1.06.09.25.02.49.03.73.05l.92-3.02-1.47-.46,2.32-.74c-.65-.27-1.42-.35-2.26-.3M192.71,24.96c-.09.23-.22.46-.4.65-.17.2-.4.37-.66.5-.12-.1-.24-.2-.34-.31-.1-.12-.19-.24-.27-.36-.08-.13-.15-.26-.21-.39-.06-.14-.1-.27-.13-.41-.03-.14-.05-.28-.05-.42,0-.14.01-.27.04-.41.03-.13.07-.27.13-.39.06-.13.14-.24.24-.36.21-.21.41-.33.6-.38.19-.06.36-.04.51.02.15.06.28.18.39.33.11.15.19.34.24.55.05.21.07.44.06.68-.01.24-.06.48-.15.71"/>
    <path class="cls-8" d="M26.63,27.84c-.21-.32-.41-.61-.53-.67-.3-.16-.96-.48-.96-.48,0,0,.12,2.9-2.47,5.07.16-.16,1.88-1.96,1.64-5.36l-3.14-.52v.07c.03.16.05.33.05.51.01.21,0,.39-.06.56-.06.17-.14.32-.25.44-.11.13-.25.24-.4.33-.15.09-.32.16-.5.21-.18.05-.37.08-.56.09-.19.01-.38,0-.57-.03-.19-.03-.37-.08-.54-.15-.17-.07-.33-.16-.46-.27-.16-.17-.28-.35-.37-.54-.08-.19-.13-.39-.15-.59-.02-.2,0-.41.04-.62.04-.21.11-.42.19-.62.09-.21.19-.41.31-.61.12-.2.26-.39.4-.58.14-.19.3-.37.46-.53.16-.17.32-.32.48-.46.17.13.33.26.48.39.15.13.28.25.4.38.12.13.23.25.33.38.1.13.19.26.27.39.07.11.13.23.18.35l2.78.09-1.14-2.76.1-.06,1.55,2.47.09-.05-.19-.88.8,1.43,1.73.24c-.03-.24-.07-.48-.12-.71-.13-.63-.32-1.22-.57-1.79-.24-.57-.54-1.11-.88-1.63-.34-.52-.72-1.02-1.13-1.5-.41-.48-.86-.94-1.33-1.39-.47-.45-.96-.88-1.47-1.31-.51-.42-1.03-.84-1.55-1.24-.53-.41-1.06-.81-1.58-1.21l-.48.55-.48.55-.48.55-.48.55-.48.55-.22.25.71,1.11-1.01-.77-.45.51-.48.55.16.12.16.13.16.12.16.13.16.13.16.13.16.12.16.13c-.43.38-.84.8-1.21,1.26-.37.46-.72.95-1.02,1.46-.3.51-.56,1.05-.77,1.59-.21.55-.37,1.1-.48,1.66-.1.56-.15,1.11-.14,1.66.02.55.1,1.08.25,1.6s.38,1.01.69,1.46c.31.46.7.88,1.18,1.26.6.42,1.25.76,1.92,1.01.68.26,1.38.43,2.08.52s1.42.1,2.12.03c.7-.07,1.38-.22,2.03-.45.65-.23,1.26-.54,1.81-.92.55-.39,1.05-.85,1.46-1.39.42-.54.75-1.15.99-1.85.13-.38.23-.78.29-1.2"/>
    <path class="cls-8" d="M125.61,23.98c-.39-1.01-.9-2.04-1.52-3.08-.78.26-2.01.61-2.01.61l-.56-.26h-.02s-.19.6-.19.6l-.84.53-.43-.41-.37.18-.33.16.22,1.13-.91-.79-.31.15c.14.24.29.49.43.75.15.26.29.52.43.79.14.27.28.54.42.81.14.27.27.55.39.83.12.28.24.55.34.83.1.28.2.55.27.82.08.27.14.54.19.8.05.26.08.51.09.76-.04.46-.13.88-.26,1.28-.14.39-.32.76-.54,1.1-.22.34-.49.65-.78.94-.3.29-.62.55-.98.79s-.74.46-1.13.66c-.4.2-.82.38-1.25.54-.43.16-.87.31-1.32.45-.16.05-.32.09-.48.14.26.82.62,1.99.65,2.06.21-.02.42-.03.7-.06-.08.26-.13.44-.23.77.57-.14,1.02-.25,1.62-.39-.29.39-.52.69-.82,1.09l1,1.63c.64-.2,1.24-.42,1.82-.67,1.14-.48,2.15-1.04,3.05-1.68.9-.64,1.67-1.34,2.31-2.12.64-.77,1.16-1.61,1.54-2.5.38-.89.64-1.84.76-2.83.12-.99.1-2.03-.06-3.1-.16-1.08-.46-2.19-.9-3.32"/>
    <path class="cls-8" d="M117.12,17.67c.23.27.53.49.88.66.35.16.77.25,1.24.26.47,0,.88-.1,1.23-.25.35-.16.64-.38.87-.65.23-.27.4-.58.52-.92.11-.34.17-.69.17-1.05,0-.36-.06-.72-.18-1.06-.12-.34-.29-.65-.53-.92-.23-.27-.52-.5-.87-.66-.35-.16-.75-.26-1.21-.27-.46.01-.87.11-1.23.28-.35.16-.64.39-.88.66-.24.27-.41.59-.53.92-.12.34-.18.69-.18,1.05,0,.36.05.71.17,1.05.12.33.29.65.53.92"/>
    <path class="cls-8" d="M113.75,27.77c-.02-.56-.1-1.21-.27-1.91-.21-.89-.49-1.54-.61-1.8-.26-.57-.57-1.12-.93-1.61-.36-.5-.76-.94-1.2-1.33-.44-.38-.93-.71-1.44-.96-.52-.25-1.07-.42-1.64-.5-.57-.08-1.18-.07-1.8.05-.62.12-1.27.34-1.93.68-.16.09-.31.19-.46.3l.89,1.54-1.35-1.19c-.18.15-.35.31-.52.48l1.18.98-1.55-.59c-.2.23-.39.47-.56.72-.21.3-.4.62-.58.94-.17.33-.32.67-.46,1.01-.13.35-.25.7-.34,1.05-.09.36-.16.72-.21,1.08-.05.36-.07.72-.07,1.08,0,.42.04.82.12,1.2.08.38.2.73.35,1.06.15.33.34.63.55.91.22.28.46.54.73.77.27.23.57.45.89.64.32.19.66.36,1.02.5.36.15.73.27,1.12.37.39.1.79.18,1.2.24-.26.15-.52.28-.78.4-.27.12-.53.22-.8.32-.27.1-.55.18-.83.26-.28.08-.57.14-.85.2-.29.06-.58.11-.88.16-.3.05-.6.09-.91.12-.31.03-.62.07-.94.1-.1,0-.19.01-.29.03.01.8.03,1.71.03,1.78.21.04.41.09.68.15-.15.23-.25.38-.44.67.58.03,1.05.06,1.66.09-.39.29-.7.51-1.09.81l.49,1.83c.34-.03.68-.07,1.01-.11.69-.09,1.37-.2,2.02-.34.66-.14,1.29-.31,1.91-.51.61-.2,1.2-.43,1.76-.7.57-.27,1.1-.57,1.61-.91.5-.34.98-.72,1.42-1.14.13-.12.26-.25.39-.39.13-.14.47-.5.84-1.01.43-.58.75-1.16,1-1.67.31-.64.5-1.52.68-2.72.19-1.25.29-2.38.18-3.11M107.88,28.16c-.09,0-.18,0-.26,0-.09,0-.17,0-.25,0-.08,0-.15,0-.23-.01-.07,0-.14-.01-.21-.02-.07,0-.13-.01-.19-.03-.06,0-.12-.02-.17-.03-.05-.01-.1-.03-.15-.04-.19-.02-.35-.08-.47-.18-.13-.09-.22-.22-.29-.36-.07-.14-.11-.31-.14-.48-.02-.17-.02-.36,0-.54.02-.18.07-.37.13-.55.06-.17.14-.34.23-.49.09-.15.2-.27.32-.36.12-.1.25-.16.39-.18.13,0,.24.04.35.1.11.06.21.14.31.24.1.1.18.23.26.37.08.14.15.29.22.45.06.16.12.34.17.52.05.18.09.36.13.54.04.19.07.36.09.54.02.17.04.34.04.51-.1,0-.19,0-.28,0"/>
    <path class="cls-3" d="M183.2,37.16c.98-.6,2.43-1.42,1.69-3.02-.66-1.43-2.59-1.81-4.39-1.44-1.77.37-3.58,3.15-1.95,4.72,1.03.98,2.89-1.82,2.08.28-.42,1.08,2.84.95,3.96.94-.3.55.75.87.76.07-.04.63.68.57.7,0,.17.64.77.47.91-.04.7-2.1-3.89-1.43-3.77-1.51M197.42,37.05c-.18-1.13-.99-1.54-2.69-1.47.48-.37.06-2.14-1.11-3.05-.3.47-1.63,1.23-2.71,1.55,7.42-3.37.01-9.63-1.65-6.33-.53-1.15-1.01.05-.77.58-.11.18-.42.22-.3.68-.88.81-1.7.76-1.08,1.4-.05.15.02.63.13.74,0-.08.03-.21.06-.34.19.31.47.58,1.22.65.13.01,1.22-.29,1.45-1.4-.07,1.52-1.59,1.56-1.96,2.19-.16.79.6,1.33,1.15,1.99-.57-.33-1.07-1.05-1.3-1.47-.68.17-2.2.35-3.86.11,1.95,1.15,1.53,3.05-.18,4.08.89-.03,1.93-.15,2.7.3.87.06,2.95-.06,3.94-.08-.45-.49-.57-.86-.78-1.49.69,1.28,1.68,2.05,2.88,1.56.02.51-.29,1.62.59.94.27.5.66.16.74-.05.37.59.75.17.64-.39,0-.77-.88-1.74-2.63-1.59,1.33-.14,2.09.16,2.54.87.27.42.76.38,1.28.36.2.4.38.37.55,0,.22.4.6.28.63.01.05.33.57.4.53-.35M189.31,29.22c-.15.04-.28.11-.37.19-.04-.01-.07-.04-.09-.07-.03-.09.1-.2.27-.25.18-.05.34-.02.37.06,0,.01,0,.02,0,.03-.06,0-.13.02-.19.04M180.08,38.65c-.27-.34-.77-.3-1.29-.26-1.45.24-2.7-1.44-.99-2.2-.02-.1-.03-.26-.02-.42-1.63.56-1.42,3.01,1.07,2.78.7-.04.92.04.83.09-1.72.85-.06,1.28-1.44,2.02,1.09,0,2.98-.6,1.83-2.01M187.39,31.11c-.08,1.62,1.17.54,1.15.5-.36,0-.85-.04-1.15-.5"/>
    <path class="cls-6" d="M97.68,28.6c-1.14-1.27-.26-1.67-.06-2.49.06-.8-.9-.4-.9-1.53,1.57-.37.75-1.56-.15-.38-1.88-2.5-2.93-2.38-5.66-3.57-.67-.29-2.13-.22-3.73-.25l.03,1.25.19,6.99v.4c.17-.02.33-.03.49-.01.46-.41.78-.87,1.4-1.06-.15.17-1.38.77-1.02,2.34.28,1.74.11,2.89,2.59,2.65.61-.06,1.34-.73.04-1.41-1.07-.86.57-2.45-.42-4.23-.11-1.04-.3-3.68.29-5.96-.26,1.67-.16,2.84-.12,4.38.04,1.57.29,1.74.29,1.54-.03-.59.41-3.42.78-4.4-.2.9-.54,2.95-.54,4,0,.86.27.9.32.91.09-.95.54-3.21,1.48-4.24-.85,1.3-2.22,5.26.52,5.71,0,.47.29,1.5,1.12,1.7.24.18-.67-1.03-.47-1.98.19.78.36,1.65.96,2.23,2.08,1.33,4.71-.98,2.59-2.57M94.74,24.74c-.17-.11-1.24-.61-.88-.77.38-.17,1.24.16.88.77M95.84,26.97s0,0,0,.01c-.05-.11-.13-.21-.23-.29-.2-.15-.43-.19-.59-.1,0-.08,0-.16.05-.23.11-.18.38-.19.6-.02.22.17.3.46.18.64"/>
    <path class="cls-12" d="M87.32,58.68c-.41-.96-.86-1.91-1.34-2.82-.05.59-.28,1.16-.65,1.58-.1.11-.21.22-.24.37-.03.15.02.32.11.44.11.15.25.23.35.38.11.17.19.39.26.59.16.38.29.77.41,1.16.22.71.38,1.44.54,2.17.09.43.2.91.26,1.02l.2.36-.32.22c-1.08.73-1.31,1.71-1.06,2.36.16.4.57.8,1.21.59l.4-.14.07.47s.05.11.14.17c.19.11.46.1.72-.05l.25-.13.18.23s.5.64.78,1.41l.13.37-.31.17c-.32.17-.63.46-.93.73-.14.13-.28.26-.43.37-.12.1-.25.21-.39.32-1.42,1.15-2.47,2.11-1.98,3.11.08.17.22.34.38.53.42.51,1.11,1.37.19,2.38-1.89,2.07-2.15,4.02-1.77,5.16.24.72.77,1.17,1.4,1.2.39.02.69.1.93.24.71.44.78,1.16.84,1.8.07.7.13,1.36.91,1.99.51.41,1.09.49,1.81.49.48.04.84.01,1.19,0h.28c.35-.02.7-.02,1.05-.03h.34c1.16,0,2.52.03,4.2.07,6.42.16,17.16.43,34.83-.94,2.62-.2,4.41-.24,5.73-.27,2.77-.06,3.61-.08,6.33-1.48l.08-.04h.04s.12-.07.17-.1c.05-.03.1-.06.14-.08.34-.17.59-.49.85-.83.29-.37.62-.79,1.1-1.04,1.61-.84,1.47-1.37,1.17-2.54-.23-.89-.54-2.1-.08-3.73l.02-.07c.45-.97.62-1.91.56-3.04l-.02-.23c-.12-1.42-.61-2.54-1.03-3.02l-.26-.29.26-.3c.24-.28.25-.46.27-1.06,0-.24.02-.55.05-.91.03-.31.07-.64.12-.96.1-.71.2-1.45.14-2.12l-.04-.47h.42c.08.01.15.01.23,0h.06s.06.01.06.01c.27.05,1.75-.5,2.15-1.41.08-.18.31-.72-.51-1.55l-.38-.39.44-.29c.34-.22.68-.44,1.01-.67.87-.58,1.71-1.14,2.69-1.46-.33-.21-.72-.25-1.09-.32-.37-.08-.77-.22-.98-.58-.46.27-.9.57-1.34.86-.4.26-.79.54-1.18.83-.83.63-1.64,1.31-2.38,2.07l-.05.05-.15.07c-.11.04-.22.09-.33.15-.15.07-.26.2-.3.36-.04.12-.03.25.03.35l.03.06v.07s.09.48.14.76l.18.1-.19.38c-.02.05-.05.1-.08.15l-.04.07-.06.05c-.22.19-1.23,1.81-1.83,2.77-.34.54-.63,1-.81,1.28l-.13.2-.21-.03c-3.35-.5-13.46-.46-16.15-.04-.74.11-1.3.2-1.71.27-1.34.21-1.36.21-1.77.15-.33-.05-1.01-.15-3.6-.16-.13,0-14.14.19-14.68.22-1.29.06-2.17,0-3.18-.05-1.42-.08-3.19-.18-6.92-.03h-.3s-.05-.23-.05-.23c-.09-.09-.3-.26-.44-.38-.29-.24-.57-.47-.72-.65-.04-.05-.1-.13-.17-.23-.32-.44-1.3-1.79-1.92-1.76l-.56.03.19-.59c.08-.24.06-.45-.05-.64-.27-.46-1.08-.82-1.91-.85h-.26s-.08-.29-.08-.29c-.29-.98-.47-1.66-.6-2.16-.4-1.49-.41-1.52-1.73-3.85l-.16.07c-.39.17-.67.68-.88,1.1,0,0-.08.16-.1.21l1.82.14Z"/>
    <path class="cls-5" d="M87.32,58.68c-.41-.96-.86-1.91-1.34-2.82-.05.59-.28,1.16-.65,1.58-.1.11-.21.22-.24.37-.03.15.02.32.11.44.11.15.25.23.35.38.11.17.19.39.26.59.16.38.29.77.41,1.16.22.71.38,1.44.54,2.17.09.43.2.91.26,1.02l.2.36-.32.22c-1.08.73-1.31,1.71-1.06,2.36.16.4.57.8,1.21.59l.4-.14.07.47s.05.11.14.17c.19.11.46.1.72-.05l.25-.13s.18.23.18.23c.48.61.6,1.17.79,1.96.23.98.5,1.95.8,2.91.12.38.25.76.49,1.05.24.29.62.47.95.35.33-.13.53-.52.57-.91.04-.39-.05-.78-.14-1.16-.24-1.01-.47-2.02-.71-3.04.94-.08,1.88-.16,2.82-.25.07,0,.14-.01.19-.05.16-.11.12-.41-.03-.55-.25-.24-.6-.28-.86-.53-.21-.21-.37-.48-.55-.72-.35-.44-.92-1.22-1.5-1.2l-.56.03.19-.59c.08-.24.06-.45-.05-.64-.27-.46-1.08-.82-1.91-.85h-.26s-.08-.29-.08-.29c-.29-.98-.47-1.66-.6-2.16-.4-1.49-.41-1.52-1.73-3.85l-.16.07c-.39.17-.67.68-.88,1.1,0,0-.08.16-.1.21l1.82.14Z"/>
    <path class="cls-5" d="M147.64,67.99c.03-.31.07-.64.12-.95.1-.71.2-1.45.14-2.12l-.04-.47h.42c.08.01.15.01.23,0h.06s.06.01.06.01c.27.05,1.75-.5,2.15-1.41.08-.18.31-.72-.51-1.55l-.38-.39.44-.29c.34-.22.68-.44,1.01-.67.87-.58,1.71-1.14,2.69-1.46-.33-.21-.72-.25-1.09-.32-.37-.08-.77-.23-.98-.58-.46.27-.9.57-1.34.87-.4.26-.79.54-1.18.83-.83.63-1.64,1.31-2.38,2.07l-.05.05-.15.07c-.11.04-.22.09-.33.15-.15.07-.25.2-.3.36-.04.12-.03.25.02.35l.03.06v.07s.09.48.14.76l.18.1-.19.38c-.02.05-.05.1-.08.15l-.04.07-.06.05c-.22.19-1.23,1.81-1.83,2.77-.91,1.46-2.01,2.75-2.91,4.25-.18.3-.35.6-.42.95-.07.35,0,.75.24.98.22.21.55.24.83.13.28-.1.51-.31.73-.53.86-.85,1.59-1.88,2.13-3.02.14-.29.32-.62.6-.62.35,0,.52.49.79.74.25.24.65.26.92.05.52-.4.25-1.31.31-1.92"/>
    <path class="cls-9" d="M137.4,69.23c1.87.04,3.79.64,5.53-.42.05-.03.03-.14-.03-.13-1.87.19-3.7-.36-5.57-.02-.29.05-.21.57.07.57"/>
    <path class="cls-9" d="M95.49,70.17c1.62-.16,3.24-.59,4.88-.35.1.01.12-.18.02-.2-1.49-.38-2.91-.19-4.43-.15-1.28.04-2.93-.67-4.11-.09-.09.05-.1.21-.03.28.89.96,2.54.62,3.67.51"/>
    <path class="cls-9" d="M148.35,72.88s.03-.07.04-.1c.13-.34-.14-.66-.44-.5-.07.03-.12.07-.18.1-.03-.04-.07-.08-.11-.1.03-.06.05-.12.06-.18h0c.04-.21-.11-.47-.32-.38.02-.05.04-.1.03-.15,0-.01,0-.03,0-.04-.02-.15-.08-.25-.21-.31-.21-.09-.39.06-.54.23,0,0-.01.02-.02.02-.13-.12-.37.07-.28.28,0,0,0,0,0,.01-.12.15-.22.32-.2.49.02.21.2.31.38.24.01,0,.02-.01.03-.02-.02.03-.03.06-.05.09-.05.08-.05.15-.04.22-.08-.09-.14-.13-.27-.13-.11,0-.2.06-.3.08-.18.04-.23.02-.47-.02-.38-.06-.76.02-1.13.11-.23.06-.13.45.1.4.34-.07.71-.12,1.05-.16.42-.05.65.35,1.03.11.08-.05.1-.14.08-.23.02.02.04.04.06.05-.04.16.04.36.16.45-.1.15-.17.31-.16.48,0,0,0,0,0,0,0,.07.02.15.05.21-.02.02-.04.03-.06.04-.02-.04-.06-.08-.11-.1-.34-.11-.73-.03-1.07,0-.35.03-.71.1-1.06.16-.17.03-.12.31.04.32.37.02.73.05,1.1.04h.03s-.06.02-.09.03c-1.13.33-2.28.18-3.42.06-2.07-.22-4.33-.08-6.27.82-.2.09-.19.46.05.45,1.32-.06,2.6-.19,3.93-.06,1.36.13,2.73.46,4.1.49,2.1.04,3.34-.92,4.59-2.75.14-.21.08-.6-.11-.78"/>
    <path class="cls-9" d="M147.74,75.78h0s0-.02,0-.02h0s-.02-.06-.06-.07c-.24-.05-.41.25-.57.41-.23.23-.43.47-.66.7-.04.04-.04.09-.02.14,0,.02-.01.05-.02.07-.03.12.07.26.19.22.05-.02.09-.04.13-.06-.12.08-.24.14-.36.18-.34.12-.25.63.08.67.11.01.18.01.24.01-.22.23-.46.41-.71.59.02-.2-.07-.38-.3-.43-1.42-.28-2.95.02-4.36.26-.88.15-1.73.53-2.62.6-.79.07-1.61-.09-2.41-.1-1.53-.02-3.04-.44-4.58-.43-1.7.01-3.35.68-5.06.4-.11-.02-.16.16-.05.19,1.44.37,2.8,0,4.25-.11,1.74-.13,3.43.4,5.13.75,1.58.33,2.94-.37,4.51-.5.76-.06,1.54-.15,2.3-.16.89-.02,1.76.13,2.65.04-.04.21.1.44.29.47.03.04.07.07.11.08.02,0,.03,0,.05,0,.08.01.17,0,.21-.1,0,0,0,0,0,0,0,0,.01,0,.02-.02.08-.07.17-.14.25-.21.2-.16.39-.32.59-.47.2-.16.11-.49-.11-.51.1-.16.21-.31.31-.46.06-.08.06-.2-.03-.26-.04-.03-.09-.05-.13-.08.29-.3.51-.64.67-1.13.03-.09-.08-.18-.15-.13-.13.1-.27.18-.41.26.07-.06.14-.12.21-.19.16-.16.43-.36.41-.63"/>
    <path class="cls-9" d="M147.04,79.51c-.06,0-.11.02-.17.04-.09-.19-.31-.29-.48-.08-.15.18-.3.36-.44.54-.14.17-.12.37-.01.51-1.51-.55-3.28.12-4.73.59-.22.07-.13.43.1.39,1.04-.2,1.96-.18,3,.04.68.15,1.28.28,1.91-.09.09-.05.15-.13.18-.22.12-.06.2-.17.23-.31.21-.28.4-.59.64-.83.19-.18.04-.61-.21-.58"/>
    <path class="cls-9" d="M147.05,81.53s-.04,0-.06,0c.18-.33.31-.71.01-.79-.09-.03-.14.09-.08.17,0,0-.66.67-.71.73-.21.23,0,.66.28.57-.62.69-1.5,1.2-1.79,2.1-.03-.06-.07-.1-.13-.11-.94-.24-1.93.21-2.87.4-1.4.27-2.8.47-4.21.59-2.3.21-4.75.33-6.96,1.13-.09.03-.05.18.04.16,2.58-.77,5.21-.22,7.83-.47,1.1-.11,2.2-.26,3.29-.46.99-.18,2.17-.21,2.98-.92.03-.02.04-.06.06-.09.05.06.13.09.2.07.63-.15,1.19-.88,1.66-1.34.41-.4.72-.88.66-1.51,0-.12-.08-.22-.19-.22"/>
    <path class="cls-9" d="M137.33,83.74c1.08-.5,2.27-.59,3.38-1,.09-.03.1-.2,0-.22-.61-.12-1.09.02-1.68.21-.62.2-1.24.36-1.83.67-.17.09-.05.42.13.34"/>
    <path class="cls-9" d="M145.24,82.92c.31-.04.49-.43.26-.72-.26-.32-.92-.12-1.25-.1-.74.05-1.47.16-2.22.17-.3,0-.3.53,0,.53,1.06,0,2.15.25,3.2.12"/>
    <path class="cls-9" d="M101.15,72.7c1.43.23,2.86.27,4.3.19,1.12-.06,2.25-.32,3.37-.46,1.18,1.69,3.3,1.32,4.97,1.04,1.47-.25,2.92-.53,4.41-.6,1.28-.05,2.57,0,3.84-.23.09-.02.08-.17,0-.19-1.11-.29-2.26-.32-3.42-.28,0-.04-.03-.09-.07-.1-1.42-.6-3.02-.38-4.5-.75-1.19-.3-2.54-.82-3.76-.76-1.32.07-2.71.95-4.02,1.26-1.67.39-3.38.49-5.09.55-.15,0-.21.29-.04.32M109.99,72.36c.7,0,1.37.31,2.07.39.15.02.29.02.43.02-.15.02-.31.04-.46.05-.85.07-1.53-.15-2.24-.45.07,0,.14,0,.21,0"/>
    <path class="cls-9" d="M118.28,75.9c.89-.19,2.18.07,2.96-.49.11-.08.08-.25-.04-.3-.85-.39-2.12.11-3.01.12-.98,0-2,.07-2.89.57-.1.05-.08.25.03.27.98.22,1.98.04,2.94-.16"/>
    <path class="cls-9" d="M119.97,74.31c-.13.03-.09.24.03.25.82.08,1.6.04,2.42-.02.62-.05,1.28,0,1.84-.34.1-.06.07-.22-.03-.26-.67-.24-1.44-.01-2.13.06-.72.07-1.42.16-2.13.32"/>
    <path class="cls-9" d="M130.85,73.63c.06-.03.03-.15-.03-.14-1.46.19-3.04-.16-4.52-.1-.15,0-.19.27-.04.3.83.18,1.68.24,2.52.27.71.02,1.43.07,2.07-.32"/>
    <path class="cls-9" d="M141.28,73.18c-.36-.09-.35-.28-.23-.66.07-.22.19-.65.33-.81.03-.04.05-.09.06-.14.1-.04.16-.22.07-.31-.32-.35-.53-.33-.98-.29-.77.06-1.53.28-2.31.33-1.89.1-3.76.47-5.63.72-.21.03-.23.39,0,.4,1.61,0,3.22.11,4.83,0,.52-.04,1-.1,1.5-.29.35-.13.78-.35,1.21-.49-.02.03-.05.07-.07.1-.45.74-.57,1.74.08,2.39,1.07,1.07,3.22.47,3.48-1.19.06-.4-.41-.69-.61-.29-.3.59-1.2.7-1.74.56"/>
    <path class="cls-9" d="M91.57,75.63c.7.02,1.22-.45,1.6-1.09.29-.49.51-1.49-.11-1.8-.22-.11-.56-.05-.61.28-.05.36-.45.98-.79,1.08-.24.07-1.16-.02-1.07-.44.15-.71-.65-1.05-1-.48-.33.55-.2,1.35.21,1.8.44.48,1.18.63,1.76.64"/>
    <path class="cls-9" d="M85.21,80.6c1.33-.32,2.79-.93,4.15-1.06,1.41-.12,2.88.13,4.31.06,1.25-.06,2.51-.17,3.76-.08,1.27.09,2.46.45,3.7-.04.08-.03.05-.17-.04-.15-1.38.29-2.72-.64-4.07-.82-1.35-.18-2.72-.16-4.07-.06-1.25.09-2.4.61-3.63.79-1.37.2-2.87.01-4.26.08-.82.04-.67,1.46.15,1.27"/>
    <path class="cls-9" d="M89.71,83.6c1.02-.13,2-.27,3.03-.25.92.02,1.77.06,2.66-.29.12-.04.11-.27-.03-.26-1.7.16-3.32-.49-5.02-.44-.77.02-1.54.11-2.32.07-.46-.03-.89-.15-1.3-.28.23-.05.47-.11.71-.22.86-.38,1.65-.84,2.6-.73.1.01.14-.17.05-.21-.72-.38-1.43-.39-2.21-.22-.93.21-1.86.26-2.78.43-.59.11-.45,1.06.04,1.18,0,0,0,.01.01.02,1.11,1.24,3.1,1.38,4.56,1.19"/>
    <path class="cls-9" d="M97.81,85.89c-.9-.16-1.82-.34-2.73-.3-.89.04-1.85.34-2.71.58-.19.05-.1.35.08.32,1.71-.27,3.58-.37,5.32-.3.15,0,.19-.27.04-.3"/>
    <path class="cls-9" d="M90.28,85.45c-.66-.24-1.32-.39-2.01-.49-.66-.1-.68,1.14,0,1.19.63.05,1.27.1,1.9.18.55.07,1.1.26,1.65.18.1-.01.12-.18.06-.25-.43-.45-1.06-.62-1.6-.82"/>
    <path class="cls-9" d="M101.37,85.7c-.66-.03-1.36-.08-1.98.21-.15.07-.19.34,0,.39.61.16,1.23.08,1.85.11.53.02,1.11.19,1.6-.08.07-.04.09-.17.03-.23-.41-.39-.99-.38-1.5-.4"/>
    <path class="cls-9" d="M124.14,87.3c-1.43-.54-3.01-.38-4.49-.25-1.83.17-3.55.02-5.36-.33-3.31-.64-6.93-.6-10.28-.53-.22,0-.22.4,0,.39,1.81-.02,3.54.08,5.33.34,1.68.24,3.36.68,5.05.76,1.49.07,3,.53,4.48.19.86-.2,1.65-.42,2.54-.42.9,0,1.79.17,2.69.04.1-.01.13-.16.02-.2"/>
    <path class="cls-9" d="M125.83,85.84c-1.35-.25-2.82-.16-4.18-.16-1.58,0-3.16.15-4.74.24-.24.01-.22.37,0,.4,1.5.22,2.99.34,4.5.21,1.49-.13,2.86-.51,4.38-.42.14,0,.17-.25.03-.28"/>
    <path class="cls-9" d="M126.12,83.64c-2.93-.56-6.29.15-9.14.99-.05.01-.03.09.02.08,1.68-.32,3.36-.43,5.06-.33,1.36.07,2.84.47,4.12-.18.21-.1.16-.52-.06-.56"/>
    <path class="cls-9" d="M134.39,83.99c.26-.04.4-.42.14-.59-.84-.55-1.9-.49-2.84-.41-1.33.12-2.66.25-3.99.44-.22.03-.23.42,0,.39,1.17-.12,2.37-.29,3.54-.19,1.04.09,2.11.51,3.14.36"/>
    <path class="cls-9" d="M115.72,81.4c3.21,1.06,6.71-.27,9.98-.33,1.75-.03,3.38.77,5.09.76,1.69-.01,3.21-.07,4.85-.52.05-.01.04-.11-.01-.11-1.81-.01-3.59-.48-5.38-.63-1.49-.12-3.04.06-4.54-.02-3.33-.19-6.6.82-9.96.66-.1,0-.12.16-.02.19"/>
    <path class="cls-9" d="M100.24,80.94c-1.21.38-2.95.05-4.17-.27-.06-.02-.11.09-.04.12,1.14.59,2.21,1.15,3.49,1.17.61,0,1.07-.21,1.63-.42.59-.22,1.2-.29,1.76-.6.13-.07.09-.3-.04-.34-.94-.3-1.73.06-2.63.34"/>
    <path class="cls-9" d="M103.16,83.7c-1.67.2-3.36-.27-5.06.02-.15.03-.12.27,0,.32.91.31,1.8.55,2.76.61.88.05,1.57-.24,2.36-.68.1-.06.06-.27-.06-.26"/>
    <path class="cls-9" d="M105.06,83.99c1.3-.23,2.81-.15,4.11.07,1.01.17,1.97.27,2.9-.3.18-.11.1-.43-.1-.44-.8-.01-1.54.34-2.34.18-.53-.1-.9-.28-1.44-.27-1.1.03-2.22-.06-3.23.48-.15.08-.03.29.1.27"/>
    <path class="cls-9" d="M108.54,76.07c.97-.12,1.88-.43,2.83-.64.11-.02.08-.22-.03-.22-1.92.11-4.35-.66-6.1.52-.09.06-.05.21.05.21,1.09.07,2.16.25,3.24.11"/>
    <path class="cls-9" d="M117.77,69.19c.86.07,1.73.17,2.59.2.06,0,.05-.09,0-.1-.86-.11-1.73-.14-2.59-.21-.06,0-.06.1,0,.11"/>
    <path class="cls-9" d="M123.64,69.5c2.58-.13,5.21.39,7.78.07.05,0,.08-.1.01-.12-2.49-.51-5.29-.44-7.79-.13-.1.01-.11.19,0,.19"/>
    <path class="cls-9" d="M132.28,69.68c1.06-.11,2.1-.12,3.16-.03.92.08,1.83.31,2.74.16.13-.02.09-.21,0-.25-1.73-.74-4.11-.52-5.91-.29-.22.03-.23.43,0,.4"/>
    <path class="cls-8" d="M153.59,58.44c-.32.16-.7.39-1.17.73-.09-.22-.32-.75-.5-.87.43-.27.83-.56,1.17-.93.29-.13.22-.43.02-.43-.62,0-3.89,1.86-6.3,4.33-.14.06-.29.12-.44.19-.51.25-.67.88-.45,1.31l.16.96s-.04.09-.07.14c-.37.3-2.13,3.25-2.72,4.14-3.35-.5-13.49-.46-16.25-.04-5.34.82-.92.28-7.03.26,0,0-14.14.19-14.7.22-3.08.14-3.7-.35-10.09-.08-.04-.15-.97-.81-1.22-1.13-.26-.33-1.45-2.18-2.39-2.13.42-1.29-1.09-2.01-2.3-2.06-1.24-4.21-.49-2.78-2.8-6.85-.02-.04-.75-1.31-.79-1.31-.3.18.18,1.18.62,1.96-.49.22-.82.77-1.07,1.3-.25-.34-.53-.65-.86-.9-.12-.09-.26.12-.15.22,1.76,1.74,2.12,5.74,2.44,6.34-2.31,1.57-1.25,4.28.45,3.71.06.46.67.82,1.39.44,0,0,.46.58.71,1.29-.51.28-.96.77-1.41,1.14-1.32,1.1-3.23,2.42-2.48,3.97.37.76,1.54,1.4.63,2.39-3.2,3.51-2.15,6.99-.13,7.08.25.01.54.05.76.19,1.18.73.03,2.4,1.72,3.76.61.49,1.3.57,2.03.57.53.04.95,0,1.33-.01.4,0,.79-.01,1.19-.02,5.7-.04,16.81.88,39.4-.87,8.15-.63,8.08.32,12.18-1.79.1,0,.33-.17.43-.22.82-.42,1.12-1.43,1.96-1.86,3.27-1.71.26-2.93,1.29-6.52.43-.92.67-1.94.6-3.26.05-.1.06-.18-.02-.25-.13-1.56-.67-2.75-1.14-3.28.49-.57.31-1.01.42-2.22.1-1.02.35-2.13.26-3.16.09,0,.17,0,.26,0,.62.19,4.21-1.41,1.98-3.68,2.5-1.63,2.67-1.85,3.08-2.05v-.7ZM149.31,59.96c.13.29.32.55.55.73-.33-.19-.7-.3-.96-.11-.09-.02-.19-.02-.28,0,.23-.21.46-.42.69-.62M147.42,61.71c.1.2.22.17.14-.04.09-.02.18-.04.27-.05.04.28.24,0,.23.72-.46-.21-1.08-.31-1.48.08,0,0-.01-.02-.01-.02-.06-.42.5-.6.85-.7M146.19,64.49c.53-.47.27-.18,1.32.22-.15.28-.25.51-.68,1.27,0-.58-.3-1.09-.73-1.34.03-.05.06-.1.09-.15M146.23,69.1c.32-.25.72-.22,1.1-.26-.02.16-.04.33-.06.49-.08.16-.18.3-.3.42-.27-.2-.55-.39-.74-.64M146.64,70.54c-.24.08-.52.58-.62.84-.97-.95-1-1.02-1-1.02.17-.28.21-.34.54-.93.38.35.72.74,1.08,1.11M146.09,68.87c-.04-.08-.06-.16-.08-.25.16-.29.32-.58.48-.87.45-.17.57-.09.87-.18.04-.01.07-.04.08-.06-.04.34-.03.42-.08,1.04-.38-.21-.95,0-1.27.32M146.69,67.38c.13-.25.27-.49.4-.74.2-.05.29-.07.48-.1-.07.48-.1.75-.12.94-.01-.11-.3-.25-.75-.11M143.64,68.66c.08-.04.14-.14.15-.25.1-.16.2-.33.3-.49.58.51.76,1.28.85.95.13-.51-.31-.9-.7-1.2.53-.89.59-1.02.97-1.62.61.46.73,1.62.86,1.13.12-.45-.38-1.13-.71-1.35.2-.32.41-.65.61-.97.51.33.55.87.71,1.25.01.03.04.04.06.04-2.05,3.61-2.21,3.89-2.64,4.54.09-.36-.12-.97-.91-1.34.15-.23.3-.45.44-.68M143.92,70.74s.06.07.1.07c-.25.37-.53.71-.79,1.01-.14-.5-.46-1-.93-1.17.25-.37.51-.74.76-1.1.7.37.75.81.86,1.19M142.05,74.03s-.07-.08-.11-.11c.05-.07.1-.15.15-.22.03.04.06.08.09.12-.04.06-.09.14-.14.21M142.12,74.29s-.05.02-.07.03c0-.03.02-.05.03-.07.01.01.03.03.04.04M140.86,74.18c-.06-.09-.12-.19-.18-.28.03-.04.07-.08.1-.11.06.09.13.17.2.25-.04.05-.08.1-.12.14M140.91,74.42s-.08-.01-.13-.02c.02-.02.04-.03.06-.05.02.03.05.05.07.07M139.8,73.52c.05-.05.1-.09.15-.14.03.11.06.21.1.31l-.11.1c-.05-.09-.1-.18-.15-.27M139.89,73.85s0,0,0,0c-.02-.04-.04-.08-.06-.12.02.04.05.08.07.12M141.07,73.91s-.02.03-.03.05c-.07-.08-.13-.17-.19-.25.02-.02.04-.04.06-.07.05.09.11.18.16.27M141.04,73.63s.06.04.09.06c0,0,.04.06.04.07-.01.01-.02.02-.03.04-.04-.05-.07-.11-.11-.16M140.78,73.6c-.04-.06-.09-.13-.13-.19.04-.03.07-.05.11-.08.03.07.07.14.1.21-.02.02-.05.04-.07.06M140.25,73.11l.06-.05c.05.1.11.19.17.29-.02.02-.05.04-.07.05-.05-.1-.1-.19-.15-.29M140.32,73.47c-.06.04-.11.09-.17.14-.04-.1-.08-.19-.12-.3.06-.05.11-.1.16-.15.04.1.08.2.13.31M140.62,72.6h0c-.03-.05-.07-.1-.1-.15.05-.03.09-.07.14-.1-.02.08-.03.17-.04.25M140.62,72.88s-.03-.04-.04-.07c0,0,0,0,.01,0,0,.02.02.03.03.05,0,0,0,.02,0,.02M140.69,73.22s-.09.05-.13.08c-.06-.1-.12-.2-.18-.29.05-.04.1-.09.15-.13.06.11.12.23.17.35M140.56,73.48c.04.07.09.13.13.2-.03.03-.06.07-.09.1-.04-.08-.09-.15-.13-.23.03-.02.06-.05.09-.07M140.69,72.22c-.08.04-.16.09-.23.13-.02-.03-.04-.06-.06-.09.14-.09.28-.17.34-.19-.02.05-.03.1-.04.14M140.43,72.5c.03.05.06.11.09.16,0,0-.02.01-.02.02-.04-.05-.08-.1-.12-.14.02-.01.04-.03.05-.04M140.45,72.73c-.05.04-.1.09-.15.14-.04-.07-.07-.13-.11-.2.05-.04.1-.07.15-.1.04.05.08.1.11.16M140.29,72.46c-.09-.08-.09-.05-.03.02-.04.03-.09.06-.13.09-.01-.02-.02-.05-.04-.07.08-.07.16-.13.24-.19.02.03.03.06.05.09-.03.02-.06.04-.09.06M140.13,72.72c.04.07.07.14.11.21-.02.02-.03.03-.05.04-.03-.07-.07-.15-.1-.22.01-.01.02-.02.04-.03M140.13,73.02c-.07.07-.16.16-.16.16-.03-.09-.06-.18-.09-.28.05-.04.1-.08.15-.12.03.08.06.16.09.24M139.85,72.8s0,0,0,0c.01-.04.03-.07.04-.1.03-.03,0-.01.15-.14.01.02.02.05.03.07-.07.06-.15.12-.22.18M139.91,73.25c-.05.05-.11.1-.16.16,0-.13,0-.27.04-.41.02-.02.03-.03.05-.05.02.09.05.19.07.29M140.11,73.84c.05.12.11.23.17.34,0,0,0,0,0,.01-.1-.06-.02,0-.13-.07-.04-.07-.09-.14-.13-.21.03-.03.06-.05.09-.07M140.21,73.76c.06-.04.11-.09.17-.14.04.09.08.17.13.25-.05.06-.1.12-.15.18-.06-.1-.11-.2-.15-.3M140.59,74c.06.1.12.19.19.27-.03.04-.07.07-.1.1-.05-.02-.11-.04-.16-.05-.03-.05-.06-.09-.09-.14.05-.06.1-.12.15-.18M141.05,74.13c.24.28.33.28.06-.07.01-.01.02-.02.03-.04.06.09.12.17.18.25-.04.06-.08.12-.11.18-.06,0-.11,0-.17,0-.04-.06-.08-.11-.12-.17.08-.08.13-.14.13-.14M142.64,72.44c-.15-.4-.6-.67-.93-.92.12-.18.26-.38.46-.68.6.26.63.72.91,1.15-.14.15-.29.31-.44.45M142.99,73.02s0,.03-.01.04c0,0-.01-.01-.02-.01.01-.01.02-.02.03-.03M142.94,73.18c-.06.15-.14.3-.23.44-.08-.08-.08-.08-.12-.13.2-.28.21-.28.3-.37l.05.06ZM142.44,72.62c-1.13.99-1.52.21-.85-.92.42.33.68.45.85.92M142.4,73.5c-.05.07-.09.14-.14.21-.03-.03-.06-.06-.08-.09.07-.04.15-.07.22-.12M141.86,73.73s.06-.02.1-.02c-.03.04-.06.08-.08.11-.01-.01-.02-.02-.03-.03.02-.02.02-.03.02-.06M141.44,74.09s-.02.04-.04.06c-.06-.08-.11-.17-.17-.25.01-.01.02-.02.03-.04.05.07.11.15.17.23M141.38,74.35s.04.06.07.09c-.05,0-.09,0-.14,0,.02-.03.04-.07.07-.1M141.42,73.76c.09.01.18,0,.27,0,0,0,.01.02.02.03-.05.05-.1.09-.14.15-.05-.05-.1-.11-.15-.17M141.51,74.17s.05.05.07.08c-.02.03-.04.06-.05.09-.02-.04-.04-.07-.07-.1l.05-.07ZM141.65,74.32s.06.06.1.08c-.06.01-.11.02-.17.03,0,0,0,0,0,0,.02-.03.05-.07.08-.1M141.7,74.07s-.03-.04-.05-.05c.04-.05.08-.1.13-.15.01.02.02.03.03.05-.04.05-.07.1-.11.15M141.88,74.01s.07.09.12.14c-.02.04-.04.09-.05.13-.05-.05-.11-.09-.16-.14.03-.04.07-.09.1-.13M142.28,73.93s.07.08.11.13c-.02.02,0,.04.03.03.01.01.02.02.03.03-.06.04-.13.08-.2.12-.03-.04-.07-.08-.11-.11.04-.07.09-.13.13-.19M142.36,73.82s.11-.16.16-.24c.03.03.04.05.05.05h0s.03.03.08.09c-.05.07-.1.15-.16.22-.04-.04-.08-.08-.12-.12M142.68,73.76s.06.06.09.09c-.07.06-.13.12-.2.17-.02-.02-.04-.04-.06-.05.06-.07.11-.14.17-.21M142.75,73.66c.09-.14.16-.28.22-.43.05.07.11.13.17.18-.05.1-.11.18-.28.36-.04-.04-.07-.07-.11-.1M143.02,73.11c.02-.05.04-.11.05-.16.05-.05.1-.11.16-.16.04.17.05.32-.03.5-.06-.05-.12-.12-.18-.18M111.03,69.04c-.01.07.08.07.07,0,18.74-.05,8.95.33,19.68-.44-1.93.68,1.5-.01,1.91-.02.07,0,.1-.08.09-.14,2.37-.17,5.08.14,9.6.23.53.32,0,.33.04.64-.09.13-.18.25-.26.38-.05-.01-2.99-.19-3.06-.2-.82-.36-.92-.17-.82-.16.26.02.51.07.74.16-4.81-.22-9.51.9-18.8.85.98-.03-1.97-.19-1.47,0-25.72-.14-25.88.68-26.45.08-.05-.13-.04-.11-.1-.29.01-.1-.08-.32-.12-.43.45-.09.9-.12,1.35-.06.38.04-.41-.52-1.42-.13-.02-.07-.05-.13-.07-.2,4.21-.57,7.14-.22,19.09-.25M93.02,73.47c0,.15,0,.29-.02.42-.17-.14-.15-.11-.3-.27.05-.16.08-.34.09-.52.11.16.12.17.22.38M92.81,72.88s0-.06,0-.09c.06.08.11.18.15.29-.05-.07-.1-.13-.15-.2M91.73,74.88c.05.06.08.09.14.16l-.11.15s-.07.02-.1.02c-.04-.05-.09-.1-.13-.15.07-.06.14-.12.2-.18M91.67,74.61s.04-.05.07-.08c.02,0,.04,0,.06-.01-.06.05-.07.06-.12.1,0,0,0,0,0-.01M91.9,75.07s.04.04.06.05c-.04.02-.09.03-.13.05.02-.03.05-.07.08-.1M91.95,74.92s-.09-.08-.13-.13c.05-.05.1-.1.15-.15,0,0,.05.05.11.12-.04.05-.08.1-.12.16M92.11,74.8c.05.06.1.12.16.17,0,0-.01.01-.02.02-.04.02-.09.05-.13.07-.1-.05-.05-.03-.13-.1.04-.05.08-.1.12-.15M92.08,74.51c.1-.1.19-.2.28-.3.02.03.04.06.07.09-.08.1-.17.2-.25.31-.11-.09-.02-.02-.1-.1M92.23,74.65c.08-.1.17-.2.25-.3.05.06.11.13.17.18-.08.1-.16.19-.24.29-.06-.06-.12-.11-.18-.16M92.6,74.2c.08-.09.15-.18.23-.27.04.04.09.08.14.12-.01.03-.02.07-.03.1-.05.07-.11.14-.16.21-.06-.05-.12-.11-.18-.16M92.8,73.91c-.08.08-.16.17-.24.26-.03-.03-.04-.04-.07-.08,0-.01,0-.02,0-.03.07-.09.12-.19.16-.3.06.06.1.1.15.15M94.42,68.4c-.39.02-.78.05-1.17.09.02-.24.04-.38.24-.93.16.21.32.43.93.84M91.34,65.64c.35.22.52-.08,1.41.96-.49.77-.48,1.13-.31.93.19-.23.28-.55.4-.82.18.22.35.46.52.68-.17.33-.32.73-.35,1.11-.12.01-.23.02-.34.04-.08-.11-.17-.22-.26-.32,0-.12.01-.24.02-.35,0-.06-.07-.06-.08,0,0,.09-.02.18-.03.26-.4-.43-.73-.66-1-.85.59-.94.1-1.32-.13-.09-.12-.08-.24-.15-.36-.22-.1-.14-.21-.27-.33-.39.13-.13.68-.72.85-.94M91.03,64.81c-.03.2-.16.38-.27.54.02-.3-.04-.72-.12-.94.13.12.25.26.39.4M89.38,63.81c.45,1.1.38-.04.53,2.3,0,.05.06.08.09.04.34-.44.09-1.55-.37-2.29.29.07.4.12.53.2.32.36.47,1.11.36,1.61-.61.81-.73.75-1.11-.17.12-.57-.24-1.26-.51-1.75.16,0,.32.03.48.06M88.73,63.07c-.56.09-.95.12-1.47.38-.02-.14-.05-.28-.09-.41.39-.87,1.01-.98,1.31-1.27.09.44.15.88.25,1.31M86.44,60.54c.39-.74.68-.85,1.02-1.17.25-.23-.45-.41-1.12.89-.12-.33-.25-.66-.4-.98.26-.5.61-.65.87-1.03.21-.3-.54-.03-.96.84-.14-.29-.3-.56-.48-.82.48-.8.71-.86,1.03-1.32.18.31,1.51,2.42,2.04,4.66-.32.03-1.02.55-1.34,1.19-.12-.37-.08-.25-.24-.82.11-.21.25-.4.4-.57.22-.26,1.03-.84.72-.8-.5.07-.92.55-1.19,1.09-.11-.39-.22-.78-.35-1.16M86.49,66.73c-.72-.35-.38-1.35-.02-1.87.01,0,.03,0,.04,0,.4-.23.85.2,1.2.39.39.21-.42-.83-1.02-.65.57-.64,1.23-.84,2.04-.83.23.44.47.94.52,1.45-.87-1.36-2.02-1.29-1.75-1.04.32.29.63.51.92.79.26.86-1.31,2.08-1.93,1.78M87.56,67.32c.23-.13.45-.3.65-.5.04.15.1.29.18.42-.29.22-.65.43-.83.08M88.51,67.15c-.07-.15-.12-.3-.15-.46.09-.09.17-.19.24-.29.06.18.18.16.19.04,0-.06-.03-.18-.04-.26.09-.14.17-.28.23-.42.06.15.12.33.19.51-.25.25-.15.46-.66.88M88.85,67.76c.31-.23.63-.54.75-.89.1.06.21.07.31.06.25.25.66.5,1.17,1.88-.46.27-.76.64-.96,1.02-.06.13.1.24.18.12.27-.46.64-.66.88-.84.38,1.1.58,1.67.7,2.04.02.01.03.03.02.05.08.26.12.42.16.62-.08.1-.15.2-.25.28-.1.09,0,.28.1.2.07-.05.14-.11.2-.17.24,1.64-.71,2.22-1.37.94.07,0,.98-.72.72-.63-.22.07-.73.52-.75.56-.08-.17-.15-.36-.2-.56.17-.27.37-.51.6-.71.21-.19.72-.41.78-.52,0-.02-.01-.04-.02-.05-.02,0-.04-.01-.07-.02-.44-.05-1.09.64-1.36,1.04-.05-.25-.09-.51-.13-.77.12-.15.37-.41.43-.53.09-.17-.13-.18-.47.27-.04-.34-.17-1.43-.59-2.32.38-.24.37-.92-.1-.18-.19-.34-.43-.65-.74-.87M91.29,74.78c-.12-.15.04.07-.19-.24.04-.02.07-.04.11-.06.09.03.17.06.26.06,0,.01.02.02.02.04-.12.11-.08.09-.21.2M91.46,75.24c-.08.01-.16.02-.24.02.06-.03.11-.06.17-.1.02.03.05.05.07.08M90.56,74.42s-.05-.09-.08-.13c.07-.06.13-.11.2-.15.02.04.05.09.08.13-.07.05-.13.1-.2.15M90.61,75.08s-.05-.07-.08-.11c0,0,.02-.01.02-.02.02.04.04.08.06.13M90.09,74.38s0-.02-.02-.02c.04-.04.08-.09.12-.14,0,.02.02.03.03.05-.04.04-.09.07-.13.11M90.15,74.73s-.02,0-.02.02c-.02-.03-.03-.06-.05-.09,0,0,0,0,.01,0,.02.03.04.05.06.08M89.85,74.7s-.04-.08-.05-.12c.03-.01.06-.03.09-.05,0,.01.01.02.01.03-.05.06-.06.11-.06.14M90.14,73.74c.06-.04.13-.07.19-.11.04.07.09.14.13.2-.08.01-.15.04-.21.08-.04-.06-.07-.12-.11-.17M90.17,73.98c-.04-.06-.09-.11-.13-.16,0,0,.02-.01.03-.02.04.06.07.12.1.18M90.04,73.6c-.04-.05-.07-.1-.11-.16.08-.1.12-.12.21-.16.03.07.07.15.1.22-.07.03-.14.06-.21.1M89.98,73.64s-.05.03-.08.05c-.03-.02-.06-.04-.09-.05.02-.07.04-.09.08-.14.03.05.06.1.09.15M89.84,73.72s-.04.03-.07.04c0-.03.02-.06.02-.09.02.01.03.03.05.04M89.81,74.33s-.04.03-.05.04c-.01-.07-.02-.13-.02-.2.02.05.05.1.07.16M89.98,74.72s.03.07.05.11c-.02.02-.04.04-.06.06-.04-.04-.07-.1-.1-.16.02.02.06.02.11,0M89.97,74.18c-.04-.07-.08-.13-.12-.2.08-.07.1-.09.13-.12.04.05.09.11.13.18-.06.05-.08.07-.13.14M90.31,74.44s.04.09.06.13c-.09.07-.07.05-.09.07-.02-.03-.04-.06-.07-.09.04-.04.07-.07.1-.1M90.39,75.08s.05.07.07.1c-.04-.01-.08-.03-.12-.05,0,0,0-.01,0-.02.02-.01.04-.02.06-.04M90.39,74.14s-.03-.04-.04-.07c.06-.04.2-.13.2-.13.02.02.03.04.05.06-.07.04-.13.09-.2.14M90.83,74.4s.03.05.05.07c-.08.05-.13.08-.21.13,0-.01-.02-.02-.02-.04.06-.06.12-.11.18-.16M90.98,74.63c.06.09.12.17.18.26-.06.05-.12.1-.18.15-.07-.09-.14-.17-.2-.26.06-.05.13-.1.2-.15M90.94,74.33s.06.04.09.06c-.01,0-.02.01-.03.02-.02-.02-.04-.05-.06-.07M89.46,69.97c.06.27.11.55.16.83-.44-.03-.86,0-1.27.08.35-.29.78-.57,1.12-.9M86.64,72.52s.06-.04.07-.07c1.35-1.3,2.78-.79,3.02-.9.06.37.12.74.21,1.1-.34.13-.62.56-.75,1.03-.4-.22-2.95-.12-3.2-.05.05-.4.33-.79.65-1.11M86.03,74.01c.28.06,2.77-.02,3.13-.2-.04.19-.06.38-.05.56-.74-.29-2.18.46-2.43.56-.23-.29-.55-.6-.65-.93M139.57,83.48c2.08.01,2.81-.85,4.09-.72.38.04.76.14,1.15.16-.59.61-.36,1.2-.8,1.84-.21-.23-7.6.48-9.44.52-.37,0-.24.52,9.23-.27-1.93,1.9-4.13.99-20.62,2.28-2.02.16-4.04.23-6.07.27-.94-.5-3.82-.35-5.03-.77-.06-.02-.08.07-.02.1.83.34,1.22.24,3.38.7-6.04.1-22.57-.12-24.53-.08-1.06-.15-2.14-.37-2.54-1.64.89.3,1.8.64,2.73.69.25.02,4.13-.4,3.57-.52-2.18-.46-2.06.92-6.37-.41-.21-.8-.26-1.61-.83-2.18.1-.01,7.73-.47,8.13-.49.08,0,.09-.15,0-.15-3.49-.04-4.41.15-7.21.11-.13-.19-1.74-.3-2.14-.38-.42-.09-.78-.28-1.12-.51.46-.18,1.63-1.35,5.1-1.16.11,0,.35-.34-3.14.02-1.78.18-1.38.46-2.17.7-.03-.42-.02-.87,0-1.23.12-.01.25-.05.37-.08.36-.09.73-.17,1.1-.23.06,0,.04-.12-.01-.11-1.09.05-1.09.02-1.41,0,.21-.63.58-1.21.96-1.72.96.09,6.36-.13,5.67-.15-.25,0-5-.14-5.47-.11.26-.33.51-.68.69-1.05,1.2-.12,2.4-.09,3.6-.11,1.02-.02,4.73-.44,4.15-.46-1.44-.06-2.83.44-4.27.43-1.14,0-2.26-.34-3.38-.09.24-.63.18-1.08-.09-1.51.18-.07.36-.16.53-.23.55-.21,1.31.06,1.76-.38.17.83.76,1.23,1.5,1.35.03.04.06.05.1.01,1.01.13,2.09-.19,2.63-1.15,1.38-.17,1.5-.5,1.28-.44-.37.1-.76.11-1.14.13.34-.92.09-2.52-.78-2.51-.03-.17-.07-.33-.1-.49,1.18.12,2.12-.17,4.22-.38l12.05-.1c-1.82.63-3.4,1.54-8.42,1.28-.78-.04,2.4.51,5.64.08,2.67-.36,3.07-1.36,5.85-1.37,27.3-.1,13.22-.51,29.65-.52-.19.28-.37.52-.58.93-.52-.25-1.38.66-1.64,1.02-1.31,1.82,1.73,3.71,3.65,1.98.43-.39,1.17-1.57.62-2.08.32-.38.61-.78.89-1.2.65.75,1.67,1.15,2.03,2.96-.91.23-1.88.14-2.65.84-.08.07.02.23.11.17.8-.59,1.71-.52,2.58-.76.02.15.04.3.04.45-.92.89-1.54.94-3.18.74-1.05-.12-5.36-.13-5.25.15-.04,0-.07,0-.11.01-.06,0-.06.11,0,.12,6.64.74,7.37.83,8.34.16-.19.46-.48.89-.72,1.33-.83-.24-8.91.36-8.49.37,2.91.03,7.49-.27,8.36-.11-.51,1.07-.26,1.73.11,2.75-.36.06-.69.07-1.07.09-.15,0-.15.26,0,.27.15,0,.85.13,1.19.02.34,1.11-.05,1.5-.73,2.01-1.3-.54-4.24.54-5.55.62-.11,0-.11.2,0,.2M147.32,77.48c-.14.33-.26.68-.32,1.05-.33.12-.68.32-.98.54,0-.03,0-.07-.01-.1.13-.14.26-.28.42-.37.1-.06.01-.23-.09-.17-.12.07-.25.17-.35.28.01-.44.18-.82.4-1.2-.04.29.65-.29.83-.47.02.08.2-.05.28-.09-.04.12-.08.23-.12.35-.5.54-.42.5-.07.17M147.06,79.54c-.27.17-.56.34-.7.57-.1-.25-.23-.57-.29-.84.29-.2.62-.34.92-.54-.02.25-.01.46.07.8M147.18,79.96s.02.06.03.09c-.29.18-.55.29-.73.43,0-.01,0-.02-.01-.04.41-.29.07-.08.71-.48M146.43,77.46c.09-.16.18-.31.28-.48.02.04.21.05.26.07.01,0,.02,0,.02,0-.23.15-.51.36-.57.4M147.53,81.97c-.34.73-1.34.64-2.53,1.95.37-1.04,1.27-.76,1.59-2.05.22-.16.14-.22.03-.15.07-.37.03-.67-.07-1.05.24-.16.51-.26.75-.41.13.35.36,1,.24,1.72M147.57,76.77c-.1.04-.19.1-.27.17,0-.05-.14,0-.3.11,0-.02-.1-.08-.14-.12.26-.33.6-.51.91-.73-.07.19-.13.38-.2.57M147.88,75.87c-.33.19-.7.42-.96.72.2-.4.36-.8.43-1.25.22-.23.56-.69.73-.94.03-.03.07-.06.11-.09-.02.61-.08.82-.31,1.55M148.13,73.24c-.1.06-.71.65-.8.73-.15-.94-.52-1.76-1.15-2.42.13-.31.56-.86.57-.9.37.36,1.11.92,1.38,2.6M147.61,66.23c-.11,0-.22.02-.32.05.21-.38.32-.49.47-.82-.06.25-.1.51-.15.77M148.04,64.12c-.55-.44-1.17-.05-1.11-1.32.08-.04.16-.08.24-.1,0,0,.48.5.5,1.05.02.28.46-.21-.34-1.07.74-.03,1.41.79.72,1.45M148.64,62.78c-.09-.11-.21-.21-.35-.3,0-.32-.03-.67-.24-.88.37-.03.34-.01.59-.02.03.28.07.55,0,1.2M150.09,63.56c-.46.17-.44.36-1.32.56.08-.17.13-.35.14-.53.11-.26.19-.53.24-.82.53-.01.49.38.69.65.28.39.35-1.07-.65-.9.04-.4.03-.6,0-.76.17.28.87.32,1.05,1,.02.06.1.05.1-.02.03-.65-.6-.86-1.02-1.14-.06-.04-.13,0-.14.07-.03-.25,0-.3.03-.39.63.1.74.35,1.09.68.47.81.14,1.26-.22,1.58M150.12,60.57c-.22-.25-.45-.48-.63-.77.28-.23.46-.37.83-.6.17.32.34.66.58.93-.28.13-.55.26-.78.44M151.15,60.02c-.23-.29-.46-.59-.67-.9.41-.24.84-.47,1.25-.72.04.15.39.85.44.94-.67.48-.56.46-1.02.68"/>
    <path class="cls-8" d="M91.71,67.26c.22-.32.23-.78.44-1.12.04-.07-.05-.15-.1-.09-.51.65-.53,1.49-.34,1.21"/>
    <path class="cls-8" d="M91.08,70.78c.12-.21.29-.37.44-.56.21-.26-.29-.15-.62.44-.07.13.11.25.19.12"/>
    <path class="cls-8" d="M90.19,68.26c.11-.06.2-.18.3-.25.09-.07.01-.22-.09-.17-.37.21-.37.5-.21.42"/>
    <path class="cls-8" d="M89.4,68.16c.59-.18.79-1.12.57-.83-.24.32-.91.94-.57.83"/>
    <path class="cls-8" d="M86.76,65.87c-.08.03-.05.18.04.15.29-.09.56.13.85.16.31.03-.42-.48-.89-.31"/>
    <path class="cls-8" d="M148.06,63.2c-.06,0-.06.1,0,.1s.05-.1,0-.1"/>
    <path class="cls-8" d="M97.78,85.9c-1.83-.27-4.43.61,0,.21.12-.01.12-.19,0-.21"/>
    <path class="cls-8" d="M103.17,86.11c-1.17-.52-2.42-.27-3.64-.21-.13,0-.13.22,0,.22,1.21.03,2.42-.02,3.63.12.07,0,.07-.11.02-.13"/>
    <path class="cls-8" d="M110.02,86.49c-1.17-.64-2.66.04-3.9-.14-.07,0-.09.13-.02.15,1.27.27,2.58.01,3.86.21.1.01.14-.17.05-.22"/>
    <path class="cls-8" d="M102.42,84.12c-1.51.13-3-.41-4.48-.64-.07-.01-.11.1-.03.13,3.79,1.32,5.01.47,4.51.51"/>
    <path class="cls-8" d="M86.32,78.81c-.13,0-.31.11,2.97,0,.17,0,.46-.2-2.97,0"/>
    <path class="cls-8" d="M99.94,79.99c.25.1.21-.39-1.42-.5-1.2-.08-1.44-.06-2.71-.25,5.47-.11-7.24-.41-3.84-.24-.89.12-1.79.41-2.69.38-.25,0,.34.64,3.65.07,2-.35,6.11.18,7,.55"/>
    <path class="cls-8" d="M94.37,80.7s-.05.08,0,.08c5.36.35,8.09-.59,0-.08"/>
    <path class="cls-8" d="M88.69,75.06c-.43.07-1.25.14-1.37.19-.19.08,0,.28,1.41-.03.1-.02.05-.18-.04-.16"/>
    <path class="cls-8" d="M87.06,72.52c-.07-.02-.1.11-.03.12.23.06.52.13.75.06.23-.07-.44-.11-.72-.18"/>
    <path class="cls-8" d="M87.98,72.49c-.11,0-.11.19,0,.19.58,0,1.15-.07,1.73.05.06.01.1-.08.04-.11-.54-.29-1.2-.13-1.77-.12"/>
    <path class="cls-8" d="M96.62,77.81c-1.28-.15-2.6-.09-3.86.16-.82.16,4.8-.06,3.86-.16"/>
    <path class="cls-8" d="M98.52,77.71c.96-.48,2-.09,2.97-.49.02,0,.01-.05-.01-.04-.97.4-2.02.01-2.98.49-.03.01,0,.06.02.04"/>
    <path class="cls-8" d="M116.86,86.46c4.66-.51,10.06-.46,9.87-.46-10.94,0-9.9.46-9.87.46"/>
    <path class="cls-8" d="M127.02,78.64c3.94.02,4.74-.71,4.49-.65-1.88.49-5.1.64-4.49.65"/>
    <path class="cls-8" d="M132.33,72.39c1.41-.24,2.93.09,4.28-.51.34-.15-3.28.07-4.3.4-.07.02-.04.12.03.11"/>
    <path class="cls-8" d="M140.23,71.22c.28-.11-1.4-.03-1.76.08-.44.12,1.33.1,1.76-.08"/>
    <path class="cls-8" d="M116.49,84.83l7.19-.58c.49-.04-1.31-.57-7.19.58"/>
    <path class="cls-8" d="M127.6,83.65c-.06,0-.06.12,0,.11,2.07-.24,4.1-.07,6.17-.02.57.01-2.21-.59-6.17-.09"/>
    <path class="cls-8" d="M135.73,83.84c1.37-.12,1.2.03,1.89.09.05,0,.07-.09.03-.11-.83-.49-2.39.07-1.91.03"/>
    <path class="cls-8" d="M136.98,81.87c1.8-.64,6.39-.33,5.95-.89.33-.03.65-.11.95-.28.35-.2-1.39.15-1.4.18-.63-.07-4.41.39-5.53.87-.07.03-.04.16.03.13"/>
    <path class="cls-8" d="M145.18,81.46c.25-.04-.21-.35-1.18-.28-.32.02.8.34,1.18.28"/>
    <path class="cls-8" d="M95.17,74.32c2.23.32,6.78-1.17,6.02-1.06-2.02.3-3.98.82-6.02.89-.1,0-.1.16,0,.17"/>
    <path class="cls-8" d="M96.98,76.38s.07-.02-.36-.02c-.02,0-.07.02.36.02"/>
    <path class="cls-8" d="M101.84,76.46c-.09,0-.09.16,0,.16.69.02,1.42.25,2.11.13.51-.09-1.34-.27-2.11-.29"/>
    <path class="cls-8" d="M115.27,80.36c-1.3-.07-3.25.38-2.76.34.71-.05,3.46-.31,2.76-.34"/>
    <path class="cls-8" d="M122.96,81.3c-3.35-.1-8.35.22-7.33.35,2.51.32,7.57-.34,7.33-.35"/>
    <path class="cls-8" d="M126.98,80.77c-1.33-.39-2.42.39-3.73.47-.07,0-.09.13-.02.15,1.53.33,4.51-.4,3.75-.62"/>
    <path class="cls-8" d="M130.6,81.2c-1.95-.53-5.16-.35.24.19.91.09,1.74.49,2.66.28.09-.02.09-.19,0-.21-.96-.17-1.95,0-2.9-.26"/>
    <path class="cls-8" d="M136.82,79.76c.62.02,1.31.26,1.91,0,.08-.04.08-.2-.02-.19-.63.07-1.25-.02-1.89,0-.11,0-.11.19,0,.19"/>
    <path class="cls-8" d="M107.27,75.53c1.78.37,4.4-.2,3.6-.34-1.66-.29-4.12.24-3.6.34"/>
    <path class="cls-8" d="M112.73,75.21c-.11,0-.11.19,0,.19.19,0,.39,0,.58-.02.09,0,.09-.15,0-.16-.19-.01-.39-.02-.58-.02"/>
    <path class="cls-8" d="M115.99,75.24c-.16,0-.16.28,0,.28,1.42,0,2.87-.03,4.28-.17.12-.01.17-.23.03-.27-1.41-.35-2.88.11-4.31.15"/>
    <path class="cls-8" d="M128.62,74.67c.14-.02,1.16-.22.94-.22-.38,0-1.19.25-.94.22"/>
    <path class="cls-8" d="M129.27,73.45c-.92-.02-1.87-.11-2.77.15-.88.25,3.47-.13,2.77-.15"/>
    <path class="cls-8" d="M119.4,74.22c.99.08,1.99-.02,2.97-.03.14,0,.14-.25,0-.24-.99.04-1.98.09-2.97.14-.08,0-.08.13,0,.13"/>
    <path class="cls-8" d="M104.06,84.38c-.07.05,0,.16.06.12.94-.51,1.85-.46,2.85-.24.55.12-.94-1.17-2.92.11"/>
    <path class="cls-8" d="M108.57,84.29c-.07.02-.06.15.02.15.25-.01,4.38.29,3.48-.37-.44-.32-2.89.04-3.49.22"/>
    <path class="cls-8" d="M97.33,72.5c.57.09,1.79-.15,1.41-.22-.47-.08-.92.07-1.39.07-.07,0-.1.14-.02.15"/>
    <path class="cls-8" d="M114.57,72.53c.68-.1,1.32-.25,2-.2.08,0,.08-.12.02-.15-.68-.31-1.39,0-2.08.13-.13.02-.07.24.05.22"/>
    <path class="cls-8" d="M118.49,72.79c3.13-.56,2.03-.05,3.24-.17.13-.01.12-.2,0-.22-2.12-.32-1.38-.25-3.29.16-.14.03-.08.26.06.24"/>
    <path class="cls-8" d="M107.58,72.75c2.26-.05,1.53.5,2.75.67,1.82.25,3.72-.88,2.91-.8-1.08.1-2.14.65-3.23.31-.41-.13-.76-.45-1.18-.52-.42-.07-.83.11-1.24.18-.09.01-.1.17,0,.17"/>
    <path class="cls-8" d="M113.1,71.81c.38-.08.77-.06.8-.06.06-.01.05-.11,0-.13-.24-.09-.59.02-.83.1-.05.02-.03.1.02.09"/>
    <path class="cls-8" d="M111.26,72.25c.25-.01,1.15.1.88-.43.43-.04.26-.14-.13-.15-1.12-.85-4,.73-.75.58"/>
    <path class="cls-8" d="M101.57,80.89c.41-.19.87-.15,1.21.18.1.1.25-.06.15-.17-.9-.97-1.79.18-1.36-.01"/>
    <path class="cls-8" d="M132.13,75.51c.75-.2.75-.35,1.39-.15.1.03.21-.11.14-.21-.4-.63-1.13-.09-1.59.12-.13.06-.08.28.06.24"/>
    <path class="cls-8" d="M135.39,76.07c.69-.15,1.42,0,2.1-.17.51-.13-.72-.58-2.16-.05-.13.05-.07.25.05.22"/>
    <path class="cls-8" d="M147.03,81.59c-.28.62-1.07,1.22-.69,1.12.42-.12.69-.58.87-1,.06-.13-.12-.25-.18-.12"/>
    <path class="cls-8" d="M147.74,72.17c.07-.17-.15-.32-.23-.15-.18.42-.29.35-.45.62-.13.22.39.2.67-.47"/>
    <path class="cls-8" d="M146.97,71.26c.08-.1-.05-.25-.14-.15-.56.59-.36.76.14.15"/>
    <path class="cls-8" d="M146.03,70.64c.12,0,.12-.22,0-.22s-.12.22,0,.22"/>
    <path class="cls-8" d="M99.38,69.59c-1.54-.02-3.03.38-4.56.12,3.46-.26-3.01.12-.35.02.17.66,5.54-.13,4.91-.13"/>
    <path class="cls-8" d="M101.05,69.65c.98,0,.94-.05.87-.05-.96-.07-.97.05-.87.05"/>
    <path class="cls-8" d="M106.05,69.73c-.69-.1-1.41-.08-2.1-.1-.09,0-.09.15,0,.15.69.02,1.42.15,2.1.06.07,0,.06-.11,0-.12"/>
    <path class="cls-8" d="M109.46,69.88c1.16-.16,4.47-.12,4.21-.12-4.77-.02-4.21.12-4.21.12"/>
    <path class="cls-8" d="M116.79,69.03c-2.28-.04-5.01.1-4.5.12,1.71.06,4.97-.11,4.5-.12"/>
    <path class="cls-8" d="M108.66,69.34s-.04.07,0,.08c1.31.12,1.35-.2,0-.08"/>
    <path class="cls-8" d="M104.67,69.26c-.12-.02-.19.31,3.05.23.52-.01-2.26-.12-3.05-.23"/>
    <path class="cls-8" d="M102.21,69.4c2.04.18,3.03-.39,0-.06-.03,0-.03.06,0,.06"/>
    <path class="cls-8" d="M101.19,69.33c.14,0,.29.01.43.02.07,0,.07-.12,0-.12-.15,0-.29.01-.43.02-.05,0-.05.08,0,.08"/>
    <path class="cls-8" d="M98.57,69.49c-.33.15.55-.02,1.83-.08.32-.01-1.02-.28-1.83.08"/>
    <path class="cls-8" d="M92.63,70.31c-.06,0-.06.1,0,.1,3.39.1,6.35-.38,0-.1"/>
    <path class="cls-8" d="M100.46,70.13c.1,0,.53-.02.43-.02-.53,0-.46.02-.43.02"/>
    <path class="cls-8" d="M105.47,70c-1.12.17-2.22-.07-3.34-.09-.44,0,2.21.45,3.35.15.03,0,.02-.07,0-.06"/>
    <path class="cls-8" d="M108.88,69.98c-.06,0-.06.11,0,.11,1.71.12,1.76.05,0-.11"/>
    <path class="cls-8" d="M114.32,69.84s-.03.06,0,.06c1.91.1,1.71.04,1.67.04-.56-.02-1.11-.06-1.67-.1"/>
    <path class="cls-8" d="M125.94,69.97s.01-.04,0-.04c-2.5.41-.24.1,0,.04"/>
    <path class="cls-8" d="M126.59,69.97s.02-.04,0-.04-.02.04,0,.04"/>
    <path class="cls-8" d="M135.29,69.09c-1.3-.11-2.58.31-3.88.26-3.78-.16-9.91,1-3.3.19-.03,0-.07.02-.1.03-.07.02-.04.14.03.12,1.22-.32,1.08-.17,7.24-.51.05,0,.05-.08,0-.08"/>
    <path class="cls-8" d="M137.75,68.58c1.58.54,3.16.39,2.91.38-1.19-.07-3.4-.55-2.91-.38"/>
    <path class="cls-8" d="M134.13,68.51c-.66.07,1.86.17,2.1.2.25.04.13-.44-2.1-.2"/>
    <path class="cls-8" d="M128.47,69.04c-.1,0-1.41.09-1.31.1.27,0,1.44-.1,1.31-.1"/>
    <path class="cls-8" d="M123.23,69.76c-.78-.06-1.54-.53-2.33-.24-.11.04-.06.24.05.2.75-.27,1.51.18,2.28.09,0,0,1.11-.46,2.42-.66.51-.07-1.81.07-2.42.6"/>
    <path class="cls-8" d="M122.3,70s-.03.06,0,.06.03-.06,0-.06"/>
    <path class="cls-8" d="M119.34,69.65c-.92-.23-1.87.22-2.75-.22-.07-.04-.11.04.15.19-.37.05-.73.05-1.11.06-.32,0,.76.24,1.32.03.74.25,1.62-.12,2.37.06.06.02.09-.1.03-.11"/>
    <path class="cls-8" d="M119.99,69.58c-1.51-.61-3.98-.15-3.35-.14,2.36.06,3.76.3,3.35.14"/>
    <path class="cls-8" d="M115.97,86.46c-1.25.05-2.66-.71-3.25-2.74-.83.18-1.79.28-2.6-.06-.66.5-1.18.51-1.92.17-1.37,1.06-2.44.38-3.2-.93-1.38.97-2.59.9-4.07.08-.99.79-2.28,1.2-3.47.69-2.49,1.62-3.58-2.08-3.25-3.9.04-2.13-.27-4.1-.11-6.19.1-.92,1-1.11,1.83-1,1.41.21,1.12,2.47,1.05,3.59,2.28-.18,3.02-.7,4.71,1.32,1.59-1.58,3.05-1.86,5.28-1.69-.26-1.56-.53-3.58,1.7-3.22,1.42.21,1.12,2.48,1.05,3.61,1.17-.1,2.56-.45,3.62.13.83-.56,1.91-.39,2.75.09,2.21-1.41,2.86-.23,4,1.57l.9-1.36c.44-.4,4.83-1.19,6.4-.75l.34.4c1.86-.23,4.19-1.42,5.49.47,1.24-.56,2.88-1.11,3.87-1.07,3.86-.37,4.23,8.67-.82,8.58-1.12.05-2.22-.66-3.09-1.39-1.74,1.88-4.09,1.65-5.92.26-.89,1-1.21.65-2.4,1.13-3.24,1.33-3.48-1.95-4.53-4.01-.63,2.78-.78,6.19-4.35,6.19"/>
    <path class="cls-7" d="M96.62,82c-.04.29-.08.56-.1.83-.01.09-.01.22-.14.23-.12,0-.15-.06-.15-.18,0-.04-.03-.06-.05-.06-.04-.01-.06.01-.08.04-.01.08-.05.12-.13.1-.08-.01-.06-.09-.08-.15,0-.13-.01-.26-.01-.4-.02,0-.04,0-.04.01-.02.06.01.19-.05.19-.09.01-.15-.09-.2-.17-.34-.51-.36-1.09-.37-1.67-.01-.98.05-1.97-.04-2.94-.1-1.25-.09-2.49-.1-3.73,0-.09-.01-.18.01-.27.03-.12-.01-.31.24-.22.09.03.24-.05.37.01,0,.01,0,0,.01,0,.19-.04.14-.03.2.18.13.41.09.83.13,1.24.08,1.21.08,2.42.2,3.62,0,.04,0,.08.01.13.08-.04.09-.12.12-.17.45-.77,1.01-1.38,1.93-1.53.35-.06.69-.09,1.05-.08.42,0,.72.24.96.57.13.19.23.4.31.61.23.7.43,1.42.4,2.16-.08,1.07-.75,2.22-2.06,2.49-.23.05-.46.04-.69,0-.2-.05-.4-.11-.6-.15-.33-.06-.59-.27-.82-.5l-.23-.2ZM95.2,73.95c.04.91-.01,1.83.05,2.74.08,1.06.12,2.12.12,3.2-.01.56-.03,1.14.03,1.7.01.12.01.23.09.37.01-1.18-.18-8.14-.23-8.22-.05.06-.05.14-.05.22M97.45,77.55c-.54.41-.91.94-1.15,1.57-.04.09-.03.19,0,.34.26-.79.65-1.43,1.23-1.96l-.08.04ZM99.42,78.01c-.06-.22-.15-.26-.36-.21-.36.09-.68.27-.95.51-.72.66-1.09,1.51-1.27,2.44-.03.13-.06.29.03.42.21.33.49.57.83.75.27.14.5.1.73-.09.77-.68,1.11-1.55,1.23-2.4-.02-.58-.11-1.01-.24-1.43M99.52,80.59c-.23.5-.5.97-.93,1.33.89-.37,1.64-2.13,1.23-2.94.06.59-.06,1.11-.29,1.61M99.56,82.18c-.23.14-.49.23-.72.38.27-.05.51-.19.72-.38"/>
    <path class="cls-7" d="M106.45,78.44c-.05,1.11-.15,2.22-.12,3.35,0,.28.01.56.03.86,0,.06.03.17-.06.17-.12,0-.06-.1-.06-.17-.04-.59-.05-1.18-.05-1.76,0-.67.06-1.32.09-1.97v-.23c-.09.05-.12.13-.14.19-.23.47-.46.95-.69,1.42-.36.7-.75,1.38-1.37,1.89-.45.38-.95.56-1.53.32-.1-.05-.22-.04-.33-.06-.1-.03-.2-.06-.27-.15-.5-.63-.9-1.27-.61-2.15.45-1.42,1.38-2.39,2.67-3.07.31-.17.65-.24,1.01-.23.24,0,.47-.03.72-.05.11,0,.23.01.32.08.26.17.51.13.78.06.15-.04.32.1.37.31.09.47.19.93.21,1.42.01,1.12-.06,2.25-.12,3.39-.03.36-.06.71-.09,1.09-.01.1-.02.21-.17.19-.13-.01-.24-.05-.22-.21,0-.05,0-.08-.04-.08-.05-.01-.06.02-.06.05-.03.1-.09.15-.19.13-.1-.04-.06-.13-.06-.22,0-.22-.01-.43-.01-.65-.03-1.14.05-2.26.12-3.4.01-.23,0-.47,0-.73-.1.06-.1.14-.1.22M103.43,77.59c-1.09.7-1.78,1.67-2.04,2.93-.04.22-.04.43.06.69.1-1.55.79-2.71,1.98-3.62M104.95,77.81c-1.28.69-2.19,1.7-2.58,3.13-.03.1-.05.2-.06.31-.02.25.12.43.31.56.17.12.29-.04.41-.13.4-.27.68-.64.95-1.03.65-.95.97-2.07,1.66-3.04-.27.04-.47.1-.68.2M103.84,81.17c.36-.45.66-.93.92-1.46.31-.65.59-1.32,1-1.92.02-.04.06-.09-.03-.14-.23.35-.45.7-.63,1.09-.46.97-.89,1.96-1.65,2.76.17-.08.27-.2.38-.33"/>
    <path class="cls-7" d="M109.36,82c-.04.29-.08.56-.1.83-.01.09-.01.22-.14.23-.12,0-.15-.06-.15-.18,0-.04-.03-.06-.05-.06-.04-.01-.06.01-.08.04-.01.08-.05.12-.13.1-.08-.01-.06-.09-.08-.15,0-.13-.01-.26-.01-.4-.02,0-.04,0-.04.01-.02.06.01.19-.05.19-.09.01-.15-.09-.2-.17-.34-.51-.36-1.09-.37-1.67-.01-.98.05-1.97-.04-2.94-.1-1.25-.09-2.49-.1-3.73,0-.09-.01-.18.01-.27.03-.12-.01-.31.24-.22.09.03.24-.05.37.01,0,.01,0,0,.01,0,.19-.04.14-.03.2.18.13.41.09.83.13,1.24.08,1.21.08,2.42.2,3.62,0,.04,0,.08.01.13.08-.04.09-.12.12-.17.45-.77,1.01-1.38,1.93-1.53.35-.06.69-.09,1.05-.08.42,0,.72.24.96.57.13.19.23.4.31.61.23.7.43,1.42.4,2.16-.08,1.07-.75,2.22-2.06,2.49-.23.05-.46.04-.69,0-.2-.05-.4-.11-.6-.15-.33-.06-.59-.27-.82-.5l-.23-.2ZM107.94,73.95c.04.91-.01,1.83.05,2.74.08,1.06.12,2.12.12,3.2-.01.56-.03,1.14.03,1.7.01.12.01.23.09.37.01-1.18-.18-8.14-.23-8.22-.05.06-.05.14-.05.22M110.19,77.55c-.54.41-.91.94-1.15,1.57-.04.09-.03.19,0,.34.26-.79.65-1.43,1.23-1.96l-.08.04ZM112.16,78.01c-.06-.22-.15-.26-.36-.21-.36.09-.68.27-.95.51-.72.66-1.09,1.51-1.27,2.44-.03.13-.06.29.03.42.21.33.49.57.83.75.27.14.5.1.73-.09.77-.68,1.11-1.55,1.23-2.4-.02-.58-.11-1.01-.24-1.43M112.26,80.59c-.23.5-.5.97-.93,1.33.89-.37,1.64-2.13,1.23-2.94.06.59-.06,1.11-.29,1.61M112.3,82.18c-.23.14-.49.23-.72.38.27-.05.51-.19.72-.38"/>
    <path class="cls-7" d="M117.39,79.51c-.18.7-.46,1.38-.74,2.06-.1.26-.29.45-.56.57-.09.05-.19.1-.29.09-.5-.09-1-.18-1.28-.69-.38-.69-.57-1.41-.54-2.17.03-.69.05-1.37.17-2.04.01-.09.04-.18.09-.26.04-.06.09-.09.14-.05.1.05-.01.08-.03.11-.04.06-.06.14-.08.22-.13.88-.18,1.78-.14,2.67,0,.08.01.15.08.28-.03-.74.01-1.43.08-2.12.03-.31.08-.63.13-.93.05-.24.12-.28.36-.22.03.01.05.04.08.03q.21-.03.19.17c-.01.08-.02.15.05.22.08.06.04.15.03.23-.1.9-.14,1.78-.14,2.67,0,.36.09.69.31,1,.1.13.18.14.29.03.18-.19.32-.4.41-.63.42-1.01.71-2.06,1.04-3.1.05-.19.13-.38.19-.57.04-.13.1-.21.27-.17.13.02.28.04.4,0,.22-.06.29.05.37.19.09.18.14.38.18.57.29,1.16.47,2.33.47,3.5.01,1.04-.14,2.03-.6,2.95-.38.78-1.02,1.2-1.89,1.33-.28.05-.55.01-.82-.05-.38-.1-.77-.19-1.1-.44-.23-.18-.27-.46-.43-.66-.04-.04,0-.1.04-.08.15.1.35-.08.49.06.18-.19.22.04.29.1.47.45,1,.52,1.62.22.35-.18.6-.43.79-.76.4-.66.58-1.39.63-2.15.08-1.09.1-2.16-.1-3.25-.01-.03-.02-.06-.04-.15-.18.43-.29.82-.38,1.21M117.09,77.74c-.42,1.25-.66,2.57-1.41,3.71.26-.17.38-.42.5-.69.51-1.19.79-2.45,1.23-3.68.01-.01,0-.05,0-.08-.18.23-.24.5-.32.74M116.95,84.45s.06-.04.1-.06c.35-.28.55-.65.72-1.05.37-.86.41-1.76.4-2.68,0-.23.01-.47-.05-.72-.01.1-.03.2-.03.31-.01.42,0,.84-.04,1.28-.08,1.07-.31,2.12-1.14,2.93.01,0,.03.01.04,0"/>
    <path class="cls-7" d="M125.06,82.51c.24-.04.47-.05.72-.06.14-.01.13,0,.14.15,0,.06-.06.18.08.22.03,0,.04.04.04.08-.01.04-.04.05-.08.05-.64.03-1.21.31-1.8.51-.13.04-.24.06-.37.09-.11.04-.23.04-.33-.01-.15-.06-.32-.09-.49-.11-.15-.03-.24-.12-.24-.28,0-.09-.03-.14-.11-.18-.13-.06-.14-.18-.12-.31.02-.22.13-.41.23-.6.33-.63.74-1.2,1.11-1.82.09-.13.06-.17-.08-.21-.29-.06-.57-.15-.87-.24-.06-.01-.14-.02-.14-.11-.01-.08.06-.1.14-.13-.09-.06-.14-.17-.27-.17-.04,0-.08,0-.08-.05s.05-.06.1-.06c.5-.03,1-.05,1.47.19.14.06.22.04.32-.1.4-.59.87-1.11,1.3-1.66.05-.05.11-.1.13-.19-.28-.04-.54.03-.81.04-.79.08-1.56.23-2.34.4-.13.03-.24.03-.37.04-.05.01-.11.03-.14-.01-.08-.13-.17-.12-.28-.08-.06.03-.17-.04-.09-.11.09-.1,0-.17-.01-.26,0-.06-.05-.08-.06-.01-.04.08-.06.08-.11.03-.04-.05-.01-.1.03-.13.06-.03.11-.04.18-.05.87-.22,1.74-.36,2.62-.42.63-.04,1.24-.12,1.85-.17.14-.01.27-.03.41-.01.22.01.32.14.28.35-.03.12-.01.19.06.27.09.08.06.19.03.29-.08.28-.23.52-.4.77-.33.47-.72.92-1.09,1.37-.1.13-.09.18.06.22.08.02.15.06.23.1.09.04.03.05.04.14.01.08-.05.22.06.28.05.02.13.05.09.14-.04.06-.11.05-.17.03-.23-.09-.49-.09-.7-.19-.06-.04-.13-.04-.18.04-.5.7-.97,1.43-1.42,2.18v.05c.49-.09.95-.19,1.42-.27M122.95,82.1l.27-.46c.28-.46.57-.91.87-1.38.03-.03.09-.08.01-.12-.05-.04-.08.03-.09.05-.42.69-.89,1.34-1.26,2.07-.06.12-.12.24-.13.38,0,.09-.01.17.12.2-.03-.28.1-.52.22-.75M126,77.56l-.42.52c-.36.43-.71.87-1.05,1.33-.03.04-.12.09-.04.15.06.04.09-.05.12-.09.33-.47.7-.92,1.07-1.35.17-.22.34-.42.5-.65-.11-.04-.14.04-.18.09"/>
    <path class="cls-7" d="M132.69,81.23c-.33,1.46-1.52,2.07-2.53,2.02-.43-.01-.86-.17-1.26-.31-.24-.08-.45-.24-.6-.46-.56-.78-1.01-1.61-.95-2.67.05-.88.31-1.69.88-2.32.23-.26.49-.4.82-.38.23.01.47-.02.72-.05.04,0,.08-.03.1-.04.26-.21.54-.28.84-.27.14,0,.27-.01.4-.02.42-.06.78.06,1.05.43.15.21.27.43.35.69.22.65.34,1.33.37,1.9-.01.59-.08,1.03-.18,1.48M128.63,77.35c-.82.43-1.39,2.36-1.01,3.41-.01-1.29.14-2.49,1.01-3.41M128.56,80.48c-.04.6.19,1.07.59,1.46.23.23.52.42.84.37.74-.14,1.34-.55,1.62-1.38.23-.69.31-1.4.19-2.13-.05-.33-.13-.65-.28-.95-.18-.33-.32-.38-.64-.24-.63.28-1.12,1.15-1.07,1.9,0,.06.01.13-.05.15-.08.03-.14,0-.18-.06-.04-.04-.04-.09-.06-.13-.01-.04-.01-.08-.05-.08-.05-.01-.05.04-.05.06-.03.06-.05.1-.12.1-.08,0-.09-.06-.1-.12-.03-.15-.08-.29-.05-.45.03-.17.03-.33.04-.52-.14.14-.11.28-.11.42.01.08.1.22.01.24-.12.04-.06-.15-.15-.23-.22.51-.33,1.02-.37,1.57M130.87,82.82c.19-.04.37-.12.51-.28-.18.09-.35.18-.51.28M131.19,81.87c.72-.41,1.06-1.99.79-2.84.01,1.06-.09,2.06-.79,2.84"/>
    <path class="cls-7" d="M138.81,81.23c-.33,1.46-1.52,2.07-2.53,2.02-.43-.01-.86-.17-1.26-.31-.24-.08-.45-.24-.6-.46-.56-.78-1.01-1.61-.95-2.67.05-.88.31-1.69.88-2.32.23-.26.49-.4.82-.38.23.01.47-.02.72-.05.04,0,.08-.03.1-.04.26-.21.54-.28.84-.27.14,0,.27-.01.4-.02.42-.06.78.06,1.05.43.15.21.27.43.35.69.22.65.35,1.33.37,1.9-.01.59-.08,1.03-.18,1.48M134.76,77.35c-.82.43-1.39,2.36-1.01,3.41-.01-1.29.14-2.49,1.01-3.41M134.68,80.48c-.04.6.19,1.07.59,1.46.23.23.52.42.84.37.74-.14,1.34-.55,1.62-1.38.23-.69.31-1.4.19-2.13-.05-.33-.13-.65-.28-.95-.18-.33-.32-.38-.64-.24-.63.28-1.12,1.15-1.07,1.9,0,.06.01.13-.05.15-.08.03-.14,0-.18-.06-.04-.04-.04-.09-.06-.13-.01-.04-.01-.08-.05-.08-.05-.01-.05.04-.05.06-.03.06-.05.1-.12.1-.08,0-.09-.06-.1-.12-.03-.15-.08-.29-.05-.45.03-.17.03-.33.04-.52-.14.14-.11.28-.11.42.01.08.1.22.01.24-.12.04-.06-.15-.15-.23-.22.51-.33,1.02-.37,1.57M136.99,82.82c.19-.04.37-.12.51-.28-.18.09-.35.18-.51.28M137.31,81.87c.72-.41,1.06-1.99.79-2.84.01,1.06-.09,2.06-.79,2.84"/>
    <polygon class="cls-8" points="202.22 55.8 195.79 55.8 201.78 48.46 201.78 45.33 190.74 45.33 190.49 46.69 193.21 46.95 190.4 47.16 190.35 47.44 192.2 47.62 190.29 47.76 190.09 48.9 196.12 48.9 190.09 56.33 190.09 59.37 201.57 59.37 201.86 57.77 200.22 57.61 201.91 57.48 201.97 57.14 199.84 56.94 202.04 56.77 202.22 55.8"/>
    <path class="cls-8" d="M216.21,48.27c-.26-.79-.66-1.43-1.2-1.92-.55-.49-1.25-.85-2.11-1.07-.86-.22-1.9-.34-3.13-.34s-2.27.11-3.12.34c-.86.22-1.57.58-2.11,1.07-.55.49-.95,1.13-1.2,1.92-.26.79-.39,1.76-.39,2.9v.06l2.98,1.07c.06-.53.25-.91.52-1.21-.1.54.08,1.02.51,1.45l.17-.72.45.73.08-.04v-1.32c0-.49.03-.89.09-1.2.06-.32.17-.57.33-.75.16-.18.37-.31.64-.38.27-.07.62-.11,1.06-.11s.79.04,1.05.11c.27.07.48.2.64.38.16.18.27.43.33.75.06.32.09.72.09,1.2v2.33c0,.49-.03.89-.09,1.2-.06.32-.17.56-.33.75-.16.18-.37.31-.64.38-.27.07-.62.11-1.05.11s-.79-.04-1.06-.11c-.27-.07-.48-.2-.64-.38-.16-.19-.27-.43-.33-.75-.06-.32-.09-.72-.09-1.2v-.53l-2.43-.32.44,2.91-1.57-3.49c-.12.64-.07,1.35.1,2.11-.35-.7-.55-1.46-.53-2.31l-.72.71v.91c0,1.14.13,2.11.39,2.91.26.8.66,1.44,1.2,1.93.55.49,1.25.85,2.11,1.07.86.22,1.9.33,3.12.33s2.26-.11,3.13-.33c.41-.1.78-.24,1.11-.4l-.43-1.84.88,1.59c.12-.07.23-.15.33-.23l-1.09-2.1,1.56,1.66c.42-.45.73-1.01.95-1.68.26-.8.38-1.76.38-2.91v-2.33c0-1.14-.13-2.11-.38-2.9"/>
    <path class="cls-8" d="M231.2,48.27c-.07-.22-.16-.43-.25-.62l-1.19.3,1.03-.6c-.07-.12-.14-.24-.23-.35l-1.55.84,1.25-1.22c-.09-.1-.18-.19-.27-.27-.55-.49-1.25-.85-2.11-1.07-.86-.22-1.9-.34-3.13-.34s-2.27.11-3.12.34c-.86.22-1.57.58-2.11,1.07-.55.49-.95,1.13-1.2,1.92-.25.75-.37,1.67-.38,2.75l3.57,1.28c.06-.53.25-.91.52-1.21-.1.54.08,1.02.51,1.45l.1-.43v-.94c0-.49.03-.89.09-1.2.06-.32.17-.57.33-.75.16-.18.37-.31.64-.38.27-.07.62-.11,1.06-.11s.79.04,1.05.11c.27.07.48.2.64.38.16.18.27.43.33.75.06.32.09.72.09,1.2v2.33c0,.49-.03.89-.09,1.2-.06.32-.17.56-.33.75-.16.18-.37.31-.64.38-.27.07-.62.11-1.05.11s-.79-.04-1.06-.11c-.27-.07-.48-.2-.64-.38-.16-.19-.27-.43-.33-.75-.06-.32-.09-.72-.09-1.2v-.6l-1.84-.24.44,2.91-1.57-3.49c-.12.64-.07,1.35.1,2.11-.35-.7-.55-1.46-.53-2.31l-1.32,1.29v.33c0,1.14.13,2.11.39,2.91.26.8.66,1.44,1.2,1.93.55.49,1.25.85,2.11,1.07.86.22,1.9.33,3.12.33s2.26-.11,3.13-.33c.86-.22,1.56-.57,2.11-1.07.54-.49.95-1.14,1.2-1.93.26-.8.38-1.76.38-2.91v-2.33c0-1.14-.13-2.11-.38-2.9"/>
    <path class="cls-8" d="M21.45,45.8c-.57-.16-1.09-.31-1.14-.32-.1.18-.2.36-.33.6-.17-.2-.29-.34-.5-.6-.2.54-.35.96-.55,1.52-.16-.45-.28-.79-.45-1.25l-2.6-.08-4.04,12.5-.41,1.26h2.12l.87-.96v.96h1.39l.7-2.68h4.05l.74,2.68h1.39v-1.27l.55,1.27h.93v-.88l.6.88h1.09l-4.42-13.63ZM17.44,53.33l1.1-4.19,1.14,4.19h-2.23Z"/>
    <path class="cls-8" d="M63.63,45.8c-.58-.16-1.09-.31-1.14-.32-.1.18-.19.36-.33.6-.17-.2-.29-.34-.5-.6-.19.54-.35.96-.55,1.52-.16-.45-.29-.79-.45-1.25l-2.6-.08-4.04,12.5-.41,1.26h4.39l.7-2.68h4.05l.74,2.68h1.39v-1.27l.55,1.27h.93v-.88l.6.88h1.09l-4.42-13.63ZM59.61,53.33l1.09-4.19,1.14,4.19h-2.23Z"/>
    <path class="cls-8" d="M105.56,45.8c-.57-.16-1.09-.31-1.14-.32-.1.18-.19.36-.33.6-.17-.2-.29-.34-.5-.6-.2.54-.35.96-.55,1.52-.16-.45-.29-.79-.45-1.25l-2.6-.08-4.04,12.5-.41,1.26h2.13l.87-1.32v1.32h1.38l.7-2.68h4.05l.74,2.68h1.39v-1.27l.55,1.27h.93v-.88l.6.88h1.09l-4.42-13.63ZM101.55,53.33l1.09-4.19,1.14,4.19h-2.23Z"/>
    <path class="cls-8" d="M37.09,57.84l-1.86.36,1.76.23-.18,1.01h-7.57l-.51-1.54-.33,1.54h-1.71v-13.82l2.01.13c.12.39.22.69.35,1.08.19-.47.33-.83.51-1.28.18.23.27.35.41.52.12-.2.21-.35.3-.5.04.01.39.12.81.26v9.89h6.39l-.38,2.14Z"/>
    <path class="cls-8" d="M52.17,53.46s-.14,1.75-1.32,2.85c.05-.07,1.15-1.51.62-3.26l-1.58-.61-.29,1.99-1.57-8.48c-.61-.17-1.18-.34-1.23-.35-.1.18-.19.35-.32.59-.17-.2-.28-.33-.49-.59-.19.53-.35.95-.55,1.49-.16-.44-.28-.78-.44-1.23l-.93-.5h-.07l-1.66,9.04-1.34-9.04h-4.56l1.41,6.12,1.76.34-1.6.33,1.67,7.27h4.86l1.38-7.56,1.42,7.56h4.69l1.25-5.44-1.08-.52ZM50.94,45.37l-.96,6.45,1.13.35.03-1.92.42,2.08.07-.02.35-1.07.04,1.34,1.39.68,1.82-7.89h-4.29Z"/>
    <polygon class="cls-8" points="77.17 52.04 81.84 45.37 80.29 45.37 79.4 47.02 79.86 45.37 79.03 45.37 78.35 46.38 78.71 45.37 76.98 45.37 73.56 50.74 73.56 45.37 70.92 45.37 70.54 46.6 70.32 45.37 69.36 45.37 69.36 59.43 71.21 59.43 71.51 57.84 72 59.43 73.56 59.43 73.56 54 77.11 59.43 78.43 59.43 78.52 58.37 79.2 59.43 79.7 59.43 79.78 57.78 80.58 59.43 82.44 59.43 77.17 52.04"/>
    <path class="cls-8" d="M92.38,54.33c.67-.35,1.19-.84,1.57-1.47.18-.3.32-.64.41-1.01-.29-.22-.57-.44-.65-.49-.2-.11-.64-.33-.64-.33,0,0,.13,1.59-2.03,3.07.1-.09,1.85-1.85,1.31-3.33l-2.05-.1c-.03.35-.15.61-.34.76-.23.19-.64.29-1.2.29h-1.53v-2.88h1.53c.56,0,.97.09,1.2.29.15.12.25.3.3.54l1.75-.04-.65-1.55.07-.04,1.01,1.67.06-.03-.11-.59.52.77,1.59.53v-.34c0-.86-.1-1.58-.31-2.18-.2-.6-.52-1.08-.96-1.45-.44-.37-1.02-.63-1.74-.8-.72-.17-1.59-.25-2.63-.25h-5.82v10.01l1.49.28-1.49.29v3.47h4.18v-4.34h1.32l1.95,4.34h4.59l-2.72-5.09Z"/>
    <path class="cls-8" d="M126.03,45.37c-1.19-.03-2.2-.04-3.05-.04h-2.27c-.96,0-1.77.09-2.44.27-.67.18-1.21.46-1.63.82-.42.36-.73.81-.92,1.34-.19.53-.29,1.14-.29,1.82v.26c0,.66.06,1.22.18,1.69.12.47.33.86.64,1.19.31.33.73.61,1.27.83.53.23,1.22.41,2.05.57l1.34.26s0,0,.01,0l1.91-1.16c-.25-.25-.36-.51-.4-.77.23.27.55.38.95.34l-.3-.39.56.07.17-1.03.34-.37c-.44-.19-.97-.34-1.59-.46l-1.91-.38c-.35-.06-.56-.13-.66-.21-.1-.07-.15-.24-.15-.5,0-.24.07-.41.19-.52.13-.11.38-.15.76-.15.49,0,1.11,0,1.86,0,.75,0,1.66.02,2.75.03l.34-1.95-1.53-.21,1.63-.35.18-1.04ZM126.18,53.25c-.11-.46-.32-.86-.6-1.19-.05-.06-.11-.11-.16-.17l-.19.42h-.97s-1.51,1.44-1.51,1.44l1.66.97-2.42-.64c.27.33.66.6,1.11.82-.5-.11-.97-.32-1.39-.68l-.1.4s0,0,0,0c.11.09.17.27.17.56s-.07.49-.2.59c-.13.11-.4.16-.78.16h-2.03c-.72,0-1.51-.01-2.35-.03-.19.47-.34.85-.36.89.17.12.34.23.56.39-.22.15-.37.25-.65.44.51.25.93.45,1.46.71-.46.11-.82.2-1.29.32l-.11.79c.43,0,.81.02,1.14.02.49,0,.92.01,1.31.01h2.21c1.06,0,1.95-.08,2.67-.24.72-.15,1.3-.41,1.75-.77.45-.35.76-.81.95-1.36.19-.55.29-1.22.29-2.01v-.26c0-.59-.06-1.12-.17-1.58"/>
    <path class="cls-8" d="M140.83,59.42l-4.56-14.05h-2.98l.22,2.23-.88-2.23h-.35l-.24,1.51-.39-1.51h-.7l-4.54,14.05h1.72l.68-1.68-.07,1.68h2.06l.7-2.68h4.05l.74,2.68h1.63l-.06-1.15.4,1.15h.66l-.09-1.85.64,1.85h1.38ZM132.4,53.33l1.1-4.19,1.13,4.19h-2.23Z"/>
    <path class="cls-8" d="M151.89,45.37h-10.17v5.69l1.69.4-1.69.27v7.34c.82.09,1.93.2,2,.21.07-.19.13-.39.22-.65.21.17.34.29.6.5.1-.56.18-1.01.28-1.59.24.41.42.73.66,1.15l.45-.07v-4.09h4.42l.1-.56-1.32-.18,1.39-.23.44-2.46h-5.03v-2.15h5.35l.39-2.23-1.95-.38,2.06-.26.12-.7Z"/>
    <path class="cls-8" d="M160.48,45.8c-.57-.16-1.09-.31-1.14-.32-.1.18-.2.36-.33.6-.17-.2-.29-.34-.5-.6-.2.54-.35.96-.55,1.52-.16-.45-.29-.79-.45-1.25l-2.6-.08-4.04,12.5-.41,1.26h2.12l.87-1.32v1.32h1.39l.7-2.68h4.05l.74,2.68h1.39v-1.27l.55,1.27h.93v-.88l.6.88h1.09l-4.42-13.63ZM156.47,53.33l1.1-4.19,1.14,4.19h-2.23Z"/>
    <path class="cls-8" d="M175.11,54.33c.67-.35,1.19-.84,1.56-1.47.18-.3.32-.64.41-1.01-.29-.22-.56-.44-.65-.49-.2-.11-.64-.33-.64-.33,0,0,.13,1.59-2.02,3.07.09-.09,1.85-1.85,1.31-3.33l-2.05-.1c-.03.35-.15.61-.34.76-.23.19-.63.29-1.2.29h-1.53v-2.88h1.53c.57,0,.97.09,1.2.29.15.12.25.3.3.54l1.75-.04-.65-1.55.07-.04,1.01,1.67.06-.03-.11-.59.52.77,1.59.53v-.34c0-.86-.1-1.58-.31-2.18-.2-.6-.52-1.08-.96-1.45-.44-.37-1.02-.63-1.74-.8-.72-.17-1.6-.25-2.63-.25h-5.82v10.01l1.49.28-1.49.29v3.47h4.18v-4.34h1.32l1.95,4.34h4.59l-2.72-5.09Z"/>
    <path class="cls-8" d="M182.2,45.55c-.09.15-.18.3-.3.5-.14-.18-.23-.29-.41-.52-.18.45-.32.81-.51,1.28-.12-.38-.22-.68-.34-1.08l-2.01-.13v13.82h1.71l.33-1.54.51,1.54h1.84v-13.62c-.42-.13-.77-.24-.81-.26"/>
  </g>
</svg>