<?xml version="1.0" encoding="UTF-8"?>
<svg id="Layer_2" data-name="Layer 2" xmlns="http://www.w3.org/2000/svg" viewBox="0 0 255.12 169.18">
  <defs>
    <style>
      .cls-1 {
        fill: #ee8322;
      }

      .cls-2 {
        fill: #f08123;
      }

      .cls-3 {
        fill: #ee7524;
      }

      .cls-4 {
        fill: #f26624;
      }

      .cls-5 {
        fill: #e26b35;
      }

      .cls-6 {
        fill: #cd9a4b;
      }

      .cls-7 {
        fill: #f99b2b;
      }

      .cls-8 {
        fill: #e46437;
      }

      .cls-9 {
        fill: #f2652c;
      }

      .cls-10 {
        fill: #f17327;
      }

      .cls-11 {
        fill: #f07425;
      }
    </style>
  </defs>
  <g id="Layer_1-2" data-name="Layer 1">
    <g>
      <g>
        <path class="cls-6" d="M130.28,165.49c0,.21-.06.38-.17.49-.11.12-.27.18-.46.18s-.34-.06-.46-.18c-.12-.12-.17-.28-.17-.49v-5.95h-.52c-.42,0-.63-.18-.63-.54s.21-.54.63-.54h.52v-1.79c0-.55.16-.97.49-1.24.33-.27.72-.41,1.18-.41h.39c.16,0,.32.05.48.14.16.1.24.23.24.4,0,.36-.23.54-.69.54h-.32c-.19,0-.33.04-.4.13-.08.09-.11.21-.11.37v1.85h.79c.42,0,.63.18.63.54s-.21.54-.63.54h-.79v5.95Z"/>
        <path class="cls-6" d="M132.14,162.27c0-.51.07-.99.22-1.46.15-.47.37-.88.65-1.25.29-.36.64-.65,1.05-.87.42-.22.89-.32,1.43-.32s1.01.11,1.43.32c.42.22.77.5,1.05.87.29.36.5.78.65,1.25.15.47.22.96.22,1.46s-.07.99-.22,1.46c-.15.47-.37.88-.65,1.25-.29.36-.64.65-1.05.87-.42.22-.89.32-1.43.32s-1.01-.11-1.43-.32c-.42-.22-.77-.5-1.05-.87-.29-.36-.5-.78-.65-1.25-.15-.47-.22-.96-.22-1.46ZM133.41,162.27c0,.33.04.65.11.98.07.33.19.63.36.9.17.27.38.49.65.67.26.17.59.26.98.26s.71-.09.97-.26c.27-.17.48-.39.65-.67.17-.27.29-.57.36-.9.07-.33.11-.66.11-.98s-.04-.65-.11-.98c-.07-.33-.19-.63-.36-.9-.17-.27-.38-.49-.65-.67-.27-.17-.59-.26-.97-.26s-.72.09-.98.26c-.26.17-.48.39-.65.67-.17.27-.29.57-.36.9-.07.33-.11.66-.11.98Z"/>
        <path class="cls-6" d="M140.45,159.04c0-.21.06-.38.17-.49.11-.12.27-.18.46-.18s.34.06.46.18c.11.12.17.28.17.49v.65h.03c.07-.14.16-.29.29-.45.12-.16.26-.3.41-.43.15-.13.31-.23.49-.32.18-.08.36-.12.54-.12.22,0,.39.06.52.19.12.12.19.28.19.46,0,.36-.26.59-.79.69-.19.03-.38.09-.58.18-.2.09-.37.22-.53.39-.16.17-.29.39-.39.65-.1.26-.16.57-.16.95v3.63c0,.21-.06.38-.17.49-.12.12-.27.18-.46.18s-.34-.06-.46-.18c-.11-.12-.17-.28-.17-.49v-6.45Z"/>
        <path class="cls-6" d="M148.72,156.81c0-.21.06-.38.17-.49.11-.12.27-.18.46-.18s.34.06.46.18c.11.12.17.28.17.49v1.65h.52c.42,0,.63.18.63.54s-.21.54-.63.54h-.52v5.95c0,.21-.06.38-.17.49-.11.12-.27.18-.46.18s-.34-.06-.46-.18c-.11-.12-.17-.28-.17-.49v-5.95h-.52c-.42,0-.63-.18-.63-.54s.21-.54.63-.54h.52v-1.65Z"/>
        <path class="cls-6" d="M157.1,161.34c0-.33-.05-.62-.16-.86-.11-.24-.24-.43-.41-.58-.17-.15-.36-.26-.57-.33-.21-.07-.42-.11-.63-.11s-.42.04-.63.11c-.21.07-.4.18-.57.33-.17.15-.3.34-.41.58-.1.24-.16.53-.16.86v4.16c0,.21-.06.38-.17.49-.12.12-.27.18-.46.18s-.34-.06-.46-.18c-.11-.12-.17-.28-.17-.49v-9.81c0-.21.06-.38.17-.49.11-.12.27-.18.46-.18s.34.06.46.18c.11.12.17.28.17.49v3.66l.03.03c.28-.36.6-.62.98-.77.37-.15.75-.23,1.13-.23.3,0,.6.05.91.15.31.1.6.27.85.49.26.23.47.53.64.9.17.37.25.82.25,1.36v4.23c0,.21-.06.38-.17.49-.11.12-.27.18-.46.18s-.34-.06-.46-.18c-.11-.12-.17-.28-.17-.49v-4.16Z"/>
        <path class="cls-6" d="M161.13,162.76c0,.33.05.63.15.91.1.28.25.53.44.74.2.21.43.38.71.49.28.12.59.18.95.18.42,0,.77-.05,1.05-.16.28-.11.51-.22.7-.35.19-.13.34-.25.47-.36.13-.11.25-.17.37-.17s.22.05.32.14c.09.1.14.23.14.42,0,.15-.09.32-.27.5-.18.18-.41.35-.7.51-.29.16-.62.29-.98.39-.36.11-.73.16-1.1.16-.61,0-1.14-.11-1.58-.32-.44-.22-.8-.5-1.09-.87-.29-.36-.5-.78-.63-1.25-.13-.47-.2-.96-.2-1.46s.08-1.01.24-1.48c.16-.47.38-.88.67-1.24.29-.36.65-.65,1.07-.86.43-.22.91-.32,1.44-.32s.98.11,1.39.32c.41.22.76.5,1.03.85.28.35.49.75.64,1.19.15.44.22.9.22,1.36,0,.22-.05.39-.14.5-.1.11-.28.17-.56.17h-4.75ZM165.31,161.81c0-.27-.04-.54-.12-.82s-.2-.54-.37-.76c-.16-.22-.37-.41-.63-.55-.26-.14-.56-.22-.9-.22-.39,0-.72.05-.99.19-.27.13-.49.31-.66.54-.17.22-.3.48-.38.77s-.13.57-.14.86h4.19Z"/>
        <path class="cls-6" d="M171.2,159.04c0-.21.06-.38.17-.49.11-.12.27-.18.46-.18s.34.06.46.18c.12.12.17.28.17.49v.37h.03c.36-.7,1.04-1.05,2.04-1.05.52,0,.97.11,1.38.32.4.22.74.5,1.02.87.28.36.49.78.64,1.25.14.47.22.96.22,1.46s-.07.99-.22,1.46c-.14.47-.36.88-.64,1.25-.28.36-.62.65-1.02.87-.4.22-.86.32-1.38.32-.25,0-.48-.03-.7-.09-.21-.06-.41-.14-.58-.24-.17-.1-.32-.21-.44-.34-.12-.12-.23-.24-.32-.36h-.03v3.37c0,.21-.06.38-.17.49-.11.12-.27.18-.46.18s-.34-.06-.46-.18c-.12-.12-.17-.28-.17-.49v-9.46ZM172.46,162.27c0,.33.04.65.1.98.07.33.19.63.35.9.16.27.37.49.63.67.25.17.57.26.95.26s.69-.09.95-.26c.26-.17.47-.39.63-.67.16-.27.28-.57.35-.9.07-.33.1-.66.1-.98s-.03-.65-.1-.98c-.07-.33-.19-.63-.35-.9-.16-.27-.37-.49-.63-.67-.26-.17-.58-.26-.95-.26s-.7.09-.95.26c-.26.17-.46.39-.63.67-.16.27-.28.57-.35.9-.07.33-.1.66-.1.98Z"/>
        <path class="cls-6" d="M179.34,159.04c0-.21.06-.38.17-.49.11-.12.27-.18.46-.18s.34.06.46.18c.11.12.17.28.17.49v4.04c0,1.33.59,1.99,1.76,1.99s1.76-.66,1.76-1.99v-4.04c0-.21.06-.38.17-.49.12-.12.27-.18.46-.18s.34.06.46.18c.11.12.17.28.17.49v4.09c0,.56-.09,1.04-.26,1.42-.17.38-.4.7-.68.94-.28.24-.6.42-.97.52s-.74.16-1.12.16-.75-.05-1.12-.16c-.36-.11-.69-.28-.97-.52-.28-.24-.51-.56-.68-.94-.17-.38-.26-.86-.26-1.42v-4.09Z"/>
        <path class="cls-6" d="M187.33,159.04c0-.21.06-.38.17-.49.11-.12.27-.18.46-.18s.34.06.46.18c.11.12.17.28.17.49v.65h.03c.07-.14.16-.29.29-.45.12-.16.26-.3.41-.43.15-.13.31-.23.49-.32.18-.08.36-.12.54-.12.22,0,.39.06.52.19.12.12.19.28.19.46,0,.36-.26.59-.79.69-.19.03-.38.09-.58.18-.2.09-.37.22-.53.39-.16.17-.29.39-.39.65-.1.26-.16.57-.16.95v3.63c0,.21-.06.38-.17.49-.12.12-.27.18-.46.18s-.34-.06-.46-.18c-.11-.12-.17-.28-.17-.49v-6.45Z"/>
        <path class="cls-6" d="M192.01,156.56c0-.22.07-.4.22-.55.15-.15.33-.22.55-.22s.4.07.55.22c.15.15.22.33.22.55s-.07.4-.22.55c-.15.15-.33.22-.55.22s-.4-.07-.55-.22c-.15-.15-.22-.33-.22-.55ZM193.42,165.49c0,.21-.06.38-.17.49-.11.12-.27.18-.46.18s-.34-.06-.46-.18c-.11-.12-.17-.28-.17-.49v-6.45c0-.21.06-.38.17-.49.12-.12.27-.18.46-.18s.34.06.46.18c.11.12.17.28.17.49v6.45Z"/>
        <path class="cls-6" d="M195.74,156.81c0-.21.06-.38.17-.49.11-.12.27-.18.46-.18s.34.06.46.18c.12.12.17.28.17.49v1.65h.52c.42,0,.63.18.63.54s-.21.54-.63.54h-.52v5.95c0,.21-.06.38-.17.49-.11.12-.27.18-.46.18s-.34-.06-.46-.18c-.12-.12-.17-.28-.17-.49v-5.95h-.52c-.42,0-.63-.18-.63-.54s.21-.54.63-.54h.52v-1.65Z"/>
        <path class="cls-6" d="M199.21,159.6c-.08-.22-.12-.37-.14-.46-.02-.09-.03-.17-.03-.24,0-.16.06-.29.18-.39.12-.1.25-.14.39-.14.16,0,.3.05.4.14.11.09.18.2.23.34l1.75,5.23h.03l1.72-5.23c.05-.13.12-.25.21-.34.1-.09.22-.14.39-.14.14,0,.28.05.39.14.12.1.18.22.18.39,0,.08,0,.16-.03.24-.02.09-.07.24-.14.46l-3.18,9.11c-.05.13-.12.25-.22.34-.1.09-.23.14-.39.14-.14,0-.28-.05-.39-.14-.12-.1-.18-.22-.18-.39,0-.08.01-.16.04-.24.02-.09.07-.24.15-.46l.8-2.14-2.15-6.21Z"/>
        <path class="cls-6" d="M209.03,162.27c0-.51.07-.99.22-1.46.15-.47.37-.88.65-1.25.29-.36.64-.65,1.05-.87.42-.22.89-.32,1.43-.32s1.01.11,1.43.32c.42.22.77.5,1.05.87.29.36.5.78.65,1.25.15.47.22.96.22,1.46s-.07.99-.22,1.46c-.15.47-.37.88-.65,1.25-.29.36-.64.65-1.05.87-.42.22-.89.32-1.43.32s-1.01-.11-1.43-.32c-.42-.22-.77-.5-1.05-.87-.29-.36-.5-.78-.65-1.25-.15-.47-.22-.96-.22-1.46ZM210.29,162.27c0,.33.04.65.11.98.07.33.19.63.36.9.17.27.38.49.64.67.26.17.59.26.98.26s.71-.09.97-.26c.27-.17.49-.39.65-.67.17-.27.29-.57.36-.9.07-.33.11-.66.11-.98s-.04-.65-.11-.98c-.07-.33-.19-.63-.36-.9-.17-.27-.38-.49-.65-.67-.27-.17-.59-.26-.97-.26s-.72.09-.98.26c-.26.17-.48.39-.64.67-.17.27-.29.57-.36.9-.07.33-.11.66-.11.98Z"/>
        <path class="cls-6" d="M218.83,165.49c0,.21-.06.38-.17.49-.11.12-.27.18-.46.18s-.34-.06-.46-.18c-.12-.12-.17-.28-.17-.49v-5.95h-.52c-.42,0-.63-.18-.63-.54s.21-.54.63-.54h.52v-1.79c0-.55.16-.97.49-1.24.33-.27.72-.41,1.18-.41h.39c.16,0,.32.05.48.14.16.1.24.23.24.4,0,.36-.23.54-.69.54h-.32c-.19,0-.33.04-.4.13-.08.09-.11.21-.11.37v1.85h.79c.42,0,.63.18.63.54s-.21.54-.63.54h-.79v5.95Z"/>
        <path class="cls-6" d="M224.07,160.52c0-.35.08-.66.23-.93.15-.27.35-.49.6-.67.24-.18.52-.32.83-.41.31-.09.62-.14.94-.14.26,0,.54.03.84.1.3.07.58.16.82.28.25.12.46.26.62.42.17.16.25.34.25.54,0,.13-.05.25-.14.36-.1.11-.24.16-.43.16-.13,0-.26-.04-.37-.12-.11-.08-.23-.17-.37-.27-.14-.1-.3-.18-.49-.27-.19-.08-.43-.12-.73-.12-.36,0-.68.08-.94.24-.26.16-.39.4-.39.72,0,.22.1.41.3.56.2.15.45.29.75.42.3.13.63.26.98.39.35.13.68.28.98.46.3.18.55.39.75.65.2.25.3.56.3.92,0,.4-.08.75-.24,1.04-.16.29-.37.54-.62.73-.26.2-.55.34-.89.44-.33.1-.68.14-1.03.14-.4,0-.78-.05-1.12-.14-.35-.09-.65-.21-.91-.34-.26-.14-.46-.29-.61-.47-.15-.17-.22-.34-.22-.5,0-.17.05-.31.16-.42.1-.11.22-.16.36-.16.14,0,.28.05.42.14.13.1.29.2.47.32.18.12.39.23.63.32.24.1.53.14.87.14.46,0,.82-.11,1.08-.32.26-.22.39-.45.39-.71s-.1-.46-.3-.63c-.2-.17-.45-.33-.75-.47-.3-.14-.63-.28-.98-.42-.35-.14-.68-.3-.98-.47-.3-.18-.55-.39-.75-.63-.2-.24-.3-.54-.3-.9Z"/>
        <path class="cls-6" d="M230.95,159.04c0-.21.06-.38.17-.49.11-.12.27-.18.46-.18s.34.06.46.18c.11.12.17.28.17.49v.37h.03c.36-.7,1.04-1.05,2.04-1.05.52,0,.97.11,1.38.32.4.22.74.5,1.03.87.28.36.49.78.64,1.25.14.47.21.96.21,1.46s-.07.99-.21,1.46c-.14.47-.36.88-.64,1.25-.28.36-.62.65-1.03.87-.4.22-.86.32-1.38.32-.25,0-.48-.03-.7-.09-.22-.06-.41-.14-.58-.24-.17-.1-.32-.21-.44-.34-.12-.12-.23-.24-.32-.36h-.03v3.37c0,.21-.06.38-.17.49-.11.12-.27.18-.46.18s-.34-.06-.46-.18c-.11-.12-.17-.28-.17-.49v-9.46ZM232.21,162.27c0,.33.03.65.1.98.07.33.18.63.35.9.16.27.37.49.63.67.26.17.57.26.95.26s.69-.09.95-.26c.26-.17.47-.39.63-.67.16-.27.28-.57.35-.9.07-.33.1-.66.1-.98s-.03-.65-.1-.98c-.07-.33-.19-.63-.35-.9-.16-.27-.37-.49-.63-.67-.26-.17-.57-.26-.95-.26s-.7.09-.95.26c-.25.17-.46.39-.63.67-.16.27-.28.57-.35.9-.07.33-.1.66-.1.98Z"/>
        <path class="cls-6" d="M238.78,162.27c0-.51.07-.99.22-1.46.15-.47.37-.88.65-1.25.29-.36.64-.65,1.05-.87.42-.22.89-.32,1.43-.32s1.01.11,1.43.32c.42.22.77.5,1.05.87.29.36.5.78.65,1.25.15.47.22.96.22,1.46s-.07.99-.22,1.46c-.15.47-.37.88-.65,1.25-.29.36-.64.65-1.05.87-.42.22-.89.32-1.43.32s-1.01-.11-1.43-.32c-.42-.22-.77-.5-1.05-.87-.29-.36-.5-.78-.65-1.25-.15-.47-.22-.96-.22-1.46ZM240.05,162.27c0,.33.04.65.11.98.07.33.19.63.36.9.17.27.38.49.64.67.26.17.59.26.98.26s.71-.09.97-.26c.27-.17.49-.39.65-.67.17-.27.29-.57.36-.9.07-.33.11-.66.11-.98s-.04-.65-.11-.98c-.07-.33-.19-.63-.36-.9-.17-.27-.38-.49-.65-.67-.27-.17-.59-.26-.97-.26s-.72.09-.98.26c-.26.17-.48.39-.64.67-.17.27-.29.57-.36.9-.07.33-.11.66-.11.98Z"/>
        <path class="cls-6" d="M247.09,159.04c0-.21.06-.38.17-.49.11-.12.27-.18.46-.18s.34.06.46.18c.11.12.17.28.17.49v.65h.03c.07-.14.16-.29.29-.45.12-.16.26-.3.41-.43.15-.13.31-.23.49-.32.18-.08.36-.12.54-.12.22,0,.39.06.52.19.12.12.19.28.19.46,0,.36-.26.59-.79.69-.19.03-.38.09-.58.18-.2.09-.37.22-.53.39-.16.17-.29.39-.39.65-.1.26-.16.57-.16.95v3.63c0,.21-.06.38-.17.49-.12.12-.27.18-.46.18s-.34-.06-.46-.18c-.11-.12-.17-.28-.17-.49v-6.45Z"/>
        <path class="cls-6" d="M252.7,156.81c0-.21.06-.38.17-.49.11-.12.27-.18.46-.18s.34.06.46.18c.12.12.17.28.17.49v1.65h.52c.42,0,.63.18.63.54s-.21.54-.63.54h-.52v5.95c0,.21-.06.38-.17.49-.11.12-.27.18-.46.18s-.34-.06-.46-.18c-.12-.12-.17-.28-.17-.49v-5.95h-.52c-.42,0-.63-.18-.63-.54s.21-.54.63-.54h.52v-1.65Z"/>
      </g>
      <g>
        <path class="cls-5" d="M31.28,142.97c-3.67,0-4.9-2.49-6.39-2.49-.73,0-1.38.61-1.38,1.53,0,1.72,3.37,3.87,7.66,3.87,3.79,0,7.43-2.03,7.43-6.28,0-5.89-10.87-5.51-10.87-9.07,0-1.72,1.65-2.57,3.56-2.57,3.22,0,3.79,2.07,5.24,2.07,1.03,0,1.53-.65,1.53-1.38,0-2.11-3.98-3.6-6.77-3.6-3.41,0-6.93,1.99-6.93,5.74,0,5.67,10.87,5.44,10.87,9.42,0,1.38-1.49,2.76-3.94,2.76Z"/>
        <path class="cls-5" d="M205.12,134.97c0-4.9-3.22-9.91-8.77-9.91s-9.15,4.9-9.15,10.41,2.83,10.41,9.34,10.41c3.98,0,8.15-2.53,8.15-4.17,0-.96-.61-1.49-1.22-1.49-1.26,0-2.41,2.76-6.89,2.76-3.79,0-6.01-2.72-6.01-6.2h12.67c1.45,0,1.88-.61,1.88-1.8ZM190.57,134.24c.12-3.1,1.61-6.43,5.78-6.28,3.71,0,5.4,3.37,5.4,6.28h-11.18Z"/>
        <path class="cls-5" d="M114.44,116.1c-1.03,0-1.68.69-1.68,1.8v26.18c0,1.11.65,1.8,1.68,1.8s1.68-.69,1.68-1.8v-11.1c0-3.56,2.49-5.02,4.71-5.02s4.71,1.46,4.71,5.02v11.1c0,1.11.65,1.8,1.68,1.8s1.68-.69,1.68-1.8v-11.29c0-5.74-3.94-7.73-7.08-7.73-2.03,0-4.13.77-5.63,2.68l-.08-.08v-9.76c0-1.11-.65-1.8-1.68-1.8Z"/>
        <path class="cls-5" d="M248.04,125.06c-2.95,0-4.75,1.3-6.24,3.44-1.53-2.6-3.6-3.44-5.59-3.44-3.06,0-4.33,1.45-5.13,2.49l-.08-.08v-.61c0-1.11-.65-1.8-1.68-1.8s-1.68.69-1.68,1.8v17.22c0,1.11.65,1.8,1.68,1.8s1.68-.69,1.68-1.8v-11.4c0-2.91,1.61-4.71,4.33-4.71s4.36,1.8,4.36,4.71v11.4c0,1.11.65,1.8,1.69,1.8s1.68-.69,1.68-1.8v-11.4c0-2.91,1.61-4.71,4.32-4.71s4.37,1.8,4.37,4.71v11.4c0,1.11.65,1.8,1.68,1.8s1.68-.69,1.68-1.8v-11.29c0-5.74-3.94-7.73-7.08-7.73Z"/>
        <path class="cls-5" d="M93.54,134.97c0-4.9-3.22-9.91-8.77-9.91s-9.15,4.9-9.15,10.41,2.83,10.41,9.34,10.41c3.98,0,8.15-2.53,8.15-4.17,0-.96-.61-1.49-1.23-1.49-1.26,0-2.41,2.76-6.89,2.76-3.79,0-6.01-2.72-6.01-6.2h12.67c1.45,0,1.88-.61,1.88-1.8ZM78.99,134.24c.12-3.1,1.61-6.43,5.78-6.28,3.71,0,5.4,3.37,5.4,6.28h-11.18Z"/>
        <path class="cls-5" d="M56.15,145.88c.65,0,1.57-.46,1.57-1.65v-17.53c0-1.19-.92-1.65-1.57-1.65-.69,0-1.57.46-1.57,1.65v1.07h-.08c-1.57-1.72-3.22-2.72-5.55-2.72-5.74,0-8.96,5.01-8.96,10.41s3.22,10.41,8.96,10.41c2.18,0,4.1-.99,5.55-3.06h.08v1.42c0,1.19.88,1.65,1.57,1.65ZM48.96,142.97c-4.13,0-5.59-4.06-5.59-7.5s1.45-7.5,5.59-7.5,5.59,4.06,5.59,7.5-1.45,7.5-5.59,7.5Z"/>
        <path class="cls-5" d="M223,145.88c.65,0,1.57-.46,1.57-1.65v-17.53c0-1.19-.92-1.65-1.57-1.65-.69,0-1.57.46-1.57,1.65v1.07h-.08c-1.57-1.72-3.22-2.72-5.55-2.72-5.74,0-8.96,5.01-8.96,10.41s3.22,10.41,8.96,10.41c2.18,0,4.1-.99,5.55-3.06h.08v1.42c0,1.19.88,1.65,1.57,1.65ZM215.8,142.97c-4.14,0-5.59-4.06-5.59-7.5s1.45-7.5,5.59-7.5,5.59,4.06,5.59,7.5-1.45,7.5-5.59,7.5Z"/>
        <path class="cls-5" d="M105.36,119.09c-1.03,0-1.68.69-1.68,1.8v4.4h-1.38c-1.11,0-1.68.54-1.68,1.45s.57,1.46,1.68,1.46h1.38v15.88c0,1.11.65,1.8,1.68,1.8s1.68-.69,1.68-1.8v-15.88h1.38c1.11,0,1.68-.54,1.68-1.46s-.57-1.45-1.68-1.45h-1.38v-4.4c0-1.11-.65-1.8-1.68-1.8Z"/>
        <path class="cls-5" d="M149.11,134.97c0-4.9-3.22-9.91-8.76-9.91s-9.15,4.9-9.15,10.41,2.83,10.41,9.34,10.41c3.98,0,8.16-2.53,8.16-4.17,0-.96-.61-1.49-1.22-1.49-1.26,0-2.41,2.76-6.89,2.76-3.79,0-6.01-2.72-6.01-6.2h12.67c1.45,0,1.87-.61,1.87-1.8ZM134.56,134.24c.12-3.1,1.61-6.43,5.78-6.28,3.71,0,5.39,3.37,5.39,6.28h-11.18Z"/>
        <path class="cls-5" d="M73.96,125.06c-1.11,0-1.49.54-1.76,1.3l-4.63,14.09h-.08l-4.63-14.09c-.27-.77-.65-1.3-1.76-1.3-.8,0-1.53.57-1.53,1.57,0,.38.12.77.34,1.38l5.86,16.42c.34.99.69,1.45,1.76,1.45s1.42-.46,1.76-1.45l5.86-16.42c.23-.61.34-.99.34-1.38,0-.99-.73-1.57-1.53-1.57Z"/>
        <path class="cls-5" d="M172.43,145.88c1.03,0,1.68-.69,1.68-1.8v-26.18c0-1.11-.65-1.8-1.68-1.8s-1.68.69-1.68,1.8v9.91h-.08c-.88-1.26-2.76-2.76-5.43-2.76-5.51,0-8.69,5.01-8.69,10.41s3.18,10.41,8.69,10.41c2.68,0,4.48-.96,5.43-2.8h.08v1c0,1.11.65,1.8,1.68,1.8ZM165.5,142.97c-4.13,0-5.59-4.06-5.59-7.5s1.46-7.5,5.59-7.5,5.59,4.06,5.59,7.5-1.45,7.5-5.59,7.5Z"/>
        <path class="cls-5" d="M178.82,125.06c-1.03,0-1.68.69-1.68,1.8v17.22c0,1.11.65,1.8,1.68,1.8s1.68-.69,1.68-1.8v-9.68c0-3.94,2.45-5.43,4.44-5.78,1.42-.27,2.11-.88,2.11-1.84s-.69-1.72-1.88-1.72c-1.95,0-3.83,1.95-4.59,3.52h-.08v-1.72c0-1.11-.65-1.8-1.68-1.8Z"/>
      </g>
      <path class="cls-9" d="M54.69,41.85c-4.91-2-10.15-5.05-15.26-9.34-.67-.56-1.93-.18-3.11.41-1.08.49-1.09.45-1.65.86-.26.18-.15.57,0,.69,6.63,5.33,10.82,8.93,13.52,11.96.73-.54,1.46-1.07,2.18-1.59,1.45-1.04,2.9-2.03,4.32-2.99Z"/>
      <path class="cls-2" d="M80.83,52.53c-3.33-3.37-4.68-7.97-4.98-8.65-.37-.84-1.49-1.31-2.18-.73-.43.36-.95.55-1.61.89-1.38.62-2.43.66-2.43.66-4.03.34-9.26-.55-14.94-2.86-1.43.96-2.87,1.95-4.32,2.99-.72.52-1.45,1.05-2.18,1.59,3.93,4.42,4.68,7.62,5.17,13.24,0,0,0,.02,0,.03,2.58,1.07,5.18,2.23,7.81,3.49,6.98-4.42,13.6-7.93,19.66-10.65Z"/>
      <path class="cls-7" d="M61.17,63.18c-2.63-1.26-5.23-2.41-7.81-3.49.34,4.08-2.55,8.87-6.42,13.46,4.87-3.75,9.63-7.06,14.23-9.98Z"/>
      <path class="cls-10" d="M79.5,73.48c-.15-.1-.3-.19-.44-.28-4.92-3.17-9.84-5.98-14.69-8.44-1.07-.54-2.14-1.06-3.2-1.57-4.6,2.91-9.36,6.22-14.24,9.98-5.41,6.41-12.74,12.47-15.9,15.74-1.17,1.21,1.72,2.82,3.47,2.08,6.38-2.68,18.83-9.08,29.16-7.32,2.08.35,3.97,1.23,5.7,2.45,5.67-3.5,10.97-6.37,15.89-8.71-1.92-1.37-3.84-2.67-5.76-3.92Z"/>
      <path class="cls-4" d="M103.06,55.99c-12.05,2.45-16.53,1.88-21.81-3.04-.15-.14-.29-.28-.42-.42-6.07,2.72-12.68,6.23-19.66,10.65,1.06.51,2.13,1.03,3.2,1.57,4.86,2.46,9.77,5.26,14.69,8.44.15.1.29.19.44.28,1.92,1.25,3.84,2.56,5.76,3.92-4.93,2.34-10.23,5.21-15.89,8.71,7.73,5.43,12.19,17.72,14.77,21.55.57.85,1.22.77,1.83.52.93-.37,3.09-2.44,3.42-3.13.36-.74.51-1.62.28-2.06-4.55-8.81-4.95-18.1-3.85-25.19.04-.24.07-.48.11-.72.17-1.01.38-1.97.6-2.88,1.7-6.81,5.93-9.61,9.05-11.1,1.88-.87,4.21-1.48,5.57-1.83.59-.15.75-.51,1.09-.99.87-1.22,1.43-3.07,1.53-3.39.19-.58-.12-1.01-.71-.89Z"/>
      <path class="cls-11" d="M18.33,8.73c.18-.27.38-.55.61-.83,1.45-1.8.73-3.7-1.59-3.82-2.33-.2-5.28-1.69-6.52-3.21C9.58-.7,7.98-.02,7.18,1.91c-.68,1.73-1.65,2.88-4.28,3.73,2.77,1.59,5.58,3.42,8.38,5.52,2.57-1.1,4.92-1.89,7.05-2.43Z"/>
      <path class="cls-1" d="M11.28,11.16c-2.8-2.11-5.61-3.93-8.38-5.52-.39.12-.81.24-1.27.36-1.73.42-2.34,2.01-.55,2.77,1.79.75,2.78,2.95,2.58,4.7-.06.49.03.98.24,1.41,2.63-1.5,5.09-2.72,7.39-3.7Z"/>
      <path class="cls-8" d="M16.46,15.39c.41.37.83.74,1.24,1.12.07-.42.03-.98-.15-1.68-.6-2.27-.59-4.02.79-6.11-2.13.54-4.49,1.34-7.05,2.43,1.73,1.3,3.46,2.71,5.18,4.23Z"/>
      <path class="cls-3" d="M14.8,16.63c1.62,1.16,2.71,1.06,2.9-.12-.41-.38-.82-.75-1.24-1.12-1.71-1.52-3.44-2.93-5.18-4.23-2.3.98-4.76,2.2-7.39,3.7.51,1.05,1.73,1.77,3.19,1.32,2.06-.68,5.51-1.09,7.71.45Z"/>
    </g>
  </g>
</svg>