<?xml version="1.0" encoding="UTF-8"?>
<svg id="Layer_2" data-name="Layer 2" xmlns="http://www.w3.org/2000/svg" viewBox="0 0 138.9 120.98">
  <defs>
    <style>
      .cls-1 {
        fill: #050606;
      }
    </style>
  </defs>
  <g id="Layer_1-2" data-name="Layer 1">
    <path class="cls-1" d="M48.98,38.73c2.13-1.54,4.2-3.21,6.15-4.98.08-.07.16-.15.27-.26l.44-.43-.31-.04c-.14-.02-.25-.03-.36-.05-.19-.03-.33-.05-.48-.05-1.26-.03-2.22,0-3.12.09-1.79.18-3.62.57-5.42,1.17-2.16.71-3.97,1.21-5.67,1.54-1.11.22-2.23.43-3.34.63l-1.22.23c-.15.03-.31.06-.46.09-.39.08-.8.16-1.2.21-1.4.17-2.79.19-3.86.19h-.03c-1.97,0-3.9-.15-5.37-.27-.87-.07-1.75-.12-2.6-.17l-.72-.04c-.11,0-.22.01-.31.03-.04,0-.08.01-.11.02h-.1s-.02.11-.02.11c-.09.38.14.57.29.7l.05.04c1.43,1.24,2.67,2.25,4.03,3.14,3.07,2,6.2,3.01,9.56,3.1.16,0,.32,0,.47,0,2.93,0,5.81-.69,8.57-2.05,1.59-.78,3.18-1.75,4.87-2.97"/>
    <path class="cls-1" d="M54.99,43.22c1.52-2.53,2.55-5.23,3.43-7.77.03-.09.04-.18.06-.28,0-.04.01-.09.03-.15l.03-.17h-.18c-.05,0-.09,0-.12,0-.06,0-.11,0-.17.01-.17.06-.33.12-.49.18-1.58.66-3.01,1.65-4.4,3.02l-.29.28c-.68.67-1.38,1.37-2.11,1.99-.57.48-1.18.94-1.76,1.38-.42.32-.85.64-1.26.97-1.25,1-2.73,1.82-4.52,2.51-.5.19-1,.37-1.51.55-.31.11-.61.22-.92.33-.62.23-1.25.46-1.86.7-.09.04-.16.1-.24.17-.03.03-.07.06-.11.1l-.16.13.18.11c.06.04.11.07.15.1.1.07.18.12.29.16,1.07.42,2.5.95,4.03,1.27.78.16,1.57.24,2.36.24.53,0,1.06-.04,1.59-.11,1.73-.24,3.36-.94,4.83-2.07,1.18-.9,2.21-2.1,3.15-3.66"/>
    <path class="cls-1" d="M30.91,34.77c.15,0,.3,0,.45,0,1.51,0,3.13-.12,4.94-.36,1.51-.2,2.89-.44,4.23-.72,2.79-.59,5.55-1.31,8.22-2.13.41-.13.82-.26,1.26-.4l1.1-.35-.31-.16c-.1-.05-.17-.09-.22-.12-.09-.05-.15-.08-.21-.11-1.06-.42-2.21-.77-3.61-1.11-1.66-.4-3.38-.67-5.11-.82-1.04-.09-2.1-.13-3.12-.18-1.3-.06-2.64-.12-3.95-.26l-.21-.02c-1.4-.15-2.84-.31-4.25-.52-.37-.05-.73-.12-1.1-.18-.64-.11-1.31-.22-1.97-.3-2.2-.25-4.47-.77-7.15-1.63-1.33-.43-2.67-.92-3.96-1.39l-.9-.33c-.96-.35-1.91-.71-2.87-1.07-.59-.22-1.17-.44-1.76-.66-.03-.01-.06-.02-.09-.04-.18-.07-.48-.2-.68.11-.17.25.01.49.12.63l.04.06c.22.3.43.61.64.91.58.83,1.19,1.69,1.82,2.5,1.58,2.02,3.52,3.74,5.75,5.1,1.28.78,2.68,1.44,4.3,2.01,2.71.96,5.6,1.47,8.58,1.52"/>
    <path class="cls-1" d="M66.43,21.41c.1.18.2.32.3.45.14.17.3.26.48.26.1,0,.2-.03.3-.09.25-.14.54-.31.75-.55.27-.31.52-.65.75-.98l.19-.26c.07-.1.12-.2.2-.33,0,0,0-.01,0-.02l.04.06c.11.17.19.31.29.45l.07.09c.24.33.48.66.74.97.14.17.34.33.6.49.24.15.44.2.61.15.17-.04.32-.17.45-.4.31-.53.54-.97.72-1.4.64-1.53.79-3.06.46-4.57-.37-1.63-1.2-3.11-2.54-4.52-.15-.16-.34-.32-.58-.49-.59-.43-1.14-.42-1.73.02-.28.21-.5.41-.68.6-1.04,1.13-1.75,2.29-2.18,3.55-.35,1.06-.48,2.1-.37,3.12.12,1.16.5,2.31,1.13,3.4"/>
    <path class="cls-1" d="M54.48,50.58c1.15,0,2.17-.13,3.11-.4,1.45-.41,2.53-1.26,3.18-2.51.4-.76.61-1.59.64-2.54.06-1.78-.31-3.56-1.09-5.29-.11-.24-.23-.47-.37-.73-.07-.14-.15-.28-.24-.44l-.12-.23-.13.23c-.27.45-.37.8-.46,1.11-.13.45-.26.9-.38,1.35-.09.33-.18.66-.28.99-.03.1-.06.21-.09.31-.08.32-.17.64-.3.94-.78,1.81-1.9,3.29-3.34,4.42-.36.28-.75.54-1.13.79l-.25.17c-.25.17-.5.33-.75.49-.29.19-.57.37-.86.57l-.04.03c-.1.06-.32.19-.21.51l.03.08.15.03c.07.01.14.03.21.03.69.04,1.37.07,2.06.1.22,0,.44.01.66.01"/>
    <path class="cls-1" d="M128.76,21.85c-.18.04-.36.1-.52.16l-1.57.59c-1.46.55-2.91,1.09-4.37,1.65-2.59.99-5.03,1.74-7.45,2.27-.72.16-1.47.27-2.19.37-.33.05-.67.1-1,.15-.34.05-.68.11-1.02.17-.76.13-1.55.26-2.33.36-1.46.19-2.97.36-4.47.5-1.11.1-2.41.21-3.75.26-2.62.09-4.9.33-6.99.76-1.74.35-3.23.78-4.56,1.3-.09.04-.18.09-.29.15-.05.03-.11.06-.17.1l-.29.16.63.22c.21.08.4.14.6.2,2.72.85,5.16,1.52,7.47,2.06,1.66.38,3.06.68,4.49.91,2.01.32,3.69.5,5.3.56.4.01.79.02,1.18.02,1.06,0,2.11-.06,3.12-.17,2.16-.24,4.29-.74,6.34-1.49,2.43-.89,4.67-2.19,6.65-3.86,2.36-1.99,4.11-4.45,5.51-6.59.04-.06.09-.13.12-.21.04-.1.15-.34-.06-.51-.11-.09-.28-.11-.39-.09"/>
    <path class="cls-1" d="M138.74.2l-.03-.03h-.04c-.26-.09-.46.03-.62.13-.04.02-.07.04-.11.06-3.32,1.78-6.76,3.63-10.21,5.3-1.08.52-2.2,1.07-3.34,1.56-1.14.5-2.31.98-3.44,1.45-.71.3-1.42.59-2.13.89-4.23,1.79-8.01,3.25-11.55,4.47-2.12.74-4.27,1.51-6.35,2.26-.92.33-1.83.66-2.75.99-.93.33-1.85.67-2.77,1-2.03.73-4.12,1.49-6.18,2.21-2.31.81-4.78,1.73-7.16,2.99-1.62.86-2.85,2.12-3.67,3.74-.28.56-.55,1.14-.81,1.7-.14.3-.28.61-.42.91-.64,1.36-1.57,2.55-2.86,3.64-.06.05-.13.09-.22.14,0,0,0,0,0,0-.04-.1-.06-.18-.08-.26l-.1-.54c-.32-1.66-.64-3.32-.95-4.98-.07-.39-.15-.78-.23-1.17-.2-.99-.4-2.01-.52-3.03-.02-.14-.04-.32-.13-.48-.07-.13-.23-.28-.39-.29-.16-.02-.36.1-.44.24-.13.23-.23.47-.3.71-.28.96-.56,1.92-.84,2.88l-.41,1.43c-.05.19-.11.38-.18.55-.02.04-.09.1-.1.11-.02,0-.08-.06-.13-.17-.03-.05-.04-.12-.06-.19,0-.04-.02-.09-.03-.13l-.05-.17c-.26-.92-.51-1.83-.77-2.75l-.03-.11c-.15-.55-.32-1.11-.49-1.66-.13-.4-.28-.65-.47-.74-.1-.05-.2-.05-.3-.01-.33.13-.37.43-.39.66,0,.05-.01.1-.02.15-.05.27-.1.55-.13.83-.04.26-.08.52-.13.77-.47,2.52-.95,5.03-1.44,7.54-.01.07-.02.13-.03.2-.03.19-.07.38-.14.57-.07-.04-.13-.07-.18-.11-1.23-1.02-2.13-2.15-2.76-3.44-.21-.42-.4-.84-.59-1.26-.23-.51-.47-1.04-.73-1.55-.84-1.64-2.04-2.88-3.55-3.67-2.05-1.07-4-1.92-5.96-2.6-2.49-.86-5.01-1.77-7.44-2.65-.92-.33-1.85-.66-2.77-1-3.47-1.25-6.94-2.49-10.42-3.74-.42-.15-.84-.3-1.26-.45-1.02-.36-2.08-.73-3.1-1.14-1.67-.67-3.36-1.37-5-2.05-.93-.38-1.85-.77-2.78-1.15-2.53-1.04-5.49-2.29-8.33-3.75-2.03-1.04-4.08-2.12-6.07-3.16-.92-.48-1.84-.97-2.76-1.45-.15-.08-.31-.16-.48-.24l-.37-.18-.06.15c-.02.05-.04.11-.07.15C.04.42-.01.53,0,.65c.03.2.1.38.17.56l.04.11c1.48,3.9,3.76,7.54,6.79,10.8,2.26,2.43,5.01,4.56,8.41,6.53,4.57,2.64,9.63,4.6,15.47,5.98,1.8.43,3.68.79,5.59,1.08,1.54.24,3.13.42,4.7.56.4.04.81.07,1.21.1.62.05,1.25.1,1.88.16,2.91.31,5.72,1.06,8.34,2.22,1.95.86,3.58,1.91,4.97,3.19,2.1,1.93,3.7,4.38,4.87,7.49.33.87.56,1.8.79,2.69.06.23.12.47.18.7.53,2.05.76,4,.71,5.95-.1,3.53-1.18,6.67-3.21,9.32-.7.92-1.4,1.85-2.09,2.77-2.05,2.73-4.17,5.55-6.44,8.17-.07.08-.13.17-.18.26l-.11.17.04.08c.17.32.44.3.62.29h.05c.31-.01.62-.02.94-.02.81-.02,1.65-.03,2.47-.11,1.39-.12,2.66-.51,3.77-1.16.99-.57,1.87-1.34,2.7-2.35.83-1.01,1.54-2.18,2.24-3.68.54-1.15.99-2.34,1.41-3.51-.04.24-.1.48-.16.74-.43,1.78-.68,3.18-.83,4.52-.37,3.49.37,6.76,2.19,9.71.2.32.45.6.71.88.3.33.74.51,1.2.51h.02c.46,0,.89-.19,1.17-.52l.09-.1c.22-.24.44-.5.62-.78.29-.46.54-.95.75-1.37,1.12-2.23,1.63-4.71,1.51-7.37-.08-1.67-.39-3.28-.73-4.76-.11-.49-.22-.98-.32-1.47.09.23.18.47.27.7.28.74.57,1.51.89,2.26.75,1.75,1.6,3.19,2.62,4.4,1.42,1.68,3.08,2.71,5.07,3.15.88.19,1.76.26,2.74.31.48.03.97.03,1.45.02.19,0,.37,0,.56,0h.04c.15,0,.41,0,.55-.28l.02-.04v-.05c-.04-.23-.19-.39-.33-.54-.04-.04-.07-.08-.11-.12-.21-.25-.42-.5-.64-.75-.4-.47-.82-.96-1.21-1.45-1.9-2.46-3.82-4.97-5.67-7.39l-.21-.28c-.43-.56-.87-1.13-1.25-1.73-1.66-2.57-2.53-5.48-2.59-8.65-.02-.93,0-2.14.23-3.35.13-.66.28-1.34.42-1.99.07-.3.13-.6.2-.9.45-2.11,1.24-4.15,2.33-6.07,1.47-2.58,3.41-4.64,5.77-6.12,1.81-1.13,3.82-2.01,6.17-2.67,2-.57,3.79-.9,5.48-1,1.53-.1,3.17-.25,5.01-.46,1.88-.21,3.82-.53,5.91-.97,3.08-.65,6.05-1.48,8.82-2.49,3.92-1.43,7.37-3.13,10.53-5.2,5.12-3.35,9.09-7.77,11.8-13.15.37-.74.69-1.51,1-2.26.12-.29.24-.58.36-.86.1-.23.23-.55-.03-.85"/>
    <path class="cls-1" d="M100.21,46.97c-.2-.2-.45-.29-.69-.37l-.14-.05c-.34-.13-.69-.25-1.03-.36-.24-.08-.47-.16-.71-.25-1.25-.45-2.54-.91-3.75-1.5-1.1-.54-2.1-1.26-3.08-1.97l-.18-.13c-1.86-1.34-3.46-2.72-4.9-4.22-.84-.87-1.8-1.64-2.85-2.27-.65-.39-1.39-.79-2.37-1.07l-.25-.07.13.47c.03.1.05.18.07.25.45,1.4,1.03,2.89,1.76,4.56.68,1.57,1.41,2.91,2.23,4.1,1.16,1.71,2.52,2.95,4.15,3.79,1.25.64,2.41,1,3.56,1.1.44.04.86.06,1.28.06,1.03,0,2.01-.12,2.95-.36,1.06-.27,2.15-.63,3.45-1.14l.04-.02c.14-.05.39-.14.38-.47v-.06s-.04-.04-.04-.04Z"/>
    <path class="cls-1" d="M87.16,49.72s-.05-.03-.07-.04c-.61-.41-1.23-.81-1.86-1.21-1.29-.82-2.39-1.89-3.26-3.18-.7-1.04-1.18-2.1-1.46-3.23-.18-.72-.38-1.43-.63-2.28-.07-.23-.16-.45-.25-.69-.04-.11-.09-.22-.13-.34l-.08-.2-.16.15s-.08.07-.11.1c-.05.04-.08.07-.11.12-1.2,2.11-1.72,4.38-1.53,6.74.14,1.75,1.22,3.87,3.86,4.56.97.25,1.98.37,3.08.37.18,0,.37,0,.55-.01.71-.03,1.43-.06,2.14-.1.08,0,.15-.03.22-.05.02,0,.05-.02.07-.02l.12-.03v-.12c-.03-.31-.24-.43-.38-.52"/>
    <path class="cls-1" d="M117.66,36.6h-.29c-.14,0-.28,0-.41,0l-1.33.08c-1.23.08-2.5.16-3.75.26-2.03.17-4.05.13-5.59.08-.77-.03-1.4-.08-1.97-.17-1.39-.22-2.8-.49-4.13-.74-2.68-.51-5.01-1.1-7.12-1.82-2.23-.76-4.32-1.19-6.37-1.33-.71-.05-1.42-.04-2.11-.03-.23,0-.47,0-.7,0-.11,0-.22.04-.32.08-.04.01-.08.03-.12.04l-.16.05.07.15s.02.05.03.07c.02.05.04.1.08.14.14.14.29.28.43.41,2.69,2.4,5,4.21,7.27,5.7,1.71,1.13,3.28,1.99,4.8,2.64,2.33,1,4.79,1.5,7.35,1.5.63,0,1.26-.03,1.89-.09,2.09-.2,4.21-.85,6.29-1.93,1.55-.8,3.07-1.86,4.93-3.41.36-.3.72-.61,1.07-.92.13-.11.34-.3.19-.7l-.03-.1Z"/>
    <path class="cls-1" d="M76.01,88.26c.21,1,.76,1.75,1.69,2.19,1.03.49,2.08.5,3.11,0,1.19-.59,1.71-1.6,1.76-2.89,0-.26-.03-.5-.08-.73,0-.02-.01-.05-.02-.07-.04-.16-.09-.31-.16-.46-.02-.05-.05-.11-.07-.16-.04-.08-.09-.15-.14-.23-.59-.94-1.68-1.54-2.85-1.54-1.36,0-2.62.79-3.09,2.01-.04.1-.08.21-.11.32-.02.07-.03.13-.04.2-.01.07-.03.13-.04.2-.01.1,0,.19-.01.29,0,.02,0,.03,0,.04,0,0,0,.02,0,.03,0,.27.01.53.07.79M79.27,85.92c.89,0,1.63.72,1.66,1.56-.01,1.02-.77,1.76-1.68,1.76-.81,0-1.49-.57-1.65-1.4-.02-.11-.03-.23-.03-.35.02-.87.79-1.58,1.71-1.57"/>
    <path class="cls-1" d="M47.79,89.29c-.13.06-.27.1-.42.1-.53,0-.99-.28-1.38-.62l-.09.16c-.24.35-.4.72-.6,1.09.04.07.05.11.08.12.81.51,1.67.76,2.63.55.48-.11.85-.3,1.11-.55,0,0,0,0,0,0,.47-.4.62-1.01.62-1.61,0-.97-.64-1.39-1.47-1.63l-.4-.12c-.27-.09-.69-.22-.69-.57,0-.15.08-.26.19-.34.19-.12.39-.18.61-.12.19.05.38.13.57.2.09.03.17.08.28.14,0,0,0-.01.01-.02.01,0,.03.02.04.03l.62-1.21c-.53-.3-1.27-.49-1.87-.49-.34,0-.66.07-.93.19,0,0,0,0,0,0-.41.15-.72.43-.93.81-.28.51-.3,1.06-.18,1.62.05.23.18.44.37.59.14.11.3.22.47.29.25.1.51.17.76.26.21.07.42.14.6.26.36.23.34.63.01.86"/>
    <path class="cls-1" d="M51.28,90.46v.09h.01s0,0,0,0c.09.01.15.03.22.03.96,0,1.92,0,2.87,0,.06,0,.12-.02.18-.04h.11v-1.32h-1.77s-.05,0-.08,0v-.81c.01-.05.02-.1.04-.16.15,0,.28-.02.42-.02.32,0,.64,0,.96,0,.05,0,.11-.02.17-.03h.17v-1.32h-1.71s-.01,0-.02,0c0-.05,0-.1-.01-.16v-.7s0-.05,0-.07c.59-.09,1.16.02,1.73-.07h.11v-1.32h-3.4v.13c-.01.09-.03.16-.03.22,0,1.8,0,3.59,0,5.39,0,.05.02.1.03.15"/>
    <path class="cls-1" d="M41.32,101.26h1.87c.52,0,1.01-.07,1.47-.21.46-.14.86-.34,1.2-.61.34-.27.61-.6.81-1.01.2-.4.3-.87.3-1.4,0-.48-.08-.92-.25-1.3-.17-.39-.4-.72-.71-.99-.31-.28-.68-.49-1.13-.64-.44-.15-.94-.22-1.48-.22h-3.7v9.39h1.64v-3.02ZM41.32,96.38h1.92c.62,0,1.11.14,1.48.42.37.28.55.71.55,1.27,0,.51-.18.92-.54,1.23-.36.31-.86.46-1.49.46h-1.92v-3.39Z"/>
    <polygon class="cls-1" points="48.47 94.94 48.47 104.33 50.1 104.33 50.1 100.37 54.61 100.37 54.61 104.33 56.25 104.33 56.25 94.94 54.61 94.94 54.61 98.84 50.1 98.84 50.1 94.94 48.47 94.94"/>
    <path class="cls-1" d="M67.42,99.57c0-.66-.12-1.29-.35-1.88-.23-.59-.56-1.1-.98-1.54-.42-.44-.92-.78-1.5-1.04-.58-.25-1.22-.38-1.93-.38s-1.35.13-1.93.39c-.58.26-1.09.61-1.51,1.05-.43.44-.76.96-.99,1.55-.24.59-.35,1.22-.35,1.88s.12,1.29.35,1.88c.23.59.56,1.1.98,1.54s.92.79,1.5,1.04c.58.26,1.22.38,1.93.38s1.35-.13,1.93-.39c.58-.26,1.08-.61,1.51-1.05.43-.44.76-.96.99-1.55.23-.59.35-1.22.35-1.88M65.51,100.89c-.15.41-.36.76-.63,1.06-.27.3-.59.54-.97.71-.38.17-.79.26-1.24.26s-.87-.09-1.25-.27c-.38-.18-.71-.42-.98-.72-.27-.31-.49-.66-.64-1.07s-.23-.84-.23-1.29.08-.89.23-1.29.36-.76.63-1.06c.27-.3.59-.54.97-.71.38-.18.79-.26,1.24-.26s.87.09,1.25.27c.38.18.71.42.98.73.27.3.49.66.64,1.07.15.41.23.84.23,1.29s-.08.89-.23,1.29"/>
    <polygon class="cls-1" points="75.87 102.79 70.49 102.79 70.49 100.28 75.2 100.28 75.2 98.79 70.49 98.79 70.49 96.38 75.81 96.38 75.81 94.89 68.86 94.89 68.86 104.28 75.87 104.28 75.87 102.79"/>
    <polygon class="cls-1" points="85.39 104.28 85.39 94.89 83.75 94.89 83.75 101.38 78.73 94.89 77.21 94.89 77.21 104.28 78.84 104.28 78.84 97.6 84.01 104.28 85.39 104.28"/>
    <rect class="cls-1" x="87.62" y="94.89" width="1.64" height="9.39"/>
    <polygon class="cls-1" points="90.56 94.89 93.85 99.5 90.43 104.28 92.32 104.28 94.8 100.72 97.27 104.28 99.21 104.28 95.81 99.47 99.08 94.89 97.19 94.89 94.84 98.25 92.51 94.89 90.56 94.89"/>
    <path class="cls-1" d="M55.98,90.59c.48-.01,1,.03,1.5-.02,0,0,0-.01,0-.02h.04l.39-.97h2.1c.13.33.26.65.4.99.53.05,1.05.04,1.6,0,0,0,0-.02,0-.02h.11l-2.25-5.98h-1.7l-.02.06h0c-.04.07-.08.1-.1.15-.71,1.85-1.42,3.7-2.13,5.55-.02.04-.04.1-.02.15l-.03.07h.06s.02.03.03.04M58.98,86.53c.26.65.42,1.21.6,1.79h-1.2s0,0-.01,0l.6-1.79Z"/>
    <path class="cls-1" d="M65.18,89.39c-.53,0-.99-.28-1.38-.62l-.67,1.25s.03.02.05.03c0,.02-.02.04-.03.06.82.49,1.65.78,2.6.61.33-.06.65-.16.94-.35.22-.14.39-.33.53-.55.01-.02.02-.04.03-.06.04-.06.09-.12.12-.19.02-.05.03-.1.05-.15,0-.02.01-.04.02-.05.03-.1.05-.19.07-.29.01-.06.02-.12.03-.19h0c.01-.12.02-.24.02-.36,0-.97-.64-1.39-1.47-1.63l-.4-.12c-.24-.08-.58-.2-.66-.46-.04-.18.04-.37.25-.48.2-.1.42-.14.63-.07.22.08.45.17.68.27.03.02.06.04.09.07l.24-.47c.05-.1.11-.21.16-.32l.21-.42c-.53-.3-1.27-.49-1.87-.49-.81,0-1.47.37-1.8.99-.01.03-.03.05-.04.08-.06.13-.12.27-.15.42,0,.02-.01.03-.01.05-.03.15-.05.3-.05.47,0,0,0,.01,0,.02,0,.02,0,.05,0,.07,0,.09.02.17.03.26,0,.02,0,.04,0,.06.09.53.38.91.93,1.12.27.1.54.18.81.27.17.06.35.12.5.23.25.17.3.44.18.65-.14.2-.4.3-.65.3"/>
    <path class="cls-1" d="M69.08,90.55h.03s0,.03,0,.03c.49,0,.97.05,1.46-.03h.06v-2.08c0-.1.02-.19.03-.31.38-.04.73-.03,1.07-.02.36.01.73-.07,1.11.07v.51c0,.52,0,1.04,0,1.56,0,.04,0,.08.02.11v.15h.04s0,0,0,0c.55.06.96.05,1.27,0h.24v-5.97h-1.55v.12s-.01,0-.02,0c0,.15,0,.32,0,.49,0,.47,0,.94,0,1.41,0,.09-.03.19-.05.27-.02,0-.06,0-.08,0h-1.85c-.09-.01-.16-.02-.22-.04,0-.13-.02-.27-.02-.41v-1.86h-1.55v.47c-.03,1-.03,3.5,0,4.78v.73Z"/>
    <path class="cls-1" d="M84.06,90.28v.27h.05s0,0,0,0c.48.06.94.06,1.29,0h.21v-.24c0-.09.01-.18.01-.28,0-.44,0-.87,0-1.31,0-.08-.02-.17.13-.21.43.68.87,1.37,1.3,2.06.14.01.26.03.38.03.47,0,.94-.01,1.41-.02.02,0,.04,0,.05-.02,0,0,0,0,0,0h.13l-1.82-2.37c.12-.06.22-.11.32-.15.44-.21.71-.55.85-1.01.01-.05.01-.1.02-.15.02-.08.03-.16.04-.25,0-.06.01-.13.01-.19,0,0,0-.01,0-.02,0-1.28-.9-1.84-2.08-1.84h-2.32v.34s0,.02,0,.02c0,1.78,0,3.56,0,5.34h0ZM85.68,85.83c.26-.04.49-.03.71.06.28.11.42.32.43.62,0,.16-.02.29-.09.39-.19.29-.6.35-.97.35h-.04s0,0-.01,0c-.11-.32-.12-.83-.03-1.42"/>
    <path class="cls-1" d="M90.24,90.55h.06s0,0,0,0c.07.01.15.04.23.04.96,0,1.92,0,2.87,0,.05,0,.11-.02.16-.04h.07v-.02s0,0,0,0c.02-.34.03-.67,0-1.01v-.28h-1.76s-.03,0-.05,0c0-.17-.02-.32-.02-.47,0-.16-.05-.34.09-.52.25,0,.51,0,.78,0,.23-.01.48.03.72-.03h.14v-.04s0,0,0,0c0-.2.01-.4,0-.6,0-.13,0-.26-.01-.4v-.28h-1.61s-.07-.01-.1-.02c0-.16-.02-.31-.02-.46,0-.15.02-.29.03-.47.31,0,.6,0,.88-.01.28,0,.56.03.85-.04h.07v-.08c.02-.34.05-.66,0-.98v-.26h-3.4v.62c-.03,1.46-.03,3.19,0,4.29v1.06Z"/>
    <path class="cls-1" d="M77.95,108.76c-.38-.12-.68-.06-.87.3-.06.1-.14.19-.21.29-1.5,2.04-3,4.09-4.5,6.13-.1.13-.21.25-.34.42-.9-1.23-1.76-2.42-2.63-3.61-.87-1.19-1.72-2.4-2.6-3.55-.24-.02-.44-.04-.66.02,0,.17-.02.34-.02.5,0,1.28,0,2.55,0,3.83,0,2.38,0,4.77,0,7.15,0,.18-.06.37.08.53h.61c.02-.1.04-.18.04-.26,0-.15,0-.3,0-.45,0-3.31-.01-6.62-.02-9.93,0-.02.04-.04.07-.08.04.05.09.09.13.14,1.46,2.01,2.91,4.03,4.36,6.04.35.48.29.44.87.43.03,0,.06-.02.14-.04.3-.42.63-.86.96-1.31.32-.43.64-.87.95-1.3.33-.45.65-.89.98-1.34.32-.43.63-.87.96-1.3.32-.44.6-.92,1.01-1.4.04.34-.01.6,0,.86,0,.29,0,.57,0,.86,0,.27,0,.54,0,.81,0,.28,0,.57,0,.86,0,.27,0,.54,0,.81,0,.27,0,.54,0,.81v1.66c0,.27,0,.54,0,.8,0,.29,0,.57,0,.86v.81c0,.28,0,.57,0,.86,0,.26-.04.54.05.8.22.05.43.06.63,0,.09-.51.12-8.22.05-11.65,0-.12-.02-.23-.03-.34"/>
    <path class="cls-1" d="M50.52,115.15c-.99,0-1.98,0-2.97,0-.05,0-.09.03-.13.04-.07.28-.06.28.02.55.16,0,.32.02.49.02.57,0,1.14,0,1.71,0,.11,0,.22.03.37.04.01.96.01,1.9,0,2.82-.09.07-.15.13-.22.17-.75.49-1.55.87-2.4,1.16-.94.31-1.91.4-2.88.21-1.66-.31-2.82-1.26-3.48-2.82-.37-.88-.48-1.81-.47-2.76.02-1.04.25-2.03.77-2.94,1.23-2.15,3.68-2.8,5.6-2.25.64.18,1.2.53,1.7.96.42.36.81.76,1.22,1.13.08.08.18.14.28.22.14-.1.25-.19.41-.31-.17-.24-.3-.43-.45-.62-1.39-1.7-3.15-2.52-5.37-2.18-1.89.29-3.3,1.28-4.19,2.97-.96,1.82-1.02,3.74-.36,5.67.8,2.34,2.86,3.82,5.5,3.74.9-.03,1.76-.24,2.57-.64.53-.25,1.03-.56,1.55-.84.08-.04.17-.06.27-.1.1.47.07.93.19,1.36.19.03.35.07.5-.03.01-.07.03-.12.03-.17,0-1.71,0-3.43,0-5.14,0-.08-.03-.16-.05-.24-.09-.02-.15-.04-.21-.04"/>
    <path class="cls-1" d="M62.27,116.57c-1.07-2.46-2.15-4.92-3.23-7.37-.07-.17-.11-.35-.29-.48-.22-.01-.45-.04-.69.03-.07.15-.14.31-.21.46-.85,1.97-1.69,3.94-2.54,5.92-.75,1.74-1.5,3.48-2.24,5.22-.06.13-.16.25-.1.43.24.01.47.05.73-.05.45-1.06.91-2.14,1.36-3.2.4-.06,6.18-.07,6.8-.02.07.17.16.35.24.53.36.82.71,1.63,1.06,2.45.09.21.21.33.45.31.13-.01.27,0,.48,0-.08-.21-.14-.35-.2-.49-.54-1.25-1.09-2.49-1.63-3.73M55.44,116.84c-.08-.16.04-.29.09-.42.82-1.95,1.65-3.89,2.47-5.83.12-.29.25-.58.38-.87.21.06.21.23.27.36.41.93.82,1.87,1.22,2.81.49,1.14.99,2.27,1.48,3.41.07.16.13.33.2.51-.4.07-5.48.08-6.1.02"/>
    <path class="cls-1" d="M87.85,120.15c-1.78,0-3.56,0-5.34,0-.18,0-.37.05-.53-.08,0-.05-.03-.1-.03-.15,0-1.63,0-3.26,0-4.89,0-.08.04-.15.06-.25.2,0,.38,0,.57,0,1.51,0,3.02,0,4.53,0,.18,0,.37.04.55-.07.02-.18.06-.36-.05-.56h-.55c-1.51,0-3.02,0-4.53,0-.18,0-.37.04-.54-.06-.01-.08-.03-.14-.03-.21,0-1.44,0-2.89,0-4.33,0-.05.03-.09.05-.15.06-.02.12-.04.19-.04.15,0,.3,0,.45,0,1.68,0,3.36,0,5.04,0,.18,0,.37.04.54-.07.03-.19.07-.37-.05-.53-.57-.06-6.58-.04-6.96.01-.1.17-.06.36-.06.54,0,2.33,0,4.67,0,7,0,1.31,0,2.62,0,3.93,0,.18-.05.37.08.55.07,0,.16.02.24.02,2.22,0,4.43,0,6.65,0,.1,0,.19-.02.31-.04.02-.2.07-.38-.06-.58-.17,0-.35-.02-.53-.02"/>
    <path class="cls-1" d="M96.86,115.19c-.23-.16-.48-.31-.73-.44-.38-.18-.76-.35-1.15-.51-.68-.28-1.38-.52-2.06-.81-.42-.18-.82-.38-1.21-.62-.68-.4-.92-1.03-.84-1.8.06-.62.37-1.07.91-1.36.33-.18.68-.28,1.04-.35.73-.14,1.47-.14,2.21-.05.67.08,1.32.21,1.99.32.11.02.23.02.32.02.04-.05.07-.07.08-.1.03-.08.06-.16.11-.29-.12-.06-.21-.1-.3-.14-.52-.19-1.06-.31-1.61-.4-.93-.16-1.87-.22-2.8-.05-.62.11-1.2.31-1.71.69-.44.33-.77.74-.91,1.29-.28,1.09.07,2.1.98,2.75.27.19.57.37.87.5.66.29,1.34.54,2.01.81.51.21,1.03.4,1.54.63.33.15.65.36.95.57.35.25.61.59.69,1.02.17.94,0,1.8-.7,2.51-.46.46-1.02.69-1.64.82-.82.17-1.64.12-2.45-.06-.62-.13-1.23-.32-1.85-.48-.16-.04-.32-.08-.47-.12-.13.13-.22.24-.19.42.54.32,1.12.52,1.72.68,1.04.28,2.1.45,3.18.26.62-.11,1.21-.3,1.73-.64.78-.52,1.28-1.23,1.44-2.16.2-1.2-.14-2.19-1.15-2.91"/>
  </g>
</svg>