<?xml version="1.0" encoding="UTF-8"?>
<svg id="Layer_2" data-name="Layer 2" xmlns="http://www.w3.org/2000/svg" xmlns:xlink="http://www.w3.org/1999/xlink" viewBox="0 0 195.31 73.8">
  <defs>
    <style>
      .cls-1 {
        clip-path: url(#clippath-6);
      }

      .cls-2 {
        clip-path: url(#clippath-7);
      }

      .cls-3 {
        clip-path: url(#clippath-17);
      }

      .cls-4 {
        clip-path: url(#clippath-15);
      }

      .cls-5 {
        clip-path: url(#clippath-4);
      }

      .cls-6 {
        fill: url(#linear-gradient-2);
      }

      .cls-7 {
        mask: url(#mask-1);
      }

      .cls-8 {
        fill: url(#linear-gradient-10);
      }

      .cls-9 {
        fill: #231f20;
      }

      .cls-10 {
        clip-path: url(#clippath-9);
      }

      .cls-11 {
        clip-path: url(#clippath-10);
      }

      .cls-12 {
        mask: url(#mask);
      }

      .cls-13 {
        clip-path: url(#clippath-11);
      }

      .cls-14 {
        fill: none;
      }

      .cls-15 {
        fill: url(#linear-gradient-4);
      }

      .cls-16 {
        mask: url(#mask-2);
      }

      .cls-17 {
        fill: url(#linear-gradient-3);
      }

      .cls-18 {
        clip-path: url(#clippath-1);
      }

      .cls-19 {
        fill: url(#linear-gradient-5);
      }

      .cls-20 {
        isolation: isolate;
      }

      .cls-21 {
        fill: #3a3d43;
      }

      .cls-22 {
        clip-path: url(#clippath-5);
      }

      .cls-23 {
        clip-path: url(#clippath-8);
      }

      .cls-24 {
        fill: url(#linear-gradient-8);
      }

      .cls-25 {
        clip-path: url(#clippath-3);
      }

      .cls-26 {
        clip-path: url(#clippath-12);
      }

      .cls-27 {
        clip-path: url(#clippath-14);
      }

      .cls-28 {
        fill: url(#linear-gradient-7);
      }

      .cls-29 {
        fill: url(#linear-gradient-9);
      }

      .cls-30 {
        fill: url(#linear-gradient-11);
      }

      .cls-31 {
        fill: url(#linear-gradient-6);
      }

      .cls-32 {
        clip-path: url(#clippath-16);
      }

      .cls-33 {
        clip-path: url(#clippath-2);
      }

      .cls-34 {
        clip-path: url(#clippath-13);
      }

      .cls-35 {
        fill: url(#linear-gradient);
      }

      .cls-36 {
        clip-path: url(#clippath);
      }
    </style>
    <clipPath id="clippath">
      <path class="cls-14" d="M149.89.08c-8.04.33-16.11,1.65-24.01,3.92l-2.08,8.77c27.91-10.43,54-.62,54-.62l-.34,1.46-.59,2.55c-.4,1.72-.85,3.41-1.35,5.09-1.75,5.91-4.11,11.59-7.04,16.94-3.02,5.49-6.64,10.64-10.77,15.31-.73.83-1.46,1.61-2.17,2.35,1.21,1.27,2.45,2.51,3.74,3.71l1.92,1.79,1.09,1.02c5.52-6.1,10.25-12.76,14.08-19.84,3.36-6.21,6.05-12.75,7.98-19.45,2.2-7.61,2.91-13.72,3.15-16.98-3.03-1.22-8.83-3.26-16.63-4.64C165.32.49,159.64,0,153.95,0c-1.35,0-2.7.03-4.06.08"/>
    </clipPath>
    <linearGradient id="linear-gradient" x1="-342.31" y1="627.98" x2="-341.31" y2="627.98" gradientTransform="translate(-38800.55 -21171.77) rotate(-90) scale(62.03)" gradientUnits="userSpaceOnUse">
      <stop offset="0" stop-color="#3a3d43"/>
      <stop offset=".01" stop-color="#3a3d43"/>
      <stop offset=".01" stop-color="#3a3d43"/>
      <stop offset=".18" stop-color="#676561"/>
      <stop offset=".35" stop-color="#8c867a"/>
      <stop offset=".51" stop-color="#a99f8d"/>
      <stop offset=".68" stop-color="#beb29b"/>
      <stop offset=".84" stop-color="#cabda4"/>
      <stop offset="1" stop-color="#cfc1a7"/>
      <stop offset="1" stop-color="#cfc1a7"/>
    </linearGradient>
    <clipPath id="clippath-1">
      <path class="cls-14" d="M153.57,9.88c-7.06.19-14.07,1.14-20.83,2.82-7.69,1.9-13.34,4.34-16.28,5.76.45,3.23,1.59,9.27,4.3,16.72,2.39,6.55,5.51,12.89,9.29,18.86,4.31,6.8,9.48,13.13,15.4,18.84l8.64-2.59c-22.99-18.96-27.54-46.45-27.54-46.45l1.43-.44,2.51-.76c1.68-.51,3.38-.97,5.08-1.38,6-1.44,12.1-2.24,18.19-2.37,6.26-.14,12.54.43,18.64,1.67,1.09.22,2.12.46,3.12.7.5-1.68.95-3.38,1.35-5.09l.59-2.55.34-1.46c-7.14-1.54-14.35-2.31-21.51-2.31-.9,0-1.81.01-2.71.04"/>
    </clipPath>
    <linearGradient id="linear-gradient-2" y1="627.98" y2="627.98" gradientTransform="translate(-21263.46 39397.92) rotate(-180) scale(62.67)" xlink:href="#linear-gradient"/>
    <clipPath id="clippath-2">
      <path class="cls-14" d="M162.29,62.37l-1.09-1.02-1.92-1.79c-1.29-1.2-2.53-2.44-3.74-3.71-4.25-4.47-7.99-9.36-11.15-14.57-3.25-5.36-5.89-11.07-7.87-16.98-.35-1.05-.66-2.07-.95-3.05-1.7.41-3.4.87-5.08,1.38l-2.51.76-1.43.44c2.52,7.83,5.93,15.26,10.14,22.11,3.7,6.01,8.02,11.61,12.86,16.63,5.49,5.71,10.42,9.38,13.13,11.22,2.57-2.01,7.24-6.01,12.33-12.09,4.48-5.34,8.41-11.22,11.69-17.47,3.73-7.13,6.63-14.78,8.61-22.76l-6.56-6.19c-4.92,29.39-26.46,47.08-26.46,47.08"/>
    </clipPath>
    <linearGradient id="linear-gradient-3" y1="627.98" y2="627.98" gradientTransform="translate(39304.24 21341.83) rotate(90) scale(62.33)" xlink:href="#linear-gradient"/>
    <clipPath id="clippath-3">
      <path class="cls-14" d="M149.89.08c-8.04.33-16.11,1.65-24.01,3.92l-2.08,8.77c27.91-10.43,54-.62,54-.62l-.34,1.46-.59,2.55c-.4,1.72-.85,3.41-1.35,5.09-1.75,5.91-4.11,11.59-7.04,16.94-3.02,5.49-6.64,10.64-10.77,15.31-.73.83-1.46,1.61-2.17,2.35,1.21,1.27,2.45,2.51,3.74,3.71l1.92,1.79,1.09,1.02c5.52-6.1,10.25-12.76,14.08-19.84,3.36-6.21,6.05-12.75,7.98-19.45,2.2-7.61,2.91-13.72,3.15-16.98-3.03-1.22-8.83-3.26-16.63-4.64C165.32.49,159.64,0,153.95,0c-1.35,0-2.7.03-4.06.08"/>
    </clipPath>
    <clipPath id="clippath-4">
      <path class="cls-14" d="M153.57,9.88c-7.06.19-14.07,1.14-20.83,2.82-7.69,1.9-13.34,4.34-16.28,5.76.45,3.23,1.59,9.27,4.3,16.72,2.39,6.55,5.51,12.89,9.29,18.86,4.31,6.8,9.48,13.13,15.4,18.84l8.64-2.59c-22.99-18.96-27.54-46.45-27.54-46.45l1.43-.44,2.51-.76c1.68-.51,3.38-.97,5.08-1.38,6-1.44,12.1-2.24,18.19-2.37,6.26-.14,12.54.43,18.64,1.67,1.09.22,2.12.46,3.12.7.5-1.68.95-3.38,1.35-5.09l.59-2.55.34-1.46c-7.14-1.54-14.35-2.31-21.51-2.31-.9,0-1.81.01-2.71.04"/>
    </clipPath>
    <linearGradient id="linear-gradient-4" y1="627.98" y2="627.98" gradientTransform="translate(-21263.46 39397.92) rotate(-180) scale(62.67)" xlink:href="#linear-gradient"/>
    <clipPath id="clippath-5">
      <path class="cls-14" d="M162.29,62.37l-1.09-1.02-1.92-1.79c-1.29-1.2-2.53-2.44-3.74-3.71-4.25-4.47-7.99-9.36-11.15-14.57-3.25-5.36-5.89-11.07-7.87-16.98-.35-1.05-.66-2.07-.95-3.05-1.7.41-3.4.87-5.08,1.38l-2.51.76-1.43.44c2.52,7.83,5.93,15.26,10.14,22.11,3.7,6.01,8.02,11.61,12.86,16.63,5.49,5.71,10.42,9.38,13.13,11.22,2.57-2.01,7.24-6.01,12.33-12.09,4.48-5.34,8.41-11.22,11.69-17.47,3.73-7.13,6.63-14.78,8.61-22.76l-6.56-6.19c-4.92,29.39-26.46,47.08-26.46,47.08"/>
    </clipPath>
    <linearGradient id="linear-gradient-5" y1="627.98" y2="627.98" gradientTransform="translate(39304.24 21341.83) rotate(90) scale(62.33)" xlink:href="#linear-gradient"/>
    <clipPath id="clippath-6">
      <path class="cls-14" d="M149.89.08c-8.04.33-16.11,1.65-24.01,3.92l-2.08,8.77c27.91-10.43,54-.62,54-.62l-.34,1.45-.59,2.55c-.4,1.72-.85,3.41-1.34,5.09-1.75,5.92-4.11,11.6-7.04,16.94-3.02,5.49-6.64,10.64-10.77,15.31-.73.83-1.46,1.61-2.17,2.35,1.21,1.27,2.45,2.51,3.74,3.71l1.92,1.79,1.09,1.02c5.52-6.1,10.25-12.76,14.08-19.84,3.36-6.21,6.04-12.75,7.98-19.45,2.2-7.61,2.92-13.72,3.15-16.98-3.03-1.22-8.83-3.26-16.63-4.64C165.32.49,159.64,0,153.94,0c-1.35,0-2.7.03-4.05.08"/>
    </clipPath>
    <clipPath id="clippath-7">
      <rect class="cls-14" x="118.44" y="-5.49" width="74.41" height="73.36" transform="translate(-3.09 30.21) rotate(-10.98)"/>
    </clipPath>
    <linearGradient id="linear-gradient-6" x1="-342.31" y1="627.98" x2="-341.31" y2="627.98" gradientTransform="translate(-38800.68 -21171.86) rotate(-90) scale(62.03)" gradientUnits="userSpaceOnUse">
      <stop offset="0" stop-color="#231f20"/>
      <stop offset=".01" stop-color="#231f20"/>
      <stop offset=".06" stop-color="#373334"/>
      <stop offset=".2" stop-color="#6b6969"/>
      <stop offset=".33" stop-color="#989797"/>
      <stop offset=".47" stop-color="#bdbcbc"/>
      <stop offset=".61" stop-color="#dad9d9"/>
      <stop offset=".74" stop-color="#eee"/>
      <stop offset=".87" stop-color="#fafafa"/>
      <stop offset="1" stop-color="#fff"/>
      <stop offset="1" stop-color="#fff"/>
    </linearGradient>
    <mask id="mask" x="96.03" y="-28.17" width="119.24" height="118.72" maskUnits="userSpaceOnUse">
      <g>
        <rect class="cls-9" x="112.14" y="-11.91" width="87.02" height="86.19"/>
        <g class="cls-20">
          <g class="cls-2">
            <rect class="cls-31" x="104.73" y="-19.4" width="101.83" height="101.18" transform="translate(-3.09 30.21) rotate(-10.98)"/>
          </g>
        </g>
      </g>
    </mask>
    <clipPath id="clippath-8">
      <rect class="cls-14" x="112.14" y="-11.91" width="87.02" height="86.19"/>
    </clipPath>
    <clipPath id="clippath-9">
      <rect class="cls-14" x="118.44" y="-5.49" width="74.41" height="73.36" transform="translate(-3.09 30.21) rotate(-10.98)"/>
    </clipPath>
    <linearGradient id="linear-gradient-7" x1="-342.31" y1="627.98" x2="-341.31" y2="627.98" gradientTransform="translate(-38800.69 -21171.86) rotate(-90) scale(62.03)" gradientUnits="userSpaceOnUse">
      <stop offset="0" stop-color="#cfc1a7"/>
      <stop offset=".01" stop-color="#cfc1a7"/>
      <stop offset="1" stop-color="#cfc1a7"/>
      <stop offset="1" stop-color="#cfc1a7"/>
    </linearGradient>
    <clipPath id="clippath-10">
      <path class="cls-14" d="M153.57,9.88c-7.06.19-14.07,1.14-20.83,2.82-7.69,1.9-13.34,4.33-16.28,5.76.46,3.23,1.59,9.27,4.3,16.72,2.39,6.55,5.51,12.89,9.29,18.86,4.31,6.8,9.48,13.13,15.4,18.84l8.64-2.59c-22.99-18.96-27.54-46.45-27.54-46.45l1.43-.43,2.51-.76c1.68-.52,3.38-.97,5.08-1.38,6-1.44,12.1-2.24,18.19-2.37,6.26-.13,12.54.43,18.64,1.68,1.08.22,2.12.46,3.12.7.5-1.68.95-3.38,1.34-5.09l.59-2.55.34-1.45c-7.14-1.54-14.35-2.31-21.51-2.31-.9,0-1.81.01-2.71.04"/>
    </clipPath>
    <clipPath id="clippath-11">
      <rect class="cls-14" x="103.31" y="-2.55" width="87.65" height="87.81" transform="translate(9.04 106.85) rotate(-41.07)"/>
    </clipPath>
    <linearGradient id="linear-gradient-8" y1="627.98" y2="627.98" gradientTransform="translate(-21263.52 39398.06) rotate(-180) scale(62.67)" xlink:href="#linear-gradient-6"/>
    <mask id="mask-1" x="23.93" y="-81.84" width="246.4" height="246.39" maskUnits="userSpaceOnUse">
      <g>
        <rect class="cls-9" x="85.25" y="-20.53" width="123.77" height="123.78"/>
        <g class="cls-20">
          <g class="cls-13">
            <rect class="cls-24" x="59.81" y="-45.96" width="174.64" height="174.64" transform="translate(9.04 106.85) rotate(-41.07)"/>
          </g>
        </g>
      </g>
    </mask>
    <clipPath id="clippath-12">
      <rect class="cls-14" x="85.25" y="-20.53" width="123.77" height="123.78"/>
    </clipPath>
    <clipPath id="clippath-13">
      <rect class="cls-14" x="103.31" y="-2.55" width="87.65" height="87.81" transform="translate(9.04 106.85) rotate(-41.07)"/>
    </clipPath>
    <linearGradient id="linear-gradient-9" y1="627.98" y2="627.98" gradientTransform="translate(-21263.53 39398.06) rotate(-180) scale(62.67)" xlink:href="#linear-gradient-7"/>
    <clipPath id="clippath-14">
      <path class="cls-14" d="M162.29,62.37l-1.09-1.02-1.92-1.79c-1.29-1.2-2.53-2.44-3.74-3.71-4.25-4.47-7.99-9.35-11.15-14.57-3.25-5.36-5.89-11.07-7.87-16.98-.35-1.05-.66-2.07-.95-3.05-1.7.41-3.4.87-5.08,1.38l-2.51.76-1.43.43c2.52,7.83,5.93,15.26,10.14,22.11,3.7,6.02,8.02,11.61,12.86,16.63,5.49,5.71,10.42,9.38,13.13,11.22,2.57-2.01,7.24-6.01,12.33-12.09,4.48-5.34,8.41-11.22,11.69-17.47,3.73-7.13,6.63-14.77,8.61-22.76l-6.56-6.19c-4.92,29.39-26.46,47.08-26.46,47.08"/>
    </clipPath>
    <clipPath id="clippath-15">
      <rect class="cls-14" x="122.22" y="2.62" width="77.42" height="83.85" transform="translate(67.24 182.77) rotate(-71.34)"/>
    </clipPath>
    <linearGradient id="linear-gradient-10" y1="627.98" y2="627.98" gradientTransform="translate(39304.38 21341.91) rotate(90) scale(62.33)" xlink:href="#linear-gradient-6"/>
    <mask id="mask-2" x="78.46" y="-37.12" width="164.93" height="163.34" maskUnits="userSpaceOnUse">
      <g>
        <rect class="cls-9" x="108.83" y="-5.54" width="104.21" height="100.17"/>
        <g class="cls-20">
          <g class="cls-4">
            <rect class="cls-8" x="96.81" y="-20.84" width="128.25" height="130.78" transform="translate(67.25 182.77) rotate(-71.34)"/>
          </g>
        </g>
      </g>
    </mask>
    <clipPath id="clippath-16">
      <rect class="cls-14" x="108.83" y="-5.54" width="104.21" height="100.17"/>
    </clipPath>
    <clipPath id="clippath-17">
      <rect class="cls-14" x="122.22" y="2.62" width="77.42" height="83.85" transform="translate(67.25 182.78) rotate(-71.35)"/>
    </clipPath>
    <linearGradient id="linear-gradient-11" y1="627.98" y2="627.98" gradientTransform="translate(39304.39 21341.9) rotate(90) scale(62.33)" xlink:href="#linear-gradient-7"/>
  </defs>
  <g id="Layer_1-2" data-name="Layer 1">
    <g class="cls-36">
      <rect class="cls-35" x="118.44" y="-5.49" width="74.41" height="73.36" transform="translate(-3.09 30.21) rotate(-10.98)"/>
    </g>
    <g class="cls-18">
      <rect class="cls-6" x="103.31" y="-2.55" width="87.65" height="87.81" transform="translate(9.04 106.85) rotate(-41.07)"/>
    </g>
    <g class="cls-33">
      <rect class="cls-17" x="122.22" y="2.62" width="77.42" height="83.85" transform="translate(67.25 182.78) rotate(-71.34)"/>
    </g>
    <g class="cls-25">
      <rect class="cls-35" x="118.44" y="-5.49" width="74.41" height="73.36" transform="translate(-3.09 30.21) rotate(-10.98)"/>
    </g>
    <g class="cls-5">
      <rect class="cls-15" x="103.31" y="-2.55" width="87.65" height="87.81" transform="translate(9.04 106.85) rotate(-41.07)"/>
    </g>
    <g class="cls-22">
      <rect class="cls-19" x="122.22" y="2.62" width="77.42" height="83.85" transform="translate(67.25 182.78) rotate(-71.34)"/>
    </g>
    <path class="cls-21" d="M35.71,48.93l1.18-3.64h7l1.25,3.74c.04.12.09.23.14.3.06.08.16.14.3.18.14.04.35.07.63.09.27.01.65.02,1.14.02s.84-.01,1.11-.04.45-.09.56-.19c.1-.1.14-.25.12-.45-.03-.2-.1-.48-.22-.82l-5.76-16.51c-.06-.18-.13-.33-.21-.43-.08-.1-.22-.18-.4-.24-.19-.05-.45-.08-.79-.1s-.79-.02-1.35-.02c-.49,0-.88,0-1.18.02s-.53.05-.7.1c-.17.06-.29.13-.37.23s-.14.23-.2.4l-5.74,16.53c-.11.34-.19.6-.22.81-.03.2,0,.36.1.47.1.11.27.18.52.21.25.03.6.04,1.04.04.41,0,.75,0,1-.03.25-.02.45-.05.59-.11.14-.05.24-.12.3-.22.06-.09.11-.2.15-.34M40.36,34.47h.01l2.63,7.92h-5.28l2.64-7.92Z"/>
    <path class="cls-21" d="M71.44,49.63c.35,0,.65-.01.88-.04.23-.03.42-.07.55-.11.14-.05.24-.11.29-.19.05-.08.08-.16.08-.26v-16.6c0-.24-.03-.45-.09-.64-.06-.19-.15-.35-.27-.47-.12-.13-.27-.23-.46-.3-.19-.07-.41-.1-.67-.1h-2.55c-.36,0-.67.04-.94.11-.27.07-.5.2-.7.37-.2.17-.37.4-.52.68-.15.28-.29.62-.41,1.02l-4.18,11.07h-.06l-4.03-11.1c-.12-.4-.25-.74-.4-1.01-.15-.27-.35-.49-.58-.66-.23-.17-.5-.29-.82-.36-.32-.07-.7-.11-1.14-.11h-2.48c-.43,0-.78.13-1.04.39-.26.26-.39.63-.39,1.12v16.6c0,.1.03.18.08.26.05.08.15.14.29.19.14.05.33.09.55.11.23.03.52.04.86.04s.64-.01.87-.04c.23-.03.41-.07.55-.11.14-.05.24-.11.3-.19.05-.08.08-.16.08-.26v-15.16h.03l5.21,15.15c.03.11.09.2.17.27.09.08.2.14.35.2.15.05.34.09.57.11.23.02.51.04.83.04s.61,0,.83-.02c.23-.01.42-.04.57-.09.15-.05.27-.11.35-.2.09-.08.15-.18.19-.31l5.4-15.15h.03v15.16c0,.1.03.18.09.26.06.08.15.14.29.19.13.05.32.09.55.11.23.03.52.04.86.04"/>
    <path class="cls-21" d="M25.91,49.28c.06.08.16.14.3.19.14.05.33.09.58.12.24.03.55.04.93.04s.67-.01.91-.04c.24-.03.43-.07.58-.12.15-.05.25-.11.31-.19.06-.08.09-.16.09-.26v-17.59c0-.1-.03-.18-.09-.26-.06-.08-.16-.14-.31-.19-.14-.05-.34-.09-.58-.11-.24-.03-.54-.04-.91-.04s-.68.02-.93.04c-.24.03-.44.07-.58.11-.14.05-.24.11-.3.19-.06.08-.09.16-.09.26v6.84h-6.97v-6.84c0-.1-.03-.18-.09-.26-.06-.08-.16-.14-.3-.19-.14-.05-.33-.09-.57-.11-.24-.03-.55-.04-.92-.04s-.67.02-.92.04c-.24.03-.44.07-.58.11-.14.05-.25.11-.31.19-.06.08-.1.16-.1.26v17.59c0,.1.03.18.1.26.06.08.17.14.31.19.14.05.34.09.58.12.24.03.55.04.92.04s.68-.01.92-.04c.24-.03.43-.07.57-.12.14-.05.24-.11.3-.19.06-.08.09-.16.09-.26v-7.53h6.97v7.53c0,.1.03.18.09.26"/>
    <path class="cls-21" d="M.35,48.43c.12.12.33.27.61.43.28.16.64.32,1.06.47.42.15.91.28,1.46.38.55.11,1.15.16,1.79.16.95,0,1.84-.12,2.68-.37.83-.25,1.57-.62,2.19-1.12.62-.49,1.12-1.11,1.48-1.85.36-.74.55-1.6.55-2.58,0-.75-.11-1.4-.35-1.95-.23-.55-.53-1.03-.91-1.44-.38-.41-.8-.76-1.28-1.05-.48-.29-.97-.55-1.47-.79-.5-.23-.99-.45-1.47-.65-.48-.21-.91-.43-1.29-.66-.38-.23-.68-.5-.91-.8-.23-.3-.34-.66-.34-1.07,0-.28.05-.54.15-.79.1-.25.25-.46.46-.64.21-.18.46-.32.77-.42.31-.1.67-.15,1.08-.15.53,0,1.01.06,1.46.19.44.13.83.27,1.16.43.34.16.62.3.85.44.23.13.4.2.5.2s.19-.03.25-.09c.06-.06.11-.15.14-.27.03-.12.06-.28.07-.48.01-.19.02-.43.02-.7,0-.25,0-.46-.01-.63-.01-.17-.03-.31-.05-.42-.03-.11-.05-.2-.09-.27-.03-.07-.1-.15-.19-.24-.1-.1-.29-.22-.59-.36-.3-.15-.64-.28-1.02-.39-.39-.11-.8-.21-1.24-.27-.44-.07-.88-.1-1.32-.1-.86,0-1.66.11-2.43.33-.76.22-1.43.55-1.99,1-.56.45-1.01,1.01-1.34,1.68-.33.68-.5,1.46-.5,2.36,0,.78.11,1.44.34,2,.23.56.53,1.04.9,1.45.37.41.79.76,1.26,1.05.47.29.96.55,1.45.78.5.23.98.45,1.45.66.47.21.89.43,1.26.66.37.23.67.5.9.8.23.3.35.66.35,1.09,0,.36-.07.7-.2.99-.14.3-.33.55-.58.75s-.56.36-.93.47c-.37.11-.78.16-1.24.16-.7,0-1.32-.08-1.85-.24-.53-.16-.99-.33-1.38-.53-.38-.19-.7-.37-.94-.53-.24-.16-.43-.24-.57-.24-.1,0-.18.03-.25.08-.07.05-.13.14-.17.27s-.07.29-.09.49c-.02.2-.03.45-.03.75,0,.44.03.78.08,1.02.05.23.14.42.27.54"/>
    <path class="cls-21" d="M101.78,46.75c-.05-.12-.11-.21-.18-.26-.07-.05-.16-.08-.25-.08h-5.86v-14.99c0-.1-.03-.18-.09-.26-.06-.08-.17-.14-.31-.19-.14-.05-.34-.09-.58-.11-.24-.03-.55-.04-.92-.04s-.67.02-.91.04-.44.07-.58.11c-.14.05-.25.11-.31.19-.06.08-.09.16-.09.26v16.92c0,.42.11.73.32.91.21.19.48.28.8.28h8.54c.1,0,.18-.03.25-.09.07-.06.13-.15.18-.28.05-.13.08-.29.11-.49.02-.2.04-.44.04-.73s-.01-.53-.04-.73c-.02-.2-.06-.35-.11-.48"/>
    <path class="cls-21" d="M87.72,33.88c.09,0,.16-.03.23-.08.07-.05.12-.14.17-.25.05-.11.08-.27.11-.45.02-.19.04-.41.04-.68,0-.29-.01-.53-.04-.71-.02-.19-.06-.34-.11-.46s-.11-.2-.17-.25c-.07-.05-.14-.07-.23-.07h-9.3c-.32,0-.58.09-.8.28-.21.19-.32.49-.32.91v16.24c0,.42.11.73.32.91.21.19.48.28.8.28h9.36c.09,0,.17-.03.24-.08.07-.05.13-.14.18-.25.05-.11.08-.27.11-.45.02-.19.04-.42.04-.7s-.01-.51-.04-.7c-.02-.19-.06-.34-.11-.45-.05-.12-.11-.2-.18-.25-.07-.05-.15-.08-.24-.08h-6.71v-5.26h5.63c.09,0,.16-.02.24-.07.07-.05.13-.13.18-.24.05-.11.08-.26.11-.44.02-.18.04-.41.04-.69s-.01-.5-.04-.68c-.02-.19-.06-.34-.11-.45-.05-.11-.11-.19-.18-.24-.07-.05-.15-.08-.24-.08h-5.63v-4.55h6.65Z"/>
    <path class="cls-21" d="M91.32,4.42c.3.25.55.41.75.48.19.07.35.1.48.1.23,0,.45-.1.65-.31.21-.2.41-.46.61-.78.19-.28.32-.53.4-.73.07-.2.11-.38.11-.53,0-.25-.08-.49-.25-.73-.17-.23-.41-.47-.73-.71-.31-.24-.55-.4-.74-.47-.19-.07-.35-.1-.47-.1-.24,0-.47.1-.7.3-.22.2-.42.45-.6.76-.18.28-.3.53-.37.74-.07.21-.1.4-.1.57,0,.22.08.45.25.69.17.24.4.48.71.72"/>
    <path class="cls-21" d="M89.67,8.8c.3.24.55.4.75.47.19.07.36.1.5.1.23,0,.45-.1.65-.3.21-.2.41-.46.61-.79.18-.28.3-.53.38-.73.07-.2.11-.38.11-.54,0-.24-.08-.48-.25-.71-.17-.23-.4-.47-.69-.71-.32-.24-.57-.4-.77-.47-.19-.07-.35-.11-.48-.11-.24,0-.47.1-.68.29-.21.2-.4.45-.58.77-.19.28-.32.53-.39.73-.07.21-.1.4-.1.58,0,.21.09.44.26.69.17.25.4.49.69.73"/>
    <path class="cls-21" d="M93.36,5.84c-.18.31-.3.56-.37.76-.07.2-.1.38-.1.55,0,.21.08.44.25.69.17.25.39.5.68.73.32.24.57.4.77.47.2.07.36.1.49.1.23,0,.45-.1.65-.29.2-.19.4-.45.59-.76.2-.31.34-.56.41-.76.07-.2.11-.38.11-.54,0-.24-.09-.48-.26-.71-.17-.23-.41-.47-.72-.71-.31-.23-.55-.38-.74-.46-.19-.07-.35-.11-.49-.11-.25,0-.48.09-.69.28-.21.19-.4.44-.58.76"/>
    <path class="cls-21" d="M54.99,15.27c.15,1.92.63,3.33,1.46,4.22.83.89,1.99,1.33,3.49,1.33h0s0,0,0,0h21.1s0,0,0,0c.51,0,1.02-.03,1.54-.09.52-.06,1.02-.16,1.49-.29.47-.13.91-.3,1.3-.51.39-.21.72-.46.97-.76h.08c0,.1.02.22.06.36.04.15.13.29.25.43.13.14.3.26.54.36.23.1.54.15.93.15.48,0,.99-.03,1.53-.09s1.06-.17,1.58-.33c.52-.16,1-.37,1.45-.62.45-.26.84-.58,1.17-.97.28.28.63.55,1.03.81.4.26.82.48,1.26.67.44.19.88.34,1.32.46.44.11.83.17,1.17.17.41,0,.8-.16,1.17-.48.37-.32.7-.75.98-1.29.28-.54.51-1.15.67-1.85.16-.7.24-1.43.24-2.18,0-.4-.03-.8-.08-1.19-.05-.4-.12-.77-.2-1.12-.08-.35-.17-.68-.26-.97-.09-.29-.18-.55-.27-.76-.07-.17-.17-.25-.3-.25-.12,0-.24.07-.39.2-.14.13-.34.38-.61.75-.32.39-.53.72-.65.98-.11.27-.17.48-.17.62,0,.06.04.18.14.34.09.16.18.36.28.58.1.23.19.47.28.74.09.27.13.53.13.8,0,.24-.03.44-.09.59-.06.15-.13.27-.21.36-.08.08-.18.14-.29.17-.11.03-.21.05-.31.05-.21,0-.47-.04-.77-.13-.3-.09-.61-.22-.92-.39-.31-.17-.6-.37-.88-.61-.27-.24-.48-.5-.61-.8.04-.16.09-.35.15-.58.06-.23.11-.46.16-.7.05-.24.09-.47.13-.71.04-.24.05-.44.05-.62,0-.1-.06-.18-.17-.24-.12-.05-.36-.08-.73-.08s-.61.03-.73.09c-.12.06-.19.13-.21.23-.05.19-.11.4-.18.63-.07.23-.15.46-.24.69-.09.23-.19.46-.29.68-.11.22-.22.41-.35.58-.17.25-.39.48-.65.68-.27.2-.56.37-.88.5-.32.13-.66.23-1.01.3-.35.07-.7.1-1.03.1-.27,0-.49-.05-.65-.16-.16-.11-.24-.29-.24-.53,0-.08.04-.25.13-.5.08-.25.18-.53.28-.84.1-.3.2-.61.29-.91.08-.3.13-.54.13-.73,0-.12-.09-.2-.28-.26-.19-.06-.44-.09-.77-.09-.3,0-.51.02-.62.07-.11.05-.18.12-.2.21-.18.52-.38.99-.61,1.42-.23.43-.48.78-.75,1.06-.58.58-1.3.99-2.18,1.24-.87.25-1.8.38-2.77.38h-21.11s-.01,0-.02,0h0c-.51,0-.94-.08-1.29-.22-.17-.07-.32-.16-.46-.27,0,0,0,0-.02-.01-.05-.04-.09-.09-.14-.14-.19-.2-.35-.45-.48-.74-.19-.44-.28-.96-.32-1.58-.05-.74.02-11.53-.08-13.46-.02-.15-.12-.22-.3-.22-.13,0-.3.1-.53.29-.23.2-.47.43-.72.72-.37.4-.65.75-.85,1.05-.2.3-.3.6-.3.89.13,2.1.1,7.5.14,11.28.03.35.05.7.08,1.03"/>
    <path class="cls-21" d="M1.4,25.82c.5.57,1.15,1.02,1.96,1.35.8.33,1.8.5,2.99.5.76,0,1.51-.08,2.26-.24.75-.16,1.46-.39,2.14-.69.68-.29,1.31-.65,1.89-1.07.58-.41,1.09-.87,1.52-1.36.25-.38.45-.74.59-1.1.14-.35.26-.66.36-.92.03-.21.06-.45.1-.72.03-.27.06-.55.08-.84.02-.28.04-.55.06-.8.02-.25.02-.46.02-.61h.2c.15.44.44.8.88,1.09.43.28.96.42,1.59.43,0,0,0,0,0,0h20.9s0,0,0,0c.83,0,1.59-.22,2.29-.67.7-.45,1.28-1.13,1.73-2.06.52.4,1.06.75,1.62,1.05.55.3,1.08.55,1.6.75.52.2,1,.35,1.45.46.45.11.85.16,1.18.16.37,0,.72-.17,1.06-.51.33-.34.62-.78.87-1.3.22-.44.39-.91.51-1.4.12-.49.18-.97.17-1.44,0-.38-.04-.74-.13-1.08-.08-.34-.19-.76-.32-1.25-.16-.58-.35-1.12-.58-1.62-.23-.5-.49-.94-.8-1.32-.3-.37-.65-.67-1.04-.88s-.83-.32-1.31-.32-.89.09-1.29.26c-.39.17-.75.4-1.08.69-.33.29-.63.62-.91,1-.28.38-.53.78-.77,1.2-.23.42-.45.85-.65,1.28-.2.43-.39.84-.57,1.23-.27.56-.66.97-1.17,1.23-.51.26-1.03.39-1.57.39h-20.9c-.57,0-1.02-.12-1.36-.36-.34-.24-.6-.58-.79-1.03-.19-.44-.28-.96-.32-1.58-.05-.74.02-11.53-.08-13.46-.02-.15-.12-.22-.3-.22-.13,0-.3.1-.53.29-.23.2-.47.43-.72.72-.37.4-.65.75-.85,1.05-.2.3-.3.6-.3.89.15,2.39.06,12.63.13,15.34.01.42,0,.84,0,1.25s-.01.83-.03,1.28c-.25.37-.59.71-1.03,1.03-.43.32-.91.6-1.45.84-.54.24-1.11.43-1.71.57-.6.14-1.21.21-1.81.21-.78,0-1.45-.11-2-.33s-1.02-.52-1.39-.91c-.37-.38-.64-.83-.81-1.35-.17-.52-.26-1.06-.26-1.64,0-.44.05-.87.16-1.29.11-.42.23-.79.36-1.14.13-.34.25-.64.36-.89.11-.25.16-.44.16-.57,0-.15-.06-.25-.16-.29-.11-.05-.31-.07-.61-.07-.23,0-.42,0-.58.02-.15.02-.28.05-.39.09-.11.05-.2.12-.27.21-.07.09-.15.21-.22.35-.21.4-.41.83-.6,1.29-.19.46-.36.93-.51,1.42-.15.49-.26.99-.35,1.5C.04,20.39,0,20.9,0,21.4c0,.85.11,1.66.32,2.42.21.76.57,1.43,1.07,1.99M45.2,13.37c.29-.27.64-.41,1.02-.41.35,0,.66.09.94.27.28.18.52.4.73.67.2.27.37.56.49.88s.2.62.23.91c.02.12.04.23.06.34.02.11.02.21,0,.31-.02.08-.04.15-.05.2-.02.05-.06.08-.13.09-.24-.02-.54-.1-.89-.24-.35-.14-.72-.31-1.1-.51-.38-.2-.75-.43-1.1-.67-.36-.24-.66-.48-.9-.71.18-.47.42-.85.71-1.12"/>
    <path class="cls-21" d="M1.72,68.09H.37c-.2,0-.37.09-.37.37v4.89c0,.28.16.37.37.37h1.24c1.85,0,2.85-1,2.85-2.89s-.9-2.73-2.74-2.73M1.68,72.77h-.6v-3.74h.71c1.08,0,1.59.61,1.59,1.82s-.52,1.92-1.7,1.92"/>
    <path class="cls-21" d="M7.64,67.99c-1.71,0-2.4,1.41-2.4,2.9,0,1.75.85,2.9,2.4,2.9s2.39-1.15,2.39-2.9c0-1.49-.68-2.9-2.39-2.9M7.64,72.92c-.86,0-1.32-.75-1.32-2.03s.46-2.04,1.32-2.04,1.32.76,1.32,2.04-.46,2.03-1.32,2.03"/>
    <path class="cls-21" d="M15.21,68.09h-.34c-.2,0-.37.09-.37.37v1.87h-2.29v-1.87c0-.28-.17-.37-.37-.37h-.35c-.2,0-.37.09-.37.37v4.88c0,.28.17.37.37.37h.35c.2,0,.37-.09.37-.37v-2.05h2.29v2.05c0,.28.16.37.37.37h.34c.2,0,.37-.09.37-.37v-4.88c0-.28-.16-.37-.37-.37"/>
    <path class="cls-21" d="M19.74,68.44c-.09-.27-.26-.35-.48-.35h-.73c-.22,0-.39.08-.48.35l-1.48,4.91c-.09.32.08.35.27.35h.43c.22,0,.3-.08.38-.35l.31-1.13h1.82l.31,1.13c.08.27.16.35.38.35h.48c.19,0,.35-.03.26-.35l-1.48-4.91ZM18.22,71.33l.65-2.35h.02l.65,2.35h-1.31Z"/>
    <path class="cls-21" d="M24.88,68.09h-.34c-.2,0-.37.09-.37.37v4.88c0,.28.16.37.37.37h.34c.2,0,.37-.09.37-.37v-4.88c0-.28-.16-.37-.37-.37"/>
    <path class="cls-21" d="M27.48,69.53c0-.43.36-.67.84-.67.4,0,.68.14.89.43.12.18.21.3.42.23l.33-.12c.32-.11.27-.28.17-.45-.34-.65-.95-.96-1.82-.96-1.09,0-1.87.6-1.87,1.54,0,2.09,2.97,1.4,2.97,2.64,0,.49-.41.75-.97.75-.52,0-.85-.2-1.04-.59-.09-.19-.15-.34-.43-.25l-.37.12c-.34.1-.28.27-.2.45.37.81,1.01,1.15,1.97,1.15,1.2,0,2.05-.59,2.05-1.71,0-2.07-2.94-1.42-2.94-2.57"/>
    <path class="cls-21" d="M34.6,72.8h-2v-4.34c0-.28-.17-.37-.37-.37h-.34c-.2,0-.37.09-.37.37v4.88c0,.28.16.37.37.37h2.72c.28,0,.37-.16.37-.37v-.17c0-.2-.09-.37-.37-.37"/>
    <path class="cls-21" d="M38.6,68.44c-.09-.27-.26-.35-.48-.35h-.73c-.22,0-.39.08-.48.35l-1.48,4.91c-.09.32.08.35.27.35h.43c.22,0,.3-.08.38-.35l.31-1.13h1.82l.31,1.13c.08.27.16.35.38.35h.48c.19,0,.35-.03.26-.35l-1.48-4.91ZM37.09,71.33l.65-2.35h.02l.65,2.35h-1.31Z"/>
    <path class="cls-21" d="M46.21,68.09h-.75c-.22,0-.39.08-.48.35l-1.16,3.85h-.02l-1.12-3.85c-.08-.27-.25-.35-.47-.35h-.77c-.2,0-.37.09-.37.37v4.88c0,.28.16.37.37.37h.26c.2,0,.37-.09.37-.37v-3.9h.02l1.18,3.91c.06.2.17.35.39.35h.32c.22,0,.33-.15.39-.35l1.17-3.91h.02v3.9c0,.28.17.37.37.37h.27c.2,0,.37-.09.37-.37v-4.88c0-.28-.16-.37-.37-.37"/>
    <path class="cls-21" d="M48.68,68.09h-.34c-.2,0-.37.09-.37.37v4.88c0,.28.17.37.37.37h.34c.2,0,.37-.09.37-.37v-4.88c0-.28-.16-.37-.37-.37"/>
    <path class="cls-21" d="M54.31,71.98l-.29-.07c-.34-.08-.39,0-.51.26-.24.52-.6.72-1.06.72-.81,0-1.23-.66-1.23-2.04,0-1.26.48-1.97,1.25-1.97.44,0,.77.18.98.66.1.23.21.32.52.27l.26-.05c.35-.06.29-.23.23-.41-.3-.96-.95-1.35-1.97-1.35-1.44,0-2.35,1.03-2.35,2.86s.79,2.95,2.28,2.95c.93,0,1.7-.3,2.11-1.39.07-.18.11-.34-.23-.42"/>
    <path class="cls-21" d="M58.31,68.09h-.34c-.2,0-.37.09-.37.37v4.88c0,.28.17.37.37.37h.34c.2,0,.37-.09.37-.37v-4.88c0-.28-.16-.37-.37-.37"/>
    <path class="cls-21" d="M64.19,68.09h-.27c-.2,0-.37.09-.37.37v3.39h-.02l-1.93-3.43c-.11-.2-.21-.32-.43-.32h-.72c-.2,0-.37.09-.37.37v4.88c0,.28.17.37.37.37h.28c.2,0,.37-.09.37-.37v-3.74h.02l2.2,3.8c.11.19.21.31.43.31h.45c.2,0,.37-.09.37-.37v-4.88c0-.28-.16-.37-.37-.37"/>
    <path class="cls-21" d="M66.78,69.53c0-.43.36-.67.84-.67.4,0,.68.14.89.43.12.18.21.3.42.23l.33-.12c.32-.11.27-.28.17-.45-.34-.65-.95-.96-1.82-.96-1.09,0-1.87.6-1.87,1.54,0,2.09,2.97,1.4,2.97,2.64,0,.49-.41.75-.97.75-.52,0-.85-.2-1.04-.59-.09-.19-.15-.34-.43-.25l-.37.12c-.34.1-.28.27-.2.45.37.81,1.01,1.15,1.97,1.15,1.2,0,2.05-.59,2.05-1.71,0-2.07-2.94-1.42-2.94-2.57"/>
    <path class="cls-21" d="M74.86,68.09h-.34c-.2,0-.37.09-.37.37v3.18c0,.85-.42,1.25-1.18,1.25s-1.11-.41-1.11-1.25v-3.18c0-.28-.16-.37-.37-.37h-.35c-.2,0-.37.09-.37.37v2.98c0,1.49.56,2.36,2.17,2.36s2.29-.88,2.29-2.36v-2.98c0-.28-.16-.37-.37-.37"/>
    <path class="cls-21" d="M79.71,71.15c.6-.24.98-.71.98-1.45,0-1.07-.7-1.62-2.18-1.62h-1.55c-.2,0-.37.09-.37.37v4.88c0,.28.16.37.37.37h.34c.2,0,.37-.09.37-.37v-1.89h1.05l.87,1.92c.09.2.23.34.45.34h.54c.17,0,.35-.05.21-.33l-1.07-2.22ZM78.51,70.57h-.85v-1.58h.9c.47,0,1.03.09,1.03.78s-.68.8-1.09.8"/>
    <path class="cls-21" d="M84.67,68.44c-.09-.27-.26-.35-.48-.35h-.73c-.22,0-.39.08-.48.35l-1.48,4.91c-.09.32.08.35.27.35h.43c.22,0,.3-.08.38-.35l.31-1.13h1.82l.31,1.13c.08.27.16.35.38.35h.48c.19,0,.35-.03.26-.35l-1.48-4.91ZM83.15,71.33l.65-2.35h.02l.65,2.35h-1.31Z"/>
    <path class="cls-21" d="M91.25,68.09h-.27c-.2,0-.37.09-.37.37v3.39h-.01l-1.93-3.43c-.11-.2-.21-.32-.43-.32h-.72c-.2,0-.37.09-.37.37v4.88c0,.28.17.37.37.37h.28c.2,0,.37-.09.37-.37v-3.74h.02l2.2,3.8c.11.19.21.31.43.31h.45c.2,0,.37-.09.37-.37v-4.88c0-.28-.16-.37-.37-.37"/>
    <path class="cls-21" d="M96.87,71.98l-.29-.07c-.34-.08-.39,0-.51.26-.24.52-.6.72-1.06.72-.81,0-1.23-.66-1.23-2.04,0-1.26.48-1.97,1.25-1.97.44,0,.77.18.98.66.1.23.21.32.52.27l.26-.05c.35-.06.29-.23.23-.41-.3-.96-.95-1.35-1.97-1.35-1.44,0-2.35,1.03-2.35,2.86s.79,2.95,2.28,2.95c.93,0,1.7-.3,2.11-1.39.07-.18.11-.34-.23-.42"/>
    <path class="cls-21" d="M101.56,72.8h-2.27v-1.55h1.46c.28,0,.37-.17.37-.37v-.14c0-.2-.09-.37-.37-.37h-1.46v-1.38h2.18c.28,0,.37-.17.37-.37v-.17c0-.2-.09-.37-.37-.37h-2.9c-.2,0-.37.09-.37.37v4.88c0,.28.16.37.37.37h2.98c.28,0,.37-.16.37-.37v-.17c0-.2-.09-.37-.37-.37"/>
    <path class="cls-21" d="M2.07,65.39c-.09-.07-.16-.11-.21-.13-.05-.02-.1-.03-.14-.03-.07,0-.13.03-.19.08-.06.05-.11.12-.16.21-.05.08-.09.15-.11.21-.02.06-.03.11-.03.16,0,.06.02.12.07.19.05.07.11.14.19.21.08.07.15.11.21.13.05.02.1.03.14.03.06,0,.12-.03.18-.08.06-.05.11-.13.17-.22.05-.08.08-.15.1-.2.02-.05.03-.11.03-.15,0-.07-.02-.13-.07-.2-.05-.06-.11-.13-.19-.2"/>
    <path class="cls-21" d="M3.23,65.32c-.09-.06-.15-.11-.21-.13-.05-.02-.1-.03-.14-.03-.07,0-.14.03-.19.08-.06.05-.11.12-.16.21-.05.09-.08.16-.1.21-.02.06-.03.11-.03.16,0,.06.02.12.07.19.05.07.11.14.19.2.09.07.16.11.22.13.05.02.1.03.14.03.06,0,.13-.03.18-.08.06-.05.11-.12.17-.21.06-.09.09-.16.11-.21.02-.05.03-.11.03-.15,0-.07-.02-.13-.07-.2-.05-.06-.11-.13-.2-.2"/>
    <path class="cls-21" d="M38.92,59.98c.09.07.16.11.22.13.06.02.1.03.14.03.07,0,.12-.03.18-.08.06-.05.11-.12.17-.21.05-.08.09-.16.11-.21.02-.05.03-.11.03-.15,0-.07-.02-.13-.07-.2-.05-.07-.11-.13-.2-.2-.08-.06-.15-.11-.21-.13-.05-.02-.1-.03-.14-.03-.07,0-.14.03-.2.08-.06.05-.11.12-.16.21-.05.09-.08.16-.1.21-.02.06-.03.11-.03.15,0,.06.02.12.07.19.05.07.11.14.19.2"/>
    <path class="cls-21" d="M42.58,63.87c-.09-.07-.16-.11-.21-.13-.05-.02-.1-.03-.14-.03-.07,0-.13.03-.19.08-.06.05-.11.12-.16.21-.05.08-.09.15-.11.21-.02.06-.03.11-.03.16,0,.06.02.12.07.19.05.07.11.14.19.21.08.07.15.11.21.13.05.02.1.03.14.03.06,0,.12-.03.18-.08.06-.06.11-.13.17-.22.05-.08.08-.15.1-.2.02-.05.03-.11.03-.15,0-.07-.02-.13-.07-.2-.05-.06-.11-.13-.19-.2"/>
    <path class="cls-21" d="M43.74,63.8c-.09-.06-.15-.11-.21-.13-.05-.02-.1-.03-.14-.03-.07,0-.14.03-.19.08-.06.05-.11.12-.16.21-.05.09-.08.16-.1.21-.02.06-.03.11-.03.16,0,.06.02.12.07.19.05.07.11.14.19.2.09.07.16.11.22.13.05.02.1.03.14.03.06,0,.13-.03.18-.08.06-.05.11-.12.17-.21.06-.09.09-.16.11-.21.02-.05.03-.11.03-.15,0-.07-.02-.13-.07-.2-.05-.06-.11-.13-.2-.2"/>
    <path class="cls-21" d="M61.81,59.43c.08.07.15.11.21.13.05.02.1.03.14.03.06,0,.13-.03.18-.08.06-.06.11-.13.17-.22.05-.08.08-.15.11-.2.02-.05.03-.11.03-.15,0-.07-.02-.13-.07-.2-.05-.07-.11-.13-.19-.2-.09-.07-.16-.11-.21-.13-.05-.02-.1-.03-.13-.03-.07,0-.13.03-.19.08-.06.05-.11.12-.16.21-.05.08-.09.15-.11.21-.02.06-.03.11-.03.16,0,.06.02.12.07.19.05.07.11.14.19.2"/>
    <path class="cls-21" d="M62.97,59.36c.09.07.16.11.22.13.06.02.1.03.14.03.07,0,.12-.03.18-.08.06-.05.11-.12.17-.21.05-.08.09-.16.11-.21.02-.05.03-.11.03-.15,0-.07-.02-.13-.07-.2-.05-.07-.11-.13-.2-.2-.09-.07-.15-.11-.21-.13-.05-.02-.1-.03-.14-.03-.07,0-.14.03-.2.08-.06.05-.11.12-.16.21-.05.09-.08.16-.1.21-.02.06-.03.11-.03.15,0,.06.02.12.07.19.05.07.11.14.19.2"/>
    <path class="cls-21" d="M71.13,57.53c.08.07.15.11.21.13.05.02.1.03.14.03.06,0,.12-.03.18-.08.06-.06.11-.13.17-.22.05-.08.08-.15.11-.2.02-.05.03-.11.03-.15,0-.07-.02-.13-.07-.2-.05-.07-.11-.13-.19-.2-.09-.07-.16-.11-.21-.13-.05-.02-.1-.03-.13-.03-.07,0-.13.03-.19.08-.06.05-.11.12-.16.21-.05.08-.09.15-.11.21-.02.06-.03.11-.03.16,0,.06.02.12.07.19.05.07.11.14.19.2"/>
    <path class="cls-21" d="M72.29,57.46c.09.07.16.11.22.13.06.02.1.03.14.03.07,0,.12-.03.18-.08.06-.05.11-.12.17-.21.05-.08.09-.16.11-.21.02-.05.03-.11.03-.15,0-.07-.02-.13-.07-.2-.05-.07-.11-.13-.2-.2-.08-.07-.15-.11-.21-.13-.05-.02-.1-.03-.14-.03-.07,0-.14.03-.2.08-.06.05-.11.12-.16.21-.05.09-.08.16-.1.21-.02.06-.03.11-.03.15,0,.06.02.12.07.19.05.07.11.14.19.2"/>
    <path class="cls-21" d="M100.27,56.64s-.09.03-.15.08c-.07.05-.13.12-.2.2-.1.11-.19.21-.24.3-.06.08-.08.17-.08.25.02.36.03,1.62.03,2.6,0,.16,0,.32,0,.49,0,.32,0,.48-.1.59-.17.17-.46.24-.84.24h-.06c-.47,0-.79-.31-.91-.98-.21-1.16-.36-1.84-.51-2.38l-.1-.03c-.21.27-.39.53-.54.81.3.83.51,1.75.51,1.98,0,.18-.15.3-.37.39-.31.14-.6.21-.87.21-.5,0-.73-.27-.75-.73l-.39.04c-.01.21-.01.39-.01.5,0,1.01.43,1.38,1.05,1.38.52,0,.93-.15,1.27-.42.13-.1.24-.27.33-.58h.02c.2.7.61.95,1.14.99h0s.02,0,.03,0h.17c.53,0,.88-.19,1.11-.5.12-.19.24-.36.32-.58.13-.38.26-.85.26-1.38v-.06c0-1.01,0-2.98-.02-3.36,0-.04-.03-.06-.08-.06"/>
    <path class="cls-21" d="M7.87,59.23c-.27,0-.53.11-.78.35-.58.54-.47,1.37-.94,1.66-.15.09-.33.15-.51.15h-2.24l-.56.97.08.11c.88.04,1.5.15,1.73.4-.75.52-1.5.71-2.24.71-1.04,0-1.79-.59-1.79-1.8,0-.35.12-.81.37-1.38l-.33-.16c-.41.79-.66,1.56-.66,2.28,0,1.43.85,2.29,2.21,2.29.83,0,1.9-.35,2.74-1.09.19-.34.31-.64.31-.86,0-.1,0-.2-.02-.29h.39c.48,0,.81-.26.98-.7h.02c.53.42,1.11.65,1.57.65.79,0,1-1.04,1-1.13,0-.66-.33-2.17-1.32-2.17M8.36,61.4c-.46,0-.93-.22-1.39-.63.16-.32.38-.51.69-.51.4,0,.75.43.88,1.09,0,.04-.07.05-.18.05"/>
    <path class="cls-21" d="M29.58,59.58l-.08-.04c-.24.23-.45.46-.65.69.1.31.16.67.22,1.03-.04.08-.15.11-.29.11-.17,0-.31-.07-.44-.2-.12-.13-.17-.29-.17-.47s.03-.37.09-.57l-.05-.04c-.14.08-.29.17-.44.28-.1.37-.12.71-.5.9-.13.07-.26.11-.4.11-.14,0-.27-.09-.27-.28,0-.17.14-.45.37-.79l-.04-.07c-.17.06-.35.13-.53.23-.14.18-.3.45-.46.6-.21.21-.57.32-1.12.32h-6.64s-3.82,0-3.82,0c-.14,0-.26-.03-.37-.08,0,0,0,0,0,0-.04-.02-.06-.06-.1-.09-.06-.06-.13-.12-.17-.22-.05-.13-.08-.27-.09-.45,0-.08,0-.56,0-1.16,0-1,0-2.33-.02-2.68,0-.04-.03-.06-.08-.06-.04,0-.09.03-.15.08-.07.06-.13.12-.21.21-.1.11-.18.21-.24.3-.06.08-.08.17-.08.25.03.42.03,1.69.03,2.79,0,0,0,0,0,0,0,.1,0,.18,0,.28,0,.67-.21.89-.49,1.06,0-1.07-2.15-4.31-2.33-4.59h-.08c-.19.31-.3.61-.3.84,0,.3.23.65.58,1.13,1.07,1.45,1.77,2.45,1.81,2.76-.49.23-1.29.47-2.51.74v.15c.65.26,1.23.36,1.77.36.91,0,1.32-.39,1.68-.91.07-.1.12-.21.17-.31.15.39.4.63.76.73.1.04.2.06.32.06h.11s.01,0,.02,0h10.45c.55,0,.93-.18,1.23-.47h.02c.07.34.33.47.63.47.29,0,.65-.17.98-.52h.01c.26.35.53.5.83.5.32,0,.6-.22.87-.59.2-.3.35-.72.35-1.04,0-.36-.02-.68-.14-1.35"/>
    <path class="cls-21" d="M46.07,59.23c-.27,0-.53.11-.78.35-.58.54-.47,1.37-.94,1.66-.15.09-.33.15-.51.15h-.17c-.29,0-.52-.2-.65-.48-.21-.45-.31-1.22-.42-1.59h-.11c-.33.4-.4.94-.92.94-.31,0-.6-.24-.91-.49h-.07c-.11.37-.2.73-.29,1.09.4.34.75.73.88,1.48-.25.43-1.01.82-1.65.82-.89,0-1.38-.58-1.38-1.45,0-.24.05-.49.12-.76l-.32-.12c-.19.45-.31.96-.31,1.54,0,1.26.78,1.99,1.83,1.99.64,0,1.42-.34,1.92-1,.19-.35.27-.79.27-1.28,0-.29-.04-.56-.1-.81.27-.08.48-.26.62-.54h.03s.03.12.03.12c.21.96.37,1.72,1.42,1.72h.16c.48,0,.81-.26.98-.7h.02c.53.42,1.11.65,1.57.65.79,0,1-1.04,1-1.13,0-.66-.33-2.17-1.32-2.17M46.56,61.4c-.46,0-.93-.22-1.39-.63.16-.32.38-.51.69-.51.4,0,.75.43.88,1.09,0,.04-.07.05-.18.05"/>
    <path class="cls-21" d="M89.92,59.88h-.44c-.49,0-.89-.07-1.47-.28-.69-.26-1.24-.41-1.64-.41-.62,0-1.15.33-1.29,1.06l.39.75h.12l.27-.62c.11-.07.27-.11.49-.11.34,0,.86.1,1.51.31v.03c-.94.59-1.74.78-3,.78h-11.04c-.35,0-.49-.05-.68-.21-.18-.18-.18-.56-.18-1.06,0-.9,0-1.61-.04-2.19l-.1-.03c-.2.18-.4.36-.59.55l.02.32c-.76.43-1.42.91-1.74,1.6-.16.33-.24.63-.24.91,0,.64.55.84,1.14.84.36,0,.72-.08,1.09-.22.25.53.57.67,1.3.67h11.04c1.73,0,2.52-.53,3.57-1.48.32-.28.59-.36,1.01-.36.21-.3.37-.58.49-.82v-.05ZM71.58,61.04c-.33,0-.61-.07-.61-.28,0-.24.54-.66,1.38-1.05.01.33.02.74.02,1.21-.26.08-.52.12-.79.12"/>
    <path class="cls-21" d="M92.41,59.14c-.35,0-.68.21-1,.54-.31.37-.47.81-.47,1.31,0,.67.46,1.2,1.37,1.2.25,0,.5-.02.69-.08-.18.35-.47.68-.85.96-.48.35-.97.55-1.46.55-.25,0-.47-.05-.69-.14l-.13.33c.6.41,1.2.66,1.77.66.42,0,.87-.22,1.39-.9.37-.55.62-1.19.62-2.06,0-1.4-.57-2.39-1.23-2.39M92.57,61.12c-.64,0-1.09-.28-1.09-.56,0-.2.25-.43.66-.43.36,0,.78.41.93.95-.14.02-.3.04-.49.04"/>
    <path class="cls-21" d="M68.22,56.64s-.09.03-.15.08c-.07.05-.13.12-.2.2-.1.11-.19.21-.24.3-.06.08-.08.17-.08.25.02.36.03,1.62.03,2.6,0,.16,0,.32,0,.49,0,.32,0,.48-.1.59-.17.17-.46.24-.84.24h-.14s-.01,0-.01,0c-.16,0-.29-.03-.39-.1-.1-.07-.17-.17-.22-.29-.05-.13-.08-.27-.09-.45-.02-.21,0-3.28-.02-3.83,0-.04-.03-.06-.09-.06-.04,0-.09.03-.15.08-.07.06-.13.12-.2.2-.11.11-.18.21-.24.3-.06.09-.08.17-.08.25.03.44.03,1.81.03,2.94,0,.06,0,.11,0,.17,0,.5-.27.79-.87.79h-.2c-.26,0-.46-.06-.63-.17-.23-.15-.29-.33-.29-.61,0-.12.04-.3.11-.55l-.04-.03c-.18.11-.34.21-.47.31-.13.27-.16.65-.49.85-.2.12-.41.2-.81.2h-6.58,0s-4.65,0-4.65,0c-.16,0-.29-.03-.39-.1-.1-.07-.17-.17-.22-.29-.05-.13-.08-.27-.09-.45-.01-.21,0-3.28-.02-3.83,0-.04-.04-.06-.09-.06-.04,0-.09.03-.15.08-.06.06-.13.12-.2.2-.11.11-.19.21-.24.3-.06.09-.09.17-.09.25.01.2.02.6.02,1.07,0,.05,0,.13,0,.22,0,.53,0,1.14,0,1.68,0,0,0,0,0,0,0,.23,0,.43,0,.54.02,1.13.58,1.54,1.36,1.56,0,0,0,0,0,0h0s.03,0,.04,0h11.27c.52,0,.92-.23,1.24-.65h.02c.32.54.82.65,1.36.65h.16c.5,0,.86-.24,1.12-.67h.02c.23.44.6.61,1.04.65.04,0,.08.02.12.02h.05s.02,0,.03,0h.17c.53,0,.88-.19,1.11-.5.12-.19.24-.36.32-.58.13-.38.26-.85.26-1.38v-.06c0-1.01,0-2.98-.02-3.36,0-.04-.03-.06-.08-.06"/>
    <path class="cls-21" d="M33.7,56.66s-.09.03-.15.08c-.07.05-.13.12-.2.2-.1.11-.19.21-.24.3-.06.08-.08.17-.08.25.02.42.02,1.69.03,2.78,0,0,0,0,0,0,0,.1,0,.18,0,.28,0,.67-.21.89-.49,1.06,0-1.07-2.15-4.31-2.33-4.59h-.08c-.19.31-.3.61-.3.84,0,.3.23.65.58,1.13,1.07,1.45,1.77,2.45,1.82,2.76-.49.22-1.29.47-2.51.74v.15c.64.25,1.23.36,1.77.36.91,0,1.32-.39,1.68-.91.4-.58.62-1.35.63-2.43,0,0,0,0,0,0,0-1.01,0-2.56-.02-2.94,0-.04-.03-.06-.08-.06"/>
    <path class="cls-21" d="M35.3,58.59c0-.81,0-1.61-.02-1.87,0-.04-.03-.06-.08-.06-.04,0-.09.03-.15.08-.06.05-.13.12-.2.2-.11.11-.19.21-.24.3-.06.08-.08.17-.08.25.03.44.03,1.84.03,2.98,0,.57-.01,1.76-.07,2.18l.13.09c.2-.24.36-.47.48-.69.13-.2.21-.82.21-1.76,0-.35,0-1.36,0-1.72"/>
    <path class="cls-21" d="M101.92,58.59h0c0-.81,0-1.61-.02-1.87,0-.04-.03-.06-.08-.06-.04,0-.09.03-.15.08-.06.05-.13.12-.2.2-.11.11-.19.21-.24.3-.06.08-.08.17-.08.25.03.44.03,1.84.03,2.98,0,.57-.01,1.76-.07,2.18l.13.09c.2-.24.36-.47.48-.69.13-.2.21-.82.21-1.76,0-.35,0-1.36,0-1.72"/>
    <path class="cls-21" d="M49.94,55.79l-.02-.05c-.21.01-.38.02-.6.02-.5,0-.78-.16-.78-.31,0-.09.16-.2.4-.21.08,0,.15.02.2.08l.16.18h.08c.11-.17.17-.31.17-.44,0-.2-.17-.33-.42-.33s-.51.12-.74.31c-.25.23-.38.49-.38.67,0,.22.13.37.36.47-.08.14-.16.29-.23.45l.07.07c.33-.21.84-.34,1.48-.43.1-.16.18-.32.24-.48"/>
    <path class="cls-21" d="M33.06,64.24c-.5,0-.78-.16-.78-.31,0-.09.16-.2.4-.21.08,0,.15.02.2.08l.16.18h.08c.11-.17.17-.31.17-.44,0-.2-.17-.33-.42-.33s-.51.12-.74.31c-.25.23-.38.49-.38.67,0,.23.13.37.36.47-.08.14-.16.29-.23.45l.07.07c.33-.21.84-.34,1.48-.43.1-.16.18-.32.24-.48l-.02-.05c-.21.01-.38.02-.6.02"/>
    <g class="cls-1">
      <g class="cls-12">
        <g class="cls-23">
          <g class="cls-10">
            <rect class="cls-28" x="104.73" y="-19.4" width="101.83" height="101.18" transform="translate(-3.09 30.21) rotate(-10.98)"/>
          </g>
        </g>
      </g>
    </g>
    <g class="cls-11">
      <g class="cls-7">
        <g class="cls-26">
          <g class="cls-34">
            <rect class="cls-29" x="59.81" y="-45.96" width="174.64" height="174.64" transform="translate(9.04 106.85) rotate(-41.07)"/>
          </g>
        </g>
      </g>
    </g>
    <g class="cls-27">
      <g class="cls-16">
        <g class="cls-32">
          <g class="cls-3">
            <rect class="cls-30" x="96.81" y="-20.84" width="128.25" height="130.78" transform="translate(67.25 182.78) rotate(-71.34)"/>
          </g>
        </g>
      </g>
    </g>
  </g>
</svg>