<?xml version="1.0" encoding="UTF-8"?>
<svg id="Layer_2" data-name="Layer 2" xmlns="http://www.w3.org/2000/svg" viewBox="0 0 561.04 147.36">
  <defs>
    <style>
      .cls-1 {
        fill: #fff;
      }

      .cls-2 {
        fill: #1998d5;
      }
    </style>
  </defs>
  <g id="Dimensions">
    <path class="cls-1" d="M291.64,101.15l-26.48-62.49-26.74,62.49h-21.14l39.27-92.11c1.57-3.39,4.83-5.61,8.74-5.61s6.78,2.22,8.22,5.61l39.27,92.11h-21.13Z"/>
    <rect class="cls-1" x="445.53" y="4.75" width="18.92" height="96.54"/>
    <path class="cls-1" d="M202.36,12.7v88.72h-18.92v-62.36l-29.35,39.01-29.35-39.01v62.36h-18.92V12.7c0-4.96,4.17-9.26,9.26-9.26,2.87,0,5.35,1.44,7.04,3.39l31.96,41.62,31.96-41.62c1.7-1.96,4.17-3.39,7.05-3.39,5.22,0,9.26,4.31,9.26,9.26"/>
    <path class="cls-1" d="M0,92.67l7.83-17.09c11.61,5.61,24.27,8.61,37.05,8.61,16.31,0,24.53-4.17,24.53-11.09,0-9.26-10.7-10.7-24.14-12.13-18.27-2.09-42.79-4.18-42.79-27.66C2.48,14.66,21.53,3.44,45.79,3.44c13.96,0,28.44,2.87,40.44,7.83l-7.7,16.96c-10.57-4.31-21.92-6.78-32.75-6.78-14.35,0-23.88,2.61-23.88,11.87,0,8.09,12.52,9.13,23.48,10.31,19.7,1.96,43.57,5.61,43.57,29.48,0,18.53-19.7,30.01-44.1,30.01-16.05,0-31.31-3.52-44.88-10.44"/>
    <polygon class="cls-1" points="561.04 23.93 529.07 23.93 529.07 101.56 510.15 101.56 510.15 23.93 478.19 23.93 478.19 5.01 561.04 5.01 561.04 23.93"/>
    <polygon class="cls-2" points="88.61 125.9 81.17 125.9 81.17 123.89 98.2 123.89 98.2 125.9 90.75 125.9 90.75 146.92 88.61 146.92 88.61 125.9"/>
    <path class="cls-2" d="M102.56,132.45h.03c.96-1.52,2.79-2.48,4.87-2.48,3.69,0,6.08,2.05,6.08,6.02v10.95h-2.11v-10.14c0-3.22-1.4-4.81-4.25-4.81-2.42,0-4.62,1.4-4.62,4.5v10.45h-2.11v-24.74h2.11v10.26Z"/>
    <path class="cls-2" d="M131.39,139.39h-12.68c.34,3.63,2.73,5.89,6.11,5.89,1.92,0,3.94-.71,5.74-2.36v2.36c-1.7,1.34-3.66,1.98-5.83,1.98-4.93,0-8.12-3.41-8.12-8.59s3.72-8.71,7.88-8.71c3.85,0,6.98,2.85,6.98,8.31,0,.43-.03.78-.06,1.11M129.4,137.56c-.09-3.91-2.48-5.64-4.96-5.64-2.82,0-5.33,2.14-5.7,5.64h10.67Z"/>
    <path class="cls-2" d="M142.38,138.37v-14.48h2.11v14.67c0,4.12,2.42,6.76,6.26,6.76s6.48-2.64,6.48-6.82v-14.6h2.11v14.45c0,5.36-3.38,9.02-8.59,9.02s-8.37-3.66-8.37-8.99"/>
    <rect class="cls-2" x="164.04" y="122.18" width="2.11" height="24.74"/>
    <path class="cls-2" d="M173.28,130.31h4.87v1.89h-4.87v9.06c0,2.79,1.58,3.94,3.78,3.94.46,0,.96-.06,1.49-.15v1.89c-.19.03-.9.16-1.77.16-3.29,0-5.61-1.98-5.61-5.74v-9.15h-2.51v-1.89h2.57v-3.91h2.05v3.91Z"/>
    <path class="cls-2" d="M180.56,124.51c0-.81.59-1.4,1.43-1.4s1.46.59,1.46,1.4-.59,1.43-1.46,1.43-1.43-.59-1.43-1.43M180.93,130.31h2.11v16.62h-2.11v-16.62Z"/>
    <path class="cls-2" d="M208.46,135.79v11.13h-2.11v-10.88c0-2.57-1.05-4-3.5-4s-3.85,1.98-3.85,4.09v10.79h-2.11v-10.88c0-2.57-1.05-4-3.47-4s-3.84,2.08-3.84,4.25v10.63h-2.11v-16.62h1.61l.28,2.51h.06c.81-1.64,2.39-2.85,4.4-2.85,2.39,0,3.85,1.06,4.62,2.95.93-1.77,2.51-2.95,4.77-2.95,3.63,0,5.24,2.42,5.24,5.83"/>
    <path class="cls-2" d="M211.49,138.61c0-5.33,3.66-8.65,7.6-8.65,2.36,0,4.77,1.15,6.11,3.6l.28-3.25h1.7v16.62h-1.7l-.28-3.26c-1.33,2.45-3.75,3.6-6.11,3.6-3.94,0-7.6-3.35-7.6-8.65M225.13,138.58c0-3.91-2.57-6.6-5.77-6.6s-5.77,2.64-5.77,6.64,2.54,6.63,5.77,6.63,5.77-2.7,5.77-6.67"/>
    <path class="cls-2" d="M234.18,130.31h4.87v1.89h-4.87v9.06c0,2.79,1.58,3.94,3.78,3.94.46,0,.96-.06,1.49-.15v1.89c-.19.03-.9.16-1.77.16-3.29,0-5.61-1.98-5.61-5.74v-9.15h-2.51v-1.89h2.57v-3.91h2.05v3.91Z"/>
    <path class="cls-2" d="M255.47,139.39h-12.68c.34,3.63,2.73,5.89,6.11,5.89,1.92,0,3.94-.71,5.74-2.36v2.36c-1.71,1.34-3.66,1.98-5.83,1.98-4.93,0-8.12-3.41-8.12-8.59s3.72-8.71,7.87-8.71c3.85,0,6.98,2.85,6.98,8.31,0,.43-.03.78-.06,1.11M253.49,137.56c-.09-3.91-2.48-5.64-4.96-5.64-2.82,0-5.33,2.14-5.71,5.64h10.67Z"/>
    <path class="cls-2" d="M271.4,123.45c4.12,0,6.7,2.89,6.7,6.05,0,2.42-1.27,4.46-3.5,5.36v.06c2.26.78,4.31,2.67,4.31,5.86,0,3.38-2.57,6.51-7.38,6.51-2.64,0-4.62-.84-6.2-2.29v-2.64c1.46,1.73,3.57,2.88,6.14,2.88,3.32,0,5.34-1.99,5.34-4.59s-2.17-4.56-5.65-4.56h-2.88v-1.98h2.17c3.69,0,5.55-1.8,5.55-4.37,0-2.33-1.71-4.25-4.65-4.25-2.2,0-4.22,1.08-5.33,2.57v-2.54c1.24-1.24,3.19-2.08,5.4-2.08"/>
    <path class="cls-2" d="M296.75,139.7c0,4.28-3.16,7.66-7.66,7.66s-7.75-3.41-7.75-7.6c0-2.48,1.11-4.49,3.16-6.98l7.1-8.9h2.54l-7.01,8.74c.62-.15,1.24-.25,1.99-.25,3.69,0,7.62,2.85,7.62,7.32M294.64,139.86c0-3.66-3.04-5.58-6.14-5.58-1.09,0-2.17.25-3.19.71-1.24,1.65-1.86,2.98-1.86,4.81,0,2.91,2.36,5.55,5.64,5.55s5.55-2.57,5.55-5.49"/>
    <path class="cls-2" d="M315.75,135.42c0,7.5-3.75,11.94-8.37,11.94s-8.31-4.44-8.31-11.94,3.72-11.97,8.31-11.97,8.37,4.47,8.37,11.97M301.24,135.42c0,6.33,2.73,9.92,6.14,9.92s6.2-3.63,6.2-9.92-2.79-9.95-6.2-9.95-6.14,3.66-6.14,9.95"/>
    <path class="cls-2" d="M329.29,130.55c0,4.34-2.51,6.82-5.58,6.82s-5.61-2.48-5.61-6.82,2.54-6.82,5.61-6.82,5.58,2.48,5.58,6.82M319.99,130.55c0,3.35,1.68,5.09,3.72,5.09s3.72-1.74,3.72-5.09-1.68-5.08-3.72-5.08-3.72,1.74-3.72,5.08"/>
    <polygon class="cls-2" points="340.44 123.89 352.57 123.89 352.57 125.9 342.55 125.9 342.55 134.68 352.13 134.68 352.13 136.69 342.55 136.69 342.55 146.93 340.44 146.93 340.44 123.89"/>
    <path class="cls-2" d="M354.79,138.62c0-4.93,3.44-8.65,8.12-8.65s8.09,3.72,8.09,8.65-3.44,8.65-8.09,8.65-8.12-3.69-8.12-8.65M368.9,138.62c0-4.22-2.92-6.64-5.99-6.64s-6.02,2.42-6.02,6.64,2.95,6.63,6.02,6.63,5.99-2.42,5.99-6.63"/>
    <path class="cls-2" d="M373.11,138.62c0-4.93,3.44-8.65,8.12-8.65s8.09,3.72,8.09,8.65-3.44,8.65-8.09,8.65-8.12-3.69-8.12-8.65M387.21,138.62c0-4.22-2.92-6.64-5.99-6.64s-6.02,2.42-6.02,6.64,2.95,6.63,6.02,6.63,5.99-2.42,5.99-6.63"/>
    <path class="cls-2" d="M391.45,138.61c0-5.33,3.66-8.65,7.59-8.65,2.36,0,4.78,1.18,5.98,3.41v-11.19h2.11v24.74h-1.71l-.28-3.26c-1.34,2.45-3.75,3.6-6.11,3.6-3.94,0-7.59-3.35-7.59-8.65M405.09,138.58c0-3.91-2.57-6.6-5.77-6.6s-5.77,2.64-5.77,6.64,2.54,6.63,5.77,6.63,5.77-2.7,5.77-6.67"/>
    <rect class="cls-2" x="411.07" y="136.01" width="7.69" height="2.02"/>
    <polygon class="cls-2" points="428.09 125.9 420.65 125.9 420.65 123.89 437.67 123.89 437.67 125.9 430.22 125.9 430.22 146.92 428.09 146.92 428.09 125.9"/>
    <path class="cls-2" d="M453.63,139.39h-12.68c.34,3.63,2.73,5.89,6.11,5.89,1.92,0,3.94-.71,5.74-2.36v2.36c-1.71,1.34-3.66,1.98-5.83,1.98-4.93,0-8.12-3.41-8.12-8.59s3.72-8.71,7.87-8.71c3.85,0,6.98,2.85,6.98,8.31,0,.43-.03.78-.06,1.11M451.64,137.56c-.09-3.91-2.48-5.64-4.96-5.64-2.82,0-5.33,2.14-5.71,5.64h10.67Z"/>
    <path class="cls-2" d="M463.97,145.25c1.39,0,3.13-.31,4.53-1.39v2.3c-1.18.68-2.7,1.12-4.53,1.12-4.74,0-8.25-3.75-8.25-8.68s3.51-8.62,8.25-8.62c1.74,0,3.22.31,4.53,1.18v2.29c-1.39-1.06-2.76-1.46-4.56-1.46-3.1,0-6.11,2.48-6.11,6.6s3.01,6.66,6.14,6.66"/>
    <path class="cls-2" d="M473.83,132.45h.03c.96-1.52,2.79-2.48,4.87-2.48,3.69,0,6.08,2.05,6.08,6.02v10.95h-2.11v-10.14c0-3.22-1.4-4.81-4.25-4.81-2.42,0-4.62,1.4-4.62,4.5v10.45h-2.11v-24.74h2.11v10.26Z"/>
    <path class="cls-2" d="M386.51,52.51c17.46-17.43,34.88-34.86,52.48-52.45-.53-.03-.84-.06-1.15-.06h-48.76c-10.5,0-20.56,4.16-27.98,11.59-13.43,13.46-26.87,26.9-40.3,40.36-.2.19-.39.39-.59.64.22.2.36.36.53.53l40.33,40.33c7.46,7.48,17.6,11.67,28.15,11.67h49.52c.06-.08.11-.2.17-.28-.06-.06-.11-.11-.17-.17-17.4-17.37-34.8-34.74-52.23-52.17M400.5,89.46h-14.08c-4.64,0-9.05-1.84-12.34-5.11-10.5-10.5-21-21.03-31.5-31.53-.08-.06-.11-.17-.25-.36.73-.67,1.45-1.37,2.15-2.07,9.75-9.75,19.49-19.47,29.24-29.24,3.49-3.52,8.27-5.47,13.24-5.47h14.05l-36.73,36.7,36.98,36.95c-.45.08-.61.14-.75.14"/>
    <path class="cls-1" d="M335.39.06h24.43c-9.96,9.94-29.63,29.6-39.55,39.5V15.18c0-8.35,6.77-15.12,15.12-15.12"/>
    <path class="cls-1" d="M320.25,65.29c10.05,10.04,29.71,29.7,39.78,39.76h-24.66c-8.35,0-15.12-6.77-15.12-15.12v-24.63Z"/>
    <path class="cls-2" d="M386.51,52.51c17.43,17.43,34.83,34.8,52.23,52.17v.45h-23.62l-13.86-15.81-36.98-36.95,36.73-36.7L416.69,0h21.16c.31,0,.61.03,1.14.06-17.59,17.59-35.02,35.02-52.48,52.45"/>
  </g>
</svg>