<?xml version="1.0" encoding="UTF-8"?>
<svg id="Layer_2" data-name="Layer 2" xmlns="http://www.w3.org/2000/svg" viewBox="0 0 226.57 50.3">
  <defs>
    <style>
      .cls-1 {
        fill: #434343;
      }
    </style>
  </defs>
  <g id="Layer_1-2" data-name="Layer 1">
    <g>
      <g>
        <path class="cls-1" d="M28.89,6.13h-11.38v25.61h-6.13V6.13H0V0h28.89v6.13Z"/>
        <path class="cls-1" d="M142.81,31.74h-6.13V5.81l-13.36,23.73-13.36-23.73v25.93h-6.13V0h9.9l9.59,17.04L132.92,0h9.9v31.74Z"/>
        <path class="cls-1" d="M226.57,31.74h-6.12c-.17-1.36-.55-2.66-1.11-3.87-1.75-3.77-5.36-6.37-9.19-6.6-.49-.03-1.42-.04-2.4-.05-.45,0-.87,0-1.18-.02h-4.45v10.54h-6.11V.1h.37v-.1h19.56c5.84,0,10.6,4.76,10.6,10.6,0,3.24-1.46,6.27-4.01,8.3l-1.58,1.26,1.31,1.54c2.41,2.83,3.93,6.37,4.33,10.05ZM221.15,10.6c0-2.88-2.34-5.22-5.22-5.22h-13.81v10.44h13.81c2.88,0,5.22-2.34,5.22-5.22Z"/>
        <g>
          <polygon class="cls-1" points="46.04 0 37.36 0 23.25 31.74 29.97 31.74 32.55 25.94 32.55 25.94 34.67 21.17 34.67 21.17 41.7 5.37 41.7 5.37 48.73 21.17 48.73 21.17 53.43 31.74 60.15 31.74 46.04 0"/>
          <polygon class="cls-1" points="53.92 21.17 39.86 21.17 37.74 25.94 56.04 25.94 53.92 21.17"/>
        </g>
        <g>
          <polygon class="cls-1" points="76.37 0 85.05 0 99.16 31.74 92.44 31.74 89.86 25.94 89.86 25.94 87.74 21.17 87.74 21.17 80.71 5.37 80.71 5.37 73.68 21.17 73.68 21.17 68.98 31.74 62.26 31.74 76.37 0"/>
          <polygon class="cls-1" points="68.49 21.17 82.55 21.17 84.67 25.94 66.37 25.94 68.49 21.17"/>
        </g>
        <polygon class="cls-1" points="177.4 4.73 192.32 4.73 192.32 0 171.27 0 171.27 31.74 192.32 31.74 192.32 27.01 177.4 27.01 177.4 20.69 190.28 20.69 190.28 15.85 177.4 15.85 177.4 13.46 177.4 4.73"/>
        <polygon class="cls-1" points="152.32 4.73 167.24 4.73 167.24 0 146.19 0 146.19 31.74 167.24 31.74 167.24 27.01 152.32 27.01 152.32 20.69 165.2 20.69 165.2 15.85 152.32 15.85 152.32 13.46 152.32 4.73"/>
      </g>
      <g>
        <path class="cls-1" d="M58.27,43.28h4.29c.61,0,1.7.07,2.29.92.23.34.35.76.35,1.17,0,.27-.05,1.04-.72,1.54-.59.46-1.23.47-1.94.47h-3.29v2.74h-.99v-6.84ZM62.41,46.56c.53,0,1.11-.02,1.48-.47.11-.13.25-.37.25-.78,0-.13,0-.45-.24-.74-.39-.48-1.05-.48-1.6-.48h-3.05v2.47h3.16Z"/>
        <path class="cls-1" d="M76.83,50.12l-2.32-2.74h-3.3v2.74h-.98v-6.84h4.66c.58,0,.79.03,1.09.11.92.24,1.44.96,1.44,1.9,0,.37-.08,1.33-1.1,1.75-.17.07-.36.13-.75.18l2.53,2.9h-1.27ZM74.58,46.57c.55,0,1.2-.02,1.58-.5.1-.12.25-.35.25-.75,0-.13,0-.39-.17-.67-.29-.51-.75-.56-1.28-.56h-3.76v2.48h3.38Z"/>
        <path class="cls-1" d="M86.83,50.3c-2.54,0-4.19-1.3-4.19-3.53,0-2.46,1.97-3.66,4.13-3.66,2.02,0,4.19,1.1,4.19,3.68,0,1.92-1.43,3.51-4.13,3.51ZM86.78,43.95c-1.66,0-3.16.85-3.16,2.79,0,1.7,1.22,2.72,3.24,2.72,2.35,0,3.13-1.41,3.13-2.76,0-1.24-.8-2.75-3.21-2.75Z"/>
        <path class="cls-1" d="M96.35,43.28h4.29c.61,0,1.7.07,2.29.92.23.34.35.76.35,1.17,0,.27-.05,1.04-.72,1.54-.59.46-1.23.47-1.94.47h-3.29v2.74h-.99v-6.84ZM100.49,46.56c.53,0,1.11-.02,1.48-.47.11-.13.25-.37.25-.78,0-.13,0-.45-.24-.74-.39-.48-1.05-.48-1.6-.48h-3.05v2.47h3.16Z"/>
        <path class="cls-1" d="M108.32,50.12v-6.84h6.31v.84h-5.34v2.04h5.2v.81h-5.2v2.31h5.59v.84h-6.56Z"/>
        <path class="cls-1" d="M126.88,50.12l-2.32-2.74h-3.3v2.74h-.98v-6.84h4.66c.58,0,.79.03,1.09.11.92.24,1.44.96,1.44,1.9,0,.37-.08,1.33-1.1,1.75-.17.07-.36.13-.75.18l2.53,2.9h-1.27ZM124.63,46.57c.55,0,1.2-.02,1.58-.5.1-.12.25-.35.25-.75,0-.13,0-.39-.17-.67-.29-.51-.75-.56-1.28-.56h-3.76v2.48h3.38Z"/>
        <path class="cls-1" d="M135.73,44.09v6.03h-.97v-6.03h-2.79v-.81h6.56v.81h-2.8Z"/>
        <path class="cls-1" d="M143.38,50.12v-6.84h.99v6.84h-.99Z"/>
        <path class="cls-1" d="M150.31,50.12v-6.84h6.31v.84h-5.34v2.04h5.2v.81h-5.2v2.31h5.59v.84h-6.56Z"/>
        <path class="cls-1" d="M162.33,48.37c.26.28.47.5,1.09.76.79.32,1.64.33,1.97.33s1.22,0,1.83-.47c.41-.31.47-.74.47-.92,0-.87-.97-1.02-1.76-1.09l-1.05-.1c-1.34-.13-1.95-.17-2.45-.64-.47-.43-.48-.91-.48-1.14,0-.96.66-1.4.95-1.55.41-.22,1.15-.45,2.26-.45,2.06,0,2.99.76,3.42,1.38l-.89.36c-.61-.57-1.3-.93-2.52-.93-1.02,0-2.25.22-2.25,1.14,0,.74.7.85,1.39.92l2.12.2c1.4.14,2.23.76,2.23,1.88,0,1.04-.69,2.23-3.35,2.23-1.55,0-3.17-.42-3.86-1.55l.9-.37Z"/>
      </g>
    </g>
  </g>
</svg>