<?xml version="1.0" encoding="UTF-8"?>
<svg id="Layer_2" data-name="Layer 2" xmlns="http://www.w3.org/2000/svg" viewBox="0 0 247.44 67.03">
  <defs>
    <style>
      .cls-1 {
        fill: #898e91;
      }

      .cls-2 {
        fill: #f57e32;
      }
    </style>
  </defs>
  <g id="Layer_1-2" data-name="Layer 1">
    <g>
      <polygon class="cls-2" points="0 13.06 0 4.46 38.13 4.46 38.13 13.06 24.18 13.06 24.18 51 13.95 51 13.95 13.06 0 13.06"/>
      <path class="cls-2" d="M46.96,25.19c-1.1-1.21-2.8-1.82-5.05-1.82-1.48,0-2.71.25-3.69.74-.97.5-1.76,1.12-2.34,1.86-.58.74-1,1.52-1.23,2.34-.24.83-.39,1.57-.42,2.22h15.06c-.45-2.35-1.21-4.13-2.31-5.34M36.5,42.91c1.39,1.35,3.39,2.03,6,2.03,1.87,0,3.48-.47,4.83-1.41,1.35-.93,2.17-1.93,2.47-2.96h8.15c-1.3,4.04-3.3,6.92-6,8.67-2.69,1.74-5.96,2.61-9.77,2.61-2.65,0-5.04-.42-7.17-1.27-2.13-.84-3.93-2.05-5.41-3.62-1.47-1.57-2.62-3.43-3.42-5.6-.81-2.18-1.21-4.57-1.21-7.16s.42-4.87,1.24-7.05c.83-2.17,2-4.05,3.52-5.63,1.52-1.59,3.33-2.84,5.44-3.75,2.11-.91,4.44-1.37,7.01-1.37,2.86,0,5.37.56,7.49,1.66,2.14,1.11,3.88,2.6,5.25,4.47,1.36,1.87,2.35,4,2.97,6.38.61,2.39.83,4.89.65,7.49h-24.3c.13,3,.88,5.18,2.28,6.52"/>
      <path class="cls-2" d="M74.89,23.36c-1.47,0-2.72.34-3.72,1.01-1,.67-1.81,1.54-2.45,2.61-.63,1.06-1.07,2.24-1.34,3.52-.25,1.28-.39,2.55-.39,3.81s.13,2.46.39,3.71c.26,1.27.68,2.4,1.27,3.42.59,1.03,1.38,1.86,2.38,2.51,1,.66,2.22.99,3.65.99,2.21,0,3.92-.62,5.11-1.86s1.94-2.9,2.24-4.99h8.93c-.6,4.48-2.34,7.89-5.21,10.24-2.87,2.34-6.55,3.52-11.01,3.52-2.52,0-4.83-.42-6.94-1.27-2.11-.84-3.9-2.04-5.38-3.56-1.47-1.52-2.63-3.33-3.45-5.44-.83-2.1-1.25-4.42-1.25-6.94s.38-5.03,1.14-7.27c.76-2.24,1.88-4.17,3.35-5.79,1.48-1.64,3.28-2.9,5.42-3.82,2.12-.91,4.56-1.37,7.3-1.37,2,0,3.92.26,5.77.78,1.84.53,3.5,1.32,4.95,2.38,1.45,1.06,2.63,2.38,3.55,3.98.91,1.58,1.44,3.46,1.57,5.63h-9.06c-.61-3.86-2.89-5.8-6.84-5.8"/>
      <path class="cls-2" d="M100.44,4.46v17.53h.2c1.17-1.95,2.67-3.37,4.5-4.27,1.82-.9,3.6-1.34,5.34-1.34,2.48,0,4.51.34,6.1,1.02,1.58.68,2.83,1.61,3.74,2.8.91,1.19,1.55,2.66,1.92,4.37.37,1.72.55,3.61.55,5.7v20.73h-9.25v-19.03c0-2.78-.44-4.86-1.31-6.23-.86-1.38-2.41-2.05-4.62-2.05-2.52,0-4.35.75-5.48,2.24-1.13,1.5-1.69,3.97-1.69,7.4v17.67h-9.26V4.46h9.26Z"/>
      <path class="cls-2" d="M132.88,17.3v4.69h.21c1.17-1.95,2.69-3.37,4.56-4.27,1.87-.89,3.78-1.34,5.74-1.34,2.47,0,4.5.34,6.1,1.02,1.58.68,2.83,1.61,3.74,2.8.92,1.19,1.55,2.65,1.93,4.36.37,1.72.55,3.61.55,5.7v20.73h-9.26v-19.03c0-2.78-.43-4.86-1.3-6.23-.87-1.37-2.41-2.05-4.62-2.05-2.52,0-4.34.75-5.48,2.24-1.13,1.5-1.69,3.97-1.69,7.4v17.67h-9.26V17.3h8.79Z"/>
      <path class="cls-2" d="M166.12,38.13c.26,1.28.71,2.44,1.33,3.46.63,1.02,1.48,1.83,2.51,2.44,1.04.61,2.34.92,3.91.92s2.89-.31,3.94-.92c1.08-.61,1.92-1.43,2.55-2.44.63-1.02,1.08-2.17,1.34-3.46.25-1.29.38-2.6.38-3.94s-.13-2.67-.38-3.98c-.26-1.3-.72-2.46-1.34-3.45-.62-1-1.47-1.82-2.55-2.45-1.05-.63-2.37-.94-3.94-.94s-2.87.31-3.91.94c-1.04.63-1.88,1.45-2.51,2.45-.63.99-1.07,2.15-1.33,3.45-.26,1.31-.39,2.63-.39,3.98s.13,2.65.39,3.94M157.72,26.85c.82-2.19,1.99-4.06,3.52-5.61,1.51-1.54,3.33-2.74,5.46-3.58,2.12-.85,4.52-1.27,7.17-1.27s5.05.42,7.2,1.27c2.15.84,3.99,2.04,5.5,3.58,1.52,1.55,2.7,3.42,3.52,5.61.83,2.2,1.24,4.63,1.24,7.34s-.41,5.13-1.24,7.3c-.82,2.17-2,4.03-3.52,5.57-1.51,1.54-3.35,2.73-5.5,3.55-2.15.82-4.55,1.24-7.2,1.24s-5.04-.41-7.17-1.24c-2.13-.82-3.95-2.01-5.46-3.55-1.53-1.54-2.7-3.4-3.52-5.57-.83-2.17-1.25-4.61-1.25-7.3s.42-5.14,1.25-7.34"/>
      <path d="M241.2,35.31c1-3.02,1.5-6.14,1.5-9.35,0-2.74-.37-5.42-1.09-8.02-.73-2.61-1.84-4.95-3.35-7.01-1.51-2.07-3.44-3.74-5.79-4.99-2.34-1.25-5.17-1.88-8.48-1.88s-6.14.63-8.51,1.88-4.32,2.92-5.83,4.99c-1.51,2.07-2.63,4.41-3.35,7.01-.72,2.6-1.08,5.28-1.08,8.02s.36,5.36,1.08,7.99c.73,2.63,1.84,4.98,3.35,7.04,1.5,2.07,3.45,3.74,5.83,5,2.37,1.25,5.21,1.88,8.51,1.88,3.54,0,6.61-.82,9.21-2.45l-6.56-4.95,2.44-3.01,7.26,5.52c2.23-2.09,3.85-4.65,4.85-7.68M236.91,48.21c-3.4,2.42-7.7,3.63-12.92,3.63-3.9,0-7.33-.7-10.28-2.13-2.96-1.42-5.41-3.31-7.37-5.68-1.95-2.38-3.42-5.13-4.4-8.24-.98-3.12-1.47-6.4-1.47-9.84s.49-6.72,1.47-9.84c.98-3.12,2.44-5.88,4.4-8.27,1.95-2.4,4.41-4.31,7.37-5.72,2.95-1.42,6.38-2.13,10.28-2.13s7.33.71,10.27,2.13c2.93,1.42,5.36,3.32,7.32,5.72,1.95,2.39,3.42,5.15,4.4,8.27.98,3.12,1.46,6.4,1.46,9.84,0,3.91-.63,7.57-1.88,10.99-1.26,3.42-3.15,6.34-5.66,8.75l7.12,5.39-2.37,2.92-7.74-5.79Z"/>
      <polygon class="cls-1" points="13.95 54.52 16.46 54.52 18.75 58.93 21.02 54.52 23.5 54.52 19.91 61.48 19.91 66.79 17.56 66.79 17.56 61.48 13.95 54.52"/>
      <path class="cls-1" d="M25.8,59.62c-.7,0-1.29.25-1.76.74-.48.49-.71,1.12-.71,1.89s.23,1.43.7,1.92c.47.49,1.06.73,1.77.73s1.3-.24,1.78-.74c.47-.5.71-1.13.71-1.91s-.24-1.42-.7-1.9c-.46-.48-1.05-.73-1.79-.73M25.77,57.48c.86,0,1.66.21,2.42.64.76.43,1.34,1.01,1.76,1.75.42.73.63,1.52.63,2.38s-.21,1.66-.63,2.4c-.43.74-1.01,1.33-1.74,1.75-.74.42-1.54.63-2.43.63-1.3,0-2.41-.46-3.33-1.38-.93-.93-1.38-2.05-1.38-3.38,0-1.42.52-2.6,1.56-3.55.92-.82,1.97-1.23,3.15-1.23"/>
      <path class="cls-1" d="M31.21,57.71h2.3v4.37c0,.85.06,1.44.17,1.77.12.33.31.59.57.77.25.19.58.27.96.27s.7-.09.96-.27c.27-.18.46-.45.6-.8.1-.25.14-.82.14-1.67v-4.45h2.28v3.85c0,1.59-.13,2.67-.37,3.26-.31.71-.76,1.26-1.35,1.64-.59.38-1.35.57-2.28.57-1,0-1.8-.22-2.42-.66-.62-.45-1.05-1.07-1.29-1.86-.18-.55-.27-1.55-.27-3v-3.78Z"/>
      <path class="cls-1" d="M40.25,57.71h1.95v1.15c.22-.45.5-.79.85-1.03.35-.23.74-.35,1.15-.35.3,0,.6.08.93.23l-.71,1.97c-.27-.14-.48-.2-.66-.2-.35,0-.64.22-.89.65-.24.44-.36,1.29-.36,2.56v.44s0,3.67,0,3.67h-2.26v-9.09Z"/>
      <path class="cls-1" d="M53.55,56.78v7.74h1.09c1.07,0,1.84-.12,2.32-.37.48-.24.87-.66,1.18-1.23.31-.58.46-1.29.46-2.14,0-1.3-.36-2.32-1.09-3.03-.65-.64-1.72-.96-3.16-.96h-.8ZM51.23,54.52h2.76c1.79,0,3.12.22,3.99.66.86.44,1.57,1.16,2.14,2.15s.85,2.16.85,3.49c0,.94-.16,1.82-.48,2.6-.31.79-.75,1.46-1.3,1.98-.54.52-1.15.89-1.79,1.08-.64.2-1.76.3-3.35.3h-2.8v-12.27Z"/>
      <path class="cls-1" d="M68.8,61.12c-.15-.5-.45-.91-.89-1.23-.45-.32-.96-.47-1.55-.47-.64,0-1.19.18-1.67.53-.3.22-.58.61-.84,1.17h4.94ZM71.08,62.91h-7.32c.11.65.39,1.16.85,1.54.46.38,1.05.57,1.75.57.86,0,1.59-.3,2.2-.9l1.92.9c-.48.68-1.06,1.18-1.72,1.51-.67.32-1.46.48-2.37.48-1.43,0-2.59-.45-3.48-1.35-.89-.9-1.35-2.02-1.35-3.37s.45-2.54,1.34-3.45c.89-.92,2.01-1.37,3.36-1.37,1.43,0,2.59.45,3.49,1.37.89.91,1.34,2.12,1.34,3.62v.44Z"/>
      <path class="cls-1" d="M76.55,59.59c-.7,0-1.29.25-1.76.75-.46.5-.7,1.14-.7,1.92s.24,1.43.71,1.93c.47.51,1.06.76,1.75.76s1.31-.25,1.78-.74c.47-.5.7-1.15.7-1.96s-.23-1.43-.7-1.92c-.47-.49-1.07-.74-1.79-.74M78.94,54.21h2.27v12.59h-2.27v-.97c-.45.42-.89.73-1.34.92-.45.19-.93.28-1.46.28-1.17,0-2.18-.45-3.03-1.36-.86-.91-1.29-2.04-1.29-3.39s.42-2.55,1.24-3.44c.82-.9,1.83-1.34,3.02-1.34.54,0,1.06.1,1.53.31.48.2.92.51,1.33.92v-4.51Z"/>
      <path class="cls-1" d="M82.59,57.71h2.27v9.09h-2.27v-9.09ZM83.73,53.98c.4,0,.74.15,1.03.44.28.29.42.64.42,1.05s-.14.75-.42,1.04c-.28.29-.62.43-1.01.43s-.75-.15-1.04-.44c-.28-.29-.43-.65-.43-1.07,0-.39.14-.74.43-1.03.28-.28.62-.43,1.02-.43"/>
      <path class="cls-1" d="M95.14,59.55l-1.9,1.04c-.35-.37-.71-.63-1.06-.77-.34-.14-.75-.21-1.22-.21-.86,0-1.54.25-2.07.76-.53.5-.79,1.16-.79,1.95s.26,1.4.77,1.89c.5.49,1.17.73,2,.73,1.02,0,1.81-.35,2.38-1.04l1.79,1.23c-.97,1.26-2.35,1.9-4.12,1.9-1.6,0-2.85-.47-3.75-1.42-.91-.94-1.36-2.05-1.36-3.32,0-.88.22-1.69.66-2.43.44-.74,1.05-1.32,1.84-1.74.79-.43,1.66-.63,2.64-.63.9,0,1.71.18,2.42.54.72.36,1.31.87,1.77,1.53"/>
      <path class="cls-1" d="M100,59.59c-.7,0-1.28.25-1.75.74-.46.5-.7,1.14-.7,1.92s.24,1.43.71,1.93c.47.51,1.06.76,1.75.76s1.31-.25,1.78-.74c.47-.5.71-1.15.71-1.96s-.24-1.43-.71-1.92c-.47-.49-1.07-.73-1.79-.73M102.4,57.71h2.28v9.09h-2.28v-.96c-.45.42-.9.73-1.34.92-.45.18-.93.27-1.46.27-1.17,0-2.19-.45-3.04-1.36-.86-.91-1.28-2.04-1.28-3.4s.41-2.54,1.24-3.44c.82-.9,1.83-1.34,3.01-1.34.55,0,1.06.1,1.53.31.48.21.92.52,1.33.93v-1.01Z"/>
      <polygon class="cls-1" points="106.57 54.37 108.85 54.37 108.85 57.72 110.2 57.72 110.2 59.68 108.85 59.68 108.85 66.8 106.57 66.8 106.57 59.68 105.4 59.68 105.4 57.72 106.57 57.72 106.57 54.37"/>
      <path class="cls-1" d="M117.28,61.12c-.15-.5-.45-.91-.9-1.23-.44-.32-.95-.47-1.53-.47-.63,0-1.19.18-1.67.53-.3.22-.58.61-.83,1.17h4.94ZM119.56,62.91h-7.32c.11.65.39,1.16.85,1.54.46.38,1.05.57,1.76.57.85,0,1.58-.3,2.19-.9l1.92.9c-.48.68-1.06,1.18-1.72,1.51-.67.32-1.46.48-2.38.48-1.42,0-2.59-.45-3.48-1.35-.9-.9-1.34-2.02-1.34-3.37s.45-2.54,1.34-3.45c.89-.92,2.01-1.37,3.36-1.37,1.43,0,2.59.45,3.49,1.37.89.91,1.34,2.12,1.34,3.62v.44Z"/>
      <path class="cls-1" d="M125.03,59.59c-.7,0-1.29.25-1.76.75-.47.5-.69,1.14-.69,1.92s.23,1.43.71,1.93c.48.51,1.06.76,1.75.76s1.31-.25,1.78-.74c.47-.5.71-1.15.71-1.96s-.24-1.43-.71-1.92c-.48-.49-1.07-.74-1.79-.74M127.43,54.21h2.28v12.59h-2.28v-.97c-.45.42-.9.73-1.34.92-.46.19-.94.28-1.46.28-1.17,0-2.18-.45-3.03-1.36-.86-.91-1.29-2.04-1.29-3.39s.41-2.55,1.24-3.44c.83-.9,1.83-1.34,3.02-1.34.54,0,1.06.1,1.53.31.48.2.92.51,1.33.92v-4.51Z"/>
      <path class="cls-1" d="M139.21,59.32h.74c.59,0,1-.04,1.22-.12.23-.09.41-.23.54-.41.13-.2.2-.43.2-.71,0-.47-.18-.82-.55-1.03-.27-.16-.77-.24-1.49-.24h-.66v2.52ZM136.88,54.52h2.47c1.35,0,2.31.12,2.91.37.59.24,1.06.64,1.4,1.2.34.55.51,1.22.51,1.99,0,.86-.23,1.57-.67,2.13-.44.57-1.06.97-1.82,1.19-.45.12-1.28.19-2.46.19v5.19h-2.33v-12.27Z"/>
      <path class="cls-1" d="M148.74,59.59c-.7,0-1.29.25-1.75.74-.47.5-.7,1.14-.7,1.92s.24,1.43.71,1.93c.48.51,1.06.76,1.75.76s1.32-.25,1.79-.74c.47-.5.7-1.15.7-1.96s-.23-1.43-.7-1.92c-.47-.49-1.07-.73-1.79-.73M151.14,57.71h2.28v9.09h-2.28v-.96c-.45.42-.89.73-1.34.92-.45.18-.93.27-1.46.27-1.17,0-2.18-.45-3.04-1.36-.86-.91-1.28-2.04-1.28-3.4s.41-2.54,1.24-3.44c.83-.9,1.84-1.34,3.02-1.34.55,0,1.05.1,1.53.31.48.21.93.52,1.33.93v-1.01Z"/>
      <path class="cls-1" d="M154.48,57.71h1.95v1.15c.22-.45.5-.79.84-1.03.35-.23.74-.35,1.15-.35.3,0,.61.08.94.23l-.72,1.97c-.26-.14-.49-.2-.66-.2-.35,0-.65.22-.89.65-.24.44-.36,1.29-.36,2.56v.44s0,3.67,0,3.67h-2.26v-9.09Z"/>
      <polygon class="cls-1" points="160.64 54.37 162.91 54.37 162.91 57.72 164.26 57.72 164.26 59.68 162.91 59.68 162.91 66.8 160.64 66.8 160.64 59.68 159.47 59.68 159.47 57.72 160.64 57.72 160.64 54.37"/>
      <path class="cls-1" d="M165,57.71h2.28v.93c.52-.44.98-.74,1.4-.91.41-.17.85-.26,1.29-.26.9,0,1.66.32,2.29.94.52.53.79,1.33.79,2.36v6.01h-2.25v-3.98c0-1.09-.05-1.81-.15-2.16-.1-.36-.27-.63-.51-.81-.24-.19-.54-.28-.9-.28-.46,0-.86.16-1.18.46-.33.31-.57.74-.69,1.28-.07.29-.1.9-.1,1.85v3.64h-2.28v-9.09Z"/>
      <path class="cls-1" d="M180.92,61.12c-.15-.5-.45-.91-.9-1.23-.44-.32-.95-.47-1.53-.47-.64,0-1.2.18-1.68.53-.3.22-.58.61-.83,1.17h4.94ZM183.2,62.91h-7.32c.1.65.38,1.16.84,1.54.46.38,1.05.57,1.76.57.85,0,1.58-.3,2.2-.9l1.92.9c-.48.68-1.06,1.18-1.73,1.51-.67.32-1.46.48-2.38.48-1.42,0-2.58-.45-3.48-1.35-.89-.9-1.35-2.02-1.35-3.37s.45-2.54,1.34-3.45c.89-.92,2.01-1.37,3.36-1.37,1.43,0,2.59.45,3.49,1.37.89.91,1.35,2.12,1.35,3.62v.44Z"/>
      <path class="cls-1" d="M183.82,57.71h1.96v1.15c.21-.45.49-.79.84-1.03.35-.23.73-.35,1.15-.35.3,0,.61.08.93.23l-.72,1.97c-.26-.14-.49-.2-.66-.2-.35,0-.65.22-.89.65-.24.44-.36,1.29-.36,2.56v.44s.01,3.67.01,3.67h-2.27v-9.09Z"/>
    </g>
  </g>
</svg>