<?xml version="1.0" encoding="UTF-8"?>
<svg id="Layer_2" data-name="Layer 2" xmlns="http://www.w3.org/2000/svg" viewBox="0 0 186.31 121.27">
  <defs>
    <style>
      .cls-1 {
        fill: #fff;
      }

      .cls-2 {
        fill: #94989b;
      }

      .cls-3 {
        fill: #8e1537;
      }
    </style>
  </defs>
  <g id="Layer_1-2" data-name="Layer 1">
    <g>
      <rect class="cls-3" x=".38" width="185.91" height="73.67"/>
      <path class="cls-1" d="M8.06,7.68h15.36v24.94c0,8.67.58,18.14,10.99,18.14s11.82-9.47,11.82-18.14V7.68h50.15c8.02,0,15.94.43,21.97,7.07,5.12,5.58,8.1,14.34,8.1,22.12s-2.98,16.54-8.1,22.13c-6.03,6.63-13.95,6.98-21.97,6.98h-24.59v-10.98h-.03v-17.85h15.34v13.47h7.05c8.08,0,16.93-2.59,16.93-13.75s-8.84-13.82-16.93-13.82h-32.59v11.97c0,8.58-.32,17.07-6.52,23.53-5.21,5.49-13.38,7.43-20.64,7.43s-15.45-1.95-20.65-7.43c-3.05-3.19-5.7-7.74-5.7-13.74V7.68Z"/>
      <path class="cls-1" d="M178.61,65.98h-22.03c-8.02,0-15.94-.35-21.97-6.98-5.12-5.58-8.1-14.34-8.1-22.13s2.98-16.55,8.1-22.12c6.03-6.64,13.95-7.07,21.97-7.07h22.03v15.37h-19.81c-8.09,0-16.93,2.67-16.93,13.82s8.84,13.75,16.93,13.75h19.81v15.36Z"/>
      <path class="cls-2" d="M6.93,95.79c-.42.47-.7,1.05-1.25,1.36-.31.19-.92.39-1.05.72l2.8.36-.5-2.44ZM9.64,102.44c-1.41,0-1.55-1.85-1.91-2.82-.55.39-1.11,2.32-1.77,2.22l-5.01-.89c1.22-4.9,1.6-4.21,5.68-6.64-.14-.25-.22-.52-.28-.83l1.66-2.85.14.08c.61,2.39.91,5.98,1.63,8.06.14.39.7.64,1.3.64h1.41v3.04h-2.85ZM5.84,91.83c-.25,0-2-.97-2.28-1.15-.44.27-.89.74-1.27,1.11-.83-.25-1.55-.7-2.3-1.19.5-.67,1.08-1.25,1.64-1.86.33.25,1.77,1.17,2.07,1.17.17,0,1.27-1.01,1.47-1.17l2.32,1.25c-.2.33-1.41,1.85-1.66,1.85"/>
      <rect class="cls-2" x="11.27" y="99.4" width="4.6" height="3.04"/>
      <path class="cls-2" d="M21.05,107.23c-.22,0-1.83-1.06-2.11-1.22-.41.27-.8.74-1.13,1.16-.81-.3-1.55-.75-2.22-1.24.17-.47,1.19-1.49,1.55-1.94.33.28,1.61,1.21,1.96,1.21l1.28-1.27,2.27,1.42c-.28.3-1.33,1.88-1.6,1.88M22.02,102.44c-1.02,0-1.72-.86-1.97-1.77-.39.55-.69,1.16-1.02,1.77h-4.32v-3.04h4.95c.37-.62.19-1.44.19-2.07,0-.78,1.52-2.14,2.05-2.69v1.47c0,.66-.19,1.35-.19,2.02,0,.87.58,1.28,1.27,1.28h.83v3.04h-1.8Z"/>
      <rect class="cls-2" x="22.6" y="99.4" width="4.6" height="3.04"/>
      <rect class="cls-2" x="25.92" y="99.4" width="4.6" height="3.04"/>
      <path class="cls-2" d="M36.59,98.75c0-.85-1.33-.69-1.78-.36.42.25,1.3.91,1.78.94v-.58ZM38.8,102.44c-.44.42-.36,1.11-.97,1.4l-5.37-3c-.5.45-.31,1.6-1.22,1.6h-1.91v-3.04h2.85c.42-.28.83-1.61,1.39-2.16.89-.89,2.54-1.83,3.82-1.83.55,0,.75.08.78.61-.03.98.64,3.39,1.91,3.39h.77v3.04h-2.04Z"/>
      <rect class="cls-2" x="39.72" y="99.4" width="4.6" height="3.04"/>
      <rect class="cls-2" x="43.04" y="99.4" width="4.6" height="3.04"/>
      <rect class="cls-2" x="46.36" y="99.4" width="4.59" height="3.04"/>
      <rect class="cls-2" x="49.68" y="99.4" width="4.59" height="3.04"/>
      <rect class="cls-2" x="53.01" y="99.4" width="4.59" height="3.04"/>
      <path class="cls-2" d="M61.87,93.38c-.89-.44-1.74-.91-2.68-1.25.52-.81,1.35-1.55,2.07-2.19.2.03,1.75,1.13,2.47,1.28-.08.33-1.58,2.13-1.85,2.16M63.53,102.44c-.89,0-1.47-1.04-1.72-1.8l-.99,1.8h-4.3v-3.04h4.93c.28-.78-.03-1.67.3-2.44.36-.91,1.3-1.64,1.96-2.36v1.25c0,.81-.28,1.63-.28,2.41,0,.83.78,1.14,1.5,1.14h.66v3.04h-2.08Z"/>
      <rect class="cls-2" x="64.67" y="99.4" width="4.6" height="3.04"/>
      <rect class="cls-2" x="67.99" y="99.4" width="4.6" height="3.04"/>
      <rect class="cls-2" x="71.31" y="99.4" width="4.61" height="3.04"/>
      <path class="cls-2" d="M81.17,92.72l-2.38-1.22c-.14.16-1.14,1.17-1.31,1.17-.44,0-1.96-1.01-2.38-1.3l1.8-1.8c.34.25,1.75,1.16,2.11,1.16.14,0,1.3-1.04,1.5-1.22l2.41,1.31c-.3.66-1.13,1.5-1.74,1.91M81.76,102.44c-1,0-1.58-.91-1.8-1.77-.39.55-.69,1.16-1.03,1.77h-4.32v-3.04h4.96c.3-.56.22-1.47.22-2.11,0-.7,1.52-2.08,2.02-2.61v1.27c0,.77-.28,1.58-.28,2.36,0,.22.44,1.08.72,1.08.47-.02.94,0,1.44,0v3.04h-1.93Z"/>
      <path class="cls-2" d="M86.35,102.44c-.53,0-.47-1.46-.5-1.82l-.99,1.82h-1.97v-3.04h2.88l-1.11-7.45,2.13-2.99.12.08c.8,3.18.61,6.65,1.05,9.89.08.58.75.48,1.19.48v3.04h-2.8Z"/>
      <path class="cls-2" d="M92.83,94.98l.33,3.74c.06.47-.5,3.1-.75,3.44-.08.11-.31.22-.44.27h-3.69v-3.04h2.91c.05-.09.08-.2.08-.28,0-.97-.64-5.18-.98-6.01-.07-.25-.82-.61-.85-.85.53-1.09,1.16-2.36,1.97-3.24l.16.14c.03.3.06.61.17.89.19.58,2.6,1.88,3.24,2.16l-2.16,2.79Z"/>
      <path class="cls-2" d="M103.88,97.02c-.28.5-1.13,1.38-1.13,1.94,0,.75.83.94,1.41.94.67,0,1.44-.13,2.08-.28-.19-.89-1.63-2.1-2.35-2.6M103.96,102.69c-1.16,0-2.93.06-2.93-1.58,0-1.97,2.8-5.51,4.07-6.93,1.44.77,3.38,2.27,3.38,4.05,0,2.16-2.29,4.46-4.52,4.46M106.79,92.8l-2.41-1.25-1.33,1.19c-.86-.28-1.66-.75-2.35-1.3.52-.66,1.13-1.27,1.74-1.88.36.27,1.75,1.21,2.1,1.21.22,0,1.3-1.03,1.55-1.21l2.44,1.29c-.36.64-1.13,1.56-1.74,1.94"/>
      <path class="cls-2" d="M119.2,102.44c-.39,0-.66-1.32-.83-1.65-.44.3-.77,1.65-1.22,1.65h-5.87c-.36,0-.61-.51-.61-.83,0-.8.5-4.67,1.45-4.76,0,.52-.08,1.02-.08,1.55,0,.22.11.94.41.94h5.49l.03-.22-1.17-4.6,1.58-3.13c.5,1.31,1.77,7.65,2.49,8.01h1.41v3.04h-3.08Z"/>
      <rect class="cls-2" x="120.95" y="99.4" width="4.6" height="3.04"/>
      <rect class="cls-2" x="124.27" y="99.4" width="4.6" height="3.04"/>
      <rect class="cls-2" x="127.59" y="99.4" width="4.6" height="3.04"/>
      <rect class="cls-2" x="130.92" y="99.4" width="4.6" height="3.04"/>
      <rect class="cls-2" x="134.24" y="99.4" width="4.6" height="3.04"/>
      <rect class="cls-2" x="137.56" y="99.4" width="4.6" height="3.04"/>
      <path class="cls-2" d="M156.92,102.44h-3.49c-.14-.69-.22-1.41-.27-2.1-.61-.05-1.25-.11-1.89-.11-3.04,0-4.26,2.21-5.82,2.21h-4.4v-3.04c4.13,0,4.99.17,7.54-.97-.83-.34-2.88-1.19-3.71-1.19-.75,0-1.36.39-1.91.82h-.2c-.02-.05-.06-.16-.06-.22,0-1.41,2.22-3.66,3.72-3.66,2.24,0,4.96,2.96,9.78,2.88-.14.34-.53,2.31-.72,2.33h1.44v3.04Z"/>
      <rect class="cls-2" x="155.87" y="99.4" width="4.6" height="3.04"/>
      <rect class="cls-2" x="159.19" y="99.4" width="4.6" height="3.04"/>
      <path class="cls-2" d="M169.05,92.72l-2.39-1.22c-.14.16-1.13,1.17-1.3,1.17-.44,0-1.97-1.01-2.38-1.3l1.8-1.8c.33.25,1.74,1.16,2.1,1.16.14,0,1.31-1.04,1.5-1.22l2.41,1.31c-.3.66-1.13,1.5-1.74,1.91M169.63,102.44c-1,0-1.58-.91-1.8-1.77-.39.55-.7,1.16-1.03,1.77h-4.32v-3.04h4.96c.3-.56.22-1.47.22-2.11,0-.7,1.52-2.08,2.02-2.61v1.27c0,.77-.28,1.58-.28,2.36,0,.22.44,1.08.72,1.08.47-.02.94,0,1.44,0v3.04h-1.94Z"/>
      <rect class="cls-2" x="170.5" y="99.4" width="4.59" height="3.04"/>
      <path class="cls-2" d="M180.3,103.83c-.36-.31-.61-.75-1.03-1.03-.36-.28-1.11-.37-1.91-.37h-3.46v-3.04h2.8c.11-.15.08-.31.08-.48,0-.72-.67-5.24-.92-5.82-.11-.25-.86-.64-.86-.85,0-.43,1.7-3.02,2.16-3.24l-.02.3c-.03.33.05.67.25.94.33.42,2.57,1.69,3.15,1.94-.33.53-2.16,2.49-2.16,2.94,0,1.14.08,2.47.36,3.57.2.89,2.62.97,2.62,2.3,0,1.03-.55,2-1.08,2.83"/>
      <path class="cls-2" d="M184.7,102.66l-1.24-8.92c.41-1.16,1.33-2.63,2.04-3.63.39,2.61.81,5.2.81,7.85,0,1.8-.44,3.32-1.61,4.71"/>
      <path class="cls-2" d="M8.7,117.35c0,2.63-1.56,3.92-4.16,3.92s-4.15-1.27-4.15-3.92v-6.06h2.14v6.06c0,1.07.27,2.12,2.01,2.12,1.53,0,2.02-.67,2.02-2.12v-6.06h2.14v6.06Z"/>
      <polygon class="cls-2" points="10.55 111.29 12.68 111.29 16.74 117.83 16.77 117.83 16.77 111.29 18.78 111.29 18.78 121.04 16.63 121.04 12.58 114.51 12.55 114.51 12.55 121.04 10.55 121.04 10.55 111.29"/>
      <rect class="cls-2" x="20.66" y="111.29" width="2.14" height="9.75"/>
      <polygon class="cls-2" points="26.85 113.09 23.92 113.09 23.92 111.29 31.91 111.29 31.91 113.09 28.99 113.09 28.99 121.04 26.85 121.04 26.85 113.09"/>
      <polygon class="cls-2" points="33.03 111.29 40.32 111.29 40.32 113.09 35.17 113.09 35.17 115.18 39.9 115.18 39.9 116.85 35.17 116.85 35.17 119.24 40.43 119.24 40.43 121.04 33.03 121.04 33.03 111.29"/>
      <path class="cls-2" d="M44.02,119.24h1.91c1.24,0,2.43-.77,2.43-2.92,0-1.96-.68-3.22-2.81-3.22h-1.53v6.15ZM41.88,111.29h4.2c2.53,0,4.43,1.59,4.43,4.82,0,2.83-1.45,4.93-4.43,4.93h-4.2v-9.75Z"/>
      <path class="cls-2" d="M57.93,119.24h1.91c1.24,0,2.43-.77,2.43-2.92,0-1.96-.68-3.22-2.81-3.22h-1.53v6.15ZM55.79,111.29h4.2c2.53,0,4.42,1.59,4.42,4.82,0,2.83-1.45,4.93-4.42,4.93h-4.2v-9.75Z"/>
      <polygon class="cls-2" points="65.91 111.29 73.2 111.29 73.2 113.09 68.05 113.09 68.05 115.18 72.78 115.18 72.78 116.85 68.05 116.85 68.05 119.24 73.31 119.24 73.31 121.04 65.91 121.04 65.91 111.29"/>
      <polygon class="cls-2" points="79.29 121.04 76.87 121.04 73.7 111.29 75.92 111.29 78.08 118.14 78.11 118.14 80.31 111.29 82.52 111.29 79.29 121.04"/>
      <polygon class="cls-2" points="83.36 111.29 90.65 111.29 90.65 113.09 85.5 113.09 85.5 115.18 90.23 115.18 90.23 116.85 85.5 116.85 85.5 119.24 90.76 119.24 90.76 121.04 83.36 121.04 83.36 111.29"/>
      <polygon class="cls-2" points="92.2 111.29 94.35 111.29 94.35 119.24 99.1 119.24 99.1 121.04 92.2 121.04 92.2 111.29"/>
      <path class="cls-2" d="M104.67,119.47c1.93,0,2.65-1.64,2.65-3.26,0-1.71-.72-3.35-2.65-3.35s-2.65,1.64-2.65,3.35.72,3.26,2.65,3.26M104.67,111.06c3.02,0,4.79,2.25,4.79,5.15s-1.77,5.06-4.79,5.06-4.79-2.25-4.79-5.06,1.77-5.15,4.79-5.15"/>
      <path class="cls-2" d="M113.07,115.88h1.67c1,0,1.88-.22,1.88-1.46s-.89-1.46-1.88-1.46h-1.67v2.92ZM110.92,111.29h4.4c2.43,0,3.37,1.54,3.37,3.13s-.94,3.13-3.37,3.13h-2.25v3.49h-2.14v-9.75Z"/>
      <polygon class="cls-2" points="120.03 111.29 123.05 111.29 125.33 117.99 125.35 117.99 127.51 111.29 130.53 111.29 130.53 121.04 128.52 121.04 128.52 114.13 128.49 114.13 126.1 121.04 124.45 121.04 122.06 114.2 122.03 114.2 122.03 121.04 120.03 121.04 120.03 111.29"/>
      <polygon class="cls-2" points="132.41 111.29 139.7 111.29 139.7 113.09 134.55 113.09 134.55 115.18 139.28 115.18 139.28 116.85 134.55 116.85 134.55 119.24 139.81 119.24 139.81 121.04 132.41 121.04 132.41 111.29"/>
      <polygon class="cls-2" points="141.26 111.29 143.39 111.29 147.46 117.83 147.49 117.83 147.49 111.29 149.49 111.29 149.49 121.04 147.35 121.04 143.29 114.51 143.27 114.51 143.27 121.04 141.26 121.04 141.26 111.29"/>
      <polygon class="cls-2" points="153.53 113.09 150.61 113.09 150.61 111.29 158.6 111.29 158.6 113.09 155.68 113.09 155.68 121.04 153.53 121.04 153.53 113.09"/>
      <path class="cls-2" d="M170.01,114.56c-.13-.97-1.06-1.71-2.13-1.71-1.93,0-2.65,1.64-2.65,3.35s.72,3.26,2.65,3.26c1.31,0,2.05-.9,2.21-2.18h2.08c-.22,2.43-1.9,3.98-4.29,3.98-3.02,0-4.8-2.25-4.8-5.06s1.78-5.15,4.8-5.15c2.14,0,3.94,1.26,4.2,3.51h-2.08Z"/>
      <path class="cls-2" d="M178,119.47c1.93,0,2.65-1.64,2.65-3.26,0-1.71-.72-3.35-2.65-3.35s-2.65,1.64-2.65,3.35.72,3.26,2.65,3.26M178,111.06c3.02,0,4.79,2.25,4.79,5.15s-1.77,5.06-4.79,5.06-4.79-2.25-4.79-5.06,1.77-5.15,4.79-5.15"/>
      <rect class="cls-2" x="184.13" y="118.94" width="2.14" height="2.1"/>
    </g>
  </g>
</svg>