<?xml version="1.0" encoding="UTF-8"?>
<svg id="Layer_2" data-name="Layer 2" xmlns="http://www.w3.org/2000/svg" viewBox="0 0 123.58 155.39">
  <defs>
    <style>
      .cls-1 {
        fill: #225aa9;
      }

      .cls-2 {
        fill: #1c1f1d;
      }
    </style>
  </defs>
  <g id="Layer_1-2" data-name="Layer 1">
    <g>
      <path class="cls-2" d="M5.09,111.77c-.2,0-.4-.02-.59-.04-.19-.03-.36-.08-.52-.16-.16-.08-.3-.18-.42-.31-.12-.13-.21-.3-.28-.5-.15.03-.29.06-.44.08-.15.02-.3.03-.45.03-.14,0-.29-.01-.47-.04-.17-.03-.35-.07-.53-.14-.18-.07-.35-.15-.52-.27-.17-.11-.32-.25-.45-.42-.13-.17-.23-.37-.32-.61-.08-.23-.12-.51-.12-.82,0-.46.08-.84.24-1.16.16-.32.37-.58.63-.78.26-.2.54-.35.85-.43.31-.09.62-.13.92-.13h2.15v3.75c0,.1,0,.18.02.25.01.07.03.12.06.16.03.04.07.07.13.08.05.02.13.02.21.02h.61c.07,0,.13,0,.19.02.06.01.11.04.15.09.04.05.08.11.1.21.03.09.04.22.04.37,0,.29-.04.48-.12.59-.08.11-.2.16-.37.16h-.74ZM.84,103.99c0-.12.02-.24.07-.34s.11-.2.19-.28c.08-.08.17-.15.28-.19s.22-.07.35-.07.24.02.34.07.2.11.28.19c.08.08.14.18.19.28s.07.22.07.34-.02.24-.07.35c-.05.11-.11.2-.19.28-.08.08-.17.15-.28.19-.11.05-.22.07-.34.07s-.24-.02-.35-.07c-.11-.04-.2-.11-.28-.19s-.15-.18-.19-.28c-.05-.11-.07-.22-.07-.35M1.6,108.5c0,.11.01.22.04.33.02.11.07.21.13.3.07.09.16.16.27.22.11.06.26.08.44.08.1,0,.21,0,.32-.01.11,0,.23-.03.35-.08v-1.72h-.63c-.31,0-.55.08-.7.24-.15.16-.23.38-.23.65M2.89,103.99c0-.12.02-.24.07-.34.05-.11.11-.2.19-.28s.17-.15.28-.19.22-.07.34-.07.24.02.34.07c.11.05.2.11.28.19.08.08.14.18.19.28s.07.22.07.34-.02.24-.07.35c-.05.11-.11.2-.19.28-.08.08-.17.15-.28.19-.11.05-.22.07-.34.07s-.24-.02-.34-.07c-.11-.04-.2-.11-.28-.19-.08-.08-.15-.18-.19-.28-.05-.11-.07-.22-.07-.35"/>
      <path class="cls-2" d="M5.83,111.77c-.07,0-.13,0-.19-.02-.06-.01-.11-.04-.16-.09-.04-.05-.08-.12-.1-.21s-.04-.22-.04-.38c0-.28.04-.48.12-.58.08-.11.2-.16.37-.16h1.85c.07,0,.13,0,.19.02.06.01.11.04.16.09.04.05.08.11.11.21.03.09.04.22.04.37,0,.29-.04.48-.12.59-.08.11-.21.16-.38.16h-1.85Z"/>
      <path class="cls-2" d="M7.68,111.77c-.07,0-.13,0-.19-.02-.06-.01-.11-.04-.16-.09-.04-.05-.08-.12-.1-.21s-.04-.22-.04-.38c0-.28.04-.48.12-.58.08-.11.2-.16.37-.16h1.85c.07,0,.13,0,.19.02.06.01.11.04.16.09.04.05.08.11.11.21.03.09.04.22.04.37,0,.29-.04.48-.12.59-.08.11-.21.16-.38.16h-1.85Z"/>
      <path class="cls-2" d="M9.53,111.77c-.07,0-.13,0-.19-.02-.06-.01-.11-.04-.16-.09-.04-.05-.08-.12-.1-.21s-.04-.22-.04-.38c0-.28.04-.48.12-.58.08-.11.2-.16.37-.16h5.18c.07,0,.13,0,.19.02.06.01.11.04.16.09.05.05.08.11.11.21.03.09.04.22.04.37,0,.29-.04.48-.12.59-.08.11-.21.16-.38.16h-5.18Z"/>
      <path class="cls-2" d="M14.71,111.77c-.07,0-.13,0-.19-.02-.06-.01-.11-.04-.16-.09-.04-.05-.08-.12-.1-.21s-.04-.22-.04-.38c0-.28.04-.48.12-.58.08-.11.2-.16.37-.16h1.85c.07,0,.13,0,.19.02.06.01.11.04.16.09.04.05.08.11.11.21.03.09.04.22.04.37,0,.29-.04.48-.12.59-.08.11-.21.16-.38.16h-1.85Z"/>
      <path class="cls-2" d="M16.56,111.77c-.07,0-.13,0-.19-.02-.06-.01-.11-.04-.16-.09-.04-.05-.08-.12-.1-.21s-.04-.22-.04-.38c0-.28.04-.48.12-.58.08-.11.2-.16.37-.16h1.85c.07,0,.13,0,.19.02.06.01.11.04.16.09.04.05.08.11.11.21.03.09.04.22.04.37,0,.29-.04.48-.12.59-.08.11-.21.16-.38.16h-1.85Z"/>
      <path class="cls-2" d="M22.88,110.33c-.02-.34-.08-.65-.16-.93-.08-.28-.21-.52-.38-.73-.17-.2-.38-.36-.65-.47-.27-.11-.6-.17-1-.17-.06,0-.15,0-.26.01-.11,0-.23.02-.36.04-.14.02-.28.05-.43.08-.15.03-.3.07-.45.11v-1.46c.1-.04.22-.07.35-.11.13-.04.28-.07.44-.11.16-.03.32-.06.49-.08.17-.02.35-.03.52-.03.65,0,1.21.11,1.65.34.45.23.81.53,1.09.91.28.38.48.82.6,1.31.12.49.18,1.01.18,1.54v1.17h-6.1c-.07,0-.13,0-.19-.02-.06-.01-.11-.04-.16-.09-.04-.05-.08-.11-.1-.21-.03-.09-.04-.22-.04-.38,0-.28.04-.48.11-.59.08-.1.2-.16.37-.16h4.47Z"/>
      <path class="cls-2" d="M30.78,111.01c0,.58-.06,1.1-.19,1.57-.13.46-.34.85-.65,1.16-.31.32-.72.56-1.24.73-.52.17-1.16.25-1.94.25h-.39v-1.52h.29c.34,0,.64-.02.89-.07.25-.04.46-.1.64-.18s.32-.17.43-.27c.11-.1.2-.21.26-.32.06-.11.11-.23.14-.35.03-.12.05-.24.06-.35-.26.07-.56.11-.92.11-.34,0-.65-.05-.94-.15-.29-.1-.54-.25-.76-.46-.21-.21-.38-.46-.51-.77-.12-.31-.18-.67-.18-1.1,0-.36.06-.72.17-1.05.11-.34.27-.63.49-.89.21-.26.48-.46.8-.62.32-.16.69-.23,1.1-.23.46,0,.85.08,1.16.23.32.16.57.37.76.64.19.27.33.58.41.94.08.36.12.74.12,1.14v1.57ZM27.37,109.23c0,.35.08.62.23.83.16.2.39.3.7.3.34,0,.62-.06.83-.18v-.83c0-.21-.01-.41-.04-.58-.03-.17-.08-.32-.15-.44-.07-.12-.16-.21-.27-.28-.11-.07-.25-.1-.41-.1s-.3.03-.41.09c-.11.06-.21.15-.28.26-.07.11-.12.24-.16.4-.03.16-.05.33-.05.52"/>
      <path class="cls-2" d="M36.76,111.77c-.11,0-.22,0-.32-.02-.1-.02-.19-.04-.28-.09-.09-.04-.17-.1-.26-.18-.08-.08-.16-.17-.23-.28-.12.13-.25.24-.39.32-.14.08-.28.14-.43.17-.15.04-.3.06-.46.07-.16.01-.32.02-.48.02h-2.18v-1.44h2.49c.19,0,.34-.02.44-.07.1-.04.15-.12.15-.24,0-.05,0-.1-.03-.15-.02-.05-.05-.12-.09-.19-.04-.08-.1-.17-.17-.28-.07-.11-.16-.24-.27-.4l-1.15-1.69,1.49-.95,1.56,2.55c.17.27.31.49.42.68.11.18.22.33.31.44.09.11.17.19.25.23.08.05.16.07.24.07.07,0,.13,0,.19.02.06.01.11.04.15.09.04.05.08.11.1.21.03.09.04.22.04.37,0,.29-.04.48-.12.59-.08.11-.2.16-.37.16h-.6Z"/>
      <path class="cls-2" d="M37.36,111.77c-.07,0-.13,0-.19-.02-.06-.01-.11-.04-.16-.09-.04-.05-.08-.12-.1-.21s-.04-.22-.04-.38c0-.28.04-.48.12-.58.08-.11.2-.16.37-.16h1.85c.07,0,.13,0,.19.02.06.01.11.04.16.09.04.05.08.11.11.21.03.09.04.22.04.37,0,.29-.04.48-.12.59-.08.11-.21.16-.38.16h-1.85Z"/>
      <path class="cls-2" d="M39.2,111.77c-.07,0-.13,0-.19-.02-.06-.01-.11-.04-.16-.09-.04-.05-.08-.12-.1-.21s-.04-.22-.04-.38c0-.28.04-.48.12-.58.08-.11.2-.16.37-.16h2.39c.07,0,1.85,0,1.91.02.06.01.11.04.16.09.05.05.08.11.11.21.03.09.04.22.04.37,0,.29-.04.48-.12.59-.08.11-1.93.16-2.1.16h-2.39Z"/>
      <path class="cls-2" d="M41.59,111.77c-.07,0-.13,0-.19-.02-.06-.01-.11-.04-.16-.09-.04-.05-.08-.12-.1-.21s-.04-.22-.04-.38c0-.28.04-.48.12-.58.08-.11.2-.16.37-.16h3.57c.07,0,.13,0,.19.02.06.01.11.04.16.09.05.05.08.11.11.21.03.09.04.22.04.37,0,.29-.04.48-.12.59-.08.11-.21.16-.38.16h-3.57Z"/>
      <path class="cls-2" d="M45.16,111.77c-.07,0-.13,0-.19-.02-.06-.01-.11-.04-.16-.09-.04-.05-.08-.12-.1-.21s-.04-.22-.04-.38c0-.28.04-.48.12-.58.08-.11.2-.16.37-.16h1.85c.07,0,.13,0,.19.02.06.01.11.04.16.09.04.05.08.11.11.21.03.09.04.22.04.37,0,.29-.04.48-.12.59-.08.11-.21.16-.38.16h-1.85Z"/>
      <path class="cls-2" d="M47.01,111.77c-.07,0-.13,0-.19-.02-.06-.01-.11-.04-.16-.09-.04-.05-.08-.12-.1-.21s-.04-.22-.04-.38c0-.28.04-.48.12-.58.08-.11.2-.16.37-.16h1.85c.07,0,.13,0,.19.02.06.01.11.04.16.09.04.05.08.11.11.21.03.09.04.22.04.37,0,.29-.04.48-.12.59-.08.11-.21.16-.38.16h-1.85Z"/>
      <path class="cls-2" d="M50.3,110.33v-7.26h1.64v8.69h-3.08c-.07,0-.13,0-.19-.02-.06-.01-.11-.04-.15-.09-.04-.05-.08-.11-.1-.21-.03-.09-.04-.22-.04-.38,0-.28.04-.48.12-.59.08-.1.2-.16.37-.16h1.44Z"/>
      <rect class="cls-2" x="53.43" y="103.07" width="1.64" height="8.69"/>
      <path class="cls-2" d="M64.4,111.77c-.2,0-.4-.02-.59-.04-.19-.03-.36-.08-.52-.16-.16-.08-.3-.18-.42-.31-.12-.13-.21-.3-.28-.5-.15.03-.29.06-.44.08-.15.02-.3.03-.45.03-.14,0-.29-.01-.47-.04-.17-.03-.35-.07-.53-.14-.18-.07-.35-.15-.52-.27-.17-.11-.32-.25-.45-.42-.13-.17-.23-.37-.32-.61-.08-.23-.12-.51-.12-.82,0-.46.08-.84.24-1.16.16-.32.37-.58.63-.78.26-.2.54-.35.85-.43.31-.09.62-.13.92-.13h2.15v3.75c0,.1,0,.18.02.25.01.07.03.12.06.16.03.04.07.07.13.08.05.02.13.02.21.02h.61c.07,0,.13,0,.19.02.06.01.11.04.15.09.04.05.08.11.1.21.03.09.04.22.04.37,0,.29-.04.48-.12.59-.08.11-.2.16-.37.16h-.74ZM60.15,103.99c0-.12.02-.24.07-.34s.11-.2.19-.28c.08-.08.17-.15.28-.19s.22-.07.35-.07.24.02.34.07.2.11.28.19c.08.08.14.18.19.28s.07.22.07.34-.02.24-.07.35c-.05.11-.11.2-.19.28-.08.08-.17.15-.28.19-.11.05-.22.07-.34.07s-.24-.02-.35-.07c-.11-.04-.2-.11-.28-.19s-.15-.18-.19-.28c-.05-.11-.07-.22-.07-.35M60.91,108.5c0,.11.01.22.04.33.02.11.07.21.13.3.07.09.16.16.27.22.11.06.26.08.44.08.1,0,.21,0,.32-.01.11,0,.23-.03.35-.08v-1.72h-.63c-.31,0-.55.08-.7.24-.15.16-.23.38-.23.65M62.2,103.99c0-.12.02-.24.07-.34.05-.11.11-.2.19-.28.08-.08.18-.15.28-.19s.22-.07.34-.07.24.02.35.07.2.11.28.19c.08.08.14.18.19.28s.07.22.07.34-.02.24-.07.35c-.05.11-.11.2-.19.28-.08.08-.17.15-.28.19-.11.05-.22.07-.35.07s-.24-.02-.34-.07c-.11-.04-.2-.11-.28-.19-.08-.08-.15-.18-.19-.28-.05-.11-.07-.22-.07-.35"/>
      <path class="cls-2" d="M65.14,111.77c-.07,0-.13,0-.19-.02-.06-.01-.11-.04-.16-.09-.04-.05-.08-.12-.1-.21s-.04-.22-.04-.38c0-.28.04-.48.12-.58.08-.11.2-.16.37-.16h1.85c.07,0,.13,0,.19.02.06.01.11.04.16.09.04.05.08.11.11.21.03.09.04.22.04.37,0,.29-.04.48-.12.59-.08.11-.21.16-.38.16h-1.85Z"/>
      <path class="cls-2" d="M66.99,111.77c-.07,0-.13,0-.19-.02-.06-.01-.11-.04-.16-.09-.04-.05-.08-.12-.1-.21s-.04-.22-.04-.38c0-.28.04-.48.12-.58.08-.11.2-.16.37-.16h1.85c.07,0,.13,0,.19.02.06.01.11.04.16.09.04.05.08.11.11.21.03.09.04.22.04.37,0,.29-.04.48-.12.59-.08.11-.21.16-.38.16h-1.85Z"/>
      <path class="cls-2" d="M68.84,111.77c-.07,0-.13,0-.19-.02-.06-.01-.11-.04-.16-.09-.04-.05-.08-.12-.1-.21s-.04-.22-.04-.38c0-.28.04-.48.12-.58.08-.11.2-.16.37-.16h1.85c.07,0,1.85,0,1.91.02.06.01.11.04.16.09.05.05.08.11.11.21.03.09.04.22.04.37,0,.29-.04.48-.12.59-.08.11-1.93.16-2.1.16h-1.85Z"/>
      <path class="cls-2" d="M70.69,111.77c-.07,0-.13,0-.19-.02-.06-.01-.11-.04-.16-.09-.04-.05-.08-.12-.1-.21s-.04-.22-.04-.38c0-.28.04-.48.12-.58.08-.11.2-.16.37-.16h3.57c.07,0,.13,0,.19.02.06.01.11.04.16.09.05.05.08.11.11.21.03.09.04.22.04.37,0,.29-.04.48-.12.59-.08.11-.21.16-.38.16h-3.57Z"/>
      <path class="cls-2" d="M74.26,111.77c-.07,0-.13,0-.19-.02-.06-.01-.11-.04-.16-.09-.04-.05-.08-.12-.1-.21s-.04-.22-.04-.38c0-.28.04-.48.12-.58.08-.11.2-.16.37-.16h1.85c.07,0,.13,0,.19.02.06.01.11.04.16.09.04.05.08.11.11.21.03.09.04.22.04.37,0,.29-.04.48-.12.59-.08.11-.21.16-.38.16h-1.85Z"/>
      <path class="cls-2" d="M77.2,110.33c.17,0,.36,0,.56-.02.2-.01.38-.03.56-.07l-1.26-1.62c.02-.11.06-.23.1-.35.04-.12.09-.24.14-.35.05-.11.11-.21.16-.31.06-.09.11-.17.17-.22.26-.28.58-.5.97-.66.38-.16.8-.24,1.24-.24.39,0,.72.05,1.01.15.29.1.52.23.71.39.19.16.33.35.42.56.09.21.14.42.14.64,0,.14-.02.3-.08.48-.05.18-.13.36-.22.56-.1.19-.22.38-.36.56-.15.18-.31.35-.5.49h1.8c.07,0,.13,0,.19.02.06.01.11.04.15.09.04.05.08.11.1.21.03.09.04.22.04.37,0,.29-.04.48-.12.59s-.2.16-.37.16h-1.8c-.11,0-.23,0-.35-.03-.12-.02-.25-.05-.38-.08-.13-.04-.26-.09-.39-.14-.13-.06-.25-.13-.36-.21-.37.14-.74.25-1.1.34-.36.09-.73.13-1.11.13h-1.14c-.07,0-.13,0-.19-.02-.06-.01-.11-.04-.16-.09-.04-.05-.08-.12-.1-.21-.03-.09-.04-.22-.04-.38,0-.29.04-.48.12-.59.08-.1.2-.16.37-.16h1.09ZM79.78,107.9c-.3,0-.54.04-.74.11-.2.08-.36.15-.48.23.08.1.17.22.27.36.1.14.2.28.31.42.11.14.21.28.32.41.1.13.2.23.29.32.11-.07.21-.16.31-.27.09-.11.17-.23.23-.35.06-.12.11-.24.15-.36s.05-.22.05-.3c0-.06,0-.12-.02-.19-.02-.07-.05-.13-.1-.19-.05-.06-.12-.1-.22-.14-.09-.04-.22-.06-.37-.06"/>
      <path class="cls-2" d="M82.75,111.77c-.07,0-.13,0-.19-.02-.06-.01-.11-.04-.16-.09-.04-.05-.08-.12-.1-.21s-.04-.22-.04-.38c0-.28.04-.48.12-.58.08-.11.2-.16.37-.16h1.85c.07,0,.13,0,.19.02.06.01.11.04.16.09.04.05.08.11.11.21.03.09.04.22.04.37,0,.29-.04.48-.12.59-.08.11-.21.16-.38.16h-1.85Z"/>
      <path class="cls-2" d="M84.6,111.77c-.07,0-.13,0-.19-.02-.06-.01-.11-.04-.16-.09-.04-.05-.08-.12-.1-.21s-.04-.22-.04-.38c0-.28.04-.48.12-.58.08-.11.2-.16.37-.16h3c.07,0,.13,0,.19.02.06.01.11.04.16.09.05.05.08.11.11.21.03.09.04.22.04.37,0,.29-.04.48-.12.59-.08.11-.21.16-.38.16h-3Z"/>
      <path class="cls-2" d="M87.6,111.77c-.07,0-.13,0-.19-.02-.06-.01-.11-.04-.16-.09-.04-.05-.08-.12-.1-.21s-1.19-.22-1.19-.38c0-.28,1.19-.48,1.26-.58.08-.11.2-.16.37-.16h3.46c.07,0,.13,0,.19.02.06.01.11.04.16.09.05.05.08.11.11.21.03.09.04.22.04.37,0,.29-.04.48-.12.59-.08.11-.21.16-.38.16h-3.46Z"/>
      <path class="cls-2" d="M91.06,111.77c-.07,0-.13,0-.19-.02-.06-.01-.11-.04-.16-.09-.04-.05-.08-.12-.1-.21s-.04-.22-.04-.38c0-.28.04-.48.12-.58.08-.11.2-.16.37-.16h1.85c.07,0,.13,0,.19.02.06.01.11.04.16.09.04.05.08.11.11.21.03.09.04.22.04.37,0,.29-.04.48-.12.59-.08.11-.21.16-.38.16h-1.85Z"/>
      <path class="cls-2" d="M92.91,111.77c-.07,0-.13,0-.19-.02-.06-.01-.11-.04-.16-.09-.04-.05-.08-.12-.1-.21s-.04-.22-.04-.38c0-.28.04-.48.12-.58.08-.11.2-.16.37-.16h1.85c.07,0,.13,0,.19.02.06.01.11.04.16.09.04.05.08.11.11.21.03.09.04.22.04.37,0,.29-.04.48-.12.59-.08.11-.21.16-.38.16h-1.85Z"/>
      <path class="cls-2" d="M94.97,110.33c.11,0,.21-.01.3-.04s.18-.08.26-.15c.08-.07.16-.17.23-.3.07-.13.15-.29.22-.5.19-.51.4-.93.62-1.25s.46-.57.7-.75c.24-.18.49-.3.73-.36.24-.06.48-.09.71-.09.32,0,.63.06.91.17.29.12.53.29.75.5.21.22.38.48.51.8.12.32.19.67.19,1.06,0,.36-.05.69-.14,1-.1.3-.24.57-.43.79-.19.22-.43.39-.71.51-.29.12-.62.18-.99.18-.34,0-.68-.05-1.02-.15-.34-.1-.7-.27-1.07-.51-.11.12-.22.22-.33.29-.11.07-.22.12-.33.15-.11.03-.23.05-.35.06-.12,0-.25.01-.38.01h-.59c-.07,0-.13,0-.19-.02-.06-.01-.11-.04-.15-.09-.04-.04-.08-.11-.1-.21-.03-.09-.04-.22-.04-.38,0-.28.04-.48.12-.59.08-.1.2-.16.37-.16h.21ZM99.46,109.43c0-.12-.02-.25-.04-.37-.03-.13-.08-.24-.15-.34-.07-.1-.15-.19-.26-.25s-.23-.1-.38-.1c-.1,0-.21.03-.32.1-.11.07-.22.17-.33.3-.11.14-.21.31-.31.52-.1.21-.18.45-.25.74.18.11.37.21.58.28.21.07.42.11.63.11.27,0,.47-.08.62-.23.15-.15.22-.41.22-.76"/>
      <path class="cls-2" d="M105.4,111.01c0,.29-.04.48-.12.59-.08.11-.2.16-.37.16h-.54c-.29,0-.55-.03-.78-.09s-.44-.16-.61-.31c-.17-.15-.31-.34-.4-.58-.09-.24-.14-.55-.14-.91v-6.8h1.64v6.58c0,.15.01.26.04.35.03.09.06.16.11.21.05.05.11.08.19.1.08.02.16.02.26.02h.23c.06,0,.12,0,.18.02.06.01.11.04.16.09.04.04.08.11.11.21.03.09.04.22.04.37"/>
      <path class="cls-2" d="M104.9,111.77c-.07,0-.13,0-.19-.02-.06-.01-.11-.04-.16-.09-.04-.05-.08-.12-.1-.21s-.04-.22-.04-.38c0-.28.04-.48.12-.58.08-.11.2-.16.37-.16h1.85c.07,0,.13,0,.19.02.06.01.11.04.16.09.04.05.08.11.11.21.03.09.04.22.04.37,0,.29-.04.48-.12.59-.08.11-.21.16-.38.16h-1.85Z"/>
      <path class="cls-2" d="M106.75,111.77c-.07,0-.13,0-.19-.02-.06-.01-.11-.04-.16-.09-.04-.05-.08-.12-.1-.21s-.04-.22-.04-.38c0-.28.04-.48.12-.58.08-.11.2-.16.37-.16h1.85c.07,0,1.74,0,1.8.02.06.01.11.04.16.09.05.05.08.11.11.21.03.09.04.22.04.37,0,.29-.04.48-.12.59-.08.11-1.82.16-1.99.16h-1.85Z"/>
      <path class="cls-2" d="M108.6,111.77c-.07,0-.13,0-.19-.02-.06-.01-.11-.04-.16-.09-.04-.05-.08-.12-.1-.21s-.04-.22-.04-.38c0-.28.04-.48.12-.58.08-.11.2-.16.37-.16h5.18c.07,0,.13,0,.19.02.06.01.11.04.16.09.05.05.08.11.11.21.03.09.04.22.04.37,0,.29-.04.48-.12.59-.08.11-.21.16-.38.16h-5.18Z"/>
      <path class="cls-2" d="M113.78,111.77c-.07,0-1.85,0-1.91-.02s-.11-.04-.15-.09c-.04-.05-.08-.12-.1-.21-.03-.09-.04-.22-.04-.38,0-.28.04-.48.12-.58.08-.11,1.92-.16,2.09-.16h1.85c.07,0,.13,0,.19.02.06.01.11.04.16.09.04.05.08.11.11.21.03.09.04.22.04.37,0,.29-.04.48-.12.59-.08.11-.21.16-.38.16h-1.85Z"/>
      <path class="cls-2" d="M115.63,111.77c-.07,0-.13,0-.19-.02-.06-.01-.11-.04-.16-.09-.04-.05-.08-.12-.1-.21s-.04-.22-.04-.38c0-.28.04-.48.12-.58.08-.11.2-.16.37-.16h1.85c.07,0,.13,0,.19.02.06.01.11.04.16.09.04.05.08.11.11.21.03.09.04.22.04.37,0,.29-.04.48-.12.59-.08.11-.21.16-.38.16h-1.85Z"/>
      <path class="cls-2" d="M121.95,110.33c-.02-.34-.08-.65-.16-.93-.08-.28-.21-.52-.37-.73-.17-.2-.39-.36-.65-.47-.27-.11-.6-.17-1-.17-.06,0-.15,0-.26.01-.11,0-.23.02-.37.04-.13.02-.28.05-.43.08-.15.03-.3.07-.45.11v-1.46c.1-.04.22-.07.35-.11.13-.04.28-.07.44-.11.16-.03.32-.06.49-.08.17-.02.35-.03.52-.03.65,0,1.2.11,1.65.34s.81.53,1.09.91c.28.38.48.82.6,1.31.12.49.18,1.01.18,1.54v1.17h-6.1c-.07,0-.13,0-.19-.02-.06-.01-.11-.04-.15-.09-.04-.05-.08-.11-.1-.21-.03-.09-.04-.22-.04-.38,0-.29.04-.48.12-.59.08-.11.2-.16.37-.16h4.47ZM119.46,113.85c0-.12.02-.24.07-.35.04-.11.11-.2.19-.28.08-.08.17-.14.28-.19.11-.05.22-.07.35-.07s.24.02.34.07c.11.05.2.11.28.19.08.08.15.17.19.28.05.11.07.22.07.35s-.02.24-.07.34-.11.2-.19.28c-.08.08-.17.15-.28.19s-.22.07-.34.07-.24-.02-.35-.07-.2-.11-.28-.19-.15-.18-.19-.28c-.05-.11-.07-.22-.07-.34"/>
      <path class="cls-2" d="M3.55,141.35c.28,0,.54-.05.76-.14.23-.09.41-.23.57-.4.15-.17.27-.39.35-.63.08-.25.12-.53.12-.84v-5.02h1.74v5.02c0,.51-.08.98-.25,1.41-.17.43-.4.8-.71,1.11-.3.31-.68.55-1.11.73-.44.17-.93.26-1.48.26s-1.04-.09-1.48-.26c-.44-.17-.81-.42-1.12-.73-.31-.31-.54-.68-.71-1.11-.16-.43-.25-.9-.25-1.41v-5.02h1.74v5.02c0,.31.04.59.12.84.08.25.2.46.35.63.15.17.34.31.57.4.22.1.48.14.77.14"/>
      <path class="cls-2" d="M15.98,134.31v8.43h-.9c-.14,0-.25-.02-.34-.07-.09-.04-.18-.12-.27-.23l-4.2-5.34c.01.14.02.27.03.4,0,.13,0,.25,0,.37v4.87h-1.54v-8.43h.92c.07,0,.14,0,.19,0,.05,0,.1.02.14.04.04.02.08.05.12.08.04.03.08.08.13.14l4.23,5.37c-.02-.15-.03-.29-.04-.43,0-.14-.01-.27-.01-.39v-4.82h1.54Z"/>
      <rect class="cls-2" x="17.75" y="134.31" width="1.75" height="8.43"/>
      <path class="cls-2" d="M28.65,134.31l-3.39,8.43h-1.58l-3.39-8.43h1.41c.15,0,.27.04.37.11.09.07.17.16.21.28l1.82,4.85c.07.18.14.38.21.6.07.22.13.44.19.68.05-.24.11-.46.17-.68.06-.21.13-.41.2-.6l1.81-4.85c.04-.1.11-.18.21-.26.1-.08.22-.12.37-.12h1.41Z"/>
      <polygon class="cls-2" points="31.18 135.68 31.18 137.84 33.99 137.84 33.99 139.16 31.18 139.16 31.18 141.37 34.79 141.37 34.79 142.74 29.42 142.74 29.42 134.31 34.79 134.31 34.79 135.68 31.18 135.68"/>
      <path class="cls-2" d="M42.81,142.74h-1.57c-.29,0-.51-.11-.64-.34l-1.6-2.59c-.07-.1-.14-.17-.22-.22-.08-.05-.2-.07-.35-.07h-.59v3.21h-1.74v-8.43h2.65c.59,0,1.09.06,1.51.18.42.12.76.29,1.03.51.27.22.46.48.59.78.12.3.19.63.19.99,0,.28-.04.54-.12.79-.08.25-.19.48-.35.68-.15.21-.34.39-.56.55-.22.16-.47.29-.76.38.11.06.22.14.31.22.1.09.18.19.26.31l1.96,3.03ZM38.73,138.3c.28,0,.53-.04.73-.11.21-.07.37-.17.51-.29.13-.13.23-.27.29-.45.06-.17.09-.36.09-.56,0-.4-.13-.71-.4-.93-.27-.22-.67-.33-1.21-.33h-.91v2.67h.89Z"/>
      <path class="cls-2" d="M48.2,135.93c-.05.09-.11.15-.17.2-.06.04-.13.06-.22.06s-.18-.03-.28-.09c-.1-.06-.21-.12-.35-.2-.13-.07-.28-.13-.45-.19-.17-.06-.37-.09-.6-.09-.4,0-.7.09-.91.27-.2.18-.3.41-.3.71,0,.19.05.34.17.46.11.12.26.23.43.32.18.09.38.17.61.24.23.07.46.15.7.23.24.08.47.18.7.29.23.11.43.25.61.42.18.17.33.38.43.62.11.24.17.54.17.9,0,.38-.07.74-.2,1.08-.13.34-.33.63-.58.88-.25.25-.56.45-.93.59-.37.14-.79.21-1.26.21-.27,0-.53-.03-.8-.08-.27-.05-.52-.13-.77-.23-.25-.1-.48-.21-.69-.35-.22-.14-.41-.29-.57-.45l.51-.83c.04-.06.1-.11.17-.15.07-.04.14-.06.22-.06.11,0,.22.04.33.11.12.08.25.16.4.26.15.09.33.18.53.26.2.08.44.12.72.12.41,0,.72-.09.94-.28.22-.19.33-.46.33-.83,0-.21-.06-.38-.17-.52-.11-.13-.26-.24-.43-.33-.18-.09-.38-.16-.61-.23s-.46-.14-.7-.21c-.24-.08-.47-.17-.7-.28-.23-.11-.43-.25-.61-.43-.18-.18-.32-.4-.43-.66-.11-.26-.17-.59-.17-.98,0-.31.06-.62.19-.91.12-.29.31-.56.55-.78.24-.23.54-.41.89-.55.35-.14.75-.21,1.2-.21.51,0,.98.08,1.41.24.43.16.8.37,1.09.65l-.43.82Z"/>
      <rect class="cls-2" x="50.04" y="134.31" width="1.75" height="8.43"/>
      <polygon class="cls-2" points="59.52 135.72 57.06 135.72 57.06 142.74 55.31 142.74 55.31 135.72 52.85 135.72 52.85 134.31 59.52 134.31 59.52 135.72"/>
      <path class="cls-2" d="M64.38,139.5v3.24h-1.74v-3.24l-3.06-5.19h1.53c.15,0,.27.04.36.11.09.07.16.16.22.28l1.38,2.65c.09.18.18.34.25.5.08.15.14.31.2.46.05-.15.12-.31.19-.47.07-.16.15-.32.24-.5l1.37-2.65c.05-.09.12-.18.21-.26.09-.08.21-.12.36-.12h1.55l-3.06,5.19Z"/>
      <path class="cls-2" d="M78.63,138.52c0,.62-.1,1.19-.31,1.71-.21.53-.5.98-.88,1.36-.38.38-.83.68-1.36.9-.53.22-1.12.33-1.77.33s-1.24-.11-1.77-.33c-.53-.22-.98-.52-1.36-.9-.38-.38-.67-.84-.88-1.36-.21-.53-.31-1.1-.31-1.71s.1-1.19.31-1.71c.21-.52.5-.98.88-1.36.38-.38.83-.68,1.36-.9.53-.22,1.12-.33,1.77-.33s1.23.11,1.77.33c.53.22.98.52,1.36.91.38.39.67.84.88,1.37.21.52.31,1.09.31,1.7M76.85,138.52c0-.44-.06-.84-.17-1.19-.12-.35-.28-.65-.5-.89-.22-.25-.48-.43-.79-.56-.31-.13-.67-.2-1.06-.2s-.75.07-1.06.2c-.31.13-.58.32-.8.56-.22.24-.39.54-.5.89-.12.35-.17.75-.17,1.19s.06.84.17,1.19c.12.35.28.65.5.89.22.24.48.43.8.56.31.13.67.2,1.06.2s.75-.07,1.06-.2c.31-.13.58-.32.79-.56.22-.24.39-.54.5-.89.12-.35.17-.75.17-1.19"/>
      <polygon class="cls-2" points="81.67 135.68 81.67 138.01 84.7 138.01 84.7 139.38 81.67 139.38 81.67 142.74 79.91 142.74 79.91 134.31 85.28 134.31 85.28 135.68 81.67 135.68"/>
      <path class="cls-2" d="M96.52,138.52c0,.62-.1,1.18-.31,1.7-.21.52-.5.96-.88,1.33s-.83.66-1.36.87c-.53.21-1.12.31-1.77.31h-3.24v-8.43h3.24c.65,0,1.24.1,1.77.31.53.21.98.5,1.36.87s.67.82.88,1.33c.21.51.31,1.08.31,1.69M94.73,138.52c0-.44-.06-.84-.17-1.19-.12-.35-.28-.65-.5-.89-.22-.24-.48-.43-.79-.56-.31-.13-.66-.2-1.06-.2h-1.49v5.7h1.49c.4,0,.75-.07,1.06-.2.31-.13.58-.32.79-.56.22-.25.38-.55.5-.9.12-.35.17-.75.17-1.2"/>
      <path class="cls-2" d="M105.94,138.52c0,.62-.1,1.19-.31,1.71-.21.53-.5.98-.88,1.36-.38.38-.83.68-1.36.9-.53.22-1.12.33-1.77.33s-1.24-.11-1.77-.33c-.53-.22-.98-.52-1.36-.9-.38-.38-.67-.84-.88-1.36-.21-.53-.31-1.1-.31-1.71s.1-1.19.31-1.71c.21-.52.5-.98.88-1.36.38-.38.83-.68,1.36-.9.53-.22,1.12-.33,1.77-.33s1.23.11,1.77.33c.53.22.98.52,1.36.91.38.39.67.84.88,1.37.21.52.31,1.09.31,1.7M104.16,138.52c0-.44-.06-.84-.17-1.19-.12-.35-.28-.65-.5-.89-.22-.25-.48-.43-.79-.56-.31-.13-.67-.2-1.06-.2s-.75.07-1.06.2c-.31.13-.58.32-.8.56-.22.24-.39.54-.5.89-.12.35-.17.75-.17,1.19s.06.84.17,1.19c.12.35.28.65.5.89.22.24.48.43.8.56.31.13.67.2,1.06.2s.75-.07,1.06-.2c.31-.13.58-.32.79-.56.22-.24.39-.54.5-.89.12-.35.17-.75.17-1.19"/>
      <polygon class="cls-2" points="114.44 134.31 114.44 142.74 112.69 142.74 112.69 139.11 108.97 139.11 108.97 142.74 107.22 142.74 107.22 134.31 108.97 134.31 108.97 137.89 112.69 137.89 112.69 134.31 114.44 134.31"/>
      <path class="cls-2" d="M123.58,142.74h-1.35c-.15,0-.27-.04-.37-.11-.1-.07-.17-.16-.21-.28l-.57-1.61h-3.36l-.57,1.61c-.04.1-.11.18-.2.26-.1.08-.22.12-.37.12h-1.36l3.29-8.43h1.78l3.29,8.43ZM120.65,139.54l-.91-2.58c-.05-.14-.11-.29-.17-.48-.06-.18-.12-.38-.17-.59-.05.22-.11.42-.17.6-.06.18-.12.34-.17.48l-.91,2.57h2.5Z"/>
      <polygon class="cls-2" points="1.03 149.89 1.03 151.89 3.48 151.89 3.48 152.71 1.03 152.71 1.03 155.32 .01 155.32 .01 149.07 3.91 149.07 3.91 149.89 1.03 149.89"/>
      <path class="cls-2" d="M10.74,152.2c0,.46-.08.89-.22,1.28-.15.39-.36.73-.64,1.01-.27.28-.6.5-.99.66-.38.16-.81.24-1.28.24s-.89-.08-1.27-.24c-.38-.16-.71-.38-.99-.66-.28-.28-.49-.62-.64-1.01-.15-.39-.23-.82-.23-1.28s.08-.89.23-1.28.36-.73.64-1.01c.27-.28.6-.51.99-.66.38-.16.81-.24,1.27-.24s.9.08,1.28.24c.38.16.71.38.99.66.27.28.49.62.64,1.01.15.39.22.82.22,1.28M9.7,152.2c0-.36-.05-.68-.15-.97-.1-.29-.24-.53-.42-.73-.18-.2-.4-.35-.66-.46-.26-.11-.55-.16-.87-.16s-.61.05-.86.16c-.26.11-.48.26-.66.46-.18.2-.32.44-.42.73-.1.29-.15.61-.15.97s.05.69.15.97c.1.29.24.53.42.73.18.2.4.35.66.46.26.11.54.16.86.16s.61-.05.87-.16c.26-.11.48-.26.66-.46.18-.2.32-.44.42-.73.1-.29.15-.61.15-.97"/>
      <path class="cls-2" d="M16.61,155.32h-.91c-.18,0-.31-.07-.39-.21l-1.46-2.11c-.05-.07-.1-.12-.16-.16-.06-.03-.14-.05-.26-.05h-.56v2.52h-1.02v-6.25h1.84c.41,0,.77.04,1.06.12.3.08.54.2.73.36.19.16.33.34.42.56.09.22.14.46.14.73,0,.22-.03.42-.1.61-.07.19-.16.36-.28.51-.12.15-.27.29-.45.4-.18.11-.38.2-.61.27.12.08.23.18.32.32l1.69,2.38ZM13.67,152.07c.23,0,.43-.03.61-.08.17-.06.32-.14.43-.24.12-.1.2-.22.26-.36s.09-.3.09-.47c0-.34-.11-.6-.34-.78-.23-.18-.57-.27-1.03-.27h-.82v2.2h.8Z"/>
      <path class="cls-2" d="M22.8,150.14c-.03.05-.07.09-.1.11-.04.02-.08.04-.13.04-.06,0-.12-.02-.18-.07-.07-.05-.15-.1-.25-.15-.1-.06-.22-.11-.35-.16-.14-.05-.3-.07-.49-.07-.17,0-.33.02-.46.07s-.24.1-.33.18c-.09.08-.16.17-.2.28-.04.11-.07.22-.07.35,0,.16.04.29.12.4.08.11.2.2.33.27.14.08.29.14.47.2.18.06.36.12.54.18.18.06.36.14.54.22.18.08.33.18.47.31.14.12.25.28.33.46.08.18.13.4.13.66,0,.28-.05.54-.14.78-.09.24-.23.45-.41.64-.18.18-.4.32-.67.43-.27.1-.57.16-.91.16-.2,0-.39-.02-.58-.06-.19-.04-.37-.09-.54-.16-.17-.07-.33-.16-.48-.26-.15-.1-.29-.22-.4-.34l.3-.49s.06-.07.1-.1c.04-.02.09-.03.14-.03.07,0,.14.03.22.09.08.06.18.13.29.2.11.07.25.14.41.2.16.06.36.09.58.09.37,0,.65-.09.85-.27.2-.18.3-.43.3-.74,0-.18-.04-.32-.13-.43-.08-.11-.2-.2-.33-.28-.14-.07-.29-.14-.47-.19-.18-.05-.36-.11-.54-.17-.18-.06-.36-.13-.54-.21-.18-.08-.33-.18-.47-.31-.14-.13-.25-.29-.33-.48-.08-.19-.13-.43-.13-.71,0-.23.04-.44.13-.65.09-.21.22-.4.39-.56.17-.16.38-.29.63-.39.25-.1.53-.15.85-.15.36,0,.69.06.99.17.3.11.56.27.78.48l-.25.49Z"/>
      <path class="cls-2" d="M28.61,153.93c.05,0,.1.02.14.07l.4.44c-.26.31-.57.54-.94.71-.37.17-.81.25-1.33.25-.46,0-.87-.08-1.24-.24-.37-.16-.68-.38-.94-.66-.26-.28-.46-.62-.6-1.01-.14-.39-.21-.82-.21-1.29s.07-.9.22-1.29c.15-.39.36-.73.63-1.01.27-.28.59-.5.97-.66.38-.16.79-.23,1.25-.23s.85.07,1.2.22c.35.15.65.34.9.58l-.33.47s-.05.06-.08.08c-.03.02-.08.04-.13.04-.06,0-.12-.03-.2-.08-.07-.05-.17-.11-.28-.18-.11-.07-.26-.12-.43-.18-.17-.05-.39-.08-.64-.08-.3,0-.57.05-.82.16-.25.1-.46.26-.64.46-.18.2-.32.44-.42.73-.1.29-.15.61-.15.98s.05.7.16.98c.1.29.25.53.43.73.18.2.4.35.64.45.24.1.51.16.79.16.17,0,.33-.01.47-.03.14-.02.26-.05.38-.09.12-.04.22-.1.33-.16s.2-.14.31-.23c.06-.05.12-.08.17-.08"/>
      <rect class="cls-2" x="30.03" y="149.07" width="1.02" height="6.25"/>
      <polygon class="cls-2" points="36.44 154.5 36.44 155.32 32.54 155.32 32.54 149.07 36.44 149.07 36.44 149.89 33.56 149.89 33.56 151.77 35.86 151.77 35.86 152.57 33.56 152.57 33.56 154.5 36.44 154.5"/>
      <path class="cls-2" d="M42.71,149.07v6.25h-.52c-.08,0-.15-.01-.2-.04-.05-.03-.11-.07-.16-.14l-3.43-4.41c0,.08.01.17.02.25,0,.08,0,.16,0,.23v4.11h-.89v-6.25h.53s.08,0,.11,0c.03,0,.06.01.08.02.03.01.05.03.07.05.02.02.05.05.07.09l3.44,4.41c0-.09-.02-.18-.02-.26,0-.09,0-.17,0-.24v-4.08h.89Z"/>
      <path class="cls-2" d="M48.54,153.93c.05,0,.1.02.14.07l.4.44c-.26.31-.57.54-.94.71-.37.17-.81.25-1.33.25-.46,0-.87-.08-1.24-.24-.37-.16-.68-.38-.94-.66-.26-.28-.46-.62-.6-1.01-.14-.39-.21-.82-.21-1.29s.07-.9.22-1.29c.15-.39.36-.73.63-1.01.27-.28.59-.5.97-.66.38-.16.79-.23,1.25-.23s.85.07,1.2.22c.35.15.65.34.9.58l-.33.47s-.05.06-.08.08c-.03.02-.08.04-.13.04-.06,0-.12-.03-.2-.08-.07-.05-.17-.11-.28-.18-.11-.07-.26-.12-.43-.18-.17-.05-.39-.08-.64-.08-.3,0-.57.05-.82.16-.25.1-.46.26-.64.46-.18.2-.32.44-.42.73-.1.29-.15.61-.15.98s.05.7.16.98c.1.29.25.53.43.73.18.2.4.35.64.45.24.1.51.16.79.16.17,0,.33-.01.47-.03.14-.02.26-.05.38-.09.12-.04.22-.1.33-.16s.2-.14.31-.23c.06-.05.12-.08.17-.08"/>
      <polygon class="cls-2" points="53.88 154.5 53.87 155.32 49.97 155.32 49.97 149.07 53.87 149.07 53.87 149.89 50.99 149.89 50.99 151.77 53.29 151.77 53.29 152.57 50.99 152.57 50.99 154.5 53.88 154.5"/>
      <path class="cls-2" d="M62.58,155.32h-.91s-.09,0-.13,0c-.04,0-.08-.02-.11-.03-.03-.01-.07-.03-.1-.05-.03-.02-.06-.05-.1-.09l-.52-.53c-.27.24-.59.43-.93.57-.35.14-.73.21-1.14.21-.24,0-.47-.04-.7-.12-.23-.08-.43-.2-.61-.35-.18-.15-.32-.34-.43-.56-.11-.22-.16-.47-.16-.74,0-.2.03-.39.1-.56.06-.18.16-.34.27-.49.12-.15.26-.29.41-.41.16-.12.33-.23.53-.31-.17-.22-.29-.43-.36-.64-.08-.21-.11-.42-.11-.63s.04-.42.12-.61c.08-.19.19-.36.34-.5.15-.14.33-.25.54-.34.21-.08.45-.12.72-.12.24,0,.46.04.66.11.2.08.36.18.5.3.14.13.25.27.33.44.08.16.13.34.14.51l-.59.12c-.05.01-.1,0-.15-.02-.04-.03-.08-.07-.1-.13-.02-.08-.06-.15-.1-.22-.04-.07-.1-.14-.16-.2-.06-.06-.14-.1-.23-.14-.09-.04-.19-.05-.31-.05-.13,0-.25.02-.36.07-.11.04-.2.1-.27.18s-.13.17-.17.27c-.04.1-.06.21-.06.33,0,.09.01.18.03.27.02.09.05.17.1.26.05.09.1.18.17.27.07.09.16.19.26.29l1.72,1.78c.1-.19.19-.39.25-.6s.1-.42.12-.63c0-.06.03-.11.06-.15.03-.04.08-.05.14-.05h.58c0,.36-.06.71-.16,1.04-.11.33-.25.65-.45.93l1.31,1.35ZM58.47,152.33c-.27.16-.46.34-.59.55-.13.21-.19.43-.19.68,0,.17.03.32.09.46.06.13.15.25.25.34.1.09.22.16.36.21.13.05.27.07.42.07.29,0,.55-.05.78-.15.23-.1.44-.23.62-.39l-1.74-1.77Z"/>
      <polygon class="cls-2" points="69.57 149.92 67.62 149.92 67.62 155.32 66.61 155.32 66.61 149.92 64.66 149.92 64.66 149.07 69.57 149.07 69.57 149.92"/>
      <polygon class="cls-2" points="74.34 154.5 74.34 155.32 70.44 155.32 70.44 149.07 74.34 149.07 74.34 149.89 71.46 149.89 71.46 151.77 73.76 151.77 73.76 152.57 71.46 152.57 71.46 154.5 74.34 154.5"/>
      <path class="cls-2" d="M79.65,153.93c.05,0,.1.02.14.07l.4.44c-.26.31-.57.54-.94.71-.37.17-.81.25-1.33.25-.46,0-.87-.08-1.24-.24-.37-.16-.68-.38-.94-.66-.26-.28-.46-.62-.6-1.01-.14-.39-.21-.82-.21-1.29s.07-.9.22-1.29c.15-.39.36-.73.63-1.01.27-.28.6-.5.97-.66.38-.16.79-.23,1.25-.23s.85.07,1.2.22c.35.15.65.34.9.58l-.33.47s-.05.06-.08.08c-.03.02-.08.04-.13.04-.06,0-.12-.03-.2-.08-.07-.05-.17-.11-.28-.18-.11-.07-.26-.12-.43-.18-.17-.05-.39-.08-.64-.08-.3,0-.57.05-.82.16-.25.1-.46.26-.64.46-.18.2-.32.44-.42.73-.1.29-.15.61-.15.98s.05.7.16.98c.1.29.25.53.43.73.18.2.4.35.64.45.24.1.51.16.79.16.17,0,.33-.01.47-.03.14-.02.26-.05.38-.09.12-.04.22-.1.33-.16s.2-.14.31-.23c.06-.05.12-.08.17-.08"/>
      <polygon class="cls-2" points="86.25 149.07 86.25 155.32 85.24 155.32 85.24 152.54 82.1 152.54 82.1 155.32 81.08 155.32 81.08 149.07 82.1 149.07 82.1 151.8 85.24 151.8 85.24 149.07 86.25 149.07"/>
      <path class="cls-2" d="M92.92,149.07v6.25h-.52c-.08,0-.15-.01-.2-.04-.05-.03-.11-.07-.16-.14l-3.43-4.41c0,.08.01.17.02.25,0,.08,0,.16,0,.23v4.11h-.89v-6.25h.53s.08,0,.11,0c.03,0,.06.01.08.02.03.01.05.03.07.05.02.02.05.05.07.09l3.44,4.41c0-.09-.02-.18-.02-.26,0-.09,0-.17,0-.24v-4.08h.89Z"/>
      <path class="cls-2" d="M100.28,152.2c0,.46-.08.89-.22,1.28-.15.39-.36.73-.64,1.01-.27.28-.6.5-.99.66-.38.16-.81.24-1.28.24s-.89-.08-1.27-.24c-.38-.16-.71-.38-.99-.66-.28-.28-.49-.62-.64-1.01-.15-.39-.23-.82-.23-1.28s.08-.89.23-1.28.36-.73.64-1.01c.27-.28.6-.51.99-.66.38-.16.81-.24,1.27-.24s.9.08,1.28.24c.38.16.71.38.99.66.27.28.49.62.64,1.01.15.39.22.82.22,1.28M99.24,152.2c0-.36-.05-.68-.15-.97-.1-.29-.24-.53-.42-.73-.18-.2-.4-.35-.66-.46-.26-.11-.55-.16-.87-.16s-.61.05-.86.16c-.26.11-.48.26-.66.46-.18.2-.32.44-.42.73-.1.29-.15.61-.15.97s.05.69.15.97c.1.29.24.53.42.73.18.2.4.35.66.46.26.11.54.16.86.16s.61-.05.87-.16c.26-.11.48-.26.66-.46.18-.2.32-.44.42-.73.1-.29.15-.61.15-.97"/>
      <polygon class="cls-2" points="105 154.47 105 155.32 101.39 155.32 101.39 149.07 102.41 149.07 102.41 154.47 105 154.47"/>
      <path class="cls-2" d="M111.5,152.2c0,.46-.07.89-.22,1.28-.15.39-.36.73-.64,1.01-.27.28-.6.5-.99.66-.38.16-.81.24-1.28.24s-.89-.08-1.27-.24c-.38-.16-.71-.38-.99-.66-.28-.28-.49-.62-.64-1.01-.15-.39-.23-.82-.23-1.28s.08-.89.23-1.28.36-.73.64-1.01c.27-.28.6-.51.99-.66.38-.16.81-.24,1.27-.24s.9.08,1.28.24c.38.16.71.38.99.66.27.28.49.62.64,1.01s.22.82.22,1.28M110.46,152.2c0-.36-.05-.68-.15-.97-.1-.29-.24-.53-.42-.73-.18-.2-.4-.35-.66-.46-.26-.11-.55-.16-.87-.16s-.61.05-.86.16c-.26.11-.48.26-.66.46-.18.2-.32.44-.42.73-.1.29-.15.61-.15.97s.05.69.15.97c.1.29.24.53.42.73.18.2.4.35.66.46.26.11.54.16.86.16s.61-.05.87-.16c.26-.11.48-.26.66-.46.18-.2.32-.44.42-.73.1-.29.15-.61.15-.97"/>
      <path class="cls-2" d="M117.73,152.24v2.47c-.62.45-1.35.67-2.17.67-.51,0-.96-.08-1.37-.24-.41-.16-.76-.38-1.05-.66-.29-.28-.51-.62-.67-1.01-.16-.39-.23-.82-.23-1.29s.08-.9.23-1.29c.15-.39.37-.73.65-1.01.28-.28.62-.5,1.02-.66.4-.16.84-.23,1.34-.23.25,0,.49.02.7.06.22.04.42.09.6.16.18.07.36.15.51.25.16.1.3.21.43.33l-.29.46c-.05.07-.11.12-.18.14-.07.02-.15,0-.23-.05-.08-.05-.17-.1-.27-.16-.09-.06-.2-.11-.32-.15-.12-.05-.26-.09-.42-.12-.16-.03-.35-.05-.56-.05-.33,0-.63.05-.89.16-.26.11-.49.26-.68.46-.19.2-.33.45-.43.73-.1.29-.15.61-.15.96,0,.38.05.71.16,1s.26.54.46.75c.2.2.43.36.71.47s.59.16.94.16c.26,0,.49-.03.69-.08.2-.06.4-.13.59-.23v-1.24h-.87c-.07,0-.12-.02-.16-.05-.04-.04-.06-.08-.06-.14v-.58h2Z"/>
      <path class="cls-2" d="M121.3,152.87v2.45h-1.01v-2.45l-2.28-3.8h.89c.09,0,.16.02.21.07.05.04.1.1.13.16l1.28,2.24c.06.11.11.22.16.32.05.1.09.2.13.3.03-.1.07-.2.12-.3.05-.1.1-.21.16-.32l1.27-2.24c.03-.06.07-.11.13-.16.05-.05.13-.07.21-.07h.89l-2.28,3.8Z"/>
      <path class="cls-2" d="M2.11,124.29c0,.2-.03.34-.08.42-.06.08-.14.12-.26.12h-.38c-.2,0-.39-.02-.55-.07-.17-.04-.31-.12-.43-.22-.12-.1-.22-.24-.28-.41-.07-.17-.1-.39-.1-.65v-4.81h1.16v4.65c0,.1,0,.19.03.25.02.06.04.11.08.15.04.03.08.06.13.07.05.01.11.02.18.02h.16s.09,0,.13.01c.04,0,.08.03.11.06.03.03.06.08.08.15.02.06.03.15.03.26"/>
      <path class="cls-2" d="M1.76,124.82s-.09,0-.14-.01c-.04,0-.08-.03-.11-.06-.03-.03-.06-.08-.07-.15-.02-.07-.03-.16-.03-.27,0-.2.03-.34.08-.41.05-.08.14-.11.26-.11h1.31s.09,0,.14.01c.04,0,.08.03.11.06.03.03.06.08.08.15s.03.15.03.26c0,.2-.03.34-.08.42-.06.08-.15.11-.27.11h-1.31Z"/>
      <path class="cls-2" d="M3.07,124.82s-.09,0-.14-.01c-.04,0-.08-.03-.11-.06-.03-.03-.06-.08-.07-.15-.02-.07-.03-.16-.03-.27,0-.2.03-.34.08-.41.05-.08.14-.11.26-.11h1.31s.09,0,.14.01c.04,0,.08.03.11.06.03.03.06.08.08.15s.03.15.03.26c0,.2-.03.34-.08.42-.06.08-.15.11-.27.11h-1.31Z"/>
      <path class="cls-2" d="M4.37,124.82s-.09,0-.14-.01c-.04,0-.08-.03-.11-.06-.03-.03-.06-.08-.07-.15-.02-.07-.03-.16-.03-.27,0-.2.03-.34.08-.41.05-.08.14-.11.26-.11h1.31s.09,0,.14.01c.04,0,.08.03.11.06.03.03.06.08.08.15s.03.15.03.26c0,.2-.03.34-.08.42-.06.08-.15.11-.27.11h-1.31Z"/>
      <path class="cls-2" d="M5.68,124.82s-.09,0-.14-.01c-.04,0-.08-.03-.11-.06-.03-.03-.06-.08-.07-.15-.02-.07-.03-.16-.03-.27,0-.2.03-.34.08-.41.05-.08.14-.11.26-.11h1.31s.09,0,.14.01c.04,0,.08.03.11.06.03.03.06.08.08.15s.03.15.03.26c0,.2-.03.34-.08.42-.06.08-.15.11-.27.11h-1.31Z"/>
      <path class="cls-2" d="M6.99,124.82s-.09,0-.14-.01c-.04,0-.08-.03-.11-.06-.03-.03-.06-.08-.07-.15-.02-.07-.03-.16-.03-.27,0-.2.03-.34.08-.41.05-.08.14-.11.26-.11h1.31s.09,0,.14.01c.04,0,.08.03.11.06.03.03.06.08.08.15s.03.15.03.26c0,.2-.03.34-.08.42-.06.08-.15.11-.27.11h-1.31Z"/>
      <path class="cls-2" d="M11.48,124.82c-.09,0-.18,0-.27-.02-.09-.01-.18-.03-.27-.07-.09-.03-.17-.08-.25-.14-.08-.06-.15-.14-.21-.24-.07.11-.15.19-.25.25-.1.06-.2.11-.32.14-.11.03-.23.05-.35.06-.12,0-.24.01-.36.01h-.9s-.09,0-.13-.01c-.04,0-.08-.03-.11-.06-.03-.03-.05-.08-.07-.15-.02-.07-.03-.16-.03-.27,0-.2.03-.34.08-.41.05-.07.14-.11.26-.11h.71c.1,0,.19,0,.26-.02.07-.01.12-.04.17-.07.04-.04.07-.09.09-.16.02-.07.03-.16.03-.27v-2h1.15v1.9c0,.11.01.21.04.29.03.08.07.14.13.19.06.05.14.08.24.11.1.02.22.03.37.03.04,0,.09,0,.13.01.04,0,.08.03.11.06.03.03.06.08.08.15.02.06.03.15.03.26,0,.2-.03.34-.08.42-.06.08-.14.12-.26.12M8.53,126.31c0-.09.02-.17.05-.24.03-.08.08-.14.14-.2.06-.06.12-.1.2-.14.08-.03.16-.05.24-.05s.17.02.24.05c.08.03.14.08.2.14.06.06.1.12.14.2.03.08.05.16.05.24s-.02.17-.05.24c-.03.08-.08.14-.14.2-.05.06-.12.1-.2.14-.08.03-.16.05-.24.05s-.17-.02-.24-.05c-.08-.03-.14-.08-.2-.14-.06-.06-.1-.13-.14-.2-.03-.08-.05-.16-.05-.24M9.97,126.31c0-.09.02-.17.05-.24.03-.08.08-.14.14-.2s.12-.1.2-.14c.08-.03.16-.05.24-.05s.17.02.24.05c.08.03.14.08.2.14.05.06.1.12.13.2.03.08.05.16.05.24s-.02.17-.05.24c-.03.08-.08.14-.13.2-.06.06-.12.1-.2.14-.08.03-.16.05-.24.05s-.17-.02-.24-.05c-.08-.03-.14-.08-.2-.14s-.1-.13-.14-.2c-.03-.08-.05-.16-.05-.24"/>
      <path class="cls-2" d="M11.48,124.82s-.09,0-.14-.01c-.04,0-.08-.03-.11-.06-.03-.03-.06-.08-.07-.15-.02-.07-.03-.16-.03-.27,0-.2.03-.34.08-.41.05-.08.14-.11.26-.11h1.31s.09,0,.14.01c.04,0,.08.03.11.06.03.03.06.08.08.15s.03.15.03.26c0,.2-.03.34-.08.42-.06.08-.15.11-.27.11h-1.31Z"/>
      <path class="cls-2" d="M12.78,124.82s-.09,0-.14-.01c-.04,0-.08-.03-.11-.06-.03-.03-.06-.08-.07-.15-.02-.07-.03-.16-.03-.27,0-.2.03-.34.08-.41.05-.08.14-.11.26-.11h1.31s.09,0,.14.01c.04,0,.08.03.11.06.03.03.06.08.08.15s.03.15.03.26c0,.2-.03.34-.08.42-.06.08-.15.11-.27.11h-1.31Z"/>
      <path class="cls-2" d="M14.09,124.82s-.09,0-.14-.01c-.04,0-.08-.03-.11-.06-.03-.03-.06-.08-.07-.15-.02-.07-.03-.16-.03-.27,0-.2.03-.34.08-.41.05-.08.14-.11.26-.11h1.77s.09,0,.13.01c.04,0,.08.03.11.06.03.03.06.08.08.15.02.07.03.15.03.26,0,.2-.03.34-.08.42-.06.08-.15.11-.27.11h-1.77Z"/>
      <path class="cls-2" d="M19.02,123.81c-.02-.24-.05-.46-.11-.66-.06-.2-.15-.37-.26-.51-.12-.14-.27-.25-.46-.33-.19-.08-.43-.12-.71-.12-.04,0-.11,0-.18,0-.08,0-.16.02-.26.03-.09.01-.2.03-.3.05-.11.02-.21.05-.32.08v-1.03c.07-.03.15-.05.25-.08.1-.03.2-.05.31-.08.11-.02.23-.04.35-.06.12-.02.24-.02.37-.02.46,0,.85.08,1.17.24.32.16.57.37.77.64.2.27.34.58.42.93.09.35.13.71.13,1.09v.83h-4.31s-.09,0-.14-.01c-.04,0-.08-.03-.11-.06-.03-.03-.06-.08-.07-.15-.02-.07-.03-.16-.03-.27,0-.2.03-.34.08-.41.05-.07.14-.11.26-.11h3.16ZM17.26,126.3c0-.09.02-.17.05-.24.03-.08.08-.14.14-.2s.12-.1.2-.14c.08-.03.16-.05.24-.05s.17.02.24.05c.08.03.14.08.2.14s.1.12.14.2c.03.08.05.16.05.24s-.02.17-.05.24c-.03.08-.08.14-.14.2s-.12.1-.2.14c-.08.03-.16.05-.24.05s-.17-.02-.24-.05c-.08-.03-.14-.08-.2-.14s-.1-.13-.14-.2c-.03-.08-.05-.16-.05-.24"/>
      <path class="cls-2" d="M24.56,124.82c-.04.32-.11.61-.21.87s-.25.48-.46.66c-.21.18-.48.32-.82.42-.34.1-.78.14-1.3.14h-.27v-1.08h.21c.35,0,.64-.03.85-.09.22-.06.38-.14.5-.24.12-.1.2-.21.25-.32.05-.12.08-.24.09-.36h-.55c-.26,0-.51-.03-.72-.1-.22-.06-.41-.17-.57-.31-.16-.14-.28-.33-.37-.56-.09-.23-.13-.51-.13-.84,0-.24.04-.48.12-.71.08-.23.2-.44.35-.62.15-.18.34-.32.57-.43.23-.11.48-.16.77-.16.33,0,.6.06.82.17.22.11.4.27.54.47.14.2.24.45.3.73.06.28.09.59.09.93v.41h.56s.09,0,.14.01c.04,0,.08.03.11.06.03.03.06.08.07.14.02.07.03.15.03.27,0,.2-.03.34-.08.42-.05.08-.14.11-.26.11h-.62ZM22.2,123.03c0,.27.06.47.18.59.12.12.28.19.48.19h.59v-.69c0-.14-.01-.28-.03-.4-.02-.12-.06-.23-.1-.31-.05-.09-.11-.16-.19-.2-.08-.05-.18-.07-.3-.07-.11,0-.2.02-.28.07s-.14.11-.19.19c-.05.08-.09.17-.11.29-.02.11-.04.23-.04.37"/>
      <path class="cls-2" d="M25.18,124.82s-.09,0-.14-.01c-.04,0-.08-.03-.11-.06-.03-.03-.06-.08-.07-.15-.02-.07-.03-.16-.03-.27,0-.2.03-.34.08-.41.05-.08.14-.11.26-.11h1.31s.09,0,.14.01c.04,0,.08.03.11.06.03.03.06.08.08.15s.03.15.03.26c0,.2-.03.34-.08.42-.06.08-.15.11-.27.11h-1.31Z"/>
      <path class="cls-2" d="M26.49,124.82s-.09,0-.14-.01c-.04,0-.08-.03-.11-.06-.03-.03-.06-.08-.07-.15-.02-.07-.03-.16-.03-.27,0-.2.03-.34.08-.41.05-.08.14-.11.26-.11h1.31s.09,0,.14.01c.04,0,.08.03.11.06.03.03.06.08.08.15s.03.15.03.26c0,.2-.03.34-.08.42-.06.08-.15.11-.27.11h-1.31Z"/>
      <path class="cls-2" d="M27.79,124.82s-.09,0-.14-.01c-.04,0-.08-.03-.11-.06-.03-.03-.06-.08-.07-.15-.02-.07-.03-.16-.03-.27,0-.2.03-.34.08-.41.05-.08.14-.11.26-.11h1.31s.09,0,.14.01c.04,0,.08.03.11.06.03.03.06.08.08.15s.03.15.03.26c0,.2-.03.34-.08.42-.06.08-.15.11-.27.11h-1.31Z"/>
      <path class="cls-2" d="M29.1,124.82s-.09,0-.14-.01c-.04,0-.08-.03-.11-.06-.03-.03-.06-.08-.07-.15-.02-.07-.03-.16-.03-.27,0-.2.03-.34.08-.41.05-.08.14-.11.26-.11h1.31s.09,0,.14.01c.04,0,.08.03.11.06.03.03.06.08.08.15s.03.15.03.26c0,.2-.03.34-.08.42-.06.08-.15.11-.27.11h-1.31Z"/>
      <path class="cls-2" d="M30.41,124.82s-.09,0-.14-.01c-.04,0-.08-.03-.11-.06-.03-.03-.06-.08-.07-.15-.02-.07-.03-.16-.03-.27,0-.2.03-.34.08-.41.05-.08.14-.11.26-.11h1.31s.09,0,.14.01c.04,0,.08.03.11.06.03.03.06.08.08.15s.03.15.03.26c0,.2-.03.34-.08.42-.06.08-.15.11-.27.11h-1.31Z"/>
      <path class="cls-2" d="M32.73,123.81v-5.13h1.16v6.15h-2.18s-.09,0-.13-.01c-.04,0-.08-.03-.11-.06-.03-.03-.06-.08-.07-.15-.02-.07-.03-.16-.03-.27,0-.2.03-.34.08-.41.05-.07.14-.11.26-.11h1.02Z"/>
      <path class="cls-2" d="M38.38,124.82c-.04.32-.11.61-.21.87s-.25.48-.46.66c-.21.18-.48.32-.82.42-.34.1-.78.14-1.3.14h-.27v-1.08h.21c.35,0,.64-.03.85-.09.22-.06.38-.14.5-.24.12-.1.2-.21.25-.32.05-.12.08-.24.09-.36h-.55c-.26,0-.51-.03-.72-.1-.22-.06-.41-.17-.57-.31-.16-.14-.28-.33-.37-.56-.09-.23-.13-.51-.13-.84,0-.24.04-.48.12-.71.08-.23.2-.44.35-.62.15-.18.34-.32.57-.43.23-.11.48-.16.77-.16.33,0,.6.06.82.17.22.11.4.27.54.47.14.2.24.45.3.73.06.28.09.59.09.93v.41h.56s.09,0,.14.01c.04,0,.08.03.11.06.03.03.06.08.07.14.02.07.03.15.03.27,0,.2-.03.34-.08.42-.05.08-.14.11-.26.11h-.62ZM36.02,123.03c0,.27.06.47.18.59.12.12.28.19.48.19h.59v-.69c0-.14-.01-.28-.03-.4-.02-.12-.06-.23-.1-.31-.05-.09-.11-.16-.19-.2-.08-.05-.18-.07-.3-.07-.11,0-.2.02-.28.07s-.14.11-.19.19c-.05.08-.09.17-.11.29-.02.11-.04.23-.04.37"/>
      <path class="cls-2" d="M39,124.82s-.09,0-.14-.01c-.04,0-.08-.03-.11-.06-.03-.03-.06-.08-.07-.15-.02-.07-.03-.16-.03-.27,0-.2.03-.34.08-.41.05-.08.14-.11.26-.11h1.31s.09,0,.14.01c.04,0,.08.03.11.06.03.03.06.08.08.15s.03.15.03.26c0,.2-.03.34-.08.42-.06.08-.15.11-.27.11h-1.31Z"/>
      <path class="cls-2" d="M40.31,124.82s-.09,0-.14-.01c-.04,0-.08-.03-.11-.06-.03-.03-.06-.08-.07-.15-.02-.07-.03-.16-.03-.27,0-.2.03-.34.08-.41.05-.08.14-.11.26-.11h1.31s.09,0,.14.01c.04,0,.08.03.11.06.03.03.06.08.08.15s.03.15.03.26c0,.2-.03.34-.08.42-.06.08-.15.11-.27.11h-1.31Z"/>
      <path class="cls-2" d="M41.62,124.82s-.09,0-.14-.01c-.04,0-.08-.03-.11-.06-.03-.03-.06-.08-.07-.15-.02-.07-.03-.16-.03-.27,0-.2.03-.34.08-.41.05-.08.14-.11.26-.11h1.31s.09,0,.14.01c.04,0,.08.03.11.06.03.03.06.08.08.15s.03.15.03.26c0,.2-.03.34-.08.42-.06.08-.15.11-.27.11h-1.31Z"/>
      <path class="cls-2" d="M43.46,123.81c.1,0,.18,0,.25-.02.07-.01.13-.04.17-.08.04-.04.07-.09.09-.16.02-.07.03-.16.03-.27v-2h1.16v1.9c0,.11.01.21.03.29.02.08.06.14.12.19.05.05.13.09.22.11.1.02.21.03.36.03.04,0,.09,0,.13.01.04,0,.08.03.11.06.03.03.06.08.08.15.02.06.03.15.03.26,0,.2-.03.34-.09.42-.05.08-.14.11-.26.11-.09,0-.17,0-.26-.02-.09-.01-.17-.03-.25-.07-.08-.03-.16-.08-.24-.14-.08-.06-.14-.14-.21-.24-.08.11-.16.19-.26.25-.1.06-.2.1-.32.14-.11.03-.23.05-.35.06-.12,0-.24.01-.36.01h-.72s-.09,0-.14-.01c-.04,0-.08-.03-.11-.06-.03-.03-.06-.08-.07-.15-.02-.07-.03-.16-.03-.27,0-.2.03-.34.08-.41.05-.07.14-.11.26-.11h.53ZM43.95,119.76c0-.09.02-.17.05-.24.03-.08.08-.14.14-.2.06-.06.12-.1.2-.14.08-.03.16-.05.24-.05s.17.02.24.05c.08.03.14.08.2.14.05.06.1.12.13.2.03.08.05.16.05.24s-.02.17-.05.24c-.03.08-.08.14-.13.2-.06.06-.12.1-.2.13-.08.03-.16.05-.24.05s-.17-.02-.24-.05c-.08-.03-.14-.08-.2-.13-.06-.06-.1-.13-.14-.2-.03-.08-.05-.16-.05-.24"/>
      <path class="cls-2" d="M45.89,124.82s-.09,0-.14-.01c-.04,0-.08-.03-.11-.06-.03-.03-.06-.08-.07-.15-.02-.07-.03-.16-.03-.27,0-.2.03-.34.08-.41.05-.08.14-.11.26-.11h1.31s.09,0,.14.01c.04,0,.08.03.11.06.03.03.06.08.08.15s.03.15.03.26c0,.2-.03.34-.08.42-.06.08-.15.11-.27.11h-1.31Z"/>
      <path class="cls-2" d="M47.2,124.82s-.09,0-.14-.01c-.04,0-.08-.03-.11-.06-.03-.03-.06-.08-.07-.15-.02-.07-.03-.16-.03-.27,0-.2.03-.34.08-.41.05-.08.14-.11.26-.11h1.31s.09,0,.14.01c.04,0,.08.03.11.06.03.03.06.08.08.15s.03.15.03.26c0,.2-.03.34-.08.42-.06.08-.15.11-.27.11h-1.31Z"/>
      <path class="cls-2" d="M48.51,124.82s-.09,0-.14-.01c-.04,0-.08-.03-.11-.06-.03-.03-.06-.08-.07-.15-.02-.07-.03-.16-.03-.27,0-.2.03-.34.08-.41.05-.08.14-.11.26-.11h1.31s.09,0,.14.01c.04,0,.08.03.11.06.03.03.06.08.08.15s.03.15.03.26c0,.2-.03.34-.08.42-.06.08-.15.11-.27.11h-1.31Z"/>
      <path class="cls-2" d="M49.82,124.82s-.09,0-.14-.01c-.04,0-.08-.03-.11-.06-.03-.03-.06-.08-.07-.15-.02-.07-.03-.16-.03-.27,0-.2.03-.34.08-.41.05-.08.14-.11.26-.11h1.31s.09,0,.14.01c.04,0,.08.03.11.06.03.03.06.08.08.15s.03.15.03.26c0,.2-.03.34-.08.42-.06.08-.15.11-.27.11h-1.31Z"/>
      <path class="cls-2" d="M51.13,124.82s-.09,0-.14-.01c-.04,0-.08-.03-.11-.06-.03-.03-.06-.08-.07-.15-.02-.07-.03-.16-.03-.27,0-.2.03-.34.08-.41.05-.08.14-.11.26-.11h1.31s.09,0,.14.01c.04,0,.08.03.11.06.03.03.06.08.08.15s.03.15.03.26c0,.2-.03.34-.08.42-.06.08-.15.11-.27.11h-1.31Z"/>
      <path class="cls-2" d="M52.43,124.82s-.09,0-.14-.01c-.04,0-.08-.03-.11-.06-.03-.03-.06-.08-.07-.15-.02-.07-.03-.16-.03-.27,0-.2.03-.34.08-.41.05-.08.14-.11.26-.11h1.31s.09,0,.14.01c.04,0,.08.03.11.06.03.03.06.08.08.15s.03.15.03.26c0,.2-.03.34-.08.42-.06.08-.15.11-.27.11h-1.31Z"/>
      <path class="cls-2" d="M57.13,124.34c-.06.07-.13.13-.2.19-.08.06-.17.11-.27.15-.1.04-.22.08-.34.1-.13.03-.27.04-.43.04h-2.15s-.09,0-.13-.01c-.04,0-.08-.03-.11-.06-.03-.03-.05-.08-.07-.15-.02-.07-.03-.16-.03-.27,0-.2.03-.34.08-.41.05-.07.14-.11.26-.11h2.01c.18,0,.31-.03.4-.1.08-.07.13-.16.13-.29,0-.11-.05-.23-.15-.37-.1-.14-.23-.29-.4-.44-.17-.15-.38-.3-.61-.45-.23-.15-.49-.29-.77-.41v-1.24l3.04-1.61v1.32l-1.73.84v.03c.32.2.59.39.8.56.21.18.38.34.51.5.13.16.23.31.29.45.07.14.12.28.15.41.04.14.08.25.13.35.05.1.11.18.17.25.06.07.14.11.23.15s.19.05.31.05c.05,0,.1,0,.14.01.04,0,.08.03.11.06s.05.08.07.15c.02.07.03.15.03.26,0,.2-.03.34-.08.42-.05.08-.14.11-.26.11-.1,0-.19,0-.29-.01-.1,0-.19-.03-.29-.06-.1-.03-.19-.08-.28-.15-.09-.07-.18-.15-.27-.27"/>
      <path class="cls-2" d="M58.25,124.82s-.09,0-.14-.01c-.04,0-.08-.03-.11-.06-.03-.03-.06-.08-.07-.15-.02-.07-.03-.16-.03-.27,0-.2.03-.34.08-.41.05-.08.14-.11.26-.11h1.31s.09,0,.14.01c.04,0,.08.03.11.06.03.03.06.08.08.15s.03.15.03.26c0,.2-.03.34-.08.42-.06.08-.15.11-.27.11h-1.31Z"/>
      <path class="cls-2" d="M59.56,124.82s-.09,0-.14-.01c-.04,0-.08-.03-.11-.06-.03-.03-.06-.08-.07-.15-.02-.07-.03-.16-.03-.27,0-.2.03-.34.08-.41.05-.08.14-.11.26-.11h1.31s.09,0,.14.01c.04,0,.08.03.11.06.03.03.06.08.08.15s.03.15.03.26c0,.2-.03.34-.08.42-.06.08-.15.11-.27.11h-1.31Z"/>
      <path class="cls-2" d="M60.87,124.82s-.09,0-.14-.01c-.04,0-.08-.03-.11-.06-.03-.03-.06-.08-.07-.15-.02-.07-.03-.16-.03-.27,0-.2.03-.34.08-.41.05-.08.14-.11.26-.11h1.31s.09,0,.14.01c.04,0,.08.03.11.06.03.03.06.08.08.15s.03.15.03.26c0,.2-.03.34-.08.42-.06.08-.15.11-.27.11h-1.31Z"/>
      <path class="cls-2" d="M62.18,124.82s-.09,0-.14-.01c-.04,0-.08-.03-.11-.06-.03-.03-.06-.08-.07-.15-.02-.07-.03-.16-.03-.27,0-.2.03-.34.08-.41.05-.08.14-.11.26-.11h1.31s.09,0,.14.01c.04,0,.08.03.11.06.03.03.06.08.08.15s.03.15.03.26c0,.2-.03.34-.08.42-.06.08-.15.11-.27.11h-1.31Z"/>
      <path class="cls-2" d="M63.48,124.82s-.09,0-.14-.01c-.04,0-.08-.03-.11-.06-.03-.03-.06-.08-.07-.15-.02-.07-.03-.16-.03-.27,0-.2.03-.34.08-.41.05-.08.14-.11.26-.11h1.31s.09,0,.14.01c.04,0,.08.03.11.06.03.03.06.08.08.15s.03.15.03.26c0,.2-.03.34-.08.42-.06.08-.15.11-.27.11h-1.31Z"/>
      <path class="cls-2" d="M64.79,124.82s-.09,0-.14-.01c-.04,0-.08-.03-.11-.06-.03-.03-.06-.08-.07-.15-.02-.07-.03-.16-.03-.27,0-.2.03-.34.08-.41.05-.08.14-.11.26-.11h1.31s.09,0,.14.01c.04,0,.08.03.11.06.03.03.06.08.08.15s.03.15.03.26c0,.2-.03.34-.08.42-.06.08-.15.11-.27.11h-1.31Z"/>
      <path class="cls-2" d="M66.1,124.82s-.09,0-.14-.01c-.04,0-.08-.03-.11-.06-.03-.03-.06-.08-.07-.15-.02-.07-.03-.16-.03-.27,0-.2.03-.34.08-.41.05-.08.14-.11.26-.11h1.31s.09,0,.14.01c.04,0,.08.03.11.06.03.03.06.08.08.15s.03.15.03.26c0,.2-.03.34-.08.42-.06.08-.15.11-.27.11h-1.31Z"/>
      <path class="cls-2" d="M67.94,123.81c.1,0,.19,0,.25-.02.07-.01.13-.04.17-.08.04-.04.08-.09.09-.16.02-.07.03-.16.03-.27v-2h1.16v1.9c0,.11.01.21.03.29.02.08.06.14.12.19.05.05.13.09.23.11.09.02.21.03.36.03.04,0,.09,0,.13.01.04,0,.08.03.11.06.03.03.06.08.08.15.02.06.03.15.03.26,0,.2-.03.34-.08.42-.06.08-.14.11-.26.11-.09,0-.17,0-.26-.02-.09-.01-.17-.03-.25-.07-.08-.03-.16-.08-.24-.14-.08-.06-.14-.14-.21-.24-.08.11-.16.19-.26.25-.1.06-.2.1-.32.14-.11.03-.23.05-.35.06-.12,0-.24.01-.36.01h-.72s-.09,0-.13-.01c-.04,0-.08-.03-.11-.06-.03-.03-.05-.08-.07-.15-.02-.07-.03-.16-.03-.27,0-.2.03-.34.08-.41.05-.07.14-.11.26-.11h.53ZM67.64,119.76c0-.09.02-.17.05-.24.03-.08.08-.14.14-.2.06-.06.12-.1.2-.14.08-.03.16-.05.24-.05s.17.02.24.05c.08.03.14.08.2.14.06.06.1.12.14.2.03.08.05.16.05.24s-.02.17-.05.24c-.03.08-.08.14-.14.2-.05.06-.12.1-.2.13-.08.03-.16.05-.24.05s-.17-.02-.24-.05c-.08-.03-.14-.08-.2-.13-.06-.06-.1-.13-.14-.2-.03-.08-.05-.16-.05-.24M69.08,119.76c0-.09.02-.17.05-.24.03-.08.08-.14.14-.2s.12-.1.2-.14c.08-.03.16-.05.24-.05s.17.02.24.05c.08.03.14.08.2.14.05.06.1.12.13.2.03.08.05.16.05.24s-.02.17-.05.24c-.03.08-.08.14-.13.2-.06.06-.12.1-.2.13-.08.03-.16.05-.24.05s-.17-.02-.24-.05c-.08-.03-.14-.08-.2-.13s-.1-.13-.14-.2c-.03-.08-.05-.16-.05-.24"/>
      <path class="cls-2" d="M70.37,124.82s-.09,0-.14-.01c-.04,0-.08-.03-.11-.06-.03-.03-.06-.08-.07-.15-.02-.07-.03-.16-.03-.27,0-.2.03-.34.08-.41.05-.08.14-.11.26-.11h1.31s.09,0,.14.01c.04,0,.08.03.11.06.03.03.06.08.08.15s.03.15.03.26c0,.2-.03.34-.08.42-.06.08-.15.11-.27.11h-1.31Z"/>
      <path class="cls-2" d="M71.68,124.82s-.09,0-.14-.01c-.04,0-.08-.03-.11-.06-.03-.03-.06-.08-.07-.15-.02-.07-.03-.16-.03-.27,0-.2.03-.34.08-.41.05-.08.14-.11.26-.11h1.31s.09,0,.14.01c.04,0,.08.03.11.06.03.03.06.08.08.15s.03.15.03.26c0,.2-.03.34-.08.42-.06.08-.15.11-.27.11h-1.31Z"/>
      <path class="cls-2" d="M72.99,124.82s-.09,0-.14-.01c-.04,0-.08-.03-.11-.06-.03-.03-.06-.08-.07-.15-.02-.07-.03-.16-.03-.27,0-.2.03-.34.08-.41.05-.08.14-.11.26-.11h1.31s.09,0,.14.01c.04,0,.08.03.11.06.03.03.06.08.08.15s.03.15.03.26c0,.2-.03.34-.08.42-.06.08-.15.11-.27.11h-1.31Z"/>
      <path class="cls-2" d="M74.3,124.82s-.09,0-.14-.01c-.04,0-.08-.03-.11-.06-.03-.03-.06-.08-.07-.15-.02-.07-.03-.16-.03-.27,0-.2.03-.34.08-.41.05-.08.14-.11.26-.11h1.31s.09,0,.14.01c.04,0,.08.03.11.06.03.03.06.08.08.15s.03.15.03.26c0,.2-.03.34-.08.42-.06.08-.15.11-.27.11h-1.31Z"/>
      <path class="cls-2" d="M76.62,123.81v-5.13h1.16v6.15h-2.18s-.09,0-.13-.01c-.04,0-.08-.03-.11-.06-.03-.03-.06-.08-.07-.15-.02-.07-.03-.16-.03-.27,0-.2.03-.34.08-.41.05-.07.14-.11.26-.11h1.02Z"/>
      <rect class="cls-2" x="78.83" y="118.68" width="1.16" height="6.15"/>
      <path class="cls-2" d="M84.53,124.29c0,.41-.04.78-.13,1.11-.09.33-.24.6-.46.82-.22.22-.51.4-.87.51-.36.12-.82.18-1.37.18h-.27v-1.08h.21c.24,0,.45-.02.63-.04.18-.03.33-.07.45-.13.12-.05.22-.12.3-.19.08-.07.14-.15.18-.23.04-.08.08-.16.1-.25.02-.09.03-.17.04-.25-.18.05-.4.08-.65.08s-.46-.03-.67-.1c-.21-.07-.39-.18-.54-.32-.15-.15-.27-.33-.36-.55-.09-.22-.13-.48-.13-.78,0-.26.04-.51.12-.74.08-.24.19-.45.34-.63.15-.18.34-.33.57-.44.23-.11.49-.16.78-.16.33,0,.6.06.82.17s.4.26.54.45c.14.19.23.41.29.66.06.25.09.52.09.81v1.11ZM82.12,123.03c0,.25.05.44.17.58.11.14.28.22.49.22.24,0,.44-.04.59-.13v-.59c0-.15-.01-.29-.03-.41-.02-.12-.06-.23-.1-.31-.05-.09-.11-.15-.19-.2-.08-.05-.17-.07-.29-.07s-.21.02-.29.07c-.08.04-.15.11-.2.18-.05.08-.09.17-.11.29-.02.11-.04.23-.04.37"/>
      <path class="cls-2" d="M89.47,124.4c-.12.04-.22.1-.32.17-.09.07-.17.16-.24.28-.06.12-.11.26-.15.43-.03.17-.05.37-.05.61v2.46h-1.16v-2.47c0-.36.02-.67.08-.93.05-.26.13-.48.24-.68.11-.19.26-.35.43-.49s.39-.26.65-.38c.04-.27.1-.51.19-.71s.18-.38.29-.53c.11-.15.23-.28.35-.37.13-.1.26-.18.39-.24.13-.06.26-.1.39-.13.13-.03.25-.04.36-.04.28,0,.53.05.74.14.22.09.4.22.55.38.15.16.27.35.35.56.08.21.12.44.12.67,0,.26-.04.5-.11.72-.07.22-.18.41-.32.57-.14.16-.31.28-.52.37-.21.09-.44.13-.71.13-.5,0-1.02-.18-1.56-.53M91.53,123.17c0-.1-.01-.19-.04-.28s-.07-.17-.12-.23c-.05-.07-.12-.12-.2-.16-.08-.04-.17-.06-.28-.06-.09,0-.18.02-.26.06-.09.04-.17.11-.24.2-.08.09-.14.21-.2.35-.06.14-.1.32-.12.52.07.05.15.09.23.13.08.04.16.07.24.1.08.02.16.04.23.06.07.01.14.02.2.02.17,0,.3-.05.41-.16.11-.11.16-.29.16-.54"/>
      <path class="cls-2" d="M97.07,124.82c-.04.32-.11.61-.21.87s-.25.48-.46.66c-.21.18-.48.32-.82.42-.34.1-.78.14-1.3.14h-.27v-1.08h.21c.35,0,.64-.03.85-.09.22-.06.38-.14.5-.24.12-.1.2-.21.25-.32.05-.12.08-.24.09-.36h-.55c-.26,0-.51-.03-.72-.1-.22-.06-.41-.17-.57-.31-.16-.14-.28-.33-.37-.56-.09-.23-.13-.51-.13-.84,0-.24.04-.48.12-.71.08-.23.2-.44.35-.62.15-.18.34-.32.57-.43.23-.11.48-.16.77-.16.33,0,.6.06.82.17.22.11.4.27.54.47.14.2.24.45.3.73.06.28.09.59.09.93v.41h.56s.09,0,.14.01c.04,0,.08.03.11.06.03.03.06.08.07.14.02.07.03.15.03.27,0,.2-.03.34-.08.42-.05.08-.14.11-.26.11h-.62ZM94.7,123.03c0,.27.06.47.18.59.12.12.28.19.48.19h.59v-.69c0-.14-.01-.28-.03-.4-.02-.12-.06-.23-.1-.31-.05-.09-.11-.16-.19-.2-.08-.05-.18-.07-.3-.07-.11,0-.2.02-.28.07s-.14.11-.19.19c-.05.08-.09.17-.11.29-.02.11-.04.23-.04.37"/>
      <path class="cls-2" d="M97.68,124.82s-.09,0-.14-.01c-.04,0-.08-.03-.11-.06-.03-.03-.06-.08-.07-.15-.02-.07-.03-.16-.03-.27,0-.2.03-.34.08-.41.05-.08.14-.11.26-.11h1.31s.09,0,.14.01c.04,0,.08.03.11.06.03.03.06.08.08.15s.03.15.03.26c0,.2-.03.34-.08.42-.06.08-.15.11-.27.11h-1.31Z"/>
      <path class="cls-2" d="M98.99,124.82s-.09,0-.14-.01c-.04,0-.08-.03-.11-.06-.03-.03-.06-.08-.07-.15-.02-.07-.03-.16-.03-.27,0-.2.03-.34.08-.41.05-.08.14-.11.26-.11h1.31s.09,0,.14.01c.04,0,.08.03.11.06.03.03.06.08.08.15s.03.15.03.26c0,.2-.03.34-.08.42-.06.08-.15.11-.27.11h-1.31Z"/>
      <path class="cls-2" d="M100.3,124.82s-.09,0-.14-.01c-.04,0-.08-.03-.11-.06-.03-.03-.06-.08-.07-.15-.02-.07-.03-.16-.03-.27,0-.2.03-.34.08-.41.05-.08.14-.11.26-.11h1.31s.09,0,.14.01c.04,0,.08.03.11.06.03.03.06.08.08.15s.03.15.03.26c0,.2-.03.34-.08.42-.06.08-.15.11-.27.11h-1.31Z"/>
      <path class="cls-2" d="M101.61,124.82s-.09,0-.14-.01c-.04,0-.08-.03-.11-.06-.03-.03-.06-.08-.07-.15-.02-.07-.03-.16-.03-.27,0-.2.03-.34.08-.41.05-.08.14-.11.26-.11h1.31s.09,0,.14.01c.04,0,.08.03.11.06.03.03.06.08.08.15s.03.15.03.26c0,.2-.03.34-.08.42-.06.08-.15.11-.27.11h-1.31Z"/>
      <path class="cls-2" d="M103.45,123.81c.1,0,.19,0,.26-.02.07-.01.12-.04.17-.07.04-.04.07-.09.09-.16.02-.07.03-.16.03-.27v-4.61h1.16v4.51c0,.11.01.2.03.28.02.08.06.14.11.19.05.05.13.09.23.11.09.02.22.04.36.04.04,0,.09,0,.13.01.04,0,.08.03.11.06.03.03.06.08.08.14.02.07.03.15.03.27,0,.2-.03.34-.08.42-.06.08-.14.11-.26.11-.09,0-.18,0-.27-.02-.09-.01-.18-.03-.27-.07-.09-.03-.17-.08-.24-.14-.07-.06-.14-.14-.19-.23-.08.11-.16.19-.26.25-.1.06-.2.11-.32.14-.11.03-.23.05-.35.06-.12,0-.24.01-.36.01h-.72s-.09,0-.13-.01c-.04,0-.08-.03-.11-.06-.03-.03-.05-.08-.07-.15-.02-.07-.03-.16-.03-.27,0-.2.03-.34.08-.41.05-.07.14-.11.26-.11h.53Z"/>
      <path class="cls-2" d="M105.89,124.82s-.09,0-.14-.01c-.04,0-.08-.03-.11-.06-.03-.03-.06-.08-.07-.15-.02-.07-.03-.16-.03-.27,0-.2.03-.34.08-.41.05-.08.14-.11.26-.11h1.31s.09,0,.14.01c.04,0,.08.03.11.06.03.03.06.08.08.15s.03.15.03.26c0,.2-.03.34-.08.42-.06.08-.15.11-.27.11h-1.31Z"/>
      <path class="cls-2" d="M107.2,124.82s-.09,0-.14-.01c-.04,0-.08-.03-.11-.06-.03-.03-.06-.08-.07-.15-.02-.07-.03-.16-.03-.27,0-.2.03-.34.08-.41.05-.08.14-.11.26-.11h1.31s.09,0,.14.01c.04,0,.08.03.11.06.03.03.06.08.08.15s.03.15.03.26c0,.2-.03.34-.08.42-.06.08-.15.11-.27.11h-1.31Z"/>
      <path class="cls-2" d="M108.5,124.82s-.09,0-.14-.01c-.04,0-.08-.03-.11-.06-.03-.03-.06-.08-.07-.15-.02-.07-.03-.16-.03-.27,0-.2.03-.34.08-.41.05-.08.14-.11.26-.11h1.31s.09,0,.14.01c.04,0,.08.03.11.06.03.03.06.08.08.15s.03.15.03.26c0,.2-.03.34-.08.42-.06.08-.15.11-.27.11h-1.31Z"/>
      <path class="cls-2" d="M109.81,124.82s-.09,0-.14-.01c-.04,0-.08-.03-.11-.06-.03-.03-.06-.08-.07-.15-.02-.07-.03-.16-.03-.27,0-.2.03-.34.08-.41.05-.08.14-.11.26-.11h1.31s.09,0,.14.01c.04,0,.08.03.11.06.03.03.06.08.08.15s.03.15.03.26c0,.2-.03.34-.08.42-.06.08-.15.11-.27.11h-1.31Z"/>
      <path class="cls-2" d="M111.89,123.81c.12,0,.25,0,.39-.01s.27-.02.39-.05l-.89-1.15c.02-.08.04-.16.07-.25.03-.09.06-.17.1-.25.04-.08.08-.15.11-.22.04-.07.08-.12.12-.16.18-.2.41-.35.68-.47.27-.11.56-.17.88-.17.27,0,.51.03.71.1.2.07.37.16.5.28.13.11.23.25.3.4.07.15.1.3.1.45,0,.1-.02.22-.05.34-.04.13-.09.26-.16.39-.07.13-.15.27-.26.39-.1.13-.22.25-.35.35h1.27s.09,0,.13.01c.04,0,.08.03.11.06.03.03.05.08.07.14.02.07.03.15.03.27,0,.2-.03.34-.08.42-.06.08-.14.12-.26.12h-1.27c-.08,0-.16,0-.25-.02s-.18-.03-.27-.06c-.09-.03-.18-.06-.28-.1-.09-.04-.17-.09-.25-.15-.26.1-.52.18-.78.24-.25.06-.52.09-.79.09h-.81s-.09,0-.14-.01c-.04,0-.08-.03-.11-.06s-.06-.08-.07-.15c-.02-.07-.03-.16-.03-.27,0-.2.03-.34.08-.41s.14-.11.26-.11h.77ZM113.72,122.09c-.21,0-.39.03-.52.08-.14.05-.25.11-.34.16.06.07.12.16.19.26.07.1.14.2.22.3.08.1.15.2.23.29.07.09.14.17.21.22.08-.05.15-.11.22-.19.07-.08.12-.16.17-.24.04-.09.08-.17.1-.25.03-.08.04-.16.04-.22,0-.04,0-.09-.02-.14-.01-.05-.03-.09-.07-.13-.04-.04-.09-.07-.15-.1-.07-.03-.15-.04-.26-.04"/>
      <path class="cls-2" d="M115.82,124.82s-.09,0-.14-.01c-.04,0-.08-.03-.11-.06-.03-.03-.06-.08-.07-.15-.02-.07-.03-.16-.03-.27,0-.2.03-.34.08-.41.05-.08.14-.11.26-.11h1.31s.09,0,.14.01c.04,0,.08.03.11.06.03.03.06.08.08.15s.03.15.03.26c0,.2-.03.34-.08.42-.06.08-.15.11-.27.11h-1.31Z"/>
      <path class="cls-2" d="M117.12,124.82s-.09,0-.14-.01c-.04,0-.08-.03-.11-.06-.03-.03-.06-.08-.07-.15-.02-.07-.03-.16-.03-.27,0-.2.03-.34.08-.41.05-.08.14-.11.26-.11h1.31s.09,0,.14.01c.04,0,.08.03.11.06.03.03.06.08.08.15s.03.15.03.26c0,.2-.03.34-.08.42-.06.08-.15.11-.27.11h-1.31Z"/>
      <path class="cls-2" d="M118.96,123.81c.1,0,.19,0,.26-.02.07-.01.12-.04.17-.07.04-.04.07-.09.09-.16.02-.07.03-.16.03-.27v-4.61h1.16v4.51c0,.11.01.2.03.28.02.08.06.14.11.19.05.05.13.09.23.11.09.02.22.04.36.04.04,0,.09,0,.13.01.04,0,.08.03.11.06.03.03.06.08.08.14.02.07.03.15.03.27,0,.2-.03.34-.08.42-.06.08-.14.11-.26.11-.09,0-.18,0-.27-.02-.09-.01-.18-.03-.27-.07-.09-.03-.17-.08-.24-.14-.07-.06-.14-.14-.19-.23-.08.11-.16.19-.26.25-.1.06-.2.11-.32.14-.11.03-.23.05-.35.06-.12,0-.24.01-.36.01h-.72s-.09,0-.13-.01c-.04,0-.08-.03-.11-.06-.03-.03-.05-.08-.07-.15-.02-.07-.03-.16-.03-.27,0-.2.03-.34.08-.41.05-.07.14-.11.26-.11h.53Z"/>
      <path class="cls-2" d="M122.42,123.81v-5.13h1.16v6.15h-2.18s-.09,0-.13-.01c-.04,0-.08-.03-.11-.06-.03-.03-.06-.08-.07-.15-.02-.07-.03-.16-.03-.27,0-.2.03-.34.08-.41.05-.07.14-.11.26-.11h1.02Z"/>
      <polygon class="cls-1" points="41.23 17.52 41.23 44.38 58.45 59.13 58.45 17.52 52.79 22.41 52.79 47.58 47.01 42.79 47.01 22.41 41.23 17.52"/>
      <polygon class="cls-1" points="58.45 92.06 58.45 65.2 41.23 50.45 41.23 92.06 46.88 87.17 46.88 62 52.67 66.79 52.67 87.17 58.45 92.06"/>
      <path class="cls-1" d="M63.9,17.52v41.62l17.22-14.75v-26.86h-17.22ZM75.34,42.79l-5.78,4.78v-25.17h5.78v20.38Z"/>
      <rect class="cls-1" x="35.32" y="8.48" width="52.95" height="5.01"/>
      <polygon class="cls-1" points="88.27 5.01 35.32 5.01 29.33 0 94.25 0 88.27 5.01"/>
      <path class="cls-1" d="M75.47,87.17l5.65,4.9v-6.33l-5.65-4.9v6.34ZM63.9,65.2v26.86l5.78-4.9v-20.38l5.78-4.78v16.77l5.65,4.9v-33.23l-17.22,14.75Z"/>
    </g>
  </g>
</svg>