<?xml version="1.0" encoding="UTF-8"?>
<svg id="Layer_2" data-name="Layer 2" xmlns="http://www.w3.org/2000/svg" viewBox="0 0 184.22 99.61">
  <defs>
    <style>
      .cls-1 {
        fill: #be5729;
      }

      .cls-2 {
        fill: #005871;
      }

      .cls-3 {
        fill: #8e1537;
      }
    </style>
  </defs>
  <g id="Layer_1-2" data-name="Layer 1">
    <g>
      <path class="cls-2" d="M160.05,69.84c2.98,0,5.43-.18,8.06-.53,1.58-1.58,3.85-4.38,3.85-8.58,0-5.43-3.85-7.71-9.11-7.71h-2.8v16.81ZM151.11,89.28v-39.93h12.61c11.38,0,17.16,4.73,17.16,11.21,0,5.25-3.5,8.23-7.36,10.51l10.68,18.22h-9.81l-9.46-16.11c-1.58.18-3.15.35-4.9.35v15.76h-8.93ZM118.12,77.37h14.01l-7.01-18.74c-2.45,6.31-4.73,12.43-7.01,18.74M108.66,89.28c5.78-12.79,10.86-25.22,16.81-39.93h5.43l15.06,39.93h-9.46l-3.15-8.41h-16.46l-2.8,8.41h-5.43ZM77.61,55.12l1.75-5.78h33.28l-1.75,5.78c-4.03-1.58-8.06-2.98-11.21-3.15v37.31h-9.11v-37.31c-3.33.18-8.93,1.58-12.96,3.15M52.5,77.37h14.01l-6.83-18.39c-2.45,6.13-4.9,12.26-7.18,18.39M42.6,89.28c5.78-12.79,11.03-25.4,16.81-39.93h5.43l15.06,39.93h-9.46l-3.15-8.41h-16.46l-2.8,8.41h-5.43ZM9.28,68.26c0,13.14,5.08,17.86,12.79,17.86,1.23,0,2.63,0,4.03-.35,1.75-3.33,2.98-7.88,2.98-15.24,0-13.49-5.08-18.04-12.61-18.04-1.23,0-2.45.18-3.68.53-2.1,2.98-3.5,7.36-3.5,15.24M0,70.19c0-14.01,10.33-21.37,19.62-21.37,8.06,0,18.74,5.08,18.74,19.44,0,8.76-4.38,16.64-11.73,19.97,4.9,2.45,10.68,5.25,12.96,5.78,1.23.35,3.5.88,5.78.88.53,0,.88,0,2.28-.18l.35.7c-1.4,1.23-6.31,4.2-9.81,4.2-2.28,0-4.9-.7-7.53-2.63l-9.98-7.36c-1.23.18-1.4.18-2.1.18-8.58,0-18.57-5.25-18.57-19.62"/>
      <g>
        <path class="cls-2" d="M174.1,43.03c3.71,0,6.16-1.03,7.43-1.5l-.79-2.69c-1.42.55-2.84.79-4.35.79-3,0-4.35-1.19-4.35-4.43V6.67l-6.48.87v26.24c0,6.8,3.24,9.25,8.54,9.25"/>
        <polygon class="cls-2" points="143.09 42.48 149.57 42.48 149.57 13.31 143.09 14.1 143.09 42.48"/>
        <path class="cls-2" d="M119.45,43.15c8.06,0,11.54-3.4,11.54-8.38,0-3.32-2.92-6.24-6.64-8.62-3.32-2.13-8.38-5.37-8.38-7.75,0-.24,0-.47.16-.71,1.19-.79,1.74-.71,3.32-.71,4.98,0,8.69,3.32,10.75,6.4l.95-6.88c-2.77-2.13-6.24-3.08-9.41-3.08-6.88,0-10.75,3.32-10.75,7.67s3.95,6.72,7.35,9.01c3.4,2.29,7.75,5.06,7.75,7.82v.47c-1.11.79-2.53,1.19-3.48,1.19-5.45,0-9.8-3.32-11.7-5.93l-.95,6.88c3,1.9,6.88,2.61,9.48,2.61"/>
        <polygon class="cls-2" points="91.67 42.36 98.15 42.36 98.15 13.19 91.67 13.98 91.67 42.36"/>
        <path class="cls-2" d="M66.39,42.48h4.11c3.4-9.48,6.96-19.13,10.75-28.61h-4.74c-2.06,7.43-4.27,14.7-6.56,21.58-2.37-6.88-4.58-14.15-6.64-21.58h-7.51c3.71,9.48,7.35,19.13,10.59,28.61"/>
        <polygon class="cls-1" points="145.28 9.76 150.89 5.57 147.02 .12 141.41 4.31 145.28 9.76"/>
        <polygon class="cls-1" points="95.3 9.64 100.91 5.45 97.04 0 91.43 4.19 95.3 9.64"/>
        <path class="cls-3" d="M170.69,17.94c6.72.16,12.8-.47,12.8-4.58,0-.95-.16-1.26-.4-1.82h-.32c-3.56,2.77-14.38,2.45-21.58,2.45-.95,0-1.82,0-2.77-.08l-.08.24c2.92,1.74,6.88,3.64,12.33,3.79"/>
      </g>
    </g>
  </g>
</svg>