<?xml version="1.0" encoding="UTF-8"?>
<svg id="Layer_2" data-name="Layer 2" xmlns="http://www.w3.org/2000/svg" viewBox="0 0 1102.45 271.86">
  <defs>
    <style>
      .cls-1 {
        fill: #fff;
      }

      .cls-2 {
        fill: #ec1c24;
      }
    </style>
  </defs>
  <g id="Layer_1-2" data-name="Layer 1">
    <g>
      <g>
        <circle class="cls-2" cx="135.93" cy="135.93" r="135.93"/>
        <path class="cls-1" d="M137.01,211.73c-37.35.12-76.2-31.75-76.37-82.94-.11-33.85,18.15-66.43,41.49-85.76,22.77-18.85,53.96-30.95,82.25-31.05,3.64-.01,7.45.29,9.78,1.08-24.74,5.13-44.42,28.15-44.33,54.27,0,.86.08,1.79.16,2.21,41.39,10.08,60.18,35.05,60.29,69.61.11,34.56-27.17,72.42-73.27,72.57Z"/>
      </g>
      <g>
        <path class="cls-2" d="M359.64,192.24l-41.56-99.18h27.16l25.93,65.85,25.1-65.85h25.93l-40.33,99.18h-22.23Z"/>
        <path class="cls-2" d="M519.64,142.23c0,6.45-1,12.8-2.98,19.03-1.99,6.25-4.94,11.83-8.85,16.77-3.91,4.94-8.85,8.92-14.81,11.93-5.97,3.02-12.93,4.53-20.89,4.53s-14.92-1.51-20.89-4.53c-5.97-3.02-10.9-7-14.81-11.93-3.91-4.94-6.86-10.53-8.85-16.77-1.99-6.24-2.98-12.58-2.98-19.03s.99-12.76,2.98-18.93c1.98-6.17,4.94-11.69,8.85-16.57,3.91-4.87,8.85-8.78,14.81-11.73,5.97-2.95,12.93-4.42,20.89-4.42s14.88,1.48,20.78,4.42c5.9,2.95,10.83,6.86,14.82,11.73,3.98,4.87,6.96,10.39,8.95,16.57,1.99,6.17,2.98,12.48,2.98,18.93ZM494.53,142.13c0-4.13-.48-8.05-1.44-11.77-.96-3.72-2.4-6.92-4.32-9.6-1.92-2.69-4.25-4.82-7-6.4-2.74-1.58-5.97-2.38-9.67-2.38s-6.93.8-9.67,2.38c-2.74,1.58-5.08,3.71-6.99,6.4-1.92,2.69-3.36,5.88-4.32,9.6-.96,3.72-1.44,7.64-1.44,11.77s.48,8.23,1.44,11.87c.96,3.64,2.37,6.85,4.22,9.6,1.85,2.75,4.18,4.92,7,6.5,2.81,1.58,6.07,2.37,9.77,2.37s6.93-.79,9.67-2.37c2.74-1.58,5.07-3.75,7-6.5,1.92-2.75,3.36-5.96,4.32-9.6.96-3.65,1.44-7.61,1.44-11.87Z"/>
        <path class="cls-2" d="M598.34,192.24l-1.04-7.61c-2.33,2.61-5.41,4.91-9.23,6.89-3.83,1.99-8.34,2.98-13.54,2.98-6.84,0-12.86-1.44-18.05-4.32-5.2-2.88-9.57-6.72-13.13-11.52-3.55-4.8-6.26-10.36-8.1-16.67-1.85-6.31-2.77-12.89-2.77-19.75,0-6.45.95-12.76,2.87-18.93,1.91-6.17,4.82-11.69,8.72-16.57,3.9-4.87,8.79-8.78,14.67-11.73,5.88-2.95,12.78-4.42,20.71-4.42,5.2,0,10.8.95,16.82,2.85v-38.45h25.52v137.25h-23.45ZM596.27,114.88c-4.91-1.93-9.48-2.89-13.71-2.89s-8.12.83-11.26,2.48c-3.14,1.65-5.73,3.88-7.78,6.71-2.05,2.82-3.58,5.99-4.61,9.5-1.02,3.51-1.54,7.12-1.54,10.84,0,4.13.44,8.09,1.33,11.87.89,3.79,2.25,7.09,4.09,9.91,1.84,2.82,4.16,5.09,6.96,6.81,2.8,1.72,6.11,2.58,9.93,2.58,3.14,0,6.35-.86,9.62-2.58,3.27-1.72,5.6-3.75,6.96-6.09v-49.14Z"/>
        <path class="cls-2" d="M695.67,192.14l-1.02-7.41c-2.75,3.05-6.27,5.44-10.53,7.17-4.27,1.73-8.95,2.59-14.04,2.59-4.27,0-8.37-.72-12.29-2.16-3.92-1.44-7.4-3.5-10.43-6.17-3.03-2.67-5.47-5.97-7.33-9.87-1.86-3.91-2.79-8.33-2.79-13.27s.96-9.29,2.89-13.07c1.93-3.77,4.54-6.96,7.85-9.57,3.31-2.61,7.09-4.73,11.36-6.38,4.27-1.64,8.74-2.88,13.42-3.7,3.31-.68,6.92-1.2,10.85-1.54,3.92-.34,7.19-.65,9.81-.93v-1.44c0-5.49-1.41-9.39-4.24-11.73-2.82-2.33-6.72-3.5-11.68-3.5-2.9,0-5.66.35-8.27,1.03-2.62.68-4.97,1.54-7.03,2.57-2.07,1.03-3.9,2.06-5.48,3.09-1.59,1.03-2.86,1.96-3.83,2.78l-8.44-17.9c1.1-.96,2.78-2.12,5.04-3.5,2.26-1.37,5-2.71,8.23-4.01,3.22-1.3,6.86-2.4,10.91-3.29,4.04-.89,8.4-1.34,13.07-1.34,5.49,0,10.49.72,15.02,2.16,4.53,1.44,8.44,3.7,11.73,6.79,3.29,3.08,5.87,6.99,7.72,11.71,1.85,4.73,2.78,10.45,2.78,17.16v63.73h-23.26ZM693.63,145.73c-2.76.14-5.59.38-8.49.72-2.9.34-5.66.79-8.29,1.34-5.52,1.1-9.36,2.98-11.5,5.66-2.14,2.67-3.21,5.59-3.21,8.74s1.21,5.93,3.62,7.92,5.84,2.98,10.25,2.98c3.31,0,6.52-.68,9.63-2.06,3.11-1.37,5.77-3.09,7.98-5.15v-20.17Z"/>
        <path class="cls-2" d="M797.77,77.62c-.82-.41-2.44-.99-4.84-1.75-2.4-.75-5.59-1.13-9.57-1.13-3.57,0-6.55,1.06-8.95,3.19-2.4,2.13-3.6,5.59-3.6,10.39v4.73h21.4v20.58h-21.2v78.6h-25.52v-78.6h-13.17v-20.58h13.17v-5.35c0-6.45.82-11.9,2.47-16.36,1.65-4.46,3.94-8.09,6.9-10.91,2.95-2.81,6.41-4.87,10.39-6.17,3.98-1.31,8.3-1.96,12.96-1.96,6.17,0,11.28.59,15.33,1.75,4.04,1.17,6.41,1.96,7.1,2.37l-2.88,21.19Z"/>
        <path class="cls-2" d="M892.42,142.23c0,6.45-1,12.8-2.98,19.03-1.99,6.25-4.94,11.83-8.85,16.77-3.91,4.94-8.85,8.92-14.81,11.93-5.97,3.02-12.93,4.53-20.89,4.53s-14.92-1.51-20.89-4.53c-5.97-3.02-10.9-7-14.81-11.93-3.91-4.94-6.86-10.53-8.85-16.77-1.99-6.24-2.98-12.58-2.98-19.03s.99-12.76,2.98-18.93c1.98-6.17,4.94-11.69,8.85-16.57,3.91-4.87,8.85-8.78,14.81-11.73,5.97-2.95,12.93-4.42,20.89-4.42s14.88,1.48,20.78,4.42c5.9,2.95,10.83,6.86,14.82,11.73,3.98,4.87,6.96,10.39,8.95,16.57,1.99,6.17,2.98,12.48,2.98,18.93ZM867.32,142.13c0-4.13-.48-8.05-1.44-11.77-.96-3.72-2.4-6.92-4.32-9.6-1.92-2.69-4.25-4.82-7-6.4-2.74-1.58-5.97-2.38-9.67-2.38s-6.93.8-9.67,2.38c-2.74,1.58-5.08,3.71-6.99,6.4-1.92,2.69-3.36,5.88-4.32,9.6-.96,3.72-1.44,7.64-1.44,11.77s.48,8.23,1.44,11.87c.96,3.64,2.37,6.85,4.22,9.6,1.85,2.75,4.18,4.92,7,6.5,2.81,1.58,6.07,2.37,9.77,2.37s6.93-.79,9.67-2.37c2.74-1.58,5.07-3.75,7-6.5,1.92-2.75,3.36-5.96,4.32-9.6.96-3.65,1.44-7.61,1.44-11.87Z"/>
        <path class="cls-2" d="M971.62,192.24v-56.59c0-7.54-1.58-13.37-4.73-17.49-3.16-4.11-7.54-6.17-13.17-6.17-3.98,0-7.65,1.03-11.01,3.09-3.36,2.06-6.27,4.32-8.75,6.79v70.37h-25.52v-99.18h23.25l1.24,7.82c3.98-3.29,8.47-5.83,13.48-7.61,5.01-1.78,10.05-2.67,15.12-2.67s10.01.79,14.4,2.37c4.39,1.58,8.16,4.08,11.32,7.51,3.15,3.43,5.59,7.89,7.3,13.38,1.71,5.49,2.57,12.07,2.57,19.75v58.64h-25.52Z"/>
        <path class="cls-2" d="M1038.04,149.03c.55,8.37,3.17,14.4,7.85,18.11,4.68,3.7,10.74,5.55,18.18,5.55,3.44,0,6.68-.31,9.71-.93,3.03-.62,5.72-1.4,8.06-2.36,2.34-.96,4.34-1.92,5.99-2.88s2.89-1.85,3.72-2.68l6.79,20.79c-.96.68-2.51,1.61-4.63,2.78-2.13,1.17-4.77,2.26-7.92,3.29-3.16,1.03-6.86,1.92-11.11,2.67-4.25.75-8.92,1.13-13.99,1.13-6.45,0-12.59-1.03-18.42-3.09-5.83-2.06-10.94-5.25-15.33-9.57-4.39-4.32-7.89-9.7-10.49-16.15-2.61-6.45-3.91-14.13-3.91-23.05,0-8.37,1.2-15.77,3.6-22.22,2.4-6.45,5.69-11.86,9.88-16.26,4.18-4.39,9.06-7.75,14.61-10.08,5.56-2.33,11.49-3.5,17.8-3.5s12.14,1.03,17.49,3.09c5.35,2.06,9.98,5.25,13.89,9.57,3.91,4.32,7,9.91,9.26,16.77,2.26,6.86,3.39,15.02,3.39,24.49v4.53h-64.41ZM1076.52,130.71c-.28-3.43-1-6.41-2.17-8.95-1.17-2.54-2.62-4.59-4.34-6.17-1.73-1.58-3.59-2.74-5.59-3.5-2-.75-4.03-1.13-6.1-1.13-4.42,0-8.62,1.65-12.62,4.94-4,3.3-6.35,8.23-7.03,14.82h37.86Z"/>
      </g>
    </g>
  </g>
</svg>