<?xml version="1.0" encoding="UTF-8"?>
<svg id="Layer_2" data-name="Layer 2" xmlns="http://www.w3.org/2000/svg" viewBox="0 0 368.5 171.83">
  <defs>
    <style>
      .cls-1 {
        fill: #a91e2f;
      }

      .cls-2 {
        fill: #eb7725;
      }
    </style>
  </defs>
  <g id="Layer_1-2" data-name="Layer 1">
    <path class="cls-1" d="M28.27,45.91v-.85c.25,0,1.06-.02,1.69-.03h.33c.32-.01.67-.05,1.09-.09l.66-.07c.15-.01.3-.01.43-.01l-.02.85c-.1,0-.22,0-.33,0l-.65.07c-.45.04-.83.09-1.16.09h-.33c-.63.02-1.44.04-1.7.04M28.29,43.32c.26,0,1.07-.02,1.7-.03h.32c.32,0,.68-.04,1.1-.09.22-.02.46-.04.72-.07.12-.01.23-.01.33,0l.02-.85c-.14,0-.29,0-.43.01-.26.02-.5.05-.72.07-.39.04-.73.08-1.03.08h-.33c-.63.02-1.43.04-1.69.04v.85M28.31,40.74c.18,0,.61-.01,1.07-.02l.96-.02c.34,0,.72-.04,1.18-.09l.63-.06c.12,0,.23-.01.34,0l.04-.85c-.14,0-.29,0-.44.01l-.65.07c-.42.04-.78.08-1.1.08l-.96.02c-.45.01-.88.02-1.06.02v.85M30.35,38.12c.33,0,.71-.04,1.15-.09l.67-.06c.12-.01.23-.01.33-.01l.02-.85c-.14,0-.29,0-.43.02l-.67.06c-.41.04-.76.08-1.08.08l-2.03.04v.84s2.04-.04,2.04-.04ZM40.95,45.99l.02-.85c-.26,0-1.07-.03-1.69-.05h-.33c-.31-.02-.67-.06-1.09-.11l-.66-.08c-.15-.02-.3-.02-.43-.02v.85c.12,0,.23,0,.35.01l.65.07c.44.05.82.1,1.16.1h.33c.63.03,1.44.06,1.7.07M40.97,43.4l.02-.85c-.26,0-1.07-.04-1.69-.06h-.33c-.3-.01-.64-.05-1.03-.1-.23-.02-.46-.05-.72-.08-.15-.02-.3-.03-.43-.02v.85c.11,0,.23,0,.34.01.26.03.5.05.72.07.42.05.78.09,1.1.1h.33c.63.03,1.44.06,1.7.07M40.98,40.82l.02-.85c-.18,0-.61-.02-1.06-.03l-.96-.03c-.32,0-.68-.05-1.1-.1l-.64-.07c-.16-.01-.31-.02-.44-.02l.02.85c.11,0,.22,0,.34.01l.63.07c.45.05.84.1,1.18.1l.96.03c.46.02.9.03,1.07.04M41,38.24l.02-.84-2.02-.07c-.31,0-.66-.05-1.07-.1l-.67-.07c-.15-.02-.3-.03-.44-.02v.85c.11,0,.23,0,.34.02l.67.07c.44.05.81.1,1.15.1l2.02.07ZM47.04,20.5v-.64s-9.31-.06-9.31-.06v.65c-.02,1.64-.05,5.47-.04,5.64.04.7.51,1.34,1.41,1.95,1.09.74,2.74,1.73,2.86,1.8l.31.19.32-.17s1.88-1.01,3.03-1.77c.89-.58,1.34-1.22,1.36-1.93,0-.17.03-2.18.04-5.65M39.01,21.09l6.73.04v.99s0,0,0,0v1.87s-3.39-2.51-3.39-2.51h0s0,0,0,0l-3.36,2.43v-1.83s.02-.99.02-.99ZM45.71,26.1c-.01.26-.28.57-.78.9-.72.48-1.77,1.07-2.53,1.49l-.08.05-.08-.05c-.35-.21-1.55-.94-2.41-1.52-.49-.33-.79-.66-.83-.91h-.02v-.55s3.36-2.43,3.36-2.43l3.38,2.51v.52h0ZM32.03,20.4v-.64s-9.31-.06-9.31-.06v.65c-.02,1.64-.05,5.47-.04,5.64.04.7.51,1.34,1.41,1.95,1.09.74,2.74,1.73,2.86,1.8l.31.19.32-.17s1.88-1,3.03-1.77c.89-.58,1.34-1.22,1.36-1.93.01-.17.03-2.18.04-5.65M30.74,21.04v1.73s-6.74-.04-6.74-.04v-1.73s6.74.04,6.74.04ZM30.7,26c0,.26-.27.57-.78.9-.72.48-1.77,1.07-2.53,1.49l-.08.05-.08-.05c-.35-.21-1.55-.94-2.4-1.52-.52-.35-.83-.7-.85-.96,0-.1,0-.76,0-1.63v-.28s6.74.04,6.74.04v.03c0,.65-.01,1.76-.02,1.92M51.28,16.96l-32.9-.21-.15,22.09c-.08,12.29,15.37,19.71,16.02,19.99l.32.14.32-.14c.66-.28,16.16-7.6,16.24-19.39l.14-22.48ZM19.97,18.37l29.68.19-.08,12.25-29.68-.19.08-12.25ZM33.65,35.37c.14.03.26.09.38.15l-.08,12.3-.06-.02c-.27-.12-.56-.18-.89-.19-.95,0-1.65.06-2.4.12-.76.06-1.52.12-2.62.14-.23,0-.45,0-.65,0-.21,0-.41,0-.58,0h-.16s.08-12.27.08-12.27h.45c.42,0,.92,0,1.51,0,.62-.01,1.32-.08,2.06-.15.42-.04.88-.09,1.39-.13.17-.02.36-.03.55-.03.52,0,.92.08,1,.09v.05s.01-.05.01-.05ZM35.36,35.53c.11-.06.23-.11.38-.14,0,0,.44-.09,1.03-.09.2,0,.39.01.57.03.47.05.91.09,1.32.14h.06c.73.09,1.43.17,2.05.19.57.02,1.06.02,1.47.02h.22s.08,0,.12,0h.15s-.08,12.27-.08,12.27h-.16c-.17,0-.35,0-.55,0-.21,0-.43,0-.67-.01-1.11-.03-1.87-.11-2.6-.18-.77-.08-1.47-.15-2.42-.15h-.02c-.31,0-.6.05-.87.17l-.08.03.08-12.29ZM19.84,38.85l.05-6.64,14.17.09-.02,1.84-.09-.02s-.56-.13-1.29-.13c-.23,0-.46,0-.68.03-.48.04-.93.09-1.34.13h-.12c-.72.08-1.35.14-1.88.15-.52.01-.97.01-1.35,0h-.4s0,0,0,0c-.32,0-.6,0-.84,0h-.63s-.01,2.33-.01,2.33h-1.58s0,1.24,0,1.24h1.58s-.02,2.96-.02,2.96h-1.58s0,1.26,0,1.26h1.58s-.02,2.94-.02,2.94h-1.58s0,1.27,0,1.27h1.58s-.02,2.78-.02,2.78l.61.03c.08,0,.96.06,2.09.04,1.17-.02,1.99-.09,2.71-.15.76-.07,1.4-.12,2.28-.11.36,0,.49.11.69.36.05.06.13.16.24.26l-.04,7.35c-3.35-1.78-14.12-8.47-14.06-18.01M35.23,56.88l.03-7.4c.07-.06.14-.12.21-.19.2-.23.33-.37.71-.37.93.04,1.57.07,2.33.14.72.07,1.53.15,2.71.18,1.12.03,2.01,0,2.09-.01l.61-.03.02-2.77h1.59s0-1.27,0-1.27h-1.59s.02-2.94.02-2.94h1.59s0-1.26,0-1.26h-1.59s.02-2.96.02-2.96h1.59s0-1.24,0-1.24h-1.59s.02-2.33.02-2.33l-.63-.02c-.24,0-.52,0-.84,0h-.18c-.43,0-.94,0-1.57-.03-.53-.02-1.14-.08-1.94-.17h-.05c-.42-.05-.86-.1-1.33-.15-.23-.03-.46-.04-.7-.04-.75,0-1.3.11-1.3.11-.01,0-.03.01-.05.02h-.05s.03-1.84.03-1.84l14.17.09-.04,7.03c-.06,9.13-10.94,15.71-14.29,17.45M34.55,60.56c-14.27-.09-25.81-11.77-25.71-26.04.09-14.26,11.78-25.79,26.05-25.7,14.27.09,25.81,11.77,25.71,26.04-.09,14.26-11.78,25.79-26.05,25.7M34.87,10.42c-13.39-.09-24.36,10.73-24.44,24.11-.09,13.38,10.74,24.34,24.13,24.43,13.39.09,24.35-10.73,24.44-24.12.09-13.38-10.74-24.34-24.12-24.43M7.65,50.33c-.2-.25-.4-.52-.54-.81-.6-1.23-.4-2.38.89-3.01,1.3-.63,2.42-.19,3.05,1.1.12.25.23.61.26.94l-.67.26c.02-.37-.07-.65-.2-.92-.38-.78-1.22-.98-2-.6-.78.37-1.13,1.14-.73,1.95.14.3.38.62.56.76l-.62.34ZM12.92,50.67c-.78-1.1-1.91-1.19-2.97-.44-1.06.75-1.38,1.85-.6,2.96.77,1.09,1.95,1.16,2.99.43,1.04-.74,1.35-1.86.59-2.94M9.88,52.8c-.5-.71-.05-1.41.57-1.85.61-.43,1.43-.59,1.92.1.49.69.06,1.41-.55,1.84-.62.44-1.44.62-1.94-.09M11.62,55.99l.59.6,1.25-1.23.19.19c.25.26.24.42.1.72l-.59,1.28.66.68.71-1.64c.07-.19.15-.45,0-.62h.01c.43.32.96.28,1.31-.07.84-.82.06-1.57-.58-2.23l-.64-.65-3.02,2.96ZM14.76,54.1l.19.2c.3.3.6.67.24,1.03-.38.37-.76.07-1.05-.23l-.2-.2.81-.8ZM14.85,59.13l.65.49,1.89-2.53h.01s-.6,3.5-.6,3.5l.83.62,2.53-3.38-.65-.49-1.89,2.53h-.01s.6-3.5.6-3.5l-.84-.62-2.53,3.38ZM19.1,62.1l2.21,1.19.32-.59-1.46-.78.56-1.05,1.33.71.32-.59-1.33-.71.49-.92,1.45.78.32-.59-2.2-1.18-2,3.72ZM22.67,63.89l2.32.9.24-.62-1.53-.59,1.29-3.32-.79-.31-1.53,3.94ZM26.1,65.11l2.41.62.17-.65-1.59-.41.89-3.45-.82-.21-1.05,4.09ZM31.8,64.72c-.05,1.13.57,1.62,1.65,1.67,1.08.05,1.74-.39,1.79-1.52l.12-2.7-.85-.04-.1,2.44c-.03.72-.29,1.18-.93,1.15-.65-.03-.86-.51-.82-1.23l.11-2.43-.85-.04-.12,2.7ZM36.95,66.33l.81-.1-.38-3.13h.01s1.99,2.94,1.99,2.94l1.03-.13-.51-4.19-.81.1.38,3.13h-.01s-1.98-2.94-1.98-2.94l-1.03.13.51,4.19ZM41.83,65.57l.82-.2-1-4.1-.82.2,1,4.1ZM45.06,64.65l.98-.36-.11-4.46-.79.29.13,3.49h-.01s-2.15-2.74-2.15-2.74l-.85.31,2.81,3.47ZM48.54,63.22l2.21-1.19-.32-.59-1.46.79-.56-1.04,1.33-.71-.32-.59-1.33.71-.49-.92,1.45-.78-.31-.59-2.2,1.18,2,3.72ZM52.01,61.25l.69-.5-1.03-1.42.22-.16c.29-.21.45-.18.73,0l1.19.77.76-.56-1.52-.93c-.18-.1-.42-.21-.62-.09h0c.39-.38.42-.91.13-1.31-.69-.95-1.55-.29-2.28.25l-.74.54,2.49,3.41ZM50.6,57.87l.22-.16c.34-.25.75-.49,1.05-.08.31.42-.04.76-.38,1l-.23.17-.67-.92ZM54.36,53.92c-.3.14-.57.33-.84.59-.54.51-.83,1.27-.17,1.95.97,1.01,2.08-.51,2.63.07.27.28.07.69-.17.91-.24.23-.55.38-.87.47l.47.61c.37-.22.57-.32.9-.64.61-.59.9-1.35.26-2.01-.98-1.02-2.1.48-2.61-.05-.32-.33-.14-.68.07-.88.21-.2.48-.36.75-.46l-.42-.56ZM58.2,55.84l.55-.64-3.21-2.76-.55.64,3.21,2.75ZM60.1,53.47l.49-.69-2.91-2.05.7-.99-.55-.38-1.88,2.67.54.39.7-.99,2.91,2.05ZM62.43,49.71l.39-.75-1.49-.76-1.59-2.51-.41.8,1.12,1.71-2.03.09-.45.88,2.98-.21,1.49.76ZM8.38,41.94l-.22-1.11-3.59-.08h0s3.28-1.47,3.28-1.47l-.22-1.11-4.52-.27.16.84,3.6.12h0s-3.29,1.45-3.29,1.45l.23,1.17,3.58.05h0s-3.28,1.49-3.28,1.49l.18.91,4.08-1.99ZM7.52,36.5l-.05-2.6h-.69s.03,1.74.03,1.74l-1.23.02-.03-1.56h-.69s.03,1.58.03,1.58l-1.08.02-.03-1.71h-.69s.05,2.6.05,2.6l4.38-.08ZM3.17,32.77l4.37.33.07-.87-4.37-.33-.07.88ZM7.68,31.33l.42-2.54-.68-.11-.28,1.68-3.65-.6-.14.87,4.33.71ZM8.24,28.28l.71-2.48-.67-.19-.47,1.63-3.55-1.01-.24.85,4.22,1.2ZM10.5,20.54c0,.23-.11.63-.27.94-.42.84-1.27,1.02-2.07.62-.8-.4-1.16-1.22-.75-2.03.14-.28.32-.53.64-.74l-.63-.39c-.26.23-.48.54-.61.8-.67,1.33-.33,2.52,1,3.2,1.33.67,2.4.11,3.04-1.15.15-.3.25-.63.33-.95l-.67-.3ZM9.08,16.14c-.82,1.13-.53,2.27.56,3.06,1.09.79,2.28.74,3.11-.4.82-1.12.49-2.3-.58-3.08-1.07-.78-2.28-.7-3.09.41M12.19,18.4c-.53.72-1.37.53-2.01.06-.63-.45-1.05-1.21-.54-1.91.51-.7,1.37-.53,1.99-.08.64.47,1.09,1.2.56,1.93M14.45,16.52l.62-.62-1.29-1.29.2-.2c.26-.26.43-.25.75-.11l1.34.59.7-.69-1.71-.72c-.2-.08-.47-.14-.65,0h0c.34-.46.29-1-.08-1.36-.86-.86-1.63-.05-2.3.61l-.67.67,3.09,3.1ZM12.46,13.29l.2-.2c.32-.31.69-.62,1.07-.25.38.39.08.78-.23,1.09l-.21.2-.83-.84ZM17.19,13.85l.68-.5-1.94-2.65h.01s3.29,1.65,3.29,1.65l.87-.63-2.59-3.54-.68.5,1.94,2.64h-.01s-3.29-1.65-3.29-1.65l-.87.64,2.59,3.53ZM20.94,11.25l2.3-1.21-.32-.61-1.52.8-.58-1.09,1.38-.73-.32-.61-1.38.73-.51-.95,1.51-.8-.32-.61-2.29,1.21,2.04,3.87ZM24.02,9.7l2.41-.92-.25-.65-1.59.61-1.31-3.45-.82.31,1.56,4.09ZM26.97,8.64l2.5-.63-.17-.67-1.65.42-.91-3.58-.85.21,1.08,4.25ZM31.69,7.61l.84-.02-.07-3.6h.01s1.25,3.58,1.25,3.58l.84-.02,1.11-3.64h.01l.07,3.61.84-.02-.09-4.38-1.41.03-.98,3.34h-.01l-1.11-3.3-1.41.02.08,4.38ZM37.57,7.67l2.57.39.1-.68-1.7-.25.18-1.22,1.55.23.1-.68-1.55-.23.16-1.07,1.69.26.1-.68-2.56-.39-.65,4.33ZM41.01,8.23l1.15.35c1.29.39,2.55.31,3.06-1.36.51-1.66-.49-2.44-1.78-2.83l-1.15-.35-1.28,4.19ZM42.93,4.95l.47.14c.7.21,1.22.95.94,1.86-.28.91-1.12,1.23-1.82,1.01l-.47-.14.88-2.87ZM45.19,9.63l.81.35,1.75-4.01-.81-.35-1.75,4.01ZM49.98,11.2c-.23,0-.63-.14-.93-.31-.82-.46-.97-1.32-.53-2.09.44-.78,1.27-1.11,2.06-.66.27.15.51.34.71.67l.42-.61c-.22-.27-.52-.5-.78-.64-1.29-.73-2.51-.45-3.25.86-.73,1.29-.22,2.39,1.02,3.09.29.16.62.28.94.37l.33-.66ZM49.77,11.98l.72.56.92-.55,1.4,1.1-.32,1.02.76.6,1.36-4.51-.78-.61-4.05,2.39ZM53.04,12.39l-1.01-.79,1.62-1.03h.01s-.62,1.82-.62,1.82ZM53.59,15.13l1.79,1.86.5-.48-1.18-1.23,2.66-2.56-.61-.63-3.16,3.04ZM59.16,20.97c-.2-.12-.49-.42-.68-.71-.51-.79-.25-1.61.5-2.1.75-.49,1.64-.39,2.13.37.17.26.3.54.32.92l.66-.35c-.07-.34-.23-.69-.39-.93-.81-1.25-2.02-1.56-3.27-.74-1.24.81-1.3,2.02-.53,3.21.18.28.42.54.66.76l.6-.43ZM63.68,21.92c-.57-1.27-1.7-1.59-2.93-1.05-1.23.55-1.79,1.6-1.21,2.89.56,1.27,1.74,1.57,2.96,1.04,1.21-.54,1.75-1.62,1.19-2.87M60.16,23.48c-.37-.82.23-1.45.95-1.77.7-.31,1.57-.31,1.93.49.36.8-.22,1.45-.93,1.76-.73.32-1.59.34-1.95-.48M60.66,26.45l.69,2.49.67-.19-.45-1.64,3.56-.99-.23-.85-4.23,1.17ZM61.44,29.47l.4,2.55.69-.11-.26-1.68,3.65-.57-.14-.87-4.33.68ZM61.87,32.56l.09,2.6.69-.02-.06-1.72,1.23-.04.05,1.56.69-.02-.05-1.56,1.08-.04.06,1.7.69-.02-.09-2.58-4.38.15ZM65.82,39.94c.15-.36.27-.76.32-1.26.16-1.48-.57-2.48-2.06-2.64-1.48-.16-2.29.74-2.44,2.15-.05.47,0,.96.07,1.43l2.35.26.2-1.76-.69-.07-.1.92-1.14-.12c-.02-.15-.03-.35,0-.58.1-.93.83-1.4,1.72-1.31.89.1,1.52.74,1.41,1.75-.04.35-.16.78-.35,1.09l.73.14ZM61.35,40.48l-.66,2.51.67.18.44-1.66,1.19.31-.39,1.51.67.18.4-1.51,1.05.27-.43,1.65.67.18.65-2.5-4.24-1.11ZM34.48,69.38C15.35,69.25-.12,53.59,0,34.46.13,15.33,15.8-.12,34.93,0c19.14.12,34.61,15.79,34.48,34.91-.12,19.13-15.8,34.59-34.94,34.47M34.92,1.59C16.66,1.47,1.71,16.22,1.59,34.47c-.12,18.26,14.64,33.2,32.9,33.32,18.26.12,33.22-14.63,33.34-32.89.12-18.25-14.64-33.19-32.91-33.31"/>
    <path class="cls-1" d="M18.21,123.17l-8.15-33.16.41-2.78c.05-.2.15-.34.39-.34l6.07.04c.2,0,.29.15.34.35l5.71,24.73,7.21-24.65c.05-.2.15-.34.34-.34l7.44.05c.19,0,.29.15.34.35l6.93,24.74,5.93-24.65c.05-.19.15-.34.34-.34l6.12.04c.2,0,.34.15.39.35l.32,2.79-8.53,33.05c-.05.2-.15.34-.35.34l-7.93-.05c-.2,0-.29-.15-.34-.35l-7.08-25.13-7.5,25.04c-.05.2-.15.34-.35.34l-7.73-.05c-.2,0-.29-.15-.34-.35"/>
    <path class="cls-1" d="M81.09,115.81l.71,3.18c-.94,1.71-4.05,5.65-11.49,5.6-10.03-.07-14.05-6.5-14-14.76.05-8.26,4.21-14.74,13.01-14.68,9.15.06,12.68,7.03,12.64,13.43l-.85,2.83c-.05.2-.15.34-.39.34l-16.93-.11c.36,4.35,2.26,6.57,6.61,6.6,3.62.02,5-1.97,5.35-2.51.15-.2.25-.29.44-.29l4.5.03c.24,0,.34.1.39.35M64.07,106.5l10.57.07s-.09-.73-.28-1.47c-.67-2.35-1.93-3.83-4.62-3.85-3.18-.02-5,1.92-5.66,5.24"/>
    <path class="cls-1" d="M84.27,93.14l.04-5.53c0-.2.15-.34.35-.34l6.65.04c.2,0,.34.15.34.35l-.04,5.53c0,.2-.15.34-.35.34l-6.65-.04c-.2,0-.34-.15-.34-.34M84.07,123.6l.18-27.28c0-.2.15-.34.34-.34l6.65.04c.2,0,.34.15.34.35l-.18,27.28c0,.25-.15.34-.35.34l-6.65-.04c-.2,0-.34-.1-.34-.35"/>
    <path class="cls-1" d="M95.03,123.67l-.76-2.79.22-33.2c0-.2.15-.34.34-.34l6.65.04c.2,0,.34.15.34.35l-.23,35.99c0,.2-.15.34-.35.34l-5.82-.04c-.2,0-.34-.1-.39-.35"/>
    <path class="cls-1" d="M105.11,123.74l-.76-2.79.22-33.2c0-.2.15-.34.34-.34l6.65.04c.2,0,.34.15.34.35l-.23,35.99c0,.2-.15.34-.35.34l-5.82-.04c-.2,0-.34-.1-.39-.35"/>
    <path class="cls-1" d="M123.09,105.91c.08-11.98,6.73-18.98,17.59-18.91,10.37.07,14.3,5.38,15.45,9.15l-.9,2.83c-.05.19-.15.34-.39.34l-5.38-.04c-.19,0-.29-.15-.34-.29-.43-1.37-2.02-5.05-8.14-5.09-6.66-.04-9.86,3.7-9.91,12.06-.05,8.31,3.1,12.15,9.76,12.19,6.12.04,7.71-3.67,8.25-4.98.1-.19.15-.29.34-.29l5.33.03c.24,0,.29.1.39.34l.86,2.79c-1.2,3.76-5.2,9.06-15.57,8.99-10.86-.07-17.42-7.2-17.34-19.13"/>
    <path class="cls-1" d="M156.82,110.48c.05-8.36,3.72-14.74,13.7-14.68,9.98.07,13.56,6.49,13.51,14.86-.05,8.31-3.72,14.65-13.7,14.58-9.98-.07-13.56-6.45-13.51-14.76M176.54,110.61c.04-5.48-1.76-8.57-6.06-8.6s-6.14,3.04-6.17,8.52c-.04,5.43,1.75,8.47,6.06,8.5,4.31.03,6.14-2.99,6.17-8.42"/>
    <path class="cls-1" d="M185.45,124.26l.18-27.28c0-.2.15-.34.34-.34l5.38.04c.19,0,.34.1.39.35l.76,3.04c1.73-2.09,4.33-3.35,7.61-3.32l2.69.02c.2,0,.34.15.34.35l-.04,5.96c0,.19-.15.34-.35.34l-3.47-.02c-3.57-.02-6.38,2.11-6.41,7l-.09,13.93c0,.2-.15.34-.35.34l-6.65-.04c-.2,0-.34-.15-.34-.35"/>
    <path class="cls-1" d="M205.66,124.39l.18-27.28c0-.2.15-.34.34-.34l5.38.04c.25,0,.34.1.39.35l.77,2.79c1.53-2.29,4.33-3.83,8.44-3.81,5.92.04,9.67,3.39,9.62,10.53l-.12,17.89c0,.2-.15.34-.34.34l-6.66-.04c-.2,0-.34-.15-.34-.35l.11-17.16c.02-2.64-1.04-4.85-4.18-4.87-3.57-.02-6.13,1.82-6.16,6.71l-.1,15.25c0,.2-.15.34-.35.34l-6.65-.04c-.2,0-.34-.15-.34-.35"/>
    <path class="cls-1" d="M257.87,116.96l.71,3.18c-.94,1.71-4.05,5.65-11.49,5.6-10.03-.07-14.05-6.5-14-14.76.05-8.26,4.21-14.74,13.01-14.68,9.15.06,12.68,7.03,12.64,13.43l-.85,2.83c-.05.2-.15.34-.39.34l-16.93-.11c.36,4.35,2.26,6.57,6.61,6.6,3.62.02,5-1.97,5.35-2.51.15-.2.25-.29.44-.29l4.5.03c.24,0,.34.1.39.35M240.86,107.65l10.57.07s-.09-.73-.29-1.47c-.67-2.35-1.93-3.83-4.62-3.85-3.18-.02-5.01,1.92-5.66,5.24"/>
    <path class="cls-1" d="M261.59,124.76l-.77-2.79.22-33.2c0-.2.15-.34.35-.34l6.65.04c.2,0,.34.15.34.35l-.23,35.99c0,.2-.15.34-.35.34l-5.82-.04c-.2,0-.34-.1-.39-.35"/>
    <path class="cls-1" d="M271.38,124.82l-.76-2.79.22-33.2c0-.2.15-.34.35-.34l6.65.04c.2,0,.34.15.34.35l-.23,35.99c0,.2-.15.34-.35.34l-5.82-.04c-.2,0-.34-.1-.39-.35"/>
    <path class="cls-2" d="M14.41,166.18l.23-35.89c0-.2.15-.34.34-.34l7.73.05c.29,0,.39.15.44.35l10.94,25.89,10.93-25.75c.05-.2.2-.34.44-.34l7.73.05c.2,0,.34.15.34.34l-.23,35.89c0,.2-.15.34-.35.34l-5.82-.04c-.2,0-.29-.1-.39-.35l-.76-2.79.12-17.75-8.99,20.48c-.05.25-.15.34-.44.34l-5.77-.04c-.25,0-.39-.1-.44-.35l-8.57-20.6-.12,17.75-.8,2.78c-.05.25-.15.34-.39.34l-5.82-.04c-.2,0-.34-.15-.34-.35"/>
    <path class="cls-2" d="M80.46,158.84l.71,3.18c-.94,1.71-4.05,5.65-11.49,5.6-10.03-.06-14.05-6.5-14-14.76.05-8.26,4.21-14.74,13.02-14.68,9.15.06,12.68,7.03,12.63,13.43l-.85,2.83c-.05.19-.15.34-.39.34l-16.93-.11c.36,4.35,2.26,6.57,6.61,6.6,3.62.02,5-1.97,5.35-2.51.15-.2.25-.29.44-.29l4.5.03c.24,0,.34.1.39.35M63.45,149.53l10.57.07s-.09-.73-.29-1.47c-.67-2.35-1.93-3.83-4.62-3.84-3.18-.02-5,1.92-5.66,5.24"/>
    <path class="cls-2" d="M82.9,152.94c.05-8.31,3.96-14.64,12.23-14.59,3.33.02,5.91,1.12,7.86,3.13l.07-10.71c0-.2.15-.34.35-.34l6.65.04c.19,0,.34.15.34.35l-.23,35.99c0,.2-.15.34-.35.34l-5.33-.03c-.24,0-.34-.1-.44-.3l-.72-2.64c-1.97,2.24-4.77,3.64-8.39,3.61-8.27-.05-12.09-6.53-12.04-14.85M102.91,153.07c.03-5.28-2.15-8.47-6.36-8.5-4.45-.03-6.19,3.14-6.22,8.42-.03,5.33,1.66,8.52,6.11,8.55,4.36.03,6.43-3.38,6.47-8.47"/>
    <path class="cls-2" d="M113.4,136.37l.04-5.53c0-.19.15-.34.35-.34l6.65.04c.2,0,.34.15.34.35l-.04,5.53c0,.19-.15.34-.35.34l-6.65-.04c-.2,0-.34-.15-.34-.34M113.2,166.83l.18-27.28c0-.2.15-.34.34-.34l6.65.04c.2,0,.34.15.34.35l-.18,27.28c0,.25-.15.34-.35.34l-6.65-.04c-.2,0-.34-.1-.34-.35"/>
    <path class="cls-2" d="M122.93,153.25c.05-8.26,4.16-14.69,13.94-14.63,7.44.05,10.25,4.03,11.17,5.75l-.8,3.17c-.05.24-.15.34-.39.34l-4.36-.03c-.2,0-.34-.1-.44-.3-.39-.83-1.55-2.55-5.17-2.57-4.55-.03-6.38,2.79-6.41,8.32-.04,5.53,1.76,8.37,6.31,8.4,3.47.02,4.76-1.53,5.2-2.51.1-.19.25-.29.44-.29l4.35.03c.24,0,.34.1.39.35l.76,3.18c-.94,1.71-3.8,5.65-11.24,5.6-9.79-.06-13.81-6.54-13.75-14.81"/>
    <path class="cls-2" d="M150.39,136.61l.04-5.53c0-.19.15-.34.35-.34l6.65.04c.2,0,.34.15.34.35l-.04,5.53c0,.19-.15.34-.35.34l-6.65-.04c-.2,0-.34-.15-.34-.34M150.19,167.07l.18-27.28c0-.2.15-.34.34-.34l6.65.04c.2,0,.34.15.34.35l-.18,27.28c0,.25-.15.34-.35.34l-6.65-.04c-.2,0-.34-.1-.34-.35"/>
    <path class="cls-2" d="M160.56,167.14l.18-27.28c0-.2.15-.34.34-.34l5.38.04c.25,0,.34.1.39.35l.77,2.79c1.53-2.29,4.33-3.83,8.44-3.81,5.92.04,9.67,3.39,9.62,10.53l-.12,17.89c0,.2-.15.34-.34.34l-6.66-.04c-.2,0-.34-.15-.34-.35l.11-17.16c.02-2.64-1.04-4.85-4.18-4.87-3.57-.02-6.13,1.82-6.16,6.71l-.1,15.25c0,.2-.15.34-.35.34l-6.65-.04c-.2,0-.34-.15-.34-.35"/>
    <path class="cls-2" d="M212.48,159.7l.71,3.18c-.94,1.71-4.05,5.65-11.49,5.6-10.03-.06-14.05-6.5-14-14.76.05-8.26,4.21-14.74,13.01-14.68,9.15.06,12.68,7.03,12.64,13.43l-.85,2.83c-.05.19-.15.34-.39.34l-16.93-.11c.36,4.35,2.26,6.57,6.61,6.6,3.62.02,5-1.97,5.35-2.51.15-.2.25-.29.44-.29l4.5.03c.24,0,.34.1.39.35M195.47,150.39l10.57.07s-.09-.73-.28-1.47c-.67-2.35-1.93-3.83-4.62-3.85-3.18-.02-5,1.92-5.66,5.24"/>
    <path class="cls-2" d="M215.89,154.69l.04-6.11c0-.39.1-.49.44-.49l17.08.11c.34,0,.49.1.49.49l-.04,6.11c0,.39-.15.49-.49.49l-17.08-.11c-.34,0-.44-.1-.44-.49"/>
    <path class="cls-2" d="M269.68,167.6c.15.2.14.34-.15.59l-4.04,3.49c-.25.19-.39.19-.59,0l-4.03-4.92c-2.06.77-4.46,1.24-7.15,1.32-12.58.41-17.32-8.23-17.25-18.6.07-10.37,4.92-18.75,17.49-18.66,12.57.08,17.32,8.52,17.25,18.89-.04,5.62-1.63,10.41-4.98,13.71l3.45,4.18ZM256.36,161.31l-3.74-4.52c-.15-.2-.14-.39.1-.59l4.03-3.5c.3-.19.44-.19.64,0l4.13,5.02c1.29-2.05,1.84-4.83,1.86-8.06.05-7.09-2.56-12.29-9.46-12.33-6.9-.04-9.57,5.12-9.62,12.21-.05,7.09,2.56,12,9.46,12.04.93,0,1.81-.08,2.6-.28"/>
    <path class="cls-2" d="M272.71,160.34c.04-5.67,4.46-8.28,10.97-8.68l7.15-.44v-1.51c.03-2.74-1.24-4.21-4.9-4.24-4.21-.03-5.89,2.36-6.23,2.94-.15.19-.25.29-.44.29l-4.36-.03c-.24,0-.34-.1-.39-.34l-.76-3.18c.94-1.71,3.95-5.6,12.51-5.54,7.73.05,11.87,3.55,11.83,9.81l-.07,11.25c-.01,2.2,1.3,2.85,2.18,2.85.24,0,.29.2.29.39l-.03,4.06c0,.24-.1.34-.35.39l-2.89.76c-2.99-.07-4.69-1.4-5.51-3.46-1.73,2.04-4.52,3.39-9.42,3.36-6.02-.04-9.62-3.19-9.58-8.67M290.68,159.33l.02-2.39-5.78.4c-3.08.23-4.56,1.1-4.57,3.1-.01,1.96,1.25,3.04,4.34,3.06,3.72.02,5.98-2.01,6-4.17"/>
    <path class="cls-2" d="M305.41,159.86l.08-13.06-3.28-.02c-.29,0-.34-.05-.34-.34l.04-5.67c0-.29.05-.34.35-.34l3.28.02.03-3.96.8-2.78c.05-.24.2-.34.39-.34l5.58.04c.19,0,.34.15.34.34l-.04,6.75,6.16.04c.24,0,.34.05.34.35l-.04,5.67c0,.29-.1.34-.35.34l-6.16-.04-.08,12.86c-.01,1.81.91,2.69,2.82,2.71l3.33.02c.25,0,.34.05.34.35l-.04,5.38c0,.29-.1.34-.34.34l-3.96-.03c-6.26-.04-9.28-3.34-9.24-8.62"/>
    <path class="cls-2" d="M321.06,160.65c.04-5.67,4.46-8.28,10.97-8.68l7.15-.44v-1.51c.03-2.74-1.24-4.21-4.9-4.24-4.21-.03-5.89,2.36-6.23,2.94-.15.19-.24.29-.44.29l-4.36-.03c-.24,0-.34-.1-.39-.34l-.76-3.18c.94-1.71,3.95-5.6,12.51-5.54,7.73.05,11.87,3.55,11.83,9.81l-.07,11.25c-.01,2.2,1.3,2.85,2.18,2.85.24,0,.29.2.29.39l-.03,4.06c0,.24-.1.34-.35.39l-2.89.76c-2.99-.07-4.69-1.4-5.51-3.46-1.73,2.04-4.52,3.39-9.42,3.36-6.02-.04-9.62-3.19-9.58-8.67M339.02,159.64l.02-2.39-5.78.4c-3.08.23-4.56,1.1-4.57,3.1-.01,1.96,1.25,3.04,4.34,3.06,3.72.02,5.98-2.01,6-4.17"/>
    <path class="cls-2" d="M350.81,168.37l.18-27.28c0-.2.15-.34.34-.34l5.38.04c.2,0,.34.1.39.35l.76,3.03c1.73-2.09,4.33-3.35,7.61-3.32l2.69.02c.2,0,.34.15.34.35l-.04,5.96c0,.19-.15.34-.35.34l-3.47-.02c-3.57-.02-6.38,2.11-6.41,7l-.09,13.93c0,.2-.15.34-.35.34l-6.65-.04c-.2,0-.34-.15-.34-.35"/>
  </g>
</svg>