<?xml version="1.0" encoding="UTF-8"?>
<svg id="Layer_2" data-name="Layer 2" xmlns="http://www.w3.org/2000/svg" xmlns:xlink="http://www.w3.org/1999/xlink" viewBox="0 0 412 77.66">
  <defs>
    <style>
      .cls-1 {
        fill: none;
      }

      .cls-2 {
        clip-path: url(#clippath);
      }
    </style>
    <clipPath id="clippath">
      <rect class="cls-1" width="412" height="77.66"/>
    </clipPath>
  </defs>
  <g id="Layer_1-2" data-name="Layer 1">
    <g class="cls-2">
      <path d="M291.62.17c-20.23,0-36.69,16.46-36.69,36.69v32.36c0,4.31,3.5,7.81,7.81,7.81s7.81-3.5,7.81-7.81v-32.36c0-11.62,9.45-21.07,21.07-21.07s21.06,9.45,21.06,21.07v32.36c0,4.31,3.5,7.81,7.81,7.81s7.81-3.5,7.81-7.81v-32.36c0-20.23-16.46-36.69-36.68-36.69"/>
      <path d="M373.94.17c-20.86,0-37.83,16.97-37.83,37.83v1.2c0,20.86,16.97,37.83,37.83,37.83,8.3,0,15.98-2.69,22.23-7.24.29,4.05,3.67,7.24,7.79,7.24s7.81-3.5,7.81-7.81v-31.22c0-20.86-16.97-37.83-37.83-37.83M396.15,39.2c0,12.25-9.96,22.21-22.21,22.21s-22.21-9.96-22.21-22.21v-1.2c0-12.24,9.96-22.21,22.21-22.21s22.21,9.96,22.21,22.21v1.2Z"/>
      <path d="M209.25.17c-20.86,0-37.83,16.97-37.83,37.83v1.2c0,20.86,16.97,37.83,37.83,37.83,8.3,0,15.98-2.69,22.23-7.24.29,4.05,3.67,7.24,7.79,7.24s7.81-3.5,7.81-7.81v-31.22C247.07,17.14,230.1.17,209.25.17M231.45,39.2c0,12.25-9.96,22.21-22.21,22.21s-22.21-9.96-22.21-22.21v-1.2c0-12.24,9.96-22.21,22.21-22.21s22.21,9.96,22.21,22.21v1.2Z"/>
      <path d="M145.96,55.1c-3.99,4.06-9.33,6.3-15.02,6.3s-11.03-2.24-15.03-6.3c-3.02-3.08-7.97-3.12-11.05-.1-3.08,3.02-3.12,7.97-.1,11.04,6.95,7.08,16.25,10.97,26.17,10.97s19.21-3.9,26.16-10.97c3.02-3.08,2.98-8.02-.09-11.04-3.08-3.02-8.02-2.98-11.04.1"/>
      <path d="M127,.16c-7.58-.01-14.86,2.26-21.06,6.59-6,4.19-10.56,9.99-13.21,16.78,0,.01-5.15,13.03-9.77,24.71L65.42,5.12c-2.55-6.54-11.98-6.54-14.54,0l-17.64,43.36L15.61,5.12C14.4,2.05,11.45.17,8.34.17c-.95,0-1.92.17-2.86.54C1.46,2.3-.51,6.83,1.07,10.84l24.91,61.23c2.58,6.56,11.96,6.54,14.53,0l17.64-43.37,17.64,43.37c2.59,6.56,11.97,6.55,14.54,0,0,0,16.93-42.8,16.93-42.81,1.52-3.92,4.15-7.28,7.62-9.7,3.54-2.47,7.7-3.78,12.04-3.78,9.69,0,17.87,6.58,20.32,15.51h-28c-4.3,0-7.99,3.36-8.07,7.66-.08,4.38,3.45,7.96,7.81,7.96h36.82c4.31,0,7.81-3.5,7.81-7.81v-1.67C163.61,17.29,147.14.21,127,.16"/>
    </g>
  </g>
</svg>