<?xml version="1.0" encoding="UTF-8"?>
<svg id="Layer_2" data-name="Layer 2" xmlns="http://www.w3.org/2000/svg" xmlns:xlink="http://www.w3.org/1999/xlink" viewBox="0 0 227.07 164.27">
  <defs>
    <style>
      .cls-1 {
        fill: url(#linear-gradient-2);
      }

      .cls-2 {
        fill: url(#linear-gradient-4);
      }

      .cls-3 {
        fill: url(#linear-gradient-3);
      }

      .cls-4 {
        fill: #da1a5d;
      }

      .cls-5 {
        fill: url(#linear-gradient);
      }
    </style>
    <linearGradient id="linear-gradient" x1="116.54" y1="51.05" x2="153.91" y2="51.05" gradientUnits="userSpaceOnUse">
      <stop offset="0" stop-color="#2b296d"/>
      <stop offset=".19" stop-color="#39286e"/>
      <stop offset=".55" stop-color="#5f2672"/>
      <stop offset="1" stop-color="#962478"/>
    </linearGradient>
    <linearGradient id="linear-gradient-2" x1="71.82" x2="109.19" xlink:href="#linear-gradient"/>
    <linearGradient id="linear-gradient-3" x1="79.99" y1="18.43" x2="110.32" y2="18.43" xlink:href="#linear-gradient"/>
    <linearGradient id="linear-gradient-4" x1="145.74" y1="18.43" x2="115.41" y2="18.43" xlink:href="#linear-gradient"/>
  </defs>
  <g id="Layer_1-2" data-name="Layer 1">
    <g>
      <g>
        <path class="cls-4" d="M11.35,131.98c0-1.54-.5-7.99-.76-12.89l1.21-.78c-.4-.59-1.18-1.8-1.37-3.69-.69.19-1.87.61-2.25.97,0,3.19,1.3,12.91,1.32,16.53-.4.73-1.77,1.66-4.4,1.66-2.46,0-3.22-.87-3.22-1.89,0-.57.24-1.75.45-2.15l-1.18-.38c-.52.66-1.16,2.37-1.16,4.09,0,3.1,2.06,4.35,4.85,4.35,3.67,0,6.5-2.08,6.5-5.82Z"/>
        <path class="cls-4" d="M65.5,115.62c-.02,4.02.9,11.31.9,12.96-.31.4-.99.78-2.11.78,0,0,0,0,0,0h0c-1.92,0-2.44-.62-2.6-2.75-.21-2.44-.59-7.19-.59-11.64h-.36c-.76.43-1.54,1.11-1.73,1.44,0,3.19.66,9.63.99,11.99-.28.54-1.09.95-2.25.95,0,0,0,0,0,0h0c-2.03,0-3.52-.29-4.78-.69.64-.38,1.25-.64,1.84-.64l.66-3.78c-.95-.43-2.41-.95-4.38-.95s-3.78.54-4.9,1.21l-.64,3.86.26.17c.19-.07.33-.09.54-.09.45,0,.83.09,1.23.28-1.3.38-2.72.64-4.23.64,0,.01,0,.03,0,.04v-.04c-3.23,0-4.39-5.7-7.44-5.7-1.82,0-3.22,2.03-3.69,4.45-.45.8-1.18,1.25-3.12,1.25,0,0,0,0,0,0h0s-9.46,0-9.46,0c0,0,0,0,0,0,0,0,0,0,0,0-1.28,0-2.37-.17-2.48-.69-.14-.66-.07-9.91-.43-12.75h-.4l-1.61,1.51c.35,2.98.33,13.32.59,14.36.26,1.09,1.23,1.58,3.57,1.58,0,0,0,0,0,0,0,0,0,0,0,0h9.46s0,0,0,0c1.99,0,3.05-1.47,3.74-3,.19,2.79,1.84,4.19,3.57,4.19s2.98-1.4,3.43-3.12c1.09,1.21,2.15,1.94,3.52,1.94v-.04s0,.03,0,.04c3.19,0,5.58-1.35,7.52-2.7,1.51,1.3,3.43,2.7,6.86,2.7v-.02s0,.01,0,.02c1.68,0,2.96-.71,3.74-2.01.59,1.37,1.47,2.01,2.79,2.01h0s0,0,0,0c3.26,0,4.68-2.06,4.68-4.02,0-.97-.33-6.03-.5-10.71l1.28-.83c-.4-.59-1.18-1.8-1.37-3.69-.78.33-1.8,1.02-2.13,1.49ZM36.36,131.25c-1.84,0-2.34-1.61-2.34-2.48-.02-.73.31-1.09.95-1.09,1.16,0,2.06,1.25,3.12,2.6-.19.5-.73.97-1.73.97ZM50.46,127.73c-.66-.28-1.28-.52-1.99-.71.73-.24,1.51-.38,2.32-.38.59,0,1.11.12,1.61.28l-1.94.8Z"/>
        <path class="cls-4" d="M78.47,131.89c.92,0,4.3.12,4.78.24l1.04-3.76c-.38-2.81-2.37-6.6-5.72-6.6-2.25,0-3.33,1.63-3.33,3.5,0,1.18.43,2.44.78,3.22-1.25.66-2.08,1.8-2.08,3.55,0,2.48,1.66,5.06,1.66,9.72l.69.05c.47-.52,1.04-1.47,1.04-3.1,0-2.55-1.3-5.06-1.32-6.34.4-.24,1.16-.47,2.48-.47ZM78.35,125.55c1.4,0,2.77,1.28,3.64,2.53-1.18-.12-2.55-.21-3.22-.21-.5,0-.99.05-1.49.17-.09-.33-.14-.69-.14-1.09-.02-.9.33-1.4,1.21-1.4Z"/>
        <path class="cls-4" d="M114.94,120.94l1.25-1.37-1.47-1.56c-.57.38-1.11.99-1.4,1.54.19.45,1.14,1.25,1.61,1.4Z"/>
        <path class="cls-4" d="M111.42,121.58l1.25-1.37-1.47-1.56c-.59.4-1.11.99-1.4,1.54.19.45,1.14,1.25,1.61,1.4Z"/>
        <path class="cls-4" d="M122.09,129.36c0-.97-.33-6.03-.5-10.71l1.28-.83c-.4-.59-1.18-1.8-1.37-3.69-.78.33-1.8,1.02-2.13,1.49-.02,4.02.9,11.31.9,12.96-.31.4-.99.78-2.11.78,0,0,0,0,0,0h0c-.85,0-1.63-.03-2.37-.1.54-.85.87-1.82.87-2.77,0-1.77-1.06-3.74-2.93-3.74-2.13,0-4.16,2.55-4.16,4.73,0,.59.14,1.18.43,1.8-.62.05-1.25.07-1.96.07,0,0,0,.02,0,.03v-.03s-9.46,0-9.46,0c0,0,0,0,0,.01h0c-2.06-.01-3.31-.39-4.02-1.26-.05-1.61-.5-4.45-1.23-6.76h-.38c-.24.26-1.3,1.47-1.49,1.84.5,1.82.95,3.67.95,5.2-.21.73-.9.97-2.15.97-1.75,0-2.27-.54-2.27-2.74l-1.23-.02c-.31.95-.73,2.46-.73,3.69,0,2.11,1.54,3.1,3.69,3.1,1.77,0,3.24-.76,4.07-2.06.64,1.06,2.01,2.06,4.04,2.06h0s0,0,0,0h9.46v-.03s0,.02,0,.03c1.96,0,3.81-.5,5.32-1.3,1.3.8,2.91,1.3,4.8,1.3h0s0,0,0,0c3.26,0,4.68-2.06,4.68-4.02ZM113,128.81c-1.16-.31-1.82-.71-1.82-1.11-.02-.52.78-.92,2.03-.92,1.11,0,1.75.33,1.75.8-.02.43-.69.88-1.96,1.23Z"/>
        <path class="cls-4" d="M126.44,133.64h.54c.12-5.16-.33-14.9-.71-17.86h-.4c-.64.38-1.32.95-1.75,1.51.35,2.96,1.04,10.71,1.04,14.33l1.28,2.01Z"/>
        <path class="cls-4" d="M138.93,119.83l1.25-1.37-1.47-1.56c-.57.38-1.11.99-1.4,1.54.19.45,1.14,1.25,1.61,1.4Z"/>
        <path class="cls-4" d="M137.47,133.33c2.39,0,3.95-1.58,3.95-4.33-.02-4.42-3.83-6.1-4.19-7.5h-.47l-.14,1.58c-1.89,1.14-3.26,3.69-3.26,5.94-.02,2.65,1.66,4.31,4.12,4.31ZM137.06,126.64c1.77.45,2.74.95,2.74,1.8,0,.43-.66,1.35-2.37,1.35-1.49,0-2.51-.69-2.51-1.47,0-.66.69-1.21,2.13-1.68Z"/>
        <path class="cls-4" d="M135.41,120.46l1.25-1.37-1.47-1.56c-.59.4-1.11.99-1.4,1.54.19.45,1.14,1.25,1.61,1.4Z"/>
        <path class="cls-4" d="M172.07,114.79c-5.49,1.87-10.79,4.73-10.79,7.95,0,1.11.62,2.32,1.47,3.19l.62-1.23c1.8,1.54,2.44,2.55,2.67,3.43-.52.59-1.99,1.23-4.47,1.23,0,0,0,0,0,0h0s-9.46,0-9.46,0c0,0,0,0,0,0h0c-1.94,0-3.31-.98-3.69-3.37h-.85c-.14.24-.78,2.74-.88,3.71.14.54.35,1.02.64,1.47-.83,2.51-3.15,3.33-4.75,3.33-.97,0-1.37-.4-1.82-1.14l-1.11.64c.64,2.67,1.89,4.52,3.52,4.52,2.22,0,4.47-2.91,5.23-6.17.8.64,1.82,1.02,2.96,1.02h0s0,0,0,0h9.46v-.02s0,.01,0,.02c4.28,0,7.54-2.03,7.54-4.66-.02-1.96-1.75-3.93-4.47-6.15,1.3-1.09,4.09-2.44,7.5-3.52l.83-3.95-.14-.31Z"/>
        <path class="cls-4" d="M199.65,128.48c0-2.25-.71-3.93-1.37-4.94h-.26c-.45.43-1.49,1.47-1.66,1.84.26.5,1.44,2.27,1.49,3.43-.19.26-.64.5-1.3.5-1.28,0-2.58-.85-2.79-2.89l-1.28-.35-.26.21c.05.19.12,1.18.12,1.54,0,.99-.57,1.49-1.75,1.49-.95,0-1.99-.33-2.96-2.18h-.26c-.38.33-1.37,1.42-1.63,1.84.09.28,1.3,2.27,1.4,3.07-.47.99-1.8,1.99-4.9,1.99-2.58,0-3.83-.69-3.83-2.34,0-.45.09-1.09.28-1.7l-1.44-.38c-.45.73-.9,1.89-.9,3.34,0,2.91,1.87,5.11,5.35,5.11,4.97,0,7.1-2.81,7.1-6.34,0-.31-.02-.59-.05-.85.71,1.32,1.68,2.46,2.96,2.46,1.11,0,1.7-.83,1.99-2.37.64,1.49,1.66,2.37,2.93,2.37,2.06,0,3.03-2.34,3.03-4.85Z"/>
        <path class="cls-4" d="M201.6,113.72c-.31.31-.62.64-.83.95l-.17,1.66.21.05c.97-.95,2.53-2.2,3.86-2.37l.26-1.99c-.73.07-1.56.43-2.22.85-.12.02-.28.05-.4.05-.4,0-.83-.26-.83-.69s.43-.83,1.21-.83c.38,0,.71.09.76.26h.17l.38-2.53c-.17-.05-.5-.09-.8-.09-1.42,0-2.72,1.23-2.72,2.86,0,1.09.61,1.66,1.14,1.82Z"/>
        <path class="cls-4" d="M227.07,115.09l-.14-.31c-5.49,1.87-10.79,4.73-10.79,7.95,0,1.11.61,2.32,1.47,3.19l.61-1.23c1.8,1.54,2.44,2.55,2.67,3.43-.52.59-1.99,1.23-4.47,1.23,0,0,0,0,0,0h0s-9.46,0-9.46,0c0,0,0,0,0,0,0,0,0,0,0,0-1.28,0-2.37-.17-2.48-.69-.14-.66-.07-9.91-.43-12.75h-.4l-1.61,1.51c.36,2.98.33,13.32.59,14.36.26,1.09,1.23,1.58,3.57,1.58,0,0,0,0,0,0,0,0,0,0,0,0h9.46v-.03s0,.02,0,.03c4.28,0,7.54-2.03,7.54-4.66-.02-1.96-1.75-3.93-4.47-6.15,1.3-1.09,4.09-2.44,7.5-3.52l.83-3.95Z"/>
        <polygon class="cls-4" points="23.06 144.15 17.83 157.36 15.17 150.97 17.85 144.24 16 144.24 13.93 149.62 11.88 144.24 10.03 144.24 12.71 150.97 10.07 157.36 4.82 144.15 2.7 144.15 9.16 159.63 10.86 159.63 13.95 152.32 17.02 159.63 18.72 159.63 25.2 144.15 23.06 144.15"/>
        <path class="cls-4" d="M34.56,149.82c-.5-.54-1.11-.97-1.82-1.29-.71-.32-1.49-.48-2.33-.48s-1.62.16-2.32.48c-.7.32-1.31.75-1.81,1.29-.5.54-.89,1.16-1.18,1.87-.28.71-.42,1.47-.42,2.27s.14,1.53.41,2.25c.28.71.66,1.34,1.17,1.87.5.54,1.1.97,1.81,1.29.7.32,1.49.48,2.34.48s1.64-.16,2.34-.48c.7-.32,1.31-.75,1.82-1.29.51-.54.9-1.16,1.18-1.87.28-.71.41-1.46.41-2.25s-.14-1.55-.42-2.27c-.28-.71-.68-1.34-1.18-1.87ZM33.9,155.6c-.2.52-.47.97-.82,1.35-.35.39-.75.69-1.21.9-.46.22-.95.33-1.47.33s-1.01-.11-1.47-.33c-.46-.22-.86-.52-1.2-.89s-.61-.82-.81-1.33c-.2-.51-.29-1.06-.29-1.66s.1-1.15.29-1.67c.2-.52.46-.97.81-1.35.34-.38.74-.69,1.2-.92.46-.23.95-.34,1.47-.34s1.01.11,1.47.33c.46.22.86.52,1.21.9.35.39.62.84.82,1.35.2.52.29,1.06.29,1.65s-.1,1.15-.29,1.67Z"/>
        <path class="cls-4" d="M43.87,148.16c-.73.06-1.41.33-2.05.82-.64.49-1.16,1.12-1.55,1.91v-2.64h-1.79v11.38h1.92v-7.02c.3-.83.82-1.47,1.56-1.94.73-.47,1.58-.71,2.54-.74v-1.74c-.07-.01-.16-.02-.26-.02h-.37Z"/>
        <polygon class="cls-4" points="56.27 148.27 54.16 148.27 48.32 154.18 48.32 143.72 46.4 143.72 46.4 159.63 48.32 159.63 48.32 156.12 50.5 154.07 54.42 159.63 56.49 159.63 51.74 152.98 56.27 148.27"/>
        <path class="cls-4" d="M66.76,149.81c-.49-.53-1.09-.96-1.8-1.27-.7-.32-1.49-.48-2.34-.48s-1.64.16-2.35.47c-.71.31-1.33.74-1.84,1.27-.52.54-.92,1.16-1.2,1.87-.28.71-.42,1.47-.42,2.27s.14,1.56.42,2.28c.28.72.68,1.35,1.19,1.88.51.54,1.12.96,1.83,1.27.71.31,1.5.47,2.35.47.57,0,1.11-.07,1.63-.22.52-.14,1-.35,1.43-.6.43-.25.81-.56,1.13-.9.33-.35.59-.73.77-1.16l-1.66-.46c-.12.29-.29.55-.51.78s-.48.43-.77.59c-.29.16-.6.29-.94.38-.33.09-.68.14-1.02.14-.49,0-.96-.09-1.41-.28-.44-.19-.84-.45-1.19-.78-.35-.33-.63-.73-.85-1.2s-.35-.98-.39-1.55h9.44c.01-.07.03-.17.03-.31s.01-.28.01-.44c0-.76-.13-1.49-.4-2.19-.27-.7-.65-1.32-1.14-1.85ZM58.78,153.17c.04-.54.17-1.03.38-1.48.21-.45.49-.84.83-1.17.34-.33.74-.58,1.19-.76.45-.18.93-.27,1.44-.27s.99.09,1.44.27c.45.18.85.43,1.19.75.34.32.63.71.85,1.17.22.46.36.96.4,1.49h-7.72Z"/>
        <path class="cls-4" d="M75.82,148.16c-.73.06-1.41.33-2.05.82-.64.49-1.16,1.12-1.55,1.91v-2.64h-1.79v11.38h1.92v-7.02c.3-.83.82-1.47,1.56-1.94.73-.47,1.58-.71,2.54-.74v-1.74c-.07-.01-.16-.02-.26-.02h-.37Z"/>
        <path class="cls-4" d="M85.75,154.29c-.37-.25-.84-.46-1.39-.64-.56-.18-1.22-.36-1.97-.53-.48-.12-.89-.23-1.23-.33-.34-.1-.62-.22-.84-.35s-.37-.28-.47-.46c-.09-.17-.14-.39-.14-.65,0-.65.24-1.13.73-1.43.49-.3,1.08-.45,1.78-.45.62,0,1.23.11,1.83.32.6.21,1.13.53,1.61.95l.87-1.16c-.51-.45-1.13-.81-1.87-1.09-.74-.28-1.54-.41-2.4-.41-.61,0-1.18.08-1.71.23-.53.15-.99.38-1.38.68-.39.3-.7.67-.93,1.11-.23.44-.34.95-.34,1.51,0,.45.07.83.22,1.13s.38.57.7.78c.32.22.73.41,1.22.57.49.16,1.08.33,1.77.5.54.13,1.01.25,1.42.37.41.12.74.25,1,.39.26.15.46.32.59.51s.2.43.2.71c0,.6-.24,1.06-.73,1.38-.49.33-1.14.49-1.97.49-.74,0-1.45-.13-2.11-.38-.67-.25-1.34-.64-2.01-1.14l-.83,1.29c.64.54,1.4.95,2.29,1.23s1.79.43,2.7.43c1.38,0,2.48-.31,3.29-.94.81-.63,1.22-1.47,1.22-2.53,0-.48-.09-.89-.27-1.22-.18-.33-.46-.62-.83-.87Z"/>
        <polygon class="cls-4" points="94.94 159.63 96.9 159.63 96.9 152.69 103.85 152.69 103.85 151.06 96.9 151.06 96.9 145.9 105.16 145.9 105.16 144.15 94.94 144.15 94.94 159.63"/>
        <path class="cls-4" d="M115.76,149.82c-.5-.54-1.11-.97-1.82-1.29-.71-.32-1.49-.48-2.33-.48s-1.62.16-2.32.48c-.7.32-1.31.75-1.81,1.29-.5.54-.89,1.16-1.18,1.87-.28.71-.42,1.47-.42,2.27s.14,1.53.41,2.25c.28.71.66,1.34,1.17,1.87.5.54,1.1.97,1.81,1.29.7.32,1.49.48,2.34.48s1.64-.16,2.34-.48c.7-.32,1.31-.75,1.82-1.29.51-.54.9-1.16,1.18-1.87.28-.71.41-1.46.41-2.25s-.14-1.55-.42-2.27c-.28-.71-.68-1.34-1.18-1.87ZM115.11,155.6c-.2.52-.47.97-.82,1.35-.35.39-.75.69-1.21.9-.46.22-.95.33-1.47.33s-1.01-.11-1.47-.33c-.46-.22-.86-.52-1.2-.89s-.61-.82-.81-1.33c-.2-.51-.29-1.06-.29-1.66s.1-1.15.29-1.67c.2-.52.46-.97.81-1.35.34-.38.74-.69,1.2-.92.46-.23.95-.34,1.47-.34s1.01.11,1.47.33c.46.22.86.52,1.21.9.35.39.62.84.82,1.35.2.52.29,1.06.29,1.65s-.1,1.15-.29,1.67Z"/>
        <path class="cls-4" d="M128.82,149.82c-.5-.54-1.11-.97-1.82-1.29-.71-.32-1.49-.48-2.33-.48s-1.62.16-2.32.48c-.7.32-1.31.75-1.81,1.29-.5.54-.89,1.16-1.18,1.87-.28.71-.43,1.47-.43,2.27s.14,1.53.41,2.25c.28.71.66,1.34,1.17,1.87.5.54,1.1.97,1.81,1.29.7.32,1.49.48,2.34.48s1.64-.16,2.34-.48c.7-.32,1.31-.75,1.82-1.29.51-.54.9-1.16,1.18-1.87.28-.71.41-1.46.41-2.25s-.14-1.55-.43-2.27c-.28-.71-.68-1.34-1.18-1.87ZM128.16,155.6c-.2.52-.47.97-.82,1.35-.35.39-.75.69-1.21.9s-.95.33-1.47.33-1.01-.11-1.47-.33-.86-.52-1.2-.89c-.34-.38-.61-.82-.81-1.33-.2-.51-.29-1.06-.29-1.66s.1-1.15.29-1.67c.2-.52.46-.97.81-1.35.34-.38.74-.69,1.2-.92s.95-.34,1.47-.34,1.01.11,1.47.33.86.52,1.21.9c.35.39.62.84.82,1.35.2.52.29,1.06.29,1.65s-.1,1.15-.29,1.67Z"/>
        <path class="cls-4" d="M137.36,157.83c-.31.12-.66.19-1.04.19-.33,0-.62-.09-.87-.28-.25-.19-.39-.49-.41-.92v-7.06h2.55v-1.5h-2.55v-3.79h-1.92v3.79h-1.55v1.5h1.55v7.65c0,.81.25,1.41.76,1.8.51.39,1.11.58,1.81.58.31,0,.6-.03.88-.08s.55-.12.78-.2c.24-.08.45-.16.64-.24.19-.08.34-.15.46-.21l-.46-1.53c-.12.07-.33.17-.64.29Z"/>
        <path class="cls-4" d="M150.09,149.87c-.44-.54-.98-.98-1.6-1.32-.63-.33-1.33-.5-2.11-.5-.93,0-1.74.23-2.44.68-.7.45-1.29,1.05-1.77,1.79v-6.8h-1.92v15.91h1.7v-2.14c.42.7,1,1.26,1.72,1.7.73.44,1.53.65,2.42.65.76,0,1.46-.16,2.13-.47.66-.31,1.23-.73,1.71-1.26.48-.53.86-1.15,1.13-1.86.28-.71.41-1.47.41-2.27,0-.76-.12-1.49-.36-2.21-.24-.72-.58-1.35-1.02-1.9ZM149.23,155.56c-.19.5-.46.95-.81,1.34-.35.39-.76.7-1.24.94-.48.23-1,.35-1.57.35-.35,0-.71-.07-1.08-.2-.37-.13-.72-.31-1.05-.53s-.61-.49-.85-.8-.4-.64-.47-1v-3.29c.17-.36.38-.7.62-1.02.24-.32.52-.6.83-.84s.65-.43,1.01-.58c.36-.14.75-.22,1.16-.22.55,0,1.06.12,1.51.36.46.24.85.56,1.18.95.33.39.58.85.76,1.36.18.52.27,1.05.27,1.6s-.09,1.08-.28,1.58Z"/>
        <path class="cls-4" d="M162.83,157.27v-4.64c0-1.45-.42-2.58-1.25-3.38-.84-.8-2-1.2-3.5-1.2s-2.96.49-4.42,1.48l.63,1.24c1.26-.89,2.47-1.33,3.62-1.33.96,0,1.7.27,2.22.8s.78,1.26.78,2.19v.92c-.44-.17-.94-.31-1.5-.41-.57-.1-1.13-.15-1.68-.15-.7,0-1.34.09-1.93.26-.59.17-1.1.41-1.53.72-.43.31-.76.67-.99,1.1-.23.43-.35.9-.35,1.43s.1.98.29,1.41c.2.43.46.8.81,1.12s.74.57,1.21.75c.46.18.97.27,1.5.27.89,0,1.72-.18,2.5-.53.78-.36,1.42-.88,1.93-1.56l.04.81c.04.32.18.59.4.82.23.23.53.34.9.34.15,0,.28,0,.41-.02s.3-.04.5-.07v-1.66c-.41-.01-.61-.25-.61-.7ZM160.91,156.16c0,.29-.14.57-.41.85-.31.42-.75.76-1.34,1.01-.59.25-1.22.38-1.91.38-.35,0-.68-.06-.98-.17s-.57-.28-.8-.48c-.23-.2-.4-.44-.52-.72-.12-.28-.19-.57-.19-.89,0-.65.3-1.18.9-1.59.6-.41,1.38-.61,2.34-.61s1.97.18,2.9.55v1.68Z"/>
        <path class="cls-4" d="M169.71,157.96c-.22.05-.41.08-.57.08-.41,0-.72-.12-.95-.36-.23-.24-.34-.57-.34-.99v-12.97h-1.92v13.67c0,.76.21,1.34.64,1.76.43.42,1.01.63,1.75.63.33,0,.72-.04,1.16-.13s.81-.2,1.13-.33l-.31-1.55c-.19.07-.39.13-.61.19Z"/>
        <path class="cls-4" d="M175.95,157.96c-.22.05-.41.08-.57.08-.41,0-.72-.12-.95-.36-.23-.24-.34-.57-.34-.99v-12.97h-1.92v13.67c0,.76.21,1.34.64,1.76.43.42,1.01.63,1.75.63.33,0,.72-.04,1.16-.13.44-.09.81-.2,1.13-.33l-.31-1.55c-.19.07-.39.13-.61.19Z"/>
        <path class="cls-4" d="M193.46,156.5c-.34.34-.71.63-1.1.85-.39.23-.8.39-1.23.49-.43.1-.85.15-1.25.15-.77,0-1.48-.17-2.14-.5-.65-.33-1.22-.78-1.7-1.35-.48-.57-.85-1.22-1.12-1.95-.27-.73-.4-1.51-.4-2.32,0-.73.11-1.45.34-2.17.23-.72.56-1.37,1.01-1.94.45-.57,1.01-1.04,1.67-1.39.66-.36,1.42-.53,2.28-.53.39,0,.79.04,1.2.13s.8.23,1.19.44c.38.2.74.47,1.07.81.33.33.61.75.84,1.24l1.55-1c-.48-1-1.21-1.82-2.2-2.44-.99-.62-2.17-.94-3.55-.94-1.16,0-2.2.23-3.12.68-.92.45-1.69,1.04-2.32,1.78-.63.73-1.11,1.56-1.44,2.48-.33.92-.49,1.85-.49,2.78,0,.99.18,1.96.53,2.91s.86,1.8,1.5,2.55c.65.75,1.41,1.35,2.3,1.82.89.47,1.86.7,2.92.7.6,0,1.21-.08,1.83-.24.62-.16,1.22-.39,1.78-.7.56-.31,1.06-.68,1.5-1.12s.79-.96,1.04-1.54l-1.63-.89c-.22.48-.5.89-.84,1.23Z"/>
        <path class="cls-4" d="M207.99,157.27v-9.02h-1.92v7.13c-.33.87-.85,1.56-1.54,2.06-.69.5-1.43.75-2.21.75-1.61,0-2.42-1.16-2.42-3.49v-6.45h-1.92v6.82c0,1.58.31,2.78.92,3.57.61.8,1.51,1.2,2.7,1.2.99,0,1.9-.23,2.72-.69.83-.46,1.5-1.11,2-1.97l.04,1.33c.01.33.15.61.4.84.25.23.57.34.95.34.12,0,.24,0,.36-.01.12,0,.29-.03.51-.05v-1.66c-.41-.01-.61-.25-.61-.7Z"/>
        <path class="cls-4" d="M220.89,149.83c-.48-.54-1.05-.98-1.7-1.3-.65-.32-1.37-.48-2.16-.48-.87,0-1.67.21-2.39.64-.72.43-1.3.99-1.75,1.69v-2.14h-1.7v16.02h1.92v-6.89c.42.71.99,1.3,1.71,1.76.72.47,1.55.7,2.5.7.76,0,1.45-.16,2.07-.47.62-.31,1.16-.73,1.61-1.26.45-.53.8-1.16,1.05-1.87.25-.72.37-1.49.37-2.3,0-.77-.13-1.51-.4-2.22-.27-.71-.64-1.34-1.12-1.89ZM220.19,155.51c-.17.51-.43.96-.75,1.36-.33.4-.72.72-1.18.96-.46.24-.97.36-1.54.36-.39,0-.77-.07-1.13-.21-.36-.14-.7-.33-1.02-.57-.32-.24-.6-.52-.85-.85-.25-.33-.45-.68-.61-1.06v-3.25c.07-.35.23-.68.47-.99.24-.31.52-.58.85-.81s.68-.41,1.05-.55c.37-.14.73-.21,1.08-.21.55,0,1.06.11,1.54.34.47.23.88.53,1.23.92.35.39.62.84.83,1.35.2.52.31,1.06.31,1.62s-.09,1.06-.26,1.57Z"/>
      </g>
      <g>
        <g>
          <path class="cls-5" d="M138.35,96.05c-.07-.18-.21-.22-.41-.27-.2-.04-.45-.05-.7-.04-.26.01-.51.04-.78.08-.33,0-.69.05-1.01.01-1.35-.12-2.6-.6-3.74-1.18-1.15-.58-2.17-1.35-3.14-2.17-.96-.83-1.86-1.74-2.69-2.81-.21-.26-.45-.64-.62-.92l-.43-.78-.85-1.56c-.56-1.04-1.16-2.09-1.67-3.14-.54-1.04-1.03-2.11-1.53-3.17l-1.39-3.25c-.48-1.08-.88-2.2-1.3-3.31-.21-.56-.4-1.12-.6-1.68l-.53-1.72-.53-1.72c-.17-.58-.29-1.18-.44-1.76l-.42-1.77c-.13-.6-.23-1.21-.35-1.81-.11-.61-.23-1.21-.32-1.82l-.21-1.86c-.17-1.23-.18-2.53-.26-3.79.01-2.58.19-5.23.84-7.96l.62-2.05c.26-.68.55-1.37.84-2.05.35-.68.71-1.35,1.11-2.01l.68-.98c.23-.33.47-.65.72-.91.96-1.14,2.1-2.18,3.25-3.03,1.15-.86,2.29-1.55,3.34-2.12,2.11-1.15,3.85-2.08,5.55-3.2,1.68-1.11,3.31-2.37,4.88-3.74,1.58-1.35,2.97-2.92,4.38-4.51,1.4-1.6,2.69-3.33,3.88-5.15,2.47-3.62,4.46-7.64,6.46-11.84l.53.12c-.97,4.47-2.38,8.86-4.36,13-2.02,4.12-4.6,7.99-7.77,11.34-1.59,1.67-3.28,3.23-5.13,4.62-1.83,1.4-3.83,2.57-5.77,3.74-1.93,1.17-3.77,2.44-5.15,4.17-1.41,1.68-2.28,3.75-2.82,5.9-.53,2.16-.72,4.4-.75,6.65.04,1.12.01,2.25.15,3.37l.15,1.68c.06.56.16,1.12.23,1.68.65,4.47,1.81,8.87,3.19,13.19l1.09,3.23,1.19,3.19c.38,1.07.84,2.11,1.26,3.16l.65,1.57.32.79c.12.25.25.48.39.72,1.14,1.9,2.65,3.63,4.42,4.96.89.66,1.87,1.21,2.92,1.47.26.09.53.09.79.13.29.02.59.05.88.11.3.06.6.14.89.3.15.08.3.19.41.35.12.16.18.37.18.56h-.54Z"/>
          <path class="cls-1" d="M74.72,6.06c2,4.19,3.99,8.22,6.47,11.83,1.19,1.82,2.48,3.55,3.89,5.15,1.4,1.59,2.8,3.16,4.38,4.51,1.57,1.36,3.2,2.63,4.88,3.74,1.71,1.11,3.44,2.05,5.55,3.2,1.05.58,2.19,1.27,3.34,2.13,1.15.85,2.3,1.89,3.26,3.03.25.27.48.59.71.92l.68.98c.4.66.76,1.34,1.11,2.01.29.68.58,1.36.84,2.05.21.68.42,1.36.62,2.05.64,2.73.83,5.38.83,7.96-.07,1.27-.08,2.56-.26,3.79l-.21,1.86c-.08.61-.21,1.21-.32,1.82-.12.6-.22,1.21-.35,1.81l-.42,1.77c-.14.59-.27,1.18-.44,1.76l-.53,1.72-.53,1.72c-.2.56-.39,1.13-.6,1.68-.43,1.11-.82,2.23-1.3,3.31l-1.39,3.25c-.5,1.06-.99,2.13-1.53,3.17-.51,1.04-1.11,2.1-1.67,3.14l-.85,1.56-.43.78c-.17.28-.41.66-.62.92-.83,1.06-1.73,1.98-2.69,2.81-.97.83-1.98,1.59-3.13,2.17-1.14.59-2.39,1.06-3.74,1.18-.33.04-.69,0-1.01-.01-.27-.04-.53-.07-.78-.08-.25-.01-.5,0-.7.04-.2.05-.34.09-.41.27h-.54c0-.19.06-.4.18-.56.12-.16.27-.27.41-.35.3-.16.6-.24.89-.3.3-.06.59-.09.88-.11.26-.05.53-.05.79-.13,1.05-.26,2.03-.81,2.92-1.47,1.77-1.34,3.28-3.07,4.42-4.96.14-.24.27-.47.39-.72l.32-.79.65-1.57c.43-1.05.88-2.09,1.26-3.16l1.2-3.19,1.09-3.23c1.39-4.32,2.54-8.72,3.19-13.19.08-.56.17-1.12.23-1.68l.15-1.68c.13-1.12.1-2.25.15-3.37-.04-2.24-.22-4.49-.76-6.65-.54-2.15-1.41-4.23-2.82-5.9-1.38-1.73-3.22-3-5.15-4.17-1.94-1.17-3.94-2.34-5.77-3.74-1.85-1.38-3.55-2.95-5.13-4.62-3.17-3.35-5.75-7.22-7.77-11.34-1.98-4.15-3.39-8.54-4.36-13l.53-.12Z"/>
        </g>
        <g>
          <path class="cls-3" d="M80.98,0c1.29,3.82,2.73,7.55,4.49,11.09.89,1.77,1.85,3.49,2.91,5.15,1.03,1.67,2.2,3.26,3.44,4.78,2.47,3.04,5.3,5.8,8.49,8.11,1.59,1.16,3.28,2.22,4.95,3.4.82.61,1.63,1.25,2.35,1.97.73.72,1.36,1.53,1.91,2.37-2.81-2.97-6.63-4.22-10.1-6.43-1.76-1.06-3.39-2.33-4.93-3.68-1.51-1.4-2.95-2.86-4.25-4.46-2.58-3.2-4.68-6.78-6.21-10.56-1.54-3.78-2.58-7.73-3.05-11.74Z"/>
          <path class="cls-2" d="M144.75,0c-.47,4.01-1.52,7.97-3.05,11.74-1.53,3.78-3.63,7.36-6.21,10.56-1.3,1.6-2.74,3.06-4.25,4.46-1.55,1.35-3.18,2.62-4.93,3.68-3.47,2.21-7.29,3.46-10.1,6.43.55-.84,1.18-1.65,1.91-2.37.73-.72,1.54-1.36,2.35-1.97,1.66-1.18,3.36-2.24,4.95-3.4,3.19-2.31,6.02-5.06,8.49-8.11,1.24-1.52,2.4-3.1,3.44-4.78,1.06-1.66,2.02-3.38,2.91-5.15,1.76-3.55,3.2-7.27,4.49-11.09Z"/>
        </g>
      </g>
    </g>
  </g>
</svg>