<?xml version="1.0" encoding="UTF-8"?>
<svg id="Layer_2" data-name="Layer 2" xmlns="http://www.w3.org/2000/svg" viewBox="0 0 135.71 134.81">
  <defs>
    <style>
      .cls-1 {
        fill: #ede6ca;
      }

      .cls-2 {
        fill: #efd3b6;
      }

      .cls-3 {
        fill: #ad7e77;
      }

      .cls-4 {
        fill: #8890a9;
      }

      .cls-5 {
        fill: #bfcbbf;
      }

      .cls-6 {
        fill: #e9b9b5;
      }

      .cls-7 {
        fill: #dadee7;
      }
    </style>
  </defs>
  <g id="Dimensions">
    <g>
      <path class="cls-4" d="M32.65,88.32c-1.1.61-2.39,1.06-3.88,1.37-1.49.3-3.08.46-4.77.46-5.27,0-9.27-.99-12-2.96-2.74-1.97-4.67-4.44-5.81-7.4-1.14-2.96-1.77-6.17-1.86-9.62-.1-3.45-.15-6.66-.15-9.62,0-5.46-.35-10.76-1.04-15.88-.7-5.12-1.74-9.47-3.13-13.03h20.87c-.29.76-.67,2.05-1.15,3.87-.48,1.82-.94,3.93-1.37,6.32-.43,2.39-.82,4.95-1.15,7.68s-.5,5.39-.5,7.97c0,1.14.02,2.62.07,4.44.05,1.82.3,3.59.74,5.29s1.21,3.17,2.29,4.38c1.08,1.22,2.66,1.82,4.73,1.82,1.57,0,2.9-.42,3.99-1.25,1.08-.83,1.92-1.97,2.51-3.42.59-1.44,1.01-3.11,1.26-5.01.25-1.9.37-3.91.37-6.03,0-2.58-.17-5.24-.52-7.97-.35-2.73-.77-5.29-1.27-7.68-.5-2.39-.99-4.51-1.49-6.37-.5-1.86-.95-3.21-1.34-4.04h20.87c-1.39,3.57-2.46,7.91-3.21,13.03-.75,5.12-1.12,10.42-1.12,15.88s.37,10.87,1.12,15.99c.75,5.12,1.81,9.47,3.21,13.03-.5.46-1,1.21-1.49,2.28-.5,1.06-.89,2.24-1.19,3.53-1,5.31-3.6,9.64-7.82,12.98-4.22,3.34-9.95,5.01-17.2,5.01-2.68,0-5.29-.23-7.82-.68-2.53-.46-5.09-1.02-7.67-1.71l1.94-18.67c1.39,1.29,3.37,2.33,5.95,3.13,2.58.8,5.36,1.2,8.34,1.2,3.97,0,6.87-.74,8.71-2.22,1.84-1.48,2.76-3.51,2.76-6.09h-.75Z"/>
      <path class="cls-5" d="M65.52,32.39c2.1,0,4.07.4,5.92,1.19,1.85.8,3.46,1.87,4.82,3.24,1.37,1.36,2.45,2.95,3.25,4.77.8,1.82,1.2,3.75,1.2,5.79s-.4,3.98-1.2,5.79c-.8,1.82-1.88,3.41-3.25,4.77-1.37,1.36-2.97,2.44-4.82,3.24-1.85.8-3.82,1.19-5.92,1.19s-4.07-.4-5.9-1.19c-1.83-.79-3.43-1.87-4.8-3.24-1.37-1.36-2.45-2.95-3.25-4.77-.8-1.82-1.2-3.75-1.2-5.79s.4-3.97,1.2-5.79c.8-1.82,1.88-3.41,3.25-4.77,1.37-1.36,2.97-2.44,4.8-3.24,1.83-.79,3.8-1.19,5.9-1.19ZM65.52,39.54c-1.53,0-2.97.21-4.3.63-1.33.42-2.49.99-3.47,1.7-.98.71-1.76,1.54-2.32,2.48-.57.94-.85,1.95-.85,3.02s.28,2.08.85,3.02c.57.94,1.34,1.77,2.32,2.48.98.71,2.14,1.28,3.47,1.7,1.33.42,2.77.63,4.3.63s2.97-.21,4.3-.63c1.33-.42,2.5-.99,3.5-1.7,1-.71,1.78-1.54,2.35-2.48.57-.94.85-1.95.85-3.02s-.28-2.08-.85-3.02c-.57-.94-1.35-1.77-2.35-2.48-1-.71-2.17-1.28-3.5-1.7-1.33-.42-2.77-.63-4.3-.63Z"/>
      <path class="cls-6" d="M58.26,90.75c-.95,0-1.79-.16-2.52-.49-.73-.33-1.34-.75-1.85-1.26-.5-.51-.91-1.08-1.21-1.69-.3-.61-.52-1.22-.66-1.82-.13-.57-.29-1.08-.48-1.52-.19-.44-.41-.82-.67-1.14.37-1.09.65-2.47.83-4.16.19-1.69.28-3.37.28-5.06s-.09-3.38-.28-5c-.19-1.61-.46-2.96-.83-4.05h5.56c-.15.4-.29.99-.42,1.78-.13.79-.24,1.67-.34,2.66-.1.99-.19,2.02-.25,3.09s-.1,2.11-.1,3.11c0,1.29.05,2.49.14,3.62.09,1.13.25,2.12.47,2.96.22.84.53,1.5.91,1.97.38.47.86.71,1.44.71s1.06-.24,1.44-.71c.38-.47.68-1.13.91-1.97.22-.84.38-1.83.47-2.96.09-1.13.14-2.34.14-3.62,0-1-.03-2.04-.1-3.11-.07-1.07-.15-2.1-.26-3.09-.11-.99-.22-1.87-.36-2.66-.13-.79-.28-1.38-.44-1.78h5.56c-.37,1.09-.66,2.44-.85,4.05-.2,1.62-.3,3.28-.3,5s.1,3.37.3,5.06c.2,1.69.48,3.07.85,4.16-.53.6-.91,1.49-1.15,2.66-.13.6-.35,1.21-.65,1.82-.3.61-.71,1.18-1.21,1.69-.5.51-1.12.94-1.85,1.26-.73.33-1.57.49-2.52.49Z"/>
      <path class="cls-4" d="M68.73,77.22c0-2.48-.09-4.87-.28-7.17-.18-2.3-.46-4.23-.83-5.8,1.08,0,2.12-.04,3.11-.11,1-.07,2-.11,3-.11.81,0,1.64.19,2.48.56.84.37,1.6.9,2.27,1.58.67.69,1.22,1.52,1.64,2.5.42.98.63,2.09.63,3.32,0,.97-.13,1.88-.39,2.74-.26.86-.64,1.63-1.12,2.31-.49.68-1.08,1.25-1.77,1.69-.7.44-1.47.74-2.31.88.18,1.11.76,1.96,1.74,2.55.97.59,2.33.64,4.06.15l.59,7.88c-1.39,0-2.65-.31-3.77-.92-1.12-.61-2.07-1.41-2.86-2.38-.79-.97-1.4-2.07-1.83-3.3-.43-1.23-.65-2.45-.65-3.68h-.63c0,1.08.07,2.12.22,3.1.15.98.33,1.91.56,2.76.23.86.48,1.66.74,2.4.27.74.52,1.41.76,2.01h-6.47c.37-1.57.64-3.5.83-5.8.18-2.3.28-4.69.28-7.17ZM72.01,75.38c.5.23,1.12.34,1.87.34.42,0,.85-.05,1.27-.15.42-.1.81-.26,1.15-.47.34-.21.62-.49.83-.84.21-.34.32-.76.32-1.24,0-.74-.28-1.38-.83-1.9s-1.26-.79-2.13-.79c-.32,0-.71.03-1.18.09-.47.06-.83.16-1.06.3-.06.74-.12,1.51-.17,2.31-.05.8-.07,1.58-.07,2.35Z"/>
      <g>
        <path class="cls-1" d="M133.17,67.9c2.16,7.43.82,15.88-4.01,20.09-3.74,2.54-8.7,2.75-14,.79.07-.24.27-.44.63-.55,1.12-.77,2.33-1.78,2.93-2.73.24-.3,1.59-1.93,1.33-2.37-.53-.92-1.69.56-2.25,1.43-.31.47-.65.92-1.05,1.31-2.85,2.81-7.04,5.3-10.86,4.79-1.81.02-6.1-.99-8.45-2.26-.34-.19-.41-.69-.13-.97,1.61-1.66,3.01-4.3,3.5-7.26.3-1.31.38-2.14.47-2.93.05-.26.13-.6-.03-.75-1.62-.46-1.18.8-1.33,1.99-.29,3.67-2.1,6.54-4.16,8.75-1.25,1.02-2.81,1.66-4.4,1.85-.23.03-.46.04-.68.05-2.53.09-5.05-.97-6.48-3.44-2.57-4.12-1.03-9.25,2.55-12.55.95-1.17,1.43-1.49,2.21-2.28.72-.8.94-1.32,1.77-1.27,3.53,1.29,6.89.15,9.07-2.47.14-.36.48-.66.85-.67.09,0,.17,0,.26.04,6.93,1.23,12.24,6.09,14.01,12.84.35,1.14,1.53,1.03,1.22-.13-.15-.54-.35-1.13-.43-1.38-.25-.71-.68-.82-.54-1.46.7.25.72.74,2.11.69,1.84.07,1.44-.14,2.6-.57.54-.21,1.06-.77,1.41-1.13.79-.82.6-1.88-.66-.75-.77.92-1.89,1.43-3.11,1.35-1.06-.07-2.02-.64-2.76-1.47-1.09-1.23-3.14-3.53-3.24-3.6-2.96-2.88-5.13-4.36-8.93-5.06-.44-.17-.7-.18-.96-.18-.44-.01-.7-.54-.46-.94.43-.61,1.76-2.95.49-3.22-.28-.03-.54.18-.59.49-.18,1.01-.08,1.27-1.03,2.73-2.34,4.68-7.09,5.09-10.66,3.27-.09-.27-.36-.48-.89-.57-.12-.06-.23-.12-.34-.18-3.25-2.34-4.84-6.69-1.1-10.97.19-.25.52-.28.76-.09,1.22.94,2.84,1.71,4.38,2.12.67.17,1.4.02,1.9-.5.17-.18.28-.37.26-.53-.03-.26-.42-.38-.85-.36-.84.05-1.68.04-2.46-.26-1.47-.56-2.85-1.51-3.99-2.71-2.01-2.12-3.29-5.04-3.14-8.12-.03-3.69,3.94-8.53,6.84-10.2,4.59-3.18,10.64-1.89,15.26.62.27.23.44.9-.15,1.13-1.12.43-2.21,1.55-3.13,2.7-.55.69-1.04,1.38-1.44,1.95,0,.12-.42.78-.14,1.03.53.57,1.03-.34,1.31-.74.37-.54.79-1.08,1.24-1.59,2.44-2.81,5.91-5.18,9.11-5.36,6.88-.95,3.51,2.6.32,5.5-.47,1.26.83,1.47,1.19.23,2.82-4.4,7.63-6.98,11.92-3.91,6.51,3.3,6.42,11.2,1.49,16.03-.95,1.09-2.07,2.17-3.3,3.12-1.7,1.32-3.6,2.41-5.54,2.96-1.07.3-2.15.44-3.22.36-.18-.01-.36-.03-.54-.06-2.05-.7-2.78-2.61-2.85-4.68-.08-2.28.63-4.75,1.21-5.97.4-.78.08-1.21.08-1.21-.82-.59-1.45,1.49-1.63,1.86-.45,1.04-1.05,2.67-1.18,3.99-.04.38-.39.61-.73.51-2.02-.62-3.52-.65-5.24,1.55-.51.56-.54.59-.55.61-.05.05-.57.98-.26,1.26.67.97,1.84-3.49,5.83-2.26,1.02.23,1.04.77,1.14,1.68h0c.91,2.56,2.64,3.74,4.63,3.99,1.16.15,2.4-.02,3.62-.42.85-.27,1.68-.65,2.47-1.11,3.82-2.19,9.7,3.08,11.45,8.52Z"/>
        <path class="cls-1" d="M115.17,88.78c5.3,1.96,10.25,1.75,14-.79-2.34,2.05-5.51,3.09-9.51,2.53-.96-.04-1.41-.03-1.82-.05s-.78-.09-1.56-.3c-.77-.18-1.25-.86-1.1-1.39Z"/>
        <path class="cls-1" d="M88.51,67.41c.53.08.8.29.89.57-.43-.21-.84-.47-1.23-.75.11.06.23.12.34.18Z"/>
      </g>
      <g>
        <polygon class="cls-6" points="71.18 52.4 68.23 53.97 60.29 42.53 62.96 40.93 71.18 52.4"/>
        <polygon class="cls-6" points="66.81 54.89 63.49 54.24 64.56 38.96 67.88 39.69 66.81 54.89"/>
        <polygon class="cls-6" points="72.4 43.61 72.95 46.91 59 51.18 58.33 48.13 72.4 43.61"/>
        <polygon class="cls-6" points="61.62 55.09 59.38 52.62 69.7 39.92 71.85 42.19 61.62 55.09"/>
        <polygon class="cls-6" points="73.83 48.46 72.25 51.51 57.45 46.39 59.14 43.5 73.83 48.46"/>
      </g>
      <g>
        <polygon class="cls-7" points="69.63 50.92 67.49 52.06 61.73 43.77 63.67 42.61 69.63 50.92"/>
        <polygon class="cls-7" points="66.46 52.72 64.06 52.25 64.83 41.18 67.24 41.71 66.46 52.72"/>
        <polygon class="cls-7" points="70.51 44.55 70.91 46.94 60.8 50.03 60.31 47.83 70.51 44.55"/>
        <polygon class="cls-7" points="62.7 52.87 61.07 51.08 68.56 41.88 70.11 43.52 62.7 52.87"/>
        <polygon class="cls-7" points="71.55 48.06 70.4 50.28 59.67 46.56 60.9 44.47 71.55 48.06"/>
      </g>
      <g>
        <path class="cls-5" d="M57.21,21.93h2.65s1.3-2.09,1.3-2.09c1.78-2.86,5.86-3.07,7.92-.41l1.53,1.96c.26.34.67.54,1.1.54h3.01c.54,0,.93-.5.81-1.02l-.6-2.57c-.89-3.82-3.53-7.01-7.12-8.6h0c-1.93-.86-4.16-.73-5.98.34h0c-2.8,1.65-4.76,4.42-5.37,7.62l-.52,2.71c-.15.8.46,1.54,1.27,1.54Z"/>
        <circle class="cls-5" cx="65.3" cy="23.07" r="3.03"/>
      </g>
      <path class="cls-2" d="M98.04,6.03c-.63-4.51,1.65-5.13,4.97-1.91,2,2.04,2.15,4.58,2.16,4.97.06,2.37-1.22,5.54-2.83,6.19-2.63.77-3.97-2.12-4.32,1.37-.17,1.32-.03,1.49-.14,2.24-.02.8-1.12,4.05-3.31,2.95-1.2-.53-1.04-1.77-2.01-2.08-.68-.22-1.44.19-2.17.59-1.06.57-1.19,1.09-1.73,1.06-.9-.05-1.49-1.58-1.61-1.88-.67-1.74-.15-3.42.07-4.09.31-.95.73-1.58,1.33-2.51,1.42-2.16,2.06-2.13,2.24-3.18.23-1.35-.76-1.81-.4-3.27.05-.2.31-1.28,1.23-1.81,1.77-1.23,5.98,1.7,6.49,1.36Z"/>
      <g>
        <polygon class="cls-1" points="46.76 10.88 44.37 12.15 37.94 2.89 40.11 1.6 46.76 10.88"/>
        <polygon class="cls-1" points="43.22 12.9 40.54 12.37 41.4 0 44.09 .6 43.22 12.9"/>
        <polygon class="cls-1" points="47.75 3.77 48.2 6.44 36.9 9.89 36.36 7.43 47.75 3.77"/>
        <polygon class="cls-1" points="39.02 13.06 37.2 11.06 45.56 .78 47.3 2.62 39.02 13.06"/>
        <polygon class="cls-1" points="48.91 7.69 47.62 10.16 35.64 6.01 37.01 3.67 48.91 7.69"/>
      </g>
      <g>
        <polygon class="cls-4" points="44.44 8.86 43.33 9.45 40.34 5.14 41.34 4.54 44.44 8.86"/>
        <polygon class="cls-4" points="42.79 9.79 41.54 9.55 41.95 3.79 43.2 4.07 42.79 9.79"/>
        <polygon class="cls-4" points="44.9 5.55 45.11 6.79 39.85 8.39 39.6 7.25 44.9 5.55"/>
        <polygon class="cls-4" points="40.84 9.87 39.99 8.94 43.88 4.16 44.69 5.01 40.84 9.87"/>
        <polygon class="cls-4" points="45.44 7.37 44.84 8.52 39.27 6.59 39.9 5.5 45.44 7.37"/>
      </g>
      <path class="cls-1" d="M41.39,129.15c-.32-.17-.64-.35-.95-.53-2.14-1.35-2.48-.76-.4.88,3.35,2.44,7.2,4.12,11.28,4.95,4.96,1.11,10.25-.44,12.48-2.75.08-.08.16-.16.24-.24,1.7-1.81.62-2.87-2.13-2.71-4.92.16-9.59-.88-13.76-2.73-2.55-1.27-1.71-2.24,1.28-2.43,4.77-.43,9.32-2.63,12.68-6.24,1.98-2.21,1.57-4.28-.14-3.75-3.6.91-7.15.78-10.47.06-1.63-.41-1.12-1.71.57-3.01,1.97-1.57,3.51-3.68,4.42-6.11,1.11-3.42-.5-6.02-1.57-4.72-.43.4-.9.77-1.4,1.09-.38.26-.65,1.38-.22,1.23.09-.03.17-.06.26-.09.81-.35,1.17,1.17.27,2.7-1.12,1.83-2.69,3.35-4.55,4.43-3.99,2.14-6,3.75-2.34,5.61,2.36,1.01,4.86,1.74,7.48,2.09,1.85.17,1.62,2.03-.94,3.08-4.04,1.57-8.65,1.69-12.89.11-3.74-1.5-5.12-1.75-2.94,1.17,2.18,2.62,4.7,5,7.58,7.03,2.76,1.72.49,3.06-3.82.88Z"/>
      <g>
        <polygon class="cls-6" points="85.99 121.46 82.69 120.39 85.55 104.13 92.87 106.49 85.99 121.46"/>
        <rect class="cls-6" x="81.59" y="121.71" width="3.95" height="3.33" transform="translate(-59.49 165.09) rotate(-72.15)"/>
      </g>
      <g>
        <polygon class="cls-6" points="98.48 114.75 97.27 115.39 94.03 110.72 95.12 110.07 98.48 114.75"/>
        <polygon class="cls-6" points="96.69 115.76 95.34 115.5 95.77 109.26 97.13 109.56 96.69 115.76"/>
        <polygon class="cls-6" points="98.97 111.16 99.2 112.51 93.5 114.25 93.23 113 98.97 111.16"/>
        <polygon class="cls-6" points="94.58 115.84 93.66 114.84 97.87 109.65 98.75 110.58 94.58 115.84"/>
        <polygon class="cls-6" points="99.56 113.14 98.91 114.38 92.87 112.29 93.56 111.11 99.56 113.14"/>
      </g>
      <path class="cls-3" d="M120.16,105.94c-3,1.91-4.19.5-2.98-2.91.8-2.09,2.56-3.02,2.83-3.15,1.67-.81,4.34-.93,5.32,0,1.4,1.62-.22,3.51,2.38,2.63.99-.3,1.07-.47,1.64-.63.57-.24,3.25-.52,3.17,1.39.02,1.02-.92,1.31-.83,2.1.07.56.6.96,1.12,1.35.75.57,1.16.5,1.32.88.26.66-.64,1.57-.81,1.75-1.02,1.04-2.38,1.21-2.93,1.27-.78.09-1.36,0-2.22-.13-2-.31-2.18-.77-2.99-.56-1.04.28-1.04,1.13-2.19,1.35-.16.03-1.01.19-1.69-.29-1.45-.86-.74-4.8-1.14-5.06Z"/>
    </g>
  </g>
</svg>