<?xml version="1.0" encoding="UTF-8"?>
<svg id="Layer_2" data-name="Layer 2" xmlns="http://www.w3.org/2000/svg" viewBox="0 0 353.51 358.28">
  <defs>
    <style>
      .cls-1 {
        fill: #cb2026;
      }
    </style>
  </defs>
  <g id="Layer_1-2" data-name="Layer 1">
    <path class="cls-1" d="M321.88,0H31.62C14.16,0,0,14.16,0,31.62v295.03c0,17.47,14.16,31.62,31.62,31.62h290.26c17.47,0,31.62-14.16,31.62-31.62V31.62c0-17.47-14.16-31.62-31.62-31.62ZM335.84,322.95c0,9.63-7.8,17.43-17.43,17.43H35.09c-9.63,0-17.43-7.8-17.43-17.43V35.33c0-9.63,7.8-17.43,17.43-17.43h283.32c9.63,0,17.43,7.8,17.43,17.43v287.61Z"/>
    <g>
      <path class="cls-1" d="M305.71,173.82c-2.49-1.82-3.55-1.66-5.3-2.96-1.88-1.39-2.72-3.1-3.65-4.99-3.33-6.75-3.52-16.92-3.54-18.72-.44-17.44-.89-34.88-1.33-52.32.12-4.1-.22-11.63-4.05-19.93-4.48-9.72-11.35-15.3-14.93-17.8-6.78-4.74-13.35-6.52-17.17-7.26-2.63-.59-5.36-1.12-8.18-1.6-10.35-1.75-19.99-2.34-28.65-2.27h-83.03c-8.66-.07-18.3.52-28.65,2.27-2.82.48-5.55,1.01-8.18,1.6-3.82.74-10.39,2.52-17.17,7.26-3.58,2.5-10.45,8.09-14.93,17.8-3.83,8.3-4.17,15.83-4.05,19.93-.44,17.44-.89,34.88-1.33,52.32-.02,1.79-.21,11.97-3.54,18.72-.93,1.88-1.77,3.59-3.65,4.99-1.75,1.3-2.82,1.15-5.3,2.96-1.73,1.26-3.14,2.32-3.1,3.79.04,1.62,1.8,2.81,1.88,2.86.59.39,1.1.5,1.82.68,1.04.26,2.55.67,4.45,1.29,1.17.3,2.84.66,4.86.89,3.98.46,7.07.15,8.94-.05,2.91-.31,5.13-.82,6.31-1.13,3.15-.81,4.72-1.21,6.46-2.45,2.37-1.69,3.52-3.79,3.97-4.65,1.46-2.74,1.65-5.3,1.66-6.65.38-4,.75-8,1.13-12,.09-.61.26-1.5.59-2.55.45-1.44.67-2.17,1.26-2.82.94-1.05,2.2-1.34,3.12-1.58,1.01-.26,1.89-.28,2.49-.25,1.47.05,2.93.1,4.4.15,1.14.04,2.31.07,3.49.08,3.68.03,7.19-.11,10.51-.36,0,0,6.65-.49,20.01-1.2,3.75-.2,9.35-.44,16.27-.53,9.25.17,18.5.34,27.74.51h0s.02,0,.03,0c.01,0,.02,0,.04,0h0c9.25-.17,18.5-.34,27.74-.51,6.92.09,12.51.33,16.27.53,13.36.71,20.01,1.2,20.01,1.2,3.32.25,6.83.39,10.51.36,1.18,0,2.35-.04,3.49-.08,1.47-.05,2.93-.1,4.4-.15.6-.03,1.48-.01,2.49.25.92.24,2.18.54,3.12,1.58.59.65.81,1.38,1.26,2.82.32,1.05.49,1.94.59,2.55.38,4,.75,8,1.13,12,0,1.35.2,3.91,1.66,6.65.45.85,1.6,2.96,3.97,4.65,1.73,1.24,3.31,1.64,6.46,2.45,1.18.3,3.4.82,6.31,1.13,1.87.2,4.96.51,8.94.05,2.02-.23,3.69-.59,4.86-.89,1.9-.63,3.41-1.03,4.45-1.29.73-.18,1.23-.29,1.82-.68.08-.05,1.85-1.25,1.88-2.86.03-1.47-1.37-2.53-3.1-3.79ZM266.18,122.65c-.02.1-.09.55-.42,1.1-.52.86-1.26,1.3-1.68,1.55-1.86,1.08-4.3,1.1-4.93,1.1l-23.92.17-57.8-.59h0s-.04,0-.04,0h-.03s0,0,0,0l-57.8.59-23.92-.17c-.63,0-3.06-.02-4.93-1.1-.42-.24-1.16-.68-1.68-1.55-.33-.55-.41-1.01-.42-1.1-.11-.69.08-1.23.18-1.6.18-.63.36-1.56.3-2.82.16-6.84.32-13.68.49-20.52.1-2.31.48-5.18,1.55-8.3.37-1.09.79-2.09,1.22-3,0-.02.02-.04.04-.07,1.03-1.82,3.52-5.69,7.95-8.62,2.28-1.51,4.16-2.16,6.7-3.04,3.68-1.28,6.89-1.84,9.19-2.11l29.21-1.43,31.49.18h0s.17,0,.17,0h.17s0,0,0,0l32.08-.18,29.21,1.43c2.29.27,5.51.84,9.19,2.11,2.54.88,4.42,1.54,6.7,3.04,4.44,2.93,6.93,6.8,7.95,8.62.02.03.03.05.04.07.43.91.84,1.91,1.22,3,1.07,3.12,1.45,5.99,1.55,8.3.16,6.84.32,13.68.49,20.52-.06,1.26.12,2.19.3,2.82.11.37.3.91.18,1.6Z"/>
      <path class="cls-1" d="M293.56,201.45c-1.48-.27-3.8-.64-6.67-.81-13.04-.77-23.14,3.45-30.45,6.68-19.87,8.8-35.08,15.54-55.95,30.51-7.92,5.68-14.21,10.79-18.52,14.44-3.4,2.83-4.54,2.1-4.54,2.1,0,0-1.14.73-4.54-2.1-4.31-3.65-10.6-8.76-18.52-14.44-20.87-14.97-36.08-21.7-55.95-30.51-7.31-3.24-17.41-7.45-30.45-6.68-2.87.17-5.2.54-6.67.81,0,0-8.26,1.38-6.85,10.16,1.41,8.79,18.49,9.84,26.4,12.98s42.2,17.13,69.39,43.81l6.79,7.97s2.88,1.88,2.81,9.01l-.45,24.56s-.56,5.96,6.05,6.88l11.99-.45,11.99.45c6.6-.92,6.05-6.88,6.05-6.88l-.45-24.56c-.08-7.13,2.81-9.01,2.81-9.01l6.79-7.97c27.19-26.68,61.48-40.67,69.39-43.81,7.91-3.14,24.99-4.19,26.4-12.98,1.41-8.79-6.85-10.16-6.85-10.16Z"/>
    </g>
  </g>
</svg>