<svg id="Layer_1" height="512" viewBox="0 0 512 512" width="512" xmlns="http://www.w3.org/2000/svg" data-name="Layer 1"><path d="m420 36h-328a56 56 0 0 0 -56 56v328a56 56 0 0 0 56 56h328a56 56 0 0 0 56-56v-328a56 56 0 0 0 -56-56zm-235.312 353.709h-62.4v-178.279h62.4zm-31.2-205.021a31.2 31.2 0 1 1 31.2-31.2 31.2 31.2 0 0 1 -31.198 31.2zm236.221 205.021h-53.483v-86.866c0-20.718-2.3-47.366-30.695-47.366-28.83 0-33.236 22.567-33.236 45.866v88.366h-51.951v-178.279h49.706v24.061h.766c7.4-14.048 25.488-24.061 52.439-24.061 56.077 0 66.454 32.2 66.454 80.3z"/></svg>