<?xml version="1.0" encoding="UTF-8"?>
<svg id="Layer_2" data-name="Layer 2" xmlns="http://www.w3.org/2000/svg" viewBox="0 0 347.9 149.88">
  <defs>
    <style>
      .cls-1 {
        fill: #363735;
      }
    </style>
  </defs>
  <g id="Layer_1-2" data-name="Layer 1">
    <g>
      <path class="cls-1" d="M51.3,62.35h-26.88l-3.65,9.47H0L28.71,1.75h18.37l28.71,70.07h-20.77l-3.71-9.47ZM45.09,46.34l-6.58-16.89-.52-2.57h-.21l-.57,2.57-6.58,16.89h14.46Z"/>
      <path class="cls-1" d="M120.99,62.35h-26.88l-3.65,9.47h-20.77L98.39,1.75h18.37l28.71,70.07h-20.77l-3.71-9.47ZM114.78,46.34l-6.58-16.89-.52-2.57h-.21l-.57,2.57-6.58,16.89h14.46Z"/>
      <path class="cls-1" d="M145.53,1.8h31.58c3.86,0,7.41.59,10.65,1.78,3.24,1.18,6.03,2.84,8.38,4.97,2.35,2.13,4.17,4.68,5.48,7.65,1.31,2.97,1.96,6.26,1.96,9.86,0,2.3-.3,4.48-.89,6.54-.59,2.06-1.43,3.96-2.5,5.71-1.08,1.75-2.39,3.32-3.94,4.71-1.55,1.39-3.28,2.58-5.19,3.58l14.3,25.23h-22.49l-11.07-22.19h-6.58v22.19h-19.68V1.8ZM176.22,33.47c1.04,0,2.04-.19,2.97-.57.94-.38,1.76-.89,2.45-1.54.7-.65,1.24-1.43,1.64-2.34.4-.91.6-1.9.6-2.96,0-.89-.2-1.76-.6-2.6-.4-.84-.95-1.6-1.64-2.26-.7-.67-1.51-1.2-2.43-1.6-.92-.39-1.91-.59-2.95-.59h-11.06v14.47h11.01Z"/>
      <path class="cls-1" d="M240.48,73.52c-5.36,0-10.4-.96-15.14-2.88-4.73-1.92-8.86-4.55-12.37-7.88-3.51-3.33-6.29-7.23-8.32-11.71-2.04-4.48-3.05-9.26-3.05-14.34s1.02-9.89,3.05-14.34c2.04-4.44,4.81-8.33,8.32-11.66,3.51-3.33,7.64-5.95,12.37-7.85,4.73-1.9,9.78-2.86,15.14-2.86s10.39.95,15.11,2.86c4.71,1.9,8.84,4.52,12.37,7.85,3.53,3.33,6.32,7.22,8.35,11.66,2.04,4.45,3.05,9.22,3.05,14.34s-1.02,9.86-3.05,14.34c-2.04,4.48-4.82,8.38-8.35,11.71-3.53,3.33-7.66,5.95-12.37,7.88-4.72,1.92-9.75,2.88-15.11,2.88ZM240.48,55.81c2.68,0,5.19-.46,7.54-1.39s4.39-2.23,6.13-3.91c1.74-1.68,3.11-3.69,4.1-6.02.99-2.33,1.49-4.91,1.49-7.72s-.5-5.39-1.49-7.72c-.99-2.33-2.36-4.34-4.1-6.02-1.74-1.68-3.78-2.99-6.13-3.91s-4.86-1.39-7.54-1.39-5.19.46-7.54,1.39-4.39,2.23-6.13,3.91c-1.74,1.68-3.11,3.69-4.1,6.02-.99,2.33-1.49,4.91-1.49,7.72s.5,5.39,1.51,7.72c1.01,2.34,2.38,4.34,4.12,6.02,1.74,1.68,3.78,2.99,6.13,3.91s4.84,1.39,7.49,1.39Z"/>
      <path class="cls-1" d="M281.4,1.8h17.28l29.59,38.56V1.8h19.63v70.02h-17.07l-29.75-38.72v38.72h-19.68V1.8Z"/>
    </g>
    <g>
      <path class="cls-1" d="M26.99,121.38L0,77.14h23.03l14,26.83,13.79-26.83h23.19l-27.15,44.13.05,26.73h-19.91v-26.62Z"/>
      <path class="cls-1" d="M105.54,149.72c-4.58,0-8.84-.67-12.78-2.01-3.94-1.34-7.37-3.26-10.27-5.76-2.91-2.5-5.19-5.55-6.84-9.14-1.66-3.6-2.48-7.63-2.48-12.11v-43.56h19.86v42.14c0,1.84.26,3.55.79,5.11.53,1.56,1.32,2.91,2.38,4.04s2.37,2.01,3.94,2.63c1.57.63,3.37.94,5.41.94s3.78-.31,5.33-.94c1.55-.63,2.84-1.5,3.88-2.63s1.83-2.48,2.38-4.04c.55-1.56.82-3.29.82-5.16v-42.09h19.91v43.56c0,4.17-.75,8.03-2.24,11.59-1.5,3.56-3.64,6.63-6.44,9.2-2.8,2.57-6.2,4.58-10.19,6.04-4,1.46-8.48,2.19-13.44,2.19Z"/>
      <path class="cls-1" d="M170.78,149.88c-5.78,0-10.64-.72-14.6-2.16-3.96-1.44-7.16-3.33-9.59-5.65-2.43-2.33-4.17-4.94-5.23-7.84-1.06-2.9-1.58-5.83-1.58-8.78h19.86c0,2.61.94,4.59,2.83,5.97,1.88,1.37,4.62,2.06,8.21,2.06,2.04,0,3.74-.12,5.1-.37,1.35-.24,2.44-.61,3.25-1.09.81-.49,1.38-1.1,1.72-1.85.33-.75.5-1.61.5-2.58,0-.87-.25-1.63-.74-2.29-.49-.66-1.25-1.27-2.27-1.82-1.02-.56-2.32-1.09-3.88-1.62-1.57-.52-3.44-1.06-5.63-1.62-2.01-.56-4.09-1.16-6.23-1.82-2.15-.66-4.23-1.43-6.23-2.32s-3.91-1.92-5.7-3.1c-1.8-1.18-3.36-2.55-4.7-4.12-1.34-1.56-2.4-3.35-3.17-5.37-.78-2.01-1.16-4.29-1.16-6.83,0-3.3.61-6.26,1.82-8.88s3.03-4.86,5.44-6.72c2.41-1.86,5.39-3.28,8.93-4.27,3.54-.99,7.63-1.48,12.28-1.48,4.93,0,9.22.54,12.86,1.62,3.64,1.08,6.67,2.61,9.08,4.61s4.22,4.43,5.41,7.29c1.2,2.87,1.8,6.09,1.8,9.66h-19.97c0-.66-.12-1.35-.37-2.08-.25-.73-.71-1.4-1.4-2.01-.69-.61-1.65-1.11-2.88-1.51-1.23-.4-2.83-.6-4.81-.6-1.8,0-3.24.14-4.33.42-1.09.28-1.93.62-2.51,1.04-.58.42-.97.89-1.16,1.43s-.29,1.07-.29,1.59c0,.83.25,1.58.74,2.24.49.66,1.3,1.28,2.43,1.85,1.13.57,2.61,1.13,4.44,1.67,1.83.54,4.07,1.09,6.71,1.64,3.87.83,7.39,1.89,10.54,3.18,3.15,1.29,5.85,2.87,8.11,4.74,2.25,1.88,3.99,4.09,5.2,6.64s1.82,5.51,1.82,8.88c0,3.65-.76,6.86-2.27,9.64-1.51,2.78-3.63,5.1-6.34,6.96-2.71,1.86-5.94,3.27-9.69,4.22s-7.86,1.43-12.33,1.43Z"/>
      <path class="cls-1" d="M239.19,149.72c-5.42,0-10.53-.97-15.32-2.92-4.79-1.95-8.96-4.6-12.52-7.97-3.56-3.37-6.36-7.32-8.42-11.85-2.06-4.53-3.09-9.37-3.09-14.51s1.03-10.01,3.09-14.51c2.06-4.5,4.87-8.43,8.42-11.8,3.56-3.37,7.73-6.02,12.52-7.95,4.79-1.93,9.89-2.89,15.32-2.89s10.52.96,15.29,2.89c4.77,1.93,8.94,4.58,12.52,7.95,3.57,3.37,6.39,7.3,8.45,11.8,2.06,4.5,3.09,9.34,3.09,14.51s-1.03,9.98-3.09,14.51c-2.06,4.53-4.88,8.48-8.45,11.85-3.57,3.37-7.75,6.03-12.52,7.97-4.77,1.94-9.87,2.92-15.29,2.92ZM239.19,131.8c2.71,0,5.26-.47,7.63-1.41s4.45-2.26,6.21-3.96c1.76-1.7,3.14-3.73,4.15-6.1,1-2.36,1.51-4.97,1.51-7.81s-.5-5.45-1.51-7.82c-1-2.36-2.39-4.39-4.15-6.1-1.76-1.7-3.83-3.02-6.21-3.96s-4.92-1.41-7.63-1.41-5.26.47-7.63,1.41-4.45,2.26-6.21,3.96c-1.76,1.7-3.14,3.73-4.15,6.1-1,2.36-1.51,4.97-1.51,7.82s.51,5.45,1.53,7.81c1.02,2.36,2.41,4.39,4.17,6.1,1.76,1.7,3.83,3.02,6.21,3.96s4.9,1.41,7.58,1.41Z"/>
      <path class="cls-1" d="M280.61,77.14h17.48l29.95,39.03v-39.03h19.86v70.86h-17.27l-30.11-39.18v39.18h-19.91v-70.86Z"/>
    </g>
  </g>
</svg>