<?xml version="1.0" encoding="UTF-8"?>
<svg id="Layer_2" data-name="Layer 2" xmlns="http://www.w3.org/2000/svg" viewBox="0 0 27.22 27.21">
  <defs>
    <style>
      .cls-1 {
        fill: #8f8f8f;
      }
    </style>
  </defs>
  <g id="Layer_1-2" data-name="Layer 1">
    <g>
      <polygon class="cls-1" points="7.49 14.41 10.48 14.41 8.98 9.26 7.49 14.41"/>
      <path class="cls-1" d="M20.11,12.11c-1.9-.54-2.17,1.76-2.17,1.76.14.14,3.35,0,3.35,0,.09-1.49-1.18-1.76-1.18-1.76Z"/>
      <path class="cls-1" d="M25.6,0H1.62C.72,0,0,.72,0,1.62v23.98c0,.89.72,1.62,1.62,1.62h23.98c.89,0,1.62-.72,1.62-1.62V1.62c0-.89-.72-1.62-1.62-1.62ZM12.03,19.91l-.88-3.05h-4.21l-.9,3.05h-2.56l3.93-11.94v-.95h3.14l4.39,12.89h-2.91ZM23.63,15.63l-5.7.14c.54,3.53,4.88,1.63,4.88,1.63v2.17c-1.9,1.22-5.02.27-5.02.27-2.98-1.49-2.58-5.02-2.44-5.83.14-.81.95-4.61,5.02-4.07,4.25.57,3.26,5.7,3.26,5.7Z"/>
    </g>
  </g>
</svg>