<?xml version="1.0" encoding="UTF-8"?>
<svg id="Layer_2" data-name="Layer 2" xmlns="http://www.w3.org/2000/svg" viewBox="0 0 27.07 27.07">
  <defs>
    <style>
      .cls-1 {
        fill: #8f8f8f;
      }
    </style>
  </defs>
  <g id="Layer_1-2" data-name="Layer 1">
    <g>
      <path class="cls-1" d="M16.52,10.49c-2.84,0-5.14,2.3-5.14,5.14s2.3,5.14,5.14,5.14,5.14-2.3,5.14-5.14-2.3-5.14-5.14-5.14ZM16.52,18.21c-1.42,0-2.57-1.15-2.57-2.57s1.15-2.57,2.57-2.57,2.57,1.15,2.57,2.57-1.15,2.57-2.57,2.57Z"/>
      <path class="cls-1" d="M24.46,0H2.61C1.17,0,0,1.17,0,2.61v21.85c0,1.44,1.17,2.61,2.61,2.61h21.85c1.44,0,2.61-1.17,2.61-2.61V2.61c0-1.44-1.17-2.61-2.61-2.61ZM16.52,24.57c-4.93,0-8.93-4-8.93-8.93,0-.1,0-.19,0-.28l-3.28,2.58c-.15.17-.32.31-.52.41h0s-.21.08-.21.08c-.13.04-.26.06-.4.06-.86,0-1.56-.79-1.56-1.76,0-.54.22-1.03.56-1.35h0s0,0,0,0c.08-.08.17-.15.27-.2l6.96-4.94h-4.4c-.9,0-1.62-.76-1.62-1.69s.73-1.69,1.62-1.69h8.72l-1.55-1.21h0c-.49-.3-.81-.83-.81-1.43,0-.93.79-1.69,1.76-1.69.4,0,.76.13,1.06.34h0s.03.02.03.02c.01.01.03.02.04.03l6.45,4.85h0c2.82,1.5,4.74,4.47,4.74,7.89,0,4.93-4,8.93-8.93,8.93Z"/>
    </g>
  </g>
</svg>