<?xml version="1.0" encoding="UTF-8"?>
<svg id="Layer_2" data-name="Layer 2" xmlns="http://www.w3.org/2000/svg" viewBox="0 0 27.03 27.03">
  <defs>
    <style>
      .cls-1 {
        fill: #8f8f8f;
      }
    </style>
  </defs>
  <g id="Layer_1-2" data-name="Layer 1">
    <path class="cls-1" d="M25.43,0H1.61C.72,0,0,.72,0,1.61v23.82c0,.89.72,1.61,1.61,1.61h23.82c.89,0,1.61-.72,1.61-1.61V1.61c0-.89-.72-1.61-1.61-1.61ZM16.24,5.47h2.19v-.39h-2.19v-3.07h3.76v1.22h-2.2v.41h2.2v3.12h-3.76v-1.3ZM11.62,5.47h2.19v-.39h-2.19v-3.07h3.76v1.22h-2.2v.41h2.2v3.12h-3.76v-1.3ZM7.01,2.01h3.8v1.63h-2.2v1.49h2.2v1.63h-3.8V2.01ZM20.41,14.17l-.74,9.23-6.07,1.76-6.11-1.76-.55-4.61h2.95l.18,2.21,3.53.85,3.21-.76.3-3.87H6.85l-.18-2.77,6.59-2.95h-6.78l-.55-2.95h14.9l.14,2.86-7.01,2.77h6.46Z"/>
  </g>
</svg>