<?xml version="1.0" encoding="UTF-8"?>
<svg id="Layer_2" data-name="Layer 2" xmlns="http://www.w3.org/2000/svg" viewBox="0 0 27.03 27.03">
  <defs>
    <style>
      .cls-1 {
        fill: #8f8f8f;
      }
    </style>
  </defs>
  <g id="Layer_1-2" data-name="Layer 1">
    <path class="cls-1" d="M25.43,0H1.61C.72,0,0,.72,0,1.61v23.82c0,.89.72,1.61,1.61,1.61h23.82c.89,0,1.61-.72,1.61-1.61V1.61c0-.89-.72-1.61-1.61-1.61ZM14.14,3.23h1.15l.74,1.2.69-1.2h1.21v3.37h-1.17v-1.67l-.73,1.22-.78-1.22v1.7h-1.11v-3.39ZM10.58,3.23h3v1.15h-.85v2.24h-1.19v-2.24h-.96v-1.15ZM6.86,3.23h1.15v1.15h.95v-1.15h1.15v3.39h-1.09v-1.15h-1.06v1.15h-1.11v-3.39ZM20.74,10.1l-11.44.18.37,2.95h10.7l-.74,9.04-6.09,1.66-6.09-1.66-.37-4.61h2.95l.09,2.31,3.51.92,3.14-.92.44-3.87H6.81l-.74-8.86h14.88l-.21,2.86ZM21.1,6.62h-2.66v-3.39h1.12v2.24h1.54v1.15Z"/>
  </g>
</svg>