<?xml version="1.0" encoding="UTF-8"?>
<svg id="Layer_2" data-name="Layer 2" xmlns="http://www.w3.org/2000/svg" viewBox="0 0 27.35 27.07">
  <defs>
    <style>
      .cls-1 {
        fill: #8f8f8f;
      }
    </style>
  </defs>
  <g id="Layer_1-2" data-name="Layer 1">
    <g>
      <path class="cls-1" d="M11.37,10.8c-.08-.26-.46-.25-.53.02l-.04.15-1.04,3.44c-.05.17.08.35.26.35h2.22c.18,0,.32-.18.26-.35l-1.14-3.6Z"/>
      <path class="cls-1" d="M25.01,0H2.34C1.05,0,0,1.04,0,2.32v22.44c0,1.28,1.05,2.32,2.34,2.32h22.66c1.29,0,2.34-1.04,2.34-2.32V2.32c0-1.28-1.05-2.32-2.34-2.32ZM16.77,20.04h-2.27c-.12,0-.23-.08-.26-.19l-.78-2.46c-.04-.11-.14-.19-.26-.19h-4.07c-.12,0-.23.08-.26.19l-.74,2.46c-.03.11-.14.19-.26.19h-2.01c-.19,0-.32-.18-.26-.36l3.83-11.11s.01-.06.01-.09v-.36c0-.15.12-.27.27-.27h2.83c.12,0,.22.07.26.18l4.22,11.64c.06.18-.07.36-.26.36ZM21.06,19.74c0,.16-.13.29-.29.29h-2.28c-.16,0-.29-.13-.29-.29v-8.62c0-.16.13-.29.29-.29h2.28c.16,0,.29.13.29.29v8.62ZM19.55,9.88c-.83,0-1.5-.67-1.5-1.49s.67-1.49,1.5-1.49,1.5.67,1.5,1.49-.67,1.49-1.5,1.49Z"/>
    </g>
  </g>
</svg>