<?xml version="1.0" encoding="UTF-8"?>
<svg id="Layer_2" data-name="Layer 2" xmlns="http://www.w3.org/2000/svg" viewBox="0 0 27.07 27.07">
  <defs>
    <style>
      .cls-1 {
        fill: #8f8f8f;
      }
    </style>
  </defs>
  <g id="Layer_1-2" data-name="Layer 1">
    <g>
      <path class="cls-1" d="M14.14,14.95s-.45,2.99,2.09,3.44c0,0,.75.18,1.64-.06v-5.51s-2.84-.86-3.74,2.13Z"/>
      <path class="cls-1" d="M24.8,0H2.27C1.02,0,0,1.02,0,2.27v22.53c0,1.25,1.02,2.27,2.27,2.27h22.53c1.25,0,2.27-1.02,2.27-2.27V2.27c0-1.25-1.02-2.27-2.27-2.27ZM9.2,20.5c0,.16-.13.29-.29.29h-2.27c-.16,0-.29-.13-.29-.29V7.62c0-.16.13-.29.29-.29h2.27c.16,0,.29.13.29.29v12.88ZM19.22,20.63c-.34.09-1.35.15-1.35.15,0,0-5.38,1.35-6.58-3.89,0,0-1.05-4.04,2.99-5.98,0,0,1.84-.85,3.59-.48v-4.3h2.69l.15,13.9s-1.12.5-1.49.6Z"/>
    </g>
  </g>
</svg>