<?xml version="1.0" encoding="UTF-8"?>
<svg id="Layer_2" data-name="Layer 2" xmlns="http://www.w3.org/2000/svg" viewBox="0 0 27.03 27.03">
  <defs>
    <style>
      .cls-1 {
        fill: #8f8f8f;
      }
    </style>
  </defs>
  <g id="Layer_1-2" data-name="Layer 1">
    <path class="cls-1" d="M25.36,0H1.67C.75,0,0,.75,0,1.67v23.69c0,.92.75,1.67,1.67,1.67h23.69c.92,0,1.67-.75,1.67-1.67V1.67c0-.92-.75-1.67-1.67-1.67ZM14.81,23.23c-.54.82-2.04,2.72-5.57,1.09,0,0-1.09-.54-1.63-1.77l2.11-1.29s.82,1.63,1.9,1.36,1.09-.95,1.09-.95l.07-9.31h2.56l.02,8.29s0,1.77-.54,2.58ZM23.43,24.52s-3.26,1.09-5.3-.54c0,0-1.22-.82-1.49-1.63l2.04-1.22s1.9,2.45,3.8,1.22c0,0,1.22-.82.14-1.9,0,0-1.22-.68-2.17-1.09,0,0-2.45-.82-2.85-2.72s.27-2.72.54-3.12,1.09-1.36,3.12-1.36,3.12,1.22,3.53,2.04l-2.04,1.22s-.54-1.36-2.04-.95c0,0-1.09.27-.68,1.49,0,0,.14.68,1.9,1.22s3.53,1.9,3.67,3.8-1.22,3.26-2.17,3.53Z"/>
  </g>
</svg>