<?xml version="1.0" encoding="UTF-8"?>
<svg id="Layer_2" data-name="Layer 2" xmlns="http://www.w3.org/2000/svg" viewBox="0 0 27.07 27.07">
  <defs>
    <style>
      .cls-1 {
        fill: #8f8f8f;
      }
    </style>
  </defs>
  <g id="Layer_1-2" data-name="Layer 1">
    <g>
      <path class="cls-1" d="M9.52,9.39h-1.68v4.09h1.89c.5,0,.99-.16,1.37-.48.39-.34.74-.9.66-1.81-.16-1.96-2.24-1.8-2.24-1.8Z"/>
      <path class="cls-1" d="M24.75,0H2.32C1.04,0,0,1.04,0,2.32v22.43c0,1.28,1.04,2.32,2.32,2.32h22.43c1.28,0,2.32-1.04,2.32-2.32V2.32c0-1.28-1.04-2.32-2.32-2.32ZM14.38,12.17c-.33,4.25-6.54,3.81-6.54,3.81v4.04h-2.78V6.93h5.02c1.42,0,4.63.98,4.3,5.23ZM21.09,19.2c-.65.82-4.42,1.47-6.21.33v-2.4s.16-.21.33-.05c.16.16,1.72,1.23,3.84.57,0,0,.98-.65-1.14-1.47-2.13-.82-2.94-1.27-3.03-3.33s2.21-2.72,2.21-2.72c0,0,3.6-.65,4.33.41v2.17s-.33.12-.65-.21-2.62-.49-2.78-.33-1.31.49.33,1.47c0,0,3.27.82,3.6,2.45.33,1.64-.08,2.19-.82,3.11Z"/>
    </g>
  </g>
</svg>