<?xml version="1.0" encoding="UTF-8"?>
<svg id="Layer_2" data-name="Layer 2" xmlns="http://www.w3.org/2000/svg" viewBox="0 0 27.22 27.21">
  <defs>
    <style>
      .cls-1 {
        fill: #8f8f8f;
      }
    </style>
  </defs>
  <g id="Layer_1-2" data-name="Layer 1">
    <g>
      <path class="cls-1" d="M10.07,9.18h-2.76v4.43s4.13.76,4.24-1.91c0,0,.1-2.36-1.47-2.52Z"/>
      <path class="cls-1" d="M25.6,0H1.62C.72,0,0,.72,0,1.62v23.98c0,.89.72,1.62,1.62,1.62h23.98c.89,0,1.62-.72,1.62-1.62V1.62c0-.89-.72-1.62-1.62-1.62ZM14.32,12.8s-.94,3.31-4.57,3.31h-2.45v4.61h-3.06V6.5h2.99s4.25-.16,5.83,1.26c1.57,1.42,1.73,3.94,1.26,5.04ZM22.98,12.74s-2.05-.39-3.46.85v7.12h-3.15v-10.75h3.15v.96c.42-.36,1.69-1.28,3.46-1.28v3.09Z"/>
    </g>
  </g>
</svg>